<?xml version="1.0" encoding="utf-8" standalone="no"?>
<!DOCTYPE svg PUBLIC "-//W3C//DTD SVG 1.1//EN"
  "http://www.w3.org/Graphics/SVG/1.1/DTD/svg11.dtd">
<!-- Created with matplotlib (http://matplotlib.org/) -->
<svg height="432pt" version="1.1" viewBox="0 0 576 432" width="576pt" xmlns="http://www.w3.org/2000/svg" xmlns:xlink="http://www.w3.org/1999/xlink">
 <defs>
  <style type="text/css">
*{stroke-linecap:butt;stroke-linejoin:round;stroke-miterlimit:100000;}
  </style>
 </defs>
 <g id="figure_1">
  <g id="patch_1">
   <path d="M 0 432 
L 576 432 
L 576 0 
L 0 0 
z
" style="fill:#ffffff;"/>
  </g>
  <g id="axes_1">
   <g id="patch_2">
    <path d="M 72 388.8 
L 518.4 388.8 
L 518.4 43.2 
L 72 43.2 
z
" style="fill:#ffffff;"/>
   </g>
   <g id="line2d_1">
    <path clip-path="url(#pa8501abcc4)" d="M 72.17856 255.693438 
L 97.8912 255.636979 
L 98.06976 253.682869 
L 98.24832 253.682518 
L 98.42688 240.361338 
L 98.60544 240.36124 
L 98.784 228.943288 
L 99.14112 228.943526 
L 99.31968 219.428767 
L 99.49824 219.429066 
L 99.6768 208.011512 
L 99.85536 208.012028 
L 100.03392 198.497667 
L 100.21248 198.498364 
L 100.39104 188.984183 
L 100.5696 188.985062 
L 100.74816 181.374038 
L 100.92672 181.375062 
L 101.10528 175.667159 
L 101.28384 175.668292 
L 101.4624 171.863474 
L 101.64096 171.86468 
L 101.81952 169.962911 
L 101.99808 169.964154 
L 102.17664 168.062422 
L 102.53376 168.064984 
L 102.71232 166.16329 
L 102.89088 166.164608 
L 103.248 162.361332 
L 103.42656 162.362724 
L 103.60512 160.461142 
L 103.78368 160.462572 
L 103.96224 158.561027 
L 104.1408 158.562495 
L 104.31936 154.758012 
L 104.49792 154.759555 
L 104.67648 152.858122 
L 104.85504 152.859702 
L 105.0336 150.958307 
L 105.39072 150.961544 
L 105.56928 149.060188 
L 105.74784 149.061845 
L 105.9264 145.257551 
L 106.10496 145.259283 
L 106.28352 143.35804 
L 106.8192 143.363354 
L 106.99776 139.559176 
L 107.17632 139.561024 
L 107.53344 135.758807 
L 107.712 135.760732 
L 108.06912 131.958669 
L 108.24768 131.96067 
L 108.42624 130.059697 
L 108.6048 130.061737 
L 108.78336 128.160804 
L 108.96192 128.162883 
L 109.14048 126.261989 
L 109.85472 126.270475 
L 110.03328 124.369624 
L 110.56896 124.376117 
L 110.74752 122.475308 
L 110.92608 122.477514 
L 111.10464 120.576746 
L 111.2832 120.578991 
L 111.46176 118.678263 
L 112.176 118.687416 
L 112.35456 116.786732 
L 112.89024 116.793729 
L 113.0688 114.893089 
L 113.24736 114.895464 
L 113.42592 112.994864 
L 113.60448 112.99728 
L 113.78304 111.096721 
L 114.67584 111.109019 
L 114.8544 109.208508 
L 115.21152 109.213519 
L 115.39008 107.313051 
L 115.56864 107.315598 
L 115.7472 105.415172 
L 116.28288 105.422944 
L 116.46144 103.522563 
L 116.64 103.525197 
L 116.81856 99.721882 
L 116.99712 99.724597 
L 118.06848 88.323647 
L 118.24704 88.326606 
L 118.4256 86.426592 
L 118.96128 86.435606 
L 119.13984 84.53564 
L 120.74688 84.563185 
L 120.92544 82.663282 
L 121.28256 82.669514 
L 121.46112 84.575609 
L 122.53248 84.594144 
L 122.71104 82.694267 
L 126.10368 82.754357 
L 126.28224 80.854569 
L 126.63936 80.861033 
L 126.81792 82.767244 
L 127.53216 82.780053 
L 127.71072 80.880286 
L 128.06784 80.886792 
L 128.2464 82.793024 
L 128.42496 82.796243 
L 128.60352 80.896489 
L 128.96064 80.90302 
L 129.1392 82.809265 
L 129.49632 82.815731 
L 129.67488 80.915992 
L 129.85344 80.919272 
L 130.032 82.82553 
L 135.74592 82.930617 
L 135.92448 81.030967 
L 136.63872 81.044463 
L 136.81728 82.950819 
L 137.1744 82.957504 
L 137.35296 81.057875 
L 138.0672 81.071453 
L 138.24576 82.97783 
L 138.60288 82.984556 
L 138.78144 81.084947 
L 138.96 81.088359 
L 139.13856 82.994748 
L 140.92416 83.028607 
L 141.10272 84.934982 
L 141.28128 84.938342 
L 141.45984 83.038728 
L 143.06688 83.069485 
L 143.24544 81.16994 
L 144.13824 81.187343 
L 144.3168 79.287856 
L 144.85248 79.298467 
L 145.03104 77.399033 
L 146.9952 77.438653 
L 147.17376 75.539295 
L 148.7808 75.572376 
L 148.95936 73.67309 
L 150.20928 73.699305 
L 150.38784 71.800085 
L 151.28064 71.819132 
L 151.4592 73.725926 
L 151.63776 73.729702 
L 151.81632 75.636457 
L 151.99488 75.640195 
L 152.17344 77.546911 
L 152.352 77.550609 
L 152.53056 79.457286 
L 152.70912 79.460945 
L 152.88768 81.367582 
L 153.06624 81.371202 
L 153.2448 85.180776 
L 153.42336 85.184311 
L 153.60192 87.090824 
L 153.78048 87.094319 
L 153.95904 89.000792 
L 154.1376 89.004247 
L 154.31616 90.91068 
L 154.49472 90.914094 
L 154.67328 92.820486 
L 154.85184 92.82386 
L 155.0304 94.730212 
L 155.20896 94.733545 
L 155.38752 96.639856 
L 155.56608 96.643148 
L 155.74464 98.549418 
L 155.9232 98.552669 
L 156.10176 100.458898 
L 156.28032 100.462108 
L 156.45888 102.368295 
L 156.63744 102.371463 
L 156.816 104.277609 
L 156.99456 104.280736 
L 157.17312 108.089815 
L 157.35168 108.092855 
L 157.53024 109.998871 
L 157.7088 110.001869 
L 157.88736 111.907843 
L 158.06592 111.910798 
L 158.24448 113.816731 
L 158.42304 113.819643 
L 158.6016 115.725533 
L 159.13728 115.734148 
L 159.31584 119.542974 
L 159.4944 119.545758 
L 159.67296 121.45152 
L 159.85152 121.454261 
L 160.03008 129.068907 
L 160.20864 129.071467 
L 160.3872 134.782956 
L 160.56576 134.785381 
L 160.74432 136.690783 
L 160.92288 136.693164 
L 161.10144 142.404473 
L 161.28 142.406719 
L 161.45856 150.020867 
L 161.63712 150.02293 
L 161.81568 153.830944 
L 161.99424 153.832916 
L 162.1728 163.349767 
L 162.35136 163.35151 
L 162.52992 167.159204 
L 162.70848 167.160855 
L 162.88704 170.968458 
L 163.0656 170.970018 
L 163.24416 176.680505 
L 163.42272 176.681927 
L 163.60128 178.586325 
L 163.77984 178.587701 
L 163.9584 182.395029 
L 164.13696 182.396313 
L 164.31552 186.203549 
L 164.49408 186.204741 
L 164.67264 190.011885 
L 164.8512 190.012985 
L 165.02976 191.917061 
L 165.20832 191.918115 
L 165.38688 193.822145 
L 165.56544 193.823153 
L 165.744 197.630113 
L 165.92256 197.631029 
L 166.10112 199.53492 
L 166.27968 199.53579 
L 166.45824 201.439635 
L 166.6368 201.440459 
L 166.81536 205.247233 
L 166.99392 205.247964 
L 167.17248 207.151671 
L 167.35104 207.152355 
L 167.5296 209.056015 
L 167.70816 209.056654 
L 167.88672 210.960267 
L 168.06528 210.960859 
L 168.24384 212.864427 
L 168.4224 212.864972 
L 168.60096 214.768493 
L 169.13664 214.769991 
L 169.3152 216.673466 
L 169.49376 216.673918 
L 169.67232 218.577347 
L 170.208 218.578565 
L 170.38656 220.481947 
L 170.74368 220.482667 
L 171.1008 224.289291 
L 171.27936 224.289558 
L 171.45792 226.192801 
L 172.35072 226.193902 
L 172.52928 228.097098 
L 173.42208 228.097967 
L 173.60064 230.001116 
L 173.7792 230.001243 
L 173.95776 231.904346 
L 175.5648 231.905072 
L 175.74336 233.808128 
L 177.3504 233.808435 
L 177.52896 235.711444 
L 179.136 235.711332 
L 179.31456 237.614295 
L 180.9216 237.613763 
L 181.10016 239.51668 
L 181.99296 239.516151 
L 182.17152 237.61307 
L 182.52864 237.612952 
L 182.7072 239.515869 
L 184.13568 239.515024 
L 184.31424 241.417894 
L 184.4928 241.417742 
L 184.67136 239.514614 
L 185.92128 239.513876 
L 186.09984 241.416746 
L 186.2784 241.416594 
L 186.45696 239.513466 
L 187.34976 239.512939 
L 187.52832 241.415809 
L 188.064 241.415353 
L 188.24256 239.512225 
L 189.13536 239.511698 
L 189.31392 241.414569 
L 190.20672 241.413809 
L 190.38528 239.510682 
L 190.56384 239.510576 
L 190.7424 241.413446 
L 191.99232 241.412384 
L 192.17088 239.509256 
L 192.34944 239.509151 
L 192.528 241.412021 
L 193.4208 241.411262 
L 193.59936 239.508135 
L 194.13504 239.507819 
L 194.3136 241.41069 
L 195.2064 241.409931 
L 195.38496 239.506804 
L 195.92064 239.506488 
L 196.0992 241.409359 
L 196.992 241.408601 
L 197.17056 239.505473 
L 197.70624 239.505158 
L 197.8848 241.408028 
L 198.42048 241.407574 
L 198.59904 239.504447 
L 199.49184 239.503921 
L 199.6704 241.406792 
L 200.5632 241.406034 
L 200.74176 239.502907 
L 201.63456 239.502382 
L 201.81312 241.405253 
L 202.3488 241.404799 
L 202.52736 239.501672 
L 203.42016 239.501147 
L 203.59872 241.404017 
L 204.49152 241.403261 
L 204.67008 239.500134 
L 205.56288 239.499609 
L 205.74144 241.40248 
L 205.92 241.402329 
L 206.09856 239.499202 
L 207.34848 239.498468 
L 207.52704 241.401339 
L 208.06272 241.400885 
L 208.24128 239.497758 
L 209.4912 239.497025 
L 209.66976 241.399896 
L 209.84832 241.399745 
L 210.02688 239.496618 
L 211.63392 239.495675 
L 211.81248 241.398546 
L 211.99104 241.398395 
L 212.1696 239.495269 
L 223.24032 239.488787 
L 223.41888 237.585707 
L 223.59744 239.488625 
L 225.20448 239.487686 
L 225.38304 237.584606 
L 225.91872 237.584432 
L 226.09728 239.487349 
L 227.70432 239.48641 
L 227.88288 237.58333 
L 228.77568 237.583041 
L 228.95424 239.485958 
L 230.56128 239.48502 
L 230.73984 237.58194 
L 231.27552 237.581766 
L 231.45408 239.484684 
L 233.06112 239.483746 
L 233.23968 237.580666 
L 234.13248 237.580377 
L 234.31104 239.483295 
L 235.91808 239.482358 
L 236.09664 237.579278 
L 236.81088 237.579046 
L 236.98944 239.481964 
L 238.23936 239.481236 
L 238.41792 237.578156 
L 239.13216 237.577925 
L 239.31072 239.480843 
L 240.91776 239.479906 
L 241.09632 237.576827 
L 241.98912 237.576538 
L 242.16768 239.479456 
L 243.4176 239.478728 
L 243.59616 237.575649 
L 245.2032 237.575129 
L 245.38176 239.478047 
L 246.63168 239.47732 
L 246.81024 237.57424 
L 248.7744 237.573606 
L 248.95296 239.476524 
L 249.84576 239.476005 
L 250.02432 237.572926 
L 250.73856 237.572695 
L 251.63136 247.171941 
L 251.80992 247.188675 
L 251.98848 249.108384 
L 252.3456 254.850591 
L 252.70272 258.689591 
L 252.88128 258.706045 
L 253.05984 260.625475 
L 253.2384 260.641883 
L 253.41696 262.561266 
L 253.59552 262.577626 
L 254.1312 268.335495 
L 254.30976 268.351716 
L 254.48832 270.270913 
L 254.66688 268.384112 
L 254.84544 270.303308 
L 255.024 270.319482 
L 255.55968 276.076791 
L 255.73824 274.18985 
L 255.9168 276.108907 
L 256.09536 276.124941 
L 256.27392 278.043951 
L 256.45248 276.156963 
L 256.98816 281.913853 
L 257.16672 280.026773 
L 257.34528 281.94569 
L 257.52384 280.058609 
L 257.7024 281.977526 
L 257.88096 281.99342 
L 258.05952 283.912291 
L 258.23808 283.928139 
L 258.41664 285.846963 
L 258.5952 283.95979 
L 258.77376 285.878614 
L 258.95232 283.99144 
L 259.13088 285.910264 
L 259.30944 285.926066 
L 259.488 287.844843 
L 259.84512 284.07045 
L 260.02368 285.989273 
L 260.20224 286.005075 
L 260.3808 287.923852 
L 260.55936 286.036632 
L 260.73792 287.955409 
L 260.91648 287.971164 
L 261.09504 289.889895 
L 261.2736 288.002629 
L 261.45216 289.92136 
L 261.63072 288.034094 
L 261.80928 289.952824 
L 261.98784 288.065558 
L 262.1664 289.984289 
L 262.34496 289.999998 
L 262.52352 291.918683 
L 262.70208 288.128395 
L 262.88064 290.047126 
L 263.0592 288.159859 
L 263.23776 290.07859 
L 263.41632 288.191323 
L 263.59488 290.110053 
L 263.77344 290.125762 
L 263.952 292.044447 
L 264.13056 290.157134 
L 264.30912 292.075819 
L 264.48768 292.091482 
L 264.66624 294.010121 
L 265.02336 290.235451 
L 265.20192 292.154135 
L 265.38048 290.266823 
L 265.55904 292.185507 
L 265.7376 292.20117 
L 265.91616 294.119809 
L 266.09472 292.232451 
L 266.27328 294.15109 
L 266.45184 292.263732 
L 266.6304 294.182371 
L 266.80896 294.197989 
L 267.16608 298.035131 
L 267.34464 298.050658 
L 267.88032 303.806031 
L 268.05888 303.821423 
L 268.23744 305.73979 
L 268.416 305.755137 
L 268.59456 307.673459 
L 268.77312 307.671737 
L 268.95168 305.76704 
L 269.48736 305.762014 
L 269.66592 303.857364 
L 269.84448 303.855735 
L 270.02304 301.951132 
L 270.73728 301.944806 
L 270.91584 300.040251 
L 271.0944 300.038716 
L 271.27296 298.134207 
L 271.63008 298.13123 
L 271.80864 296.226767 
L 272.52288 296.221001 
L 272.70144 294.316586 
L 272.88 294.315191 
L 273.05856 292.410821 
L 273.7728 292.405426 
L 273.95136 290.501103 
L 274.30848 290.498499 
L 274.48704 288.594222 
L 275.5584 288.586688 
L 275.73696 286.682458 
L 276.09408 286.68004 
L 276.27264 284.775856 
L 276.62976 284.773529 
L 276.80832 282.86939 
L 276.98688 282.868272 
L 277.16544 280.964178 
L 277.52256 280.962033 
L 277.70112 279.057985 
L 278.41536 279.053876 
L 278.59392 277.149873 
L 279.1296 277.146929 
L 279.30816 275.242972 
L 279.66528 275.241099 
L 279.84384 273.337187 
L 280.73664 273.332732 
L 280.9152 271.428866 
L 281.62944 271.425484 
L 281.808 269.521663 
L 282.16512 269.520062 
L 282.34368 267.616286 
L 283.05792 267.613264 
L 283.23648 265.709533 
L 283.95072 265.70669 
L 284.12928 263.803004 
L 285.20064 263.799011 
L 285.3792 261.89537 
L 286.09344 261.892887 
L 286.272 259.989291 
L 287.34336 259.985835 
L 287.52192 258.082283 
L 288.0576 258.080689 
L 288.23616 256.177183 
L 289.12896 256.174748 
L 289.30752 254.271286 
L 290.20032 254.269075 
L 290.37888 252.365657 
L 291.27168 252.363667 
L 291.45024 250.460294 
L 292.34304 250.458526 
L 292.5216 248.555197 
L 293.4144 248.55365 
L 293.59296 246.650365 
L 294.84288 246.64851 
L 295.02144 244.745269 
L 296.27136 244.743723 
L 296.44992 242.840526 
L 297.69984 242.839289 
L 297.8784 240.936137 
L 299.12832 240.935208 
L 299.30688 239.0321 
L 300.5568 239.03148 
L 300.73536 237.128416 
L 302.69952 237.127925 
L 302.87808 235.224905 
L 304.48512 235.2249 
L 304.66368 233.321924 
L 306.27072 233.322314 
L 306.44928 231.419382 
L 308.77056 231.420519 
L 308.94912 229.51763 
L 310.91328 229.519076 
L 311.09184 227.616232 
L 311.2704 227.616407 
L 311.44896 229.519558 
L 311.62752 229.51969 
L 311.80608 227.616846 
L 313.77024 227.618776 
L 313.9488 225.715976 
L 317.69856 225.720587 
L 317.87712 223.817831 
L 322.34112 223.824428 
L 322.51968 221.921716 
L 328.05504 221.931274 
L 328.2336 220.028607 
L 328.59072 220.029313 
L 328.76928 221.932641 
L 328.94784 221.93295 
L 329.1264 220.030283 
L 341.98272 220.055736 
L 342.16128 218.153114 
L 342.33984 218.153513 
L 342.5184 220.056887 
L 342.69696 220.057241 
L 342.87552 218.15462 
L 343.4112 218.155816 
L 343.58976 220.059191 
L 343.76832 220.059545 
L 343.94688 218.156924 
L 344.12544 218.157323 
L 344.304 220.060697 
L 344.83968 220.061761 
L 345.01824 218.159139 
L 345.1968 218.159538 
L 345.37536 220.062913 
L 345.55392 220.063268 
L 345.73248 218.160646 
L 345.91104 218.161046 
L 346.0896 220.06442 
L 346.62528 220.065484 
L 346.80384 218.162863 
L 346.9824 218.163262 
L 347.16096 220.066637 
L 347.33952 220.066992 
L 347.51808 218.164371 
L 347.69664 218.16477 
L 347.8752 220.068145 
L 348.41088 220.06921 
L 348.58944 218.166589 
L 348.768 218.166988 
L 348.94656 220.070363 
L 349.12512 220.070718 
L 349.30368 218.168098 
L 349.48224 218.168497 
L 349.6608 220.071872 
L 351.62496 220.075778 
L 351.80352 218.173157 
L 351.98208 218.173557 
L 352.16064 220.076933 
L 355.55328 220.083684 
L 355.73184 218.181064 
L 355.9104 218.181465 
L 356.08896 220.08484 
L 371.26656 220.115127 
L 371.44512 222.018459 
L 371.62368 220.115796 
L 371.80224 220.116153 
L 371.9808 222.019486 
L 372.51648 222.020422 
L 372.69504 220.117758 
L 372.8736 220.118115 
L 373.05216 222.021448 
L 384.65856 222.041762 
L 384.83712 223.945051 
L 385.01568 223.945319 
L 385.19424 222.042611 
L 385.55136 222.043237 
L 385.72992 223.946525 
L 385.90848 223.946793 
L 386.08704 222.044085 
L 386.2656 222.044398 
L 386.44416 223.947687 
L 386.97984 223.94849 
L 387.1584 222.045782 
L 387.33696 222.046095 
L 387.51552 223.949384 
L 394.65792 223.960102 
L 394.83648 225.863346 
L 395.1936 225.863791 
L 395.37216 223.961038 
L 395.55072 223.961307 
L 395.72928 225.86455 
L 405.72864 225.877031 
L 405.9072 227.78023 
L 406.44288 227.780762 
L 406.62144 225.877964 
L 406.8 225.878187 
L 406.97856 227.781386 
L 419.65632 227.793993 
L 419.83488 229.697146 
L 420.54912 229.697674 
L 420.72768 227.794831 
L 421.0848 227.795186 
L 421.26336 229.698339 
L 434.83392 229.708372 
L 435.01248 231.611479 
L 435.19104 231.611565 
L 435.3696 229.708676 
L 436.2624 229.709336 
L 436.44096 231.612444 
L 460.18944 231.623911 
L 460.368 233.526972 
L 464.11776 233.527819 
L 464.29632 231.624884 
L 464.832 231.625142 
L 465.01056 233.528204 
L 504.47232 233.537093 
L 504.65088 235.440109 
L 505.18656 235.440092 
L 505.36512 233.53711 
L 505.54368 233.53715 
L 505.72224 235.440166 
L 508.04352 235.440091 
L 508.22208 233.537109 
L 508.40064 233.53715 
L 508.5792 235.440165 
L 510.90048 235.44009 
L 511.07904 233.537109 
L 511.2576 233.537149 
L 511.43616 235.440164 
L 513.75744 235.440089 
L 513.936 233.537108 
L 514.11456 233.537148 
L 514.29312 235.440164 
L 516.6144 235.440088 
L 516.79296 233.537107 
L 516.97152 233.537147 
L 517.15008 235.440163 
L 518.4 235.440122 
L 518.4 235.440122 
" style="fill:none;stroke:#008000;stroke-linecap:square;"/>
   </g>
   <g id="line2d_2">
    <path clip-path="url(#pa8501abcc4)" d="M 72.17856 235.2 
L 72.53568 235.2 
L 72.71424 369.141307 
L 75.03552 369.210189 
L 78.60672 369.320384 
L 81.10656 369.403033 
L 85.21344 369.51324 
L 87.71328 369.595889 
L 91.82016 369.706096 
L 94.49856 369.802524 
L 98.784 369.91273 
L 100.03392 369.91273 
L 105.56928 369.375488 
L 116.46144 367.639785 
L 116.81856 367.543357 
L 117.5328 367.43315 
L 118.24704 367.254062 
L 118.96128 367.143867 
L 131.63904 364.292342 
L 131.99616 364.209693 
L 134.67456 363.694423 
L 135.56736 363.59534 
L 136.2816 363.460231 
L 137.1744 363.36116 
L 158.24448 360.280753 
L 164.8512 359.722316 
L 169.85088 359.578212 
L 214.13376 359.68629 
L 216.6336 359.704303 
L 249.84576 359.812392 
L 252.3456 359.830405 
L 256.27392 359.938483 
L 287.52192 361.406635 
L 293.77152 361.514724 
L 296.44992 361.541743 
L 323.41248 361.433654 
L 326.26944 361.397628 
L 334.30464 361.289539 
L 337.51872 361.2355 
L 345.37536 361.12741 
L 348.58944 361.073371 
L 356.44608 360.965293 
L 359.66016 360.911243 
L 367.5168 360.803165 
L 370.55232 360.758132 
L 379.1232 360.650043 
L 381.98016 360.614017 
L 391.44384 360.505927 
L 394.3008 360.469901 
L 406.97856 360.361823 
L 409.65696 360.334804 
L 427.87008 360.226714 
L 430.36992 360.208701 
L 460.368 360.100612 
L 462.68928 360.091605 
L 518.4 360.019553 
L 518.4 360.019553 
" style="fill:none;stroke:#000000;stroke-dasharray:6.000000,6.000000;stroke-dashoffset:0.0;"/>
   </g>
   <g id="line2d_3">
    <path clip-path="url(#pa8501abcc4)" d="M 72.17856 235.2 
L 72.53568 235.2 
L 72.71424 73.444148 
L 74.32128 73.35937 
L 76.82112 73.25341 
L 78.42816 73.168643 
L 80.928 73.062671 
L 82.35648 72.999099 
L 84.85632 72.893127 
L 86.46336 72.80836 
L 88.9632 72.702388 
L 90.57024 72.617622 
L 93.07008 72.511661 
L 94.67712 72.426883 
L 97.35552 72.320922 
L 98.96256 72.236144 
L 100.92672 72.342105 
L 104.85504 72.914321 
L 108.42624 73.677264 
L 108.96192 73.762042 
L 114.14016 75.097202 
L 114.8544 75.330318 
L 115.7472 75.542251 
L 116.46144 75.754184 
L 116.64 75.902534 
L 117.35424 76.008506 
L 122.71104 77.852298 
L 122.8896 77.852298 
L 123.24672 78.021831 
L 127.71072 79.547729 
L 128.06784 79.611312 
L 128.60352 79.865623 
L 128.78208 79.865623 
L 129.31776 80.119945 
L 129.67488 80.162334 
L 130.032 80.353061 
L 130.38912 80.416644 
L 130.9248 80.670955 
L 131.28192 80.776927 
L 133.96032 81.666167 
L 134.31744 81.761543 
L 145.03104 84.511329 
L 145.38816 84.606704 
L 145.74528 84.702068 
L 146.1024 84.797431 
L 157.35168 87.69028 
L 164.31552 88.818805 
L 168.4224 89.073127 
L 172.52928 89.168491 
L 174.13632 89.200282 
L 193.4208 89.104919 
L 194.84928 89.089023 
L 206.27712 88.993648 
L 207.7056 88.977763 
L 220.74048 88.882388 
L 222.16896 88.866492 
L 238.41792 88.771117 
L 239.8464 88.755233 
L 253.05984 88.659869 
L 256.63104 88.453223 
L 258.05952 88.35786 
L 271.0944 87.086284 
L 272.52288 86.927325 
L 273.41568 86.863754 
L 274.12992 86.76839 
L 275.5584 86.688911 
L 276.09408 86.593547 
L 277.16544 86.498172 
L 282.7008 86.116695 
L 284.84352 86.021331 
L 287.52192 85.894176 
L 290.02176 85.798801 
L 291.80736 85.751125 
L 296.62848 85.65575 
L 298.23552 85.623958 
L 316.98432 85.719333 
L 318.59136 85.751125 
L 323.41248 85.846488 
L 325.19808 85.894176 
L 329.84064 85.989539 
L 331.62624 86.037227 
L 335.376 86.132602 
L 337.1616 86.180278 
L 341.08992 86.275653 
L 342.87552 86.323329 
L 346.44672 86.418704 
L 348.41088 86.482276 
L 352.3392 86.577651 
L 354.1248 86.625339 
L 358.23168 86.720702 
L 360.19584 86.784274 
L 364.30272 86.879649 
L 366.08832 86.927325 
L 370.1952 87.022701 
L 372.15936 87.086284 
L 376.80192 87.181647 
L 378.58752 87.229335 
L 383.40864 87.324699 
L 385.19424 87.372386 
L 390.37248 87.46775 
L 391.97952 87.499541 
L 397.69344 87.594917 
L 399.30048 87.626708 
L 405.9072 87.722072 
L 407.51424 87.753864 
L 415.90656 87.849227 
L 417.5136 87.881019 
L 427.87008 87.976382 
L 429.29856 87.992278 
L 441.6192 88.087653 
L 443.04768 88.103549 
L 460.368 88.198913 
L 461.79648 88.214809 
L 498.93696 88.310172 
L 500.36544 88.326068 
L 518.4 88.341964 
L 518.4 88.341964 
" style="fill:none;stroke:#000000;stroke-dasharray:6.000000,6.000000;stroke-dashoffset:0.0;"/>
   </g>
   <g id="patch_3">
    <path d="M 72 43.2 
L 518.4 43.2 
" style="fill:none;stroke:#000000;stroke-linecap:square;stroke-linejoin:miter;"/>
   </g>
   <g id="patch_4">
    <path d="M 518.4 388.8 
L 518.4 43.2 
" style="fill:none;stroke:#000000;stroke-linecap:square;stroke-linejoin:miter;"/>
   </g>
   <g id="patch_5">
    <path d="M 72 388.8 
L 518.4 388.8 
" style="fill:none;stroke:#000000;stroke-linecap:square;stroke-linejoin:miter;"/>
   </g>
   <g id="patch_6">
    <path d="M 72 388.8 
L 72 43.2 
" style="fill:none;stroke:#000000;stroke-linecap:square;stroke-linejoin:miter;"/>
   </g>
   <g id="matplotlib.axis_1">
    <g id="xtick_1">
     <g id="line2d_4">
      <path clip-path="url(#pa8501abcc4)" d="M 72 388.8 
L 72 43.2 
" style="fill:none;stroke:#000000;stroke-dasharray:1.000000,3.000000;stroke-dashoffset:0.0;stroke-width:0.5;"/>
     </g>
     <g id="line2d_5">
      <defs>
       <path d="M 0 0 
L 0 -4 
" id="m53892a1273" style="stroke:#000000;stroke-width:0.5;"/>
      </defs>
      <g>
       <use style="stroke:#000000;stroke-width:0.5;" x="72.0" xlink:href="#m53892a1273" y="388.8"/>
      </g>
     </g>
     <g id="line2d_6">
      <defs>
       <path d="M 0 0 
L 0 4 
" id="m2ae05b7e24" style="stroke:#000000;stroke-width:0.5;"/>
      </defs>
      <g>
       <use style="stroke:#000000;stroke-width:0.5;" x="72.0" xlink:href="#m2ae05b7e24" y="43.2"/>
      </g>
     </g>
     <g id="text_1">
      <!-- 0 -->
      <defs>
       <path d="M 31.78125 66.40625 
Q 24.171875 66.40625 20.328125 58.90625 
Q 16.5 51.421875 16.5 36.375 
Q 16.5 21.390625 20.328125 13.890625 
Q 24.171875 6.390625 31.78125 6.390625 
Q 39.453125 6.390625 43.28125 13.890625 
Q 47.125 21.390625 47.125 36.375 
Q 47.125 51.421875 43.28125 58.90625 
Q 39.453125 66.40625 31.78125 66.40625 
M 31.78125 74.21875 
Q 44.046875 74.21875 50.515625 64.515625 
Q 56.984375 54.828125 56.984375 36.375 
Q 56.984375 17.96875 50.515625 8.265625 
Q 44.046875 -1.421875 31.78125 -1.421875 
Q 19.53125 -1.421875 13.0625 8.265625 
Q 6.59375 17.96875 6.59375 36.375 
Q 6.59375 54.828125 13.0625 64.515625 
Q 19.53125 74.21875 31.78125 74.21875 
" id="BitstreamVeraSans-Roman-30"/>
      </defs>
      <g transform="translate(68.1825 401.918125)scale(0.12 -0.12)">
       <use xlink:href="#BitstreamVeraSans-Roman-30"/>
      </g>
     </g>
    </g>
    <g id="xtick_2">
     <g id="line2d_7">
      <path clip-path="url(#pa8501abcc4)" d="M 161.28 388.8 
L 161.28 43.2 
" style="fill:none;stroke:#000000;stroke-dasharray:1.000000,3.000000;stroke-dashoffset:0.0;stroke-width:0.5;"/>
     </g>
     <g id="line2d_8">
      <g>
       <use style="stroke:#000000;stroke-width:0.5;" x="161.28" xlink:href="#m53892a1273" y="388.8"/>
      </g>
     </g>
     <g id="line2d_9">
      <g>
       <use style="stroke:#000000;stroke-width:0.5;" x="161.28" xlink:href="#m2ae05b7e24" y="43.2"/>
      </g>
     </g>
     <g id="text_2">
      <!-- 5 -->
      <defs>
       <path d="M 10.796875 72.90625 
L 49.515625 72.90625 
L 49.515625 64.59375 
L 19.828125 64.59375 
L 19.828125 46.734375 
Q 21.96875 47.46875 24.109375 47.828125 
Q 26.265625 48.1875 28.421875 48.1875 
Q 40.625 48.1875 47.75 41.5 
Q 54.890625 34.8125 54.890625 23.390625 
Q 54.890625 11.625 47.5625 5.09375 
Q 40.234375 -1.421875 26.90625 -1.421875 
Q 22.3125 -1.421875 17.546875 -0.640625 
Q 12.796875 0.140625 7.71875 1.703125 
L 7.71875 11.625 
Q 12.109375 9.234375 16.796875 8.0625 
Q 21.484375 6.890625 26.703125 6.890625 
Q 35.15625 6.890625 40.078125 11.328125 
Q 45.015625 15.765625 45.015625 23.390625 
Q 45.015625 31 40.078125 35.4375 
Q 35.15625 39.890625 26.703125 39.890625 
Q 22.75 39.890625 18.8125 39.015625 
Q 14.890625 38.140625 10.796875 36.28125 
z
" id="BitstreamVeraSans-Roman-35"/>
      </defs>
      <g transform="translate(157.4625 401.918125)scale(0.12 -0.12)">
       <use xlink:href="#BitstreamVeraSans-Roman-35"/>
      </g>
     </g>
    </g>
    <g id="xtick_3">
     <g id="line2d_10">
      <path clip-path="url(#pa8501abcc4)" d="M 250.56 388.8 
L 250.56 43.2 
" style="fill:none;stroke:#000000;stroke-dasharray:1.000000,3.000000;stroke-dashoffset:0.0;stroke-width:0.5;"/>
     </g>
     <g id="line2d_11">
      <g>
       <use style="stroke:#000000;stroke-width:0.5;" x="250.56" xlink:href="#m53892a1273" y="388.8"/>
      </g>
     </g>
     <g id="line2d_12">
      <g>
       <use style="stroke:#000000;stroke-width:0.5;" x="250.56" xlink:href="#m2ae05b7e24" y="43.2"/>
      </g>
     </g>
     <g id="text_3">
      <!-- 10 -->
      <defs>
       <path d="M 12.40625 8.296875 
L 28.515625 8.296875 
L 28.515625 63.921875 
L 10.984375 60.40625 
L 10.984375 69.390625 
L 28.421875 72.90625 
L 38.28125 72.90625 
L 38.28125 8.296875 
L 54.390625 8.296875 
L 54.390625 0 
L 12.40625 0 
z
" id="BitstreamVeraSans-Roman-31"/>
      </defs>
      <g transform="translate(242.925 401.918125)scale(0.12 -0.12)">
       <use xlink:href="#BitstreamVeraSans-Roman-31"/>
       <use x="63.623046875" xlink:href="#BitstreamVeraSans-Roman-30"/>
      </g>
     </g>
    </g>
    <g id="xtick_4">
     <g id="line2d_13">
      <path clip-path="url(#pa8501abcc4)" d="M 339.84 388.8 
L 339.84 43.2 
" style="fill:none;stroke:#000000;stroke-dasharray:1.000000,3.000000;stroke-dashoffset:0.0;stroke-width:0.5;"/>
     </g>
     <g id="line2d_14">
      <g>
       <use style="stroke:#000000;stroke-width:0.5;" x="339.84" xlink:href="#m53892a1273" y="388.8"/>
      </g>
     </g>
     <g id="line2d_15">
      <g>
       <use style="stroke:#000000;stroke-width:0.5;" x="339.84" xlink:href="#m2ae05b7e24" y="43.2"/>
      </g>
     </g>
     <g id="text_4">
      <!-- 15 -->
      <g transform="translate(332.205 401.918125)scale(0.12 -0.12)">
       <use xlink:href="#BitstreamVeraSans-Roman-31"/>
       <use x="63.623046875" xlink:href="#BitstreamVeraSans-Roman-35"/>
      </g>
     </g>
    </g>
    <g id="xtick_5">
     <g id="line2d_16">
      <path clip-path="url(#pa8501abcc4)" d="M 429.12 388.8 
L 429.12 43.2 
" style="fill:none;stroke:#000000;stroke-dasharray:1.000000,3.000000;stroke-dashoffset:0.0;stroke-width:0.5;"/>
     </g>
     <g id="line2d_17">
      <g>
       <use style="stroke:#000000;stroke-width:0.5;" x="429.12" xlink:href="#m53892a1273" y="388.8"/>
      </g>
     </g>
     <g id="line2d_18">
      <g>
       <use style="stroke:#000000;stroke-width:0.5;" x="429.12" xlink:href="#m2ae05b7e24" y="43.2"/>
      </g>
     </g>
     <g id="text_5">
      <!-- 20 -->
      <defs>
       <path d="M 19.1875 8.296875 
L 53.609375 8.296875 
L 53.609375 0 
L 7.328125 0 
L 7.328125 8.296875 
Q 12.9375 14.109375 22.625 23.890625 
Q 32.328125 33.6875 34.8125 36.53125 
Q 39.546875 41.84375 41.421875 45.53125 
Q 43.3125 49.21875 43.3125 52.78125 
Q 43.3125 58.59375 39.234375 62.25 
Q 35.15625 65.921875 28.609375 65.921875 
Q 23.96875 65.921875 18.8125 64.3125 
Q 13.671875 62.703125 7.8125 59.421875 
L 7.8125 69.390625 
Q 13.765625 71.78125 18.9375 73 
Q 24.125 74.21875 28.421875 74.21875 
Q 39.75 74.21875 46.484375 68.546875 
Q 53.21875 62.890625 53.21875 53.421875 
Q 53.21875 48.921875 51.53125 44.890625 
Q 49.859375 40.875 45.40625 35.40625 
Q 44.1875 33.984375 37.640625 27.21875 
Q 31.109375 20.453125 19.1875 8.296875 
" id="BitstreamVeraSans-Roman-32"/>
      </defs>
      <g transform="translate(421.485 401.918125)scale(0.12 -0.12)">
       <use xlink:href="#BitstreamVeraSans-Roman-32"/>
       <use x="63.623046875" xlink:href="#BitstreamVeraSans-Roman-30"/>
      </g>
     </g>
    </g>
    <g id="xtick_6">
     <g id="line2d_19">
      <path clip-path="url(#pa8501abcc4)" d="M 518.4 388.8 
L 518.4 43.2 
" style="fill:none;stroke:#000000;stroke-dasharray:1.000000,3.000000;stroke-dashoffset:0.0;stroke-width:0.5;"/>
     </g>
     <g id="line2d_20">
      <g>
       <use style="stroke:#000000;stroke-width:0.5;" x="518.4" xlink:href="#m53892a1273" y="388.8"/>
      </g>
     </g>
     <g id="line2d_21">
      <g>
       <use style="stroke:#000000;stroke-width:0.5;" x="518.4" xlink:href="#m2ae05b7e24" y="43.2"/>
      </g>
     </g>
     <g id="text_6">
      <!-- 25 -->
      <g transform="translate(510.765 401.918125)scale(0.12 -0.12)">
       <use xlink:href="#BitstreamVeraSans-Roman-32"/>
       <use x="63.623046875" xlink:href="#BitstreamVeraSans-Roman-35"/>
      </g>
     </g>
    </g>
    <g id="text_7">
     <!-- Time [s] -->
     <defs>
      <path id="BitstreamVeraSans-Roman-20"/>
      <path d="M 8.59375 75.984375 
L 29.296875 75.984375 
L 29.296875 69 
L 17.578125 69 
L 17.578125 -6.203125 
L 29.296875 -6.203125 
L 29.296875 -13.1875 
L 8.59375 -13.1875 
z
" id="BitstreamVeraSans-Roman-5b"/>
      <path d="M 30.421875 75.984375 
L 30.421875 -13.1875 
L 9.71875 -13.1875 
L 9.71875 -6.203125 
L 21.390625 -6.203125 
L 21.390625 69 
L 9.71875 69 
L 9.71875 75.984375 
z
" id="BitstreamVeraSans-Roman-5d"/>
      <path d="M 52 44.1875 
Q 55.375 50.25 60.0625 53.125 
Q 64.75 56 71.09375 56 
Q 79.640625 56 84.28125 50.015625 
Q 88.921875 44.046875 88.921875 33.015625 
L 88.921875 0 
L 79.890625 0 
L 79.890625 32.71875 
Q 79.890625 40.578125 77.09375 44.375 
Q 74.3125 48.1875 68.609375 48.1875 
Q 61.625 48.1875 57.5625 43.546875 
Q 53.515625 38.921875 53.515625 30.90625 
L 53.515625 0 
L 44.484375 0 
L 44.484375 32.71875 
Q 44.484375 40.625 41.703125 44.40625 
Q 38.921875 48.1875 33.109375 48.1875 
Q 26.21875 48.1875 22.15625 43.53125 
Q 18.109375 38.875 18.109375 30.90625 
L 18.109375 0 
L 9.078125 0 
L 9.078125 54.6875 
L 18.109375 54.6875 
L 18.109375 46.1875 
Q 21.1875 51.21875 25.484375 53.609375 
Q 29.78125 56 35.6875 56 
Q 41.65625 56 45.828125 52.96875 
Q 50 49.953125 52 44.1875 
" id="BitstreamVeraSans-Roman-6d"/>
      <path d="M 9.421875 54.6875 
L 18.40625 54.6875 
L 18.40625 0 
L 9.421875 0 
z
M 9.421875 75.984375 
L 18.40625 75.984375 
L 18.40625 64.59375 
L 9.421875 64.59375 
z
" id="BitstreamVeraSans-Roman-69"/>
      <path d="M 56.203125 29.59375 
L 56.203125 25.203125 
L 14.890625 25.203125 
Q 15.484375 15.921875 20.484375 11.0625 
Q 25.484375 6.203125 34.421875 6.203125 
Q 39.59375 6.203125 44.453125 7.46875 
Q 49.3125 8.734375 54.109375 11.28125 
L 54.109375 2.78125 
Q 49.265625 0.734375 44.1875 -0.34375 
Q 39.109375 -1.421875 33.890625 -1.421875 
Q 20.796875 -1.421875 13.15625 6.1875 
Q 5.515625 13.8125 5.515625 26.8125 
Q 5.515625 40.234375 12.765625 48.109375 
Q 20.015625 56 32.328125 56 
Q 43.359375 56 49.78125 48.890625 
Q 56.203125 41.796875 56.203125 29.59375 
M 47.21875 32.234375 
Q 47.125 39.59375 43.09375 43.984375 
Q 39.0625 48.390625 32.421875 48.390625 
Q 24.90625 48.390625 20.390625 44.140625 
Q 15.875 39.890625 15.1875 32.171875 
z
" id="BitstreamVeraSans-Roman-65"/>
      <path d="M -0.296875 72.90625 
L 61.375 72.90625 
L 61.375 64.59375 
L 35.5 64.59375 
L 35.5 0 
L 25.59375 0 
L 25.59375 64.59375 
L -0.296875 64.59375 
z
" id="BitstreamVeraSans-Roman-54"/>
      <path d="M 44.28125 53.078125 
L 44.28125 44.578125 
Q 40.484375 46.53125 36.375 47.5 
Q 32.28125 48.484375 27.875 48.484375 
Q 21.1875 48.484375 17.84375 46.4375 
Q 14.5 44.390625 14.5 40.28125 
Q 14.5 37.15625 16.890625 35.375 
Q 19.28125 33.59375 26.515625 31.984375 
L 29.59375 31.296875 
Q 39.15625 29.25 43.1875 25.515625 
Q 47.21875 21.78125 47.21875 15.09375 
Q 47.21875 7.46875 41.1875 3.015625 
Q 35.15625 -1.421875 24.609375 -1.421875 
Q 20.21875 -1.421875 15.453125 -0.5625 
Q 10.6875 0.296875 5.421875 2 
L 5.421875 11.28125 
Q 10.40625 8.6875 15.234375 7.390625 
Q 20.0625 6.109375 24.8125 6.109375 
Q 31.15625 6.109375 34.5625 8.28125 
Q 37.984375 10.453125 37.984375 14.40625 
Q 37.984375 18.0625 35.515625 20.015625 
Q 33.0625 21.96875 24.703125 23.78125 
L 21.578125 24.515625 
Q 13.234375 26.265625 9.515625 29.90625 
Q 5.8125 33.546875 5.8125 39.890625 
Q 5.8125 47.609375 11.28125 51.796875 
Q 16.75 56 26.8125 56 
Q 31.78125 56 36.171875 55.265625 
Q 40.578125 54.546875 44.28125 53.078125 
" id="BitstreamVeraSans-Roman-73"/>
     </defs>
     <g transform="translate(270.620625 418.531875)scale(0.12 -0.12)">
      <use xlink:href="#BitstreamVeraSans-Roman-54"/>
      <use x="61.037109375" xlink:href="#BitstreamVeraSans-Roman-69"/>
      <use x="88.8203125" xlink:href="#BitstreamVeraSans-Roman-6d"/>
      <use x="186.232421875" xlink:href="#BitstreamVeraSans-Roman-65"/>
      <use x="247.755859375" xlink:href="#BitstreamVeraSans-Roman-20"/>
      <use x="279.54296875" xlink:href="#BitstreamVeraSans-Roman-5b"/>
      <use x="318.556640625" xlink:href="#BitstreamVeraSans-Roman-73"/>
      <use x="370.65625" xlink:href="#BitstreamVeraSans-Roman-5d"/>
     </g>
    </g>
   </g>
   <g id="matplotlib.axis_2">
    <g id="ytick_1">
     <g id="line2d_22">
      <path clip-path="url(#pa8501abcc4)" d="M 72 388.8 
L 518.4 388.8 
" style="fill:none;stroke:#000000;stroke-dasharray:1.000000,3.000000;stroke-dashoffset:0.0;stroke-width:0.5;"/>
     </g>
     <g id="line2d_23">
      <defs>
       <path d="M 0 0 
L 4 0 
" id="m0a63a8d52e" style="stroke:#000000;stroke-width:0.5;"/>
      </defs>
      <g>
       <use style="stroke:#000000;stroke-width:0.5;" x="72.0" xlink:href="#m0a63a8d52e" y="388.8"/>
      </g>
     </g>
     <g id="line2d_24">
      <defs>
       <path d="M 0 0 
L -4 0 
" id="mb19b2f9368" style="stroke:#000000;stroke-width:0.5;"/>
      </defs>
      <g>
       <use style="stroke:#000000;stroke-width:0.5;" x="518.4" xlink:href="#mb19b2f9368" y="388.8"/>
      </g>
     </g>
     <g id="text_8">
      <!-- −0.8 -->
      <defs>
       <path d="M 10.59375 35.5 
L 73.1875 35.5 
L 73.1875 27.203125 
L 10.59375 27.203125 
z
" id="BitstreamVeraSans-Roman-2212"/>
       <path d="M 31.78125 34.625 
Q 24.75 34.625 20.71875 30.859375 
Q 16.703125 27.09375 16.703125 20.515625 
Q 16.703125 13.921875 20.71875 10.15625 
Q 24.75 6.390625 31.78125 6.390625 
Q 38.8125 6.390625 42.859375 10.171875 
Q 46.921875 13.96875 46.921875 20.515625 
Q 46.921875 27.09375 42.890625 30.859375 
Q 38.875 34.625 31.78125 34.625 
M 21.921875 38.8125 
Q 15.578125 40.375 12.03125 44.71875 
Q 8.5 49.078125 8.5 55.328125 
Q 8.5 64.0625 14.71875 69.140625 
Q 20.953125 74.21875 31.78125 74.21875 
Q 42.671875 74.21875 48.875 69.140625 
Q 55.078125 64.0625 55.078125 55.328125 
Q 55.078125 49.078125 51.53125 44.71875 
Q 48 40.375 41.703125 38.8125 
Q 48.828125 37.15625 52.796875 32.3125 
Q 56.78125 27.484375 56.78125 20.515625 
Q 56.78125 9.90625 50.3125 4.234375 
Q 43.84375 -1.421875 31.78125 -1.421875 
Q 19.734375 -1.421875 13.25 4.234375 
Q 6.78125 9.90625 6.78125 20.515625 
Q 6.78125 27.484375 10.78125 32.3125 
Q 14.796875 37.15625 21.921875 38.8125 
M 18.3125 54.390625 
Q 18.3125 48.734375 21.84375 45.5625 
Q 25.390625 42.390625 31.78125 42.390625 
Q 38.140625 42.390625 41.71875 45.5625 
Q 45.3125 48.734375 45.3125 54.390625 
Q 45.3125 60.0625 41.71875 63.234375 
Q 38.140625 66.40625 31.78125 66.40625 
Q 25.390625 66.40625 21.84375 63.234375 
Q 18.3125 60.0625 18.3125 54.390625 
" id="BitstreamVeraSans-Roman-38"/>
       <path d="M 10.6875 12.40625 
L 21 12.40625 
L 21 0 
L 10.6875 0 
z
" id="BitstreamVeraSans-Roman-2e"/>
      </defs>
      <g transform="translate(38.860625 392.11125)scale(0.12 -0.12)">
       <use xlink:href="#BitstreamVeraSans-Roman-2212"/>
       <use x="83.7890625" xlink:href="#BitstreamVeraSans-Roman-30"/>
       <use x="147.412109375" xlink:href="#BitstreamVeraSans-Roman-2e"/>
       <use x="179.19921875" xlink:href="#BitstreamVeraSans-Roman-38"/>
      </g>
     </g>
    </g>
    <g id="ytick_2">
     <g id="line2d_25">
      <path clip-path="url(#pa8501abcc4)" d="M 72 350.4 
L 518.4 350.4 
" style="fill:none;stroke:#000000;stroke-dasharray:1.000000,3.000000;stroke-dashoffset:0.0;stroke-width:0.5;"/>
     </g>
     <g id="line2d_26">
      <g>
       <use style="stroke:#000000;stroke-width:0.5;" x="72.0" xlink:href="#m0a63a8d52e" y="350.4"/>
      </g>
     </g>
     <g id="line2d_27">
      <g>
       <use style="stroke:#000000;stroke-width:0.5;" x="518.4" xlink:href="#mb19b2f9368" y="350.4"/>
      </g>
     </g>
     <g id="text_9">
      <!-- −0.6 -->
      <defs>
       <path d="M 33.015625 40.375 
Q 26.375 40.375 22.484375 35.828125 
Q 18.609375 31.296875 18.609375 23.390625 
Q 18.609375 15.53125 22.484375 10.953125 
Q 26.375 6.390625 33.015625 6.390625 
Q 39.65625 6.390625 43.53125 10.953125 
Q 47.40625 15.53125 47.40625 23.390625 
Q 47.40625 31.296875 43.53125 35.828125 
Q 39.65625 40.375 33.015625 40.375 
M 52.59375 71.296875 
L 52.59375 62.3125 
Q 48.875 64.0625 45.09375 64.984375 
Q 41.3125 65.921875 37.59375 65.921875 
Q 27.828125 65.921875 22.671875 59.328125 
Q 17.53125 52.734375 16.796875 39.40625 
Q 19.671875 43.65625 24.015625 45.921875 
Q 28.375 48.1875 33.59375 48.1875 
Q 44.578125 48.1875 50.953125 41.515625 
Q 57.328125 34.859375 57.328125 23.390625 
Q 57.328125 12.15625 50.6875 5.359375 
Q 44.046875 -1.421875 33.015625 -1.421875 
Q 20.359375 -1.421875 13.671875 8.265625 
Q 6.984375 17.96875 6.984375 36.375 
Q 6.984375 53.65625 15.1875 63.9375 
Q 23.390625 74.21875 37.203125 74.21875 
Q 40.921875 74.21875 44.703125 73.484375 
Q 48.484375 72.75 52.59375 71.296875 
" id="BitstreamVeraSans-Roman-36"/>
      </defs>
      <g transform="translate(38.860625 353.71125)scale(0.12 -0.12)">
       <use xlink:href="#BitstreamVeraSans-Roman-2212"/>
       <use x="83.7890625" xlink:href="#BitstreamVeraSans-Roman-30"/>
       <use x="147.412109375" xlink:href="#BitstreamVeraSans-Roman-2e"/>
       <use x="179.19921875" xlink:href="#BitstreamVeraSans-Roman-36"/>
      </g>
     </g>
    </g>
    <g id="ytick_3">
     <g id="line2d_28">
      <path clip-path="url(#pa8501abcc4)" d="M 72 312 
L 518.4 312 
" style="fill:none;stroke:#000000;stroke-dasharray:1.000000,3.000000;stroke-dashoffset:0.0;stroke-width:0.5;"/>
     </g>
     <g id="line2d_29">
      <g>
       <use style="stroke:#000000;stroke-width:0.5;" x="72.0" xlink:href="#m0a63a8d52e" y="312.0"/>
      </g>
     </g>
     <g id="line2d_30">
      <g>
       <use style="stroke:#000000;stroke-width:0.5;" x="518.4" xlink:href="#mb19b2f9368" y="312.0"/>
      </g>
     </g>
     <g id="text_10">
      <!-- −0.4 -->
      <defs>
       <path d="M 37.796875 64.3125 
L 12.890625 25.390625 
L 37.796875 25.390625 
z
M 35.203125 72.90625 
L 47.609375 72.90625 
L 47.609375 25.390625 
L 58.015625 25.390625 
L 58.015625 17.1875 
L 47.609375 17.1875 
L 47.609375 0 
L 37.796875 0 
L 37.796875 17.1875 
L 4.890625 17.1875 
L 4.890625 26.703125 
z
" id="BitstreamVeraSans-Roman-34"/>
      </defs>
      <g transform="translate(38.860625 315.31125)scale(0.12 -0.12)">
       <use xlink:href="#BitstreamVeraSans-Roman-2212"/>
       <use x="83.7890625" xlink:href="#BitstreamVeraSans-Roman-30"/>
       <use x="147.412109375" xlink:href="#BitstreamVeraSans-Roman-2e"/>
       <use x="179.19921875" xlink:href="#BitstreamVeraSans-Roman-34"/>
      </g>
     </g>
    </g>
    <g id="ytick_4">
     <g id="line2d_31">
      <path clip-path="url(#pa8501abcc4)" d="M 72 273.6 
L 518.4 273.6 
" style="fill:none;stroke:#000000;stroke-dasharray:1.000000,3.000000;stroke-dashoffset:0.0;stroke-width:0.5;"/>
     </g>
     <g id="line2d_32">
      <g>
       <use style="stroke:#000000;stroke-width:0.5;" x="72.0" xlink:href="#m0a63a8d52e" y="273.6"/>
      </g>
     </g>
     <g id="line2d_33">
      <g>
       <use style="stroke:#000000;stroke-width:0.5;" x="518.4" xlink:href="#mb19b2f9368" y="273.6"/>
      </g>
     </g>
     <g id="text_11">
      <!-- −0.2 -->
      <g transform="translate(38.860625 276.91125)scale(0.12 -0.12)">
       <use xlink:href="#BitstreamVeraSans-Roman-2212"/>
       <use x="83.7890625" xlink:href="#BitstreamVeraSans-Roman-30"/>
       <use x="147.412109375" xlink:href="#BitstreamVeraSans-Roman-2e"/>
       <use x="179.19921875" xlink:href="#BitstreamVeraSans-Roman-32"/>
      </g>
     </g>
    </g>
    <g id="ytick_5">
     <g id="line2d_34">
      <path clip-path="url(#pa8501abcc4)" d="M 72 235.2 
L 518.4 235.2 
" style="fill:none;stroke:#000000;stroke-dasharray:1.000000,3.000000;stroke-dashoffset:0.0;stroke-width:0.5;"/>
     </g>
     <g id="line2d_35">
      <g>
       <use style="stroke:#000000;stroke-width:0.5;" x="72.0" xlink:href="#m0a63a8d52e" y="235.2"/>
      </g>
     </g>
     <g id="line2d_36">
      <g>
       <use style="stroke:#000000;stroke-width:0.5;" x="518.4" xlink:href="#mb19b2f9368" y="235.2"/>
      </g>
     </g>
     <g id="text_12">
      <!-- 0.0 -->
      <g transform="translate(48.91625 238.51125)scale(0.12 -0.12)">
       <use xlink:href="#BitstreamVeraSans-Roman-30"/>
       <use x="63.623046875" xlink:href="#BitstreamVeraSans-Roman-2e"/>
       <use x="95.41015625" xlink:href="#BitstreamVeraSans-Roman-30"/>
      </g>
     </g>
    </g>
    <g id="ytick_6">
     <g id="line2d_37">
      <path clip-path="url(#pa8501abcc4)" d="M 72 196.8 
L 518.4 196.8 
" style="fill:none;stroke:#000000;stroke-dasharray:1.000000,3.000000;stroke-dashoffset:0.0;stroke-width:0.5;"/>
     </g>
     <g id="line2d_38">
      <g>
       <use style="stroke:#000000;stroke-width:0.5;" x="72.0" xlink:href="#m0a63a8d52e" y="196.8"/>
      </g>
     </g>
     <g id="line2d_39">
      <g>
       <use style="stroke:#000000;stroke-width:0.5;" x="518.4" xlink:href="#mb19b2f9368" y="196.8"/>
      </g>
     </g>
     <g id="text_13">
      <!-- 0.2 -->
      <g transform="translate(48.91625 200.11125)scale(0.12 -0.12)">
       <use xlink:href="#BitstreamVeraSans-Roman-30"/>
       <use x="63.623046875" xlink:href="#BitstreamVeraSans-Roman-2e"/>
       <use x="95.41015625" xlink:href="#BitstreamVeraSans-Roman-32"/>
      </g>
     </g>
    </g>
    <g id="ytick_7">
     <g id="line2d_40">
      <path clip-path="url(#pa8501abcc4)" d="M 72 158.4 
L 518.4 158.4 
" style="fill:none;stroke:#000000;stroke-dasharray:1.000000,3.000000;stroke-dashoffset:0.0;stroke-width:0.5;"/>
     </g>
     <g id="line2d_41">
      <g>
       <use style="stroke:#000000;stroke-width:0.5;" x="72.0" xlink:href="#m0a63a8d52e" y="158.4"/>
      </g>
     </g>
     <g id="line2d_42">
      <g>
       <use style="stroke:#000000;stroke-width:0.5;" x="518.4" xlink:href="#mb19b2f9368" y="158.4"/>
      </g>
     </g>
     <g id="text_14">
      <!-- 0.4 -->
      <g transform="translate(48.91625 161.71125)scale(0.12 -0.12)">
       <use xlink:href="#BitstreamVeraSans-Roman-30"/>
       <use x="63.623046875" xlink:href="#BitstreamVeraSans-Roman-2e"/>
       <use x="95.41015625" xlink:href="#BitstreamVeraSans-Roman-34"/>
      </g>
     </g>
    </g>
    <g id="ytick_8">
     <g id="line2d_43">
      <path clip-path="url(#pa8501abcc4)" d="M 72 120 
L 518.4 120 
" style="fill:none;stroke:#000000;stroke-dasharray:1.000000,3.000000;stroke-dashoffset:0.0;stroke-width:0.5;"/>
     </g>
     <g id="line2d_44">
      <g>
       <use style="stroke:#000000;stroke-width:0.5;" x="72.0" xlink:href="#m0a63a8d52e" y="120.0"/>
      </g>
     </g>
     <g id="line2d_45">
      <g>
       <use style="stroke:#000000;stroke-width:0.5;" x="518.4" xlink:href="#mb19b2f9368" y="120.0"/>
      </g>
     </g>
     <g id="text_15">
      <!-- 0.6 -->
      <g transform="translate(48.91625 123.31125)scale(0.12 -0.12)">
       <use xlink:href="#BitstreamVeraSans-Roman-30"/>
       <use x="63.623046875" xlink:href="#BitstreamVeraSans-Roman-2e"/>
       <use x="95.41015625" xlink:href="#BitstreamVeraSans-Roman-36"/>
      </g>
     </g>
    </g>
    <g id="ytick_9">
     <g id="line2d_46">
      <path clip-path="url(#pa8501abcc4)" d="M 72 81.6 
L 518.4 81.6 
" style="fill:none;stroke:#000000;stroke-dasharray:1.000000,3.000000;stroke-dashoffset:0.0;stroke-width:0.5;"/>
     </g>
     <g id="line2d_47">
      <g>
       <use style="stroke:#000000;stroke-width:0.5;" x="72.0" xlink:href="#m0a63a8d52e" y="81.6"/>
      </g>
     </g>
     <g id="line2d_48">
      <g>
       <use style="stroke:#000000;stroke-width:0.5;" x="518.4" xlink:href="#mb19b2f9368" y="81.6"/>
      </g>
     </g>
     <g id="text_16">
      <!-- 0.8 -->
      <g transform="translate(48.91625 84.91125)scale(0.12 -0.12)">
       <use xlink:href="#BitstreamVeraSans-Roman-30"/>
       <use x="63.623046875" xlink:href="#BitstreamVeraSans-Roman-2e"/>
       <use x="95.41015625" xlink:href="#BitstreamVeraSans-Roman-38"/>
      </g>
     </g>
    </g>
    <g id="ytick_10">
     <g id="line2d_49">
      <path clip-path="url(#pa8501abcc4)" d="M 72 43.2 
L 518.4 43.2 
" style="fill:none;stroke:#000000;stroke-dasharray:1.000000,3.000000;stroke-dashoffset:0.0;stroke-width:0.5;"/>
     </g>
     <g id="line2d_50">
      <g>
       <use style="stroke:#000000;stroke-width:0.5;" x="72.0" xlink:href="#m0a63a8d52e" y="43.2"/>
      </g>
     </g>
     <g id="line2d_51">
      <g>
       <use style="stroke:#000000;stroke-width:0.5;" x="518.4" xlink:href="#mb19b2f9368" y="43.2"/>
      </g>
     </g>
     <g id="text_17">
      <!-- 1.0 -->
      <g transform="translate(48.91625 46.51125)scale(0.12 -0.12)">
       <use xlink:href="#BitstreamVeraSans-Roman-31"/>
       <use x="63.623046875" xlink:href="#BitstreamVeraSans-Roman-2e"/>
       <use x="95.41015625" xlink:href="#BitstreamVeraSans-Roman-30"/>
      </g>
     </g>
    </g>
    <g id="text_18">
     <!-- Acceleration [m/s^2] -->
     <defs>
      <path d="M 46.6875 72.90625 
L 73.1875 45.703125 
L 63.375 45.703125 
L 41.890625 64.984375 
L 20.40625 45.703125 
L 10.59375 45.703125 
L 37.109375 72.90625 
z
" id="BitstreamVeraSans-Roman-5e"/>
      <path d="M 54.890625 33.015625 
L 54.890625 0 
L 45.90625 0 
L 45.90625 32.71875 
Q 45.90625 40.484375 42.875 44.328125 
Q 39.84375 48.1875 33.796875 48.1875 
Q 26.515625 48.1875 22.3125 43.546875 
Q 18.109375 38.921875 18.109375 30.90625 
L 18.109375 0 
L 9.078125 0 
L 9.078125 54.6875 
L 18.109375 54.6875 
L 18.109375 46.1875 
Q 21.34375 51.125 25.703125 53.5625 
Q 30.078125 56 35.796875 56 
Q 45.21875 56 50.046875 50.171875 
Q 54.890625 44.34375 54.890625 33.015625 
" id="BitstreamVeraSans-Roman-6e"/>
      <path d="M 41.109375 46.296875 
Q 39.59375 47.171875 37.8125 47.578125 
Q 36.03125 48 33.890625 48 
Q 26.265625 48 22.1875 43.046875 
Q 18.109375 38.09375 18.109375 28.8125 
L 18.109375 0 
L 9.078125 0 
L 9.078125 54.6875 
L 18.109375 54.6875 
L 18.109375 46.1875 
Q 20.953125 51.171875 25.484375 53.578125 
Q 30.03125 56 36.53125 56 
Q 37.453125 56 38.578125 55.875 
Q 39.703125 55.765625 41.0625 55.515625 
z
" id="BitstreamVeraSans-Roman-72"/>
      <path d="M 30.609375 48.390625 
Q 23.390625 48.390625 19.1875 42.75 
Q 14.984375 37.109375 14.984375 27.296875 
Q 14.984375 17.484375 19.15625 11.84375 
Q 23.34375 6.203125 30.609375 6.203125 
Q 37.796875 6.203125 41.984375 11.859375 
Q 46.1875 17.53125 46.1875 27.296875 
Q 46.1875 37.015625 41.984375 42.703125 
Q 37.796875 48.390625 30.609375 48.390625 
M 30.609375 56 
Q 42.328125 56 49.015625 48.375 
Q 55.71875 40.765625 55.71875 27.296875 
Q 55.71875 13.875 49.015625 6.21875 
Q 42.328125 -1.421875 30.609375 -1.421875 
Q 18.84375 -1.421875 12.171875 6.21875 
Q 5.515625 13.875 5.515625 27.296875 
Q 5.515625 40.765625 12.171875 48.375 
Q 18.84375 56 30.609375 56 
" id="BitstreamVeraSans-Roman-6f"/>
      <path d="M 9.421875 75.984375 
L 18.40625 75.984375 
L 18.40625 0 
L 9.421875 0 
z
" id="BitstreamVeraSans-Roman-6c"/>
      <path d="M 34.1875 63.1875 
L 20.796875 26.90625 
L 47.609375 26.90625 
z
M 28.609375 72.90625 
L 39.796875 72.90625 
L 67.578125 0 
L 57.328125 0 
L 50.6875 18.703125 
L 17.828125 18.703125 
L 11.1875 0 
L 0.78125 0 
z
" id="BitstreamVeraSans-Roman-41"/>
      <path d="M 25.390625 72.90625 
L 33.6875 72.90625 
L 8.296875 -9.28125 
L 0 -9.28125 
z
" id="BitstreamVeraSans-Roman-2f"/>
      <path d="M 18.3125 70.21875 
L 18.3125 54.6875 
L 36.8125 54.6875 
L 36.8125 47.703125 
L 18.3125 47.703125 
L 18.3125 18.015625 
Q 18.3125 11.328125 20.140625 9.421875 
Q 21.96875 7.515625 27.59375 7.515625 
L 36.8125 7.515625 
L 36.8125 0 
L 27.59375 0 
Q 17.1875 0 13.234375 3.875 
Q 9.28125 7.765625 9.28125 18.015625 
L 9.28125 47.703125 
L 2.6875 47.703125 
L 2.6875 54.6875 
L 9.28125 54.6875 
L 9.28125 70.21875 
z
" id="BitstreamVeraSans-Roman-74"/>
      <path d="M 34.28125 27.484375 
Q 23.390625 27.484375 19.1875 25 
Q 14.984375 22.515625 14.984375 16.5 
Q 14.984375 11.71875 18.140625 8.90625 
Q 21.296875 6.109375 26.703125 6.109375 
Q 34.1875 6.109375 38.703125 11.40625 
Q 43.21875 16.703125 43.21875 25.484375 
L 43.21875 27.484375 
z
M 52.203125 31.203125 
L 52.203125 0 
L 43.21875 0 
L 43.21875 8.296875 
Q 40.140625 3.328125 35.546875 0.953125 
Q 30.953125 -1.421875 24.3125 -1.421875 
Q 15.921875 -1.421875 10.953125 3.296875 
Q 6 8.015625 6 15.921875 
Q 6 25.140625 12.171875 29.828125 
Q 18.359375 34.515625 30.609375 34.515625 
L 43.21875 34.515625 
L 43.21875 35.40625 
Q 43.21875 41.609375 39.140625 45 
Q 35.0625 48.390625 27.6875 48.390625 
Q 23 48.390625 18.546875 47.265625 
Q 14.109375 46.140625 10.015625 43.890625 
L 10.015625 52.203125 
Q 14.9375 54.109375 19.578125 55.046875 
Q 24.21875 56 28.609375 56 
Q 40.484375 56 46.34375 49.84375 
Q 52.203125 43.703125 52.203125 31.203125 
" id="BitstreamVeraSans-Roman-61"/>
      <path d="M 48.78125 52.59375 
L 48.78125 44.1875 
Q 44.96875 46.296875 41.140625 47.34375 
Q 37.3125 48.390625 33.40625 48.390625 
Q 24.65625 48.390625 19.8125 42.84375 
Q 14.984375 37.3125 14.984375 27.296875 
Q 14.984375 17.28125 19.8125 11.734375 
Q 24.65625 6.203125 33.40625 6.203125 
Q 37.3125 6.203125 41.140625 7.25 
Q 44.96875 8.296875 48.78125 10.40625 
L 48.78125 2.09375 
Q 45.015625 0.34375 40.984375 -0.53125 
Q 36.96875 -1.421875 32.421875 -1.421875 
Q 20.0625 -1.421875 12.78125 6.34375 
Q 5.515625 14.109375 5.515625 27.296875 
Q 5.515625 40.671875 12.859375 48.328125 
Q 20.21875 56 33.015625 56 
Q 37.15625 56 41.109375 55.140625 
Q 45.0625 54.296875 48.78125 52.59375 
" id="BitstreamVeraSans-Roman-63"/>
     </defs>
     <g transform="translate(31.365 279.81375)rotate(-90.0)scale(0.12 -0.12)">
      <use xlink:href="#BitstreamVeraSans-Roman-41"/>
      <use x="68.392578125" xlink:href="#BitstreamVeraSans-Roman-63"/>
      <use x="123.373046875" xlink:href="#BitstreamVeraSans-Roman-63"/>
      <use x="178.353515625" xlink:href="#BitstreamVeraSans-Roman-65"/>
      <use x="239.876953125" xlink:href="#BitstreamVeraSans-Roman-6c"/>
      <use x="267.66015625" xlink:href="#BitstreamVeraSans-Roman-65"/>
      <use x="329.18359375" xlink:href="#BitstreamVeraSans-Roman-72"/>
      <use x="370.296875" xlink:href="#BitstreamVeraSans-Roman-61"/>
      <use x="431.576171875" xlink:href="#BitstreamVeraSans-Roman-74"/>
      <use x="470.78515625" xlink:href="#BitstreamVeraSans-Roman-69"/>
      <use x="498.568359375" xlink:href="#BitstreamVeraSans-Roman-6f"/>
      <use x="559.75" xlink:href="#BitstreamVeraSans-Roman-6e"/>
      <use x="623.12890625" xlink:href="#BitstreamVeraSans-Roman-20"/>
      <use x="654.916015625" xlink:href="#BitstreamVeraSans-Roman-5b"/>
      <use x="693.9296875" xlink:href="#BitstreamVeraSans-Roman-6d"/>
      <use x="791.341796875" xlink:href="#BitstreamVeraSans-Roman-2f"/>
      <use x="825.033203125" xlink:href="#BitstreamVeraSans-Roman-73"/>
      <use x="877.1328125" xlink:href="#BitstreamVeraSans-Roman-5e"/>
      <use x="960.921875" xlink:href="#BitstreamVeraSans-Roman-32"/>
      <use x="1024.54492188" xlink:href="#BitstreamVeraSans-Roman-5d"/>
     </g>
    </g>
   </g>
   <g id="legend_1">
    <g id="patch_7">
     <path d="M 79.2 249.86475 
L 168.561 249.86475 
L 168.561 182.13525 
L 79.2 182.13525 
z
" style="fill:#ffffff;stroke:#000000;stroke-linejoin:miter;"/>
    </g>
    <g id="line2d_52">
     <path d="M 89.28 193.797 
L 109.44 193.797 
" style="fill:none;stroke:#008000;stroke-linecap:square;"/>
    </g>
    <g id="line2d_53"/>
    <g id="text_19">
     <!-- accel -->
     <g transform="translate(125.28 198.837)scale(0.144 -0.144)">
      <use xlink:href="#BitstreamVeraSans-Roman-61"/>
      <use x="61.279296875" xlink:href="#BitstreamVeraSans-Roman-63"/>
      <use x="116.259765625" xlink:href="#BitstreamVeraSans-Roman-63"/>
      <use x="171.240234375" xlink:href="#BitstreamVeraSans-Roman-65"/>
      <use x="232.763671875" xlink:href="#BitstreamVeraSans-Roman-6c"/>
     </g>
    </g>
    <g id="line2d_54">
     <path d="M 89.28 214.9335 
L 109.44 214.9335 
" style="fill:none;stroke:#000000;stroke-dasharray:6.000000,6.000000;stroke-dashoffset:0.0;"/>
    </g>
    <g id="line2d_55"/>
    <g id="text_20">
     <!-- max -->
     <defs>
      <path d="M 54.890625 54.6875 
L 35.109375 28.078125 
L 55.90625 0 
L 45.3125 0 
L 29.390625 21.484375 
L 13.484375 0 
L 2.875 0 
L 24.125 28.609375 
L 4.6875 54.6875 
L 15.28125 54.6875 
L 29.78125 35.203125 
L 44.28125 54.6875 
z
" id="BitstreamVeraSans-Roman-78"/>
     </defs>
     <g transform="translate(125.28 219.9735)scale(0.144 -0.144)">
      <use xlink:href="#BitstreamVeraSans-Roman-6d"/>
      <use x="97.412109375" xlink:href="#BitstreamVeraSans-Roman-61"/>
      <use x="158.69140625" xlink:href="#BitstreamVeraSans-Roman-78"/>
     </g>
    </g>
    <g id="line2d_56">
     <path d="M 89.28 236.07 
L 109.44 236.07 
" style="fill:none;stroke:#000000;stroke-dasharray:6.000000,6.000000;stroke-dashoffset:0.0;"/>
    </g>
    <g id="line2d_57"/>
    <g id="text_21">
     <!-- min -->
     <g transform="translate(125.28 241.11)scale(0.144 -0.144)">
      <use xlink:href="#BitstreamVeraSans-Roman-6d"/>
      <use x="97.412109375" xlink:href="#BitstreamVeraSans-Roman-69"/>
      <use x="125.1953125" xlink:href="#BitstreamVeraSans-Roman-6e"/>
     </g>
    </g>
   </g>
  </g>
 </g>
 <defs>
  <clipPath id="pa8501abcc4">
   <rect height="345.6" width="446.4" x="72.0" y="43.2"/>
  </clipPath>
 </defs>
</svg>
