<?xml version="1.0" encoding="utf-8" standalone="no"?>
<!DOCTYPE svg PUBLIC "-//W3C//DTD SVG 1.1//EN"
  "http://www.w3.org/Graphics/SVG/1.1/DTD/svg11.dtd">
<!-- Created with matplotlib (http://matplotlib.org/) -->
<svg height="432pt" version="1.1" viewBox="0 0 576 432" width="576pt" xmlns="http://www.w3.org/2000/svg" xmlns:xlink="http://www.w3.org/1999/xlink">
 <defs>
  <style type="text/css">
*{stroke-linecap:butt;stroke-linejoin:round;stroke-miterlimit:100000;}
  </style>
 </defs>
 <g id="figure_1">
  <g id="patch_1">
   <path d="M 0 432 
L 576 432 
L 576 0 
L 0 0 
z
" style="fill:#ffffff;"/>
  </g>
  <g id="axes_1">
   <g id="patch_2">
    <path d="M 72 388.8 
L 518.4 388.8 
L 518.4 43.2 
L 72 43.2 
z
" style="fill:#ffffff;"/>
   </g>
   <g id="line2d_1">
    <path clip-path="url(#p696f649325)" d="M 72.17856 388.8 
L 97.8912 388.8 
L 98.06976 386.285557 
L 98.24832 386.285557 
L 98.42688 369.141633 
L 98.60544 369.141633 
L 98.784 354.44684 
L 99.14112 354.44684 
L 99.31968 342.20118 
L 99.49824 342.20118 
L 99.6768 327.506388 
L 99.85536 327.506388 
L 100.03392 315.260728 
L 100.21248 315.260728 
L 100.39104 303.015067 
L 100.5696 303.015067 
L 100.74816 293.218539 
L 100.92672 293.218539 
L 101.10528 285.871143 
L 101.28384 285.871143 
L 101.4624 280.972879 
L 101.64096 280.972879 
L 101.81952 278.523747 
L 101.99808 278.523747 
L 102.17664 276.074615 
L 102.53376 276.074615 
L 102.71232 273.625483 
L 102.89088 273.625483 
L 103.248 268.727219 
L 103.42656 268.727219 
L 103.60512 266.278087 
L 103.78368 266.278087 
L 103.96224 263.828955 
L 104.1408 263.828955 
L 104.31936 258.930691 
L 104.49792 258.930691 
L 104.67648 256.481559 
L 104.85504 256.481559 
L 105.0336 254.032426 
L 105.39072 254.032426 
L 105.56928 251.583294 
L 105.74784 251.583294 
L 105.9264 246.68503 
L 106.10496 246.68503 
L 106.28352 244.235898 
L 106.8192 244.235898 
L 106.99776 239.337634 
L 107.17632 239.337634 
L 107.53344 234.43937 
L 107.712 234.43937 
L 108.06912 229.541106 
L 108.24768 229.541106 
L 108.42624 227.091974 
L 108.6048 227.091974 
L 108.78336 224.642842 
L 108.96192 224.642842 
L 109.14048 222.19371 
L 109.85472 222.19371 
L 110.03328 219.744578 
L 110.56896 219.744578 
L 110.74752 217.295446 
L 110.92608 217.295446 
L 111.10464 214.846314 
L 111.2832 214.846314 
L 111.46176 212.397182 
L 112.176 212.397182 
L 112.35456 209.94805 
L 112.89024 209.94805 
L 113.0688 207.498918 
L 113.24736 207.498918 
L 113.42592 205.049786 
L 113.60448 205.049786 
L 113.78304 202.600654 
L 114.67584 202.600654 
L 114.8544 200.151521 
L 115.21152 200.151521 
L 115.39008 197.702389 
L 115.56864 197.702389 
L 115.7472 195.253257 
L 116.28288 195.253257 
L 116.46144 192.804125 
L 116.64 192.804125 
L 116.81856 187.905861 
L 116.99712 187.905861 
L 118.06848 173.211069 
L 118.24704 173.211069 
L 118.4256 170.761937 
L 118.96128 170.761937 
L 119.13984 168.312805 
L 120.74688 168.312805 
L 120.92544 165.863673 
L 121.28256 165.863673 
L 121.46112 168.312805 
L 122.53248 168.312805 
L 122.71104 165.863673 
L 126.10368 165.863673 
L 126.28224 163.414541 
L 126.63936 163.414541 
L 126.81792 165.863673 
L 127.53216 165.863673 
L 127.71072 163.414541 
L 128.06784 163.414541 
L 128.2464 165.863673 
L 128.42496 165.863673 
L 128.60352 163.414541 
L 128.96064 163.414541 
L 129.1392 165.863673 
L 129.49632 165.863673 
L 129.67488 163.414541 
L 129.85344 163.414541 
L 130.032 165.863673 
L 135.74592 165.863673 
L 135.92448 163.414541 
L 136.63872 163.414541 
L 136.81728 165.863673 
L 137.1744 165.863673 
L 137.35296 163.414541 
L 138.0672 163.414541 
L 138.24576 165.863673 
L 138.60288 165.863673 
L 138.78144 163.414541 
L 138.96 163.414541 
L 139.13856 165.863673 
L 140.92416 165.863673 
L 141.10272 168.312805 
L 141.28128 168.312805 
L 141.45984 165.863673 
L 143.06688 165.863673 
L 143.24544 163.414541 
L 144.13824 163.414541 
L 144.3168 160.965409 
L 144.85248 160.965409 
L 145.03104 158.516277 
L 146.9952 158.516277 
L 147.17376 156.067145 
L 148.7808 156.067145 
L 148.95936 153.618013 
L 150.20928 153.618013 
L 150.38784 151.168881 
L 151.28064 151.168881 
L 151.4592 153.618013 
L 151.63776 153.618013 
L 151.81632 156.067145 
L 151.99488 156.067145 
L 152.17344 158.516277 
L 152.352 158.516277 
L 152.53056 160.965409 
L 152.70912 160.965409 
L 152.88768 163.414541 
L 153.06624 163.414541 
L 153.2448 168.312805 
L 153.42336 168.312805 
L 153.60192 170.761937 
L 153.78048 170.761937 
L 153.95904 173.211069 
L 154.1376 173.211069 
L 154.31616 175.660201 
L 154.49472 175.660201 
L 154.67328 178.109333 
L 154.85184 178.109333 
L 155.0304 180.558465 
L 155.20896 180.558465 
L 155.38752 183.007597 
L 155.56608 183.007597 
L 155.74464 185.456729 
L 155.9232 185.456729 
L 156.10176 187.905861 
L 156.28032 187.905861 
L 156.45888 190.354993 
L 156.63744 190.354993 
L 156.816 192.804125 
L 156.99456 192.804125 
L 157.17312 197.702389 
L 157.35168 197.702389 
L 157.53024 200.151521 
L 157.7088 200.151521 
L 157.88736 202.600654 
L 158.06592 202.600654 
L 158.24448 205.049786 
L 158.42304 205.049786 
L 158.6016 207.498918 
L 159.13728 207.498918 
L 159.31584 212.397182 
L 159.4944 212.397182 
L 159.67296 214.846314 
L 159.85152 214.846314 
L 160.03008 224.642842 
L 160.20864 224.642842 
L 160.3872 231.990238 
L 160.56576 231.990238 
L 160.74432 234.43937 
L 160.92288 234.43937 
L 161.10144 241.786766 
L 161.28 241.786766 
L 161.45856 251.583294 
L 161.63712 251.583294 
L 161.81568 256.481559 
L 161.99424 256.481559 
L 162.1728 268.727219 
L 162.35136 268.727219 
L 162.52992 273.625483 
L 162.70848 273.625483 
L 162.88704 278.523747 
L 163.0656 278.523747 
L 163.24416 285.871143 
L 163.42272 285.871143 
L 163.60128 288.320275 
L 163.77984 288.320275 
L 163.9584 293.218539 
L 164.13696 293.218539 
L 164.31552 298.116803 
L 164.49408 298.116803 
L 164.67264 303.015067 
L 164.8512 303.015067 
L 165.02976 305.464199 
L 165.20832 305.464199 
L 165.38688 307.913331 
L 165.56544 307.913331 
L 165.744 312.811596 
L 165.92256 312.811596 
L 166.10112 315.260728 
L 166.27968 315.260728 
L 166.45824 317.70986 
L 166.6368 317.70986 
L 166.81536 322.608124 
L 166.99392 322.608124 
L 167.17248 325.057256 
L 167.35104 325.057256 
L 167.5296 327.506388 
L 167.70816 327.506388 
L 167.88672 329.95552 
L 168.06528 329.95552 
L 168.24384 332.404652 
L 168.4224 332.404652 
L 168.60096 334.853784 
L 169.13664 334.853784 
L 169.3152 337.302916 
L 169.49376 337.302916 
L 169.67232 339.752048 
L 170.208 339.752048 
L 170.38656 342.20118 
L 170.74368 342.20118 
L 171.1008 347.099444 
L 171.27936 347.099444 
L 171.45792 349.548576 
L 172.35072 349.548576 
L 172.52928 351.997708 
L 173.42208 351.997708 
L 173.60064 354.44684 
L 173.7792 354.44684 
L 173.95776 356.895972 
L 175.5648 356.895972 
L 175.74336 359.345104 
L 177.3504 359.345104 
L 177.52896 361.794237 
L 179.136 361.794237 
L 179.31456 364.243369 
L 180.9216 364.243369 
L 181.10016 366.692501 
L 181.99296 366.692501 
L 182.17152 364.243369 
L 182.52864 364.243369 
L 182.7072 366.692501 
L 184.13568 366.692501 
L 184.31424 369.141633 
L 184.4928 369.141633 
L 184.67136 366.692501 
L 185.92128 366.692501 
L 186.09984 369.141633 
L 186.2784 369.141633 
L 186.45696 366.692501 
L 187.34976 366.692501 
L 187.52832 369.141633 
L 188.064 369.141633 
L 188.24256 366.692501 
L 189.13536 366.692501 
L 189.31392 369.141633 
L 190.20672 369.141633 
L 190.38528 366.692501 
L 190.56384 366.692501 
L 190.7424 369.141633 
L 191.99232 369.141633 
L 192.17088 366.692501 
L 192.34944 366.692501 
L 192.528 369.141633 
L 193.4208 369.141633 
L 193.59936 366.692501 
L 194.13504 366.692501 
L 194.3136 369.141633 
L 195.2064 369.141633 
L 195.38496 366.692501 
L 195.92064 366.692501 
L 196.0992 369.141633 
L 196.992 369.141633 
L 197.17056 366.692501 
L 197.70624 366.692501 
L 197.8848 369.141633 
L 198.42048 369.141633 
L 198.59904 366.692501 
L 199.49184 366.692501 
L 199.6704 369.141633 
L 200.5632 369.141633 
L 200.74176 366.692501 
L 201.63456 366.692501 
L 201.81312 369.141633 
L 202.3488 369.141633 
L 202.52736 366.692501 
L 203.42016 366.692501 
L 203.59872 369.141633 
L 204.49152 369.141633 
L 204.67008 366.692501 
L 205.56288 366.692501 
L 205.74144 369.141633 
L 205.92 369.141633 
L 206.09856 366.692501 
L 207.34848 366.692501 
L 207.52704 369.141633 
L 208.06272 369.141633 
L 208.24128 366.692501 
L 209.4912 366.692501 
L 209.66976 369.141633 
L 209.84832 369.141633 
L 210.02688 366.692501 
L 211.63392 366.692501 
L 211.81248 369.141633 
L 211.99104 369.141633 
L 212.1696 366.692501 
L 223.24032 366.692501 
L 223.41888 364.243369 
L 223.59744 366.692501 
L 225.20448 366.692501 
L 225.38304 364.243369 
L 225.91872 364.243369 
L 226.09728 366.692501 
L 227.70432 366.692501 
L 227.88288 364.243369 
L 228.77568 364.243369 
L 228.95424 366.692501 
L 230.56128 366.692501 
L 230.73984 364.243369 
L 231.27552 364.243369 
L 231.45408 366.692501 
L 233.06112 366.692501 
L 233.23968 364.243369 
L 234.13248 364.243369 
L 234.31104 366.692501 
L 235.91808 366.692501 
L 236.09664 364.243369 
L 236.81088 364.243369 
L 236.98944 366.692501 
L 238.23936 366.692501 
L 238.41792 364.243369 
L 239.13216 364.243369 
L 239.31072 366.692501 
L 240.91776 366.692501 
L 241.09632 364.243369 
L 241.98912 364.243369 
L 242.16768 366.692501 
L 243.4176 366.692501 
L 243.59616 364.243369 
L 245.2032 364.243369 
L 245.38176 366.692501 
L 246.63168 366.692501 
L 246.81024 364.243369 
L 248.7744 364.243369 
L 248.95296 366.692501 
L 249.84576 366.692501 
L 250.02432 364.243369 
L 251.63136 364.243369 
L 251.80992 361.794237 
L 251.98848 361.794237 
L 252.16704 364.243369 
L 252.70272 364.243369 
L 252.88128 361.794237 
L 253.05984 361.794237 
L 253.2384 359.345104 
L 253.41696 359.345104 
L 253.59552 356.895972 
L 254.1312 356.895972 
L 254.30976 354.44684 
L 254.48832 354.44684 
L 254.66688 349.548576 
L 254.84544 349.548576 
L 255.024 347.099444 
L 255.55968 347.099444 
L 255.73824 342.20118 
L 255.9168 342.20118 
L 256.09536 339.752048 
L 256.27392 339.752048 
L 256.45248 334.853784 
L 256.98816 334.853784 
L 257.16672 329.95552 
L 257.34528 329.95552 
L 257.52384 325.057256 
L 257.7024 325.057256 
L 257.88096 322.608124 
L 258.05952 322.608124 
L 258.23808 320.158992 
L 258.41664 320.158992 
L 258.5952 315.260728 
L 258.77376 315.260728 
L 258.95232 310.362464 
L 259.13088 310.362464 
L 259.30944 307.913331 
L 259.488 307.913331 
L 259.84512 298.116803 
L 260.02368 298.116803 
L 260.20224 295.667671 
L 260.3808 295.667671 
L 260.55936 290.769407 
L 260.73792 290.769407 
L 260.91648 288.320275 
L 261.09504 288.320275 
L 261.2736 283.422011 
L 261.45216 283.422011 
L 261.63072 278.523747 
L 261.80928 278.523747 
L 261.98784 273.625483 
L 262.1664 273.625483 
L 262.34496 271.176351 
L 262.52352 271.176351 
L 262.70208 263.828955 
L 262.88064 263.828955 
L 263.0592 258.930691 
L 263.23776 258.930691 
L 263.41632 254.032426 
L 263.59488 254.032426 
L 263.77344 251.583294 
L 263.952 251.583294 
L 264.13056 246.68503 
L 264.30912 246.68503 
L 264.48768 244.235898 
L 264.66624 244.235898 
L 265.02336 234.43937 
L 265.20192 234.43937 
L 265.38048 229.541106 
L 265.55904 229.541106 
L 265.7376 227.091974 
L 265.91616 227.091974 
L 266.09472 222.19371 
L 266.27328 222.19371 
L 266.45184 217.295446 
L 266.6304 217.295446 
L 266.80896 214.846314 
L 267.16608 214.846314 
L 267.34464 212.397182 
L 267.88032 212.397182 
L 268.05888 209.94805 
L 268.23744 209.94805 
L 268.416 207.498918 
L 268.77312 207.498918 
L 268.95168 205.049786 
L 269.48736 205.049786 
L 269.66592 202.600654 
L 269.84448 202.600654 
L 270.02304 200.151521 
L 270.73728 200.151521 
L 270.91584 197.702389 
L 271.0944 197.702389 
L 271.27296 195.253257 
L 271.63008 195.253257 
L 271.80864 192.804125 
L 272.52288 192.804125 
L 272.70144 190.354993 
L 272.88 190.354993 
L 273.05856 187.905861 
L 273.7728 187.905861 
L 273.95136 185.456729 
L 274.30848 185.456729 
L 274.48704 183.007597 
L 275.5584 183.007597 
L 275.73696 180.558465 
L 276.09408 180.558465 
L 276.27264 178.109333 
L 276.62976 178.109333 
L 276.80832 175.660201 
L 276.98688 175.660201 
L 277.16544 173.211069 
L 277.52256 173.211069 
L 277.70112 170.761937 
L 278.41536 170.761937 
L 278.59392 168.312805 
L 279.1296 168.312805 
L 279.30816 165.863673 
L 279.66528 165.863673 
L 279.84384 163.414541 
L 280.73664 163.414541 
L 280.9152 160.965409 
L 281.62944 160.965409 
L 281.808 158.516277 
L 282.16512 158.516277 
L 282.34368 156.067145 
L 283.05792 156.067145 
L 283.23648 153.618013 
L 283.95072 153.618013 
L 284.12928 151.168881 
L 285.20064 151.168881 
L 285.3792 148.719749 
L 286.09344 148.719749 
L 286.272 146.270616 
L 287.34336 146.270616 
L 287.52192 143.821484 
L 288.0576 143.821484 
L 288.23616 141.372352 
L 289.12896 141.372352 
L 289.30752 138.92322 
L 290.20032 138.92322 
L 290.37888 136.474088 
L 291.27168 136.474088 
L 291.45024 134.024956 
L 292.34304 134.024956 
L 292.5216 131.575824 
L 293.4144 131.575824 
L 293.59296 129.126692 
L 294.84288 129.126692 
L 295.02144 126.67756 
L 296.27136 126.67756 
L 296.44992 124.228428 
L 297.69984 124.228428 
L 297.8784 121.779296 
L 299.12832 121.779296 
L 299.30688 119.330164 
L 300.5568 119.330164 
L 300.73536 116.881032 
L 302.69952 116.881032 
L 302.87808 114.4319 
L 304.48512 114.4319 
L 304.66368 111.982768 
L 306.27072 111.982768 
L 306.44928 109.533636 
L 308.77056 109.533636 
L 308.94912 107.084504 
L 310.91328 107.084504 
L 311.09184 104.635372 
L 311.2704 104.635372 
L 311.44896 107.084504 
L 311.62752 107.084504 
L 311.80608 104.635372 
L 313.77024 104.635372 
L 313.9488 102.18624 
L 317.69856 102.18624 
L 317.87712 99.737108 
L 322.34112 99.737108 
L 322.51968 97.287976 
L 328.05504 97.287976 
L 328.2336 94.838844 
L 328.59072 94.838844 
L 328.76928 97.287976 
L 328.94784 97.287976 
L 329.1264 94.838844 
L 341.98272 94.838844 
L 342.16128 92.389711 
L 342.33984 92.389711 
L 342.5184 94.838844 
L 342.69696 94.838844 
L 342.87552 92.389711 
L 343.4112 92.389711 
L 343.58976 94.838844 
L 343.76832 94.838844 
L 343.94688 92.389711 
L 344.12544 92.389711 
L 344.304 94.838844 
L 344.83968 94.838844 
L 345.01824 92.389711 
L 345.1968 92.389711 
L 345.37536 94.838844 
L 345.55392 94.838844 
L 345.73248 92.389711 
L 345.91104 92.389711 
L 346.0896 94.838844 
L 346.62528 94.838844 
L 346.80384 92.389711 
L 346.9824 92.389711 
L 347.16096 94.838844 
L 347.33952 94.838844 
L 347.51808 92.389711 
L 347.69664 92.389711 
L 347.8752 94.838844 
L 348.41088 94.838844 
L 348.58944 92.389711 
L 348.768 92.389711 
L 348.94656 94.838844 
L 349.12512 94.838844 
L 349.30368 92.389711 
L 349.48224 92.389711 
L 349.6608 94.838844 
L 351.62496 94.838844 
L 351.80352 92.389711 
L 351.98208 92.389711 
L 352.16064 94.838844 
L 355.55328 94.838844 
L 355.73184 92.389711 
L 355.9104 92.389711 
L 356.08896 94.838844 
L 371.26656 94.838844 
L 371.44512 97.287976 
L 371.62368 94.838844 
L 371.80224 94.838844 
L 371.9808 97.287976 
L 372.51648 97.287976 
L 372.69504 94.838844 
L 372.8736 94.838844 
L 373.05216 97.287976 
L 384.65856 97.287976 
L 384.83712 99.737108 
L 385.01568 99.737108 
L 385.19424 97.287976 
L 385.55136 97.287976 
L 385.72992 99.737108 
L 385.90848 99.737108 
L 386.08704 97.287976 
L 386.2656 97.287976 
L 386.44416 99.737108 
L 386.97984 99.737108 
L 387.1584 97.287976 
L 387.33696 97.287976 
L 387.51552 99.737108 
L 394.65792 99.737108 
L 394.83648 102.18624 
L 395.1936 102.18624 
L 395.37216 99.737108 
L 395.55072 99.737108 
L 395.72928 102.18624 
L 405.72864 102.18624 
L 405.9072 104.635372 
L 406.44288 104.635372 
L 406.62144 102.18624 
L 406.8 102.18624 
L 406.97856 104.635372 
L 419.65632 104.635372 
L 419.83488 107.084504 
L 420.54912 107.084504 
L 420.72768 104.635372 
L 421.0848 104.635372 
L 421.26336 107.084504 
L 434.83392 107.084504 
L 435.01248 109.533636 
L 435.19104 109.533636 
L 435.3696 107.084504 
L 436.2624 107.084504 
L 436.44096 109.533636 
L 460.18944 109.533636 
L 460.368 111.982768 
L 464.11776 111.982768 
L 464.29632 109.533636 
L 464.832 109.533636 
L 465.01056 111.982768 
L 504.47232 111.982768 
L 504.65088 114.4319 
L 505.18656 114.4319 
L 505.36512 111.982768 
L 505.54368 111.982768 
L 505.72224 114.4319 
L 508.04352 114.4319 
L 508.22208 111.982768 
L 508.40064 111.982768 
L 508.5792 114.4319 
L 510.90048 114.4319 
L 511.07904 111.982768 
L 511.2576 111.982768 
L 511.43616 114.4319 
L 513.75744 114.4319 
L 513.936 111.982768 
L 514.11456 111.982768 
L 514.29312 114.4319 
L 516.6144 114.4319 
L 516.79296 111.982768 
L 516.97152 111.982768 
L 517.15008 114.4319 
L 518.4 114.4319 
L 518.4 114.4319 
" style="fill:none;stroke:#008000;stroke-linecap:square;"/>
   </g>
   <g id="line2d_2">
    <path clip-path="url(#p696f649325)" d="M 72.17856 388.8 
L 518.4 388.8 
L 518.4 388.8 
" style="fill:none;stroke:#ff0000;stroke-linecap:square;"/>
   </g>
   <g id="patch_3">
    <path d="M 72 43.2 
L 518.4 43.2 
" style="fill:none;stroke:#000000;stroke-linecap:square;stroke-linejoin:miter;"/>
   </g>
   <g id="patch_4">
    <path d="M 518.4 388.8 
L 518.4 43.2 
" style="fill:none;stroke:#000000;stroke-linecap:square;stroke-linejoin:miter;"/>
   </g>
   <g id="patch_5">
    <path d="M 72 388.8 
L 518.4 388.8 
" style="fill:none;stroke:#000000;stroke-linecap:square;stroke-linejoin:miter;"/>
   </g>
   <g id="patch_6">
    <path d="M 72 388.8 
L 72 43.2 
" style="fill:none;stroke:#000000;stroke-linecap:square;stroke-linejoin:miter;"/>
   </g>
   <g id="matplotlib.axis_1">
    <g id="xtick_1">
     <g id="line2d_3">
      <path clip-path="url(#p696f649325)" d="M 72 388.8 
L 72 43.2 
" style="fill:none;stroke:#000000;stroke-dasharray:1.000000,3.000000;stroke-dashoffset:0.0;stroke-width:0.5;"/>
     </g>
     <g id="line2d_4">
      <defs>
       <path d="M 0 0 
L 0 -4 
" id="m7361a392c8" style="stroke:#000000;stroke-width:0.5;"/>
      </defs>
      <g>
       <use style="stroke:#000000;stroke-width:0.5;" x="72.0" xlink:href="#m7361a392c8" y="388.8"/>
      </g>
     </g>
     <g id="line2d_5">
      <defs>
       <path d="M 0 0 
L 0 4 
" id="m7d802cd2dc" style="stroke:#000000;stroke-width:0.5;"/>
      </defs>
      <g>
       <use style="stroke:#000000;stroke-width:0.5;" x="72.0" xlink:href="#m7d802cd2dc" y="43.2"/>
      </g>
     </g>
     <g id="text_1">
      <!-- 0 -->
      <defs>
       <path d="M 31.78125 66.40625 
Q 24.171875 66.40625 20.328125 58.90625 
Q 16.5 51.421875 16.5 36.375 
Q 16.5 21.390625 20.328125 13.890625 
Q 24.171875 6.390625 31.78125 6.390625 
Q 39.453125 6.390625 43.28125 13.890625 
Q 47.125 21.390625 47.125 36.375 
Q 47.125 51.421875 43.28125 58.90625 
Q 39.453125 66.40625 31.78125 66.40625 
M 31.78125 74.21875 
Q 44.046875 74.21875 50.515625 64.515625 
Q 56.984375 54.828125 56.984375 36.375 
Q 56.984375 17.96875 50.515625 8.265625 
Q 44.046875 -1.421875 31.78125 -1.421875 
Q 19.53125 -1.421875 13.0625 8.265625 
Q 6.59375 17.96875 6.59375 36.375 
Q 6.59375 54.828125 13.0625 64.515625 
Q 19.53125 74.21875 31.78125 74.21875 
" id="BitstreamVeraSans-Roman-30"/>
      </defs>
      <g transform="translate(68.1825 401.918125)scale(0.12 -0.12)">
       <use xlink:href="#BitstreamVeraSans-Roman-30"/>
      </g>
     </g>
    </g>
    <g id="xtick_2">
     <g id="line2d_6">
      <path clip-path="url(#p696f649325)" d="M 161.28 388.8 
L 161.28 43.2 
" style="fill:none;stroke:#000000;stroke-dasharray:1.000000,3.000000;stroke-dashoffset:0.0;stroke-width:0.5;"/>
     </g>
     <g id="line2d_7">
      <g>
       <use style="stroke:#000000;stroke-width:0.5;" x="161.28" xlink:href="#m7361a392c8" y="388.8"/>
      </g>
     </g>
     <g id="line2d_8">
      <g>
       <use style="stroke:#000000;stroke-width:0.5;" x="161.28" xlink:href="#m7d802cd2dc" y="43.2"/>
      </g>
     </g>
     <g id="text_2">
      <!-- 5 -->
      <defs>
       <path d="M 10.796875 72.90625 
L 49.515625 72.90625 
L 49.515625 64.59375 
L 19.828125 64.59375 
L 19.828125 46.734375 
Q 21.96875 47.46875 24.109375 47.828125 
Q 26.265625 48.1875 28.421875 48.1875 
Q 40.625 48.1875 47.75 41.5 
Q 54.890625 34.8125 54.890625 23.390625 
Q 54.890625 11.625 47.5625 5.09375 
Q 40.234375 -1.421875 26.90625 -1.421875 
Q 22.3125 -1.421875 17.546875 -0.640625 
Q 12.796875 0.140625 7.71875 1.703125 
L 7.71875 11.625 
Q 12.109375 9.234375 16.796875 8.0625 
Q 21.484375 6.890625 26.703125 6.890625 
Q 35.15625 6.890625 40.078125 11.328125 
Q 45.015625 15.765625 45.015625 23.390625 
Q 45.015625 31 40.078125 35.4375 
Q 35.15625 39.890625 26.703125 39.890625 
Q 22.75 39.890625 18.8125 39.015625 
Q 14.890625 38.140625 10.796875 36.28125 
z
" id="BitstreamVeraSans-Roman-35"/>
      </defs>
      <g transform="translate(157.4625 401.918125)scale(0.12 -0.12)">
       <use xlink:href="#BitstreamVeraSans-Roman-35"/>
      </g>
     </g>
    </g>
    <g id="xtick_3">
     <g id="line2d_9">
      <path clip-path="url(#p696f649325)" d="M 250.56 388.8 
L 250.56 43.2 
" style="fill:none;stroke:#000000;stroke-dasharray:1.000000,3.000000;stroke-dashoffset:0.0;stroke-width:0.5;"/>
     </g>
     <g id="line2d_10">
      <g>
       <use style="stroke:#000000;stroke-width:0.5;" x="250.56" xlink:href="#m7361a392c8" y="388.8"/>
      </g>
     </g>
     <g id="line2d_11">
      <g>
       <use style="stroke:#000000;stroke-width:0.5;" x="250.56" xlink:href="#m7d802cd2dc" y="43.2"/>
      </g>
     </g>
     <g id="text_3">
      <!-- 10 -->
      <defs>
       <path d="M 12.40625 8.296875 
L 28.515625 8.296875 
L 28.515625 63.921875 
L 10.984375 60.40625 
L 10.984375 69.390625 
L 28.421875 72.90625 
L 38.28125 72.90625 
L 38.28125 8.296875 
L 54.390625 8.296875 
L 54.390625 0 
L 12.40625 0 
z
" id="BitstreamVeraSans-Roman-31"/>
      </defs>
      <g transform="translate(242.925 401.918125)scale(0.12 -0.12)">
       <use xlink:href="#BitstreamVeraSans-Roman-31"/>
       <use x="63.623046875" xlink:href="#BitstreamVeraSans-Roman-30"/>
      </g>
     </g>
    </g>
    <g id="xtick_4">
     <g id="line2d_12">
      <path clip-path="url(#p696f649325)" d="M 339.84 388.8 
L 339.84 43.2 
" style="fill:none;stroke:#000000;stroke-dasharray:1.000000,3.000000;stroke-dashoffset:0.0;stroke-width:0.5;"/>
     </g>
     <g id="line2d_13">
      <g>
       <use style="stroke:#000000;stroke-width:0.5;" x="339.84" xlink:href="#m7361a392c8" y="388.8"/>
      </g>
     </g>
     <g id="line2d_14">
      <g>
       <use style="stroke:#000000;stroke-width:0.5;" x="339.84" xlink:href="#m7d802cd2dc" y="43.2"/>
      </g>
     </g>
     <g id="text_4">
      <!-- 15 -->
      <g transform="translate(332.205 401.918125)scale(0.12 -0.12)">
       <use xlink:href="#BitstreamVeraSans-Roman-31"/>
       <use x="63.623046875" xlink:href="#BitstreamVeraSans-Roman-35"/>
      </g>
     </g>
    </g>
    <g id="xtick_5">
     <g id="line2d_15">
      <path clip-path="url(#p696f649325)" d="M 429.12 388.8 
L 429.12 43.2 
" style="fill:none;stroke:#000000;stroke-dasharray:1.000000,3.000000;stroke-dashoffset:0.0;stroke-width:0.5;"/>
     </g>
     <g id="line2d_16">
      <g>
       <use style="stroke:#000000;stroke-width:0.5;" x="429.12" xlink:href="#m7361a392c8" y="388.8"/>
      </g>
     </g>
     <g id="line2d_17">
      <g>
       <use style="stroke:#000000;stroke-width:0.5;" x="429.12" xlink:href="#m7d802cd2dc" y="43.2"/>
      </g>
     </g>
     <g id="text_5">
      <!-- 20 -->
      <defs>
       <path d="M 19.1875 8.296875 
L 53.609375 8.296875 
L 53.609375 0 
L 7.328125 0 
L 7.328125 8.296875 
Q 12.9375 14.109375 22.625 23.890625 
Q 32.328125 33.6875 34.8125 36.53125 
Q 39.546875 41.84375 41.421875 45.53125 
Q 43.3125 49.21875 43.3125 52.78125 
Q 43.3125 58.59375 39.234375 62.25 
Q 35.15625 65.921875 28.609375 65.921875 
Q 23.96875 65.921875 18.8125 64.3125 
Q 13.671875 62.703125 7.8125 59.421875 
L 7.8125 69.390625 
Q 13.765625 71.78125 18.9375 73 
Q 24.125 74.21875 28.421875 74.21875 
Q 39.75 74.21875 46.484375 68.546875 
Q 53.21875 62.890625 53.21875 53.421875 
Q 53.21875 48.921875 51.53125 44.890625 
Q 49.859375 40.875 45.40625 35.40625 
Q 44.1875 33.984375 37.640625 27.21875 
Q 31.109375 20.453125 19.1875 8.296875 
" id="BitstreamVeraSans-Roman-32"/>
      </defs>
      <g transform="translate(421.485 401.918125)scale(0.12 -0.12)">
       <use xlink:href="#BitstreamVeraSans-Roman-32"/>
       <use x="63.623046875" xlink:href="#BitstreamVeraSans-Roman-30"/>
      </g>
     </g>
    </g>
    <g id="xtick_6">
     <g id="line2d_18">
      <path clip-path="url(#p696f649325)" d="M 518.4 388.8 
L 518.4 43.2 
" style="fill:none;stroke:#000000;stroke-dasharray:1.000000,3.000000;stroke-dashoffset:0.0;stroke-width:0.5;"/>
     </g>
     <g id="line2d_19">
      <g>
       <use style="stroke:#000000;stroke-width:0.5;" x="518.4" xlink:href="#m7361a392c8" y="388.8"/>
      </g>
     </g>
     <g id="line2d_20">
      <g>
       <use style="stroke:#000000;stroke-width:0.5;" x="518.4" xlink:href="#m7d802cd2dc" y="43.2"/>
      </g>
     </g>
     <g id="text_6">
      <!-- 25 -->
      <g transform="translate(510.765 401.918125)scale(0.12 -0.12)">
       <use xlink:href="#BitstreamVeraSans-Roman-32"/>
       <use x="63.623046875" xlink:href="#BitstreamVeraSans-Roman-35"/>
      </g>
     </g>
    </g>
    <g id="text_7">
     <!-- Time [s] -->
     <defs>
      <path id="BitstreamVeraSans-Roman-20"/>
      <path d="M 8.59375 75.984375 
L 29.296875 75.984375 
L 29.296875 69 
L 17.578125 69 
L 17.578125 -6.203125 
L 29.296875 -6.203125 
L 29.296875 -13.1875 
L 8.59375 -13.1875 
z
" id="BitstreamVeraSans-Roman-5b"/>
      <path d="M 30.421875 75.984375 
L 30.421875 -13.1875 
L 9.71875 -13.1875 
L 9.71875 -6.203125 
L 21.390625 -6.203125 
L 21.390625 69 
L 9.71875 69 
L 9.71875 75.984375 
z
" id="BitstreamVeraSans-Roman-5d"/>
      <path d="M 52 44.1875 
Q 55.375 50.25 60.0625 53.125 
Q 64.75 56 71.09375 56 
Q 79.640625 56 84.28125 50.015625 
Q 88.921875 44.046875 88.921875 33.015625 
L 88.921875 0 
L 79.890625 0 
L 79.890625 32.71875 
Q 79.890625 40.578125 77.09375 44.375 
Q 74.3125 48.1875 68.609375 48.1875 
Q 61.625 48.1875 57.5625 43.546875 
Q 53.515625 38.921875 53.515625 30.90625 
L 53.515625 0 
L 44.484375 0 
L 44.484375 32.71875 
Q 44.484375 40.625 41.703125 44.40625 
Q 38.921875 48.1875 33.109375 48.1875 
Q 26.21875 48.1875 22.15625 43.53125 
Q 18.109375 38.875 18.109375 30.90625 
L 18.109375 0 
L 9.078125 0 
L 9.078125 54.6875 
L 18.109375 54.6875 
L 18.109375 46.1875 
Q 21.1875 51.21875 25.484375 53.609375 
Q 29.78125 56 35.6875 56 
Q 41.65625 56 45.828125 52.96875 
Q 50 49.953125 52 44.1875 
" id="BitstreamVeraSans-Roman-6d"/>
      <path d="M 9.421875 54.6875 
L 18.40625 54.6875 
L 18.40625 0 
L 9.421875 0 
z
M 9.421875 75.984375 
L 18.40625 75.984375 
L 18.40625 64.59375 
L 9.421875 64.59375 
z
" id="BitstreamVeraSans-Roman-69"/>
      <path d="M 56.203125 29.59375 
L 56.203125 25.203125 
L 14.890625 25.203125 
Q 15.484375 15.921875 20.484375 11.0625 
Q 25.484375 6.203125 34.421875 6.203125 
Q 39.59375 6.203125 44.453125 7.46875 
Q 49.3125 8.734375 54.109375 11.28125 
L 54.109375 2.78125 
Q 49.265625 0.734375 44.1875 -0.34375 
Q 39.109375 -1.421875 33.890625 -1.421875 
Q 20.796875 -1.421875 13.15625 6.1875 
Q 5.515625 13.8125 5.515625 26.8125 
Q 5.515625 40.234375 12.765625 48.109375 
Q 20.015625 56 32.328125 56 
Q 43.359375 56 49.78125 48.890625 
Q 56.203125 41.796875 56.203125 29.59375 
M 47.21875 32.234375 
Q 47.125 39.59375 43.09375 43.984375 
Q 39.0625 48.390625 32.421875 48.390625 
Q 24.90625 48.390625 20.390625 44.140625 
Q 15.875 39.890625 15.1875 32.171875 
z
" id="BitstreamVeraSans-Roman-65"/>
      <path d="M -0.296875 72.90625 
L 61.375 72.90625 
L 61.375 64.59375 
L 35.5 64.59375 
L 35.5 0 
L 25.59375 0 
L 25.59375 64.59375 
L -0.296875 64.59375 
z
" id="BitstreamVeraSans-Roman-54"/>
      <path d="M 44.28125 53.078125 
L 44.28125 44.578125 
Q 40.484375 46.53125 36.375 47.5 
Q 32.28125 48.484375 27.875 48.484375 
Q 21.1875 48.484375 17.84375 46.4375 
Q 14.5 44.390625 14.5 40.28125 
Q 14.5 37.15625 16.890625 35.375 
Q 19.28125 33.59375 26.515625 31.984375 
L 29.59375 31.296875 
Q 39.15625 29.25 43.1875 25.515625 
Q 47.21875 21.78125 47.21875 15.09375 
Q 47.21875 7.46875 41.1875 3.015625 
Q 35.15625 -1.421875 24.609375 -1.421875 
Q 20.21875 -1.421875 15.453125 -0.5625 
Q 10.6875 0.296875 5.421875 2 
L 5.421875 11.28125 
Q 10.40625 8.6875 15.234375 7.390625 
Q 20.0625 6.109375 24.8125 6.109375 
Q 31.15625 6.109375 34.5625 8.28125 
Q 37.984375 10.453125 37.984375 14.40625 
Q 37.984375 18.0625 35.515625 20.015625 
Q 33.0625 21.96875 24.703125 23.78125 
L 21.578125 24.515625 
Q 13.234375 26.265625 9.515625 29.90625 
Q 5.8125 33.546875 5.8125 39.890625 
Q 5.8125 47.609375 11.28125 51.796875 
Q 16.75 56 26.8125 56 
Q 31.78125 56 36.171875 55.265625 
Q 40.578125 54.546875 44.28125 53.078125 
" id="BitstreamVeraSans-Roman-73"/>
     </defs>
     <g transform="translate(270.620625 418.531875)scale(0.12 -0.12)">
      <use xlink:href="#BitstreamVeraSans-Roman-54"/>
      <use x="61.037109375" xlink:href="#BitstreamVeraSans-Roman-69"/>
      <use x="88.8203125" xlink:href="#BitstreamVeraSans-Roman-6d"/>
      <use x="186.232421875" xlink:href="#BitstreamVeraSans-Roman-65"/>
      <use x="247.755859375" xlink:href="#BitstreamVeraSans-Roman-20"/>
      <use x="279.54296875" xlink:href="#BitstreamVeraSans-Roman-5b"/>
      <use x="318.556640625" xlink:href="#BitstreamVeraSans-Roman-73"/>
      <use x="370.65625" xlink:href="#BitstreamVeraSans-Roman-5d"/>
     </g>
    </g>
   </g>
   <g id="matplotlib.axis_2">
    <g id="ytick_1">
     <g id="line2d_21">
      <path clip-path="url(#p696f649325)" d="M 72 388.8 
L 518.4 388.8 
" style="fill:none;stroke:#000000;stroke-dasharray:1.000000,3.000000;stroke-dashoffset:0.0;stroke-width:0.5;"/>
     </g>
     <g id="line2d_22">
      <defs>
       <path d="M 0 0 
L 4 0 
" id="m77f2af5583" style="stroke:#000000;stroke-width:0.5;"/>
      </defs>
      <g>
       <use style="stroke:#000000;stroke-width:0.5;" x="72.0" xlink:href="#m77f2af5583" y="388.8"/>
      </g>
     </g>
     <g id="line2d_23">
      <defs>
       <path d="M 0 0 
L -4 0 
" id="me0cdf85821" style="stroke:#000000;stroke-width:0.5;"/>
      </defs>
      <g>
       <use style="stroke:#000000;stroke-width:0.5;" x="518.4" xlink:href="#me0cdf85821" y="388.8"/>
      </g>
     </g>
     <g id="text_8">
      <!-- 0.00 -->
      <defs>
       <path d="M 10.6875 12.40625 
L 21 12.40625 
L 21 0 
L 10.6875 0 
z
" id="BitstreamVeraSans-Roman-2e"/>
      </defs>
      <g transform="translate(41.28125 392.11125)scale(0.12 -0.12)">
       <use xlink:href="#BitstreamVeraSans-Roman-30"/>
       <use x="63.623046875" xlink:href="#BitstreamVeraSans-Roman-2e"/>
       <use x="95.41015625" xlink:href="#BitstreamVeraSans-Roman-30"/>
       <use x="159.033203125" xlink:href="#BitstreamVeraSans-Roman-30"/>
      </g>
     </g>
    </g>
    <g id="ytick_2">
     <g id="line2d_24">
      <path clip-path="url(#p696f649325)" d="M 72 339.428571 
L 518.4 339.428571 
" style="fill:none;stroke:#000000;stroke-dasharray:1.000000,3.000000;stroke-dashoffset:0.0;stroke-width:0.5;"/>
     </g>
     <g id="line2d_25">
      <g>
       <use style="stroke:#000000;stroke-width:0.5;" x="72.0" xlink:href="#m77f2af5583" y="339.428571429"/>
      </g>
     </g>
     <g id="line2d_26">
      <g>
       <use style="stroke:#000000;stroke-width:0.5;" x="518.4" xlink:href="#me0cdf85821" y="339.428571429"/>
      </g>
     </g>
     <g id="text_9">
      <!-- 0.02 -->
      <g transform="translate(41.28125 342.739821429)scale(0.12 -0.12)">
       <use xlink:href="#BitstreamVeraSans-Roman-30"/>
       <use x="63.623046875" xlink:href="#BitstreamVeraSans-Roman-2e"/>
       <use x="95.41015625" xlink:href="#BitstreamVeraSans-Roman-30"/>
       <use x="159.033203125" xlink:href="#BitstreamVeraSans-Roman-32"/>
      </g>
     </g>
    </g>
    <g id="ytick_3">
     <g id="line2d_27">
      <path clip-path="url(#p696f649325)" d="M 72 290.057143 
L 518.4 290.057143 
" style="fill:none;stroke:#000000;stroke-dasharray:1.000000,3.000000;stroke-dashoffset:0.0;stroke-width:0.5;"/>
     </g>
     <g id="line2d_28">
      <g>
       <use style="stroke:#000000;stroke-width:0.5;" x="72.0" xlink:href="#m77f2af5583" y="290.057142857"/>
      </g>
     </g>
     <g id="line2d_29">
      <g>
       <use style="stroke:#000000;stroke-width:0.5;" x="518.4" xlink:href="#me0cdf85821" y="290.057142857"/>
      </g>
     </g>
     <g id="text_10">
      <!-- 0.04 -->
      <defs>
       <path d="M 37.796875 64.3125 
L 12.890625 25.390625 
L 37.796875 25.390625 
z
M 35.203125 72.90625 
L 47.609375 72.90625 
L 47.609375 25.390625 
L 58.015625 25.390625 
L 58.015625 17.1875 
L 47.609375 17.1875 
L 47.609375 0 
L 37.796875 0 
L 37.796875 17.1875 
L 4.890625 17.1875 
L 4.890625 26.703125 
z
" id="BitstreamVeraSans-Roman-34"/>
      </defs>
      <g transform="translate(41.28125 293.368392857)scale(0.12 -0.12)">
       <use xlink:href="#BitstreamVeraSans-Roman-30"/>
       <use x="63.623046875" xlink:href="#BitstreamVeraSans-Roman-2e"/>
       <use x="95.41015625" xlink:href="#BitstreamVeraSans-Roman-30"/>
       <use x="159.033203125" xlink:href="#BitstreamVeraSans-Roman-34"/>
      </g>
     </g>
    </g>
    <g id="ytick_4">
     <g id="line2d_30">
      <path clip-path="url(#p696f649325)" d="M 72 240.685714 
L 518.4 240.685714 
" style="fill:none;stroke:#000000;stroke-dasharray:1.000000,3.000000;stroke-dashoffset:0.0;stroke-width:0.5;"/>
     </g>
     <g id="line2d_31">
      <g>
       <use style="stroke:#000000;stroke-width:0.5;" x="72.0" xlink:href="#m77f2af5583" y="240.685714286"/>
      </g>
     </g>
     <g id="line2d_32">
      <g>
       <use style="stroke:#000000;stroke-width:0.5;" x="518.4" xlink:href="#me0cdf85821" y="240.685714286"/>
      </g>
     </g>
     <g id="text_11">
      <!-- 0.06 -->
      <defs>
       <path d="M 33.015625 40.375 
Q 26.375 40.375 22.484375 35.828125 
Q 18.609375 31.296875 18.609375 23.390625 
Q 18.609375 15.53125 22.484375 10.953125 
Q 26.375 6.390625 33.015625 6.390625 
Q 39.65625 6.390625 43.53125 10.953125 
Q 47.40625 15.53125 47.40625 23.390625 
Q 47.40625 31.296875 43.53125 35.828125 
Q 39.65625 40.375 33.015625 40.375 
M 52.59375 71.296875 
L 52.59375 62.3125 
Q 48.875 64.0625 45.09375 64.984375 
Q 41.3125 65.921875 37.59375 65.921875 
Q 27.828125 65.921875 22.671875 59.328125 
Q 17.53125 52.734375 16.796875 39.40625 
Q 19.671875 43.65625 24.015625 45.921875 
Q 28.375 48.1875 33.59375 48.1875 
Q 44.578125 48.1875 50.953125 41.515625 
Q 57.328125 34.859375 57.328125 23.390625 
Q 57.328125 12.15625 50.6875 5.359375 
Q 44.046875 -1.421875 33.015625 -1.421875 
Q 20.359375 -1.421875 13.671875 8.265625 
Q 6.984375 17.96875 6.984375 36.375 
Q 6.984375 53.65625 15.1875 63.9375 
Q 23.390625 74.21875 37.203125 74.21875 
Q 40.921875 74.21875 44.703125 73.484375 
Q 48.484375 72.75 52.59375 71.296875 
" id="BitstreamVeraSans-Roman-36"/>
      </defs>
      <g transform="translate(41.28125 243.996964286)scale(0.12 -0.12)">
       <use xlink:href="#BitstreamVeraSans-Roman-30"/>
       <use x="63.623046875" xlink:href="#BitstreamVeraSans-Roman-2e"/>
       <use x="95.41015625" xlink:href="#BitstreamVeraSans-Roman-30"/>
       <use x="159.033203125" xlink:href="#BitstreamVeraSans-Roman-36"/>
      </g>
     </g>
    </g>
    <g id="ytick_5">
     <g id="line2d_33">
      <path clip-path="url(#p696f649325)" d="M 72 191.314286 
L 518.4 191.314286 
" style="fill:none;stroke:#000000;stroke-dasharray:1.000000,3.000000;stroke-dashoffset:0.0;stroke-width:0.5;"/>
     </g>
     <g id="line2d_34">
      <g>
       <use style="stroke:#000000;stroke-width:0.5;" x="72.0" xlink:href="#m77f2af5583" y="191.314285714"/>
      </g>
     </g>
     <g id="line2d_35">
      <g>
       <use style="stroke:#000000;stroke-width:0.5;" x="518.4" xlink:href="#me0cdf85821" y="191.314285714"/>
      </g>
     </g>
     <g id="text_12">
      <!-- 0.08 -->
      <defs>
       <path d="M 31.78125 34.625 
Q 24.75 34.625 20.71875 30.859375 
Q 16.703125 27.09375 16.703125 20.515625 
Q 16.703125 13.921875 20.71875 10.15625 
Q 24.75 6.390625 31.78125 6.390625 
Q 38.8125 6.390625 42.859375 10.171875 
Q 46.921875 13.96875 46.921875 20.515625 
Q 46.921875 27.09375 42.890625 30.859375 
Q 38.875 34.625 31.78125 34.625 
M 21.921875 38.8125 
Q 15.578125 40.375 12.03125 44.71875 
Q 8.5 49.078125 8.5 55.328125 
Q 8.5 64.0625 14.71875 69.140625 
Q 20.953125 74.21875 31.78125 74.21875 
Q 42.671875 74.21875 48.875 69.140625 
Q 55.078125 64.0625 55.078125 55.328125 
Q 55.078125 49.078125 51.53125 44.71875 
Q 48 40.375 41.703125 38.8125 
Q 48.828125 37.15625 52.796875 32.3125 
Q 56.78125 27.484375 56.78125 20.515625 
Q 56.78125 9.90625 50.3125 4.234375 
Q 43.84375 -1.421875 31.78125 -1.421875 
Q 19.734375 -1.421875 13.25 4.234375 
Q 6.78125 9.90625 6.78125 20.515625 
Q 6.78125 27.484375 10.78125 32.3125 
Q 14.796875 37.15625 21.921875 38.8125 
M 18.3125 54.390625 
Q 18.3125 48.734375 21.84375 45.5625 
Q 25.390625 42.390625 31.78125 42.390625 
Q 38.140625 42.390625 41.71875 45.5625 
Q 45.3125 48.734375 45.3125 54.390625 
Q 45.3125 60.0625 41.71875 63.234375 
Q 38.140625 66.40625 31.78125 66.40625 
Q 25.390625 66.40625 21.84375 63.234375 
Q 18.3125 60.0625 18.3125 54.390625 
" id="BitstreamVeraSans-Roman-38"/>
      </defs>
      <g transform="translate(41.28125 194.625535714)scale(0.12 -0.12)">
       <use xlink:href="#BitstreamVeraSans-Roman-30"/>
       <use x="63.623046875" xlink:href="#BitstreamVeraSans-Roman-2e"/>
       <use x="95.41015625" xlink:href="#BitstreamVeraSans-Roman-30"/>
       <use x="159.033203125" xlink:href="#BitstreamVeraSans-Roman-38"/>
      </g>
     </g>
    </g>
    <g id="ytick_6">
     <g id="line2d_36">
      <path clip-path="url(#p696f649325)" d="M 72 141.942857 
L 518.4 141.942857 
" style="fill:none;stroke:#000000;stroke-dasharray:1.000000,3.000000;stroke-dashoffset:0.0;stroke-width:0.5;"/>
     </g>
     <g id="line2d_37">
      <g>
       <use style="stroke:#000000;stroke-width:0.5;" x="72.0" xlink:href="#m77f2af5583" y="141.942857143"/>
      </g>
     </g>
     <g id="line2d_38">
      <g>
       <use style="stroke:#000000;stroke-width:0.5;" x="518.4" xlink:href="#me0cdf85821" y="141.942857143"/>
      </g>
     </g>
     <g id="text_13">
      <!-- 0.10 -->
      <g transform="translate(41.28125 145.254107143)scale(0.12 -0.12)">
       <use xlink:href="#BitstreamVeraSans-Roman-30"/>
       <use x="63.623046875" xlink:href="#BitstreamVeraSans-Roman-2e"/>
       <use x="95.41015625" xlink:href="#BitstreamVeraSans-Roman-31"/>
       <use x="159.033203125" xlink:href="#BitstreamVeraSans-Roman-30"/>
      </g>
     </g>
    </g>
    <g id="ytick_7">
     <g id="line2d_39">
      <path clip-path="url(#p696f649325)" d="M 72 92.571429 
L 518.4 92.571429 
" style="fill:none;stroke:#000000;stroke-dasharray:1.000000,3.000000;stroke-dashoffset:0.0;stroke-width:0.5;"/>
     </g>
     <g id="line2d_40">
      <g>
       <use style="stroke:#000000;stroke-width:0.5;" x="72.0" xlink:href="#m77f2af5583" y="92.5714285714"/>
      </g>
     </g>
     <g id="line2d_41">
      <g>
       <use style="stroke:#000000;stroke-width:0.5;" x="518.4" xlink:href="#me0cdf85821" y="92.5714285714"/>
      </g>
     </g>
     <g id="text_14">
      <!-- 0.12 -->
      <g transform="translate(41.28125 95.8826785714)scale(0.12 -0.12)">
       <use xlink:href="#BitstreamVeraSans-Roman-30"/>
       <use x="63.623046875" xlink:href="#BitstreamVeraSans-Roman-2e"/>
       <use x="95.41015625" xlink:href="#BitstreamVeraSans-Roman-31"/>
       <use x="159.033203125" xlink:href="#BitstreamVeraSans-Roman-32"/>
      </g>
     </g>
    </g>
    <g id="ytick_8">
     <g id="line2d_42">
      <path clip-path="url(#p696f649325)" d="M 72 43.2 
L 518.4 43.2 
" style="fill:none;stroke:#000000;stroke-dasharray:1.000000,3.000000;stroke-dashoffset:0.0;stroke-width:0.5;"/>
     </g>
     <g id="line2d_43">
      <g>
       <use style="stroke:#000000;stroke-width:0.5;" x="72.0" xlink:href="#m77f2af5583" y="43.2"/>
      </g>
     </g>
     <g id="line2d_44">
      <g>
       <use style="stroke:#000000;stroke-width:0.5;" x="518.4" xlink:href="#me0cdf85821" y="43.2"/>
      </g>
     </g>
     <g id="text_15">
      <!-- 0.14 -->
      <g transform="translate(41.28125 46.51125)scale(0.12 -0.12)">
       <use xlink:href="#BitstreamVeraSans-Roman-30"/>
       <use x="63.623046875" xlink:href="#BitstreamVeraSans-Roman-2e"/>
       <use x="95.41015625" xlink:href="#BitstreamVeraSans-Roman-31"/>
       <use x="159.033203125" xlink:href="#BitstreamVeraSans-Roman-34"/>
      </g>
     </g>
    </g>
    <g id="text_16">
     <!-- Pedal [] -->
     <defs>
      <path d="M 19.671875 64.796875 
L 19.671875 37.40625 
L 32.078125 37.40625 
Q 38.96875 37.40625 42.71875 40.96875 
Q 46.484375 44.53125 46.484375 51.125 
Q 46.484375 57.671875 42.71875 61.234375 
Q 38.96875 64.796875 32.078125 64.796875 
z
M 9.8125 72.90625 
L 32.078125 72.90625 
Q 44.34375 72.90625 50.609375 67.359375 
Q 56.890625 61.8125 56.890625 51.125 
Q 56.890625 40.328125 50.609375 34.8125 
Q 44.34375 29.296875 32.078125 29.296875 
L 19.671875 29.296875 
L 19.671875 0 
L 9.8125 0 
z
" id="BitstreamVeraSans-Roman-50"/>
      <path d="M 45.40625 46.390625 
L 45.40625 75.984375 
L 54.390625 75.984375 
L 54.390625 0 
L 45.40625 0 
L 45.40625 8.203125 
Q 42.578125 3.328125 38.25 0.953125 
Q 33.9375 -1.421875 27.875 -1.421875 
Q 17.96875 -1.421875 11.734375 6.484375 
Q 5.515625 14.40625 5.515625 27.296875 
Q 5.515625 40.1875 11.734375 48.09375 
Q 17.96875 56 27.875 56 
Q 33.9375 56 38.25 53.625 
Q 42.578125 51.265625 45.40625 46.390625 
M 14.796875 27.296875 
Q 14.796875 17.390625 18.875 11.75 
Q 22.953125 6.109375 30.078125 6.109375 
Q 37.203125 6.109375 41.296875 11.75 
Q 45.40625 17.390625 45.40625 27.296875 
Q 45.40625 37.203125 41.296875 42.84375 
Q 37.203125 48.484375 30.078125 48.484375 
Q 22.953125 48.484375 18.875 42.84375 
Q 14.796875 37.203125 14.796875 27.296875 
" id="BitstreamVeraSans-Roman-64"/>
      <path d="M 34.28125 27.484375 
Q 23.390625 27.484375 19.1875 25 
Q 14.984375 22.515625 14.984375 16.5 
Q 14.984375 11.71875 18.140625 8.90625 
Q 21.296875 6.109375 26.703125 6.109375 
Q 34.1875 6.109375 38.703125 11.40625 
Q 43.21875 16.703125 43.21875 25.484375 
L 43.21875 27.484375 
z
M 52.203125 31.203125 
L 52.203125 0 
L 43.21875 0 
L 43.21875 8.296875 
Q 40.140625 3.328125 35.546875 0.953125 
Q 30.953125 -1.421875 24.3125 -1.421875 
Q 15.921875 -1.421875 10.953125 3.296875 
Q 6 8.015625 6 15.921875 
Q 6 25.140625 12.171875 29.828125 
Q 18.359375 34.515625 30.609375 34.515625 
L 43.21875 34.515625 
L 43.21875 35.40625 
Q 43.21875 41.609375 39.140625 45 
Q 35.0625 48.390625 27.6875 48.390625 
Q 23 48.390625 18.546875 47.265625 
Q 14.109375 46.140625 10.015625 43.890625 
L 10.015625 52.203125 
Q 14.9375 54.109375 19.578125 55.046875 
Q 24.21875 56 28.609375 56 
Q 40.484375 56 46.34375 49.84375 
Q 52.203125 43.703125 52.203125 31.203125 
" id="BitstreamVeraSans-Roman-61"/>
      <path d="M 9.421875 75.984375 
L 18.40625 75.984375 
L 18.40625 0 
L 9.421875 0 
z
" id="BitstreamVeraSans-Roman-6c"/>
     </defs>
     <g transform="translate(33.785625 239.0484375)rotate(-90.0)scale(0.12 -0.12)">
      <use xlink:href="#BitstreamVeraSans-Roman-50"/>
      <use x="60.255859375" xlink:href="#BitstreamVeraSans-Roman-65"/>
      <use x="121.779296875" xlink:href="#BitstreamVeraSans-Roman-64"/>
      <use x="185.255859375" xlink:href="#BitstreamVeraSans-Roman-61"/>
      <use x="246.53515625" xlink:href="#BitstreamVeraSans-Roman-6c"/>
      <use x="274.318359375" xlink:href="#BitstreamVeraSans-Roman-20"/>
      <use x="306.10546875" xlink:href="#BitstreamVeraSans-Roman-5b"/>
      <use x="345.119140625" xlink:href="#BitstreamVeraSans-Roman-5d"/>
     </g>
    </g>
   </g>
   <g id="legend_1">
    <g id="patch_7">
     <path d="M 79.2 96.993 
L 217.40175 96.993 
L 217.40175 50.4 
L 79.2 50.4 
z
" style="fill:#ffffff;stroke:#000000;stroke-linejoin:miter;"/>
    </g>
    <g id="line2d_45">
     <path d="M 89.28 62.06175 
L 109.44 62.06175 
" style="fill:none;stroke:#008000;stroke-linecap:square;"/>
    </g>
    <g id="line2d_46"/>
    <g id="text_17">
     <!-- Gas pedal -->
     <defs>
      <path d="M 59.515625 10.40625 
L 59.515625 29.984375 
L 43.40625 29.984375 
L 43.40625 38.09375 
L 69.28125 38.09375 
L 69.28125 6.78125 
Q 63.578125 2.734375 56.6875 0.65625 
Q 49.8125 -1.421875 42 -1.421875 
Q 24.90625 -1.421875 15.25 8.5625 
Q 5.609375 18.5625 5.609375 36.375 
Q 5.609375 54.25 15.25 64.234375 
Q 24.90625 74.21875 42 74.21875 
Q 49.125 74.21875 55.546875 72.453125 
Q 61.96875 70.703125 67.390625 67.28125 
L 67.390625 56.78125 
Q 61.921875 61.421875 55.765625 63.765625 
Q 49.609375 66.109375 42.828125 66.109375 
Q 29.4375 66.109375 22.71875 58.640625 
Q 16.015625 51.171875 16.015625 36.375 
Q 16.015625 21.625 22.71875 14.15625 
Q 29.4375 6.6875 42.828125 6.6875 
Q 48.046875 6.6875 52.140625 7.59375 
Q 56.25 8.5 59.515625 10.40625 
" id="BitstreamVeraSans-Roman-47"/>
      <path d="M 18.109375 8.203125 
L 18.109375 -20.796875 
L 9.078125 -20.796875 
L 9.078125 54.6875 
L 18.109375 54.6875 
L 18.109375 46.390625 
Q 20.953125 51.265625 25.265625 53.625 
Q 29.59375 56 35.59375 56 
Q 45.5625 56 51.78125 48.09375 
Q 58.015625 40.1875 58.015625 27.296875 
Q 58.015625 14.40625 51.78125 6.484375 
Q 45.5625 -1.421875 35.59375 -1.421875 
Q 29.59375 -1.421875 25.265625 0.953125 
Q 20.953125 3.328125 18.109375 8.203125 
M 48.6875 27.296875 
Q 48.6875 37.203125 44.609375 42.84375 
Q 40.53125 48.484375 33.40625 48.484375 
Q 26.265625 48.484375 22.1875 42.84375 
Q 18.109375 37.203125 18.109375 27.296875 
Q 18.109375 17.390625 22.1875 11.75 
Q 26.265625 6.109375 33.40625 6.109375 
Q 40.53125 6.109375 44.609375 11.75 
Q 48.6875 17.390625 48.6875 27.296875 
" id="BitstreamVeraSans-Roman-70"/>
     </defs>
     <g transform="translate(125.28 67.10175)scale(0.144 -0.144)">
      <use xlink:href="#BitstreamVeraSans-Roman-47"/>
      <use x="77.490234375" xlink:href="#BitstreamVeraSans-Roman-61"/>
      <use x="138.76953125" xlink:href="#BitstreamVeraSans-Roman-73"/>
      <use x="190.869140625" xlink:href="#BitstreamVeraSans-Roman-20"/>
      <use x="222.65625" xlink:href="#BitstreamVeraSans-Roman-70"/>
      <use x="286.1328125" xlink:href="#BitstreamVeraSans-Roman-65"/>
      <use x="347.65625" xlink:href="#BitstreamVeraSans-Roman-64"/>
      <use x="411.1328125" xlink:href="#BitstreamVeraSans-Roman-61"/>
      <use x="472.412109375" xlink:href="#BitstreamVeraSans-Roman-6c"/>
     </g>
    </g>
    <g id="line2d_47">
     <path d="M 89.28 83.19825 
L 109.44 83.19825 
" style="fill:none;stroke:#ff0000;stroke-linecap:square;"/>
    </g>
    <g id="line2d_48"/>
    <g id="text_18">
     <!-- Brake pedal -->
     <defs>
      <path d="M 41.109375 46.296875 
Q 39.59375 47.171875 37.8125 47.578125 
Q 36.03125 48 33.890625 48 
Q 26.265625 48 22.1875 43.046875 
Q 18.109375 38.09375 18.109375 28.8125 
L 18.109375 0 
L 9.078125 0 
L 9.078125 54.6875 
L 18.109375 54.6875 
L 18.109375 46.1875 
Q 20.953125 51.171875 25.484375 53.578125 
Q 30.03125 56 36.53125 56 
Q 37.453125 56 38.578125 55.875 
Q 39.703125 55.765625 41.0625 55.515625 
z
" id="BitstreamVeraSans-Roman-72"/>
      <path d="M 19.671875 34.8125 
L 19.671875 8.109375 
L 35.5 8.109375 
Q 43.453125 8.109375 47.28125 11.40625 
Q 51.125 14.703125 51.125 21.484375 
Q 51.125 28.328125 47.28125 31.5625 
Q 43.453125 34.8125 35.5 34.8125 
z
M 19.671875 64.796875 
L 19.671875 42.828125 
L 34.28125 42.828125 
Q 41.5 42.828125 45.03125 45.53125 
Q 48.578125 48.25 48.578125 53.8125 
Q 48.578125 59.328125 45.03125 62.0625 
Q 41.5 64.796875 34.28125 64.796875 
z
M 9.8125 72.90625 
L 35.015625 72.90625 
Q 46.296875 72.90625 52.390625 68.21875 
Q 58.5 63.53125 58.5 54.890625 
Q 58.5 48.1875 55.375 44.234375 
Q 52.25 40.28125 46.1875 39.3125 
Q 53.46875 37.75 57.5 32.78125 
Q 61.53125 27.828125 61.53125 20.40625 
Q 61.53125 10.640625 54.890625 5.3125 
Q 48.25 0 35.984375 0 
L 9.8125 0 
z
" id="BitstreamVeraSans-Roman-42"/>
      <path d="M 9.078125 75.984375 
L 18.109375 75.984375 
L 18.109375 31.109375 
L 44.921875 54.6875 
L 56.390625 54.6875 
L 27.390625 29.109375 
L 57.625 0 
L 45.90625 0 
L 18.109375 26.703125 
L 18.109375 0 
L 9.078125 0 
z
" id="BitstreamVeraSans-Roman-6b"/>
     </defs>
     <g transform="translate(125.28 88.23825)scale(0.144 -0.144)">
      <use xlink:href="#BitstreamVeraSans-Roman-42"/>
      <use x="68.603515625" xlink:href="#BitstreamVeraSans-Roman-72"/>
      <use x="109.716796875" xlink:href="#BitstreamVeraSans-Roman-61"/>
      <use x="170.99609375" xlink:href="#BitstreamVeraSans-Roman-6b"/>
      <use x="228.859375" xlink:href="#BitstreamVeraSans-Roman-65"/>
      <use x="290.3828125" xlink:href="#BitstreamVeraSans-Roman-20"/>
      <use x="322.169921875" xlink:href="#BitstreamVeraSans-Roman-70"/>
      <use x="385.646484375" xlink:href="#BitstreamVeraSans-Roman-65"/>
      <use x="447.169921875" xlink:href="#BitstreamVeraSans-Roman-64"/>
      <use x="510.646484375" xlink:href="#BitstreamVeraSans-Roman-61"/>
      <use x="571.92578125" xlink:href="#BitstreamVeraSans-Roman-6c"/>
     </g>
    </g>
   </g>
  </g>
 </g>
 <defs>
  <clipPath id="p696f649325">
   <rect height="345.6" width="446.4" x="72.0" y="43.2"/>
  </clipPath>
 </defs>
</svg>
