<?xml version="1.0" encoding="utf-8" standalone="no"?>
<!DOCTYPE svg PUBLIC "-//W3C//DTD SVG 1.1//EN"
  "http://www.w3.org/Graphics/SVG/1.1/DTD/svg11.dtd">
<!-- Created with matplotlib (http://matplotlib.org/) -->
<svg height="432pt" version="1.1" viewBox="0 0 576 432" width="576pt" xmlns="http://www.w3.org/2000/svg" xmlns:xlink="http://www.w3.org/1999/xlink">
 <defs>
  <style type="text/css">
*{stroke-linecap:butt;stroke-linejoin:round;stroke-miterlimit:100000;}
  </style>
 </defs>
 <g id="figure_1">
  <g id="patch_1">
   <path d="M 0 432 
L 576 432 
L 576 0 
L 0 0 
z
" style="fill:#ffffff;"/>
  </g>
  <g id="axes_1">
   <g id="patch_2">
    <path d="M 72 388.8 
L 518.4 388.8 
L 518.4 43.2 
L 72 43.2 
z
" style="fill:#ffffff;"/>
   </g>
   <g id="line2d_1">
    <path clip-path="url(#pe8efb2d31a)" d="M 72.17856 278.821423 
L 95.56992 278.821423 
L 95.74848 298.699871 
L 96.46272 286.622642 
L 97.17696 273.633009 
L 97.35552 273.633009 
L 98.06976 261.549151 
L 98.784 248.551927 
L 98.96256 246.667664 
L 99.14112 246.667664 
L 100.21248 230.8138 
L 101.99808 212.922267 
L 102.17664 211.956479 
L 102.3552 211.956479 
L 102.89088 206.329221 
L 103.248 200.706502 
L 103.78368 196.00041 
L 103.96224 195.040634 
L 104.67648 188.473472 
L 104.85504 187.517031 
L 105.21216 184.694905 
L 105.39072 183.74073 
L 105.9264 176.284339 
L 106.28352 174.383159 
L 106.46208 174.345179 
L 106.64064 173.396913 
L 106.8192 170.626324 
L 106.99776 169.679449 
L 107.712 162.219376 
L 107.89056 158.510872 
L 108.06912 157.569249 
L 108.24768 157.539663 
L 108.42624 154.776477 
L 109.14048 151.02326 
L 109.31904 151.910024 
L 109.4976 150.975315 
L 109.85472 150.952965 
L 111.46176 142.589713 
L 111.64032 144.39732 
L 111.99744 142.552389 
L 112.176 142.552389 
L 112.35456 141.63107 
L 112.53312 141.621066 
L 113.0688 138.866107 
L 113.24736 138.859682 
L 113.78304 136.116027 
L 113.9616 136.113169 
L 114.14016 137.021627 
L 114.31872 137.021524 
L 114.67584 135.204286 
L 114.8544 135.206926 
L 115.03296 134.300773 
L 115.39008 134.305317 
L 115.7472 132.497955 
L 115.92576 132.505242 
L 116.10432 131.60402 
L 116.28288 131.612903 
L 116.46144 130.724105 
L 116.81856 123.50162 
L 116.99712 123.50162 
L 117.35424 118.106195 
L 117.71136 116.341383 
L 118.24704 108.263806 
L 118.4256 108.286452 
L 118.60416 107.401529 
L 119.3184 107.481983 
L 119.49696 110.238422 
L 119.67552 109.360452 
L 120.2112 109.424966 
L 120.38976 112.184663 
L 120.56832 112.220236 
L 120.74688 111.348818 
L 121.104 111.386605 
L 121.28256 114.149225 
L 121.81824 114.231751 
L 121.9968 116.089337 
L 122.8896 116.273354 
L 123.06816 119.042514 
L 123.24672 118.186301 
L 123.7824 118.290238 
L 123.96096 121.062616 
L 124.6752 121.231801 
L 124.85376 123.101953 
L 125.38944 123.223168 
L 125.568 126.001237 
L 125.92512 126.129661 
L 126.10368 125.290932 
L 126.4608 125.35779 
L 126.63936 128.14012 
L 127.17504 128.28102 
L 127.3536 131.065514 
L 127.53216 131.139555 
L 127.71072 130.310624 
L 128.06784 130.386533 
L 128.2464 133.174206 
L 128.78208 133.332577 
L 128.96064 136.123031 
L 129.49632 136.289319 
L 129.67488 135.471319 
L 129.85344 138.264605 
L 130.38912 138.440717 
L 130.56768 141.23645 
L 131.10336 141.420158 
L 131.28192 143.316973 
L 131.8176 143.508058 
L 131.99616 146.308915 
L 132.53184 146.507879 
L 132.7104 148.410437 
L 133.42464 148.721641 
L 133.6032 151.527726 
L 133.78176 151.635293 
L 133.96032 150.843762 
L 134.13888 150.843762 
L 134.31744 153.651301 
L 134.85312 153.872281 
L 135.03168 156.679859 
L 135.21024 156.792653 
L 135.3888 156.007585 
L 136.46016 156.586801 
L 136.63872 159.399413 
L 136.81728 159.519095 
L 136.99584 158.741559 
L 137.1744 158.741559 
L 137.35296 158.862336 
L 137.53152 161.677071 
L 138.0672 161.923813 
L 138.24576 164.739553 
L 138.60288 164.865518 
L 138.78144 164.095308 
L 138.96 166.9124 
L 139.49568 167.170433 
L 139.67424 169.988825 
L 140.20992 170.252188 
L 140.38848 172.176491 
L 140.92416 172.445158 
L 141.10272 175.266498 
L 141.28128 175.403098 
L 141.45984 174.646046 
L 141.6384 174.784036 
L 141.81696 177.607166 
L 142.5312 178.172528 
L 142.70976 177.421759 
L 144.13824 178.594686 
L 144.3168 177.85186 
L 144.49536 178.002365 
L 144.67392 178.002365 
L 144.85248 178.153937 
L 145.03104 175.780543 
L 145.38816 176.086984 
L 145.56672 178.919513 
L 145.74528 176.398086 
L 145.92384 179.229932 
L 146.63808 179.861895 
L 146.81664 179.861895 
L 146.9952 180.022673 
L 147.17376 180.345414 
L 147.35232 180.345414 
L 147.888 180.836631 
L 148.24512 181.333127 
L 148.42368 181.499995 
L 148.60224 181.499995 
L 148.95936 182.005645 
L 149.6736 182.689248 
L 149.85216 182.689248 
L 150.20928 183.037532 
L 150.38784 183.387747 
L 150.5664 184.452863 
L 150.74496 184.629785 
L 150.92352 184.629785 
L 151.28064 185.165601 
L 151.81632 192.643698 
L 154.31616 229.006721 
L 154.67328 233.433769 
L 155.38752 243.167291 
L 155.9232 249.357269 
L 156.63744 259.077768 
L 157.35168 267.025013 
L 157.88736 274.084618 
L 158.95872 285.547955 
L 159.31584 289.953643 
L 159.67296 293.477435 
L 159.85152 293.477435 
L 160.20864 299.640853 
L 160.56576 302.281548 
L 160.92288 302.281548 
L 161.28 307.560858 
L 162.52992 318.991693 
L 163.0656 321.627742 
L 163.42272 324.263503 
L 164.8512 331.288897 
L 165.20832 331.288897 
L 165.56544 333.922488 
L 165.744 334.80032 
L 165.92256 334.80032 
L 166.27968 336.555486 
L 166.45824 336.555486 
L 166.81536 338.310387 
L 166.99392 338.310387 
L 167.17248 339.187586 
L 167.35104 339.187586 
L 167.5296 340.065025 
L 167.70816 340.065025 
L 167.88672 340.942091 
L 168.06528 340.942091 
L 168.24384 341.819399 
L 168.4224 341.819399 
L 168.60096 342.696337 
L 168.95808 342.696337 
L 169.13664 343.573512 
L 169.49376 343.573512 
L 169.67232 344.45062 
L 170.02944 344.45062 
L 170.208 345.327358 
L 170.74368 345.327358 
L 170.92224 346.204338 
L 171.27936 346.204338 
L 171.45792 347.080947 
L 172.35072 347.080947 
L 172.52928 347.957791 
L 173.60064 347.957791 
L 173.7792 348.834268 
L 181.99296 348.834268 
L 182.17152 347.957791 
L 184.31424 347.957791 
L 184.4928 347.080947 
L 186.2784 347.080947 
L 186.45696 346.204338 
L 188.064 346.204338 
L 188.24256 345.327358 
L 190.02816 345.327358 
L 190.20672 344.45062 
L 191.81376 344.45062 
L 191.99232 343.573512 
L 193.24224 343.573512 
L 193.4208 342.696337 
L 195.02784 342.696337 
L 195.2064 341.819399 
L 196.81344 341.819399 
L 196.992 340.942091 
L 198.42048 340.942091 
L 198.59904 340.065025 
L 200.38464 340.065025 
L 200.5632 339.187586 
L 202.17024 339.187586 
L 202.3488 338.310387 
L 204.31296 338.310387 
L 204.49152 337.432816 
L 205.92 337.432816 
L 206.09856 336.555486 
L 208.06272 336.555486 
L 208.24128 335.677782 
L 209.84832 335.677782 
L 210.02688 334.80032 
L 211.99104 334.80032 
L 212.1696 333.922488 
L 213.9552 333.922488 
L 214.13376 333.044588 
L 216.27648 333.044588 
L 216.45504 332.166929 
L 218.4192 332.166929 
L 218.59776 331.288897 
L 220.56192 331.288897 
L 220.74048 330.411107 
L 223.06176 330.411107 
L 223.24032 329.532943 
L 225.20448 329.532943 
L 225.38304 328.655021 
L 227.88288 328.655021 
L 228.06144 327.776727 
L 230.38272 327.776727 
L 230.56128 326.898671 
L 233.06112 326.898671 
L 233.23968 326.020246 
L 235.73952 326.020246 
L 235.91808 325.141756 
L 238.23936 325.141756 
L 238.41792 324.263503 
L 240.7392 324.263503 
L 240.91776 323.384881 
L 243.4176 323.384881 
L 243.59616 322.506496 
L 246.45312 322.506496 
L 246.63168 321.627742 
L 249.6672 321.627742 
L 249.84576 320.749226 
L 251.63136 320.749226 
L 251.80992 319.870341 
L 252.52416 319.870341 
L 252.70272 318.991693 
L 252.88128 318.991693 
L 253.05984 318.112676 
L 253.2384 318.112676 
L 253.41696 317.233593 
L 253.59552 317.233593 
L 253.77408 316.354749 
L 253.95264 316.354749 
L 254.1312 315.475534 
L 254.30976 315.475534 
L 254.66688 313.717211 
L 254.84544 313.717211 
L 255.024 312.838103 
L 255.20256 312.838103 
L 255.73824 310.199777 
L 255.9168 310.199777 
L 256.45248 307.560858 
L 256.63104 307.560858 
L 257.52384 303.161749 
L 257.7024 303.161749 
L 259.488 294.35799 
L 259.84512 291.715518 
L 260.02368 291.715518 
L 262.52352 279.376865 
L 262.88064 276.731038 
L 263.77344 272.320112 
L 263.952 272.320112 
L 264.13056 270.555342 
L 264.30912 270.555342 
L 264.66624 268.790307 
L 265.02336 266.142111 
L 265.38048 264.37642 
L 265.55904 264.37642 
L 266.09472 261.727541 
L 266.45184 259.077768 
L 266.98752 256.427402 
L 267.5232 252.009215 
L 267.70176 252.009215 
L 268.23744 249.357269 
L 268.77312 244.051905 
L 268.95168 244.051905 
L 269.3088 242.282922 
L 269.66592 239.628803 
L 269.84448 238.743867 
L 270.2016 236.089266 
L 270.38016 235.204066 
L 270.55872 235.204066 
L 270.73728 232.548673 
L 271.27296 229.892384 
L 271.45152 229.892384 
L 271.9872 225.464023 
L 272.16576 224.578334 
L 272.34432 222.806151 
L 272.52288 222.806151 
L 272.88 220.148003 
L 273.05856 219.261612 
L 273.23712 219.261612 
L 273.59424 216.602672 
L 273.7728 215.716017 
L 273.95136 213.94283 
L 274.12992 213.94283 
L 274.48704 211.282396 
L 274.84416 209.508546 
L 275.02272 209.508546 
L 275.20128 207.734433 
L 275.5584 207.734433 
L 275.91552 204.185419 
L 276.09408 204.185419 
L 276.27264 203.297844 
L 276.4512 203.297844 
L 276.80832 200.635351 
L 276.98688 199.747518 
L 277.344 197.083923 
L 277.52256 197.083923 
L 277.70112 195.307969 
L 277.87968 195.307969 
L 278.2368 193.53175 
L 278.41536 193.53175 
L 279.1296 189.978526 
L 279.48672 189.978526 
L 279.66528 189.089909 
L 280.0224 186.424248 
L 280.37952 186.424248 
L 280.55808 184.646716 
L 280.73664 184.646716 
L 280.9152 183.757698 
L 281.09376 183.757698 
L 281.27232 181.979767 
L 281.45088 181.979767 
L 281.808 180.201579 
L 281.98656 180.201579 
L 282.34368 178.423119 
L 282.52224 178.423119 
L 282.7008 177.533639 
L 282.87936 177.533639 
L 283.23648 175.754794 
L 283.41504 175.754794 
L 283.5936 174.865429 
L 283.95072 174.865429 
L 284.12928 173.086184 
L 284.30784 173.086184 
L 284.4864 172.196305 
L 284.84352 172.196305 
L 285.20064 170.416661 
L 285.3792 170.416661 
L 285.55776 169.526588 
L 285.73632 169.526588 
L 285.91488 168.63676 
L 286.09344 168.63676 
L 286.272 167.746559 
L 286.45056 167.746559 
L 286.62912 166.856602 
L 286.98624 166.856602 
L 287.34336 165.076173 
L 287.52192 165.076173 
L 287.87904 163.295177 
L 288.23616 163.295177 
L 288.41472 162.404886 
L 288.59328 162.404886 
L 288.77184 161.514221 
L 289.12896 161.514221 
L 289.30752 160.6238 
L 289.48608 160.6238 
L 289.66464 159.732994 
L 290.02176 159.732994 
L 290.20032 158.842444 
L 290.55744 158.842444 
L 290.736 157.951522 
L 291.09312 157.951522 
L 291.27168 157.060831 
L 291.80736 157.060831 
L 291.98592 156.169767 
L 292.34304 156.169767 
L 292.5216 155.278651 
L 293.05728 155.278651 
L 293.23584 154.387767 
L 293.77152 154.387767 
L 293.95008 153.49651 
L 294.66432 153.49651 
L 294.84288 152.605497 
L 295.55712 152.605497 
L 295.73568 151.714111 
L 296.62848 151.714111 
L 296.80704 150.822957 
L 297.8784 150.822957 
L 298.05696 149.931442 
L 299.664 149.931442 
L 299.84256 149.040159 
L 307.87776 149.040159 
L 308.05632 149.931442 
L 309.66336 149.931442 
L 309.84192 150.822957 
L 311.2704 150.822957 
L 311.44896 151.714111 
L 312.69888 151.714111 
L 312.87744 152.605497 
L 313.9488 152.605497 
L 314.12736 153.49651 
L 314.8416 153.49651 
L 315.02016 154.387767 
L 315.91296 154.387767 
L 316.09152 155.278651 
L 316.80576 155.278651 
L 316.98432 156.169767 
L 317.87712 156.169767 
L 318.05568 157.060831 
L 318.76992 157.060831 
L 318.94848 157.951522 
L 319.48416 157.951522 
L 319.66272 158.842444 
L 320.55552 158.842444 
L 320.73408 159.732994 
L 321.0912 159.732994 
L 321.26976 160.6238 
L 321.984 160.6238 
L 322.16256 161.514221 
L 322.69824 161.514221 
L 322.8768 162.404886 
L 323.41248 162.404886 
L 323.59104 163.295177 
L 324.12672 163.295177 
L 324.30528 164.185701 
L 324.84096 164.185701 
L 325.01952 165.076173 
L 325.5552 165.076173 
L 325.73376 165.966258 
L 326.26944 165.966258 
L 326.448 166.856602 
L 326.98368 166.856602 
L 327.16224 167.746559 
L 327.69792 167.746559 
L 327.87648 168.63676 
L 328.59072 168.63676 
L 328.76928 169.526588 
L 329.1264 169.526588 
L 329.30496 170.416661 
L 329.84064 170.416661 
L 330.0192 171.306361 
L 330.37632 171.306361 
L 330.55488 172.196305 
L 330.912 172.196305 
L 331.09056 173.086184 
L 331.62624 173.086184 
L 331.8048 173.975678 
L 332.16192 173.975678 
L 332.34048 174.865429 
L 333.05472 174.865429 
L 333.23328 175.754794 
L 333.41184 175.754794 
L 333.5904 176.644403 
L 334.12608 176.644403 
L 334.30464 177.533639 
L 334.84032 177.533639 
L 335.01888 178.423119 
L 335.376 178.423119 
L 335.55456 179.312227 
L 335.91168 179.312227 
L 336.09024 180.201579 
L 336.62592 180.201579 
L 336.80448 181.090557 
L 337.1616 181.090557 
L 337.34016 181.979767 
L 337.87584 181.979767 
L 338.0544 182.868926 
L 338.41152 182.868926 
L 338.59008 183.757698 
L 339.12576 183.757698 
L 339.30432 184.646716 
L 339.66144 184.646716 
L 339.84 185.535359 
L 340.37568 185.535359 
L 340.55424 186.424248 
L 340.91136 186.424248 
L 341.08992 187.312763 
L 341.6256 187.312763 
L 341.80416 188.201522 
L 342.16128 188.201522 
L 342.33984 189.089909 
L 342.87552 189.089909 
L 343.05408 189.978526 
L 343.4112 189.978526 
L 343.58976 190.86708 
L 343.94688 190.86708 
L 344.12544 191.755273 
L 344.48256 191.755273 
L 344.66112 192.643698 
L 345.1968 192.643698 
L 345.37536 193.53175 
L 345.91104 193.53175 
L 346.0896 194.420046 
L 346.26816 194.420046 
L 346.44672 195.307969 
L 346.9824 195.307969 
L 347.16096 196.196136 
L 347.51808 196.196136 
L 347.69664 197.083923 
L 348.05376 197.083923 
L 348.23232 197.971956 
L 348.768 197.971956 
L 348.94656 198.859924 
L 349.48224 198.859924 
L 349.6608 199.747518 
L 349.83936 199.747518 
L 350.01792 200.635351 
L 350.5536 200.635351 
L 350.73216 201.522816 
L 351.26784 201.522816 
L 351.4464 202.410514 
L 351.98208 202.410514 
L 352.16064 203.297844 
L 352.3392 203.297844 
L 352.51776 204.185419 
L 353.05344 204.185419 
L 353.232 205.072615 
L 353.58912 205.072615 
L 353.76768 205.960055 
L 354.48192 205.960055 
L 354.66048 206.847128 
L 355.0176 206.847128 
L 355.19616 207.734433 
L 355.73184 207.734433 
L 355.9104 208.621673 
L 356.26752 208.621673 
L 356.44608 209.508546 
L 356.62464 209.508546 
L 356.8032 210.395658 
L 357.33888 210.395658 
L 357.51744 211.282396 
L 358.23168 211.282396 
L 358.41024 212.169373 
L 358.5888 212.169373 
L 358.76736 213.055982 
L 359.12448 213.055982 
L 359.30304 213.94283 
L 359.83872 213.94283 
L 360.01728 214.829305 
L 360.3744 214.829305 
L 360.55296 215.716017 
L 361.08864 215.716017 
L 361.2672 216.602672 
L 361.62432 216.602672 
L 361.80288 217.488947 
L 362.33856 217.488947 
L 362.51712 218.375466 
L 362.87424 218.375466 
L 363.0528 219.261612 
L 363.58848 219.261612 
L 363.76704 220.148003 
L 364.12416 220.148003 
L 364.30272 221.034014 
L 365.01696 221.034014 
L 365.19552 221.920269 
L 365.37408 221.920269 
L 365.55264 222.806151 
L 366.26688 222.806151 
L 366.44544 223.692278 
L 366.80256 223.692278 
L 366.98112 224.578334 
L 367.33824 224.578334 
L 367.5168 225.464023 
L 367.87392 225.464023 
L 368.05248 226.34995 
L 368.76672 226.34995 
L 368.94528 227.235504 
L 369.3024 227.235504 
L 369.48096 228.121296 
L 370.01664 228.121296 
L 370.1952 229.006721 
L 370.55232 229.006721 
L 370.73088 229.892384 
L 371.26656 229.892384 
L 371.44512 230.777674 
L 371.80224 230.777674 
L 371.9808 231.663209 
L 372.69504 231.663209 
L 372.8736 232.548673 
L 373.23072 232.548673 
L 373.40928 233.433769 
L 373.7664 233.433769 
L 373.94496 234.319098 
L 374.6592 234.319098 
L 374.83776 235.204066 
L 375.37344 235.204066 
L 375.552 236.089266 
L 375.90912 236.089266 
L 376.08768 236.974099 
L 376.62336 236.974099 
L 376.80192 237.85917 
L 377.51616 237.85917 
L 377.69472 238.743867 
L 378.2304 238.743867 
L 378.40896 239.628803 
L 378.94464 239.628803 
L 379.1232 240.513372 
L 379.48032 240.513372 
L 379.65888 241.398179 
L 380.55168 241.398179 
L 380.73024 242.282922 
L 381.26592 242.282922 
L 381.44448 243.167291 
L 381.98016 243.167291 
L 382.15872 244.051905 
L 382.51584 244.051905 
L 382.6944 244.936146 
L 383.23008 244.936146 
L 383.40864 245.820625 
L 383.94432 245.820625 
L 384.12288 246.70473 
L 384.65856 246.70473 
L 384.83712 247.589074 
L 385.55136 247.589074 
L 385.72992 248.47305 
L 386.08704 248.47305 
L 386.2656 249.357269 
L 387.1584 249.357269 
L 387.33696 250.241416 
L 387.69408 250.241416 
L 387.87264 251.125196 
L 388.76544 251.125196 
L 388.944 252.009215 
L 389.65824 252.009215 
L 389.8368 252.89286 
L 390.19392 252.89286 
L 390.37248 253.776747 
L 391.26528 253.776747 
L 391.44384 254.660263 
L 392.15808 254.660263 
L 392.33664 255.544018 
L 392.69376 255.544018 
L 392.87232 256.427402 
L 393.76512 256.427402 
L 393.94368 257.311025 
L 394.47936 257.311025 
L 394.65792 258.194583 
L 395.55072 258.194583 
L 395.72928 259.077768 
L 396.44352 259.077768 
L 396.62208 259.961194 
L 397.51488 259.961194 
L 397.69344 260.844247 
L 398.58624 260.844247 
L 398.7648 261.727541 
L 399.6576 261.727541 
L 399.83616 262.610466 
L 400.37184 262.610466 
L 400.5504 263.493628 
L 401.62176 263.493628 
L 401.80032 264.37642 
L 402.69312 264.37642 
L 402.87168 265.259451 
L 403.58592 265.259451 
L 403.76448 266.142111 
L 404.65728 266.142111 
L 404.83584 267.025013 
L 405.55008 267.025013 
L 405.72864 267.907843 
L 406.8 267.907843 
L 406.97856 268.790307 
L 407.87136 268.790307 
L 408.04992 269.67301 
L 409.29984 269.67301 
L 409.4784 270.555342 
L 410.3712 270.555342 
L 410.54976 271.437912 
L 411.79968 271.437912 
L 411.97824 272.320112 
L 413.0496 272.320112 
L 413.22816 273.20255 
L 414.29952 273.20255 
L 414.47808 274.084618 
L 415.54944 274.084618 
L 415.728 274.966924 
L 416.97792 274.966924 
L 417.15648 275.849166 
L 418.04928 275.849166 
L 418.22784 276.731038 
L 419.47776 276.731038 
L 419.65632 277.613148 
L 421.0848 277.613148 
L 421.26336 278.494886 
L 422.8704 278.494886 
L 423.04896 279.376865 
L 424.29888 279.376865 
L 424.47744 280.258473 
L 426.08448 280.258473 
L 426.26304 281.140319 
L 427.69152 281.140319 
L 427.87008 282.021795 
L 429.47712 282.021795 
L 429.65568 282.90351 
L 431.08416 282.90351 
L 431.26272 283.78516 
L 432.86976 283.78516 
L 433.04832 284.666438 
L 434.65536 284.666438 
L 434.83392 285.547955 
L 436.2624 285.547955 
L 436.44096 286.429103 
L 438.9408 286.429103 
L 439.11936 287.310489 
L 441.6192 287.310489 
L 441.79776 288.191504 
L 444.2976 288.191504 
L 444.47616 289.072759 
L 446.976 289.072759 
L 447.15456 289.953643 
L 449.47584 289.953643 
L 449.6544 290.834766 
L 452.15424 290.834766 
L 452.3328 291.715518 
L 454.83264 291.715518 
L 455.0112 292.596509 
L 457.51104 292.596509 
L 457.6896 293.477435 
L 460.18944 293.477435 
L 460.368 294.35799 
L 464.832 294.35799 
L 465.01056 295.238784 
L 470.54592 295.238784 
L 470.72448 296.119207 
L 476.08128 296.119207 
L 476.25984 296.99987 
L 481.7952 296.99987 
L 481.97376 297.880161 
L 487.50912 297.880161 
L 487.68768 298.760692 
L 493.04448 298.760692 
L 493.22304 299.640853 
L 498.7584 299.640853 
L 498.93696 300.521252 
L 504.47232 300.521252 
L 504.65088 301.401585 
L 505.18656 301.401585 
L 505.36512 300.521252 
L 505.54368 301.401585 
L 507.86496 301.401585 
L 508.04352 300.521252 
L 508.5792 300.521252 
L 508.75776 301.401585 
L 510.90048 301.401585 
L 511.07904 300.521252 
L 511.2576 300.521252 
L 511.43616 301.401585 
L 513.57888 301.401585 
L 513.75744 300.521252 
L 513.936 300.521252 
L 514.11456 301.401585 
L 516.6144 301.401585 
L 516.79296 300.521252 
L 516.97152 300.521252 
L 517.15008 301.401585 
L 518.4 301.401585 
L 518.4 301.401585 
" style="fill:none;stroke:#008000;stroke-linecap:square;"/>
   </g>
   <g id="line2d_2">
    <path clip-path="url(#pe8efb2d31a)" d="M 72.17856 302.4 
L 96.46272 302.295602 
L 97.8912 301.861768 
L 99.49824 300.96944 
L 100.92672 299.721648 
L 102.89088 297.805438 
L 103.248 297.159249 
L 105.21216 294.523837 
L 105.39072 294.266969 
L 105.74784 293.474108 
L 107.17632 291.228362 
L 107.53344 290.33802 
L 107.712 290.034514 
L 108.06912 289.103836 
L 109.4976 286.517836 
L 109.67616 286.517836 
L 114.67584 277.133261 
L 115.03296 276.406826 
L 115.21152 276.406826 
L 116.28288 274.200068 
L 116.81856 271.928849 
L 116.99712 271.928849 
L 118.06848 267.495084 
L 118.78272 265.808395 
L 118.96128 265.808395 
L 120.03264 263.291674 
L 120.2112 263.291674 
L 120.92544 261.63872 
L 121.104 261.63872 
L 121.63968 260.414522 
L 121.81824 260.414522 
L 122.71104 258.395552 
L 122.8896 258.395552 
L 123.42528 257.199057 
L 123.60384 257.199057 
L 124.31808 255.620258 
L 124.49664 255.620258 
L 125.21088 254.060963 
L 125.38944 254.060963 
L 126.28224 252.145106 
L 126.4608 252.145106 
L 126.99648 251.011356 
L 127.17504 251.011356 
L 127.71072 249.894613 
L 127.88928 249.894613 
L 128.60352 248.42022 
L 128.78208 248.42022 
L 129.31776 247.338193 
L 129.49632 247.338193 
L 130.032 246.263614 
L 130.21056 246.263614 
L 130.9248 244.858853 
L 131.10336 244.858853 
L 131.63904 243.823452 
L 131.8176 243.823452 
L 132.35328 242.807465 
L 132.53184 242.807465 
L 133.24608 241.471416 
L 133.42464 241.471416 
L 133.96032 240.487327 
L 134.13888 240.487327 
L 134.67456 239.518957 
L 134.85312 239.518957 
L 136.2816 236.982197 
L 136.46016 236.982197 
L 136.99584 236.049116 
L 137.1744 236.049116 
L 137.71008 235.126123 
L 137.88864 235.126123 
L 138.42432 234.223008 
L 138.60288 234.223008 
L 139.13856 233.333985 
L 139.31712 233.333985 
L 139.8528 232.464943 
L 140.03136 232.464943 
L 140.7456 231.329589 
L 140.92416 231.329589 
L 144.49536 225.893488 
L 144.67392 225.893488 
L 144.85248 225.623314 
L 145.2096 224.803118 
L 146.63808 222.649866 
L 146.81664 222.649866 
L 146.9952 222.383684 
L 147.17376 221.852356 
L 147.35232 221.852356 
L 147.888 221.057973 
L 148.24512 220.266765 
L 148.42368 220.003743 
L 148.60224 220.003743 
L 148.95936 219.216828 
L 149.6736 218.172704 
L 149.85216 218.172704 
L 150.20928 217.65286 
L 150.5664 216.877841 
L 150.74496 216.621546 
L 150.92352 216.621546 
L 151.28064 215.854947 
L 152.70912 214.013325 
L 154.1376 212.534477 
L 155.56608 211.394785 
L 156.816 210.661248 
L 158.24448 210.106359 
L 159.4944 209.855137 
L 160.92288 209.801547 
L 162.70848 210.04404 
L 164.49408 210.545358 
L 166.81536 211.449901 
L 169.67232 212.816862 
L 173.7792 215.043358 
L 188.064 223.015821 
L 195.38496 226.729494 
L 202.17024 229.877546 
L 209.84832 233.122346 
L 215.38368 235.259626 
L 215.56224 235.259626 
L 216.09792 235.526761 
L 219.84768 236.81269 
L 226.63296 239.090213 
L 238.77504 243.032951 
L 239.13216 243.223528 
L 239.66784 243.414097 
L 250.91712 246.303886 
L 254.48832 247.003968 
L 256.98816 247.239966 
L 259.13088 247.196598 
L 260.91648 246.930963 
L 262.88064 246.438831 
L 264.66624 245.781737 
L 265.20192 245.469708 
L 266.98752 244.562744 
L 267.34464 244.25085 
L 268.59456 243.449985 
L 268.95168 243.072663 
L 273.59424 239.603292 
L 273.95136 239.222017 
L 274.12992 239.222017 
L 274.84416 238.424738 
L 275.02272 238.424738 
L 275.20128 238.218667 
L 275.5584 238.218667 
L 275.91552 237.794945 
L 276.09408 237.794945 
L 276.27264 237.579224 
L 276.4512 237.579224 
L 276.80832 237.138127 
L 277.344 235.783957 
L 277.52256 235.783957 
L 277.70112 235.319699 
L 277.87968 235.319699 
L 279.30816 233.398918 
L 279.48672 233.398918 
L 280.20096 232.39699 
L 280.37952 232.39699 
L 280.73664 231.628158 
L 280.9152 231.369945 
L 281.09376 231.369945 
L 281.808 230.315843 
L 281.98656 230.315843 
L 282.7008 229.23661 
L 282.87936 229.23661 
L 283.77216 227.856639 
L 283.95072 227.856639 
L 284.66496 226.727131 
L 284.84352 226.727131 
L 285.55776 225.578285 
L 285.73632 225.578285 
L 286.80768 223.820194 
L 286.98624 223.820194 
L 288.9504 220.494478 
L 289.12896 220.494478 
L 289.48608 219.570924 
L 294.66432 210.351595 
L 299.48544 201.460741 
L 299.664 201.460741 
L 300.02112 200.461679 
L 315.19872 172.326621 
L 315.55584 171.682518 
L 315.7344 171.682518 
L 316.09152 170.718313 
L 316.44864 170.078098 
L 316.6272 170.078098 
L 316.98432 169.119699 
L 323.23392 158.202345 
L 328.41216 149.584935 
L 328.59072 149.584935 
L 328.76928 149.006647 
L 328.94784 149.006647 
L 329.1264 148.717496 
L 329.48352 147.853932 
L 329.66208 147.566725 
L 329.84064 147.566725 
L 330.19776 146.710886 
L 334.84032 139.490924 
L 339.84 132.137324 
L 344.66112 125.459332 
L 345.73248 124.031796 
L 345.91104 124.031796 
L 346.26816 123.326705 
L 349.30368 119.427786 
L 349.48224 119.427786 
L 349.83936 118.757457 
L 350.73216 117.651825 
L 350.91072 117.651825 
L 351.26784 117.212672 
L 351.4464 116.777369 
L 351.62496 116.777369 
L 351.98208 116.342066 
L 352.16064 115.910625 
L 352.3392 115.910625 
L 352.69632 115.26732 
L 353.94624 113.784281 
L 354.1248 113.784281 
L 354.48192 113.154494 
L 358.05312 109.094784 
L 358.23168 109.094784 
L 358.5888 108.505514 
L 362.69568 104.159369 
L 362.87424 104.159369 
L 363.23136 103.614452 
L 363.58848 103.252457 
L 363.9456 102.71332 
L 364.30272 102.357105 
L 364.65984 101.82568 
L 365.37408 101.120963 
L 365.7312 100.599181 
L 373.23072 93.456377 
L 373.58784 93.156051 
L 373.94496 92.707487 
L 374.30208 92.411011 
L 374.48064 92.411011 
L 374.83776 91.968227 
L 380.73024 87.113099 
L 381.08736 86.589476 
L 383.94432 84.441078 
L 384.30144 84.07531 
L 385.19424 83.35338 
L 385.55136 82.995311 
L 388.22976 81.274234 
L 388.40832 81.274234 
L 390.90816 79.755237 
L 391.26528 79.649331 
L 393.58656 78.422896 
L 395.55072 77.448649 
L 398.40768 76.06226 
L 400.5504 75.097489 
L 403.40736 73.853364 
L 403.76448 73.774392 
L 406.97856 72.470374 
L 410.54976 71.121786 
L 413.58528 69.875035 
L 414.12096 69.620658 
L 417.33504 68.591411 
L 420.192 67.752734 
L 420.72768 67.644741 
L 421.9776 67.38246 
L 424.12032 66.873295 
L 428.76288 65.657701 
L 429.12 65.568943 
L 434.4768 64.34668 
L 440.01216 63.25857 
L 447.69024 61.954527 
L 455.54688 60.870898 
L 463.9392 59.976473 
L 472.68864 59.227377 
L 483.93792 58.472771 
L 495.36576 57.95189 
L 506.7936 57.676503 
L 518.4 57.509133 
L 518.4 57.509133 
" style="fill:none;stroke:#0000ff;stroke-linecap:square;"/>
   </g>
   <g id="patch_3">
    <path d="M 72 43.2 
L 518.4 43.2 
" style="fill:none;stroke:#000000;stroke-linecap:square;stroke-linejoin:miter;"/>
   </g>
   <g id="patch_4">
    <path d="M 518.4 388.8 
L 518.4 43.2 
" style="fill:none;stroke:#000000;stroke-linecap:square;stroke-linejoin:miter;"/>
   </g>
   <g id="patch_5">
    <path d="M 72 388.8 
L 518.4 388.8 
" style="fill:none;stroke:#000000;stroke-linecap:square;stroke-linejoin:miter;"/>
   </g>
   <g id="patch_6">
    <path d="M 72 388.8 
L 72 43.2 
" style="fill:none;stroke:#000000;stroke-linecap:square;stroke-linejoin:miter;"/>
   </g>
   <g id="matplotlib.axis_1">
    <g id="xtick_1">
     <g id="line2d_3">
      <path clip-path="url(#pe8efb2d31a)" d="M 72 388.8 
L 72 43.2 
" style="fill:none;stroke:#000000;stroke-dasharray:1.000000,3.000000;stroke-dashoffset:0.0;stroke-width:0.5;"/>
     </g>
     <g id="line2d_4">
      <defs>
       <path d="M 0 0 
L 0 -4 
" id="mb6a246df89" style="stroke:#000000;stroke-width:0.5;"/>
      </defs>
      <g>
       <use style="stroke:#000000;stroke-width:0.5;" x="72.0" xlink:href="#mb6a246df89" y="388.8"/>
      </g>
     </g>
     <g id="line2d_5">
      <defs>
       <path d="M 0 0 
L 0 4 
" id="mb5d27bb421" style="stroke:#000000;stroke-width:0.5;"/>
      </defs>
      <g>
       <use style="stroke:#000000;stroke-width:0.5;" x="72.0" xlink:href="#mb5d27bb421" y="43.2"/>
      </g>
     </g>
     <g id="text_1">
      <!-- 0 -->
      <defs>
       <path d="M 31.78125 66.40625 
Q 24.171875 66.40625 20.328125 58.90625 
Q 16.5 51.421875 16.5 36.375 
Q 16.5 21.390625 20.328125 13.890625 
Q 24.171875 6.390625 31.78125 6.390625 
Q 39.453125 6.390625 43.28125 13.890625 
Q 47.125 21.390625 47.125 36.375 
Q 47.125 51.421875 43.28125 58.90625 
Q 39.453125 66.40625 31.78125 66.40625 
M 31.78125 74.21875 
Q 44.046875 74.21875 50.515625 64.515625 
Q 56.984375 54.828125 56.984375 36.375 
Q 56.984375 17.96875 50.515625 8.265625 
Q 44.046875 -1.421875 31.78125 -1.421875 
Q 19.53125 -1.421875 13.0625 8.265625 
Q 6.59375 17.96875 6.59375 36.375 
Q 6.59375 54.828125 13.0625 64.515625 
Q 19.53125 74.21875 31.78125 74.21875 
" id="BitstreamVeraSans-Roman-30"/>
      </defs>
      <g transform="translate(68.1825 401.918125)scale(0.12 -0.12)">
       <use xlink:href="#BitstreamVeraSans-Roman-30"/>
      </g>
     </g>
    </g>
    <g id="xtick_2">
     <g id="line2d_6">
      <path clip-path="url(#pe8efb2d31a)" d="M 161.28 388.8 
L 161.28 43.2 
" style="fill:none;stroke:#000000;stroke-dasharray:1.000000,3.000000;stroke-dashoffset:0.0;stroke-width:0.5;"/>
     </g>
     <g id="line2d_7">
      <g>
       <use style="stroke:#000000;stroke-width:0.5;" x="161.28" xlink:href="#mb6a246df89" y="388.8"/>
      </g>
     </g>
     <g id="line2d_8">
      <g>
       <use style="stroke:#000000;stroke-width:0.5;" x="161.28" xlink:href="#mb5d27bb421" y="43.2"/>
      </g>
     </g>
     <g id="text_2">
      <!-- 5 -->
      <defs>
       <path d="M 10.796875 72.90625 
L 49.515625 72.90625 
L 49.515625 64.59375 
L 19.828125 64.59375 
L 19.828125 46.734375 
Q 21.96875 47.46875 24.109375 47.828125 
Q 26.265625 48.1875 28.421875 48.1875 
Q 40.625 48.1875 47.75 41.5 
Q 54.890625 34.8125 54.890625 23.390625 
Q 54.890625 11.625 47.5625 5.09375 
Q 40.234375 -1.421875 26.90625 -1.421875 
Q 22.3125 -1.421875 17.546875 -0.640625 
Q 12.796875 0.140625 7.71875 1.703125 
L 7.71875 11.625 
Q 12.109375 9.234375 16.796875 8.0625 
Q 21.484375 6.890625 26.703125 6.890625 
Q 35.15625 6.890625 40.078125 11.328125 
Q 45.015625 15.765625 45.015625 23.390625 
Q 45.015625 31 40.078125 35.4375 
Q 35.15625 39.890625 26.703125 39.890625 
Q 22.75 39.890625 18.8125 39.015625 
Q 14.890625 38.140625 10.796875 36.28125 
z
" id="BitstreamVeraSans-Roman-35"/>
      </defs>
      <g transform="translate(157.4625 401.918125)scale(0.12 -0.12)">
       <use xlink:href="#BitstreamVeraSans-Roman-35"/>
      </g>
     </g>
    </g>
    <g id="xtick_3">
     <g id="line2d_9">
      <path clip-path="url(#pe8efb2d31a)" d="M 250.56 388.8 
L 250.56 43.2 
" style="fill:none;stroke:#000000;stroke-dasharray:1.000000,3.000000;stroke-dashoffset:0.0;stroke-width:0.5;"/>
     </g>
     <g id="line2d_10">
      <g>
       <use style="stroke:#000000;stroke-width:0.5;" x="250.56" xlink:href="#mb6a246df89" y="388.8"/>
      </g>
     </g>
     <g id="line2d_11">
      <g>
       <use style="stroke:#000000;stroke-width:0.5;" x="250.56" xlink:href="#mb5d27bb421" y="43.2"/>
      </g>
     </g>
     <g id="text_3">
      <!-- 10 -->
      <defs>
       <path d="M 12.40625 8.296875 
L 28.515625 8.296875 
L 28.515625 63.921875 
L 10.984375 60.40625 
L 10.984375 69.390625 
L 28.421875 72.90625 
L 38.28125 72.90625 
L 38.28125 8.296875 
L 54.390625 8.296875 
L 54.390625 0 
L 12.40625 0 
z
" id="BitstreamVeraSans-Roman-31"/>
      </defs>
      <g transform="translate(242.925 401.918125)scale(0.12 -0.12)">
       <use xlink:href="#BitstreamVeraSans-Roman-31"/>
       <use x="63.623046875" xlink:href="#BitstreamVeraSans-Roman-30"/>
      </g>
     </g>
    </g>
    <g id="xtick_4">
     <g id="line2d_12">
      <path clip-path="url(#pe8efb2d31a)" d="M 339.84 388.8 
L 339.84 43.2 
" style="fill:none;stroke:#000000;stroke-dasharray:1.000000,3.000000;stroke-dashoffset:0.0;stroke-width:0.5;"/>
     </g>
     <g id="line2d_13">
      <g>
       <use style="stroke:#000000;stroke-width:0.5;" x="339.84" xlink:href="#mb6a246df89" y="388.8"/>
      </g>
     </g>
     <g id="line2d_14">
      <g>
       <use style="stroke:#000000;stroke-width:0.5;" x="339.84" xlink:href="#mb5d27bb421" y="43.2"/>
      </g>
     </g>
     <g id="text_4">
      <!-- 15 -->
      <g transform="translate(332.205 401.918125)scale(0.12 -0.12)">
       <use xlink:href="#BitstreamVeraSans-Roman-31"/>
       <use x="63.623046875" xlink:href="#BitstreamVeraSans-Roman-35"/>
      </g>
     </g>
    </g>
    <g id="xtick_5">
     <g id="line2d_15">
      <path clip-path="url(#pe8efb2d31a)" d="M 429.12 388.8 
L 429.12 43.2 
" style="fill:none;stroke:#000000;stroke-dasharray:1.000000,3.000000;stroke-dashoffset:0.0;stroke-width:0.5;"/>
     </g>
     <g id="line2d_16">
      <g>
       <use style="stroke:#000000;stroke-width:0.5;" x="429.12" xlink:href="#mb6a246df89" y="388.8"/>
      </g>
     </g>
     <g id="line2d_17">
      <g>
       <use style="stroke:#000000;stroke-width:0.5;" x="429.12" xlink:href="#mb5d27bb421" y="43.2"/>
      </g>
     </g>
     <g id="text_5">
      <!-- 20 -->
      <defs>
       <path d="M 19.1875 8.296875 
L 53.609375 8.296875 
L 53.609375 0 
L 7.328125 0 
L 7.328125 8.296875 
Q 12.9375 14.109375 22.625 23.890625 
Q 32.328125 33.6875 34.8125 36.53125 
Q 39.546875 41.84375 41.421875 45.53125 
Q 43.3125 49.21875 43.3125 52.78125 
Q 43.3125 58.59375 39.234375 62.25 
Q 35.15625 65.921875 28.609375 65.921875 
Q 23.96875 65.921875 18.8125 64.3125 
Q 13.671875 62.703125 7.8125 59.421875 
L 7.8125 69.390625 
Q 13.765625 71.78125 18.9375 73 
Q 24.125 74.21875 28.421875 74.21875 
Q 39.75 74.21875 46.484375 68.546875 
Q 53.21875 62.890625 53.21875 53.421875 
Q 53.21875 48.921875 51.53125 44.890625 
Q 49.859375 40.875 45.40625 35.40625 
Q 44.1875 33.984375 37.640625 27.21875 
Q 31.109375 20.453125 19.1875 8.296875 
" id="BitstreamVeraSans-Roman-32"/>
      </defs>
      <g transform="translate(421.485 401.918125)scale(0.12 -0.12)">
       <use xlink:href="#BitstreamVeraSans-Roman-32"/>
       <use x="63.623046875" xlink:href="#BitstreamVeraSans-Roman-30"/>
      </g>
     </g>
    </g>
    <g id="xtick_6">
     <g id="line2d_18">
      <path clip-path="url(#pe8efb2d31a)" d="M 518.4 388.8 
L 518.4 43.2 
" style="fill:none;stroke:#000000;stroke-dasharray:1.000000,3.000000;stroke-dashoffset:0.0;stroke-width:0.5;"/>
     </g>
     <g id="line2d_19">
      <g>
       <use style="stroke:#000000;stroke-width:0.5;" x="518.4" xlink:href="#mb6a246df89" y="388.8"/>
      </g>
     </g>
     <g id="line2d_20">
      <g>
       <use style="stroke:#000000;stroke-width:0.5;" x="518.4" xlink:href="#mb5d27bb421" y="43.2"/>
      </g>
     </g>
     <g id="text_6">
      <!-- 25 -->
      <g transform="translate(510.765 401.918125)scale(0.12 -0.12)">
       <use xlink:href="#BitstreamVeraSans-Roman-32"/>
       <use x="63.623046875" xlink:href="#BitstreamVeraSans-Roman-35"/>
      </g>
     </g>
    </g>
    <g id="text_7">
     <!-- Time, [s] -->
     <defs>
      <path id="BitstreamVeraSans-Roman-20"/>
      <path d="M 8.59375 75.984375 
L 29.296875 75.984375 
L 29.296875 69 
L 17.578125 69 
L 17.578125 -6.203125 
L 29.296875 -6.203125 
L 29.296875 -13.1875 
L 8.59375 -13.1875 
z
" id="BitstreamVeraSans-Roman-5b"/>
      <path d="M 30.421875 75.984375 
L 30.421875 -13.1875 
L 9.71875 -13.1875 
L 9.71875 -6.203125 
L 21.390625 -6.203125 
L 21.390625 69 
L 9.71875 69 
L 9.71875 75.984375 
z
" id="BitstreamVeraSans-Roman-5d"/>
      <path d="M 52 44.1875 
Q 55.375 50.25 60.0625 53.125 
Q 64.75 56 71.09375 56 
Q 79.640625 56 84.28125 50.015625 
Q 88.921875 44.046875 88.921875 33.015625 
L 88.921875 0 
L 79.890625 0 
L 79.890625 32.71875 
Q 79.890625 40.578125 77.09375 44.375 
Q 74.3125 48.1875 68.609375 48.1875 
Q 61.625 48.1875 57.5625 43.546875 
Q 53.515625 38.921875 53.515625 30.90625 
L 53.515625 0 
L 44.484375 0 
L 44.484375 32.71875 
Q 44.484375 40.625 41.703125 44.40625 
Q 38.921875 48.1875 33.109375 48.1875 
Q 26.21875 48.1875 22.15625 43.53125 
Q 18.109375 38.875 18.109375 30.90625 
L 18.109375 0 
L 9.078125 0 
L 9.078125 54.6875 
L 18.109375 54.6875 
L 18.109375 46.1875 
Q 21.1875 51.21875 25.484375 53.609375 
Q 29.78125 56 35.6875 56 
Q 41.65625 56 45.828125 52.96875 
Q 50 49.953125 52 44.1875 
" id="BitstreamVeraSans-Roman-6d"/>
      <path d="M 11.71875 12.40625 
L 22.015625 12.40625 
L 22.015625 4 
L 14.015625 -11.625 
L 7.71875 -11.625 
L 11.71875 4 
z
" id="BitstreamVeraSans-Roman-2c"/>
      <path d="M 9.421875 54.6875 
L 18.40625 54.6875 
L 18.40625 0 
L 9.421875 0 
z
M 9.421875 75.984375 
L 18.40625 75.984375 
L 18.40625 64.59375 
L 9.421875 64.59375 
z
" id="BitstreamVeraSans-Roman-69"/>
      <path d="M 56.203125 29.59375 
L 56.203125 25.203125 
L 14.890625 25.203125 
Q 15.484375 15.921875 20.484375 11.0625 
Q 25.484375 6.203125 34.421875 6.203125 
Q 39.59375 6.203125 44.453125 7.46875 
Q 49.3125 8.734375 54.109375 11.28125 
L 54.109375 2.78125 
Q 49.265625 0.734375 44.1875 -0.34375 
Q 39.109375 -1.421875 33.890625 -1.421875 
Q 20.796875 -1.421875 13.15625 6.1875 
Q 5.515625 13.8125 5.515625 26.8125 
Q 5.515625 40.234375 12.765625 48.109375 
Q 20.015625 56 32.328125 56 
Q 43.359375 56 49.78125 48.890625 
Q 56.203125 41.796875 56.203125 29.59375 
M 47.21875 32.234375 
Q 47.125 39.59375 43.09375 43.984375 
Q 39.0625 48.390625 32.421875 48.390625 
Q 24.90625 48.390625 20.390625 44.140625 
Q 15.875 39.890625 15.1875 32.171875 
z
" id="BitstreamVeraSans-Roman-65"/>
      <path d="M -0.296875 72.90625 
L 61.375 72.90625 
L 61.375 64.59375 
L 35.5 64.59375 
L 35.5 0 
L 25.59375 0 
L 25.59375 64.59375 
L -0.296875 64.59375 
z
" id="BitstreamVeraSans-Roman-54"/>
      <path d="M 44.28125 53.078125 
L 44.28125 44.578125 
Q 40.484375 46.53125 36.375 47.5 
Q 32.28125 48.484375 27.875 48.484375 
Q 21.1875 48.484375 17.84375 46.4375 
Q 14.5 44.390625 14.5 40.28125 
Q 14.5 37.15625 16.890625 35.375 
Q 19.28125 33.59375 26.515625 31.984375 
L 29.59375 31.296875 
Q 39.15625 29.25 43.1875 25.515625 
Q 47.21875 21.78125 47.21875 15.09375 
Q 47.21875 7.46875 41.1875 3.015625 
Q 35.15625 -1.421875 24.609375 -1.421875 
Q 20.21875 -1.421875 15.453125 -0.5625 
Q 10.6875 0.296875 5.421875 2 
L 5.421875 11.28125 
Q 10.40625 8.6875 15.234375 7.390625 
Q 20.0625 6.109375 24.8125 6.109375 
Q 31.15625 6.109375 34.5625 8.28125 
Q 37.984375 10.453125 37.984375 14.40625 
Q 37.984375 18.0625 35.515625 20.015625 
Q 33.0625 21.96875 24.703125 23.78125 
L 21.578125 24.515625 
Q 13.234375 26.265625 9.515625 29.90625 
Q 5.8125 33.546875 5.8125 39.890625 
Q 5.8125 47.609375 11.28125 51.796875 
Q 16.75 56 26.8125 56 
Q 31.78125 56 36.171875 55.265625 
Q 40.578125 54.546875 44.28125 53.078125 
" id="BitstreamVeraSans-Roman-73"/>
     </defs>
     <g transform="translate(268.71375 418.531875)scale(0.12 -0.12)">
      <use xlink:href="#BitstreamVeraSans-Roman-54"/>
      <use x="61.037109375" xlink:href="#BitstreamVeraSans-Roman-69"/>
      <use x="88.8203125" xlink:href="#BitstreamVeraSans-Roman-6d"/>
      <use x="186.232421875" xlink:href="#BitstreamVeraSans-Roman-65"/>
      <use x="247.755859375" xlink:href="#BitstreamVeraSans-Roman-2c"/>
      <use x="279.54296875" xlink:href="#BitstreamVeraSans-Roman-20"/>
      <use x="311.330078125" xlink:href="#BitstreamVeraSans-Roman-5b"/>
      <use x="350.34375" xlink:href="#BitstreamVeraSans-Roman-73"/>
      <use x="402.443359375" xlink:href="#BitstreamVeraSans-Roman-5d"/>
     </g>
    </g>
   </g>
   <g id="matplotlib.axis_2">
    <g id="ytick_1">
     <g id="line2d_21">
      <path clip-path="url(#pe8efb2d31a)" d="M 72 388.8 
L 518.4 388.8 
" style="fill:none;stroke:#000000;stroke-dasharray:1.000000,3.000000;stroke-dashoffset:0.0;stroke-width:0.5;"/>
     </g>
     <g id="line2d_22">
      <defs>
       <path d="M 0 0 
L 4 0 
" id="m3a996bcf8f" style="stroke:#000000;stroke-width:0.5;"/>
      </defs>
      <g>
       <use style="stroke:#000000;stroke-width:0.5;" x="72.0" xlink:href="#m3a996bcf8f" y="388.8"/>
      </g>
     </g>
     <g id="line2d_23">
      <defs>
       <path d="M 0 0 
L -4 0 
" id="m5bb9191a02" style="stroke:#000000;stroke-width:0.5;"/>
      </defs>
      <g>
       <use style="stroke:#000000;stroke-width:0.5;" x="518.4" xlink:href="#m5bb9191a02" y="388.8"/>
      </g>
     </g>
     <g id="text_8">
      <!-- −0.2 -->
      <defs>
       <path d="M 10.59375 35.5 
L 73.1875 35.5 
L 73.1875 27.203125 
L 10.59375 27.203125 
z
" id="BitstreamVeraSans-Roman-2212"/>
       <path d="M 10.6875 12.40625 
L 21 12.40625 
L 21 0 
L 10.6875 0 
z
" id="BitstreamVeraSans-Roman-2e"/>
      </defs>
      <g transform="translate(38.860625 392.11125)scale(0.12 -0.12)">
       <use xlink:href="#BitstreamVeraSans-Roman-2212"/>
       <use x="83.7890625" xlink:href="#BitstreamVeraSans-Roman-30"/>
       <use x="147.412109375" xlink:href="#BitstreamVeraSans-Roman-2e"/>
       <use x="179.19921875" xlink:href="#BitstreamVeraSans-Roman-32"/>
      </g>
     </g>
    </g>
    <g id="ytick_2">
     <g id="line2d_24">
      <path clip-path="url(#pe8efb2d31a)" d="M 72 345.6 
L 518.4 345.6 
" style="fill:none;stroke:#000000;stroke-dasharray:1.000000,3.000000;stroke-dashoffset:0.0;stroke-width:0.5;"/>
     </g>
     <g id="line2d_25">
      <g>
       <use style="stroke:#000000;stroke-width:0.5;" x="72.0" xlink:href="#m3a996bcf8f" y="345.6"/>
      </g>
     </g>
     <g id="line2d_26">
      <g>
       <use style="stroke:#000000;stroke-width:0.5;" x="518.4" xlink:href="#m5bb9191a02" y="345.6"/>
      </g>
     </g>
     <g id="text_9">
      <!-- −0.1 -->
      <g transform="translate(38.860625 348.91125)scale(0.12 -0.12)">
       <use xlink:href="#BitstreamVeraSans-Roman-2212"/>
       <use x="83.7890625" xlink:href="#BitstreamVeraSans-Roman-30"/>
       <use x="147.412109375" xlink:href="#BitstreamVeraSans-Roman-2e"/>
       <use x="179.19921875" xlink:href="#BitstreamVeraSans-Roman-31"/>
      </g>
     </g>
    </g>
    <g id="ytick_3">
     <g id="line2d_27">
      <path clip-path="url(#pe8efb2d31a)" d="M 72 302.4 
L 518.4 302.4 
" style="fill:none;stroke:#000000;stroke-dasharray:1.000000,3.000000;stroke-dashoffset:0.0;stroke-width:0.5;"/>
     </g>
     <g id="line2d_28">
      <g>
       <use style="stroke:#000000;stroke-width:0.5;" x="72.0" xlink:href="#m3a996bcf8f" y="302.4"/>
      </g>
     </g>
     <g id="line2d_29">
      <g>
       <use style="stroke:#000000;stroke-width:0.5;" x="518.4" xlink:href="#m5bb9191a02" y="302.4"/>
      </g>
     </g>
     <g id="text_10">
      <!-- 0.0 -->
      <g transform="translate(48.91625 305.71125)scale(0.12 -0.12)">
       <use xlink:href="#BitstreamVeraSans-Roman-30"/>
       <use x="63.623046875" xlink:href="#BitstreamVeraSans-Roman-2e"/>
       <use x="95.41015625" xlink:href="#BitstreamVeraSans-Roman-30"/>
      </g>
     </g>
    </g>
    <g id="ytick_4">
     <g id="line2d_30">
      <path clip-path="url(#pe8efb2d31a)" d="M 72 259.2 
L 518.4 259.2 
" style="fill:none;stroke:#000000;stroke-dasharray:1.000000,3.000000;stroke-dashoffset:0.0;stroke-width:0.5;"/>
     </g>
     <g id="line2d_31">
      <g>
       <use style="stroke:#000000;stroke-width:0.5;" x="72.0" xlink:href="#m3a996bcf8f" y="259.2"/>
      </g>
     </g>
     <g id="line2d_32">
      <g>
       <use style="stroke:#000000;stroke-width:0.5;" x="518.4" xlink:href="#m5bb9191a02" y="259.2"/>
      </g>
     </g>
     <g id="text_11">
      <!-- 0.1 -->
      <g transform="translate(48.91625 262.51125)scale(0.12 -0.12)">
       <use xlink:href="#BitstreamVeraSans-Roman-30"/>
       <use x="63.623046875" xlink:href="#BitstreamVeraSans-Roman-2e"/>
       <use x="95.41015625" xlink:href="#BitstreamVeraSans-Roman-31"/>
      </g>
     </g>
    </g>
    <g id="ytick_5">
     <g id="line2d_33">
      <path clip-path="url(#pe8efb2d31a)" d="M 72 216 
L 518.4 216 
" style="fill:none;stroke:#000000;stroke-dasharray:1.000000,3.000000;stroke-dashoffset:0.0;stroke-width:0.5;"/>
     </g>
     <g id="line2d_34">
      <g>
       <use style="stroke:#000000;stroke-width:0.5;" x="72.0" xlink:href="#m3a996bcf8f" y="216.0"/>
      </g>
     </g>
     <g id="line2d_35">
      <g>
       <use style="stroke:#000000;stroke-width:0.5;" x="518.4" xlink:href="#m5bb9191a02" y="216.0"/>
      </g>
     </g>
     <g id="text_12">
      <!-- 0.2 -->
      <g transform="translate(48.91625 219.31125)scale(0.12 -0.12)">
       <use xlink:href="#BitstreamVeraSans-Roman-30"/>
       <use x="63.623046875" xlink:href="#BitstreamVeraSans-Roman-2e"/>
       <use x="95.41015625" xlink:href="#BitstreamVeraSans-Roman-32"/>
      </g>
     </g>
    </g>
    <g id="ytick_6">
     <g id="line2d_36">
      <path clip-path="url(#pe8efb2d31a)" d="M 72 172.8 
L 518.4 172.8 
" style="fill:none;stroke:#000000;stroke-dasharray:1.000000,3.000000;stroke-dashoffset:0.0;stroke-width:0.5;"/>
     </g>
     <g id="line2d_37">
      <g>
       <use style="stroke:#000000;stroke-width:0.5;" x="72.0" xlink:href="#m3a996bcf8f" y="172.8"/>
      </g>
     </g>
     <g id="line2d_38">
      <g>
       <use style="stroke:#000000;stroke-width:0.5;" x="518.4" xlink:href="#m5bb9191a02" y="172.8"/>
      </g>
     </g>
     <g id="text_13">
      <!-- 0.3 -->
      <defs>
       <path d="M 40.578125 39.3125 
Q 47.65625 37.796875 51.625 33 
Q 55.609375 28.21875 55.609375 21.1875 
Q 55.609375 10.40625 48.1875 4.484375 
Q 40.765625 -1.421875 27.09375 -1.421875 
Q 22.515625 -1.421875 17.65625 -0.515625 
Q 12.796875 0.390625 7.625 2.203125 
L 7.625 11.71875 
Q 11.71875 9.328125 16.59375 8.109375 
Q 21.484375 6.890625 26.8125 6.890625 
Q 36.078125 6.890625 40.9375 10.546875 
Q 45.796875 14.203125 45.796875 21.1875 
Q 45.796875 27.640625 41.28125 31.265625 
Q 36.765625 34.90625 28.71875 34.90625 
L 20.21875 34.90625 
L 20.21875 43.015625 
L 29.109375 43.015625 
Q 36.375 43.015625 40.234375 45.921875 
Q 44.09375 48.828125 44.09375 54.296875 
Q 44.09375 59.90625 40.109375 62.90625 
Q 36.140625 65.921875 28.71875 65.921875 
Q 24.65625 65.921875 20.015625 65.03125 
Q 15.375 64.15625 9.8125 62.3125 
L 9.8125 71.09375 
Q 15.4375 72.65625 20.34375 73.4375 
Q 25.25 74.21875 29.59375 74.21875 
Q 40.828125 74.21875 47.359375 69.109375 
Q 53.90625 64.015625 53.90625 55.328125 
Q 53.90625 49.265625 50.4375 45.09375 
Q 46.96875 40.921875 40.578125 39.3125 
" id="BitstreamVeraSans-Roman-33"/>
      </defs>
      <g transform="translate(48.91625 176.11125)scale(0.12 -0.12)">
       <use xlink:href="#BitstreamVeraSans-Roman-30"/>
       <use x="63.623046875" xlink:href="#BitstreamVeraSans-Roman-2e"/>
       <use x="95.41015625" xlink:href="#BitstreamVeraSans-Roman-33"/>
      </g>
     </g>
    </g>
    <g id="ytick_7">
     <g id="line2d_39">
      <path clip-path="url(#pe8efb2d31a)" d="M 72 129.6 
L 518.4 129.6 
" style="fill:none;stroke:#000000;stroke-dasharray:1.000000,3.000000;stroke-dashoffset:0.0;stroke-width:0.5;"/>
     </g>
     <g id="line2d_40">
      <g>
       <use style="stroke:#000000;stroke-width:0.5;" x="72.0" xlink:href="#m3a996bcf8f" y="129.6"/>
      </g>
     </g>
     <g id="line2d_41">
      <g>
       <use style="stroke:#000000;stroke-width:0.5;" x="518.4" xlink:href="#m5bb9191a02" y="129.6"/>
      </g>
     </g>
     <g id="text_14">
      <!-- 0.4 -->
      <defs>
       <path d="M 37.796875 64.3125 
L 12.890625 25.390625 
L 37.796875 25.390625 
z
M 35.203125 72.90625 
L 47.609375 72.90625 
L 47.609375 25.390625 
L 58.015625 25.390625 
L 58.015625 17.1875 
L 47.609375 17.1875 
L 47.609375 0 
L 37.796875 0 
L 37.796875 17.1875 
L 4.890625 17.1875 
L 4.890625 26.703125 
z
" id="BitstreamVeraSans-Roman-34"/>
      </defs>
      <g transform="translate(48.91625 132.91125)scale(0.12 -0.12)">
       <use xlink:href="#BitstreamVeraSans-Roman-30"/>
       <use x="63.623046875" xlink:href="#BitstreamVeraSans-Roman-2e"/>
       <use x="95.41015625" xlink:href="#BitstreamVeraSans-Roman-34"/>
      </g>
     </g>
    </g>
    <g id="ytick_8">
     <g id="line2d_42">
      <path clip-path="url(#pe8efb2d31a)" d="M 72 86.4 
L 518.4 86.4 
" style="fill:none;stroke:#000000;stroke-dasharray:1.000000,3.000000;stroke-dashoffset:0.0;stroke-width:0.5;"/>
     </g>
     <g id="line2d_43">
      <g>
       <use style="stroke:#000000;stroke-width:0.5;" x="72.0" xlink:href="#m3a996bcf8f" y="86.4"/>
      </g>
     </g>
     <g id="line2d_44">
      <g>
       <use style="stroke:#000000;stroke-width:0.5;" x="518.4" xlink:href="#m5bb9191a02" y="86.4"/>
      </g>
     </g>
     <g id="text_15">
      <!-- 0.5 -->
      <g transform="translate(48.91625 89.71125)scale(0.12 -0.12)">
       <use xlink:href="#BitstreamVeraSans-Roman-30"/>
       <use x="63.623046875" xlink:href="#BitstreamVeraSans-Roman-2e"/>
       <use x="95.41015625" xlink:href="#BitstreamVeraSans-Roman-35"/>
      </g>
     </g>
    </g>
    <g id="ytick_9">
     <g id="line2d_45">
      <path clip-path="url(#pe8efb2d31a)" d="M 72 43.2 
L 518.4 43.2 
" style="fill:none;stroke:#000000;stroke-dasharray:1.000000,3.000000;stroke-dashoffset:0.0;stroke-width:0.5;"/>
     </g>
     <g id="line2d_46">
      <g>
       <use style="stroke:#000000;stroke-width:0.5;" x="72.0" xlink:href="#m3a996bcf8f" y="43.2"/>
      </g>
     </g>
     <g id="line2d_47">
      <g>
       <use style="stroke:#000000;stroke-width:0.5;" x="518.4" xlink:href="#m5bb9191a02" y="43.2"/>
      </g>
     </g>
     <g id="text_16">
      <!-- 0.6 -->
      <defs>
       <path d="M 33.015625 40.375 
Q 26.375 40.375 22.484375 35.828125 
Q 18.609375 31.296875 18.609375 23.390625 
Q 18.609375 15.53125 22.484375 10.953125 
Q 26.375 6.390625 33.015625 6.390625 
Q 39.65625 6.390625 43.53125 10.953125 
Q 47.40625 15.53125 47.40625 23.390625 
Q 47.40625 31.296875 43.53125 35.828125 
Q 39.65625 40.375 33.015625 40.375 
M 52.59375 71.296875 
L 52.59375 62.3125 
Q 48.875 64.0625 45.09375 64.984375 
Q 41.3125 65.921875 37.59375 65.921875 
Q 27.828125 65.921875 22.671875 59.328125 
Q 17.53125 52.734375 16.796875 39.40625 
Q 19.671875 43.65625 24.015625 45.921875 
Q 28.375 48.1875 33.59375 48.1875 
Q 44.578125 48.1875 50.953125 41.515625 
Q 57.328125 34.859375 57.328125 23.390625 
Q 57.328125 12.15625 50.6875 5.359375 
Q 44.046875 -1.421875 33.015625 -1.421875 
Q 20.359375 -1.421875 13.671875 8.265625 
Q 6.984375 17.96875 6.984375 36.375 
Q 6.984375 53.65625 15.1875 63.9375 
Q 23.390625 74.21875 37.203125 74.21875 
Q 40.921875 74.21875 44.703125 73.484375 
Q 48.484375 72.75 52.59375 71.296875 
" id="BitstreamVeraSans-Roman-36"/>
      </defs>
      <g transform="translate(48.91625 46.51125)scale(0.12 -0.12)">
       <use xlink:href="#BitstreamVeraSans-Roman-30"/>
       <use x="63.623046875" xlink:href="#BitstreamVeraSans-Roman-2e"/>
       <use x="95.41015625" xlink:href="#BitstreamVeraSans-Roman-36"/>
      </g>
     </g>
    </g>
    <g id="text_17">
     <!-- Accel Cmd [m/s^2] -->
     <defs>
      <path d="M 46.6875 72.90625 
L 73.1875 45.703125 
L 63.375 45.703125 
L 41.890625 64.984375 
L 20.40625 45.703125 
L 10.59375 45.703125 
L 37.109375 72.90625 
z
" id="BitstreamVeraSans-Roman-5e"/>
      <path d="M 9.421875 75.984375 
L 18.40625 75.984375 
L 18.40625 0 
L 9.421875 0 
z
" id="BitstreamVeraSans-Roman-6c"/>
      <path d="M 64.40625 67.28125 
L 64.40625 56.890625 
Q 59.421875 61.53125 53.78125 63.8125 
Q 48.140625 66.109375 41.796875 66.109375 
Q 29.296875 66.109375 22.65625 58.46875 
Q 16.015625 50.828125 16.015625 36.375 
Q 16.015625 21.96875 22.65625 14.328125 
Q 29.296875 6.6875 41.796875 6.6875 
Q 48.140625 6.6875 53.78125 8.984375 
Q 59.421875 11.28125 64.40625 15.921875 
L 64.40625 5.609375 
Q 59.234375 2.09375 53.4375 0.328125 
Q 47.65625 -1.421875 41.21875 -1.421875 
Q 24.65625 -1.421875 15.125 8.703125 
Q 5.609375 18.84375 5.609375 36.375 
Q 5.609375 53.953125 15.125 64.078125 
Q 24.65625 74.21875 41.21875 74.21875 
Q 47.75 74.21875 53.53125 72.484375 
Q 59.328125 70.75 64.40625 67.28125 
" id="BitstreamVeraSans-Roman-43"/>
      <path d="M 34.1875 63.1875 
L 20.796875 26.90625 
L 47.609375 26.90625 
z
M 28.609375 72.90625 
L 39.796875 72.90625 
L 67.578125 0 
L 57.328125 0 
L 50.6875 18.703125 
L 17.828125 18.703125 
L 11.1875 0 
L 0.78125 0 
z
" id="BitstreamVeraSans-Roman-41"/>
      <path d="M 25.390625 72.90625 
L 33.6875 72.90625 
L 8.296875 -9.28125 
L 0 -9.28125 
z
" id="BitstreamVeraSans-Roman-2f"/>
      <path d="M 45.40625 46.390625 
L 45.40625 75.984375 
L 54.390625 75.984375 
L 54.390625 0 
L 45.40625 0 
L 45.40625 8.203125 
Q 42.578125 3.328125 38.25 0.953125 
Q 33.9375 -1.421875 27.875 -1.421875 
Q 17.96875 -1.421875 11.734375 6.484375 
Q 5.515625 14.40625 5.515625 27.296875 
Q 5.515625 40.1875 11.734375 48.09375 
Q 17.96875 56 27.875 56 
Q 33.9375 56 38.25 53.625 
Q 42.578125 51.265625 45.40625 46.390625 
M 14.796875 27.296875 
Q 14.796875 17.390625 18.875 11.75 
Q 22.953125 6.109375 30.078125 6.109375 
Q 37.203125 6.109375 41.296875 11.75 
Q 45.40625 17.390625 45.40625 27.296875 
Q 45.40625 37.203125 41.296875 42.84375 
Q 37.203125 48.484375 30.078125 48.484375 
Q 22.953125 48.484375 18.875 42.84375 
Q 14.796875 37.203125 14.796875 27.296875 
" id="BitstreamVeraSans-Roman-64"/>
      <path d="M 48.78125 52.59375 
L 48.78125 44.1875 
Q 44.96875 46.296875 41.140625 47.34375 
Q 37.3125 48.390625 33.40625 48.390625 
Q 24.65625 48.390625 19.8125 42.84375 
Q 14.984375 37.3125 14.984375 27.296875 
Q 14.984375 17.28125 19.8125 11.734375 
Q 24.65625 6.203125 33.40625 6.203125 
Q 37.3125 6.203125 41.140625 7.25 
Q 44.96875 8.296875 48.78125 10.40625 
L 48.78125 2.09375 
Q 45.015625 0.34375 40.984375 -0.53125 
Q 36.96875 -1.421875 32.421875 -1.421875 
Q 20.0625 -1.421875 12.78125 6.34375 
Q 5.515625 14.109375 5.515625 27.296875 
Q 5.515625 40.671875 12.859375 48.328125 
Q 20.21875 56 33.015625 56 
Q 37.15625 56 41.109375 55.140625 
Q 45.0625 54.296875 48.78125 52.59375 
" id="BitstreamVeraSans-Roman-63"/>
     </defs>
     <g transform="translate(31.365 274.235625)rotate(-90.0)scale(0.12 -0.12)">
      <use xlink:href="#BitstreamVeraSans-Roman-41"/>
      <use x="68.392578125" xlink:href="#BitstreamVeraSans-Roman-63"/>
      <use x="123.373046875" xlink:href="#BitstreamVeraSans-Roman-63"/>
      <use x="178.353515625" xlink:href="#BitstreamVeraSans-Roman-65"/>
      <use x="239.876953125" xlink:href="#BitstreamVeraSans-Roman-6c"/>
      <use x="267.66015625" xlink:href="#BitstreamVeraSans-Roman-20"/>
      <use x="299.447265625" xlink:href="#BitstreamVeraSans-Roman-43"/>
      <use x="369.271484375" xlink:href="#BitstreamVeraSans-Roman-6d"/>
      <use x="466.68359375" xlink:href="#BitstreamVeraSans-Roman-64"/>
      <use x="530.16015625" xlink:href="#BitstreamVeraSans-Roman-20"/>
      <use x="561.947265625" xlink:href="#BitstreamVeraSans-Roman-5b"/>
      <use x="600.9609375" xlink:href="#BitstreamVeraSans-Roman-6d"/>
      <use x="698.373046875" xlink:href="#BitstreamVeraSans-Roman-2f"/>
      <use x="732.064453125" xlink:href="#BitstreamVeraSans-Roman-73"/>
      <use x="784.1640625" xlink:href="#BitstreamVeraSans-Roman-5e"/>
      <use x="867.953125" xlink:href="#BitstreamVeraSans-Roman-32"/>
      <use x="931.576171875" xlink:href="#BitstreamVeraSans-Roman-5d"/>
     </g>
    </g>
   </g>
   <g id="legend_1">
    <g id="patch_7">
     <path d="M 79.2 96.993 
L 218.727 96.993 
L 218.727 50.4 
L 79.2 50.4 
z
" style="fill:#ffffff;stroke:#000000;stroke-linejoin:miter;"/>
    </g>
    <g id="line2d_48">
     <path d="M 89.28 62.06175 
L 109.44 62.06175 
" style="fill:none;stroke:#008000;stroke-linecap:square;"/>
    </g>
    <g id="line2d_49"/>
    <g id="text_18">
     <!-- Proportional -->
     <defs>
      <path d="M 54.890625 33.015625 
L 54.890625 0 
L 45.90625 0 
L 45.90625 32.71875 
Q 45.90625 40.484375 42.875 44.328125 
Q 39.84375 48.1875 33.796875 48.1875 
Q 26.515625 48.1875 22.3125 43.546875 
Q 18.109375 38.921875 18.109375 30.90625 
L 18.109375 0 
L 9.078125 0 
L 9.078125 54.6875 
L 18.109375 54.6875 
L 18.109375 46.1875 
Q 21.34375 51.125 25.703125 53.5625 
Q 30.078125 56 35.796875 56 
Q 45.21875 56 50.046875 50.171875 
Q 54.890625 44.34375 54.890625 33.015625 
" id="BitstreamVeraSans-Roman-6e"/>
      <path d="M 34.28125 27.484375 
Q 23.390625 27.484375 19.1875 25 
Q 14.984375 22.515625 14.984375 16.5 
Q 14.984375 11.71875 18.140625 8.90625 
Q 21.296875 6.109375 26.703125 6.109375 
Q 34.1875 6.109375 38.703125 11.40625 
Q 43.21875 16.703125 43.21875 25.484375 
L 43.21875 27.484375 
z
M 52.203125 31.203125 
L 52.203125 0 
L 43.21875 0 
L 43.21875 8.296875 
Q 40.140625 3.328125 35.546875 0.953125 
Q 30.953125 -1.421875 24.3125 -1.421875 
Q 15.921875 -1.421875 10.953125 3.296875 
Q 6 8.015625 6 15.921875 
Q 6 25.140625 12.171875 29.828125 
Q 18.359375 34.515625 30.609375 34.515625 
L 43.21875 34.515625 
L 43.21875 35.40625 
Q 43.21875 41.609375 39.140625 45 
Q 35.0625 48.390625 27.6875 48.390625 
Q 23 48.390625 18.546875 47.265625 
Q 14.109375 46.140625 10.015625 43.890625 
L 10.015625 52.203125 
Q 14.9375 54.109375 19.578125 55.046875 
Q 24.21875 56 28.609375 56 
Q 40.484375 56 46.34375 49.84375 
Q 52.203125 43.703125 52.203125 31.203125 
" id="BitstreamVeraSans-Roman-61"/>
      <path d="M 30.609375 48.390625 
Q 23.390625 48.390625 19.1875 42.75 
Q 14.984375 37.109375 14.984375 27.296875 
Q 14.984375 17.484375 19.15625 11.84375 
Q 23.34375 6.203125 30.609375 6.203125 
Q 37.796875 6.203125 41.984375 11.859375 
Q 46.1875 17.53125 46.1875 27.296875 
Q 46.1875 37.015625 41.984375 42.703125 
Q 37.796875 48.390625 30.609375 48.390625 
M 30.609375 56 
Q 42.328125 56 49.015625 48.375 
Q 55.71875 40.765625 55.71875 27.296875 
Q 55.71875 13.875 49.015625 6.21875 
Q 42.328125 -1.421875 30.609375 -1.421875 
Q 18.84375 -1.421875 12.171875 6.21875 
Q 5.515625 13.875 5.515625 27.296875 
Q 5.515625 40.765625 12.171875 48.375 
Q 18.84375 56 30.609375 56 
" id="BitstreamVeraSans-Roman-6f"/>
      <path d="M 19.671875 64.796875 
L 19.671875 37.40625 
L 32.078125 37.40625 
Q 38.96875 37.40625 42.71875 40.96875 
Q 46.484375 44.53125 46.484375 51.125 
Q 46.484375 57.671875 42.71875 61.234375 
Q 38.96875 64.796875 32.078125 64.796875 
z
M 9.8125 72.90625 
L 32.078125 72.90625 
Q 44.34375 72.90625 50.609375 67.359375 
Q 56.890625 61.8125 56.890625 51.125 
Q 56.890625 40.328125 50.609375 34.8125 
Q 44.34375 29.296875 32.078125 29.296875 
L 19.671875 29.296875 
L 19.671875 0 
L 9.8125 0 
z
" id="BitstreamVeraSans-Roman-50"/>
      <path d="M 18.3125 70.21875 
L 18.3125 54.6875 
L 36.8125 54.6875 
L 36.8125 47.703125 
L 18.3125 47.703125 
L 18.3125 18.015625 
Q 18.3125 11.328125 20.140625 9.421875 
Q 21.96875 7.515625 27.59375 7.515625 
L 36.8125 7.515625 
L 36.8125 0 
L 27.59375 0 
Q 17.1875 0 13.234375 3.875 
Q 9.28125 7.765625 9.28125 18.015625 
L 9.28125 47.703125 
L 2.6875 47.703125 
L 2.6875 54.6875 
L 9.28125 54.6875 
L 9.28125 70.21875 
z
" id="BitstreamVeraSans-Roman-74"/>
      <path d="M 41.109375 46.296875 
Q 39.59375 47.171875 37.8125 47.578125 
Q 36.03125 48 33.890625 48 
Q 26.265625 48 22.1875 43.046875 
Q 18.109375 38.09375 18.109375 28.8125 
L 18.109375 0 
L 9.078125 0 
L 9.078125 54.6875 
L 18.109375 54.6875 
L 18.109375 46.1875 
Q 20.953125 51.171875 25.484375 53.578125 
Q 30.03125 56 36.53125 56 
Q 37.453125 56 38.578125 55.875 
Q 39.703125 55.765625 41.0625 55.515625 
z
" id="BitstreamVeraSans-Roman-72"/>
      <path d="M 18.109375 8.203125 
L 18.109375 -20.796875 
L 9.078125 -20.796875 
L 9.078125 54.6875 
L 18.109375 54.6875 
L 18.109375 46.390625 
Q 20.953125 51.265625 25.265625 53.625 
Q 29.59375 56 35.59375 56 
Q 45.5625 56 51.78125 48.09375 
Q 58.015625 40.1875 58.015625 27.296875 
Q 58.015625 14.40625 51.78125 6.484375 
Q 45.5625 -1.421875 35.59375 -1.421875 
Q 29.59375 -1.421875 25.265625 0.953125 
Q 20.953125 3.328125 18.109375 8.203125 
M 48.6875 27.296875 
Q 48.6875 37.203125 44.609375 42.84375 
Q 40.53125 48.484375 33.40625 48.484375 
Q 26.265625 48.484375 22.1875 42.84375 
Q 18.109375 37.203125 18.109375 27.296875 
Q 18.109375 17.390625 22.1875 11.75 
Q 26.265625 6.109375 33.40625 6.109375 
Q 40.53125 6.109375 44.609375 11.75 
Q 48.6875 17.390625 48.6875 27.296875 
" id="BitstreamVeraSans-Roman-70"/>
     </defs>
     <g transform="translate(125.28 67.10175)scale(0.144 -0.144)">
      <use xlink:href="#BitstreamVeraSans-Roman-50"/>
      <use x="60.287109375" xlink:href="#BitstreamVeraSans-Roman-72"/>
      <use x="101.369140625" xlink:href="#BitstreamVeraSans-Roman-6f"/>
      <use x="162.55078125" xlink:href="#BitstreamVeraSans-Roman-70"/>
      <use x="226.02734375" xlink:href="#BitstreamVeraSans-Roman-6f"/>
      <use x="287.208984375" xlink:href="#BitstreamVeraSans-Roman-72"/>
      <use x="328.322265625" xlink:href="#BitstreamVeraSans-Roman-74"/>
      <use x="367.53125" xlink:href="#BitstreamVeraSans-Roman-69"/>
      <use x="395.314453125" xlink:href="#BitstreamVeraSans-Roman-6f"/>
      <use x="456.49609375" xlink:href="#BitstreamVeraSans-Roman-6e"/>
      <use x="519.875" xlink:href="#BitstreamVeraSans-Roman-61"/>
      <use x="581.154296875" xlink:href="#BitstreamVeraSans-Roman-6c"/>
     </g>
    </g>
    <g id="line2d_50">
     <path d="M 89.28 83.19825 
L 109.44 83.19825 
" style="fill:none;stroke:#0000ff;stroke-linecap:square;"/>
    </g>
    <g id="line2d_51"/>
    <g id="text_19">
     <!-- Integral -->
     <defs>
      <path d="M 45.40625 27.984375 
Q 45.40625 37.75 41.375 43.109375 
Q 37.359375 48.484375 30.078125 48.484375 
Q 22.859375 48.484375 18.828125 43.109375 
Q 14.796875 37.75 14.796875 27.984375 
Q 14.796875 18.265625 18.828125 12.890625 
Q 22.859375 7.515625 30.078125 7.515625 
Q 37.359375 7.515625 41.375 12.890625 
Q 45.40625 18.265625 45.40625 27.984375 
M 54.390625 6.78125 
Q 54.390625 -7.171875 48.1875 -13.984375 
Q 42 -20.796875 29.203125 -20.796875 
Q 24.46875 -20.796875 20.265625 -20.09375 
Q 16.0625 -19.390625 12.109375 -17.921875 
L 12.109375 -9.1875 
Q 16.0625 -11.328125 19.921875 -12.34375 
Q 23.78125 -13.375 27.78125 -13.375 
Q 36.625 -13.375 41.015625 -8.765625 
Q 45.40625 -4.15625 45.40625 5.171875 
L 45.40625 9.625 
Q 42.625 4.78125 38.28125 2.390625 
Q 33.9375 0 27.875 0 
Q 17.828125 0 11.671875 7.65625 
Q 5.515625 15.328125 5.515625 27.984375 
Q 5.515625 40.671875 11.671875 48.328125 
Q 17.828125 56 27.875 56 
Q 33.9375 56 38.28125 53.609375 
Q 42.625 51.21875 45.40625 46.390625 
L 45.40625 54.6875 
L 54.390625 54.6875 
z
" id="BitstreamVeraSans-Roman-67"/>
      <path d="M 9.8125 72.90625 
L 19.671875 72.90625 
L 19.671875 0 
L 9.8125 0 
z
" id="BitstreamVeraSans-Roman-49"/>
     </defs>
     <g transform="translate(125.28 88.23825)scale(0.144 -0.144)">
      <use xlink:href="#BitstreamVeraSans-Roman-49"/>
      <use x="29.4921875" xlink:href="#BitstreamVeraSans-Roman-6e"/>
      <use x="92.87109375" xlink:href="#BitstreamVeraSans-Roman-74"/>
      <use x="132.080078125" xlink:href="#BitstreamVeraSans-Roman-65"/>
      <use x="193.603515625" xlink:href="#BitstreamVeraSans-Roman-67"/>
      <use x="257.080078125" xlink:href="#BitstreamVeraSans-Roman-72"/>
      <use x="298.193359375" xlink:href="#BitstreamVeraSans-Roman-61"/>
      <use x="359.47265625" xlink:href="#BitstreamVeraSans-Roman-6c"/>
     </g>
    </g>
   </g>
  </g>
 </g>
 <defs>
  <clipPath id="pe8efb2d31a">
   <rect height="345.6" width="446.4" x="72.0" y="43.2"/>
  </clipPath>
 </defs>
</svg>
