<?xml version="1.0" encoding="utf-8" standalone="no"?>
<!DOCTYPE svg PUBLIC "-//W3C//DTD SVG 1.1//EN"
  "http://www.w3.org/Graphics/SVG/1.1/DTD/svg11.dtd">
<!-- Created with matplotlib (http://matplotlib.org/) -->
<svg height="432pt" version="1.1" viewBox="0 0 576 432" width="576pt" xmlns="http://www.w3.org/2000/svg" xmlns:xlink="http://www.w3.org/1999/xlink">
 <defs>
  <style type="text/css">
*{stroke-linecap:butt;stroke-linejoin:round;stroke-miterlimit:100000;}
  </style>
 </defs>
 <g id="figure_1">
  <g id="patch_1">
   <path d="M 0 432 
L 576 432 
L 576 0 
L 0 0 
z
" style="fill:#ffffff;"/>
  </g>
  <g id="axes_1">
   <g id="patch_2">
    <path d="M 72 388.8 
L 518.4 388.8 
L 518.4 43.2 
L 72 43.2 
z
" style="fill:#ffffff;"/>
   </g>
   <g id="line2d_1">
    <path clip-path="url(#p384054c3d2)" d="M 72.063771 388.8 
L 82.7136 388.8 
L 82.841143 388.447978 
L 83.096229 385.019193 
L 83.16 385.019193 
L 83.287543 383.990558 
L 83.351314 383.990558 
L 83.6064 380.904651 
L 83.670171 380.904651 
L 83.797714 379.876016 
L 83.861486 379.876016 
L 84.116571 378.161623 
L 84.180343 378.161623 
L 84.371657 376.790109 
L 84.435429 376.790109 
L 84.626743 374.732839 
L 84.690514 374.732839 
L 85.009371 372.332689 
L 85.073143 372.332689 
L 85.200686 371.304054 
L 85.264457 371.304054 
L 85.328229 370.961175 
L 85.519543 369.246783 
L 85.647086 369.246783 
L 85.8384 367.875269 
L 85.902171 367.875269 
L 86.093486 366.503755 
L 86.157257 366.503755 
L 86.348571 365.132241 
L 86.476114 365.132241 
L 86.667429 363.760727 
L 86.7312 363.760727 
L 86.922514 362.389213 
L 86.986286 362.389213 
L 87.1776 360.674821 
L 87.241371 360.674821 
L 87.432686 359.646185 
L 87.496457 359.646185 
L 87.687771 358.274671 
L 87.751543 358.274671 
L 87.942857 356.903157 
L 88.006629 356.903157 
L 88.197943 355.531643 
L 88.261714 355.531643 
L 88.453029 354.503008 
L 88.5168 354.503008 
L 88.644343 354.160129 
L 88.708114 354.160129 
L 88.835657 353.474372 
L 89.026971 353.474372 
L 89.154514 352.788615 
L 89.345829 352.788615 
L 89.473371 352.102858 
L 89.537143 352.102858 
L 89.728457 351.417101 
L 89.856 351.417101 
L 90.047314 350.731344 
L 90.3024 350.731344 
L 90.429943 350.045587 
L 90.621257 350.045587 
L 90.7488 349.702709 
L 90.812571 349.702709 
L 91.003886 349.016952 
L 91.258971 349.016952 
L 91.386514 348.674074 
L 91.769143 348.674074 
L 91.896686 348.331195 
L 91.960457 348.331195 
L 92.151771 347.645438 
L 92.406857 347.645438 
L 92.5344 347.30256 
L 92.725714 347.30256 
L 92.853257 346.959681 
L 93.044571 346.959681 
L 93.235886 346.273924 
L 93.299657 346.273924 
L 93.554743 345.245289 
L 93.682286 345.245289 
L 93.8736 344.216653 
L 93.937371 344.216653 
L 94.128686 343.530896 
L 94.192457 343.530896 
L 94.383771 342.845139 
L 94.575086 342.845139 
L 94.7664 342.159382 
L 94.830171 342.159382 
L 95.021486 341.473625 
L 95.085257 341.473625 
L 95.2128 341.130747 
L 95.340343 341.130747 
L 95.531657 340.44499 
L 95.595429 340.44499 
L 95.722971 340.102111 
L 95.850514 340.102111 
L 96.041829 339.416354 
L 96.233143 339.416354 
L 96.424457 338.730597 
L 96.615771 338.730597 
L 96.807086 338.04484 
L 96.9984 338.04484 
L 97.125943 337.701962 
L 97.253486 337.701962 
L 97.381029 337.359084 
L 97.508571 337.359084 
L 97.636114 337.016205 
L 97.763657 337.016205 
L 97.8912 336.673327 
L 98.146286 336.673327 
L 98.3376 335.98757 
L 98.656457 335.98757 
L 98.784 335.644691 
L 99.039086 335.644691 
L 99.166629 335.301813 
L 99.294171 335.301813 
L 99.421714 334.958934 
L 99.6768 334.958934 
L 99.804343 334.616056 
L 100.059429 334.616056 
L 100.186971 334.273177 
L 100.442057 334.273177 
L 100.5696 333.930299 
L 100.952229 333.930299 
L 101.079771 333.58742 
L 101.334857 333.58742 
L 101.4624 333.244542 
L 101.972571 333.244542 
L 102.100114 332.901663 
L 102.482743 332.901663 
L 102.610286 332.558785 
L 103.120457 332.558785 
L 103.248 332.215906 
L 103.630629 332.215906 
L 103.758171 331.873028 
L 103.885714 332.215906 
L 104.013257 331.873028 
L 104.395886 331.873028 
L 104.523429 331.530149 
L 104.650971 331.873028 
L 104.778514 331.530149 
L 105.288686 331.530149 
L 105.416229 331.187271 
L 105.543771 331.530149 
L 105.671314 331.187271 
L 105.798857 331.187271 
L 105.9264 330.844392 
L 106.053943 330.844392 
L 106.181486 330.501514 
L 106.564114 330.501514 
L 106.691657 330.158635 
L 106.8192 330.158635 
L 106.946743 329.815757 
L 107.329371 329.815757 
L 107.456914 329.472878 
L 107.839543 329.472878 
L 107.967086 329.13 
L 108.349714 329.13 
L 108.477257 328.787121 
L 109.114971 328.787121 
L 109.242514 328.444243 
L 112.048457 328.444243 
L 112.176 328.787121 
L 112.941257 328.787121 
L 113.0688 329.13 
L 113.451429 329.13 
L 113.578971 329.472878 
L 113.9616 329.472878 
L 114.089143 329.815757 
L 114.344229 329.815757 
L 114.471771 330.158635 
L 114.8544 330.158635 
L 114.981943 330.501514 
L 115.237029 330.501514 
L 115.364571 330.844392 
L 115.619657 330.844392 
L 115.7472 331.187271 
L 116.002286 331.187271 
L 116.129829 331.530149 
L 116.257371 331.530149 
L 116.384914 331.873028 
L 116.64 331.873028 
L 116.767543 332.215906 
L 116.895086 332.215906 
L 117.022629 332.558785 
L 117.277714 332.558785 
L 117.405257 332.901663 
L 117.5328 332.901663 
L 117.660343 333.244542 
L 117.915429 333.244542 
L 118.042971 333.58742 
L 118.170514 333.58742 
L 118.298057 333.930299 
L 118.4256 333.930299 
L 118.553143 334.273177 
L 118.808229 334.273177 
L 118.935771 334.616056 
L 119.063314 334.616056 
L 119.190857 334.958934 
L 119.3184 334.958934 
L 119.445943 335.301813 
L 119.573486 335.301813 
L 119.701029 335.644691 
L 119.828571 335.644691 
L 119.956114 335.98757 
L 120.2112 335.98757 
L 120.338743 336.330448 
L 120.466286 336.330448 
L 120.593829 336.673327 
L 120.721371 336.673327 
L 120.848914 337.016205 
L 120.976457 337.016205 
L 121.104 337.359084 
L 121.231543 337.359084 
L 121.359086 337.701962 
L 121.486629 337.701962 
L 121.614171 338.04484 
L 121.741714 338.04484 
L 121.869257 338.387719 
L 121.9968 338.387719 
L 122.124343 338.730597 
L 122.251886 338.730597 
L 122.379429 339.073476 
L 122.506971 339.073476 
L 122.634514 339.416354 
L 122.698286 339.416354 
L 122.825829 339.759233 
L 123.144686 339.759233 
L 123.272229 339.416354 
L 123.336 339.416354 
L 123.527314 340.44499 
L 123.718629 340.44499 
L 123.909943 341.130747 
L 124.037486 341.130747 
L 124.165029 341.473625 
L 124.292571 341.473625 
L 124.420114 341.816504 
L 124.547657 341.816504 
L 124.6752 342.159382 
L 124.994057 342.159382 
L 125.1216 342.845139 
L 125.249143 342.502261 
L 125.440457 342.502261 
L 125.568 342.845139 
L 125.631771 342.845139 
L 125.823086 343.530896 
L 125.950629 343.530896 
L 126.141943 344.216653 
L 126.269486 344.216653 
L 126.397029 344.559532 
L 126.524571 344.216653 
L 126.652114 344.559532 
L 126.9072 344.559532 
L 127.034743 344.90241 
L 127.226057 344.90241 
L 127.3536 345.245289 
L 127.417371 345.245289 
L 127.608686 345.931046 
L 127.736229 345.931046 
L 127.863771 346.273924 
L 127.991314 346.273924 
L 128.118857 346.616803 
L 128.182629 346.616803 
L 128.310171 346.273924 
L 128.629029 346.273924 
L 128.6928 346.616803 
L 128.820343 346.273924 
L 129.011657 346.273924 
L 129.1392 346.616803 
L 129.330514 346.616803 
L 129.458057 347.30256 
L 129.521829 347.30256 
L 129.713143 347.988317 
L 129.840686 347.988317 
L 129.968229 348.331195 
L 130.350857 348.331195 
L 130.4784 349.016952 
L 130.605943 349.016952 
L 130.733486 349.359831 
L 130.861029 349.359831 
L 130.988571 349.702709 
L 131.3712 349.702709 
L 131.498743 350.388466 
L 131.8176 350.388466 
L 131.945143 351.074223 
L 132.136457 351.074223 
L 132.264 351.417101 
L 132.455314 351.417101 
L 132.582857 351.75998 
L 132.837943 351.75998 
L 132.965486 352.102858 
L 133.1568 352.102858 
L 133.284343 352.788615 
L 133.475657 352.788615 
L 133.6032 353.131494 
L 133.666971 353.131494 
L 133.794514 353.474372 
L 133.985829 353.474372 
L 134.113371 353.817251 
L 134.432229 353.817251 
L 134.496 354.160129 
L 134.623543 353.817251 
L 134.751086 354.160129 
L 134.814857 354.160129 
L 134.9424 354.503008 
L 135.261257 354.503008 
L 135.452571 355.188765 
L 136.026514 355.188765 
L 136.154057 355.531643 
L 136.472914 355.531643 
L 136.664229 356.2174 
L 136.791771 356.2174 
L 136.919314 356.560279 
L 137.1744 356.560279 
L 137.301943 356.903157 
L 137.365714 356.560279 
L 137.493257 356.903157 
L 137.6208 356.560279 
L 137.748343 356.903157 
L 138.003429 356.903157 
L 138.130971 357.246036 
L 138.258514 357.246036 
L 138.386057 357.588914 
L 138.449829 357.588914 
L 138.577371 357.246036 
L 138.704914 357.588914 
L 138.832457 357.588914 
L 138.96 357.931793 
L 139.278857 357.931793 
L 139.470171 358.61755 
L 139.789029 358.61755 
L 139.916571 358.960428 
L 140.044114 358.960428 
L 140.171657 359.303307 
L 140.618057 359.303307 
L 140.7456 359.646185 
L 141.000686 359.646185 
L 141.128229 359.989064 
L 141.383314 359.989064 
L 141.510857 361.017699 
L 141.574629 361.017699 
L 141.765943 361.703456 
L 141.829714 361.703456 
L 142.021029 362.389213 
L 142.148571 362.389213 
L 142.339886 363.760727 
L 142.403657 363.760727 
L 142.5312 364.103605 
L 142.594971 364.103605 
L 142.722514 364.446484 
L 142.850057 364.103605 
L 142.9776 364.446484 
L 143.105143 364.446484 
L 143.296457 365.132241 
L 143.487771 365.132241 
L 143.742857 366.160876 
L 143.997943 366.160876 
L 144.125486 366.503755 
L 144.571886 366.503755 
L 144.699429 366.846633 
L 145.2096 366.846633 
L 145.273371 367.189512 
L 145.400914 366.503755 
L 145.528457 367.189512 
L 145.847314 367.189512 
L 145.974857 367.53239 
L 146.1024 367.189512 
L 146.229943 367.53239 
L 146.357486 367.53239 
L 146.485029 367.189512 
L 146.740114 368.218147 
L 146.931429 371.304054 
L 146.9952 371.304054 
L 147.186514 374.38996 
L 147.250286 374.38996 
L 147.569143 378.161623 
L 147.632914 378.161623 
L 147.824229 380.218894 
L 147.888 380.218894 
L 148.079314 382.276165 
L 148.143086 382.276165 
L 148.3344 383.990558 
L 148.398171 383.990558 
L 148.589486 385.362072 
L 148.653257 385.362072 
L 148.972114 387.762221 
L 149.035886 387.762221 
L 149.290971 388.8 
L 273.517714 388.8 
L 274.091657 386.047829 
L 274.155429 386.047829 
L 274.346743 384.676315 
L 274.410514 384.676315 
L 274.601829 383.647679 
L 274.6656 383.647679 
L 274.856914 382.619044 
L 274.920686 382.619044 
L 275.112 381.590408 
L 275.175771 381.590408 
L 275.303314 380.904651 
L 275.430857 381.590408 
L 275.622171 380.561773 
L 275.685943 380.561773 
L 275.877257 379.876016 
L 275.941029 379.876016 
L 276.196114 378.84738 
L 276.323657 378.84738 
L 276.514971 377.818745 
L 276.578743 377.818745 
L 276.770057 376.790109 
L 276.833829 376.790109 
L 276.961371 377.132988 
L 277.152686 376.104352 
L 277.216457 376.104352 
L 277.535314 374.732839 
L 277.599086 374.732839 
L 277.726629 374.38996 
L 277.854171 374.732839 
L 278.045486 373.704203 
L 278.109257 373.704203 
L 278.364343 372.675568 
L 278.491886 372.675568 
L 278.619429 372.332689 
L 278.746971 372.332689 
L 278.938286 371.304054 
L 279.002057 371.304054 
L 279.193371 370.275418 
L 279.384686 370.275418 
L 279.576 368.903904 
L 279.639771 368.903904 
L 279.894857 367.875269 
L 280.149943 367.875269 
L 280.596343 365.817998 
L 280.660114 365.817998 
L 280.787657 365.475119 
L 280.9152 365.475119 
L 281.106514 364.446484 
L 281.170286 364.446484 
L 281.489143 363.07497 
L 281.680457 363.07497 
L 281.808 362.389213 
L 281.935543 362.389213 
L 282.126857 361.360578 
L 282.190629 361.360578 
L 282.318171 360.674821 
L 282.445714 360.674821 
L 282.637029 359.989064 
L 282.7008 359.989064 
L 282.892114 359.303307 
L 282.955886 359.303307 
L 283.1472 358.274671 
L 283.210971 358.274671 
L 283.338514 357.588914 
L 283.466057 357.588914 
L 283.5936 356.903157 
L 283.721143 356.903157 
L 283.912457 355.874522 
L 283.976229 355.874522 
L 284.167543 355.188765 
L 284.231314 355.188765 
L 284.358857 354.845886 
L 284.4864 354.845886 
L 284.613943 354.503008 
L 284.741486 354.503008 
L 284.869029 353.817251 
L 284.996571 354.160129 
L 285.187886 353.474372 
L 285.251657 353.474372 
L 285.570514 352.102858 
L 285.634286 352.102858 
L 285.8256 351.417101 
L 285.889371 351.417101 
L 286.016914 351.074223 
L 286.144457 351.074223 
L 286.272 350.731344 
L 286.399543 350.731344 
L 286.527086 350.388466 
L 286.654629 350.731344 
L 286.845943 350.045587 
L 286.909714 350.045587 
L 287.037257 349.702709 
L 287.1648 349.702709 
L 287.292343 349.359831 
L 287.356114 349.359831 
L 287.483657 348.674074 
L 287.547429 348.674074 
L 287.674971 349.016952 
L 287.866286 349.016952 
L 287.993829 348.674074 
L 288.121371 349.016952 
L 288.248914 348.674074 
L 288.376457 349.016952 
L 288.567771 349.016952 
L 288.886629 347.645438 
L 289.141714 347.645438 
L 289.269257 347.30256 
L 289.333029 347.30256 
L 289.460571 346.616803 
L 289.524343 346.959681 
L 289.651886 346.616803 
L 289.8432 346.616803 
L 290.098286 345.588167 
L 290.225829 345.931046 
L 290.2896 345.931046 
L 290.417143 346.959681 
L 290.608457 346.959681 
L 290.799771 346.273924 
L 291.309943 346.273924 
L 291.437486 345.931046 
L 291.565029 345.931046 
L 291.692571 345.588167 
L 291.820114 345.588167 
L 291.947657 346.616803 
L 292.011429 346.616803 
L 292.138971 346.273924 
L 292.266514 346.273924 
L 292.394057 345.931046 
L 292.5216 346.273924 
L 292.712914 345.245289 
L 292.776686 345.245289 
L 292.904229 345.588167 
L 293.095543 345.588167 
L 293.223086 345.245289 
L 293.350629 345.588167 
L 293.478171 345.588167 
L 293.605714 345.245289 
L 293.733257 345.245289 
L 293.8608 345.588167 
L 294.179657 344.216653 
L 294.243429 344.216653 
L 294.498514 345.245289 
L 294.562286 345.245289 
L 294.689829 344.90241 
L 294.817371 344.90241 
L 294.944914 344.559532 
L 295.072457 344.559532 
L 295.2 344.90241 
L 295.263771 344.90241 
L 295.391314 344.559532 
L 295.518857 344.559532 
L 295.6464 344.216653 
L 295.773943 345.245289 
L 295.901486 344.90241 
L 296.220343 344.90241 
L 296.347886 344.559532 
L 296.475429 344.559532 
L 296.666743 343.873775 
L 296.794286 344.90241 
L 296.921829 344.216653 
L 296.9856 344.216653 
L 297.113143 344.559532 
L 297.176914 344.559532 
L 297.368229 343.873775 
L 297.495771 343.873775 
L 297.623314 344.216653 
L 297.814629 344.216653 
L 297.942171 344.559532 
L 298.069714 344.559532 
L 298.197257 344.216653 
L 298.3248 344.216653 
L 298.452343 344.559532 
L 298.643657 344.559532 
L 298.7712 344.216653 
L 298.898743 344.216653 
L 299.090057 344.90241 
L 299.345143 344.90241 
L 299.472686 344.559532 
L 299.727771 344.559532 
L 299.855314 344.90241 
L 299.919086 344.90241 
L 300.046629 344.559532 
L 300.365486 344.559532 
L 300.493029 343.873775 
L 300.5568 344.216653 
L 300.684343 343.873775 
L 300.748114 343.873775 
L 300.875657 343.530896 
L 300.939429 343.530896 
L 301.0032 343.188018 
L 301.130743 344.216653 
L 301.258286 344.216653 
L 301.385829 343.873775 
L 301.832229 343.873775 
L 301.959771 343.530896 
L 302.023543 343.530896 
L 302.151086 344.216653 
L 302.533714 344.216653 
L 302.661257 343.873775 
L 302.725029 343.873775 
L 302.852571 344.216653 
L 303.107657 344.216653 
L 303.2352 344.559532 
L 303.362743 344.216653 
L 303.490286 344.559532 
L 303.554057 344.559532 
L 303.6816 344.216653 
L 303.936686 344.216653 
L 304.064229 343.873775 
L 304.128 343.873775 
L 304.255543 344.216653 
L 304.383086 344.216653 
L 304.510629 343.873775 
L 304.638171 343.873775 
L 304.765714 343.530896 
L 304.893257 343.530896 
L 305.0208 343.188018 
L 305.148343 343.530896 
L 305.212114 343.530896 
L 305.339657 343.873775 
L 305.4672 343.873775 
L 305.594743 343.530896 
L 305.722286 343.530896 
L 305.849829 343.188018 
L 305.9136 343.188018 
L 306.041143 343.530896 
L 306.551314 343.530896 
L 306.678857 343.188018 
L 306.933943 343.188018 
L 307.061486 342.845139 
L 307.189029 343.188018 
L 307.6992 343.188018 
L 307.826743 342.845139 
L 307.954286 342.845139 
L 308.081829 343.530896 
L 308.209371 343.188018 
L 308.592 343.188018 
L 308.719543 342.845139 
L 308.847086 342.845139 
L 308.974629 343.530896 
L 309.357257 343.530896 
L 309.4848 343.188018 
L 310.505143 343.188018 
L 310.632686 342.845139 
L 310.760229 342.845139 
L 310.887771 343.188018 
L 311.2704 343.188018 
L 311.397943 342.845139 
L 311.653029 342.845139 
L 311.780571 343.188018 
L 312.545829 343.188018 
L 312.673371 343.530896 
L 315.479314 343.530896 
L 315.606857 343.873775 
L 316.499657 343.873775 
L 316.6272 344.216653 
L 317.52 344.216653 
L 317.647543 344.559532 
L 318.030171 344.559532 
L 318.157714 344.90241 
L 318.285257 344.559532 
L 318.4128 344.90241 
L 318.922971 344.90241 
L 319.050514 345.245289 
L 320.1984 345.245289 
L 320.325943 345.588167 
L 321.601371 345.588167 
L 321.728914 345.931046 
L 322.111543 345.931046 
L 322.239086 346.273924 
L 322.8768 346.273924 
L 323.004343 346.616803 
L 323.514514 346.616803 
L 323.642057 346.959681 
L 324.534857 346.959681 
L 324.6624 347.30256 
L 325.682743 347.30256 
L 325.810286 347.645438 
L 326.575543 347.645438 
L 326.703086 347.988317 
L 327.3408 347.988317 
L 327.723429 350.045587 
L 327.914743 352.102858 
L 327.978514 352.102858 
L 328.169829 354.160129 
L 328.2336 354.160129 
L 328.424914 355.874522 
L 328.488686 355.874522 
L 328.68 357.588914 
L 328.743771 357.588914 
L 328.935086 359.303307 
L 328.998857 359.303307 
L 329.190171 361.360578 
L 329.253943 361.360578 
L 329.5728 363.760727 
L 329.636571 363.760727 
L 329.827886 365.475119 
L 329.891657 365.475119 
L 330.274286 368.561026 
L 330.338057 368.561026 
L 330.4656 369.246783 
L 330.529371 369.246783 
L 330.848229 376.447231 
L 330.912 376.447231 
L 331.103314 380.904651 
L 331.167086 380.904651 
L 331.3584 385.019193 
L 331.422171 385.019193 
L 331.613486 388.8 
L 518.4 388.8 
L 518.4 388.8 
" style="fill:none;stroke:#008000;stroke-linecap:square;"/>
   </g>
   <g id="line2d_2">
    <path clip-path="url(#p384054c3d2)" d="M 72.063771 388.8 
L 155.859429 388.8 
L 155.986971 382.050003 
L 156.050743 382.050003 
L 156.242057 368.55001 
L 156.305829 368.55001 
L 156.497143 355.050017 
L 156.560914 355.050017 
L 156.752229 341.550024 
L 156.816 341.550024 
L 157.007314 326.700032 
L 157.071086 326.700032 
L 157.2624 313.200039 
L 157.326171 313.200039 
L 157.517486 301.050045 
L 163.193143 301.050045 
L 163.320686 302.400044 
L 164.596114 302.400044 
L 164.723657 303.750044 
L 174.863314 303.750044 
L 174.990857 302.400044 
L 175.437257 302.400044 
L 175.5648 301.050045 
L 175.947429 301.050045 
L 176.074971 299.700046 
L 176.330057 299.700046 
L 176.4576 298.350046 
L 176.712686 298.350046 
L 176.840229 297.000047 
L 177.095314 297.000047 
L 177.222857 295.650048 
L 177.3504 295.650048 
L 177.669257 290.25005 
L 177.733029 290.25005 
L 178.051886 284.850053 
L 178.115657 284.850053 
L 178.306971 280.800055 
L 178.370743 280.800055 
L 178.562057 276.750057 
L 178.625829 276.750057 
L 178.817143 272.700059 
L 178.880914 272.700059 
L 179.136 265.950063 
L 179.199771 265.950063 
L 179.454857 259.200066 
L 179.518629 259.200066 
L 179.773714 252.45007 
L 180.0288 244.350074 
L 180.092571 244.350074 
L 180.411429 238.950077 
L 180.4752 238.950077 
L 180.794057 233.550079 
L 180.857829 233.550079 
L 181.176686 228.150082 
L 181.240457 228.150082 
L 181.368 226.800083 
L 181.431771 226.800083 
L 181.559314 222.750085 
L 181.623086 222.750085 
L 181.941943 217.350088 
L 182.005714 217.350088 
L 182.324571 211.950091 
L 182.388343 211.950091 
L 182.515886 207.900093 
L 182.7072 202.500095 
L 182.898514 198.450097 
L 183.026057 197.100098 
L 183.089829 197.100098 
L 183.281143 193.0501 
L 183.727543 184.950104 
L 183.791314 184.950104 
L 184.0464 180.900106 
L 184.110171 180.900106 
L 184.301486 178.200108 
L 184.365257 178.200108 
L 184.4928 175.500109 
L 184.556571 175.500109 
L 184.747886 172.800111 
L 184.811657 172.800111 
L 185.002971 170.100112 
L 185.066743 170.100112 
L 185.321829 163.350115 
L 185.3856 163.350115 
L 185.640686 159.300118 
L 185.704457 159.300118 
L 185.895771 155.25012 
L 185.959543 155.25012 
L 186.150857 151.200122 
L 186.342171 151.200122 
L 186.533486 147.150124 
L 186.7248 147.150124 
L 186.916114 143.100126 
L 186.979886 143.100126 
L 187.1712 140.400127 
L 187.234971 140.400127 
L 187.426286 137.700129 
L 187.6176 137.700129 
L 187.745143 135.00013 
L 187.872686 135.00013 
L 188.064 132.300131 
L 188.127771 132.300131 
L 188.319086 129.600133 
L 188.382857 129.600133 
L 188.574171 126.900134 
L 188.637943 126.900134 
L 188.829257 124.200135 
L 188.893029 124.200135 
L 189.084343 121.500137 
L 189.148114 121.500137 
L 189.339429 118.800138 
L 189.530743 118.800138 
L 189.722057 116.10014 
L 189.785829 116.10014 
L 189.977143 113.400141 
L 190.296 113.400141 
L 190.487314 110.700142 
L 190.551086 110.700142 
L 190.678629 109.350143 
L 190.806171 109.350143 
L 190.997486 106.650144 
L 191.061257 106.650144 
L 191.1888 103.950146 
L 191.443886 103.950146 
L 191.571429 101.250147 
L 191.698971 101.250147 
L 191.826514 99.900148 
L 191.890286 99.900148 
L 192.017829 98.550149 
L 192.145371 98.550149 
L 192.336686 95.85015 
L 192.400457 95.85015 
L 192.591771 93.150151 
L 192.783086 93.150151 
L 192.9744 90.450153 
L 193.165714 90.450153 
L 193.357029 87.750154 
L 193.4208 87.750154 
L 193.548343 86.400155 
L 193.675886 86.400155 
L 193.803429 85.050156 
L 193.930971 85.050156 
L 194.058514 83.700156 
L 194.3136 83.700156 
L 194.504914 79.650158 
L 194.568686 79.650158 
L 194.696229 78.300159 
L 195.078857 78.300159 
L 195.2064 76.95016 
L 195.333943 76.95016 
L 195.525257 74.250161 
L 195.589029 74.250161 
L 195.716571 72.900162 
L 195.907886 72.900162 
L 196.035429 71.550162 
L 196.162971 71.550162 
L 196.290514 70.200163 
L 196.418057 70.200163 
L 196.609371 67.500165 
L 196.800686 67.500165 
L 196.928229 66.150165 
L 197.055771 66.150165 
L 197.247086 60.750168 
L 197.502171 49.950173 
L 197.821029 49.950173 
L 198.012343 47.250175 
L 198.3312 47.250175 
L 198.458743 45.900176 
L 199.606629 45.900176 
L 199.734171 47.250175 
L 199.989257 47.250175 
L 200.1168 48.600174 
L 201.519771 48.600174 
L 201.647314 45.900176 
L 202.3488 45.900176 
L 202.476343 47.250175 
L 202.667657 47.250175 
L 202.7952 49.950173 
L 203.177829 49.950173 
L 203.305371 52.650172 
L 203.496686 52.650172 
L 203.624229 54.000171 
L 203.751771 54.000171 
L 203.879314 56.70017 
L 203.943086 56.70017 
L 204.070629 58.050169 
L 204.325714 58.050169 
L 204.453257 62.100167 
L 204.644571 62.100167 
L 204.772114 63.450167 
L 204.899657 63.450167 
L 205.0272 64.800166 
L 205.090971 64.800166 
L 205.282286 68.850164 
L 205.4736 68.850164 
L 205.601143 70.200163 
L 205.664914 70.200163 
L 205.856229 75.60016 
L 206.175086 75.60016 
L 206.3664 78.300159 
L 206.430171 78.300159 
L 206.621486 81.000158 
L 206.685257 81.000158 
L 206.876571 83.700156 
L 207.067886 83.700156 
L 207.2592 86.400155 
L 207.322971 86.400155 
L 207.514286 89.100153 
L 207.578057 89.100153 
L 207.769371 91.800152 
L 207.833143 91.800152 
L 208.024457 94.500151 
L 208.088229 94.500151 
L 208.279543 97.200149 
L 208.343314 97.200149 
L 208.534629 99.900148 
L 208.5984 99.900148 
L 208.789714 102.600147 
L 208.853486 102.600147 
L 209.0448 105.300145 
L 209.108571 105.300145 
L 209.299886 109.350143 
L 209.363657 109.350143 
L 209.554971 112.050142 
L 209.618743 112.050142 
L 209.9376 117.450139 
L 210.001371 117.450139 
L 210.192686 120.150138 
L 210.256457 120.150138 
L 210.447771 124.200135 
L 210.511543 124.200135 
L 210.8304 129.600133 
L 210.894171 129.600133 
L 211.213029 135.00013 
L 211.2768 135.00013 
L 211.595657 140.400127 
L 211.659429 140.400127 
L 211.850743 143.100126 
L 211.914514 143.100126 
L 212.105829 147.150124 
L 212.1696 147.150124 
L 212.424686 151.200122 
L 212.552229 151.200122 
L 212.743543 153.90012 
L 212.807314 153.90012 
L 212.998629 156.600119 
L 213.0624 156.600119 
L 213.253714 159.300118 
L 213.445029 159.300118 
L 213.572571 160.650117 
L 213.700114 160.650117 
L 213.827657 162.000116 
L 213.9552 162.000116 
L 214.082743 163.350115 
L 214.210286 163.350115 
L 214.337829 164.700115 
L 214.720457 164.700115 
L 214.848 166.050114 
L 216.123429 166.050114 
L 216.314743 168.750113 
L 216.378514 168.750113 
L 216.506057 171.450111 
L 216.6336 171.450111 
L 217.016229 178.200108 
L 217.143771 178.200108 
L 217.335086 180.900106 
L 217.398857 180.900106 
L 217.590171 186.300104 
L 217.909029 186.300104 
L 218.100343 190.350102 
L 218.164114 190.350102 
L 218.355429 194.4001 
L 218.674286 194.4001 
L 218.993143 199.800097 
L 219.056914 199.800097 
L 219.184457 201.150096 
L 219.439543 201.150096 
L 219.630857 203.850095 
L 219.694629 203.850095 
L 219.885943 206.550093 
L 219.949714 206.550093 
L 220.077257 209.250092 
L 220.459886 209.250092 
L 220.6512 211.950091 
L 220.842514 211.950091 
L 220.970057 214.650089 
L 221.0976 214.650089 
L 221.225143 216.000088 
L 221.607771 216.000088 
L 221.799086 218.700087 
L 222.117943 218.700087 
L 222.373029 211.950091 
L 222.500571 210.600091 
L 222.628114 210.600091 
L 222.819429 206.550093 
L 226.581943 206.550093 
L 226.709486 207.900093 
L 227.092114 207.900093 
L 227.219657 209.250092 
L 227.602286 209.250092 
L 227.729829 210.600091 
L 232.066286 210.600091 
L 232.193829 211.950091 
L 233.979429 211.950091 
L 234.106971 213.30009 
L 235.701257 213.30009 
L 235.8288 214.650089 
L 237.678171 214.650089 
L 237.805714 216.000088 
L 239.463771 216.000088 
L 239.591314 217.350088 
L 241.440686 217.350088 
L 241.568229 218.700087 
L 243.353829 218.700087 
L 243.481371 220.050086 
L 245.011886 220.050086 
L 245.139429 221.400086 
L 246.5424 221.400086 
L 246.669943 222.750085 
L 248.200457 222.750085 
L 248.328 224.100084 
L 250.241143 224.100084 
L 250.368686 225.450084 
L 252.409371 225.450084 
L 252.536914 226.800083 
L 254.322514 226.800083 
L 254.450057 228.150082 
L 256.235657 228.150082 
L 256.3632 229.500082 
L 258.467657 229.500082 
L 258.5952 230.850081 
L 260.3808 230.850081 
L 260.508343 232.20008 
L 262.293943 232.20008 
L 262.421486 233.550079 
L 263.696914 233.550079 
L 263.824457 236.250078 
L 263.952 236.250078 
L 264.143314 238.950077 
L 264.334629 238.950077 
L 264.525943 245.700073 
L 264.589714 245.700073 
L 264.8448 249.750071 
L 264.972343 249.750071 
L 265.099886 251.100071 
L 265.227429 251.100071 
L 265.418743 255.150068 
L 265.610057 255.150068 
L 265.7376 257.850067 
L 265.865143 257.850067 
L 266.311543 265.950063 
L 266.375314 265.950063 
L 266.6304 270.000061 
L 266.757943 270.000061 
L 267.204343 278.100057 
L 267.395657 278.100057 
L 267.5232 280.800055 
L 267.586971 280.800055 
L 267.778286 287.550052 
L 267.842057 287.550052 
L 267.9696 288.900051 
L 268.033371 288.900051 
L 268.224686 291.60005 
L 268.288457 291.60005 
L 268.543543 298.350046 
L 268.671086 298.350046 
L 268.8624 302.400044 
L 268.926171 302.400044 
L 269.117486 307.800041 
L 269.3088 307.800041 
L 269.818971 317.250037 
L 269.946514 317.250037 
L 270.137829 324.000033 
L 271.859657 324.000033 
L 271.9872 325.350032 
L 272.242286 325.350032 
L 272.4336 328.050031 
L 272.624914 328.050031 
L 272.816229 330.75003 
L 273.007543 330.75003 
L 273.135086 332.100029 
L 273.262629 388.8 
L 334.228114 388.8 
L 334.738286 365.850012 
L 334.9296 351.000019 
L 334.993371 351.000019 
L 335.184686 337.500026 
L 335.248457 337.500026 
L 335.439771 324.000033 
L 335.503543 324.000033 
L 335.694857 310.50004 
L 335.758629 310.50004 
L 335.949943 295.650048 
L 336.013714 295.650048 
L 336.141257 288.900051 
L 336.2688 287.550052 
L 336.332571 287.550052 
L 336.460114 286.200053 
L 336.778971 286.200053 
L 336.906514 284.850053 
L 337.034057 284.850053 
L 337.1616 283.500054 
L 337.416686 283.500054 
L 337.544229 282.150055 
L 337.799314 282.150055 
L 337.926857 280.800055 
L 338.0544 280.800055 
L 338.181943 279.450056 
L 338.437029 279.450056 
L 338.564571 278.100057 
L 338.819657 278.100057 
L 338.9472 276.750057 
L 339.202286 276.750057 
L 339.329829 275.400058 
L 339.584914 275.400058 
L 339.712457 274.050059 
L 340.095086 274.050059 
L 340.222629 272.700059 
L 340.477714 272.700059 
L 340.605257 271.35006 
L 340.796571 271.35006 
L 340.924114 270.000061 
L 341.051657 270.000061 
L 341.242971 267.300062 
L 341.306743 267.300062 
L 341.434286 265.950063 
L 341.6256 265.950063 
L 341.753143 264.600064 
L 341.816914 264.600064 
L 342.008229 261.900065 
L 342.135771 261.900065 
L 342.263314 260.550066 
L 342.454629 260.550066 
L 342.582171 259.200066 
L 342.901029 259.200066 
L 343.028571 257.850067 
L 343.283657 257.850067 
L 343.4112 256.500068 
L 343.985143 256.500068 
L 344.112686 255.150068 
L 344.367771 255.150068 
L 344.495314 253.800069 
L 345.005486 253.800069 
L 345.133029 252.45007 
L 345.834514 252.45007 
L 345.962057 251.100071 
L 346.344686 251.100071 
L 346.472229 249.750071 
L 346.918629 249.750071 
L 347.046171 248.400072 
L 347.620114 248.400072 
L 347.747657 247.050073 
L 348.194057 247.050073 
L 348.3216 245.700073 
L 348.385371 245.700073 
L 348.576686 243.000075 
L 348.640457 243.000075 
L 348.895543 238.950077 
L 348.959314 238.950077 
L 349.150629 233.550079 
L 349.341943 233.550079 
L 349.469486 232.20008 
L 349.852114 232.20008 
L 349.979657 230.850081 
L 352.084114 230.850081 
L 352.211657 229.500082 
L 353.104457 229.500082 
L 353.232 228.150082 
L 353.869714 228.150082 
L 353.997257 226.800083 
L 359.098971 226.800083 
L 359.226514 229.500082 
L 359.417829 229.500082 
L 359.545371 230.850081 
L 359.736686 230.850081 
L 359.864229 232.20008 
L 359.928 232.20008 
L 360.055543 233.550079 
L 360.246857 233.550079 
L 360.3744 234.900079 
L 360.565714 234.900079 
L 360.693257 236.250078 
L 360.884571 236.250078 
L 361.012114 237.600077 
L 361.203429 237.600077 
L 361.330971 238.950077 
L 361.394743 238.950077 
L 361.522286 240.300076 
L 361.7136 240.300076 
L 361.841143 241.650075 
L 362.351314 241.650075 
L 362.478857 243.000075 
L 362.542629 243.000075 
L 362.670171 244.350074 
L 362.861486 244.350074 
L 362.989029 245.700073 
L 363.180343 245.700073 
L 363.307886 247.050073 
L 363.690514 247.050073 
L 363.818057 248.400072 
L 363.881829 248.400072 
L 364.009371 249.750071 
L 364.647086 249.750071 
L 364.774629 251.100071 
L 365.476114 251.100071 
L 365.603657 252.45007 
L 365.986286 252.45007 
L 366.113829 253.800069 
L 366.1776 253.800069 
L 366.305143 255.150068 
L 366.687771 255.150068 
L 366.815314 256.500068 
L 367.197943 256.500068 
L 367.325486 257.850067 
L 367.580571 257.850067 
L 367.708114 259.200066 
L 367.899429 259.200066 
L 368.026971 260.550066 
L 370.960457 260.550066 
L 371.088 259.200066 
L 371.470629 259.200066 
L 371.598171 257.850067 
L 371.9808 257.850067 
L 372.108343 256.500068 
L 372.363429 256.500068 
L 372.490971 255.150068 
L 372.8736 255.150068 
L 373.001143 253.800069 
L 373.256229 253.800069 
L 373.383771 252.45007 
L 373.7664 252.45007 
L 373.893943 251.100071 
L 374.276571 251.100071 
L 374.404114 249.750071 
L 374.6592 249.750071 
L 374.786743 248.400072 
L 375.169371 248.400072 
L 375.296914 247.050073 
L 375.424457 247.050073 
L 375.552 245.700073 
L 375.934629 245.700073 
L 376.062171 244.350074 
L 376.317257 244.350074 
L 376.4448 243.000075 
L 376.572343 243.000075 
L 376.699886 241.650075 
L 376.954971 241.650075 
L 377.082514 240.300076 
L 377.3376 240.300076 
L 377.465143 238.950077 
L 377.720229 238.950077 
L 377.847771 237.600077 
L 378.102857 237.600077 
L 378.2304 236.250078 
L 378.357943 236.250078 
L 378.485486 234.900079 
L 378.740571 234.900079 
L 378.868114 233.550079 
L 379.1232 233.550079 
L 379.250743 232.20008 
L 379.378286 232.20008 
L 379.505829 230.850081 
L 379.633371 230.850081 
L 379.760914 229.500082 
L 380.016 229.500082 
L 380.143543 228.150082 
L 380.398629 228.150082 
L 380.526171 226.800083 
L 380.653714 226.800083 
L 380.781257 225.450084 
L 380.9088 225.450084 
L 381.036343 224.100084 
L 381.163886 224.100084 
L 381.291429 222.750085 
L 381.546514 222.750085 
L 381.674057 221.400086 
L 381.8016 221.400086 
L 381.929143 220.050086 
L 382.056686 220.050086 
L 382.184229 218.700087 
L 382.311771 218.700087 
L 382.439314 217.350088 
L 382.566857 217.350088 
L 382.6944 216.000088 
L 382.949486 216.000088 
L 383.077029 214.650089 
L 383.204571 214.650089 
L 383.332114 213.30009 
L 383.459657 213.30009 
L 383.5872 211.950091 
L 383.714743 211.950091 
L 383.906057 209.250092 
L 384.097371 209.250092 
L 384.224914 207.900093 
L 384.352457 207.900093 
L 384.48 206.550093 
L 384.735086 206.550093 
L 384.9264 203.850095 
L 385.117714 203.850095 
L 385.245257 202.500095 
L 385.3728 202.500095 
L 385.500343 201.150096 
L 385.627886 201.150096 
L 385.8192 198.450097 
L 386.010514 198.450097 
L 386.138057 197.100098 
L 386.2656 197.100098 
L 386.393143 195.750099 
L 386.520686 195.750099 
L 386.648229 194.4001 
L 386.775771 194.4001 
L 386.903314 193.0501 
L 387.030857 193.0501 
L 387.222171 190.350102 
L 387.413486 190.350102 
L 387.541029 189.000102 
L 387.668571 189.000102 
L 387.859886 186.300104 
L 388.0512 186.300104 
L 388.242514 183.600105 
L 388.433829 183.600105 
L 388.625143 180.900106 
L 388.816457 180.900106 
L 388.944 179.550107 
L 389.071543 179.550107 
L 389.262857 176.850109 
L 389.454171 176.850109 
L 389.645486 174.15011 
L 389.8368 174.15011 
L 389.964343 172.800111 
L 390.091886 172.800111 
L 390.2832 170.100112 
L 390.346971 170.100112 
L 390.474514 168.750113 
L 390.602057 168.750113 
L 390.793371 166.050114 
L 390.857143 166.050114 
L 391.048457 163.350115 
L 391.239771 163.350115 
L 391.367314 160.650117 
L 391.494857 160.650117 
L 391.6224 159.300118 
L 391.749943 159.300118 
L 391.941257 156.600119 
L 392.005029 156.600119 
L 392.451429 148.500123 
L 392.5152 148.500123 
L 392.9616 140.400127 
L 393.025371 140.400127 
L 393.152914 139.050128 
L 393.280457 139.050128 
L 393.535543 135.00013 
L 393.599314 135.00013 
L 393.726857 133.650131 
L 394.492114 133.650131 
L 394.619657 132.300131 
L 395.002286 132.300131 
L 395.129829 130.950132 
L 395.257371 130.950132 
L 395.384914 129.600133 
L 395.767543 129.600133 
L 395.958857 126.900134 
L 396.022629 126.900134 
L 396.213943 124.200135 
L 396.277714 124.200135 
L 396.469029 121.500137 
L 396.5328 121.500137 
L 396.851657 116.10014 
L 396.9792 116.10014 
L 397.106743 114.75014 
L 518.4 114.75014 
L 518.4 114.75014 
" style="fill:none;stroke:#ff0000;stroke-linecap:square;"/>
   </g>
   <g id="patch_3">
    <path d="M 72 43.2 
L 518.4 43.2 
" style="fill:none;stroke:#000000;stroke-linecap:square;stroke-linejoin:miter;"/>
   </g>
   <g id="patch_4">
    <path d="M 518.4 388.8 
L 518.4 43.2 
" style="fill:none;stroke:#000000;stroke-linecap:square;stroke-linejoin:miter;"/>
   </g>
   <g id="patch_5">
    <path d="M 72 388.8 
L 518.4 388.8 
" style="fill:none;stroke:#000000;stroke-linecap:square;stroke-linejoin:miter;"/>
   </g>
   <g id="patch_6">
    <path d="M 72 388.8 
L 72 43.2 
" style="fill:none;stroke:#000000;stroke-linecap:square;stroke-linejoin:miter;"/>
   </g>
   <g id="matplotlib.axis_1">
    <g id="xtick_1">
     <g id="line2d_3">
      <path clip-path="url(#p384054c3d2)" d="M 72 388.8 
L 72 43.2 
" style="fill:none;stroke:#000000;stroke-dasharray:1.000000,3.000000;stroke-dashoffset:0.0;stroke-width:0.5;"/>
     </g>
     <g id="line2d_4">
      <defs>
       <path d="M 0 0 
L 0 -4 
" id="m59d2b5657b" style="stroke:#000000;stroke-width:0.5;"/>
      </defs>
      <g>
       <use style="stroke:#000000;stroke-width:0.5;" x="72.0" xlink:href="#m59d2b5657b" y="388.8"/>
      </g>
     </g>
     <g id="line2d_5">
      <defs>
       <path d="M 0 0 
L 0 4 
" id="me209242abe" style="stroke:#000000;stroke-width:0.5;"/>
      </defs>
      <g>
       <use style="stroke:#000000;stroke-width:0.5;" x="72.0" xlink:href="#me209242abe" y="43.2"/>
      </g>
     </g>
     <g id="text_1">
      <!-- 0 -->
      <defs>
       <path d="M 31.78125 66.40625 
Q 24.171875 66.40625 20.328125 58.90625 
Q 16.5 51.421875 16.5 36.375 
Q 16.5 21.390625 20.328125 13.890625 
Q 24.171875 6.390625 31.78125 6.390625 
Q 39.453125 6.390625 43.28125 13.890625 
Q 47.125 21.390625 47.125 36.375 
Q 47.125 51.421875 43.28125 58.90625 
Q 39.453125 66.40625 31.78125 66.40625 
M 31.78125 74.21875 
Q 44.046875 74.21875 50.515625 64.515625 
Q 56.984375 54.828125 56.984375 36.375 
Q 56.984375 17.96875 50.515625 8.265625 
Q 44.046875 -1.421875 31.78125 -1.421875 
Q 19.53125 -1.421875 13.0625 8.265625 
Q 6.59375 17.96875 6.59375 36.375 
Q 6.59375 54.828125 13.0625 64.515625 
Q 19.53125 74.21875 31.78125 74.21875 
" id="BitstreamVeraSans-Roman-30"/>
      </defs>
      <g transform="translate(68.1825 401.918125)scale(0.12 -0.12)">
       <use xlink:href="#BitstreamVeraSans-Roman-30"/>
      </g>
     </g>
    </g>
    <g id="xtick_2">
     <g id="line2d_6">
      <path clip-path="url(#p384054c3d2)" d="M 135.771429 388.8 
L 135.771429 43.2 
" style="fill:none;stroke:#000000;stroke-dasharray:1.000000,3.000000;stroke-dashoffset:0.0;stroke-width:0.5;"/>
     </g>
     <g id="line2d_7">
      <g>
       <use style="stroke:#000000;stroke-width:0.5;" x="135.771428571" xlink:href="#m59d2b5657b" y="388.8"/>
      </g>
     </g>
     <g id="line2d_8">
      <g>
       <use style="stroke:#000000;stroke-width:0.5;" x="135.771428571" xlink:href="#me209242abe" y="43.2"/>
      </g>
     </g>
     <g id="text_2">
      <!-- 10 -->
      <defs>
       <path d="M 12.40625 8.296875 
L 28.515625 8.296875 
L 28.515625 63.921875 
L 10.984375 60.40625 
L 10.984375 69.390625 
L 28.421875 72.90625 
L 38.28125 72.90625 
L 38.28125 8.296875 
L 54.390625 8.296875 
L 54.390625 0 
L 12.40625 0 
z
" id="BitstreamVeraSans-Roman-31"/>
      </defs>
      <g transform="translate(128.136428571 401.918125)scale(0.12 -0.12)">
       <use xlink:href="#BitstreamVeraSans-Roman-31"/>
       <use x="63.623046875" xlink:href="#BitstreamVeraSans-Roman-30"/>
      </g>
     </g>
    </g>
    <g id="xtick_3">
     <g id="line2d_9">
      <path clip-path="url(#p384054c3d2)" d="M 199.542857 388.8 
L 199.542857 43.2 
" style="fill:none;stroke:#000000;stroke-dasharray:1.000000,3.000000;stroke-dashoffset:0.0;stroke-width:0.5;"/>
     </g>
     <g id="line2d_10">
      <g>
       <use style="stroke:#000000;stroke-width:0.5;" x="199.542857143" xlink:href="#m59d2b5657b" y="388.8"/>
      </g>
     </g>
     <g id="line2d_11">
      <g>
       <use style="stroke:#000000;stroke-width:0.5;" x="199.542857143" xlink:href="#me209242abe" y="43.2"/>
      </g>
     </g>
     <g id="text_3">
      <!-- 20 -->
      <defs>
       <path d="M 19.1875 8.296875 
L 53.609375 8.296875 
L 53.609375 0 
L 7.328125 0 
L 7.328125 8.296875 
Q 12.9375 14.109375 22.625 23.890625 
Q 32.328125 33.6875 34.8125 36.53125 
Q 39.546875 41.84375 41.421875 45.53125 
Q 43.3125 49.21875 43.3125 52.78125 
Q 43.3125 58.59375 39.234375 62.25 
Q 35.15625 65.921875 28.609375 65.921875 
Q 23.96875 65.921875 18.8125 64.3125 
Q 13.671875 62.703125 7.8125 59.421875 
L 7.8125 69.390625 
Q 13.765625 71.78125 18.9375 73 
Q 24.125 74.21875 28.421875 74.21875 
Q 39.75 74.21875 46.484375 68.546875 
Q 53.21875 62.890625 53.21875 53.421875 
Q 53.21875 48.921875 51.53125 44.890625 
Q 49.859375 40.875 45.40625 35.40625 
Q 44.1875 33.984375 37.640625 27.21875 
Q 31.109375 20.453125 19.1875 8.296875 
" id="BitstreamVeraSans-Roman-32"/>
      </defs>
      <g transform="translate(191.907857143 401.918125)scale(0.12 -0.12)">
       <use xlink:href="#BitstreamVeraSans-Roman-32"/>
       <use x="63.623046875" xlink:href="#BitstreamVeraSans-Roman-30"/>
      </g>
     </g>
    </g>
    <g id="xtick_4">
     <g id="line2d_12">
      <path clip-path="url(#p384054c3d2)" d="M 263.314286 388.8 
L 263.314286 43.2 
" style="fill:none;stroke:#000000;stroke-dasharray:1.000000,3.000000;stroke-dashoffset:0.0;stroke-width:0.5;"/>
     </g>
     <g id="line2d_13">
      <g>
       <use style="stroke:#000000;stroke-width:0.5;" x="263.314285714" xlink:href="#m59d2b5657b" y="388.8"/>
      </g>
     </g>
     <g id="line2d_14">
      <g>
       <use style="stroke:#000000;stroke-width:0.5;" x="263.314285714" xlink:href="#me209242abe" y="43.2"/>
      </g>
     </g>
     <g id="text_4">
      <!-- 30 -->
      <defs>
       <path d="M 40.578125 39.3125 
Q 47.65625 37.796875 51.625 33 
Q 55.609375 28.21875 55.609375 21.1875 
Q 55.609375 10.40625 48.1875 4.484375 
Q 40.765625 -1.421875 27.09375 -1.421875 
Q 22.515625 -1.421875 17.65625 -0.515625 
Q 12.796875 0.390625 7.625 2.203125 
L 7.625 11.71875 
Q 11.71875 9.328125 16.59375 8.109375 
Q 21.484375 6.890625 26.8125 6.890625 
Q 36.078125 6.890625 40.9375 10.546875 
Q 45.796875 14.203125 45.796875 21.1875 
Q 45.796875 27.640625 41.28125 31.265625 
Q 36.765625 34.90625 28.71875 34.90625 
L 20.21875 34.90625 
L 20.21875 43.015625 
L 29.109375 43.015625 
Q 36.375 43.015625 40.234375 45.921875 
Q 44.09375 48.828125 44.09375 54.296875 
Q 44.09375 59.90625 40.109375 62.90625 
Q 36.140625 65.921875 28.71875 65.921875 
Q 24.65625 65.921875 20.015625 65.03125 
Q 15.375 64.15625 9.8125 62.3125 
L 9.8125 71.09375 
Q 15.4375 72.65625 20.34375 73.4375 
Q 25.25 74.21875 29.59375 74.21875 
Q 40.828125 74.21875 47.359375 69.109375 
Q 53.90625 64.015625 53.90625 55.328125 
Q 53.90625 49.265625 50.4375 45.09375 
Q 46.96875 40.921875 40.578125 39.3125 
" id="BitstreamVeraSans-Roman-33"/>
      </defs>
      <g transform="translate(255.679285714 401.918125)scale(0.12 -0.12)">
       <use xlink:href="#BitstreamVeraSans-Roman-33"/>
       <use x="63.623046875" xlink:href="#BitstreamVeraSans-Roman-30"/>
      </g>
     </g>
    </g>
    <g id="xtick_5">
     <g id="line2d_15">
      <path clip-path="url(#p384054c3d2)" d="M 327.085714 388.8 
L 327.085714 43.2 
" style="fill:none;stroke:#000000;stroke-dasharray:1.000000,3.000000;stroke-dashoffset:0.0;stroke-width:0.5;"/>
     </g>
     <g id="line2d_16">
      <g>
       <use style="stroke:#000000;stroke-width:0.5;" x="327.085714286" xlink:href="#m59d2b5657b" y="388.8"/>
      </g>
     </g>
     <g id="line2d_17">
      <g>
       <use style="stroke:#000000;stroke-width:0.5;" x="327.085714286" xlink:href="#me209242abe" y="43.2"/>
      </g>
     </g>
     <g id="text_5">
      <!-- 40 -->
      <defs>
       <path d="M 37.796875 64.3125 
L 12.890625 25.390625 
L 37.796875 25.390625 
z
M 35.203125 72.90625 
L 47.609375 72.90625 
L 47.609375 25.390625 
L 58.015625 25.390625 
L 58.015625 17.1875 
L 47.609375 17.1875 
L 47.609375 0 
L 37.796875 0 
L 37.796875 17.1875 
L 4.890625 17.1875 
L 4.890625 26.703125 
z
" id="BitstreamVeraSans-Roman-34"/>
      </defs>
      <g transform="translate(319.450714286 401.918125)scale(0.12 -0.12)">
       <use xlink:href="#BitstreamVeraSans-Roman-34"/>
       <use x="63.623046875" xlink:href="#BitstreamVeraSans-Roman-30"/>
      </g>
     </g>
    </g>
    <g id="xtick_6">
     <g id="line2d_18">
      <path clip-path="url(#p384054c3d2)" d="M 390.857143 388.8 
L 390.857143 43.2 
" style="fill:none;stroke:#000000;stroke-dasharray:1.000000,3.000000;stroke-dashoffset:0.0;stroke-width:0.5;"/>
     </g>
     <g id="line2d_19">
      <g>
       <use style="stroke:#000000;stroke-width:0.5;" x="390.857142857" xlink:href="#m59d2b5657b" y="388.8"/>
      </g>
     </g>
     <g id="line2d_20">
      <g>
       <use style="stroke:#000000;stroke-width:0.5;" x="390.857142857" xlink:href="#me209242abe" y="43.2"/>
      </g>
     </g>
     <g id="text_6">
      <!-- 50 -->
      <defs>
       <path d="M 10.796875 72.90625 
L 49.515625 72.90625 
L 49.515625 64.59375 
L 19.828125 64.59375 
L 19.828125 46.734375 
Q 21.96875 47.46875 24.109375 47.828125 
Q 26.265625 48.1875 28.421875 48.1875 
Q 40.625 48.1875 47.75 41.5 
Q 54.890625 34.8125 54.890625 23.390625 
Q 54.890625 11.625 47.5625 5.09375 
Q 40.234375 -1.421875 26.90625 -1.421875 
Q 22.3125 -1.421875 17.546875 -0.640625 
Q 12.796875 0.140625 7.71875 1.703125 
L 7.71875 11.625 
Q 12.109375 9.234375 16.796875 8.0625 
Q 21.484375 6.890625 26.703125 6.890625 
Q 35.15625 6.890625 40.078125 11.328125 
Q 45.015625 15.765625 45.015625 23.390625 
Q 45.015625 31 40.078125 35.4375 
Q 35.15625 39.890625 26.703125 39.890625 
Q 22.75 39.890625 18.8125 39.015625 
Q 14.890625 38.140625 10.796875 36.28125 
z
" id="BitstreamVeraSans-Roman-35"/>
      </defs>
      <g transform="translate(383.222142857 401.918125)scale(0.12 -0.12)">
       <use xlink:href="#BitstreamVeraSans-Roman-35"/>
       <use x="63.623046875" xlink:href="#BitstreamVeraSans-Roman-30"/>
      </g>
     </g>
    </g>
    <g id="xtick_7">
     <g id="line2d_21">
      <path clip-path="url(#p384054c3d2)" d="M 454.628571 388.8 
L 454.628571 43.2 
" style="fill:none;stroke:#000000;stroke-dasharray:1.000000,3.000000;stroke-dashoffset:0.0;stroke-width:0.5;"/>
     </g>
     <g id="line2d_22">
      <g>
       <use style="stroke:#000000;stroke-width:0.5;" x="454.628571429" xlink:href="#m59d2b5657b" y="388.8"/>
      </g>
     </g>
     <g id="line2d_23">
      <g>
       <use style="stroke:#000000;stroke-width:0.5;" x="454.628571429" xlink:href="#me209242abe" y="43.2"/>
      </g>
     </g>
     <g id="text_7">
      <!-- 60 -->
      <defs>
       <path d="M 33.015625 40.375 
Q 26.375 40.375 22.484375 35.828125 
Q 18.609375 31.296875 18.609375 23.390625 
Q 18.609375 15.53125 22.484375 10.953125 
Q 26.375 6.390625 33.015625 6.390625 
Q 39.65625 6.390625 43.53125 10.953125 
Q 47.40625 15.53125 47.40625 23.390625 
Q 47.40625 31.296875 43.53125 35.828125 
Q 39.65625 40.375 33.015625 40.375 
M 52.59375 71.296875 
L 52.59375 62.3125 
Q 48.875 64.0625 45.09375 64.984375 
Q 41.3125 65.921875 37.59375 65.921875 
Q 27.828125 65.921875 22.671875 59.328125 
Q 17.53125 52.734375 16.796875 39.40625 
Q 19.671875 43.65625 24.015625 45.921875 
Q 28.375 48.1875 33.59375 48.1875 
Q 44.578125 48.1875 50.953125 41.515625 
Q 57.328125 34.859375 57.328125 23.390625 
Q 57.328125 12.15625 50.6875 5.359375 
Q 44.046875 -1.421875 33.015625 -1.421875 
Q 20.359375 -1.421875 13.671875 8.265625 
Q 6.984375 17.96875 6.984375 36.375 
Q 6.984375 53.65625 15.1875 63.9375 
Q 23.390625 74.21875 37.203125 74.21875 
Q 40.921875 74.21875 44.703125 73.484375 
Q 48.484375 72.75 52.59375 71.296875 
" id="BitstreamVeraSans-Roman-36"/>
      </defs>
      <g transform="translate(446.993571429 401.918125)scale(0.12 -0.12)">
       <use xlink:href="#BitstreamVeraSans-Roman-36"/>
       <use x="63.623046875" xlink:href="#BitstreamVeraSans-Roman-30"/>
      </g>
     </g>
    </g>
    <g id="xtick_8">
     <g id="line2d_24">
      <path clip-path="url(#p384054c3d2)" d="M 518.4 388.8 
L 518.4 43.2 
" style="fill:none;stroke:#000000;stroke-dasharray:1.000000,3.000000;stroke-dashoffset:0.0;stroke-width:0.5;"/>
     </g>
     <g id="line2d_25">
      <g>
       <use style="stroke:#000000;stroke-width:0.5;" x="518.4" xlink:href="#m59d2b5657b" y="388.8"/>
      </g>
     </g>
     <g id="line2d_26">
      <g>
       <use style="stroke:#000000;stroke-width:0.5;" x="518.4" xlink:href="#me209242abe" y="43.2"/>
      </g>
     </g>
     <g id="text_8">
      <!-- 70 -->
      <defs>
       <path d="M 8.203125 72.90625 
L 55.078125 72.90625 
L 55.078125 68.703125 
L 28.609375 0 
L 18.3125 0 
L 43.21875 64.59375 
L 8.203125 64.59375 
z
" id="BitstreamVeraSans-Roman-37"/>
      </defs>
      <g transform="translate(510.765 401.918125)scale(0.12 -0.12)">
       <use xlink:href="#BitstreamVeraSans-Roman-37"/>
       <use x="63.623046875" xlink:href="#BitstreamVeraSans-Roman-30"/>
      </g>
     </g>
    </g>
    <g id="text_9">
     <!-- Time [s] -->
     <defs>
      <path id="BitstreamVeraSans-Roman-20"/>
      <path d="M 8.59375 75.984375 
L 29.296875 75.984375 
L 29.296875 69 
L 17.578125 69 
L 17.578125 -6.203125 
L 29.296875 -6.203125 
L 29.296875 -13.1875 
L 8.59375 -13.1875 
z
" id="BitstreamVeraSans-Roman-5b"/>
      <path d="M 30.421875 75.984375 
L 30.421875 -13.1875 
L 9.71875 -13.1875 
L 9.71875 -6.203125 
L 21.390625 -6.203125 
L 21.390625 69 
L 9.71875 69 
L 9.71875 75.984375 
z
" id="BitstreamVeraSans-Roman-5d"/>
      <path d="M 52 44.1875 
Q 55.375 50.25 60.0625 53.125 
Q 64.75 56 71.09375 56 
Q 79.640625 56 84.28125 50.015625 
Q 88.921875 44.046875 88.921875 33.015625 
L 88.921875 0 
L 79.890625 0 
L 79.890625 32.71875 
Q 79.890625 40.578125 77.09375 44.375 
Q 74.3125 48.1875 68.609375 48.1875 
Q 61.625 48.1875 57.5625 43.546875 
Q 53.515625 38.921875 53.515625 30.90625 
L 53.515625 0 
L 44.484375 0 
L 44.484375 32.71875 
Q 44.484375 40.625 41.703125 44.40625 
Q 38.921875 48.1875 33.109375 48.1875 
Q 26.21875 48.1875 22.15625 43.53125 
Q 18.109375 38.875 18.109375 30.90625 
L 18.109375 0 
L 9.078125 0 
L 9.078125 54.6875 
L 18.109375 54.6875 
L 18.109375 46.1875 
Q 21.1875 51.21875 25.484375 53.609375 
Q 29.78125 56 35.6875 56 
Q 41.65625 56 45.828125 52.96875 
Q 50 49.953125 52 44.1875 
" id="BitstreamVeraSans-Roman-6d"/>
      <path d="M 9.421875 54.6875 
L 18.40625 54.6875 
L 18.40625 0 
L 9.421875 0 
z
M 9.421875 75.984375 
L 18.40625 75.984375 
L 18.40625 64.59375 
L 9.421875 64.59375 
z
" id="BitstreamVeraSans-Roman-69"/>
      <path d="M 56.203125 29.59375 
L 56.203125 25.203125 
L 14.890625 25.203125 
Q 15.484375 15.921875 20.484375 11.0625 
Q 25.484375 6.203125 34.421875 6.203125 
Q 39.59375 6.203125 44.453125 7.46875 
Q 49.3125 8.734375 54.109375 11.28125 
L 54.109375 2.78125 
Q 49.265625 0.734375 44.1875 -0.34375 
Q 39.109375 -1.421875 33.890625 -1.421875 
Q 20.796875 -1.421875 13.15625 6.1875 
Q 5.515625 13.8125 5.515625 26.8125 
Q 5.515625 40.234375 12.765625 48.109375 
Q 20.015625 56 32.328125 56 
Q 43.359375 56 49.78125 48.890625 
Q 56.203125 41.796875 56.203125 29.59375 
M 47.21875 32.234375 
Q 47.125 39.59375 43.09375 43.984375 
Q 39.0625 48.390625 32.421875 48.390625 
Q 24.90625 48.390625 20.390625 44.140625 
Q 15.875 39.890625 15.1875 32.171875 
z
" id="BitstreamVeraSans-Roman-65"/>
      <path d="M -0.296875 72.90625 
L 61.375 72.90625 
L 61.375 64.59375 
L 35.5 64.59375 
L 35.5 0 
L 25.59375 0 
L 25.59375 64.59375 
L -0.296875 64.59375 
z
" id="BitstreamVeraSans-Roman-54"/>
      <path d="M 44.28125 53.078125 
L 44.28125 44.578125 
Q 40.484375 46.53125 36.375 47.5 
Q 32.28125 48.484375 27.875 48.484375 
Q 21.1875 48.484375 17.84375 46.4375 
Q 14.5 44.390625 14.5 40.28125 
Q 14.5 37.15625 16.890625 35.375 
Q 19.28125 33.59375 26.515625 31.984375 
L 29.59375 31.296875 
Q 39.15625 29.25 43.1875 25.515625 
Q 47.21875 21.78125 47.21875 15.09375 
Q 47.21875 7.46875 41.1875 3.015625 
Q 35.15625 -1.421875 24.609375 -1.421875 
Q 20.21875 -1.421875 15.453125 -0.5625 
Q 10.6875 0.296875 5.421875 2 
L 5.421875 11.28125 
Q 10.40625 8.6875 15.234375 7.390625 
Q 20.0625 6.109375 24.8125 6.109375 
Q 31.15625 6.109375 34.5625 8.28125 
Q 37.984375 10.453125 37.984375 14.40625 
Q 37.984375 18.0625 35.515625 20.015625 
Q 33.0625 21.96875 24.703125 23.78125 
L 21.578125 24.515625 
Q 13.234375 26.265625 9.515625 29.90625 
Q 5.8125 33.546875 5.8125 39.890625 
Q 5.8125 47.609375 11.28125 51.796875 
Q 16.75 56 26.8125 56 
Q 31.78125 56 36.171875 55.265625 
Q 40.578125 54.546875 44.28125 53.078125 
" id="BitstreamVeraSans-Roman-73"/>
     </defs>
     <g transform="translate(270.620625 418.531875)scale(0.12 -0.12)">
      <use xlink:href="#BitstreamVeraSans-Roman-54"/>
      <use x="61.037109375" xlink:href="#BitstreamVeraSans-Roman-69"/>
      <use x="88.8203125" xlink:href="#BitstreamVeraSans-Roman-6d"/>
      <use x="186.232421875" xlink:href="#BitstreamVeraSans-Roman-65"/>
      <use x="247.755859375" xlink:href="#BitstreamVeraSans-Roman-20"/>
      <use x="279.54296875" xlink:href="#BitstreamVeraSans-Roman-5b"/>
      <use x="318.556640625" xlink:href="#BitstreamVeraSans-Roman-73"/>
      <use x="370.65625" xlink:href="#BitstreamVeraSans-Roman-5d"/>
     </g>
    </g>
   </g>
   <g id="matplotlib.axis_2">
    <g id="ytick_1">
     <g id="line2d_27">
      <path clip-path="url(#p384054c3d2)" d="M 72 388.8 
L 518.4 388.8 
" style="fill:none;stroke:#000000;stroke-dasharray:1.000000,3.000000;stroke-dashoffset:0.0;stroke-width:0.5;"/>
     </g>
     <g id="line2d_28">
      <defs>
       <path d="M 0 0 
L 4 0 
" id="macf422d018" style="stroke:#000000;stroke-width:0.5;"/>
      </defs>
      <g>
       <use style="stroke:#000000;stroke-width:0.5;" x="72.0" xlink:href="#macf422d018" y="388.8"/>
      </g>
     </g>
     <g id="line2d_29">
      <defs>
       <path d="M 0 0 
L -4 0 
" id="m330fd9a52e" style="stroke:#000000;stroke-width:0.5;"/>
      </defs>
      <g>
       <use style="stroke:#000000;stroke-width:0.5;" x="518.4" xlink:href="#m330fd9a52e" y="388.8"/>
      </g>
     </g>
     <g id="text_10">
      <!-- 0.0 -->
      <defs>
       <path d="M 10.6875 12.40625 
L 21 12.40625 
L 21 0 
L 10.6875 0 
z
" id="BitstreamVeraSans-Roman-2e"/>
      </defs>
      <g transform="translate(48.91625 392.11125)scale(0.12 -0.12)">
       <use xlink:href="#BitstreamVeraSans-Roman-30"/>
       <use x="63.623046875" xlink:href="#BitstreamVeraSans-Roman-2e"/>
       <use x="95.41015625" xlink:href="#BitstreamVeraSans-Roman-30"/>
      </g>
     </g>
    </g>
    <g id="ytick_2">
     <g id="line2d_30">
      <path clip-path="url(#p384054c3d2)" d="M 72 319.68 
L 518.4 319.68 
" style="fill:none;stroke:#000000;stroke-dasharray:1.000000,3.000000;stroke-dashoffset:0.0;stroke-width:0.5;"/>
     </g>
     <g id="line2d_31">
      <g>
       <use style="stroke:#000000;stroke-width:0.5;" x="72.0" xlink:href="#macf422d018" y="319.68"/>
      </g>
     </g>
     <g id="line2d_32">
      <g>
       <use style="stroke:#000000;stroke-width:0.5;" x="518.4" xlink:href="#m330fd9a52e" y="319.68"/>
      </g>
     </g>
     <g id="text_11">
      <!-- 0.2 -->
      <g transform="translate(48.91625 322.99125)scale(0.12 -0.12)">
       <use xlink:href="#BitstreamVeraSans-Roman-30"/>
       <use x="63.623046875" xlink:href="#BitstreamVeraSans-Roman-2e"/>
       <use x="95.41015625" xlink:href="#BitstreamVeraSans-Roman-32"/>
      </g>
     </g>
    </g>
    <g id="ytick_3">
     <g id="line2d_33">
      <path clip-path="url(#p384054c3d2)" d="M 72 250.56 
L 518.4 250.56 
" style="fill:none;stroke:#000000;stroke-dasharray:1.000000,3.000000;stroke-dashoffset:0.0;stroke-width:0.5;"/>
     </g>
     <g id="line2d_34">
      <g>
       <use style="stroke:#000000;stroke-width:0.5;" x="72.0" xlink:href="#macf422d018" y="250.56"/>
      </g>
     </g>
     <g id="line2d_35">
      <g>
       <use style="stroke:#000000;stroke-width:0.5;" x="518.4" xlink:href="#m330fd9a52e" y="250.56"/>
      </g>
     </g>
     <g id="text_12">
      <!-- 0.4 -->
      <g transform="translate(48.91625 253.87125)scale(0.12 -0.12)">
       <use xlink:href="#BitstreamVeraSans-Roman-30"/>
       <use x="63.623046875" xlink:href="#BitstreamVeraSans-Roman-2e"/>
       <use x="95.41015625" xlink:href="#BitstreamVeraSans-Roman-34"/>
      </g>
     </g>
    </g>
    <g id="ytick_4">
     <g id="line2d_36">
      <path clip-path="url(#p384054c3d2)" d="M 72 181.44 
L 518.4 181.44 
" style="fill:none;stroke:#000000;stroke-dasharray:1.000000,3.000000;stroke-dashoffset:0.0;stroke-width:0.5;"/>
     </g>
     <g id="line2d_37">
      <g>
       <use style="stroke:#000000;stroke-width:0.5;" x="72.0" xlink:href="#macf422d018" y="181.44"/>
      </g>
     </g>
     <g id="line2d_38">
      <g>
       <use style="stroke:#000000;stroke-width:0.5;" x="518.4" xlink:href="#m330fd9a52e" y="181.44"/>
      </g>
     </g>
     <g id="text_13">
      <!-- 0.6 -->
      <g transform="translate(48.91625 184.75125)scale(0.12 -0.12)">
       <use xlink:href="#BitstreamVeraSans-Roman-30"/>
       <use x="63.623046875" xlink:href="#BitstreamVeraSans-Roman-2e"/>
       <use x="95.41015625" xlink:href="#BitstreamVeraSans-Roman-36"/>
      </g>
     </g>
    </g>
    <g id="ytick_5">
     <g id="line2d_39">
      <path clip-path="url(#p384054c3d2)" d="M 72 112.32 
L 518.4 112.32 
" style="fill:none;stroke:#000000;stroke-dasharray:1.000000,3.000000;stroke-dashoffset:0.0;stroke-width:0.5;"/>
     </g>
     <g id="line2d_40">
      <g>
       <use style="stroke:#000000;stroke-width:0.5;" x="72.0" xlink:href="#macf422d018" y="112.32"/>
      </g>
     </g>
     <g id="line2d_41">
      <g>
       <use style="stroke:#000000;stroke-width:0.5;" x="518.4" xlink:href="#m330fd9a52e" y="112.32"/>
      </g>
     </g>
     <g id="text_14">
      <!-- 0.8 -->
      <defs>
       <path d="M 31.78125 34.625 
Q 24.75 34.625 20.71875 30.859375 
Q 16.703125 27.09375 16.703125 20.515625 
Q 16.703125 13.921875 20.71875 10.15625 
Q 24.75 6.390625 31.78125 6.390625 
Q 38.8125 6.390625 42.859375 10.171875 
Q 46.921875 13.96875 46.921875 20.515625 
Q 46.921875 27.09375 42.890625 30.859375 
Q 38.875 34.625 31.78125 34.625 
M 21.921875 38.8125 
Q 15.578125 40.375 12.03125 44.71875 
Q 8.5 49.078125 8.5 55.328125 
Q 8.5 64.0625 14.71875 69.140625 
Q 20.953125 74.21875 31.78125 74.21875 
Q 42.671875 74.21875 48.875 69.140625 
Q 55.078125 64.0625 55.078125 55.328125 
Q 55.078125 49.078125 51.53125 44.71875 
Q 48 40.375 41.703125 38.8125 
Q 48.828125 37.15625 52.796875 32.3125 
Q 56.78125 27.484375 56.78125 20.515625 
Q 56.78125 9.90625 50.3125 4.234375 
Q 43.84375 -1.421875 31.78125 -1.421875 
Q 19.734375 -1.421875 13.25 4.234375 
Q 6.78125 9.90625 6.78125 20.515625 
Q 6.78125 27.484375 10.78125 32.3125 
Q 14.796875 37.15625 21.921875 38.8125 
M 18.3125 54.390625 
Q 18.3125 48.734375 21.84375 45.5625 
Q 25.390625 42.390625 31.78125 42.390625 
Q 38.140625 42.390625 41.71875 45.5625 
Q 45.3125 48.734375 45.3125 54.390625 
Q 45.3125 60.0625 41.71875 63.234375 
Q 38.140625 66.40625 31.78125 66.40625 
Q 25.390625 66.40625 21.84375 63.234375 
Q 18.3125 60.0625 18.3125 54.390625 
" id="BitstreamVeraSans-Roman-38"/>
      </defs>
      <g transform="translate(48.91625 115.63125)scale(0.12 -0.12)">
       <use xlink:href="#BitstreamVeraSans-Roman-30"/>
       <use x="63.623046875" xlink:href="#BitstreamVeraSans-Roman-2e"/>
       <use x="95.41015625" xlink:href="#BitstreamVeraSans-Roman-38"/>
      </g>
     </g>
    </g>
    <g id="ytick_6">
     <g id="line2d_42">
      <path clip-path="url(#p384054c3d2)" d="M 72 43.2 
L 518.4 43.2 
" style="fill:none;stroke:#000000;stroke-dasharray:1.000000,3.000000;stroke-dashoffset:0.0;stroke-width:0.5;"/>
     </g>
     <g id="line2d_43">
      <g>
       <use style="stroke:#000000;stroke-width:0.5;" x="72.0" xlink:href="#macf422d018" y="43.2"/>
      </g>
     </g>
     <g id="line2d_44">
      <g>
       <use style="stroke:#000000;stroke-width:0.5;" x="518.4" xlink:href="#m330fd9a52e" y="43.2"/>
      </g>
     </g>
     <g id="text_15">
      <!-- 1.0 -->
      <g transform="translate(48.91625 46.51125)scale(0.12 -0.12)">
       <use xlink:href="#BitstreamVeraSans-Roman-31"/>
       <use x="63.623046875" xlink:href="#BitstreamVeraSans-Roman-2e"/>
       <use x="95.41015625" xlink:href="#BitstreamVeraSans-Roman-30"/>
      </g>
     </g>
    </g>
    <g id="text_16">
     <!-- Pedal [] -->
     <defs>
      <path d="M 19.671875 64.796875 
L 19.671875 37.40625 
L 32.078125 37.40625 
Q 38.96875 37.40625 42.71875 40.96875 
Q 46.484375 44.53125 46.484375 51.125 
Q 46.484375 57.671875 42.71875 61.234375 
Q 38.96875 64.796875 32.078125 64.796875 
z
M 9.8125 72.90625 
L 32.078125 72.90625 
Q 44.34375 72.90625 50.609375 67.359375 
Q 56.890625 61.8125 56.890625 51.125 
Q 56.890625 40.328125 50.609375 34.8125 
Q 44.34375 29.296875 32.078125 29.296875 
L 19.671875 29.296875 
L 19.671875 0 
L 9.8125 0 
z
" id="BitstreamVeraSans-Roman-50"/>
      <path d="M 45.40625 46.390625 
L 45.40625 75.984375 
L 54.390625 75.984375 
L 54.390625 0 
L 45.40625 0 
L 45.40625 8.203125 
Q 42.578125 3.328125 38.25 0.953125 
Q 33.9375 -1.421875 27.875 -1.421875 
Q 17.96875 -1.421875 11.734375 6.484375 
Q 5.515625 14.40625 5.515625 27.296875 
Q 5.515625 40.1875 11.734375 48.09375 
Q 17.96875 56 27.875 56 
Q 33.9375 56 38.25 53.625 
Q 42.578125 51.265625 45.40625 46.390625 
M 14.796875 27.296875 
Q 14.796875 17.390625 18.875 11.75 
Q 22.953125 6.109375 30.078125 6.109375 
Q 37.203125 6.109375 41.296875 11.75 
Q 45.40625 17.390625 45.40625 27.296875 
Q 45.40625 37.203125 41.296875 42.84375 
Q 37.203125 48.484375 30.078125 48.484375 
Q 22.953125 48.484375 18.875 42.84375 
Q 14.796875 37.203125 14.796875 27.296875 
" id="BitstreamVeraSans-Roman-64"/>
      <path d="M 34.28125 27.484375 
Q 23.390625 27.484375 19.1875 25 
Q 14.984375 22.515625 14.984375 16.5 
Q 14.984375 11.71875 18.140625 8.90625 
Q 21.296875 6.109375 26.703125 6.109375 
Q 34.1875 6.109375 38.703125 11.40625 
Q 43.21875 16.703125 43.21875 25.484375 
L 43.21875 27.484375 
z
M 52.203125 31.203125 
L 52.203125 0 
L 43.21875 0 
L 43.21875 8.296875 
Q 40.140625 3.328125 35.546875 0.953125 
Q 30.953125 -1.421875 24.3125 -1.421875 
Q 15.921875 -1.421875 10.953125 3.296875 
Q 6 8.015625 6 15.921875 
Q 6 25.140625 12.171875 29.828125 
Q 18.359375 34.515625 30.609375 34.515625 
L 43.21875 34.515625 
L 43.21875 35.40625 
Q 43.21875 41.609375 39.140625 45 
Q 35.0625 48.390625 27.6875 48.390625 
Q 23 48.390625 18.546875 47.265625 
Q 14.109375 46.140625 10.015625 43.890625 
L 10.015625 52.203125 
Q 14.9375 54.109375 19.578125 55.046875 
Q 24.21875 56 28.609375 56 
Q 40.484375 56 46.34375 49.84375 
Q 52.203125 43.703125 52.203125 31.203125 
" id="BitstreamVeraSans-Roman-61"/>
      <path d="M 9.421875 75.984375 
L 18.40625 75.984375 
L 18.40625 0 
L 9.421875 0 
z
" id="BitstreamVeraSans-Roman-6c"/>
     </defs>
     <g transform="translate(41.420625 239.0484375)rotate(-90.0)scale(0.12 -0.12)">
      <use xlink:href="#BitstreamVeraSans-Roman-50"/>
      <use x="60.255859375" xlink:href="#BitstreamVeraSans-Roman-65"/>
      <use x="121.779296875" xlink:href="#BitstreamVeraSans-Roman-64"/>
      <use x="185.255859375" xlink:href="#BitstreamVeraSans-Roman-61"/>
      <use x="246.53515625" xlink:href="#BitstreamVeraSans-Roman-6c"/>
      <use x="274.318359375" xlink:href="#BitstreamVeraSans-Roman-20"/>
      <use x="306.10546875" xlink:href="#BitstreamVeraSans-Roman-5b"/>
      <use x="345.119140625" xlink:href="#BitstreamVeraSans-Roman-5d"/>
     </g>
    </g>
   </g>
   <g id="legend_1">
    <g id="patch_7">
     <path d="M 372.99825 96.993 
L 511.2 96.993 
L 511.2 50.4 
L 372.99825 50.4 
z
" style="fill:#ffffff;stroke:#000000;stroke-linejoin:miter;"/>
    </g>
    <g id="line2d_45">
     <path d="M 383.07825 62.06175 
L 403.23825 62.06175 
" style="fill:none;stroke:#008000;stroke-linecap:square;"/>
    </g>
    <g id="line2d_46"/>
    <g id="text_17">
     <!-- Gas pedal -->
     <defs>
      <path d="M 59.515625 10.40625 
L 59.515625 29.984375 
L 43.40625 29.984375 
L 43.40625 38.09375 
L 69.28125 38.09375 
L 69.28125 6.78125 
Q 63.578125 2.734375 56.6875 0.65625 
Q 49.8125 -1.421875 42 -1.421875 
Q 24.90625 -1.421875 15.25 8.5625 
Q 5.609375 18.5625 5.609375 36.375 
Q 5.609375 54.25 15.25 64.234375 
Q 24.90625 74.21875 42 74.21875 
Q 49.125 74.21875 55.546875 72.453125 
Q 61.96875 70.703125 67.390625 67.28125 
L 67.390625 56.78125 
Q 61.921875 61.421875 55.765625 63.765625 
Q 49.609375 66.109375 42.828125 66.109375 
Q 29.4375 66.109375 22.71875 58.640625 
Q 16.015625 51.171875 16.015625 36.375 
Q 16.015625 21.625 22.71875 14.15625 
Q 29.4375 6.6875 42.828125 6.6875 
Q 48.046875 6.6875 52.140625 7.59375 
Q 56.25 8.5 59.515625 10.40625 
" id="BitstreamVeraSans-Roman-47"/>
      <path d="M 18.109375 8.203125 
L 18.109375 -20.796875 
L 9.078125 -20.796875 
L 9.078125 54.6875 
L 18.109375 54.6875 
L 18.109375 46.390625 
Q 20.953125 51.265625 25.265625 53.625 
Q 29.59375 56 35.59375 56 
Q 45.5625 56 51.78125 48.09375 
Q 58.015625 40.1875 58.015625 27.296875 
Q 58.015625 14.40625 51.78125 6.484375 
Q 45.5625 -1.421875 35.59375 -1.421875 
Q 29.59375 -1.421875 25.265625 0.953125 
Q 20.953125 3.328125 18.109375 8.203125 
M 48.6875 27.296875 
Q 48.6875 37.203125 44.609375 42.84375 
Q 40.53125 48.484375 33.40625 48.484375 
Q 26.265625 48.484375 22.1875 42.84375 
Q 18.109375 37.203125 18.109375 27.296875 
Q 18.109375 17.390625 22.1875 11.75 
Q 26.265625 6.109375 33.40625 6.109375 
Q 40.53125 6.109375 44.609375 11.75 
Q 48.6875 17.390625 48.6875 27.296875 
" id="BitstreamVeraSans-Roman-70"/>
     </defs>
     <g transform="translate(419.07825 67.10175)scale(0.144 -0.144)">
      <use xlink:href="#BitstreamVeraSans-Roman-47"/>
      <use x="77.490234375" xlink:href="#BitstreamVeraSans-Roman-61"/>
      <use x="138.76953125" xlink:href="#BitstreamVeraSans-Roman-73"/>
      <use x="190.869140625" xlink:href="#BitstreamVeraSans-Roman-20"/>
      <use x="222.65625" xlink:href="#BitstreamVeraSans-Roman-70"/>
      <use x="286.1328125" xlink:href="#BitstreamVeraSans-Roman-65"/>
      <use x="347.65625" xlink:href="#BitstreamVeraSans-Roman-64"/>
      <use x="411.1328125" xlink:href="#BitstreamVeraSans-Roman-61"/>
      <use x="472.412109375" xlink:href="#BitstreamVeraSans-Roman-6c"/>
     </g>
    </g>
    <g id="line2d_47">
     <path d="M 383.07825 83.19825 
L 403.23825 83.19825 
" style="fill:none;stroke:#ff0000;stroke-linecap:square;"/>
    </g>
    <g id="line2d_48"/>
    <g id="text_18">
     <!-- Brake pedal -->
     <defs>
      <path d="M 41.109375 46.296875 
Q 39.59375 47.171875 37.8125 47.578125 
Q 36.03125 48 33.890625 48 
Q 26.265625 48 22.1875 43.046875 
Q 18.109375 38.09375 18.109375 28.8125 
L 18.109375 0 
L 9.078125 0 
L 9.078125 54.6875 
L 18.109375 54.6875 
L 18.109375 46.1875 
Q 20.953125 51.171875 25.484375 53.578125 
Q 30.03125 56 36.53125 56 
Q 37.453125 56 38.578125 55.875 
Q 39.703125 55.765625 41.0625 55.515625 
z
" id="BitstreamVeraSans-Roman-72"/>
      <path d="M 19.671875 34.8125 
L 19.671875 8.109375 
L 35.5 8.109375 
Q 43.453125 8.109375 47.28125 11.40625 
Q 51.125 14.703125 51.125 21.484375 
Q 51.125 28.328125 47.28125 31.5625 
Q 43.453125 34.8125 35.5 34.8125 
z
M 19.671875 64.796875 
L 19.671875 42.828125 
L 34.28125 42.828125 
Q 41.5 42.828125 45.03125 45.53125 
Q 48.578125 48.25 48.578125 53.8125 
Q 48.578125 59.328125 45.03125 62.0625 
Q 41.5 64.796875 34.28125 64.796875 
z
M 9.8125 72.90625 
L 35.015625 72.90625 
Q 46.296875 72.90625 52.390625 68.21875 
Q 58.5 63.53125 58.5 54.890625 
Q 58.5 48.1875 55.375 44.234375 
Q 52.25 40.28125 46.1875 39.3125 
Q 53.46875 37.75 57.5 32.78125 
Q 61.53125 27.828125 61.53125 20.40625 
Q 61.53125 10.640625 54.890625 5.3125 
Q 48.25 0 35.984375 0 
L 9.8125 0 
z
" id="BitstreamVeraSans-Roman-42"/>
      <path d="M 9.078125 75.984375 
L 18.109375 75.984375 
L 18.109375 31.109375 
L 44.921875 54.6875 
L 56.390625 54.6875 
L 27.390625 29.109375 
L 57.625 0 
L 45.90625 0 
L 18.109375 26.703125 
L 18.109375 0 
L 9.078125 0 
z
" id="BitstreamVeraSans-Roman-6b"/>
     </defs>
     <g transform="translate(419.07825 88.23825)scale(0.144 -0.144)">
      <use xlink:href="#BitstreamVeraSans-Roman-42"/>
      <use x="68.603515625" xlink:href="#BitstreamVeraSans-Roman-72"/>
      <use x="109.716796875" xlink:href="#BitstreamVeraSans-Roman-61"/>
      <use x="170.99609375" xlink:href="#BitstreamVeraSans-Roman-6b"/>
      <use x="228.859375" xlink:href="#BitstreamVeraSans-Roman-65"/>
      <use x="290.3828125" xlink:href="#BitstreamVeraSans-Roman-20"/>
      <use x="322.169921875" xlink:href="#BitstreamVeraSans-Roman-70"/>
      <use x="385.646484375" xlink:href="#BitstreamVeraSans-Roman-65"/>
      <use x="447.169921875" xlink:href="#BitstreamVeraSans-Roman-64"/>
      <use x="510.646484375" xlink:href="#BitstreamVeraSans-Roman-61"/>
      <use x="571.92578125" xlink:href="#BitstreamVeraSans-Roman-6c"/>
     </g>
    </g>
   </g>
  </g>
 </g>
 <defs>
  <clipPath id="p384054c3d2">
   <rect height="345.6" width="446.4" x="72.0" y="43.2"/>
  </clipPath>
 </defs>
</svg>
