<?xml version="1.0" encoding="utf-8" standalone="no"?>
<!DOCTYPE svg PUBLIC "-//W3C//DTD SVG 1.1//EN"
  "http://www.w3.org/Graphics/SVG/1.1/DTD/svg11.dtd">
<!-- Created with matplotlib (http://matplotlib.org/) -->
<svg height="432pt" version="1.1" viewBox="0 0 576 432" width="576pt" xmlns="http://www.w3.org/2000/svg" xmlns:xlink="http://www.w3.org/1999/xlink">
 <defs>
  <style type="text/css">
*{stroke-linecap:butt;stroke-linejoin:round;stroke-miterlimit:100000;}
  </style>
 </defs>
 <g id="figure_1">
  <g id="patch_1">
   <path d="M 0 432 
L 576 432 
L 576 0 
L 0 0 
z
" style="fill:#ffffff;"/>
  </g>
  <g id="axes_1">
   <g id="patch_2">
    <path d="M 72 388.8 
L 518.4 388.8 
L 518.4 43.2 
L 72 43.2 
z
" style="fill:#ffffff;"/>
   </g>
   <g id="line2d_1">
    <path clip-path="url(#pb245cbab32)" d="M 72.063771 228.225167 
L 80.417829 228.225167 
L 80.545371 213.418646 
L 82.522286 167.036861 
L 82.904914 152.521271 
L 83.287543 145.667333 
L 83.478857 142.455466 
L 83.542629 141.386572 
L 83.733943 137.068183 
L 84.180343 131.05998 
L 84.244114 130.74505 
L 85.073143 117.786937 
L 85.136914 117.786937 
L 85.710857 110.626996 
L 88.453029 83.007669 
L 88.5168 83.488541 
L 88.835657 81.34644 
L 88.899429 81.34644 
L 88.9632 82.197867 
L 89.026971 81.572635 
L 89.218286 80.693564 
L 89.282057 81.544318 
L 89.345829 80.922244 
L 89.537143 80.048557 
L 89.600914 80.898624 
L 89.664686 80.279723 
L 89.856 79.411404 
L 89.919771 80.260785 
L 89.983543 80.011052 
L 90.111086 79.761951 
L 90.174857 80.609422 
L 90.238629 79.995918 
L 90.429943 79.501094 
L 90.493714 80.347247 
L 90.557486 80.100728 
L 90.7488 79.246033 
L 90.812571 80.453705 
L 90.876343 79.846353 
L 91.067657 79.359123 
L 91.131429 80.202036 
L 91.1952 79.959293 
L 91.386514 79.475661 
L 91.450286 80.676988 
L 91.514057 80.075693 
L 91.6416 79.835367 
L 91.705371 81.033742 
L 91.769143 80.7938 
L 91.960457 79.956999 
L 92.024229 81.152216 
L 92.088 80.914059 
L 92.279314 80.439574 
L 92.343086 81.630821 
L 92.406857 81.394258 
L 92.598171 80.922945 
L 92.661943 82.110237 
L 92.725714 81.875267 
L 92.917029 81.40714 
L 92.9808 82.590491 
L 93.044571 82.357114 
L 93.8736 79.728841 
L 93.937371 79.85425 
L 94.256229 79.085907 
L 94.32 79.213005 
L 94.511314 78.898425 
L 94.575086 79.02643 
L 94.7664 78.71678 
L 94.830171 78.845663 
L 95.021486 78.540916 
L 95.085257 78.670706 
L 95.149029 78.455154 
L 95.2128 78.585397 
L 95.276571 78.715695 
L 95.467886 78.419092 
L 95.595429 78.681555 
L 95.6592 78.469766 
L 95.722971 78.601465 
L 95.850514 78.864999 
L 95.914286 78.655037 
L 95.978057 78.787271 
L 96.169371 79.184303 
L 96.233143 78.976538 
L 96.296914 79.109377 
L 96.552 79.64128 
L 96.615771 79.436096 
L 96.679543 79.569594 
L 98.018743 82.384991 
L 98.210057 83.118672 
L 98.528914 83.79142 
L 98.720229 84.522395 
L 98.784 84.522395 
L 99.357943 86.515933 
L 99.421714 86.650269 
L 99.613029 87.375037 
L 99.6768 87.509221 
L 99.931886 88.685582 
L 100.059429 88.953154 
L 100.314514 90.123239 
L 100.442057 90.390042 
L 100.697143 91.55392 
L 100.760914 91.686909 
L 101.016 92.84502 
L 101.079771 92.97757 
L 101.334857 94.129939 
L 101.398629 94.262064 
L 101.653714 95.408652 
L 101.717486 95.540378 
L 102.036343 97.118715 
L 102.100114 97.249644 
L 102.418971 98.816872 
L 102.482743 98.947128 
L 102.8016 100.503218 
L 102.865371 100.632692 
L 103.184229 102.177651 
L 103.248 102.306397 
L 103.630629 104.264065 
L 103.6944 104.391843 
L 104.1408 106.750436 
L 104.204571 106.876847 
L 104.5872 108.794675 
L 104.650971 108.920064 
L 105.0336 110.819833 
L 105.097371 110.819833 
L 105.48 113.109109 
L 105.607543 113.536588 
L 105.862629 114.314062 
L 105.9264 114.317585 
L 106.245257 115.378384 
L 106.309029 115.387468 
L 106.755429 117.019157 
L 106.8192 117.035767 
L 107.839543 121.017989 
L 107.903314 121.050632 
L 110.900571 135.159769 
L 113.005029 147.676437 
L 119.7648 192.426866 
L 120.6576 198.150645 
L 123.017143 212.541633 
L 123.080914 212.202137 
L 123.144686 211.625251 
L 123.208457 212.060862 
L 123.399771 214.337574 
L 123.463543 214.337574 
L 124.738971 222.659379 
L 124.802743 221.925498 
L 124.866514 222.149642 
L 125.057829 224.268176 
L 125.185371 224.009853 
L 125.312914 223.989159 
L 125.568 224.93146 
L 125.759314 227.080882 
L 125.886857 227.321637 
L 126.078171 229.485335 
L 126.269486 230.226362 
L 126.397029 231.215886 
L 126.4608 230.514891 
L 126.524571 231.004756 
L 126.652114 231.513035 
L 126.715886 231.072313 
L 127.034743 232.840769 
L 127.3536 233.884479 
L 127.544914 235.86478 
L 127.736229 236.39921 
L 127.927543 238.3937 
L 128.118857 239.485374 
L 128.2464 237.744405 
L 128.310171 238.020907 
L 128.373943 237.627354 
L 128.437714 237.904333 
L 128.629029 238.741716 
L 128.756571 237.976527 
L 128.820343 238.260038 
L 129.075429 239.638424 
L 129.266743 240.21488 
L 129.458057 242.031282 
L 129.521829 242.031282 
L 129.713143 243.619466 
L 129.776914 243.619466 
L 129.968229 245.751728 
L 130.032 246.050608 
L 130.159543 245.407146 
L 130.861029 248.986557 
L 130.9248 248.66153 
L 131.052343 249.985767 
L 131.116114 249.355769 
L 131.179886 249.66739 
L 131.562514 251.701852 
L 131.626286 252.721369 
L 131.690057 252.099038 
L 132.136457 254.159253 
L 132.200229 255.271066 
L 132.264 254.656206 
L 132.582857 255.807061 
L 132.7104 255.288936 
L 132.774171 255.614911 
L 132.965486 257.066335 
L 133.029257 257.162246 
L 133.794514 260.72687 
L 133.922057 260.935146 
L 134.113371 261.481524 
L 134.177143 261.228093 
L 134.240914 261.334527 
L 134.368457 261.549265 
L 134.496 262.108047 
L 134.559771 261.519983 
L 134.623543 261.63032 
L 135.069943 263.468978 
L 135.133714 263.468978 
L 135.197486 263.585159 
L 135.325029 264.747605 
L 135.516343 265.098982 
L 135.580114 264.639266 
L 135.643886 264.757736 
L 135.771429 265.350843 
L 135.8352 264.774909 
L 135.898971 264.895539 
L 136.2816 265.639825 
L 136.664229 267.221334 
L 136.791771 267.357043 
L 136.983086 268.462223 
L 137.046857 268.740431 
L 137.110629 268.186755 
L 137.1744 268.327407 
L 137.238171 268.610645 
L 137.301943 268.059018 
L 137.365714 268.2015 
L 137.429486 268.489782 
L 137.493257 267.940197 
L 137.557029 268.086055 
L 138.386057 269.827679 
L 138.449829 269.751139 
L 138.5136 269.367678 
L 138.577371 269.522366 
L 139.151314 270.686295 
L 139.278857 271.533314 
L 139.342629 271.458301 
L 139.8528 272.474657 
L 139.916571 272.400681 
L 140.044114 272.713156 
L 140.235429 273.486504 
L 140.2992 273.41303 
L 140.681829 274.124082 
L 140.7456 274.051339 
L 141.000686 274.450802 
L 141.064457 274.378656 
L 141.6384 275.641315 
L 141.702171 275.570137 
L 141.893486 275.815681 
L 142.021029 275.674129 
L 142.148571 276.291389 
L 142.212343 276.220864 
L 142.276114 276.379665 
L 142.339886 276.309338 
L 142.403657 276.239095 
L 142.467429 276.398232 
L 142.5312 276.328194 
L 142.722514 276.048894 
L 142.786286 275.521179 
L 142.850057 275.680701 
L 143.232686 275.265417 
L 143.296457 275.425365 
L 143.360229 275.356535 
L 143.615314 275.082413 
L 143.679086 275.471789 
L 143.742857 275.403612 
L 143.8704 275.335517 
L 144.189257 274.92846 
L 144.380571 274.564854 
L 144.890743 274.028261 
L 145.082057 273.599811 
L 145.273371 273.400608 
L 145.337143 272.811343 
L 145.400914 273.202103 
L 145.592229 272.841779 
L 145.911086 272.513692 
L 146.1024 272.089455 
L 146.293714 271.894249 
L 146.485029 271.471564 
L 146.612571 271.342327 
L 146.803886 272.863878 
L 147.250286 276.06181 
L 148.079314 280.162099 
L 148.844571 282.197626 
L 149.2272 282.911552 
L 149.290971 282.842386 
L 149.546057 283.26091 
L 149.609829 283.196922 
L 149.801143 283.459989 
L 149.864914 283.395987 
L 150.12 283.83728 
L 150.183771 283.778455 
L 150.438857 284.231346 
L 150.502629 284.175385 
L 150.757714 284.643526 
L 150.821486 284.592817 
L 151.076571 285.079415 
L 151.140343 285.031577 
L 151.331657 285.347839 
L 151.395429 285.305136 
L 151.650514 285.823059 
L 151.714286 285.783117 
L 151.969371 286.315315 
L 152.033143 286.278477 
L 152.288229 286.827532 
L 152.352 286.796551 
L 152.607086 287.360623 
L 152.670857 287.335183 
L 152.862171 287.714651 
L 152.925943 287.689465 
L 153.181029 288.286263 
L 153.2448 288.267043 
L 153.499886 288.883047 
L 153.563657 288.867412 
L 153.818743 289.497718 
L 153.882514 289.487672 
L 154.1376 290.131945 
L 154.201371 290.125353 
L 154.392686 290.570217 
L 154.456457 290.567306 
L 154.711543 291.250477 
L 154.775314 291.253374 
L 155.0304 291.957248 
L 155.094171 291.964039 
L 155.349257 292.687372 
L 155.413029 292.697823 
L 155.668114 293.438898 
L 155.731886 293.45592 
L 155.9232 293.983553 
L 155.986971 293.983553 
L 156.178286 294.502011 
L 156.305829 294.551093 
L 156.497143 294.858971 
L 156.624686 294.915324 
L 156.688457 294.718833 
L 156.752229 294.749849 
L 156.879771 294.812505 
L 157.134857 294.26711 
L 157.198629 294.30285 
L 157.836343 292.186491 
L 157.963886 291.404526 
L 158.027657 291.676472 
L 158.091429 291.492327 
L 158.474057 289.671844 
L 158.984229 288.250529 
L 159.175543 287.043118 
L 159.558171 285.786687 
L 159.877029 284.486716 
L 160.323429 283.111407 
L 160.514743 282.397083 
L 160.8336 281.377496 
L 161.024914 280.679501 
L 161.343771 279.687408 
L 161.535086 279.010128 
L 161.853943 278.046723 
L 162.045257 277.382572 
L 162.364114 276.445658 
L 162.555429 275.795618 
L 162.874286 274.887735 
L 163.0656 274.2546 
L 163.384457 273.376147 
L 163.575771 272.761324 
L 163.9584 271.794191 
L 164.149714 271.206913 
L 164.532343 270.276536 
L 164.723657 269.710572 
L 164.787429 269.601141 
L 164.978743 269.042064 
L 165.170057 268.717841 
L 165.361371 268.176685 
L 165.488914 267.972308 
L 165.680229 267.43863 
L 165.807771 267.245329 
L 165.999086 266.727345 
L 166.126629 266.538671 
L 166.317943 266.034282 
L 166.509257 265.769412 
L 166.700571 265.276706 
L 166.828114 265.1137 
L 167.019429 264.637614 
L 167.146971 264.477839 
L 167.338286 264.017749 
L 167.465829 263.869773 
L 167.657143 263.419145 
L 167.784686 263.283416 
L 167.976 262.852199 
L 168.167314 262.659069 
L 168.358629 262.248689 
L 168.486171 262.132986 
L 168.677486 261.734182 
L 168.805029 261.631312 
L 168.996343 261.246674 
L 169.187657 261.100662 
L 169.378971 260.732823 
L 169.506514 260.649955 
L 169.697829 260.297569 
L 169.825371 260.229419 
L 170.016686 259.89847 
L 170.144229 259.836194 
L 170.271771 259.547168 
L 170.526857 259.45215 
L 170.6544 259.173938 
L 170.845714 259.117668 
L 170.973257 258.855489 
L 171.164571 258.814675 
L 171.292114 258.562154 
L 171.5472 258.539313 
L 171.674743 258.299763 
L 171.866057 258.302245 
L 171.9936 258.07798 
L 172.184914 258.096904 
L 172.312457 257.883519 
L 172.567543 257.940878 
L 172.695086 257.739955 
L 172.8864 257.805224 
L 172.950171 257.596515 
L 173.013943 257.621725 
L 173.269029 257.737775 
L 173.3328 257.53657 
L 173.396571 257.569746 
L 173.587886 257.673752 
L 173.651657 257.478233 
L 173.715429 257.521519 
L 173.906743 257.654069 
L 173.970514 257.465554 
L 174.034286 257.512335 
L 174.289371 257.756853 
L 174.353143 257.60598 
L 174.416914 257.676495 
L 174.608229 257.894107 
L 174.672 257.733572 
L 174.735771 257.808513 
L 174.863314 258.585837 
L 174.927086 258.182807 
L 175.054629 258.060968 
L 175.245943 258.322649 
L 175.309714 258.241951 
L 175.373486 258.336818 
L 175.5648 258.627801 
L 175.628571 258.50551 
L 175.692343 258.606292 
L 176.074971 259.084774 
L 176.138743 258.959338 
L 176.202514 259.07318 
L 176.521371 259.525786 
L 176.585143 259.412373 
L 176.967771 260.052 
L 177.031543 259.951458 
L 177.414171 261.044484 
L 178.370743 271.306092 
L 179.072229 278.319459 
L 179.327314 282.928944 
L 179.391086 282.928944 
L 180.156343 295.924706 
L 181.049143 302.719153 
L 181.304229 304.831068 
L 181.431771 304.831068 
L 181.623086 307.308987 
L 182.324571 312.698811 
L 182.388343 312.168906 
L 182.770971 320.35648 
L 182.898514 321.122145 
L 183.1536 324.237559 
L 183.217371 323.549176 
L 183.281143 323.878903 
L 183.344914 324.150238 
L 183.536229 326.519007 
L 184.0464 330.037516 
L 185.194286 335.955199 
L 185.258057 336.406435 
L 185.449371 338.755724 
L 185.513143 338.765639 
L 185.895771 342.477177 
L 185.959543 342.477177 
L 186.214629 343.553151 
L 186.2784 343.668851 
L 186.533486 344.953455 
L 186.597257 344.819998 
L 186.979886 346.50791 
L 187.043657 346.645981 
L 187.298743 347.762096 
L 187.362514 347.64071 
L 187.681371 349.060158 
L 187.745143 348.947163 
L 187.808914 347.77072 
L 187.872686 348.037921 
L 188.000229 350.155138 
L 188.064 350.044684 
L 188.127771 350.213626 
L 188.319086 351.125327 
L 189.020571 352.945198 
L 189.084343 352.853091 
L 189.339429 353.813461 
L 189.4032 353.729787 
L 189.913371 355.212035 
L 189.977143 353.494913 
L 190.040914 353.572545 
L 190.232229 353.843248 
L 190.359771 354.577121 
L 190.423543 354.5535 
L 190.487314 354.49184 
L 190.7424 355.252986 
L 190.806171 355.173788 
L 190.997486 355.690942 
L 191.061257 357.299643 
L 191.1888 355.900163 
L 191.252571 356.176195 
L 191.316343 356.128789 
L 191.380114 356.128789 
L 191.507657 356.403296 
L 191.571429 356.363992 
L 191.762743 356.942601 
L 191.890286 356.623558 
L 192.0816 357.223865 
L 192.209143 357.20446 
L 192.336686 357.531647 
L 192.464229 357.524478 
L 192.591771 357.867416 
L 192.783086 357.909247 
L 192.846857 358.232574 
L 192.910629 357.930121 
L 193.101943 358.345486 
L 193.229486 358.378322 
L 193.293257 358.714531 
L 193.357029 356.435678 
L 193.484571 358.808849 
L 193.548343 358.87077 
L 193.612114 358.57863 
L 193.675886 356.932191 
L 193.739657 359.152446 
L 193.803429 357.067996 
L 193.8672 357.233684 
L 193.930971 359.139496 
L 194.058514 357.098621 
L 194.186057 357.543388 
L 194.249829 357.268112 
L 194.3136 359.354443 
L 194.377371 357.265462 
L 194.441143 359.534152 
L 194.504914 357.736569 
L 194.568686 359.652338 
L 194.632457 357.564043 
L 194.696229 359.479221 
L 194.76 357.387685 
L 194.823771 357.659006 
L 194.887543 358.056134 
L 194.951314 357.797379 
L 195.015086 357.90466 
L 195.078857 357.837589 
L 195.142629 357.575729 
L 195.2064 357.68069 
L 195.333943 357.910016 
L 195.397714 357.656273 
L 195.461486 357.773058 
L 195.525257 357.773058 
L 195.589029 357.646028 
L 195.780343 358.189027 
L 195.844114 357.941643 
L 195.907886 358.070567 
L 196.035429 358.349716 
L 196.162971 357.767743 
L 196.226743 357.908656 
L 196.290514 357.668138 
L 196.354286 357.808434 
L 196.418057 357.95598 
L 196.481829 357.719389 
L 196.5456 357.866634 
L 196.673143 358.183589 
L 196.736914 357.957436 
L 196.800686 358.119676 
L 196.864457 358.289662 
L 196.992 357.729442 
L 197.055771 357.897931 
L 197.119543 357.674387 
L 197.183314 358.019563 
L 197.502171 365.845042 
L 197.693486 365.191205 
L 197.821029 365.596628 
L 197.8848 365.08222 
L 197.948571 365.288956 
L 198.076114 364.995937 
L 198.267429 364.382652 
L 198.394971 364.530391 
L 198.458743 364.530391 
L 198.586286 361.657837 
L 198.713829 361.580109 
L 198.7776 361.810162 
L 198.905143 361.313196 
L 199.032686 358.641595 
L 199.096457 358.868655 
L 199.160229 358.803877 
L 199.224 358.803877 
L 199.287771 356.204004 
L 199.351543 356.681346 
L 199.542857 355.899559 
L 199.606629 353.295593 
L 199.6704 353.771123 
L 199.861714 352.815024 
L 199.925486 352.815024 
L 199.989257 353.050145 
L 200.180571 349.24606 
L 200.244343 349.24606 
L 200.308114 349.579715 
L 200.371886 349.329309 
L 200.499429 349.246733 
L 200.5632 349.248244 
L 200.690743 348.967337 
L 200.818286 346.734489 
L 200.945829 346.811819 
L 201.073371 346.292276 
L 201.137143 346.655978 
L 201.200914 348.561887 
L 201.264686 348.226144 
L 201.328457 348.333165 
L 201.456 348.090395 
L 201.519771 349.786711 
L 201.583543 349.699686 
L 201.647314 349.699686 
L 201.838629 346.565575 
L 201.966171 346.870294 
L 202.093714 344.030067 
L 202.157486 343.890926 
L 202.221257 343.196782 
L 202.285029 343.451788 
L 202.3488 343.451788 
L 202.412571 340.269241 
L 202.476343 340.494777 
L 202.603886 340.020964 
L 202.731429 336.950409 
L 202.7952 336.950409 
L 202.986514 336.147171 
L 203.114057 335.527322 
L 203.2416 332.345256 
L 203.305371 332.345256 
L 203.496686 331.203667 
L 203.624229 330.193494 
L 203.688 330.267508 
L 203.815543 327.215204 
L 203.879314 327.215204 
L 204.389486 321.635756 
L 204.5808 320.589377 
L 204.963429 317.886919 
L 205.090971 314.93058 
L 205.537371 311.10238 
L 205.728686 307.598936 
L 205.792457 307.358267 
L 206.047543 305.252147 
L 206.111314 304.972703 
L 206.621486 299.829659 
L 206.8128 298.197146 
L 207.195429 294.218667 
L 207.322971 293.148544 
L 208.853486 276.420108 
L 209.810057 264.835664 
L 210.128914 261.249142 
L 211.149257 248.60038 
L 212.1696 236.348082 
L 213.253714 226.90658 
L 213.317486 226.719893 
L 213.636343 224.742939 
L 213.763886 224.371728 
L 213.9552 223.465888 
L 214.018971 223.281275 
L 214.210286 222.376628 
L 214.720457 220.914273 
L 214.784229 221.088205 
L 214.975543 220.545724 
L 215.039314 220.722072 
L 215.166857 220.362749 
L 215.230629 220.540936 
L 215.358171 220.18368 
L 215.421943 220.363714 
L 215.485714 220.185984 
L 215.549486 220.367265 
L 215.613257 220.190293 
L 215.677029 220.373258 
L 215.7408 220.197048 
L 215.868343 220.566144 
L 215.932114 220.391749 
L 216.059657 220.764662 
L 216.250971 218.558019 
L 217.016229 209.901632 
L 217.08 210.090683 
L 217.143771 210.280403 
L 217.590171 204.304309 
L 217.653943 204.495006 
L 217.717714 205.055066 
L 218.227886 198.72689 
L 218.291657 198.003878 
L 218.4192 199.131554 
L 218.482971 199.110356 
L 218.801829 195.684693 
L 219.056914 192.76141 
L 219.184457 194.271419 
L 219.248229 194.028889 
L 220.077257 186.518772 
L 220.141029 187.090545 
L 220.2048 188.040406 
L 220.268571 187.673277 
L 220.523657 185.500817 
L 220.587429 185.353518 
L 220.906286 183.180868 
L 221.161371 181.316389 
L 221.352686 183.472497 
L 221.607771 181.979966 
L 221.799086 180.247855 
L 222.4368 192.4992 
L 222.564343 192.4992 
L 222.819429 195.955201 
L 222.946971 194.572798 
L 223.457143 194.572798 
L 223.584686 193.1904 
L 224.158629 193.1904 
L 224.286171 191.808001 
L 224.413714 191.808001 
L 224.6688 195.264001 
L 224.860114 195.264001 
L 224.987657 193.881598 
L 225.689143 193.881598 
L 225.816686 192.4992 
L 226.581943 192.4992 
L 226.709486 191.116801 
L 227.602286 191.116801 
L 227.729829 189.734398 
L 227.984914 189.734398 
L 228.24 193.1904 
L 228.750171 193.1904 
L 228.877714 191.808001 
L 263.696914 191.808001 
L 263.824457 190.462356 
L 263.888229 190.462356 
L 264.015771 189.113266 
L 264.079543 189.113266 
L 264.207086 187.760732 
L 264.270857 187.760732 
L 264.653486 181.599472 
L 264.717257 181.599472 
L 264.8448 180.238637 
L 264.908571 180.238637 
L 265.036114 178.874355 
L 265.163657 178.874355 
L 265.2912 177.506639 
L 265.354971 177.506639 
L 265.482514 176.13548 
L 265.610057 176.13548 
L 265.7376 174.760878 
L 265.801371 174.760878 
L 265.928914 173.382828 
L 265.992686 173.382828 
L 266.375314 167.186738 
L 266.502857 167.186738 
L 266.6304 165.800384 
L 266.757943 165.800384 
L 267.140571 159.593761 
L 267.331886 159.593761 
L 267.459429 158.199108 
L 267.5232 158.199108 
L 267.905829 151.981952 
L 268.097143 151.981952 
L 268.224686 150.579005 
L 268.288457 150.579005 
L 268.607314 145.759131 
L 268.671086 145.759131 
L 269.053714 139.530631 
L 269.245029 139.530631 
L 269.372571 138.117961 
L 269.436343 138.117961 
L 269.691429 133.296474 
L 269.882743 133.296474 
L 270.265371 127.056638 
L 270.329143 127.056638 
L 270.584229 122.234944 
L 270.839314 122.234944 
L 271.158171 115.988619 
L 271.221943 115.988619 
L 271.477029 111.16672 
L 271.668343 111.16672 
L 271.923429 106.345432 
L 271.9872 108.650768 
L 272.050971 107.550577 
L 273.3264 87.45363 
L 273.453943 86.428084 
L 274.027886 81.221375 
L 274.155429 80.199591 
L 274.601829 76.426268 
L 274.984457 74.013739 
L 275.175771 72.678296 
L 275.239543 72.498285 
L 275.367086 74.153073 
L 275.430857 73.720033 
L 275.5584 72.702452 
L 275.622171 72.905562 
L 275.685943 73.676541 
L 275.941029 71.63259 
L 276.0048 71.481143 
L 276.132343 70.463411 
L 276.259886 70.856131 
L 276.514971 69.212398 
L 276.770057 67.869951 
L 276.8976 69.161751 
L 277.025143 68.147314 
L 277.088914 68.413568 
L 277.344 66.376099 
L 277.407771 66.166672 
L 277.471543 66.69462 
L 277.662857 65.368858 
L 277.7904 66.846616 
L 277.854171 66.535043 
L 278.045486 65.202937 
L 278.173029 64.680743 
L 278.300571 63.667859 
L 278.428114 64.500485 
L 278.619429 63.814348 
L 278.6832 64.540379 
L 278.746971 64.225621 
L 278.938286 62.199248 
L 279.002057 62.199248 
L 279.193371 61.353355 
L 279.257143 62.071614 
L 279.320914 61.760646 
L 279.639771 59.427219 
L 279.894857 58.267268 
L 280.086171 59.459244 
L 280.149943 59.149265 
L 280.405029 57.519044 
L 280.532571 56.513617 
L 280.596343 56.681859 
L 280.723886 56.062148 
L 280.787657 56.08732 
L 280.851429 56.564745 
L 280.9152 56.255809 
L 281.552914 52.914674 
L 281.616686 53.720027 
L 281.680457 53.41219 
L 281.744229 53.104834 
L 281.808 53.615739 
L 281.871771 53.304854 
L 282.2544 51.070523 
L 282.318171 51.296979 
L 282.445714 52.062163 
L 283.338514 47.836725 
L 283.402286 48.28564 
L 283.466057 47.981346 
L 283.529829 47.677547 
L 283.5936 48.176559 
L 283.657371 47.869409 
L 284.103771 45.837694 
L 284.231314 46.349464 
L 284.295086 46.046736 
L 284.422629 46.77778 
L 284.4864 46.475725 
L 284.550171 46.174191 
L 284.613943 46.246797 
L 284.677714 47.052658 
L 284.741486 46.751811 
L 284.805257 46.451472 
L 284.9328 48.015706 
L 285.060343 47.787987 
L 285.442971 46.352499 
L 285.506743 46.423169 
L 285.698057 45.895921 
L 285.761829 45.967607 
L 285.953143 45.444946 
L 286.016914 45.517648 
L 286.208229 45.993466 
L 286.272 45.698277 
L 286.399543 46.72771 
L 286.463314 46.433235 
L 286.654629 47.853383 
L 286.7184 47.925865 
L 286.782171 47.632544 
L 286.845943 47.705521 
L 286.909714 47.778621 
L 286.973486 47.486618 
L 287.037257 47.70471 
L 287.1648 48.321785 
L 287.228571 48.031046 
L 287.292343 48.824272 
L 287.356114 47.443387 
L 287.419886 47.921402 
L 287.483657 48.863699 
L 287.547429 47.948112 
L 287.674971 50.920876 
L 287.738743 50.993633 
L 287.866286 50.705283 
L 287.930057 50.77852 
L 288.121371 52.810977 
L 288.185143 52.886824 
L 288.248914 52.783209 
L 288.376457 54.820006 
L 288.504 54.89496 
L 288.567771 54.612241 
L 288.631543 54.687675 
L 288.759086 54.838902 
L 288.822857 53.563472 
L 288.886629 53.964487 
L 289.141714 55.234135 
L 289.269257 55.387148 
L 289.333029 56.159074 
L 289.3968 54.818179 
L 289.460571 55.763086 
L 289.524343 54.932835 
L 289.588114 55.449536 
L 289.970743 57.785889 
L 290.034514 56.457079 
L 290.098286 56.983667 
L 290.225829 57.482858 
L 290.417143 62.307092 
L 290.608457 62.599246 
L 290.991086 63.067126 
L 291.1824 65.089133 
L 291.309943 65.166394 
L 291.756343 65.710368 
L 291.883886 69.672423 
L 292.011429 69.751003 
L 292.330286 70.145412 
L 292.5216 70.721782 
L 292.712914 70.959732 
L 292.840457 72.802785 
L 293.159314 73.116884 
L 293.350629 75.02823 
L 293.478171 75.190237 
L 293.988343 77.925407 
L 294.115886 75.931554 
L 294.370971 80.064857 
L 294.434743 78.967117 
L 294.498514 81.591985 
L 294.562286 80.36326 
L 294.7536 81.637619 
L 294.881143 81.879057 
L 295.072457 82.450923 
L 295.2 84.311224 
L 295.327543 84.392084 
L 295.391314 84.473039 
L 295.6464 86.520438 
L 295.773943 88.325395 
L 296.5392 90.262999 
L 296.602971 89.158983 
L 296.666743 89.666853 
L 296.730514 93.074469 
L 296.794286 91.895663 
L 296.921829 92.587019 
L 297.113143 94.094055 
L 297.240686 94.342758 
L 297.304457 93.173813 
L 297.432 95.807057 
L 297.623314 96.446255 
L 298.261029 99.740712 
L 298.3248 99.824084 
L 298.516114 101.910889 
L 298.643657 101.992854 
L 298.7712 102.157052 
L 298.962514 103.811579 
L 299.281371 106.320362 
L 299.472686 106.567651 
L 299.919086 108.855883 
L 299.982857 108.937141 
L 300.301714 110.697583 
L 300.365486 109.597508 
L 300.5568 111.366417 
L 300.620571 111.104537 
L 300.684343 110.068423 
L 300.748114 110.447747 
L 300.875657 112.005725 
L 300.939429 110.972543 
L 301.258286 115.794443 
L 301.385829 115.877829 
L 301.577143 116.637032 
L 301.832229 117.554425 
L 301.959771 117.637193 
L 302.151086 120.494799 
L 302.214857 120.494799 
L 302.661257 121.948125 
L 302.7888 123.606862 
L 302.916343 123.688332 
L 303.362743 126.129728 
L 303.490286 127.412409 
L 303.617829 127.407033 
L 303.745371 127.660858 
L 303.809143 127.659959 
L 303.936686 127.916798 
L 304.064229 127.917464 
L 304.255543 129.903449 
L 304.383086 129.91585 
L 304.5744 130.459866 
L 304.765714 130.47846 
L 304.893257 130.755453 
L 304.957029 130.766515 
L 305.0208 131.034354 
L 305.212114 133.440704 
L 305.339657 133.72952 
L 305.4672 133.764478 
L 305.594743 134.057284 
L 305.658514 134.07651 
L 305.786057 134.372248 
L 305.9136 135.67099 
L 306.041143 135.970292 
L 306.104914 135.992992 
L 306.296229 137.239309 
L 306.423771 137.549783 
L 306.487543 137.578141 
L 306.615086 137.891505 
L 306.678857 137.921375 
L 306.997714 138.843093 
L 307.061486 138.876052 
L 307.380343 141.237357 
L 307.444114 141.276311 
L 307.6992 141.945502 
L 307.762971 141.986913 
L 307.890514 142.325567 
L 308.018057 144.336649 
L 308.273143 145.033175 
L 308.336914 145.081549 
L 308.592 145.787551 
L 308.655771 145.838397 
L 308.783314 146.195226 
L 308.974629 148.766364 
L 309.229714 149.578404 
L 309.293486 149.636021 
L 309.548571 150.377234 
L 309.612343 150.437295 
L 310.186286 152.720164 
L 310.250057 152.788087 
L 310.505143 153.567162 
L 310.568914 153.63698 
L 311.206629 156.527758 
L 311.334171 156.683372 
L 312.290743 161.235238 
L 312.418286 161.412413 
L 313.119771 164.747794 
L 313.247314 164.940824 
L 313.821257 167.55042 
L 313.9488 167.759109 
L 314.203886 168.680134 
L 314.267657 168.786996 
L 314.714057 170.691401 
L 314.777829 170.804182 
L 315.032914 171.787026 
L 315.479314 173.150522 
L 315.606857 174.354315 
L 315.670629 174.47514 
L 315.925714 175.463398 
L 316.053257 175.709952 
L 316.308343 176.704156 
L 316.435886 176.955967 
L 317.009829 179.822942 
L 317.328686 180.737581 
L 317.902629 183.676674 
L 318.731657 186.326309 
L 318.922971 187.779774 
L 319.496914 189.385965 
L 319.688229 190.092436 
L 319.943314 190.957786 
L 320.325943 192.36831 
L 321.0912 194.582469 
L 321.282514 195.32435 
L 321.5376 196.145637 
L 321.920229 198.043887 
L 322.813029 200.742999 
L 323.004343 202.181784 
L 327.3408 214.725713 
L 327.468343 216.961772 
L 327.723429 222.410544 
L 328.488686 238.482604 
L 329.700343 261.554758 
L 329.764114 261.554758 
L 330.082971 268.74507 
L 330.912 280.738367 
L 331.549714 287.522369 
L 332.378743 294.167786 
L 332.633829 296.032146 
L 333.335314 301.516425 
L 333.5904 303.383228 
L 334.291886 308.873769 
L 334.610743 311.092582 
L 334.9296 313.077303 
L 335.376 315.05877 
L 335.439771 315.17401 
L 335.631086 315.756038 
L 335.694857 315.871793 
L 335.758629 316.22328 
L 335.8224 316.103666 
L 336.077486 316.569136 
L 336.141257 316.450188 
L 336.205029 316.567117 
L 336.2688 315.97709 
L 336.396343 316.565387 
L 336.460114 316.447215 
L 336.523886 316.565133 
L 336.587657 316.447332 
L 336.7152 316.565579 
L 336.778971 316.447977 
L 336.842743 316.566561 
L 336.970286 316.332092 
L 337.034057 316.451191 
L 337.097829 316.334399 
L 337.289143 316.457323 
L 337.416686 316.224976 
L 337.480457 316.345303 
L 337.544229 316.22972 
L 337.608 316.114034 
L 337.799314 316.240823 
L 337.926857 316.011209 
L 337.990629 316.132993 
L 338.0544 316.01833 
L 338.118171 315.904092 
L 338.181943 316.026315 
L 338.245714 315.912366 
L 338.309486 315.798493 
L 338.373257 315.921327 
L 338.437029 315.807742 
L 338.5008 315.694398 
L 338.564571 315.817754 
L 338.628343 315.704622 
L 338.755886 315.478915 
L 338.819657 315.602985 
L 338.883429 315.490457 
L 338.9472 315.378094 
L 339.010971 315.502693 
L 339.074743 315.390619 
L 339.202286 315.167033 
L 339.266057 315.292339 
L 339.329829 315.180876 
L 339.457371 314.95852 
L 339.521143 315.084547 
L 339.584914 314.973695 
L 339.712457 314.75256 
L 339.776229 314.879308 
L 339.84 314.769067 
L 340.031314 314.439402 
L 340.095086 314.56694 
L 340.158857 314.457557 
L 340.413943 314.021214 
L 340.477714 314.14985 
L 340.541486 314.041141 
L 340.860343 313.630177 
L 340.924114 314.235503 
L 340.987886 314.12796 
L 341.115429 313.806576 
L 341.1792 314.412925 
L 341.242971 314.199701 
L 341.306743 314.093195 
L 341.434286 314.831875 
L 341.6256 314.408366 
L 341.816914 315.414864 
L 341.944457 315.10034 
L 342.008229 315.709909 
L 342.072 315.605511 
L 342.263314 315.29315 
L 342.454629 314.640823 
L 342.5184 315.252521 
L 342.582171 315.149538 
L 342.901029 314.534736 
L 343.092343 313.991091 
L 343.283657 313.687484 
L 343.347429 314.302588 
L 343.4112 314.201836 
L 343.602514 313.661735 
L 343.793829 313.362076 
L 343.985143 312.731591 
L 344.112686 312.540669 
L 344.304 312.014884 
L 344.367771 311.920196 
L 344.431543 312.543031 
L 344.495314 311.730585 
L 344.559086 312.353558 
L 344.622857 312.01956 
L 344.814171 311.737713 
L 345.005486 311.217126 
L 345.133029 311.030626 
L 345.388114 310.088315 
L 345.579429 309.812441 
L 345.770743 309.313326 
L 345.834514 309.227536 
L 345.898286 309.86155 
L 345.962057 308.815768 
L 346.025829 309.44994 
L 346.153371 309.279172 
L 346.344686 308.784025 
L 346.408457 308.699897 
L 346.663543 307.799355 
L 346.727314 307.71601 
L 346.918629 307.226431 
L 346.9824 307.865561 
L 347.046171 307.783143 
L 347.301257 306.973025 
L 347.365029 306.89152 
L 347.556343 306.326232 
L 347.620114 306.968095 
L 347.683886 306.646532 
L 347.811429 306.486186 
L 348.130286 305.318175 
L 348.257829 305.171082 
L 348.3216 304.857305 
L 348.512914 306.352476 
L 348.576686 306.280076 
L 348.640457 305.967316 
L 349.023086 309.051672 
L 349.341943 310.599996 
L 349.405714 310.289502 
L 349.469486 310.220563 
L 349.788343 308.915009 
L 349.852114 309.573495 
L 350.043429 307.855186 
L 350.1072 307.855186 
L 350.170971 307.481053 
L 350.234743 308.141256 
L 350.298514 307.834305 
L 350.936229 305.189765 
L 351 305.854472 
L 351.191314 304.454553 
L 351.255086 305.120764 
L 351.4464 303.479269 
L 351.510171 304.147025 
L 351.573943 303.843253 
L 352.020343 302.208192 
L 352.147886 302.820406 
L 352.3392 301.856877 
L 352.594286 300.597123 
L 352.658057 301.271368 
L 352.721829 300.971297 
L 352.7856 300.91482 
L 353.040686 299.661919 
L 353.104457 300.339315 
L 353.168229 299.987224 
L 353.295771 299.689158 
L 353.359543 300.064032 
L 353.869714 298.073309 
L 353.933486 298.74844 
L 353.997257 298.447586 
L 354.762514 295.335667 
L 354.826286 295.28261 
L 355.400229 292.799927 
L 355.464 293.485185 
L 355.591543 292.20764 
L 355.655314 292.8437 
L 355.719086 292.548889 
L 356.3568 289.807375 
L 356.420571 290.498209 
L 356.611886 288.885395 
L 356.675657 288.885395 
L 356.8032 289.532428 
L 356.994514 288.370631 
L 357.058286 288.326315 
L 357.823543 285.358612 
L 357.887314 285.31834 
L 358.461257 282.828722 
L 358.652571 280.969354 
L 358.716343 280.969354 
L 358.907657 279.360098 
L 359.0352 279.318624 
L 359.226514 277.712176 
L 359.354057 277.424155 
L 359.4816 276.107128 
L 359.928 274.180641 
L 360.055543 272.86726 
L 360.565714 270.672343 
L 360.757029 269.329494 
L 360.8208 269.329494 
L 361.012114 267.99035 
L 361.075886 267.99035 
L 361.139657 267.711496 
L 361.330971 266.40583 
L 361.394743 266.377584 
L 361.586057 265.04587 
L 361.649829 265.04587 
L 361.7136 264.769742 
L 361.841143 263.718086 
L 361.968686 263.691328 
L 362.16 262.367485 
L 363.881829 255.107953 
L 364.073143 253.837728 
L 364.264457 253.823991 
L 364.392 253.566403 
L 364.455771 253.563183 
L 364.519543 253.308733 
L 364.583314 252.55367 
L 364.647086 253.306367 
L 364.774629 252.298499 
L 364.902171 252.29935 
L 365.029714 252.065269 
L 365.157257 252.076183 
L 365.221029 251.080685 
L 365.2848 251.091499 
L 365.412343 251.102273 
L 365.476114 250.108367 
L 365.539886 250.121286 
L 365.667429 250.134247 
L 365.7312 249.14189 
L 365.794971 249.157034 
L 365.922514 249.171848 
L 366.050057 248.195974 
L 366.113829 248.21176 
L 366.1776 248.21176 
L 366.241371 247.472143 
L 366.305143 247.488749 
L 366.368914 247.488749 
L 366.432686 247.25219 
L 366.496457 246.512858 
L 366.560229 246.530216 
L 366.624 246.530216 
L 366.751543 245.56917 
L 366.815314 245.594459 
L 366.879086 245.594459 
L 366.942857 244.860713 
L 367.006629 244.884286 
L 367.134171 244.909966 
L 367.197943 243.924077 
L 367.261714 243.948712 
L 367.389257 243.974884 
L 367.453029 243.24208 
L 367.5168 243.267613 
L 367.580571 243.267613 
L 367.644343 242.282907 
L 367.708114 242.309623 
L 367.835657 242.335897 
L 367.899429 241.604654 
L 367.9632 241.632497 
L 368.537143 241.944629 
L 368.600914 241.728647 
L 368.664686 241.785691 
L 370.705371 243.758963 
L 370.896686 244.023953 
L 370.960457 243.85819 
L 371.024229 243.949854 
L 371.661943 244.883057 
L 371.725714 244.722134 
L 371.789486 244.821516 
L 372.618514 245.991206 
L 372.682286 245.847955 
L 372.746057 245.964558 
L 373.001143 246.445567 
L 373.064914 246.303888 
L 373.128686 246.427676 
L 373.32 246.799251 
L 373.383771 246.663189 
L 373.893943 247.483115 
L 373.957714 247.362331 
L 374.404114 248.133588 
L 374.531657 248.174011 
L 374.6592 248.484025 
L 374.722971 248.372074 
L 375.041829 248.900826 
L 375.1056 248.796297 
L 375.488229 249.519757 
L 375.552 249.417186 
L 375.807086 249.884301 
L 375.870857 249.802316 
L 376.189714 250.556046 
L 376.253486 250.477031 
L 376.508571 251.068617 
L 376.572343 251.069125 
L 376.763657 251.409814 
L 376.827429 251.416997 
L 377.082514 252.076376 
L 377.146286 252.076376 
L 377.3376 252.488545 
L 377.401371 252.432113 
L 377.592686 252.912885 
L 377.656457 252.861187 
L 377.975314 253.648454 
L 378.039086 253.608158 
L 378.2304 254.14701 
L 378.357943 254.077707 
L 378.421714 254.424106 
L 378.485486 253.534158 
L 378.549257 254.653576 
L 378.613029 254.623937 
L 378.740571 254.951106 
L 378.804343 254.928004 
L 378.995657 255.536963 
L 379.059429 255.520095 
L 379.1232 255.607124 
L 379.250743 255.879152 
L 379.314514 255.868678 
L 379.5696 256.53438 
L 380.079771 257.390679 
L 380.207314 257.838468 
L 380.334857 257.876171 
L 380.4624 258.345566 
L 380.526171 258.373014 
L 380.717486 258.890295 
L 380.845029 258.960409 
L 380.972571 259.475541 
L 381.163886 259.743209 
L 381.3552 260.351796 
L 381.546514 260.686721 
L 381.737829 261.219201 
L 381.929143 261.611835 
L 381.992914 261.695898 
L 382.184229 262.437571 
L 382.311771 262.799664 
L 382.375543 262.682529 
L 382.439314 262.767947 
L 382.630629 263.201125 
L 383.013257 263.988793 
L 383.332114 264.954941 
L 383.714743 265.977514 
L 383.969829 266.81312 
L 384.224914 267.370453 
L 384.288686 267.286236 
L 384.48 267.985458 
L 384.607543 268.224901 
L 387.030857 275.595055 
L 387.222171 276.238003 
L 387.285943 276.211828 
L 387.477257 276.814538 
L 387.541029 276.779704 
L 387.987429 278.519389 
L 388.0512 278.533493 
L 388.242514 279.29168 
L 388.306286 279.298485 
L 388.4976 280.128701 
L 388.561371 280.162759 
L 388.816457 281.103387 
L 388.880229 281.130956 
L 389.135314 282.118483 
L 389.199086 282.174005 
L 389.454171 283.309628 
L 389.517943 282.973913 
L 389.8368 284.656277 
L 390.028114 285.010078 
L 390.091886 286.014221 
L 390.155657 285.713539 
L 390.2832 285.940235 
L 390.474514 286.871649 
L 390.538286 287.023961 
L 390.7296 287.93356 
L 390.793371 288.083819 
L 391.112229 290.280357 
L 391.176 289.970494 
L 391.367314 291.333588 
L 391.431086 290.967311 
L 391.749943 292.800284 
L 391.813714 292.376184 
L 392.0688 293.923684 
L 392.132571 293.890965 
L 392.323886 298.787572 
L 392.387657 298.800913 
L 392.451429 298.635233 
L 392.5152 298.997761 
L 392.578971 298.96474 
L 392.706514 301.742709 
L 392.770286 301.432496 
L 392.9616 303.962386 
L 393.025371 303.670679 
L 393.089143 304.272304 
L 393.152914 303.972102 
L 393.280457 304.516379 
L 393.344229 304.004862 
L 393.471771 306.179984 
L 393.535543 304.835696 
L 393.599314 306.633341 
L 393.790629 304.440298 
L 393.8544 304.575238 
L 393.918171 305.446543 
L 393.981943 304.991359 
L 394.109486 305.257503 
L 394.173257 304.761621 
L 394.237029 304.850253 
L 394.3008 304.938103 
L 394.364571 304.790865 
L 394.492114 305.656691 
L 394.555886 305.106372 
L 394.683429 305.58 
L 394.7472 304.990315 
L 394.810971 305.376917 
L 394.874743 305.375977 
L 394.938514 304.748932 
L 395.066057 305.820346 
L 395.1936 305.518703 
L 395.257371 305.859142 
L 395.321143 305.178642 
L 395.384914 305.47644 
L 395.448686 305.388741 
L 395.512457 305.685516 
L 395.576229 304.982769 
L 395.64 305.253527 
L 518.4 305.253527 
L 518.4 305.253527 
" style="fill:none;stroke:#008000;stroke-linecap:square;"/>
   </g>
   <g id="line2d_2">
    <path clip-path="url(#pb245cbab32)" d="M 72.063771 216 
L 80.991771 215.904441 
L 81.629486 215.587907 
L 82.139657 215.115294 
L 82.522286 214.620895 
L 82.968686 213.705523 
L 83.032457 213.705523 
L 83.223771 213.384313 
L 84.562971 210.958232 
L 84.818057 210.217429 
L 86.858743 205.055439 
L 88.389257 200.134963 
L 88.835657 198.817153 
L 88.899429 198.817153 
L 89.473371 197.030934 
L 89.537143 197.030934 
L 90.047314 195.447902 
L 90.111086 195.447902 
L 90.685029 193.624496 
L 90.7488 193.624496 
L 91.322743 191.787906 
L 91.386514 191.787906 
L 91.896686 190.177007 
L 91.960457 190.177007 
L 92.5344 188.331794 
L 92.598171 188.331794 
L 96.552 173.682971 
L 102.929143 149.392097 
L 106.181486 137.92121 
L 108.796114 129.460844 
L 110.964343 123.190432 
L 112.749943 118.665898 
L 114.344229 115.184777 
L 115.874743 112.372078 
L 117.277714 110.260073 
L 118.553143 108.726382 
L 119.7648 107.606154 
L 120.912686 106.840372 
L 121.9968 106.374683 
L 123.208457 106.114101 
L 124.292571 106.136629 
L 125.185371 106.340083 
L 125.440457 106.42831 
L 126.4608 106.846957 
L 127.991314 107.749031 
L 128.118857 107.90032 
L 128.373943 108.239296 
L 128.820343 108.677307 
L 129.075429 108.877554 
L 130.861029 110.471944 
L 131.116114 110.835228 
L 133.666971 113.904417 
L 133.858286 114.196708 
L 134.432229 115.186555 
L 134.687314 115.686063 
L 137.1744 119.800642 
L 137.493257 120.599293 
L 140.809371 126.728078 
L 149.418514 144.173982 
L 152.989714 152.663825 
L 155.731886 159.682129 
L 155.9232 160.363144 
L 155.986971 160.363144 
L 159.4944 169.46373 
L 161.662629 174.371852 
L 163.894629 178.882852 
L 166.1904 183.037967 
L 168.805029 187.305893 
L 172.057371 192.142814 
L 177.988114 200.846125 
L 179.072229 202.960844 
L 179.327314 203.810502 
L 179.391086 203.810502 
L 179.709943 204.869647 
L 179.837486 205.351106 
L 180.156343 206.537377 
L 181.368 209.663829 
L 181.431771 209.663829 
L 181.623086 210.647439 
L 182.515886 213.749427 
L 182.834743 215.308501 
L 183.918857 219.568754 
L 184.173943 220.804282 
L 185.513143 226.203175 
L 185.832 228.096352 
L 189.530743 244.473031 
L 197.247086 280.962076 
L 197.629714 283.811339 
L 198.841371 289.524806 
L 198.905143 289.524806 
L 199.479086 291.953547 
L 199.542857 291.953547 
L 200.626971 296.570991 
L 200.690743 296.570991 
L 201.456 300.14119 
L 201.647314 300.966195 
L 202.285029 303.338425 
L 202.3488 303.338425 
L 203.2416 306.469219 
L 203.305371 306.469219 
L 204.325714 309.73003 
L 205.0272 311.689394 
L 205.090971 311.689394 
L 206.047543 314.1346 
L 207.386743 317.287498 
L 208.5984 319.624544 
L 209.746286 321.372338 
L 210.766629 322.543021 
L 211.7232 323.315229 
L 212.679771 323.803413 
L 213.827657 324.125224 
L 215.677029 324.370363 
L 216.952457 324.40302 
L 218.036571 324.140309 
L 219.248229 323.573985 
L 220.396114 322.83343 
L 223.265829 320.881627 
L 226.9008 318.930503 
L 234.106971 314.820634 
L 234.298286 314.711767 
L 243.991543 309.087131 
L 244.3104 308.869402 
L 245.585829 308.034778 
L 245.968457 307.744471 
L 247.243886 306.909846 
L 247.562743 306.692118 
L 251.0064 304.84143 
L 251.261486 304.768858 
L 251.516571 304.587419 
L 251.771657 304.478551 
L 256.299429 302.010967 
L 256.554514 301.902106 
L 257.511086 301.46665 
L 257.766171 301.357782 
L 264.717257 297.275977 
L 266.184 295.897879 
L 267.459429 294.319185 
L 268.607314 292.584142 
L 269.818971 290.382804 
L 271.030629 287.787827 
L 272.369829 284.418574 
L 273.709029 280.422819 
L 275.622171 273.962054 
L 278.109257 264.934122 
L 280.978971 253.729348 
L 283.784914 241.892152 
L 287.228571 226.548375 
L 287.547429 224.537928 
L 288.376457 221.151259 
L 288.440229 221.151259 
L 289.269257 217.222651 
L 289.588114 215.255535 
L 290.098286 212.735501 
L 290.353371 211.347258 
L 291.1824 208.078751 
L 291.246171 208.078751 
L 292.394057 203.529017 
L 292.457829 203.529017 
L 292.712914 202.20735 
L 296.284114 187.744891 
L 296.347886 187.744891 
L 296.921829 185.329959 
L 297.113143 184.616407 
L 299.026286 177.924538 
L 299.855314 175.290371 
L 299.919086 175.290371 
L 300.429257 173.345203 
L 300.939429 170.543621 
L 302.3424 166.219608 
L 303.426514 163.087705 
L 303.490286 163.087705 
L 305.084571 158.635959 
L 305.148343 158.635959 
L 306.933943 154.00437 
L 308.910857 149.170599 
L 311.142857 144.375829 
L 312.992229 140.900805 
L 314.8416 137.889796 
L 316.563429 135.475365 
L 318.221486 133.544016 
L 319.752 132.079051 
L 321.346286 130.839697 
L 322.685486 130.0342 
L 322.8768 129.938702 
L 324.471086 129.300526 
L 326.0016 128.92364 
L 327.468343 128.78272 
L 327.978514 128.905815 
L 328.552457 129.27052 
L 329.190171 129.937733 
L 329.955429 131.078835 
L 330.912 132.963609 
L 332.187429 136.068668 
L 333.717943 140.377643 
L 335.439771 145.928547 
L 341.051657 165.130928 
L 341.370514 166.619868 
L 341.6256 167.68778 
L 341.944457 169.190126 
L 342.837257 172.408811 
L 343.092343 173.472586 
L 348.3216 191.097841 
L 349.341943 196.647272 
L 353.104457 208.893695 
L 353.359543 209.797307 
L 357.2496 220.494183 
L 358.397486 223.027467 
L 358.461257 223.027467 
L 358.971429 223.995375 
L 359.0352 223.995375 
L 359.609143 225.041502 
L 359.672914 225.041502 
L 360.119314 225.78368 
L 360.183086 225.78368 
L 360.757029 226.721837 
L 360.8208 226.721837 
L 361.2672 227.386026 
L 361.394743 227.49426 
L 361.904914 228.223335 
L 362.032457 228.323571 
L 362.478857 228.911564 
L 362.6064 229.006113 
L 363.116571 229.652033 
L 363.244114 229.740968 
L 363.754286 230.260111 
L 364.8384 231.546403 
L 364.965943 231.623762 
L 365.603657 232.223966 
L 365.7312 232.295054 
L 366.305143 232.780039 
L 366.432686 232.847059 
L 367.0704 233.354493 
L 367.197943 233.41436 
L 367.771886 233.820281 
L 367.9632 233.930099 
L 372.108343 237.648201 
L 375.615771 241.129734 
L 378.613029 244.41622 
L 381.482743 247.917862 
L 384.097371 251.462775 
L 386.712 255.385289 
L 389.199086 259.5069 
L 391.686171 264.052232 
L 392.132571 265.047346 
L 392.387657 265.700459 
L 392.706514 266.502787 
L 392.9616 267.192523 
L 395.64 273.18759 
L 395.767543 216 
L 518.4 216 
L 518.4 216 
" style="fill:none;stroke:#0000ff;stroke-linecap:square;"/>
   </g>
   <g id="patch_3">
    <path d="M 72 43.2 
L 518.4 43.2 
" style="fill:none;stroke:#000000;stroke-linecap:square;stroke-linejoin:miter;"/>
   </g>
   <g id="patch_4">
    <path d="M 518.4 388.8 
L 518.4 43.2 
" style="fill:none;stroke:#000000;stroke-linecap:square;stroke-linejoin:miter;"/>
   </g>
   <g id="patch_5">
    <path d="M 72 388.8 
L 518.4 388.8 
" style="fill:none;stroke:#000000;stroke-linecap:square;stroke-linejoin:miter;"/>
   </g>
   <g id="patch_6">
    <path d="M 72 388.8 
L 72 43.2 
" style="fill:none;stroke:#000000;stroke-linecap:square;stroke-linejoin:miter;"/>
   </g>
   <g id="matplotlib.axis_1">
    <g id="xtick_1">
     <g id="line2d_3">
      <path clip-path="url(#pb245cbab32)" d="M 72 388.8 
L 72 43.2 
" style="fill:none;stroke:#000000;stroke-dasharray:1.000000,3.000000;stroke-dashoffset:0.0;stroke-width:0.5;"/>
     </g>
     <g id="line2d_4">
      <defs>
       <path d="M 0 0 
L 0 -4 
" id="m946ed13f40" style="stroke:#000000;stroke-width:0.5;"/>
      </defs>
      <g>
       <use style="stroke:#000000;stroke-width:0.5;" x="72.0" xlink:href="#m946ed13f40" y="388.8"/>
      </g>
     </g>
     <g id="line2d_5">
      <defs>
       <path d="M 0 0 
L 0 4 
" id="ma449a6ca1f" style="stroke:#000000;stroke-width:0.5;"/>
      </defs>
      <g>
       <use style="stroke:#000000;stroke-width:0.5;" x="72.0" xlink:href="#ma449a6ca1f" y="43.2"/>
      </g>
     </g>
     <g id="text_1">
      <!-- 0 -->
      <defs>
       <path d="M 31.78125 66.40625 
Q 24.171875 66.40625 20.328125 58.90625 
Q 16.5 51.421875 16.5 36.375 
Q 16.5 21.390625 20.328125 13.890625 
Q 24.171875 6.390625 31.78125 6.390625 
Q 39.453125 6.390625 43.28125 13.890625 
Q 47.125 21.390625 47.125 36.375 
Q 47.125 51.421875 43.28125 58.90625 
Q 39.453125 66.40625 31.78125 66.40625 
M 31.78125 74.21875 
Q 44.046875 74.21875 50.515625 64.515625 
Q 56.984375 54.828125 56.984375 36.375 
Q 56.984375 17.96875 50.515625 8.265625 
Q 44.046875 -1.421875 31.78125 -1.421875 
Q 19.53125 -1.421875 13.0625 8.265625 
Q 6.59375 17.96875 6.59375 36.375 
Q 6.59375 54.828125 13.0625 64.515625 
Q 19.53125 74.21875 31.78125 74.21875 
" id="BitstreamVeraSans-Roman-30"/>
      </defs>
      <g transform="translate(68.1825 401.918125)scale(0.12 -0.12)">
       <use xlink:href="#BitstreamVeraSans-Roman-30"/>
      </g>
     </g>
    </g>
    <g id="xtick_2">
     <g id="line2d_6">
      <path clip-path="url(#pb245cbab32)" d="M 135.771429 388.8 
L 135.771429 43.2 
" style="fill:none;stroke:#000000;stroke-dasharray:1.000000,3.000000;stroke-dashoffset:0.0;stroke-width:0.5;"/>
     </g>
     <g id="line2d_7">
      <g>
       <use style="stroke:#000000;stroke-width:0.5;" x="135.771428571" xlink:href="#m946ed13f40" y="388.8"/>
      </g>
     </g>
     <g id="line2d_8">
      <g>
       <use style="stroke:#000000;stroke-width:0.5;" x="135.771428571" xlink:href="#ma449a6ca1f" y="43.2"/>
      </g>
     </g>
     <g id="text_2">
      <!-- 10 -->
      <defs>
       <path d="M 12.40625 8.296875 
L 28.515625 8.296875 
L 28.515625 63.921875 
L 10.984375 60.40625 
L 10.984375 69.390625 
L 28.421875 72.90625 
L 38.28125 72.90625 
L 38.28125 8.296875 
L 54.390625 8.296875 
L 54.390625 0 
L 12.40625 0 
z
" id="BitstreamVeraSans-Roman-31"/>
      </defs>
      <g transform="translate(128.136428571 401.918125)scale(0.12 -0.12)">
       <use xlink:href="#BitstreamVeraSans-Roman-31"/>
       <use x="63.623046875" xlink:href="#BitstreamVeraSans-Roman-30"/>
      </g>
     </g>
    </g>
    <g id="xtick_3">
     <g id="line2d_9">
      <path clip-path="url(#pb245cbab32)" d="M 199.542857 388.8 
L 199.542857 43.2 
" style="fill:none;stroke:#000000;stroke-dasharray:1.000000,3.000000;stroke-dashoffset:0.0;stroke-width:0.5;"/>
     </g>
     <g id="line2d_10">
      <g>
       <use style="stroke:#000000;stroke-width:0.5;" x="199.542857143" xlink:href="#m946ed13f40" y="388.8"/>
      </g>
     </g>
     <g id="line2d_11">
      <g>
       <use style="stroke:#000000;stroke-width:0.5;" x="199.542857143" xlink:href="#ma449a6ca1f" y="43.2"/>
      </g>
     </g>
     <g id="text_3">
      <!-- 20 -->
      <defs>
       <path d="M 19.1875 8.296875 
L 53.609375 8.296875 
L 53.609375 0 
L 7.328125 0 
L 7.328125 8.296875 
Q 12.9375 14.109375 22.625 23.890625 
Q 32.328125 33.6875 34.8125 36.53125 
Q 39.546875 41.84375 41.421875 45.53125 
Q 43.3125 49.21875 43.3125 52.78125 
Q 43.3125 58.59375 39.234375 62.25 
Q 35.15625 65.921875 28.609375 65.921875 
Q 23.96875 65.921875 18.8125 64.3125 
Q 13.671875 62.703125 7.8125 59.421875 
L 7.8125 69.390625 
Q 13.765625 71.78125 18.9375 73 
Q 24.125 74.21875 28.421875 74.21875 
Q 39.75 74.21875 46.484375 68.546875 
Q 53.21875 62.890625 53.21875 53.421875 
Q 53.21875 48.921875 51.53125 44.890625 
Q 49.859375 40.875 45.40625 35.40625 
Q 44.1875 33.984375 37.640625 27.21875 
Q 31.109375 20.453125 19.1875 8.296875 
" id="BitstreamVeraSans-Roman-32"/>
      </defs>
      <g transform="translate(191.907857143 401.918125)scale(0.12 -0.12)">
       <use xlink:href="#BitstreamVeraSans-Roman-32"/>
       <use x="63.623046875" xlink:href="#BitstreamVeraSans-Roman-30"/>
      </g>
     </g>
    </g>
    <g id="xtick_4">
     <g id="line2d_12">
      <path clip-path="url(#pb245cbab32)" d="M 263.314286 388.8 
L 263.314286 43.2 
" style="fill:none;stroke:#000000;stroke-dasharray:1.000000,3.000000;stroke-dashoffset:0.0;stroke-width:0.5;"/>
     </g>
     <g id="line2d_13">
      <g>
       <use style="stroke:#000000;stroke-width:0.5;" x="263.314285714" xlink:href="#m946ed13f40" y="388.8"/>
      </g>
     </g>
     <g id="line2d_14">
      <g>
       <use style="stroke:#000000;stroke-width:0.5;" x="263.314285714" xlink:href="#ma449a6ca1f" y="43.2"/>
      </g>
     </g>
     <g id="text_4">
      <!-- 30 -->
      <defs>
       <path d="M 40.578125 39.3125 
Q 47.65625 37.796875 51.625 33 
Q 55.609375 28.21875 55.609375 21.1875 
Q 55.609375 10.40625 48.1875 4.484375 
Q 40.765625 -1.421875 27.09375 -1.421875 
Q 22.515625 -1.421875 17.65625 -0.515625 
Q 12.796875 0.390625 7.625 2.203125 
L 7.625 11.71875 
Q 11.71875 9.328125 16.59375 8.109375 
Q 21.484375 6.890625 26.8125 6.890625 
Q 36.078125 6.890625 40.9375 10.546875 
Q 45.796875 14.203125 45.796875 21.1875 
Q 45.796875 27.640625 41.28125 31.265625 
Q 36.765625 34.90625 28.71875 34.90625 
L 20.21875 34.90625 
L 20.21875 43.015625 
L 29.109375 43.015625 
Q 36.375 43.015625 40.234375 45.921875 
Q 44.09375 48.828125 44.09375 54.296875 
Q 44.09375 59.90625 40.109375 62.90625 
Q 36.140625 65.921875 28.71875 65.921875 
Q 24.65625 65.921875 20.015625 65.03125 
Q 15.375 64.15625 9.8125 62.3125 
L 9.8125 71.09375 
Q 15.4375 72.65625 20.34375 73.4375 
Q 25.25 74.21875 29.59375 74.21875 
Q 40.828125 74.21875 47.359375 69.109375 
Q 53.90625 64.015625 53.90625 55.328125 
Q 53.90625 49.265625 50.4375 45.09375 
Q 46.96875 40.921875 40.578125 39.3125 
" id="BitstreamVeraSans-Roman-33"/>
      </defs>
      <g transform="translate(255.679285714 401.918125)scale(0.12 -0.12)">
       <use xlink:href="#BitstreamVeraSans-Roman-33"/>
       <use x="63.623046875" xlink:href="#BitstreamVeraSans-Roman-30"/>
      </g>
     </g>
    </g>
    <g id="xtick_5">
     <g id="line2d_15">
      <path clip-path="url(#pb245cbab32)" d="M 327.085714 388.8 
L 327.085714 43.2 
" style="fill:none;stroke:#000000;stroke-dasharray:1.000000,3.000000;stroke-dashoffset:0.0;stroke-width:0.5;"/>
     </g>
     <g id="line2d_16">
      <g>
       <use style="stroke:#000000;stroke-width:0.5;" x="327.085714286" xlink:href="#m946ed13f40" y="388.8"/>
      </g>
     </g>
     <g id="line2d_17">
      <g>
       <use style="stroke:#000000;stroke-width:0.5;" x="327.085714286" xlink:href="#ma449a6ca1f" y="43.2"/>
      </g>
     </g>
     <g id="text_5">
      <!-- 40 -->
      <defs>
       <path d="M 37.796875 64.3125 
L 12.890625 25.390625 
L 37.796875 25.390625 
z
M 35.203125 72.90625 
L 47.609375 72.90625 
L 47.609375 25.390625 
L 58.015625 25.390625 
L 58.015625 17.1875 
L 47.609375 17.1875 
L 47.609375 0 
L 37.796875 0 
L 37.796875 17.1875 
L 4.890625 17.1875 
L 4.890625 26.703125 
z
" id="BitstreamVeraSans-Roman-34"/>
      </defs>
      <g transform="translate(319.450714286 401.918125)scale(0.12 -0.12)">
       <use xlink:href="#BitstreamVeraSans-Roman-34"/>
       <use x="63.623046875" xlink:href="#BitstreamVeraSans-Roman-30"/>
      </g>
     </g>
    </g>
    <g id="xtick_6">
     <g id="line2d_18">
      <path clip-path="url(#pb245cbab32)" d="M 390.857143 388.8 
L 390.857143 43.2 
" style="fill:none;stroke:#000000;stroke-dasharray:1.000000,3.000000;stroke-dashoffset:0.0;stroke-width:0.5;"/>
     </g>
     <g id="line2d_19">
      <g>
       <use style="stroke:#000000;stroke-width:0.5;" x="390.857142857" xlink:href="#m946ed13f40" y="388.8"/>
      </g>
     </g>
     <g id="line2d_20">
      <g>
       <use style="stroke:#000000;stroke-width:0.5;" x="390.857142857" xlink:href="#ma449a6ca1f" y="43.2"/>
      </g>
     </g>
     <g id="text_6">
      <!-- 50 -->
      <defs>
       <path d="M 10.796875 72.90625 
L 49.515625 72.90625 
L 49.515625 64.59375 
L 19.828125 64.59375 
L 19.828125 46.734375 
Q 21.96875 47.46875 24.109375 47.828125 
Q 26.265625 48.1875 28.421875 48.1875 
Q 40.625 48.1875 47.75 41.5 
Q 54.890625 34.8125 54.890625 23.390625 
Q 54.890625 11.625 47.5625 5.09375 
Q 40.234375 -1.421875 26.90625 -1.421875 
Q 22.3125 -1.421875 17.546875 -0.640625 
Q 12.796875 0.140625 7.71875 1.703125 
L 7.71875 11.625 
Q 12.109375 9.234375 16.796875 8.0625 
Q 21.484375 6.890625 26.703125 6.890625 
Q 35.15625 6.890625 40.078125 11.328125 
Q 45.015625 15.765625 45.015625 23.390625 
Q 45.015625 31 40.078125 35.4375 
Q 35.15625 39.890625 26.703125 39.890625 
Q 22.75 39.890625 18.8125 39.015625 
Q 14.890625 38.140625 10.796875 36.28125 
z
" id="BitstreamVeraSans-Roman-35"/>
      </defs>
      <g transform="translate(383.222142857 401.918125)scale(0.12 -0.12)">
       <use xlink:href="#BitstreamVeraSans-Roman-35"/>
       <use x="63.623046875" xlink:href="#BitstreamVeraSans-Roman-30"/>
      </g>
     </g>
    </g>
    <g id="xtick_7">
     <g id="line2d_21">
      <path clip-path="url(#pb245cbab32)" d="M 454.628571 388.8 
L 454.628571 43.2 
" style="fill:none;stroke:#000000;stroke-dasharray:1.000000,3.000000;stroke-dashoffset:0.0;stroke-width:0.5;"/>
     </g>
     <g id="line2d_22">
      <g>
       <use style="stroke:#000000;stroke-width:0.5;" x="454.628571429" xlink:href="#m946ed13f40" y="388.8"/>
      </g>
     </g>
     <g id="line2d_23">
      <g>
       <use style="stroke:#000000;stroke-width:0.5;" x="454.628571429" xlink:href="#ma449a6ca1f" y="43.2"/>
      </g>
     </g>
     <g id="text_7">
      <!-- 60 -->
      <defs>
       <path d="M 33.015625 40.375 
Q 26.375 40.375 22.484375 35.828125 
Q 18.609375 31.296875 18.609375 23.390625 
Q 18.609375 15.53125 22.484375 10.953125 
Q 26.375 6.390625 33.015625 6.390625 
Q 39.65625 6.390625 43.53125 10.953125 
Q 47.40625 15.53125 47.40625 23.390625 
Q 47.40625 31.296875 43.53125 35.828125 
Q 39.65625 40.375 33.015625 40.375 
M 52.59375 71.296875 
L 52.59375 62.3125 
Q 48.875 64.0625 45.09375 64.984375 
Q 41.3125 65.921875 37.59375 65.921875 
Q 27.828125 65.921875 22.671875 59.328125 
Q 17.53125 52.734375 16.796875 39.40625 
Q 19.671875 43.65625 24.015625 45.921875 
Q 28.375 48.1875 33.59375 48.1875 
Q 44.578125 48.1875 50.953125 41.515625 
Q 57.328125 34.859375 57.328125 23.390625 
Q 57.328125 12.15625 50.6875 5.359375 
Q 44.046875 -1.421875 33.015625 -1.421875 
Q 20.359375 -1.421875 13.671875 8.265625 
Q 6.984375 17.96875 6.984375 36.375 
Q 6.984375 53.65625 15.1875 63.9375 
Q 23.390625 74.21875 37.203125 74.21875 
Q 40.921875 74.21875 44.703125 73.484375 
Q 48.484375 72.75 52.59375 71.296875 
" id="BitstreamVeraSans-Roman-36"/>
      </defs>
      <g transform="translate(446.993571429 401.918125)scale(0.12 -0.12)">
       <use xlink:href="#BitstreamVeraSans-Roman-36"/>
       <use x="63.623046875" xlink:href="#BitstreamVeraSans-Roman-30"/>
      </g>
     </g>
    </g>
    <g id="xtick_8">
     <g id="line2d_24">
      <path clip-path="url(#pb245cbab32)" d="M 518.4 388.8 
L 518.4 43.2 
" style="fill:none;stroke:#000000;stroke-dasharray:1.000000,3.000000;stroke-dashoffset:0.0;stroke-width:0.5;"/>
     </g>
     <g id="line2d_25">
      <g>
       <use style="stroke:#000000;stroke-width:0.5;" x="518.4" xlink:href="#m946ed13f40" y="388.8"/>
      </g>
     </g>
     <g id="line2d_26">
      <g>
       <use style="stroke:#000000;stroke-width:0.5;" x="518.4" xlink:href="#ma449a6ca1f" y="43.2"/>
      </g>
     </g>
     <g id="text_8">
      <!-- 70 -->
      <defs>
       <path d="M 8.203125 72.90625 
L 55.078125 72.90625 
L 55.078125 68.703125 
L 28.609375 0 
L 18.3125 0 
L 43.21875 64.59375 
L 8.203125 64.59375 
z
" id="BitstreamVeraSans-Roman-37"/>
      </defs>
      <g transform="translate(510.765 401.918125)scale(0.12 -0.12)">
       <use xlink:href="#BitstreamVeraSans-Roman-37"/>
       <use x="63.623046875" xlink:href="#BitstreamVeraSans-Roman-30"/>
      </g>
     </g>
    </g>
    <g id="text_9">
     <!-- Time, [s] -->
     <defs>
      <path id="BitstreamVeraSans-Roman-20"/>
      <path d="M 8.59375 75.984375 
L 29.296875 75.984375 
L 29.296875 69 
L 17.578125 69 
L 17.578125 -6.203125 
L 29.296875 -6.203125 
L 29.296875 -13.1875 
L 8.59375 -13.1875 
z
" id="BitstreamVeraSans-Roman-5b"/>
      <path d="M 30.421875 75.984375 
L 30.421875 -13.1875 
L 9.71875 -13.1875 
L 9.71875 -6.203125 
L 21.390625 -6.203125 
L 21.390625 69 
L 9.71875 69 
L 9.71875 75.984375 
z
" id="BitstreamVeraSans-Roman-5d"/>
      <path d="M 52 44.1875 
Q 55.375 50.25 60.0625 53.125 
Q 64.75 56 71.09375 56 
Q 79.640625 56 84.28125 50.015625 
Q 88.921875 44.046875 88.921875 33.015625 
L 88.921875 0 
L 79.890625 0 
L 79.890625 32.71875 
Q 79.890625 40.578125 77.09375 44.375 
Q 74.3125 48.1875 68.609375 48.1875 
Q 61.625 48.1875 57.5625 43.546875 
Q 53.515625 38.921875 53.515625 30.90625 
L 53.515625 0 
L 44.484375 0 
L 44.484375 32.71875 
Q 44.484375 40.625 41.703125 44.40625 
Q 38.921875 48.1875 33.109375 48.1875 
Q 26.21875 48.1875 22.15625 43.53125 
Q 18.109375 38.875 18.109375 30.90625 
L 18.109375 0 
L 9.078125 0 
L 9.078125 54.6875 
L 18.109375 54.6875 
L 18.109375 46.1875 
Q 21.1875 51.21875 25.484375 53.609375 
Q 29.78125 56 35.6875 56 
Q 41.65625 56 45.828125 52.96875 
Q 50 49.953125 52 44.1875 
" id="BitstreamVeraSans-Roman-6d"/>
      <path d="M 11.71875 12.40625 
L 22.015625 12.40625 
L 22.015625 4 
L 14.015625 -11.625 
L 7.71875 -11.625 
L 11.71875 4 
z
" id="BitstreamVeraSans-Roman-2c"/>
      <path d="M 9.421875 54.6875 
L 18.40625 54.6875 
L 18.40625 0 
L 9.421875 0 
z
M 9.421875 75.984375 
L 18.40625 75.984375 
L 18.40625 64.59375 
L 9.421875 64.59375 
z
" id="BitstreamVeraSans-Roman-69"/>
      <path d="M 56.203125 29.59375 
L 56.203125 25.203125 
L 14.890625 25.203125 
Q 15.484375 15.921875 20.484375 11.0625 
Q 25.484375 6.203125 34.421875 6.203125 
Q 39.59375 6.203125 44.453125 7.46875 
Q 49.3125 8.734375 54.109375 11.28125 
L 54.109375 2.78125 
Q 49.265625 0.734375 44.1875 -0.34375 
Q 39.109375 -1.421875 33.890625 -1.421875 
Q 20.796875 -1.421875 13.15625 6.1875 
Q 5.515625 13.8125 5.515625 26.8125 
Q 5.515625 40.234375 12.765625 48.109375 
Q 20.015625 56 32.328125 56 
Q 43.359375 56 49.78125 48.890625 
Q 56.203125 41.796875 56.203125 29.59375 
M 47.21875 32.234375 
Q 47.125 39.59375 43.09375 43.984375 
Q 39.0625 48.390625 32.421875 48.390625 
Q 24.90625 48.390625 20.390625 44.140625 
Q 15.875 39.890625 15.1875 32.171875 
z
" id="BitstreamVeraSans-Roman-65"/>
      <path d="M -0.296875 72.90625 
L 61.375 72.90625 
L 61.375 64.59375 
L 35.5 64.59375 
L 35.5 0 
L 25.59375 0 
L 25.59375 64.59375 
L -0.296875 64.59375 
z
" id="BitstreamVeraSans-Roman-54"/>
      <path d="M 44.28125 53.078125 
L 44.28125 44.578125 
Q 40.484375 46.53125 36.375 47.5 
Q 32.28125 48.484375 27.875 48.484375 
Q 21.1875 48.484375 17.84375 46.4375 
Q 14.5 44.390625 14.5 40.28125 
Q 14.5 37.15625 16.890625 35.375 
Q 19.28125 33.59375 26.515625 31.984375 
L 29.59375 31.296875 
Q 39.15625 29.25 43.1875 25.515625 
Q 47.21875 21.78125 47.21875 15.09375 
Q 47.21875 7.46875 41.1875 3.015625 
Q 35.15625 -1.421875 24.609375 -1.421875 
Q 20.21875 -1.421875 15.453125 -0.5625 
Q 10.6875 0.296875 5.421875 2 
L 5.421875 11.28125 
Q 10.40625 8.6875 15.234375 7.390625 
Q 20.0625 6.109375 24.8125 6.109375 
Q 31.15625 6.109375 34.5625 8.28125 
Q 37.984375 10.453125 37.984375 14.40625 
Q 37.984375 18.0625 35.515625 20.015625 
Q 33.0625 21.96875 24.703125 23.78125 
L 21.578125 24.515625 
Q 13.234375 26.265625 9.515625 29.90625 
Q 5.8125 33.546875 5.8125 39.890625 
Q 5.8125 47.609375 11.28125 51.796875 
Q 16.75 56 26.8125 56 
Q 31.78125 56 36.171875 55.265625 
Q 40.578125 54.546875 44.28125 53.078125 
" id="BitstreamVeraSans-Roman-73"/>
     </defs>
     <g transform="translate(268.71375 418.531875)scale(0.12 -0.12)">
      <use xlink:href="#BitstreamVeraSans-Roman-54"/>
      <use x="61.037109375" xlink:href="#BitstreamVeraSans-Roman-69"/>
      <use x="88.8203125" xlink:href="#BitstreamVeraSans-Roman-6d"/>
      <use x="186.232421875" xlink:href="#BitstreamVeraSans-Roman-65"/>
      <use x="247.755859375" xlink:href="#BitstreamVeraSans-Roman-2c"/>
      <use x="279.54296875" xlink:href="#BitstreamVeraSans-Roman-20"/>
      <use x="311.330078125" xlink:href="#BitstreamVeraSans-Roman-5b"/>
      <use x="350.34375" xlink:href="#BitstreamVeraSans-Roman-73"/>
      <use x="402.443359375" xlink:href="#BitstreamVeraSans-Roman-5d"/>
     </g>
    </g>
   </g>
   <g id="matplotlib.axis_2">
    <g id="ytick_1">
     <g id="line2d_27">
      <path clip-path="url(#pb245cbab32)" d="M 72 388.8 
L 518.4 388.8 
" style="fill:none;stroke:#000000;stroke-dasharray:1.000000,3.000000;stroke-dashoffset:0.0;stroke-width:0.5;"/>
     </g>
     <g id="line2d_28">
      <defs>
       <path d="M 0 0 
L 4 0 
" id="me249385cbf" style="stroke:#000000;stroke-width:0.5;"/>
      </defs>
      <g>
       <use style="stroke:#000000;stroke-width:0.5;" x="72.0" xlink:href="#me249385cbf" y="388.8"/>
      </g>
     </g>
     <g id="line2d_29">
      <defs>
       <path d="M 0 0 
L -4 0 
" id="m3419274bd9" style="stroke:#000000;stroke-width:0.5;"/>
      </defs>
      <g>
       <use style="stroke:#000000;stroke-width:0.5;" x="518.4" xlink:href="#m3419274bd9" y="388.8"/>
      </g>
     </g>
     <g id="text_10">
      <!-- 1.5 -->
      <defs>
       <path d="M 10.59375 35.5 
L 73.1875 35.5 
L 73.1875 27.203125 
L 10.59375 27.203125 
z
" id="BitstreamVeraSans-Roman-2212"/>
       <path d="M 10.6875 12.40625 
L 21 12.40625 
L 21 0 
L 10.6875 0 
z
" id="BitstreamVeraSans-Roman-2e"/>
      </defs>
      <g transform="translate(38.860625 392.11125)scale(0.12 -0.12)">
       <use xlink:href="#BitstreamVeraSans-Roman-2212"/>
       <use x="83.7890625" xlink:href="#BitstreamVeraSans-Roman-31"/>
       <use x="147.412109375" xlink:href="#BitstreamVeraSans-Roman-2e"/>
       <use x="179.19921875" xlink:href="#BitstreamVeraSans-Roman-35"/>
      </g>
     </g>
    </g>
    <g id="ytick_2">
     <g id="line2d_30">
      <path clip-path="url(#pb245cbab32)" d="M 72 331.2 
L 518.4 331.2 
" style="fill:none;stroke:#000000;stroke-dasharray:1.000000,3.000000;stroke-dashoffset:0.0;stroke-width:0.5;"/>
     </g>
     <g id="line2d_31">
      <g>
       <use style="stroke:#000000;stroke-width:0.5;" x="72.0" xlink:href="#me249385cbf" y="331.2"/>
      </g>
     </g>
     <g id="line2d_32">
      <g>
       <use style="stroke:#000000;stroke-width:0.5;" x="518.4" xlink:href="#m3419274bd9" y="331.2"/>
      </g>
     </g>
     <g id="text_11">
      <!-- 1.0 -->
      <g transform="translate(38.860625 334.51125)scale(0.12 -0.12)">
       <use xlink:href="#BitstreamVeraSans-Roman-2212"/>
       <use x="83.7890625" xlink:href="#BitstreamVeraSans-Roman-31"/>
       <use x="147.412109375" xlink:href="#BitstreamVeraSans-Roman-2e"/>
       <use x="179.19921875" xlink:href="#BitstreamVeraSans-Roman-30"/>
      </g>
     </g>
    </g>
    <g id="ytick_3">
     <g id="line2d_33">
      <path clip-path="url(#pb245cbab32)" d="M 72 273.6 
L 518.4 273.6 
" style="fill:none;stroke:#000000;stroke-dasharray:1.000000,3.000000;stroke-dashoffset:0.0;stroke-width:0.5;"/>
     </g>
     <g id="line2d_34">
      <g>
       <use style="stroke:#000000;stroke-width:0.5;" x="72.0" xlink:href="#me249385cbf" y="273.6"/>
      </g>
     </g>
     <g id="line2d_35">
      <g>
       <use style="stroke:#000000;stroke-width:0.5;" x="518.4" xlink:href="#m3419274bd9" y="273.6"/>
      </g>
     </g>
     <g id="text_12">
      <!-- 0.5 -->
      <g transform="translate(38.860625 276.91125)scale(0.12 -0.12)">
       <use xlink:href="#BitstreamVeraSans-Roman-2212"/>
       <use x="83.7890625" xlink:href="#BitstreamVeraSans-Roman-30"/>
       <use x="147.412109375" xlink:href="#BitstreamVeraSans-Roman-2e"/>
       <use x="179.19921875" xlink:href="#BitstreamVeraSans-Roman-35"/>
      </g>
     </g>
    </g>
    <g id="ytick_4">
     <g id="line2d_36">
      <path clip-path="url(#pb245cbab32)" d="M 72 216 
L 518.4 216 
" style="fill:none;stroke:#000000;stroke-dasharray:1.000000,3.000000;stroke-dashoffset:0.0;stroke-width:0.5;"/>
     </g>
     <g id="line2d_37">
      <g>
       <use style="stroke:#000000;stroke-width:0.5;" x="72.0" xlink:href="#me249385cbf" y="216.0"/>
      </g>
     </g>
     <g id="line2d_38">
      <g>
       <use style="stroke:#000000;stroke-width:0.5;" x="518.4" xlink:href="#m3419274bd9" y="216.0"/>
      </g>
     </g>
     <g id="text_13">
      <!-- 0.0 -->
      <g transform="translate(48.91625 219.31125)scale(0.12 -0.12)">
       <use xlink:href="#BitstreamVeraSans-Roman-30"/>
       <use x="63.623046875" xlink:href="#BitstreamVeraSans-Roman-2e"/>
       <use x="95.41015625" xlink:href="#BitstreamVeraSans-Roman-30"/>
      </g>
     </g>
    </g>
    <g id="ytick_5">
     <g id="line2d_39">
      <path clip-path="url(#pb245cbab32)" d="M 72 158.4 
L 518.4 158.4 
" style="fill:none;stroke:#000000;stroke-dasharray:1.000000,3.000000;stroke-dashoffset:0.0;stroke-width:0.5;"/>
     </g>
     <g id="line2d_40">
      <g>
       <use style="stroke:#000000;stroke-width:0.5;" x="72.0" xlink:href="#me249385cbf" y="158.4"/>
      </g>
     </g>
     <g id="line2d_41">
      <g>
       <use style="stroke:#000000;stroke-width:0.5;" x="518.4" xlink:href="#m3419274bd9" y="158.4"/>
      </g>
     </g>
     <g id="text_14">
      <!-- 0.5 -->
      <g transform="translate(48.91625 161.71125)scale(0.12 -0.12)">
       <use xlink:href="#BitstreamVeraSans-Roman-30"/>
       <use x="63.623046875" xlink:href="#BitstreamVeraSans-Roman-2e"/>
       <use x="95.41015625" xlink:href="#BitstreamVeraSans-Roman-35"/>
      </g>
     </g>
    </g>
    <g id="ytick_6">
     <g id="line2d_42">
      <path clip-path="url(#pb245cbab32)" d="M 72 100.8 
L 518.4 100.8 
" style="fill:none;stroke:#000000;stroke-dasharray:1.000000,3.000000;stroke-dashoffset:0.0;stroke-width:0.5;"/>
     </g>
     <g id="line2d_43">
      <g>
       <use style="stroke:#000000;stroke-width:0.5;" x="72.0" xlink:href="#me249385cbf" y="100.8"/>
      </g>
     </g>
     <g id="line2d_44">
      <g>
       <use style="stroke:#000000;stroke-width:0.5;" x="518.4" xlink:href="#m3419274bd9" y="100.8"/>
      </g>
     </g>
     <g id="text_15">
      <!-- 1.0 -->
      <g transform="translate(48.91625 104.11125)scale(0.12 -0.12)">
       <use xlink:href="#BitstreamVeraSans-Roman-31"/>
       <use x="63.623046875" xlink:href="#BitstreamVeraSans-Roman-2e"/>
       <use x="95.41015625" xlink:href="#BitstreamVeraSans-Roman-30"/>
      </g>
     </g>
    </g>
    <g id="ytick_7">
     <g id="line2d_45">
      <path clip-path="url(#pb245cbab32)" d="M 72 43.2 
L 518.4 43.2 
" style="fill:none;stroke:#000000;stroke-dasharray:1.000000,3.000000;stroke-dashoffset:0.0;stroke-width:0.5;"/>
     </g>
     <g id="line2d_46">
      <g>
       <use style="stroke:#000000;stroke-width:0.5;" x="72.0" xlink:href="#me249385cbf" y="43.2"/>
      </g>
     </g>
     <g id="line2d_47">
      <g>
       <use style="stroke:#000000;stroke-width:0.5;" x="518.4" xlink:href="#m3419274bd9" y="43.2"/>
      </g>
     </g>
     <g id="text_16">
      <!-- 1.5 -->
      <g transform="translate(48.91625 46.51125)scale(0.12 -0.12)">
       <use xlink:href="#BitstreamVeraSans-Roman-31"/>
       <use x="63.623046875" xlink:href="#BitstreamVeraSans-Roman-2e"/>
       <use x="95.41015625" xlink:href="#BitstreamVeraSans-Roman-35"/>
      </g>
     </g>
    </g>
    <g id="text_17">
     <!-- Accel Cmd [m/s^2] -->
     <defs>
      <path d="M 46.6875 72.90625 
L 73.1875 45.703125 
L 63.375 45.703125 
L 41.890625 64.984375 
L 20.40625 45.703125 
L 10.59375 45.703125 
L 37.109375 72.90625 
z
" id="BitstreamVeraSans-Roman-5e"/>
      <path d="M 9.421875 75.984375 
L 18.40625 75.984375 
L 18.40625 0 
L 9.421875 0 
z
" id="BitstreamVeraSans-Roman-6c"/>
      <path d="M 64.40625 67.28125 
L 64.40625 56.890625 
Q 59.421875 61.53125 53.78125 63.8125 
Q 48.140625 66.109375 41.796875 66.109375 
Q 29.296875 66.109375 22.65625 58.46875 
Q 16.015625 50.828125 16.015625 36.375 
Q 16.015625 21.96875 22.65625 14.328125 
Q 29.296875 6.6875 41.796875 6.6875 
Q 48.140625 6.6875 53.78125 8.984375 
Q 59.421875 11.28125 64.40625 15.921875 
L 64.40625 5.609375 
Q 59.234375 2.09375 53.4375 0.328125 
Q 47.65625 -1.421875 41.21875 -1.421875 
Q 24.65625 -1.421875 15.125 8.703125 
Q 5.609375 18.84375 5.609375 36.375 
Q 5.609375 53.953125 15.125 64.078125 
Q 24.65625 74.21875 41.21875 74.21875 
Q 47.75 74.21875 53.53125 72.484375 
Q 59.328125 70.75 64.40625 67.28125 
" id="BitstreamVeraSans-Roman-43"/>
      <path d="M 34.1875 63.1875 
L 20.796875 26.90625 
L 47.609375 26.90625 
z
M 28.609375 72.90625 
L 39.796875 72.90625 
L 67.578125 0 
L 57.328125 0 
L 50.6875 18.703125 
L 17.828125 18.703125 
L 11.1875 0 
L 0.78125 0 
z
" id="BitstreamVeraSans-Roman-41"/>
      <path d="M 25.390625 72.90625 
L 33.6875 72.90625 
L 8.296875 -9.28125 
L 0 -9.28125 
z
" id="BitstreamVeraSans-Roman-2f"/>
      <path d="M 45.40625 46.390625 
L 45.40625 75.984375 
L 54.390625 75.984375 
L 54.390625 0 
L 45.40625 0 
L 45.40625 8.203125 
Q 42.578125 3.328125 38.25 0.953125 
Q 33.9375 -1.421875 27.875 -1.421875 
Q 17.96875 -1.421875 11.734375 6.484375 
Q 5.515625 14.40625 5.515625 27.296875 
Q 5.515625 40.1875 11.734375 48.09375 
Q 17.96875 56 27.875 56 
Q 33.9375 56 38.25 53.625 
Q 42.578125 51.265625 45.40625 46.390625 
M 14.796875 27.296875 
Q 14.796875 17.390625 18.875 11.75 
Q 22.953125 6.109375 30.078125 6.109375 
Q 37.203125 6.109375 41.296875 11.75 
Q 45.40625 17.390625 45.40625 27.296875 
Q 45.40625 37.203125 41.296875 42.84375 
Q 37.203125 48.484375 30.078125 48.484375 
Q 22.953125 48.484375 18.875 42.84375 
Q 14.796875 37.203125 14.796875 27.296875 
" id="BitstreamVeraSans-Roman-64"/>
      <path d="M 48.78125 52.59375 
L 48.78125 44.1875 
Q 44.96875 46.296875 41.140625 47.34375 
Q 37.3125 48.390625 33.40625 48.390625 
Q 24.65625 48.390625 19.8125 42.84375 
Q 14.984375 37.3125 14.984375 27.296875 
Q 14.984375 17.28125 19.8125 11.734375 
Q 24.65625 6.203125 33.40625 6.203125 
Q 37.3125 6.203125 41.140625 7.25 
Q 44.96875 8.296875 48.78125 10.40625 
L 48.78125 2.09375 
Q 45.015625 0.34375 40.984375 -0.53125 
Q 36.96875 -1.421875 32.421875 -1.421875 
Q 20.0625 -1.421875 12.78125 6.34375 
Q 5.515625 14.109375 5.515625 27.296875 
Q 5.515625 40.671875 12.859375 48.328125 
Q 20.21875 56 33.015625 56 
Q 37.15625 56 41.109375 55.140625 
Q 45.0625 54.296875 48.78125 52.59375 
" id="BitstreamVeraSans-Roman-63"/>
     </defs>
     <g transform="translate(31.365 274.235625)rotate(-90.0)scale(0.12 -0.12)">
      <use xlink:href="#BitstreamVeraSans-Roman-41"/>
      <use x="68.392578125" xlink:href="#BitstreamVeraSans-Roman-63"/>
      <use x="123.373046875" xlink:href="#BitstreamVeraSans-Roman-63"/>
      <use x="178.353515625" xlink:href="#BitstreamVeraSans-Roman-65"/>
      <use x="239.876953125" xlink:href="#BitstreamVeraSans-Roman-6c"/>
      <use x="267.66015625" xlink:href="#BitstreamVeraSans-Roman-20"/>
      <use x="299.447265625" xlink:href="#BitstreamVeraSans-Roman-43"/>
      <use x="369.271484375" xlink:href="#BitstreamVeraSans-Roman-6d"/>
      <use x="466.68359375" xlink:href="#BitstreamVeraSans-Roman-64"/>
      <use x="530.16015625" xlink:href="#BitstreamVeraSans-Roman-20"/>
      <use x="561.947265625" xlink:href="#BitstreamVeraSans-Roman-5b"/>
      <use x="600.9609375" xlink:href="#BitstreamVeraSans-Roman-6d"/>
      <use x="698.373046875" xlink:href="#BitstreamVeraSans-Roman-2f"/>
      <use x="732.064453125" xlink:href="#BitstreamVeraSans-Roman-73"/>
      <use x="784.1640625" xlink:href="#BitstreamVeraSans-Roman-5e"/>
      <use x="867.953125" xlink:href="#BitstreamVeraSans-Roman-32"/>
      <use x="931.576171875" xlink:href="#BitstreamVeraSans-Roman-5d"/>
     </g>
    </g>
   </g>
   <g id="legend_1">
    <g id="patch_7">
     <path d="M 371.673 96.993 
L 511.2 96.993 
L 511.2 50.4 
L 371.673 50.4 
z
" style="fill:#ffffff;stroke:#000000;stroke-linejoin:miter;"/>
    </g>
    <g id="line2d_48">
     <path d="M 381.753 62.06175 
L 401.913 62.06175 
" style="fill:none;stroke:#008000;stroke-linecap:square;"/>
    </g>
    <g id="line2d_49"/>
    <g id="text_18">
     <!-- Proportional -->
     <defs>
      <path d="M 54.890625 33.015625 
L 54.890625 0 
L 45.90625 0 
L 45.90625 32.71875 
Q 45.90625 40.484375 42.875 44.328125 
Q 39.84375 48.1875 33.796875 48.1875 
Q 26.515625 48.1875 22.3125 43.546875 
Q 18.109375 38.921875 18.109375 30.90625 
L 18.109375 0 
L 9.078125 0 
L 9.078125 54.6875 
L 18.109375 54.6875 
L 18.109375 46.1875 
Q 21.34375 51.125 25.703125 53.5625 
Q 30.078125 56 35.796875 56 
Q 45.21875 56 50.046875 50.171875 
Q 54.890625 44.34375 54.890625 33.015625 
" id="BitstreamVeraSans-Roman-6e"/>
      <path d="M 34.28125 27.484375 
Q 23.390625 27.484375 19.1875 25 
Q 14.984375 22.515625 14.984375 16.5 
Q 14.984375 11.71875 18.140625 8.90625 
Q 21.296875 6.109375 26.703125 6.109375 
Q 34.1875 6.109375 38.703125 11.40625 
Q 43.21875 16.703125 43.21875 25.484375 
L 43.21875 27.484375 
z
M 52.203125 31.203125 
L 52.203125 0 
L 43.21875 0 
L 43.21875 8.296875 
Q 40.140625 3.328125 35.546875 0.953125 
Q 30.953125 -1.421875 24.3125 -1.421875 
Q 15.921875 -1.421875 10.953125 3.296875 
Q 6 8.015625 6 15.921875 
Q 6 25.140625 12.171875 29.828125 
Q 18.359375 34.515625 30.609375 34.515625 
L 43.21875 34.515625 
L 43.21875 35.40625 
Q 43.21875 41.609375 39.140625 45 
Q 35.0625 48.390625 27.6875 48.390625 
Q 23 48.390625 18.546875 47.265625 
Q 14.109375 46.140625 10.015625 43.890625 
L 10.015625 52.203125 
Q 14.9375 54.109375 19.578125 55.046875 
Q 24.21875 56 28.609375 56 
Q 40.484375 56 46.34375 49.84375 
Q 52.203125 43.703125 52.203125 31.203125 
" id="BitstreamVeraSans-Roman-61"/>
      <path d="M 30.609375 48.390625 
Q 23.390625 48.390625 19.1875 42.75 
Q 14.984375 37.109375 14.984375 27.296875 
Q 14.984375 17.484375 19.15625 11.84375 
Q 23.34375 6.203125 30.609375 6.203125 
Q 37.796875 6.203125 41.984375 11.859375 
Q 46.1875 17.53125 46.1875 27.296875 
Q 46.1875 37.015625 41.984375 42.703125 
Q 37.796875 48.390625 30.609375 48.390625 
M 30.609375 56 
Q 42.328125 56 49.015625 48.375 
Q 55.71875 40.765625 55.71875 27.296875 
Q 55.71875 13.875 49.015625 6.21875 
Q 42.328125 -1.421875 30.609375 -1.421875 
Q 18.84375 -1.421875 12.171875 6.21875 
Q 5.515625 13.875 5.515625 27.296875 
Q 5.515625 40.765625 12.171875 48.375 
Q 18.84375 56 30.609375 56 
" id="BitstreamVeraSans-Roman-6f"/>
      <path d="M 19.671875 64.796875 
L 19.671875 37.40625 
L 32.078125 37.40625 
Q 38.96875 37.40625 42.71875 40.96875 
Q 46.484375 44.53125 46.484375 51.125 
Q 46.484375 57.671875 42.71875 61.234375 
Q 38.96875 64.796875 32.078125 64.796875 
z
M 9.8125 72.90625 
L 32.078125 72.90625 
Q 44.34375 72.90625 50.609375 67.359375 
Q 56.890625 61.8125 56.890625 51.125 
Q 56.890625 40.328125 50.609375 34.8125 
Q 44.34375 29.296875 32.078125 29.296875 
L 19.671875 29.296875 
L 19.671875 0 
L 9.8125 0 
z
" id="BitstreamVeraSans-Roman-50"/>
      <path d="M 18.3125 70.21875 
L 18.3125 54.6875 
L 36.8125 54.6875 
L 36.8125 47.703125 
L 18.3125 47.703125 
L 18.3125 18.015625 
Q 18.3125 11.328125 20.140625 9.421875 
Q 21.96875 7.515625 27.59375 7.515625 
L 36.8125 7.515625 
L 36.8125 0 
L 27.59375 0 
Q 17.1875 0 13.234375 3.875 
Q 9.28125 7.765625 9.28125 18.015625 
L 9.28125 47.703125 
L 2.6875 47.703125 
L 2.6875 54.6875 
L 9.28125 54.6875 
L 9.28125 70.21875 
z
" id="BitstreamVeraSans-Roman-74"/>
      <path d="M 41.109375 46.296875 
Q 39.59375 47.171875 37.8125 47.578125 
Q 36.03125 48 33.890625 48 
Q 26.265625 48 22.1875 43.046875 
Q 18.109375 38.09375 18.109375 28.8125 
L 18.109375 0 
L 9.078125 0 
L 9.078125 54.6875 
L 18.109375 54.6875 
L 18.109375 46.1875 
Q 20.953125 51.171875 25.484375 53.578125 
Q 30.03125 56 36.53125 56 
Q 37.453125 56 38.578125 55.875 
Q 39.703125 55.765625 41.0625 55.515625 
z
" id="BitstreamVeraSans-Roman-72"/>
      <path d="M 18.109375 8.203125 
L 18.109375 -20.796875 
L 9.078125 -20.796875 
L 9.078125 54.6875 
L 18.109375 54.6875 
L 18.109375 46.390625 
Q 20.953125 51.265625 25.265625 53.625 
Q 29.59375 56 35.59375 56 
Q 45.5625 56 51.78125 48.09375 
Q 58.015625 40.1875 58.015625 27.296875 
Q 58.015625 14.40625 51.78125 6.484375 
Q 45.5625 -1.421875 35.59375 -1.421875 
Q 29.59375 -1.421875 25.265625 0.953125 
Q 20.953125 3.328125 18.109375 8.203125 
M 48.6875 27.296875 
Q 48.6875 37.203125 44.609375 42.84375 
Q 40.53125 48.484375 33.40625 48.484375 
Q 26.265625 48.484375 22.1875 42.84375 
Q 18.109375 37.203125 18.109375 27.296875 
Q 18.109375 17.390625 22.1875 11.75 
Q 26.265625 6.109375 33.40625 6.109375 
Q 40.53125 6.109375 44.609375 11.75 
Q 48.6875 17.390625 48.6875 27.296875 
" id="BitstreamVeraSans-Roman-70"/>
     </defs>
     <g transform="translate(417.753 67.10175)scale(0.144 -0.144)">
      <use xlink:href="#BitstreamVeraSans-Roman-50"/>
      <use x="60.287109375" xlink:href="#BitstreamVeraSans-Roman-72"/>
      <use x="101.369140625" xlink:href="#BitstreamVeraSans-Roman-6f"/>
      <use x="162.55078125" xlink:href="#BitstreamVeraSans-Roman-70"/>
      <use x="226.02734375" xlink:href="#BitstreamVeraSans-Roman-6f"/>
      <use x="287.208984375" xlink:href="#BitstreamVeraSans-Roman-72"/>
      <use x="328.322265625" xlink:href="#BitstreamVeraSans-Roman-74"/>
      <use x="367.53125" xlink:href="#BitstreamVeraSans-Roman-69"/>
      <use x="395.314453125" xlink:href="#BitstreamVeraSans-Roman-6f"/>
      <use x="456.49609375" xlink:href="#BitstreamVeraSans-Roman-6e"/>
      <use x="519.875" xlink:href="#BitstreamVeraSans-Roman-61"/>
      <use x="581.154296875" xlink:href="#BitstreamVeraSans-Roman-6c"/>
     </g>
    </g>
    <g id="line2d_50">
     <path d="M 381.753 83.19825 
L 401.913 83.19825 
" style="fill:none;stroke:#0000ff;stroke-linecap:square;"/>
    </g>
    <g id="line2d_51"/>
    <g id="text_19">
     <!-- Integral -->
     <defs>
      <path d="M 45.40625 27.984375 
Q 45.40625 37.75 41.375 43.109375 
Q 37.359375 48.484375 30.078125 48.484375 
Q 22.859375 48.484375 18.828125 43.109375 
Q 14.796875 37.75 14.796875 27.984375 
Q 14.796875 18.265625 18.828125 12.890625 
Q 22.859375 7.515625 30.078125 7.515625 
Q 37.359375 7.515625 41.375 12.890625 
Q 45.40625 18.265625 45.40625 27.984375 
M 54.390625 6.78125 
Q 54.390625 -7.171875 48.1875 -13.984375 
Q 42 -20.796875 29.203125 -20.796875 
Q 24.46875 -20.796875 20.265625 -20.09375 
Q 16.0625 -19.390625 12.109375 -17.921875 
L 12.109375 -9.1875 
Q 16.0625 -11.328125 19.921875 -12.34375 
Q 23.78125 -13.375 27.78125 -13.375 
Q 36.625 -13.375 41.015625 -8.765625 
Q 45.40625 -4.15625 45.40625 5.171875 
L 45.40625 9.625 
Q 42.625 4.78125 38.28125 2.390625 
Q 33.9375 0 27.875 0 
Q 17.828125 0 11.671875 7.65625 
Q 5.515625 15.328125 5.515625 27.984375 
Q 5.515625 40.671875 11.671875 48.328125 
Q 17.828125 56 27.875 56 
Q 33.9375 56 38.28125 53.609375 
Q 42.625 51.21875 45.40625 46.390625 
L 45.40625 54.6875 
L 54.390625 54.6875 
z
" id="BitstreamVeraSans-Roman-67"/>
      <path d="M 9.8125 72.90625 
L 19.671875 72.90625 
L 19.671875 0 
L 9.8125 0 
z
" id="BitstreamVeraSans-Roman-49"/>
     </defs>
     <g transform="translate(417.753 88.23825)scale(0.144 -0.144)">
      <use xlink:href="#BitstreamVeraSans-Roman-49"/>
      <use x="29.4921875" xlink:href="#BitstreamVeraSans-Roman-6e"/>
      <use x="92.87109375" xlink:href="#BitstreamVeraSans-Roman-74"/>
      <use x="132.080078125" xlink:href="#BitstreamVeraSans-Roman-65"/>
      <use x="193.603515625" xlink:href="#BitstreamVeraSans-Roman-67"/>
      <use x="257.080078125" xlink:href="#BitstreamVeraSans-Roman-72"/>
      <use x="298.193359375" xlink:href="#BitstreamVeraSans-Roman-61"/>
      <use x="359.47265625" xlink:href="#BitstreamVeraSans-Roman-6c"/>
     </g>
    </g>
   </g>
  </g>
 </g>
 <defs>
  <clipPath id="pb245cbab32">
   <rect height="345.6" width="446.4" x="72.0" y="43.2"/>
  </clipPath>
 </defs>
</svg>
