<?xml version="1.0" encoding="utf-8" standalone="no"?>
<!DOCTYPE svg PUBLIC "-//W3C//DTD SVG 1.1//EN"
  "http://www.w3.org/Graphics/SVG/1.1/DTD/svg11.dtd">
<!-- Created with matplotlib (http://matplotlib.org/) -->
<svg height="432pt" version="1.1" viewBox="0 0 576 432" width="576pt" xmlns="http://www.w3.org/2000/svg" xmlns:xlink="http://www.w3.org/1999/xlink">
 <defs>
  <style type="text/css">
*{stroke-linecap:butt;stroke-linejoin:round;stroke-miterlimit:100000;}
  </style>
 </defs>
 <g id="figure_1">
  <g id="patch_1">
   <path d="M 0 432 
L 576 432 
L 576 0 
L 0 0 
z
" style="fill:#ffffff;"/>
  </g>
  <g id="axes_1">
   <g id="patch_2">
    <path d="M 72 388.8 
L 518.4 388.8 
L 518.4 43.2 
L 72 43.2 
z
" style="fill:#ffffff;"/>
   </g>
   <g id="line2d_1">
    <path clip-path="url(#p4c029ab072)" d="M 72.063771 339.328944 
L 73.721829 336.959306 
L 75.379886 334.967959 
L 77.101714 333.235799 
L 78.951086 331.692825 
L 80.864229 330.382398 
L 84.180343 328.218291 
L 85.392 326.913438 
L 87.050057 324.764824 
L 88.899429 321.989815 
L 90.812571 318.727277 
L 93.554743 313.554698 
L 95.467886 309.471142 
L 98.018743 303.469959 
L 101.271086 295.251722 
L 105.798857 283.212581 
L 110.135314 271.067189 
L 116.321143 253.798256 
L 119.7648 244.91597 
L 122.762057 237.784502 
L 125.886857 230.963613 
L 128.6928 225.383156 
L 131.243657 220.671228 
L 133.6032 216.719282 
L 136.472914 212.349653 
L 139.470171 208.184854 
L 142.0848 204.924846 
L 143.679086 203.296456 
L 146.867657 200.462006 
L 147.632914 200.07796 
L 148.461943 199.958523 
L 149.354743 200.062099 
L 156.497143 201.598682 
L 157.134857 202.051801 
L 158.091429 203.048774 
L 168.932571 214.574761 
L 177.860571 224.06988 
L 179.391086 226.107418 
L 180.794057 228.393241 
L 182.515886 231.606853 
L 184.301486 235.492312 
L 186.2784 240.308373 
L 188.574171 246.4942 
L 191.316343 254.525852 
L 194.3136 263.971068 
L 197.693486 275.368716 
L 206.557714 306.641747 
L 209.363657 315.410338 
L 211.659429 321.867173 
L 213.189943 325.623858 
L 214.592914 328.439942 
L 216.123429 331.02283 
L 217.335086 332.698081 
L 218.482971 333.943122 
L 219.7584 335.026641 
L 221.0976 335.884739 
L 224.541257 337.620719 
L 226.837029 338.545973 
L 228.941486 339.156807 
L 230.408229 339.428571 
L 264.8448 339.326897 
L 266.502857 338.959362 
L 268.160914 338.312525 
L 269.627657 337.506871 
L 273.517714 334.949556 
L 275.303314 332.802695 
L 279.831086 327.059004 
L 284.358857 320.916595 
L 286.272 317.799785 
L 289.077943 312.713793 
L 292.649143 305.73451 
L 301.0032 288.703211 
L 309.994971 269.942486 
L 318.922971 251.391306 
L 324.789943 239.911303 
L 328.2336 233.613666 
L 329.381486 232.091772 
L 330.401829 231.117972 
L 330.975771 230.779999 
L 331.485943 230.725711 
L 332.570057 230.922957 
L 334.865829 231.459666 
L 335.567314 231.965047 
L 336.332571 232.80586 
L 339.521143 236.851581 
L 342.327086 240.747263 
L 346.0896 246.477066 
L 349.469486 251.962771 
L 356.548114 264.583361 
L 361.777371 273.78347 
L 365.539886 279.783179 
L 369.366171 285.483641 
L 374.404114 293.029444 
L 377.911543 298.729156 
L 381.100114 304.323171 
L 384.097371 310.008427 
L 387.222171 316.456908 
L 390.091886 322.913966 
L 392.005029 327.125773 
L 394.492114 332.009225 
L 396.277714 334.971289 
L 398.382171 338.07283 
L 399.530057 339.428571 
L 518.4 339.428571 
L 518.4 339.428571 
" style="fill:none;stroke:#ff0000;stroke-linecap:square;"/>
   </g>
   <g id="line2d_2">
    <path clip-path="url(#p4c029ab072)" d="M 72.063771 136.352794 
L 72.127543 136.352794 
L 72.255086 339.428571 
L 74.423314 339.428571 
L 74.550857 335.984026 
L 75.507429 334.978097 
L 75.698743 334.764718 
L 79.078629 331.685965 
L 79.397486 331.41162 
L 80.0352 330.95438 
L 80.417829 330.741001 
L 81.183086 328.854717 
L 82.458514 325.607065 
L 82.904914 323.905914 
L 83.351314 322.978013 
L 83.415086 322.978013 
L 83.670171 322.050113 
L 83.733943 322.050113 
L 84.435429 320.503612 
L 84.4992 320.503612 
L 88.580571 310.760657 
L 88.644343 310.760657 
L 89.154514 309.678105 
L 89.218286 309.678105 
L 89.792229 308.440905 
L 89.856 308.440905 
L 90.366171 307.358354 
L 90.429943 307.358354 
L 91.003886 306.121153 
L 91.067657 306.121153 
L 91.577829 305.038602 
L 91.6416 305.038602 
L 92.215543 303.801401 
L 92.279314 303.801401 
L 92.853257 302.564201 
L 92.917029 302.564201 
L 110.007771 261.404658 
L 112.813714 255.292055 
L 115.619657 249.703728 
L 118.489371 244.467002 
L 121.614171 239.251418 
L 124.930286 234.098748 
L 124.994057 234.098748 
L 125.312914 233.451444 
L 126.141943 232.448688 
L 126.843429 231.28651 
L 127.034743 231.021183 
L 128.629029 228.677433 
L 128.947886 228.081243 
L 129.713143 227.239594 
L 129.840686 227.15638 
L 132.008914 224.463921 
L 132.136457 224.384079 
L 132.391543 223.986573 
L 133.794514 222.418725 
L 139.597714 215.524732 
L 139.661486 215.524732 
L 139.916571 215.17401 
L 142.0848 212.937851 
L 142.212343 212.868206 
L 146.676343 208.104457 
L 149.482286 208.950298 
L 152.734629 210.171059 
L 155.604343 211.491605 
L 158.665371 213.153233 
L 158.920457 213.300361 
L 162.427886 215.474997 
L 165.616457 217.710155 
L 168.549943 220.021806 
L 171.355886 222.500126 
L 174.098057 225.217584 
L 176.648914 228.049839 
L 177.414171 229.039363 
L 179.199771 233.615543 
L 179.454857 234.423028 
L 179.773714 235.398257 
L 180.156343 236.875643 
L 181.368 239.709983 
L 181.431771 239.709983 
L 181.623086 240.555614 
L 182.515886 243.120498 
L 182.834743 244.330388 
L 183.918857 247.480959 
L 184.173943 248.365589 
L 185.704457 252.859593 
L 185.895771 253.586993 
L 185.959543 253.586993 
L 190.168457 265.955243 
L 195.525257 282.190177 
L 195.716571 283.005605 
L 195.780343 283.005605 
L 197.247086 287.938184 
L 197.629714 289.802537 
L 198.841371 293.552422 
L 198.905143 293.552422 
L 199.479086 295.230394 
L 199.542857 295.230394 
L 200.626971 298.555604 
L 200.690743 298.555604 
L 202.412571 303.702678 
L 203.2416 305.947804 
L 203.305371 305.947804 
L 204.453257 308.963168 
L 204.517029 308.963168 
L 205.601143 311.626098 
L 205.664914 311.626098 
L 207.7056 316.435234 
L 209.427429 319.964735 
L 211.149257 323.019986 
L 216.250971 331.230684 
L 216.506057 331.397563 
L 216.697371 331.538036 
L 218.993143 332.45174 
L 219.120686 332.561459 
L 219.312 332.730468 
L 220.141029 332.851696 
L 220.332343 332.962142 
L 221.161371 333.029642 
L 221.416457 333.299217 
L 221.862857 333.368235 
L 222.4368 334.236747 
L 222.628114 334.347211 
L 222.819429 334.512908 
L 223.010743 334.402443 
L 224.158629 334.291979 
L 224.349943 334.181515 
L 224.477486 334.291979 
L 224.6688 334.457676 
L 225.689143 334.347211 
L 225.880457 334.236747 
L 227.602286 334.126283 
L 227.7936 334.015818 
L 228.048686 334.126282 
L 228.24 334.291979 
L 263.696914 334.181515 
L 263.952 333.966185 
L 264.270857 333.858107 
L 264.653486 333.365775 
L 264.908571 333.257034 
L 265.099886 333.148017 
L 265.354971 333.038726 
L 265.546286 332.92916 
L 265.801371 332.819319 
L 266.184 332.366073 
L 267.0768 331.718518 
L 267.268114 331.60735 
L 267.331886 331.60735 
L 267.714514 331.150832 
L 268.416 330.652265 
L 268.607314 330.501857 
L 268.671086 330.501857 
L 269.053714 330.004152 
L 269.245029 330.004152 
L 269.627657 329.534676 
L 270.010286 329.273284 
L 270.265371 329.007385 
L 270.329143 329.007385 
L 270.648 328.622094 
L 270.839314 328.622094 
L 271.349486 327.881324 
L 271.732114 327.616148 
L 275.239543 321.132278 
L 275.430857 320.971822 
L 276.196114 319.669912 
L 276.323657 319.49321 
L 277.025143 318.338524 
L 277.280229 317.886347 
L 277.726629 317.193024 
L 277.854171 317.049555 
L 278.555657 315.866421 
L 278.746971 315.631879 
L 278.938286 315.127886 
L 279.002057 315.127886 
L 279.958629 313.463858 
L 280.213714 313.115528 
L 281.489143 310.814626 
L 284.869029 305.041546 
L 284.9328 305.041546 
L 286.527086 302.049883 
L 286.7184 301.729892 
L 287.802514 299.723813 
L 287.866286 299.723813 
L 288.376457 298.9274 
L 288.440229 298.9274 
L 290.225829 295.561318 
L 290.2896 295.572822 
L 291.1824 293.931618 
L 291.246171 293.931618 
L 291.883886 292.862093 
L 291.947657 292.862093 
L 293.286857 290.412417 
L 293.669486 289.697527 
L 294.562286 288.163321 
L 294.7536 287.855561 
L 295.582629 286.351058 
L 295.6464 286.371274 
L 298.516114 281.349124 
L 298.579886 281.349124 
L 299.090057 280.507059 
L 299.153829 280.507059 
L 299.345143 280.131133 
L 301.0032 277.048121 
L 301.066971 277.10326 
L 301.896 275.634353 
L 301.959771 275.634353 
L 302.151086 275.231069 
L 302.278629 275.123652 
L 302.725029 274.282456 
L 303.107657 273.765334 
L 303.936686 272.340505 
L 305.084571 270.310979 
L 305.212114 270.321703 
L 305.403429 269.957814 
L 306.296229 268.498947 
L 307.890514 265.725692 
L 307.954286 265.80988 
L 308.847086 264.297498 
L 308.974629 264.198556 
L 310.824 261.054495 
L 312.545829 258.200455 
L 312.673371 258.07043 
L 314.969143 254.278828 
L 317.52 250.224258 
L 317.647543 250.118995 
L 320.899886 244.964851 
L 325.045029 238.671125 
L 327.404571 235.163206 
L 328.361143 236.193637 
L 328.488686 236.268834 
L 341.1792 251.359899 
L 341.434286 251.743146 
L 341.816914 252.357251 
L 342.072 252.74162 
L 343.793829 254.98184 
L 344.048914 255.371229 
L 346.599771 258.602807 
L 346.854857 259.001624 
L 348.3216 261.011545 
L 349.278171 263.209158 
L 351.318857 266.000959 
L 352.849371 268.159909 
L 353.168229 268.74489 
L 356.165486 272.8497 
L 356.420571 273.273163 
L 358.652571 276.091259 
L 358.780114 276.176827 
L 359.609143 277.120421 
L 359.736686 277.206573 
L 360.438171 277.984129 
L 360.565714 278.070888 
L 361.2672 278.853537 
L 361.394743 278.940917 
L 362.223771 279.904684 
L 362.351314 279.993597 
L 363.116571 280.885955 
L 363.244114 280.975563 
L 363.818057 281.604743 
L 363.9456 281.695083 
L 365.348571 283.517118 
L 365.476114 283.609697 
L 366.113829 284.352298 
L 366.241371 284.445378 
L 366.815314 285.099835 
L 366.942857 285.193805 
L 367.5168 285.852661 
L 367.644343 285.947031 
L 372.682286 293.592238 
L 376.253486 299.509598 
L 379.824686 305.897999 
L 382.6944 311.452613 
L 385.3728 317.020671 
L 388.4976 324.05766 
L 391.813714 332.128863 
L 392.132571 333.033639 
L 392.387657 333.770434 
L 392.706514 334.634005 
L 392.9616 335.336326 
L 395.1936 339.877935 
L 395.64 340.648077 
L 395.767543 333.972167 
L 396.0864 334.581822 
L 397.106743 336.075474 
L 397.234286 339.428571 
L 518.4 339.428571 
L 518.4 339.428571 
" style="fill:none;stroke:#bfbf00;stroke-dasharray:6.000000,6.000000;stroke-dashoffset:0.0;"/>
   </g>
   <g id="line2d_3">
    <path clip-path="url(#p4c029ab072)" d="M 72.063771 339.428571 
L 72.127543 339.428571 
L 72.191314 339.428571 
L 72.318857 48.406745 
L 72.382629 48.274577 
L 72.4464 230.276306 
L 72.510171 230.0516 
L 72.637714 230.108509 
L 72.956571 228.904846 
L 73.147886 227.70646 
L 73.211657 227.70646 
L 73.402971 226.73121 
L 73.658057 225.528558 
L 73.976914 223.872334 
L 74.104457 223.116596 
L 74.487086 221.003293 
L 74.742171 220.243435 
L 74.933486 217.644271 
L 78.951086 196.494099 
L 79.014857 196.440319 
L 79.525029 193.862246 
L 79.5888 193.862246 
L 79.907657 192.527067 
L 80.290286 190.89462 
L 80.354057 190.89462 
L 80.417829 190.742794 
L 80.672914 189.518167 
L 80.928 188.683334 
L 81.3744 187.211847 
L 81.501943 186.71818 
L 81.565714 186.754114 
L 82.012114 184.862819 
L 82.075886 184.909235 
L 82.522286 183.254539 
L 83.542629 180.626773 
L 83.670171 180.151774 
L 83.733943 180.151774 
L 83.989029 179.338453 
L 84.0528 179.338453 
L 84.435429 177.959292 
L 84.4992 177.959292 
L 85.136914 176.385144 
L 85.328229 175.519845 
L 85.392 175.519845 
L 85.774629 174.419517 
L 85.8384 174.491311 
L 87.113829 171.243357 
L 87.1776 171.304763 
L 87.432686 170.675052 
L 88.261714 168.703335 
L 88.325486 168.751226 
L 88.580571 167.965611 
L 88.644343 167.965611 
L 88.835657 167.59066 
L 88.899429 167.59066 
L 89.473371 166.285547 
L 89.537143 166.285547 
L 89.728457 165.72114 
L 90.111086 165.151139 
L 90.557486 164.031995 
L 90.685029 163.828096 
L 90.7488 163.828096 
L 91.1952 162.746625 
L 91.258971 162.849538 
L 91.577829 162.040357 
L 91.705371 162.14484 
L 91.960457 161.524768 
L 92.024229 161.497041 
L 92.215543 160.965523 
L 92.279314 160.965523 
L 92.470629 160.415569 
L 92.5344 160.480948 
L 92.598171 160.480948 
L 92.917029 159.760311 
L 92.9808 159.826827 
L 93.172114 159.284016 
L 93.235886 159.263284 
L 93.682286 158.187627 
L 93.809829 158.256903 
L 94.064914 157.702041 
L 94.128686 157.772181 
L 94.32 157.198882 
L 94.383771 157.312741 
L 94.957714 156.289548 
L 95.021486 156.362258 
L 95.2128 156.000097 
L 95.276571 156.051695 
L 95.467886 155.571987 
L 95.6592 155.179654 
L 95.722971 155.253903 
L 95.978057 154.809043 
L 96.041829 154.809043 
L 96.233143 154.420355 
L 96.424457 154.093716 
L 96.488229 154.087458 
L 96.743314 153.572248 
L 96.934629 153.622456 
L 97.062171 153.109522 
L 97.189714 153.165314 
L 97.572343 152.440758 
L 97.636114 152.497435 
L 98.018743 151.857157 
L 98.082514 151.968867 
L 98.528914 151.101313 
L 98.656457 151.214182 
L 98.847771 150.934801 
L 98.911543 150.934801 
L 99.102857 150.510316 
L 99.166629 150.547862 
L 99.421714 149.96799 
L 99.485486 150.006083 
L 99.804343 149.544431 
L 99.868114 149.604922 
L 100.059429 149.270866 
L 100.1232 149.320843 
L 100.378286 148.790589 
L 100.442057 148.851943 
L 100.633371 148.519721 
L 100.697143 148.581433 
L 100.824686 148.250033 
L 101.016 148.276411 
L 101.207314 147.946254 
L 101.271086 147.987044 
L 101.526171 147.548148 
L 101.653714 147.589254 
L 101.781257 147.12914 
L 101.845029 147.192496 
L 101.9088 147.192496 
L 102.100114 146.919416 
L 102.163886 147.037952 
L 102.3552 146.688937 
L 103.184229 145.772776 
L 103.248 145.911792 
L 103.503086 145.382108 
L 103.566857 145.425595 
L 103.758171 145.153778 
L 103.821943 145.219494 
L 104.013257 144.874798 
L 104.1408 144.918834 
L 104.332114 144.581955 
L 104.523429 144.370587 
L 104.5872 144.437187 
L 104.778514 144.166909 
L 104.842286 144.166909 
L 105.097371 143.831568 
L 105.161143 143.942709 
L 105.352457 143.545783 
L 105.416229 143.674222 
L 105.607543 143.332897 
L 105.671314 143.378428 
L 105.862629 143.10952 
L 105.9264 143.155261 
L 106.117714 142.88669 
L 106.181486 142.954723 
L 106.3728 142.686446 
L 106.436571 142.73263 
L 106.627886 142.464669 
L 106.691657 142.511064 
L 106.882971 142.24342 
L 106.946743 142.290025 
L 107.138057 142.022676 
L 107.2656 142.116371 
L 107.329371 141.912967 
L 107.393143 142.052805 
L 107.520686 141.693298 
L 107.584457 141.877381 
L 107.775771 141.787836 
L 108.030857 141.569051 
L 108.094629 141.303535 
L 108.1584 141.373232 
L 108.413486 141.265757 
L 108.732343 140.782425 
L 108.796114 140.830463 
L 108.859886 140.627797 
L 108.923657 140.745701 
L 108.987429 140.793887 
L 109.178743 140.506711 
L 109.242514 140.624636 
L 109.433829 140.359815 
L 109.4976 140.408296 
L 109.688914 140.121583 
L 109.752686 140.170275 
L 109.944 139.883836 
L 110.007771 140.001867 
L 110.199086 139.715597 
L 110.326629 139.882677 
L 110.517943 139.596702 
L 110.581714 139.64592 
L 110.773029 139.451197 
L 110.8368 139.50052 
L 111.028114 139.215009 
L 111.091886 139.333145 
L 111.155657 139.131385 
L 111.219429 139.18094 
L 111.346971 139.2306 
L 111.410743 138.964283 
L 111.474514 139.013965 
L 111.538286 139.132164 
L 111.7296 138.8472 
L 111.793371 138.897072 
L 111.984686 138.680605 
L 112.048457 138.752831 
L 112.239771 138.536427 
L 112.303543 138.586551 
L 112.494857 138.302219 
L 112.558629 138.420482 
L 112.749943 138.136319 
L 112.877486 138.305043 
L 113.0688 138.111141 
L 113.132571 138.161686 
L 113.323886 137.945641 
L 113.387657 137.996313 
L 113.451429 137.862964 
L 113.5152 137.913678 
L 113.578971 137.858118 
L 113.642743 138.054253 
L 113.834057 137.637459 
L 113.897829 137.755805 
L 113.9616 137.554972 
L 114.089143 137.746535 
L 114.280457 137.463446 
L 114.344229 137.581835 
L 114.408 137.470673 
L 114.471771 137.521809 
L 114.663086 137.306142 
L 114.790629 137.498084 
L 114.8544 137.36461 
L 114.918171 137.415956 
L 115.109486 137.222644 
L 115.173257 137.274096 
L 115.237029 137.1406 
L 115.3008 137.281301 
L 115.364571 137.080868 
L 115.428343 137.19932 
L 115.619657 137.139652 
L 115.810971 136.879719 
L 115.938514 137.005376 
L 116.002286 136.671553 
L 116.066057 136.867941 
L 116.1936 136.864106 
L 116.384914 136.60432 
L 116.448686 136.60432 
L 116.512457 136.789605 
L 116.703771 136.485341 
L 116.767543 136.537299 
L 116.831314 136.425989 
L 116.895086 136.544504 
L 117.022629 136.233077 
L 117.0864 136.351614 
L 117.150171 136.173809 
L 117.213943 136.303491 
L 117.405257 136.121789 
L 117.469029 136.240367 
L 117.5328 136.062626 
L 117.596571 136.181184 
L 117.787886 136.010711 
L 117.851657 136.12929 
L 117.915429 135.951632 
L 117.9792 136.070211 
L 118.170514 135.899823 
L 118.234286 136.040693 
L 118.4256 135.848055 
L 118.489371 135.988946 
L 118.553143 135.930015 
L 118.616914 135.930015 
L 118.872 135.648338 
L 118.935771 135.766959 
L 118.999543 135.589491 
L 119.063314 135.730404 
L 119.127086 135.596718 
L 119.190857 135.73763 
L 119.254629 135.560205 
L 119.3184 135.701117 
L 119.445943 135.530961 
L 119.509714 135.649602 
L 119.573486 135.538187 
L 119.637257 135.538187 
L 119.701029 135.426772 
L 119.7648 135.557487 
L 119.828571 135.50178 
L 119.892343 135.509006 
L 119.956114 135.397591 
L 120.019886 135.538525 
L 120.083657 135.361204 
L 120.147429 135.479867 
L 120.2112 135.368431 
L 120.274971 135.509386 
L 120.402514 135.220672 
L 120.466286 135.361626 
L 120.530057 135.25019 
L 120.593829 135.368853 
L 120.6576 135.191617 
L 120.721371 135.332592 
L 120.785143 135.221156 
L 120.848914 135.36211 
L 120.912686 135.250674 
L 120.976457 135.325892 
L 121.104 135.102978 
L 121.167771 135.243953 
L 121.231543 135.132517 
L 121.295314 135.207798 
L 121.359086 135.074029 
L 121.422857 135.215025 
L 121.486629 135.103568 
L 121.677943 134.978247 
L 121.741714 135.119243 
L 121.805486 135.007786 
L 121.9968 135.001213 
L 122.060571 135.001213 
L 122.124343 134.889756 
L 122.315657 135.060291 
L 122.570743 134.823577 
L 122.8896 134.868939 
L 123.017143 134.757461 
L 123.208457 134.950309 
L 123.463543 134.713679 
L 123.654857 134.884256 
L 123.7824 134.683549 
L 123.846171 134.824588 
L 123.909943 134.73538 
L 124.101257 134.61027 
L 124.292571 134.80316 
L 124.420114 134.580162 
L 124.611429 134.795344 
L 124.802743 134.581068 
L 124.866514 134.581068 
L 124.994057 134.722127 
L 125.376686 134.535874 
L 125.440457 134.676912 
L 125.504229 134.587705 
L 125.695543 134.528036 
L 125.759314 134.735991 
L 125.823086 134.691387 
L 125.950629 134.743239 
L 126.0144 134.477174 
L 126.078171 134.640526 
L 126.205714 134.439797 
L 126.333257 134.655 
L 126.524571 134.476563 
L 126.588343 134.617644 
L 126.652114 134.528415 
L 126.779657 134.580267 
L 126.970971 134.453682 
L 127.098514 134.364474 
L 127.226057 134.186037 
L 127.3536 134.327097 
L 127.544914 134.222825 
L 127.608686 134.37503 
L 127.672457 134.274655 
L 127.863771 134.259591 
L 127.927543 134.422963 
L 127.991314 134.333734 
L 128.055086 134.244526 
L 128.118857 134.296378 
L 128.2464 134.435878 
L 128.310171 134.435878 
L 128.437714 134.257463 
L 128.565257 134.331606 
L 128.629029 134.242398 
L 128.6928 134.316541 
L 128.820343 134.479892 
L 129.011657 134.37562 
L 129.075429 134.286412 
L 129.1392 134.449763 
L 129.202971 134.360555 
L 129.649371 134.32893 
L 129.776914 134.536864 
L 130.350857 134.412196 
L 130.4784 134.586672 
L 130.542171 134.408278 
L 130.605943 134.571608 
L 130.669714 134.4824 
L 130.733486 134.415504 
L 130.797257 134.578834 
L 130.861029 134.489648 
L 130.9248 134.465966 
L 130.988571 134.562379 
L 131.052343 134.473192 
L 131.116114 134.473192 
L 131.179886 134.725688 
L 131.243657 134.569606 
L 131.3712 134.480419 
L 131.498743 134.553214 
L 131.562514 134.464027 
L 131.626286 134.560441 
L 131.945143 134.544091 
L 132.072686 134.718524 
L 132.136457 134.551339 
L 132.200229 134.692314 
L 132.519086 134.653736 
L 132.582857 134.839315 
L 132.646629 134.75015 
L 132.7104 134.75015 
L 132.774171 134.594089 
L 132.837943 134.845341 
L 132.901714 134.800758 
L 132.965486 134.756176 
L 133.029257 134.852568 
L 133.093029 134.785694 
L 133.6032 134.842518 
L 133.666971 135.050347 
L 133.794514 134.827453 
L 133.858286 135.013012 
L 133.922057 134.923846 
L 134.304686 134.885478 
L 134.368457 135.136857 
L 134.432229 134.98086 
L 134.496 134.914006 
L 134.623543 135.099522 
L 134.687314 135.009451 
L 134.814857 135.194925 
L 134.878629 135.194925 
L 135.006171 135.005532 
L 135.197486 135.253076 
L 135.643886 135.214119 
L 135.707657 135.399572 
L 135.771429 135.265908 
L 135.898971 135.199075 
L 135.962743 135.428332 
L 136.026514 135.361521 
L 136.090286 135.294688 
L 136.217829 135.73171 
L 136.2816 135.664878 
L 137.238171 137.360754 
L 137.365714 137.293922 
L 137.684571 137.9677 
L 137.812114 137.9677 
L 138.0672 138.612045 
L 138.130971 138.545234 
L 138.449829 139.133997 
L 138.641143 139.537813 
L 138.704914 139.426462 
L 138.96 139.982272 
L 139.023771 139.981956 
L 139.342629 140.593222 
L 139.725257 141.256318 
L 139.789029 141.256318 
L 139.980343 141.715821 
L 140.044114 141.649031 
L 140.235429 142.32736 
L 140.362971 142.293965 
L 140.554286 142.642327 
L 140.618057 142.642369 
L 140.873143 143.220724 
L 140.936914 143.220724 
L 141.128229 143.613689 
L 141.192 143.636128 
L 141.510857 144.489249 
L 141.6384 144.455876 
L 141.957257 145.112841 
L 142.021029 145.046093 
L 142.148571 145.52873 
L 142.276114 145.506459 
L 142.467429 146.152152 
L 142.594971 146.175012 
L 142.786286 146.613425 
L 142.850057 146.613425 
L 143.041371 147.051226 
L 143.105143 147.051963 
L 143.487771 147.996125 
L 143.551543 147.951648 
L 143.679086 148.501707 
L 143.742857 148.457229 
L 143.806629 148.457229 
L 143.997943 148.918459 
L 144.061714 148.941825 
L 144.380571 149.678454 
L 144.444343 149.633997 
L 144.635657 150.162271 
L 144.7632 150.185868 
L 145.082057 150.923023 
L 145.2096 150.924583 
L 145.464686 151.662096 
L 145.592229 151.686031 
L 145.911086 152.470213 
L 145.974857 152.470213 
L 146.293714 153.230629 
L 146.357486 153.254901 
L 146.676343 154.015675 
L 146.740114 154.040136 
L 146.931429 154.569716 
L 146.9952 154.525323 
L 147.058971 154.549911 
L 147.250286 155.079659 
L 147.314057 155.126559 
L 147.569143 155.72571 
L 147.632914 155.703545 
L 147.824229 156.347341 
L 147.888 156.394537 
L 148.079314 157.038755 
L 148.206857 157.038755 
L 148.3344 157.406837 
L 148.398171 157.476493 
L 148.589486 157.844807 
L 148.653257 157.844807 
L 148.908343 158.626187 
L 149.035886 158.696137 
L 149.099657 158.76613 
L 149.2272 159.087101 
L 149.290971 159.157178 
L 149.418514 159.570518 
L 149.482286 159.570518 
L 149.609829 160.076436 
L 149.864914 160.146787 
L 150.12 160.92606 
L 150.311314 161.159888 
L 150.5664 161.895442 
L 150.693943 161.988358 
L 150.757714 162.081316 
L 150.949029 162.817355 
L 151.076571 162.910481 
L 152.415771 165.897522 
L 152.479543 165.897522 
L 152.734629 166.801821 
L 152.925943 166.873931 
L 153.181029 167.80147 
L 153.308571 167.895945 
L 153.499886 168.385397 
L 153.563657 168.457992 
L 153.754971 168.802551 
L 153.818743 168.802551 
L 154.010057 169.387479 
L 154.1376 169.460369 
L 154.392686 170.295845 
L 155.285486 172.402458 
L 155.413029 172.476233 
L 155.668114 173.314395 
L 155.795657 173.410408 
L 155.859429 173.484467 
L 156.050743 174.000162 
L 156.178286 174.074431 
L 156.433371 174.936117 
L 156.624686 175.203825 
L 156.816 175.635137 
L 156.943543 175.817745 
L 157.071086 176.304291 
L 157.326171 176.758378 
L 157.517486 177.320679 
L 157.772571 177.798143 
L 157.963886 178.427159 
L 158.410286 179.481736 
L 158.729143 180.147602 
L 158.792914 180.147602 
L 159.111771 181.062805 
L 159.366857 181.566722 
L 159.558171 182.154758 
L 160.961143 185.372277 
L 161.216229 186.251282 
L 161.28 186.251282 
L 161.407543 186.517484 
L 161.598857 187.275655 
L 162.555429 189.227904 
L 162.810514 190.112693 
L 162.874286 190.112693 
L 163.575771 191.785582 
L 163.830857 192.674353 
L 163.894629 192.674353 
L 164.022171 192.944926 
L 164.213486 193.564346 
L 166.1904 198.261284 
L 166.381714 198.885497 
L 166.700571 199.541177 
L 166.828114 200.061054 
L 167.210743 200.846342 
L 167.402057 201.557645 
L 168.167314 203.489141 
L 168.358629 204.118505 
L 168.613714 204.655796 
L 168.805029 205.307704 
L 168.8688 205.307704 
L 169.251429 206.019291 
L 169.442743 206.780887 
L 170.208 208.739214 
L 170.463086 209.614701 
L 175.756114 224.060747 
L 175.947429 224.734041 
L 176.266286 225.54751 
L 176.4576 226.222689 
L 176.840229 227.202406 
L 177.031543 227.85896 
L 177.988114 230.539473 
L 178.179429 231.221226 
L 178.817143 233.111615 
L 179.263543 234.616445 
L 179.709943 235.756394 
L 179.901257 236.612023 
L 180.092571 236.945267 
L 180.411429 238.094814 
L 180.4752 238.094814 
L 182.452114 244.21557 
L 182.7072 245.11635 
L 182.770971 245.11635 
L 184.301486 250.084494 
L 185.321829 253.308345 
L 185.3856 253.308345 
L 185.640686 254.520884 
L 185.704457 254.520884 
L 186.214629 255.999013 
L 188.000229 261.874032 
L 188.064 261.951067 
L 188.5104 263.474195 
L 189.339429 266.360371 
L 189.4032 266.398096 
L 190.168457 268.998013 
L 190.232229 268.998013 
L 190.423543 270.153786 
L 190.487314 270.198684 
L 191.252571 272.857264 
L 191.380114 272.800582 
L 191.571429 273.734668 
L 191.826514 274.583533 
L 191.890286 274.583533 
L 192.591771 277.077381 
L 192.655543 277.136591 
L 193.293257 279.42171 
L 193.4208 279.762266 
L 193.8672 281.439548 
L 193.930971 281.439548 
L 194.3136 283.091853 
L 194.377371 283.091853 
L 194.568686 284.004911 
L 194.632457 284.004911 
L 195.015086 285.580855 
L 195.2064 286.057456 
L 195.716571 287.954634 
L 195.844114 288.057948 
L 196.226743 289.39684 
L 196.354286 289.805376 
L 196.864457 291.748107 
L 196.928229 291.681601 
L 197.502171 293.89067 
L 197.565943 293.89067 
L 197.757257 294.609669 
L 198.267429 296.320649 
L 198.394971 296.923252 
L 198.458743 296.923252 
L 198.586286 297.511473 
L 198.650057 297.511473 
L 199.160229 299.529224 
L 199.224 299.529224 
L 199.287771 299.676239 
L 199.479086 300.547008 
L 199.542857 300.547008 
L 199.606629 300.698004 
L 199.797943 301.780445 
L 199.925486 301.729065 
L 200.308114 303.082113 
L 201.647314 306.687146 
L 201.711086 307.207805 
L 201.774857 307.085023 
L 202.858971 310.189073 
L 202.922743 310.255971 
L 203.496686 312.1375 
L 203.624229 312.1011 
L 203.879314 312.9904 
L 203.943086 312.953845 
L 204.453257 314.591735 
L 204.5808 314.651517 
L 204.835886 315.436321 
L 204.899657 315.39917 
L 205.154743 316.281075 
L 205.218514 316.213521 
L 205.409829 316.789579 
L 205.4736 316.850175 
L 205.664914 317.14916 
L 206.238857 318.731879 
L 206.302629 318.784408 
L 206.493943 319.321571 
L 206.621486 319.345056 
L 206.8128 319.882206 
L 206.876571 319.8441 
L 207.067886 320.372161 
L 207.131657 320.434062 
L 207.322971 320.962197 
L 207.386743 321.024231 
L 207.578057 321.51398 
L 207.7056 321.567329 
L 207.896914 322.095428 
L 207.960686 322.056835 
L 208.088229 322.308898 
L 208.215771 322.604114 
L 208.343314 322.662298 
L 208.470857 323.154281 
L 208.534629 323.079393 
L 208.5984 323.142376 
L 208.853486 323.660916 
L 208.981029 323.676037 
L 209.0448 324.069044 
L 209.108571 324.021044 
L 209.172343 323.982013 
L 209.4912 324.782281 
L 209.682514 324.797489 
L 209.873829 325.361254 
L 210.001371 325.3765 
L 210.128914 325.658433 
L 210.192686 325.609893 
L 210.256457 325.940382 
L 210.320229 325.891774 
L 210.384 325.946543 
L 210.511543 326.228521 
L 210.639086 326.131122 
L 210.702857 326.461779 
L 210.766629 326.412981 
L 210.8304 326.467965 
L 210.957943 326.749919 
L 211.085486 326.756113 
L 211.213029 327.02891 
L 211.2768 326.979979 
L 211.340571 327.310897 
L 211.404343 327.252688 
L 211.531886 327.258909 
L 211.595657 327.589912 
L 211.659429 327.531617 
L 211.850743 327.537848 
L 211.914514 327.859712 
L 211.978286 327.810558 
L 212.424686 328.500956 
L 212.488457 328.451761 
L 212.552229 328.451761 
L 212.679771 328.770871 
L 212.807314 328.71233 
L 212.934857 328.70006 
L 213.0624 329.068552 
L 213.253714 328.99767 
L 213.317486 329.310642 
L 213.381257 329.251903 
L 213.572571 329.276762 
L 213.700114 329.636239 
L 213.827657 329.614653 
L 213.9552 329.887567 
L 214.210286 329.816341 
L 214.337829 330.176081 
L 214.465371 330.107796 
L 214.911771 330.47093 
L 215.039314 330.416581 
L 215.230629 330.745515 
L 215.485714 330.70978 
L 215.677029 331.048148 
L 215.868343 331.04044 
L 216.059657 331.285301 
L 216.1872 331.193133 
L 216.442286 331.246403 
L 216.569829 331.578625 
L 216.697371 331.538036 
L 217.016229 331.572536 
L 217.08 331.87669 
L 217.143771 331.82666 
L 217.271314 331.859554 
L 217.398857 331.795391 
L 217.590171 331.870595 
L 217.781486 332.124731 
L 218.164114 332.140496 
L 218.291657 332.080956 
L 218.4192 332.394586 
L 218.546743 332.441694 
L 218.674286 332.372668 
L 219.056914 332.379039 
L 219.184457 332.692741 
L 219.312 332.730468 
L 219.439543 332.651914 
L 219.7584 332.736835 
L 219.885943 332.658294 
L 220.077257 332.686616 
L 220.2048 333.009836 
L 220.332343 332.950083 
L 221.161371 332.994265 
L 221.288914 333.289214 
L 221.799086 333.257771 
L 221.926629 334.347211 
L 222.564343 334.236747 
L 222.691886 334.512908 
L 223.457143 334.402443 
L 223.648457 334.291979 
L 224.413714 334.181515 
L 224.541257 334.457676 
L 225.689143 334.347211 
L 225.880457 334.236747 
L 227.602286 334.126283 
L 227.7936 334.015818 
L 227.984914 334.015818 
L 228.112457 334.291979 
L 263.696914 334.181515 
L 263.952 333.966185 
L 264.270857 333.858107 
L 264.3984 333.474241 
L 264.717257 333.365775 
L 264.972343 333.148017 
L 265.354971 333.038726 
L 265.546286 332.92916 
L 265.801371 332.819319 
L 266.184 332.324592 
L 266.502857 332.214087 
L 266.694171 332.103307 
L 266.821714 331.992252 
L 266.949257 331.718518 
L 267.0768 331.718518 
L 267.268114 331.60735 
L 267.331886 331.60735 
L 267.714514 331.11094 
L 267.842057 331.11094 
L 268.033371 330.999108 
L 268.097143 330.999108 
L 268.479771 330.501857 
L 268.671086 330.501857 
L 269.053714 330.004152 
L 269.245029 330.004152 
L 269.627657 329.505995 
L 269.882743 329.505995 
L 270.265371 329.007385 
L 270.329143 329.007385 
L 270.520457 328.622094 
L 270.839314 328.622094 
L 270.966857 328.236852 
L 271.0944 328.236852 
L 271.477029 327.737659 
L 271.668343 327.737659 
L 271.795886 327.352401 
L 271.9872 327.352401 
L 272.114743 326.967191 
L 272.178514 326.967191 
L 272.306057 325.464819 
L 272.369829 325.449882 
L 272.497371 325.187177 
L 272.561143 325.157418 
L 272.688686 324.972023 
L 272.752457 324.956829 
L 272.943771 324.508304 
L 273.071314 324.477485 
L 273.262629 324.028194 
L 273.453943 323.96559 
L 273.709029 323.451601 
L 273.836571 323.419666 
L 274.027886 323.053664 
L 274.155429 322.989321 
L 274.346743 322.656261 
L 274.601829 322.123512 
L 274.920686 321.709849 
L 275.175771 321.157464 
L 275.430857 320.971822 
L 275.622171 320.641887 
L 275.685943 320.607871 
L 275.941029 320.015634 
L 276.0048 319.998322 
L 276.196114 319.669912 
L 276.259886 319.617828 
L 276.514971 319.05693 
L 276.578743 319.004 
L 276.770057 318.677053 
L 276.8976 318.588449 
L 277.216457 317.788317 
L 277.471543 317.590315 
L 277.662857 317.211173 
L 277.7904 317.174862 
L 278.045486 316.643956 
L 278.109257 316.588846 
L 278.300571 316.210131 
L 278.428114 316.117726 
L 278.619429 315.794961 
L 278.6832 315.757877 
L 278.874514 315.168465 
L 279.002057 314.94071 
L 279.257143 314.752977 
L 279.576 313.935687 
L 279.767314 313.7834 
L 279.958629 313.463858 
L 280.213714 313.087625 
L 280.405029 312.551706 
L 280.851429 312.020962 
L 281.170286 311.205471 
L 281.297829 311.107488 
L 281.489143 310.732584 
L 281.616686 310.673527 
L 281.999314 309.759739 
L 282.126857 309.700041 
L 282.318171 309.42556 
L 282.445714 309.325917 
L 282.637029 308.932238 
L 282.7008 308.892204 
L 282.828343 308.331241 
L 282.892114 308.290883 
L 283.083429 308.018521 
L 283.402286 307.585079 
L 283.721143 306.772972 
L 284.167543 306.196776 
L 284.358857 305.866089 
L 284.422629 305.804511 
L 284.613943 305.391973 
L 284.677714 305.391973 
L 284.869029 305.041546 
L 284.9328 305.041546 
L 285.187886 304.190342 
L 285.315429 303.982443 
L 285.506743 303.716262 
L 285.8256 303.221066 
L 286.016914 302.851342 
L 286.080686 302.788463 
L 286.272 302.355937 
L 286.335771 302.355937 
L 286.463314 302.049883 
L 286.590857 301.986722 
L 286.909714 301.249328 
L 287.292343 300.562739 
L 287.483657 300.194404 
L 287.738743 299.740927 
L 287.930057 299.437335 
L 287.993829 299.593789 
L 288.0576 299.508402 
L 288.376457 298.752703 
L 288.504 298.688371 
L 288.759086 298.214048 
L 288.9504 297.847417 
L 289.269257 297.286507 
L 289.524343 296.61931 
L 289.651886 296.532494 
L 289.8432 296.145007 
L 290.098286 295.64869 
L 290.225829 295.561318 
L 290.2896 295.633944 
L 290.480914 295.202941 
L 290.544686 295.202941 
L 290.991086 294.275123 
L 291.054857 294.187069 
L 291.246171 293.800024 
L 291.565029 293.214047 
L 291.756343 292.827129 
L 291.820114 292.989474 
L 292.011429 292.602998 
L 292.457829 291.808407 
L 292.649143 291.311038 
L 292.776686 291.132364 
L 292.968 290.746246 
L 293.797029 289.326115 
L 294.115886 288.622687 
L 294.434743 288.290012 
L 294.498514 288.290012 
L 294.817371 287.701006 
L 295.136229 287.111189 
L 295.327543 286.703222 
L 295.710171 286.257094 
L 295.773943 286.257094 
L 295.965257 285.769168 
L 296.284114 284.965165 
L 296.411657 284.873266 
L 297.368229 283.311212 
L 297.432 283.311212 
L 297.623314 282.611718 
L 297.8784 282.57285 
L 298.197257 281.956049 
L 298.516114 281.164161 
L 298.643657 281.059114 
L 299.090057 280.507059 
L 299.153829 280.507059 
L 299.281371 280.099429 
L 299.664 279.409911 
L 299.982857 278.700578 
L 300.046629 278.861264 
L 300.1104 278.76711 
L 300.237943 278.578576 
L 300.429257 278.171004 
L 300.811886 277.261464 
L 301.0032 277.048121 
L 301.066971 277.10326 
L 301.322057 276.600717 
L 301.4496 276.505642 
L 301.704686 275.978922 
L 302.661257 274.524739 
L 302.852571 273.901269 
L 302.980114 273.805224 
L 303.043886 273.589594 
L 303.107657 273.765334 
L 303.617829 272.852992 
L 303.872914 272.348733 
L 304.191771 271.900497 
L 304.255543 271.900497 
L 304.5744 271.085159 
L 304.638171 271.085159 
L 305.148343 270.240955 
L 305.212114 270.321703 
L 305.403429 269.889638 
L 305.9136 269.067816 
L 306.104914 268.549967 
L 306.168686 268.71661 
L 306.232457 268.618959 
L 306.487543 268.088816 
L 306.933943 267.264238 
L 307.061486 266.954307 
L 307.125257 267.011353 
L 307.189029 267.011353 
L 307.890514 265.629368 
L 307.954286 265.80988 
L 308.273143 265.179821 
L 308.783314 264.141026 
L 308.847086 264.297498 
L 308.974629 264.198556 
L 310.441371 261.554709 
L 310.632686 261.280101 
L 310.760229 260.97145 
L 310.824 261.054495 
L 311.653029 259.435912 
L 311.7168 259.619721 
L 311.971886 259.085549 
L 312.099429 258.985058 
L 312.418286 258.123309 
L 312.6096 258.181866 
L 312.737143 257.873821 
L 312.928457 257.646962 
L 313.247314 256.909827 
L 313.311086 256.808715 
L 313.438629 256.47979 
L 313.5024 256.47979 
L 313.566171 256.63987 
L 313.9488 255.79997 
L 314.3952 254.984295 
L 314.458971 255.142099 
L 314.522743 255.040571 
L 315.479314 253.220422 
L 315.543086 253.40223 
L 315.606857 253.278126 
L 315.925714 252.678696 
L 316.117029 252.355787 
L 316.499657 251.631837 
L 316.563429 251.789025 
L 317.264914 250.542575 
L 317.456229 250.141529 
L 317.583771 250.224258 
L 317.838857 249.698766 
L 318.221486 248.976612 
L 318.476571 248.475751 
L 318.540343 248.475751 
L 318.731657 248.151745 
L 318.795429 248.334312 
L 319.050514 247.833366 
L 319.752 246.608865 
L 319.943314 246.207461 
L 320.007086 246.390291 
L 320.070857 246.290453 
L 320.963657 244.864876 
L 321.154971 244.36333 
L 321.410057 244.121379 
L 321.601371 243.844822 
L 322.366629 242.517186 
L 322.621714 242.066322 
L 322.8768 242.023383 
L 323.131886 241.522268 
L 324.152229 239.740207 
L 324.6624 238.861055 
L 324.726171 239.045023 
L 324.789943 238.944564 
L 325.746514 237.436479 
L 325.937829 236.908406 
L 326.320457 236.505759 
L 327.3408 234.978638 
L 327.659657 235.615946 
L 327.723429 235.515213 
L 327.978514 235.917849 
L 328.042286 235.817169 
L 328.2336 236.210977 
L 328.297371 236.135485 
L 328.552457 236.562457 
L 328.616229 236.487007 
L 328.871314 237.014353 
L 328.935086 236.938946 
L 329.1264 237.307113 
L 329.190171 237.26942 
L 329.253943 237.516269 
L 329.317714 237.365528 
L 329.381486 237.315277 
L 329.5728 237.683286 
L 329.636571 237.633046 
L 329.827886 238.000939 
L 329.891657 238.000939 
L 330.0192 238.368663 
L 330.082971 238.293372 
L 330.146743 238.293372 
L 330.338057 238.711146 
L 330.4656 238.660969 
L 330.529371 239.103659 
L 330.593143 239.078576 
L 330.656914 239.078576 
L 330.848229 239.546696 
L 330.912 239.49655 
L 331.039543 239.755367 
L 331.167086 239.68017 
L 331.3584 240.197635 
L 331.485943 240.172573 
L 331.677257 240.507123 
L 331.741029 240.507123 
L 331.932343 241.099342 
L 332.187429 241.124383 
L 332.442514 241.792336 
L 332.633829 241.817356 
L 332.761371 242.125654 
L 332.825143 242.150674 
L 333.016457 242.535148 
L 333.080229 242.535148 
L 333.207771 242.843278 
L 333.271543 242.843278 
L 333.399086 243.151302 
L 333.526629 243.252709 
L 333.654171 243.56067 
L 333.717943 243.56067 
L 333.845486 243.868536 
L 333.973029 243.893514 
L 334.164343 244.560571 
L 334.419429 244.585538 
L 334.546971 244.969823 
L 334.610743 244.99479 
L 334.738286 245.302309 
L 334.865829 245.404042 
L 334.993371 245.711498 
L 335.184686 245.786326 
L 335.376 246.195504 
L 335.503543 246.295246 
L 335.694857 246.729329 
L 336.013714 247.260752 
L 336.332571 247.813613 
L 336.396343 247.813613 
L 336.906514 248.621119 
L 337.1616 248.9474 
L 337.289143 249.428288 
L 337.416686 249.478043 
L 337.671771 249.87892 
L 337.735543 249.87892 
L 338.245714 250.837905 
L 338.564571 251.263607 
L 338.755886 251.821593 
L 339.074743 252.144513 
L 339.712457 253.404511 
L 339.84 253.47897 
L 340.2864 254.057183 
L 340.477714 254.627437 
L 340.7328 254.907017 
L 340.924114 255.290839 
L 341.051657 255.366989 
L 341.306743 256.08869 
L 341.6256 256.603299 
L 342.390857 257.599561 
L 342.5184 258.138174 
L 342.582171 258.138174 
L 342.9648 258.830857 
L 343.730057 259.8766 
L 344.112686 260.879872 
L 344.941714 261.999963 
L 345.388114 262.819479 
L 345.579429 263.129447 
L 345.770743 263.747323 
L 346.599771 264.891144 
L 346.791086 265.301175 
L 347.811429 266.892806 
L 348.002743 267.494811 
L 348.3216 268.093082 
L 350.1072 270.902029 
L 350.298514 271.435553 
L 350.426057 271.53351 
L 350.5536 271.704804 
L 350.744914 272.164455 
L 350.808686 272.164455 
L 351 272.624131 
L 351.382629 273.156929 
L 351.510171 273.421787 
L 351.573943 273.421787 
L 351.8928 274.076224 
L 352.020343 274.341593 
L 352.211657 274.608711 
L 352.466743 275.165222 
L 352.721829 275.527969 
L 352.849371 275.697282 
L 353.104457 276.350729 
L 353.359543 276.537072 
L 353.487086 276.609577 
L 354.252343 277.890865 
L 354.5712 278.546345 
L 355.0176 279.293993 
L 355.208914 279.753743 
L 355.400229 280.118007 
L 356.165486 281.299632 
L 356.3568 281.75925 
L 357.377143 283.421415 
L 357.696 284.175415 
L 357.823543 284.245977 
L 358.206171 285.09461 
L 358.716343 285.452932 
L 358.907657 286.018019 
L 359.354057 286.652593 
L 359.545371 287.018932 
L 359.800457 287.524998 
L 359.928 287.57145 
L 360.055543 287.972954 
L 360.183086 288.007734 
L 360.3744 288.513542 
L 360.501943 288.559795 
L 360.693257 289.042268 
L 360.8208 289.0884 
L 361.012114 289.605222 
L 361.075886 289.605222 
L 361.2672 290.00701 
L 361.330971 290.00701 
L 361.522286 290.454882 
L 361.649829 290.489278 
L 361.777371 290.891372 
L 361.968686 291.017225 
L 362.096229 291.396527 
L 362.287543 291.590465 
L 362.415086 292.170495 
L 362.542629 292.215905 
L 362.797714 292.997554 
L 362.925257 293.06546 
L 363.0528 293.155906 
L 363.180343 293.50175 
L 363.307886 293.614582 
L 363.4992 294.005746 
L 363.690514 294.073284 
L 363.818057 294.453371 
L 363.881829 294.453371 
L 364.073143 294.886104 
L 364.200686 294.99073 
L 364.392 295.404765 
L 364.710857 295.751965 
L 365.093486 296.833062 
L 365.157257 296.833062 
L 365.348571 297.054683 
L 365.412343 297.054683 
L 365.539886 297.435668 
L 365.667429 297.468808 
L 365.858743 297.960254 
L 365.922514 297.960254 
L 366.113829 298.297657 
L 366.1776 298.297657 
L 366.305143 298.679435 
L 366.368914 298.679435 
L 366.942857 299.920515 
L 367.325486 300.346022 
L 367.5168 300.760873 
L 367.580571 300.760873 
L 367.771886 301.197555 
L 367.835657 301.197555 
L 367.9632 301.50487 
L 368.090743 301.537273 
L 368.218286 302.110526 
L 368.600914 302.601067 
L 368.728457 303.005989 
L 368.792229 303.005989 
L 368.983543 303.315119 
L 369.3024 303.774093 
L 369.429943 304.078382 
L 369.493714 304.14188 
L 369.685029 304.536436 
L 369.940114 304.93133 
L 370.386514 305.617062 
L 370.705371 306.344281 
L 370.769143 306.375542 
L 371.024229 307.042771 
L 371.151771 307.115531 
L 371.5344 307.646665 
L 371.789486 308.223816 
L 371.9808 308.399248 
L 372.108343 308.93681 
L 372.299657 309.090132 
L 372.490971 309.467053 
L 372.682286 309.783405 
L 372.746057 309.844451 
L 372.937371 310.202036 
L 373.064914 310.262905 
L 373.383771 310.989713 
L 373.575086 311.08058 
L 373.7664 311.697039 
L 373.830171 311.727021 
L 374.085257 312.366382 
L 374.340343 312.756872 
L 374.404114 312.846425 
L 374.595429 313.346107 
L 374.786743 313.405343 
L 375.041829 314.049967 
L 375.169371 314.128753 
L 375.296914 314.256358 
L 375.488229 314.609054 
L 375.552 314.667706 
L 375.870857 315.556171 
L 375.9984 315.691426 
L 376.189714 316.055384 
L 376.253486 316.113062 
L 376.4448 316.477621 
L 376.508571 316.544653 
L 376.699886 316.862024 
L 376.763657 316.919354 
L 377.082514 317.67083 
L 377.146286 317.67083 
L 377.273829 318.038138 
L 377.465143 318.227251 
L 377.656457 318.6138 
L 377.720229 318.670118 
L 377.975314 319.370289 
L 378.102857 319.426364 
L 378.166629 319.49162 
L 378.421714 320.129846 
L 378.485486 320.129846 
L 378.613029 320.333911 
L 378.6768 320.361596 
L 378.995657 321.095761 
L 379.059429 321.169174 
L 379.186971 321.542026 
L 379.314514 321.615049 
L 379.378286 321.687819 
L 379.633371 322.390361 
L 379.824686 322.489829 
L 379.888457 322.525875 
L 380.143543 323.259081 
L 380.207314 323.259081 
L 382.311771 327.413622 
L 382.375543 327.323712 
L 382.503086 327.323712 
L 382.630629 327.641237 
L 382.758171 327.776425 
L 382.949486 328.263028 
L 383.013257 328.329477 
L 383.268343 329.10496 
L 383.395886 329.170729 
L 383.523429 329.30123 
L 383.778514 330.048482 
L 383.969829 330.145161 
L 385.564114 333.124518 
L 385.691657 333.29243 
L 385.755429 333.352715 
L 386.010514 334.170684 
L 386.520686 334.823018 
L 386.712 335.136788 
L 386.775771 335.165722 
L 387.030857 336.081 
L 387.285943 336.262113 
L 387.477257 336.626038 
L 387.541029 336.653534 
L 387.732343 337.07878 
L 387.796114 337.146522 
L 387.987429 337.613179 
L 388.114971 337.862885 
L 388.306286 338.050411 
L 388.4976 338.506749 
L 388.625143 338.685376 
L 388.752686 339.041029 
L 388.880229 338.960469 
L 389.007771 339.432683 
L 389.199086 339.606172 
L 389.3904 340.076695 
L 389.454171 340.13578 
L 389.517943 340.060881 
L 389.709257 340.532987 
L 389.773029 340.532987 
L 389.964343 341.063489 
L 390.028114 341.091629 
L 390.091886 341.435875 
L 390.155657 341.420686 
L 390.2832 341.52803 
L 390.410743 342.008783 
L 390.665829 342.114942 
L 390.793371 342.455439 
L 390.920914 342.575628 
L 391.112229 343.051654 
L 391.239771 343.038472 
L 391.303543 343.416991 
L 391.367314 343.40346 
L 391.494857 343.353487 
L 391.558629 343.71706 
L 391.6224 343.63718 
L 391.877486 343.666637 
L 391.941257 344.102601 
L 392.005029 344.021317 
L 392.0688 344.120857 
L 392.132571 344.040121 
L 392.196343 344.095495 
L 392.323886 344.350147 
L 392.578971 344.415696 
L 392.706514 344.726457 
L 392.897829 344.746359 
L 393.025371 344.766141 
L 393.089143 345.104881 
L 393.152914 345.014689 
L 393.344229 345.084771 
L 393.408 345.473012 
L 393.471771 345.380694 
L 393.535543 345.380694 
L 393.663086 345.493819 
L 393.8544 345.410566 
L 393.918171 345.800147 
L 393.981943 345.704696 
L 394.109486 345.808841 
L 394.173257 345.713589 
L 394.237029 345.765875 
L 394.3008 345.817517 
L 394.364571 345.722463 
L 394.492114 346.166246 
L 394.619657 346.108813 
L 394.683429 346.161962 
L 394.7472 346.06416 
L 394.810971 346.117833 
L 394.874743 346.157674 
L 394.938514 346.059779 
L 395.066057 346.493071 
L 395.129829 346.392236 
L 395.1936 346.447559 
L 395.257371 346.488648 
L 395.321143 346.387721 
L 395.384914 346.429308 
L 395.512457 346.524998 
L 395.576229 346.424826 
L 395.64 346.466106 
L 395.767543 346.520604 
L 395.895086 346.842593 
L 395.958857 346.739103 
L 396.022629 346.781735 
L 396.150171 346.879889 
L 396.213943 346.762954 
L 396.277714 346.805397 
L 396.341486 346.86146 
L 396.405257 346.744108 
L 396.469029 346.786701 
L 396.596571 346.884762 
L 396.787886 347.206986 
L 396.851657 347.086494 
L 396.915429 347.130211 
L 397.361829 347.091626 
L 397.489371 348.447252 
L 397.553143 348.447252 
L 397.680686 348.333927 
L 397.744457 348.333927 
L 397.872 348.21391 
L 397.999543 348.21391 
L 398.063314 348.087486 
L 398.190857 348.457241 
L 398.254629 348.457241 
L 398.382171 348.319493 
L 398.509714 348.319493 
L 398.637257 348.176007 
L 398.701029 348.176007 
L 398.828571 348.027015 
L 399.083657 348.027015 
L 399.2112 347.872742 
L 399.274971 347.872742 
L 399.402514 347.713398 
L 518.4 347.713398 
L 518.4 347.713398 
" style="fill:none;stroke:#0000ff;stroke-linecap:square;"/>
   </g>
   <g id="line2d_4">
    <path clip-path="url(#p4c029ab072)" d="M 72.063771 93.952233 
L 80.417829 93.952233 
L 80.545371 216.690402 
L 81.693257 216.690402 
L 81.8208 192.142768 
L 83.032457 192.142768 
L 83.16 167.595135 
L 518.4 167.595135 
L 518.4 167.595135 
" style="fill:none;stroke:#000000;stroke-linecap:square;"/>
   </g>
   <g id="line2d_5">
    <path clip-path="url(#p4c029ab072)" d="M 72.063771 228.964219 
L 135.898971 229.074683 
L 199.734171 339.428571 
L 263.441829 339.318107 
L 327.149486 228.964219 
L 327.213257 229.074683 
L 391.048457 339.428571 
L 518.4 339.428571 
L 518.4 339.428571 
" style="fill:none;stroke:#bf00bf;stroke-linecap:square;"/>
   </g>
   <g id="patch_3">
    <path d="M 72 43.2 
L 518.4 43.2 
" style="fill:none;stroke:#000000;stroke-linecap:square;stroke-linejoin:miter;"/>
   </g>
   <g id="patch_4">
    <path d="M 518.4 388.8 
L 518.4 43.2 
" style="fill:none;stroke:#000000;stroke-linecap:square;stroke-linejoin:miter;"/>
   </g>
   <g id="patch_5">
    <path d="M 72 388.8 
L 518.4 388.8 
" style="fill:none;stroke:#000000;stroke-linecap:square;stroke-linejoin:miter;"/>
   </g>
   <g id="patch_6">
    <path d="M 72 388.8 
L 72 43.2 
" style="fill:none;stroke:#000000;stroke-linecap:square;stroke-linejoin:miter;"/>
   </g>
   <g id="matplotlib.axis_1">
    <g id="xtick_1">
     <g id="line2d_6">
      <path clip-path="url(#p4c029ab072)" d="M 72 388.8 
L 72 43.2 
" style="fill:none;stroke:#000000;stroke-dasharray:1.000000,3.000000;stroke-dashoffset:0.0;stroke-width:0.5;"/>
     </g>
     <g id="line2d_7">
      <defs>
       <path d="M 0 0 
L 0 -4 
" id="mbe83d27b0f" style="stroke:#000000;stroke-width:0.5;"/>
      </defs>
      <g>
       <use style="stroke:#000000;stroke-width:0.5;" x="72.0" xlink:href="#mbe83d27b0f" y="388.8"/>
      </g>
     </g>
     <g id="line2d_8">
      <defs>
       <path d="M 0 0 
L 0 4 
" id="me53aba60e7" style="stroke:#000000;stroke-width:0.5;"/>
      </defs>
      <g>
       <use style="stroke:#000000;stroke-width:0.5;" x="72.0" xlink:href="#me53aba60e7" y="43.2"/>
      </g>
     </g>
     <g id="text_1">
      <!-- 0 -->
      <defs>
       <path d="M 31.78125 66.40625 
Q 24.171875 66.40625 20.328125 58.90625 
Q 16.5 51.421875 16.5 36.375 
Q 16.5 21.390625 20.328125 13.890625 
Q 24.171875 6.390625 31.78125 6.390625 
Q 39.453125 6.390625 43.28125 13.890625 
Q 47.125 21.390625 47.125 36.375 
Q 47.125 51.421875 43.28125 58.90625 
Q 39.453125 66.40625 31.78125 66.40625 
M 31.78125 74.21875 
Q 44.046875 74.21875 50.515625 64.515625 
Q 56.984375 54.828125 56.984375 36.375 
Q 56.984375 17.96875 50.515625 8.265625 
Q 44.046875 -1.421875 31.78125 -1.421875 
Q 19.53125 -1.421875 13.0625 8.265625 
Q 6.59375 17.96875 6.59375 36.375 
Q 6.59375 54.828125 13.0625 64.515625 
Q 19.53125 74.21875 31.78125 74.21875 
" id="BitstreamVeraSans-Roman-30"/>
      </defs>
      <g transform="translate(68.1825 401.918125)scale(0.12 -0.12)">
       <use xlink:href="#BitstreamVeraSans-Roman-30"/>
      </g>
     </g>
    </g>
    <g id="xtick_2">
     <g id="line2d_9">
      <path clip-path="url(#p4c029ab072)" d="M 135.771429 388.8 
L 135.771429 43.2 
" style="fill:none;stroke:#000000;stroke-dasharray:1.000000,3.000000;stroke-dashoffset:0.0;stroke-width:0.5;"/>
     </g>
     <g id="line2d_10">
      <g>
       <use style="stroke:#000000;stroke-width:0.5;" x="135.771428571" xlink:href="#mbe83d27b0f" y="388.8"/>
      </g>
     </g>
     <g id="line2d_11">
      <g>
       <use style="stroke:#000000;stroke-width:0.5;" x="135.771428571" xlink:href="#me53aba60e7" y="43.2"/>
      </g>
     </g>
     <g id="text_2">
      <!-- 10 -->
      <defs>
       <path d="M 12.40625 8.296875 
L 28.515625 8.296875 
L 28.515625 63.921875 
L 10.984375 60.40625 
L 10.984375 69.390625 
L 28.421875 72.90625 
L 38.28125 72.90625 
L 38.28125 8.296875 
L 54.390625 8.296875 
L 54.390625 0 
L 12.40625 0 
z
" id="BitstreamVeraSans-Roman-31"/>
      </defs>
      <g transform="translate(128.136428571 401.918125)scale(0.12 -0.12)">
       <use xlink:href="#BitstreamVeraSans-Roman-31"/>
       <use x="63.623046875" xlink:href="#BitstreamVeraSans-Roman-30"/>
      </g>
     </g>
    </g>
    <g id="xtick_3">
     <g id="line2d_12">
      <path clip-path="url(#p4c029ab072)" d="M 199.542857 388.8 
L 199.542857 43.2 
" style="fill:none;stroke:#000000;stroke-dasharray:1.000000,3.000000;stroke-dashoffset:0.0;stroke-width:0.5;"/>
     </g>
     <g id="line2d_13">
      <g>
       <use style="stroke:#000000;stroke-width:0.5;" x="199.542857143" xlink:href="#mbe83d27b0f" y="388.8"/>
      </g>
     </g>
     <g id="line2d_14">
      <g>
       <use style="stroke:#000000;stroke-width:0.5;" x="199.542857143" xlink:href="#me53aba60e7" y="43.2"/>
      </g>
     </g>
     <g id="text_3">
      <!-- 20 -->
      <defs>
       <path d="M 19.1875 8.296875 
L 53.609375 8.296875 
L 53.609375 0 
L 7.328125 0 
L 7.328125 8.296875 
Q 12.9375 14.109375 22.625 23.890625 
Q 32.328125 33.6875 34.8125 36.53125 
Q 39.546875 41.84375 41.421875 45.53125 
Q 43.3125 49.21875 43.3125 52.78125 
Q 43.3125 58.59375 39.234375 62.25 
Q 35.15625 65.921875 28.609375 65.921875 
Q 23.96875 65.921875 18.8125 64.3125 
Q 13.671875 62.703125 7.8125 59.421875 
L 7.8125 69.390625 
Q 13.765625 71.78125 18.9375 73 
Q 24.125 74.21875 28.421875 74.21875 
Q 39.75 74.21875 46.484375 68.546875 
Q 53.21875 62.890625 53.21875 53.421875 
Q 53.21875 48.921875 51.53125 44.890625 
Q 49.859375 40.875 45.40625 35.40625 
Q 44.1875 33.984375 37.640625 27.21875 
Q 31.109375 20.453125 19.1875 8.296875 
" id="BitstreamVeraSans-Roman-32"/>
      </defs>
      <g transform="translate(191.907857143 401.918125)scale(0.12 -0.12)">
       <use xlink:href="#BitstreamVeraSans-Roman-32"/>
       <use x="63.623046875" xlink:href="#BitstreamVeraSans-Roman-30"/>
      </g>
     </g>
    </g>
    <g id="xtick_4">
     <g id="line2d_15">
      <path clip-path="url(#p4c029ab072)" d="M 263.314286 388.8 
L 263.314286 43.2 
" style="fill:none;stroke:#000000;stroke-dasharray:1.000000,3.000000;stroke-dashoffset:0.0;stroke-width:0.5;"/>
     </g>
     <g id="line2d_16">
      <g>
       <use style="stroke:#000000;stroke-width:0.5;" x="263.314285714" xlink:href="#mbe83d27b0f" y="388.8"/>
      </g>
     </g>
     <g id="line2d_17">
      <g>
       <use style="stroke:#000000;stroke-width:0.5;" x="263.314285714" xlink:href="#me53aba60e7" y="43.2"/>
      </g>
     </g>
     <g id="text_4">
      <!-- 30 -->
      <defs>
       <path d="M 40.578125 39.3125 
Q 47.65625 37.796875 51.625 33 
Q 55.609375 28.21875 55.609375 21.1875 
Q 55.609375 10.40625 48.1875 4.484375 
Q 40.765625 -1.421875 27.09375 -1.421875 
Q 22.515625 -1.421875 17.65625 -0.515625 
Q 12.796875 0.390625 7.625 2.203125 
L 7.625 11.71875 
Q 11.71875 9.328125 16.59375 8.109375 
Q 21.484375 6.890625 26.8125 6.890625 
Q 36.078125 6.890625 40.9375 10.546875 
Q 45.796875 14.203125 45.796875 21.1875 
Q 45.796875 27.640625 41.28125 31.265625 
Q 36.765625 34.90625 28.71875 34.90625 
L 20.21875 34.90625 
L 20.21875 43.015625 
L 29.109375 43.015625 
Q 36.375 43.015625 40.234375 45.921875 
Q 44.09375 48.828125 44.09375 54.296875 
Q 44.09375 59.90625 40.109375 62.90625 
Q 36.140625 65.921875 28.71875 65.921875 
Q 24.65625 65.921875 20.015625 65.03125 
Q 15.375 64.15625 9.8125 62.3125 
L 9.8125 71.09375 
Q 15.4375 72.65625 20.34375 73.4375 
Q 25.25 74.21875 29.59375 74.21875 
Q 40.828125 74.21875 47.359375 69.109375 
Q 53.90625 64.015625 53.90625 55.328125 
Q 53.90625 49.265625 50.4375 45.09375 
Q 46.96875 40.921875 40.578125 39.3125 
" id="BitstreamVeraSans-Roman-33"/>
      </defs>
      <g transform="translate(255.679285714 401.918125)scale(0.12 -0.12)">
       <use xlink:href="#BitstreamVeraSans-Roman-33"/>
       <use x="63.623046875" xlink:href="#BitstreamVeraSans-Roman-30"/>
      </g>
     </g>
    </g>
    <g id="xtick_5">
     <g id="line2d_18">
      <path clip-path="url(#p4c029ab072)" d="M 327.085714 388.8 
L 327.085714 43.2 
" style="fill:none;stroke:#000000;stroke-dasharray:1.000000,3.000000;stroke-dashoffset:0.0;stroke-width:0.5;"/>
     </g>
     <g id="line2d_19">
      <g>
       <use style="stroke:#000000;stroke-width:0.5;" x="327.085714286" xlink:href="#mbe83d27b0f" y="388.8"/>
      </g>
     </g>
     <g id="line2d_20">
      <g>
       <use style="stroke:#000000;stroke-width:0.5;" x="327.085714286" xlink:href="#me53aba60e7" y="43.2"/>
      </g>
     </g>
     <g id="text_5">
      <!-- 40 -->
      <defs>
       <path d="M 37.796875 64.3125 
L 12.890625 25.390625 
L 37.796875 25.390625 
z
M 35.203125 72.90625 
L 47.609375 72.90625 
L 47.609375 25.390625 
L 58.015625 25.390625 
L 58.015625 17.1875 
L 47.609375 17.1875 
L 47.609375 0 
L 37.796875 0 
L 37.796875 17.1875 
L 4.890625 17.1875 
L 4.890625 26.703125 
z
" id="BitstreamVeraSans-Roman-34"/>
      </defs>
      <g transform="translate(319.450714286 401.918125)scale(0.12 -0.12)">
       <use xlink:href="#BitstreamVeraSans-Roman-34"/>
       <use x="63.623046875" xlink:href="#BitstreamVeraSans-Roman-30"/>
      </g>
     </g>
    </g>
    <g id="xtick_6">
     <g id="line2d_21">
      <path clip-path="url(#p4c029ab072)" d="M 390.857143 388.8 
L 390.857143 43.2 
" style="fill:none;stroke:#000000;stroke-dasharray:1.000000,3.000000;stroke-dashoffset:0.0;stroke-width:0.5;"/>
     </g>
     <g id="line2d_22">
      <g>
       <use style="stroke:#000000;stroke-width:0.5;" x="390.857142857" xlink:href="#mbe83d27b0f" y="388.8"/>
      </g>
     </g>
     <g id="line2d_23">
      <g>
       <use style="stroke:#000000;stroke-width:0.5;" x="390.857142857" xlink:href="#me53aba60e7" y="43.2"/>
      </g>
     </g>
     <g id="text_6">
      <!-- 50 -->
      <defs>
       <path d="M 10.796875 72.90625 
L 49.515625 72.90625 
L 49.515625 64.59375 
L 19.828125 64.59375 
L 19.828125 46.734375 
Q 21.96875 47.46875 24.109375 47.828125 
Q 26.265625 48.1875 28.421875 48.1875 
Q 40.625 48.1875 47.75 41.5 
Q 54.890625 34.8125 54.890625 23.390625 
Q 54.890625 11.625 47.5625 5.09375 
Q 40.234375 -1.421875 26.90625 -1.421875 
Q 22.3125 -1.421875 17.546875 -0.640625 
Q 12.796875 0.140625 7.71875 1.703125 
L 7.71875 11.625 
Q 12.109375 9.234375 16.796875 8.0625 
Q 21.484375 6.890625 26.703125 6.890625 
Q 35.15625 6.890625 40.078125 11.328125 
Q 45.015625 15.765625 45.015625 23.390625 
Q 45.015625 31 40.078125 35.4375 
Q 35.15625 39.890625 26.703125 39.890625 
Q 22.75 39.890625 18.8125 39.015625 
Q 14.890625 38.140625 10.796875 36.28125 
z
" id="BitstreamVeraSans-Roman-35"/>
      </defs>
      <g transform="translate(383.222142857 401.918125)scale(0.12 -0.12)">
       <use xlink:href="#BitstreamVeraSans-Roman-35"/>
       <use x="63.623046875" xlink:href="#BitstreamVeraSans-Roman-30"/>
      </g>
     </g>
    </g>
    <g id="xtick_7">
     <g id="line2d_24">
      <path clip-path="url(#p4c029ab072)" d="M 454.628571 388.8 
L 454.628571 43.2 
" style="fill:none;stroke:#000000;stroke-dasharray:1.000000,3.000000;stroke-dashoffset:0.0;stroke-width:0.5;"/>
     </g>
     <g id="line2d_25">
      <g>
       <use style="stroke:#000000;stroke-width:0.5;" x="454.628571429" xlink:href="#mbe83d27b0f" y="388.8"/>
      </g>
     </g>
     <g id="line2d_26">
      <g>
       <use style="stroke:#000000;stroke-width:0.5;" x="454.628571429" xlink:href="#me53aba60e7" y="43.2"/>
      </g>
     </g>
     <g id="text_7">
      <!-- 60 -->
      <defs>
       <path d="M 33.015625 40.375 
Q 26.375 40.375 22.484375 35.828125 
Q 18.609375 31.296875 18.609375 23.390625 
Q 18.609375 15.53125 22.484375 10.953125 
Q 26.375 6.390625 33.015625 6.390625 
Q 39.65625 6.390625 43.53125 10.953125 
Q 47.40625 15.53125 47.40625 23.390625 
Q 47.40625 31.296875 43.53125 35.828125 
Q 39.65625 40.375 33.015625 40.375 
M 52.59375 71.296875 
L 52.59375 62.3125 
Q 48.875 64.0625 45.09375 64.984375 
Q 41.3125 65.921875 37.59375 65.921875 
Q 27.828125 65.921875 22.671875 59.328125 
Q 17.53125 52.734375 16.796875 39.40625 
Q 19.671875 43.65625 24.015625 45.921875 
Q 28.375 48.1875 33.59375 48.1875 
Q 44.578125 48.1875 50.953125 41.515625 
Q 57.328125 34.859375 57.328125 23.390625 
Q 57.328125 12.15625 50.6875 5.359375 
Q 44.046875 -1.421875 33.015625 -1.421875 
Q 20.359375 -1.421875 13.671875 8.265625 
Q 6.984375 17.96875 6.984375 36.375 
Q 6.984375 53.65625 15.1875 63.9375 
Q 23.390625 74.21875 37.203125 74.21875 
Q 40.921875 74.21875 44.703125 73.484375 
Q 48.484375 72.75 52.59375 71.296875 
" id="BitstreamVeraSans-Roman-36"/>
      </defs>
      <g transform="translate(446.993571429 401.918125)scale(0.12 -0.12)">
       <use xlink:href="#BitstreamVeraSans-Roman-36"/>
       <use x="63.623046875" xlink:href="#BitstreamVeraSans-Roman-30"/>
      </g>
     </g>
    </g>
    <g id="xtick_8">
     <g id="line2d_27">
      <path clip-path="url(#p4c029ab072)" d="M 518.4 388.8 
L 518.4 43.2 
" style="fill:none;stroke:#000000;stroke-dasharray:1.000000,3.000000;stroke-dashoffset:0.0;stroke-width:0.5;"/>
     </g>
     <g id="line2d_28">
      <g>
       <use style="stroke:#000000;stroke-width:0.5;" x="518.4" xlink:href="#mbe83d27b0f" y="388.8"/>
      </g>
     </g>
     <g id="line2d_29">
      <g>
       <use style="stroke:#000000;stroke-width:0.5;" x="518.4" xlink:href="#me53aba60e7" y="43.2"/>
      </g>
     </g>
     <g id="text_8">
      <!-- 70 -->
      <defs>
       <path d="M 8.203125 72.90625 
L 55.078125 72.90625 
L 55.078125 68.703125 
L 28.609375 0 
L 18.3125 0 
L 43.21875 64.59375 
L 8.203125 64.59375 
z
" id="BitstreamVeraSans-Roman-37"/>
      </defs>
      <g transform="translate(510.765 401.918125)scale(0.12 -0.12)">
       <use xlink:href="#BitstreamVeraSans-Roman-37"/>
       <use x="63.623046875" xlink:href="#BitstreamVeraSans-Roman-30"/>
      </g>
     </g>
    </g>
    <g id="text_9">
     <!-- Time [s] -->
     <defs>
      <path id="BitstreamVeraSans-Roman-20"/>
      <path d="M 8.59375 75.984375 
L 29.296875 75.984375 
L 29.296875 69 
L 17.578125 69 
L 17.578125 -6.203125 
L 29.296875 -6.203125 
L 29.296875 -13.1875 
L 8.59375 -13.1875 
z
" id="BitstreamVeraSans-Roman-5b"/>
      <path d="M 30.421875 75.984375 
L 30.421875 -13.1875 
L 9.71875 -13.1875 
L 9.71875 -6.203125 
L 21.390625 -6.203125 
L 21.390625 69 
L 9.71875 69 
L 9.71875 75.984375 
z
" id="BitstreamVeraSans-Roman-5d"/>
      <path d="M 52 44.1875 
Q 55.375 50.25 60.0625 53.125 
Q 64.75 56 71.09375 56 
Q 79.640625 56 84.28125 50.015625 
Q 88.921875 44.046875 88.921875 33.015625 
L 88.921875 0 
L 79.890625 0 
L 79.890625 32.71875 
Q 79.890625 40.578125 77.09375 44.375 
Q 74.3125 48.1875 68.609375 48.1875 
Q 61.625 48.1875 57.5625 43.546875 
Q 53.515625 38.921875 53.515625 30.90625 
L 53.515625 0 
L 44.484375 0 
L 44.484375 32.71875 
Q 44.484375 40.625 41.703125 44.40625 
Q 38.921875 48.1875 33.109375 48.1875 
Q 26.21875 48.1875 22.15625 43.53125 
Q 18.109375 38.875 18.109375 30.90625 
L 18.109375 0 
L 9.078125 0 
L 9.078125 54.6875 
L 18.109375 54.6875 
L 18.109375 46.1875 
Q 21.1875 51.21875 25.484375 53.609375 
Q 29.78125 56 35.6875 56 
Q 41.65625 56 45.828125 52.96875 
Q 50 49.953125 52 44.1875 
" id="BitstreamVeraSans-Roman-6d"/>
      <path d="M 9.421875 54.6875 
L 18.40625 54.6875 
L 18.40625 0 
L 9.421875 0 
z
M 9.421875 75.984375 
L 18.40625 75.984375 
L 18.40625 64.59375 
L 9.421875 64.59375 
z
" id="BitstreamVeraSans-Roman-69"/>
      <path d="M 56.203125 29.59375 
L 56.203125 25.203125 
L 14.890625 25.203125 
Q 15.484375 15.921875 20.484375 11.0625 
Q 25.484375 6.203125 34.421875 6.203125 
Q 39.59375 6.203125 44.453125 7.46875 
Q 49.3125 8.734375 54.109375 11.28125 
L 54.109375 2.78125 
Q 49.265625 0.734375 44.1875 -0.34375 
Q 39.109375 -1.421875 33.890625 -1.421875 
Q 20.796875 -1.421875 13.15625 6.1875 
Q 5.515625 13.8125 5.515625 26.8125 
Q 5.515625 40.234375 12.765625 48.109375 
Q 20.015625 56 32.328125 56 
Q 43.359375 56 49.78125 48.890625 
Q 56.203125 41.796875 56.203125 29.59375 
M 47.21875 32.234375 
Q 47.125 39.59375 43.09375 43.984375 
Q 39.0625 48.390625 32.421875 48.390625 
Q 24.90625 48.390625 20.390625 44.140625 
Q 15.875 39.890625 15.1875 32.171875 
z
" id="BitstreamVeraSans-Roman-65"/>
      <path d="M -0.296875 72.90625 
L 61.375 72.90625 
L 61.375 64.59375 
L 35.5 64.59375 
L 35.5 0 
L 25.59375 0 
L 25.59375 64.59375 
L -0.296875 64.59375 
z
" id="BitstreamVeraSans-Roman-54"/>
      <path d="M 44.28125 53.078125 
L 44.28125 44.578125 
Q 40.484375 46.53125 36.375 47.5 
Q 32.28125 48.484375 27.875 48.484375 
Q 21.1875 48.484375 17.84375 46.4375 
Q 14.5 44.390625 14.5 40.28125 
Q 14.5 37.15625 16.890625 35.375 
Q 19.28125 33.59375 26.515625 31.984375 
L 29.59375 31.296875 
Q 39.15625 29.25 43.1875 25.515625 
Q 47.21875 21.78125 47.21875 15.09375 
Q 47.21875 7.46875 41.1875 3.015625 
Q 35.15625 -1.421875 24.609375 -1.421875 
Q 20.21875 -1.421875 15.453125 -0.5625 
Q 10.6875 0.296875 5.421875 2 
L 5.421875 11.28125 
Q 10.40625 8.6875 15.234375 7.390625 
Q 20.0625 6.109375 24.8125 6.109375 
Q 31.15625 6.109375 34.5625 8.28125 
Q 37.984375 10.453125 37.984375 14.40625 
Q 37.984375 18.0625 35.515625 20.015625 
Q 33.0625 21.96875 24.703125 23.78125 
L 21.578125 24.515625 
Q 13.234375 26.265625 9.515625 29.90625 
Q 5.8125 33.546875 5.8125 39.890625 
Q 5.8125 47.609375 11.28125 51.796875 
Q 16.75 56 26.8125 56 
Q 31.78125 56 36.171875 55.265625 
Q 40.578125 54.546875 44.28125 53.078125 
" id="BitstreamVeraSans-Roman-73"/>
     </defs>
     <g transform="translate(270.620625 418.531875)scale(0.12 -0.12)">
      <use xlink:href="#BitstreamVeraSans-Roman-54"/>
      <use x="61.037109375" xlink:href="#BitstreamVeraSans-Roman-69"/>
      <use x="88.8203125" xlink:href="#BitstreamVeraSans-Roman-6d"/>
      <use x="186.232421875" xlink:href="#BitstreamVeraSans-Roman-65"/>
      <use x="247.755859375" xlink:href="#BitstreamVeraSans-Roman-20"/>
      <use x="279.54296875" xlink:href="#BitstreamVeraSans-Roman-5b"/>
      <use x="318.556640625" xlink:href="#BitstreamVeraSans-Roman-73"/>
      <use x="370.65625" xlink:href="#BitstreamVeraSans-Roman-5d"/>
     </g>
    </g>
   </g>
   <g id="matplotlib.axis_2">
    <g id="ytick_1">
     <g id="line2d_30">
      <path clip-path="url(#p4c029ab072)" d="M 72 388.8 
L 518.4 388.8 
" style="fill:none;stroke:#000000;stroke-dasharray:1.000000,3.000000;stroke-dashoffset:0.0;stroke-width:0.5;"/>
     </g>
     <g id="line2d_31">
      <defs>
       <path d="M 0 0 
L 4 0 
" id="m6c377d72b2" style="stroke:#000000;stroke-width:0.5;"/>
      </defs>
      <g>
       <use style="stroke:#000000;stroke-width:0.5;" x="72.0" xlink:href="#m6c377d72b2" y="388.8"/>
      </g>
     </g>
     <g id="line2d_32">
      <defs>
       <path d="M 0 0 
L -4 0 
" id="m072ebe6193" style="stroke:#000000;stroke-width:0.5;"/>
      </defs>
      <g>
       <use style="stroke:#000000;stroke-width:0.5;" x="518.4" xlink:href="#m072ebe6193" y="388.8"/>
      </g>
     </g>
     <g id="text_10">
      <!-- 10 -->
      <defs>
       <path d="M 10.59375 35.5 
L 73.1875 35.5 
L 73.1875 27.203125 
L 10.59375 27.203125 
z
" id="BitstreamVeraSans-Roman-2212"/>
      </defs>
      <g transform="translate(42.674375 392.11125)scale(0.12 -0.12)">
       <use xlink:href="#BitstreamVeraSans-Roman-2212"/>
       <use x="83.7890625" xlink:href="#BitstreamVeraSans-Roman-31"/>
       <use x="147.412109375" xlink:href="#BitstreamVeraSans-Roman-30"/>
      </g>
     </g>
    </g>
    <g id="ytick_2">
     <g id="line2d_33">
      <path clip-path="url(#p4c029ab072)" d="M 72 339.428571 
L 518.4 339.428571 
" style="fill:none;stroke:#000000;stroke-dasharray:1.000000,3.000000;stroke-dashoffset:0.0;stroke-width:0.5;"/>
     </g>
     <g id="line2d_34">
      <g>
       <use style="stroke:#000000;stroke-width:0.5;" x="72.0" xlink:href="#m6c377d72b2" y="339.428571429"/>
      </g>
     </g>
     <g id="line2d_35">
      <g>
       <use style="stroke:#000000;stroke-width:0.5;" x="518.4" xlink:href="#m072ebe6193" y="339.428571429"/>
      </g>
     </g>
     <g id="text_11">
      <!-- 0 -->
      <g transform="translate(60.365 342.739821429)scale(0.12 -0.12)">
       <use xlink:href="#BitstreamVeraSans-Roman-30"/>
      </g>
     </g>
    </g>
    <g id="ytick_3">
     <g id="line2d_36">
      <path clip-path="url(#p4c029ab072)" d="M 72 290.057143 
L 518.4 290.057143 
" style="fill:none;stroke:#000000;stroke-dasharray:1.000000,3.000000;stroke-dashoffset:0.0;stroke-width:0.5;"/>
     </g>
     <g id="line2d_37">
      <g>
       <use style="stroke:#000000;stroke-width:0.5;" x="72.0" xlink:href="#m6c377d72b2" y="290.057142857"/>
      </g>
     </g>
     <g id="line2d_38">
      <g>
       <use style="stroke:#000000;stroke-width:0.5;" x="518.4" xlink:href="#m072ebe6193" y="290.057142857"/>
      </g>
     </g>
     <g id="text_12">
      <!-- 10 -->
      <g transform="translate(52.73 293.368392857)scale(0.12 -0.12)">
       <use xlink:href="#BitstreamVeraSans-Roman-31"/>
       <use x="63.623046875" xlink:href="#BitstreamVeraSans-Roman-30"/>
      </g>
     </g>
    </g>
    <g id="ytick_4">
     <g id="line2d_39">
      <path clip-path="url(#p4c029ab072)" d="M 72 240.685714 
L 518.4 240.685714 
" style="fill:none;stroke:#000000;stroke-dasharray:1.000000,3.000000;stroke-dashoffset:0.0;stroke-width:0.5;"/>
     </g>
     <g id="line2d_40">
      <g>
       <use style="stroke:#000000;stroke-width:0.5;" x="72.0" xlink:href="#m6c377d72b2" y="240.685714286"/>
      </g>
     </g>
     <g id="line2d_41">
      <g>
       <use style="stroke:#000000;stroke-width:0.5;" x="518.4" xlink:href="#m072ebe6193" y="240.685714286"/>
      </g>
     </g>
     <g id="text_13">
      <!-- 20 -->
      <g transform="translate(52.73 243.996964286)scale(0.12 -0.12)">
       <use xlink:href="#BitstreamVeraSans-Roman-32"/>
       <use x="63.623046875" xlink:href="#BitstreamVeraSans-Roman-30"/>
      </g>
     </g>
    </g>
    <g id="ytick_5">
     <g id="line2d_42">
      <path clip-path="url(#p4c029ab072)" d="M 72 191.314286 
L 518.4 191.314286 
" style="fill:none;stroke:#000000;stroke-dasharray:1.000000,3.000000;stroke-dashoffset:0.0;stroke-width:0.5;"/>
     </g>
     <g id="line2d_43">
      <g>
       <use style="stroke:#000000;stroke-width:0.5;" x="72.0" xlink:href="#m6c377d72b2" y="191.314285714"/>
      </g>
     </g>
     <g id="line2d_44">
      <g>
       <use style="stroke:#000000;stroke-width:0.5;" x="518.4" xlink:href="#m072ebe6193" y="191.314285714"/>
      </g>
     </g>
     <g id="text_14">
      <!-- 30 -->
      <g transform="translate(52.73 194.625535714)scale(0.12 -0.12)">
       <use xlink:href="#BitstreamVeraSans-Roman-33"/>
       <use x="63.623046875" xlink:href="#BitstreamVeraSans-Roman-30"/>
      </g>
     </g>
    </g>
    <g id="ytick_6">
     <g id="line2d_45">
      <path clip-path="url(#p4c029ab072)" d="M 72 141.942857 
L 518.4 141.942857 
" style="fill:none;stroke:#000000;stroke-dasharray:1.000000,3.000000;stroke-dashoffset:0.0;stroke-width:0.5;"/>
     </g>
     <g id="line2d_46">
      <g>
       <use style="stroke:#000000;stroke-width:0.5;" x="72.0" xlink:href="#m6c377d72b2" y="141.942857143"/>
      </g>
     </g>
     <g id="line2d_47">
      <g>
       <use style="stroke:#000000;stroke-width:0.5;" x="518.4" xlink:href="#m072ebe6193" y="141.942857143"/>
      </g>
     </g>
     <g id="text_15">
      <!-- 40 -->
      <g transform="translate(52.73 145.254107143)scale(0.12 -0.12)">
       <use xlink:href="#BitstreamVeraSans-Roman-34"/>
       <use x="63.623046875" xlink:href="#BitstreamVeraSans-Roman-30"/>
      </g>
     </g>
    </g>
    <g id="ytick_7">
     <g id="line2d_48">
      <path clip-path="url(#p4c029ab072)" d="M 72 92.571429 
L 518.4 92.571429 
" style="fill:none;stroke:#000000;stroke-dasharray:1.000000,3.000000;stroke-dashoffset:0.0;stroke-width:0.5;"/>
     </g>
     <g id="line2d_49">
      <g>
       <use style="stroke:#000000;stroke-width:0.5;" x="72.0" xlink:href="#m6c377d72b2" y="92.5714285714"/>
      </g>
     </g>
     <g id="line2d_50">
      <g>
       <use style="stroke:#000000;stroke-width:0.5;" x="518.4" xlink:href="#m072ebe6193" y="92.5714285714"/>
      </g>
     </g>
     <g id="text_16">
      <!-- 50 -->
      <g transform="translate(52.73 95.8826785714)scale(0.12 -0.12)">
       <use xlink:href="#BitstreamVeraSans-Roman-35"/>
       <use x="63.623046875" xlink:href="#BitstreamVeraSans-Roman-30"/>
      </g>
     </g>
    </g>
    <g id="ytick_8">
     <g id="line2d_51">
      <path clip-path="url(#p4c029ab072)" d="M 72 43.2 
L 518.4 43.2 
" style="fill:none;stroke:#000000;stroke-dasharray:1.000000,3.000000;stroke-dashoffset:0.0;stroke-width:0.5;"/>
     </g>
     <g id="line2d_52">
      <g>
       <use style="stroke:#000000;stroke-width:0.5;" x="72.0" xlink:href="#m6c377d72b2" y="43.2"/>
      </g>
     </g>
     <g id="line2d_53">
      <g>
       <use style="stroke:#000000;stroke-width:0.5;" x="518.4" xlink:href="#m072ebe6193" y="43.2"/>
      </g>
     </g>
     <g id="text_17">
      <!-- 60 -->
      <g transform="translate(52.73 46.51125)scale(0.12 -0.12)">
       <use xlink:href="#BitstreamVeraSans-Roman-36"/>
       <use x="63.623046875" xlink:href="#BitstreamVeraSans-Roman-30"/>
      </g>
     </g>
    </g>
    <g id="text_18">
     <!-- Speed [mph] -->
     <defs>
      <path d="M 45.40625 46.390625 
L 45.40625 75.984375 
L 54.390625 75.984375 
L 54.390625 0 
L 45.40625 0 
L 45.40625 8.203125 
Q 42.578125 3.328125 38.25 0.953125 
Q 33.9375 -1.421875 27.875 -1.421875 
Q 17.96875 -1.421875 11.734375 6.484375 
Q 5.515625 14.40625 5.515625 27.296875 
Q 5.515625 40.1875 11.734375 48.09375 
Q 17.96875 56 27.875 56 
Q 33.9375 56 38.25 53.625 
Q 42.578125 51.265625 45.40625 46.390625 
M 14.796875 27.296875 
Q 14.796875 17.390625 18.875 11.75 
Q 22.953125 6.109375 30.078125 6.109375 
Q 37.203125 6.109375 41.296875 11.75 
Q 45.40625 17.390625 45.40625 27.296875 
Q 45.40625 37.203125 41.296875 42.84375 
Q 37.203125 48.484375 30.078125 48.484375 
Q 22.953125 48.484375 18.875 42.84375 
Q 14.796875 37.203125 14.796875 27.296875 
" id="BitstreamVeraSans-Roman-64"/>
      <path d="M 53.515625 70.515625 
L 53.515625 60.890625 
Q 47.90625 63.578125 42.921875 64.890625 
Q 37.9375 66.21875 33.296875 66.21875 
Q 25.25 66.21875 20.875 63.09375 
Q 16.5 59.96875 16.5 54.203125 
Q 16.5 49.359375 19.40625 46.890625 
Q 22.3125 44.4375 30.421875 42.921875 
L 36.375 41.703125 
Q 47.40625 39.59375 52.65625 34.296875 
Q 57.90625 29 57.90625 20.125 
Q 57.90625 9.515625 50.796875 4.046875 
Q 43.703125 -1.421875 29.984375 -1.421875 
Q 24.8125 -1.421875 18.96875 -0.25 
Q 13.140625 0.921875 6.890625 3.21875 
L 6.890625 13.375 
Q 12.890625 10.015625 18.65625 8.296875 
Q 24.421875 6.59375 29.984375 6.59375 
Q 38.421875 6.59375 43.015625 9.90625 
Q 47.609375 13.234375 47.609375 19.390625 
Q 47.609375 24.75 44.3125 27.78125 
Q 41.015625 30.8125 33.5 32.328125 
L 27.484375 33.5 
Q 16.453125 35.6875 11.515625 40.375 
Q 6.59375 45.0625 6.59375 53.421875 
Q 6.59375 63.09375 13.40625 68.65625 
Q 20.21875 74.21875 32.171875 74.21875 
Q 37.3125 74.21875 42.625 73.28125 
Q 47.953125 72.359375 53.515625 70.515625 
" id="BitstreamVeraSans-Roman-53"/>
      <path d="M 54.890625 33.015625 
L 54.890625 0 
L 45.90625 0 
L 45.90625 32.71875 
Q 45.90625 40.484375 42.875 44.328125 
Q 39.84375 48.1875 33.796875 48.1875 
Q 26.515625 48.1875 22.3125 43.546875 
Q 18.109375 38.921875 18.109375 30.90625 
L 18.109375 0 
L 9.078125 0 
L 9.078125 75.984375 
L 18.109375 75.984375 
L 18.109375 46.1875 
Q 21.34375 51.125 25.703125 53.5625 
Q 30.078125 56 35.796875 56 
Q 45.21875 56 50.046875 50.171875 
Q 54.890625 44.34375 54.890625 33.015625 
" id="BitstreamVeraSans-Roman-68"/>
      <path d="M 18.109375 8.203125 
L 18.109375 -20.796875 
L 9.078125 -20.796875 
L 9.078125 54.6875 
L 18.109375 54.6875 
L 18.109375 46.390625 
Q 20.953125 51.265625 25.265625 53.625 
Q 29.59375 56 35.59375 56 
Q 45.5625 56 51.78125 48.09375 
Q 58.015625 40.1875 58.015625 27.296875 
Q 58.015625 14.40625 51.78125 6.484375 
Q 45.5625 -1.421875 35.59375 -1.421875 
Q 29.59375 -1.421875 25.265625 0.953125 
Q 20.953125 3.328125 18.109375 8.203125 
M 48.6875 27.296875 
Q 48.6875 37.203125 44.609375 42.84375 
Q 40.53125 48.484375 33.40625 48.484375 
Q 26.265625 48.484375 22.1875 42.84375 
Q 18.109375 37.203125 18.109375 27.296875 
Q 18.109375 17.390625 22.1875 11.75 
Q 26.265625 6.109375 33.40625 6.109375 
Q 40.53125 6.109375 44.609375 11.75 
Q 48.6875 17.390625 48.6875 27.296875 
" id="BitstreamVeraSans-Roman-70"/>
     </defs>
     <g transform="translate(35.17875 254.855625)rotate(-90.0)scale(0.12 -0.12)">
      <use xlink:href="#BitstreamVeraSans-Roman-53"/>
      <use x="63.4765625" xlink:href="#BitstreamVeraSans-Roman-70"/>
      <use x="126.953125" xlink:href="#BitstreamVeraSans-Roman-65"/>
      <use x="188.4765625" xlink:href="#BitstreamVeraSans-Roman-65"/>
      <use x="250.0" xlink:href="#BitstreamVeraSans-Roman-64"/>
      <use x="313.4765625" xlink:href="#BitstreamVeraSans-Roman-20"/>
      <use x="345.263671875" xlink:href="#BitstreamVeraSans-Roman-5b"/>
      <use x="384.27734375" xlink:href="#BitstreamVeraSans-Roman-6d"/>
      <use x="481.689453125" xlink:href="#BitstreamVeraSans-Roman-70"/>
      <use x="545.166015625" xlink:href="#BitstreamVeraSans-Roman-68"/>
      <use x="608.544921875" xlink:href="#BitstreamVeraSans-Roman-5d"/>
     </g>
    </g>
   </g>
   <g id="legend_1">
    <g id="patch_7">
     <path d="M 317.4885 160.4025 
L 511.2 160.4025 
L 511.2 50.4 
L 317.4885 50.4 
z
" style="fill:#ffffff;stroke:#000000;stroke-linejoin:miter;"/>
    </g>
    <g id="line2d_54">
     <path d="M 327.5685 62.06175 
L 347.7285 62.06175 
" style="fill:none;stroke:#ff0000;stroke-linecap:square;"/>
    </g>
    <g id="line2d_55"/>
    <g id="text_19">
     <!-- speed -->
     <g transform="translate(363.5685 67.10175)scale(0.144 -0.144)">
      <use xlink:href="#BitstreamVeraSans-Roman-73"/>
      <use x="52.099609375" xlink:href="#BitstreamVeraSans-Roman-70"/>
      <use x="115.576171875" xlink:href="#BitstreamVeraSans-Roman-65"/>
      <use x="177.099609375" xlink:href="#BitstreamVeraSans-Roman-65"/>
      <use x="238.623046875" xlink:href="#BitstreamVeraSans-Roman-64"/>
     </g>
    </g>
    <g id="line2d_56">
     <path d="M 327.5685 83.19825 
L 347.7285 83.19825 
" style="fill:none;stroke:#bfbf00;stroke-dasharray:6.000000,6.000000;stroke-dashoffset:0.0;"/>
    </g>
    <g id="line2d_57"/>
    <g id="text_20">
     <!-- pid speed -->
     <g transform="translate(363.5685 88.23825)scale(0.144 -0.144)">
      <use xlink:href="#BitstreamVeraSans-Roman-70"/>
      <use x="63.4765625" xlink:href="#BitstreamVeraSans-Roman-69"/>
      <use x="91.259765625" xlink:href="#BitstreamVeraSans-Roman-64"/>
      <use x="154.736328125" xlink:href="#BitstreamVeraSans-Roman-20"/>
      <use x="186.5234375" xlink:href="#BitstreamVeraSans-Roman-73"/>
      <use x="238.623046875" xlink:href="#BitstreamVeraSans-Roman-70"/>
      <use x="302.099609375" xlink:href="#BitstreamVeraSans-Roman-65"/>
      <use x="363.623046875" xlink:href="#BitstreamVeraSans-Roman-65"/>
      <use x="425.146484375" xlink:href="#BitstreamVeraSans-Roman-64"/>
     </g>
    </g>
    <g id="line2d_58">
     <path d="M 327.5685 104.33475 
L 347.7285 104.33475 
" style="fill:none;stroke:#0000ff;stroke-linecap:square;"/>
    </g>
    <g id="line2d_59"/>
    <g id="text_21">
     <!-- Target (lead) speed -->
     <defs>
      <path d="M 8.015625 75.875 
L 15.828125 75.875 
Q 23.140625 64.359375 26.78125 53.3125 
Q 30.421875 42.28125 30.421875 31.390625 
Q 30.421875 20.453125 26.78125 9.375 
Q 23.140625 -1.703125 15.828125 -13.1875 
L 8.015625 -13.1875 
Q 14.5 -2 17.703125 9.0625 
Q 20.90625 20.125 20.90625 31.390625 
Q 20.90625 42.671875 17.703125 53.65625 
Q 14.5 64.65625 8.015625 75.875 
" id="BitstreamVeraSans-Roman-29"/>
      <path d="M 34.28125 27.484375 
Q 23.390625 27.484375 19.1875 25 
Q 14.984375 22.515625 14.984375 16.5 
Q 14.984375 11.71875 18.140625 8.90625 
Q 21.296875 6.109375 26.703125 6.109375 
Q 34.1875 6.109375 38.703125 11.40625 
Q 43.21875 16.703125 43.21875 25.484375 
L 43.21875 27.484375 
z
M 52.203125 31.203125 
L 52.203125 0 
L 43.21875 0 
L 43.21875 8.296875 
Q 40.140625 3.328125 35.546875 0.953125 
Q 30.953125 -1.421875 24.3125 -1.421875 
Q 15.921875 -1.421875 10.953125 3.296875 
Q 6 8.015625 6 15.921875 
Q 6 25.140625 12.171875 29.828125 
Q 18.359375 34.515625 30.609375 34.515625 
L 43.21875 34.515625 
L 43.21875 35.40625 
Q 43.21875 41.609375 39.140625 45 
Q 35.0625 48.390625 27.6875 48.390625 
Q 23 48.390625 18.546875 47.265625 
Q 14.109375 46.140625 10.015625 43.890625 
L 10.015625 52.203125 
Q 14.9375 54.109375 19.578125 55.046875 
Q 24.21875 56 28.609375 56 
Q 40.484375 56 46.34375 49.84375 
Q 52.203125 43.703125 52.203125 31.203125 
" id="BitstreamVeraSans-Roman-61"/>
      <path d="M 9.421875 75.984375 
L 18.40625 75.984375 
L 18.40625 0 
L 9.421875 0 
z
" id="BitstreamVeraSans-Roman-6c"/>
      <path d="M 31 75.875 
Q 24.46875 64.65625 21.28125 53.65625 
Q 18.109375 42.671875 18.109375 31.390625 
Q 18.109375 20.125 21.3125 9.0625 
Q 24.515625 -2 31 -13.1875 
L 23.1875 -13.1875 
Q 15.875 -1.703125 12.234375 9.375 
Q 8.59375 20.453125 8.59375 31.390625 
Q 8.59375 42.28125 12.203125 53.3125 
Q 15.828125 64.359375 23.1875 75.875 
z
" id="BitstreamVeraSans-Roman-28"/>
      <path d="M 45.40625 27.984375 
Q 45.40625 37.75 41.375 43.109375 
Q 37.359375 48.484375 30.078125 48.484375 
Q 22.859375 48.484375 18.828125 43.109375 
Q 14.796875 37.75 14.796875 27.984375 
Q 14.796875 18.265625 18.828125 12.890625 
Q 22.859375 7.515625 30.078125 7.515625 
Q 37.359375 7.515625 41.375 12.890625 
Q 45.40625 18.265625 45.40625 27.984375 
M 54.390625 6.78125 
Q 54.390625 -7.171875 48.1875 -13.984375 
Q 42 -20.796875 29.203125 -20.796875 
Q 24.46875 -20.796875 20.265625 -20.09375 
Q 16.0625 -19.390625 12.109375 -17.921875 
L 12.109375 -9.1875 
Q 16.0625 -11.328125 19.921875 -12.34375 
Q 23.78125 -13.375 27.78125 -13.375 
Q 36.625 -13.375 41.015625 -8.765625 
Q 45.40625 -4.15625 45.40625 5.171875 
L 45.40625 9.625 
Q 42.625 4.78125 38.28125 2.390625 
Q 33.9375 0 27.875 0 
Q 17.828125 0 11.671875 7.65625 
Q 5.515625 15.328125 5.515625 27.984375 
Q 5.515625 40.671875 11.671875 48.328125 
Q 17.828125 56 27.875 56 
Q 33.9375 56 38.28125 53.609375 
Q 42.625 51.21875 45.40625 46.390625 
L 45.40625 54.6875 
L 54.390625 54.6875 
z
" id="BitstreamVeraSans-Roman-67"/>
      <path d="M 41.109375 46.296875 
Q 39.59375 47.171875 37.8125 47.578125 
Q 36.03125 48 33.890625 48 
Q 26.265625 48 22.1875 43.046875 
Q 18.109375 38.09375 18.109375 28.8125 
L 18.109375 0 
L 9.078125 0 
L 9.078125 54.6875 
L 18.109375 54.6875 
L 18.109375 46.1875 
Q 20.953125 51.171875 25.484375 53.578125 
Q 30.03125 56 36.53125 56 
Q 37.453125 56 38.578125 55.875 
Q 39.703125 55.765625 41.0625 55.515625 
z
" id="BitstreamVeraSans-Roman-72"/>
      <path d="M 18.3125 70.21875 
L 18.3125 54.6875 
L 36.8125 54.6875 
L 36.8125 47.703125 
L 18.3125 47.703125 
L 18.3125 18.015625 
Q 18.3125 11.328125 20.140625 9.421875 
Q 21.96875 7.515625 27.59375 7.515625 
L 36.8125 7.515625 
L 36.8125 0 
L 27.59375 0 
Q 17.1875 0 13.234375 3.875 
Q 9.28125 7.765625 9.28125 18.015625 
L 9.28125 47.703125 
L 2.6875 47.703125 
L 2.6875 54.6875 
L 9.28125 54.6875 
L 9.28125 70.21875 
z
" id="BitstreamVeraSans-Roman-74"/>
     </defs>
     <g transform="translate(363.5685 109.37475)scale(0.144 -0.144)">
      <use xlink:href="#BitstreamVeraSans-Roman-54"/>
      <use x="60.833984375" xlink:href="#BitstreamVeraSans-Roman-61"/>
      <use x="122.11328125" xlink:href="#BitstreamVeraSans-Roman-72"/>
      <use x="163.2109375" xlink:href="#BitstreamVeraSans-Roman-67"/>
      <use x="226.6875" xlink:href="#BitstreamVeraSans-Roman-65"/>
      <use x="288.2109375" xlink:href="#BitstreamVeraSans-Roman-74"/>
      <use x="327.419921875" xlink:href="#BitstreamVeraSans-Roman-20"/>
      <use x="359.20703125" xlink:href="#BitstreamVeraSans-Roman-28"/>
      <use x="398.220703125" xlink:href="#BitstreamVeraSans-Roman-6c"/>
      <use x="426.00390625" xlink:href="#BitstreamVeraSans-Roman-65"/>
      <use x="487.52734375" xlink:href="#BitstreamVeraSans-Roman-61"/>
      <use x="548.806640625" xlink:href="#BitstreamVeraSans-Roman-64"/>
      <use x="612.283203125" xlink:href="#BitstreamVeraSans-Roman-29"/>
      <use x="651.296875" xlink:href="#BitstreamVeraSans-Roman-20"/>
      <use x="683.083984375" xlink:href="#BitstreamVeraSans-Roman-73"/>
      <use x="735.18359375" xlink:href="#BitstreamVeraSans-Roman-70"/>
      <use x="798.66015625" xlink:href="#BitstreamVeraSans-Roman-65"/>
      <use x="860.18359375" xlink:href="#BitstreamVeraSans-Roman-65"/>
      <use x="921.70703125" xlink:href="#BitstreamVeraSans-Roman-64"/>
     </g>
    </g>
    <g id="line2d_60">
     <path d="M 327.5685 125.47125 
L 347.7285 125.47125 
" style="fill:none;stroke:#000000;stroke-linecap:square;"/>
    </g>
    <g id="line2d_61"/>
    <g id="text_22">
     <!-- Cruise speed -->
     <defs>
      <path d="M 8.5 21.578125 
L 8.5 54.6875 
L 17.484375 54.6875 
L 17.484375 21.921875 
Q 17.484375 14.15625 20.5 10.265625 
Q 23.53125 6.390625 29.59375 6.390625 
Q 36.859375 6.390625 41.078125 11.03125 
Q 45.3125 15.671875 45.3125 23.6875 
L 45.3125 54.6875 
L 54.296875 54.6875 
L 54.296875 0 
L 45.3125 0 
L 45.3125 8.40625 
Q 42.046875 3.421875 37.71875 1 
Q 33.40625 -1.421875 27.6875 -1.421875 
Q 18.265625 -1.421875 13.375 4.4375 
Q 8.5 10.296875 8.5 21.578125 
" id="BitstreamVeraSans-Roman-75"/>
      <path d="M 64.40625 67.28125 
L 64.40625 56.890625 
Q 59.421875 61.53125 53.78125 63.8125 
Q 48.140625 66.109375 41.796875 66.109375 
Q 29.296875 66.109375 22.65625 58.46875 
Q 16.015625 50.828125 16.015625 36.375 
Q 16.015625 21.96875 22.65625 14.328125 
Q 29.296875 6.6875 41.796875 6.6875 
Q 48.140625 6.6875 53.78125 8.984375 
Q 59.421875 11.28125 64.40625 15.921875 
L 64.40625 5.609375 
Q 59.234375 2.09375 53.4375 0.328125 
Q 47.65625 -1.421875 41.21875 -1.421875 
Q 24.65625 -1.421875 15.125 8.703125 
Q 5.609375 18.84375 5.609375 36.375 
Q 5.609375 53.953125 15.125 64.078125 
Q 24.65625 74.21875 41.21875 74.21875 
Q 47.75 74.21875 53.53125 72.484375 
Q 59.328125 70.75 64.40625 67.28125 
" id="BitstreamVeraSans-Roman-43"/>
     </defs>
     <g transform="translate(363.5685 130.51125)scale(0.144 -0.144)">
      <use xlink:href="#BitstreamVeraSans-Roman-43"/>
      <use x="69.82421875" xlink:href="#BitstreamVeraSans-Roman-72"/>
      <use x="110.9375" xlink:href="#BitstreamVeraSans-Roman-75"/>
      <use x="174.31640625" xlink:href="#BitstreamVeraSans-Roman-69"/>
      <use x="202.099609375" xlink:href="#BitstreamVeraSans-Roman-73"/>
      <use x="254.19921875" xlink:href="#BitstreamVeraSans-Roman-65"/>
      <use x="315.72265625" xlink:href="#BitstreamVeraSans-Roman-20"/>
      <use x="347.509765625" xlink:href="#BitstreamVeraSans-Roman-73"/>
      <use x="399.609375" xlink:href="#BitstreamVeraSans-Roman-70"/>
      <use x="463.0859375" xlink:href="#BitstreamVeraSans-Roman-65"/>
      <use x="524.609375" xlink:href="#BitstreamVeraSans-Roman-65"/>
      <use x="586.1328125" xlink:href="#BitstreamVeraSans-Roman-64"/>
     </g>
    </g>
    <g id="line2d_62">
     <path d="M 327.5685 146.60775 
L 347.7285 146.60775 
" style="fill:none;stroke:#bf00bf;stroke-linecap:square;"/>
    </g>
    <g id="line2d_63"/>
    <g id="text_23">
     <!-- Lead speed -->
     <defs>
      <path d="M 9.8125 72.90625 
L 19.671875 72.90625 
L 19.671875 8.296875 
L 55.171875 8.296875 
L 55.171875 0 
L 9.8125 0 
z
" id="BitstreamVeraSans-Roman-4c"/>
     </defs>
     <g transform="translate(363.5685 151.64775)scale(0.144 -0.144)">
      <use xlink:href="#BitstreamVeraSans-Roman-4c"/>
      <use x="55.697265625" xlink:href="#BitstreamVeraSans-Roman-65"/>
      <use x="117.220703125" xlink:href="#BitstreamVeraSans-Roman-61"/>
      <use x="178.5" xlink:href="#BitstreamVeraSans-Roman-64"/>
      <use x="241.9765625" xlink:href="#BitstreamVeraSans-Roman-20"/>
      <use x="273.763671875" xlink:href="#BitstreamVeraSans-Roman-73"/>
      <use x="325.86328125" xlink:href="#BitstreamVeraSans-Roman-70"/>
      <use x="389.33984375" xlink:href="#BitstreamVeraSans-Roman-65"/>
      <use x="450.86328125" xlink:href="#BitstreamVeraSans-Roman-65"/>
      <use x="512.38671875" xlink:href="#BitstreamVeraSans-Roman-64"/>
     </g>
    </g>
   </g>
  </g>
 </g>
 <defs>
  <clipPath id="p4c029ab072">
   <rect height="345.6" width="446.4" x="72.0" y="43.2"/>
  </clipPath>
 </defs>
</svg>
