<?xml version="1.0" encoding="utf-8" standalone="no"?>
<!DOCTYPE svg PUBLIC "-//W3C//DTD SVG 1.1//EN"
  "http://www.w3.org/Graphics/SVG/1.1/DTD/svg11.dtd">
<!-- Created with matplotlib (http://matplotlib.org/) -->
<svg height="432pt" version="1.1" viewBox="0 0 576 432" width="576pt" xmlns="http://www.w3.org/2000/svg" xmlns:xlink="http://www.w3.org/1999/xlink">
 <defs>
  <style type="text/css">
*{stroke-linecap:butt;stroke-linejoin:round;stroke-miterlimit:100000;}
  </style>
 </defs>
 <g id="figure_1">
  <g id="patch_1">
   <path d="M 0 432 
L 576 432 
L 576 0 
L 0 0 
z
" style="fill:#ffffff;"/>
  </g>
  <g id="axes_1">
   <g id="patch_2">
    <path d="M 72 388.8 
L 518.4 388.8 
L 518.4 43.2 
L 72 43.2 
z
" style="fill:#ffffff;"/>
   </g>
   <g id="line2d_1">
    <path clip-path="url(#pcbb42088a9)" d="M 72.1488 173.68089 
L 94.6176 173.592468 
L 94.7664 178.091885 
L 94.9152 178.091132 
L 95.2128 187.089451 
L 95.3616 187.088355 
L 95.5104 191.587257 
L 95.6592 191.58599 
L 95.808 196.084721 
L 95.9568 196.083282 
L 96.1056 200.581842 
L 96.2544 200.580232 
L 96.4032 205.07862 
L 96.552 205.07684 
L 96.7008 209.575058 
L 96.8496 209.573107 
L 97.1472 219.468995 
L 97.296 219.466669 
L 97.4448 223.964341 
L 97.5936 223.961845 
L 97.7424 228.459347 
L 97.8912 228.456682 
L 98.04 232.954015 
L 98.1888 232.95118 
L 98.4864 241.945339 
L 98.6352 241.942167 
L 99.3792 265.324505 
L 99.528 265.320456 
L 99.8256 271.612191 
L 99.9744 271.607911 
L 100.7184 279.685898 
L 100.8672 279.681328 
L 101.016 281.476761 
L 101.1648 281.472129 
L 101.3136 282.3675 
L 101.6112 286.85808 
L 101.76 286.853258 
L 101.9088 287.748439 
L 102.0576 287.74359 
L 102.2064 290.438742 
L 102.3552 290.433799 
L 102.504 291.328858 
L 102.6528 291.323888 
L 102.8016 293.11892 
L 102.9504 293.113889 
L 103.0992 294.008862 
L 103.248 294.003805 
L 103.3968 295.79875 
L 103.5456 295.793634 
L 103.6944 296.68852 
L 103.8432 296.683377 
L 104.1408 300.273035 
L 104.2896 300.26777 
L 104.4384 302.062508 
L 104.5872 302.057184 
L 104.736 302.951864 
L 104.8848 304.746515 
L 105.0336 304.741104 
L 105.3312 308.330226 
L 105.48 308.324694 
L 105.7776 311.013578 
L 105.9264 311.00796 
L 106.224 315.496638 
L 106.3728 315.49087 
L 106.8192 319.973393 
L 107.1168 319.96157 
L 107.2656 321.755666 
L 107.4144 321.749702 
L 107.5632 322.643743 
L 107.712 322.637756 
L 107.8608 323.531775 
L 108.0096 323.525766 
L 108.1584 324.419763 
L 108.3072 324.413732 
L 108.456 326.207706 
L 109.0512 326.183399 
L 109.2 327.077335 
L 109.3488 327.071245 
L 109.4976 327.96516 
L 109.6464 327.959049 
L 109.7952 328.852943 
L 110.3904 328.828447 
L 110.5392 329.722337 
L 110.688 329.716201 
L 110.8368 331.510069 
L 110.9856 331.50388 
L 111.1344 332.397696 
L 111.2832 332.391486 
L 111.432 333.285282 
L 111.5808 335.079052 
L 111.7296 335.072764 
L 111.8784 335.966481 
L 112.0272 335.960174 
L 112.3248 339.547511 
L 112.4736 339.541094 
L 112.7712 341.328247 
L 112.92 341.321786 
L 113.0688 343.115331 
L 113.2176 343.108819 
L 113.3664 344.002314 
L 113.5152 343.995784 
L 113.664 344.889261 
L 113.8128 344.882713 
L 113.9616 345.776171 
L 114.1104 345.769605 
L 114.2592 346.663045 
L 114.8544 346.636751 
L 115.0032 347.530194 
L 115.152 347.523613 
L 115.3008 348.417039 
L 115.4496 348.410441 
L 115.5984 349.303849 
L 116.4912 349.264263 
L 116.64 350.15769 
L 116.7888 350.151093 
L 116.9376 351.044503 
L 117.0864 352.837889 
L 117.2352 352.831221 
L 117.384 353.72456 
L 117.5328 353.717876 
L 117.6816 354.611199 
L 117.8304 356.404498 
L 117.9792 356.397744 
L 118.2768 358.184227 
L 118.4256 359.977434 
L 118.5744 359.970588 
L 118.7232 361.76375 
L 118.872 361.756859 
L 119.0208 362.649975 
L 119.9136 362.608664 
L 120.0624 363.501807 
L 120.5088 363.481194 
L 120.6576 364.374339 
L 120.8064 364.367462 
L 120.9552 365.260593 
L 121.4016 365.239947 
L 121.5504 366.133082 
L 121.6992 366.126195 
L 121.848 367.019315 
L 122.2944 366.99864 
L 122.4432 367.891765 
L 123.6336 367.836833 
L 123.7824 368.730004 
L 123.9312 368.723155 
L 124.08 369.616313 
L 124.5264 369.595755 
L 124.6752 370.488919 
L 126.1632 370.420746 
L 126.312 371.313976 
L 129.4368 371.173224 
L 129.5856 372.066617 
L 132.264 371.948693 
L 132.4128 372.842224 
L 132.8592 372.822791 
L 133.008 373.71633 
L 135.984 373.588452 
L 136.1328 374.48215 
L 140.2992 374.308622 
L 140.448 373.402555 
L 141.3408 373.366484 
L 141.4896 371.560504 
L 141.7872 371.548669 
L 141.936 370.642765 
L 142.9776 370.601849 
L 143.1264 369.696038 
L 145.3584 369.610271 
L 145.5072 367.804622 
L 146.1024 367.7823 
L 146.2512 365.976742 
L 146.8464 365.954777 
L 146.9952 364.149308 
L 147.5904 364.127696 
L 147.7392 362.322314 
L 148.0368 362.311667 
L 148.1856 360.506356 
L 148.7808 360.485375 
L 148.9296 358.680151 
L 149.5248 358.65951 
L 149.6736 355.954371 
L 150.2688 355.934159 
L 150.4176 355.029126 
L 150.5664 355.024122 
L 150.7152 354.119126 
L 151.7568 354.084515 
L 151.9056 353.1796 
L 152.0544 353.174715 
L 152.2032 352.269837 
L 152.352 352.264989 
L 152.5008 351.360148 
L 152.9472 351.345735 
L 153.096 350.440945 
L 153.2448 350.436184 
L 153.3936 349.531431 
L 153.5424 349.526707 
L 153.6912 348.621989 
L 154.1376 348.607945 
L 154.2864 347.703278 
L 154.7328 347.689382 
L 155.0304 345.880175 
L 155.328 345.87106 
L 155.4768 344.966513 
L 155.6256 344.961994 
L 155.7744 344.057482 
L 156.2208 344.04405 
L 156.3696 343.139587 
L 156.5184 343.13515 
L 156.6672 342.230721 
L 157.1136 342.217536 
L 157.2624 341.313155 
L 157.7088 341.300111 
L 157.8576 340.395776 
L 158.304 340.382873 
L 158.4528 339.478585 
L 158.6016 339.474323 
L 158.7504 338.570069 
L 158.8992 338.565842 
L 159.048 337.661621 
L 159.4944 337.649057 
L 159.6432 336.744882 
L 160.0896 336.732454 
L 160.2384 335.828324 
L 160.6848 335.816032 
L 160.8336 334.911947 
L 160.9824 334.907888 
L 161.1312 334.003835 
L 161.5776 333.991774 
L 161.7264 333.087766 
L 161.8752 333.083783 
L 162.024 332.179807 
L 162.4704 332.167974 
L 162.6192 331.264041 
L 162.768 331.260134 
L 162.9168 330.356233 
L 163.3632 330.344625 
L 163.512 329.440767 
L 163.6608 329.436934 
L 163.8096 328.533108 
L 164.256 328.52172 
L 164.4048 327.617936 
L 164.8512 327.606674 
L 165 326.702932 
L 165.4464 326.691795 
L 165.5952 325.788094 
L 166.0416 325.777082 
L 166.1904 324.873422 
L 166.3392 324.869787 
L 166.488 323.966157 
L 166.9344 323.955357 
L 167.0832 323.051768 
L 167.5296 323.04109 
L 167.6784 322.137541 
L 167.8272 322.134016 
L 167.976 321.230497 
L 168.72 321.213071 
L 168.8688 320.309602 
L 169.3152 320.299279 
L 169.464 319.395849 
L 169.6128 319.392442 
L 169.7616 318.489041 
L 170.5056 318.4722 
L 170.6544 317.568847 
L 170.8032 317.565517 
L 170.952 316.662192 
L 171.3984 316.652302 
L 171.5472 315.749016 
L 172.2912 315.732744 
L 172.44 314.829504 
L 172.5888 314.826287 
L 172.7376 313.923076 
L 173.184 313.913522 
L 173.3328 313.010347 
L 174.0768 312.99463 
L 174.2256 312.091501 
L 174.3744 312.088394 
L 174.5232 311.185292 
L 175.2672 311.169937 
L 175.416 310.26688 
L 175.8624 310.257787 
L 176.0112 309.354766 
L 176.4576 309.345779 
L 176.6064 308.442793 
L 177.0528 308.433912 
L 177.2016 307.530961 
L 177.648 307.522184 
L 177.7968 306.619267 
L 178.2432 306.610593 
L 178.392 305.707711 
L 178.8384 305.699139 
L 178.9872 304.796291 
L 180.3264 304.770992 
L 180.4752 303.868202 
L 180.9216 303.859905 
L 181.0704 302.957148 
L 181.5168 302.948951 
L 181.6656 302.046227 
L 182.112 302.038128 
L 182.2608 301.135437 
L 183.0048 301.122121 
L 183.1536 300.219469 
L 183.6 300.211588 
L 183.7488 299.308968 
L 183.8976 299.306369 
L 184.0464 298.403774 
L 184.4928 298.39606 
L 184.6416 297.493497 
L 185.3856 297.480814 
L 185.5344 296.578289 
L 186.2784 296.565799 
L 186.4272 295.663312 
L 187.4688 295.646115 
L 187.6176 294.743673 
L 188.3616 294.731594 
L 188.5104 293.829189 
L 189.2544 293.817294 
L 189.4032 292.914926 
L 190.1472 292.903215 
L 190.296 292.000883 
L 190.4448 291.99857 
L 190.5936 291.096261 
L 191.3376 291.084841 
L 191.4864 290.182567 
L 192.528 290.166849 
L 192.6768 289.264617 
L 193.4208 289.253581 
L 193.5696 288.351384 
L 194.3136 288.340521 
L 194.4624 287.438358 
L 195.2064 287.427665 
L 195.3552 286.525536 
L 196.6944 286.506648 
L 196.8432 285.604565 
L 197.2896 285.598378 
L 197.4384 284.696322 
L 198.9264 284.676072 
L 199.0752 282.874065 
L 200.2656 282.858333 
L 200.4144 281.95638 
L 201.1584 281.946727 
L 201.3072 281.044806 
L 202.944 281.024009 
L 203.0928 280.122136 
L 203.8368 280.112879 
L 203.9856 279.211036 
L 205.3248 279.194697 
L 205.4736 278.292896 
L 206.5152 278.280455 
L 206.664 277.378689 
L 208.0032 277.363031 
L 208.152 276.461305 
L 208.896 276.452778 
L 209.0448 275.551081 
L 211.2768 275.526126 
L 211.4256 274.624484 
L 213.0624 274.60672 
L 213.2112 273.70512 
L 213.9552 273.697222 
L 214.104 272.795651 
L 216.336 272.772551 
L 216.4848 271.871031 
L 218.7168 271.8487 
L 218.8656 270.947231 
L 219.0144 270.945776 
L 219.1632 270.044324 
L 221.6928 270.020185 
L 221.8416 269.118786 
L 223.6272 269.102317 
L 223.776 268.200961 
L 226.1568 268.17973 
L 226.3056 267.278423 
L 228.6864 267.257978 
L 228.8352 266.356719 
L 231.5136 266.334625 
L 231.6624 265.433419 
L 234.3408 265.412252 
L 234.4896 264.511098 
L 236.5728 264.495281 
L 236.7216 263.594168 
L 239.4 263.574647 
L 239.5488 262.673583 
L 243.2688 262.64786 
L 243.4176 261.746858 
L 246.6912 261.725508 
L 246.84 260.824562 
L 254.28 260.780129 
L 254.4288 259.879291 
L 261.72 259.840951 
L 261.8688 258.940218 
L 264.1008 258.929533 
L 264.2496 258.028837 
L 266.928 258.016721 
L 267.0768 257.116066 
L 269.6064 257.105306 
L 269.7552 256.20469 
L 271.392 256.19809 
L 271.5408 255.297502 
L 273.4752 255.290073 
L 273.624 254.389514 
L 274.9632 254.384607 
L 275.112 253.484071 
L 290.1408 253.439136 
L 290.2896 254.338777 
L 292.5216 254.333558 
L 292.6704 255.233224 
L 294.456 255.229314 
L 294.6048 255.038381 
L 296.688 246.395551 
L 296.8368 244.008653 
L 297.2832 242.30712 
L 297.5808 240.297605 
L 298.176 238.134491 
L 298.3248 235.802703 
L 299.0688 233.255735 
L 299.3664 231.366581 
L 300.2592 228.494997 
L 300.7056 225.313843 
L 301.152 223.983956 
L 301.4496 222.218089 
L 303.5328 216.511069 
L 303.8304 214.844566 
L 304.4256 213.353846 
L 304.7232 211.729321 
L 306.2112 208.277688 
L 306.5088 206.720654 
L 307.9968 203.593248 
L 308.1456 202.391866 
L 309.7824 199.270285 
L 309.9312 198.097736 
L 312.312 194.067476 
L 313.3536 192.435471 
L 313.5024 191.308506 
L 316.032 187.77042 
L 318.5616 184.612765 
L 321.0912 181.794627 
L 323.7696 179.140267 
L 324.3648 178.59258 
L 324.5136 179.357933 
L 326.1504 177.870926 
L 326.2992 178.641092 
L 328.8288 176.465035 
L 328.9776 177.244576 
L 330.3168 176.143374 
L 330.4656 176.925061 
L 331.8048 175.842535 
L 331.9536 176.626228 
L 334.7808 174.450611 
L 335.0784 174.237278 
L 335.2272 175.931676 
L 338.0544 173.838986 
L 338.352 173.633784 
L 338.5008 174.432207 
L 339.9888 173.394723 
L 340.1376 174.194741 
L 341.7744 173.074129 
L 341.9232 173.876285 
L 343.7088 172.682402 
L 343.8576 173.487171 
L 346.8336 171.597726 
L 347.5776 171.163565 
L 347.7264 171.978462 
L 349.8096 170.764451 
L 349.9584 171.582009 
L 351.8928 170.484021 
L 352.0416 171.30345 
L 355.3152 169.537496 
L 356.208 169.099301 
L 356.3568 169.927963 
L 356.5056 169.8511 
L 356.6544 170.674749 
L 359.928 168.994855 
L 361.416 168.30927 
L 361.5648 169.143201 
L 361.7136 169.071571 
L 361.8624 169.900419 
L 365.2848 168.260329 
L 366.7728 167.622282 
L 366.9216 169.360793 
L 370.344 167.797674 
L 371.6832 167.248566 
L 371.832 168.989569 
L 371.9808 168.918965 
L 372.1296 169.748832 
L 372.2784 169.673166 
L 372.4272 170.498003 
L 372.576 170.417343 
L 372.7248 171.237219 
L 372.8736 171.151629 
L 373.0224 171.96661 
L 373.1712 171.876158 
L 373.32 172.686308 
L 373.4688 172.591057 
L 373.6176 173.396441 
L 373.7664 173.296455 
L 373.9152 174.097136 
L 374.064 173.992479 
L 374.2128 174.78852 
L 374.3616 174.679253 
L 374.6592 176.256899 
L 374.808 176.137843 
L 374.9568 176.919579 
L 375.1056 176.796105 
L 375.2544 177.573453 
L 375.4032 177.445619 
L 375.552 178.218637 
L 375.7008 178.086501 
L 375.8496 178.855247 
L 375.9984 178.718867 
L 376.1472 179.483396 
L 376.296 179.342828 
L 376.4448 180.103197 
L 376.5936 179.958498 
L 376.7424 180.714762 
L 376.8912 180.565985 
L 377.1888 182.065399 
L 377.3376 181.907617 
L 377.4864 182.650887 
L 377.6352 182.489202 
L 377.784 183.228595 
L 377.9328 183.063058 
L 378.0816 183.798625 
L 378.2304 183.629288 
L 378.3792 184.36108 
L 378.528 184.187994 
L 378.6768 184.916061 
L 378.8256 184.739275 
L 378.9744 185.463667 
L 379.1232 185.28323 
L 379.272 186.003995 
L 379.4208 185.819956 
L 379.5696 186.537143 
L 379.7184 186.34955 
L 379.8672 187.063207 
L 380.016 186.872106 
L 380.1648 187.58228 
L 380.3136 187.387719 
L 380.4624 188.094455 
L 380.6112 187.896479 
L 380.76 188.599824 
L 380.9088 188.398479 
L 381.0576 189.098477 
L 381.2064 188.893808 
L 381.3552 189.590504 
L 381.504 189.382556 
L 381.6528 190.075993 
L 381.8016 189.864808 
L 381.9504 191.455031 
L 382.0992 191.234652 
L 382.248 191.915742 
L 382.3968 191.692293 
L 382.5456 192.370332 
L 382.6944 192.143852 
L 382.8432 192.818882 
L 382.992 192.589412 
L 383.1408 193.261471 
L 383.2896 193.029051 
L 383.4384 193.698179 
L 383.5872 193.462848 
L 383.736 194.129085 
L 384.0336 193.654266 
L 384.1824 194.319227 
L 384.3312 194.079757 
L 384.48 194.741882 
L 384.6288 194.499594 
L 384.9264 195.813853 
L 385.0752 195.564418 
L 385.224 196.216647 
L 385.3728 195.964528 
L 385.5216 196.61409 
L 385.8192 196.106252 
L 385.968 196.75487 
L 386.1168 196.499164 
L 386.2656 197.145163 
L 386.4144 196.886856 
L 386.5632 197.53027 
L 386.712 197.269396 
L 386.8608 197.910261 
L 387.0096 197.646854 
L 387.3072 198.919296 
L 387.456 198.649163 
L 387.6048 199.280831 
L 387.7536 199.008288 
L 387.9024 199.637562 
L 388.0512 199.362642 
L 388.2 199.989554 
L 388.3488 199.712288 
L 388.4976 200.33687 
L 388.6464 200.057289 
L 388.7952 200.679571 
L 388.944 200.397706 
L 389.0928 201.01772 
L 389.2416 200.733601 
L 389.3904 158.4 
L 518.4 158.4 
L 518.4 158.4 
" style="fill:none;stroke:#008000;stroke-linecap:square;"/>
   </g>
   <g id="line2d_2">
    <path clip-path="url(#pcbb42088a9)" d="M 72.1488 158.4 
L 72.2976 220.159486 
L 78.696 220.26757 
L 81.8208 220.321609 
L 81.9696 340.742189 
L 83.16 342.238307 
L 83.3088 342.127222 
L 84.9456 344.201633 
L 85.8384 345.361748 
L 85.9872 345.776784 
L 86.136 345.776784 
L 87.0288 346.849626 
L 87.9216 347.626772 
L 88.0704 348.26321 
L 88.2192 348.26321 
L 88.6656 348.846158 
L 89.4096 349.857655 
L 89.5584 350.300102 
L 89.7072 350.300102 
L 90.1536 350.89953 
L 90.6 351.232539 
L 91.344 352.515852 
L 91.7904 353.118219 
L 91.9392 353.118219 
L 93.576 355.775194 
L 93.8736 355.657777 
L 94.0224 355.905107 
L 94.1712 356.38613 
L 94.32 356.38613 
L 95.064 357.509839 
L 95.3616 358.170886 
L 95.5104 358.41823 
L 95.6592 358.41823 
L 95.808 358.907355 
L 95.9568 358.907355 
L 96.1056 359.305458 
L 96.2544 359.305458 
L 96.4032 359.171109 
L 97.296 360.522112 
L 97.4448 360.619176 
L 97.5936 360.867632 
L 97.7424 360.867632 
L 98.1888 361.449564 
L 98.4864 361.802596 
L 98.784 361.950114 
L 98.9328 362.0211 
L 99.3792 362.617204 
L 99.528 362.617204 
L 99.6768 362.450198 
L 99.8256 362.90127 
L 99.9744 362.734167 
L 100.5696 363.126132 
L 100.7184 363.126132 
L 100.8672 363.355307 
L 101.016 363.079797 
L 101.4624 363.556728 
L 101.6112 363.679788 
L 101.76 363.49655 
L 102.0576 363.947635 
L 102.2064 363.947635 
L 102.3552 363.670354 
L 102.6528 364.108598 
L 102.8016 363.92525 
L 102.9504 364.129857 
L 103.248 364.072797 
L 103.6944 364.2388 
L 103.8432 364.454489 
L 104.1408 364.192177 
L 104.4384 364.643564 
L 104.5872 364.643564 
L 104.8848 364.39081 
L 105.1824 364.831512 
L 105.3312 364.534511 
L 105.48 364.534511 
L 105.6288 364.76396 
L 105.7776 364.77908 
L 105.9264 364.91207 
L 106.0752 364.712627 
L 106.224 364.712627 
L 106.3728 364.928865 
L 106.5216 364.630724 
L 106.6704 364.664053 
L 106.8192 364.881981 
L 106.968 364.881981 
L 107.1168 365.001347 
L 107.2656 364.801877 
L 107.4144 365.021535 
L 107.5632 364.722226 
L 107.712 364.942584 
L 107.8608 364.743114 
L 108.0096 364.964516 
L 108.1584 364.664644 
L 108.3072 364.886746 
L 108.456 364.671373 
L 108.6048 365.017456 
L 108.7536 365.017456 
L 108.9024 364.817999 
L 109.0512 364.981105 
L 109.2 364.821391 
L 109.3488 364.951717 
L 109.4976 364.650417 
L 109.6464 364.876859 
L 109.7952 364.66154 
L 110.0928 364.799583 
L 110.2416 364.799583 
L 110.3904 364.537189 
L 110.5392 364.805983 
L 110.688 364.511206 
L 110.8368 364.638043 
L 110.9856 364.438655 
L 111.1344 364.653712 
L 111.2832 364.350737 
L 111.432 364.799419 
L 111.5808 364.799419 
L 111.7296 364.495825 
L 111.8784 364.713588 
L 112.0272 364.514268 
L 112.176 364.628293 
L 112.7712 364.244197 
L 112.92 364.481447 
L 113.0688 364.160605 
L 113.2176 364.160605 
L 113.3664 364.382748 
L 113.5152 364.183539 
L 113.664 364.300543 
L 113.9616 364.00383 
L 114.1104 364.00383 
L 114.2592 363.788786 
L 114.5568 363.965501 
L 114.7056 363.965501 
L 114.8544 363.690953 
L 115.0032 363.917725 
L 115.152 363.499873 
L 115.3008 363.743399 
L 115.4496 363.420662 
L 115.5984 363.649164 
L 115.7472 363.434271 
L 115.896 363.555519 
L 116.3424 363.295377 
L 116.4912 363.4655 
L 116.64 363.155356 
L 116.7888 363.278389 
L 116.9376 362.848906 
L 117.0864 362.848906 
L 117.2352 362.972571 
L 117.384 362.757884 
L 117.5328 362.882153 
L 117.9792 362.577763 
L 118.128 362.703268 
L 118.4256 362.384404 
L 118.5744 362.059016 
L 118.7232 362.059016 
L 118.872 362.296678 
L 119.1696 361.867827 
L 119.3184 361.867827 
L 119.4672 362.147113 
L 119.616 361.860672 
L 119.7648 362.005815 
L 120.0624 361.449138 
L 120.36 361.348064 
L 120.5088 361.461923 
L 120.6576 361.24769 
L 120.8064 361.378111 
L 121.104 360.820857 
L 121.2528 361.049112 
L 121.4016 360.721664 
L 121.5504 360.950922 
L 121.6992 360.623199 
L 121.848 360.853473 
L 122.1456 360.295573 
L 122.2944 360.428467 
L 122.4432 360.084402 
L 122.592 360.33224 
L 122.7408 359.821678 
L 122.8896 360.003392 
L 123.0384 359.773682 
L 123.1872 359.797151 
L 123.336 359.452345 
L 123.4848 359.452345 
L 123.6336 359.702943 
L 123.9312 359.144151 
L 124.08 359.264149 
L 124.2288 359.034618 
L 124.3776 359.171233 
L 124.6752 358.612097 
L 125.7168 358.641678 
L 125.8656 357.974506 
L 126.0144 357.974506 
L 126.1632 358.271315 
L 126.312 357.980177 
L 126.4608 357.33149 
L 126.6096 357.573422 
L 126.7584 357.226447 
L 126.9072 357.367126 
L 127.056 356.79099 
L 127.2048 356.79099 
L 127.3536 357.098401 
L 127.5024 356.814528 
L 127.6512 356.829318 
L 127.8 356.616403 
L 127.9488 356.74324 
L 128.3952 355.961728 
L 128.544 355.961728 
L 128.6928 356.264964 
L 128.9904 355.528523 
L 129.1392 355.776938 
L 129.288 355.444231 
L 129.4368 355.573375 
L 129.7344 355.012042 
L 129.8832 355.141736 
L 130.3296 354.758203 
L 130.4784 354.472614 
L 130.6272 354.613321 
L 130.776 354.279749 
L 130.9248 354.411282 
L 131.2224 353.981511 
L 131.3712 353.981511 
L 131.52 353.631665 
L 131.6688 353.772194 
L 131.8176 353.685622 
L 131.9664 353.335309 
L 132.4128 353.257361 
L 132.5616 352.906842 
L 132.7104 353.041342 
L 133.008 352.478842 
L 133.1568 352.613947 
L 133.4544 352.187045 
L 133.6032 352.187045 
L 133.752 351.98009 
L 133.9008 351.98009 
L 134.496 351.194609 
L 134.6448 351.331979 
L 134.7936 351.134047 
L 134.9424 351.134047 
L 135.24 350.554985 
L 135.3888 350.709398 
L 135.5376 350.3573 
L 135.6864 350.496346 
L 135.984 349.932953 
L 136.1328 350.072658 
L 136.2816 349.720161 
L 136.4304 349.860388 
L 136.728 349.437703 
L 136.8768 349.437703 
L 137.0256 349.084795 
L 137.1744 349.226244 
L 137.472 348.536055 
L 137.6208 348.804575 
L 137.7696 348.593939 
L 137.9184 348.593939 
L 138.216 347.902913 
L 138.3648 348.045886 
L 138.5136 347.692291 
L 138.6624 347.835828 
L 138.8112 347.625508 
L 138.96 347.625508 
L 139.2576 347.061909 
L 139.4064 347.262355 
L 139.5552 346.514296 
L 139.8528 346.514296 
L 140.1504 346.635255 
L 140.2992 346.635255 
L 140.448 346.032793 
L 140.5968 346.032793 
L 140.7456 345.678058 
L 140.8944 345.833034 
L 141.0432 345.278581 
L 141.3408 345.278581 
L 141.6384 345.135086 
L 141.7872 345.135086 
L 141.936 344.525345 
L 142.3824 344.465222 
L 142.68 343.919572 
L 142.9776 343.919572 
L 143.1264 343.636249 
L 143.424 343.636249 
L 143.5728 342.828658 
L 143.7216 343.091203 
L 143.8704 342.62368 
L 144.0192 342.62368 
L 144.168 342.791496 
L 144.3168 342.078662 
L 144.4656 342.078662 
L 144.6144 341.890274 
L 144.912 342.043204 
L 145.0608 341.855914 
L 145.2096 341.855914 
L 145.3584 341.514844 
L 145.5072 341.514844 
L 145.8048 341.236615 
L 146.1024 341.236615 
L 146.2512 340.581775 
L 146.8464 340.49133 
L 146.9952 339.852805 
L 147.144 339.852805 
L 147.4416 339.348697 
L 147.5904 339.348697 
L 147.7392 339.00661 
L 148.0368 339.00661 
L 148.1856 338.463872 
L 148.3344 338.463872 
L 148.4832 338.287486 
L 149.0784 338.271103 
L 149.2272 337.577577 
L 149.5248 337.577577 
L 149.8224 337.084058 
L 150.4176 337.079237 
L 150.5664 336.392427 
L 150.7152 336.392427 
L 150.864 336.570406 
L 151.0128 336.252475 
L 151.1616 336.252475 
L 151.608 335.907779 
L 151.7568 335.907779 
L 152.2032 335.262016 
L 152.352 334.917966 
L 152.5008 335.098389 
L 152.6496 334.738229 
L 152.7984 334.919435 
L 152.9472 334.574973 
L 153.096 334.618135 
L 153.2448 334.273604 
L 153.3936 334.45584 
L 153.5424 334.111075 
L 153.6912 334.294121 
L 153.84 333.949136 
L 154.1376 333.993233 
L 154.2864 333.832297 
L 154.584 333.094153 
L 154.7328 333.326459 
L 155.0304 332.680476 
L 155.328 332.680476 
L 155.4768 332.520488 
L 155.6256 332.56593 
L 155.7744 332.220163 
L 155.9232 332.406972 
L 156.072 332.060985 
L 156.2208 332.248659 
L 156.3696 331.760934 
L 156.5184 331.964772 
L 156.6672 331.618483 
L 156.816 331.807283 
L 156.9648 331.460774 
L 157.1136 331.507782 
L 157.2624 331.161205 
L 157.4112 331.367047 
L 157.56 331.02025 
L 157.7088 331.067834 
L 157.8576 330.720969 
L 158.0064 330.91209 
L 158.1552 330.580879 
L 158.304 330.629068 
L 158.4528 330.281886 
L 158.6016 330.474216 
L 158.7504 330.142703 
L 158.8992 330.191483 
L 159.048 329.843999 
L 159.1968 330.053439 
L 159.3456 329.705736 
L 159.4944 329.755133 
L 159.6432 329.407347 
L 159.792 329.618024 
L 159.9408 329.12493 
L 160.0896 329.335922 
L 160.2384 328.98782 
L 160.3872 329.183871 
L 160.536 328.705733 
L 160.6848 328.9021 
L 160.8336 328.553696 
L 160.9824 328.766913 
L 161.1312 328.271924 
L 161.28 328.485471 
L 161.4288 328.136751 
L 161.5776 328.188222 
L 161.7264 327.855322 
L 161.8752 328.054285 
L 162.024 327.57399 
L 162.1728 327.773282 
L 162.3216 327.44008 
L 162.4704 327.492375 
L 162.6192 327.159091 
L 162.768 327.359729 
L 162.9168 326.878185 
L 163.0656 327.079179 
L 163.2144 326.74558 
L 163.3632 326.947591 
L 163.512 326.465044 
L 163.6608 326.683301 
L 163.8096 326.184604 
L 163.9584 326.403218 
L 164.1072 326.053317 
L 164.256 326.123245 
L 164.4048 326.343576 
L 164.5536 325.993291 
L 164.7024 326.06407 
L 164.8512 325.713702 
L 165 325.935475 
L 165.1488 325.450113 
L 165.2976 325.656367 
L 165.4464 325.321559 
L 165.5952 325.393272 
L 165.744 325.042493 
L 165.8928 325.266106 
L 166.0416 324.779411 
L 166.1904 325.003423 
L 166.3392 324.500551 
L 166.6368 324.950771 
L 166.7856 324.446608 
L 166.9344 324.67283 
L 167.0832 324.184268 
L 167.232 324.410902 
L 167.3808 324.075133 
L 167.5296 324.133209 
L 167.6784 323.797343 
L 167.8272 323.871515 
L 167.976 323.535567 
L 168.1248 323.764165 
L 168.2736 323.258011 
L 168.5712 323.562387 
L 168.72 323.225945 
L 168.8688 323.456891 
L 169.0176 322.964978 
L 169.1664 323.196364 
L 169.3152 322.688232 
L 169.464 322.920071 
L 169.6128 322.427527 
L 169.9104 322.893581 
L 170.0592 322.399677 
L 170.208 322.633919 
L 170.3568 322.139685 
L 170.5056 322.37438 
L 170.6544 321.879817 
L 170.8032 322.114993 
L 170.952 321.77748 
L 171.1008 321.855757 
L 171.2496 322.077049 
L 171.3984 321.580756 
L 171.5472 321.818431 
L 171.8448 321.063011 
L 172.1424 321.063011 
L 172.2912 320.820255 
L 172.5888 321.219305 
L 172.7376 320.801399 
L 172.8864 321.042645 
L 173.0352 320.54355 
L 173.184 320.785318 
L 173.3328 320.28588 
L 173.6304 320.610155 
L 173.7792 320.271144 
L 173.928 320.353418 
L 174.0768 320.014311 
L 174.2256 320.112749 
L 174.3744 319.773546 
L 174.5232 319.856355 
L 174.672 320.102696 
L 174.8208 319.60014 
L 174.9696 319.847017 
L 175.1184 319.34409 
L 175.2672 319.607419 
L 175.416 319.104121 
L 175.7136 319.437007 
L 175.8624 319.096994 
L 176.0112 319.198068 
L 176.16 318.693439 
L 176.3088 318.943419 
L 176.4576 318.438405 
L 176.7552 318.791052 
L 176.904 318.450586 
L 177.0528 318.537076 
L 177.2016 318.196527 
L 177.3504 318.299208 
L 177.4992 318.553583 
L 177.648 318.045644 
L 177.7968 318.300623 
L 177.9456 317.808174 
L 178.0944 317.89601 
L 178.2432 317.555008 
L 178.392 317.659048 
L 178.5408 317.91617 
L 178.6896 317.406418 
L 178.8384 317.68006 
L 178.9872 317.169882 
L 179.2848 317.534312 
L 179.4336 317.023132 
L 179.5824 317.283083 
L 179.7312 317.047961 
L 179.88 317.155119 
L 180.0288 316.813074 
L 180.1776 316.904672 
L 180.3264 316.407486 
L 180.624 316.778673 
L 180.7728 316.436284 
L 181.0704 316.52905 
L 181.2192 316.030367 
L 181.5168 316.405042 
L 181.6656 316.062337 
L 181.8144 316.15627 
L 181.9632 315.656076 
L 182.112 315.923648 
L 182.2608 315.691273 
L 182.4096 315.802332 
L 182.5584 315.284683 
L 182.7072 315.570589 
L 183.0048 315.666609 
L 183.1536 315.33912 
L 183.3024 315.435512 
L 183.4512 315.204689 
L 183.6 315.204689 
L 183.7488 314.797536 
L 183.8976 314.797536 
L 184.0464 314.566905 
L 184.1952 314.566905 
L 184.344 314.680325 
L 184.4928 314.964363 
L 184.6416 314.450368 
L 184.7904 314.743126 
L 184.9392 314.220699 
L 185.088 314.335423 
L 185.2368 314.614133 
L 185.3856 314.106441 
L 185.5344 314.222099 
L 185.6832 313.877774 
L 185.9808 314.094521 
L 186.1296 313.765878 
L 186.4272 313.984534 
L 186.576 313.655658 
L 186.7248 313.773624 
L 186.8736 313.247337 
L 187.0224 313.666109 
L 187.1712 313.666109 
L 187.32 313.138614 
L 187.4688 313.440408 
L 187.6176 313.031648 
L 187.7664 313.031648 
L 187.9152 313.335434 
L 188.064 312.822098 
L 188.2128 313.232259 
L 188.3616 312.7177 
L 188.5104 312.823087 
L 188.6592 312.493401 
L 189.1056 312.737448 
L 189.2544 312.205875 
L 189.552 312.637802 
L 189.7008 312.415645 
L 189.8496 312.415645 
L 189.9984 312.021867 
L 190.1472 312.021867 
L 190.296 312.146178 
L 190.4448 311.800012 
L 190.5936 312.050212 
L 190.7424 312.050212 
L 190.8912 311.82973 
L 191.04 311.82973 
L 191.1888 311.309789 
L 191.3376 311.435582 
L 191.4864 311.231305 
L 191.784 311.342308 
L 191.9328 311.661543 
L 192.0816 311.138979 
L 192.3792 311.395674 
L 192.528 311.064629 
L 192.6768 311.177911 
L 192.8256 310.654124 
L 192.9744 310.7832 
L 193.1232 311.106857 
L 193.272 310.581697 
L 193.4208 310.711954 
L 193.5696 310.511453 
L 193.7184 310.511453 
L 194.016 310.759099 
L 194.3136 310.032394 
L 194.4624 310.032394 
L 194.76 310.298181 
L 194.9088 309.966449 
L 195.2064 310.234708 
L 195.3552 309.688962 
L 195.504 309.823338 
L 195.6528 310.157693 
L 195.8016 309.626408 
L 196.0992 309.898389 
L 196.248 309.703189 
L 196.3968 309.703189 
L 196.5456 309.307407 
L 196.6944 309.307407 
L 196.8432 309.444942 
L 196.992 309.112674 
L 197.1408 309.389708 
L 197.2896 308.854907 
L 197.4384 308.854907 
L 197.5872 308.993706 
L 198.0336 308.940862 
L 198.1824 309.08172 
L 198.3312 308.544722 
L 198.6288 309.032858 
L 198.7776 308.49435 
L 198.9264 308.636526 
L 199.0752 308.098087 
L 199.224 308.590233 
L 199.3728 308.050241 
L 199.5216 308.050241 
L 199.8192 308.338055 
L 199.968 307.797322 
L 200.1168 307.941545 
L 200.2656 308.29584 
L 200.4144 307.769444 
L 200.712 308.061557 
L 200.8608 307.518503 
L 201.0096 307.664896 
L 201.1584 308.023586 
L 201.3072 307.478925 
L 201.6048 307.7755 
L 201.7536 307.230057 
L 201.9024 307.378688 
L 202.0512 307.757812 
L 202.2 307.210735 
L 202.4976 307.511897 
L 202.6464 306.964023 
L 202.944 307.266724 
L 203.0928 306.949232 
L 203.2416 307.101764 
L 203.3904 306.552269 
L 203.688 306.858101 
L 203.8368 306.307782 
L 204.1344 306.63111 
L 204.2832 306.297633 
L 204.432 306.452582 
L 204.5808 306.055508 
L 204.7296 306.055508 
L 204.8784 306.383794 
L 205.0272 306.383794 
L 205.176 305.830069 
L 205.4736 306.144154 
L 205.6224 305.826498 
L 205.92 306.144031 
L 206.0688 305.587683 
L 206.3664 305.922862 
L 206.5152 305.365622 
L 206.8128 305.68667 
L 206.9616 305.128551 
L 207.2592 305.693646 
L 207.408 305.133714 
L 207.7056 305.476103 
L 207.8544 304.915237 
L 208.152 305.243605 
L 208.3008 304.697708 
L 208.5984 305.027957 
L 208.7472 304.465237 
L 208.896 304.646745 
L 209.1936 305.212871 
L 209.3424 304.663225 
L 209.64 305.001192 
L 209.7888 304.434695 
L 210.0864 304.79057 
L 210.2352 304.223099 
L 210.5328 304.58102 
L 210.6816 304.01256 
L 210.9792 304.372554 
L 211.128 303.803091 
L 211.4256 304.165201 
L 211.5744 303.594722 
L 211.7232 303.784291 
L 211.872 304.198283 
L 212.0208 303.625813 
L 212.3184 303.994308 
L 212.4672 303.420808 
L 212.7648 303.791542 
L 212.9136 303.216985 
L 213.2112 303.589984 
L 213.36 303.014369 
L 213.6576 303.389662 
L 213.8064 302.81299 
L 214.104 303.190617 
L 214.2528 302.61286 
L 214.6992 303.192471 
L 214.848 302.612599 
L 215.1456 302.997258 
L 215.2944 302.416273 
L 215.4432 302.803404 
L 215.7408 302.803404 
L 215.8896 302.423497 
L 216.0384 302.610951 
L 216.1872 302.027715 
L 216.4848 302.419913 
L 216.6336 301.851425 
L 216.7824 302.246219 
L 216.9312 301.660675 
L 217.08 301.660675 
L 217.5264 302.250696 
L 217.6752 301.678816 
L 217.9728 302.06548 
L 218.1216 301.686493 
L 218.2704 301.897719 
L 218.4192 301.307547 
L 218.568 301.307547 
L 218.7168 301.518938 
L 218.8656 301.455354 
L 219.0144 300.865031 
L 219.312 301.273503 
L 219.4608 300.697847 
L 219.7584 301.109203 
L 219.9072 300.516408 
L 220.3536 301.147723 
L 220.5024 300.552567 
L 220.8 300.97245 
L 220.9488 300.391919 
L 221.2464 300.814865 
L 221.3952 300.21714 
L 221.544 300.421555 
L 221.6928 300.373874 
L 221.8416 299.77597 
L 222.288 300.425743 
L 222.4368 299.825395 
L 222.7344 300.257872 
L 222.8832 299.672081 
L 223.1808 300.107867 
L 223.3296 299.731627 
L 223.4784 299.683946 
L 223.6272 299.080673 
L 224.0736 299.750317 
L 224.2224 299.144518 
L 224.52 299.590562 
L 224.6688 299.590562 
L 224.8176 299.215366 
L 225.1152 299.167685 
L 225.264 298.568175 
L 225.5616 299.010457 
L 225.7104 298.417484 
L 226.008 298.871342 
L 226.1568 298.496997 
L 226.3056 298.449316 
L 226.4544 298.670938 
L 226.6032 298.075053 
L 226.9008 298.536424 
L 227.0496 298.536424 
L 227.1984 297.939056 
L 227.6448 298.631374 
L 227.7936 297.741866 
L 228.0912 298.211064 
L 228.24 297.610689 
L 228.3888 298.083897 
L 228.5376 297.466095 
L 228.6864 297.418401 
L 228.984 297.895729 
L 229.1328 297.292264 
L 229.4304 297.773781 
L 229.5792 297.152847 
L 229.8768 297.105167 
L 230.0256 297.355147 
L 230.1744 296.733884 
L 230.6208 297.474486 
L 230.7696 296.565944 
L 231.0672 297.057047 
L 231.216 296.687425 
L 231.3648 296.944066 
L 231.5136 296.014897 
L 231.96 296.770454 
L 232.1088 296.158557 
L 232.2576 296.402151 
L 232.4064 296.402151 
L 232.5552 295.726286 
L 232.704 295.726286 
L 233.0016 296.240227 
L 233.1504 295.618304 
L 233.2992 295.880727 
L 233.448 295.833032 
L 233.5968 296.081447 
L 233.7456 295.465759 
L 233.8944 295.73064 
L 234.0432 295.05097 
L 234.3408 295.567932 
L 234.4896 294.950089 
L 234.6384 295.202197 
L 234.7872 295.154503 
L 234.936 295.424478 
L 235.0848 295.424478 
L 235.2336 294.78896 
L 235.5312 295.332166 
L 235.68 294.375943 
L 236.1264 295.179826 
L 236.2752 294.508905 
L 236.424 294.768993 
L 236.5728 294.145299 
L 236.7216 294.421962 
L 236.8704 294.358392 
L 237.0192 293.734245 
L 237.3168 294.275185 
L 237.4656 294.275185 
L 237.6144 294.556792 
L 237.7632 293.601489 
L 238.0608 294.148155 
L 238.2096 293.520245 
L 238.3584 293.456662 
L 238.5072 294.025081 
L 238.656 293.379359 
L 238.8048 293.331679 
L 238.9536 293.617763 
L 239.1024 292.971533 
L 239.2512 293.258427 
L 239.4 293.210747 
L 239.5488 292.579898 
L 239.6976 292.579898 
L 239.9952 293.141684 
L 240.144 293.03042 
L 240.2928 292.445274 
L 240.4416 292.73611 
L 240.5904 292.039165 
L 241.0368 292.921271 
L 241.1856 291.925923 
L 241.4832 292.518155 
L 241.632 292.518155 
L 241.7808 291.864839 
L 241.9296 291.817159 
L 242.0784 292.115396 
L 242.2272 291.413837 
L 242.5248 292.014651 
L 242.6736 291.374588 
L 242.9712 291.311005 
L 243.2688 291.855199 
L 243.4176 291.21302 
L 243.5664 291.519182 
L 243.7152 290.876385 
L 243.864 290.812802 
L 244.0128 291.120007 
L 244.1616 291.120007 
L 244.3104 291.429808 
L 244.4592 290.428912 
L 244.608 290.721272 
L 244.7568 290.386574 
L 244.9056 290.338893 
L 245.2032 290.949637 
L 245.352 289.941064 
L 245.5008 289.941064 
L 245.7984 290.554074 
L 245.9472 289.543689 
L 246.2448 290.174908 
L 246.3936 290.111339 
L 246.5424 289.462212 
L 246.6912 289.780376 
L 246.84 289.066992 
L 247.1376 289.708553 
L 247.2864 289.660872 
L 247.4352 288.992889 
L 247.584 289.316341 
L 247.7328 289.26866 
L 247.8816 288.615866 
L 248.0304 288.615866 
L 248.1792 288.877025 
L 248.328 288.877025 
L 248.4768 289.204678 
L 248.6256 288.541599 
L 248.7744 288.485966 
L 248.9232 288.814966 
L 249.072 288.159109 
L 249.2208 288.111415 
L 249.3696 288.441774 
L 249.5184 287.721579 
L 249.816 288.388133 
L 249.9648 287.332375 
L 250.1136 287.665535 
L 250.2624 287.617854 
L 250.4112 287.954105 
L 250.56 287.294321 
L 250.8576 287.230737 
L 251.0064 287.568471 
L 251.1552 286.860196 
L 251.304 286.860196 
L 251.6016 287.525981 
L 251.7504 286.47448 
L 251.8992 286.815234 
L 252.048 286.089478 
L 252.1968 286.431798 
L 252.3456 286.384103 
L 252.4944 286.72972 
L 252.6432 286.065019 
L 252.792 286.001436 
L 252.9408 286.348672 
L 253.0896 286.348672 
L 253.2384 285.683134 
L 253.3872 285.635454 
L 253.536 285.968449 
L 253.6848 285.920769 
L 253.8336 285.254379 
L 253.9824 285.557286 
L 254.1312 284.874142 
L 254.28 284.826462 
L 254.5776 285.534599 
L 254.7264 285.534599 
L 254.8752 284.447076 
L 255.024 284.801152 
L 255.1728 284.753471 
L 255.3216 284.084473 
L 255.6192 284.736237 
L 255.768 283.659178 
L 256.0656 284.378233 
L 256.2144 283.282498 
L 256.3632 283.642067 
L 256.512 283.594386 
L 256.6608 283.957663 
L 256.8096 283.957663 
L 256.9584 283.284146 
L 257.1072 283.220563 
L 257.256 283.585803 
L 257.4048 282.50023 
L 257.5536 282.863658 
L 257.7024 282.815977 
L 257.8512 283.183209 
L 258 282.444214 
L 258.1488 282.813492 
L 258.2976 282.765797 
L 258.4464 282.089424 
L 258.5952 282.025841 
L 258.744 282.397206 
L 258.8928 281.719844 
L 259.1904 281.67215 
L 259.3392 281.982074 
L 259.488 281.982074 
L 259.6368 281.303709 
L 259.7856 281.256029 
L 259.9344 281.631693 
L 260.0832 280.952325 
L 260.232 280.888742 
L 260.3808 281.266644 
L 260.6784 281.218964 
L 260.8272 280.538567 
L 260.976 280.855165 
L 261.1248 279.747771 
L 261.2736 280.126044 
L 261.5712 280.078363 
L 261.8688 279.714798 
L 262.0176 280.123517 
L 262.1664 279.033179 
L 262.3152 279.033179 
L 262.6128 279.69218 
L 262.7616 278.5745 
L 262.9104 278.959886 
L 263.0592 278.912192 
L 263.208 279.302 
L 263.3568 279.302 
L 263.5056 278.552705 
L 263.6544 278.505011 
L 263.8032 277.843991 
L 263.952 278.258231 
L 264.1008 278.162856 
L 264.2496 277.4133 
L 264.3984 277.806281 
L 264.696 277.78244 
L 264.8448 277.119182 
L 265.1424 277.023807 
L 265.2912 277.419466 
L 265.44 276.66763 
L 265.5888 276.619949 
L 265.7376 277.018314 
L 266.0352 276.970633 
L 266.184 276.281227 
L 266.3328 276.634698 
L 266.4816 275.481395 
L 266.6304 275.880542 
L 266.928 275.832848 
L 267.0768 275.497421 
L 267.3744 275.473567 
L 267.5232 274.806477 
L 267.672 274.695213 
L 267.8208 275.100128 
L 267.9696 275.100128 
L 268.1184 273.90976 
L 268.2672 274.312601 
L 268.416 274.28876 
L 268.5648 274.720509 
L 268.7136 273.525932 
L 268.8624 273.525932 
L 269.0112 273.868176 
L 269.16 273.19948 
L 269.3088 273.175639 
L 269.4576 273.489162 
L 269.7552 273.489162 
L 269.904 272.747688 
L 270.0528 273.183556 
L 270.2016 273.159716 
L 270.3504 272.401076 
L 270.648 272.305708 
L 270.7968 271.611495 
L 270.9456 271.587648 
L 271.0944 272.024615 
L 271.392 271.929247 
L 271.5408 271.18605 
L 271.6896 271.602473 
L 271.8384 271.554785 
L 271.9872 270.857964 
L 272.4336 270.746706 
L 272.5824 270.050736 
L 272.7312 270.42068 
L 272.88 270.372993 
L 273.0288 269.675684 
L 273.3264 269.628003 
L 273.4752 270.001421 
L 273.624 268.836191 
L 273.7728 269.278912 
L 274.0704 269.255072 
L 274.2192 269.632061 
L 274.368 268.414206 
L 274.5168 268.836651 
L 274.6656 267.669587 
L 274.8144 268.089773 
L 275.112 268.042085 
L 275.2608 267.296072 
L 275.4096 267.248392 
L 275.5584 267.672224 
L 275.7072 267.624536 
L 275.856 266.924796 
L 276.1536 266.829428 
L 276.3024 267.257016 
L 276.4512 266.08288 
L 276.6 266.50816 
L 276.7488 266.460473 
L 276.8976 265.289543 
L 277.0464 265.712489 
L 277.1952 265.664802 
L 277.344 266.093935 
L 277.4928 264.917697 
L 277.6416 264.870016 
L 277.7904 265.296801 
L 277.9392 265.249113 
L 278.088 264.548227 
L 278.3856 264.452859 
L 278.5344 264.883605 
L 278.6832 263.705177 
L 278.832 264.133534 
L 279.1296 264.038166 
L 279.2784 263.336668 
L 279.576 263.2413 
L 279.7248 262.804285 
L 299.8128 267.852454 
L 300.2592 267.916038 
L 301.0032 268.081341 
L 301.5984 268.157634 
L 302.3424 268.310227 
L 306.36 268.90787 
L 307.104 268.984163 
L 307.9968 269.098606 
L 309.9312 269.327493 
L 324.5136 270.471911 
L 326.5968 270.573637 
L 329.8704 270.751657 
L 332.1024 270.853384 
L 334.7808 270.980544 
L 337.1616 271.08227 
L 339.84 271.20943 
L 342.6672 271.311156 
L 345.1968 271.4256 
L 348.1728 271.527326 
L 350.256 271.603619 
L 353.5296 271.705346 
L 355.6128 271.781639 
L 359.184 271.883366 
L 361.1184 271.946942 
L 365.136 272.048669 
L 367.0704 272.112252 
L 371.088 272.213979 
L 371.2368 273.6 
L 518.4 273.6 
L 518.4 273.6 
" style="fill:none;stroke:#000000;stroke-dasharray:6.000000,6.000000;stroke-dashoffset:0.0;"/>
   </g>
   <g id="line2d_3">
    <path clip-path="url(#pcbb42088a9)" d="M 72.1488 158.4 
L 72.2976 93.459732 
L 76.1664 93.354826 
L 79.44 93.249921 
L 81.8208 93.173627 
L 81.9696 273.6 
L 151.1616 273.513016 
L 151.3104 273.261752 
L 151.4592 273.261752 
L 151.9056 272.919424 
L 152.0544 272.919424 
L 152.352 271.989933 
L 152.5008 272.177799 
L 152.6496 271.843815 
L 152.7984 272.032134 
L 152.9472 271.647427 
L 153.096 271.729729 
L 153.2448 271.345015 
L 153.3936 271.533726 
L 153.5424 271.148861 
L 153.6912 271.337956 
L 153.84 270.95294 
L 153.9888 271.035599 
L 154.1376 270.707396 
L 154.2864 270.840056 
L 154.4352 270.759554 
L 154.584 270.221986 
L 154.7328 270.259435 
L 155.328 269.243399 
L 155.6256 269.459555 
L 155.7744 269.074141 
L 155.9232 269.264644 
L 156.072 268.933969 
L 156.2208 269.124925 
L 156.3696 268.631625 
L 156.5184 268.77168 
L 156.6672 268.385957 
L 156.816 268.577271 
L 156.9648 268.24639 
L 157.1136 268.330051 
L 157.2624 267.944122 
L 157.4112 268.084932 
L 157.56 267.698838 
L 157.7088 267.837788 
L 157.8576 267.451659 
L 158.0064 267.644009 
L 158.1552 267.206637 
L 158.304 267.345861 
L 158.4528 266.959534 
L 158.6016 267.152337 
L 158.7504 266.769944 
L 158.8992 266.854243 
L 159.048 266.467751 
L 159.1968 266.609784 
L 159.3456 266.278471 
L 159.4944 266.362942 
L 159.6432 266.031608 
L 159.792 266.174135 
L 159.9408 265.678191 
L 160.0896 265.876103 
L 160.2384 265.489254 
L 160.3872 265.683533 
L 160.536 265.191202 
L 160.6848 265.385536 
L 160.8336 265.053934 
L 160.9824 265.197368 
L 161.1312 264.700456 
L 161.28 264.899419 
L 161.4288 264.512185 
L 161.5776 264.652927 
L 161.7264 264.214222 
L 161.8752 264.465218 
L 162.024 263.916259 
L 162.1728 264.167324 
L 162.3216 263.728352 
L 162.4704 263.869437 
L 162.6192 263.430437 
L 162.768 263.68212 
L 162.9168 263.132529 
L 163.0656 263.38428 
L 163.2144 263.000706 
L 163.3632 263.197314 
L 163.512 262.702853 
L 163.6608 262.847887 
L 163.8096 262.405 
L 163.9584 262.605913 
L 164.1072 262.217958 
L 164.4048 262.453965 
L 164.5536 262.121649 
L 164.7024 262.212211 
L 164.8512 261.823927 
L 165 262.026274 
L 165.1488 261.53042 
L 165.2976 261.728634 
L 165.4464 261.34436 
L 165.5952 261.43521 
L 165.744 261.102722 
L 165.8928 261.249719 
L 166.0416 260.753233 
L 166.1904 260.956364 
L 166.3392 260.4556 
L 166.6368 260.862822 
L 166.7856 260.417443 
L 166.9344 260.621658 
L 167.0832 260.067954 
L 167.232 260.272135 
L 167.3808 259.88725 
L 167.5296 260.030992 
L 167.6784 259.646045 
L 167.8272 259.68149 
L 167.976 259.296542 
L 168.1248 259.501513 
L 168.2736 259.055399 
L 168.5712 259.352765 
L 168.72 258.967467 
L 168.8688 259.117012 
L 169.0176 258.617958 
L 169.1664 258.824034 
L 169.3152 258.377076 
L 169.464 258.583358 
L 169.6128 258.084029 
L 169.9104 258.49772 
L 170.0592 257.997505 
L 170.208 258.2049 
L 170.3568 257.704623 
L 170.5056 257.912128 
L 170.6544 257.411735 
L 170.8032 257.562591 
L 170.952 257.176648 
L 171.1008 257.269819 
L 171.2496 257.530895 
L 171.3984 257.029555 
L 171.5472 257.238281 
L 171.8448 256.500954 
L 172.1424 256.500954 
L 172.2912 256.155757 
L 172.44 256.364882 
L 172.7376 256.072337 
L 172.8864 256.282484 
L 173.0352 255.779819 
L 173.184 255.990076 
L 173.3328 255.487315 
L 173.6304 255.792336 
L 173.7792 255.46254 
L 173.928 255.55727 
L 174.0768 255.170229 
L 174.2256 255.212155 
L 174.3744 254.825107 
L 174.672 255.132072 
L 174.8208 254.684969 
L 174.9696 254.897417 
L 175.1184 254.392809 
L 175.2672 254.552364 
L 175.416 254.047701 
L 175.7136 254.413456 
L 175.8624 254.02579 
L 176.0112 254.06843 
L 176.16 253.563142 
L 176.3088 253.834085 
L 176.4576 253.328542 
L 176.7552 253.585066 
L 176.904 253.25479 
L 177.0528 253.350948 
L 177.2016 252.962993 
L 177.3504 253.00597 
L 177.4992 253.279076 
L 177.648 252.771934 
L 177.7968 252.987506 
L 177.9456 252.484696 
L 178.0944 252.581287 
L 178.2432 252.193037 
L 178.5408 252.510548 
L 178.6896 252.00263 
L 178.8384 252.223654 
L 178.9872 251.715578 
L 179.2848 252.034305 
L 179.4336 251.525652 
L 179.5824 251.801154 
L 179.7312 251.456342 
L 179.88 251.558727 
L 180.0288 251.169681 
L 180.1776 251.325858 
L 180.3264 250.762658 
L 180.624 251.083891 
L 180.7728 250.694625 
L 180.9216 250.694625 
L 181.0704 250.851276 
L 181.2192 250.287293 
L 181.5168 250.609818 
L 181.6656 250.220277 
L 181.8144 250.377484 
L 181.9632 249.812636 
L 182.112 250.091331 
L 182.2608 249.805234 
L 182.4096 249.850449 
L 182.5584 249.397222 
L 182.7072 249.564462 
L 182.856 249.564462 
L 183.0048 249.722617 
L 183.1536 249.278529 
L 183.3024 249.436807 
L 183.4512 249.151053 
L 183.6 249.151053 
L 183.7488 248.742464 
L 183.8976 248.742464 
L 184.0464 248.456676 
L 184.344 248.561197 
L 184.4928 248.757735 
L 184.6416 248.275566 
L 184.7904 248.445174 
L 184.9392 247.989983 
L 185.2368 248.319662 
L 185.3856 247.809547 
L 185.5344 247.855868 
L 185.6832 247.524184 
L 185.9808 247.730679 
L 186.1296 247.344427 
L 186.4272 247.551663 
L 186.576 247.165247 
L 186.7248 247.271443 
L 186.8736 246.755491 
L 187.0224 247.093176 
L 187.1712 247.093176 
L 187.32 246.576599 
L 187.4688 246.808514 
L 187.6176 246.39825 
L 187.7664 246.39825 
L 187.9152 246.630995 
L 188.064 246.118277 
L 188.2128 246.454053 
L 188.3616 245.940676 
L 188.5104 246.102821 
L 188.6592 245.65624 
L 189.1056 245.871394 
L 189.2544 245.412495 
L 189.552 245.695386 
L 189.7008 245.471313 
L 189.8496 245.471313 
L 189.9984 245.004922 
L 190.296 245.113282 
L 190.4448 244.780843 
L 190.7424 244.938242 
L 190.8912 244.714691 
L 191.04 244.714691 
L 191.1888 244.198904 
L 191.3376 244.247717 
L 191.4864 243.968953 
L 191.6352 243.968953 
L 191.9328 244.372041 
L 192.0816 243.85486 
L 192.3792 244.014155 
L 192.528 243.626028 
L 192.6768 243.79151 
L 192.8256 243.273923 
L 193.1232 243.624037 
L 193.272 243.105743 
L 193.4208 243.15569 
L 193.5696 242.877825 
L 193.7184 242.877825 
L 194.016 243.155292 
L 194.3136 242.358426 
L 194.6112 242.469518 
L 194.76 242.580906 
L 194.9088 242.131462 
L 195.2064 242.354732 
L 195.3552 241.890209 
L 195.6528 242.246008 
L 195.8016 241.724851 
L 196.0992 241.949467 
L 196.248 241.672906 
L 196.3968 241.672906 
L 196.5456 241.263728 
L 196.6944 241.263728 
L 196.8432 241.376509 
L 196.992 240.987167 
L 197.1408 241.213424 
L 197.2896 240.690784 
L 197.4384 240.690784 
L 197.5872 240.803888 
L 197.8848 240.641338 
L 198.0336 240.641338 
L 198.1824 240.75526 
L 198.3312 240.231617 
L 198.6288 240.594063 
L 198.7776 240.069603 
L 198.9264 240.183881 
L 199.0752 239.65971 
L 199.224 240.023254 
L 199.3728 239.498259 
L 199.5216 239.498259 
L 199.8192 239.727839 
L 199.968 239.264154 
L 200.2656 239.630136 
L 200.4144 239.047373 
L 200.712 239.278354 
L 200.8608 238.752047 
L 201.1584 239.120034 
L 201.3072 238.592889 
L 201.6048 238.887344 
L 201.7536 238.359808 
L 202.0512 238.673344 
L 202.2 238.14508 
L 202.4976 238.378951 
L 202.6464 237.912561 
L 202.944 238.146961 
L 203.0928 237.698904 
L 203.2416 237.816431 
L 203.3904 237.287288 
L 203.688 237.584763 
L 203.8368 237.055215 
L 204.1344 237.233572 
L 204.2832 236.842431 
L 204.432 237.023094 
L 204.5808 236.610942 
L 204.7296 236.610942 
L 204.8784 236.790726 
L 205.0272 236.790726 
L 205.176 236.322366 
L 205.4736 236.559952 
L 205.6224 236.111037 
L 205.92 236.412598 
L 206.0688 235.880344 
L 206.3664 236.061948 
L 206.5152 235.52953 
L 206.8128 235.831998 
L 206.9616 235.299154 
L 207.2592 235.686484 
L 207.408 235.152665 
L 207.7056 235.336178 
L 207.8544 234.865269 
L 208.152 235.107085 
L 208.3008 234.514854 
L 208.5984 234.820267 
L 208.7472 234.2855 
L 209.1936 234.799509 
L 209.3424 234.20508 
L 209.64 234.513474 
L 209.7888 233.976798 
L 210.0864 234.227568 
L 210.2352 233.690563 
L 210.5328 233.941834 
L 210.6816 233.404465 
L 210.9792 233.656245 
L 211.128 233.118519 
L 211.4256 233.370806 
L 211.5744 232.832723 
L 211.872 233.231815 
L 212.0208 232.692675 
L 212.3184 232.947002 
L 212.4672 232.407504 
L 212.7648 232.66236 
L 212.9136 232.122485 
L 213.2112 232.377869 
L 213.36 231.83763 
L 213.6576 232.093577 
L 213.8064 231.55294 
L 214.104 231.80945 
L 214.2528 231.332774 
L 214.5504 231.525501 
L 214.6992 231.657516 
L 214.848 231.115464 
L 215.1456 231.374048 
L 215.2944 230.831598 
L 215.4432 231.090759 
L 215.592 230.83168 
L 215.7408 230.83168 
L 215.8896 230.680371 
L 216.0384 230.807682 
L 216.1872 230.329186 
L 216.336 230.397192 
L 216.4848 230.589789 
L 216.6336 229.986749 
L 216.7824 230.247771 
L 216.9312 229.703659 
L 217.08 229.703659 
L 217.3776 229.965305 
L 217.5264 230.094003 
L 217.6752 229.554499 
L 217.9728 229.877408 
L 218.1216 229.466313 
L 218.2704 229.536042 
L 218.4192 228.989994 
L 218.568 228.989994 
L 218.7168 229.124886 
L 218.8656 229.102034 
L 219.0144 228.621506 
L 219.1632 228.690939 
L 219.312 228.885844 
L 219.4608 228.2799 
L 219.7584 228.544698 
L 219.9072 228.063428 
L 220.056 228.133383 
L 220.3536 228.399911 
L 220.5024 227.917708 
L 220.6512 227.988343 
L 220.8 228.18517 
L 220.9488 227.57683 
L 221.2464 227.844779 
L 221.3952 227.296033 
L 221.544 227.493107 
L 221.6928 227.409803 
L 221.8416 226.927077 
L 221.9904 226.998097 
L 222.288 227.267365 
L 222.4368 226.783685 
L 222.5856 226.855399 
L 222.7344 227.053949 
L 222.8832 226.443466 
L 223.1808 226.780575 
L 223.3296 226.368354 
L 223.4784 226.284501 
L 223.6272 225.800237 
L 223.776 225.872383 
L 224.0736 226.144617 
L 224.2224 225.659358 
L 224.3712 225.732246 
L 224.52 225.93265 
L 224.6688 225.93265 
L 224.8176 225.520127 
L 225.1152 225.435862 
L 225.264 224.920191 
L 225.5616 225.224066 
L 225.7104 224.677503 
L 225.8592 224.750851 
L 226.008 224.95201 
L 226.1568 224.539336 
L 226.3056 224.454824 
L 226.4544 224.656403 
L 226.6032 224.108871 
L 227.0496 224.384944 
L 227.1984 223.770135 
L 227.6448 224.25019 
L 227.7936 223.541311 
L 228.0912 223.81899 
L 228.24 223.202994 
L 228.3888 223.481312 
L 228.5376 222.992887 
L 228.6864 222.974856 
L 228.984 223.254197 
L 229.1328 222.636978 
L 229.4304 222.9844 
L 229.5792 222.427695 
L 230.0256 222.485442 
L 230.1744 221.996372 
L 230.6208 222.421536 
L 230.7696 221.640731 
L 231.0672 221.989629 
L 231.216 221.576104 
L 231.3648 221.65307 
L 231.5136 221.000523 
L 231.96 221.427727 
L 232.1088 220.807555 
L 232.2576 221.014016 
L 232.4064 221.014016 
L 232.5552 220.437186 
L 232.704 220.437186 
L 233.0016 220.758179 
L 233.1504 220.168261 
L 233.2992 220.313528 
L 233.448 220.295057 
L 233.5968 220.434734 
L 233.7456 219.881319 
L 233.8944 219.959081 
L 234.0432 219.449185 
L 234.3408 219.734672 
L 234.4896 219.180872 
L 234.6384 219.320734 
L 234.7872 219.302168 
L 235.0848 219.448801 
L 235.2336 218.888271 
L 235.5312 219.181977 
L 235.68 218.455891 
L 236.1264 218.890578 
L 236.2752 218.316371 
L 236.424 218.457594 
L 236.5728 217.902317 
L 236.8704 218.024684 
L 237.0192 217.469662 
L 237.3168 217.758355 
L 237.4656 217.758355 
L 237.6144 217.906911 
L 237.7632 217.183962 
L 238.0608 217.473651 
L 238.2096 216.917365 
L 238.3584 216.892365 
L 238.5072 217.189311 
L 238.656 216.626159 
L 238.8048 216.607345 
L 238.9536 216.755962 
L 239.1024 216.261543 
L 239.4 216.322689 
L 239.6976 215.493043 
L 239.9952 216.057355 
L 240.144 216.288274 
L 240.2928 215.475159 
L 240.4416 215.623952 
L 240.5904 215.110554 
L 240.888 215.339962 
L 241.0368 215.490076 
L 241.1856 214.75736 
L 241.632 215.05636 
L 241.7808 214.56074 
L 241.9296 214.473038 
L 242.0784 214.622702 
L 242.2272 214.108364 
L 242.5248 214.339344 
L 242.8224 213.505952 
L 243.2688 214.307711 
L 243.4176 213.471895 
L 243.5664 213.622476 
L 243.7152 213.063646 
L 244.3104 213.339791 
L 244.4592 212.611051 
L 244.608 212.823853 
L 244.7568 212.346538 
L 244.9056 212.327459 
L 245.2032 212.623352 
L 245.352 211.893795 
L 245.5008 211.893795 
L 245.7984 212.258524 
L 245.9472 211.460202 
L 246.3936 211.805162 
L 246.5424 211.176686 
L 246.6912 211.327552 
L 246.84 210.811937 
L 247.2864 211.02583 
L 247.4352 210.528826 
L 247.7328 210.591743 
L 247.8816 210.032299 
L 248.0304 210.032299 
L 248.4768 210.309494 
L 248.6256 209.780736 
L 248.7744 209.792924 
L 248.9232 209.944655 
L 249.072 209.31542 
L 249.2208 209.29627 
L 249.3696 209.447586 
L 249.5184 208.86245 
L 249.816 209.165481 
L 249.9648 208.497694 
L 250.1136 208.648705 
L 250.2624 208.56033 
L 250.4112 208.711927 
L 250.7088 207.944821 
L 251.0064 208.277775 
L 251.304 207.698971 
L 251.6016 208.065183 
L 251.7504 207.265213 
L 251.8992 207.41608 
L 252.048 206.900467 
L 252.1968 207.051282 
L 252.3456 206.962973 
L 252.4944 207.114392 
L 252.6432 206.554635 
L 253.0896 206.680284 
L 253.2384 206.120816 
L 253.3872 206.101727 
L 253.536 206.315473 
L 253.6848 206.296254 
L 253.8336 205.668028 
L 253.9824 205.799517 
L 254.1312 205.303296 
L 254.28 205.215398 
L 254.7264 205.516887 
L 254.8752 204.85069 
L 255.024 205.000897 
L 255.1728 204.912797 
L 255.3216 204.354791 
L 255.6192 204.698828 
L 255.768 203.902549 
L 256.0656 204.202191 
L 256.2144 203.537913 
L 256.3632 203.687169 
L 256.512 203.599405 
L 256.8096 203.749303 
L 256.9584 203.191256 
L 257.256 203.384557 
L 257.4048 202.659072 
L 257.8512 202.86936 
L 258 202.355495 
L 258.2976 202.416923 
L 258.4464 201.860122 
L 258.744 202.052245 
L 258.8928 201.427113 
L 259.1904 201.408364 
L 259.3392 201.600024 
L 259.488 201.600024 
L 259.6368 201.043803 
L 259.7856 200.956795 
L 259.9344 201.104582 
L 260.0832 200.548941 
L 260.6784 200.652762 
L 260.8272 200.097644 
L 260.976 200.288191 
L 261.1248 199.568666 
L 261.2736 199.714585 
L 262.0176 199.317165 
L 262.1664 198.440432 
L 262.3152 198.440432 
L 262.6128 198.958835 
L 262.7616 198.242135 
L 262.9104 198.386805 
L 263.0592 198.300679 
L 263.3568 198.446017 
L 263.952 197.258945 
L 264.1008 197.424776 
L 264.3984 197.060566 
L 264.696 196.950339 
L 264.8448 196.308864 
L 265.2912 196.549506 
L 265.44 196.042892 
L 265.5888 196.024888 
L 265.7376 196.167254 
L 266.0352 196.14914 
L 266.184 195.53314 
L 266.3328 195.65686 
L 266.4816 195.010974 
L 266.6304 195.151379 
L 266.928 195.133509 
L 267.0768 194.642341 
L 267.3744 194.533652 
L 267.5232 193.897777 
L 267.8208 194.260858 
L 267.9696 194.260858 
L 268.1184 193.740268 
L 268.5648 193.553833 
L 268.7136 193.035999 
L 268.8624 193.035999 
L 269.0112 193.413847 
L 269.16 192.583102 
L 269.3088 192.476232 
L 269.4576 192.774847 
L 269.7552 192.774847 
L 269.904 192.1501 
L 270.0528 192.196101 
L 270.2016 192.089174 
L 270.3504 191.78719 
L 270.4992 191.78719 
L 270.648 191.949139 
L 270.7968 191.213694 
L 270.9456 191.107885 
L 271.392 191.313559 
L 271.5408 190.75819 
L 271.6896 190.891441 
L 271.8384 190.809483 
L 271.9872 190.272049 
L 272.4336 190.297592 
L 272.5824 189.76206 
L 272.88 189.859752 
L 273.0288 189.325017 
L 273.3264 189.308544 
L 273.4752 189.615447 
L 273.624 188.743353 
L 273.7728 188.784314 
L 274.0704 188.680504 
L 274.2192 188.985089 
L 274.368 188.291591 
L 274.5168 188.419397 
L 274.6656 187.746326 
L 274.9632 187.872525 
L 275.112 187.856454 
L 275.2608 187.312167 
L 275.4096 187.296316 
L 275.7072 187.405746 
L 275.856 186.878427 
L 276.1536 186.846918 
L 276.3024 186.971498 
L 276.4512 186.306504 
L 276.7488 186.413787 
L 276.8976 185.753284 
L 277.344 185.981105 
L 277.4928 185.322406 
L 277.6416 185.307203 
L 277.9392 185.412179 
L 278.088 184.892035 
L 278.3856 184.861828 
L 278.5344 184.981258 
L 278.6832 184.32941 
L 278.9808 184.432156 
L 279.1296 184.417177 
L 279.2784 183.900938 
L 279.576 183.871424 
L 279.7248 183.357891 
L 279.8736 183.343358 
L 280.0224 183.443711 
L 280.1712 182.803766 
L 280.4688 182.902505 
L 280.6176 182.888108 
L 280.7664 182.378751 
L 280.9152 182.364574 
L 281.2128 182.476787 
L 281.5104 181.653485 
L 281.6592 182.00806 
L 281.808 182.00806 
L 281.9568 181.407216 
L 282.2544 181.379601 
L 282.4032 180.877564 
L 282.7008 180.850422 
L 282.9984 180.957764 
L 283.1472 180.338078 
L 283.296 180.324751 
L 283.5936 180.416763 
L 283.7424 179.906189 
L 284.1888 179.87982 
L 284.3376 179.385808 
L 284.6352 179.359919 
L 284.784 178.869105 
L 285.0816 178.843708 
L 285.2304 178.343699 
L 285.6768 178.429786 
L 285.8256 177.822618 
L 286.272 177.906917 
L 286.4208 177.412553 
L 286.8672 177.388442 
L 287.016 177.483825 
L 287.1648 176.898027 
L 287.4624 176.979659 
L 287.6112 176.388046 
L 288.0576 176.46787 
L 288.2064 175.89398 
L 288.6528 175.960701 
L 288.8016 175.480511 
L 289.248 175.458233 
L 289.3968 174.896909 
L 289.8432 175.012622 
L 289.992 174.540452 
L 290.1408 174.540452 
L 290.2896 173.932969 
L 290.8848 173.993625 
L 291.0336 173.540757 
L 291.3312 173.470372 
L 291.48 173.058594 
L 291.9264 173.038896 
L 292.0752 172.585019 
L 292.5216 172.565847 
L 292.6704 172.116747 
L 292.968 172.098099 
L 293.1168 171.662956 
L 293.5632 171.644801 
L 293.712 171.205312 
L 294.1584 171.187679 
L 294.3072 170.686101 
L 294.6048 170.744697 
L 294.7536 170.736148 
L 294.9024 170.24178 
L 295.2 170.298599 
L 295.3488 169.803251 
L 295.7952 169.858297 
L 295.944 169.370618 
L 296.5392 169.416125 
L 296.688 168.979657 
L 296.9856 168.990501 
L 297.1344 168.525873 
L 297.7296 168.611001 
L 297.8784 168.155498 
L 298.3248 168.136917 
L 298.4736 167.744391 
L 299.0688 167.767408 
L 299.2176 167.380133 
L 299.664 167.364981 
L 299.8128 166.989953 
L 300.5568 166.971197 
L 300.7056 166.638745 
L 301.3008 166.583938 
L 301.4496 166.252844 
L 302.0448 166.241262 
L 302.1936 165.879608 
L 303.0864 165.910602 
L 303.2352 165.542494 
L 303.9792 165.541025 
L 304.128 165.180725 
L 305.0208 165.210898 
L 305.1696 164.824523 
L 305.9136 164.856579 
L 306.0624 164.478908 
L 307.104 164.538983 
L 307.2528 164.209068 
L 307.6992 164.204578 
L 308.1456 164.165233 
L 308.2944 163.875656 
L 309.336 163.899437 
L 309.4848 163.548566 
L 310.824 163.601647 
L 310.9728 163.228192 
L 311.568 163.286947 
L 312.0144 163.280482 
L 312.1632 163.280482 
L 312.312 162.979686 
L 313.6512 163.000144 
L 313.8 162.674295 
L 315.4368 162.692368 
L 315.5856 162.376363 
L 316.1808 162.400918 
L 317.2224 162.451239 
L 317.3712 162.142 
L 317.9664 162.138616 
L 319.1568 162.159204 
L 319.3056 161.885832 
L 321.3888 161.901118 
L 321.5376 161.610328 
L 322.2816 161.631807 
L 323.6208 161.649874 
L 323.7696 161.367581 
L 326.448 161.403836 
L 326.5968 161.15478 
L 327.192 161.150038 
L 329.2752 161.188954 
L 329.424 160.900723 
L 332.2512 160.932241 
L 332.4 160.699964 
L 333.144 160.675982 
L 334.3344 160.713551 
L 335.0784 160.7079 
L 335.376 160.707201 
L 335.5248 160.462015 
L 336.2688 160.481821 
L 337.0128 160.475665 
L 337.7568 160.49559 
L 338.5008 160.489497 
L 338.6496 160.51084 
L 338.7984 160.25437 
L 339.6912 160.272811 
L 341.7744 160.29994 
L 341.9232 160.3102 
L 342.072 160.074042 
L 345.6432 160.096567 
L 345.792 159.863234 
L 349.8096 159.902275 
L 350.1072 159.680704 
L 351.1488 159.69714 
L 352.7856 159.706741 
L 353.6784 159.688086 
L 354.1248 159.716485 
L 354.4224 159.508042 
L 355.464 159.523541 
L 358.5888 159.530501 
L 358.7376 159.360775 
L 363.4992 159.36586 
L 363.648 159.185813 
L 364.5408 159.206756 
L 368.856 159.204307 
L 369.1536 159.058486 
L 371.088 159.070159 
L 371.2368 46.439999 
L 373.9152 46.439999 
L 374.064 46.079997 
L 376.8912 46.079997 
L 377.04 45.720003 
L 379.1232 45.720003 
L 379.272 45.360001 
L 380.9088 45.360001 
L 381.0576 45 
L 382.5456 45 
L 382.6944 44.639999 
L 384.1824 44.639999 
L 384.3312 44.279997 
L 385.5216 44.279997 
L 385.6704 43.920003 
L 387.0096 43.920003 
L 387.1584 43.560001 
L 388.2 43.560001 
L 388.3488 43.2 
L 518.4 43.2 
L 518.4 43.2 
" style="fill:none;stroke:#000000;stroke-dasharray:6.000000,6.000000;stroke-dashoffset:0.0;"/>
   </g>
   <g id="patch_3">
    <path d="M 72 43.2 
L 518.4 43.2 
" style="fill:none;stroke:#000000;stroke-linecap:square;stroke-linejoin:miter;"/>
   </g>
   <g id="patch_4">
    <path d="M 518.4 388.8 
L 518.4 43.2 
" style="fill:none;stroke:#000000;stroke-linecap:square;stroke-linejoin:miter;"/>
   </g>
   <g id="patch_5">
    <path d="M 72 388.8 
L 518.4 388.8 
" style="fill:none;stroke:#000000;stroke-linecap:square;stroke-linejoin:miter;"/>
   </g>
   <g id="patch_6">
    <path d="M 72 388.8 
L 72 43.2 
" style="fill:none;stroke:#000000;stroke-linecap:square;stroke-linejoin:miter;"/>
   </g>
   <g id="matplotlib.axis_1">
    <g id="xtick_1">
     <g id="line2d_4">
      <path clip-path="url(#pcbb42088a9)" d="M 72 388.8 
L 72 43.2 
" style="fill:none;stroke:#000000;stroke-dasharray:1.000000,3.000000;stroke-dashoffset:0.0;stroke-width:0.5;"/>
     </g>
     <g id="line2d_5">
      <defs>
       <path d="M 0 0 
L 0 -4 
" id="m455e200920" style="stroke:#000000;stroke-width:0.5;"/>
      </defs>
      <g>
       <use style="stroke:#000000;stroke-width:0.5;" x="72.0" xlink:href="#m455e200920" y="388.8"/>
      </g>
     </g>
     <g id="line2d_6">
      <defs>
       <path d="M 0 0 
L 0 4 
" id="mb8beb0f8c1" style="stroke:#000000;stroke-width:0.5;"/>
      </defs>
      <g>
       <use style="stroke:#000000;stroke-width:0.5;" x="72.0" xlink:href="#mb8beb0f8c1" y="43.2"/>
      </g>
     </g>
     <g id="text_1">
      <!-- 0 -->
      <defs>
       <path d="M 31.78125 66.40625 
Q 24.171875 66.40625 20.328125 58.90625 
Q 16.5 51.421875 16.5 36.375 
Q 16.5 21.390625 20.328125 13.890625 
Q 24.171875 6.390625 31.78125 6.390625 
Q 39.453125 6.390625 43.28125 13.890625 
Q 47.125 21.390625 47.125 36.375 
Q 47.125 51.421875 43.28125 58.90625 
Q 39.453125 66.40625 31.78125 66.40625 
M 31.78125 74.21875 
Q 44.046875 74.21875 50.515625 64.515625 
Q 56.984375 54.828125 56.984375 36.375 
Q 56.984375 17.96875 50.515625 8.265625 
Q 44.046875 -1.421875 31.78125 -1.421875 
Q 19.53125 -1.421875 13.0625 8.265625 
Q 6.59375 17.96875 6.59375 36.375 
Q 6.59375 54.828125 13.0625 64.515625 
Q 19.53125 74.21875 31.78125 74.21875 
" id="BitstreamVeraSans-Roman-30"/>
      </defs>
      <g transform="translate(68.1825 401.918125)scale(0.12 -0.12)">
       <use xlink:href="#BitstreamVeraSans-Roman-30"/>
      </g>
     </g>
    </g>
    <g id="xtick_2">
     <g id="line2d_7">
      <path clip-path="url(#pcbb42088a9)" d="M 146.4 388.8 
L 146.4 43.2 
" style="fill:none;stroke:#000000;stroke-dasharray:1.000000,3.000000;stroke-dashoffset:0.0;stroke-width:0.5;"/>
     </g>
     <g id="line2d_8">
      <g>
       <use style="stroke:#000000;stroke-width:0.5;" x="146.4" xlink:href="#m455e200920" y="388.8"/>
      </g>
     </g>
     <g id="line2d_9">
      <g>
       <use style="stroke:#000000;stroke-width:0.5;" x="146.4" xlink:href="#mb8beb0f8c1" y="43.2"/>
      </g>
     </g>
     <g id="text_2">
      <!-- 5 -->
      <defs>
       <path d="M 10.796875 72.90625 
L 49.515625 72.90625 
L 49.515625 64.59375 
L 19.828125 64.59375 
L 19.828125 46.734375 
Q 21.96875 47.46875 24.109375 47.828125 
Q 26.265625 48.1875 28.421875 48.1875 
Q 40.625 48.1875 47.75 41.5 
Q 54.890625 34.8125 54.890625 23.390625 
Q 54.890625 11.625 47.5625 5.09375 
Q 40.234375 -1.421875 26.90625 -1.421875 
Q 22.3125 -1.421875 17.546875 -0.640625 
Q 12.796875 0.140625 7.71875 1.703125 
L 7.71875 11.625 
Q 12.109375 9.234375 16.796875 8.0625 
Q 21.484375 6.890625 26.703125 6.890625 
Q 35.15625 6.890625 40.078125 11.328125 
Q 45.015625 15.765625 45.015625 23.390625 
Q 45.015625 31 40.078125 35.4375 
Q 35.15625 39.890625 26.703125 39.890625 
Q 22.75 39.890625 18.8125 39.015625 
Q 14.890625 38.140625 10.796875 36.28125 
z
" id="BitstreamVeraSans-Roman-35"/>
      </defs>
      <g transform="translate(142.5825 401.918125)scale(0.12 -0.12)">
       <use xlink:href="#BitstreamVeraSans-Roman-35"/>
      </g>
     </g>
    </g>
    <g id="xtick_3">
     <g id="line2d_10">
      <path clip-path="url(#pcbb42088a9)" d="M 220.8 388.8 
L 220.8 43.2 
" style="fill:none;stroke:#000000;stroke-dasharray:1.000000,3.000000;stroke-dashoffset:0.0;stroke-width:0.5;"/>
     </g>
     <g id="line2d_11">
      <g>
       <use style="stroke:#000000;stroke-width:0.5;" x="220.8" xlink:href="#m455e200920" y="388.8"/>
      </g>
     </g>
     <g id="line2d_12">
      <g>
       <use style="stroke:#000000;stroke-width:0.5;" x="220.8" xlink:href="#mb8beb0f8c1" y="43.2"/>
      </g>
     </g>
     <g id="text_3">
      <!-- 10 -->
      <defs>
       <path d="M 12.40625 8.296875 
L 28.515625 8.296875 
L 28.515625 63.921875 
L 10.984375 60.40625 
L 10.984375 69.390625 
L 28.421875 72.90625 
L 38.28125 72.90625 
L 38.28125 8.296875 
L 54.390625 8.296875 
L 54.390625 0 
L 12.40625 0 
z
" id="BitstreamVeraSans-Roman-31"/>
      </defs>
      <g transform="translate(213.165 401.918125)scale(0.12 -0.12)">
       <use xlink:href="#BitstreamVeraSans-Roman-31"/>
       <use x="63.623046875" xlink:href="#BitstreamVeraSans-Roman-30"/>
      </g>
     </g>
    </g>
    <g id="xtick_4">
     <g id="line2d_13">
      <path clip-path="url(#pcbb42088a9)" d="M 295.2 388.8 
L 295.2 43.2 
" style="fill:none;stroke:#000000;stroke-dasharray:1.000000,3.000000;stroke-dashoffset:0.0;stroke-width:0.5;"/>
     </g>
     <g id="line2d_14">
      <g>
       <use style="stroke:#000000;stroke-width:0.5;" x="295.2" xlink:href="#m455e200920" y="388.8"/>
      </g>
     </g>
     <g id="line2d_15">
      <g>
       <use style="stroke:#000000;stroke-width:0.5;" x="295.2" xlink:href="#mb8beb0f8c1" y="43.2"/>
      </g>
     </g>
     <g id="text_4">
      <!-- 15 -->
      <g transform="translate(287.565 401.918125)scale(0.12 -0.12)">
       <use xlink:href="#BitstreamVeraSans-Roman-31"/>
       <use x="63.623046875" xlink:href="#BitstreamVeraSans-Roman-35"/>
      </g>
     </g>
    </g>
    <g id="xtick_5">
     <g id="line2d_16">
      <path clip-path="url(#pcbb42088a9)" d="M 369.6 388.8 
L 369.6 43.2 
" style="fill:none;stroke:#000000;stroke-dasharray:1.000000,3.000000;stroke-dashoffset:0.0;stroke-width:0.5;"/>
     </g>
     <g id="line2d_17">
      <g>
       <use style="stroke:#000000;stroke-width:0.5;" x="369.6" xlink:href="#m455e200920" y="388.8"/>
      </g>
     </g>
     <g id="line2d_18">
      <g>
       <use style="stroke:#000000;stroke-width:0.5;" x="369.6" xlink:href="#mb8beb0f8c1" y="43.2"/>
      </g>
     </g>
     <g id="text_5">
      <!-- 20 -->
      <defs>
       <path d="M 19.1875 8.296875 
L 53.609375 8.296875 
L 53.609375 0 
L 7.328125 0 
L 7.328125 8.296875 
Q 12.9375 14.109375 22.625 23.890625 
Q 32.328125 33.6875 34.8125 36.53125 
Q 39.546875 41.84375 41.421875 45.53125 
Q 43.3125 49.21875 43.3125 52.78125 
Q 43.3125 58.59375 39.234375 62.25 
Q 35.15625 65.921875 28.609375 65.921875 
Q 23.96875 65.921875 18.8125 64.3125 
Q 13.671875 62.703125 7.8125 59.421875 
L 7.8125 69.390625 
Q 13.765625 71.78125 18.9375 73 
Q 24.125 74.21875 28.421875 74.21875 
Q 39.75 74.21875 46.484375 68.546875 
Q 53.21875 62.890625 53.21875 53.421875 
Q 53.21875 48.921875 51.53125 44.890625 
Q 49.859375 40.875 45.40625 35.40625 
Q 44.1875 33.984375 37.640625 27.21875 
Q 31.109375 20.453125 19.1875 8.296875 
" id="BitstreamVeraSans-Roman-32"/>
      </defs>
      <g transform="translate(361.965 401.918125)scale(0.12 -0.12)">
       <use xlink:href="#BitstreamVeraSans-Roman-32"/>
       <use x="63.623046875" xlink:href="#BitstreamVeraSans-Roman-30"/>
      </g>
     </g>
    </g>
    <g id="xtick_6">
     <g id="line2d_19">
      <path clip-path="url(#pcbb42088a9)" d="M 444 388.8 
L 444 43.2 
" style="fill:none;stroke:#000000;stroke-dasharray:1.000000,3.000000;stroke-dashoffset:0.0;stroke-width:0.5;"/>
     </g>
     <g id="line2d_20">
      <g>
       <use style="stroke:#000000;stroke-width:0.5;" x="444.0" xlink:href="#m455e200920" y="388.8"/>
      </g>
     </g>
     <g id="line2d_21">
      <g>
       <use style="stroke:#000000;stroke-width:0.5;" x="444.0" xlink:href="#mb8beb0f8c1" y="43.2"/>
      </g>
     </g>
     <g id="text_6">
      <!-- 25 -->
      <g transform="translate(436.365 401.918125)scale(0.12 -0.12)">
       <use xlink:href="#BitstreamVeraSans-Roman-32"/>
       <use x="63.623046875" xlink:href="#BitstreamVeraSans-Roman-35"/>
      </g>
     </g>
    </g>
    <g id="xtick_7">
     <g id="line2d_22">
      <path clip-path="url(#pcbb42088a9)" d="M 518.4 388.8 
L 518.4 43.2 
" style="fill:none;stroke:#000000;stroke-dasharray:1.000000,3.000000;stroke-dashoffset:0.0;stroke-width:0.5;"/>
     </g>
     <g id="line2d_23">
      <g>
       <use style="stroke:#000000;stroke-width:0.5;" x="518.4" xlink:href="#m455e200920" y="388.8"/>
      </g>
     </g>
     <g id="line2d_24">
      <g>
       <use style="stroke:#000000;stroke-width:0.5;" x="518.4" xlink:href="#mb8beb0f8c1" y="43.2"/>
      </g>
     </g>
     <g id="text_7">
      <!-- 30 -->
      <defs>
       <path d="M 40.578125 39.3125 
Q 47.65625 37.796875 51.625 33 
Q 55.609375 28.21875 55.609375 21.1875 
Q 55.609375 10.40625 48.1875 4.484375 
Q 40.765625 -1.421875 27.09375 -1.421875 
Q 22.515625 -1.421875 17.65625 -0.515625 
Q 12.796875 0.390625 7.625 2.203125 
L 7.625 11.71875 
Q 11.71875 9.328125 16.59375 8.109375 
Q 21.484375 6.890625 26.8125 6.890625 
Q 36.078125 6.890625 40.9375 10.546875 
Q 45.796875 14.203125 45.796875 21.1875 
Q 45.796875 27.640625 41.28125 31.265625 
Q 36.765625 34.90625 28.71875 34.90625 
L 20.21875 34.90625 
L 20.21875 43.015625 
L 29.109375 43.015625 
Q 36.375 43.015625 40.234375 45.921875 
Q 44.09375 48.828125 44.09375 54.296875 
Q 44.09375 59.90625 40.109375 62.90625 
Q 36.140625 65.921875 28.71875 65.921875 
Q 24.65625 65.921875 20.015625 65.03125 
Q 15.375 64.15625 9.8125 62.3125 
L 9.8125 71.09375 
Q 15.4375 72.65625 20.34375 73.4375 
Q 25.25 74.21875 29.59375 74.21875 
Q 40.828125 74.21875 47.359375 69.109375 
Q 53.90625 64.015625 53.90625 55.328125 
Q 53.90625 49.265625 50.4375 45.09375 
Q 46.96875 40.921875 40.578125 39.3125 
" id="BitstreamVeraSans-Roman-33"/>
      </defs>
      <g transform="translate(510.765 401.918125)scale(0.12 -0.12)">
       <use xlink:href="#BitstreamVeraSans-Roman-33"/>
       <use x="63.623046875" xlink:href="#BitstreamVeraSans-Roman-30"/>
      </g>
     </g>
    </g>
    <g id="text_8">
     <!-- Time [s] -->
     <defs>
      <path id="BitstreamVeraSans-Roman-20"/>
      <path d="M 8.59375 75.984375 
L 29.296875 75.984375 
L 29.296875 69 
L 17.578125 69 
L 17.578125 -6.203125 
L 29.296875 -6.203125 
L 29.296875 -13.1875 
L 8.59375 -13.1875 
z
" id="BitstreamVeraSans-Roman-5b"/>
      <path d="M 30.421875 75.984375 
L 30.421875 -13.1875 
L 9.71875 -13.1875 
L 9.71875 -6.203125 
L 21.390625 -6.203125 
L 21.390625 69 
L 9.71875 69 
L 9.71875 75.984375 
z
" id="BitstreamVeraSans-Roman-5d"/>
      <path d="M 52 44.1875 
Q 55.375 50.25 60.0625 53.125 
Q 64.75 56 71.09375 56 
Q 79.640625 56 84.28125 50.015625 
Q 88.921875 44.046875 88.921875 33.015625 
L 88.921875 0 
L 79.890625 0 
L 79.890625 32.71875 
Q 79.890625 40.578125 77.09375 44.375 
Q 74.3125 48.1875 68.609375 48.1875 
Q 61.625 48.1875 57.5625 43.546875 
Q 53.515625 38.921875 53.515625 30.90625 
L 53.515625 0 
L 44.484375 0 
L 44.484375 32.71875 
Q 44.484375 40.625 41.703125 44.40625 
Q 38.921875 48.1875 33.109375 48.1875 
Q 26.21875 48.1875 22.15625 43.53125 
Q 18.109375 38.875 18.109375 30.90625 
L 18.109375 0 
L 9.078125 0 
L 9.078125 54.6875 
L 18.109375 54.6875 
L 18.109375 46.1875 
Q 21.1875 51.21875 25.484375 53.609375 
Q 29.78125 56 35.6875 56 
Q 41.65625 56 45.828125 52.96875 
Q 50 49.953125 52 44.1875 
" id="BitstreamVeraSans-Roman-6d"/>
      <path d="M 9.421875 54.6875 
L 18.40625 54.6875 
L 18.40625 0 
L 9.421875 0 
z
M 9.421875 75.984375 
L 18.40625 75.984375 
L 18.40625 64.59375 
L 9.421875 64.59375 
z
" id="BitstreamVeraSans-Roman-69"/>
      <path d="M 56.203125 29.59375 
L 56.203125 25.203125 
L 14.890625 25.203125 
Q 15.484375 15.921875 20.484375 11.0625 
Q 25.484375 6.203125 34.421875 6.203125 
Q 39.59375 6.203125 44.453125 7.46875 
Q 49.3125 8.734375 54.109375 11.28125 
L 54.109375 2.78125 
Q 49.265625 0.734375 44.1875 -0.34375 
Q 39.109375 -1.421875 33.890625 -1.421875 
Q 20.796875 -1.421875 13.15625 6.1875 
Q 5.515625 13.8125 5.515625 26.8125 
Q 5.515625 40.234375 12.765625 48.109375 
Q 20.015625 56 32.328125 56 
Q 43.359375 56 49.78125 48.890625 
Q 56.203125 41.796875 56.203125 29.59375 
M 47.21875 32.234375 
Q 47.125 39.59375 43.09375 43.984375 
Q 39.0625 48.390625 32.421875 48.390625 
Q 24.90625 48.390625 20.390625 44.140625 
Q 15.875 39.890625 15.1875 32.171875 
z
" id="BitstreamVeraSans-Roman-65"/>
      <path d="M -0.296875 72.90625 
L 61.375 72.90625 
L 61.375 64.59375 
L 35.5 64.59375 
L 35.5 0 
L 25.59375 0 
L 25.59375 64.59375 
L -0.296875 64.59375 
z
" id="BitstreamVeraSans-Roman-54"/>
      <path d="M 44.28125 53.078125 
L 44.28125 44.578125 
Q 40.484375 46.53125 36.375 47.5 
Q 32.28125 48.484375 27.875 48.484375 
Q 21.1875 48.484375 17.84375 46.4375 
Q 14.5 44.390625 14.5 40.28125 
Q 14.5 37.15625 16.890625 35.375 
Q 19.28125 33.59375 26.515625 31.984375 
L 29.59375 31.296875 
Q 39.15625 29.25 43.1875 25.515625 
Q 47.21875 21.78125 47.21875 15.09375 
Q 47.21875 7.46875 41.1875 3.015625 
Q 35.15625 -1.421875 24.609375 -1.421875 
Q 20.21875 -1.421875 15.453125 -0.5625 
Q 10.6875 0.296875 5.421875 2 
L 5.421875 11.28125 
Q 10.40625 8.6875 15.234375 7.390625 
Q 20.0625 6.109375 24.8125 6.109375 
Q 31.15625 6.109375 34.5625 8.28125 
Q 37.984375 10.453125 37.984375 14.40625 
Q 37.984375 18.0625 35.515625 20.015625 
Q 33.0625 21.96875 24.703125 23.78125 
L 21.578125 24.515625 
Q 13.234375 26.265625 9.515625 29.90625 
Q 5.8125 33.546875 5.8125 39.890625 
Q 5.8125 47.609375 11.28125 51.796875 
Q 16.75 56 26.8125 56 
Q 31.78125 56 36.171875 55.265625 
Q 40.578125 54.546875 44.28125 53.078125 
" id="BitstreamVeraSans-Roman-73"/>
     </defs>
     <g transform="translate(270.620625 418.531875)scale(0.12 -0.12)">
      <use xlink:href="#BitstreamVeraSans-Roman-54"/>
      <use x="61.037109375" xlink:href="#BitstreamVeraSans-Roman-69"/>
      <use x="88.8203125" xlink:href="#BitstreamVeraSans-Roman-6d"/>
      <use x="186.232421875" xlink:href="#BitstreamVeraSans-Roman-65"/>
      <use x="247.755859375" xlink:href="#BitstreamVeraSans-Roman-20"/>
      <use x="279.54296875" xlink:href="#BitstreamVeraSans-Roman-5b"/>
      <use x="318.556640625" xlink:href="#BitstreamVeraSans-Roman-73"/>
      <use x="370.65625" xlink:href="#BitstreamVeraSans-Roman-5d"/>
     </g>
    </g>
   </g>
   <g id="matplotlib.axis_2">
    <g id="ytick_1">
     <g id="line2d_25">
      <path clip-path="url(#pcbb42088a9)" d="M 72 388.8 
L 518.4 388.8 
" style="fill:none;stroke:#000000;stroke-dasharray:1.000000,3.000000;stroke-dashoffset:0.0;stroke-width:0.5;"/>
     </g>
     <g id="line2d_26">
      <defs>
       <path d="M 0 0 
L 4 0 
" id="md6fc57b69a" style="stroke:#000000;stroke-width:0.5;"/>
      </defs>
      <g>
       <use style="stroke:#000000;stroke-width:0.5;" x="72.0" xlink:href="#md6fc57b69a" y="388.8"/>
      </g>
     </g>
     <g id="line2d_27">
      <defs>
       <path d="M 0 0 
L -4 0 
" id="m8698b303a0" style="stroke:#000000;stroke-width:0.5;"/>
      </defs>
      <g>
       <use style="stroke:#000000;stroke-width:0.5;" x="518.4" xlink:href="#m8698b303a0" y="388.8"/>
      </g>
     </g>
     <g id="text_9">
      <!-- 2.0 -->
      <defs>
       <path d="M 10.59375 35.5 
L 73.1875 35.5 
L 73.1875 27.203125 
L 10.59375 27.203125 
z
" id="BitstreamVeraSans-Roman-2212"/>
       <path d="M 10.6875 12.40625 
L 21 12.40625 
L 21 0 
L 10.6875 0 
z
" id="BitstreamVeraSans-Roman-2e"/>
      </defs>
      <g transform="translate(38.860625 392.11125)scale(0.12 -0.12)">
       <use xlink:href="#BitstreamVeraSans-Roman-2212"/>
       <use x="83.7890625" xlink:href="#BitstreamVeraSans-Roman-32"/>
       <use x="147.412109375" xlink:href="#BitstreamVeraSans-Roman-2e"/>
       <use x="179.19921875" xlink:href="#BitstreamVeraSans-Roman-30"/>
      </g>
     </g>
    </g>
    <g id="ytick_2">
     <g id="line2d_28">
      <path clip-path="url(#pcbb42088a9)" d="M 72 331.2 
L 518.4 331.2 
" style="fill:none;stroke:#000000;stroke-dasharray:1.000000,3.000000;stroke-dashoffset:0.0;stroke-width:0.5;"/>
     </g>
     <g id="line2d_29">
      <g>
       <use style="stroke:#000000;stroke-width:0.5;" x="72.0" xlink:href="#md6fc57b69a" y="331.2"/>
      </g>
     </g>
     <g id="line2d_30">
      <g>
       <use style="stroke:#000000;stroke-width:0.5;" x="518.4" xlink:href="#m8698b303a0" y="331.2"/>
      </g>
     </g>
     <g id="text_10">
      <!-- 1.5 -->
      <g transform="translate(38.860625 334.51125)scale(0.12 -0.12)">
       <use xlink:href="#BitstreamVeraSans-Roman-2212"/>
       <use x="83.7890625" xlink:href="#BitstreamVeraSans-Roman-31"/>
       <use x="147.412109375" xlink:href="#BitstreamVeraSans-Roman-2e"/>
       <use x="179.19921875" xlink:href="#BitstreamVeraSans-Roman-35"/>
      </g>
     </g>
    </g>
    <g id="ytick_3">
     <g id="line2d_31">
      <path clip-path="url(#pcbb42088a9)" d="M 72 273.6 
L 518.4 273.6 
" style="fill:none;stroke:#000000;stroke-dasharray:1.000000,3.000000;stroke-dashoffset:0.0;stroke-width:0.5;"/>
     </g>
     <g id="line2d_32">
      <g>
       <use style="stroke:#000000;stroke-width:0.5;" x="72.0" xlink:href="#md6fc57b69a" y="273.6"/>
      </g>
     </g>
     <g id="line2d_33">
      <g>
       <use style="stroke:#000000;stroke-width:0.5;" x="518.4" xlink:href="#m8698b303a0" y="273.6"/>
      </g>
     </g>
     <g id="text_11">
      <!-- 1.0 -->
      <g transform="translate(38.860625 276.91125)scale(0.12 -0.12)">
       <use xlink:href="#BitstreamVeraSans-Roman-2212"/>
       <use x="83.7890625" xlink:href="#BitstreamVeraSans-Roman-31"/>
       <use x="147.412109375" xlink:href="#BitstreamVeraSans-Roman-2e"/>
       <use x="179.19921875" xlink:href="#BitstreamVeraSans-Roman-30"/>
      </g>
     </g>
    </g>
    <g id="ytick_4">
     <g id="line2d_34">
      <path clip-path="url(#pcbb42088a9)" d="M 72 216 
L 518.4 216 
" style="fill:none;stroke:#000000;stroke-dasharray:1.000000,3.000000;stroke-dashoffset:0.0;stroke-width:0.5;"/>
     </g>
     <g id="line2d_35">
      <g>
       <use style="stroke:#000000;stroke-width:0.5;" x="72.0" xlink:href="#md6fc57b69a" y="216.0"/>
      </g>
     </g>
     <g id="line2d_36">
      <g>
       <use style="stroke:#000000;stroke-width:0.5;" x="518.4" xlink:href="#m8698b303a0" y="216.0"/>
      </g>
     </g>
     <g id="text_12">
      <!-- 0.5 -->
      <g transform="translate(38.860625 219.31125)scale(0.12 -0.12)">
       <use xlink:href="#BitstreamVeraSans-Roman-2212"/>
       <use x="83.7890625" xlink:href="#BitstreamVeraSans-Roman-30"/>
       <use x="147.412109375" xlink:href="#BitstreamVeraSans-Roman-2e"/>
       <use x="179.19921875" xlink:href="#BitstreamVeraSans-Roman-35"/>
      </g>
     </g>
    </g>
    <g id="ytick_5">
     <g id="line2d_37">
      <path clip-path="url(#pcbb42088a9)" d="M 72 158.4 
L 518.4 158.4 
" style="fill:none;stroke:#000000;stroke-dasharray:1.000000,3.000000;stroke-dashoffset:0.0;stroke-width:0.5;"/>
     </g>
     <g id="line2d_38">
      <g>
       <use style="stroke:#000000;stroke-width:0.5;" x="72.0" xlink:href="#md6fc57b69a" y="158.4"/>
      </g>
     </g>
     <g id="line2d_39">
      <g>
       <use style="stroke:#000000;stroke-width:0.5;" x="518.4" xlink:href="#m8698b303a0" y="158.4"/>
      </g>
     </g>
     <g id="text_13">
      <!-- 0.0 -->
      <g transform="translate(48.91625 161.71125)scale(0.12 -0.12)">
       <use xlink:href="#BitstreamVeraSans-Roman-30"/>
       <use x="63.623046875" xlink:href="#BitstreamVeraSans-Roman-2e"/>
       <use x="95.41015625" xlink:href="#BitstreamVeraSans-Roman-30"/>
      </g>
     </g>
    </g>
    <g id="ytick_6">
     <g id="line2d_40">
      <path clip-path="url(#pcbb42088a9)" d="M 72 100.8 
L 518.4 100.8 
" style="fill:none;stroke:#000000;stroke-dasharray:1.000000,3.000000;stroke-dashoffset:0.0;stroke-width:0.5;"/>
     </g>
     <g id="line2d_41">
      <g>
       <use style="stroke:#000000;stroke-width:0.5;" x="72.0" xlink:href="#md6fc57b69a" y="100.8"/>
      </g>
     </g>
     <g id="line2d_42">
      <g>
       <use style="stroke:#000000;stroke-width:0.5;" x="518.4" xlink:href="#m8698b303a0" y="100.8"/>
      </g>
     </g>
     <g id="text_14">
      <!-- 0.5 -->
      <g transform="translate(48.91625 104.11125)scale(0.12 -0.12)">
       <use xlink:href="#BitstreamVeraSans-Roman-30"/>
       <use x="63.623046875" xlink:href="#BitstreamVeraSans-Roman-2e"/>
       <use x="95.41015625" xlink:href="#BitstreamVeraSans-Roman-35"/>
      </g>
     </g>
    </g>
    <g id="ytick_7">
     <g id="line2d_43">
      <path clip-path="url(#pcbb42088a9)" d="M 72 43.2 
L 518.4 43.2 
" style="fill:none;stroke:#000000;stroke-dasharray:1.000000,3.000000;stroke-dashoffset:0.0;stroke-width:0.5;"/>
     </g>
     <g id="line2d_44">
      <g>
       <use style="stroke:#000000;stroke-width:0.5;" x="72.0" xlink:href="#md6fc57b69a" y="43.2"/>
      </g>
     </g>
     <g id="line2d_45">
      <g>
       <use style="stroke:#000000;stroke-width:0.5;" x="518.4" xlink:href="#m8698b303a0" y="43.2"/>
      </g>
     </g>
     <g id="text_15">
      <!-- 1.0 -->
      <g transform="translate(48.91625 46.51125)scale(0.12 -0.12)">
       <use xlink:href="#BitstreamVeraSans-Roman-31"/>
       <use x="63.623046875" xlink:href="#BitstreamVeraSans-Roman-2e"/>
       <use x="95.41015625" xlink:href="#BitstreamVeraSans-Roman-30"/>
      </g>
     </g>
    </g>
    <g id="text_16">
     <!-- Acceleration [m/s^2] -->
     <defs>
      <path d="M 46.6875 72.90625 
L 73.1875 45.703125 
L 63.375 45.703125 
L 41.890625 64.984375 
L 20.40625 45.703125 
L 10.59375 45.703125 
L 37.109375 72.90625 
z
" id="BitstreamVeraSans-Roman-5e"/>
      <path d="M 54.890625 33.015625 
L 54.890625 0 
L 45.90625 0 
L 45.90625 32.71875 
Q 45.90625 40.484375 42.875 44.328125 
Q 39.84375 48.1875 33.796875 48.1875 
Q 26.515625 48.1875 22.3125 43.546875 
Q 18.109375 38.921875 18.109375 30.90625 
L 18.109375 0 
L 9.078125 0 
L 9.078125 54.6875 
L 18.109375 54.6875 
L 18.109375 46.1875 
Q 21.34375 51.125 25.703125 53.5625 
Q 30.078125 56 35.796875 56 
Q 45.21875 56 50.046875 50.171875 
Q 54.890625 44.34375 54.890625 33.015625 
" id="BitstreamVeraSans-Roman-6e"/>
      <path d="M 41.109375 46.296875 
Q 39.59375 47.171875 37.8125 47.578125 
Q 36.03125 48 33.890625 48 
Q 26.265625 48 22.1875 43.046875 
Q 18.109375 38.09375 18.109375 28.8125 
L 18.109375 0 
L 9.078125 0 
L 9.078125 54.6875 
L 18.109375 54.6875 
L 18.109375 46.1875 
Q 20.953125 51.171875 25.484375 53.578125 
Q 30.03125 56 36.53125 56 
Q 37.453125 56 38.578125 55.875 
Q 39.703125 55.765625 41.0625 55.515625 
z
" id="BitstreamVeraSans-Roman-72"/>
      <path d="M 30.609375 48.390625 
Q 23.390625 48.390625 19.1875 42.75 
Q 14.984375 37.109375 14.984375 27.296875 
Q 14.984375 17.484375 19.15625 11.84375 
Q 23.34375 6.203125 30.609375 6.203125 
Q 37.796875 6.203125 41.984375 11.859375 
Q 46.1875 17.53125 46.1875 27.296875 
Q 46.1875 37.015625 41.984375 42.703125 
Q 37.796875 48.390625 30.609375 48.390625 
M 30.609375 56 
Q 42.328125 56 49.015625 48.375 
Q 55.71875 40.765625 55.71875 27.296875 
Q 55.71875 13.875 49.015625 6.21875 
Q 42.328125 -1.421875 30.609375 -1.421875 
Q 18.84375 -1.421875 12.171875 6.21875 
Q 5.515625 13.875 5.515625 27.296875 
Q 5.515625 40.765625 12.171875 48.375 
Q 18.84375 56 30.609375 56 
" id="BitstreamVeraSans-Roman-6f"/>
      <path d="M 9.421875 75.984375 
L 18.40625 75.984375 
L 18.40625 0 
L 9.421875 0 
z
" id="BitstreamVeraSans-Roman-6c"/>
      <path d="M 34.1875 63.1875 
L 20.796875 26.90625 
L 47.609375 26.90625 
z
M 28.609375 72.90625 
L 39.796875 72.90625 
L 67.578125 0 
L 57.328125 0 
L 50.6875 18.703125 
L 17.828125 18.703125 
L 11.1875 0 
L 0.78125 0 
z
" id="BitstreamVeraSans-Roman-41"/>
      <path d="M 25.390625 72.90625 
L 33.6875 72.90625 
L 8.296875 -9.28125 
L 0 -9.28125 
z
" id="BitstreamVeraSans-Roman-2f"/>
      <path d="M 18.3125 70.21875 
L 18.3125 54.6875 
L 36.8125 54.6875 
L 36.8125 47.703125 
L 18.3125 47.703125 
L 18.3125 18.015625 
Q 18.3125 11.328125 20.140625 9.421875 
Q 21.96875 7.515625 27.59375 7.515625 
L 36.8125 7.515625 
L 36.8125 0 
L 27.59375 0 
Q 17.1875 0 13.234375 3.875 
Q 9.28125 7.765625 9.28125 18.015625 
L 9.28125 47.703125 
L 2.6875 47.703125 
L 2.6875 54.6875 
L 9.28125 54.6875 
L 9.28125 70.21875 
z
" id="BitstreamVeraSans-Roman-74"/>
      <path d="M 34.28125 27.484375 
Q 23.390625 27.484375 19.1875 25 
Q 14.984375 22.515625 14.984375 16.5 
Q 14.984375 11.71875 18.140625 8.90625 
Q 21.296875 6.109375 26.703125 6.109375 
Q 34.1875 6.109375 38.703125 11.40625 
Q 43.21875 16.703125 43.21875 25.484375 
L 43.21875 27.484375 
z
M 52.203125 31.203125 
L 52.203125 0 
L 43.21875 0 
L 43.21875 8.296875 
Q 40.140625 3.328125 35.546875 0.953125 
Q 30.953125 -1.421875 24.3125 -1.421875 
Q 15.921875 -1.421875 10.953125 3.296875 
Q 6 8.015625 6 15.921875 
Q 6 25.140625 12.171875 29.828125 
Q 18.359375 34.515625 30.609375 34.515625 
L 43.21875 34.515625 
L 43.21875 35.40625 
Q 43.21875 41.609375 39.140625 45 
Q 35.0625 48.390625 27.6875 48.390625 
Q 23 48.390625 18.546875 47.265625 
Q 14.109375 46.140625 10.015625 43.890625 
L 10.015625 52.203125 
Q 14.9375 54.109375 19.578125 55.046875 
Q 24.21875 56 28.609375 56 
Q 40.484375 56 46.34375 49.84375 
Q 52.203125 43.703125 52.203125 31.203125 
" id="BitstreamVeraSans-Roman-61"/>
      <path d="M 48.78125 52.59375 
L 48.78125 44.1875 
Q 44.96875 46.296875 41.140625 47.34375 
Q 37.3125 48.390625 33.40625 48.390625 
Q 24.65625 48.390625 19.8125 42.84375 
Q 14.984375 37.3125 14.984375 27.296875 
Q 14.984375 17.28125 19.8125 11.734375 
Q 24.65625 6.203125 33.40625 6.203125 
Q 37.3125 6.203125 41.140625 7.25 
Q 44.96875 8.296875 48.78125 10.40625 
L 48.78125 2.09375 
Q 45.015625 0.34375 40.984375 -0.53125 
Q 36.96875 -1.421875 32.421875 -1.421875 
Q 20.0625 -1.421875 12.78125 6.34375 
Q 5.515625 14.109375 5.515625 27.296875 
Q 5.515625 40.671875 12.859375 48.328125 
Q 20.21875 56 33.015625 56 
Q 37.15625 56 41.109375 55.140625 
Q 45.0625 54.296875 48.78125 52.59375 
" id="BitstreamVeraSans-Roman-63"/>
     </defs>
     <g transform="translate(31.365 279.81375)rotate(-90.0)scale(0.12 -0.12)">
      <use xlink:href="#BitstreamVeraSans-Roman-41"/>
      <use x="68.392578125" xlink:href="#BitstreamVeraSans-Roman-63"/>
      <use x="123.373046875" xlink:href="#BitstreamVeraSans-Roman-63"/>
      <use x="178.353515625" xlink:href="#BitstreamVeraSans-Roman-65"/>
      <use x="239.876953125" xlink:href="#BitstreamVeraSans-Roman-6c"/>
      <use x="267.66015625" xlink:href="#BitstreamVeraSans-Roman-65"/>
      <use x="329.18359375" xlink:href="#BitstreamVeraSans-Roman-72"/>
      <use x="370.296875" xlink:href="#BitstreamVeraSans-Roman-61"/>
      <use x="431.576171875" xlink:href="#BitstreamVeraSans-Roman-74"/>
      <use x="470.78515625" xlink:href="#BitstreamVeraSans-Roman-69"/>
      <use x="498.568359375" xlink:href="#BitstreamVeraSans-Roman-6f"/>
      <use x="559.75" xlink:href="#BitstreamVeraSans-Roman-6e"/>
      <use x="623.12890625" xlink:href="#BitstreamVeraSans-Roman-20"/>
      <use x="654.916015625" xlink:href="#BitstreamVeraSans-Roman-5b"/>
      <use x="693.9296875" xlink:href="#BitstreamVeraSans-Roman-6d"/>
      <use x="791.341796875" xlink:href="#BitstreamVeraSans-Roman-2f"/>
      <use x="825.033203125" xlink:href="#BitstreamVeraSans-Roman-73"/>
      <use x="877.1328125" xlink:href="#BitstreamVeraSans-Roman-5e"/>
      <use x="960.921875" xlink:href="#BitstreamVeraSans-Roman-32"/>
      <use x="1024.54492188" xlink:href="#BitstreamVeraSans-Roman-5d"/>
     </g>
    </g>
   </g>
   <g id="legend_1">
    <g id="patch_7">
     <path d="M 421.839 118.1295 
L 511.2 118.1295 
L 511.2 50.4 
L 421.839 50.4 
z
" style="fill:#ffffff;stroke:#000000;stroke-linejoin:miter;"/>
    </g>
    <g id="line2d_46">
     <path d="M 431.919 62.06175 
L 452.079 62.06175 
" style="fill:none;stroke:#008000;stroke-linecap:square;"/>
    </g>
    <g id="line2d_47"/>
    <g id="text_17">
     <!-- accel -->
     <g transform="translate(467.919 67.10175)scale(0.144 -0.144)">
      <use xlink:href="#BitstreamVeraSans-Roman-61"/>
      <use x="61.279296875" xlink:href="#BitstreamVeraSans-Roman-63"/>
      <use x="116.259765625" xlink:href="#BitstreamVeraSans-Roman-63"/>
      <use x="171.240234375" xlink:href="#BitstreamVeraSans-Roman-65"/>
      <use x="232.763671875" xlink:href="#BitstreamVeraSans-Roman-6c"/>
     </g>
    </g>
    <g id="line2d_48">
     <path d="M 431.919 83.19825 
L 452.079 83.19825 
" style="fill:none;stroke:#000000;stroke-dasharray:6.000000,6.000000;stroke-dashoffset:0.0;"/>
    </g>
    <g id="line2d_49"/>
    <g id="text_18">
     <!-- max -->
     <defs>
      <path d="M 54.890625 54.6875 
L 35.109375 28.078125 
L 55.90625 0 
L 45.3125 0 
L 29.390625 21.484375 
L 13.484375 0 
L 2.875 0 
L 24.125 28.609375 
L 4.6875 54.6875 
L 15.28125 54.6875 
L 29.78125 35.203125 
L 44.28125 54.6875 
z
" id="BitstreamVeraSans-Roman-78"/>
     </defs>
     <g transform="translate(467.919 88.23825)scale(0.144 -0.144)">
      <use xlink:href="#BitstreamVeraSans-Roman-6d"/>
      <use x="97.412109375" xlink:href="#BitstreamVeraSans-Roman-61"/>
      <use x="158.69140625" xlink:href="#BitstreamVeraSans-Roman-78"/>
     </g>
    </g>
    <g id="line2d_50">
     <path d="M 431.919 104.33475 
L 452.079 104.33475 
" style="fill:none;stroke:#000000;stroke-dasharray:6.000000,6.000000;stroke-dashoffset:0.0;"/>
    </g>
    <g id="line2d_51"/>
    <g id="text_19">
     <!-- min -->
     <g transform="translate(467.919 109.37475)scale(0.144 -0.144)">
      <use xlink:href="#BitstreamVeraSans-Roman-6d"/>
      <use x="97.412109375" xlink:href="#BitstreamVeraSans-Roman-69"/>
      <use x="125.1953125" xlink:href="#BitstreamVeraSans-Roman-6e"/>
     </g>
    </g>
   </g>
  </g>
 </g>
 <defs>
  <clipPath id="pcbb42088a9">
   <rect height="345.6" width="446.4" x="72.0" y="43.2"/>
  </clipPath>
 </defs>
</svg>
