<?xml version="1.0" encoding="utf-8" standalone="no"?>
<!DOCTYPE svg PUBLIC "-//W3C//DTD SVG 1.1//EN"
  "http://www.w3.org/Graphics/SVG/1.1/DTD/svg11.dtd">
<!-- Created with matplotlib (http://matplotlib.org/) -->
<svg height="432pt" version="1.1" viewBox="0 0 576 432" width="576pt" xmlns="http://www.w3.org/2000/svg" xmlns:xlink="http://www.w3.org/1999/xlink">
 <defs>
  <style type="text/css">
*{stroke-linecap:butt;stroke-linejoin:round;stroke-miterlimit:100000;}
  </style>
 </defs>
 <g id="figure_1">
  <g id="patch_1">
   <path d="M 0 432 
L 576 432 
L 576 0 
L 0 0 
z
" style="fill:#ffffff;"/>
  </g>
  <g id="axes_1">
   <g id="patch_2">
    <path d="M 72 388.8 
L 518.4 388.8 
L 518.4 43.2 
L 72 43.2 
z
" style="fill:#ffffff;"/>
   </g>
   <g id="line2d_1">
    <path clip-path="url(#paa52f34751)" d="M 72.1488 388.8 
L 518.4 388.8 
L 518.4 388.8 
" style="fill:none;stroke:#008000;stroke-linecap:square;"/>
   </g>
   <g id="line2d_2">
    <path clip-path="url(#paa52f34751)" d="M 72.1488 388.8 
L 94.6176 388.8 
L 94.7664 381.300004 
L 94.9152 381.300004 
L 95.2128 366.300012 
L 95.3616 366.300012 
L 95.5104 358.800015 
L 95.6592 358.800015 
L 95.808 351.300019 
L 95.9568 351.300019 
L 96.1056 343.800023 
L 96.2544 343.800023 
L 96.4032 336.300027 
L 96.552 336.300027 
L 96.7008 328.800031 
L 96.8496 328.800031 
L 97.1472 312.300039 
L 97.296 312.300039 
L 97.4448 304.800043 
L 97.5936 304.800043 
L 97.7424 297.300047 
L 97.8912 297.300047 
L 98.04 289.800051 
L 98.1888 289.800051 
L 98.4864 274.800058 
L 98.6352 274.800058 
L 99.3792 235.800078 
L 99.528 235.800078 
L 99.8256 225.300084 
L 99.9744 225.300084 
L 100.7184 211.800091 
L 100.8672 211.800091 
L 101.016 208.800092 
L 101.1648 208.800092 
L 101.3136 207.300093 
L 101.6112 199.800097 
L 101.76 199.800097 
L 101.9088 198.300098 
L 102.0576 198.300098 
L 102.2064 193.8001 
L 102.3552 193.8001 
L 102.504 192.300101 
L 102.6528 192.300101 
L 102.8016 189.300102 
L 102.9504 189.300102 
L 103.0992 187.800103 
L 103.248 187.800103 
L 103.3968 184.800104 
L 103.5456 184.800104 
L 103.6944 183.300105 
L 103.8432 183.300105 
L 104.1408 177.300108 
L 104.2896 177.300108 
L 104.4384 174.30011 
L 104.5872 174.30011 
L 104.736 172.800111 
L 104.8848 169.800112 
L 105.0336 169.800112 
L 105.3312 163.800115 
L 105.48 163.800115 
L 105.7776 159.300118 
L 105.9264 159.300118 
L 106.224 151.800121 
L 106.3728 151.800121 
L 106.8192 144.300125 
L 107.1168 144.300125 
L 107.2656 141.300127 
L 107.4144 141.300127 
L 107.5632 139.800127 
L 107.712 139.800127 
L 107.8608 138.300128 
L 108.0096 138.300128 
L 108.1584 136.800129 
L 108.3072 136.800129 
L 108.456 133.800131 
L 109.0512 133.800131 
L 109.2 132.300131 
L 109.3488 132.300131 
L 109.4976 130.800132 
L 109.6464 130.800132 
L 109.7952 129.300133 
L 110.3904 129.300133 
L 110.5392 127.800134 
L 110.688 127.800134 
L 110.8368 124.800135 
L 110.9856 124.800135 
L 111.1344 123.300136 
L 111.2832 123.300136 
L 111.432 121.800137 
L 111.5808 118.800138 
L 111.7296 118.800138 
L 111.8784 117.300139 
L 112.0272 117.300139 
L 112.3248 111.300142 
L 112.4736 111.300142 
L 112.7712 108.300144 
L 112.92 108.300144 
L 113.0688 105.300145 
L 113.2176 105.300145 
L 113.3664 103.800146 
L 113.5152 103.800146 
L 113.664 102.300147 
L 113.8128 102.300147 
L 113.9616 100.800147 
L 114.1104 100.800147 
L 114.2592 99.300148 
L 114.8544 99.300148 
L 115.0032 97.800149 
L 115.152 97.800149 
L 115.3008 96.30015 
L 115.4496 96.30015 
L 115.5984 94.800151 
L 116.4912 94.800151 
L 116.64 93.300151 
L 116.7888 93.300151 
L 116.9376 91.800152 
L 117.0864 88.800154 
L 117.2352 88.800154 
L 117.384 87.300154 
L 117.5328 87.300154 
L 117.6816 85.800155 
L 117.8304 82.800157 
L 117.9792 82.800157 
L 118.2768 79.800158 
L 118.4256 76.80016 
L 118.5744 76.80016 
L 118.7232 73.800161 
L 118.872 73.800161 
L 119.0208 72.300162 
L 119.9136 72.300162 
L 120.0624 70.800163 
L 120.5088 70.800163 
L 120.6576 69.300164 
L 120.8064 69.300164 
L 120.9552 67.800164 
L 121.4016 67.800164 
L 121.5504 66.300165 
L 121.6992 66.300165 
L 121.848 64.800166 
L 122.2944 64.800166 
L 122.4432 63.300167 
L 123.6336 63.300167 
L 123.7824 61.800167 
L 123.9312 61.800167 
L 124.08 60.300168 
L 124.5264 60.300168 
L 124.6752 58.800169 
L 126.1632 58.800169 
L 126.312 57.30017 
L 129.4368 57.30017 
L 129.5856 55.80017 
L 132.264 55.80017 
L 132.4128 54.300171 
L 132.8592 54.300171 
L 133.008 52.800172 
L 135.984 52.800172 
L 136.1328 51.300173 
L 140.2992 51.300173 
L 140.448 52.800172 
L 141.3408 52.800172 
L 141.4896 55.80017 
L 141.7872 55.80017 
L 141.936 57.30017 
L 142.9776 57.30017 
L 143.1264 58.800169 
L 145.3584 58.800169 
L 145.5072 61.800167 
L 146.1024 61.800167 
L 146.2512 64.800166 
L 146.8464 64.800166 
L 146.9952 67.800164 
L 147.5904 67.800164 
L 147.7392 70.800163 
L 148.0368 70.800163 
L 148.1856 73.800161 
L 148.7808 73.800161 
L 148.9296 76.80016 
L 149.5248 76.80016 
L 149.6736 81.300157 
L 150.2688 81.300157 
L 150.4176 82.800157 
L 150.5664 82.800157 
L 150.7152 84.300156 
L 151.7568 84.300156 
L 151.9056 85.800155 
L 152.0544 85.800155 
L 152.2032 87.300154 
L 152.352 87.300154 
L 152.5008 88.800154 
L 152.9472 88.800154 
L 153.096 90.300153 
L 153.2448 90.300153 
L 153.3936 91.800152 
L 153.5424 91.800152 
L 153.6912 93.300151 
L 154.1376 93.300151 
L 154.2864 94.800151 
L 154.7328 94.800151 
L 155.0304 97.800149 
L 155.328 97.800149 
L 155.4768 99.300148 
L 155.6256 99.300148 
L 155.7744 100.800147 
L 156.2208 100.800147 
L 156.3696 102.300147 
L 156.5184 102.300147 
L 156.6672 103.800146 
L 157.1136 103.800146 
L 157.2624 105.300145 
L 157.7088 105.300145 
L 157.8576 106.800144 
L 158.304 106.800144 
L 158.4528 108.300144 
L 158.6016 108.300144 
L 158.7504 109.800143 
L 158.8992 109.800143 
L 159.048 111.300142 
L 159.4944 111.300142 
L 159.6432 112.800141 
L 160.0896 112.800141 
L 160.2384 114.300141 
L 160.6848 114.300141 
L 160.8336 115.80014 
L 160.9824 115.80014 
L 161.1312 117.300139 
L 161.5776 117.300139 
L 161.7264 118.800138 
L 161.8752 118.800138 
L 162.024 120.300137 
L 162.4704 120.300137 
L 162.6192 121.800137 
L 162.768 121.800137 
L 162.9168 123.300136 
L 163.3632 123.300136 
L 163.512 124.800135 
L 163.6608 124.800135 
L 163.8096 126.300134 
L 164.256 126.300134 
L 164.4048 127.800134 
L 164.8512 127.800134 
L 165 129.300133 
L 165.4464 129.300133 
L 165.5952 130.800132 
L 166.0416 130.800132 
L 166.1904 132.300131 
L 166.3392 132.300131 
L 166.488 133.800131 
L 166.9344 133.800131 
L 167.0832 135.30013 
L 167.5296 135.30013 
L 167.6784 136.800129 
L 167.8272 136.800129 
L 167.976 138.300128 
L 168.72 138.300128 
L 168.8688 139.800127 
L 169.3152 139.800127 
L 169.464 141.300127 
L 169.6128 141.300127 
L 169.7616 142.800126 
L 170.5056 142.800126 
L 170.6544 144.300125 
L 170.8032 144.300125 
L 170.952 145.800124 
L 171.3984 145.800124 
L 171.5472 147.300124 
L 172.2912 147.300124 
L 172.44 148.800123 
L 172.5888 148.800123 
L 172.7376 150.300122 
L 173.184 150.300122 
L 173.3328 151.800121 
L 174.0768 151.800121 
L 174.2256 153.300121 
L 174.3744 153.300121 
L 174.5232 154.80012 
L 175.2672 154.80012 
L 175.416 156.300119 
L 175.8624 156.300119 
L 176.0112 157.800118 
L 176.4576 157.800118 
L 176.6064 159.300118 
L 177.0528 159.300118 
L 177.2016 160.800117 
L 177.648 160.800117 
L 177.7968 162.300116 
L 178.2432 162.300116 
L 178.392 163.800115 
L 178.8384 163.800115 
L 178.9872 165.300114 
L 180.3264 165.300114 
L 180.4752 166.800114 
L 180.9216 166.800114 
L 181.0704 168.300113 
L 181.5168 168.300113 
L 181.6656 169.800112 
L 182.112 169.800112 
L 182.2608 171.300111 
L 183.0048 171.300111 
L 183.1536 172.800111 
L 183.6 172.800111 
L 183.7488 174.30011 
L 183.8976 174.30011 
L 184.0464 175.800109 
L 184.4928 175.800109 
L 184.6416 177.300108 
L 185.3856 177.300108 
L 185.5344 178.800108 
L 186.2784 178.800108 
L 186.4272 180.300107 
L 187.4688 180.300107 
L 187.6176 181.800106 
L 188.3616 181.800106 
L 188.5104 183.300105 
L 189.2544 183.300105 
L 189.4032 184.800104 
L 190.1472 184.800104 
L 190.296 186.300104 
L 190.4448 186.300104 
L 190.5936 187.800103 
L 191.3376 187.800103 
L 191.4864 189.300102 
L 192.528 189.300102 
L 192.6768 190.800101 
L 193.4208 190.800101 
L 193.5696 192.300101 
L 194.3136 192.300101 
L 194.4624 193.8001 
L 195.2064 193.8001 
L 195.3552 195.300099 
L 196.6944 195.300099 
L 196.8432 196.800098 
L 197.2896 196.800098 
L 197.4384 198.300098 
L 198.9264 198.300098 
L 199.0752 201.300096 
L 200.2656 201.300096 
L 200.4144 202.800095 
L 201.1584 202.800095 
L 201.3072 204.300094 
L 202.944 204.300094 
L 203.0928 205.800094 
L 203.8368 205.800094 
L 203.9856 207.300093 
L 205.3248 207.300093 
L 205.4736 208.800092 
L 206.5152 208.800092 
L 206.664 210.300091 
L 208.0032 210.300091 
L 208.152 211.800091 
L 208.896 211.800091 
L 209.0448 213.30009 
L 211.2768 213.30009 
L 211.4256 214.800089 
L 213.0624 214.800089 
L 213.2112 216.300088 
L 213.9552 216.300088 
L 214.104 217.800088 
L 216.336 217.800088 
L 216.4848 219.300087 
L 218.7168 219.300087 
L 218.8656 220.800086 
L 219.0144 220.800086 
L 219.1632 222.300085 
L 221.6928 222.300085 
L 221.8416 223.800084 
L 223.6272 223.800084 
L 223.776 225.300084 
L 226.1568 225.300084 
L 226.3056 226.800083 
L 228.6864 226.800083 
L 228.8352 228.300082 
L 231.5136 228.300082 
L 231.6624 229.800081 
L 234.3408 229.800081 
L 234.4896 231.300081 
L 236.5728 231.300081 
L 236.7216 232.80008 
L 239.4 232.80008 
L 239.5488 234.300079 
L 243.2688 234.300079 
L 243.4176 235.800078 
L 246.6912 235.800078 
L 246.84 237.300078 
L 254.28 237.300078 
L 254.4288 238.800077 
L 261.72 238.800077 
L 261.8688 240.300076 
L 264.1008 240.300076 
L 264.2496 241.800075 
L 266.928 241.800075 
L 267.0768 243.300074 
L 269.6064 243.300074 
L 269.7552 244.800074 
L 271.392 244.800074 
L 271.5408 246.300073 
L 273.4752 246.300073 
L 273.624 247.800072 
L 274.9632 247.800072 
L 275.112 249.300071 
L 290.1408 249.300071 
L 290.2896 247.800072 
L 292.5216 247.800072 
L 292.6704 246.300073 
L 296.688 246.300073 
L 296.8368 249.300071 
L 297.2832 249.300071 
L 297.432 250.800071 
L 298.176 250.800071 
L 298.3248 253.800069 
L 299.0688 253.800069 
L 299.2176 255.300068 
L 300.2592 255.300068 
L 300.408 256.800068 
L 300.5568 256.800068 
L 300.7056 258.300067 
L 301.152 258.300067 
L 301.3008 259.800066 
L 303.5328 259.800066 
L 303.6816 261.300065 
L 304.4256 261.300065 
L 304.5744 262.800065 
L 306.2112 262.800065 
L 306.36 264.300064 
L 307.9968 264.300064 
L 308.1456 265.800063 
L 309.7824 265.800063 
L 309.9312 267.300062 
L 313.3536 267.300062 
L 313.5024 268.800061 
L 324.3648 268.800061 
L 324.5136 267.300062 
L 326.1504 267.300062 
L 326.2992 265.800063 
L 328.8288 265.800063 
L 328.9776 264.300064 
L 330.3168 264.300064 
L 330.4656 262.800065 
L 331.8048 262.800065 
L 331.9536 261.300065 
L 335.0784 261.300065 
L 335.2272 258.300067 
L 338.352 258.300067 
L 338.5008 256.800068 
L 339.9888 256.800068 
L 340.1376 255.300068 
L 341.7744 255.300068 
L 341.9232 253.800069 
L 343.7088 253.800069 
L 343.8576 252.30007 
L 347.5776 252.30007 
L 347.7264 250.800071 
L 349.8096 250.800071 
L 349.9584 249.300071 
L 351.8928 249.300071 
L 352.0416 247.800072 
L 356.208 247.800072 
L 356.3568 246.300073 
L 356.5056 246.300073 
L 356.6544 244.800074 
L 361.416 244.800074 
L 361.5648 243.300074 
L 361.7136 243.300074 
L 361.8624 241.800075 
L 366.7728 241.800075 
L 366.9216 238.800077 
L 371.6832 238.800077 
L 371.832 235.800078 
L 371.9808 235.800078 
L 372.1296 234.300079 
L 372.2784 234.300079 
L 372.4272 232.80008 
L 372.576 232.80008 
L 372.7248 231.300081 
L 372.8736 231.300081 
L 373.0224 229.800081 
L 373.1712 229.800081 
L 373.32 228.300082 
L 373.4688 228.300082 
L 373.6176 226.800083 
L 373.7664 226.800083 
L 373.9152 225.300084 
L 374.064 225.300084 
L 374.2128 223.800084 
L 374.3616 223.800084 
L 374.6592 220.800086 
L 374.808 220.800086 
L 374.9568 219.300087 
L 375.1056 219.300087 
L 375.2544 217.800088 
L 375.4032 217.800088 
L 375.552 216.300088 
L 375.7008 216.300088 
L 375.8496 214.800089 
L 375.9984 214.800089 
L 376.1472 213.30009 
L 376.296 213.30009 
L 376.4448 211.800091 
L 376.5936 211.800091 
L 376.7424 210.300091 
L 376.8912 210.300091 
L 377.1888 207.300093 
L 377.3376 207.300093 
L 377.4864 205.800094 
L 377.6352 205.800094 
L 377.784 204.300094 
L 377.9328 204.300094 
L 378.0816 202.800095 
L 378.2304 202.800095 
L 378.3792 201.300096 
L 378.528 201.300096 
L 378.6768 199.800097 
L 378.8256 199.800097 
L 378.9744 198.300098 
L 379.1232 198.300098 
L 379.272 196.800098 
L 379.4208 196.800098 
L 379.5696 195.300099 
L 379.7184 195.300099 
L 379.8672 193.8001 
L 380.016 193.8001 
L 380.1648 192.300101 
L 380.3136 192.300101 
L 380.4624 190.800101 
L 380.6112 190.800101 
L 380.76 189.300102 
L 380.9088 189.300102 
L 381.0576 187.800103 
L 381.2064 187.800103 
L 381.3552 186.300104 
L 381.504 186.300104 
L 381.6528 184.800104 
L 381.8016 184.800104 
L 381.9504 181.800106 
L 382.0992 181.800106 
L 382.248 180.300107 
L 382.3968 180.300107 
L 382.5456 178.800108 
L 382.6944 178.800108 
L 382.8432 177.300108 
L 382.992 177.300108 
L 383.1408 175.800109 
L 383.2896 175.800109 
L 383.4384 174.30011 
L 383.5872 174.30011 
L 383.736 172.800111 
L 384.0336 172.800111 
L 384.1824 171.300111 
L 384.3312 171.300111 
L 384.48 169.800112 
L 384.6288 169.800112 
L 384.9264 166.800114 
L 385.0752 166.800114 
L 385.224 165.300114 
L 385.3728 165.300114 
L 385.5216 163.800115 
L 385.8192 163.800115 
L 385.968 162.300116 
L 386.1168 162.300116 
L 386.2656 160.800117 
L 386.4144 160.800117 
L 386.5632 159.300118 
L 386.712 159.300118 
L 386.8608 157.800118 
L 387.0096 157.800118 
L 387.3072 154.80012 
L 387.456 154.80012 
L 387.6048 153.300121 
L 387.7536 153.300121 
L 387.9024 151.800121 
L 388.0512 151.800121 
L 388.2 150.300122 
L 388.3488 150.300122 
L 388.4976 148.800123 
L 388.6464 148.800123 
L 388.7952 147.300124 
L 388.944 147.300124 
L 389.0928 145.800124 
L 389.3904 145.800124 
L 389.5392 144.300125 
L 389.688 144.300125 
L 389.8368 142.800126 
L 518.4 142.800126 
L 518.4 142.800126 
" style="fill:none;stroke:#ff0000;stroke-linecap:square;"/>
   </g>
   <g id="patch_3">
    <path d="M 72 43.2 
L 518.4 43.2 
" style="fill:none;stroke:#000000;stroke-linecap:square;stroke-linejoin:miter;"/>
   </g>
   <g id="patch_4">
    <path d="M 518.4 388.8 
L 518.4 43.2 
" style="fill:none;stroke:#000000;stroke-linecap:square;stroke-linejoin:miter;"/>
   </g>
   <g id="patch_5">
    <path d="M 72 388.8 
L 518.4 388.8 
" style="fill:none;stroke:#000000;stroke-linecap:square;stroke-linejoin:miter;"/>
   </g>
   <g id="patch_6">
    <path d="M 72 388.8 
L 72 43.2 
" style="fill:none;stroke:#000000;stroke-linecap:square;stroke-linejoin:miter;"/>
   </g>
   <g id="matplotlib.axis_1">
    <g id="xtick_1">
     <g id="line2d_3">
      <path clip-path="url(#paa52f34751)" d="M 72 388.8 
L 72 43.2 
" style="fill:none;stroke:#000000;stroke-dasharray:1.000000,3.000000;stroke-dashoffset:0.0;stroke-width:0.5;"/>
     </g>
     <g id="line2d_4">
      <defs>
       <path d="M 0 0 
L 0 -4 
" id="m118ec81bd6" style="stroke:#000000;stroke-width:0.5;"/>
      </defs>
      <g>
       <use style="stroke:#000000;stroke-width:0.5;" x="72.0" xlink:href="#m118ec81bd6" y="388.8"/>
      </g>
     </g>
     <g id="line2d_5">
      <defs>
       <path d="M 0 0 
L 0 4 
" id="mde71e2ade4" style="stroke:#000000;stroke-width:0.5;"/>
      </defs>
      <g>
       <use style="stroke:#000000;stroke-width:0.5;" x="72.0" xlink:href="#mde71e2ade4" y="43.2"/>
      </g>
     </g>
     <g id="text_1">
      <!-- 0 -->
      <defs>
       <path d="M 31.78125 66.40625 
Q 24.171875 66.40625 20.328125 58.90625 
Q 16.5 51.421875 16.5 36.375 
Q 16.5 21.390625 20.328125 13.890625 
Q 24.171875 6.390625 31.78125 6.390625 
Q 39.453125 6.390625 43.28125 13.890625 
Q 47.125 21.390625 47.125 36.375 
Q 47.125 51.421875 43.28125 58.90625 
Q 39.453125 66.40625 31.78125 66.40625 
M 31.78125 74.21875 
Q 44.046875 74.21875 50.515625 64.515625 
Q 56.984375 54.828125 56.984375 36.375 
Q 56.984375 17.96875 50.515625 8.265625 
Q 44.046875 -1.421875 31.78125 -1.421875 
Q 19.53125 -1.421875 13.0625 8.265625 
Q 6.59375 17.96875 6.59375 36.375 
Q 6.59375 54.828125 13.0625 64.515625 
Q 19.53125 74.21875 31.78125 74.21875 
" id="BitstreamVeraSans-Roman-30"/>
      </defs>
      <g transform="translate(68.1825 401.918125)scale(0.12 -0.12)">
       <use xlink:href="#BitstreamVeraSans-Roman-30"/>
      </g>
     </g>
    </g>
    <g id="xtick_2">
     <g id="line2d_6">
      <path clip-path="url(#paa52f34751)" d="M 146.4 388.8 
L 146.4 43.2 
" style="fill:none;stroke:#000000;stroke-dasharray:1.000000,3.000000;stroke-dashoffset:0.0;stroke-width:0.5;"/>
     </g>
     <g id="line2d_7">
      <g>
       <use style="stroke:#000000;stroke-width:0.5;" x="146.4" xlink:href="#m118ec81bd6" y="388.8"/>
      </g>
     </g>
     <g id="line2d_8">
      <g>
       <use style="stroke:#000000;stroke-width:0.5;" x="146.4" xlink:href="#mde71e2ade4" y="43.2"/>
      </g>
     </g>
     <g id="text_2">
      <!-- 5 -->
      <defs>
       <path d="M 10.796875 72.90625 
L 49.515625 72.90625 
L 49.515625 64.59375 
L 19.828125 64.59375 
L 19.828125 46.734375 
Q 21.96875 47.46875 24.109375 47.828125 
Q 26.265625 48.1875 28.421875 48.1875 
Q 40.625 48.1875 47.75 41.5 
Q 54.890625 34.8125 54.890625 23.390625 
Q 54.890625 11.625 47.5625 5.09375 
Q 40.234375 -1.421875 26.90625 -1.421875 
Q 22.3125 -1.421875 17.546875 -0.640625 
Q 12.796875 0.140625 7.71875 1.703125 
L 7.71875 11.625 
Q 12.109375 9.234375 16.796875 8.0625 
Q 21.484375 6.890625 26.703125 6.890625 
Q 35.15625 6.890625 40.078125 11.328125 
Q 45.015625 15.765625 45.015625 23.390625 
Q 45.015625 31 40.078125 35.4375 
Q 35.15625 39.890625 26.703125 39.890625 
Q 22.75 39.890625 18.8125 39.015625 
Q 14.890625 38.140625 10.796875 36.28125 
z
" id="BitstreamVeraSans-Roman-35"/>
      </defs>
      <g transform="translate(142.5825 401.918125)scale(0.12 -0.12)">
       <use xlink:href="#BitstreamVeraSans-Roman-35"/>
      </g>
     </g>
    </g>
    <g id="xtick_3">
     <g id="line2d_9">
      <path clip-path="url(#paa52f34751)" d="M 220.8 388.8 
L 220.8 43.2 
" style="fill:none;stroke:#000000;stroke-dasharray:1.000000,3.000000;stroke-dashoffset:0.0;stroke-width:0.5;"/>
     </g>
     <g id="line2d_10">
      <g>
       <use style="stroke:#000000;stroke-width:0.5;" x="220.8" xlink:href="#m118ec81bd6" y="388.8"/>
      </g>
     </g>
     <g id="line2d_11">
      <g>
       <use style="stroke:#000000;stroke-width:0.5;" x="220.8" xlink:href="#mde71e2ade4" y="43.2"/>
      </g>
     </g>
     <g id="text_3">
      <!-- 10 -->
      <defs>
       <path d="M 12.40625 8.296875 
L 28.515625 8.296875 
L 28.515625 63.921875 
L 10.984375 60.40625 
L 10.984375 69.390625 
L 28.421875 72.90625 
L 38.28125 72.90625 
L 38.28125 8.296875 
L 54.390625 8.296875 
L 54.390625 0 
L 12.40625 0 
z
" id="BitstreamVeraSans-Roman-31"/>
      </defs>
      <g transform="translate(213.165 401.918125)scale(0.12 -0.12)">
       <use xlink:href="#BitstreamVeraSans-Roman-31"/>
       <use x="63.623046875" xlink:href="#BitstreamVeraSans-Roman-30"/>
      </g>
     </g>
    </g>
    <g id="xtick_4">
     <g id="line2d_12">
      <path clip-path="url(#paa52f34751)" d="M 295.2 388.8 
L 295.2 43.2 
" style="fill:none;stroke:#000000;stroke-dasharray:1.000000,3.000000;stroke-dashoffset:0.0;stroke-width:0.5;"/>
     </g>
     <g id="line2d_13">
      <g>
       <use style="stroke:#000000;stroke-width:0.5;" x="295.2" xlink:href="#m118ec81bd6" y="388.8"/>
      </g>
     </g>
     <g id="line2d_14">
      <g>
       <use style="stroke:#000000;stroke-width:0.5;" x="295.2" xlink:href="#mde71e2ade4" y="43.2"/>
      </g>
     </g>
     <g id="text_4">
      <!-- 15 -->
      <g transform="translate(287.565 401.918125)scale(0.12 -0.12)">
       <use xlink:href="#BitstreamVeraSans-Roman-31"/>
       <use x="63.623046875" xlink:href="#BitstreamVeraSans-Roman-35"/>
      </g>
     </g>
    </g>
    <g id="xtick_5">
     <g id="line2d_15">
      <path clip-path="url(#paa52f34751)" d="M 369.6 388.8 
L 369.6 43.2 
" style="fill:none;stroke:#000000;stroke-dasharray:1.000000,3.000000;stroke-dashoffset:0.0;stroke-width:0.5;"/>
     </g>
     <g id="line2d_16">
      <g>
       <use style="stroke:#000000;stroke-width:0.5;" x="369.6" xlink:href="#m118ec81bd6" y="388.8"/>
      </g>
     </g>
     <g id="line2d_17">
      <g>
       <use style="stroke:#000000;stroke-width:0.5;" x="369.6" xlink:href="#mde71e2ade4" y="43.2"/>
      </g>
     </g>
     <g id="text_5">
      <!-- 20 -->
      <defs>
       <path d="M 19.1875 8.296875 
L 53.609375 8.296875 
L 53.609375 0 
L 7.328125 0 
L 7.328125 8.296875 
Q 12.9375 14.109375 22.625 23.890625 
Q 32.328125 33.6875 34.8125 36.53125 
Q 39.546875 41.84375 41.421875 45.53125 
Q 43.3125 49.21875 43.3125 52.78125 
Q 43.3125 58.59375 39.234375 62.25 
Q 35.15625 65.921875 28.609375 65.921875 
Q 23.96875 65.921875 18.8125 64.3125 
Q 13.671875 62.703125 7.8125 59.421875 
L 7.8125 69.390625 
Q 13.765625 71.78125 18.9375 73 
Q 24.125 74.21875 28.421875 74.21875 
Q 39.75 74.21875 46.484375 68.546875 
Q 53.21875 62.890625 53.21875 53.421875 
Q 53.21875 48.921875 51.53125 44.890625 
Q 49.859375 40.875 45.40625 35.40625 
Q 44.1875 33.984375 37.640625 27.21875 
Q 31.109375 20.453125 19.1875 8.296875 
" id="BitstreamVeraSans-Roman-32"/>
      </defs>
      <g transform="translate(361.965 401.918125)scale(0.12 -0.12)">
       <use xlink:href="#BitstreamVeraSans-Roman-32"/>
       <use x="63.623046875" xlink:href="#BitstreamVeraSans-Roman-30"/>
      </g>
     </g>
    </g>
    <g id="xtick_6">
     <g id="line2d_18">
      <path clip-path="url(#paa52f34751)" d="M 444 388.8 
L 444 43.2 
" style="fill:none;stroke:#000000;stroke-dasharray:1.000000,3.000000;stroke-dashoffset:0.0;stroke-width:0.5;"/>
     </g>
     <g id="line2d_19">
      <g>
       <use style="stroke:#000000;stroke-width:0.5;" x="444.0" xlink:href="#m118ec81bd6" y="388.8"/>
      </g>
     </g>
     <g id="line2d_20">
      <g>
       <use style="stroke:#000000;stroke-width:0.5;" x="444.0" xlink:href="#mde71e2ade4" y="43.2"/>
      </g>
     </g>
     <g id="text_6">
      <!-- 25 -->
      <g transform="translate(436.365 401.918125)scale(0.12 -0.12)">
       <use xlink:href="#BitstreamVeraSans-Roman-32"/>
       <use x="63.623046875" xlink:href="#BitstreamVeraSans-Roman-35"/>
      </g>
     </g>
    </g>
    <g id="xtick_7">
     <g id="line2d_21">
      <path clip-path="url(#paa52f34751)" d="M 518.4 388.8 
L 518.4 43.2 
" style="fill:none;stroke:#000000;stroke-dasharray:1.000000,3.000000;stroke-dashoffset:0.0;stroke-width:0.5;"/>
     </g>
     <g id="line2d_22">
      <g>
       <use style="stroke:#000000;stroke-width:0.5;" x="518.4" xlink:href="#m118ec81bd6" y="388.8"/>
      </g>
     </g>
     <g id="line2d_23">
      <g>
       <use style="stroke:#000000;stroke-width:0.5;" x="518.4" xlink:href="#mde71e2ade4" y="43.2"/>
      </g>
     </g>
     <g id="text_7">
      <!-- 30 -->
      <defs>
       <path d="M 40.578125 39.3125 
Q 47.65625 37.796875 51.625 33 
Q 55.609375 28.21875 55.609375 21.1875 
Q 55.609375 10.40625 48.1875 4.484375 
Q 40.765625 -1.421875 27.09375 -1.421875 
Q 22.515625 -1.421875 17.65625 -0.515625 
Q 12.796875 0.390625 7.625 2.203125 
L 7.625 11.71875 
Q 11.71875 9.328125 16.59375 8.109375 
Q 21.484375 6.890625 26.8125 6.890625 
Q 36.078125 6.890625 40.9375 10.546875 
Q 45.796875 14.203125 45.796875 21.1875 
Q 45.796875 27.640625 41.28125 31.265625 
Q 36.765625 34.90625 28.71875 34.90625 
L 20.21875 34.90625 
L 20.21875 43.015625 
L 29.109375 43.015625 
Q 36.375 43.015625 40.234375 45.921875 
Q 44.09375 48.828125 44.09375 54.296875 
Q 44.09375 59.90625 40.109375 62.90625 
Q 36.140625 65.921875 28.71875 65.921875 
Q 24.65625 65.921875 20.015625 65.03125 
Q 15.375 64.15625 9.8125 62.3125 
L 9.8125 71.09375 
Q 15.4375 72.65625 20.34375 73.4375 
Q 25.25 74.21875 29.59375 74.21875 
Q 40.828125 74.21875 47.359375 69.109375 
Q 53.90625 64.015625 53.90625 55.328125 
Q 53.90625 49.265625 50.4375 45.09375 
Q 46.96875 40.921875 40.578125 39.3125 
" id="BitstreamVeraSans-Roman-33"/>
      </defs>
      <g transform="translate(510.765 401.918125)scale(0.12 -0.12)">
       <use xlink:href="#BitstreamVeraSans-Roman-33"/>
       <use x="63.623046875" xlink:href="#BitstreamVeraSans-Roman-30"/>
      </g>
     </g>
    </g>
    <g id="text_8">
     <!-- Time [s] -->
     <defs>
      <path id="BitstreamVeraSans-Roman-20"/>
      <path d="M 8.59375 75.984375 
L 29.296875 75.984375 
L 29.296875 69 
L 17.578125 69 
L 17.578125 -6.203125 
L 29.296875 -6.203125 
L 29.296875 -13.1875 
L 8.59375 -13.1875 
z
" id="BitstreamVeraSans-Roman-5b"/>
      <path d="M 30.421875 75.984375 
L 30.421875 -13.1875 
L 9.71875 -13.1875 
L 9.71875 -6.203125 
L 21.390625 -6.203125 
L 21.390625 69 
L 9.71875 69 
L 9.71875 75.984375 
z
" id="BitstreamVeraSans-Roman-5d"/>
      <path d="M 52 44.1875 
Q 55.375 50.25 60.0625 53.125 
Q 64.75 56 71.09375 56 
Q 79.640625 56 84.28125 50.015625 
Q 88.921875 44.046875 88.921875 33.015625 
L 88.921875 0 
L 79.890625 0 
L 79.890625 32.71875 
Q 79.890625 40.578125 77.09375 44.375 
Q 74.3125 48.1875 68.609375 48.1875 
Q 61.625 48.1875 57.5625 43.546875 
Q 53.515625 38.921875 53.515625 30.90625 
L 53.515625 0 
L 44.484375 0 
L 44.484375 32.71875 
Q 44.484375 40.625 41.703125 44.40625 
Q 38.921875 48.1875 33.109375 48.1875 
Q 26.21875 48.1875 22.15625 43.53125 
Q 18.109375 38.875 18.109375 30.90625 
L 18.109375 0 
L 9.078125 0 
L 9.078125 54.6875 
L 18.109375 54.6875 
L 18.109375 46.1875 
Q 21.1875 51.21875 25.484375 53.609375 
Q 29.78125 56 35.6875 56 
Q 41.65625 56 45.828125 52.96875 
Q 50 49.953125 52 44.1875 
" id="BitstreamVeraSans-Roman-6d"/>
      <path d="M 9.421875 54.6875 
L 18.40625 54.6875 
L 18.40625 0 
L 9.421875 0 
z
M 9.421875 75.984375 
L 18.40625 75.984375 
L 18.40625 64.59375 
L 9.421875 64.59375 
z
" id="BitstreamVeraSans-Roman-69"/>
      <path d="M 56.203125 29.59375 
L 56.203125 25.203125 
L 14.890625 25.203125 
Q 15.484375 15.921875 20.484375 11.0625 
Q 25.484375 6.203125 34.421875 6.203125 
Q 39.59375 6.203125 44.453125 7.46875 
Q 49.3125 8.734375 54.109375 11.28125 
L 54.109375 2.78125 
Q 49.265625 0.734375 44.1875 -0.34375 
Q 39.109375 -1.421875 33.890625 -1.421875 
Q 20.796875 -1.421875 13.15625 6.1875 
Q 5.515625 13.8125 5.515625 26.8125 
Q 5.515625 40.234375 12.765625 48.109375 
Q 20.015625 56 32.328125 56 
Q 43.359375 56 49.78125 48.890625 
Q 56.203125 41.796875 56.203125 29.59375 
M 47.21875 32.234375 
Q 47.125 39.59375 43.09375 43.984375 
Q 39.0625 48.390625 32.421875 48.390625 
Q 24.90625 48.390625 20.390625 44.140625 
Q 15.875 39.890625 15.1875 32.171875 
z
" id="BitstreamVeraSans-Roman-65"/>
      <path d="M -0.296875 72.90625 
L 61.375 72.90625 
L 61.375 64.59375 
L 35.5 64.59375 
L 35.5 0 
L 25.59375 0 
L 25.59375 64.59375 
L -0.296875 64.59375 
z
" id="BitstreamVeraSans-Roman-54"/>
      <path d="M 44.28125 53.078125 
L 44.28125 44.578125 
Q 40.484375 46.53125 36.375 47.5 
Q 32.28125 48.484375 27.875 48.484375 
Q 21.1875 48.484375 17.84375 46.4375 
Q 14.5 44.390625 14.5 40.28125 
Q 14.5 37.15625 16.890625 35.375 
Q 19.28125 33.59375 26.515625 31.984375 
L 29.59375 31.296875 
Q 39.15625 29.25 43.1875 25.515625 
Q 47.21875 21.78125 47.21875 15.09375 
Q 47.21875 7.46875 41.1875 3.015625 
Q 35.15625 -1.421875 24.609375 -1.421875 
Q 20.21875 -1.421875 15.453125 -0.5625 
Q 10.6875 0.296875 5.421875 2 
L 5.421875 11.28125 
Q 10.40625 8.6875 15.234375 7.390625 
Q 20.0625 6.109375 24.8125 6.109375 
Q 31.15625 6.109375 34.5625 8.28125 
Q 37.984375 10.453125 37.984375 14.40625 
Q 37.984375 18.0625 35.515625 20.015625 
Q 33.0625 21.96875 24.703125 23.78125 
L 21.578125 24.515625 
Q 13.234375 26.265625 9.515625 29.90625 
Q 5.8125 33.546875 5.8125 39.890625 
Q 5.8125 47.609375 11.28125 51.796875 
Q 16.75 56 26.8125 56 
Q 31.78125 56 36.171875 55.265625 
Q 40.578125 54.546875 44.28125 53.078125 
" id="BitstreamVeraSans-Roman-73"/>
     </defs>
     <g transform="translate(270.620625 418.531875)scale(0.12 -0.12)">
      <use xlink:href="#BitstreamVeraSans-Roman-54"/>
      <use x="61.037109375" xlink:href="#BitstreamVeraSans-Roman-69"/>
      <use x="88.8203125" xlink:href="#BitstreamVeraSans-Roman-6d"/>
      <use x="186.232421875" xlink:href="#BitstreamVeraSans-Roman-65"/>
      <use x="247.755859375" xlink:href="#BitstreamVeraSans-Roman-20"/>
      <use x="279.54296875" xlink:href="#BitstreamVeraSans-Roman-5b"/>
      <use x="318.556640625" xlink:href="#BitstreamVeraSans-Roman-73"/>
      <use x="370.65625" xlink:href="#BitstreamVeraSans-Roman-5d"/>
     </g>
    </g>
   </g>
   <g id="matplotlib.axis_2">
    <g id="ytick_1">
     <g id="line2d_24">
      <path clip-path="url(#paa52f34751)" d="M 72 388.8 
L 518.4 388.8 
" style="fill:none;stroke:#000000;stroke-dasharray:1.000000,3.000000;stroke-dashoffset:0.0;stroke-width:0.5;"/>
     </g>
     <g id="line2d_25">
      <defs>
       <path d="M 0 0 
L 4 0 
" id="meb25ceefd0" style="stroke:#000000;stroke-width:0.5;"/>
      </defs>
      <g>
       <use style="stroke:#000000;stroke-width:0.5;" x="72.0" xlink:href="#meb25ceefd0" y="388.8"/>
      </g>
     </g>
     <g id="line2d_26">
      <defs>
       <path d="M 0 0 
L -4 0 
" id="m08b2a16443" style="stroke:#000000;stroke-width:0.5;"/>
      </defs>
      <g>
       <use style="stroke:#000000;stroke-width:0.5;" x="518.4" xlink:href="#m08b2a16443" y="388.8"/>
      </g>
     </g>
     <g id="text_9">
      <!-- 0.0 -->
      <defs>
       <path d="M 10.6875 12.40625 
L 21 12.40625 
L 21 0 
L 10.6875 0 
z
" id="BitstreamVeraSans-Roman-2e"/>
      </defs>
      <g transform="translate(48.91625 392.11125)scale(0.12 -0.12)">
       <use xlink:href="#BitstreamVeraSans-Roman-30"/>
       <use x="63.623046875" xlink:href="#BitstreamVeraSans-Roman-2e"/>
       <use x="95.41015625" xlink:href="#BitstreamVeraSans-Roman-30"/>
      </g>
     </g>
    </g>
    <g id="ytick_2">
     <g id="line2d_27">
      <path clip-path="url(#paa52f34751)" d="M 72 350.4 
L 518.4 350.4 
" style="fill:none;stroke:#000000;stroke-dasharray:1.000000,3.000000;stroke-dashoffset:0.0;stroke-width:0.5;"/>
     </g>
     <g id="line2d_28">
      <g>
       <use style="stroke:#000000;stroke-width:0.5;" x="72.0" xlink:href="#meb25ceefd0" y="350.4"/>
      </g>
     </g>
     <g id="line2d_29">
      <g>
       <use style="stroke:#000000;stroke-width:0.5;" x="518.4" xlink:href="#m08b2a16443" y="350.4"/>
      </g>
     </g>
     <g id="text_10">
      <!-- 0.1 -->
      <g transform="translate(48.91625 353.71125)scale(0.12 -0.12)">
       <use xlink:href="#BitstreamVeraSans-Roman-30"/>
       <use x="63.623046875" xlink:href="#BitstreamVeraSans-Roman-2e"/>
       <use x="95.41015625" xlink:href="#BitstreamVeraSans-Roman-31"/>
      </g>
     </g>
    </g>
    <g id="ytick_3">
     <g id="line2d_30">
      <path clip-path="url(#paa52f34751)" d="M 72 312 
L 518.4 312 
" style="fill:none;stroke:#000000;stroke-dasharray:1.000000,3.000000;stroke-dashoffset:0.0;stroke-width:0.5;"/>
     </g>
     <g id="line2d_31">
      <g>
       <use style="stroke:#000000;stroke-width:0.5;" x="72.0" xlink:href="#meb25ceefd0" y="312.0"/>
      </g>
     </g>
     <g id="line2d_32">
      <g>
       <use style="stroke:#000000;stroke-width:0.5;" x="518.4" xlink:href="#m08b2a16443" y="312.0"/>
      </g>
     </g>
     <g id="text_11">
      <!-- 0.2 -->
      <g transform="translate(48.91625 315.31125)scale(0.12 -0.12)">
       <use xlink:href="#BitstreamVeraSans-Roman-30"/>
       <use x="63.623046875" xlink:href="#BitstreamVeraSans-Roman-2e"/>
       <use x="95.41015625" xlink:href="#BitstreamVeraSans-Roman-32"/>
      </g>
     </g>
    </g>
    <g id="ytick_4">
     <g id="line2d_33">
      <path clip-path="url(#paa52f34751)" d="M 72 273.6 
L 518.4 273.6 
" style="fill:none;stroke:#000000;stroke-dasharray:1.000000,3.000000;stroke-dashoffset:0.0;stroke-width:0.5;"/>
     </g>
     <g id="line2d_34">
      <g>
       <use style="stroke:#000000;stroke-width:0.5;" x="72.0" xlink:href="#meb25ceefd0" y="273.6"/>
      </g>
     </g>
     <g id="line2d_35">
      <g>
       <use style="stroke:#000000;stroke-width:0.5;" x="518.4" xlink:href="#m08b2a16443" y="273.6"/>
      </g>
     </g>
     <g id="text_12">
      <!-- 0.3 -->
      <g transform="translate(48.91625 276.91125)scale(0.12 -0.12)">
       <use xlink:href="#BitstreamVeraSans-Roman-30"/>
       <use x="63.623046875" xlink:href="#BitstreamVeraSans-Roman-2e"/>
       <use x="95.41015625" xlink:href="#BitstreamVeraSans-Roman-33"/>
      </g>
     </g>
    </g>
    <g id="ytick_5">
     <g id="line2d_36">
      <path clip-path="url(#paa52f34751)" d="M 72 235.2 
L 518.4 235.2 
" style="fill:none;stroke:#000000;stroke-dasharray:1.000000,3.000000;stroke-dashoffset:0.0;stroke-width:0.5;"/>
     </g>
     <g id="line2d_37">
      <g>
       <use style="stroke:#000000;stroke-width:0.5;" x="72.0" xlink:href="#meb25ceefd0" y="235.2"/>
      </g>
     </g>
     <g id="line2d_38">
      <g>
       <use style="stroke:#000000;stroke-width:0.5;" x="518.4" xlink:href="#m08b2a16443" y="235.2"/>
      </g>
     </g>
     <g id="text_13">
      <!-- 0.4 -->
      <defs>
       <path d="M 37.796875 64.3125 
L 12.890625 25.390625 
L 37.796875 25.390625 
z
M 35.203125 72.90625 
L 47.609375 72.90625 
L 47.609375 25.390625 
L 58.015625 25.390625 
L 58.015625 17.1875 
L 47.609375 17.1875 
L 47.609375 0 
L 37.796875 0 
L 37.796875 17.1875 
L 4.890625 17.1875 
L 4.890625 26.703125 
z
" id="BitstreamVeraSans-Roman-34"/>
      </defs>
      <g transform="translate(48.91625 238.51125)scale(0.12 -0.12)">
       <use xlink:href="#BitstreamVeraSans-Roman-30"/>
       <use x="63.623046875" xlink:href="#BitstreamVeraSans-Roman-2e"/>
       <use x="95.41015625" xlink:href="#BitstreamVeraSans-Roman-34"/>
      </g>
     </g>
    </g>
    <g id="ytick_6">
     <g id="line2d_39">
      <path clip-path="url(#paa52f34751)" d="M 72 196.8 
L 518.4 196.8 
" style="fill:none;stroke:#000000;stroke-dasharray:1.000000,3.000000;stroke-dashoffset:0.0;stroke-width:0.5;"/>
     </g>
     <g id="line2d_40">
      <g>
       <use style="stroke:#000000;stroke-width:0.5;" x="72.0" xlink:href="#meb25ceefd0" y="196.8"/>
      </g>
     </g>
     <g id="line2d_41">
      <g>
       <use style="stroke:#000000;stroke-width:0.5;" x="518.4" xlink:href="#m08b2a16443" y="196.8"/>
      </g>
     </g>
     <g id="text_14">
      <!-- 0.5 -->
      <g transform="translate(48.91625 200.11125)scale(0.12 -0.12)">
       <use xlink:href="#BitstreamVeraSans-Roman-30"/>
       <use x="63.623046875" xlink:href="#BitstreamVeraSans-Roman-2e"/>
       <use x="95.41015625" xlink:href="#BitstreamVeraSans-Roman-35"/>
      </g>
     </g>
    </g>
    <g id="ytick_7">
     <g id="line2d_42">
      <path clip-path="url(#paa52f34751)" d="M 72 158.4 
L 518.4 158.4 
" style="fill:none;stroke:#000000;stroke-dasharray:1.000000,3.000000;stroke-dashoffset:0.0;stroke-width:0.5;"/>
     </g>
     <g id="line2d_43">
      <g>
       <use style="stroke:#000000;stroke-width:0.5;" x="72.0" xlink:href="#meb25ceefd0" y="158.4"/>
      </g>
     </g>
     <g id="line2d_44">
      <g>
       <use style="stroke:#000000;stroke-width:0.5;" x="518.4" xlink:href="#m08b2a16443" y="158.4"/>
      </g>
     </g>
     <g id="text_15">
      <!-- 0.6 -->
      <defs>
       <path d="M 33.015625 40.375 
Q 26.375 40.375 22.484375 35.828125 
Q 18.609375 31.296875 18.609375 23.390625 
Q 18.609375 15.53125 22.484375 10.953125 
Q 26.375 6.390625 33.015625 6.390625 
Q 39.65625 6.390625 43.53125 10.953125 
Q 47.40625 15.53125 47.40625 23.390625 
Q 47.40625 31.296875 43.53125 35.828125 
Q 39.65625 40.375 33.015625 40.375 
M 52.59375 71.296875 
L 52.59375 62.3125 
Q 48.875 64.0625 45.09375 64.984375 
Q 41.3125 65.921875 37.59375 65.921875 
Q 27.828125 65.921875 22.671875 59.328125 
Q 17.53125 52.734375 16.796875 39.40625 
Q 19.671875 43.65625 24.015625 45.921875 
Q 28.375 48.1875 33.59375 48.1875 
Q 44.578125 48.1875 50.953125 41.515625 
Q 57.328125 34.859375 57.328125 23.390625 
Q 57.328125 12.15625 50.6875 5.359375 
Q 44.046875 -1.421875 33.015625 -1.421875 
Q 20.359375 -1.421875 13.671875 8.265625 
Q 6.984375 17.96875 6.984375 36.375 
Q 6.984375 53.65625 15.1875 63.9375 
Q 23.390625 74.21875 37.203125 74.21875 
Q 40.921875 74.21875 44.703125 73.484375 
Q 48.484375 72.75 52.59375 71.296875 
" id="BitstreamVeraSans-Roman-36"/>
      </defs>
      <g transform="translate(48.91625 161.71125)scale(0.12 -0.12)">
       <use xlink:href="#BitstreamVeraSans-Roman-30"/>
       <use x="63.623046875" xlink:href="#BitstreamVeraSans-Roman-2e"/>
       <use x="95.41015625" xlink:href="#BitstreamVeraSans-Roman-36"/>
      </g>
     </g>
    </g>
    <g id="ytick_8">
     <g id="line2d_45">
      <path clip-path="url(#paa52f34751)" d="M 72 120 
L 518.4 120 
" style="fill:none;stroke:#000000;stroke-dasharray:1.000000,3.000000;stroke-dashoffset:0.0;stroke-width:0.5;"/>
     </g>
     <g id="line2d_46">
      <g>
       <use style="stroke:#000000;stroke-width:0.5;" x="72.0" xlink:href="#meb25ceefd0" y="120.0"/>
      </g>
     </g>
     <g id="line2d_47">
      <g>
       <use style="stroke:#000000;stroke-width:0.5;" x="518.4" xlink:href="#m08b2a16443" y="120.0"/>
      </g>
     </g>
     <g id="text_16">
      <!-- 0.7 -->
      <defs>
       <path d="M 8.203125 72.90625 
L 55.078125 72.90625 
L 55.078125 68.703125 
L 28.609375 0 
L 18.3125 0 
L 43.21875 64.59375 
L 8.203125 64.59375 
z
" id="BitstreamVeraSans-Roman-37"/>
      </defs>
      <g transform="translate(48.91625 123.31125)scale(0.12 -0.12)">
       <use xlink:href="#BitstreamVeraSans-Roman-30"/>
       <use x="63.623046875" xlink:href="#BitstreamVeraSans-Roman-2e"/>
       <use x="95.41015625" xlink:href="#BitstreamVeraSans-Roman-37"/>
      </g>
     </g>
    </g>
    <g id="ytick_9">
     <g id="line2d_48">
      <path clip-path="url(#paa52f34751)" d="M 72 81.6 
L 518.4 81.6 
" style="fill:none;stroke:#000000;stroke-dasharray:1.000000,3.000000;stroke-dashoffset:0.0;stroke-width:0.5;"/>
     </g>
     <g id="line2d_49">
      <g>
       <use style="stroke:#000000;stroke-width:0.5;" x="72.0" xlink:href="#meb25ceefd0" y="81.6"/>
      </g>
     </g>
     <g id="line2d_50">
      <g>
       <use style="stroke:#000000;stroke-width:0.5;" x="518.4" xlink:href="#m08b2a16443" y="81.6"/>
      </g>
     </g>
     <g id="text_17">
      <!-- 0.8 -->
      <defs>
       <path d="M 31.78125 34.625 
Q 24.75 34.625 20.71875 30.859375 
Q 16.703125 27.09375 16.703125 20.515625 
Q 16.703125 13.921875 20.71875 10.15625 
Q 24.75 6.390625 31.78125 6.390625 
Q 38.8125 6.390625 42.859375 10.171875 
Q 46.921875 13.96875 46.921875 20.515625 
Q 46.921875 27.09375 42.890625 30.859375 
Q 38.875 34.625 31.78125 34.625 
M 21.921875 38.8125 
Q 15.578125 40.375 12.03125 44.71875 
Q 8.5 49.078125 8.5 55.328125 
Q 8.5 64.0625 14.71875 69.140625 
Q 20.953125 74.21875 31.78125 74.21875 
Q 42.671875 74.21875 48.875 69.140625 
Q 55.078125 64.0625 55.078125 55.328125 
Q 55.078125 49.078125 51.53125 44.71875 
Q 48 40.375 41.703125 38.8125 
Q 48.828125 37.15625 52.796875 32.3125 
Q 56.78125 27.484375 56.78125 20.515625 
Q 56.78125 9.90625 50.3125 4.234375 
Q 43.84375 -1.421875 31.78125 -1.421875 
Q 19.734375 -1.421875 13.25 4.234375 
Q 6.78125 9.90625 6.78125 20.515625 
Q 6.78125 27.484375 10.78125 32.3125 
Q 14.796875 37.15625 21.921875 38.8125 
M 18.3125 54.390625 
Q 18.3125 48.734375 21.84375 45.5625 
Q 25.390625 42.390625 31.78125 42.390625 
Q 38.140625 42.390625 41.71875 45.5625 
Q 45.3125 48.734375 45.3125 54.390625 
Q 45.3125 60.0625 41.71875 63.234375 
Q 38.140625 66.40625 31.78125 66.40625 
Q 25.390625 66.40625 21.84375 63.234375 
Q 18.3125 60.0625 18.3125 54.390625 
" id="BitstreamVeraSans-Roman-38"/>
      </defs>
      <g transform="translate(48.91625 84.91125)scale(0.12 -0.12)">
       <use xlink:href="#BitstreamVeraSans-Roman-30"/>
       <use x="63.623046875" xlink:href="#BitstreamVeraSans-Roman-2e"/>
       <use x="95.41015625" xlink:href="#BitstreamVeraSans-Roman-38"/>
      </g>
     </g>
    </g>
    <g id="ytick_10">
     <g id="line2d_51">
      <path clip-path="url(#paa52f34751)" d="M 72 43.2 
L 518.4 43.2 
" style="fill:none;stroke:#000000;stroke-dasharray:1.000000,3.000000;stroke-dashoffset:0.0;stroke-width:0.5;"/>
     </g>
     <g id="line2d_52">
      <g>
       <use style="stroke:#000000;stroke-width:0.5;" x="72.0" xlink:href="#meb25ceefd0" y="43.2"/>
      </g>
     </g>
     <g id="line2d_53">
      <g>
       <use style="stroke:#000000;stroke-width:0.5;" x="518.4" xlink:href="#m08b2a16443" y="43.2"/>
      </g>
     </g>
     <g id="text_18">
      <!-- 0.9 -->
      <defs>
       <path d="M 10.984375 1.515625 
L 10.984375 10.5 
Q 14.703125 8.734375 18.5 7.8125 
Q 22.3125 6.890625 25.984375 6.890625 
Q 35.75 6.890625 40.890625 13.453125 
Q 46.046875 20.015625 46.78125 33.40625 
Q 43.953125 29.203125 39.59375 26.953125 
Q 35.25 24.703125 29.984375 24.703125 
Q 19.046875 24.703125 12.671875 31.3125 
Q 6.296875 37.9375 6.296875 49.421875 
Q 6.296875 60.640625 12.9375 67.421875 
Q 19.578125 74.21875 30.609375 74.21875 
Q 43.265625 74.21875 49.921875 64.515625 
Q 56.59375 54.828125 56.59375 36.375 
Q 56.59375 19.140625 48.40625 8.859375 
Q 40.234375 -1.421875 26.421875 -1.421875 
Q 22.703125 -1.421875 18.890625 -0.6875 
Q 15.09375 0.046875 10.984375 1.515625 
M 30.609375 32.421875 
Q 37.25 32.421875 41.125 36.953125 
Q 45.015625 41.5 45.015625 49.421875 
Q 45.015625 57.28125 41.125 61.84375 
Q 37.25 66.40625 30.609375 66.40625 
Q 23.96875 66.40625 20.09375 61.84375 
Q 16.21875 57.28125 16.21875 49.421875 
Q 16.21875 41.5 20.09375 36.953125 
Q 23.96875 32.421875 30.609375 32.421875 
" id="BitstreamVeraSans-Roman-39"/>
      </defs>
      <g transform="translate(48.91625 46.51125)scale(0.12 -0.12)">
       <use xlink:href="#BitstreamVeraSans-Roman-30"/>
       <use x="63.623046875" xlink:href="#BitstreamVeraSans-Roman-2e"/>
       <use x="95.41015625" xlink:href="#BitstreamVeraSans-Roman-39"/>
      </g>
     </g>
    </g>
    <g id="text_19">
     <!-- Pedal [] -->
     <defs>
      <path d="M 19.671875 64.796875 
L 19.671875 37.40625 
L 32.078125 37.40625 
Q 38.96875 37.40625 42.71875 40.96875 
Q 46.484375 44.53125 46.484375 51.125 
Q 46.484375 57.671875 42.71875 61.234375 
Q 38.96875 64.796875 32.078125 64.796875 
z
M 9.8125 72.90625 
L 32.078125 72.90625 
Q 44.34375 72.90625 50.609375 67.359375 
Q 56.890625 61.8125 56.890625 51.125 
Q 56.890625 40.328125 50.609375 34.8125 
Q 44.34375 29.296875 32.078125 29.296875 
L 19.671875 29.296875 
L 19.671875 0 
L 9.8125 0 
z
" id="BitstreamVeraSans-Roman-50"/>
      <path d="M 45.40625 46.390625 
L 45.40625 75.984375 
L 54.390625 75.984375 
L 54.390625 0 
L 45.40625 0 
L 45.40625 8.203125 
Q 42.578125 3.328125 38.25 0.953125 
Q 33.9375 -1.421875 27.875 -1.421875 
Q 17.96875 -1.421875 11.734375 6.484375 
Q 5.515625 14.40625 5.515625 27.296875 
Q 5.515625 40.1875 11.734375 48.09375 
Q 17.96875 56 27.875 56 
Q 33.9375 56 38.25 53.625 
Q 42.578125 51.265625 45.40625 46.390625 
M 14.796875 27.296875 
Q 14.796875 17.390625 18.875 11.75 
Q 22.953125 6.109375 30.078125 6.109375 
Q 37.203125 6.109375 41.296875 11.75 
Q 45.40625 17.390625 45.40625 27.296875 
Q 45.40625 37.203125 41.296875 42.84375 
Q 37.203125 48.484375 30.078125 48.484375 
Q 22.953125 48.484375 18.875 42.84375 
Q 14.796875 37.203125 14.796875 27.296875 
" id="BitstreamVeraSans-Roman-64"/>
      <path d="M 34.28125 27.484375 
Q 23.390625 27.484375 19.1875 25 
Q 14.984375 22.515625 14.984375 16.5 
Q 14.984375 11.71875 18.140625 8.90625 
Q 21.296875 6.109375 26.703125 6.109375 
Q 34.1875 6.109375 38.703125 11.40625 
Q 43.21875 16.703125 43.21875 25.484375 
L 43.21875 27.484375 
z
M 52.203125 31.203125 
L 52.203125 0 
L 43.21875 0 
L 43.21875 8.296875 
Q 40.140625 3.328125 35.546875 0.953125 
Q 30.953125 -1.421875 24.3125 -1.421875 
Q 15.921875 -1.421875 10.953125 3.296875 
Q 6 8.015625 6 15.921875 
Q 6 25.140625 12.171875 29.828125 
Q 18.359375 34.515625 30.609375 34.515625 
L 43.21875 34.515625 
L 43.21875 35.40625 
Q 43.21875 41.609375 39.140625 45 
Q 35.0625 48.390625 27.6875 48.390625 
Q 23 48.390625 18.546875 47.265625 
Q 14.109375 46.140625 10.015625 43.890625 
L 10.015625 52.203125 
Q 14.9375 54.109375 19.578125 55.046875 
Q 24.21875 56 28.609375 56 
Q 40.484375 56 46.34375 49.84375 
Q 52.203125 43.703125 52.203125 31.203125 
" id="BitstreamVeraSans-Roman-61"/>
      <path d="M 9.421875 75.984375 
L 18.40625 75.984375 
L 18.40625 0 
L 9.421875 0 
z
" id="BitstreamVeraSans-Roman-6c"/>
     </defs>
     <g transform="translate(41.420625 239.0484375)rotate(-90.0)scale(0.12 -0.12)">
      <use xlink:href="#BitstreamVeraSans-Roman-50"/>
      <use x="60.255859375" xlink:href="#BitstreamVeraSans-Roman-65"/>
      <use x="121.779296875" xlink:href="#BitstreamVeraSans-Roman-64"/>
      <use x="185.255859375" xlink:href="#BitstreamVeraSans-Roman-61"/>
      <use x="246.53515625" xlink:href="#BitstreamVeraSans-Roman-6c"/>
      <use x="274.318359375" xlink:href="#BitstreamVeraSans-Roman-20"/>
      <use x="306.10546875" xlink:href="#BitstreamVeraSans-Roman-5b"/>
      <use x="345.119140625" xlink:href="#BitstreamVeraSans-Roman-5d"/>
     </g>
    </g>
   </g>
   <g id="legend_1">
    <g id="patch_7">
     <path d="M 372.99825 96.993 
L 511.2 96.993 
L 511.2 50.4 
L 372.99825 50.4 
z
" style="fill:#ffffff;stroke:#000000;stroke-linejoin:miter;"/>
    </g>
    <g id="line2d_54">
     <path d="M 383.07825 62.06175 
L 403.23825 62.06175 
" style="fill:none;stroke:#008000;stroke-linecap:square;"/>
    </g>
    <g id="line2d_55"/>
    <g id="text_20">
     <!-- Gas pedal -->
     <defs>
      <path d="M 59.515625 10.40625 
L 59.515625 29.984375 
L 43.40625 29.984375 
L 43.40625 38.09375 
L 69.28125 38.09375 
L 69.28125 6.78125 
Q 63.578125 2.734375 56.6875 0.65625 
Q 49.8125 -1.421875 42 -1.421875 
Q 24.90625 -1.421875 15.25 8.5625 
Q 5.609375 18.5625 5.609375 36.375 
Q 5.609375 54.25 15.25 64.234375 
Q 24.90625 74.21875 42 74.21875 
Q 49.125 74.21875 55.546875 72.453125 
Q 61.96875 70.703125 67.390625 67.28125 
L 67.390625 56.78125 
Q 61.921875 61.421875 55.765625 63.765625 
Q 49.609375 66.109375 42.828125 66.109375 
Q 29.4375 66.109375 22.71875 58.640625 
Q 16.015625 51.171875 16.015625 36.375 
Q 16.015625 21.625 22.71875 14.15625 
Q 29.4375 6.6875 42.828125 6.6875 
Q 48.046875 6.6875 52.140625 7.59375 
Q 56.25 8.5 59.515625 10.40625 
" id="BitstreamVeraSans-Roman-47"/>
      <path d="M 18.109375 8.203125 
L 18.109375 -20.796875 
L 9.078125 -20.796875 
L 9.078125 54.6875 
L 18.109375 54.6875 
L 18.109375 46.390625 
Q 20.953125 51.265625 25.265625 53.625 
Q 29.59375 56 35.59375 56 
Q 45.5625 56 51.78125 48.09375 
Q 58.015625 40.1875 58.015625 27.296875 
Q 58.015625 14.40625 51.78125 6.484375 
Q 45.5625 -1.421875 35.59375 -1.421875 
Q 29.59375 -1.421875 25.265625 0.953125 
Q 20.953125 3.328125 18.109375 8.203125 
M 48.6875 27.296875 
Q 48.6875 37.203125 44.609375 42.84375 
Q 40.53125 48.484375 33.40625 48.484375 
Q 26.265625 48.484375 22.1875 42.84375 
Q 18.109375 37.203125 18.109375 27.296875 
Q 18.109375 17.390625 22.1875 11.75 
Q 26.265625 6.109375 33.40625 6.109375 
Q 40.53125 6.109375 44.609375 11.75 
Q 48.6875 17.390625 48.6875 27.296875 
" id="BitstreamVeraSans-Roman-70"/>
     </defs>
     <g transform="translate(419.07825 67.10175)scale(0.144 -0.144)">
      <use xlink:href="#BitstreamVeraSans-Roman-47"/>
      <use x="77.490234375" xlink:href="#BitstreamVeraSans-Roman-61"/>
      <use x="138.76953125" xlink:href="#BitstreamVeraSans-Roman-73"/>
      <use x="190.869140625" xlink:href="#BitstreamVeraSans-Roman-20"/>
      <use x="222.65625" xlink:href="#BitstreamVeraSans-Roman-70"/>
      <use x="286.1328125" xlink:href="#BitstreamVeraSans-Roman-65"/>
      <use x="347.65625" xlink:href="#BitstreamVeraSans-Roman-64"/>
      <use x="411.1328125" xlink:href="#BitstreamVeraSans-Roman-61"/>
      <use x="472.412109375" xlink:href="#BitstreamVeraSans-Roman-6c"/>
     </g>
    </g>
    <g id="line2d_56">
     <path d="M 383.07825 83.19825 
L 403.23825 83.19825 
" style="fill:none;stroke:#ff0000;stroke-linecap:square;"/>
    </g>
    <g id="line2d_57"/>
    <g id="text_21">
     <!-- Brake pedal -->
     <defs>
      <path d="M 41.109375 46.296875 
Q 39.59375 47.171875 37.8125 47.578125 
Q 36.03125 48 33.890625 48 
Q 26.265625 48 22.1875 43.046875 
Q 18.109375 38.09375 18.109375 28.8125 
L 18.109375 0 
L 9.078125 0 
L 9.078125 54.6875 
L 18.109375 54.6875 
L 18.109375 46.1875 
Q 20.953125 51.171875 25.484375 53.578125 
Q 30.03125 56 36.53125 56 
Q 37.453125 56 38.578125 55.875 
Q 39.703125 55.765625 41.0625 55.515625 
z
" id="BitstreamVeraSans-Roman-72"/>
      <path d="M 19.671875 34.8125 
L 19.671875 8.109375 
L 35.5 8.109375 
Q 43.453125 8.109375 47.28125 11.40625 
Q 51.125 14.703125 51.125 21.484375 
Q 51.125 28.328125 47.28125 31.5625 
Q 43.453125 34.8125 35.5 34.8125 
z
M 19.671875 64.796875 
L 19.671875 42.828125 
L 34.28125 42.828125 
Q 41.5 42.828125 45.03125 45.53125 
Q 48.578125 48.25 48.578125 53.8125 
Q 48.578125 59.328125 45.03125 62.0625 
Q 41.5 64.796875 34.28125 64.796875 
z
M 9.8125 72.90625 
L 35.015625 72.90625 
Q 46.296875 72.90625 52.390625 68.21875 
Q 58.5 63.53125 58.5 54.890625 
Q 58.5 48.1875 55.375 44.234375 
Q 52.25 40.28125 46.1875 39.3125 
Q 53.46875 37.75 57.5 32.78125 
Q 61.53125 27.828125 61.53125 20.40625 
Q 61.53125 10.640625 54.890625 5.3125 
Q 48.25 0 35.984375 0 
L 9.8125 0 
z
" id="BitstreamVeraSans-Roman-42"/>
      <path d="M 9.078125 75.984375 
L 18.109375 75.984375 
L 18.109375 31.109375 
L 44.921875 54.6875 
L 56.390625 54.6875 
L 27.390625 29.109375 
L 57.625 0 
L 45.90625 0 
L 18.109375 26.703125 
L 18.109375 0 
L 9.078125 0 
z
" id="BitstreamVeraSans-Roman-6b"/>
     </defs>
     <g transform="translate(419.07825 88.23825)scale(0.144 -0.144)">
      <use xlink:href="#BitstreamVeraSans-Roman-42"/>
      <use x="68.603515625" xlink:href="#BitstreamVeraSans-Roman-72"/>
      <use x="109.716796875" xlink:href="#BitstreamVeraSans-Roman-61"/>
      <use x="170.99609375" xlink:href="#BitstreamVeraSans-Roman-6b"/>
      <use x="228.859375" xlink:href="#BitstreamVeraSans-Roman-65"/>
      <use x="290.3828125" xlink:href="#BitstreamVeraSans-Roman-20"/>
      <use x="322.169921875" xlink:href="#BitstreamVeraSans-Roman-70"/>
      <use x="385.646484375" xlink:href="#BitstreamVeraSans-Roman-65"/>
      <use x="447.169921875" xlink:href="#BitstreamVeraSans-Roman-64"/>
      <use x="510.646484375" xlink:href="#BitstreamVeraSans-Roman-61"/>
      <use x="571.92578125" xlink:href="#BitstreamVeraSans-Roman-6c"/>
     </g>
    </g>
   </g>
  </g>
 </g>
 <defs>
  <clipPath id="paa52f34751">
   <rect height="345.6" width="446.4" x="72.0" y="43.2"/>
  </clipPath>
 </defs>
</svg>
