<?xml version="1.0" encoding="utf-8" standalone="no"?>
<!DOCTYPE svg PUBLIC "-//W3C//DTD SVG 1.1//EN"
  "http://www.w3.org/Graphics/SVG/1.1/DTD/svg11.dtd">
<!-- Created with matplotlib (http://matplotlib.org/) -->
<svg height="432pt" version="1.1" viewBox="0 0 576 432" width="576pt" xmlns="http://www.w3.org/2000/svg" xmlns:xlink="http://www.w3.org/1999/xlink">
 <defs>
  <style type="text/css">
*{stroke-linecap:butt;stroke-linejoin:round;stroke-miterlimit:100000;}
  </style>
 </defs>
 <g id="figure_1">
  <g id="patch_1">
   <path d="M 0 432 
L 576 432 
L 576 0 
L 0 0 
z
" style="fill:#ffffff;"/>
  </g>
  <g id="axes_1">
   <g id="patch_2">
    <path d="M 72 388.8 
L 518.4 388.8 
L 518.4 43.2 
L 72 43.2 
z
" style="fill:#ffffff;"/>
   </g>
   <g id="line2d_1">
    <path clip-path="url(#p8869f717bd)" d="M 72.1488 116.000349 
L 91.6416 116.000349 
L 91.9392 124.441282 
L 95.808 187.977539 
L 95.9568 187.977539 
L 96.2544 194.406984 
L 96.8496 202.605108 
L 97.1472 208.34733 
L 97.296 208.34733 
L 97.5936 213.648903 
L 98.04 219.84787 
L 98.1888 221.616028 
L 98.6352 228.78471 
L 98.784 230.561966 
L 99.2304 243.944515 
L 99.528 247.960751 
L 99.6768 249.292522 
L 100.7184 265.443008 
L 101.3136 269.604034 
L 101.6112 275.706619 
L 101.76 278.24041 
L 101.9088 277.744698 
L 102.2064 281.45842 
L 102.3552 281.980156 
L 103.3968 288.908913 
L 103.992 292.695934 
L 104.1408 295.934578 
L 104.2896 295.461456 
L 104.4384 298.182369 
L 104.736 299.777298 
L 105.1824 305.534512 
L 105.48 309.094711 
L 105.7776 311.130295 
L 106.224 318.085327 
L 106.5216 319.355896 
L 106.8192 324.057312 
L 106.968 324.057312 
L 107.712 327.371246 
L 107.8608 327.526634 
L 108.456 330.119385 
L 108.6048 328.552551 
L 108.7536 328.552551 
L 109.7952 332.194199 
L 109.944 330.515579 
L 110.0928 331.183113 
L 110.2416 331.183113 
L 111.1344 334.262306 
L 111.2832 334.374596 
L 111.432 337.92057 
L 111.5808 338.175476 
L 112.176 339.944893 
L 112.3248 342.838577 
L 112.4736 343.493958 
L 112.6224 343.642113 
L 112.92 344.89856 
L 113.0688 347.41674 
L 113.3664 348.041084 
L 113.664 348.923126 
L 113.8128 346.651794 
L 113.9616 349.293205 
L 114.2592 349.680817 
L 114.408 347.594009 
L 114.5568 348.264565 
L 114.8544 348.361931 
L 115.3008 349.199341 
L 115.4496 349.292999 
L 115.7472 349.798737 
L 115.896 347.703735 
L 116.0448 347.924904 
L 116.1936 347.924904 
L 116.3424 348.059441 
L 116.7888 348.841667 
L 116.9376 351.524986 
L 117.0864 349.334747 
L 117.2352 352.080986 
L 117.384 352.207603 
L 117.5328 352.529274 
L 117.6816 354.998886 
L 118.128 355.678551 
L 118.2768 355.717415 
L 118.5744 360.992111 
L 118.7232 361.217972 
L 118.872 361.180046 
L 119.0208 358.821465 
L 119.1696 358.621674 
L 119.3184 358.621674 
L 119.4672 358.985298 
L 119.616 358.648544 
L 119.7648 359.010818 
L 119.9136 358.671227 
L 120.2112 358.792831 
L 120.36 358.792831 
L 120.5088 359.102875 
L 120.6576 358.80352 
L 120.8064 359.112831 
L 120.9552 358.812057 
L 121.4016 358.865067 
L 121.848 358.805466 
L 121.9968 358.855591 
L 122.1456 358.543396 
L 122.2944 358.841423 
L 122.4432 358.479446 
L 122.592 355.978065 
L 122.7408 355.506088 
L 122.8896 355.797226 
L 123.0384 355.478416 
L 123.1872 355.767174 
L 123.336 355.397324 
L 123.7824 355.360565 
L 123.9312 355.033356 
L 124.08 355.315338 
L 124.3776 354.860687 
L 124.5264 354.889137 
L 124.6752 354.55497 
L 125.4192 354.590767 
L 125.568 351.510429 
L 125.7168 351.510429 
L 126.0144 350.81385 
L 126.312 350.739555 
L 126.6096 350.239769 
L 126.7584 350.248329 
L 126.9072 347.238144 
L 127.3536 347.028511 
L 127.6512 346.463699 
L 127.8 346.512177 
L 127.9488 346.350243 
L 128.0976 345.94059 
L 128.2464 343.122162 
L 128.3952 342.800354 
L 128.544 342.800354 
L 128.6928 343.085381 
L 128.9904 342.250511 
L 129.1392 342.529243 
L 129.5856 341.503647 
L 129.7344 341.532051 
L 129.8832 338.479431 
L 130.1808 338.601151 
L 130.6272 337.589333 
L 130.776 337.562988 
L 130.9248 337.365578 
L 131.0736 334.466743 
L 131.2224 334.164345 
L 131.3712 334.164345 
L 131.6688 333.51265 
L 131.8176 333.314529 
L 131.9664 332.866768 
L 132.1152 332.866768 
L 132.264 335.118553 
L 132.4128 335.223083 
L 132.7104 334.552071 
L 132.8592 334.505287 
L 133.1568 333.869247 
L 133.3056 330.942192 
L 133.4544 330.616425 
L 133.6032 330.616425 
L 133.752 332.792564 
L 133.9008 329.590874 
L 134.0496 329.62516 
L 134.1984 329.199554 
L 134.3472 329.199554 
L 134.6448 328.481277 
L 134.7936 328.168945 
L 134.9424 328.168945 
L 135.24 327.250809 
L 135.3888 327.411026 
L 135.984 325.735451 
L 136.1328 325.886627 
L 136.4304 325.128159 
L 136.5792 321.747093 
L 136.8768 321.796394 
L 137.3232 320.514542 
L 137.472 320.417336 
L 137.6208 317.294746 
L 137.7696 316.875732 
L 137.9184 316.875732 
L 138.0672 316.363724 
L 138.216 316.259674 
L 138.6624 315.150993 
L 138.8112 314.675079 
L 138.96 314.675079 
L 139.1088 311.763794 
L 139.5552 310.267925 
L 139.704 310.267925 
L 139.8528 307.386898 
L 140.2992 306.667133 
L 140.448 303.607555 
L 141.0432 302.148308 
L 141.192 302.148308 
L 141.3408 298.82999 
L 141.4896 298.364971 
L 141.7872 298.353001 
L 141.936 294.861752 
L 142.0848 294.426819 
L 142.2336 294.407639 
L 142.8288 292.900978 
L 142.9776 292.900978 
L 143.1264 292.344578 
L 143.2752 288.995007 
L 143.424 288.995007 
L 143.5728 288.718105 
L 143.7216 287.88216 
L 144.168 287.337868 
L 144.3168 289.031708 
L 144.4656 289.031708 
L 144.6144 286.037647 
L 144.7632 286.060764 
L 145.0608 285.081047 
L 145.2096 285.081047 
L 145.3584 284.424911 
L 145.5072 280.141434 
L 145.656 280.040325 
L 146.1024 277.72126 
L 146.2512 274.595043 
L 146.4 274.516766 
L 146.6976 272.7705 
L 146.8464 272.7705 
L 146.9952 269.636284 
L 147.2928 268.801632 
L 147.4416 268.259262 
L 147.5904 268.259262 
L 147.888 264.089298 
L 148.0368 264.089298 
L 148.3344 259.555893 
L 148.4832 259.415154 
L 148.632 258.445576 
L 148.7808 258.445576 
L 148.9296 255.457581 
L 149.0784 255.344009 
L 149.2272 254.329433 
L 149.376 254.329433 
L 149.6736 249.412548 
L 149.8224 249.255936 
L 149.9712 248.309155 
L 150.12 248.309155 
L 150.2688 245.714367 
L 150.864 243.79945 
L 151.0128 243.600975 
L 151.1616 242.208 
L 151.3104 242.038227 
L 151.4592 241.058601 
L 151.608 240.886631 
L 151.7568 239.904396 
L 151.9056 239.730309 
L 152.352 236.143066 
L 154.7328 221.567459 
L 155.0304 218.356602 
L 155.1792 217.317318 
L 155.328 217.317318 
L 155.7744 214.139849 
L 155.9232 214.262529 
L 156.072 213.151257 
L 156.2208 212.996492 
L 156.6672 209.740505 
L 156.816 209.874269 
L 157.2624 206.638962 
L 157.4112 206.284235 
L 157.7088 204.600866 
L 157.8576 203.473646 
L 158.0064 203.29434 
L 158.304 201.535887 
L 158.4528 200.403265 
L 158.6016 200.636009 
L 159.048 197.306866 
L 159.1968 197.341387 
L 159.6432 194.548256 
L 159.792 194.271177 
L 160.0896 192.472109 
L 160.2384 191.323351 
L 160.3872 191.533087 
L 160.8336 188.567093 
L 160.9824 188.320004 
L 162.3216 181.218006 
L 162.6192 179.362598 
L 162.768 179.100254 
L 163.2144 176.478773 
L 163.3632 176.648787 
L 163.6608 174.768574 
L 164.1072 172.118603 
L 164.256 170.987635 
L 164.4048 171.145849 
L 164.8512 169.333031 
L 165 169.484894 
L 165.1488 168.278229 
L 165.2976 168.044981 
L 166.488 162.023386 
L 166.6368 162.157076 
L 167.0832 160.271032 
L 167.232 159.85718 
L 168.2736 154.899247 
L 168.4224 154.348981 
L 168.5712 154.448542 
L 168.72 153.227197 
L 168.8688 153.334691 
L 169.3152 151.247317 
L 169.6128 149.908665 
L 169.7616 149.142972 
L 169.9104 149.239855 
L 170.0592 148.422392 
L 170.208 148.515421 
L 171.1008 143.66063 
L 171.2496 143.742535 
L 171.3984 142.916159 
L 171.5472 142.994046 
L 171.696 142.588526 
L 171.8448 143.949084 
L 171.9936 143.949084 
L 172.2912 140.19721 
L 172.7376 137.759388 
L 172.8864 137.822994 
L 173.0352 136.984414 
L 173.184 137.044125 
L 173.4816 135.994753 
L 173.6304 136.471381 
L 174.5232 131.993178 
L 174.672 132.465271 
L 174.8208 131.615733 
L 174.9696 131.658758 
L 175.2672 130.550086 
L 176.16 127.697074 
L 176.6064 125.586891 
L 176.7552 126.034998 
L 177.2016 123.83992 
L 177.3504 123.405461 
L 177.4992 123.424425 
L 177.648 122.555942 
L 177.7968 122.99717 
L 178.392 119.938383 
L 178.5408 119.946073 
L 178.6896 119.496178 
L 178.8384 119.500329 
L 178.9872 118.620943 
L 179.136 118.987143 
L 179.2848 118.989096 
L 179.5824 118.182203 
L 179.7312 118.178553 
L 179.88 118.601901 
L 180.0288 117.714705 
L 180.1776 118.134435 
L 180.4752 116.561818 
L 180.624 116.979335 
L 181.2192 113.827297 
L 182.112 110.88801 
L 182.2608 111.295089 
L 182.4096 111.269739 
L 182.5584 110.792436 
L 182.7072 110.76055 
L 183.1536 109.11542 
L 183.3024 108.40227 
L 183.4512 108.803716 
L 183.7488 107.39731 
L 183.8976 107.39731 
L 184.1952 105.477329 
L 184.344 104.544781 
L 184.4928 104.927486 
L 184.6416 104.012537 
L 184.7904 104.391757 
L 184.9392 103.901542 
L 185.088 102.961508 
L 185.2368 103.338206 
L 185.3856 102.418159 
L 185.5344 102.223041 
L 185.832 101.098061 
L 185.9808 101.472656 
L 186.2784 100.6303 
L 186.4272 101.003311 
L 186.8736 99.674372 
L 187.0224 100.028173 
L 187.4688 99.089869 
L 187.7664 98.049242 
L 187.9152 98.404535 
L 188.064 97.465382 
L 188.2128 97.810585 
L 188.3616 97.298261 
L 188.5104 97.654129 
L 188.6592 96.701125 
L 188.9568 97.237149 
L 189.2544 95.751394 
L 189.4032 95.191097 
L 189.7008 95.846578 
L 189.9984 94.341016 
L 190.4448 92.268113 
L 190.8912 93.138619 
L 191.784 89.931513 
L 191.9328 90.256831 
L 192.0816 89.293199 
L 192.2304 89.373636 
L 192.3792 89.706596 
L 192.528 89.15867 
L 192.6768 89.488435 
L 192.9744 88.361993 
L 193.1232 88.67831 
L 193.4208 87.115766 
L 193.5696 87.459801 
L 193.7184 86.878575 
L 194.016 87.522978 
L 194.9088 84.617921 
L 195.2064 85.167821 
L 195.504 84.004206 
L 195.6528 84.30334 
L 195.8016 83.746273 
L 196.0992 84.255592 
L 196.248 84.589511 
L 196.6944 83.194825 
L 196.992 82.216149 
L 197.1408 82.502787 
L 197.5872 80.979298 
L 197.736 82.716276 
L 197.8848 82.716276 
L 198.3312 81.244517 
L 198.48 81.211584 
L 198.6288 81.508229 
L 198.9264 80.294452 
L 199.0752 77.985735 
L 199.224 78.239419 
L 199.3728 77.666908 
L 199.5216 77.666908 
L 199.6704 77.949989 
L 199.8192 78.667809 
L 200.1168 77.761279 
L 200.2656 78.028092 
L 200.4144 77.440681 
L 200.712 77.957076 
L 201.0096 76.708197 
L 201.1584 76.970037 
L 201.3072 76.377271 
L 201.6048 77.361877 
L 201.9024 76.281684 
L 202.0512 76.539153 
L 202.2 75.940636 
L 202.3488 76.211277 
L 202.4976 76.917761 
L 202.7952 75.715284 
L 202.944 75.984635 
L 203.0928 75.361047 
L 203.2416 75.627857 
L 203.5392 74.771899 
L 203.688 75.034993 
L 203.9856 73.739528 
L 204.1344 73.974727 
L 204.2832 73.774 
L 204.432 74.01634 
L 204.5808 75.392077 
L 204.7296 72.986907 
L 204.8784 73.655199 
L 205.0272 73.655199 
L 205.3248 72.339417 
L 205.4736 72.591173 
L 205.6224 71.947432 
L 205.92 72.882577 
L 206.2176 72.044772 
L 206.3664 72.293258 
L 206.5152 72.097283 
L 206.664 71.390442 
L 206.8128 71.635237 
L 206.9616 71.002934 
L 207.2592 71.902067 
L 207.408 71.267315 
L 207.5568 71.16124 
L 207.7056 71.837603 
L 208.0032 70.491817 
L 208.152 70.729849 
L 208.3008 70.522076 
L 208.4496 69.838572 
L 208.5984 70.073181 
L 208.7472 69.863091 
L 208.896 69.201502 
L 209.64 70.44171 
L 209.7888 70.226955 
L 209.9376 70.217646 
L 210.0864 70.449108 
L 210.2352 70.230515 
L 210.384 69.639868 
L 210.5328 69.868011 
L 210.6816 69.646242 
L 210.8304 69.079245 
L 210.9792 69.304098 
L 211.128 69.079056 
L 211.2768 68.535925 
L 211.4256 68.757511 
L 211.5744 68.529259 
L 211.7232 68.010292 
L 212.3184 68.800936 
L 212.616 68.452875 
L 212.7648 68.668945 
L 213.0624 67.987175 
L 213.2112 68.200167 
L 213.5088 67.54014 
L 213.6576 67.749996 
L 213.9552 67.112005 
L 214.104 67.75518 
L 214.4016 66.702833 
L 214.6992 67.549788 
L 214.848 66.863508 
L 215.1456 67.705141 
L 215.2944 67.451191 
L 215.592 67.85392 
L 215.7408 67.534487 
L 215.8896 66.814396 
L 216.0384 67.449594 
L 216.1872 66.752684 
L 216.336 66.754503 
L 216.4848 66.949894 
L 216.6336 66.248772 
L 216.7824 66.643032 
L 216.9312 66.375086 
L 217.08 66.375086 
L 217.2288 66.166998 
L 217.3776 66.356787 
L 217.5264 66.986864 
L 217.6752 66.279396 
L 217.9728 67.09413 
L 218.1216 66.744936 
L 218.2704 66.932676 
L 218.4192 66.654739 
L 218.568 66.654739 
L 219.1632 64.986317 
L 219.312 65.164003 
L 219.6096 64.772987 
L 219.7584 65.385927 
L 219.9072 64.660063 
L 220.2048 64.942881 
L 220.3536 65.556627 
L 220.5024 64.828159 
L 220.8 65.609688 
L 220.9488 64.876442 
L 221.2464 65.653261 
L 221.3952 65.353952 
L 221.544 65.519348 
L 221.6928 65.151896 
L 221.9904 64.089003 
L 222.1392 64.250433 
L 222.288 64.853691 
L 222.4368 64.110163 
L 222.7344 64.870153 
L 222.8832 64.560207 
L 223.1808 65.316198 
L 223.4784 64.902271 
L 223.776 63.94602 
L 223.9248 64.097202 
L 224.0736 64.690842 
L 224.2224 64.012728 
L 224.3712 64.600691 
L 224.52 66.509811 
L 224.6688 64.874113 
L 224.8176 66.848705 
L 225.1152 65.620611 
L 225.264 65.289185 
L 225.4128 64.417837 
L 225.5616 65.001051 
L 225.7104 64.228426 
L 225.8592 64.216736 
L 226.1568 64.391888 
L 226.3056 63.982944 
L 226.4544 64.560997 
L 226.6032 63.78091 
L 226.752 64.353373 
L 226.9008 66.248354 
L 227.1984 65.051874 
L 227.3472 64.509464 
L 227.6448 65.662611 
L 227.7936 64.90678 
L 227.9424 64.730101 
L 228.0912 64.862366 
L 228.24 64.508406 
L 228.3888 65.205414 
L 228.5376 64.848186 
L 228.6864 63.979031 
L 228.8352 64.542458 
L 228.984 64.669733 
L 229.1328 64.308306 
L 229.2816 64.870079 
L 229.4304 64.99577 
L 229.5792 66.139132 
L 229.728 65.701859 
L 229.8768 64.824343 
L 230.0256 65.142529 
L 230.3232 64.458744 
L 230.472 65.016392 
L 230.6208 65.137613 
L 230.7696 64.797581 
L 231.0672 64.958731 
L 231.216 64.690201 
L 231.3648 65.244066 
L 231.5136 64.895714 
L 231.6624 63.96397 
L 231.8112 64.510918 
L 232.1088 64.615683 
L 232.2576 66.483347 
L 232.4064 64.419971 
L 232.5552 65.349478 
L 232.704 64.884315 
L 233.0016 65.2202 
L 233.1504 64.824577 
L 233.2992 65.362919 
L 233.448 64.936111 
L 233.5968 65.477732 
L 233.7456 64.637192 
L 233.8944 65.173347 
L 234.0432 64.904228 
L 234.192 65.007088 
L 234.3408 65.541218 
L 234.4896 64.638845 
L 234.6384 65.128132 
L 234.7872 65.229137 
L 234.936 67.089552 
L 235.2336 65.659361 
L 235.3824 66.001865 
L 235.5312 66.040758 
L 235.9776 65.076508 
L 236.1264 65.570784 
L 236.2752 64.784735 
L 236.424 65.273987 
L 236.5728 64.342735 
L 236.8704 65.351017 
L 237.0192 64.872379 
L 237.168 64.891628 
L 237.3168 66.760254 
L 237.4656 66.29631 
L 237.6144 66.788012 
L 237.912 65.325497 
L 238.0608 65.811081 
L 238.3584 64.372267 
L 238.656 65.422188 
L 238.8048 64.851803 
L 238.9536 65.332146 
L 239.1024 64.519581 
L 239.4 65.357346 
L 239.5488 64.382257 
L 239.6976 65.193535 
L 239.8464 65.06904 
L 239.9952 65.545315 
L 240.144 65.593752 
L 240.2928 65.079174 
L 240.4416 65.550745 
L 240.7392 64.845486 
L 240.888 65.316736 
L 241.0368 65.322847 
L 241.1856 64.837149 
L 241.3344 65.303638 
L 241.4832 67.189659 
L 241.632 67.015217 
L 241.9296 65.403368 
L 242.0784 65.870985 
L 242.2272 65.373281 
L 242.376 65.526014 
L 242.5248 65.994038 
L 242.6736 65.160524 
L 242.8224 65.957422 
L 242.9712 65.335802 
L 243.2688 66.266459 
L 243.4176 65.675228 
L 243.5664 66.13888 
L 243.7152 65.857006 
L 243.864 65.026463 
L 244.0128 66.915985 
L 244.1616 66.592541 
L 244.3104 67.058046 
L 244.608 65.982193 
L 244.7568 66.241247 
L 244.9056 65.609087 
L 245.0544 65.583292 
L 245.2032 66.042767 
L 245.352 66.945774 
L 245.5008 66.290646 
L 245.6496 66.66885 
L 245.7984 66.64377 
L 245.9472 66.099421 
L 246.096 66.155165 
L 246.2448 66.605913 
L 246.3936 66.618038 
L 246.5424 66.02429 
L 246.6912 66.46994 
L 246.84 65.881989 
L 247.2864 67.260418 
L 247.4352 66.472778 
L 247.7328 67.401466 
L 247.8816 68.242115 
L 248.0304 65.609425 
L 248.1792 67.504692 
L 248.328 67.139431 
L 248.6256 67.826729 
L 248.7744 67.292381 
L 248.9232 67.242554 
L 249.072 67.399704 
L 249.2208 66.727821 
L 249.3696 67.160608 
L 249.5184 66.517982 
L 249.816 67.379122 
L 249.9648 66.781162 
L 250.1136 66.712978 
L 250.7088 68.815819 
L 250.8576 67.598722 
L 251.1552 68.557755 
L 251.304 67.823799 
L 251.4528 68.243557 
L 251.6016 68.175407 
L 251.7504 67.553862 
L 251.8992 67.968395 
L 252.1968 67.675598 
L 252.6432 69.074553 
L 252.792 68.229664 
L 252.9408 70.131477 
L 253.0896 70.125263 
L 253.3872 68.67025 
L 253.536 69.07687 
L 253.6848 69.032009 
L 253.8336 68.586599 
L 253.9824 69.437153 
L 254.28 67.985207 
L 254.4288 68.380457 
L 254.5776 70.284285 
L 254.7264 70.735651 
L 254.8752 70.066298 
L 255.024 69.959038 
L 255.3216 68.671486 
L 255.6192 69.381981 
L 255.768 68.69787 
L 256.0656 69.466255 
L 256.3632 68.825191 
L 256.512 69.249447 
L 256.6608 71.145962 
L 256.8096 71.578308 
L 257.1072 70.627115 
L 257.256 71.006516 
L 257.4048 69.792337 
L 257.5536 70.159367 
L 257.7024 70.047117 
L 258.2976 71.322418 
L 258.4464 71.344379 
L 258.744 70.664412 
L 258.8928 71.138237 
L 259.0416 72.690831 
L 259.1904 70.310234 
L 259.3392 72.197236 
L 259.488 72.605184 
L 259.7856 71.033026 
L 260.232 72.241619 
L 260.3808 72.08024 
L 260.5296 72.478294 
L 260.6784 72.478294 
L 260.8272 71.275995 
L 260.976 71.619055 
L 261.2736 70.902134 
L 261.4224 71.282604 
L 261.5712 71.282604 
L 261.72 70.139236 
L 261.8688 70.514231 
L 262.0176 70.330084 
L 262.1664 70.819387 
L 262.3152 70.819387 
L 262.464 69.592278 
L 262.7616 70.400351 
L 262.9104 70.197098 
L 263.208 70.881666 
L 263.3568 70.881666 
L 263.5056 69.761204 
L 263.6544 70.120102 
L 263.8032 70.024755 
L 264.1008 70.682224 
L 264.2496 69.541248 
L 264.3984 69.836592 
L 264.5472 69.836592 
L 264.696 70.185814 
L 264.8448 70.078777 
L 264.9936 70.416178 
L 265.1424 70.416178 
L 265.2912 69.142336 
L 265.7376 70.166233 
L 265.8864 69.981709 
L 266.0352 69.981709 
L 266.184 68.814886 
L 266.928 70.12496 
L 267.0768 68.689201 
L 267.2256 68.689201 
L 267.8208 69.944252 
L 267.9696 69.944252 
L 268.1184 68.789417 
L 268.2672 69.030092 
L 268.416 68.800472 
L 268.8624 69.467726 
L 269.0112 68.117592 
L 269.4576 68.984327 
L 269.6064 68.984327 
L 269.7552 67.150211 
L 270.3504 68.353466 
L 270.4992 68.353466 
L 270.648 67.02689 
L 271.0944 67.821081 
L 271.2432 67.821081 
L 271.392 66.484085 
L 271.5408 66.814653 
L 271.6896 66.475336 
L 272.4336 67.54454 
L 272.5824 66.254007 
L 272.88 66.666046 
L 273.1776 67.199049 
L 273.3264 67.199049 
L 273.4752 65.758106 
L 273.7728 66.273239 
L 273.9216 66.493052 
L 274.0704 66.493052 
L 274.2192 65.039812 
L 274.6656 65.88493 
L 274.9632 66.020828 
L 275.112 64.604021 
L 275.5584 65.190622 
L 277.4928 67.548443 
L 279.7248 69.661955 
L 281.2128 70.781588 
L 281.3616 69.384344 
L 281.5104 71.16972 
L 281.6592 71.43187 
L 281.808 71.43187 
L 282.1056 71.831657 
L 285.9744 75.474349 
L 288.8016 78.618178 
L 289.5456 79.499674 
L 289.8432 80.427229 
L 290.8848 81.715081 
L 291.0336 81.331092 
L 293.8608 85.077639 
L 294.0096 84.393019 
L 294.3072 81.638054 
L 294.6048 82.0533 
L 294.7536 81.488903 
L 294.9024 79.960716 
L 295.2 80.38066 
L 295.4976 77.299802 
L 295.7952 77.723279 
L 296.0928 75.192438 
L 296.2416 75.406142 
L 296.3904 75.620164 
L 296.5392 76.420495 
L 296.8368 73.288971 
L 297.1344 73.723071 
L 297.432 71.846443 
L 297.5808 72.065291 
L 297.7296 72.873013 
L 298.0272 70.638411 
L 298.3248 68.534529 
L 298.4736 68.755697 
L 298.6224 69.56813 
L 299.0688 67.153215 
L 299.2176 67.377028 
L 299.3664 68.194233 
L 299.664 66.440002 
L 299.9616 67.750814 
L 300.2592 65.636044 
L 300.408 65.130878 
L 300.5568 64.098015 
L 300.8544 65.150637 
L 301.0032 64.665459 
L 301.3008 62.6229 
L 301.5984 64.279427 
L 301.7472 63.944715 
L 302.0448 61.898254 
L 302.3424 63.56286 
L 302.4912 63.048277 
L 302.64 61.988531 
L 303.0864 65.095419 
L 303.5328 61.893373 
L 303.9792 63.895741 
L 304.4256 60.664747 
L 304.7232 62.954035 
L 304.872 62.917654 
L 305.3184 60.270144 
L 305.616 62.569101 
L 305.9136 61.5313 
L 306.2112 59.341639 
L 306.5088 61.612679 
L 306.6576 61.712105 
L 306.8064 60.617323 
L 306.9552 60.425406 
L 307.104 59.329416 
L 307.4016 61.483847 
L 307.5504 60.986189 
L 307.6992 60.019844 
L 307.848 59.943552 
L 308.1456 58.340263 
L 308.4432 60.665462 
L 308.592 60.318558 
L 308.7408 59.28154 
L 309.0384 58.598259 
L 309.336 60.931446 
L 309.4848 60.420261 
L 309.7824 58.971222 
L 310.08 57.946959 
L 310.3776 60.287819 
L 310.5264 61.614973 
L 310.6752 61.540821 
L 310.9728 59.902073 
L 311.2704 62.421684 
L 311.4192 62.34914 
L 311.7168 60.703583 
L 311.8656 60.268009 
L 312.0144 60.194338 
L 312.1632 59.675869 
L 312.4608 62.114851 
L 312.6096 61.253099 
L 312.7584 61.253099 
L 313.056 59.950762 
L 313.3536 59.095144 
L 313.6512 62.072388 
L 314.3952 59.468113 
L 314.8416 63.612917 
L 315.5856 61.34808 
L 315.8832 63.990051 
L 316.6272 61.830362 
L 317.0736 66.604156 
L 317.6688 64.543951 
L 317.8176 64.000471 
L 318.1152 67.417505 
L 318.8592 65.076118 
L 319.008 65.258228 
L 319.1568 64.825739 
L 319.4544 67.365967 
L 319.6032 66.817183 
L 319.752 66.934296 
L 320.3472 65.088455 
L 320.6448 68.728895 
L 320.7936 69.819717 
L 320.9424 69.387943 
L 321.0912 69.454113 
L 321.5376 67.969511 
L 321.8352 70.635235 
L 321.984 70.635235 
L 322.1328 70.818998 
L 322.5792 69.339884 
L 322.728 69.400967 
L 322.8768 68.907703 
L 323.3232 73.535342 
L 323.472 73.287884 
L 323.6208 73.287884 
L 323.7696 72.174974 
L 324.0672 72.231603 
L 324.216 71.672373 
L 324.5136 74.970457 
L 324.8112 73.923371 
L 324.96 74.10809 
L 325.1088 73.548932 
L 325.2576 73.676608 
L 325.5552 72.685358 
L 325.704 72.813028 
L 326.1504 77.454443 
L 326.2992 76.895765 
L 326.448 77.023273 
L 326.7456 75.8953 
L 326.8944 75.947522 
L 327.0432 75.382988 
L 327.3408 78.709007 
L 327.4896 78.145157 
L 327.6384 78.278232 
L 327.936 77.282996 
L 328.0848 77.416074 
L 328.2336 76.851614 
L 328.3824 76.98468 
L 328.5312 76.553098 
L 328.9776 81.022099 
L 329.1264 81.208039 
L 329.424 80.208112 
L 329.5728 80.256042 
L 329.7216 79.686776 
L 329.8704 79.734701 
L 330.0192 79.165638 
L 330.3168 82.466037 
L 330.4656 81.897197 
L 330.6144 82.035579 
L 330.7632 81.466536 
L 330.912 81.604903 
L 331.0608 81.174027 
L 331.2096 81.222307 
L 331.5072 80.173299 
L 331.9536 85.410484 
L 332.1024 84.980124 
L 332.2512 85.028764 
L 332.4 84.455492 
L 332.5488 84.499246 
L 332.8464 83.351621 
L 332.9952 83.395366 
L 333.144 82.820995 
L 333.4416 86.241566 
L 333.5904 86.285651 
L 333.7392 85.811399 
L 333.888 85.855479 
L 334.0368 85.381044 
L 334.1856 85.425121 
L 334.3344 84.950478 
L 334.4832 84.994549 
L 334.632 84.519719 
L 334.7808 84.563785 
L 335.2272 89.200765 
L 335.376 88.62725 
L 335.5248 88.666949 
L 335.6736 88.088908 
L 335.8224 88.128605 
L 335.9712 87.550341 
L 336.12 87.590032 
L 336.2688 87.011559 
L 336.4176 87.051247 
L 336.7152 90.465225 
L 336.864 90.035583 
L 337.0128 90.075585 
L 337.1616 89.605728 
L 337.3104 89.645722 
L 337.4592 89.175682 
L 337.608 89.215673 
L 337.7568 88.745436 
L 337.9056 88.785424 
L 338.0544 88.314975 
L 338.5008 93.439078 
L 338.6496 93.009564 
L 338.7984 93.045341 
L 338.9472 92.462923 
L 339.096 92.498697 
L 339.2448 91.916053 
L 339.3936 91.951821 
L 339.6912 90.82164 
L 339.9888 94.277415 
L 340.1376 94.313467 
L 340.2864 93.848084 
L 340.4352 93.884133 
L 340.584 93.418568 
L 340.7328 93.454611 
L 340.8816 92.988819 
L 341.0304 93.024859 
L 341.1792 92.558899 
L 341.328 92.594934 
L 341.4768 92.011253 
L 341.9232 97.361 
L 342.072 97.393365 
L 342.2208 96.806697 
L 342.5184 96.870677 
L 342.6672 96.283795 
L 342.816 96.315967 
L 343.1136 95.173493 
L 343.2624 95.205474 
L 343.4112 94.617914 
L 343.7088 98.727483 
L 343.8576 98.17298 
L 344.0064 98.298679 
L 344.1552 97.711734 
L 344.4528 97.90227 
L 344.6016 97.315136 
L 344.7504 97.347367 
L 344.8992 96.820484 
L 345.048 96.852712 
L 345.3456 95.961036 
L 345.6432 99.721403 
L 346.0896 99.806821 
L 346.3872 98.652782 
L 346.536 98.681129 
L 346.6848 98.089414 
L 347.1312 98.175154 
L 347.28 97.583223 
L 347.4288 97.611916 
L 347.5776 99.184856 
L 347.7264 102.577353 
L 347.8752 101.986263 
L 348.024 102.148865 
L 348.1728 101.557573 
L 348.6192 101.720162 
L 348.9168 100.699571 
L 349.2144 100.86216 
L 349.3632 100.270264 
L 349.512 100.298824 
L 349.8096 104.073323 
L 349.9584 103.503313 
L 350.256 103.553397 
L 350.4048 102.957951 
L 350.5536 102.983156 
L 350.7024 102.387488 
L 351.1488 102.462427 
L 351.4464 101.295781 
L 351.5952 101.320642 
L 352.0416 106.445736 
L 352.3392 106.496561 
L 352.488 105.901292 
L 352.6368 106.017561 
L 352.7856 105.422082 
L 352.9344 105.447149 
L 353.0832 105.589185 
L 353.232 104.993511 
L 353.3808 105.160615 
L 353.5296 104.564733 
L 353.6784 104.589792 
L 353.8272 104.731829 
L 353.976 104.135746 
L 354.2736 107.100051 
L 354.4224 107.121617 
L 354.5712 107.293329 
L 354.72 106.69398 
L 355.0176 106.887241 
L 355.1664 106.437193 
L 355.464 106.459069 
L 355.6128 106.008818 
L 355.7616 106.008818 
L 355.9104 105.430744 
L 356.0592 105.430744 
L 356.208 105.580234 
L 356.5056 110.760274 
L 356.6544 110.161176 
L 356.8032 110.182914 
L 356.952 110.332628 
L 357.1008 109.733329 
L 357.3984 109.926835 
L 357.5472 109.926835 
L 357.9936 108.89877 
L 358.1424 109.048486 
L 358.2912 108.448585 
L 358.5888 108.642067 
L 358.8864 111.611314 
L 359.0352 111.648778 
L 359.184 111.045819 
L 359.4816 111.202607 
L 359.6304 110.599444 
L 359.928 110.774961 
L 360.0768 110.171604 
L 360.3744 110.34712 
L 360.5232 109.743556 
L 360.8208 109.919064 
L 360.9696 109.315301 
L 361.2672 109.490808 
L 361.7136 114.66536 
L 361.8624 114.140793 
L 362.16 114.256927 
L 362.3088 113.653792 
L 362.6064 113.829409 
L 362.7552 113.22608 
L 363.0528 113.40169 
L 363.2016 112.798154 
L 363.3504 112.954883 
L 363.4992 112.351145 
L 363.648 112.366503 
L 363.9456 115.324786 
L 364.2432 115.535815 
L 364.5408 115.567355 
L 364.6896 115.108701 
L 364.9872 115.140237 
L 365.136 114.533453 
L 365.4336 114.697153 
L 365.5824 114.090173 
L 365.88 114.269636 
L 366.0288 113.810391 
L 366.3264 113.857671 
L 366.4752 113.250289 
L 366.9216 119.211223 
L 367.0704 118.621059 
L 367.2192 118.636959 
L 367.368 118.046285 
L 367.6656 118.193782 
L 367.8144 117.587002 
L 368.112 117.750694 
L 368.2608 117.766589 
L 368.4096 117.159616 
L 368.5584 117.307417 
L 368.7072 116.700231 
L 369.0048 116.794974 
L 369.1536 116.184584 
L 369.4512 116.210372 
L 369.7488 119.447285 
L 370.1952 119.48632 
L 370.344 119.020509 
L 370.4928 119.033519 
L 370.6416 118.423313 
L 370.9392 118.593533 
L 371.088 118.483733 
L 371.3856 118.583832 
L 371.5344 118.583832 
L 371.6832 120.887832 
L 518.4 120.887832 
L 518.4 120.887832 
" style="fill:none;stroke:#008000;stroke-linecap:square;"/>
   </g>
   <g id="line2d_2">
    <path clip-path="url(#p8869f717bd)" d="M 72.1488 120 
L 92.5344 120.105256 
L 93.2784 120.391111 
L 94.32 120.959408 
L 95.064 121.517783 
L 95.3616 121.914194 
L 96.552 123.181228 
L 96.8496 123.543706 
L 97.1472 124.120161 
L 97.296 124.120161 
L 97.5936 124.73274 
L 98.1888 125.612305 
L 98.4864 126.309987 
L 98.784 126.797534 
L 99.2304 128.636395 
L 99.6768 129.489396 
L 100.1232 130.977796 
L 100.4208 131.599522 
L 100.7184 132.556824 
L 101.3136 133.872203 
L 101.76 135.589743 
L 103.992 141.117359 
L 104.2896 142.282338 
L 104.736 143.473775 
L 105.1824 145.507507 
L 105.6288 146.765656 
L 106.0752 148.912665 
L 106.5216 150.235465 
L 106.8192 152.032445 
L 106.968 152.032445 
L 108.6048 157.094851 
L 108.7536 157.094851 
L 110.0928 161.297891 
L 110.2416 161.297891 
L 111.2832 164.601849 
L 111.5808 166.044196 
L 112.176 167.986931 
L 112.4736 169.462469 
L 112.6224 169.957592 
L 112.92 171.44838 
L 114.5568 177.006569 
L 114.7056 177.006569 
L 116.0448 181.561518 
L 116.1936 181.561518 
L 116.7888 183.581755 
L 117.0864 185.106583 
L 117.5328 186.646648 
L 117.8304 188.199034 
L 118.128 189.239828 
L 118.5744 191.867237 
L 119.1696 193.987318 
L 119.3184 193.987318 
L 120.0624 196.624065 
L 120.2112 197.679096 
L 120.36 197.679096 
L 123.336 208.175468 
L 123.4848 208.175468 
L 124.6752 212.320461 
L 124.824 212.320461 
L 124.9728 213.348639 
L 125.4192 213.348639 
L 125.568 213.858759 
L 125.7168 213.858759 
L 126.0144 216.374119 
L 127.056 219.912403 
L 127.2048 219.912403 
L 128.3952 223.885162 
L 128.544 223.885162 
L 130.032 228.757256 
L 130.1808 228.757256 
L 131.2224 232.092773 
L 131.3712 232.092773 
L 131.6688 233.031841 
L 131.9664 234.437725 
L 132.1152 234.437725 
L 132.4128 235.850121 
L 133.4544 239.130672 
L 133.6032 239.130672 
L 133.9008 240.519779 
L 134.1984 241.439415 
L 134.3472 241.439415 
L 134.6448 242.355377 
L 134.7936 243.269875 
L 134.9424 243.269875 
L 136.728 248.685299 
L 136.8768 248.685299 
L 137.7696 251.311295 
L 137.9184 251.311295 
L 138.8112 253.88467 
L 138.96 253.88467 
L 139.5552 255.559399 
L 139.704 255.559399 
L 140.1504 256.788769 
L 140.2992 256.788769 
L 141.0432 258.790546 
L 141.192 258.790546 
L 141.6384 259.963223 
L 141.7872 259.963223 
L 142.8288 262.627888 
L 142.9776 262.627888 
L 143.2752 263.746502 
L 143.424 263.746502 
L 143.5728 264.115654 
L 143.8704 265.217972 
L 144.0192 265.217972 
L 144.168 265.584023 
L 144.3168 266.318253 
L 144.4656 266.318253 
L 145.0608 267.767715 
L 145.2096 267.767715 
L 145.9536 269.519909 
L 146.1024 269.519909 
L 146.6976 270.865448 
L 146.8464 270.865448 
L 147.4416 272.167007 
L 147.5904 272.167007 
L 147.888 272.798687 
L 148.0368 272.798687 
L 148.632 274.018227 
L 148.7808 274.018227 
L 149.2272 274.902889 
L 149.376 274.902889 
L 149.9712 276.033405 
L 150.12 276.033405 
L 152.7984 280.761589 
L 155.1792 284.646618 
L 155.328 284.646618 
L 157.56 287.6166 
L 159.792 290.206707 
L 161.8752 292.291386 
L 163.8096 293.939713 
L 166.0416 295.530476 
L 168.1248 296.737438 
L 170.3568 297.756947 
L 172.2912 298.422455 
L 174.5232 298.94323 
L 176.7552 299.236988 
L 178.9872 299.297195 
L 181.8144 299.144485 
L 184.344 298.731102 
L 186.8736 298.072655 
L 189.8496 297.09613 
L 192.528 295.986031 
L 195.3552 294.622753 
L 197.5872 293.431389 
L 197.736 293.182697 
L 198.0336 293.100975 
L 202.2 290.66938 
L 204.432 289.219402 
L 204.7296 288.923607 
L 210.8304 284.706299 
L 216.6336 280.329254 
L 216.9312 279.984272 
L 217.08 279.984272 
L 223.1808 275.181816 
L 223.4784 274.827759 
L 228.24 270.922188 
L 228.5376 270.567616 
L 233.8944 266.198685 
L 234.192 265.846436 
L 238.3584 262.494289 
L 238.656 262.149033 
L 242.0784 259.43169 
L 242.376 259.097443 
L 244.608 257.333427 
L 244.9056 257.005589 
L 256.9584 248.207897 
L 261.4224 245.437958 
L 261.72 245.344654 
L 263.208 244.511776 
L 263.5056 244.418507 
L 264.9936 243.588398 
L 265.2912 243.494717 
L 266.7792 242.663189 
L 266.928 242.663189 
L 267.0768 242.474968 
L 267.3744 242.381882 
L 268.7136 241.643394 
L 269.0112 241.549335 
L 270.3504 240.799324 
L 270.648 240.703938 
L 272.2848 239.755428 
L 272.5824 239.659424 
L 273.9216 238.896984 
L 274.2192 238.799446 
L 277.344 236.895069 
L 281.064 234.686588 
L 281.2128 234.686588 
L 281.6592 234.259781 
L 281.808 234.259781 
L 282.1056 234.010368 
L 284.9328 232.567715 
L 289.0992 230.5196 
L 292.968 228.859577 
L 296.3904 227.376343 
L 298.7712 226.120674 
L 302.64 223.814049 
L 311.8656 217.995049 
L 317.52 214.530436 
L 321.984 212.040596 
L 326.7456 209.700176 
L 330.4656 208.100744 
L 335.2272 206.322538 
L 341.6256 204.347248 
L 352.0416 201.896645 
L 360.672 200.801926 
L 364.0944 200.552542 
L 371.6832 200.256872 
L 371.832 120 
L 518.4 120 
L 518.4 120 
" style="fill:none;stroke:#0000ff;stroke-linecap:square;"/>
   </g>
   <g id="patch_3">
    <path d="M 72 43.2 
L 518.4 43.2 
" style="fill:none;stroke:#000000;stroke-linecap:square;stroke-linejoin:miter;"/>
   </g>
   <g id="patch_4">
    <path d="M 518.4 388.8 
L 518.4 43.2 
" style="fill:none;stroke:#000000;stroke-linecap:square;stroke-linejoin:miter;"/>
   </g>
   <g id="patch_5">
    <path d="M 72 388.8 
L 518.4 388.8 
" style="fill:none;stroke:#000000;stroke-linecap:square;stroke-linejoin:miter;"/>
   </g>
   <g id="patch_6">
    <path d="M 72 388.8 
L 72 43.2 
" style="fill:none;stroke:#000000;stroke-linecap:square;stroke-linejoin:miter;"/>
   </g>
   <g id="matplotlib.axis_1">
    <g id="xtick_1">
     <g id="line2d_3">
      <path clip-path="url(#p8869f717bd)" d="M 72 388.8 
L 72 43.2 
" style="fill:none;stroke:#000000;stroke-dasharray:1.000000,3.000000;stroke-dashoffset:0.0;stroke-width:0.5;"/>
     </g>
     <g id="line2d_4">
      <defs>
       <path d="M 0 0 
L 0 -4 
" id="m33c9a26990" style="stroke:#000000;stroke-width:0.5;"/>
      </defs>
      <g>
       <use style="stroke:#000000;stroke-width:0.5;" x="72.0" xlink:href="#m33c9a26990" y="388.8"/>
      </g>
     </g>
     <g id="line2d_5">
      <defs>
       <path d="M 0 0 
L 0 4 
" id="mbd4c9b1af0" style="stroke:#000000;stroke-width:0.5;"/>
      </defs>
      <g>
       <use style="stroke:#000000;stroke-width:0.5;" x="72.0" xlink:href="#mbd4c9b1af0" y="43.2"/>
      </g>
     </g>
     <g id="text_1">
      <!-- 0 -->
      <defs>
       <path d="M 31.78125 66.40625 
Q 24.171875 66.40625 20.328125 58.90625 
Q 16.5 51.421875 16.5 36.375 
Q 16.5 21.390625 20.328125 13.890625 
Q 24.171875 6.390625 31.78125 6.390625 
Q 39.453125 6.390625 43.28125 13.890625 
Q 47.125 21.390625 47.125 36.375 
Q 47.125 51.421875 43.28125 58.90625 
Q 39.453125 66.40625 31.78125 66.40625 
M 31.78125 74.21875 
Q 44.046875 74.21875 50.515625 64.515625 
Q 56.984375 54.828125 56.984375 36.375 
Q 56.984375 17.96875 50.515625 8.265625 
Q 44.046875 -1.421875 31.78125 -1.421875 
Q 19.53125 -1.421875 13.0625 8.265625 
Q 6.59375 17.96875 6.59375 36.375 
Q 6.59375 54.828125 13.0625 64.515625 
Q 19.53125 74.21875 31.78125 74.21875 
" id="BitstreamVeraSans-Roman-30"/>
      </defs>
      <g transform="translate(68.1825 401.918125)scale(0.12 -0.12)">
       <use xlink:href="#BitstreamVeraSans-Roman-30"/>
      </g>
     </g>
    </g>
    <g id="xtick_2">
     <g id="line2d_6">
      <path clip-path="url(#p8869f717bd)" d="M 146.4 388.8 
L 146.4 43.2 
" style="fill:none;stroke:#000000;stroke-dasharray:1.000000,3.000000;stroke-dashoffset:0.0;stroke-width:0.5;"/>
     </g>
     <g id="line2d_7">
      <g>
       <use style="stroke:#000000;stroke-width:0.5;" x="146.4" xlink:href="#m33c9a26990" y="388.8"/>
      </g>
     </g>
     <g id="line2d_8">
      <g>
       <use style="stroke:#000000;stroke-width:0.5;" x="146.4" xlink:href="#mbd4c9b1af0" y="43.2"/>
      </g>
     </g>
     <g id="text_2">
      <!-- 5 -->
      <defs>
       <path d="M 10.796875 72.90625 
L 49.515625 72.90625 
L 49.515625 64.59375 
L 19.828125 64.59375 
L 19.828125 46.734375 
Q 21.96875 47.46875 24.109375 47.828125 
Q 26.265625 48.1875 28.421875 48.1875 
Q 40.625 48.1875 47.75 41.5 
Q 54.890625 34.8125 54.890625 23.390625 
Q 54.890625 11.625 47.5625 5.09375 
Q 40.234375 -1.421875 26.90625 -1.421875 
Q 22.3125 -1.421875 17.546875 -0.640625 
Q 12.796875 0.140625 7.71875 1.703125 
L 7.71875 11.625 
Q 12.109375 9.234375 16.796875 8.0625 
Q 21.484375 6.890625 26.703125 6.890625 
Q 35.15625 6.890625 40.078125 11.328125 
Q 45.015625 15.765625 45.015625 23.390625 
Q 45.015625 31 40.078125 35.4375 
Q 35.15625 39.890625 26.703125 39.890625 
Q 22.75 39.890625 18.8125 39.015625 
Q 14.890625 38.140625 10.796875 36.28125 
z
" id="BitstreamVeraSans-Roman-35"/>
      </defs>
      <g transform="translate(142.5825 401.918125)scale(0.12 -0.12)">
       <use xlink:href="#BitstreamVeraSans-Roman-35"/>
      </g>
     </g>
    </g>
    <g id="xtick_3">
     <g id="line2d_9">
      <path clip-path="url(#p8869f717bd)" d="M 220.8 388.8 
L 220.8 43.2 
" style="fill:none;stroke:#000000;stroke-dasharray:1.000000,3.000000;stroke-dashoffset:0.0;stroke-width:0.5;"/>
     </g>
     <g id="line2d_10">
      <g>
       <use style="stroke:#000000;stroke-width:0.5;" x="220.8" xlink:href="#m33c9a26990" y="388.8"/>
      </g>
     </g>
     <g id="line2d_11">
      <g>
       <use style="stroke:#000000;stroke-width:0.5;" x="220.8" xlink:href="#mbd4c9b1af0" y="43.2"/>
      </g>
     </g>
     <g id="text_3">
      <!-- 10 -->
      <defs>
       <path d="M 12.40625 8.296875 
L 28.515625 8.296875 
L 28.515625 63.921875 
L 10.984375 60.40625 
L 10.984375 69.390625 
L 28.421875 72.90625 
L 38.28125 72.90625 
L 38.28125 8.296875 
L 54.390625 8.296875 
L 54.390625 0 
L 12.40625 0 
z
" id="BitstreamVeraSans-Roman-31"/>
      </defs>
      <g transform="translate(213.165 401.918125)scale(0.12 -0.12)">
       <use xlink:href="#BitstreamVeraSans-Roman-31"/>
       <use x="63.623046875" xlink:href="#BitstreamVeraSans-Roman-30"/>
      </g>
     </g>
    </g>
    <g id="xtick_4">
     <g id="line2d_12">
      <path clip-path="url(#p8869f717bd)" d="M 295.2 388.8 
L 295.2 43.2 
" style="fill:none;stroke:#000000;stroke-dasharray:1.000000,3.000000;stroke-dashoffset:0.0;stroke-width:0.5;"/>
     </g>
     <g id="line2d_13">
      <g>
       <use style="stroke:#000000;stroke-width:0.5;" x="295.2" xlink:href="#m33c9a26990" y="388.8"/>
      </g>
     </g>
     <g id="line2d_14">
      <g>
       <use style="stroke:#000000;stroke-width:0.5;" x="295.2" xlink:href="#mbd4c9b1af0" y="43.2"/>
      </g>
     </g>
     <g id="text_4">
      <!-- 15 -->
      <g transform="translate(287.565 401.918125)scale(0.12 -0.12)">
       <use xlink:href="#BitstreamVeraSans-Roman-31"/>
       <use x="63.623046875" xlink:href="#BitstreamVeraSans-Roman-35"/>
      </g>
     </g>
    </g>
    <g id="xtick_5">
     <g id="line2d_15">
      <path clip-path="url(#p8869f717bd)" d="M 369.6 388.8 
L 369.6 43.2 
" style="fill:none;stroke:#000000;stroke-dasharray:1.000000,3.000000;stroke-dashoffset:0.0;stroke-width:0.5;"/>
     </g>
     <g id="line2d_16">
      <g>
       <use style="stroke:#000000;stroke-width:0.5;" x="369.6" xlink:href="#m33c9a26990" y="388.8"/>
      </g>
     </g>
     <g id="line2d_17">
      <g>
       <use style="stroke:#000000;stroke-width:0.5;" x="369.6" xlink:href="#mbd4c9b1af0" y="43.2"/>
      </g>
     </g>
     <g id="text_5">
      <!-- 20 -->
      <defs>
       <path d="M 19.1875 8.296875 
L 53.609375 8.296875 
L 53.609375 0 
L 7.328125 0 
L 7.328125 8.296875 
Q 12.9375 14.109375 22.625 23.890625 
Q 32.328125 33.6875 34.8125 36.53125 
Q 39.546875 41.84375 41.421875 45.53125 
Q 43.3125 49.21875 43.3125 52.78125 
Q 43.3125 58.59375 39.234375 62.25 
Q 35.15625 65.921875 28.609375 65.921875 
Q 23.96875 65.921875 18.8125 64.3125 
Q 13.671875 62.703125 7.8125 59.421875 
L 7.8125 69.390625 
Q 13.765625 71.78125 18.9375 73 
Q 24.125 74.21875 28.421875 74.21875 
Q 39.75 74.21875 46.484375 68.546875 
Q 53.21875 62.890625 53.21875 53.421875 
Q 53.21875 48.921875 51.53125 44.890625 
Q 49.859375 40.875 45.40625 35.40625 
Q 44.1875 33.984375 37.640625 27.21875 
Q 31.109375 20.453125 19.1875 8.296875 
" id="BitstreamVeraSans-Roman-32"/>
      </defs>
      <g transform="translate(361.965 401.918125)scale(0.12 -0.12)">
       <use xlink:href="#BitstreamVeraSans-Roman-32"/>
       <use x="63.623046875" xlink:href="#BitstreamVeraSans-Roman-30"/>
      </g>
     </g>
    </g>
    <g id="xtick_6">
     <g id="line2d_18">
      <path clip-path="url(#p8869f717bd)" d="M 444 388.8 
L 444 43.2 
" style="fill:none;stroke:#000000;stroke-dasharray:1.000000,3.000000;stroke-dashoffset:0.0;stroke-width:0.5;"/>
     </g>
     <g id="line2d_19">
      <g>
       <use style="stroke:#000000;stroke-width:0.5;" x="444.0" xlink:href="#m33c9a26990" y="388.8"/>
      </g>
     </g>
     <g id="line2d_20">
      <g>
       <use style="stroke:#000000;stroke-width:0.5;" x="444.0" xlink:href="#mbd4c9b1af0" y="43.2"/>
      </g>
     </g>
     <g id="text_6">
      <!-- 25 -->
      <g transform="translate(436.365 401.918125)scale(0.12 -0.12)">
       <use xlink:href="#BitstreamVeraSans-Roman-32"/>
       <use x="63.623046875" xlink:href="#BitstreamVeraSans-Roman-35"/>
      </g>
     </g>
    </g>
    <g id="xtick_7">
     <g id="line2d_21">
      <path clip-path="url(#p8869f717bd)" d="M 518.4 388.8 
L 518.4 43.2 
" style="fill:none;stroke:#000000;stroke-dasharray:1.000000,3.000000;stroke-dashoffset:0.0;stroke-width:0.5;"/>
     </g>
     <g id="line2d_22">
      <g>
       <use style="stroke:#000000;stroke-width:0.5;" x="518.4" xlink:href="#m33c9a26990" y="388.8"/>
      </g>
     </g>
     <g id="line2d_23">
      <g>
       <use style="stroke:#000000;stroke-width:0.5;" x="518.4" xlink:href="#mbd4c9b1af0" y="43.2"/>
      </g>
     </g>
     <g id="text_7">
      <!-- 30 -->
      <defs>
       <path d="M 40.578125 39.3125 
Q 47.65625 37.796875 51.625 33 
Q 55.609375 28.21875 55.609375 21.1875 
Q 55.609375 10.40625 48.1875 4.484375 
Q 40.765625 -1.421875 27.09375 -1.421875 
Q 22.515625 -1.421875 17.65625 -0.515625 
Q 12.796875 0.390625 7.625 2.203125 
L 7.625 11.71875 
Q 11.71875 9.328125 16.59375 8.109375 
Q 21.484375 6.890625 26.8125 6.890625 
Q 36.078125 6.890625 40.9375 10.546875 
Q 45.796875 14.203125 45.796875 21.1875 
Q 45.796875 27.640625 41.28125 31.265625 
Q 36.765625 34.90625 28.71875 34.90625 
L 20.21875 34.90625 
L 20.21875 43.015625 
L 29.109375 43.015625 
Q 36.375 43.015625 40.234375 45.921875 
Q 44.09375 48.828125 44.09375 54.296875 
Q 44.09375 59.90625 40.109375 62.90625 
Q 36.140625 65.921875 28.71875 65.921875 
Q 24.65625 65.921875 20.015625 65.03125 
Q 15.375 64.15625 9.8125 62.3125 
L 9.8125 71.09375 
Q 15.4375 72.65625 20.34375 73.4375 
Q 25.25 74.21875 29.59375 74.21875 
Q 40.828125 74.21875 47.359375 69.109375 
Q 53.90625 64.015625 53.90625 55.328125 
Q 53.90625 49.265625 50.4375 45.09375 
Q 46.96875 40.921875 40.578125 39.3125 
" id="BitstreamVeraSans-Roman-33"/>
      </defs>
      <g transform="translate(510.765 401.918125)scale(0.12 -0.12)">
       <use xlink:href="#BitstreamVeraSans-Roman-33"/>
       <use x="63.623046875" xlink:href="#BitstreamVeraSans-Roman-30"/>
      </g>
     </g>
    </g>
    <g id="text_8">
     <!-- Time, [s] -->
     <defs>
      <path id="BitstreamVeraSans-Roman-20"/>
      <path d="M 8.59375 75.984375 
L 29.296875 75.984375 
L 29.296875 69 
L 17.578125 69 
L 17.578125 -6.203125 
L 29.296875 -6.203125 
L 29.296875 -13.1875 
L 8.59375 -13.1875 
z
" id="BitstreamVeraSans-Roman-5b"/>
      <path d="M 30.421875 75.984375 
L 30.421875 -13.1875 
L 9.71875 -13.1875 
L 9.71875 -6.203125 
L 21.390625 -6.203125 
L 21.390625 69 
L 9.71875 69 
L 9.71875 75.984375 
z
" id="BitstreamVeraSans-Roman-5d"/>
      <path d="M 52 44.1875 
Q 55.375 50.25 60.0625 53.125 
Q 64.75 56 71.09375 56 
Q 79.640625 56 84.28125 50.015625 
Q 88.921875 44.046875 88.921875 33.015625 
L 88.921875 0 
L 79.890625 0 
L 79.890625 32.71875 
Q 79.890625 40.578125 77.09375 44.375 
Q 74.3125 48.1875 68.609375 48.1875 
Q 61.625 48.1875 57.5625 43.546875 
Q 53.515625 38.921875 53.515625 30.90625 
L 53.515625 0 
L 44.484375 0 
L 44.484375 32.71875 
Q 44.484375 40.625 41.703125 44.40625 
Q 38.921875 48.1875 33.109375 48.1875 
Q 26.21875 48.1875 22.15625 43.53125 
Q 18.109375 38.875 18.109375 30.90625 
L 18.109375 0 
L 9.078125 0 
L 9.078125 54.6875 
L 18.109375 54.6875 
L 18.109375 46.1875 
Q 21.1875 51.21875 25.484375 53.609375 
Q 29.78125 56 35.6875 56 
Q 41.65625 56 45.828125 52.96875 
Q 50 49.953125 52 44.1875 
" id="BitstreamVeraSans-Roman-6d"/>
      <path d="M 11.71875 12.40625 
L 22.015625 12.40625 
L 22.015625 4 
L 14.015625 -11.625 
L 7.71875 -11.625 
L 11.71875 4 
z
" id="BitstreamVeraSans-Roman-2c"/>
      <path d="M 9.421875 54.6875 
L 18.40625 54.6875 
L 18.40625 0 
L 9.421875 0 
z
M 9.421875 75.984375 
L 18.40625 75.984375 
L 18.40625 64.59375 
L 9.421875 64.59375 
z
" id="BitstreamVeraSans-Roman-69"/>
      <path d="M 56.203125 29.59375 
L 56.203125 25.203125 
L 14.890625 25.203125 
Q 15.484375 15.921875 20.484375 11.0625 
Q 25.484375 6.203125 34.421875 6.203125 
Q 39.59375 6.203125 44.453125 7.46875 
Q 49.3125 8.734375 54.109375 11.28125 
L 54.109375 2.78125 
Q 49.265625 0.734375 44.1875 -0.34375 
Q 39.109375 -1.421875 33.890625 -1.421875 
Q 20.796875 -1.421875 13.15625 6.1875 
Q 5.515625 13.8125 5.515625 26.8125 
Q 5.515625 40.234375 12.765625 48.109375 
Q 20.015625 56 32.328125 56 
Q 43.359375 56 49.78125 48.890625 
Q 56.203125 41.796875 56.203125 29.59375 
M 47.21875 32.234375 
Q 47.125 39.59375 43.09375 43.984375 
Q 39.0625 48.390625 32.421875 48.390625 
Q 24.90625 48.390625 20.390625 44.140625 
Q 15.875 39.890625 15.1875 32.171875 
z
" id="BitstreamVeraSans-Roman-65"/>
      <path d="M -0.296875 72.90625 
L 61.375 72.90625 
L 61.375 64.59375 
L 35.5 64.59375 
L 35.5 0 
L 25.59375 0 
L 25.59375 64.59375 
L -0.296875 64.59375 
z
" id="BitstreamVeraSans-Roman-54"/>
      <path d="M 44.28125 53.078125 
L 44.28125 44.578125 
Q 40.484375 46.53125 36.375 47.5 
Q 32.28125 48.484375 27.875 48.484375 
Q 21.1875 48.484375 17.84375 46.4375 
Q 14.5 44.390625 14.5 40.28125 
Q 14.5 37.15625 16.890625 35.375 
Q 19.28125 33.59375 26.515625 31.984375 
L 29.59375 31.296875 
Q 39.15625 29.25 43.1875 25.515625 
Q 47.21875 21.78125 47.21875 15.09375 
Q 47.21875 7.46875 41.1875 3.015625 
Q 35.15625 -1.421875 24.609375 -1.421875 
Q 20.21875 -1.421875 15.453125 -0.5625 
Q 10.6875 0.296875 5.421875 2 
L 5.421875 11.28125 
Q 10.40625 8.6875 15.234375 7.390625 
Q 20.0625 6.109375 24.8125 6.109375 
Q 31.15625 6.109375 34.5625 8.28125 
Q 37.984375 10.453125 37.984375 14.40625 
Q 37.984375 18.0625 35.515625 20.015625 
Q 33.0625 21.96875 24.703125 23.78125 
L 21.578125 24.515625 
Q 13.234375 26.265625 9.515625 29.90625 
Q 5.8125 33.546875 5.8125 39.890625 
Q 5.8125 47.609375 11.28125 51.796875 
Q 16.75 56 26.8125 56 
Q 31.78125 56 36.171875 55.265625 
Q 40.578125 54.546875 44.28125 53.078125 
" id="BitstreamVeraSans-Roman-73"/>
     </defs>
     <g transform="translate(268.71375 418.531875)scale(0.12 -0.12)">
      <use xlink:href="#BitstreamVeraSans-Roman-54"/>
      <use x="61.037109375" xlink:href="#BitstreamVeraSans-Roman-69"/>
      <use x="88.8203125" xlink:href="#BitstreamVeraSans-Roman-6d"/>
      <use x="186.232421875" xlink:href="#BitstreamVeraSans-Roman-65"/>
      <use x="247.755859375" xlink:href="#BitstreamVeraSans-Roman-2c"/>
      <use x="279.54296875" xlink:href="#BitstreamVeraSans-Roman-20"/>
      <use x="311.330078125" xlink:href="#BitstreamVeraSans-Roman-5b"/>
      <use x="350.34375" xlink:href="#BitstreamVeraSans-Roman-73"/>
      <use x="402.443359375" xlink:href="#BitstreamVeraSans-Roman-5d"/>
     </g>
    </g>
   </g>
   <g id="matplotlib.axis_2">
    <g id="ytick_1">
     <g id="line2d_24">
      <path clip-path="url(#p8869f717bd)" d="M 72 312 
L 518.4 312 
" style="fill:none;stroke:#000000;stroke-dasharray:1.000000,3.000000;stroke-dashoffset:0.0;stroke-width:0.5;"/>
     </g>
     <g id="line2d_25">
      <defs>
       <path d="M 0 0 
L 4 0 
" id="m40879f3b8b" style="stroke:#000000;stroke-width:0.5;"/>
      </defs>
      <g>
       <use style="stroke:#000000;stroke-width:0.5;" x="72.0" xlink:href="#m40879f3b8b" y="312.0"/>
      </g>
     </g>
     <g id="line2d_26">
      <defs>
       <path d="M 0 0 
L -4 0 
" id="m8f11f3c175" style="stroke:#000000;stroke-width:0.5;"/>
      </defs>
      <g>
       <use style="stroke:#000000;stroke-width:0.5;" x="518.4" xlink:href="#m8f11f3c175" y="312.0"/>
      </g>
     </g>
     <g id="text_9">
      <!-- −1.0 -->
      <defs>
       <path d="M 10.59375 35.5 
L 73.1875 35.5 
L 73.1875 27.203125 
L 10.59375 27.203125 
z
" id="BitstreamVeraSans-Roman-2212"/>
       <path d="M 10.6875 12.40625 
L 21 12.40625 
L 21 0 
L 10.6875 0 
z
" id="BitstreamVeraSans-Roman-2e"/>
      </defs>
      <g transform="translate(38.860625 315.31125)scale(0.12 -0.12)">
       <use xlink:href="#BitstreamVeraSans-Roman-2212"/>
       <use x="83.7890625" xlink:href="#BitstreamVeraSans-Roman-31"/>
       <use x="147.412109375" xlink:href="#BitstreamVeraSans-Roman-2e"/>
       <use x="179.19921875" xlink:href="#BitstreamVeraSans-Roman-30"/>
      </g>
     </g>
    </g>
    <g id="ytick_2">
     <g id="line2d_27">
      <path clip-path="url(#p8869f717bd)" d="M 72 216 
L 518.4 216 
" style="fill:none;stroke:#000000;stroke-dasharray:1.000000,3.000000;stroke-dashoffset:0.0;stroke-width:0.5;"/>
     </g>
     <g id="line2d_28">
      <g>
       <use style="stroke:#000000;stroke-width:0.5;" x="72.0" xlink:href="#m40879f3b8b" y="216.0"/>
      </g>
     </g>
     <g id="line2d_29">
      <g>
       <use style="stroke:#000000;stroke-width:0.5;" x="518.4" xlink:href="#m8f11f3c175" y="216.0"/>
      </g>
     </g>
     <g id="text_10">
      <!-- −0.5 -->
      <g transform="translate(38.860625 219.31125)scale(0.12 -0.12)">
       <use xlink:href="#BitstreamVeraSans-Roman-2212"/>
       <use x="83.7890625" xlink:href="#BitstreamVeraSans-Roman-30"/>
       <use x="147.412109375" xlink:href="#BitstreamVeraSans-Roman-2e"/>
       <use x="179.19921875" xlink:href="#BitstreamVeraSans-Roman-35"/>
      </g>
     </g>
    </g>
    <g id="ytick_3">
     <g id="line2d_30">
      <path clip-path="url(#p8869f717bd)" d="M 72 120 
L 518.4 120 
" style="fill:none;stroke:#000000;stroke-dasharray:1.000000,3.000000;stroke-dashoffset:0.0;stroke-width:0.5;"/>
     </g>
     <g id="line2d_31">
      <g>
       <use style="stroke:#000000;stroke-width:0.5;" x="72.0" xlink:href="#m40879f3b8b" y="120.0"/>
      </g>
     </g>
     <g id="line2d_32">
      <g>
       <use style="stroke:#000000;stroke-width:0.5;" x="518.4" xlink:href="#m8f11f3c175" y="120.0"/>
      </g>
     </g>
     <g id="text_11">
      <!-- 0.0 -->
      <g transform="translate(48.91625 123.31125)scale(0.12 -0.12)">
       <use xlink:href="#BitstreamVeraSans-Roman-30"/>
       <use x="63.623046875" xlink:href="#BitstreamVeraSans-Roman-2e"/>
       <use x="95.41015625" xlink:href="#BitstreamVeraSans-Roman-30"/>
      </g>
     </g>
    </g>
    <g id="text_12">
     <!-- Accel Cmd [m/s^2] -->
     <defs>
      <path d="M 46.6875 72.90625 
L 73.1875 45.703125 
L 63.375 45.703125 
L 41.890625 64.984375 
L 20.40625 45.703125 
L 10.59375 45.703125 
L 37.109375 72.90625 
z
" id="BitstreamVeraSans-Roman-5e"/>
      <path d="M 9.421875 75.984375 
L 18.40625 75.984375 
L 18.40625 0 
L 9.421875 0 
z
" id="BitstreamVeraSans-Roman-6c"/>
      <path d="M 64.40625 67.28125 
L 64.40625 56.890625 
Q 59.421875 61.53125 53.78125 63.8125 
Q 48.140625 66.109375 41.796875 66.109375 
Q 29.296875 66.109375 22.65625 58.46875 
Q 16.015625 50.828125 16.015625 36.375 
Q 16.015625 21.96875 22.65625 14.328125 
Q 29.296875 6.6875 41.796875 6.6875 
Q 48.140625 6.6875 53.78125 8.984375 
Q 59.421875 11.28125 64.40625 15.921875 
L 64.40625 5.609375 
Q 59.234375 2.09375 53.4375 0.328125 
Q 47.65625 -1.421875 41.21875 -1.421875 
Q 24.65625 -1.421875 15.125 8.703125 
Q 5.609375 18.84375 5.609375 36.375 
Q 5.609375 53.953125 15.125 64.078125 
Q 24.65625 74.21875 41.21875 74.21875 
Q 47.75 74.21875 53.53125 72.484375 
Q 59.328125 70.75 64.40625 67.28125 
" id="BitstreamVeraSans-Roman-43"/>
      <path d="M 34.1875 63.1875 
L 20.796875 26.90625 
L 47.609375 26.90625 
z
M 28.609375 72.90625 
L 39.796875 72.90625 
L 67.578125 0 
L 57.328125 0 
L 50.6875 18.703125 
L 17.828125 18.703125 
L 11.1875 0 
L 0.78125 0 
z
" id="BitstreamVeraSans-Roman-41"/>
      <path d="M 25.390625 72.90625 
L 33.6875 72.90625 
L 8.296875 -9.28125 
L 0 -9.28125 
z
" id="BitstreamVeraSans-Roman-2f"/>
      <path d="M 45.40625 46.390625 
L 45.40625 75.984375 
L 54.390625 75.984375 
L 54.390625 0 
L 45.40625 0 
L 45.40625 8.203125 
Q 42.578125 3.328125 38.25 0.953125 
Q 33.9375 -1.421875 27.875 -1.421875 
Q 17.96875 -1.421875 11.734375 6.484375 
Q 5.515625 14.40625 5.515625 27.296875 
Q 5.515625 40.1875 11.734375 48.09375 
Q 17.96875 56 27.875 56 
Q 33.9375 56 38.25 53.625 
Q 42.578125 51.265625 45.40625 46.390625 
M 14.796875 27.296875 
Q 14.796875 17.390625 18.875 11.75 
Q 22.953125 6.109375 30.078125 6.109375 
Q 37.203125 6.109375 41.296875 11.75 
Q 45.40625 17.390625 45.40625 27.296875 
Q 45.40625 37.203125 41.296875 42.84375 
Q 37.203125 48.484375 30.078125 48.484375 
Q 22.953125 48.484375 18.875 42.84375 
Q 14.796875 37.203125 14.796875 27.296875 
" id="BitstreamVeraSans-Roman-64"/>
      <path d="M 48.78125 52.59375 
L 48.78125 44.1875 
Q 44.96875 46.296875 41.140625 47.34375 
Q 37.3125 48.390625 33.40625 48.390625 
Q 24.65625 48.390625 19.8125 42.84375 
Q 14.984375 37.3125 14.984375 27.296875 
Q 14.984375 17.28125 19.8125 11.734375 
Q 24.65625 6.203125 33.40625 6.203125 
Q 37.3125 6.203125 41.140625 7.25 
Q 44.96875 8.296875 48.78125 10.40625 
L 48.78125 2.09375 
Q 45.015625 0.34375 40.984375 -0.53125 
Q 36.96875 -1.421875 32.421875 -1.421875 
Q 20.0625 -1.421875 12.78125 6.34375 
Q 5.515625 14.109375 5.515625 27.296875 
Q 5.515625 40.671875 12.859375 48.328125 
Q 20.21875 56 33.015625 56 
Q 37.15625 56 41.109375 55.140625 
Q 45.0625 54.296875 48.78125 52.59375 
" id="BitstreamVeraSans-Roman-63"/>
     </defs>
     <g transform="translate(31.365 274.235625)rotate(-90.0)scale(0.12 -0.12)">
      <use xlink:href="#BitstreamVeraSans-Roman-41"/>
      <use x="68.392578125" xlink:href="#BitstreamVeraSans-Roman-63"/>
      <use x="123.373046875" xlink:href="#BitstreamVeraSans-Roman-63"/>
      <use x="178.353515625" xlink:href="#BitstreamVeraSans-Roman-65"/>
      <use x="239.876953125" xlink:href="#BitstreamVeraSans-Roman-6c"/>
      <use x="267.66015625" xlink:href="#BitstreamVeraSans-Roman-20"/>
      <use x="299.447265625" xlink:href="#BitstreamVeraSans-Roman-43"/>
      <use x="369.271484375" xlink:href="#BitstreamVeraSans-Roman-6d"/>
      <use x="466.68359375" xlink:href="#BitstreamVeraSans-Roman-64"/>
      <use x="530.16015625" xlink:href="#BitstreamVeraSans-Roman-20"/>
      <use x="561.947265625" xlink:href="#BitstreamVeraSans-Roman-5b"/>
      <use x="600.9609375" xlink:href="#BitstreamVeraSans-Roman-6d"/>
      <use x="698.373046875" xlink:href="#BitstreamVeraSans-Roman-2f"/>
      <use x="732.064453125" xlink:href="#BitstreamVeraSans-Roman-73"/>
      <use x="784.1640625" xlink:href="#BitstreamVeraSans-Roman-5e"/>
      <use x="867.953125" xlink:href="#BitstreamVeraSans-Roman-32"/>
      <use x="931.576171875" xlink:href="#BitstreamVeraSans-Roman-5d"/>
     </g>
    </g>
   </g>
   <g id="legend_1">
    <g id="patch_7">
     <path d="M 371.673 96.993 
L 511.2 96.993 
L 511.2 50.4 
L 371.673 50.4 
z
" style="fill:#ffffff;stroke:#000000;stroke-linejoin:miter;"/>
    </g>
    <g id="line2d_33">
     <path d="M 381.753 62.06175 
L 401.913 62.06175 
" style="fill:none;stroke:#008000;stroke-linecap:square;"/>
    </g>
    <g id="line2d_34"/>
    <g id="text_13">
     <!-- Proportional -->
     <defs>
      <path d="M 54.890625 33.015625 
L 54.890625 0 
L 45.90625 0 
L 45.90625 32.71875 
Q 45.90625 40.484375 42.875 44.328125 
Q 39.84375 48.1875 33.796875 48.1875 
Q 26.515625 48.1875 22.3125 43.546875 
Q 18.109375 38.921875 18.109375 30.90625 
L 18.109375 0 
L 9.078125 0 
L 9.078125 54.6875 
L 18.109375 54.6875 
L 18.109375 46.1875 
Q 21.34375 51.125 25.703125 53.5625 
Q 30.078125 56 35.796875 56 
Q 45.21875 56 50.046875 50.171875 
Q 54.890625 44.34375 54.890625 33.015625 
" id="BitstreamVeraSans-Roman-6e"/>
      <path d="M 34.28125 27.484375 
Q 23.390625 27.484375 19.1875 25 
Q 14.984375 22.515625 14.984375 16.5 
Q 14.984375 11.71875 18.140625 8.90625 
Q 21.296875 6.109375 26.703125 6.109375 
Q 34.1875 6.109375 38.703125 11.40625 
Q 43.21875 16.703125 43.21875 25.484375 
L 43.21875 27.484375 
z
M 52.203125 31.203125 
L 52.203125 0 
L 43.21875 0 
L 43.21875 8.296875 
Q 40.140625 3.328125 35.546875 0.953125 
Q 30.953125 -1.421875 24.3125 -1.421875 
Q 15.921875 -1.421875 10.953125 3.296875 
Q 6 8.015625 6 15.921875 
Q 6 25.140625 12.171875 29.828125 
Q 18.359375 34.515625 30.609375 34.515625 
L 43.21875 34.515625 
L 43.21875 35.40625 
Q 43.21875 41.609375 39.140625 45 
Q 35.0625 48.390625 27.6875 48.390625 
Q 23 48.390625 18.546875 47.265625 
Q 14.109375 46.140625 10.015625 43.890625 
L 10.015625 52.203125 
Q 14.9375 54.109375 19.578125 55.046875 
Q 24.21875 56 28.609375 56 
Q 40.484375 56 46.34375 49.84375 
Q 52.203125 43.703125 52.203125 31.203125 
" id="BitstreamVeraSans-Roman-61"/>
      <path d="M 30.609375 48.390625 
Q 23.390625 48.390625 19.1875 42.75 
Q 14.984375 37.109375 14.984375 27.296875 
Q 14.984375 17.484375 19.15625 11.84375 
Q 23.34375 6.203125 30.609375 6.203125 
Q 37.796875 6.203125 41.984375 11.859375 
Q 46.1875 17.53125 46.1875 27.296875 
Q 46.1875 37.015625 41.984375 42.703125 
Q 37.796875 48.390625 30.609375 48.390625 
M 30.609375 56 
Q 42.328125 56 49.015625 48.375 
Q 55.71875 40.765625 55.71875 27.296875 
Q 55.71875 13.875 49.015625 6.21875 
Q 42.328125 -1.421875 30.609375 -1.421875 
Q 18.84375 -1.421875 12.171875 6.21875 
Q 5.515625 13.875 5.515625 27.296875 
Q 5.515625 40.765625 12.171875 48.375 
Q 18.84375 56 30.609375 56 
" id="BitstreamVeraSans-Roman-6f"/>
      <path d="M 19.671875 64.796875 
L 19.671875 37.40625 
L 32.078125 37.40625 
Q 38.96875 37.40625 42.71875 40.96875 
Q 46.484375 44.53125 46.484375 51.125 
Q 46.484375 57.671875 42.71875 61.234375 
Q 38.96875 64.796875 32.078125 64.796875 
z
M 9.8125 72.90625 
L 32.078125 72.90625 
Q 44.34375 72.90625 50.609375 67.359375 
Q 56.890625 61.8125 56.890625 51.125 
Q 56.890625 40.328125 50.609375 34.8125 
Q 44.34375 29.296875 32.078125 29.296875 
L 19.671875 29.296875 
L 19.671875 0 
L 9.8125 0 
z
" id="BitstreamVeraSans-Roman-50"/>
      <path d="M 18.3125 70.21875 
L 18.3125 54.6875 
L 36.8125 54.6875 
L 36.8125 47.703125 
L 18.3125 47.703125 
L 18.3125 18.015625 
Q 18.3125 11.328125 20.140625 9.421875 
Q 21.96875 7.515625 27.59375 7.515625 
L 36.8125 7.515625 
L 36.8125 0 
L 27.59375 0 
Q 17.1875 0 13.234375 3.875 
Q 9.28125 7.765625 9.28125 18.015625 
L 9.28125 47.703125 
L 2.6875 47.703125 
L 2.6875 54.6875 
L 9.28125 54.6875 
L 9.28125 70.21875 
z
" id="BitstreamVeraSans-Roman-74"/>
      <path d="M 41.109375 46.296875 
Q 39.59375 47.171875 37.8125 47.578125 
Q 36.03125 48 33.890625 48 
Q 26.265625 48 22.1875 43.046875 
Q 18.109375 38.09375 18.109375 28.8125 
L 18.109375 0 
L 9.078125 0 
L 9.078125 54.6875 
L 18.109375 54.6875 
L 18.109375 46.1875 
Q 20.953125 51.171875 25.484375 53.578125 
Q 30.03125 56 36.53125 56 
Q 37.453125 56 38.578125 55.875 
Q 39.703125 55.765625 41.0625 55.515625 
z
" id="BitstreamVeraSans-Roman-72"/>
      <path d="M 18.109375 8.203125 
L 18.109375 -20.796875 
L 9.078125 -20.796875 
L 9.078125 54.6875 
L 18.109375 54.6875 
L 18.109375 46.390625 
Q 20.953125 51.265625 25.265625 53.625 
Q 29.59375 56 35.59375 56 
Q 45.5625 56 51.78125 48.09375 
Q 58.015625 40.1875 58.015625 27.296875 
Q 58.015625 14.40625 51.78125 6.484375 
Q 45.5625 -1.421875 35.59375 -1.421875 
Q 29.59375 -1.421875 25.265625 0.953125 
Q 20.953125 3.328125 18.109375 8.203125 
M 48.6875 27.296875 
Q 48.6875 37.203125 44.609375 42.84375 
Q 40.53125 48.484375 33.40625 48.484375 
Q 26.265625 48.484375 22.1875 42.84375 
Q 18.109375 37.203125 18.109375 27.296875 
Q 18.109375 17.390625 22.1875 11.75 
Q 26.265625 6.109375 33.40625 6.109375 
Q 40.53125 6.109375 44.609375 11.75 
Q 48.6875 17.390625 48.6875 27.296875 
" id="BitstreamVeraSans-Roman-70"/>
     </defs>
     <g transform="translate(417.753 67.10175)scale(0.144 -0.144)">
      <use xlink:href="#BitstreamVeraSans-Roman-50"/>
      <use x="60.287109375" xlink:href="#BitstreamVeraSans-Roman-72"/>
      <use x="101.369140625" xlink:href="#BitstreamVeraSans-Roman-6f"/>
      <use x="162.55078125" xlink:href="#BitstreamVeraSans-Roman-70"/>
      <use x="226.02734375" xlink:href="#BitstreamVeraSans-Roman-6f"/>
      <use x="287.208984375" xlink:href="#BitstreamVeraSans-Roman-72"/>
      <use x="328.322265625" xlink:href="#BitstreamVeraSans-Roman-74"/>
      <use x="367.53125" xlink:href="#BitstreamVeraSans-Roman-69"/>
      <use x="395.314453125" xlink:href="#BitstreamVeraSans-Roman-6f"/>
      <use x="456.49609375" xlink:href="#BitstreamVeraSans-Roman-6e"/>
      <use x="519.875" xlink:href="#BitstreamVeraSans-Roman-61"/>
      <use x="581.154296875" xlink:href="#BitstreamVeraSans-Roman-6c"/>
     </g>
    </g>
    <g id="line2d_35">
     <path d="M 381.753 83.19825 
L 401.913 83.19825 
" style="fill:none;stroke:#0000ff;stroke-linecap:square;"/>
    </g>
    <g id="line2d_36"/>
    <g id="text_14">
     <!-- Integral -->
     <defs>
      <path d="M 45.40625 27.984375 
Q 45.40625 37.75 41.375 43.109375 
Q 37.359375 48.484375 30.078125 48.484375 
Q 22.859375 48.484375 18.828125 43.109375 
Q 14.796875 37.75 14.796875 27.984375 
Q 14.796875 18.265625 18.828125 12.890625 
Q 22.859375 7.515625 30.078125 7.515625 
Q 37.359375 7.515625 41.375 12.890625 
Q 45.40625 18.265625 45.40625 27.984375 
M 54.390625 6.78125 
Q 54.390625 -7.171875 48.1875 -13.984375 
Q 42 -20.796875 29.203125 -20.796875 
Q 24.46875 -20.796875 20.265625 -20.09375 
Q 16.0625 -19.390625 12.109375 -17.921875 
L 12.109375 -9.1875 
Q 16.0625 -11.328125 19.921875 -12.34375 
Q 23.78125 -13.375 27.78125 -13.375 
Q 36.625 -13.375 41.015625 -8.765625 
Q 45.40625 -4.15625 45.40625 5.171875 
L 45.40625 9.625 
Q 42.625 4.78125 38.28125 2.390625 
Q 33.9375 0 27.875 0 
Q 17.828125 0 11.671875 7.65625 
Q 5.515625 15.328125 5.515625 27.984375 
Q 5.515625 40.671875 11.671875 48.328125 
Q 17.828125 56 27.875 56 
Q 33.9375 56 38.28125 53.609375 
Q 42.625 51.21875 45.40625 46.390625 
L 45.40625 54.6875 
L 54.390625 54.6875 
z
" id="BitstreamVeraSans-Roman-67"/>
      <path d="M 9.8125 72.90625 
L 19.671875 72.90625 
L 19.671875 0 
L 9.8125 0 
z
" id="BitstreamVeraSans-Roman-49"/>
     </defs>
     <g transform="translate(417.753 88.23825)scale(0.144 -0.144)">
      <use xlink:href="#BitstreamVeraSans-Roman-49"/>
      <use x="29.4921875" xlink:href="#BitstreamVeraSans-Roman-6e"/>
      <use x="92.87109375" xlink:href="#BitstreamVeraSans-Roman-74"/>
      <use x="132.080078125" xlink:href="#BitstreamVeraSans-Roman-65"/>
      <use x="193.603515625" xlink:href="#BitstreamVeraSans-Roman-67"/>
      <use x="257.080078125" xlink:href="#BitstreamVeraSans-Roman-72"/>
      <use x="298.193359375" xlink:href="#BitstreamVeraSans-Roman-61"/>
      <use x="359.47265625" xlink:href="#BitstreamVeraSans-Roman-6c"/>
     </g>
    </g>
   </g>
  </g>
 </g>
 <defs>
  <clipPath id="p8869f717bd">
   <rect height="345.6" width="446.4" x="72.0" y="43.2"/>
  </clipPath>
 </defs>
</svg>
