<?xml version="1.0" encoding="utf-8" standalone="no"?>
<!DOCTYPE svg PUBLIC "-//W3C//DTD SVG 1.1//EN"
  "http://www.w3.org/Graphics/SVG/1.1/DTD/svg11.dtd">
<!-- Created with matplotlib (http://matplotlib.org/) -->
<svg height="432pt" version="1.1" viewBox="0 0 576 432" width="576pt" xmlns="http://www.w3.org/2000/svg" xmlns:xlink="http://www.w3.org/1999/xlink">
 <defs>
  <style type="text/css">
*{stroke-linecap:butt;stroke-linejoin:round;stroke-miterlimit:100000;}
  </style>
 </defs>
 <g id="figure_1">
  <g id="patch_1">
   <path d="M 0 432 
L 576 432 
L 576 0 
L 0 0 
z
" style="fill:#ffffff;"/>
  </g>
  <g id="axes_1">
   <g id="patch_2">
    <path d="M 72 388.8 
L 518.4 388.8 
L 518.4 43.2 
L 72 43.2 
z
" style="fill:#ffffff;"/>
   </g>
   <g id="line2d_1">
    <path clip-path="url(#pd7dce42995)" d="M 72.1488 290.064469 
L 96.4032 291.356293 
L 98.3376 291.752856 
L 100.1232 292.335674 
L 103.3968 293.686658 
L 106.6704 295.247892 
L 111.8784 298.082607 
L 116.1936 300.676127 
L 120.6576 303.549976 
L 128.9904 309.212585 
L 151.4592 324.484483 
L 157.4112 328.110049 
L 163.8096 331.754764 
L 170.8032 335.464019 
L 178.392 339.209327 
L 186.4272 342.904248 
L 195.3552 346.731707 
L 205.0272 350.606037 
L 215.2944 354.484205 
L 227.496 358.864423 
L 241.9296 363.811279 
L 261.1248 370.142227 
L 274.368 374.35656 
L 297.7296 381.472688 
L 301.5984 382.36691 
L 306.36 383.225945 
L 311.8656 383.971688 
L 318.264 384.608649 
L 326.7456 385.218519 
L 340.2864 385.96788 
L 355.6128 386.627161 
L 377.784 387.515469 
L 383.736 388.095961 
L 390.7296 388.8 
L 518.4 388.8 
L 518.4 388.8 
" style="fill:none;stroke:#ff0000;stroke-linecap:square;"/>
   </g>
   <g id="line2d_2">
    <path clip-path="url(#pd7dce42995)" d="M 72.1488 289.88363 
L 72.2976 290.066522 
L 74.6784 290.173207 
L 76.7616 290.279903 
L 79.1424 290.386588 
L 81.3744 290.508516 
L 83.7552 290.615212 
L 85.9872 290.737141 
L 88.368 290.843825 
L 90.4512 290.950521 
L 91.6416 291.011485 
L 95.064 293.276815 
L 95.3616 293.563991 
L 98.1888 295.496908 
L 98.4864 295.78913 
L 98.784 295.984307 
L 99.2304 296.66842 
L 99.9744 297.256024 
L 100.272 297.550058 
L 101.3136 298.335536 
L 101.76 298.827328 
L 104.736 300.899093 
L 105.1824 301.393428 
L 105.9264 301.986838 
L 106.224 302.283679 
L 106.6704 302.679452 
L 106.8192 302.877346 
L 107.1168 302.976399 
L 110.0928 304.856875 
L 110.3904 304.955706 
L 112.176 306.240961 
L 112.4736 306.537413 
L 118.128 310.373724 
L 118.5744 310.862708 
L 123.336 313.87391 
L 123.6336 313.970424 
L 125.1216 314.835913 
L 125.7168 314.931916 
L 126.0144 315.410397 
L 128.3952 316.838749 
L 128.6928 316.933614 
L 131.2224 318.44142 
L 131.52 318.535021 
L 136.8768 321.777818 
L 138.8112 322.870798 
L 139.1088 322.961423 
L 140.1504 323.503302 
L 140.448 323.593263 
L 141.6384 324.221131 
L 141.936 324.310365 
L 145.0608 326.080285 
L 145.3584 326.150746 
L 147.2928 326.984109 
L 147.888 327.209473 
L 148.1856 327.295805 
L 150.864 328.390113 
L 152.0544 328.950875 
L 157.2624 330.974517 
L 158.304 331.397317 
L 160.8336 332.392209 
L 161.5776 332.681065 
L 164.5536 333.807462 
L 165.4464 334.183071 
L 167.976 335.123246 
L 169.1664 335.61509 
L 171.3984 336.44493 
L 172.2912 336.789557 
L 173.7792 337.371926 
L 175.7136 338.111925 
L 177.648 338.808353 
L 178.2432 339.020248 
L 179.136 339.38182 
L 180.3264 339.883393 
L 187.7664 342.583985 
L 188.9568 343.074238 
L 190.5936 343.626631 
L 191.6352 343.979254 
L 203.3904 348.269587 
L 204.432 348.632418 
L 204.8784 348.849422 
L 205.3248 348.924198 
L 206.5152 349.373239 
L 207.408 349.695749 
L 210.9792 350.988783 
L 212.0208 351.336236 
L 213.2112 351.790558 
L 214.4016 352.179739 
L 215.7408 352.699824 
L 216.6336 352.988443 
L 216.9312 353.145574 
L 217.2288 353.20051 
L 218.568 353.70637 
L 222.8832 355.191837 
L 224.8176 355.960746 
L 226.008 356.30216 
L 226.4544 356.508053 
L 227.3472 356.780309 
L 228.984 357.414356 
L 230.1744 357.766041 
L 242.376 362.102643 
L 243.7152 362.567345 
L 244.608 362.838779 
L 245.0544 363.030197 
L 245.9472 363.294695 
L 252.1968 365.519508 
L 253.6848 366.01564 
L 254.28 366.229876 
L 256.0656 366.870594 
L 256.6608 367.07802 
L 258.8928 367.868492 
L 273.1776 372.357256 
L 273.624 372.463711 
L 276.3024 373.303962 
L 294.0096 379.344097 
L 294.9024 379.503967 
L 295.7952 379.722881 
L 297.432 380.047521 
L 298.0272 380.170725 
L 299.0688 380.342921 
L 299.9616 380.575809 
L 301.4496 380.805227 
L 301.896 380.883969 
L 302.64 381.015845 
L 303.384 381.180902 
L 303.8304 381.289925 
L 308.8896 381.996603 
L 310.08 382.124447 
L 310.824 382.296404 
L 311.8656 382.416824 
L 314.6928 382.783002 
L 315.1392 382.8371 
L 316.6272 382.96907 
L 317.3712 383.127253 
L 319.008 383.257433 
L 320.3472 383.377223 
L 321.0912 383.533704 
L 322.8768 383.659348 
L 323.6208 383.815881 
L 325.704 383.943175 
L 326.448 384.095133 
L 328.5312 384.222401 
L 329.2752 384.374404 
L 331.5072 384.49819 
L 332.2512 384.650244 
L 334.7808 384.777332 
L 335.376 384.924752 
L 337.9056 385.051808 
L 338.352 385.163602 
L 338.9472 385.204735 
L 341.0304 385.326279 
L 341.7744 385.440121 
L 342.2208 385.481518 
L 345.048 385.605462 
L 347.5776 385.785908 
L 347.8752 385.87048 
L 351.744 386.061617 
L 352.1904 386.149667 
L 355.464 386.271805 
L 356.3568 386.389514 
L 356.952 386.428335 
L 360.5232 386.551441 
L 361.5648 386.669407 
L 362.16 386.708112 
L 365.88 386.830567 
L 366.7728 386.948388 
L 367.368 386.984147 
L 371.6832 387.164318 
L 371.832 388.8 
L 518.4 388.8 
L 518.4 388.8 
" style="fill:none;stroke:#bfbf00;stroke-dasharray:6.000000,6.000000;stroke-dashoffset:0.0;"/>
   </g>
   <g id="line2d_3">
    <path clip-path="url(#pd7dce42995)" d="M 72.1488 388.8 
L 72.2976 85.023031 
L 81.8208 85.023031 
L 81.9696 299.189279 
L 87.1776 301.324126 
L 87.4752 301.389625 
L 89.7072 302.424275 
L 90.3024 302.628659 
L 90.6 302.695165 
L 92.6832 303.66599 
L 93.1296 303.935462 
L 93.576 304.138076 
L 93.8736 304.077676 
L 99.528 306.566868 
L 99.6768 306.542348 
L 99.8256 306.749755 
L 100.1232 306.805947 
L 100.272 306.805947 
L 100.7184 307.012296 
L 100.8672 307.116368 
L 101.016 307.08026 
L 101.6112 307.49537 
L 101.76 307.482986 
L 102.2064 307.70342 
L 102.504 307.738379 
L 102.6528 307.899729 
L 102.8016 307.887682 
L 103.0992 308.095911 
L 103.5456 308.200526 
L 104.5872 308.735852 
L 104.8848 308.817738 
L 105.1824 309.063286 
L 105.48 309.03962 
L 106.0752 309.379986 
L 106.224 309.379986 
L 106.3728 309.508873 
L 106.5216 309.485475 
L 107.1168 309.838119 
L 107.2656 309.83913 
L 107.4144 309.968444 
L 107.5632 309.945325 
L 108.0096 310.205564 
L 108.1584 310.182604 
L 108.7536 310.560378 
L 109.2 310.612762 
L 109.3488 310.810841 
L 109.4976 310.788244 
L 110.0928 311.18162 
L 110.5392 311.233245 
L 111.2832 311.532299 
L 111.432 311.805696 
L 111.7296 311.783725 
L 112.0272 311.929226 
L 112.4736 312.167926 
L 112.6224 312.17116 
L 113.0688 312.425247 
L 113.2176 312.425247 
L 113.5152 312.572032 
L 113.9616 312.827435 
L 114.2592 312.842711 
L 114.7056 313.086294 
L 114.8544 313.042575 
L 115.3008 313.377457 
L 115.4496 313.367892 
L 115.896 313.646819 
L 116.1936 313.781821 
L 116.4912 313.84908 
L 117.2352 314.204742 
L 117.5328 314.340756 
L 117.8304 314.47699 
L 118.128 314.613452 
L 118.4256 314.778683 
L 118.7232 314.770113 
L 119.1696 315.055946 
L 119.3184 315.055946 
L 119.4672 315.173524 
L 119.616 315.136916 
L 119.7648 315.350897 
L 120.0624 315.37194 
L 120.36 315.521464 
L 120.8064 315.791553 
L 121.4016 315.963727 
L 121.5504 316.121916 
L 121.6992 316.114288 
L 121.848 316.27262 
L 122.1456 316.295338 
L 122.592 316.567418 
L 122.8896 316.643826 
L 123.0384 316.674577 
L 123.1872 316.874947 
L 123.4848 316.879218 
L 123.7824 317.031434 
L 123.9312 317.051229 
L 124.3776 317.336614 
L 124.824 317.361397 
L 124.9728 317.647625 
L 125.7168 317.647625 
L 125.8656 317.818092 
L 126.0144 317.818092 
L 126.1632 317.938878 
L 126.312 317.904498 
L 126.6096 318.28539 
L 126.7584 318.290763 
L 127.056 318.451217 
L 127.2048 318.451217 
L 127.3536 318.56693 
L 127.5024 318.527309 
L 127.8 318.762075 
L 128.0976 318.901823 
L 128.544 319.063852 
L 128.6928 319.185891 
L 128.9904 319.226418 
L 129.1392 319.388274 
L 129.288 319.383222 
L 129.5856 319.523966 
L 129.8832 319.681265 
L 130.032 319.850146 
L 130.4784 319.772975 
L 130.6272 320.014735 
L 130.776 320.010221 
L 131.2224 320.310576 
L 131.52 320.317624 
L 131.9664 320.619106 
L 132.1152 320.619106 
L 132.4128 320.778617 
L 132.5616 320.786044 
L 132.8592 320.929047 
L 133.3056 321.096897 
L 133.6032 321.257461 
L 134.0496 321.53386 
L 134.6448 321.714694 
L 134.9424 321.847863 
L 135.5376 322.026879 
L 135.8352 322.200739 
L 135.984 322.198158 
L 136.4304 322.480351 
L 136.5792 322.489263 
L 136.8768 322.652772 
L 137.0256 322.661874 
L 137.3232 322.80808 
L 137.472 322.806057 
L 137.7696 323.118943 
L 138.216 323.126723 
L 138.6624 323.411308 
L 139.2576 323.596623 
L 139.5552 323.743346 
L 139.8528 323.743346 
L 140.0016 324.019639 
L 140.2992 324.019639 
L 140.448 324.206883 
L 140.7456 324.217449 
L 141.192 324.504357 
L 141.7872 324.608687 
L 141.936 324.803221 
L 142.0848 324.803221 
L 142.2336 324.971902 
L 142.5312 324.983201 
L 142.8288 325.122296 
L 142.9776 325.122296 
L 143.1264 325.33358 
L 143.5728 325.424658 
L 147.2928 327.003388 
L 147.5904 327.151948 
L 148.0368 327.15424 
L 148.3344 327.311291 
L 148.632 327.449375 
L 148.7808 327.449375 
L 148.9296 327.728997 
L 149.5248 327.740501 
L 149.9712 327.992797 
L 150.12 327.992797 
L 150.2688 328.268405 
L 150.7152 328.275495 
L 151.3104 328.655103 
L 151.4592 328.655103 
L 151.7568 328.801393 
L 152.0544 328.936732 
L 152.352 328.913319 
L 152.7984 329.191867 
L 153.2448 329.300638 
L 153.6912 329.569088 
L 154.1376 329.673714 
L 154.4352 329.883428 
L 154.584 329.8552 
L 155.0304 330.064856 
L 155.328 330.064856 
L 155.6256 330.303067 
L 155.7744 330.308998 
L 156.2208 330.580699 
L 156.3696 330.55403 
L 156.816 330.815301 
L 157.2624 330.92866 
L 157.7088 331.157921 
L 157.8576 331.164874 
L 158.1552 331.294414 
L 158.6016 331.535864 
L 158.8992 331.632599 
L 159.048 331.640147 
L 159.4944 331.871373 
L 159.6432 331.879222 
L 159.792 332.002394 
L 159.9408 331.976684 
L 160.3872 332.242706 
L 160.536 332.206008 
L 160.9824 332.472863 
L 161.1312 332.44749 
L 161.5776 332.681065 
L 161.7264 332.678843 
L 161.8752 332.814055 
L 162.024 332.777784 
L 162.3216 332.911217 
L 162.768 333.146204 
L 162.9168 333.110196 
L 163.3632 333.380348 
L 163.512 333.34453 
L 163.6608 333.469382 
L 163.8096 333.444768 
L 164.1072 333.579933 
L 165 334.032362 
L 165.1488 333.997034 
L 165.4464 334.133527 
L 165.8928 334.361092 
L 166.0416 334.326043 
L 166.1904 334.452028 
L 166.3392 334.428167 
L 166.6368 334.680467 
L 166.7856 334.656738 
L 166.9344 334.783054 
L 167.0832 334.748316 
L 167.3808 334.875654 
L 167.8272 335.06992 
L 167.976 335.071136 
L 168.1248 335.198011 
L 168.2736 335.174745 
L 168.5712 335.392987 
L 168.72 335.394631 
L 168.8688 335.521853 
L 169.0176 335.487742 
L 169.1664 335.61509 
L 169.3152 335.592146 
L 169.464 335.719631 
L 169.6128 335.685704 
L 169.9104 335.941034 
L 170.0592 335.907254 
L 170.208 336.035093 
L 170.3568 336.001414 
L 170.5056 336.129394 
L 170.6544 336.09581 
L 170.952 336.226914 
L 171.5472 336.553237 
L 171.696 336.52 
L 171.9936 336.615487 
L 172.2912 336.700175 
L 172.5888 336.86597 
L 176.3088 338.314481 
L 176.4576 338.282909 
L 176.7552 338.495883 
L 177.2016 338.602505 
L 177.7968 338.916539 
L 177.9456 338.874543 
L 178.5408 339.189752 
L 178.6896 339.159006 
L 178.8384 339.280166 
L 178.9872 339.249536 
L 179.2848 339.464444 
L 179.4336 339.433962 
L 179.88 339.740622 
L 180.3264 339.802292 
L 180.624 340.018327 
L 181.2192 340.080966 
L 181.5168 340.297576 
L 181.9632 340.3612 
L 182.4096 340.672226 
L 182.5584 340.643024 
L 182.856 340.76638 
L 183.4512 341.050248 
L 183.8976 341.105245 
L 184.4928 341.414243 
L 184.6416 341.38039 
L 184.7904 341.504847 
L 185.088 341.560639 
L 185.2368 341.696215 
L 185.3856 341.657253 
L 185.9808 341.93362 
L 186.2784 342.020242 
L 186.7248 342.202566 
L 186.8736 342.175081 
L 187.0224 342.385448 
L 187.4688 342.484174 
L 191.04 343.796482 
L 191.1888 343.760142 
L 191.9328 344.1636 
L 192.0816 344.127709 
L 192.6768 344.40395 
L 192.8256 344.368411 
L 193.5696 344.729864 
L 193.8672 344.827055 
L 194.3136 344.974219 
L 194.6112 345.060894 
L 195.2064 345.330682 
L 195.504 345.394014 
L 195.6528 345.525166 
L 195.8016 345.491125 
L 196.5456 345.816714 
L 196.992 345.915305 
L 197.1408 346.090194 
L 197.4384 346.057 
L 198.1824 346.419583 
L 198.3312 346.386846 
L 198.6288 346.607817 
L 198.7776 346.575349 
L 199.3728 346.820694 
L 199.6704 346.908891 
L 200.2656 347.187926 
L 200.4144 347.145782 
L 201.1584 347.514992 
L 201.3072 347.483946 
L 202.0512 347.844607 
L 202.2 347.814085 
L 202.944 348.140282 
L 203.3904 348.206368 
L 204.1344 348.524337 
L 204.432 348.632418 
L 205.92 349.203404 
L 206.0688 349.175203 
L 206.8128 349.498471 
L 206.9616 349.470778 
L 207.2592 349.69056 
L 207.408 349.663218 
L 208.152 349.989288 
L 208.3008 349.952074 
L 209.1936 350.421039 
L 209.3424 350.384568 
L 210.0864 350.714697 
L 210.384 350.770604 
L 210.9792 351.010785 
L 211.2768 351.067612 
L 211.872 351.360484 
L 212.1696 351.418417 
L 212.7648 351.66204 
L 213.0624 351.720948 
L 213.6576 351.966227 
L 213.9552 352.026133 
L 214.5504 352.273106 
L 215.1456 352.510953 
L 215.2944 352.489035 
L 215.4432 352.666319 
L 215.8896 352.728452 
L 216.4848 352.979202 
L 216.6336 352.948154 
L 216.7824 353.126585 
L 217.08 353.106056 
L 217.5264 353.379426 
L 217.6752 353.349225 
L 218.2704 353.688561 
L 218.568 353.669227 
L 218.8656 353.79458 
L 219.1632 353.86063 
L 219.6096 354.022548 
L 220.3536 354.356585 
L 220.6512 354.424634 
L 221.0976 354.589244 
L 221.544 354.754697 
L 222.1392 354.950927 
L 222.7344 355.204884 
L 222.8832 355.179185 
L 223.4784 355.464896 
L 223.776 355.537309 
L 224.52 355.893232 
L 225.264 355.978221 
L 226.1568 356.409132 
L 226.752 356.613798 
L 227.0496 356.702826 
L 227.1984 356.681307 
L 227.6448 356.968757 
L 227.7936 356.887613 
L 228.3888 357.245316 
L 228.6864 357.264187 
L 229.2816 357.534697 
L 229.5792 357.615948 
L 229.8768 357.644911 
L 230.6208 358.009208 
L 230.7696 357.929163 
L 231.3648 358.296495 
L 231.5136 358.226381 
L 232.2576 358.596803 
L 232.704 358.619252 
L 233.2992 358.891139 
L 234.0432 359.124288 
L 234.6384 359.410016 
L 235.3824 359.622611 
L 235.5312 359.716633 
L 235.68 359.648005 
L 236.424 360.060902 
L 236.7216 360.145114 
L 238.3584 360.618833 
L 238.5072 360.810802 
L 238.8048 360.839622 
L 239.2512 361.034367 
L 239.9952 361.258126 
L 241.0368 361.710131 
L 241.1856 361.643883 
L 241.632 361.840137 
L 241.9296 361.872465 
L 242.5248 362.20159 
L 242.9712 362.235172 
L 243.5664 362.567927 
L 243.864 362.60281 
L 244.3104 362.803114 
L 244.4592 362.729508 
L 245.2032 363.177583 
L 245.5008 363.104591 
L 245.7984 363.316078 
L 245.9472 363.243351 
L 246.3936 363.481678 
L 246.6912 363.587346 
L 246.9888 363.728867 
L 247.2864 363.857487 
L 248.0304 364.006475 
L 248.328 364.144255 
L 248.6256 364.259436 
L 249.2208 364.426885 
L 249.816 364.784215 
L 249.9648 364.722602 
L 250.4112 364.95868 
L 251.0064 365.109084 
L 252.048 365.452125 
L 252.4944 365.691713 
L 253.3872 365.88813 
L 253.6848 366.02914 
L 253.8336 366.046253 
L 254.1312 366.20578 
L 254.4288 366.33945 
L 254.7264 366.449227 
L 254.8752 366.390691 
L 255.1728 366.524719 
L 255.4704 366.655739 
L 255.6192 366.798247 
L 255.768 366.732529 
L 256.0656 366.95518 
L 256.2144 366.897751 
L 256.6608 367.144971 
L 257.1072 367.200244 
L 257.256 367.31282 
L 257.4048 367.248428 
L 257.8512 367.497693 
L 259.6368 368.09173 
L 260.232 368.291447 
L 260.5296 368.430039 
L 260.8272 368.463302 
L 260.976 368.609769 
L 261.1248 368.548832 
L 261.4224 368.688254 
L 261.5712 368.688254 
L 261.8688 368.871109 
L 262.0176 368.978855 
L 262.3152 368.908342 
L 262.6128 369.196751 
L 262.7616 369.13751 
L 263.208 369.398546 
L 263.6544 369.488501 
L 264.1008 369.672539 
L 264.8448 369.911497 
L 265.5888 370.169645 
L 265.8864 370.313649 
L 266.184 370.362559 
L 266.3328 370.507289 
L 266.4816 370.459011 
L 266.7792 370.604117 
L 266.928 370.604117 
L 267.0768 370.802134 
L 267.672 370.901242 
L 267.9696 371.028622 
L 268.1184 370.9948 
L 268.5648 371.251206 
L 268.8624 371.217907 
L 269.16 371.422209 
L 269.3088 371.431405 
L 269.6064 371.598251 
L 269.904 371.678258 
L 270.2016 371.80949 
L 270.4992 371.897717 
L 271.5408 372.25261 
L 271.8384 372.404071 
L 272.2848 372.514352 
L 272.5824 372.586818 
L 272.88 372.756379 
L 273.1776 372.847923 
L 273.3264 372.847923 
L 273.4752 373.001855 
L 273.624 372.957269 
L 273.9216 373.095964 
L 274.0704 373.095964 
L 274.2192 373.250939 
L 274.368 373.22313 
L 274.5168 373.363155 
L 274.6656 373.320489 
L 274.9632 373.461631 
L 275.4096 373.591855 
L 275.7072 373.749165 
L 276.0048 373.852012 
L 276.1536 373.86645 
L 276.3024 374.010529 
L 276.4512 373.971163 
L 276.7488 374.130435 
L 276.8976 374.091937 
L 277.344 374.398959 
L 277.6416 374.37524 
L 277.9392 374.536483 
L 278.2368 374.649573 
L 278.3856 374.662338 
L 278.5344 374.812233 
L 278.6832 374.777487 
L 278.9808 374.940511 
L 279.576 375.081328 
L 280.0224 375.360157 
L 280.1712 375.325191 
L 280.4688 375.488387 
L 280.9152 375.616577 
L 281.2128 375.767207 
L 281.5104 375.744728 
L 281.6592 375.914389 
L 281.9568 376.023494 
L 282.7008 376.177049 
L 282.9984 376.327775 
L 283.296 376.305153 
L 283.5936 376.468651 
L 283.8912 376.596757 
L 284.6352 376.737634 
L 284.9328 376.865691 
L 285.0816 376.865691 
L 285.528 377.144552 
L 285.9744 377.121688 
L 286.272 377.285441 
L 286.5696 377.413423 
L 286.8672 377.42634 
L 287.016 377.577264 
L 287.1648 377.541364 
L 287.4624 377.705247 
L 287.76 377.682244 
L 288.0576 377.846169 
L 288.3552 377.823131 
L 288.6528 377.9871 
L 288.9504 378.101999 
L 289.8432 378.268989 
L 290.1408 378.383829 
L 290.4384 378.356257 
L 290.736 378.520395 
L 291.3312 378.661327 
L 291.6288 378.780371 
L 292.5216 378.9476 
L 292.8192 379.075395 
L 293.5632 379.216351 
L 293.8608 379.33087 
L 294.9024 379.461534 
L 295.2 379.626016 
L 295.4976 379.602464 
L 295.7952 379.766989 
L 296.0928 379.743403 
L 296.3904 379.90797 
L 297.432 380.047521 
L 297.7296 380.198853 
L 298.176 380.184073 
L 299.0688 380.33843 
L 299.3664 380.457161 
L 300.5568 380.616034 
L 300.8544 380.725752 
L 302.64 381.012263 
L 302.9376 381.168237 
L 304.4256 381.294333 
L 304.7232 381.441354 
L 309.0384 382.001139 
L 309.336 382.152789 
L 309.7824 382.119515 
L 310.08 382.124062 
L 310.3776 382.280269 
L 310.9728 382.246924 
L 311.2704 382.39403 
L 314.3952 382.676202 
L 314.6928 382.823368 
L 316.6272 382.96907 
L 316.9248 383.116282 
L 319.1568 383.262028 
L 319.4544 383.357127 
L 320.3472 383.375567 
L 320.6448 383.522814 
L 322.8768 383.659348 
L 323.1744 383.806632 
L 324.3648 383.915359 
L 325.704 383.943175 
L 326.0016 384.085858 
L 328.5312 384.222401 
L 328.8288 384.365102 
L 330.168 384.473667 
L 331.5072 384.496985 
L 331.8048 384.639698 
L 334.7808 384.776235 
L 335.0784 384.918966 
L 338.0544 385.055503 
L 338.352 385.198253 
L 339.84 385.306561 
L 343.4112 385.447764 
L 343.7088 385.590507 
L 345.3456 385.614097 
L 345.6432 385.756884 
L 346.0896 385.708082 
L 347.4288 385.727003 
L 347.7264 385.869764 
L 349.512 385.888692 
L 349.8096 386.031492 
L 350.256 385.987285 
L 351.5952 386.001518 
L 351.8928 386.144292 
L 356.208 386.280781 
L 356.5056 386.423573 
L 358.7376 386.531424 
L 363.648 386.667863 
L 363.9456 386.810643 
L 371.5344 387.109086 
L 371.6832 387.640124 
L 372.4272 387.640124 
L 372.7248 387.778205 
L 518.4 387.695356 
L 518.4 387.695356 
" style="fill:none;stroke:#0000ff;stroke-linecap:square;"/>
   </g>
   <g id="line2d_4">
    <path clip-path="url(#pd7dce42995)" d="M 72.1488 241.514197 
L 91.4928 241.514197 
L 91.6416 290.609465 
L 518.4 290.609465 
L 518.4 290.609465 
" style="fill:none;stroke:#000000;stroke-linecap:square;"/>
   </g>
   <g id="line2d_5">
    <path clip-path="url(#pd7dce42995)" d="M 72.1488 388.8 
L 518.4 388.8 
L 518.4 388.8 
" style="fill:none;stroke:#bf00bf;stroke-linecap:square;"/>
   </g>
   <g id="patch_3">
    <path d="M 72 43.2 
L 518.4 43.2 
" style="fill:none;stroke:#000000;stroke-linecap:square;stroke-linejoin:miter;"/>
   </g>
   <g id="patch_4">
    <path d="M 518.4 388.8 
L 518.4 43.2 
" style="fill:none;stroke:#000000;stroke-linecap:square;stroke-linejoin:miter;"/>
   </g>
   <g id="patch_5">
    <path d="M 72 388.8 
L 518.4 388.8 
" style="fill:none;stroke:#000000;stroke-linecap:square;stroke-linejoin:miter;"/>
   </g>
   <g id="patch_6">
    <path d="M 72 388.8 
L 72 43.2 
" style="fill:none;stroke:#000000;stroke-linecap:square;stroke-linejoin:miter;"/>
   </g>
   <g id="matplotlib.axis_1">
    <g id="xtick_1">
     <g id="line2d_6">
      <path clip-path="url(#pd7dce42995)" d="M 72 388.8 
L 72 43.2 
" style="fill:none;stroke:#000000;stroke-dasharray:1.000000,3.000000;stroke-dashoffset:0.0;stroke-width:0.5;"/>
     </g>
     <g id="line2d_7">
      <defs>
       <path d="M 0 0 
L 0 -4 
" id="m6b3d3c3e21" style="stroke:#000000;stroke-width:0.5;"/>
      </defs>
      <g>
       <use style="stroke:#000000;stroke-width:0.5;" x="72.0" xlink:href="#m6b3d3c3e21" y="388.8"/>
      </g>
     </g>
     <g id="line2d_8">
      <defs>
       <path d="M 0 0 
L 0 4 
" id="m83535aa24b" style="stroke:#000000;stroke-width:0.5;"/>
      </defs>
      <g>
       <use style="stroke:#000000;stroke-width:0.5;" x="72.0" xlink:href="#m83535aa24b" y="43.2"/>
      </g>
     </g>
     <g id="text_1">
      <!-- 0 -->
      <defs>
       <path d="M 31.78125 66.40625 
Q 24.171875 66.40625 20.328125 58.90625 
Q 16.5 51.421875 16.5 36.375 
Q 16.5 21.390625 20.328125 13.890625 
Q 24.171875 6.390625 31.78125 6.390625 
Q 39.453125 6.390625 43.28125 13.890625 
Q 47.125 21.390625 47.125 36.375 
Q 47.125 51.421875 43.28125 58.90625 
Q 39.453125 66.40625 31.78125 66.40625 
M 31.78125 74.21875 
Q 44.046875 74.21875 50.515625 64.515625 
Q 56.984375 54.828125 56.984375 36.375 
Q 56.984375 17.96875 50.515625 8.265625 
Q 44.046875 -1.421875 31.78125 -1.421875 
Q 19.53125 -1.421875 13.0625 8.265625 
Q 6.59375 17.96875 6.59375 36.375 
Q 6.59375 54.828125 13.0625 64.515625 
Q 19.53125 74.21875 31.78125 74.21875 
" id="BitstreamVeraSans-Roman-30"/>
      </defs>
      <g transform="translate(68.1825 401.918125)scale(0.12 -0.12)">
       <use xlink:href="#BitstreamVeraSans-Roman-30"/>
      </g>
     </g>
    </g>
    <g id="xtick_2">
     <g id="line2d_9">
      <path clip-path="url(#pd7dce42995)" d="M 146.4 388.8 
L 146.4 43.2 
" style="fill:none;stroke:#000000;stroke-dasharray:1.000000,3.000000;stroke-dashoffset:0.0;stroke-width:0.5;"/>
     </g>
     <g id="line2d_10">
      <g>
       <use style="stroke:#000000;stroke-width:0.5;" x="146.4" xlink:href="#m6b3d3c3e21" y="388.8"/>
      </g>
     </g>
     <g id="line2d_11">
      <g>
       <use style="stroke:#000000;stroke-width:0.5;" x="146.4" xlink:href="#m83535aa24b" y="43.2"/>
      </g>
     </g>
     <g id="text_2">
      <!-- 5 -->
      <defs>
       <path d="M 10.796875 72.90625 
L 49.515625 72.90625 
L 49.515625 64.59375 
L 19.828125 64.59375 
L 19.828125 46.734375 
Q 21.96875 47.46875 24.109375 47.828125 
Q 26.265625 48.1875 28.421875 48.1875 
Q 40.625 48.1875 47.75 41.5 
Q 54.890625 34.8125 54.890625 23.390625 
Q 54.890625 11.625 47.5625 5.09375 
Q 40.234375 -1.421875 26.90625 -1.421875 
Q 22.3125 -1.421875 17.546875 -0.640625 
Q 12.796875 0.140625 7.71875 1.703125 
L 7.71875 11.625 
Q 12.109375 9.234375 16.796875 8.0625 
Q 21.484375 6.890625 26.703125 6.890625 
Q 35.15625 6.890625 40.078125 11.328125 
Q 45.015625 15.765625 45.015625 23.390625 
Q 45.015625 31 40.078125 35.4375 
Q 35.15625 39.890625 26.703125 39.890625 
Q 22.75 39.890625 18.8125 39.015625 
Q 14.890625 38.140625 10.796875 36.28125 
z
" id="BitstreamVeraSans-Roman-35"/>
      </defs>
      <g transform="translate(142.5825 401.918125)scale(0.12 -0.12)">
       <use xlink:href="#BitstreamVeraSans-Roman-35"/>
      </g>
     </g>
    </g>
    <g id="xtick_3">
     <g id="line2d_12">
      <path clip-path="url(#pd7dce42995)" d="M 220.8 388.8 
L 220.8 43.2 
" style="fill:none;stroke:#000000;stroke-dasharray:1.000000,3.000000;stroke-dashoffset:0.0;stroke-width:0.5;"/>
     </g>
     <g id="line2d_13">
      <g>
       <use style="stroke:#000000;stroke-width:0.5;" x="220.8" xlink:href="#m6b3d3c3e21" y="388.8"/>
      </g>
     </g>
     <g id="line2d_14">
      <g>
       <use style="stroke:#000000;stroke-width:0.5;" x="220.8" xlink:href="#m83535aa24b" y="43.2"/>
      </g>
     </g>
     <g id="text_3">
      <!-- 10 -->
      <defs>
       <path d="M 12.40625 8.296875 
L 28.515625 8.296875 
L 28.515625 63.921875 
L 10.984375 60.40625 
L 10.984375 69.390625 
L 28.421875 72.90625 
L 38.28125 72.90625 
L 38.28125 8.296875 
L 54.390625 8.296875 
L 54.390625 0 
L 12.40625 0 
z
" id="BitstreamVeraSans-Roman-31"/>
      </defs>
      <g transform="translate(213.165 401.918125)scale(0.12 -0.12)">
       <use xlink:href="#BitstreamVeraSans-Roman-31"/>
       <use x="63.623046875" xlink:href="#BitstreamVeraSans-Roman-30"/>
      </g>
     </g>
    </g>
    <g id="xtick_4">
     <g id="line2d_15">
      <path clip-path="url(#pd7dce42995)" d="M 295.2 388.8 
L 295.2 43.2 
" style="fill:none;stroke:#000000;stroke-dasharray:1.000000,3.000000;stroke-dashoffset:0.0;stroke-width:0.5;"/>
     </g>
     <g id="line2d_16">
      <g>
       <use style="stroke:#000000;stroke-width:0.5;" x="295.2" xlink:href="#m6b3d3c3e21" y="388.8"/>
      </g>
     </g>
     <g id="line2d_17">
      <g>
       <use style="stroke:#000000;stroke-width:0.5;" x="295.2" xlink:href="#m83535aa24b" y="43.2"/>
      </g>
     </g>
     <g id="text_4">
      <!-- 15 -->
      <g transform="translate(287.565 401.918125)scale(0.12 -0.12)">
       <use xlink:href="#BitstreamVeraSans-Roman-31"/>
       <use x="63.623046875" xlink:href="#BitstreamVeraSans-Roman-35"/>
      </g>
     </g>
    </g>
    <g id="xtick_5">
     <g id="line2d_18">
      <path clip-path="url(#pd7dce42995)" d="M 369.6 388.8 
L 369.6 43.2 
" style="fill:none;stroke:#000000;stroke-dasharray:1.000000,3.000000;stroke-dashoffset:0.0;stroke-width:0.5;"/>
     </g>
     <g id="line2d_19">
      <g>
       <use style="stroke:#000000;stroke-width:0.5;" x="369.6" xlink:href="#m6b3d3c3e21" y="388.8"/>
      </g>
     </g>
     <g id="line2d_20">
      <g>
       <use style="stroke:#000000;stroke-width:0.5;" x="369.6" xlink:href="#m83535aa24b" y="43.2"/>
      </g>
     </g>
     <g id="text_5">
      <!-- 20 -->
      <defs>
       <path d="M 19.1875 8.296875 
L 53.609375 8.296875 
L 53.609375 0 
L 7.328125 0 
L 7.328125 8.296875 
Q 12.9375 14.109375 22.625 23.890625 
Q 32.328125 33.6875 34.8125 36.53125 
Q 39.546875 41.84375 41.421875 45.53125 
Q 43.3125 49.21875 43.3125 52.78125 
Q 43.3125 58.59375 39.234375 62.25 
Q 35.15625 65.921875 28.609375 65.921875 
Q 23.96875 65.921875 18.8125 64.3125 
Q 13.671875 62.703125 7.8125 59.421875 
L 7.8125 69.390625 
Q 13.765625 71.78125 18.9375 73 
Q 24.125 74.21875 28.421875 74.21875 
Q 39.75 74.21875 46.484375 68.546875 
Q 53.21875 62.890625 53.21875 53.421875 
Q 53.21875 48.921875 51.53125 44.890625 
Q 49.859375 40.875 45.40625 35.40625 
Q 44.1875 33.984375 37.640625 27.21875 
Q 31.109375 20.453125 19.1875 8.296875 
" id="BitstreamVeraSans-Roman-32"/>
      </defs>
      <g transform="translate(361.965 401.918125)scale(0.12 -0.12)">
       <use xlink:href="#BitstreamVeraSans-Roman-32"/>
       <use x="63.623046875" xlink:href="#BitstreamVeraSans-Roman-30"/>
      </g>
     </g>
    </g>
    <g id="xtick_6">
     <g id="line2d_21">
      <path clip-path="url(#pd7dce42995)" d="M 444 388.8 
L 444 43.2 
" style="fill:none;stroke:#000000;stroke-dasharray:1.000000,3.000000;stroke-dashoffset:0.0;stroke-width:0.5;"/>
     </g>
     <g id="line2d_22">
      <g>
       <use style="stroke:#000000;stroke-width:0.5;" x="444.0" xlink:href="#m6b3d3c3e21" y="388.8"/>
      </g>
     </g>
     <g id="line2d_23">
      <g>
       <use style="stroke:#000000;stroke-width:0.5;" x="444.0" xlink:href="#m83535aa24b" y="43.2"/>
      </g>
     </g>
     <g id="text_6">
      <!-- 25 -->
      <g transform="translate(436.365 401.918125)scale(0.12 -0.12)">
       <use xlink:href="#BitstreamVeraSans-Roman-32"/>
       <use x="63.623046875" xlink:href="#BitstreamVeraSans-Roman-35"/>
      </g>
     </g>
    </g>
    <g id="xtick_7">
     <g id="line2d_24">
      <path clip-path="url(#pd7dce42995)" d="M 518.4 388.8 
L 518.4 43.2 
" style="fill:none;stroke:#000000;stroke-dasharray:1.000000,3.000000;stroke-dashoffset:0.0;stroke-width:0.5;"/>
     </g>
     <g id="line2d_25">
      <g>
       <use style="stroke:#000000;stroke-width:0.5;" x="518.4" xlink:href="#m6b3d3c3e21" y="388.8"/>
      </g>
     </g>
     <g id="line2d_26">
      <g>
       <use style="stroke:#000000;stroke-width:0.5;" x="518.4" xlink:href="#m83535aa24b" y="43.2"/>
      </g>
     </g>
     <g id="text_7">
      <!-- 30 -->
      <defs>
       <path d="M 40.578125 39.3125 
Q 47.65625 37.796875 51.625 33 
Q 55.609375 28.21875 55.609375 21.1875 
Q 55.609375 10.40625 48.1875 4.484375 
Q 40.765625 -1.421875 27.09375 -1.421875 
Q 22.515625 -1.421875 17.65625 -0.515625 
Q 12.796875 0.390625 7.625 2.203125 
L 7.625 11.71875 
Q 11.71875 9.328125 16.59375 8.109375 
Q 21.484375 6.890625 26.8125 6.890625 
Q 36.078125 6.890625 40.9375 10.546875 
Q 45.796875 14.203125 45.796875 21.1875 
Q 45.796875 27.640625 41.28125 31.265625 
Q 36.765625 34.90625 28.71875 34.90625 
L 20.21875 34.90625 
L 20.21875 43.015625 
L 29.109375 43.015625 
Q 36.375 43.015625 40.234375 45.921875 
Q 44.09375 48.828125 44.09375 54.296875 
Q 44.09375 59.90625 40.109375 62.90625 
Q 36.140625 65.921875 28.71875 65.921875 
Q 24.65625 65.921875 20.015625 65.03125 
Q 15.375 64.15625 9.8125 62.3125 
L 9.8125 71.09375 
Q 15.4375 72.65625 20.34375 73.4375 
Q 25.25 74.21875 29.59375 74.21875 
Q 40.828125 74.21875 47.359375 69.109375 
Q 53.90625 64.015625 53.90625 55.328125 
Q 53.90625 49.265625 50.4375 45.09375 
Q 46.96875 40.921875 40.578125 39.3125 
" id="BitstreamVeraSans-Roman-33"/>
      </defs>
      <g transform="translate(510.765 401.918125)scale(0.12 -0.12)">
       <use xlink:href="#BitstreamVeraSans-Roman-33"/>
       <use x="63.623046875" xlink:href="#BitstreamVeraSans-Roman-30"/>
      </g>
     </g>
    </g>
    <g id="text_8">
     <!-- Time [s] -->
     <defs>
      <path id="BitstreamVeraSans-Roman-20"/>
      <path d="M 8.59375 75.984375 
L 29.296875 75.984375 
L 29.296875 69 
L 17.578125 69 
L 17.578125 -6.203125 
L 29.296875 -6.203125 
L 29.296875 -13.1875 
L 8.59375 -13.1875 
z
" id="BitstreamVeraSans-Roman-5b"/>
      <path d="M 30.421875 75.984375 
L 30.421875 -13.1875 
L 9.71875 -13.1875 
L 9.71875 -6.203125 
L 21.390625 -6.203125 
L 21.390625 69 
L 9.71875 69 
L 9.71875 75.984375 
z
" id="BitstreamVeraSans-Roman-5d"/>
      <path d="M 52 44.1875 
Q 55.375 50.25 60.0625 53.125 
Q 64.75 56 71.09375 56 
Q 79.640625 56 84.28125 50.015625 
Q 88.921875 44.046875 88.921875 33.015625 
L 88.921875 0 
L 79.890625 0 
L 79.890625 32.71875 
Q 79.890625 40.578125 77.09375 44.375 
Q 74.3125 48.1875 68.609375 48.1875 
Q 61.625 48.1875 57.5625 43.546875 
Q 53.515625 38.921875 53.515625 30.90625 
L 53.515625 0 
L 44.484375 0 
L 44.484375 32.71875 
Q 44.484375 40.625 41.703125 44.40625 
Q 38.921875 48.1875 33.109375 48.1875 
Q 26.21875 48.1875 22.15625 43.53125 
Q 18.109375 38.875 18.109375 30.90625 
L 18.109375 0 
L 9.078125 0 
L 9.078125 54.6875 
L 18.109375 54.6875 
L 18.109375 46.1875 
Q 21.1875 51.21875 25.484375 53.609375 
Q 29.78125 56 35.6875 56 
Q 41.65625 56 45.828125 52.96875 
Q 50 49.953125 52 44.1875 
" id="BitstreamVeraSans-Roman-6d"/>
      <path d="M 9.421875 54.6875 
L 18.40625 54.6875 
L 18.40625 0 
L 9.421875 0 
z
M 9.421875 75.984375 
L 18.40625 75.984375 
L 18.40625 64.59375 
L 9.421875 64.59375 
z
" id="BitstreamVeraSans-Roman-69"/>
      <path d="M 56.203125 29.59375 
L 56.203125 25.203125 
L 14.890625 25.203125 
Q 15.484375 15.921875 20.484375 11.0625 
Q 25.484375 6.203125 34.421875 6.203125 
Q 39.59375 6.203125 44.453125 7.46875 
Q 49.3125 8.734375 54.109375 11.28125 
L 54.109375 2.78125 
Q 49.265625 0.734375 44.1875 -0.34375 
Q 39.109375 -1.421875 33.890625 -1.421875 
Q 20.796875 -1.421875 13.15625 6.1875 
Q 5.515625 13.8125 5.515625 26.8125 
Q 5.515625 40.234375 12.765625 48.109375 
Q 20.015625 56 32.328125 56 
Q 43.359375 56 49.78125 48.890625 
Q 56.203125 41.796875 56.203125 29.59375 
M 47.21875 32.234375 
Q 47.125 39.59375 43.09375 43.984375 
Q 39.0625 48.390625 32.421875 48.390625 
Q 24.90625 48.390625 20.390625 44.140625 
Q 15.875 39.890625 15.1875 32.171875 
z
" id="BitstreamVeraSans-Roman-65"/>
      <path d="M -0.296875 72.90625 
L 61.375 72.90625 
L 61.375 64.59375 
L 35.5 64.59375 
L 35.5 0 
L 25.59375 0 
L 25.59375 64.59375 
L -0.296875 64.59375 
z
" id="BitstreamVeraSans-Roman-54"/>
      <path d="M 44.28125 53.078125 
L 44.28125 44.578125 
Q 40.484375 46.53125 36.375 47.5 
Q 32.28125 48.484375 27.875 48.484375 
Q 21.1875 48.484375 17.84375 46.4375 
Q 14.5 44.390625 14.5 40.28125 
Q 14.5 37.15625 16.890625 35.375 
Q 19.28125 33.59375 26.515625 31.984375 
L 29.59375 31.296875 
Q 39.15625 29.25 43.1875 25.515625 
Q 47.21875 21.78125 47.21875 15.09375 
Q 47.21875 7.46875 41.1875 3.015625 
Q 35.15625 -1.421875 24.609375 -1.421875 
Q 20.21875 -1.421875 15.453125 -0.5625 
Q 10.6875 0.296875 5.421875 2 
L 5.421875 11.28125 
Q 10.40625 8.6875 15.234375 7.390625 
Q 20.0625 6.109375 24.8125 6.109375 
Q 31.15625 6.109375 34.5625 8.28125 
Q 37.984375 10.453125 37.984375 14.40625 
Q 37.984375 18.0625 35.515625 20.015625 
Q 33.0625 21.96875 24.703125 23.78125 
L 21.578125 24.515625 
Q 13.234375 26.265625 9.515625 29.90625 
Q 5.8125 33.546875 5.8125 39.890625 
Q 5.8125 47.609375 11.28125 51.796875 
Q 16.75 56 26.8125 56 
Q 31.78125 56 36.171875 55.265625 
Q 40.578125 54.546875 44.28125 53.078125 
" id="BitstreamVeraSans-Roman-73"/>
     </defs>
     <g transform="translate(270.620625 418.531875)scale(0.12 -0.12)">
      <use xlink:href="#BitstreamVeraSans-Roman-54"/>
      <use x="61.037109375" xlink:href="#BitstreamVeraSans-Roman-69"/>
      <use x="88.8203125" xlink:href="#BitstreamVeraSans-Roman-6d"/>
      <use x="186.232421875" xlink:href="#BitstreamVeraSans-Roman-65"/>
      <use x="247.755859375" xlink:href="#BitstreamVeraSans-Roman-20"/>
      <use x="279.54296875" xlink:href="#BitstreamVeraSans-Roman-5b"/>
      <use x="318.556640625" xlink:href="#BitstreamVeraSans-Roman-73"/>
      <use x="370.65625" xlink:href="#BitstreamVeraSans-Roman-5d"/>
     </g>
    </g>
   </g>
   <g id="matplotlib.axis_2">
    <g id="ytick_1">
     <g id="line2d_27">
      <path clip-path="url(#pd7dce42995)" d="M 72 388.8 
L 518.4 388.8 
" style="fill:none;stroke:#000000;stroke-dasharray:1.000000,3.000000;stroke-dashoffset:0.0;stroke-width:0.5;"/>
     </g>
     <g id="line2d_28">
      <defs>
       <path d="M 0 0 
L 4 0 
" id="m2d7bd12646" style="stroke:#000000;stroke-width:0.5;"/>
      </defs>
      <g>
       <use style="stroke:#000000;stroke-width:0.5;" x="72.0" xlink:href="#m2d7bd12646" y="388.8"/>
      </g>
     </g>
     <g id="line2d_29">
      <defs>
       <path d="M 0 0 
L -4 0 
" id="m7f64f3871d" style="stroke:#000000;stroke-width:0.5;"/>
      </defs>
      <g>
       <use style="stroke:#000000;stroke-width:0.5;" x="518.4" xlink:href="#m7f64f3871d" y="388.8"/>
      </g>
     </g>
     <g id="text_9">
      <!-- 0 -->
      <g transform="translate(60.365 392.11125)scale(0.12 -0.12)">
       <use xlink:href="#BitstreamVeraSans-Roman-30"/>
      </g>
     </g>
    </g>
    <g id="ytick_2">
     <g id="line2d_30">
      <path clip-path="url(#pd7dce42995)" d="M 72 339.428571 
L 518.4 339.428571 
" style="fill:none;stroke:#000000;stroke-dasharray:1.000000,3.000000;stroke-dashoffset:0.0;stroke-width:0.5;"/>
     </g>
     <g id="line2d_31">
      <g>
       <use style="stroke:#000000;stroke-width:0.5;" x="72.0" xlink:href="#m2d7bd12646" y="339.428571429"/>
      </g>
     </g>
     <g id="line2d_32">
      <g>
       <use style="stroke:#000000;stroke-width:0.5;" x="518.4" xlink:href="#m7f64f3871d" y="339.428571429"/>
      </g>
     </g>
     <g id="text_10">
      <!-- 20 -->
      <g transform="translate(52.73 342.739821429)scale(0.12 -0.12)">
       <use xlink:href="#BitstreamVeraSans-Roman-32"/>
       <use x="63.623046875" xlink:href="#BitstreamVeraSans-Roman-30"/>
      </g>
     </g>
    </g>
    <g id="ytick_3">
     <g id="line2d_33">
      <path clip-path="url(#pd7dce42995)" d="M 72 290.057143 
L 518.4 290.057143 
" style="fill:none;stroke:#000000;stroke-dasharray:1.000000,3.000000;stroke-dashoffset:0.0;stroke-width:0.5;"/>
     </g>
     <g id="line2d_34">
      <g>
       <use style="stroke:#000000;stroke-width:0.5;" x="72.0" xlink:href="#m2d7bd12646" y="290.057142857"/>
      </g>
     </g>
     <g id="line2d_35">
      <g>
       <use style="stroke:#000000;stroke-width:0.5;" x="518.4" xlink:href="#m7f64f3871d" y="290.057142857"/>
      </g>
     </g>
     <g id="text_11">
      <!-- 40 -->
      <defs>
       <path d="M 37.796875 64.3125 
L 12.890625 25.390625 
L 37.796875 25.390625 
z
M 35.203125 72.90625 
L 47.609375 72.90625 
L 47.609375 25.390625 
L 58.015625 25.390625 
L 58.015625 17.1875 
L 47.609375 17.1875 
L 47.609375 0 
L 37.796875 0 
L 37.796875 17.1875 
L 4.890625 17.1875 
L 4.890625 26.703125 
z
" id="BitstreamVeraSans-Roman-34"/>
      </defs>
      <g transform="translate(52.73 293.368392857)scale(0.12 -0.12)">
       <use xlink:href="#BitstreamVeraSans-Roman-34"/>
       <use x="63.623046875" xlink:href="#BitstreamVeraSans-Roman-30"/>
      </g>
     </g>
    </g>
    <g id="ytick_4">
     <g id="line2d_36">
      <path clip-path="url(#pd7dce42995)" d="M 72 240.685714 
L 518.4 240.685714 
" style="fill:none;stroke:#000000;stroke-dasharray:1.000000,3.000000;stroke-dashoffset:0.0;stroke-width:0.5;"/>
     </g>
     <g id="line2d_37">
      <g>
       <use style="stroke:#000000;stroke-width:0.5;" x="72.0" xlink:href="#m2d7bd12646" y="240.685714286"/>
      </g>
     </g>
     <g id="line2d_38">
      <g>
       <use style="stroke:#000000;stroke-width:0.5;" x="518.4" xlink:href="#m7f64f3871d" y="240.685714286"/>
      </g>
     </g>
     <g id="text_12">
      <!-- 60 -->
      <defs>
       <path d="M 33.015625 40.375 
Q 26.375 40.375 22.484375 35.828125 
Q 18.609375 31.296875 18.609375 23.390625 
Q 18.609375 15.53125 22.484375 10.953125 
Q 26.375 6.390625 33.015625 6.390625 
Q 39.65625 6.390625 43.53125 10.953125 
Q 47.40625 15.53125 47.40625 23.390625 
Q 47.40625 31.296875 43.53125 35.828125 
Q 39.65625 40.375 33.015625 40.375 
M 52.59375 71.296875 
L 52.59375 62.3125 
Q 48.875 64.0625 45.09375 64.984375 
Q 41.3125 65.921875 37.59375 65.921875 
Q 27.828125 65.921875 22.671875 59.328125 
Q 17.53125 52.734375 16.796875 39.40625 
Q 19.671875 43.65625 24.015625 45.921875 
Q 28.375 48.1875 33.59375 48.1875 
Q 44.578125 48.1875 50.953125 41.515625 
Q 57.328125 34.859375 57.328125 23.390625 
Q 57.328125 12.15625 50.6875 5.359375 
Q 44.046875 -1.421875 33.015625 -1.421875 
Q 20.359375 -1.421875 13.671875 8.265625 
Q 6.984375 17.96875 6.984375 36.375 
Q 6.984375 53.65625 15.1875 63.9375 
Q 23.390625 74.21875 37.203125 74.21875 
Q 40.921875 74.21875 44.703125 73.484375 
Q 48.484375 72.75 52.59375 71.296875 
" id="BitstreamVeraSans-Roman-36"/>
      </defs>
      <g transform="translate(52.73 243.996964286)scale(0.12 -0.12)">
       <use xlink:href="#BitstreamVeraSans-Roman-36"/>
       <use x="63.623046875" xlink:href="#BitstreamVeraSans-Roman-30"/>
      </g>
     </g>
    </g>
    <g id="ytick_5">
     <g id="line2d_39">
      <path clip-path="url(#pd7dce42995)" d="M 72 191.314286 
L 518.4 191.314286 
" style="fill:none;stroke:#000000;stroke-dasharray:1.000000,3.000000;stroke-dashoffset:0.0;stroke-width:0.5;"/>
     </g>
     <g id="line2d_40">
      <g>
       <use style="stroke:#000000;stroke-width:0.5;" x="72.0" xlink:href="#m2d7bd12646" y="191.314285714"/>
      </g>
     </g>
     <g id="line2d_41">
      <g>
       <use style="stroke:#000000;stroke-width:0.5;" x="518.4" xlink:href="#m7f64f3871d" y="191.314285714"/>
      </g>
     </g>
     <g id="text_13">
      <!-- 80 -->
      <defs>
       <path d="M 31.78125 34.625 
Q 24.75 34.625 20.71875 30.859375 
Q 16.703125 27.09375 16.703125 20.515625 
Q 16.703125 13.921875 20.71875 10.15625 
Q 24.75 6.390625 31.78125 6.390625 
Q 38.8125 6.390625 42.859375 10.171875 
Q 46.921875 13.96875 46.921875 20.515625 
Q 46.921875 27.09375 42.890625 30.859375 
Q 38.875 34.625 31.78125 34.625 
M 21.921875 38.8125 
Q 15.578125 40.375 12.03125 44.71875 
Q 8.5 49.078125 8.5 55.328125 
Q 8.5 64.0625 14.71875 69.140625 
Q 20.953125 74.21875 31.78125 74.21875 
Q 42.671875 74.21875 48.875 69.140625 
Q 55.078125 64.0625 55.078125 55.328125 
Q 55.078125 49.078125 51.53125 44.71875 
Q 48 40.375 41.703125 38.8125 
Q 48.828125 37.15625 52.796875 32.3125 
Q 56.78125 27.484375 56.78125 20.515625 
Q 56.78125 9.90625 50.3125 4.234375 
Q 43.84375 -1.421875 31.78125 -1.421875 
Q 19.734375 -1.421875 13.25 4.234375 
Q 6.78125 9.90625 6.78125 20.515625 
Q 6.78125 27.484375 10.78125 32.3125 
Q 14.796875 37.15625 21.921875 38.8125 
M 18.3125 54.390625 
Q 18.3125 48.734375 21.84375 45.5625 
Q 25.390625 42.390625 31.78125 42.390625 
Q 38.140625 42.390625 41.71875 45.5625 
Q 45.3125 48.734375 45.3125 54.390625 
Q 45.3125 60.0625 41.71875 63.234375 
Q 38.140625 66.40625 31.78125 66.40625 
Q 25.390625 66.40625 21.84375 63.234375 
Q 18.3125 60.0625 18.3125 54.390625 
" id="BitstreamVeraSans-Roman-38"/>
      </defs>
      <g transform="translate(52.73 194.625535714)scale(0.12 -0.12)">
       <use xlink:href="#BitstreamVeraSans-Roman-38"/>
       <use x="63.623046875" xlink:href="#BitstreamVeraSans-Roman-30"/>
      </g>
     </g>
    </g>
    <g id="ytick_6">
     <g id="line2d_42">
      <path clip-path="url(#pd7dce42995)" d="M 72 141.942857 
L 518.4 141.942857 
" style="fill:none;stroke:#000000;stroke-dasharray:1.000000,3.000000;stroke-dashoffset:0.0;stroke-width:0.5;"/>
     </g>
     <g id="line2d_43">
      <g>
       <use style="stroke:#000000;stroke-width:0.5;" x="72.0" xlink:href="#m2d7bd12646" y="141.942857143"/>
      </g>
     </g>
     <g id="line2d_44">
      <g>
       <use style="stroke:#000000;stroke-width:0.5;" x="518.4" xlink:href="#m7f64f3871d" y="141.942857143"/>
      </g>
     </g>
     <g id="text_14">
      <!-- 100 -->
      <g transform="translate(45.095 145.254107143)scale(0.12 -0.12)">
       <use xlink:href="#BitstreamVeraSans-Roman-31"/>
       <use x="63.623046875" xlink:href="#BitstreamVeraSans-Roman-30"/>
       <use x="127.24609375" xlink:href="#BitstreamVeraSans-Roman-30"/>
      </g>
     </g>
    </g>
    <g id="ytick_7">
     <g id="line2d_45">
      <path clip-path="url(#pd7dce42995)" d="M 72 92.571429 
L 518.4 92.571429 
" style="fill:none;stroke:#000000;stroke-dasharray:1.000000,3.000000;stroke-dashoffset:0.0;stroke-width:0.5;"/>
     </g>
     <g id="line2d_46">
      <g>
       <use style="stroke:#000000;stroke-width:0.5;" x="72.0" xlink:href="#m2d7bd12646" y="92.5714285714"/>
      </g>
     </g>
     <g id="line2d_47">
      <g>
       <use style="stroke:#000000;stroke-width:0.5;" x="518.4" xlink:href="#m7f64f3871d" y="92.5714285714"/>
      </g>
     </g>
     <g id="text_15">
      <!-- 120 -->
      <g transform="translate(45.095 95.8826785714)scale(0.12 -0.12)">
       <use xlink:href="#BitstreamVeraSans-Roman-31"/>
       <use x="63.623046875" xlink:href="#BitstreamVeraSans-Roman-32"/>
       <use x="127.24609375" xlink:href="#BitstreamVeraSans-Roman-30"/>
      </g>
     </g>
    </g>
    <g id="ytick_8">
     <g id="line2d_48">
      <path clip-path="url(#pd7dce42995)" d="M 72 43.2 
L 518.4 43.2 
" style="fill:none;stroke:#000000;stroke-dasharray:1.000000,3.000000;stroke-dashoffset:0.0;stroke-width:0.5;"/>
     </g>
     <g id="line2d_49">
      <g>
       <use style="stroke:#000000;stroke-width:0.5;" x="72.0" xlink:href="#m2d7bd12646" y="43.2"/>
      </g>
     </g>
     <g id="line2d_50">
      <g>
       <use style="stroke:#000000;stroke-width:0.5;" x="518.4" xlink:href="#m7f64f3871d" y="43.2"/>
      </g>
     </g>
     <g id="text_16">
      <!-- 140 -->
      <g transform="translate(45.095 46.51125)scale(0.12 -0.12)">
       <use xlink:href="#BitstreamVeraSans-Roman-31"/>
       <use x="63.623046875" xlink:href="#BitstreamVeraSans-Roman-34"/>
       <use x="127.24609375" xlink:href="#BitstreamVeraSans-Roman-30"/>
      </g>
     </g>
    </g>
    <g id="text_17">
     <!-- Speed [mph] -->
     <defs>
      <path d="M 45.40625 46.390625 
L 45.40625 75.984375 
L 54.390625 75.984375 
L 54.390625 0 
L 45.40625 0 
L 45.40625 8.203125 
Q 42.578125 3.328125 38.25 0.953125 
Q 33.9375 -1.421875 27.875 -1.421875 
Q 17.96875 -1.421875 11.734375 6.484375 
Q 5.515625 14.40625 5.515625 27.296875 
Q 5.515625 40.1875 11.734375 48.09375 
Q 17.96875 56 27.875 56 
Q 33.9375 56 38.25 53.625 
Q 42.578125 51.265625 45.40625 46.390625 
M 14.796875 27.296875 
Q 14.796875 17.390625 18.875 11.75 
Q 22.953125 6.109375 30.078125 6.109375 
Q 37.203125 6.109375 41.296875 11.75 
Q 45.40625 17.390625 45.40625 27.296875 
Q 45.40625 37.203125 41.296875 42.84375 
Q 37.203125 48.484375 30.078125 48.484375 
Q 22.953125 48.484375 18.875 42.84375 
Q 14.796875 37.203125 14.796875 27.296875 
" id="BitstreamVeraSans-Roman-64"/>
      <path d="M 53.515625 70.515625 
L 53.515625 60.890625 
Q 47.90625 63.578125 42.921875 64.890625 
Q 37.9375 66.21875 33.296875 66.21875 
Q 25.25 66.21875 20.875 63.09375 
Q 16.5 59.96875 16.5 54.203125 
Q 16.5 49.359375 19.40625 46.890625 
Q 22.3125 44.4375 30.421875 42.921875 
L 36.375 41.703125 
Q 47.40625 39.59375 52.65625 34.296875 
Q 57.90625 29 57.90625 20.125 
Q 57.90625 9.515625 50.796875 4.046875 
Q 43.703125 -1.421875 29.984375 -1.421875 
Q 24.8125 -1.421875 18.96875 -0.25 
Q 13.140625 0.921875 6.890625 3.21875 
L 6.890625 13.375 
Q 12.890625 10.015625 18.65625 8.296875 
Q 24.421875 6.59375 29.984375 6.59375 
Q 38.421875 6.59375 43.015625 9.90625 
Q 47.609375 13.234375 47.609375 19.390625 
Q 47.609375 24.75 44.3125 27.78125 
Q 41.015625 30.8125 33.5 32.328125 
L 27.484375 33.5 
Q 16.453125 35.6875 11.515625 40.375 
Q 6.59375 45.0625 6.59375 53.421875 
Q 6.59375 63.09375 13.40625 68.65625 
Q 20.21875 74.21875 32.171875 74.21875 
Q 37.3125 74.21875 42.625 73.28125 
Q 47.953125 72.359375 53.515625 70.515625 
" id="BitstreamVeraSans-Roman-53"/>
      <path d="M 54.890625 33.015625 
L 54.890625 0 
L 45.90625 0 
L 45.90625 32.71875 
Q 45.90625 40.484375 42.875 44.328125 
Q 39.84375 48.1875 33.796875 48.1875 
Q 26.515625 48.1875 22.3125 43.546875 
Q 18.109375 38.921875 18.109375 30.90625 
L 18.109375 0 
L 9.078125 0 
L 9.078125 75.984375 
L 18.109375 75.984375 
L 18.109375 46.1875 
Q 21.34375 51.125 25.703125 53.5625 
Q 30.078125 56 35.796875 56 
Q 45.21875 56 50.046875 50.171875 
Q 54.890625 44.34375 54.890625 33.015625 
" id="BitstreamVeraSans-Roman-68"/>
      <path d="M 18.109375 8.203125 
L 18.109375 -20.796875 
L 9.078125 -20.796875 
L 9.078125 54.6875 
L 18.109375 54.6875 
L 18.109375 46.390625 
Q 20.953125 51.265625 25.265625 53.625 
Q 29.59375 56 35.59375 56 
Q 45.5625 56 51.78125 48.09375 
Q 58.015625 40.1875 58.015625 27.296875 
Q 58.015625 14.40625 51.78125 6.484375 
Q 45.5625 -1.421875 35.59375 -1.421875 
Q 29.59375 -1.421875 25.265625 0.953125 
Q 20.953125 3.328125 18.109375 8.203125 
M 48.6875 27.296875 
Q 48.6875 37.203125 44.609375 42.84375 
Q 40.53125 48.484375 33.40625 48.484375 
Q 26.265625 48.484375 22.1875 42.84375 
Q 18.109375 37.203125 18.109375 27.296875 
Q 18.109375 17.390625 22.1875 11.75 
Q 26.265625 6.109375 33.40625 6.109375 
Q 40.53125 6.109375 44.609375 11.75 
Q 48.6875 17.390625 48.6875 27.296875 
" id="BitstreamVeraSans-Roman-70"/>
     </defs>
     <g transform="translate(37.599375 254.855625)rotate(-90.0)scale(0.12 -0.12)">
      <use xlink:href="#BitstreamVeraSans-Roman-53"/>
      <use x="63.4765625" xlink:href="#BitstreamVeraSans-Roman-70"/>
      <use x="126.953125" xlink:href="#BitstreamVeraSans-Roman-65"/>
      <use x="188.4765625" xlink:href="#BitstreamVeraSans-Roman-65"/>
      <use x="250.0" xlink:href="#BitstreamVeraSans-Roman-64"/>
      <use x="313.4765625" xlink:href="#BitstreamVeraSans-Roman-20"/>
      <use x="345.263671875" xlink:href="#BitstreamVeraSans-Roman-5b"/>
      <use x="384.27734375" xlink:href="#BitstreamVeraSans-Roman-6d"/>
      <use x="481.689453125" xlink:href="#BitstreamVeraSans-Roman-70"/>
      <use x="545.166015625" xlink:href="#BitstreamVeraSans-Roman-68"/>
      <use x="608.544921875" xlink:href="#BitstreamVeraSans-Roman-5d"/>
     </g>
    </g>
   </g>
   <g id="legend_1">
    <g id="patch_7">
     <path d="M 317.4885 160.4025 
L 511.2 160.4025 
L 511.2 50.4 
L 317.4885 50.4 
z
" style="fill:#ffffff;stroke:#000000;stroke-linejoin:miter;"/>
    </g>
    <g id="line2d_51">
     <path d="M 327.5685 62.06175 
L 347.7285 62.06175 
" style="fill:none;stroke:#ff0000;stroke-linecap:square;"/>
    </g>
    <g id="line2d_52"/>
    <g id="text_18">
     <!-- speed -->
     <g transform="translate(363.5685 67.10175)scale(0.144 -0.144)">
      <use xlink:href="#BitstreamVeraSans-Roman-73"/>
      <use x="52.099609375" xlink:href="#BitstreamVeraSans-Roman-70"/>
      <use x="115.576171875" xlink:href="#BitstreamVeraSans-Roman-65"/>
      <use x="177.099609375" xlink:href="#BitstreamVeraSans-Roman-65"/>
      <use x="238.623046875" xlink:href="#BitstreamVeraSans-Roman-64"/>
     </g>
    </g>
    <g id="line2d_53">
     <path d="M 327.5685 83.19825 
L 347.7285 83.19825 
" style="fill:none;stroke:#bfbf00;stroke-dasharray:6.000000,6.000000;stroke-dashoffset:0.0;"/>
    </g>
    <g id="line2d_54"/>
    <g id="text_19">
     <!-- pid speed -->
     <g transform="translate(363.5685 88.23825)scale(0.144 -0.144)">
      <use xlink:href="#BitstreamVeraSans-Roman-70"/>
      <use x="63.4765625" xlink:href="#BitstreamVeraSans-Roman-69"/>
      <use x="91.259765625" xlink:href="#BitstreamVeraSans-Roman-64"/>
      <use x="154.736328125" xlink:href="#BitstreamVeraSans-Roman-20"/>
      <use x="186.5234375" xlink:href="#BitstreamVeraSans-Roman-73"/>
      <use x="238.623046875" xlink:href="#BitstreamVeraSans-Roman-70"/>
      <use x="302.099609375" xlink:href="#BitstreamVeraSans-Roman-65"/>
      <use x="363.623046875" xlink:href="#BitstreamVeraSans-Roman-65"/>
      <use x="425.146484375" xlink:href="#BitstreamVeraSans-Roman-64"/>
     </g>
    </g>
    <g id="line2d_55">
     <path d="M 327.5685 104.33475 
L 347.7285 104.33475 
" style="fill:none;stroke:#0000ff;stroke-linecap:square;"/>
    </g>
    <g id="line2d_56"/>
    <g id="text_20">
     <!-- Target (lead) speed -->
     <defs>
      <path d="M 8.015625 75.875 
L 15.828125 75.875 
Q 23.140625 64.359375 26.78125 53.3125 
Q 30.421875 42.28125 30.421875 31.390625 
Q 30.421875 20.453125 26.78125 9.375 
Q 23.140625 -1.703125 15.828125 -13.1875 
L 8.015625 -13.1875 
Q 14.5 -2 17.703125 9.0625 
Q 20.90625 20.125 20.90625 31.390625 
Q 20.90625 42.671875 17.703125 53.65625 
Q 14.5 64.65625 8.015625 75.875 
" id="BitstreamVeraSans-Roman-29"/>
      <path d="M 34.28125 27.484375 
Q 23.390625 27.484375 19.1875 25 
Q 14.984375 22.515625 14.984375 16.5 
Q 14.984375 11.71875 18.140625 8.90625 
Q 21.296875 6.109375 26.703125 6.109375 
Q 34.1875 6.109375 38.703125 11.40625 
Q 43.21875 16.703125 43.21875 25.484375 
L 43.21875 27.484375 
z
M 52.203125 31.203125 
L 52.203125 0 
L 43.21875 0 
L 43.21875 8.296875 
Q 40.140625 3.328125 35.546875 0.953125 
Q 30.953125 -1.421875 24.3125 -1.421875 
Q 15.921875 -1.421875 10.953125 3.296875 
Q 6 8.015625 6 15.921875 
Q 6 25.140625 12.171875 29.828125 
Q 18.359375 34.515625 30.609375 34.515625 
L 43.21875 34.515625 
L 43.21875 35.40625 
Q 43.21875 41.609375 39.140625 45 
Q 35.0625 48.390625 27.6875 48.390625 
Q 23 48.390625 18.546875 47.265625 
Q 14.109375 46.140625 10.015625 43.890625 
L 10.015625 52.203125 
Q 14.9375 54.109375 19.578125 55.046875 
Q 24.21875 56 28.609375 56 
Q 40.484375 56 46.34375 49.84375 
Q 52.203125 43.703125 52.203125 31.203125 
" id="BitstreamVeraSans-Roman-61"/>
      <path d="M 9.421875 75.984375 
L 18.40625 75.984375 
L 18.40625 0 
L 9.421875 0 
z
" id="BitstreamVeraSans-Roman-6c"/>
      <path d="M 31 75.875 
Q 24.46875 64.65625 21.28125 53.65625 
Q 18.109375 42.671875 18.109375 31.390625 
Q 18.109375 20.125 21.3125 9.0625 
Q 24.515625 -2 31 -13.1875 
L 23.1875 -13.1875 
Q 15.875 -1.703125 12.234375 9.375 
Q 8.59375 20.453125 8.59375 31.390625 
Q 8.59375 42.28125 12.203125 53.3125 
Q 15.828125 64.359375 23.1875 75.875 
z
" id="BitstreamVeraSans-Roman-28"/>
      <path d="M 45.40625 27.984375 
Q 45.40625 37.75 41.375 43.109375 
Q 37.359375 48.484375 30.078125 48.484375 
Q 22.859375 48.484375 18.828125 43.109375 
Q 14.796875 37.75 14.796875 27.984375 
Q 14.796875 18.265625 18.828125 12.890625 
Q 22.859375 7.515625 30.078125 7.515625 
Q 37.359375 7.515625 41.375 12.890625 
Q 45.40625 18.265625 45.40625 27.984375 
M 54.390625 6.78125 
Q 54.390625 -7.171875 48.1875 -13.984375 
Q 42 -20.796875 29.203125 -20.796875 
Q 24.46875 -20.796875 20.265625 -20.09375 
Q 16.0625 -19.390625 12.109375 -17.921875 
L 12.109375 -9.1875 
Q 16.0625 -11.328125 19.921875 -12.34375 
Q 23.78125 -13.375 27.78125 -13.375 
Q 36.625 -13.375 41.015625 -8.765625 
Q 45.40625 -4.15625 45.40625 5.171875 
L 45.40625 9.625 
Q 42.625 4.78125 38.28125 2.390625 
Q 33.9375 0 27.875 0 
Q 17.828125 0 11.671875 7.65625 
Q 5.515625 15.328125 5.515625 27.984375 
Q 5.515625 40.671875 11.671875 48.328125 
Q 17.828125 56 27.875 56 
Q 33.9375 56 38.28125 53.609375 
Q 42.625 51.21875 45.40625 46.390625 
L 45.40625 54.6875 
L 54.390625 54.6875 
z
" id="BitstreamVeraSans-Roman-67"/>
      <path d="M 41.109375 46.296875 
Q 39.59375 47.171875 37.8125 47.578125 
Q 36.03125 48 33.890625 48 
Q 26.265625 48 22.1875 43.046875 
Q 18.109375 38.09375 18.109375 28.8125 
L 18.109375 0 
L 9.078125 0 
L 9.078125 54.6875 
L 18.109375 54.6875 
L 18.109375 46.1875 
Q 20.953125 51.171875 25.484375 53.578125 
Q 30.03125 56 36.53125 56 
Q 37.453125 56 38.578125 55.875 
Q 39.703125 55.765625 41.0625 55.515625 
z
" id="BitstreamVeraSans-Roman-72"/>
      <path d="M 18.3125 70.21875 
L 18.3125 54.6875 
L 36.8125 54.6875 
L 36.8125 47.703125 
L 18.3125 47.703125 
L 18.3125 18.015625 
Q 18.3125 11.328125 20.140625 9.421875 
Q 21.96875 7.515625 27.59375 7.515625 
L 36.8125 7.515625 
L 36.8125 0 
L 27.59375 0 
Q 17.1875 0 13.234375 3.875 
Q 9.28125 7.765625 9.28125 18.015625 
L 9.28125 47.703125 
L 2.6875 47.703125 
L 2.6875 54.6875 
L 9.28125 54.6875 
L 9.28125 70.21875 
z
" id="BitstreamVeraSans-Roman-74"/>
     </defs>
     <g transform="translate(363.5685 109.37475)scale(0.144 -0.144)">
      <use xlink:href="#BitstreamVeraSans-Roman-54"/>
      <use x="60.833984375" xlink:href="#BitstreamVeraSans-Roman-61"/>
      <use x="122.11328125" xlink:href="#BitstreamVeraSans-Roman-72"/>
      <use x="163.2109375" xlink:href="#BitstreamVeraSans-Roman-67"/>
      <use x="226.6875" xlink:href="#BitstreamVeraSans-Roman-65"/>
      <use x="288.2109375" xlink:href="#BitstreamVeraSans-Roman-74"/>
      <use x="327.419921875" xlink:href="#BitstreamVeraSans-Roman-20"/>
      <use x="359.20703125" xlink:href="#BitstreamVeraSans-Roman-28"/>
      <use x="398.220703125" xlink:href="#BitstreamVeraSans-Roman-6c"/>
      <use x="426.00390625" xlink:href="#BitstreamVeraSans-Roman-65"/>
      <use x="487.52734375" xlink:href="#BitstreamVeraSans-Roman-61"/>
      <use x="548.806640625" xlink:href="#BitstreamVeraSans-Roman-64"/>
      <use x="612.283203125" xlink:href="#BitstreamVeraSans-Roman-29"/>
      <use x="651.296875" xlink:href="#BitstreamVeraSans-Roman-20"/>
      <use x="683.083984375" xlink:href="#BitstreamVeraSans-Roman-73"/>
      <use x="735.18359375" xlink:href="#BitstreamVeraSans-Roman-70"/>
      <use x="798.66015625" xlink:href="#BitstreamVeraSans-Roman-65"/>
      <use x="860.18359375" xlink:href="#BitstreamVeraSans-Roman-65"/>
      <use x="921.70703125" xlink:href="#BitstreamVeraSans-Roman-64"/>
     </g>
    </g>
    <g id="line2d_57">
     <path d="M 327.5685 125.47125 
L 347.7285 125.47125 
" style="fill:none;stroke:#000000;stroke-linecap:square;"/>
    </g>
    <g id="line2d_58"/>
    <g id="text_21">
     <!-- Cruise speed -->
     <defs>
      <path d="M 8.5 21.578125 
L 8.5 54.6875 
L 17.484375 54.6875 
L 17.484375 21.921875 
Q 17.484375 14.15625 20.5 10.265625 
Q 23.53125 6.390625 29.59375 6.390625 
Q 36.859375 6.390625 41.078125 11.03125 
Q 45.3125 15.671875 45.3125 23.6875 
L 45.3125 54.6875 
L 54.296875 54.6875 
L 54.296875 0 
L 45.3125 0 
L 45.3125 8.40625 
Q 42.046875 3.421875 37.71875 1 
Q 33.40625 -1.421875 27.6875 -1.421875 
Q 18.265625 -1.421875 13.375 4.4375 
Q 8.5 10.296875 8.5 21.578125 
" id="BitstreamVeraSans-Roman-75"/>
      <path d="M 64.40625 67.28125 
L 64.40625 56.890625 
Q 59.421875 61.53125 53.78125 63.8125 
Q 48.140625 66.109375 41.796875 66.109375 
Q 29.296875 66.109375 22.65625 58.46875 
Q 16.015625 50.828125 16.015625 36.375 
Q 16.015625 21.96875 22.65625 14.328125 
Q 29.296875 6.6875 41.796875 6.6875 
Q 48.140625 6.6875 53.78125 8.984375 
Q 59.421875 11.28125 64.40625 15.921875 
L 64.40625 5.609375 
Q 59.234375 2.09375 53.4375 0.328125 
Q 47.65625 -1.421875 41.21875 -1.421875 
Q 24.65625 -1.421875 15.125 8.703125 
Q 5.609375 18.84375 5.609375 36.375 
Q 5.609375 53.953125 15.125 64.078125 
Q 24.65625 74.21875 41.21875 74.21875 
Q 47.75 74.21875 53.53125 72.484375 
Q 59.328125 70.75 64.40625 67.28125 
" id="BitstreamVeraSans-Roman-43"/>
     </defs>
     <g transform="translate(363.5685 130.51125)scale(0.144 -0.144)">
      <use xlink:href="#BitstreamVeraSans-Roman-43"/>
      <use x="69.82421875" xlink:href="#BitstreamVeraSans-Roman-72"/>
      <use x="110.9375" xlink:href="#BitstreamVeraSans-Roman-75"/>
      <use x="174.31640625" xlink:href="#BitstreamVeraSans-Roman-69"/>
      <use x="202.099609375" xlink:href="#BitstreamVeraSans-Roman-73"/>
      <use x="254.19921875" xlink:href="#BitstreamVeraSans-Roman-65"/>
      <use x="315.72265625" xlink:href="#BitstreamVeraSans-Roman-20"/>
      <use x="347.509765625" xlink:href="#BitstreamVeraSans-Roman-73"/>
      <use x="399.609375" xlink:href="#BitstreamVeraSans-Roman-70"/>
      <use x="463.0859375" xlink:href="#BitstreamVeraSans-Roman-65"/>
      <use x="524.609375" xlink:href="#BitstreamVeraSans-Roman-65"/>
      <use x="586.1328125" xlink:href="#BitstreamVeraSans-Roman-64"/>
     </g>
    </g>
    <g id="line2d_59">
     <path d="M 327.5685 146.60775 
L 347.7285 146.60775 
" style="fill:none;stroke:#bf00bf;stroke-linecap:square;"/>
    </g>
    <g id="line2d_60"/>
    <g id="text_22">
     <!-- Lead speed -->
     <defs>
      <path d="M 9.8125 72.90625 
L 19.671875 72.90625 
L 19.671875 8.296875 
L 55.171875 8.296875 
L 55.171875 0 
L 9.8125 0 
z
" id="BitstreamVeraSans-Roman-4c"/>
     </defs>
     <g transform="translate(363.5685 151.64775)scale(0.144 -0.144)">
      <use xlink:href="#BitstreamVeraSans-Roman-4c"/>
      <use x="55.697265625" xlink:href="#BitstreamVeraSans-Roman-65"/>
      <use x="117.220703125" xlink:href="#BitstreamVeraSans-Roman-61"/>
      <use x="178.5" xlink:href="#BitstreamVeraSans-Roman-64"/>
      <use x="241.9765625" xlink:href="#BitstreamVeraSans-Roman-20"/>
      <use x="273.763671875" xlink:href="#BitstreamVeraSans-Roman-73"/>
      <use x="325.86328125" xlink:href="#BitstreamVeraSans-Roman-70"/>
      <use x="389.33984375" xlink:href="#BitstreamVeraSans-Roman-65"/>
      <use x="450.86328125" xlink:href="#BitstreamVeraSans-Roman-65"/>
      <use x="512.38671875" xlink:href="#BitstreamVeraSans-Roman-64"/>
     </g>
    </g>
   </g>
  </g>
 </g>
 <defs>
  <clipPath id="pd7dce42995">
   <rect height="345.6" width="446.4" x="72.0" y="43.2"/>
  </clipPath>
 </defs>
</svg>
