<?xml version="1.0" encoding="utf-8" standalone="no"?>
<!DOCTYPE svg PUBLIC "-//W3C//DTD SVG 1.1//EN"
  "http://www.w3.org/Graphics/SVG/1.1/DTD/svg11.dtd">
<!-- Created with matplotlib (http://matplotlib.org/) -->
<svg height="432pt" version="1.1" viewBox="0 0 576 432" width="576pt" xmlns="http://www.w3.org/2000/svg" xmlns:xlink="http://www.w3.org/1999/xlink">
 <defs>
  <style type="text/css">
*{stroke-linecap:butt;stroke-linejoin:round;stroke-miterlimit:100000;}
  </style>
 </defs>
 <g id="figure_1">
  <g id="patch_1">
   <path d="M 0 432 
L 576 432 
L 576 0 
L 0 0 
z
" style="fill:#ffffff;"/>
  </g>
  <g id="axes_1">
   <g id="patch_2">
    <path d="M 72 388.8 
L 518.4 388.8 
L 518.4 43.2 
L 72 43.2 
z
" style="fill:#ffffff;"/>
   </g>
   <g id="line2d_1">
    <path clip-path="url(#p3825cd4bd8)" d="M 72.1488 166.764198 
L 92.9808 166.739114 
L 93.1296 161.390306 
L 93.2784 161.390242 
L 93.4272 155.300657 
L 93.7248 155.300789 
L 93.8736 149.972523 
L 94.0224 149.972702 
L 94.1712 145.40574 
L 94.32 145.406017 
L 94.4688 140.839152 
L 94.7664 140.839901 
L 94.9152 136.273133 
L 95.064 136.273605 
L 95.2128 132.468126 
L 95.3616 132.468679 
L 95.5104 128.663281 
L 95.6592 128.663916 
L 95.808 124.858599 
L 96.1056 124.860033 
L 96.2544 123.338369 
L 96.4032 123.339119 
L 96.552 122.57868 
L 96.7008 122.579447 
L 96.8496 121.819024 
L 96.9984 121.819808 
L 97.1472 121.059402 
L 97.4448 121.061004 
L 97.5936 120.300616 
L 97.7424 120.301434 
L 98.04 118.019534 
L 98.1888 118.020403 
L 98.4864 115.738604 
L 98.6352 115.739524 
L 98.9328 113.457826 
L 99.0816 113.458796 
L 99.2304 112.698577 
L 99.3792 111.177184 
L 99.528 111.178205 
L 99.6768 110.418037 
L 99.8256 108.896696 
L 99.9744 108.897768 
L 100.1232 108.137651 
L 100.272 108.138742 
L 100.4208 107.378642 
L 100.5696 107.379751 
L 100.7184 106.61967 
L 100.8672 106.620796 
L 101.016 105.860733 
L 101.3136 105.863022 
L 101.4624 105.102978 
L 101.6112 105.104141 
L 101.76 104.344115 
L 101.9088 104.345296 
L 102.0576 103.585288 
L 102.6528 103.590092 
L 102.8016 102.830105 
L 102.9504 102.831325 
L 103.0992 102.071357 
L 103.248 102.072596 
L 103.3968 101.312645 
L 103.992 101.31768 
L 104.2896 99.79784 
L 104.4384 99.799136 
L 104.5872 99.039243 
L 104.736 99.040559 
L 104.8848 98.280685 
L 105.0336 98.282019 
L 105.3312 96.762326 
L 105.48 96.763697 
L 105.6288 95.242689 
L 106.0752 95.246913 
L 106.224 94.487133 
L 106.5216 92.206454 
L 106.6704 92.207935 
L 106.8192 91.448228 
L 106.968 91.449729 
L 107.1168 90.690041 
L 108.1584 90.700713 
L 108.456 89.18141 
L 108.9024 89.186114 
L 109.0512 88.426494 
L 109.3488 88.429673 
L 109.4976 87.670075 
L 109.6464 87.671685 
L 109.7952 86.912107 
L 109.944 86.913737 
L 110.2416 85.39464 
L 110.3904 85.396309 
L 110.5392 84.63679 
L 110.9856 84.641864 
L 111.2832 82.361719 
L 111.5808 82.365221 
L 111.7296 81.605784 
L 111.8784 81.607556 
L 112.0272 80.84814 
L 112.176 80.849933 
L 112.3248 80.090538 
L 112.7712 80.095985 
L 112.92 79.336614 
L 113.2176 79.340293 
L 113.3664 80.103326 
L 113.5152 80.105152 
L 113.664 79.345789 
L 113.9616 79.349485 
L 114.1104 80.112526 
L 114.2592 80.11436 
L 114.408 79.355006 
L 114.7056 79.358719 
L 114.8544 80.121769 
L 115.0032 80.123612 
L 115.152 79.364266 
L 115.4496 79.367996 
L 115.5984 80.131054 
L 115.7472 80.132906 
L 115.896 79.373569 
L 116.9376 79.386714 
L 117.0864 80.149789 
L 117.2352 80.151657 
L 117.384 79.392337 
L 118.4256 79.405602 
L 118.5744 80.168694 
L 118.7232 80.17058 
L 118.872 79.411276 
L 119.1696 79.415092 
L 119.3184 80.178192 
L 121.5504 80.206773 
L 121.6992 80.969882 
L 121.848 80.971784 
L 121.9968 80.212497 
L 122.2944 80.216346 
L 122.4432 80.979464 
L 122.7408 80.983285 
L 122.8896 80.224008 
L 123.0384 80.225942 
L 123.1872 80.989068 
L 124.824 81.010259 
L 124.9728 81.773385 
L 125.1216 81.775304 
L 125.2704 81.016034 
L 125.4192 81.017975 
L 125.568 80.258728 
L 126.6096 80.272508 
L 126.7584 79.513293 
L 127.5024 79.523291 
L 127.6512 80.286485 
L 128.0976 80.292451 
L 128.2464 79.533253 
L 131.0736 79.571793 
L 131.2224 78.812648 
L 133.4544 78.843832 
L 133.6032 79.607115 
L 133.752 79.609189 
L 133.9008 78.850075 
L 134.3472 78.856374 
L 134.496 79.619667 
L 134.6448 79.621752 
L 134.7936 78.862648 
L 134.9424 78.864756 
L 135.0912 79.628056 
L 137.9184 79.668083 
L 138.0672 80.431397 
L 140.0016 80.458886 
L 140.1504 81.222203 
L 141.4896 81.241224 
L 141.6384 82.004536 
L 142.9776 82.023513 
L 143.1264 82.78682 
L 144.168 82.801532 
L 144.3168 83.56483 
L 145.3584 83.579478 
L 145.5072 84.342767 
L 146.5488 84.357351 
L 146.6976 85.12063 
L 147.7392 85.135146 
L 147.888 85.898415 
L 148.9296 85.91286 
L 149.0784 86.67612 
L 149.8224 86.686378 
L 149.9712 87.449624 
L 150.7152 87.459814 
L 150.864 88.223047 
L 151.0128 88.225068 
L 151.1616 87.465901 
L 151.608 87.472044 
L 151.7568 88.235284 
L 151.9056 88.237314 
L 152.0544 89.000535 
L 152.5008 89.006569 
L 152.6496 90.530964 
L 152.7984 90.532935 
L 152.9472 92.057288 
L 153.096 92.059217 
L 153.2448 97.38948 
L 153.3936 97.391256 
L 153.5424 100.437795 
L 153.6912 100.439484 
L 153.84 105.008316 
L 153.9888 105.009875 
L 154.1376 108.817385 
L 154.2864 108.818833 
L 154.4352 111.865043 
L 154.584 111.866404 
L 154.7328 114.912526 
L 154.8816 114.913799 
L 155.0304 117.959833 
L 155.1792 117.961018 
L 155.328 120.245773 
L 155.4768 120.246892 
L 155.6256 123.292772 
L 155.7744 123.293801 
L 155.9232 127.100783 
L 156.072 127.101702 
L 156.2208 129.386191 
L 156.3696 129.387043 
L 156.5184 132.432657 
L 156.6672 132.43342 
L 156.816 134.717754 
L 156.9648 134.71845 
L 157.1136 135.480337 
L 157.2624 135.481011 
L 157.56 139.288244 
L 157.7088 139.288806 
L 158.0064 143.857006 
L 158.1552 143.857434 
L 158.304 145.380243 
L 158.6016 145.38101 
L 158.7504 147.664964 
L 158.8992 147.66528 
L 159.048 149.187977 
L 159.3456 149.18852 
L 159.4944 150.711172 
L 159.6432 150.711399 
L 159.792 152.234006 
L 159.9408 152.234188 
L 160.0896 153.75675 
L 160.2384 153.756887 
L 160.3872 155.279404 
L 160.536 155.279496 
L 160.6848 156.801969 
L 160.8336 156.802016 
L 160.9824 158.324444 
L 161.1312 158.324446 
L 161.28 159.085638 
L 161.4288 159.085618 
L 161.5776 160.607978 
L 161.7264 160.607913 
L 161.8752 161.369038 
L 162.024 161.368951 
L 162.1728 162.891244 
L 162.3216 162.891111 
L 162.4704 163.652169 
L 162.6192 163.652014 
L 162.768 164.41305 
L 162.9168 164.412872 
L 163.0656 165.935076 
L 163.2144 165.934854 
L 163.3632 166.695822 
L 163.512 166.695577 
L 163.6608 167.476822 
L 174.0768 167.458172 
L 174.3744 173.457551 
L 174.5232 173.45711 
L 174.672 176.456668 
L 174.8208 176.456139 
L 174.9696 179.455609 
L 175.1184 179.454993 
L 175.2672 182.454375 
L 175.416 182.453672 
L 175.5648 185.452967 
L 175.7136 185.452176 
L 175.8624 188.451383 
L 176.0112 188.450505 
L 176.16 191.449626 
L 176.3088 191.448661 
L 176.4576 195.047694 
L 176.6064 195.046624 
L 176.7552 198.045553 
L 176.904 198.044397 
L 177.0528 201.04324 
L 177.2016 201.041997 
L 177.3504 204.040754 
L 177.4992 204.039425 
L 177.648 207.038095 
L 177.7968 207.03668 
L 177.9456 210.035264 
L 178.0944 210.033763 
L 178.2432 213.032262 
L 178.392 213.030676 
L 178.5408 216.029089 
L 178.6896 216.027417 
L 178.8384 217.225746 
L 179.136 217.222339 
L 179.2848 217.820636 
L 179.4336 219.018917 
L 179.88 219.013664 
L 180.0288 219.611915 
L 180.1776 219.61015 
L 180.3264 220.208386 
L 180.4752 220.206606 
L 180.624 221.404826 
L 180.7728 221.403014 
L 180.9216 222.001202 
L 181.0704 221.999375 
L 181.2192 222.597548 
L 181.368 222.595706 
L 181.5168 223.193865 
L 181.6656 223.192008 
L 181.8144 223.790152 
L 181.9632 223.788281 
L 182.112 224.98641 
L 182.2608 224.984506 
L 182.4096 225.582604 
L 182.5584 225.580686 
L 182.7072 226.178769 
L 182.856 226.176837 
L 183.0048 226.774906 
L 183.1536 226.772959 
L 183.3024 227.971013 
L 183.4512 227.969035 
L 183.6 228.567058 
L 183.7488 228.565066 
L 183.8976 229.163075 
L 184.0464 229.161068 
L 184.1952 230.359063 
L 184.344 230.357025 
L 184.4928 230.954989 
L 184.6416 230.952938 
L 184.7904 231.550888 
L 184.9392 231.548823 
L 185.088 232.146759 
L 185.2368 232.14468 
L 185.3856 233.342602 
L 185.5344 233.340492 
L 185.6832 233.938384 
L 185.832 233.936261 
L 185.9808 234.534139 
L 186.1296 234.532002 
L 186.2784 235.729867 
L 186.4272 235.7277 
L 186.576 236.325534 
L 186.7248 236.323354 
L 186.8736 236.921176 
L 187.0224 236.918982 
L 187.1712 238.11679 
L 187.32 238.114567 
L 187.4688 238.712345 
L 187.6176 238.710109 
L 187.7664 239.907874 
L 187.9152 239.905608 
L 188.064 240.503344 
L 188.2128 240.501065 
L 188.3616 241.698788 
L 188.5104 241.69648 
L 188.6592 242.294174 
L 188.808 242.291853 
L 188.9568 242.889535 
L 189.1056 242.887202 
L 189.2544 244.08487 
L 189.4032 244.082508 
L 189.552 244.680148 
L 189.7008 244.677774 
L 189.8496 245.275402 
L 189.9984 245.273016 
L 190.1472 246.470631 
L 190.296 246.468216 
L 190.4448 247.065804 
L 190.5936 247.063377 
L 190.7424 248.260952 
L 190.8912 248.258497 
L 191.04 248.856044 
L 191.1888 248.853578 
L 191.3376 250.051113 
L 191.4864 250.048618 
L 191.6352 250.646126 
L 191.784 250.64362 
L 191.9328 252.441116 
L 192.0816 252.438566 
L 192.2304 253.036019 
L 192.3792 253.033458 
L 192.528 253.630899 
L 192.6768 253.628327 
L 192.8256 254.225758 
L 192.9744 254.223175 
L 193.1232 254.820595 
L 193.272 254.818001 
L 193.4208 256.015409 
L 193.5696 256.012789 
L 193.7184 257.210171 
L 193.8672 257.207524 
L 194.016 257.804879 
L 194.1648 257.802222 
L 194.3136 259.599566 
L 194.4624 259.596866 
L 194.6112 260.194169 
L 194.76 260.19146 
L 194.9088 260.788752 
L 195.0576 260.786033 
L 195.2064 261.983315 
L 195.3552 261.98057 
L 195.504 262.577827 
L 195.6528 262.575072 
L 195.8016 263.772319 
L 195.9504 263.769539 
L 196.0992 264.966761 
L 196.248 264.963955 
L 196.3968 265.561152 
L 196.5456 265.558337 
L 196.6944 266.755525 
L 196.8432 266.752685 
L 196.992 267.949848 
L 197.1408 267.946984 
L 197.2896 269.144122 
L 197.4384 269.141234 
L 197.5872 270.338348 
L 197.736 270.335435 
L 198.1824 273.326607 
L 198.3312 273.923631 
L 198.48 275.120643 
L 198.6288 275.117628 
L 198.7776 276.914616 
L 198.9264 276.911563 
L 199.0752 277.508513 
L 199.224 277.505452 
L 199.3728 278.702395 
L 199.5216 278.699312 
L 199.8192 281.093126 
L 199.968 281.089994 
L 200.1168 281.686866 
L 200.2656 281.683727 
L 200.4144 283.480592 
L 200.5632 283.477416 
L 200.712 284.674244 
L 200.8608 284.671047 
L 201.0096 285.867854 
L 201.1584 285.864636 
L 201.3072 287.061422 
L 201.456 287.058183 
L 201.6048 287.654949 
L 201.9024 287.648464 
L 202.2 290.041968 
L 202.6464 290.032127 
L 202.7952 291.228856 
L 202.944 291.225561 
L 203.0928 292.42227 
L 203.2416 292.418955 
L 203.3904 293.615645 
L 203.5392 293.612311 
L 203.688 295.408981 
L 203.8368 295.405613 
L 203.9856 296.002251 
L 204.1344 295.998879 
L 204.2832 297.195512 
L 204.432 297.192122 
L 204.5808 298.388736 
L 204.7296 298.385328 
L 204.8784 298.981925 
L 205.0272 298.978513 
L 205.4736 304.368164 
L 205.6224 304.364645 
L 205.92 307.357581 
L 206.0688 307.354008 
L 206.2176 309.750441 
L 206.3664 309.746823 
L 206.5152 310.943212 
L 206.664 310.939579 
L 206.8128 312.135953 
L 206.9616 312.132305 
L 207.1104 313.328663 
L 207.2592 313.325 
L 207.408 313.921344 
L 207.5568 313.917681 
L 207.7056 315.714024 
L 207.8544 315.710332 
L 208.0032 316.906647 
L 208.152 316.902941 
L 208.3008 317.499243 
L 208.4496 317.495538 
L 208.5984 318.691839 
L 208.7472 318.688121 
L 208.896 319.284409 
L 209.0448 319.280691 
L 209.1936 319.876981 
L 234.936 319.343913 
L 260.8272 319.029099 
L 274.2192 318.952749 
L 275.112 312.771707 
L 277.344 298.028916 
L 279.576 284.695218 
L 281.808 272.63573 
L 284.04 261.728516 
L 286.272 251.86334 
L 288.504 242.940536 
L 288.6528 158.4 
L 518.4 158.4 
L 518.4 158.4 
" style="fill:none;stroke:#008000;stroke-linecap:square;"/>
   </g>
   <g id="line2d_2">
    <path clip-path="url(#p3825cd4bd8)" d="M 72.1488 158.4 
L 72.2976 158.4 
L 72.4464 158.4 
L 72.5952 209.860611 
L 80.4816 209.970818 
L 85.392 210.042448 
L 92.832 210.15265 
L 95.2128 210.136121 
L 99.2304 209.888164 
L 100.4208 209.81218 
L 106.968 209.38705 
L 115.4496 208.673689 
L 116.64 208.551196 
L 117.8304 208.446716 
L 134.6448 206.922725 
L 135.8352 206.818245 
L 147.5904 205.787837 
L 158.1552 205.128525 
L 163.3632 205.110512 
L 164.256 205.117717 
L 164.4048 223.599646 
L 164.5536 223.93781 
L 164.7024 223.93781 
L 165 224.719148 
L 165.1488 224.768738 
L 165.2976 225.165482 
L 165.4464 225.165482 
L 165.744 225.969644 
L 165.8928 225.969644 
L 166.0416 226.377104 
L 166.1904 226.430109 
L 166.7856 227.621223 
L 166.9344 227.676755 
L 167.232 228.468951 
L 167.3808 228.526222 
L 167.5296 228.95652 
L 167.6784 228.95652 
L 167.976 229.828363 
L 168.1248 229.888522 
L 168.2736 230.269945 
L 168.4224 230.331024 
L 168.72 231.164534 
L 168.8688 231.227472 
L 169.0176 231.681468 
L 169.1664 231.745587 
L 169.7616 233.133824 
L 169.9104 233.133824 
L 170.208 234.079037 
L 170.3568 234.148329 
L 170.5056 234.55762 
L 170.6544 234.55762 
L 170.952 235.599252 
L 171.1008 235.671909 
L 171.2496 236.09101 
L 171.3984 236.164728 
L 171.696 237.162708 
L 171.8448 237.162708 
L 171.9936 237.667923 
L 172.1424 237.745175 
L 172.44 238.770401 
L 172.5888 238.770401 
L 172.7376 239.289349 
L 172.8864 239.370282 
L 173.3328 240.956323 
L 173.4816 241.041074 
L 173.7792 242.12254 
L 174.0768 242.210037 
L 174.672 243.869128 
L 174.9696 243.960699 
L 175.2672 245.091797 
L 175.416 245.186298 
L 175.7136 246.338315 
L 175.8624 246.435828 
L 176.0112 247.020117 
L 176.16 247.11937 
L 176.3088 247.609094 
L 176.6064 247.709702 
L 176.904 249.008368 
L 177.0528 249.112573 
L 177.2016 249.719998 
L 177.4992 249.932529 
L 177.648 250.439758 
L 177.7968 250.54769 
L 177.9456 251.16774 
L 178.0944 251.277576 
L 178.2432 251.904053 
L 178.5408 252.128046 
L 178.6896 252.762524 
L 178.8384 252.876736 
L 178.9872 253.517789 
L 179.136 253.517789 
L 179.2848 253.634015 
L 179.4336 254.281723 
L 179.5824 254.4 
L 179.7312 255.054437 
L 180.0288 255.295651 
L 180.1776 255.958502 
L 180.3264 256.081494 
L 180.4752 256.751248 
L 180.7728 257.002094 
L 180.9216 257.680499 
L 181.2192 257.936838 
L 181.368 258.624051 
L 181.5168 258.754761 
L 181.8144 259.449152 
L 181.9632 259.582169 
L 182.112 260.283829 
L 182.4096 260.555127 
L 182.5584 261.265952 
L 182.7072 261.404288 
L 182.856 262.122583 
L 183.1536 262.404749 
L 183.3024 263.132465 
L 183.6 263.420874 
L 183.7488 264.158167 
L 184.0464 264.452957 
L 184.1952 265.2 
L 184.4928 265.501318 
L 184.6416 266.258276 
L 184.9392 266.566296 
L 185.088 267.333334 
L 185.3856 267.648212 
L 185.5344 268.425504 
L 185.832 268.747412 
L 185.9808 269.535132 
L 186.1296 269.699323 
L 186.2784 270.662585 
L 186.576 270.999088 
L 186.7248 271.808221 
L 187.0224 272.152295 
L 187.1712 272.972415 
L 187.4688 273.324252 
L 187.6176 273.324252 
L 187.7664 274.335031 
L 188.064 274.6965 
L 188.2128 275.541586 
L 188.5104 275.541586 
L 188.6592 275.911267 
L 188.808 276.767999 
L 189.1056 277.146103 
L 189.2544 277.146103 
L 189.4032 277.336496 
L 189.7008 279.479425 
L 189.8496 279.479425 
L 190.1472 280.077109 
L 190.296 281.179175 
L 190.5936 281.58978 
L 190.7424 282.503412 
L 191.1888 283.135135 
L 191.3376 283.135135 
L 191.4864 284.064532 
L 191.6352 284.064532 
L 191.9328 284.714145 
L 192.0816 284.714145 
L 192.2304 285.659702 
L 192.6768 286.327817 
L 192.9744 287.977213 
L 193.1232 288.20863 
L 193.272 289.190836 
L 193.7184 289.901541 
L 193.8672 290.901288 
L 194.3136 291.632639 
L 194.4624 291.632639 
L 194.6112 293.150912 
L 195.2064 294.167807 
L 195.504 295.475336 
L 195.8016 296.001599 
L 196.0992 297.336191 
L 196.3968 298.151349 
L 196.5456 298.426016 
L 196.8432 299.798914 
L 197.2896 300.6478 
L 197.4384 300.6478 
L 197.5872 300.933884 
L 197.8848 302.934814 
L 198.0336 303.231281 
L 198.1824 303.231281 
L 198.3312 303.529413 
L 198.48 304.984222 
L 198.6288 305.289835 
L 198.7776 305.289835 
L 199.224 306.21709 
L 199.3728 306.844125 
L 199.6704 308.355048 
L 199.968 309.327905 
L 200.2656 309.985968 
L 200.4144 309.985968 
L 200.5632 310.651767 
L 200.8608 312.228992 
L 201.0096 312.571509 
L 201.1584 312.571509 
L 201.3072 312.916077 
L 201.6048 313.962158 
L 202.0512 313.962158 
L 202.3488 317.418402 
L 202.7952 318.538696 
L 203.0928 319.679993 
L 203.2416 320.06521 
L 203.3904 320.06521 
L 203.5392 321.813885 
L 203.688 322.209485 
L 203.8368 322.209485 
L 203.9856 322.607611 
L 204.1344 323.817316 
L 204.2832 323.817316 
L 204.432 324.636768 
L 204.5808 324.636768 
L 204.8784 325.885986 
L 205.0272 326.307843 
L 205.176 327.159869 
L 205.3248 327.159869 
L 205.6224 328.459131 
L 205.7712 328.459131 
L 205.92 330.373242 
L 206.2176 331.272729 
L 206.3664 331.272729 
L 206.664 332.644904 
L 208.5984 338.601398 
L 208.7472 338.561884 
L 208.896 338.997034 
L 209.1936 340.3992 
L 209.3424 340.3992 
L 209.64 341.229565 
L 209.9376 343.160413 
L 210.0864 343.629474 
L 210.2352 343.629474 
L 210.5328 344.590704 
L 210.8304 346.638867 
L 210.9792 346.638867 
L 211.5744 348.684192 
L 212.0208 351.41521 
L 212.1696 351.956982 
L 212.3184 351.956982 
L 212.4672 353.06618 
L 212.616 353.06618 
L 212.7648 353.633771 
L 213.0624 356.009656 
L 213.2112 356.009656 
L 213.36 356.59325 
L 213.5088 356.041077 
L 213.8064 357.836938 
L 213.9552 357.836938 
L 214.2528 359.055798 
L 214.6992 362.313629 
L 214.848 362.313629 
L 215.1456 364.290289 
L 215.2944 364.290289 
L 215.592 367.0992 
L 215.7408 367.805219 
L 215.8896 367.805219 
L 216.1872 369.981519 
L 216.4848 371.410382 
L 216.7824 371.410382 
L 217.08 375.319373 
L 217.5264 377.645764 
L 217.6752 377.645764 
L 217.824 380.174689 
L 217.9728 379.689697 
L 218.568 383.037982 
L 218.7168 383.037982 
L 219.1632 387.573431 
L 219.4608 388.8 
L 518.4 388.8 
L 518.4 388.8 
" style="fill:none;stroke:#000000;stroke-dasharray:6.000000,6.000000;stroke-dashoffset:0.0;"/>
   </g>
   <g id="line2d_3">
    <path clip-path="url(#p3825cd4bd8)" d="M 72.1488 158.4 
L 72.2976 158.4 
L 72.4464 158.4 
L 72.5952 76.468176 
L 75.5712 76.369272 
L 77.5056 76.284503 
L 80.4816 76.185599 
L 82.416 76.10083 
L 85.5408 76.001926 
L 87.4752 75.917157 
L 90.3024 75.818253 
L 92.2368 75.733484 
L 95.9568 75.818253 
L 96.2544 75.888895 
L 97.7424 76.129083 
L 98.784 76.341019 
L 99.2304 76.397525 
L 99.8256 76.542004 
L 100.5696 76.650092 
L 103.248 77.190509 
L 111.5808 79.316171 
L 114.5568 80.204865 
L 114.8544 80.288928 
L 118.128 81.273697 
L 118.4256 81.357761 
L 121.4016 82.246454 
L 121.6992 82.342529 
L 121.848 82.37856 
L 121.9968 82.564732 
L 122.1456 82.564732 
L 122.592 83.29411 
L 122.7408 83.29411 
L 123.1872 84.006583 
L 123.336 84.189711 
L 123.4848 84.189711 
L 123.7824 84.725542 
L 124.5264 85.60838 
L 124.824 85.60838 
L 124.9728 86.271396 
L 125.568 86.527245 
L 130.032 91.839931 
L 130.1808 91.839931 
L 130.3296 92.165039 
L 130.4784 92.165039 
L 134.6448 96.802089 
L 134.9424 96.802089 
L 136.728 98.814267 
L 137.3232 99.413882 
L 137.472 99.413882 
L 137.7696 99.858275 
L 139.2576 101.320844 
L 139.4064 101.34164 
L 141.3408 103.191779 
L 141.6384 103.352701 
L 143.1264 104.728249 
L 143.424 104.88387 
L 144.7632 106.088297 
L 144.912 106.088297 
L 145.2096 106.485887 
L 148.9296 109.557468 
L 149.376 109.691409 
L 151.3104 111.250502 
L 151.608 111.272223 
L 151.7568 111.509821 
L 152.352 111.555739 
L 152.5008 164.233874 
L 155.0304 167.176338 
L 155.1792 167.176338 
L 155.328 167.394451 
L 155.4768 167.395797 
L 156.5184 168.922971 
L 156.816 168.904678 
L 156.9648 169.144151 
L 157.1136 169.164274 
L 158.1552 170.576467 
L 158.304 170.810857 
L 158.6016 170.815201 
L 159.1968 171.584688 
L 159.3456 171.584688 
L 159.6432 172.377631 
L 160.536 173.725821 
L 160.6848 173.750002 
L 160.8336 174.04343 
L 160.9824 174.04343 
L 161.28 174.582971 
L 161.7264 174.616042 
L 161.8752 175.190131 
L 162.024 175.199134 
L 162.6192 176.12334 
L 162.768 176.15977 
L 163.3632 177.05844 
L 163.512 177.096927 
L 163.8096 177.714835 
L 163.9584 177.754765 
L 164.5536 178.722924 
L 164.7024 178.722924 
L 165 179.411803 
L 165.1488 179.44037 
L 165.2976 179.804823 
L 165.4464 179.775952 
L 165.744 180.515046 
L 165.8928 180.513313 
L 166.0416 180.874278 
L 166.1904 180.891634 
L 166.6368 181.651382 
L 166.7856 181.973776 
L 166.9344 181.992835 
L 167.232 182.693346 
L 167.3808 182.77354 
L 167.5296 183.155692 
L 167.6784 183.184994 
L 167.976 183.896606 
L 168.1248 183.950587 
L 168.72 185.110091 
L 168.8688 185.166836 
L 169.1664 185.62646 
L 169.7616 186.857618 
L 169.9104 186.857618 
L 170.5056 188.120677 
L 170.6544 188.120677 
L 170.952 189.047385 
L 171.1008 189.078374 
L 171.2496 189.482936 
L 171.3984 189.514687 
L 171.696 190.436824 
L 171.8448 190.434206 
L 171.9936 190.884318 
L 172.1424 190.918595 
L 172.44 191.828927 
L 172.5888 191.863142 
L 172.7376 192.325516 
L 172.8864 192.396959 
L 173.3328 193.769055 
L 173.4816 193.882198 
L 173.7792 194.842614 
L 174.0768 194.923203 
L 174.672 196.394591 
L 174.9696 196.439298 
L 175.2672 197.439262 
L 175.416 197.482782 
L 176.0112 199.061133 
L 176.16 199.14928 
L 176.4576 199.662941 
L 176.6064 199.662941 
L 176.904 200.762228 
L 177.0528 200.831744 
L 177.2016 201.343098 
L 177.4992 201.524382 
L 177.648 201.962027 
L 177.7968 202.054065 
L 177.9456 202.595096 
L 178.0944 202.645212 
L 178.2432 203.191214 
L 178.5408 203.378238 
L 178.9872 204.537259 
L 179.2848 204.579387 
L 179.7312 205.843332 
L 180.0288 205.998706 
L 180.1776 206.568988 
L 180.3264 206.669243 
L 180.624 207.393288 
L 180.7728 207.495808 
L 180.9216 208.078468 
L 181.2192 208.244852 
L 181.368 208.834071 
L 181.5168 208.940501 
L 181.8144 209.521536 
L 181.9632 209.581938 
L 182.112 210.181737 
L 182.4096 210.445752 
L 182.5584 211.052824 
L 182.7072 211.165219 
L 182.856 211.777959 
L 183.1536 211.957823 
L 183.4512 212.738795 
L 183.6 212.856038 
L 183.7488 213.433067 
L 184.0464 213.671855 
L 184.1952 214.300836 
L 184.4928 214.544701 
L 184.6416 215.180988 
L 184.9392 215.378677 
L 185.088 216.073645 
L 185.3856 216.322609 
L 185.6832 217.103197 
L 185.832 217.180879 
L 185.9808 217.89191 
L 186.1296 217.971355 
L 186.2784 218.770047 
L 186.576 219.034946 
L 186.7248 219.708517 
L 187.0224 219.97901 
L 187.1712 220.660355 
L 187.6176 220.936569 
L 187.7664 221.763451 
L 188.064 221.991376 
L 188.2128 222.689932 
L 188.5104 222.689932 
L 188.6592 223.028618 
L 188.808 223.735524 
L 188.9568 223.679691 
L 189.1056 223.974353 
L 189.2544 223.974353 
L 189.4032 224.119693 
L 189.7008 225.857176 
L 189.8496 225.857176 
L 190.1472 226.280754 
L 190.296 227.170464 
L 190.5936 227.533772 
L 190.7424 228.279428 
L 191.3376 228.698557 
L 191.4864 229.507091 
L 191.6352 229.507091 
L 191.9328 229.937718 
L 192.0816 229.937718 
L 192.3792 230.86387 
L 192.6768 231.192563 
L 192.9744 232.447202 
L 193.1232 232.675031 
L 193.4208 233.634622 
L 193.7184 233.982339 
L 193.8672 234.721353 
L 194.3136 235.2 
L 270.3504 235.2 
L 270.9456 228.449451 
L 271.0944 227.977748 
L 271.392 224.026488 
L 271.5408 223.27397 
L 271.8384 219.438515 
L 271.9872 218.849107 
L 272.7312 210.980672 
L 272.88 210.650487 
L 273.1776 207.162584 
L 273.3264 206.580171 
L 273.624 203.214267 
L 273.7728 202.781754 
L 274.5168 196.019836 
L 274.6656 195.702022 
L 275.2608 191.081934 
L 275.4096 191.081934 
L 275.5584 189.37126 
L 275.856 189.37126 
L 276.0048 186.74743 
L 276.1536 186.74743 
L 276.3024 184.531153 
L 276.4512 184.967404 
L 276.7488 183.286716 
L 277.4928 178.615931 
L 277.6416 178.445169 
L 277.7904 177.319458 
L 277.9392 177.182754 
L 278.088 176.091426 
L 278.2368 176.04539 
L 278.5344 173.974838 
L 278.6832 173.86217 
L 278.832 172.882542 
L 278.9808 172.853533 
L 279.1296 171.814538 
L 279.2784 171.71777 
L 279.4272 170.804496 
L 279.7248 170.786247 
L 280.0224 168.97217 
L 280.1712 168.896182 
L 280.32 168.156809 
L 280.4688 168.086739 
L 280.7664 166.484706 
L 280.9152 166.495848 
L 281.064 165.772537 
L 281.2128 165.719273 
L 281.3616 165.038338 
L 281.6592 165.005684 
L 281.808 164.299407 
L 281.9568 164.31632 
L 282.1056 163.646461 
L 282.2544 163.664691 
L 282.4032 163.084494 
L 282.552 163.103685 
L 282.7008 162.504309 
L 282.8496 162.479698 
L 282.9984 161.966566 
L 283.1472 161.987068 
L 283.296 161.50521 
L 283.4448 161.486553 
L 283.5936 161.038804 
L 283.8912 161.007236 
L 284.04 160.596362 
L 284.1888 160.583202 
L 284.3376 160.207039 
L 284.4864 160.196196 
L 284.6352 159.855138 
L 284.9328 159.867168 
L 285.0816 159.560212 
L 285.2304 158.4 
L 285.528 158.4 
L 285.6768 159.484746 
L 285.8256 159.2406 
L 285.9744 159.2406 
L 286.1232 159.025181 
L 286.4208 159.025181 
L 286.5696 158.83956 
L 286.8672 158.83956 
L 287.1648 158.684866 
L 287.3136 158.684866 
L 287.6112 158.562284 
L 288.0576 158.418504 
L 518.4 158.4 
L 518.4 158.4 
" style="fill:none;stroke:#000000;stroke-dasharray:6.000000,6.000000;stroke-dashoffset:0.0;"/>
   </g>
   <g id="patch_3">
    <path d="M 72 43.2 
L 518.4 43.2 
" style="fill:none;stroke:#000000;stroke-linecap:square;stroke-linejoin:miter;"/>
   </g>
   <g id="patch_4">
    <path d="M 518.4 388.8 
L 518.4 43.2 
" style="fill:none;stroke:#000000;stroke-linecap:square;stroke-linejoin:miter;"/>
   </g>
   <g id="patch_5">
    <path d="M 72 388.8 
L 518.4 388.8 
" style="fill:none;stroke:#000000;stroke-linecap:square;stroke-linejoin:miter;"/>
   </g>
   <g id="patch_6">
    <path d="M 72 388.8 
L 72 43.2 
" style="fill:none;stroke:#000000;stroke-linecap:square;stroke-linejoin:miter;"/>
   </g>
   <g id="matplotlib.axis_1">
    <g id="xtick_1">
     <g id="line2d_4">
      <path clip-path="url(#p3825cd4bd8)" d="M 72 388.8 
L 72 43.2 
" style="fill:none;stroke:#000000;stroke-dasharray:1.000000,3.000000;stroke-dashoffset:0.0;stroke-width:0.5;"/>
     </g>
     <g id="line2d_5">
      <defs>
       <path d="M 0 0 
L 0 -4 
" id="m0cd5ca4528" style="stroke:#000000;stroke-width:0.5;"/>
      </defs>
      <g>
       <use style="stroke:#000000;stroke-width:0.5;" x="72.0" xlink:href="#m0cd5ca4528" y="388.8"/>
      </g>
     </g>
     <g id="line2d_6">
      <defs>
       <path d="M 0 0 
L 0 4 
" id="m9cf67b864a" style="stroke:#000000;stroke-width:0.5;"/>
      </defs>
      <g>
       <use style="stroke:#000000;stroke-width:0.5;" x="72.0" xlink:href="#m9cf67b864a" y="43.2"/>
      </g>
     </g>
     <g id="text_1">
      <!-- 0 -->
      <defs>
       <path d="M 31.78125 66.40625 
Q 24.171875 66.40625 20.328125 58.90625 
Q 16.5 51.421875 16.5 36.375 
Q 16.5 21.390625 20.328125 13.890625 
Q 24.171875 6.390625 31.78125 6.390625 
Q 39.453125 6.390625 43.28125 13.890625 
Q 47.125 21.390625 47.125 36.375 
Q 47.125 51.421875 43.28125 58.90625 
Q 39.453125 66.40625 31.78125 66.40625 
M 31.78125 74.21875 
Q 44.046875 74.21875 50.515625 64.515625 
Q 56.984375 54.828125 56.984375 36.375 
Q 56.984375 17.96875 50.515625 8.265625 
Q 44.046875 -1.421875 31.78125 -1.421875 
Q 19.53125 -1.421875 13.0625 8.265625 
Q 6.59375 17.96875 6.59375 36.375 
Q 6.59375 54.828125 13.0625 64.515625 
Q 19.53125 74.21875 31.78125 74.21875 
" id="BitstreamVeraSans-Roman-30"/>
      </defs>
      <g transform="translate(68.1825 401.918125)scale(0.12 -0.12)">
       <use xlink:href="#BitstreamVeraSans-Roman-30"/>
      </g>
     </g>
    </g>
    <g id="xtick_2">
     <g id="line2d_7">
      <path clip-path="url(#p3825cd4bd8)" d="M 146.4 388.8 
L 146.4 43.2 
" style="fill:none;stroke:#000000;stroke-dasharray:1.000000,3.000000;stroke-dashoffset:0.0;stroke-width:0.5;"/>
     </g>
     <g id="line2d_8">
      <g>
       <use style="stroke:#000000;stroke-width:0.5;" x="146.4" xlink:href="#m0cd5ca4528" y="388.8"/>
      </g>
     </g>
     <g id="line2d_9">
      <g>
       <use style="stroke:#000000;stroke-width:0.5;" x="146.4" xlink:href="#m9cf67b864a" y="43.2"/>
      </g>
     </g>
     <g id="text_2">
      <!-- 5 -->
      <defs>
       <path d="M 10.796875 72.90625 
L 49.515625 72.90625 
L 49.515625 64.59375 
L 19.828125 64.59375 
L 19.828125 46.734375 
Q 21.96875 47.46875 24.109375 47.828125 
Q 26.265625 48.1875 28.421875 48.1875 
Q 40.625 48.1875 47.75 41.5 
Q 54.890625 34.8125 54.890625 23.390625 
Q 54.890625 11.625 47.5625 5.09375 
Q 40.234375 -1.421875 26.90625 -1.421875 
Q 22.3125 -1.421875 17.546875 -0.640625 
Q 12.796875 0.140625 7.71875 1.703125 
L 7.71875 11.625 
Q 12.109375 9.234375 16.796875 8.0625 
Q 21.484375 6.890625 26.703125 6.890625 
Q 35.15625 6.890625 40.078125 11.328125 
Q 45.015625 15.765625 45.015625 23.390625 
Q 45.015625 31 40.078125 35.4375 
Q 35.15625 39.890625 26.703125 39.890625 
Q 22.75 39.890625 18.8125 39.015625 
Q 14.890625 38.140625 10.796875 36.28125 
z
" id="BitstreamVeraSans-Roman-35"/>
      </defs>
      <g transform="translate(142.5825 401.918125)scale(0.12 -0.12)">
       <use xlink:href="#BitstreamVeraSans-Roman-35"/>
      </g>
     </g>
    </g>
    <g id="xtick_3">
     <g id="line2d_10">
      <path clip-path="url(#p3825cd4bd8)" d="M 220.8 388.8 
L 220.8 43.2 
" style="fill:none;stroke:#000000;stroke-dasharray:1.000000,3.000000;stroke-dashoffset:0.0;stroke-width:0.5;"/>
     </g>
     <g id="line2d_11">
      <g>
       <use style="stroke:#000000;stroke-width:0.5;" x="220.8" xlink:href="#m0cd5ca4528" y="388.8"/>
      </g>
     </g>
     <g id="line2d_12">
      <g>
       <use style="stroke:#000000;stroke-width:0.5;" x="220.8" xlink:href="#m9cf67b864a" y="43.2"/>
      </g>
     </g>
     <g id="text_3">
      <!-- 10 -->
      <defs>
       <path d="M 12.40625 8.296875 
L 28.515625 8.296875 
L 28.515625 63.921875 
L 10.984375 60.40625 
L 10.984375 69.390625 
L 28.421875 72.90625 
L 38.28125 72.90625 
L 38.28125 8.296875 
L 54.390625 8.296875 
L 54.390625 0 
L 12.40625 0 
z
" id="BitstreamVeraSans-Roman-31"/>
      </defs>
      <g transform="translate(213.165 401.918125)scale(0.12 -0.12)">
       <use xlink:href="#BitstreamVeraSans-Roman-31"/>
       <use x="63.623046875" xlink:href="#BitstreamVeraSans-Roman-30"/>
      </g>
     </g>
    </g>
    <g id="xtick_4">
     <g id="line2d_13">
      <path clip-path="url(#p3825cd4bd8)" d="M 295.2 388.8 
L 295.2 43.2 
" style="fill:none;stroke:#000000;stroke-dasharray:1.000000,3.000000;stroke-dashoffset:0.0;stroke-width:0.5;"/>
     </g>
     <g id="line2d_14">
      <g>
       <use style="stroke:#000000;stroke-width:0.5;" x="295.2" xlink:href="#m0cd5ca4528" y="388.8"/>
      </g>
     </g>
     <g id="line2d_15">
      <g>
       <use style="stroke:#000000;stroke-width:0.5;" x="295.2" xlink:href="#m9cf67b864a" y="43.2"/>
      </g>
     </g>
     <g id="text_4">
      <!-- 15 -->
      <g transform="translate(287.565 401.918125)scale(0.12 -0.12)">
       <use xlink:href="#BitstreamVeraSans-Roman-31"/>
       <use x="63.623046875" xlink:href="#BitstreamVeraSans-Roman-35"/>
      </g>
     </g>
    </g>
    <g id="xtick_5">
     <g id="line2d_16">
      <path clip-path="url(#p3825cd4bd8)" d="M 369.6 388.8 
L 369.6 43.2 
" style="fill:none;stroke:#000000;stroke-dasharray:1.000000,3.000000;stroke-dashoffset:0.0;stroke-width:0.5;"/>
     </g>
     <g id="line2d_17">
      <g>
       <use style="stroke:#000000;stroke-width:0.5;" x="369.6" xlink:href="#m0cd5ca4528" y="388.8"/>
      </g>
     </g>
     <g id="line2d_18">
      <g>
       <use style="stroke:#000000;stroke-width:0.5;" x="369.6" xlink:href="#m9cf67b864a" y="43.2"/>
      </g>
     </g>
     <g id="text_5">
      <!-- 20 -->
      <defs>
       <path d="M 19.1875 8.296875 
L 53.609375 8.296875 
L 53.609375 0 
L 7.328125 0 
L 7.328125 8.296875 
Q 12.9375 14.109375 22.625 23.890625 
Q 32.328125 33.6875 34.8125 36.53125 
Q 39.546875 41.84375 41.421875 45.53125 
Q 43.3125 49.21875 43.3125 52.78125 
Q 43.3125 58.59375 39.234375 62.25 
Q 35.15625 65.921875 28.609375 65.921875 
Q 23.96875 65.921875 18.8125 64.3125 
Q 13.671875 62.703125 7.8125 59.421875 
L 7.8125 69.390625 
Q 13.765625 71.78125 18.9375 73 
Q 24.125 74.21875 28.421875 74.21875 
Q 39.75 74.21875 46.484375 68.546875 
Q 53.21875 62.890625 53.21875 53.421875 
Q 53.21875 48.921875 51.53125 44.890625 
Q 49.859375 40.875 45.40625 35.40625 
Q 44.1875 33.984375 37.640625 27.21875 
Q 31.109375 20.453125 19.1875 8.296875 
" id="BitstreamVeraSans-Roman-32"/>
      </defs>
      <g transform="translate(361.965 401.918125)scale(0.12 -0.12)">
       <use xlink:href="#BitstreamVeraSans-Roman-32"/>
       <use x="63.623046875" xlink:href="#BitstreamVeraSans-Roman-30"/>
      </g>
     </g>
    </g>
    <g id="xtick_6">
     <g id="line2d_19">
      <path clip-path="url(#p3825cd4bd8)" d="M 444 388.8 
L 444 43.2 
" style="fill:none;stroke:#000000;stroke-dasharray:1.000000,3.000000;stroke-dashoffset:0.0;stroke-width:0.5;"/>
     </g>
     <g id="line2d_20">
      <g>
       <use style="stroke:#000000;stroke-width:0.5;" x="444.0" xlink:href="#m0cd5ca4528" y="388.8"/>
      </g>
     </g>
     <g id="line2d_21">
      <g>
       <use style="stroke:#000000;stroke-width:0.5;" x="444.0" xlink:href="#m9cf67b864a" y="43.2"/>
      </g>
     </g>
     <g id="text_6">
      <!-- 25 -->
      <g transform="translate(436.365 401.918125)scale(0.12 -0.12)">
       <use xlink:href="#BitstreamVeraSans-Roman-32"/>
       <use x="63.623046875" xlink:href="#BitstreamVeraSans-Roman-35"/>
      </g>
     </g>
    </g>
    <g id="xtick_7">
     <g id="line2d_22">
      <path clip-path="url(#p3825cd4bd8)" d="M 518.4 388.8 
L 518.4 43.2 
" style="fill:none;stroke:#000000;stroke-dasharray:1.000000,3.000000;stroke-dashoffset:0.0;stroke-width:0.5;"/>
     </g>
     <g id="line2d_23">
      <g>
       <use style="stroke:#000000;stroke-width:0.5;" x="518.4" xlink:href="#m0cd5ca4528" y="388.8"/>
      </g>
     </g>
     <g id="line2d_24">
      <g>
       <use style="stroke:#000000;stroke-width:0.5;" x="518.4" xlink:href="#m9cf67b864a" y="43.2"/>
      </g>
     </g>
     <g id="text_7">
      <!-- 30 -->
      <defs>
       <path d="M 40.578125 39.3125 
Q 47.65625 37.796875 51.625 33 
Q 55.609375 28.21875 55.609375 21.1875 
Q 55.609375 10.40625 48.1875 4.484375 
Q 40.765625 -1.421875 27.09375 -1.421875 
Q 22.515625 -1.421875 17.65625 -0.515625 
Q 12.796875 0.390625 7.625 2.203125 
L 7.625 11.71875 
Q 11.71875 9.328125 16.59375 8.109375 
Q 21.484375 6.890625 26.8125 6.890625 
Q 36.078125 6.890625 40.9375 10.546875 
Q 45.796875 14.203125 45.796875 21.1875 
Q 45.796875 27.640625 41.28125 31.265625 
Q 36.765625 34.90625 28.71875 34.90625 
L 20.21875 34.90625 
L 20.21875 43.015625 
L 29.109375 43.015625 
Q 36.375 43.015625 40.234375 45.921875 
Q 44.09375 48.828125 44.09375 54.296875 
Q 44.09375 59.90625 40.109375 62.90625 
Q 36.140625 65.921875 28.71875 65.921875 
Q 24.65625 65.921875 20.015625 65.03125 
Q 15.375 64.15625 9.8125 62.3125 
L 9.8125 71.09375 
Q 15.4375 72.65625 20.34375 73.4375 
Q 25.25 74.21875 29.59375 74.21875 
Q 40.828125 74.21875 47.359375 69.109375 
Q 53.90625 64.015625 53.90625 55.328125 
Q 53.90625 49.265625 50.4375 45.09375 
Q 46.96875 40.921875 40.578125 39.3125 
" id="BitstreamVeraSans-Roman-33"/>
      </defs>
      <g transform="translate(510.765 401.918125)scale(0.12 -0.12)">
       <use xlink:href="#BitstreamVeraSans-Roman-33"/>
       <use x="63.623046875" xlink:href="#BitstreamVeraSans-Roman-30"/>
      </g>
     </g>
    </g>
    <g id="text_8">
     <!-- Time [s] -->
     <defs>
      <path id="BitstreamVeraSans-Roman-20"/>
      <path d="M 8.59375 75.984375 
L 29.296875 75.984375 
L 29.296875 69 
L 17.578125 69 
L 17.578125 -6.203125 
L 29.296875 -6.203125 
L 29.296875 -13.1875 
L 8.59375 -13.1875 
z
" id="BitstreamVeraSans-Roman-5b"/>
      <path d="M 30.421875 75.984375 
L 30.421875 -13.1875 
L 9.71875 -13.1875 
L 9.71875 -6.203125 
L 21.390625 -6.203125 
L 21.390625 69 
L 9.71875 69 
L 9.71875 75.984375 
z
" id="BitstreamVeraSans-Roman-5d"/>
      <path d="M 52 44.1875 
Q 55.375 50.25 60.0625 53.125 
Q 64.75 56 71.09375 56 
Q 79.640625 56 84.28125 50.015625 
Q 88.921875 44.046875 88.921875 33.015625 
L 88.921875 0 
L 79.890625 0 
L 79.890625 32.71875 
Q 79.890625 40.578125 77.09375 44.375 
Q 74.3125 48.1875 68.609375 48.1875 
Q 61.625 48.1875 57.5625 43.546875 
Q 53.515625 38.921875 53.515625 30.90625 
L 53.515625 0 
L 44.484375 0 
L 44.484375 32.71875 
Q 44.484375 40.625 41.703125 44.40625 
Q 38.921875 48.1875 33.109375 48.1875 
Q 26.21875 48.1875 22.15625 43.53125 
Q 18.109375 38.875 18.109375 30.90625 
L 18.109375 0 
L 9.078125 0 
L 9.078125 54.6875 
L 18.109375 54.6875 
L 18.109375 46.1875 
Q 21.1875 51.21875 25.484375 53.609375 
Q 29.78125 56 35.6875 56 
Q 41.65625 56 45.828125 52.96875 
Q 50 49.953125 52 44.1875 
" id="BitstreamVeraSans-Roman-6d"/>
      <path d="M 9.421875 54.6875 
L 18.40625 54.6875 
L 18.40625 0 
L 9.421875 0 
z
M 9.421875 75.984375 
L 18.40625 75.984375 
L 18.40625 64.59375 
L 9.421875 64.59375 
z
" id="BitstreamVeraSans-Roman-69"/>
      <path d="M 56.203125 29.59375 
L 56.203125 25.203125 
L 14.890625 25.203125 
Q 15.484375 15.921875 20.484375 11.0625 
Q 25.484375 6.203125 34.421875 6.203125 
Q 39.59375 6.203125 44.453125 7.46875 
Q 49.3125 8.734375 54.109375 11.28125 
L 54.109375 2.78125 
Q 49.265625 0.734375 44.1875 -0.34375 
Q 39.109375 -1.421875 33.890625 -1.421875 
Q 20.796875 -1.421875 13.15625 6.1875 
Q 5.515625 13.8125 5.515625 26.8125 
Q 5.515625 40.234375 12.765625 48.109375 
Q 20.015625 56 32.328125 56 
Q 43.359375 56 49.78125 48.890625 
Q 56.203125 41.796875 56.203125 29.59375 
M 47.21875 32.234375 
Q 47.125 39.59375 43.09375 43.984375 
Q 39.0625 48.390625 32.421875 48.390625 
Q 24.90625 48.390625 20.390625 44.140625 
Q 15.875 39.890625 15.1875 32.171875 
z
" id="BitstreamVeraSans-Roman-65"/>
      <path d="M -0.296875 72.90625 
L 61.375 72.90625 
L 61.375 64.59375 
L 35.5 64.59375 
L 35.5 0 
L 25.59375 0 
L 25.59375 64.59375 
L -0.296875 64.59375 
z
" id="BitstreamVeraSans-Roman-54"/>
      <path d="M 44.28125 53.078125 
L 44.28125 44.578125 
Q 40.484375 46.53125 36.375 47.5 
Q 32.28125 48.484375 27.875 48.484375 
Q 21.1875 48.484375 17.84375 46.4375 
Q 14.5 44.390625 14.5 40.28125 
Q 14.5 37.15625 16.890625 35.375 
Q 19.28125 33.59375 26.515625 31.984375 
L 29.59375 31.296875 
Q 39.15625 29.25 43.1875 25.515625 
Q 47.21875 21.78125 47.21875 15.09375 
Q 47.21875 7.46875 41.1875 3.015625 
Q 35.15625 -1.421875 24.609375 -1.421875 
Q 20.21875 -1.421875 15.453125 -0.5625 
Q 10.6875 0.296875 5.421875 2 
L 5.421875 11.28125 
Q 10.40625 8.6875 15.234375 7.390625 
Q 20.0625 6.109375 24.8125 6.109375 
Q 31.15625 6.109375 34.5625 8.28125 
Q 37.984375 10.453125 37.984375 14.40625 
Q 37.984375 18.0625 35.515625 20.015625 
Q 33.0625 21.96875 24.703125 23.78125 
L 21.578125 24.515625 
Q 13.234375 26.265625 9.515625 29.90625 
Q 5.8125 33.546875 5.8125 39.890625 
Q 5.8125 47.609375 11.28125 51.796875 
Q 16.75 56 26.8125 56 
Q 31.78125 56 36.171875 55.265625 
Q 40.578125 54.546875 44.28125 53.078125 
" id="BitstreamVeraSans-Roman-73"/>
     </defs>
     <g transform="translate(270.620625 418.531875)scale(0.12 -0.12)">
      <use xlink:href="#BitstreamVeraSans-Roman-54"/>
      <use x="61.037109375" xlink:href="#BitstreamVeraSans-Roman-69"/>
      <use x="88.8203125" xlink:href="#BitstreamVeraSans-Roman-6d"/>
      <use x="186.232421875" xlink:href="#BitstreamVeraSans-Roman-65"/>
      <use x="247.755859375" xlink:href="#BitstreamVeraSans-Roman-20"/>
      <use x="279.54296875" xlink:href="#BitstreamVeraSans-Roman-5b"/>
      <use x="318.556640625" xlink:href="#BitstreamVeraSans-Roman-73"/>
      <use x="370.65625" xlink:href="#BitstreamVeraSans-Roman-5d"/>
     </g>
    </g>
   </g>
   <g id="matplotlib.axis_2">
    <g id="ytick_1">
     <g id="line2d_25">
      <path clip-path="url(#p3825cd4bd8)" d="M 72 388.8 
L 518.4 388.8 
" style="fill:none;stroke:#000000;stroke-dasharray:1.000000,3.000000;stroke-dashoffset:0.0;stroke-width:0.5;"/>
     </g>
     <g id="line2d_26">
      <defs>
       <path d="M 0 0 
L 4 0 
" id="mb35195c54f" style="stroke:#000000;stroke-width:0.5;"/>
      </defs>
      <g>
       <use style="stroke:#000000;stroke-width:0.5;" x="72.0" xlink:href="#mb35195c54f" y="388.8"/>
      </g>
     </g>
     <g id="line2d_27">
      <defs>
       <path d="M 0 0 
L -4 0 
" id="m6f53fef475" style="stroke:#000000;stroke-width:0.5;"/>
      </defs>
      <g>
       <use style="stroke:#000000;stroke-width:0.5;" x="518.4" xlink:href="#m6f53fef475" y="388.8"/>
      </g>
     </g>
     <g id="text_9">
      <!-- −3.0 -->
      <defs>
       <path d="M 10.59375 35.5 
L 73.1875 35.5 
L 73.1875 27.203125 
L 10.59375 27.203125 
z
" id="BitstreamVeraSans-Roman-2212"/>
       <path d="M 10.6875 12.40625 
L 21 12.40625 
L 21 0 
L 10.6875 0 
z
" id="BitstreamVeraSans-Roman-2e"/>
      </defs>
      <g transform="translate(38.860625 392.11125)scale(0.12 -0.12)">
       <use xlink:href="#BitstreamVeraSans-Roman-2212"/>
       <use x="83.7890625" xlink:href="#BitstreamVeraSans-Roman-33"/>
       <use x="147.412109375" xlink:href="#BitstreamVeraSans-Roman-2e"/>
       <use x="179.19921875" xlink:href="#BitstreamVeraSans-Roman-30"/>
      </g>
     </g>
    </g>
    <g id="ytick_2">
     <g id="line2d_28">
      <path clip-path="url(#p3825cd4bd8)" d="M 72 350.4 
L 518.4 350.4 
" style="fill:none;stroke:#000000;stroke-dasharray:1.000000,3.000000;stroke-dashoffset:0.0;stroke-width:0.5;"/>
     </g>
     <g id="line2d_29">
      <g>
       <use style="stroke:#000000;stroke-width:0.5;" x="72.0" xlink:href="#mb35195c54f" y="350.4"/>
      </g>
     </g>
     <g id="line2d_30">
      <g>
       <use style="stroke:#000000;stroke-width:0.5;" x="518.4" xlink:href="#m6f53fef475" y="350.4"/>
      </g>
     </g>
     <g id="text_10">
      <!-- −2.5 -->
      <g transform="translate(38.860625 353.71125)scale(0.12 -0.12)">
       <use xlink:href="#BitstreamVeraSans-Roman-2212"/>
       <use x="83.7890625" xlink:href="#BitstreamVeraSans-Roman-32"/>
       <use x="147.412109375" xlink:href="#BitstreamVeraSans-Roman-2e"/>
       <use x="179.19921875" xlink:href="#BitstreamVeraSans-Roman-35"/>
      </g>
     </g>
    </g>
    <g id="ytick_3">
     <g id="line2d_31">
      <path clip-path="url(#p3825cd4bd8)" d="M 72 312 
L 518.4 312 
" style="fill:none;stroke:#000000;stroke-dasharray:1.000000,3.000000;stroke-dashoffset:0.0;stroke-width:0.5;"/>
     </g>
     <g id="line2d_32">
      <g>
       <use style="stroke:#000000;stroke-width:0.5;" x="72.0" xlink:href="#mb35195c54f" y="312.0"/>
      </g>
     </g>
     <g id="line2d_33">
      <g>
       <use style="stroke:#000000;stroke-width:0.5;" x="518.4" xlink:href="#m6f53fef475" y="312.0"/>
      </g>
     </g>
     <g id="text_11">
      <!-- −2.0 -->
      <g transform="translate(38.860625 315.31125)scale(0.12 -0.12)">
       <use xlink:href="#BitstreamVeraSans-Roman-2212"/>
       <use x="83.7890625" xlink:href="#BitstreamVeraSans-Roman-32"/>
       <use x="147.412109375" xlink:href="#BitstreamVeraSans-Roman-2e"/>
       <use x="179.19921875" xlink:href="#BitstreamVeraSans-Roman-30"/>
      </g>
     </g>
    </g>
    <g id="ytick_4">
     <g id="line2d_34">
      <path clip-path="url(#p3825cd4bd8)" d="M 72 273.6 
L 518.4 273.6 
" style="fill:none;stroke:#000000;stroke-dasharray:1.000000,3.000000;stroke-dashoffset:0.0;stroke-width:0.5;"/>
     </g>
     <g id="line2d_35">
      <g>
       <use style="stroke:#000000;stroke-width:0.5;" x="72.0" xlink:href="#mb35195c54f" y="273.6"/>
      </g>
     </g>
     <g id="line2d_36">
      <g>
       <use style="stroke:#000000;stroke-width:0.5;" x="518.4" xlink:href="#m6f53fef475" y="273.6"/>
      </g>
     </g>
     <g id="text_12">
      <!-- −1.5 -->
      <g transform="translate(38.860625 276.91125)scale(0.12 -0.12)">
       <use xlink:href="#BitstreamVeraSans-Roman-2212"/>
       <use x="83.7890625" xlink:href="#BitstreamVeraSans-Roman-31"/>
       <use x="147.412109375" xlink:href="#BitstreamVeraSans-Roman-2e"/>
       <use x="179.19921875" xlink:href="#BitstreamVeraSans-Roman-35"/>
      </g>
     </g>
    </g>
    <g id="ytick_5">
     <g id="line2d_37">
      <path clip-path="url(#p3825cd4bd8)" d="M 72 235.2 
L 518.4 235.2 
" style="fill:none;stroke:#000000;stroke-dasharray:1.000000,3.000000;stroke-dashoffset:0.0;stroke-width:0.5;"/>
     </g>
     <g id="line2d_38">
      <g>
       <use style="stroke:#000000;stroke-width:0.5;" x="72.0" xlink:href="#mb35195c54f" y="235.2"/>
      </g>
     </g>
     <g id="line2d_39">
      <g>
       <use style="stroke:#000000;stroke-width:0.5;" x="518.4" xlink:href="#m6f53fef475" y="235.2"/>
      </g>
     </g>
     <g id="text_13">
      <!-- −1.0 -->
      <g transform="translate(38.860625 238.51125)scale(0.12 -0.12)">
       <use xlink:href="#BitstreamVeraSans-Roman-2212"/>
       <use x="83.7890625" xlink:href="#BitstreamVeraSans-Roman-31"/>
       <use x="147.412109375" xlink:href="#BitstreamVeraSans-Roman-2e"/>
       <use x="179.19921875" xlink:href="#BitstreamVeraSans-Roman-30"/>
      </g>
     </g>
    </g>
    <g id="ytick_6">
     <g id="line2d_40">
      <path clip-path="url(#p3825cd4bd8)" d="M 72 196.8 
L 518.4 196.8 
" style="fill:none;stroke:#000000;stroke-dasharray:1.000000,3.000000;stroke-dashoffset:0.0;stroke-width:0.5;"/>
     </g>
     <g id="line2d_41">
      <g>
       <use style="stroke:#000000;stroke-width:0.5;" x="72.0" xlink:href="#mb35195c54f" y="196.8"/>
      </g>
     </g>
     <g id="line2d_42">
      <g>
       <use style="stroke:#000000;stroke-width:0.5;" x="518.4" xlink:href="#m6f53fef475" y="196.8"/>
      </g>
     </g>
     <g id="text_14">
      <!-- −0.5 -->
      <g transform="translate(38.860625 200.11125)scale(0.12 -0.12)">
       <use xlink:href="#BitstreamVeraSans-Roman-2212"/>
       <use x="83.7890625" xlink:href="#BitstreamVeraSans-Roman-30"/>
       <use x="147.412109375" xlink:href="#BitstreamVeraSans-Roman-2e"/>
       <use x="179.19921875" xlink:href="#BitstreamVeraSans-Roman-35"/>
      </g>
     </g>
    </g>
    <g id="ytick_7">
     <g id="line2d_43">
      <path clip-path="url(#p3825cd4bd8)" d="M 72 158.4 
L 518.4 158.4 
" style="fill:none;stroke:#000000;stroke-dasharray:1.000000,3.000000;stroke-dashoffset:0.0;stroke-width:0.5;"/>
     </g>
     <g id="line2d_44">
      <g>
       <use style="stroke:#000000;stroke-width:0.5;" x="72.0" xlink:href="#mb35195c54f" y="158.4"/>
      </g>
     </g>
     <g id="line2d_45">
      <g>
       <use style="stroke:#000000;stroke-width:0.5;" x="518.4" xlink:href="#m6f53fef475" y="158.4"/>
      </g>
     </g>
     <g id="text_15">
      <!-- 0.0 -->
      <g transform="translate(48.91625 161.71125)scale(0.12 -0.12)">
       <use xlink:href="#BitstreamVeraSans-Roman-30"/>
       <use x="63.623046875" xlink:href="#BitstreamVeraSans-Roman-2e"/>
       <use x="95.41015625" xlink:href="#BitstreamVeraSans-Roman-30"/>
      </g>
     </g>
    </g>
    <g id="ytick_8">
     <g id="line2d_46">
      <path clip-path="url(#p3825cd4bd8)" d="M 72 120 
L 518.4 120 
" style="fill:none;stroke:#000000;stroke-dasharray:1.000000,3.000000;stroke-dashoffset:0.0;stroke-width:0.5;"/>
     </g>
     <g id="line2d_47">
      <g>
       <use style="stroke:#000000;stroke-width:0.5;" x="72.0" xlink:href="#mb35195c54f" y="120.0"/>
      </g>
     </g>
     <g id="line2d_48">
      <g>
       <use style="stroke:#000000;stroke-width:0.5;" x="518.4" xlink:href="#m6f53fef475" y="120.0"/>
      </g>
     </g>
     <g id="text_16">
      <!-- 0.5 -->
      <g transform="translate(48.91625 123.31125)scale(0.12 -0.12)">
       <use xlink:href="#BitstreamVeraSans-Roman-30"/>
       <use x="63.623046875" xlink:href="#BitstreamVeraSans-Roman-2e"/>
       <use x="95.41015625" xlink:href="#BitstreamVeraSans-Roman-35"/>
      </g>
     </g>
    </g>
    <g id="ytick_9">
     <g id="line2d_49">
      <path clip-path="url(#p3825cd4bd8)" d="M 72 81.6 
L 518.4 81.6 
" style="fill:none;stroke:#000000;stroke-dasharray:1.000000,3.000000;stroke-dashoffset:0.0;stroke-width:0.5;"/>
     </g>
     <g id="line2d_50">
      <g>
       <use style="stroke:#000000;stroke-width:0.5;" x="72.0" xlink:href="#mb35195c54f" y="81.6"/>
      </g>
     </g>
     <g id="line2d_51">
      <g>
       <use style="stroke:#000000;stroke-width:0.5;" x="518.4" xlink:href="#m6f53fef475" y="81.6"/>
      </g>
     </g>
     <g id="text_17">
      <!-- 1.0 -->
      <g transform="translate(48.91625 84.91125)scale(0.12 -0.12)">
       <use xlink:href="#BitstreamVeraSans-Roman-31"/>
       <use x="63.623046875" xlink:href="#BitstreamVeraSans-Roman-2e"/>
       <use x="95.41015625" xlink:href="#BitstreamVeraSans-Roman-30"/>
      </g>
     </g>
    </g>
    <g id="ytick_10">
     <g id="line2d_52">
      <path clip-path="url(#p3825cd4bd8)" d="M 72 43.2 
L 518.4 43.2 
" style="fill:none;stroke:#000000;stroke-dasharray:1.000000,3.000000;stroke-dashoffset:0.0;stroke-width:0.5;"/>
     </g>
     <g id="line2d_53">
      <g>
       <use style="stroke:#000000;stroke-width:0.5;" x="72.0" xlink:href="#mb35195c54f" y="43.2"/>
      </g>
     </g>
     <g id="line2d_54">
      <g>
       <use style="stroke:#000000;stroke-width:0.5;" x="518.4" xlink:href="#m6f53fef475" y="43.2"/>
      </g>
     </g>
     <g id="text_18">
      <!-- 1.5 -->
      <g transform="translate(48.91625 46.51125)scale(0.12 -0.12)">
       <use xlink:href="#BitstreamVeraSans-Roman-31"/>
       <use x="63.623046875" xlink:href="#BitstreamVeraSans-Roman-2e"/>
       <use x="95.41015625" xlink:href="#BitstreamVeraSans-Roman-35"/>
      </g>
     </g>
    </g>
    <g id="text_19">
     <!-- Acceleration [m/s^2] -->
     <defs>
      <path d="M 46.6875 72.90625 
L 73.1875 45.703125 
L 63.375 45.703125 
L 41.890625 64.984375 
L 20.40625 45.703125 
L 10.59375 45.703125 
L 37.109375 72.90625 
z
" id="BitstreamVeraSans-Roman-5e"/>
      <path d="M 54.890625 33.015625 
L 54.890625 0 
L 45.90625 0 
L 45.90625 32.71875 
Q 45.90625 40.484375 42.875 44.328125 
Q 39.84375 48.1875 33.796875 48.1875 
Q 26.515625 48.1875 22.3125 43.546875 
Q 18.109375 38.921875 18.109375 30.90625 
L 18.109375 0 
L 9.078125 0 
L 9.078125 54.6875 
L 18.109375 54.6875 
L 18.109375 46.1875 
Q 21.34375 51.125 25.703125 53.5625 
Q 30.078125 56 35.796875 56 
Q 45.21875 56 50.046875 50.171875 
Q 54.890625 44.34375 54.890625 33.015625 
" id="BitstreamVeraSans-Roman-6e"/>
      <path d="M 41.109375 46.296875 
Q 39.59375 47.171875 37.8125 47.578125 
Q 36.03125 48 33.890625 48 
Q 26.265625 48 22.1875 43.046875 
Q 18.109375 38.09375 18.109375 28.8125 
L 18.109375 0 
L 9.078125 0 
L 9.078125 54.6875 
L 18.109375 54.6875 
L 18.109375 46.1875 
Q 20.953125 51.171875 25.484375 53.578125 
Q 30.03125 56 36.53125 56 
Q 37.453125 56 38.578125 55.875 
Q 39.703125 55.765625 41.0625 55.515625 
z
" id="BitstreamVeraSans-Roman-72"/>
      <path d="M 30.609375 48.390625 
Q 23.390625 48.390625 19.1875 42.75 
Q 14.984375 37.109375 14.984375 27.296875 
Q 14.984375 17.484375 19.15625 11.84375 
Q 23.34375 6.203125 30.609375 6.203125 
Q 37.796875 6.203125 41.984375 11.859375 
Q 46.1875 17.53125 46.1875 27.296875 
Q 46.1875 37.015625 41.984375 42.703125 
Q 37.796875 48.390625 30.609375 48.390625 
M 30.609375 56 
Q 42.328125 56 49.015625 48.375 
Q 55.71875 40.765625 55.71875 27.296875 
Q 55.71875 13.875 49.015625 6.21875 
Q 42.328125 -1.421875 30.609375 -1.421875 
Q 18.84375 -1.421875 12.171875 6.21875 
Q 5.515625 13.875 5.515625 27.296875 
Q 5.515625 40.765625 12.171875 48.375 
Q 18.84375 56 30.609375 56 
" id="BitstreamVeraSans-Roman-6f"/>
      <path d="M 9.421875 75.984375 
L 18.40625 75.984375 
L 18.40625 0 
L 9.421875 0 
z
" id="BitstreamVeraSans-Roman-6c"/>
      <path d="M 34.1875 63.1875 
L 20.796875 26.90625 
L 47.609375 26.90625 
z
M 28.609375 72.90625 
L 39.796875 72.90625 
L 67.578125 0 
L 57.328125 0 
L 50.6875 18.703125 
L 17.828125 18.703125 
L 11.1875 0 
L 0.78125 0 
z
" id="BitstreamVeraSans-Roman-41"/>
      <path d="M 25.390625 72.90625 
L 33.6875 72.90625 
L 8.296875 -9.28125 
L 0 -9.28125 
z
" id="BitstreamVeraSans-Roman-2f"/>
      <path d="M 18.3125 70.21875 
L 18.3125 54.6875 
L 36.8125 54.6875 
L 36.8125 47.703125 
L 18.3125 47.703125 
L 18.3125 18.015625 
Q 18.3125 11.328125 20.140625 9.421875 
Q 21.96875 7.515625 27.59375 7.515625 
L 36.8125 7.515625 
L 36.8125 0 
L 27.59375 0 
Q 17.1875 0 13.234375 3.875 
Q 9.28125 7.765625 9.28125 18.015625 
L 9.28125 47.703125 
L 2.6875 47.703125 
L 2.6875 54.6875 
L 9.28125 54.6875 
L 9.28125 70.21875 
z
" id="BitstreamVeraSans-Roman-74"/>
      <path d="M 34.28125 27.484375 
Q 23.390625 27.484375 19.1875 25 
Q 14.984375 22.515625 14.984375 16.5 
Q 14.984375 11.71875 18.140625 8.90625 
Q 21.296875 6.109375 26.703125 6.109375 
Q 34.1875 6.109375 38.703125 11.40625 
Q 43.21875 16.703125 43.21875 25.484375 
L 43.21875 27.484375 
z
M 52.203125 31.203125 
L 52.203125 0 
L 43.21875 0 
L 43.21875 8.296875 
Q 40.140625 3.328125 35.546875 0.953125 
Q 30.953125 -1.421875 24.3125 -1.421875 
Q 15.921875 -1.421875 10.953125 3.296875 
Q 6 8.015625 6 15.921875 
Q 6 25.140625 12.171875 29.828125 
Q 18.359375 34.515625 30.609375 34.515625 
L 43.21875 34.515625 
L 43.21875 35.40625 
Q 43.21875 41.609375 39.140625 45 
Q 35.0625 48.390625 27.6875 48.390625 
Q 23 48.390625 18.546875 47.265625 
Q 14.109375 46.140625 10.015625 43.890625 
L 10.015625 52.203125 
Q 14.9375 54.109375 19.578125 55.046875 
Q 24.21875 56 28.609375 56 
Q 40.484375 56 46.34375 49.84375 
Q 52.203125 43.703125 52.203125 31.203125 
" id="BitstreamVeraSans-Roman-61"/>
      <path d="M 48.78125 52.59375 
L 48.78125 44.1875 
Q 44.96875 46.296875 41.140625 47.34375 
Q 37.3125 48.390625 33.40625 48.390625 
Q 24.65625 48.390625 19.8125 42.84375 
Q 14.984375 37.3125 14.984375 27.296875 
Q 14.984375 17.28125 19.8125 11.734375 
Q 24.65625 6.203125 33.40625 6.203125 
Q 37.3125 6.203125 41.140625 7.25 
Q 44.96875 8.296875 48.78125 10.40625 
L 48.78125 2.09375 
Q 45.015625 0.34375 40.984375 -0.53125 
Q 36.96875 -1.421875 32.421875 -1.421875 
Q 20.0625 -1.421875 12.78125 6.34375 
Q 5.515625 14.109375 5.515625 27.296875 
Q 5.515625 40.671875 12.859375 48.328125 
Q 20.21875 56 33.015625 56 
Q 37.15625 56 41.109375 55.140625 
Q 45.0625 54.296875 48.78125 52.59375 
" id="BitstreamVeraSans-Roman-63"/>
     </defs>
     <g transform="translate(31.365 279.81375)rotate(-90.0)scale(0.12 -0.12)">
      <use xlink:href="#BitstreamVeraSans-Roman-41"/>
      <use x="68.392578125" xlink:href="#BitstreamVeraSans-Roman-63"/>
      <use x="123.373046875" xlink:href="#BitstreamVeraSans-Roman-63"/>
      <use x="178.353515625" xlink:href="#BitstreamVeraSans-Roman-65"/>
      <use x="239.876953125" xlink:href="#BitstreamVeraSans-Roman-6c"/>
      <use x="267.66015625" xlink:href="#BitstreamVeraSans-Roman-65"/>
      <use x="329.18359375" xlink:href="#BitstreamVeraSans-Roman-72"/>
      <use x="370.296875" xlink:href="#BitstreamVeraSans-Roman-61"/>
      <use x="431.576171875" xlink:href="#BitstreamVeraSans-Roman-74"/>
      <use x="470.78515625" xlink:href="#BitstreamVeraSans-Roman-69"/>
      <use x="498.568359375" xlink:href="#BitstreamVeraSans-Roman-6f"/>
      <use x="559.75" xlink:href="#BitstreamVeraSans-Roman-6e"/>
      <use x="623.12890625" xlink:href="#BitstreamVeraSans-Roman-20"/>
      <use x="654.916015625" xlink:href="#BitstreamVeraSans-Roman-5b"/>
      <use x="693.9296875" xlink:href="#BitstreamVeraSans-Roman-6d"/>
      <use x="791.341796875" xlink:href="#BitstreamVeraSans-Roman-2f"/>
      <use x="825.033203125" xlink:href="#BitstreamVeraSans-Roman-73"/>
      <use x="877.1328125" xlink:href="#BitstreamVeraSans-Roman-5e"/>
      <use x="960.921875" xlink:href="#BitstreamVeraSans-Roman-32"/>
      <use x="1024.54492188" xlink:href="#BitstreamVeraSans-Roman-5d"/>
     </g>
    </g>
   </g>
   <g id="legend_1">
    <g id="patch_7">
     <path d="M 421.839 118.1295 
L 511.2 118.1295 
L 511.2 50.4 
L 421.839 50.4 
z
" style="fill:#ffffff;stroke:#000000;stroke-linejoin:miter;"/>
    </g>
    <g id="line2d_55">
     <path d="M 431.919 62.06175 
L 452.079 62.06175 
" style="fill:none;stroke:#008000;stroke-linecap:square;"/>
    </g>
    <g id="line2d_56"/>
    <g id="text_20">
     <!-- accel -->
     <g transform="translate(467.919 67.10175)scale(0.144 -0.144)">
      <use xlink:href="#BitstreamVeraSans-Roman-61"/>
      <use x="61.279296875" xlink:href="#BitstreamVeraSans-Roman-63"/>
      <use x="116.259765625" xlink:href="#BitstreamVeraSans-Roman-63"/>
      <use x="171.240234375" xlink:href="#BitstreamVeraSans-Roman-65"/>
      <use x="232.763671875" xlink:href="#BitstreamVeraSans-Roman-6c"/>
     </g>
    </g>
    <g id="line2d_57">
     <path d="M 431.919 83.19825 
L 452.079 83.19825 
" style="fill:none;stroke:#000000;stroke-dasharray:6.000000,6.000000;stroke-dashoffset:0.0;"/>
    </g>
    <g id="line2d_58"/>
    <g id="text_21">
     <!-- max -->
     <defs>
      <path d="M 54.890625 54.6875 
L 35.109375 28.078125 
L 55.90625 0 
L 45.3125 0 
L 29.390625 21.484375 
L 13.484375 0 
L 2.875 0 
L 24.125 28.609375 
L 4.6875 54.6875 
L 15.28125 54.6875 
L 29.78125 35.203125 
L 44.28125 54.6875 
z
" id="BitstreamVeraSans-Roman-78"/>
     </defs>
     <g transform="translate(467.919 88.23825)scale(0.144 -0.144)">
      <use xlink:href="#BitstreamVeraSans-Roman-6d"/>
      <use x="97.412109375" xlink:href="#BitstreamVeraSans-Roman-61"/>
      <use x="158.69140625" xlink:href="#BitstreamVeraSans-Roman-78"/>
     </g>
    </g>
    <g id="line2d_59">
     <path d="M 431.919 104.33475 
L 452.079 104.33475 
" style="fill:none;stroke:#000000;stroke-dasharray:6.000000,6.000000;stroke-dashoffset:0.0;"/>
    </g>
    <g id="line2d_60"/>
    <g id="text_22">
     <!-- min -->
     <g transform="translate(467.919 109.37475)scale(0.144 -0.144)">
      <use xlink:href="#BitstreamVeraSans-Roman-6d"/>
      <use x="97.412109375" xlink:href="#BitstreamVeraSans-Roman-69"/>
      <use x="125.1953125" xlink:href="#BitstreamVeraSans-Roman-6e"/>
     </g>
    </g>
   </g>
  </g>
 </g>
 <defs>
  <clipPath id="p3825cd4bd8">
   <rect height="345.6" width="446.4" x="72.0" y="43.2"/>
  </clipPath>
 </defs>
</svg>
