<?xml version="1.0" encoding="utf-8" standalone="no"?>
<!DOCTYPE svg PUBLIC "-//W3C//DTD SVG 1.1//EN"
  "http://www.w3.org/Graphics/SVG/1.1/DTD/svg11.dtd">
<!-- Created with matplotlib (http://matplotlib.org/) -->
<svg height="432pt" version="1.1" viewBox="0 0 576 432" width="576pt" xmlns="http://www.w3.org/2000/svg" xmlns:xlink="http://www.w3.org/1999/xlink">
 <defs>
  <style type="text/css">
*{stroke-linecap:butt;stroke-linejoin:round;stroke-miterlimit:100000;}
  </style>
 </defs>
 <g id="figure_1">
  <g id="patch_1">
   <path d="M 0 432 
L 576 432 
L 576 0 
L 0 0 
z
" style="fill:#ffffff;"/>
  </g>
  <g id="axes_1">
   <g id="patch_2">
    <path d="M 72 388.8 
L 518.4 388.8 
L 518.4 43.2 
L 72 43.2 
z
" style="fill:#ffffff;"/>
   </g>
   <g id="line2d_1">
    <path clip-path="url(#p234dd4ef97)" d="M 72.1488 202.338958 
L 93.8736 204.281262 
L 95.064 204.060848 
L 96.7008 203.46728 
L 99.2304 202.311518 
L 101.9088 200.767913 
L 105.6288 198.343799 
L 108.7536 195.98974 
L 111.8784 193.415872 
L 128.8416 178.433258 
L 144.912 164.288647 
L 150.864 159.406899 
L 153.84 157.172451 
L 155.1792 156.478614 
L 156.6672 155.94318 
L 158.4528 155.567275 
L 160.2384 155.400946 
L 162.4704 155.428418 
L 165.5952 155.723741 
L 175.1184 156.792894 
L 176.6064 157.299178 
L 178.0944 158.065044 
L 180.4752 159.65738 
L 183.7488 162.10949 
L 186.8736 164.738325 
L 189.7008 167.378039 
L 192.6768 170.437888 
L 195.8016 173.974882 
L 198.48 177.312909 
L 201.1584 181.01076 
L 204.5808 186.167414 
L 206.9616 190.129561 
L 210.9792 197.365325 
L 257.1072 281.110495 
L 276.4512 315.937891 
L 278.832 319.626349 
L 281.3616 323.13592 
L 283.8912 326.268188 
L 286.4208 329.063741 
L 288.504 331.138853 
L 288.8016 331.2 
L 518.4 331.2 
L 518.4 331.2 
" style="fill:none;stroke:#ff0000;stroke-linecap:square;"/>
   </g>
   <g id="line2d_2">
    <path clip-path="url(#p234dd4ef97)" d="M 72.1488 201.678984 
L 72.2976 201.678984 
L 72.4464 202.35469 
L 73.7856 202.461384 
L 74.5296 202.532509 
L 75.72 202.63919 
L 76.6128 202.745884 
L 77.952 202.852577 
L 78.8448 202.959259 
L 80.3328 203.065953 
L 81.2256 203.172646 
L 82.5648 203.279328 
L 83.3088 203.350453 
L 84.4992 203.457146 
L 85.2432 203.528271 
L 86.2848 203.634965 
L 87.1776 203.741647 
L 88.5168 203.84834 
L 89.2608 203.919465 
L 90.6 204.026159 
L 91.4928 204.132853 
L 91.9392 204.029711 
L 92.3856 203.336134 
L 94.1712 201.809681 
L 94.32 201.809681 
L 96.1056 200.284382 
L 96.2544 200.284382 
L 98.1888 198.349737 
L 98.4864 197.936162 
L 99.2304 197.109959 
L 99.528 196.69738 
L 103.248 193.411531 
L 106.0752 190.697841 
L 106.5216 190.022528 
L 107.8608 188.944726 
L 108.0096 188.944726 
L 109.6464 187.336258 
L 109.944 186.935613 
L 110.9856 185.86972 
L 111.2832 185.470955 
L 112.176 184.542446 
L 112.3248 184.277672 
L 112.4736 184.277672 
L 113.664 183.354091 
L 113.8128 183.354091 
L 115.3008 182.173357 
L 115.4496 182.173357 
L 116.64 181.260272 
L 116.7888 181.260272 
L 118.128 180.22239 
L 118.2768 180.22239 
L 119.4672 179.319248 
L 119.616 179.319248 
L 120.8064 178.420826 
L 120.9552 178.420826 
L 121.9968 177.654809 
L 122.1456 177.654809 
L 123.336 176.775708 
L 123.4848 176.775708 
L 124.5264 176.037123 
L 124.824 176.037123 
L 125.1216 175.552042 
L 129.8832 171.821855 
L 134.6448 168.379143 
L 139.5552 165.101725 
L 144.6144 161.988079 
L 149.5248 159.199945 
L 149.6736 159.199945 
L 150.12 158.876496 
L 152.5008 157.69763 
L 156.6672 158.088111 
L 160.8336 158.691684 
L 164.8512 159.510673 
L 168.5712 160.498828 
L 171.2496 161.420111 
L 174.5232 164.285551 
L 174.8208 164.714882 
L 178.0944 168.019155 
L 181.8144 172.095036 
L 185.2368 176.155874 
L 188.6592 180.546895 
L 192.2304 185.493041 
L 195.504 190.378005 
L 197.736 193.916448 
L 198.0336 194.644057 
L 198.3312 195.130638 
L 198.6288 195.867145 
L 199.6704 197.608031 
L 199.968 198.366194 
L 203.5392 204.674814 
L 205.0272 207.45636 
L 205.4736 208.873047 
L 205.7712 209.44378 
L 206.0688 210.309534 
L 209.64 217.479828 
L 209.9376 218.407575 
L 210.5328 219.65329 
L 210.8304 220.596498 
L 211.5744 222.184404 
L 212.0208 223.793573 
L 212.3184 224.443162 
L 212.616 225.422222 
L 212.7648 225.749837 
L 213.0624 226.739504 
L 213.2112 227.071114 
L 213.6576 228.734207 
L 216.6336 235.305493 
L 216.7824 235.305493 
L 217.5264 237.132 
L 217.6752 237.132 
L 218.2704 238.622381 
L 218.568 239.750371 
L 218.7168 240.127327 
L 219.0144 241.270201 
L 219.4608 242.427497 
L 219.7584 243.587375 
L 220.3536 245.133874 
L 220.6512 246.293752 
L 220.9488 247.067002 
L 221.2464 249.000129 
L 221.3952 249.386751 
L 221.8416 251.319878 
L 222.4368 252.866378 
L 222.7344 254.026255 
L 223.9248 257.119254 
L 224.2224 258.279132 
L 224.3712 258.279132 
L 236.424 289.595777 
L 236.5728 289.595777 
L 237.0192 290.755651 
L 237.168 290.755651 
L 237.912 292.688779 
L 238.0608 292.688779 
L 238.8048 294.621906 
L 238.9536 294.621906 
L 239.6976 296.55503 
L 239.8464 296.55503 
L 239.9952 297.32828 
L 240.144 297.32828 
L 240.888 299.261408 
L 241.0368 299.261408 
L 242.6736 303.514284 
L 242.8224 303.514284 
L 243.7152 305.834036 
L 243.864 305.834036 
L 246.2448 312.02004 
L 246.3936 312.02004 
L 248.1792 316.659543 
L 248.328 316.659543 
L 249.3696 319.36592 
L 249.5184 319.36592 
L 250.2624 321.299046 
L 250.4112 321.299046 
L 251.1552 323.232172 
L 251.304 323.232172 
L 252.1968 325.551923 
L 252.3456 325.551923 
L 253.8336 329.418176 
L 253.9824 329.418176 
L 255.3216 332.897803 
L 255.4704 332.897803 
L 256.9584 336.764055 
L 257.1072 336.764055 
L 258.1488 339.470432 
L 258.2976 339.470432 
L 259.9344 343.723309 
L 260.0832 343.723309 
L 260.976 346.043061 
L 261.1248 346.043061 
L 261.5712 347.202937 
L 261.72 347.202937 
L 265.1424 355.939404 
L 265.2912 355.950051 
L 265.5888 356.080763 
L 265.8864 355.926969 
L 266.0352 356.055844 
L 266.3328 355.939453 
L 266.4816 356.068328 
L 266.6304 355.951937 
L 266.928 356.082649 
L 267.0768 355.928859 
L 267.3744 356.095134 
L 267.5232 355.94134 
L 267.672 356.096971 
L 268.416 355.966308 
L 268.5648 356.095183 
L 268.7136 355.943226 
L 269.0112 356.109504 
L 269.16 355.95571 
L 269.3088 356.111342 
L 270.0528 355.980678 
L 270.3504 356.111391 
L 270.4992 355.954294 
L 270.648 356.113228 
L 271.392 355.963816 
L 271.6896 356.089965 
L 271.8384 355.933036 
L 271.9872 356.115115 
L 272.136 356.095439 
L 272.2848 355.938289 
L 272.4336 356.127599 
L 272.7312 355.94381 
L 272.88 356.140081 
L 273.1776 355.949886 
L 273.3264 356.117001 
L 273.4752 356.07673 
L 273.624 355.92018 
L 273.7728 356.129485 
L 274.0704 355.926494 
L 274.2192 356.141968 
L 274.5168 355.933074 
L 274.6656 356.118888 
L 274.9632 355.940163 
L 275.112 356.131372 
L 275.4096 356.032421 
L 275.856 356.160264 
L 276.0048 355.883839 
L 276.1536 355.883839 
L 276.3024 355.726327 
L 276.4512 356.112952 
L 276.7488 355.914539 
L 276.8976 356.121719 
L 277.1952 356.004702 
L 277.344 356.063075 
L 277.4928 355.907644 
L 277.6416 356.122663 
L 277.7904 356.000618 
L 277.9392 356.182249 
L 278.088 356.058144 
L 278.2368 356.277398 
L 278.5344 355.960385 
L 278.6832 356.147629 
L 278.832 355.982576 
L 278.9808 356.207215 
L 279.1296 356.04037 
L 279.2784 356.231238 
L 279.4272 356.062697 
L 279.576 356.290826 
L 279.7248 356.31161 
L 279.8736 356.120773 
L 280.0224 356.138514 
L 280.1712 356.338872 
L 280.32 356.165888 
L 280.4688 356.362894 
L 280.7664 355.962187 
L 280.9152 356.162 
L 281.064 355.985015 
L 281.2128 356.186022 
L 281.3616 355.972243 
L 281.6592 356.387862 
L 281.808 356.172843 
L 281.9568 356.376321 
L 282.1056 356.160207 
L 282.2544 356.364781 
L 282.4032 356.147723 
L 282.552 356.353241 
L 282.7008 356.13521 
L 282.8496 324.834195 
L 283.4448 325.545458 
L 283.5936 325.545458 
L 283.8912 326.078905 
L 284.9328 327.288053 
L 285.0816 331.2 
L 518.4 331.2 
L 518.4 331.2 
" style="fill:none;stroke:#bfbf00;stroke-dasharray:6.000000,6.000000;stroke-dashoffset:0.0;"/>
   </g>
   <g id="line2d_3">
    <path clip-path="url(#p234dd4ef97)" d="M 72.1488 331.2 
L 72.2976 331.2 
L 72.4464 331.2 
L 72.5952 98.578921 
L 73.0416 98.578921 
L 73.1904 99.254628 
L 74.232 99.361334 
L 76.6128 99.574697 
L 76.7616 99.207506 
L 77.5056 99.278643 
L 78.696 99.170757 
L 78.8448 98.969316 
L 78.9936 98.969316 
L 79.1424 98.800519 
L 79.44 98.698778 
L 80.184 98.328392 
L 80.4816 98.025112 
L 80.928 97.721758 
L 81.0768 97.721758 
L 81.2256 97.184812 
L 81.9696 96.712759 
L 82.1184 96.712759 
L 82.5648 96.307664 
L 82.7136 96.307664 
L 83.16 95.953403 
L 83.3088 95.953403 
L 83.4576 95.835267 
L 83.6064 95.531815 
L 83.904 95.46466 
L 84.0528 95.295543 
L 84.3504 95.193483 
L 84.9456 94.755573 
L 85.392 94.586308 
L 85.6896 94.052016 
L 85.9872 93.748638 
L 86.2848 93.697608 
L 86.4336 93.445161 
L 86.5824 93.445161 
L 87.0288 93.090581 
L 87.4752 92.803033 
L 87.624 93.032176 
L 87.7728 92.99705 
L 88.0704 93.41881 
L 88.2192 93.646725 
L 88.5168 93.611329 
L 89.112 94.256997 
L 89.2608 94.221305 
L 89.4096 94.447524 
L 89.5584 94.447524 
L 89.7072 94.637559 
L 89.856 94.637559 
L 90.4512 95.240482 
L 90.6 95.240482 
L 90.7488 95.532676 
L 90.8976 95.396669 
L 91.1952 96.130313 
L 91.344 96.130313 
L 91.4928 95.993888 
L 91.6416 96.538578 
L 91.9392 96.501903 
L 92.2368 96.655264 
L 92.3856 97.197692 
L 92.6832 97.09224 
L 92.832 97.381361 
L 92.9808 97.24415 
L 93.2784 97.784219 
L 93.4272 97.747003 
L 93.576 97.966339 
L 93.7248 97.966339 
L 94.0224 98.435418 
L 94.32 98.297518 
L 94.9152 99.205638 
L 95.064 99.475955 
L 95.2128 99.321783 
L 95.5104 99.760873 
L 95.9568 99.844645 
L 96.1056 100.535124 
L 96.7008 100.61752 
L 96.9984 100.990388 
L 97.1472 100.858266 
L 97.5936 101.632296 
L 97.7424 101.515684 
L 97.8912 101.901212 
L 98.04 101.901212 
L 98.3376 102.169095 
L 98.4864 102.169095 
L 99.2304 103.122788 
L 99.6768 103.356258 
L 99.8256 103.791759 
L 99.9744 103.791759 
L 100.1232 103.938605 
L 100.272 103.806188 
L 101.016 104.687194 
L 101.3136 104.740166 
L 101.6112 105.116525 
L 102.0576 105.615052 
L 102.2064 105.615052 
L 102.3552 105.851128 
L 102.504 105.851128 
L 103.248 106.719008 
L 103.3968 106.555717 
L 103.5456 106.952576 
L 103.6944 106.952576 
L 103.992 107.307649 
L 104.4384 107.854796 
L 104.5872 107.619655 
L 104.8848 108.195759 
L 105.0336 108.195759 
L 105.7776 109.060272 
L 105.9264 108.896907 
L 107.1168 110.266091 
L 107.2656 110.266091 
L 107.4144 110.624949 
L 107.712 110.568044 
L 107.8608 110.79237 
L 108.0096 110.79237 
L 108.7536 111.878111 
L 108.9024 111.935459 
L 109.2 112.290949 
L 109.3488 112.290949 
L 109.4976 112.54251 
L 109.6464 112.379071 
L 109.7952 112.565911 
L 113.8128 110.66713 
L 114.1104 110.367783 
L 114.2592 110.544889 
L 114.5568 110.307019 
L 114.7056 110.307019 
L 115.0032 110.064183 
L 115.896 109.791949 
L 116.0448 109.791949 
L 116.1936 109.54695 
L 116.3424 109.675607 
L 116.7888 109.551424 
L 116.9376 109.105894 
L 117.0864 109.268448 
L 117.5328 109.054028 
L 117.6816 108.855512 
L 117.8304 108.999311 
L 118.7232 108.645615 
L 119.0208 108.676489 
L 119.3184 108.512509 
L 119.616 108.678751 
L 119.9136 108.339951 
L 120.0624 108.504963 
L 120.2112 108.332355 
L 120.6576 108.29251 
L 121.2528 108.1083 
L 121.5504 108.075214 
L 121.6992 107.808805 
L 121.848 107.945918 
L 122.1456 107.83668 
L 122.2944 107.8634 
L 122.4432 107.753105 
L 122.7408 107.90531 
L 122.8896 107.666678 
L 123.0384 107.785601 
L 123.1872 107.71407 
L 123.4848 107.872962 
L 123.6336 107.598736 
L 123.7824 107.716553 
L 123.9312 107.610879 
L 124.2288 107.738995 
L 125.2704 107.67774 
L 125.7168 107.379351 
L 125.8656 107.497217 
L 126.0144 107.405309 
L 126.1632 107.525043 
L 126.312 107.438518 
L 126.4608 107.560046 
L 126.6096 107.46187 
L 126.7584 107.58502 
L 126.9072 107.508377 
L 127.056 107.633174 
L 127.2048 107.544019 
L 127.3536 107.687597 
L 127.5024 107.602743 
L 127.8 107.831862 
L 127.9488 107.996997 
L 128.0976 107.850175 
L 128.2464 107.998964 
L 128.3952 107.926819 
L 128.544 108.05904 
L 128.6928 108.0086 
L 129.1392 108.275844 
L 129.7344 108.595151 
L 130.032 108.408262 
L 130.1808 108.408262 
L 130.3296 108.703626 
L 130.776 108.810799 
L 130.9248 108.950469 
L 131.0736 108.902806 
L 131.3712 109.203603 
L 131.52 109.159431 
L 132.1152 109.708128 
L 132.264 109.680228 
L 132.7104 110.122981 
L 132.8592 110.108798 
L 133.1568 110.399738 
L 133.3056 110.368692 
L 134.496 111.412154 
L 135.0912 111.476139 
L 136.8768 113.174905 
L 137.0256 113.161287 
L 139.2576 115.385447 
L 139.4064 115.322053 
L 141.3408 117.274003 
L 141.4896 117.188387 
L 143.1264 119.181953 
L 143.2752 119.095723 
L 144.6144 120.60819 
L 144.7632 120.919508 
L 144.912 120.919508 
L 145.2096 121.440133 
L 145.8048 122.121665 
L 146.1024 122.613801 
L 146.2512 122.773602 
L 146.4 122.708143 
L 146.6976 123.049843 
L 146.9952 123.542052 
L 147.5904 124.227001 
L 147.888 124.719333 
L 148.1856 125.062569 
L 148.632 125.73776 
L 149.2272 126.32522 
L 149.376 126.32522 
L 149.6736 126.48625 
L 149.9712 127.345195 
L 150.2688 127.837736 
L 151.0128 128.69737 
L 151.1616 129.189997 
L 151.608 129.123825 
L 151.7568 129.682649 
L 152.0544 129.972975 
L 152.352 130.476737 
L 152.5008 130.638603 
L 152.7984 131.153464 
L 152.9472 131.315477 
L 153.2448 132.014658 
L 153.5424 132.256805 
L 153.84 132.771752 
L 154.2864 133.493203 
L 154.4352 133.846014 
L 154.584 133.779596 
L 155.7744 135.391198 
L 155.9232 135.950637 
L 156.072 135.928477 
L 156.5184 136.862947 
L 156.816 136.818627 
L 156.9648 137.193672 
L 157.1136 137.193672 
L 157.4112 137.753159 
L 157.56 138.12824 
L 157.7088 138.12824 
L 158.0064 138.709912 
L 158.304 139.313829 
L 158.7504 139.666738 
L 158.8992 140.041869 
L 159.048 140.041869 
L 159.1968 140.417036 
L 159.3456 140.417036 
L 159.6432 141.41828 
L 159.9408 142.022247 
L 160.2384 142.566236 
L 160.8336 143.589738 
L 160.9824 143.589738 
L 161.28 144.215853 
L 161.4288 144.215853 
L 161.7264 144.362626 
L 161.8752 145.010826 
L 162.1728 145.408362 
L 162.4704 145.975186 
L 164.5536 149.495931 
L 164.7024 149.495931 
L 165 150.313765 
L 165.1488 150.472803 
L 165.2976 150.881843 
L 165.4464 150.881843 
L 165.744 151.699996 
L 165.8928 151.722045 
L 166.1904 152.268824 
L 169.7616 158.787685 
L 169.9104 158.787685 
L 170.3568 159.758449 
L 170.5056 160.028053 
L 170.6544 160.028053 
L 170.952 160.999198 
L 171.3984 161.571984 
L 171.696 162.392214 
L 171.8448 162.414018 
L 172.44 163.786349 
L 172.5888 163.808115 
L 173.3328 165.602931 
L 173.4816 165.778452 
L 173.928 166.754021 
L 174.0768 166.754021 
L 174.2256 166.999438 
L 174.3744 167.575493 
L 174.5232 167.575493 
L 174.672 167.997093 
L 174.8208 167.997093 
L 174.9696 168.152138 
L 175.7136 169.994801 
L 175.8624 170.194091 
L 176.16 170.794162 
L 176.4576 171.259197 
L 176.6064 171.259197 
L 176.904 172.303434 
L 177.0528 172.493199 
L 177.3504 173.127019 
L 177.7968 173.814782 
L 178.2432 174.90394 
L 178.5408 175.329535 
L 178.9872 176.441357 
L 179.136 176.441357 
L 179.5824 177.397999 
L 179.88 178.088159 
L 180.0288 178.29212 
L 180.4752 179.44831 
L 180.7728 179.900219 
L 181.0704 180.57096 
L 181.2192 180.797707 
L 181.5168 181.490227 
L 184.4928 187.623683 
L 184.7904 188.341238 
L 184.9392 188.572754 
L 185.2368 189.290937 
L 185.832 190.495293 
L 186.4272 192.188763 
L 186.576 192.422896 
L 186.8736 193.164025 
L 187.0224 193.398822 
L 187.32 194.140528 
L 187.4688 194.375977 
L 187.6176 194.375977 
L 187.9152 195.354398 
L 188.064 195.611146 
L 188.2128 196.097284 
L 188.5104 196.097284 
L 188.9568 197.274774 
L 189.1056 197.593208 
L 189.2544 197.593208 
L 189.4032 197.851518 
L 189.7008 199.341051 
L 189.8496 199.341051 
L 190.8912 202.074688 
L 191.1888 202.598214 
L 191.3376 202.598214 
L 191.4864 203.103733 
L 191.6352 203.103733 
L 191.9328 203.891418 
L 192.0816 203.891418 
L 193.5696 207.749266 
L 194.4624 209.360057 
L 194.76 210.611487 
L 195.2064 211.457589 
L 195.504 212.250632 
L 196.0992 213.604478 
L 196.3968 214.382552 
L 197.736 217.142749 
L 198.0336 218.245132 
L 198.1824 218.245132 
L 198.3312 218.540177 
L 198.6288 219.652036 
L 198.7776 219.652036 
L 199.3728 221.081899 
L 199.968 222.831757 
L 200.2656 223.448837 
L 200.4144 223.448837 
L 200.8608 224.798886 
L 201.0096 225.117983 
L 201.1584 225.117983 
L 201.3072 225.437401 
L 201.6048 226.397718 
L 202.0512 226.397718 
L 202.3488 228.53641 
L 203.2416 230.926627 
L 203.3904 230.926627 
L 203.688 232.11103 
L 203.8368 232.11103 
L 203.9856 232.437447 
L 204.1344 233.336483 
L 204.2832 233.336483 
L 204.432 234.001583 
L 204.5808 234.001583 
L 204.8784 235.014276 
L 205.7712 236.954139 
L 206.0688 238.16445 
L 206.2176 238.51374 
L 206.3664 238.51374 
L 206.664 239.454527 
L 207.8544 242.536514 
L 209.64 246.989295 
L 209.9376 248.366088 
L 210.0864 248.742717 
L 210.2352 248.742717 
L 210.5328 249.483379 
L 210.8304 250.876493 
L 210.9792 250.876493 
L 211.5744 252.371145 
L 212.0208 254.167608 
L 212.1696 254.551274 
L 212.3184 254.551274 
L 212.4672 255.307489 
L 212.616 255.307489 
L 212.7648 255.680192 
L 213.0624 257.117614 
L 213.2112 257.117614 
L 214.5504 260.769326 
L 214.6992 261.542692 
L 214.848 261.542692 
L 215.1456 262.709041 
L 215.2944 262.709041 
L 215.592 264.181422 
L 215.7408 264.563546 
L 215.8896 264.563546 
L 216.1872 265.694068 
L 216.6336 266.508792 
L 216.7824 266.508792 
L 216.9312 267.985623 
L 217.6752 269.552192 
L 217.824 270.637571 
L 218.1216 271.203726 
L 218.568 272.467096 
L 218.7168 272.467096 
L 219.1632 274.33595 
L 219.7584 275.910177 
L 219.9072 276.692442 
L 220.2048 276.692442 
L 220.5024 278.181188 
L 220.6512 278.181188 
L 220.8 278.964787 
L 220.9488 278.964787 
L 221.2464 280.146511 
L 221.3952 280.533298 
L 221.6928 281.63927 
L 222.288 283.210894 
L 222.4368 283.210894 
L 222.7344 284.582267 
L 222.8832 284.582267 
L 223.9248 287.345665 
L 224.2224 288.846779 
L 224.3712 288.846779 
L 226.6032 295.111746 
L 226.9008 296.219291 
L 229.2816 302.797356 
L 229.5792 303.911467 
L 231.96 310.652314 
L 232.2576 311.773134 
L 232.5552 312.450926 
L 234.6384 318.415636 
L 234.936 319.554076 
L 236.1264 322.786437 
L 236.424 324.076913 
L 236.5728 324.076913 
L 237.0192 325.045779 
L 237.168 325.045779 
L 237.912 326.972359 
L 238.0608 326.972359 
L 238.5072 328.67526 
L 238.8048 329.231902 
L 238.9536 329.231902 
L 239.2512 330.223531 
L 239.6976 331.391904 
L 239.8464 331.391904 
L 239.9952 332.55202 
L 240.144 332.55202 
L 240.888 334.539517 
L 241.0368 334.539517 
L 241.3344 335.714457 
L 241.632 336.450383 
L 242.6736 339.562251 
L 242.8224 339.562251 
L 243.2688 340.735383 
L 244.3104 342.993324 
L 244.608 343.848936 
L 245.2032 345.310993 
L 245.352 345.891126 
L 245.5008 345.78711 
L 245.6496 346.094297 
L 246.2448 348.13953 
L 246.3936 348.13953 
L 246.5424 348.438316 
L 246.6912 349.019426 
L 246.84 348.927722 
L 246.9888 349.195641 
L 247.2864 350.106097 
L 247.4352 350.368486 
L 247.584 350.994724 
L 247.7328 351.13929 
L 247.8816 351.757208 
L 248.0304 351.757208 
L 248.1792 352.328977 
L 248.328 352.328977 
L 248.6256 353.208062 
L 248.7744 353.083817 
L 249.072 354.015172 
L 249.2208 354.258734 
L 249.3696 354.920467 
L 249.5184 354.920467 
L 249.6672 354.772428 
L 249.9648 356.237777 
L 250.1136 355.959511 
L 250.4112 356.08398 
L 250.56 355.811961 
L 250.7088 356.096467 
L 251.0064 355.575504 
L 251.1552 356.108948 
L 251.304 356.108948 
L 251.4528 355.836929 
L 251.6016 356.085867 
L 251.8992 355.564904 
L 252.048 355.980125 
L 252.3456 355.826328 
L 252.4944 355.968582 
L 252.6432 355.7081 
L 252.792 355.838815 
L 252.9408 356.123322 
L 253.2384 355.851296 
L 253.3872 356.10024 
L 253.536 355.982012 
L 253.6848 356.112721 
L 254.1312 355.71623 
L 254.4288 356.006974 
L 254.5776 355.853183 
L 254.7264 356.137689 
L 255.024 355.865664 
L 255.1728 355.99638 
L 255.4704 355.878151 
L 255.6192 356.144873 
L 255.9168 355.85507 
L 256.0656 356.139576 
L 256.3632 355.867557 
L 256.512 356.152057 
L 256.6608 355.880038 
L 256.8096 356.128982 
L 256.9584 355.868497 
L 257.1072 355.868497 
L 257.256 355.608012 
L 257.4048 356.141463 
L 257.7024 355.86944 
L 257.8512 356.153947 
L 258 355.881924 
L 258.1488 356.166431 
L 258.2976 356.166431 
L 258.5952 355.894408 
L 258.744 356.143349 
L 259.0416 355.906889 
L 259.1904 356.155833 
L 259.488 355.883811 
L 259.6368 356.168317 
L 259.7856 355.896295 
L 260.0832 355.896295 
L 260.232 356.044789 
L 260.5296 355.772768 
L 260.6784 356.039491 
L 260.8272 355.92126 
L 261.1248 356.051972 
L 261.4224 355.76217 
L 261.5712 356.028894 
L 261.72 356.028894 
L 261.8688 355.910666 
L 262.0176 356.041378 
L 262.3152 355.787136 
L 262.464 356.053859 
L 262.7616 355.663608 
L 262.9104 355.663608 
L 263.208 356.043265 
L 263.3568 355.64053 
L 263.6544 356.055749 
L 263.952 355.783726 
L 264.1008 356.06823 
L 264.3984 355.796207 
L 264.5472 356.080714 
L 264.8448 355.808692 
L 264.9936 356.057635 
L 265.2912 355.821176 
L 265.44 356.070116 
L 265.8864 355.798094 
L 266.0352 355.928809 
L 266.3328 355.810578 
L 266.4816 355.94129 
L 266.6304 355.823062 
L 266.7792 356.072003 
L 267.0768 355.799984 
L 267.2256 356.084487 
L 267.5232 355.812465 
L 267.672 356.096971 
L 267.9696 355.824949 
L 268.1184 356.073893 
L 268.416 355.837433 
L 268.5648 355.968145 
L 268.7136 355.814351 
L 268.8624 356.098858 
L 269.16 355.826835 
L 269.3088 356.111342 
L 269.6064 355.839319 
L 269.7552 356.08826 
L 270.0528 355.851803 
L 270.2016 356.100744 
L 270.4992 355.828722 
L 270.648 356.113228 
L 270.9456 355.841206 
L 271.0944 356.125712 
L 271.392 355.85369 
L 271.5408 356.102631 
L 271.8384 355.83061 
L 271.9872 356.115115 
L 272.2848 355.843093 
L 272.4336 356.127599 
L 272.7312 355.855577 
L 272.88 356.140081 
L 273.1776 355.868059 
L 273.3264 356.117001 
L 273.624 355.844979 
L 273.7728 356.129485 
L 274.0704 355.857463 
L 274.2192 356.141968 
L 274.5168 355.869946 
L 274.6656 356.118888 
L 274.9632 355.88243 
L 275.112 356.131372 
L 275.4096 355.97758 
L 275.7072 356.108292 
L 275.856 356.108292 
L 276.0048 355.83627 
L 276.1536 355.83627 
L 276.3024 355.682477 
L 276.4512 356.180362 
L 276.7488 355.872777 
L 276.8976 356.121719 
L 277.1952 355.967926 
L 277.344 356.063075 
L 277.4928 355.87372 
L 277.6416 356.122663 
L 277.7904 355.96887 
L 277.9392 356.182249 
L 278.088 356.028456 
L 278.2368 356.277398 
L 278.5344 355.93425 
L 278.6832 356.147629 
L 278.832 355.958273 
L 278.9808 356.207215 
L 279.1296 356.01786 
L 279.2784 356.231238 
L 279.4272 356.041882 
L 279.576 356.290826 
L 279.7248 356.290826 
L 279.8736 356.101469 
L 280.0224 356.125493 
L 280.1712 356.338872 
L 280.32 356.149516 
L 280.4688 356.362894 
L 280.7664 355.94862 
L 280.9152 356.162 
L 281.064 355.972644 
L 281.2128 356.186022 
L 281.3616 355.961103 
L 281.6592 356.387862 
L 281.808 356.162943 
L 281.9568 356.376321 
L 282.1056 356.151402 
L 282.2544 356.364781 
L 282.4032 356.139862 
L 282.552 356.353241 
L 282.7008 356.128322 
L 282.8496 356.306138 
L 282.9984 356.081219 
L 283.1472 356.294599 
L 283.296 356.06968 
L 283.4448 356.247496 
L 283.5936 356.022577 
L 283.7424 356.022577 
L 283.8912 356.378208 
L 284.04 356.153289 
L 284.1888 356.331105 
L 284.3376 356.106186 
L 284.4864 356.284001 
L 284.6352 356.059082 
L 284.9328 356.414714 
L 285.0816 356.189796 
L 285.2304 356.367612 
L 285.3792 356.107129 
L 285.528 356.284945 
L 285.6768 360.196892 
L 285.8256 359.794158 
L 285.9744 359.794158 
L 286.1232 359.391423 
L 286.4208 359.391423 
L 286.5696 358.988689 
L 286.8672 358.988689 
L 287.016 358.585954 
L 287.3136 358.585954 
L 287.4624 358.183219 
L 287.6112 358.183219 
L 287.76 357.780485 
L 287.9088 357.780485 
L 288.0576 357.37775 
L 288.3552 357.37775 
L 288.504 356.975016 
L 518.4 356.975016 
L 518.4 356.975016 
" style="fill:none;stroke:#0000ff;stroke-linecap:square;"/>
   </g>
   <g id="line2d_4">
    <path clip-path="url(#p234dd4ef97)" d="M 72.1488 44.810938 
L 91.6416 44.810938 
L 91.7904 188.005469 
L 94.7664 188.005469 
L 94.9152 159.366563 
L 97.5936 159.366563 
L 97.7424 130.727657 
L 100.5696 130.727657 
L 100.7184 102.088751 
L 103.6944 102.088751 
L 103.8432 73.449845 
L 106.5216 73.449845 
L 106.6704 44.810938 
L 518.4 44.810938 
L 518.4 44.810938 
" style="fill:none;stroke:#000000;stroke-linecap:square;"/>
   </g>
   <g id="line2d_5">
    <path clip-path="url(#p234dd4ef97)" d="M 72.1488 73.449845 
L 87.0288 73.449845 
L 235.8288 331.2 
L 518.4 331.2 
L 518.4 331.2 
" style="fill:none;stroke:#bf00bf;stroke-linecap:square;"/>
   </g>
   <g id="patch_3">
    <path d="M 72 43.2 
L 518.4 43.2 
" style="fill:none;stroke:#000000;stroke-linecap:square;stroke-linejoin:miter;"/>
   </g>
   <g id="patch_4">
    <path d="M 518.4 388.8 
L 518.4 43.2 
" style="fill:none;stroke:#000000;stroke-linecap:square;stroke-linejoin:miter;"/>
   </g>
   <g id="patch_5">
    <path d="M 72 388.8 
L 518.4 388.8 
" style="fill:none;stroke:#000000;stroke-linecap:square;stroke-linejoin:miter;"/>
   </g>
   <g id="patch_6">
    <path d="M 72 388.8 
L 72 43.2 
" style="fill:none;stroke:#000000;stroke-linecap:square;stroke-linejoin:miter;"/>
   </g>
   <g id="matplotlib.axis_1">
    <g id="xtick_1">
     <g id="line2d_6">
      <path clip-path="url(#p234dd4ef97)" d="M 72 388.8 
L 72 43.2 
" style="fill:none;stroke:#000000;stroke-dasharray:1.000000,3.000000;stroke-dashoffset:0.0;stroke-width:0.5;"/>
     </g>
     <g id="line2d_7">
      <defs>
       <path d="M 0 0 
L 0 -4 
" id="ma3aa037835" style="stroke:#000000;stroke-width:0.5;"/>
      </defs>
      <g>
       <use style="stroke:#000000;stroke-width:0.5;" x="72.0" xlink:href="#ma3aa037835" y="388.8"/>
      </g>
     </g>
     <g id="line2d_8">
      <defs>
       <path d="M 0 0 
L 0 4 
" id="mba420b4234" style="stroke:#000000;stroke-width:0.5;"/>
      </defs>
      <g>
       <use style="stroke:#000000;stroke-width:0.5;" x="72.0" xlink:href="#mba420b4234" y="43.2"/>
      </g>
     </g>
     <g id="text_1">
      <!-- 0 -->
      <defs>
       <path d="M 31.78125 66.40625 
Q 24.171875 66.40625 20.328125 58.90625 
Q 16.5 51.421875 16.5 36.375 
Q 16.5 21.390625 20.328125 13.890625 
Q 24.171875 6.390625 31.78125 6.390625 
Q 39.453125 6.390625 43.28125 13.890625 
Q 47.125 21.390625 47.125 36.375 
Q 47.125 51.421875 43.28125 58.90625 
Q 39.453125 66.40625 31.78125 66.40625 
M 31.78125 74.21875 
Q 44.046875 74.21875 50.515625 64.515625 
Q 56.984375 54.828125 56.984375 36.375 
Q 56.984375 17.96875 50.515625 8.265625 
Q 44.046875 -1.421875 31.78125 -1.421875 
Q 19.53125 -1.421875 13.0625 8.265625 
Q 6.59375 17.96875 6.59375 36.375 
Q 6.59375 54.828125 13.0625 64.515625 
Q 19.53125 74.21875 31.78125 74.21875 
" id="BitstreamVeraSans-Roman-30"/>
      </defs>
      <g transform="translate(68.1825 401.918125)scale(0.12 -0.12)">
       <use xlink:href="#BitstreamVeraSans-Roman-30"/>
      </g>
     </g>
    </g>
    <g id="xtick_2">
     <g id="line2d_9">
      <path clip-path="url(#p234dd4ef97)" d="M 146.4 388.8 
L 146.4 43.2 
" style="fill:none;stroke:#000000;stroke-dasharray:1.000000,3.000000;stroke-dashoffset:0.0;stroke-width:0.5;"/>
     </g>
     <g id="line2d_10">
      <g>
       <use style="stroke:#000000;stroke-width:0.5;" x="146.4" xlink:href="#ma3aa037835" y="388.8"/>
      </g>
     </g>
     <g id="line2d_11">
      <g>
       <use style="stroke:#000000;stroke-width:0.5;" x="146.4" xlink:href="#mba420b4234" y="43.2"/>
      </g>
     </g>
     <g id="text_2">
      <!-- 5 -->
      <defs>
       <path d="M 10.796875 72.90625 
L 49.515625 72.90625 
L 49.515625 64.59375 
L 19.828125 64.59375 
L 19.828125 46.734375 
Q 21.96875 47.46875 24.109375 47.828125 
Q 26.265625 48.1875 28.421875 48.1875 
Q 40.625 48.1875 47.75 41.5 
Q 54.890625 34.8125 54.890625 23.390625 
Q 54.890625 11.625 47.5625 5.09375 
Q 40.234375 -1.421875 26.90625 -1.421875 
Q 22.3125 -1.421875 17.546875 -0.640625 
Q 12.796875 0.140625 7.71875 1.703125 
L 7.71875 11.625 
Q 12.109375 9.234375 16.796875 8.0625 
Q 21.484375 6.890625 26.703125 6.890625 
Q 35.15625 6.890625 40.078125 11.328125 
Q 45.015625 15.765625 45.015625 23.390625 
Q 45.015625 31 40.078125 35.4375 
Q 35.15625 39.890625 26.703125 39.890625 
Q 22.75 39.890625 18.8125 39.015625 
Q 14.890625 38.140625 10.796875 36.28125 
z
" id="BitstreamVeraSans-Roman-35"/>
      </defs>
      <g transform="translate(142.5825 401.918125)scale(0.12 -0.12)">
       <use xlink:href="#BitstreamVeraSans-Roman-35"/>
      </g>
     </g>
    </g>
    <g id="xtick_3">
     <g id="line2d_12">
      <path clip-path="url(#p234dd4ef97)" d="M 220.8 388.8 
L 220.8 43.2 
" style="fill:none;stroke:#000000;stroke-dasharray:1.000000,3.000000;stroke-dashoffset:0.0;stroke-width:0.5;"/>
     </g>
     <g id="line2d_13">
      <g>
       <use style="stroke:#000000;stroke-width:0.5;" x="220.8" xlink:href="#ma3aa037835" y="388.8"/>
      </g>
     </g>
     <g id="line2d_14">
      <g>
       <use style="stroke:#000000;stroke-width:0.5;" x="220.8" xlink:href="#mba420b4234" y="43.2"/>
      </g>
     </g>
     <g id="text_3">
      <!-- 10 -->
      <defs>
       <path d="M 12.40625 8.296875 
L 28.515625 8.296875 
L 28.515625 63.921875 
L 10.984375 60.40625 
L 10.984375 69.390625 
L 28.421875 72.90625 
L 38.28125 72.90625 
L 38.28125 8.296875 
L 54.390625 8.296875 
L 54.390625 0 
L 12.40625 0 
z
" id="BitstreamVeraSans-Roman-31"/>
      </defs>
      <g transform="translate(213.165 401.918125)scale(0.12 -0.12)">
       <use xlink:href="#BitstreamVeraSans-Roman-31"/>
       <use x="63.623046875" xlink:href="#BitstreamVeraSans-Roman-30"/>
      </g>
     </g>
    </g>
    <g id="xtick_4">
     <g id="line2d_15">
      <path clip-path="url(#p234dd4ef97)" d="M 295.2 388.8 
L 295.2 43.2 
" style="fill:none;stroke:#000000;stroke-dasharray:1.000000,3.000000;stroke-dashoffset:0.0;stroke-width:0.5;"/>
     </g>
     <g id="line2d_16">
      <g>
       <use style="stroke:#000000;stroke-width:0.5;" x="295.2" xlink:href="#ma3aa037835" y="388.8"/>
      </g>
     </g>
     <g id="line2d_17">
      <g>
       <use style="stroke:#000000;stroke-width:0.5;" x="295.2" xlink:href="#mba420b4234" y="43.2"/>
      </g>
     </g>
     <g id="text_4">
      <!-- 15 -->
      <g transform="translate(287.565 401.918125)scale(0.12 -0.12)">
       <use xlink:href="#BitstreamVeraSans-Roman-31"/>
       <use x="63.623046875" xlink:href="#BitstreamVeraSans-Roman-35"/>
      </g>
     </g>
    </g>
    <g id="xtick_5">
     <g id="line2d_18">
      <path clip-path="url(#p234dd4ef97)" d="M 369.6 388.8 
L 369.6 43.2 
" style="fill:none;stroke:#000000;stroke-dasharray:1.000000,3.000000;stroke-dashoffset:0.0;stroke-width:0.5;"/>
     </g>
     <g id="line2d_19">
      <g>
       <use style="stroke:#000000;stroke-width:0.5;" x="369.6" xlink:href="#ma3aa037835" y="388.8"/>
      </g>
     </g>
     <g id="line2d_20">
      <g>
       <use style="stroke:#000000;stroke-width:0.5;" x="369.6" xlink:href="#mba420b4234" y="43.2"/>
      </g>
     </g>
     <g id="text_5">
      <!-- 20 -->
      <defs>
       <path d="M 19.1875 8.296875 
L 53.609375 8.296875 
L 53.609375 0 
L 7.328125 0 
L 7.328125 8.296875 
Q 12.9375 14.109375 22.625 23.890625 
Q 32.328125 33.6875 34.8125 36.53125 
Q 39.546875 41.84375 41.421875 45.53125 
Q 43.3125 49.21875 43.3125 52.78125 
Q 43.3125 58.59375 39.234375 62.25 
Q 35.15625 65.921875 28.609375 65.921875 
Q 23.96875 65.921875 18.8125 64.3125 
Q 13.671875 62.703125 7.8125 59.421875 
L 7.8125 69.390625 
Q 13.765625 71.78125 18.9375 73 
Q 24.125 74.21875 28.421875 74.21875 
Q 39.75 74.21875 46.484375 68.546875 
Q 53.21875 62.890625 53.21875 53.421875 
Q 53.21875 48.921875 51.53125 44.890625 
Q 49.859375 40.875 45.40625 35.40625 
Q 44.1875 33.984375 37.640625 27.21875 
Q 31.109375 20.453125 19.1875 8.296875 
" id="BitstreamVeraSans-Roman-32"/>
      </defs>
      <g transform="translate(361.965 401.918125)scale(0.12 -0.12)">
       <use xlink:href="#BitstreamVeraSans-Roman-32"/>
       <use x="63.623046875" xlink:href="#BitstreamVeraSans-Roman-30"/>
      </g>
     </g>
    </g>
    <g id="xtick_6">
     <g id="line2d_21">
      <path clip-path="url(#p234dd4ef97)" d="M 444 388.8 
L 444 43.2 
" style="fill:none;stroke:#000000;stroke-dasharray:1.000000,3.000000;stroke-dashoffset:0.0;stroke-width:0.5;"/>
     </g>
     <g id="line2d_22">
      <g>
       <use style="stroke:#000000;stroke-width:0.5;" x="444.0" xlink:href="#ma3aa037835" y="388.8"/>
      </g>
     </g>
     <g id="line2d_23">
      <g>
       <use style="stroke:#000000;stroke-width:0.5;" x="444.0" xlink:href="#mba420b4234" y="43.2"/>
      </g>
     </g>
     <g id="text_6">
      <!-- 25 -->
      <g transform="translate(436.365 401.918125)scale(0.12 -0.12)">
       <use xlink:href="#BitstreamVeraSans-Roman-32"/>
       <use x="63.623046875" xlink:href="#BitstreamVeraSans-Roman-35"/>
      </g>
     </g>
    </g>
    <g id="xtick_7">
     <g id="line2d_24">
      <path clip-path="url(#p234dd4ef97)" d="M 518.4 388.8 
L 518.4 43.2 
" style="fill:none;stroke:#000000;stroke-dasharray:1.000000,3.000000;stroke-dashoffset:0.0;stroke-width:0.5;"/>
     </g>
     <g id="line2d_25">
      <g>
       <use style="stroke:#000000;stroke-width:0.5;" x="518.4" xlink:href="#ma3aa037835" y="388.8"/>
      </g>
     </g>
     <g id="line2d_26">
      <g>
       <use style="stroke:#000000;stroke-width:0.5;" x="518.4" xlink:href="#mba420b4234" y="43.2"/>
      </g>
     </g>
     <g id="text_7">
      <!-- 30 -->
      <defs>
       <path d="M 40.578125 39.3125 
Q 47.65625 37.796875 51.625 33 
Q 55.609375 28.21875 55.609375 21.1875 
Q 55.609375 10.40625 48.1875 4.484375 
Q 40.765625 -1.421875 27.09375 -1.421875 
Q 22.515625 -1.421875 17.65625 -0.515625 
Q 12.796875 0.390625 7.625 2.203125 
L 7.625 11.71875 
Q 11.71875 9.328125 16.59375 8.109375 
Q 21.484375 6.890625 26.8125 6.890625 
Q 36.078125 6.890625 40.9375 10.546875 
Q 45.796875 14.203125 45.796875 21.1875 
Q 45.796875 27.640625 41.28125 31.265625 
Q 36.765625 34.90625 28.71875 34.90625 
L 20.21875 34.90625 
L 20.21875 43.015625 
L 29.109375 43.015625 
Q 36.375 43.015625 40.234375 45.921875 
Q 44.09375 48.828125 44.09375 54.296875 
Q 44.09375 59.90625 40.109375 62.90625 
Q 36.140625 65.921875 28.71875 65.921875 
Q 24.65625 65.921875 20.015625 65.03125 
Q 15.375 64.15625 9.8125 62.3125 
L 9.8125 71.09375 
Q 15.4375 72.65625 20.34375 73.4375 
Q 25.25 74.21875 29.59375 74.21875 
Q 40.828125 74.21875 47.359375 69.109375 
Q 53.90625 64.015625 53.90625 55.328125 
Q 53.90625 49.265625 50.4375 45.09375 
Q 46.96875 40.921875 40.578125 39.3125 
" id="BitstreamVeraSans-Roman-33"/>
      </defs>
      <g transform="translate(510.765 401.918125)scale(0.12 -0.12)">
       <use xlink:href="#BitstreamVeraSans-Roman-33"/>
       <use x="63.623046875" xlink:href="#BitstreamVeraSans-Roman-30"/>
      </g>
     </g>
    </g>
    <g id="text_8">
     <!-- Time [s] -->
     <defs>
      <path id="BitstreamVeraSans-Roman-20"/>
      <path d="M 8.59375 75.984375 
L 29.296875 75.984375 
L 29.296875 69 
L 17.578125 69 
L 17.578125 -6.203125 
L 29.296875 -6.203125 
L 29.296875 -13.1875 
L 8.59375 -13.1875 
z
" id="BitstreamVeraSans-Roman-5b"/>
      <path d="M 30.421875 75.984375 
L 30.421875 -13.1875 
L 9.71875 -13.1875 
L 9.71875 -6.203125 
L 21.390625 -6.203125 
L 21.390625 69 
L 9.71875 69 
L 9.71875 75.984375 
z
" id="BitstreamVeraSans-Roman-5d"/>
      <path d="M 52 44.1875 
Q 55.375 50.25 60.0625 53.125 
Q 64.75 56 71.09375 56 
Q 79.640625 56 84.28125 50.015625 
Q 88.921875 44.046875 88.921875 33.015625 
L 88.921875 0 
L 79.890625 0 
L 79.890625 32.71875 
Q 79.890625 40.578125 77.09375 44.375 
Q 74.3125 48.1875 68.609375 48.1875 
Q 61.625 48.1875 57.5625 43.546875 
Q 53.515625 38.921875 53.515625 30.90625 
L 53.515625 0 
L 44.484375 0 
L 44.484375 32.71875 
Q 44.484375 40.625 41.703125 44.40625 
Q 38.921875 48.1875 33.109375 48.1875 
Q 26.21875 48.1875 22.15625 43.53125 
Q 18.109375 38.875 18.109375 30.90625 
L 18.109375 0 
L 9.078125 0 
L 9.078125 54.6875 
L 18.109375 54.6875 
L 18.109375 46.1875 
Q 21.1875 51.21875 25.484375 53.609375 
Q 29.78125 56 35.6875 56 
Q 41.65625 56 45.828125 52.96875 
Q 50 49.953125 52 44.1875 
" id="BitstreamVeraSans-Roman-6d"/>
      <path d="M 9.421875 54.6875 
L 18.40625 54.6875 
L 18.40625 0 
L 9.421875 0 
z
M 9.421875 75.984375 
L 18.40625 75.984375 
L 18.40625 64.59375 
L 9.421875 64.59375 
z
" id="BitstreamVeraSans-Roman-69"/>
      <path d="M 56.203125 29.59375 
L 56.203125 25.203125 
L 14.890625 25.203125 
Q 15.484375 15.921875 20.484375 11.0625 
Q 25.484375 6.203125 34.421875 6.203125 
Q 39.59375 6.203125 44.453125 7.46875 
Q 49.3125 8.734375 54.109375 11.28125 
L 54.109375 2.78125 
Q 49.265625 0.734375 44.1875 -0.34375 
Q 39.109375 -1.421875 33.890625 -1.421875 
Q 20.796875 -1.421875 13.15625 6.1875 
Q 5.515625 13.8125 5.515625 26.8125 
Q 5.515625 40.234375 12.765625 48.109375 
Q 20.015625 56 32.328125 56 
Q 43.359375 56 49.78125 48.890625 
Q 56.203125 41.796875 56.203125 29.59375 
M 47.21875 32.234375 
Q 47.125 39.59375 43.09375 43.984375 
Q 39.0625 48.390625 32.421875 48.390625 
Q 24.90625 48.390625 20.390625 44.140625 
Q 15.875 39.890625 15.1875 32.171875 
z
" id="BitstreamVeraSans-Roman-65"/>
      <path d="M -0.296875 72.90625 
L 61.375 72.90625 
L 61.375 64.59375 
L 35.5 64.59375 
L 35.5 0 
L 25.59375 0 
L 25.59375 64.59375 
L -0.296875 64.59375 
z
" id="BitstreamVeraSans-Roman-54"/>
      <path d="M 44.28125 53.078125 
L 44.28125 44.578125 
Q 40.484375 46.53125 36.375 47.5 
Q 32.28125 48.484375 27.875 48.484375 
Q 21.1875 48.484375 17.84375 46.4375 
Q 14.5 44.390625 14.5 40.28125 
Q 14.5 37.15625 16.890625 35.375 
Q 19.28125 33.59375 26.515625 31.984375 
L 29.59375 31.296875 
Q 39.15625 29.25 43.1875 25.515625 
Q 47.21875 21.78125 47.21875 15.09375 
Q 47.21875 7.46875 41.1875 3.015625 
Q 35.15625 -1.421875 24.609375 -1.421875 
Q 20.21875 -1.421875 15.453125 -0.5625 
Q 10.6875 0.296875 5.421875 2 
L 5.421875 11.28125 
Q 10.40625 8.6875 15.234375 7.390625 
Q 20.0625 6.109375 24.8125 6.109375 
Q 31.15625 6.109375 34.5625 8.28125 
Q 37.984375 10.453125 37.984375 14.40625 
Q 37.984375 18.0625 35.515625 20.015625 
Q 33.0625 21.96875 24.703125 23.78125 
L 21.578125 24.515625 
Q 13.234375 26.265625 9.515625 29.90625 
Q 5.8125 33.546875 5.8125 39.890625 
Q 5.8125 47.609375 11.28125 51.796875 
Q 16.75 56 26.8125 56 
Q 31.78125 56 36.171875 55.265625 
Q 40.578125 54.546875 44.28125 53.078125 
" id="BitstreamVeraSans-Roman-73"/>
     </defs>
     <g transform="translate(270.620625 418.531875)scale(0.12 -0.12)">
      <use xlink:href="#BitstreamVeraSans-Roman-54"/>
      <use x="61.037109375" xlink:href="#BitstreamVeraSans-Roman-69"/>
      <use x="88.8203125" xlink:href="#BitstreamVeraSans-Roman-6d"/>
      <use x="186.232421875" xlink:href="#BitstreamVeraSans-Roman-65"/>
      <use x="247.755859375" xlink:href="#BitstreamVeraSans-Roman-20"/>
      <use x="279.54296875" xlink:href="#BitstreamVeraSans-Roman-5b"/>
      <use x="318.556640625" xlink:href="#BitstreamVeraSans-Roman-73"/>
      <use x="370.65625" xlink:href="#BitstreamVeraSans-Roman-5d"/>
     </g>
    </g>
   </g>
   <g id="matplotlib.axis_2">
    <g id="ytick_1">
     <g id="line2d_27">
      <path clip-path="url(#p234dd4ef97)" d="M 72 388.8 
L 518.4 388.8 
" style="fill:none;stroke:#000000;stroke-dasharray:1.000000,3.000000;stroke-dashoffset:0.0;stroke-width:0.5;"/>
     </g>
     <g id="line2d_28">
      <defs>
       <path d="M 0 0 
L 4 0 
" id="m5725f93239" style="stroke:#000000;stroke-width:0.5;"/>
      </defs>
      <g>
       <use style="stroke:#000000;stroke-width:0.5;" x="72.0" xlink:href="#m5725f93239" y="388.8"/>
      </g>
     </g>
     <g id="line2d_29">
      <defs>
       <path d="M 0 0 
L -4 0 
" id="m1cd048080c" style="stroke:#000000;stroke-width:0.5;"/>
      </defs>
      <g>
       <use style="stroke:#000000;stroke-width:0.5;" x="518.4" xlink:href="#m1cd048080c" y="388.8"/>
      </g>
     </g>
     <g id="text_9">
      <!-- −10 -->
      <defs>
       <path d="M 10.59375 35.5 
L 73.1875 35.5 
L 73.1875 27.203125 
L 10.59375 27.203125 
z
" id="BitstreamVeraSans-Roman-2212"/>
      </defs>
      <g transform="translate(42.674375 392.11125)scale(0.12 -0.12)">
       <use xlink:href="#BitstreamVeraSans-Roman-2212"/>
       <use x="83.7890625" xlink:href="#BitstreamVeraSans-Roman-31"/>
       <use x="147.412109375" xlink:href="#BitstreamVeraSans-Roman-30"/>
      </g>
     </g>
    </g>
    <g id="ytick_2">
     <g id="line2d_30">
      <path clip-path="url(#p234dd4ef97)" d="M 72 331.2 
L 518.4 331.2 
" style="fill:none;stroke:#000000;stroke-dasharray:1.000000,3.000000;stroke-dashoffset:0.0;stroke-width:0.5;"/>
     </g>
     <g id="line2d_31">
      <g>
       <use style="stroke:#000000;stroke-width:0.5;" x="72.0" xlink:href="#m5725f93239" y="331.2"/>
      </g>
     </g>
     <g id="line2d_32">
      <g>
       <use style="stroke:#000000;stroke-width:0.5;" x="518.4" xlink:href="#m1cd048080c" y="331.2"/>
      </g>
     </g>
     <g id="text_10">
      <!-- 0 -->
      <g transform="translate(60.365 334.51125)scale(0.12 -0.12)">
       <use xlink:href="#BitstreamVeraSans-Roman-30"/>
      </g>
     </g>
    </g>
    <g id="ytick_3">
     <g id="line2d_33">
      <path clip-path="url(#p234dd4ef97)" d="M 72 273.6 
L 518.4 273.6 
" style="fill:none;stroke:#000000;stroke-dasharray:1.000000,3.000000;stroke-dashoffset:0.0;stroke-width:0.5;"/>
     </g>
     <g id="line2d_34">
      <g>
       <use style="stroke:#000000;stroke-width:0.5;" x="72.0" xlink:href="#m5725f93239" y="273.6"/>
      </g>
     </g>
     <g id="line2d_35">
      <g>
       <use style="stroke:#000000;stroke-width:0.5;" x="518.4" xlink:href="#m1cd048080c" y="273.6"/>
      </g>
     </g>
     <g id="text_11">
      <!-- 10 -->
      <g transform="translate(52.73 276.91125)scale(0.12 -0.12)">
       <use xlink:href="#BitstreamVeraSans-Roman-31"/>
       <use x="63.623046875" xlink:href="#BitstreamVeraSans-Roman-30"/>
      </g>
     </g>
    </g>
    <g id="ytick_4">
     <g id="line2d_36">
      <path clip-path="url(#p234dd4ef97)" d="M 72 216 
L 518.4 216 
" style="fill:none;stroke:#000000;stroke-dasharray:1.000000,3.000000;stroke-dashoffset:0.0;stroke-width:0.5;"/>
     </g>
     <g id="line2d_37">
      <g>
       <use style="stroke:#000000;stroke-width:0.5;" x="72.0" xlink:href="#m5725f93239" y="216.0"/>
      </g>
     </g>
     <g id="line2d_38">
      <g>
       <use style="stroke:#000000;stroke-width:0.5;" x="518.4" xlink:href="#m1cd048080c" y="216.0"/>
      </g>
     </g>
     <g id="text_12">
      <!-- 20 -->
      <g transform="translate(52.73 219.31125)scale(0.12 -0.12)">
       <use xlink:href="#BitstreamVeraSans-Roman-32"/>
       <use x="63.623046875" xlink:href="#BitstreamVeraSans-Roman-30"/>
      </g>
     </g>
    </g>
    <g id="ytick_5">
     <g id="line2d_39">
      <path clip-path="url(#p234dd4ef97)" d="M 72 158.4 
L 518.4 158.4 
" style="fill:none;stroke:#000000;stroke-dasharray:1.000000,3.000000;stroke-dashoffset:0.0;stroke-width:0.5;"/>
     </g>
     <g id="line2d_40">
      <g>
       <use style="stroke:#000000;stroke-width:0.5;" x="72.0" xlink:href="#m5725f93239" y="158.4"/>
      </g>
     </g>
     <g id="line2d_41">
      <g>
       <use style="stroke:#000000;stroke-width:0.5;" x="518.4" xlink:href="#m1cd048080c" y="158.4"/>
      </g>
     </g>
     <g id="text_13">
      <!-- 30 -->
      <g transform="translate(52.73 161.71125)scale(0.12 -0.12)">
       <use xlink:href="#BitstreamVeraSans-Roman-33"/>
       <use x="63.623046875" xlink:href="#BitstreamVeraSans-Roman-30"/>
      </g>
     </g>
    </g>
    <g id="ytick_6">
     <g id="line2d_42">
      <path clip-path="url(#p234dd4ef97)" d="M 72 100.8 
L 518.4 100.8 
" style="fill:none;stroke:#000000;stroke-dasharray:1.000000,3.000000;stroke-dashoffset:0.0;stroke-width:0.5;"/>
     </g>
     <g id="line2d_43">
      <g>
       <use style="stroke:#000000;stroke-width:0.5;" x="72.0" xlink:href="#m5725f93239" y="100.8"/>
      </g>
     </g>
     <g id="line2d_44">
      <g>
       <use style="stroke:#000000;stroke-width:0.5;" x="518.4" xlink:href="#m1cd048080c" y="100.8"/>
      </g>
     </g>
     <g id="text_14">
      <!-- 40 -->
      <defs>
       <path d="M 37.796875 64.3125 
L 12.890625 25.390625 
L 37.796875 25.390625 
z
M 35.203125 72.90625 
L 47.609375 72.90625 
L 47.609375 25.390625 
L 58.015625 25.390625 
L 58.015625 17.1875 
L 47.609375 17.1875 
L 47.609375 0 
L 37.796875 0 
L 37.796875 17.1875 
L 4.890625 17.1875 
L 4.890625 26.703125 
z
" id="BitstreamVeraSans-Roman-34"/>
      </defs>
      <g transform="translate(52.73 104.11125)scale(0.12 -0.12)">
       <use xlink:href="#BitstreamVeraSans-Roman-34"/>
       <use x="63.623046875" xlink:href="#BitstreamVeraSans-Roman-30"/>
      </g>
     </g>
    </g>
    <g id="ytick_7">
     <g id="line2d_45">
      <path clip-path="url(#p234dd4ef97)" d="M 72 43.2 
L 518.4 43.2 
" style="fill:none;stroke:#000000;stroke-dasharray:1.000000,3.000000;stroke-dashoffset:0.0;stroke-width:0.5;"/>
     </g>
     <g id="line2d_46">
      <g>
       <use style="stroke:#000000;stroke-width:0.5;" x="72.0" xlink:href="#m5725f93239" y="43.2"/>
      </g>
     </g>
     <g id="line2d_47">
      <g>
       <use style="stroke:#000000;stroke-width:0.5;" x="518.4" xlink:href="#m1cd048080c" y="43.2"/>
      </g>
     </g>
     <g id="text_15">
      <!-- 50 -->
      <g transform="translate(52.73 46.51125)scale(0.12 -0.12)">
       <use xlink:href="#BitstreamVeraSans-Roman-35"/>
       <use x="63.623046875" xlink:href="#BitstreamVeraSans-Roman-30"/>
      </g>
     </g>
    </g>
    <g id="text_16">
     <!-- Speed [mph] -->
     <defs>
      <path d="M 45.40625 46.390625 
L 45.40625 75.984375 
L 54.390625 75.984375 
L 54.390625 0 
L 45.40625 0 
L 45.40625 8.203125 
Q 42.578125 3.328125 38.25 0.953125 
Q 33.9375 -1.421875 27.875 -1.421875 
Q 17.96875 -1.421875 11.734375 6.484375 
Q 5.515625 14.40625 5.515625 27.296875 
Q 5.515625 40.1875 11.734375 48.09375 
Q 17.96875 56 27.875 56 
Q 33.9375 56 38.25 53.625 
Q 42.578125 51.265625 45.40625 46.390625 
M 14.796875 27.296875 
Q 14.796875 17.390625 18.875 11.75 
Q 22.953125 6.109375 30.078125 6.109375 
Q 37.203125 6.109375 41.296875 11.75 
Q 45.40625 17.390625 45.40625 27.296875 
Q 45.40625 37.203125 41.296875 42.84375 
Q 37.203125 48.484375 30.078125 48.484375 
Q 22.953125 48.484375 18.875 42.84375 
Q 14.796875 37.203125 14.796875 27.296875 
" id="BitstreamVeraSans-Roman-64"/>
      <path d="M 53.515625 70.515625 
L 53.515625 60.890625 
Q 47.90625 63.578125 42.921875 64.890625 
Q 37.9375 66.21875 33.296875 66.21875 
Q 25.25 66.21875 20.875 63.09375 
Q 16.5 59.96875 16.5 54.203125 
Q 16.5 49.359375 19.40625 46.890625 
Q 22.3125 44.4375 30.421875 42.921875 
L 36.375 41.703125 
Q 47.40625 39.59375 52.65625 34.296875 
Q 57.90625 29 57.90625 20.125 
Q 57.90625 9.515625 50.796875 4.046875 
Q 43.703125 -1.421875 29.984375 -1.421875 
Q 24.8125 -1.421875 18.96875 -0.25 
Q 13.140625 0.921875 6.890625 3.21875 
L 6.890625 13.375 
Q 12.890625 10.015625 18.65625 8.296875 
Q 24.421875 6.59375 29.984375 6.59375 
Q 38.421875 6.59375 43.015625 9.90625 
Q 47.609375 13.234375 47.609375 19.390625 
Q 47.609375 24.75 44.3125 27.78125 
Q 41.015625 30.8125 33.5 32.328125 
L 27.484375 33.5 
Q 16.453125 35.6875 11.515625 40.375 
Q 6.59375 45.0625 6.59375 53.421875 
Q 6.59375 63.09375 13.40625 68.65625 
Q 20.21875 74.21875 32.171875 74.21875 
Q 37.3125 74.21875 42.625 73.28125 
Q 47.953125 72.359375 53.515625 70.515625 
" id="BitstreamVeraSans-Roman-53"/>
      <path d="M 54.890625 33.015625 
L 54.890625 0 
L 45.90625 0 
L 45.90625 32.71875 
Q 45.90625 40.484375 42.875 44.328125 
Q 39.84375 48.1875 33.796875 48.1875 
Q 26.515625 48.1875 22.3125 43.546875 
Q 18.109375 38.921875 18.109375 30.90625 
L 18.109375 0 
L 9.078125 0 
L 9.078125 75.984375 
L 18.109375 75.984375 
L 18.109375 46.1875 
Q 21.34375 51.125 25.703125 53.5625 
Q 30.078125 56 35.796875 56 
Q 45.21875 56 50.046875 50.171875 
Q 54.890625 44.34375 54.890625 33.015625 
" id="BitstreamVeraSans-Roman-68"/>
      <path d="M 18.109375 8.203125 
L 18.109375 -20.796875 
L 9.078125 -20.796875 
L 9.078125 54.6875 
L 18.109375 54.6875 
L 18.109375 46.390625 
Q 20.953125 51.265625 25.265625 53.625 
Q 29.59375 56 35.59375 56 
Q 45.5625 56 51.78125 48.09375 
Q 58.015625 40.1875 58.015625 27.296875 
Q 58.015625 14.40625 51.78125 6.484375 
Q 45.5625 -1.421875 35.59375 -1.421875 
Q 29.59375 -1.421875 25.265625 0.953125 
Q 20.953125 3.328125 18.109375 8.203125 
M 48.6875 27.296875 
Q 48.6875 37.203125 44.609375 42.84375 
Q 40.53125 48.484375 33.40625 48.484375 
Q 26.265625 48.484375 22.1875 42.84375 
Q 18.109375 37.203125 18.109375 27.296875 
Q 18.109375 17.390625 22.1875 11.75 
Q 26.265625 6.109375 33.40625 6.109375 
Q 40.53125 6.109375 44.609375 11.75 
Q 48.6875 17.390625 48.6875 27.296875 
" id="BitstreamVeraSans-Roman-70"/>
     </defs>
     <g transform="translate(35.17875 254.855625)rotate(-90.0)scale(0.12 -0.12)">
      <use xlink:href="#BitstreamVeraSans-Roman-53"/>
      <use x="63.4765625" xlink:href="#BitstreamVeraSans-Roman-70"/>
      <use x="126.953125" xlink:href="#BitstreamVeraSans-Roman-65"/>
      <use x="188.4765625" xlink:href="#BitstreamVeraSans-Roman-65"/>
      <use x="250.0" xlink:href="#BitstreamVeraSans-Roman-64"/>
      <use x="313.4765625" xlink:href="#BitstreamVeraSans-Roman-20"/>
      <use x="345.263671875" xlink:href="#BitstreamVeraSans-Roman-5b"/>
      <use x="384.27734375" xlink:href="#BitstreamVeraSans-Roman-6d"/>
      <use x="481.689453125" xlink:href="#BitstreamVeraSans-Roman-70"/>
      <use x="545.166015625" xlink:href="#BitstreamVeraSans-Roman-68"/>
      <use x="608.544921875" xlink:href="#BitstreamVeraSans-Roman-5d"/>
     </g>
    </g>
   </g>
   <g id="legend_1">
    <g id="patch_7">
     <path d="M 317.4885 160.4025 
L 511.2 160.4025 
L 511.2 50.4 
L 317.4885 50.4 
z
" style="fill:#ffffff;stroke:#000000;stroke-linejoin:miter;"/>
    </g>
    <g id="line2d_48">
     <path d="M 327.5685 62.06175 
L 347.7285 62.06175 
" style="fill:none;stroke:#ff0000;stroke-linecap:square;"/>
    </g>
    <g id="line2d_49"/>
    <g id="text_17">
     <!-- speed -->
     <g transform="translate(363.5685 67.10175)scale(0.144 -0.144)">
      <use xlink:href="#BitstreamVeraSans-Roman-73"/>
      <use x="52.099609375" xlink:href="#BitstreamVeraSans-Roman-70"/>
      <use x="115.576171875" xlink:href="#BitstreamVeraSans-Roman-65"/>
      <use x="177.099609375" xlink:href="#BitstreamVeraSans-Roman-65"/>
      <use x="238.623046875" xlink:href="#BitstreamVeraSans-Roman-64"/>
     </g>
    </g>
    <g id="line2d_50">
     <path d="M 327.5685 83.19825 
L 347.7285 83.19825 
" style="fill:none;stroke:#bfbf00;stroke-dasharray:6.000000,6.000000;stroke-dashoffset:0.0;"/>
    </g>
    <g id="line2d_51"/>
    <g id="text_18">
     <!-- pid speed -->
     <g transform="translate(363.5685 88.23825)scale(0.144 -0.144)">
      <use xlink:href="#BitstreamVeraSans-Roman-70"/>
      <use x="63.4765625" xlink:href="#BitstreamVeraSans-Roman-69"/>
      <use x="91.259765625" xlink:href="#BitstreamVeraSans-Roman-64"/>
      <use x="154.736328125" xlink:href="#BitstreamVeraSans-Roman-20"/>
      <use x="186.5234375" xlink:href="#BitstreamVeraSans-Roman-73"/>
      <use x="238.623046875" xlink:href="#BitstreamVeraSans-Roman-70"/>
      <use x="302.099609375" xlink:href="#BitstreamVeraSans-Roman-65"/>
      <use x="363.623046875" xlink:href="#BitstreamVeraSans-Roman-65"/>
      <use x="425.146484375" xlink:href="#BitstreamVeraSans-Roman-64"/>
     </g>
    </g>
    <g id="line2d_52">
     <path d="M 327.5685 104.33475 
L 347.7285 104.33475 
" style="fill:none;stroke:#0000ff;stroke-linecap:square;"/>
    </g>
    <g id="line2d_53"/>
    <g id="text_19">
     <!-- Target (lead) speed -->
     <defs>
      <path d="M 8.015625 75.875 
L 15.828125 75.875 
Q 23.140625 64.359375 26.78125 53.3125 
Q 30.421875 42.28125 30.421875 31.390625 
Q 30.421875 20.453125 26.78125 9.375 
Q 23.140625 -1.703125 15.828125 -13.1875 
L 8.015625 -13.1875 
Q 14.5 -2 17.703125 9.0625 
Q 20.90625 20.125 20.90625 31.390625 
Q 20.90625 42.671875 17.703125 53.65625 
Q 14.5 64.65625 8.015625 75.875 
" id="BitstreamVeraSans-Roman-29"/>
      <path d="M 34.28125 27.484375 
Q 23.390625 27.484375 19.1875 25 
Q 14.984375 22.515625 14.984375 16.5 
Q 14.984375 11.71875 18.140625 8.90625 
Q 21.296875 6.109375 26.703125 6.109375 
Q 34.1875 6.109375 38.703125 11.40625 
Q 43.21875 16.703125 43.21875 25.484375 
L 43.21875 27.484375 
z
M 52.203125 31.203125 
L 52.203125 0 
L 43.21875 0 
L 43.21875 8.296875 
Q 40.140625 3.328125 35.546875 0.953125 
Q 30.953125 -1.421875 24.3125 -1.421875 
Q 15.921875 -1.421875 10.953125 3.296875 
Q 6 8.015625 6 15.921875 
Q 6 25.140625 12.171875 29.828125 
Q 18.359375 34.515625 30.609375 34.515625 
L 43.21875 34.515625 
L 43.21875 35.40625 
Q 43.21875 41.609375 39.140625 45 
Q 35.0625 48.390625 27.6875 48.390625 
Q 23 48.390625 18.546875 47.265625 
Q 14.109375 46.140625 10.015625 43.890625 
L 10.015625 52.203125 
Q 14.9375 54.109375 19.578125 55.046875 
Q 24.21875 56 28.609375 56 
Q 40.484375 56 46.34375 49.84375 
Q 52.203125 43.703125 52.203125 31.203125 
" id="BitstreamVeraSans-Roman-61"/>
      <path d="M 9.421875 75.984375 
L 18.40625 75.984375 
L 18.40625 0 
L 9.421875 0 
z
" id="BitstreamVeraSans-Roman-6c"/>
      <path d="M 31 75.875 
Q 24.46875 64.65625 21.28125 53.65625 
Q 18.109375 42.671875 18.109375 31.390625 
Q 18.109375 20.125 21.3125 9.0625 
Q 24.515625 -2 31 -13.1875 
L 23.1875 -13.1875 
Q 15.875 -1.703125 12.234375 9.375 
Q 8.59375 20.453125 8.59375 31.390625 
Q 8.59375 42.28125 12.203125 53.3125 
Q 15.828125 64.359375 23.1875 75.875 
z
" id="BitstreamVeraSans-Roman-28"/>
      <path d="M 45.40625 27.984375 
Q 45.40625 37.75 41.375 43.109375 
Q 37.359375 48.484375 30.078125 48.484375 
Q 22.859375 48.484375 18.828125 43.109375 
Q 14.796875 37.75 14.796875 27.984375 
Q 14.796875 18.265625 18.828125 12.890625 
Q 22.859375 7.515625 30.078125 7.515625 
Q 37.359375 7.515625 41.375 12.890625 
Q 45.40625 18.265625 45.40625 27.984375 
M 54.390625 6.78125 
Q 54.390625 -7.171875 48.1875 -13.984375 
Q 42 -20.796875 29.203125 -20.796875 
Q 24.46875 -20.796875 20.265625 -20.09375 
Q 16.0625 -19.390625 12.109375 -17.921875 
L 12.109375 -9.1875 
Q 16.0625 -11.328125 19.921875 -12.34375 
Q 23.78125 -13.375 27.78125 -13.375 
Q 36.625 -13.375 41.015625 -8.765625 
Q 45.40625 -4.15625 45.40625 5.171875 
L 45.40625 9.625 
Q 42.625 4.78125 38.28125 2.390625 
Q 33.9375 0 27.875 0 
Q 17.828125 0 11.671875 7.65625 
Q 5.515625 15.328125 5.515625 27.984375 
Q 5.515625 40.671875 11.671875 48.328125 
Q 17.828125 56 27.875 56 
Q 33.9375 56 38.28125 53.609375 
Q 42.625 51.21875 45.40625 46.390625 
L 45.40625 54.6875 
L 54.390625 54.6875 
z
" id="BitstreamVeraSans-Roman-67"/>
      <path d="M 41.109375 46.296875 
Q 39.59375 47.171875 37.8125 47.578125 
Q 36.03125 48 33.890625 48 
Q 26.265625 48 22.1875 43.046875 
Q 18.109375 38.09375 18.109375 28.8125 
L 18.109375 0 
L 9.078125 0 
L 9.078125 54.6875 
L 18.109375 54.6875 
L 18.109375 46.1875 
Q 20.953125 51.171875 25.484375 53.578125 
Q 30.03125 56 36.53125 56 
Q 37.453125 56 38.578125 55.875 
Q 39.703125 55.765625 41.0625 55.515625 
z
" id="BitstreamVeraSans-Roman-72"/>
      <path d="M 18.3125 70.21875 
L 18.3125 54.6875 
L 36.8125 54.6875 
L 36.8125 47.703125 
L 18.3125 47.703125 
L 18.3125 18.015625 
Q 18.3125 11.328125 20.140625 9.421875 
Q 21.96875 7.515625 27.59375 7.515625 
L 36.8125 7.515625 
L 36.8125 0 
L 27.59375 0 
Q 17.1875 0 13.234375 3.875 
Q 9.28125 7.765625 9.28125 18.015625 
L 9.28125 47.703125 
L 2.6875 47.703125 
L 2.6875 54.6875 
L 9.28125 54.6875 
L 9.28125 70.21875 
z
" id="BitstreamVeraSans-Roman-74"/>
     </defs>
     <g transform="translate(363.5685 109.37475)scale(0.144 -0.144)">
      <use xlink:href="#BitstreamVeraSans-Roman-54"/>
      <use x="60.833984375" xlink:href="#BitstreamVeraSans-Roman-61"/>
      <use x="122.11328125" xlink:href="#BitstreamVeraSans-Roman-72"/>
      <use x="163.2109375" xlink:href="#BitstreamVeraSans-Roman-67"/>
      <use x="226.6875" xlink:href="#BitstreamVeraSans-Roman-65"/>
      <use x="288.2109375" xlink:href="#BitstreamVeraSans-Roman-74"/>
      <use x="327.419921875" xlink:href="#BitstreamVeraSans-Roman-20"/>
      <use x="359.20703125" xlink:href="#BitstreamVeraSans-Roman-28"/>
      <use x="398.220703125" xlink:href="#BitstreamVeraSans-Roman-6c"/>
      <use x="426.00390625" xlink:href="#BitstreamVeraSans-Roman-65"/>
      <use x="487.52734375" xlink:href="#BitstreamVeraSans-Roman-61"/>
      <use x="548.806640625" xlink:href="#BitstreamVeraSans-Roman-64"/>
      <use x="612.283203125" xlink:href="#BitstreamVeraSans-Roman-29"/>
      <use x="651.296875" xlink:href="#BitstreamVeraSans-Roman-20"/>
      <use x="683.083984375" xlink:href="#BitstreamVeraSans-Roman-73"/>
      <use x="735.18359375" xlink:href="#BitstreamVeraSans-Roman-70"/>
      <use x="798.66015625" xlink:href="#BitstreamVeraSans-Roman-65"/>
      <use x="860.18359375" xlink:href="#BitstreamVeraSans-Roman-65"/>
      <use x="921.70703125" xlink:href="#BitstreamVeraSans-Roman-64"/>
     </g>
    </g>
    <g id="line2d_54">
     <path d="M 327.5685 125.47125 
L 347.7285 125.47125 
" style="fill:none;stroke:#000000;stroke-linecap:square;"/>
    </g>
    <g id="line2d_55"/>
    <g id="text_20">
     <!-- Cruise speed -->
     <defs>
      <path d="M 8.5 21.578125 
L 8.5 54.6875 
L 17.484375 54.6875 
L 17.484375 21.921875 
Q 17.484375 14.15625 20.5 10.265625 
Q 23.53125 6.390625 29.59375 6.390625 
Q 36.859375 6.390625 41.078125 11.03125 
Q 45.3125 15.671875 45.3125 23.6875 
L 45.3125 54.6875 
L 54.296875 54.6875 
L 54.296875 0 
L 45.3125 0 
L 45.3125 8.40625 
Q 42.046875 3.421875 37.71875 1 
Q 33.40625 -1.421875 27.6875 -1.421875 
Q 18.265625 -1.421875 13.375 4.4375 
Q 8.5 10.296875 8.5 21.578125 
" id="BitstreamVeraSans-Roman-75"/>
      <path d="M 64.40625 67.28125 
L 64.40625 56.890625 
Q 59.421875 61.53125 53.78125 63.8125 
Q 48.140625 66.109375 41.796875 66.109375 
Q 29.296875 66.109375 22.65625 58.46875 
Q 16.015625 50.828125 16.015625 36.375 
Q 16.015625 21.96875 22.65625 14.328125 
Q 29.296875 6.6875 41.796875 6.6875 
Q 48.140625 6.6875 53.78125 8.984375 
Q 59.421875 11.28125 64.40625 15.921875 
L 64.40625 5.609375 
Q 59.234375 2.09375 53.4375 0.328125 
Q 47.65625 -1.421875 41.21875 -1.421875 
Q 24.65625 -1.421875 15.125 8.703125 
Q 5.609375 18.84375 5.609375 36.375 
Q 5.609375 53.953125 15.125 64.078125 
Q 24.65625 74.21875 41.21875 74.21875 
Q 47.75 74.21875 53.53125 72.484375 
Q 59.328125 70.75 64.40625 67.28125 
" id="BitstreamVeraSans-Roman-43"/>
     </defs>
     <g transform="translate(363.5685 130.51125)scale(0.144 -0.144)">
      <use xlink:href="#BitstreamVeraSans-Roman-43"/>
      <use x="69.82421875" xlink:href="#BitstreamVeraSans-Roman-72"/>
      <use x="110.9375" xlink:href="#BitstreamVeraSans-Roman-75"/>
      <use x="174.31640625" xlink:href="#BitstreamVeraSans-Roman-69"/>
      <use x="202.099609375" xlink:href="#BitstreamVeraSans-Roman-73"/>
      <use x="254.19921875" xlink:href="#BitstreamVeraSans-Roman-65"/>
      <use x="315.72265625" xlink:href="#BitstreamVeraSans-Roman-20"/>
      <use x="347.509765625" xlink:href="#BitstreamVeraSans-Roman-73"/>
      <use x="399.609375" xlink:href="#BitstreamVeraSans-Roman-70"/>
      <use x="463.0859375" xlink:href="#BitstreamVeraSans-Roman-65"/>
      <use x="524.609375" xlink:href="#BitstreamVeraSans-Roman-65"/>
      <use x="586.1328125" xlink:href="#BitstreamVeraSans-Roman-64"/>
     </g>
    </g>
    <g id="line2d_56">
     <path d="M 327.5685 146.60775 
L 347.7285 146.60775 
" style="fill:none;stroke:#bf00bf;stroke-linecap:square;"/>
    </g>
    <g id="line2d_57"/>
    <g id="text_21">
     <!-- Lead speed -->
     <defs>
      <path d="M 9.8125 72.90625 
L 19.671875 72.90625 
L 19.671875 8.296875 
L 55.171875 8.296875 
L 55.171875 0 
L 9.8125 0 
z
" id="BitstreamVeraSans-Roman-4c"/>
     </defs>
     <g transform="translate(363.5685 151.64775)scale(0.144 -0.144)">
      <use xlink:href="#BitstreamVeraSans-Roman-4c"/>
      <use x="55.697265625" xlink:href="#BitstreamVeraSans-Roman-65"/>
      <use x="117.220703125" xlink:href="#BitstreamVeraSans-Roman-61"/>
      <use x="178.5" xlink:href="#BitstreamVeraSans-Roman-64"/>
      <use x="241.9765625" xlink:href="#BitstreamVeraSans-Roman-20"/>
      <use x="273.763671875" xlink:href="#BitstreamVeraSans-Roman-73"/>
      <use x="325.86328125" xlink:href="#BitstreamVeraSans-Roman-70"/>
      <use x="389.33984375" xlink:href="#BitstreamVeraSans-Roman-65"/>
      <use x="450.86328125" xlink:href="#BitstreamVeraSans-Roman-65"/>
      <use x="512.38671875" xlink:href="#BitstreamVeraSans-Roman-64"/>
     </g>
    </g>
   </g>
  </g>
 </g>
 <defs>
  <clipPath id="p234dd4ef97">
   <rect height="345.6" width="446.4" x="72.0" y="43.2"/>
  </clipPath>
 </defs>
</svg>
