<?xml version="1.0" encoding="utf-8" standalone="no"?>
<!DOCTYPE svg PUBLIC "-//W3C//DTD SVG 1.1//EN"
  "http://www.w3.org/Graphics/SVG/1.1/DTD/svg11.dtd">
<!-- Created with matplotlib (http://matplotlib.org/) -->
<svg height="432pt" version="1.1" viewBox="0 0 576 432" width="576pt" xmlns="http://www.w3.org/2000/svg" xmlns:xlink="http://www.w3.org/1999/xlink">
 <defs>
  <style type="text/css">
*{stroke-linecap:butt;stroke-linejoin:round;stroke-miterlimit:100000;}
  </style>
 </defs>
 <g id="figure_1">
  <g id="patch_1">
   <path d="M 0 432 
L 576 432 
L 576 0 
L 0 0 
z
" style="fill:#ffffff;"/>
  </g>
  <g id="axes_1">
   <g id="patch_2">
    <path d="M 72 388.8 
L 518.4 388.8 
L 518.4 43.2 
L 72 43.2 
z
" style="fill:#ffffff;"/>
   </g>
   <g id="line2d_1">
    <path clip-path="url(#p6d9233097b)" d="M 72.1488 266.639006 
L 106.8192 265.964721 
L 106.968 164.172688 
L 107.1168 164.182583 
L 107.2656 168.430758 
L 107.4144 168.439574 
L 107.5632 176.923893 
L 107.712 176.930699 
L 107.8608 183.293479 
L 108.0096 183.298902 
L 108.1584 189.659753 
L 108.6048 189.67219 
L 108.7536 191.794518 
L 109.2 191.805743 
L 109.3488 193.927398 
L 109.7952 193.937449 
L 109.944 196.058467 
L 110.3904 196.06738 
L 110.5392 198.187797 
L 111.2832 198.200815 
L 111.432 200.320567 
L 112.176 200.331808 
L 112.3248 202.450943 
L 113.3664 202.464275 
L 113.5152 204.582765 
L 114.2592 204.590631 
L 114.408 206.708601 
L 115.7472 206.719887 
L 115.896 208.837279 
L 116.9376 208.843908 
L 117.0864 210.960834 
L 118.128 210.965399 
L 118.2768 213.081919 
L 120.5088 213.087459 
L 120.6576 215.203566 
L 122.2944 215.204651 
L 122.4432 217.320461 
L 123.7824 217.319023 
L 123.9312 215.203114 
L 124.3776 215.203411 
L 124.5264 217.319249 
L 127.3536 217.316216 
L 127.5024 219.431869 
L 132.7104 219.41768 
L 132.8592 221.533431 
L 133.3056 221.531512 
L 133.4544 219.414656 
L 135.0912 219.410213 
L 135.24 221.52614 
L 135.984 221.522946 
L 136.1328 219.405885 
L 137.472 219.402258 
L 137.6208 221.518373 
L 138.96 221.512634 
L 139.1088 219.395326 
L 139.8528 219.393317 
L 140.0016 221.509642 
L 141.0432 221.505185 
L 141.192 219.387699 
L 142.2336 219.384893 
L 142.3824 221.501417 
L 143.8704 221.49506 
L 144.0192 219.377331 
L 144.912 219.374933 
L 145.0608 221.491692 
L 146.2512 221.486614 
L 146.4 219.368684 
L 147.4416 219.365893 
L 147.5904 221.482865 
L 149.0784 221.476529 
L 149.2272 219.358357 
L 149.9712 219.356369 
L 150.12 221.473566 
L 151.608 221.46724 
L 151.7568 219.348846 
L 152.6496 219.346467 
L 152.7984 221.463898 
L 154.1376 221.458214 
L 154.2864 219.339604 
L 155.4768 219.336441 
L 155.6256 221.454109 
L 156.816 221.449065 
L 156.9648 219.330236 
L 158.6016 219.3259 
L 158.7504 221.443816 
L 159.6432 221.44004 
L 159.792 219.320994 
L 161.8752 219.315491 
L 162.024 221.433654 
L 162.768 221.430512 
L 162.9168 219.311238 
L 165.2976 219.304969 
L 165.4464 221.42338 
L 165.8928 221.421498 
L 166.0416 219.302008 
L 169.0176 219.294194 
L 169.1664 221.41286 
L 169.3152 221.412234 
L 169.464 219.292521 
L 183.4512 219.256056 
L 183.6 217.135717 
L 184.0464 217.135304 
L 184.1952 219.255132 
L 187.7664 219.245888 
L 187.9152 217.125311 
L 190.4448 217.122993 
L 190.5936 219.243105 
L 193.1232 219.236578 
L 193.272 217.115784 
L 198.9264 217.110652 
L 199.0752 219.23105 
L 200.4144 219.227606 
L 200.5632 217.106601 
L 207.408 217.100443 
L 207.5568 219.221077 
L 208.5984 219.218405 
L 208.7472 217.097185 
L 216.336 217.090418 
L 216.4848 219.211283 
L 217.5264 219.20862 
L 217.6752 217.08717 
L 222.5856 217.082826 
L 222.7344 219.203867 
L 222.8832 219.203488 
L 223.032 225.566679 
L 223.1808 225.565625 
L 223.3296 229.807059 
L 223.4784 229.805615 
L 223.6272 231.925492 
L 223.776 231.923871 
L 223.9248 236.16507 
L 224.0736 236.16313 
L 224.3712 244.645025 
L 224.52 244.642589 
L 224.6688 248.883666 
L 224.8176 248.881054 
L 224.9664 253.122322 
L 225.264 253.116839 
L 225.5616 259.478144 
L 225.8592 259.472451 
L 226.008 261.592337 
L 226.1568 261.58948 
L 226.3056 265.889209 
L 244.9056 265.536496 
L 245.0544 276.78369 
L 245.2032 276.780255 
L 245.352 288.026814 
L 245.5008 288.022744 
L 245.6496 299.268668 
L 245.7984 299.263964 
L 245.9472 310.509254 
L 246.096 310.503916 
L 246.2448 321.748572 
L 246.3936 321.742601 
L 246.5424 332.986624 
L 246.6912 332.98002 
L 246.84 344.223411 
L 246.9888 344.216174 
L 247.1376 355.458934 
L 247.2864 355.451066 
L 247.4352 366.693194 
L 250.56 366.515183 
L 250.7088 368.756729 
L 257.7024 368.356022 
L 257.8512 370.597549 
L 267.8208 370.026669 
L 267.9696 372.268224 
L 270.3504 372.131459 
L 270.4992 374.37293 
L 273.4752 374.2004 
L 273.624 376.441797 
L 280.32 376.051693 
L 280.4688 378.293078 
L 283.8912 378.092846 
L 284.04 380.334168 
L 297.7296 379.535481 
L 297.8784 381.776914 
L 313.056 380.90425 
L 313.2048 383.145821 
L 315.288 383.026493 
L 315.4368 380.76799 
L 317.0736 380.675863 
L 317.2224 378.417504 
L 317.8176 378.384544 
L 317.9664 376.126311 
L 319.6032 376.037145 
L 319.752 373.779054 
L 321.3888 373.691443 
L 321.5376 371.433494 
L 323.1744 371.347427 
L 323.3232 369.089617 
L 324.6624 369.020433 
L 324.8112 366.762757 
L 326.1504 366.694779 
L 326.2992 364.437238 
L 326.5968 364.422384 
L 326.7456 366.664958 
L 326.8944 366.657424 
L 327.0432 364.399893 
L 328.9776 364.303618 
L 329.1264 362.046228 
L 331.0608 361.951774 
L 331.2096 359.694524 
L 333.7392 359.573432 
L 333.888 357.316328 
L 336.864 357.176824 
L 337.0128 354.91987 
L 356.5056 354.038508 
L 356.6544 351.781898 
L 361.2672 351.581113 
L 361.416 353.824662 
L 362.16 353.791903 
L 362.3088 351.535358 
L 363.0528 351.503185 
L 363.2016 353.746754 
L 363.3504 353.74022 
L 363.4992 351.483688 
L 364.2432 351.451583 
L 364.392 353.695166 
L 365.4336 353.649556 
L 365.5824 351.393049 
L 365.7312 351.386648 
L 365.88 353.630248 
L 366.3264 353.610742 
L 366.4752 351.354245 
L 366.624 351.347854 
L 366.7728 353.591464 
L 397.4256 352.28992 
L 397.5744 354.533775 
L 408.5856 354.076426 
L 408.7344 356.320308 
L 411.4128 356.20872 
L 411.5616 358.452536 
L 414.0912 358.346018 
L 414.24 360.589767 
L 416.7696 360.482126 
L 416.9184 362.72581 
L 417.216 362.712988 
L 417.3648 364.956579 
L 417.96 364.930574 
L 418.1088 367.174077 
L 421.0848 367.042605 
L 421.2336 364.786054 
L 421.3824 364.779601 
L 421.5312 362.523151 
L 421.9776 362.504102 
L 422.1264 360.247757 
L 422.424 360.235266 
L 422.5728 357.979024 
L 422.7216 357.97288 
L 422.8704 355.716739 
L 423.0192 355.710696 
L 423.168 353.454656 
L 423.7632 353.430897 
L 423.912 351.174963 
L 424.0608 351.169126 
L 424.2096 348.913292 
L 424.3584 348.907556 
L 424.5072 346.651822 
L 424.656 346.646186 
L 424.8048 344.390553 
L 425.4 344.368417 
L 425.5488 342.112888 
L 425.6976 342.107456 
L 425.8464 339.852027 
L 426.2928 339.836035 
L 426.4416 337.580708 
L 426.5904 337.575478 
L 426.7392 335.320251 
L 427.1856 335.304863 
L 427.3344 333.049738 
L 427.7808 333.034656 
L 427.9296 256.52967 
L 429.12 256.515757 
L 429.4176 250.796514 
L 429.5664 250.794673 
L 429.7152 247.972148 
L 430.0128 247.96845 
L 430.1616 245.145444 
L 430.3104 239.501012 
L 430.7568 239.495891 
L 430.9056 236.672418 
L 431.352 236.667607 
L 431.5008 233.843829 
L 431.6496 233.842356 
L 431.7984 231.018534 
L 431.9472 231.01722 
L 432.096 228.193407 
L 432.5424 228.190027 
L 432.6912 225.36616 
L 432.84 225.365248 
L 432.9888 222.541504 
L 433.584 222.538827 
L 433.7328 219.715164 
L 434.4768 219.713172 
L 434.6256 216.88967 
L 434.7744 216.88957 
L 434.9232 214.066357 
L 436.2624 214.068395 
L 436.4112 211.245604 
L 436.8576 211.247345 
L 437.0064 208.425002 
L 437.7504 208.429812 
L 437.8992 205.608075 
L 438.048 208.432094 
L 438.1968 208.433055 
L 438.3456 205.611443 
L 438.792 205.615555 
L 438.9408 202.794558 
L 439.2384 202.798173 
L 439.3872 205.622152 
L 439.536 205.623522 
L 439.6848 202.802822 
L 440.1312 202.80824 
L 440.28 205.631854 
L 440.4288 205.633221 
L 440.5776 202.812883 
L 442.6608 202.838124 
L 442.8096 200.019194 
L 442.9584 200.021459 
L 443.1072 202.844296 
L 443.256 202.846096 
L 443.4048 200.027453 
L 443.8512 200.034243 
L 444 202.856633 
L 444.1488 202.858431 
L 444.2976 200.040231 
L 444.4464 200.042492 
L 444.5952 202.864594 
L 444.8928 202.868186 
L 445.0416 200.050336 
L 445.1904 202.872163 
L 445.3392 202.873958 
L 445.488 200.056316 
L 448.3152 200.099166 
L 448.464 202.919286 
L 448.6128 202.921074 
L 448.7616 200.105122 
L 449.0592 200.109622 
L 449.208 202.929376 
L 449.3568 202.931162 
L 449.5056 200.115572 
L 450.1008 200.124564 
L 450.2496 202.943796 
L 450.5472 202.947363 
L 450.696 200.132354 
L 450.8448 200.1346 
L 450.9936 202.953481 
L 451.2912 202.957045 
L 451.44 200.142383 
L 451.5888 200.144627 
L 451.7376 202.963158 
L 453.0768 202.979173 
L 453.2256 200.165305 
L 453.3744 200.167545 
L 453.5232 202.985275 
L 460.5168 203.068488 
L 460.6656 205.882684 
L 460.9632 205.885344 
L 461.112 203.074391 
L 461.7072 203.08144 
L 461.856 205.895167 
L 462.0048 205.896496 
L 462.1536 203.085957 
L 462.7488 203.092999 
L 462.8976 205.906309 
L 463.0464 205.907636 
L 463.1952 203.097511 
L 463.4928 203.101029 
L 463.6416 205.914049 
L 464.2368 205.919349 
L 464.3856 203.10966 
L 464.5344 203.111417 
L 464.6832 205.924062 
L 465.1296 205.928033 
L 465.2784 203.118666 
L 465.4272 203.120422 
L 465.576 205.932741 
L 466.0224 205.936709 
L 466.1712 203.127664 
L 466.6176 203.132926 
L 466.7664 205.944794 
L 466.9152 205.946115 
L 467.064 203.13742 
L 467.5104 203.142677 
L 467.6592 205.954193 
L 467.808 205.955512 
L 467.9568 203.147166 
L 468.4032 203.152418 
L 468.552 205.963582 
L 468.7008 205.964901 
L 468.8496 203.156903 
L 470.4864 203.176132 
L 470.6352 205.986441 
L 470.784 205.987755 
L 470.9328 203.180606 
L 472.272 203.196308 
L 472.4208 206.005888 
L 472.5696 206.0072 
L 472.7184 203.200772 
L 473.6112 203.211223 
L 473.76 206.020266 
L 473.9088 203.214323 
L 474.2064 203.217803 
L 474.3552 206.026608 
L 474.504 206.027917 
L 474.6528 203.222258 
L 475.3968 203.230951 
L 475.5456 206.039281 
L 475.6944 206.040588 
L 475.8432 203.235399 
L 477.3312 203.252757 
L 477.48 206.060301 
L 477.9264 206.064212 
L 478.0752 203.259899 
L 478.5216 203.265098 
L 478.6704 206.072197 
L 479.1168 206.076102 
L 479.2656 203.27223 
L 479.4144 203.273961 
L 479.5632 206.080742 
L 480.3072 206.087243 
L 480.456 203.283784 
L 480.6048 203.285513 
L 480.7536 206.091877 
L 481.4976 206.09837 
L 481.6464 203.295323 
L 481.7952 203.297051 
L 481.944 206.102999 
L 482.3904 206.10689 
L 482.5392 203.304159 
L 482.688 203.305886 
L 482.8368 206.111515 
L 483.5808 206.117994 
L 483.7296 203.315674 
L 483.8784 203.317399 
L 484.0272 206.122614 
L 493.4016 206.20379 
L 493.5504 209.005498 
L 493.6992 209.006379 
L 493.848 206.206904 
L 494.8896 206.215874 
L 495.0384 209.01713 
L 495.1872 209.01801 
L 495.336 206.218982 
L 495.7824 206.222822 
L 495.9312 209.023819 
L 496.6752 209.028214 
L 496.824 206.229578 
L 497.2704 206.233413 
L 497.4192 209.034015 
L 498.1632 209.038403 
L 498.312 206.240159 
L 499.056 206.246542 
L 499.2048 209.046655 
L 499.6512 209.049282 
L 499.8 206.251456 
L 500.2464 206.255282 
L 500.3952 209.055068 
L 501.4368 209.061189 
L 501.5856 206.263821 
L 501.7344 206.265095 
L 501.8832 209.064516 
L 502.9248 209.070627 
L 503.0736 206.273622 
L 503.52 206.277438 
L 503.6688 209.076398 
L 504.7104 209.082499 
L 504.8592 206.285949 
L 505.008 206.28722 
L 505.1568 209.085816 
L 506.496 209.093647 
L 506.6448 206.297525 
L 506.7936 206.298794 
L 506.9424 209.096959 
L 515.1264 209.144578 
L 515.2752 211.940469 
L 515.424 211.94096 
L 515.5728 209.146462 
L 516.912 209.154217 
L 517.0608 211.949735 
L 517.5072 211.951205 
L 517.656 209.157116 
L 518.4 209.161419 
L 518.4 209.161419 
" style="fill:none;stroke:#008000;stroke-linecap:square;"/>
   </g>
   <g id="line2d_2">
    <path clip-path="url(#p6d9233097b)" d="M 72.1488 216 
L 72.2976 340.375337 
L 75.5712 340.478651 
L 81.0768 340.669384 
L 84.3504 340.772707 
L 90.1536 340.971388 
L 93.1296 341.074702 
L 98.4864 341.257496 
L 101.76 341.36081 
L 107.1168 341.543604 
L 114.408 341.440281 
L 116.64 341.424385 
L 169.464 341.527699 
L 171.5472 341.535656 
L 225.4128 341.63897 
L 230.6208 341.813807 
L 233.8944 341.917122 
L 239.1024 342.091968 
L 242.2272 342.195282 
L 250.7088 342.75955 
L 341.9232 352.399718 
L 344.4528 352.630191 
L 345.4944 352.741453 
L 354.1248 353.560038 
L 355.464 353.655404 
L 363.0528 354.354778 
L 365.4336 354.585242 
L 372.4272 355.228981 
L 373.4688 355.324347 
L 380.1648 355.928355 
L 381.0576 356.007826 
L 381.9504 356.095244 
L 390.432 356.889985 
L 393.408 357.144301 
L 394.152 357.23172 
L 395.3424 357.335034 
L 403.08 358.050304 
L 404.1216 358.153619 
L 407.3952 358.439718 
L 416.6208 359.321877 
L 418.8528 359.536463 
L 420.0432 359.679508 
L 422.5728 359.925877 
L 425.9952 360.400915 
L 428.0784 360.671127 
L 430.608 360.792715 
L 448.3152 360.684637 
L 449.8032 360.6576 
L 456.7968 360.549522 
L 458.2848 360.522503 
L 466.6176 360.414425 
L 468.1056 360.387405 
L 476.4384 360.279327 
L 477.9264 360.252291 
L 487.5984 360.144213 
L 489.0864 360.117193 
L 500.3952 360.009098 
L 502.032 359.98946 
L 518.4 359.917937 
L 518.4 359.917937 
" style="fill:none;stroke:#000000;stroke-dasharray:6.000000,6.000000;stroke-dashoffset:0.0;"/>
   </g>
   <g id="line2d_3">
    <path clip-path="url(#p6d9233097b)" d="M 72.1488 216 
L 72.2976 91.624663 
L 75.5712 91.521349 
L 81.0768 91.330616 
L 84.3504 91.227293 
L 90.1536 91.028612 
L 93.1296 90.925298 
L 98.4864 90.742504 
L 101.76 90.63919 
L 107.1168 90.456396 
L 114.408 90.559719 
L 116.64 90.575615 
L 169.464 90.472301 
L 171.5472 90.464344 
L 225.4128 90.36103 
L 230.6208 90.186193 
L 233.8944 90.082878 
L 239.1024 89.908032 
L 242.2272 89.804718 
L 250.7088 89.24045 
L 341.9232 79.600282 
L 344.4528 79.369809 
L 345.4944 79.258547 
L 354.1248 78.439962 
L 355.464 78.344596 
L 363.0528 77.645222 
L 365.4336 77.414758 
L 372.4272 76.771019 
L 373.4688 76.675653 
L 380.1648 76.071645 
L 381.0576 75.992174 
L 381.9504 75.904756 
L 390.432 75.110015 
L 393.408 74.855699 
L 394.152 74.76828 
L 395.3424 74.664966 
L 403.08 73.949696 
L 404.1216 73.846381 
L 407.3952 73.560282 
L 416.6208 72.678123 
L 418.8528 72.463537 
L 420.0432 72.320492 
L 422.5728 72.074123 
L 423.912 71.84087 
L 425.2512 71.483248 
L 425.5488 71.411716 
L 426.888 71.054094 
L 427.4832 70.958702 
L 428.376 70.767969 
L 429.7152 70.648767 
L 431.9472 70.553392 
L 432.6912 70.529549 
L 442.9584 70.624941 
L 443.7024 70.648767 
L 446.976 70.744125 
L 447.8688 70.79183 
L 451.5888 70.887188 
L 452.3328 70.911032 
L 455.904 71.006407 
L 456.648 71.030251 
L 460.5168 71.125608 
L 461.2608 71.149452 
L 465.4272 71.244827 
L 466.1712 71.268671 
L 470.6352 71.364046 
L 471.3792 71.387873 
L 475.3968 71.483248 
L 476.1408 71.507074 
L 480.7536 71.602449 
L 481.4976 71.626293 
L 486.2592 71.721668 
L 487.0032 71.745512 
L 492.36 71.84087 
L 493.104 71.864714 
L 499.056 71.960089 
L 499.8 71.983932 
L 518.4 72.082063 
L 518.4 72.082063 
" style="fill:none;stroke:#000000;stroke-dasharray:6.000000,6.000000;stroke-dashoffset:0.0;"/>
   </g>
   <g id="patch_3">
    <path d="M 72 43.2 
L 518.4 43.2 
" style="fill:none;stroke:#000000;stroke-linecap:square;stroke-linejoin:miter;"/>
   </g>
   <g id="patch_4">
    <path d="M 518.4 388.8 
L 518.4 43.2 
" style="fill:none;stroke:#000000;stroke-linecap:square;stroke-linejoin:miter;"/>
   </g>
   <g id="patch_5">
    <path d="M 72 388.8 
L 518.4 388.8 
" style="fill:none;stroke:#000000;stroke-linecap:square;stroke-linejoin:miter;"/>
   </g>
   <g id="patch_6">
    <path d="M 72 388.8 
L 72 43.2 
" style="fill:none;stroke:#000000;stroke-linecap:square;stroke-linejoin:miter;"/>
   </g>
   <g id="matplotlib.axis_1">
    <g id="xtick_1">
     <g id="line2d_4">
      <path clip-path="url(#p6d9233097b)" d="M 72 388.8 
L 72 43.2 
" style="fill:none;stroke:#000000;stroke-dasharray:1.000000,3.000000;stroke-dashoffset:0.0;stroke-width:0.5;"/>
     </g>
     <g id="line2d_5">
      <defs>
       <path d="M 0 0 
L 0 -4 
" id="mf54c4e41b6" style="stroke:#000000;stroke-width:0.5;"/>
      </defs>
      <g>
       <use style="stroke:#000000;stroke-width:0.5;" x="72.0" xlink:href="#mf54c4e41b6" y="388.8"/>
      </g>
     </g>
     <g id="line2d_6">
      <defs>
       <path d="M 0 0 
L 0 4 
" id="m6839f29338" style="stroke:#000000;stroke-width:0.5;"/>
      </defs>
      <g>
       <use style="stroke:#000000;stroke-width:0.5;" x="72.0" xlink:href="#m6839f29338" y="43.2"/>
      </g>
     </g>
     <g id="text_1">
      <!-- 0 -->
      <defs>
       <path d="M 31.78125 66.40625 
Q 24.171875 66.40625 20.328125 58.90625 
Q 16.5 51.421875 16.5 36.375 
Q 16.5 21.390625 20.328125 13.890625 
Q 24.171875 6.390625 31.78125 6.390625 
Q 39.453125 6.390625 43.28125 13.890625 
Q 47.125 21.390625 47.125 36.375 
Q 47.125 51.421875 43.28125 58.90625 
Q 39.453125 66.40625 31.78125 66.40625 
M 31.78125 74.21875 
Q 44.046875 74.21875 50.515625 64.515625 
Q 56.984375 54.828125 56.984375 36.375 
Q 56.984375 17.96875 50.515625 8.265625 
Q 44.046875 -1.421875 31.78125 -1.421875 
Q 19.53125 -1.421875 13.0625 8.265625 
Q 6.59375 17.96875 6.59375 36.375 
Q 6.59375 54.828125 13.0625 64.515625 
Q 19.53125 74.21875 31.78125 74.21875 
" id="BitstreamVeraSans-Roman-30"/>
      </defs>
      <g transform="translate(68.1825 401.918125)scale(0.12 -0.12)">
       <use xlink:href="#BitstreamVeraSans-Roman-30"/>
      </g>
     </g>
    </g>
    <g id="xtick_2">
     <g id="line2d_7">
      <path clip-path="url(#p6d9233097b)" d="M 146.4 388.8 
L 146.4 43.2 
" style="fill:none;stroke:#000000;stroke-dasharray:1.000000,3.000000;stroke-dashoffset:0.0;stroke-width:0.5;"/>
     </g>
     <g id="line2d_8">
      <g>
       <use style="stroke:#000000;stroke-width:0.5;" x="146.4" xlink:href="#mf54c4e41b6" y="388.8"/>
      </g>
     </g>
     <g id="line2d_9">
      <g>
       <use style="stroke:#000000;stroke-width:0.5;" x="146.4" xlink:href="#m6839f29338" y="43.2"/>
      </g>
     </g>
     <g id="text_2">
      <!-- 5 -->
      <defs>
       <path d="M 10.796875 72.90625 
L 49.515625 72.90625 
L 49.515625 64.59375 
L 19.828125 64.59375 
L 19.828125 46.734375 
Q 21.96875 47.46875 24.109375 47.828125 
Q 26.265625 48.1875 28.421875 48.1875 
Q 40.625 48.1875 47.75 41.5 
Q 54.890625 34.8125 54.890625 23.390625 
Q 54.890625 11.625 47.5625 5.09375 
Q 40.234375 -1.421875 26.90625 -1.421875 
Q 22.3125 -1.421875 17.546875 -0.640625 
Q 12.796875 0.140625 7.71875 1.703125 
L 7.71875 11.625 
Q 12.109375 9.234375 16.796875 8.0625 
Q 21.484375 6.890625 26.703125 6.890625 
Q 35.15625 6.890625 40.078125 11.328125 
Q 45.015625 15.765625 45.015625 23.390625 
Q 45.015625 31 40.078125 35.4375 
Q 35.15625 39.890625 26.703125 39.890625 
Q 22.75 39.890625 18.8125 39.015625 
Q 14.890625 38.140625 10.796875 36.28125 
z
" id="BitstreamVeraSans-Roman-35"/>
      </defs>
      <g transform="translate(142.5825 401.918125)scale(0.12 -0.12)">
       <use xlink:href="#BitstreamVeraSans-Roman-35"/>
      </g>
     </g>
    </g>
    <g id="xtick_3">
     <g id="line2d_10">
      <path clip-path="url(#p6d9233097b)" d="M 220.8 388.8 
L 220.8 43.2 
" style="fill:none;stroke:#000000;stroke-dasharray:1.000000,3.000000;stroke-dashoffset:0.0;stroke-width:0.5;"/>
     </g>
     <g id="line2d_11">
      <g>
       <use style="stroke:#000000;stroke-width:0.5;" x="220.8" xlink:href="#mf54c4e41b6" y="388.8"/>
      </g>
     </g>
     <g id="line2d_12">
      <g>
       <use style="stroke:#000000;stroke-width:0.5;" x="220.8" xlink:href="#m6839f29338" y="43.2"/>
      </g>
     </g>
     <g id="text_3">
      <!-- 10 -->
      <defs>
       <path d="M 12.40625 8.296875 
L 28.515625 8.296875 
L 28.515625 63.921875 
L 10.984375 60.40625 
L 10.984375 69.390625 
L 28.421875 72.90625 
L 38.28125 72.90625 
L 38.28125 8.296875 
L 54.390625 8.296875 
L 54.390625 0 
L 12.40625 0 
z
" id="BitstreamVeraSans-Roman-31"/>
      </defs>
      <g transform="translate(213.165 401.918125)scale(0.12 -0.12)">
       <use xlink:href="#BitstreamVeraSans-Roman-31"/>
       <use x="63.623046875" xlink:href="#BitstreamVeraSans-Roman-30"/>
      </g>
     </g>
    </g>
    <g id="xtick_4">
     <g id="line2d_13">
      <path clip-path="url(#p6d9233097b)" d="M 295.2 388.8 
L 295.2 43.2 
" style="fill:none;stroke:#000000;stroke-dasharray:1.000000,3.000000;stroke-dashoffset:0.0;stroke-width:0.5;"/>
     </g>
     <g id="line2d_14">
      <g>
       <use style="stroke:#000000;stroke-width:0.5;" x="295.2" xlink:href="#mf54c4e41b6" y="388.8"/>
      </g>
     </g>
     <g id="line2d_15">
      <g>
       <use style="stroke:#000000;stroke-width:0.5;" x="295.2" xlink:href="#m6839f29338" y="43.2"/>
      </g>
     </g>
     <g id="text_4">
      <!-- 15 -->
      <g transform="translate(287.565 401.918125)scale(0.12 -0.12)">
       <use xlink:href="#BitstreamVeraSans-Roman-31"/>
       <use x="63.623046875" xlink:href="#BitstreamVeraSans-Roman-35"/>
      </g>
     </g>
    </g>
    <g id="xtick_5">
     <g id="line2d_16">
      <path clip-path="url(#p6d9233097b)" d="M 369.6 388.8 
L 369.6 43.2 
" style="fill:none;stroke:#000000;stroke-dasharray:1.000000,3.000000;stroke-dashoffset:0.0;stroke-width:0.5;"/>
     </g>
     <g id="line2d_17">
      <g>
       <use style="stroke:#000000;stroke-width:0.5;" x="369.6" xlink:href="#mf54c4e41b6" y="388.8"/>
      </g>
     </g>
     <g id="line2d_18">
      <g>
       <use style="stroke:#000000;stroke-width:0.5;" x="369.6" xlink:href="#m6839f29338" y="43.2"/>
      </g>
     </g>
     <g id="text_5">
      <!-- 20 -->
      <defs>
       <path d="M 19.1875 8.296875 
L 53.609375 8.296875 
L 53.609375 0 
L 7.328125 0 
L 7.328125 8.296875 
Q 12.9375 14.109375 22.625 23.890625 
Q 32.328125 33.6875 34.8125 36.53125 
Q 39.546875 41.84375 41.421875 45.53125 
Q 43.3125 49.21875 43.3125 52.78125 
Q 43.3125 58.59375 39.234375 62.25 
Q 35.15625 65.921875 28.609375 65.921875 
Q 23.96875 65.921875 18.8125 64.3125 
Q 13.671875 62.703125 7.8125 59.421875 
L 7.8125 69.390625 
Q 13.765625 71.78125 18.9375 73 
Q 24.125 74.21875 28.421875 74.21875 
Q 39.75 74.21875 46.484375 68.546875 
Q 53.21875 62.890625 53.21875 53.421875 
Q 53.21875 48.921875 51.53125 44.890625 
Q 49.859375 40.875 45.40625 35.40625 
Q 44.1875 33.984375 37.640625 27.21875 
Q 31.109375 20.453125 19.1875 8.296875 
" id="BitstreamVeraSans-Roman-32"/>
      </defs>
      <g transform="translate(361.965 401.918125)scale(0.12 -0.12)">
       <use xlink:href="#BitstreamVeraSans-Roman-32"/>
       <use x="63.623046875" xlink:href="#BitstreamVeraSans-Roman-30"/>
      </g>
     </g>
    </g>
    <g id="xtick_6">
     <g id="line2d_19">
      <path clip-path="url(#p6d9233097b)" d="M 444 388.8 
L 444 43.2 
" style="fill:none;stroke:#000000;stroke-dasharray:1.000000,3.000000;stroke-dashoffset:0.0;stroke-width:0.5;"/>
     </g>
     <g id="line2d_20">
      <g>
       <use style="stroke:#000000;stroke-width:0.5;" x="444.0" xlink:href="#mf54c4e41b6" y="388.8"/>
      </g>
     </g>
     <g id="line2d_21">
      <g>
       <use style="stroke:#000000;stroke-width:0.5;" x="444.0" xlink:href="#m6839f29338" y="43.2"/>
      </g>
     </g>
     <g id="text_6">
      <!-- 25 -->
      <g transform="translate(436.365 401.918125)scale(0.12 -0.12)">
       <use xlink:href="#BitstreamVeraSans-Roman-32"/>
       <use x="63.623046875" xlink:href="#BitstreamVeraSans-Roman-35"/>
      </g>
     </g>
    </g>
    <g id="xtick_7">
     <g id="line2d_22">
      <path clip-path="url(#p6d9233097b)" d="M 518.4 388.8 
L 518.4 43.2 
" style="fill:none;stroke:#000000;stroke-dasharray:1.000000,3.000000;stroke-dashoffset:0.0;stroke-width:0.5;"/>
     </g>
     <g id="line2d_23">
      <g>
       <use style="stroke:#000000;stroke-width:0.5;" x="518.4" xlink:href="#mf54c4e41b6" y="388.8"/>
      </g>
     </g>
     <g id="line2d_24">
      <g>
       <use style="stroke:#000000;stroke-width:0.5;" x="518.4" xlink:href="#m6839f29338" y="43.2"/>
      </g>
     </g>
     <g id="text_7">
      <!-- 30 -->
      <defs>
       <path d="M 40.578125 39.3125 
Q 47.65625 37.796875 51.625 33 
Q 55.609375 28.21875 55.609375 21.1875 
Q 55.609375 10.40625 48.1875 4.484375 
Q 40.765625 -1.421875 27.09375 -1.421875 
Q 22.515625 -1.421875 17.65625 -0.515625 
Q 12.796875 0.390625 7.625 2.203125 
L 7.625 11.71875 
Q 11.71875 9.328125 16.59375 8.109375 
Q 21.484375 6.890625 26.8125 6.890625 
Q 36.078125 6.890625 40.9375 10.546875 
Q 45.796875 14.203125 45.796875 21.1875 
Q 45.796875 27.640625 41.28125 31.265625 
Q 36.765625 34.90625 28.71875 34.90625 
L 20.21875 34.90625 
L 20.21875 43.015625 
L 29.109375 43.015625 
Q 36.375 43.015625 40.234375 45.921875 
Q 44.09375 48.828125 44.09375 54.296875 
Q 44.09375 59.90625 40.109375 62.90625 
Q 36.140625 65.921875 28.71875 65.921875 
Q 24.65625 65.921875 20.015625 65.03125 
Q 15.375 64.15625 9.8125 62.3125 
L 9.8125 71.09375 
Q 15.4375 72.65625 20.34375 73.4375 
Q 25.25 74.21875 29.59375 74.21875 
Q 40.828125 74.21875 47.359375 69.109375 
Q 53.90625 64.015625 53.90625 55.328125 
Q 53.90625 49.265625 50.4375 45.09375 
Q 46.96875 40.921875 40.578125 39.3125 
" id="BitstreamVeraSans-Roman-33"/>
      </defs>
      <g transform="translate(510.765 401.918125)scale(0.12 -0.12)">
       <use xlink:href="#BitstreamVeraSans-Roman-33"/>
       <use x="63.623046875" xlink:href="#BitstreamVeraSans-Roman-30"/>
      </g>
     </g>
    </g>
    <g id="text_8">
     <!-- Time [s] -->
     <defs>
      <path id="BitstreamVeraSans-Roman-20"/>
      <path d="M 8.59375 75.984375 
L 29.296875 75.984375 
L 29.296875 69 
L 17.578125 69 
L 17.578125 -6.203125 
L 29.296875 -6.203125 
L 29.296875 -13.1875 
L 8.59375 -13.1875 
z
" id="BitstreamVeraSans-Roman-5b"/>
      <path d="M 30.421875 75.984375 
L 30.421875 -13.1875 
L 9.71875 -13.1875 
L 9.71875 -6.203125 
L 21.390625 -6.203125 
L 21.390625 69 
L 9.71875 69 
L 9.71875 75.984375 
z
" id="BitstreamVeraSans-Roman-5d"/>
      <path d="M 52 44.1875 
Q 55.375 50.25 60.0625 53.125 
Q 64.75 56 71.09375 56 
Q 79.640625 56 84.28125 50.015625 
Q 88.921875 44.046875 88.921875 33.015625 
L 88.921875 0 
L 79.890625 0 
L 79.890625 32.71875 
Q 79.890625 40.578125 77.09375 44.375 
Q 74.3125 48.1875 68.609375 48.1875 
Q 61.625 48.1875 57.5625 43.546875 
Q 53.515625 38.921875 53.515625 30.90625 
L 53.515625 0 
L 44.484375 0 
L 44.484375 32.71875 
Q 44.484375 40.625 41.703125 44.40625 
Q 38.921875 48.1875 33.109375 48.1875 
Q 26.21875 48.1875 22.15625 43.53125 
Q 18.109375 38.875 18.109375 30.90625 
L 18.109375 0 
L 9.078125 0 
L 9.078125 54.6875 
L 18.109375 54.6875 
L 18.109375 46.1875 
Q 21.1875 51.21875 25.484375 53.609375 
Q 29.78125 56 35.6875 56 
Q 41.65625 56 45.828125 52.96875 
Q 50 49.953125 52 44.1875 
" id="BitstreamVeraSans-Roman-6d"/>
      <path d="M 9.421875 54.6875 
L 18.40625 54.6875 
L 18.40625 0 
L 9.421875 0 
z
M 9.421875 75.984375 
L 18.40625 75.984375 
L 18.40625 64.59375 
L 9.421875 64.59375 
z
" id="BitstreamVeraSans-Roman-69"/>
      <path d="M 56.203125 29.59375 
L 56.203125 25.203125 
L 14.890625 25.203125 
Q 15.484375 15.921875 20.484375 11.0625 
Q 25.484375 6.203125 34.421875 6.203125 
Q 39.59375 6.203125 44.453125 7.46875 
Q 49.3125 8.734375 54.109375 11.28125 
L 54.109375 2.78125 
Q 49.265625 0.734375 44.1875 -0.34375 
Q 39.109375 -1.421875 33.890625 -1.421875 
Q 20.796875 -1.421875 13.15625 6.1875 
Q 5.515625 13.8125 5.515625 26.8125 
Q 5.515625 40.234375 12.765625 48.109375 
Q 20.015625 56 32.328125 56 
Q 43.359375 56 49.78125 48.890625 
Q 56.203125 41.796875 56.203125 29.59375 
M 47.21875 32.234375 
Q 47.125 39.59375 43.09375 43.984375 
Q 39.0625 48.390625 32.421875 48.390625 
Q 24.90625 48.390625 20.390625 44.140625 
Q 15.875 39.890625 15.1875 32.171875 
z
" id="BitstreamVeraSans-Roman-65"/>
      <path d="M -0.296875 72.90625 
L 61.375 72.90625 
L 61.375 64.59375 
L 35.5 64.59375 
L 35.5 0 
L 25.59375 0 
L 25.59375 64.59375 
L -0.296875 64.59375 
z
" id="BitstreamVeraSans-Roman-54"/>
      <path d="M 44.28125 53.078125 
L 44.28125 44.578125 
Q 40.484375 46.53125 36.375 47.5 
Q 32.28125 48.484375 27.875 48.484375 
Q 21.1875 48.484375 17.84375 46.4375 
Q 14.5 44.390625 14.5 40.28125 
Q 14.5 37.15625 16.890625 35.375 
Q 19.28125 33.59375 26.515625 31.984375 
L 29.59375 31.296875 
Q 39.15625 29.25 43.1875 25.515625 
Q 47.21875 21.78125 47.21875 15.09375 
Q 47.21875 7.46875 41.1875 3.015625 
Q 35.15625 -1.421875 24.609375 -1.421875 
Q 20.21875 -1.421875 15.453125 -0.5625 
Q 10.6875 0.296875 5.421875 2 
L 5.421875 11.28125 
Q 10.40625 8.6875 15.234375 7.390625 
Q 20.0625 6.109375 24.8125 6.109375 
Q 31.15625 6.109375 34.5625 8.28125 
Q 37.984375 10.453125 37.984375 14.40625 
Q 37.984375 18.0625 35.515625 20.015625 
Q 33.0625 21.96875 24.703125 23.78125 
L 21.578125 24.515625 
Q 13.234375 26.265625 9.515625 29.90625 
Q 5.8125 33.546875 5.8125 39.890625 
Q 5.8125 47.609375 11.28125 51.796875 
Q 16.75 56 26.8125 56 
Q 31.78125 56 36.171875 55.265625 
Q 40.578125 54.546875 44.28125 53.078125 
" id="BitstreamVeraSans-Roman-73"/>
     </defs>
     <g transform="translate(270.620625 418.531875)scale(0.12 -0.12)">
      <use xlink:href="#BitstreamVeraSans-Roman-54"/>
      <use x="61.037109375" xlink:href="#BitstreamVeraSans-Roman-69"/>
      <use x="88.8203125" xlink:href="#BitstreamVeraSans-Roman-6d"/>
      <use x="186.232421875" xlink:href="#BitstreamVeraSans-Roman-65"/>
      <use x="247.755859375" xlink:href="#BitstreamVeraSans-Roman-20"/>
      <use x="279.54296875" xlink:href="#BitstreamVeraSans-Roman-5b"/>
      <use x="318.556640625" xlink:href="#BitstreamVeraSans-Roman-73"/>
      <use x="370.65625" xlink:href="#BitstreamVeraSans-Roman-5d"/>
     </g>
    </g>
   </g>
   <g id="matplotlib.axis_2">
    <g id="ytick_1">
     <g id="line2d_25">
      <path clip-path="url(#p6d9233097b)" d="M 72 388.8 
L 518.4 388.8 
" style="fill:none;stroke:#000000;stroke-dasharray:1.000000,3.000000;stroke-dashoffset:0.0;stroke-width:0.5;"/>
     </g>
     <g id="line2d_26">
      <defs>
       <path d="M 0 0 
L 4 0 
" id="m6fda9ec28d" style="stroke:#000000;stroke-width:0.5;"/>
      </defs>
      <g>
       <use style="stroke:#000000;stroke-width:0.5;" x="72.0" xlink:href="#m6fda9ec28d" y="388.8"/>
      </g>
     </g>
     <g id="line2d_27">
      <defs>
       <path d="M 0 0 
L -4 0 
" id="ma5acc69b6c" style="stroke:#000000;stroke-width:0.5;"/>
      </defs>
      <g>
       <use style="stroke:#000000;stroke-width:0.5;" x="518.4" xlink:href="#ma5acc69b6c" y="388.8"/>
      </g>
     </g>
     <g id="text_9">
      <!-- −0.6 -->
      <defs>
       <path d="M 10.59375 35.5 
L 73.1875 35.5 
L 73.1875 27.203125 
L 10.59375 27.203125 
z
" id="BitstreamVeraSans-Roman-2212"/>
       <path d="M 33.015625 40.375 
Q 26.375 40.375 22.484375 35.828125 
Q 18.609375 31.296875 18.609375 23.390625 
Q 18.609375 15.53125 22.484375 10.953125 
Q 26.375 6.390625 33.015625 6.390625 
Q 39.65625 6.390625 43.53125 10.953125 
Q 47.40625 15.53125 47.40625 23.390625 
Q 47.40625 31.296875 43.53125 35.828125 
Q 39.65625 40.375 33.015625 40.375 
M 52.59375 71.296875 
L 52.59375 62.3125 
Q 48.875 64.0625 45.09375 64.984375 
Q 41.3125 65.921875 37.59375 65.921875 
Q 27.828125 65.921875 22.671875 59.328125 
Q 17.53125 52.734375 16.796875 39.40625 
Q 19.671875 43.65625 24.015625 45.921875 
Q 28.375 48.1875 33.59375 48.1875 
Q 44.578125 48.1875 50.953125 41.515625 
Q 57.328125 34.859375 57.328125 23.390625 
Q 57.328125 12.15625 50.6875 5.359375 
Q 44.046875 -1.421875 33.015625 -1.421875 
Q 20.359375 -1.421875 13.671875 8.265625 
Q 6.984375 17.96875 6.984375 36.375 
Q 6.984375 53.65625 15.1875 63.9375 
Q 23.390625 74.21875 37.203125 74.21875 
Q 40.921875 74.21875 44.703125 73.484375 
Q 48.484375 72.75 52.59375 71.296875 
" id="BitstreamVeraSans-Roman-36"/>
       <path d="M 10.6875 12.40625 
L 21 12.40625 
L 21 0 
L 10.6875 0 
z
" id="BitstreamVeraSans-Roman-2e"/>
      </defs>
      <g transform="translate(38.860625 392.11125)scale(0.12 -0.12)">
       <use xlink:href="#BitstreamVeraSans-Roman-2212"/>
       <use x="83.7890625" xlink:href="#BitstreamVeraSans-Roman-30"/>
       <use x="147.412109375" xlink:href="#BitstreamVeraSans-Roman-2e"/>
       <use x="179.19921875" xlink:href="#BitstreamVeraSans-Roman-36"/>
      </g>
     </g>
    </g>
    <g id="ytick_2">
     <g id="line2d_28">
      <path clip-path="url(#p6d9233097b)" d="M 72 331.2 
L 518.4 331.2 
" style="fill:none;stroke:#000000;stroke-dasharray:1.000000,3.000000;stroke-dashoffset:0.0;stroke-width:0.5;"/>
     </g>
     <g id="line2d_29">
      <g>
       <use style="stroke:#000000;stroke-width:0.5;" x="72.0" xlink:href="#m6fda9ec28d" y="331.2"/>
      </g>
     </g>
     <g id="line2d_30">
      <g>
       <use style="stroke:#000000;stroke-width:0.5;" x="518.4" xlink:href="#ma5acc69b6c" y="331.2"/>
      </g>
     </g>
     <g id="text_10">
      <!-- −0.4 -->
      <defs>
       <path d="M 37.796875 64.3125 
L 12.890625 25.390625 
L 37.796875 25.390625 
z
M 35.203125 72.90625 
L 47.609375 72.90625 
L 47.609375 25.390625 
L 58.015625 25.390625 
L 58.015625 17.1875 
L 47.609375 17.1875 
L 47.609375 0 
L 37.796875 0 
L 37.796875 17.1875 
L 4.890625 17.1875 
L 4.890625 26.703125 
z
" id="BitstreamVeraSans-Roman-34"/>
      </defs>
      <g transform="translate(38.860625 334.51125)scale(0.12 -0.12)">
       <use xlink:href="#BitstreamVeraSans-Roman-2212"/>
       <use x="83.7890625" xlink:href="#BitstreamVeraSans-Roman-30"/>
       <use x="147.412109375" xlink:href="#BitstreamVeraSans-Roman-2e"/>
       <use x="179.19921875" xlink:href="#BitstreamVeraSans-Roman-34"/>
      </g>
     </g>
    </g>
    <g id="ytick_3">
     <g id="line2d_31">
      <path clip-path="url(#p6d9233097b)" d="M 72 273.6 
L 518.4 273.6 
" style="fill:none;stroke:#000000;stroke-dasharray:1.000000,3.000000;stroke-dashoffset:0.0;stroke-width:0.5;"/>
     </g>
     <g id="line2d_32">
      <g>
       <use style="stroke:#000000;stroke-width:0.5;" x="72.0" xlink:href="#m6fda9ec28d" y="273.6"/>
      </g>
     </g>
     <g id="line2d_33">
      <g>
       <use style="stroke:#000000;stroke-width:0.5;" x="518.4" xlink:href="#ma5acc69b6c" y="273.6"/>
      </g>
     </g>
     <g id="text_11">
      <!-- −0.2 -->
      <g transform="translate(38.860625 276.91125)scale(0.12 -0.12)">
       <use xlink:href="#BitstreamVeraSans-Roman-2212"/>
       <use x="83.7890625" xlink:href="#BitstreamVeraSans-Roman-30"/>
       <use x="147.412109375" xlink:href="#BitstreamVeraSans-Roman-2e"/>
       <use x="179.19921875" xlink:href="#BitstreamVeraSans-Roman-32"/>
      </g>
     </g>
    </g>
    <g id="ytick_4">
     <g id="line2d_34">
      <path clip-path="url(#p6d9233097b)" d="M 72 216 
L 518.4 216 
" style="fill:none;stroke:#000000;stroke-dasharray:1.000000,3.000000;stroke-dashoffset:0.0;stroke-width:0.5;"/>
     </g>
     <g id="line2d_35">
      <g>
       <use style="stroke:#000000;stroke-width:0.5;" x="72.0" xlink:href="#m6fda9ec28d" y="216.0"/>
      </g>
     </g>
     <g id="line2d_36">
      <g>
       <use style="stroke:#000000;stroke-width:0.5;" x="518.4" xlink:href="#ma5acc69b6c" y="216.0"/>
      </g>
     </g>
     <g id="text_12">
      <!-- 0.0 -->
      <g transform="translate(48.91625 219.31125)scale(0.12 -0.12)">
       <use xlink:href="#BitstreamVeraSans-Roman-30"/>
       <use x="63.623046875" xlink:href="#BitstreamVeraSans-Roman-2e"/>
       <use x="95.41015625" xlink:href="#BitstreamVeraSans-Roman-30"/>
      </g>
     </g>
    </g>
    <g id="ytick_5">
     <g id="line2d_37">
      <path clip-path="url(#p6d9233097b)" d="M 72 158.4 
L 518.4 158.4 
" style="fill:none;stroke:#000000;stroke-dasharray:1.000000,3.000000;stroke-dashoffset:0.0;stroke-width:0.5;"/>
     </g>
     <g id="line2d_38">
      <g>
       <use style="stroke:#000000;stroke-width:0.5;" x="72.0" xlink:href="#m6fda9ec28d" y="158.4"/>
      </g>
     </g>
     <g id="line2d_39">
      <g>
       <use style="stroke:#000000;stroke-width:0.5;" x="518.4" xlink:href="#ma5acc69b6c" y="158.4"/>
      </g>
     </g>
     <g id="text_13">
      <!-- 0.2 -->
      <g transform="translate(48.91625 161.71125)scale(0.12 -0.12)">
       <use xlink:href="#BitstreamVeraSans-Roman-30"/>
       <use x="63.623046875" xlink:href="#BitstreamVeraSans-Roman-2e"/>
       <use x="95.41015625" xlink:href="#BitstreamVeraSans-Roman-32"/>
      </g>
     </g>
    </g>
    <g id="ytick_6">
     <g id="line2d_40">
      <path clip-path="url(#p6d9233097b)" d="M 72 100.8 
L 518.4 100.8 
" style="fill:none;stroke:#000000;stroke-dasharray:1.000000,3.000000;stroke-dashoffset:0.0;stroke-width:0.5;"/>
     </g>
     <g id="line2d_41">
      <g>
       <use style="stroke:#000000;stroke-width:0.5;" x="72.0" xlink:href="#m6fda9ec28d" y="100.8"/>
      </g>
     </g>
     <g id="line2d_42">
      <g>
       <use style="stroke:#000000;stroke-width:0.5;" x="518.4" xlink:href="#ma5acc69b6c" y="100.8"/>
      </g>
     </g>
     <g id="text_14">
      <!-- 0.4 -->
      <g transform="translate(48.91625 104.11125)scale(0.12 -0.12)">
       <use xlink:href="#BitstreamVeraSans-Roman-30"/>
       <use x="63.623046875" xlink:href="#BitstreamVeraSans-Roman-2e"/>
       <use x="95.41015625" xlink:href="#BitstreamVeraSans-Roman-34"/>
      </g>
     </g>
    </g>
    <g id="ytick_7">
     <g id="line2d_43">
      <path clip-path="url(#p6d9233097b)" d="M 72 43.2 
L 518.4 43.2 
" style="fill:none;stroke:#000000;stroke-dasharray:1.000000,3.000000;stroke-dashoffset:0.0;stroke-width:0.5;"/>
     </g>
     <g id="line2d_44">
      <g>
       <use style="stroke:#000000;stroke-width:0.5;" x="72.0" xlink:href="#m6fda9ec28d" y="43.2"/>
      </g>
     </g>
     <g id="line2d_45">
      <g>
       <use style="stroke:#000000;stroke-width:0.5;" x="518.4" xlink:href="#ma5acc69b6c" y="43.2"/>
      </g>
     </g>
     <g id="text_15">
      <!-- 0.6 -->
      <g transform="translate(48.91625 46.51125)scale(0.12 -0.12)">
       <use xlink:href="#BitstreamVeraSans-Roman-30"/>
       <use x="63.623046875" xlink:href="#BitstreamVeraSans-Roman-2e"/>
       <use x="95.41015625" xlink:href="#BitstreamVeraSans-Roman-36"/>
      </g>
     </g>
    </g>
    <g id="text_16">
     <!-- Acceleration [m/s^2] -->
     <defs>
      <path d="M 46.6875 72.90625 
L 73.1875 45.703125 
L 63.375 45.703125 
L 41.890625 64.984375 
L 20.40625 45.703125 
L 10.59375 45.703125 
L 37.109375 72.90625 
z
" id="BitstreamVeraSans-Roman-5e"/>
      <path d="M 54.890625 33.015625 
L 54.890625 0 
L 45.90625 0 
L 45.90625 32.71875 
Q 45.90625 40.484375 42.875 44.328125 
Q 39.84375 48.1875 33.796875 48.1875 
Q 26.515625 48.1875 22.3125 43.546875 
Q 18.109375 38.921875 18.109375 30.90625 
L 18.109375 0 
L 9.078125 0 
L 9.078125 54.6875 
L 18.109375 54.6875 
L 18.109375 46.1875 
Q 21.34375 51.125 25.703125 53.5625 
Q 30.078125 56 35.796875 56 
Q 45.21875 56 50.046875 50.171875 
Q 54.890625 44.34375 54.890625 33.015625 
" id="BitstreamVeraSans-Roman-6e"/>
      <path d="M 41.109375 46.296875 
Q 39.59375 47.171875 37.8125 47.578125 
Q 36.03125 48 33.890625 48 
Q 26.265625 48 22.1875 43.046875 
Q 18.109375 38.09375 18.109375 28.8125 
L 18.109375 0 
L 9.078125 0 
L 9.078125 54.6875 
L 18.109375 54.6875 
L 18.109375 46.1875 
Q 20.953125 51.171875 25.484375 53.578125 
Q 30.03125 56 36.53125 56 
Q 37.453125 56 38.578125 55.875 
Q 39.703125 55.765625 41.0625 55.515625 
z
" id="BitstreamVeraSans-Roman-72"/>
      <path d="M 30.609375 48.390625 
Q 23.390625 48.390625 19.1875 42.75 
Q 14.984375 37.109375 14.984375 27.296875 
Q 14.984375 17.484375 19.15625 11.84375 
Q 23.34375 6.203125 30.609375 6.203125 
Q 37.796875 6.203125 41.984375 11.859375 
Q 46.1875 17.53125 46.1875 27.296875 
Q 46.1875 37.015625 41.984375 42.703125 
Q 37.796875 48.390625 30.609375 48.390625 
M 30.609375 56 
Q 42.328125 56 49.015625 48.375 
Q 55.71875 40.765625 55.71875 27.296875 
Q 55.71875 13.875 49.015625 6.21875 
Q 42.328125 -1.421875 30.609375 -1.421875 
Q 18.84375 -1.421875 12.171875 6.21875 
Q 5.515625 13.875 5.515625 27.296875 
Q 5.515625 40.765625 12.171875 48.375 
Q 18.84375 56 30.609375 56 
" id="BitstreamVeraSans-Roman-6f"/>
      <path d="M 9.421875 75.984375 
L 18.40625 75.984375 
L 18.40625 0 
L 9.421875 0 
z
" id="BitstreamVeraSans-Roman-6c"/>
      <path d="M 34.1875 63.1875 
L 20.796875 26.90625 
L 47.609375 26.90625 
z
M 28.609375 72.90625 
L 39.796875 72.90625 
L 67.578125 0 
L 57.328125 0 
L 50.6875 18.703125 
L 17.828125 18.703125 
L 11.1875 0 
L 0.78125 0 
z
" id="BitstreamVeraSans-Roman-41"/>
      <path d="M 25.390625 72.90625 
L 33.6875 72.90625 
L 8.296875 -9.28125 
L 0 -9.28125 
z
" id="BitstreamVeraSans-Roman-2f"/>
      <path d="M 18.3125 70.21875 
L 18.3125 54.6875 
L 36.8125 54.6875 
L 36.8125 47.703125 
L 18.3125 47.703125 
L 18.3125 18.015625 
Q 18.3125 11.328125 20.140625 9.421875 
Q 21.96875 7.515625 27.59375 7.515625 
L 36.8125 7.515625 
L 36.8125 0 
L 27.59375 0 
Q 17.1875 0 13.234375 3.875 
Q 9.28125 7.765625 9.28125 18.015625 
L 9.28125 47.703125 
L 2.6875 47.703125 
L 2.6875 54.6875 
L 9.28125 54.6875 
L 9.28125 70.21875 
z
" id="BitstreamVeraSans-Roman-74"/>
      <path d="M 34.28125 27.484375 
Q 23.390625 27.484375 19.1875 25 
Q 14.984375 22.515625 14.984375 16.5 
Q 14.984375 11.71875 18.140625 8.90625 
Q 21.296875 6.109375 26.703125 6.109375 
Q 34.1875 6.109375 38.703125 11.40625 
Q 43.21875 16.703125 43.21875 25.484375 
L 43.21875 27.484375 
z
M 52.203125 31.203125 
L 52.203125 0 
L 43.21875 0 
L 43.21875 8.296875 
Q 40.140625 3.328125 35.546875 0.953125 
Q 30.953125 -1.421875 24.3125 -1.421875 
Q 15.921875 -1.421875 10.953125 3.296875 
Q 6 8.015625 6 15.921875 
Q 6 25.140625 12.171875 29.828125 
Q 18.359375 34.515625 30.609375 34.515625 
L 43.21875 34.515625 
L 43.21875 35.40625 
Q 43.21875 41.609375 39.140625 45 
Q 35.0625 48.390625 27.6875 48.390625 
Q 23 48.390625 18.546875 47.265625 
Q 14.109375 46.140625 10.015625 43.890625 
L 10.015625 52.203125 
Q 14.9375 54.109375 19.578125 55.046875 
Q 24.21875 56 28.609375 56 
Q 40.484375 56 46.34375 49.84375 
Q 52.203125 43.703125 52.203125 31.203125 
" id="BitstreamVeraSans-Roman-61"/>
      <path d="M 48.78125 52.59375 
L 48.78125 44.1875 
Q 44.96875 46.296875 41.140625 47.34375 
Q 37.3125 48.390625 33.40625 48.390625 
Q 24.65625 48.390625 19.8125 42.84375 
Q 14.984375 37.3125 14.984375 27.296875 
Q 14.984375 17.28125 19.8125 11.734375 
Q 24.65625 6.203125 33.40625 6.203125 
Q 37.3125 6.203125 41.140625 7.25 
Q 44.96875 8.296875 48.78125 10.40625 
L 48.78125 2.09375 
Q 45.015625 0.34375 40.984375 -0.53125 
Q 36.96875 -1.421875 32.421875 -1.421875 
Q 20.0625 -1.421875 12.78125 6.34375 
Q 5.515625 14.109375 5.515625 27.296875 
Q 5.515625 40.671875 12.859375 48.328125 
Q 20.21875 56 33.015625 56 
Q 37.15625 56 41.109375 55.140625 
Q 45.0625 54.296875 48.78125 52.59375 
" id="BitstreamVeraSans-Roman-63"/>
     </defs>
     <g transform="translate(31.365 279.81375)rotate(-90.0)scale(0.12 -0.12)">
      <use xlink:href="#BitstreamVeraSans-Roman-41"/>
      <use x="68.392578125" xlink:href="#BitstreamVeraSans-Roman-63"/>
      <use x="123.373046875" xlink:href="#BitstreamVeraSans-Roman-63"/>
      <use x="178.353515625" xlink:href="#BitstreamVeraSans-Roman-65"/>
      <use x="239.876953125" xlink:href="#BitstreamVeraSans-Roman-6c"/>
      <use x="267.66015625" xlink:href="#BitstreamVeraSans-Roman-65"/>
      <use x="329.18359375" xlink:href="#BitstreamVeraSans-Roman-72"/>
      <use x="370.296875" xlink:href="#BitstreamVeraSans-Roman-61"/>
      <use x="431.576171875" xlink:href="#BitstreamVeraSans-Roman-74"/>
      <use x="470.78515625" xlink:href="#BitstreamVeraSans-Roman-69"/>
      <use x="498.568359375" xlink:href="#BitstreamVeraSans-Roman-6f"/>
      <use x="559.75" xlink:href="#BitstreamVeraSans-Roman-6e"/>
      <use x="623.12890625" xlink:href="#BitstreamVeraSans-Roman-20"/>
      <use x="654.916015625" xlink:href="#BitstreamVeraSans-Roman-5b"/>
      <use x="693.9296875" xlink:href="#BitstreamVeraSans-Roman-6d"/>
      <use x="791.341796875" xlink:href="#BitstreamVeraSans-Roman-2f"/>
      <use x="825.033203125" xlink:href="#BitstreamVeraSans-Roman-73"/>
      <use x="877.1328125" xlink:href="#BitstreamVeraSans-Roman-5e"/>
      <use x="960.921875" xlink:href="#BitstreamVeraSans-Roman-32"/>
      <use x="1024.54492188" xlink:href="#BitstreamVeraSans-Roman-5d"/>
     </g>
    </g>
   </g>
   <g id="legend_1">
    <g id="patch_7">
     <path d="M 250.5195 249.86475 
L 339.8805 249.86475 
L 339.8805 182.13525 
L 250.5195 182.13525 
z
" style="fill:#ffffff;stroke:#000000;stroke-linejoin:miter;"/>
    </g>
    <g id="line2d_46">
     <path d="M 260.5995 193.797 
L 280.7595 193.797 
" style="fill:none;stroke:#008000;stroke-linecap:square;"/>
    </g>
    <g id="line2d_47"/>
    <g id="text_17">
     <!-- accel -->
     <g transform="translate(296.5995 198.837)scale(0.144 -0.144)">
      <use xlink:href="#BitstreamVeraSans-Roman-61"/>
      <use x="61.279296875" xlink:href="#BitstreamVeraSans-Roman-63"/>
      <use x="116.259765625" xlink:href="#BitstreamVeraSans-Roman-63"/>
      <use x="171.240234375" xlink:href="#BitstreamVeraSans-Roman-65"/>
      <use x="232.763671875" xlink:href="#BitstreamVeraSans-Roman-6c"/>
     </g>
    </g>
    <g id="line2d_48">
     <path d="M 260.5995 214.9335 
L 280.7595 214.9335 
" style="fill:none;stroke:#000000;stroke-dasharray:6.000000,6.000000;stroke-dashoffset:0.0;"/>
    </g>
    <g id="line2d_49"/>
    <g id="text_18">
     <!-- max -->
     <defs>
      <path d="M 54.890625 54.6875 
L 35.109375 28.078125 
L 55.90625 0 
L 45.3125 0 
L 29.390625 21.484375 
L 13.484375 0 
L 2.875 0 
L 24.125 28.609375 
L 4.6875 54.6875 
L 15.28125 54.6875 
L 29.78125 35.203125 
L 44.28125 54.6875 
z
" id="BitstreamVeraSans-Roman-78"/>
     </defs>
     <g transform="translate(296.5995 219.9735)scale(0.144 -0.144)">
      <use xlink:href="#BitstreamVeraSans-Roman-6d"/>
      <use x="97.412109375" xlink:href="#BitstreamVeraSans-Roman-61"/>
      <use x="158.69140625" xlink:href="#BitstreamVeraSans-Roman-78"/>
     </g>
    </g>
    <g id="line2d_50">
     <path d="M 260.5995 236.07 
L 280.7595 236.07 
" style="fill:none;stroke:#000000;stroke-dasharray:6.000000,6.000000;stroke-dashoffset:0.0;"/>
    </g>
    <g id="line2d_51"/>
    <g id="text_19">
     <!-- min -->
     <g transform="translate(296.5995 241.11)scale(0.144 -0.144)">
      <use xlink:href="#BitstreamVeraSans-Roman-6d"/>
      <use x="97.412109375" xlink:href="#BitstreamVeraSans-Roman-69"/>
      <use x="125.1953125" xlink:href="#BitstreamVeraSans-Roman-6e"/>
     </g>
    </g>
   </g>
  </g>
 </g>
 <defs>
  <clipPath id="p6d9233097b">
   <rect height="345.6" width="446.4" x="72.0" y="43.2"/>
  </clipPath>
 </defs>
</svg>
