<?xml version="1.0" encoding="utf-8" standalone="no"?>
<!DOCTYPE svg PUBLIC "-//W3C//DTD SVG 1.1//EN"
  "http://www.w3.org/Graphics/SVG/1.1/DTD/svg11.dtd">
<!-- Created with matplotlib (http://matplotlib.org/) -->
<svg height="432pt" version="1.1" viewBox="0 0 576 432" width="576pt" xmlns="http://www.w3.org/2000/svg" xmlns:xlink="http://www.w3.org/1999/xlink">
 <defs>
  <style type="text/css">
*{stroke-linecap:butt;stroke-linejoin:round;stroke-miterlimit:100000;}
  </style>
 </defs>
 <g id="figure_1">
  <g id="patch_1">
   <path d="M 0 432 
L 576 432 
L 576 0 
L 0 0 
z
" style="fill:#ffffff;"/>
  </g>
  <g id="axes_1">
   <g id="patch_2">
    <path d="M 72 388.8 
L 518.4 388.8 
L 518.4 43.2 
L 72 43.2 
z
" style="fill:#ffffff;"/>
   </g>
   <g id="line2d_1">
    <path clip-path="url(#pe196c64281)" d="M 72.1488 183.367715 
L 106.6704 183.367715 
L 106.8192 182.087405 
L 106.968 182.734983 
L 107.4144 189.148521 
L 107.8608 196.677802 
L 108.3072 201.599441 
L 108.456 201.599441 
L 108.6048 202.715959 
L 108.7536 202.715959 
L 108.9024 203.832373 
L 109.2 203.832373 
L 109.3488 204.948678 
L 109.6464 204.948678 
L 109.7952 206.064108 
L 110.2416 206.064108 
L 110.3904 207.180205 
L 111.1344 207.180205 
L 111.2832 208.296196 
L 111.5808 208.296196 
L 111.7296 209.412081 
L 112.4736 209.412081 
L 112.6224 210.527092 
L 113.2176 210.527092 
L 113.3664 211.642769 
L 114.2592 211.642769 
L 114.408 212.758338 
L 115.7472 212.758338 
L 115.896 213.873804 
L 117.2352 213.873804 
L 117.384 214.989161 
L 120.5088 214.989161 
L 120.6576 216.103646 
L 123.6336 216.103646 
L 123.7824 214.989161 
L 124.2288 214.989161 
L 124.3776 216.103646 
L 124.5264 216.103646 
L 124.6752 214.989161 
L 129.7344 214.989161 
L 129.8832 213.873804 
L 133.1568 213.873804 
L 133.3056 212.758338 
L 135.8352 212.758338 
L 135.984 211.642769 
L 138.8112 211.642769 
L 138.96 210.527092 
L 141.0432 210.527092 
L 141.192 209.412081 
L 143.7216 209.412081 
L 143.8704 208.296196 
L 146.2512 208.296196 
L 146.4 207.180205 
L 149.0784 207.180205 
L 149.2272 206.064108 
L 151.4592 206.064108 
L 151.608 204.948678 
L 154.1376 204.948678 
L 154.2864 203.832373 
L 156.6672 203.832373 
L 156.816 202.715959 
L 159.4944 202.715959 
L 159.6432 201.599441 
L 162.768 201.599441 
L 162.9168 200.48359 
L 165.8928 200.48359 
L 166.0416 199.366862 
L 169.3152 199.366862 
L 169.464 198.250028 
L 172.5888 198.250028 
L 172.7376 197.13309 
L 176.3088 197.13309 
L 176.4576 196.016045 
L 179.7312 196.016045 
L 179.88 194.899668 
L 183.4512 194.899668 
L 183.6 193.782414 
L 187.6176 193.782414 
L 187.7664 192.665054 
L 192.9744 192.665054 
L 193.1232 191.547588 
L 200.4144 191.547588 
L 200.5632 190.43079 
L 208.5984 190.43079 
L 208.7472 189.313115 
L 217.5264 189.313115 
L 217.6752 188.195333 
L 222.5856 188.195333 
L 224.6688 212.467534 
L 224.8176 213.118881 
L 224.9664 214.886414 
L 225.1152 214.886414 
L 225.264 215.537246 
L 225.7104 220.375329 
L 225.8592 220.375329 
L 226.008 221.027615 
L 226.4544 225.216211 
L 226.6032 225.216211 
L 226.9008 228.289229 
L 227.0496 228.941683 
L 227.3472 231.364266 
L 227.496 232.017153 
L 227.9424 236.209458 
L 228.0912 235.747245 
L 228.3888 239.287385 
L 228.5376 238.824867 
L 228.8352 241.249505 
L 228.984 241.903849 
L 229.4304 246.101124 
L 229.728 247.411022 
L 230.0256 250.953897 
L 230.1744 250.493872 
L 230.6208 254.693444 
L 230.9184 256.005572 
L 231.216 258.434397 
L 231.3648 259.091748 
L 231.8112 263.29439 
L 231.96 263.951484 
L 232.4064 268.155417 
L 232.5552 267.697911 
L 233.0016 271.903626 
L 233.1504 272.561838 
L 233.5968 276.768949 
L 234.0432 278.746427 
L 234.3408 281.180705 
L 234.4896 281.840977 
L 234.7872 285.391669 
L 234.936 284.935908 
L 235.5312 290.92369 
L 235.8288 292.245922 
L 236.1264 294.683321 
L 236.424 296.005986 
L 236.7216 298.445342 
L 236.8704 299.1072 
L 237.168 301.546607 
L 237.3168 302.208887 
L 237.7632 306.427658 
L 238.0608 307.753206 
L 238.3584 311.309759 
L 238.5072 310.857778 
L 239.1024 316.858383 
L 239.2512 316.407196 
L 239.5488 318.850795 
L 239.6976 319.51598 
L 240.144 323.740127 
L 240.2928 324.405054 
L 240.7392 328.630509 
L 240.888 328.181824 
L 241.0368 328.181824 
L 241.1856 331.743073 
L 241.3344 332.408947 
L 241.632 334.855894 
L 241.7808 335.522201 
L 242.0784 337.970745 
L 242.2272 338.637474 
L 242.5248 342.867873 
L 242.8224 344.202547 
L 242.9712 345.984743 
L 243.12 345.984743 
L 243.4176 347.321271 
L 243.7152 349.77208 
L 244.0128 351.109607 
L 244.3104 353.561498 
L 244.4592 354.23039 
L 245.0544 360.25073 
L 245.5008 362.260507 
L 245.7984 364.714963 
L 246.096 366.056455 
L 246.2448 364.498154 
L 246.5424 366.954732 
L 246.6912 366.512154 
L 246.9888 367.855336 
L 247.2864 366.970449 
L 247.4352 365.413817 
L 247.584 367.201677 
L 247.7328 364.529939 
L 247.8816 366.318603 
L 248.328 364.993631 
L 248.4768 363.437205 
L 248.6256 365.227619 
L 248.7744 364.786278 
L 248.9232 362.113386 
L 249.072 363.904996 
L 249.2208 361.231878 
L 249.5184 360.351172 
L 249.6672 362.144327 
L 249.816 359.470776 
L 250.1136 361.941711 
L 251.0064 359.306496 
L 251.1552 358.429211 
L 251.304 360.226505 
L 251.4528 359.787862 
L 251.6016 360.467497 
L 253.2384 355.658513 
L 253.3872 355.658513 
L 253.6848 353.666678 
L 254.1312 352.3597 
L 254.28 349.683884 
L 254.4288 349.248104 
L 254.5776 351.05367 
L 255.024 349.748463 
L 255.3216 347.758781 
L 255.6192 346.888921 
L 255.768 348.697442 
L 255.9168 348.263671 
L 256.0656 345.586742 
L 256.3632 344.71954 
L 256.512 346.530028 
L 256.6608 343.852667 
L 256.9584 342.986598 
L 257.1072 343.676079 
L 257.5536 342.378123 
L 257.7024 344.191578 
L 257.8512 341.513568 
L 259.0416 338.061959 
L 259.1904 339.879359 
L 259.488 337.893848 
L 259.6368 337.463094 
L 259.7856 339.281884 
L 259.9344 336.602566 
L 260.8272 334.025132 
L 260.976 335.847095 
L 261.1248 333.166921 
L 261.4224 332.309051 
L 261.5712 334.132589 
L 261.72 331.450747 
L 261.8688 332.149344 
L 262.0176 331.720681 
L 262.1664 333.54561 
L 262.3152 330.864345 
L 262.464 332.690067 
L 263.6544 329.272766 
L 263.8032 326.589657 
L 263.952 328.419345 
L 264.1008 325.736803 
L 264.2496 327.567283 
L 264.3984 327.141741 
L 264.696 325.161637 
L 265.5888 322.610808 
L 265.7376 324.445058 
L 265.8864 324.020206 
L 266.0352 321.336521 
L 266.7792 319.21665 
L 266.928 319.923487 
L 267.2256 319.077038 
L 267.3744 320.915459 
L 268.416 317.958317 
L 268.7136 316.693733 
L 268.8624 318.53613 
L 269.16 317.693894 
L 269.4576 316.431245 
L 269.6064 318.27564 
L 269.904 317.435217 
L 270.2016 316.175298 
L 270.4992 318.73583 
L 270.648 318.316221 
L 270.9456 317.059073 
L 271.0944 316.640834 
L 271.2432 318.48941 
L 271.5408 317.652952 
L 271.8384 316.398987 
L 271.9872 318.249551 
L 272.5824 316.580879 
L 272.88 315.330549 
L 273.3264 314.081558 
L 273.4752 315.936119 
L 274.6656 312.614471 
L 274.9632 311.370929 
L 275.4096 310.129518 
L 275.5584 308.578242 
L 275.7072 310.438993 
L 276.6 307.961322 
L 276.8976 306.724124 
L 277.0464 306.312549 
L 277.1952 308.177306 
L 278.2368 305.298566 
L 278.5344 304.066868 
L 278.832 303.246755 
L 278.9808 305.116323 
L 279.576 303.478601 
L 279.8736 302.251518 
L 280.32 301.026587 
L 280.4688 302.900161 
L 281.064 301.269216 
L 281.3616 300.047211 
L 281.6592 299.233567 
L 281.808 301.110756 
L 282.2544 299.891562 
L 282.552 297.531987 
L 282.8496 300.886254 
L 283.5936 298.862325 
L 283.8912 297.650454 
L 285.0816 294.423697 
L 285.2304 296.310341 
L 285.528 294.360869 
L 287.4624 289.145522 
L 287.76 286.799336 
L 288.6528 284.404032 
L 288.8016 288.197477 
L 289.3968 286.604312 
L 289.5456 285.809073 
L 289.8432 283.865812 
L 290.4384 282.278414 
L 290.5872 284.180189 
L 290.736 281.485421 
L 290.8848 283.388009 
L 292.0752 280.224637 
L 292.3728 277.889926 
L 292.8192 276.708047 
L 292.968 278.616496 
L 293.1168 275.919627 
L 293.2656 277.828879 
L 294.6048 274.294585 
L 294.9024 272.359068 
L 295.2 271.184482 
L 296.2416 268.449875 
L 296.3904 270.367841 
L 296.5392 267.66987 
L 296.688 269.58866 
L 297.1344 268.420315 
L 297.432 266.487626 
L 298.4736 263.770611 
L 298.7712 262.608008 
L 298.92 262.220524 
L 299.2176 260.290271 
L 299.664 259.131335 
L 299.8128 261.059065 
L 300.8544 258.360394 
L 301.0032 256.432839 
L 301.7472 254.511521 
L 301.896 256.445152 
L 302.64 254.52955 
L 302.7888 252.986879 
L 303.384 251.457613 
L 303.6816 250.311969 
L 303.9792 249.549283 
L 304.128 251.489238 
L 304.4256 250.727556 
L 304.5744 249.186317 
L 304.872 248.425598 
L 305.1696 247.285341 
L 306.2112 244.630989 
L 306.36 246.577279 
L 306.5088 242.711087 
L 306.6576 244.658401 
L 307.848 241.639116 
L 307.9968 240.885937 
L 308.1456 239.345763 
L 308.7408 237.841206 
L 308.8896 239.79486 
L 309.9312 237.170475 
L 310.08 235.257212 
L 310.3776 234.508831 
L 310.5264 236.467203 
L 311.8656 233.112503 
L 312.0144 231.202288 
L 312.1632 230.830341 
L 312.312 230.830341 
L 312.7584 229.717007 
L 312.9072 229.717007 
L 313.056 227.01057 
L 313.6512 225.52962 
L 313.8 225.52962 
L 313.9488 225.160201 
L 314.0976 221.283666 
L 314.3952 220.544831 
L 314.544 220.544831 
L 314.6928 220.17526 
L 314.8416 217.466969 
L 315.1392 216.729455 
L 315.288 216.729455 
L 315.4368 212.849922 
L 315.8832 211.744962 
L 316.032 211.744962 
L 316.1808 211.377516 
L 316.3296 208.667541 
L 316.9248 207.197647 
L 317.0736 207.197647 
L 317.3712 202.948131 
L 317.52 202.581198 
L 317.6688 202.581198 
L 317.8176 202.215246 
L 317.9664 199.503518 
L 318.264 198.771629 
L 318.4128 198.771629 
L 318.5616 196.059246 
L 319.3056 194.232878 
L 319.4544 194.232878 
L 319.6032 191.519622 
L 320.1984 190.061734 
L 320.3472 190.061734 
L 320.496 187.34768 
L 321.0912 185.893968 
L 321.24 185.893968 
L 321.3888 185.531372 
L 321.5376 182.816451 
L 321.984 181.728545 
L 322.1328 181.728545 
L 322.2816 179.012905 
L 322.4304 178.650503 
L 322.5792 179.465511 
L 322.8768 178.74238 
L 323.0256 178.74238 
L 323.1744 176.026166 
L 323.6208 174.94365 
L 323.7696 174.94365 
L 323.9184 172.225907 
L 324.3648 171.145425 
L 324.5136 171.145425 
L 324.6624 168.427783 
L 324.8112 168.067586 
L 324.96 168.886905 
L 325.1088 168.527871 
L 325.2576 168.527871 
L 325.4064 168.168193 
L 325.5552 165.449982 
L 325.8528 164.732289 
L 326.0016 164.732289 
L 326.1504 162.013439 
L 326.2992 161.654608 
L 326.448 162.477395 
L 326.5968 162.477395 
L 326.7456 162.11891 
L 326.8944 159.399568 
L 327.3408 158.326467 
L 327.4896 158.326467 
L 327.6384 156.788088 
L 328.5312 154.648388 
L 328.68 155.474382 
L 328.8288 155.474382 
L 328.9776 155.118139 
L 329.1264 152.397467 
L 329.5728 151.331916 
L 329.7216 152.159779 
L 329.8704 152.159779 
L 330.0192 151.804571 
L 330.168 149.083277 
L 330.4656 148.37454 
L 330.6144 149.203979 
L 330.7632 148.850458 
L 330.912 148.850458 
L 331.0608 146.128612 
L 331.3584 145.421374 
L 331.5072 148.268054 
L 332.1024 146.857569 
L 332.2512 146.857569 
L 332.4 145.319793 
L 332.8464 144.264689 
L 332.9952 144.264689 
L 333.144 142.727023 
L 333.4416 142.024564 
L 333.5904 142.024564 
L 333.7392 139.301431 
L 333.888 140.136689 
L 334.1856 139.435628 
L 334.3344 139.435628 
L 334.4832 136.712016 
L 334.632 137.548562 
L 334.7808 137.199052 
L 334.9296 134.475033 
L 335.0784 135.312568 
L 335.2272 134.962765 
L 335.376 136.988336 
L 335.5248 134.264266 
L 335.6736 136.290672 
L 335.8224 134.754129 
L 335.9712 136.781163 
L 336.2688 136.084199 
L 336.4176 134.547167 
L 336.5664 136.575654 
L 336.864 135.880106 
L 337.0128 133.15534 
L 337.1616 135.1855 
L 337.3104 133.64973 
L 337.4592 135.680513 
L 337.608 135.333301 
L 337.7568 133.797809 
L 338.2032 132.758571 
L 338.352 133.60282 
L 338.6496 132.910692 
L 338.7984 134.944817 
L 338.9472 134.60002 
L 339.096 135.444625 
L 339.3936 134.755097 
L 339.5424 135.60049 
L 339.9888 134.56824 
L 340.1376 135.41472 
L 340.584 134.38402 
L 340.7328 135.231586 
L 341.0304 134.545972 
L 341.1792 135.052264 
L 341.6256 134.025839 
L 341.7744 134.876407 
L 341.9232 134.876407 
L 342.3696 133.852119 
L 342.5184 134.702955 
L 342.6672 131.97838 
L 342.816 131.637625 
L 342.9648 132.490285 
L 343.1136 134.534875 
L 343.56 133.514876 
L 343.7088 131.982752 
L 343.8576 134.029222 
L 344.0064 133.689667 
L 344.1552 132.157821 
L 344.304 134.205341 
L 344.4528 131.480184 
L 344.6016 131.141345 
L 344.7504 131.996456 
L 345.1968 130.983199 
L 345.3456 131.839401 
L 345.792 130.827473 
L 345.9408 131.685596 
L 346.0896 133.737519 
L 346.2384 131.011446 
L 346.3872 133.064209 
L 346.536 131.533743 
L 346.6848 133.587134 
L 346.9824 132.915852 
L 347.1312 131.385731 
L 347.28 133.44059 
L 347.5776 132.77075 
L 347.7264 133.631124 
L 348.1728 132.627847 
L 348.3216 133.489318 
L 348.4704 130.764022 
L 348.6192 132.822243 
L 348.768 132.489512 
L 348.9168 133.352198 
L 349.0656 133.018998 
L 349.2144 130.294099 
L 349.512 133.218822 
L 349.6608 130.493135 
L 349.8096 130.161665 
L 349.9584 131.026458 
L 350.1072 130.695354 
L 350.256 132.757572 
L 350.4048 130.031802 
L 350.5536 130.898515 
L 350.8512 130.237116 
L 351 131.103803 
L 351.4464 130.113195 
L 351.5952 130.980985 
L 351.744 133.046776 
L 351.8928 130.321887 
L 352.0416 132.388524 
L 352.1904 132.059964 
L 352.3392 132.928943 
L 352.488 130.204038 
L 352.6368 132.272148 
L 352.7856 131.94349 
L 352.9344 130.41718 
L 353.232 129.761605 
L 353.3808 130.632696 
L 353.8272 129.650832 
L 353.976 130.523854 
L 354.1248 130.196839 
L 354.2736 132.26895 
L 354.4224 130.743227 
L 354.8688 129.7652 
L 355.1664 132.713283 
L 355.6128 131.738109 
L 355.7616 132.613283 
L 356.208 131.639479 
L 356.3568 132.515874 
L 356.5056 132.192619 
L 356.6544 129.467616 
L 356.8032 131.546061 
L 356.952 130.021373 
L 357.1008 129.698849 
L 357.2496 130.576949 
L 357.5472 129.931509 
L 357.696 132.012065 
L 357.8448 130.488443 
L 357.9936 132.569633 
L 358.1424 129.844239 
L 358.2912 130.724244 
L 358.5888 130.081385 
L 358.7376 130.962193 
L 359.184 129.99942 
L 359.3328 130.882169 
L 359.6304 130.241055 
L 359.7792 131.124614 
L 360.2256 130.165708 
L 360.3744 131.049544 
L 360.672 130.411845 
L 360.8208 131.29649 
L 360.9696 133.384864 
L 361.1184 130.65966 
L 361.2672 132.748884 
L 361.416 131.227569 
L 361.5648 133.317426 
L 361.8624 132.682683 
L 362.0112 131.16091 
L 362.3088 130.527284 
L 362.4576 132.619468 
L 362.6064 131.0989 
L 362.7552 130.782319 
L 363.0528 133.764968 
L 363.2016 131.039868 
L 363.3504 130.724028 
L 363.4992 131.613617 
L 363.648 131.298982 
L 363.7968 133.39435 
L 363.9456 133.079251 
L 364.0944 133.969746 
L 364.2432 133.655853 
L 364.392 132.136501 
L 364.8384 131.194837 
L 364.9872 132.08716 
L 365.4336 131.147731 
L 365.5824 132.042001 
L 365.88 131.4173 
L 366.0288 132.311549 
L 366.4752 131.376034 
L 366.624 132.271401 
L 366.7728 134.373978 
L 367.2192 133.442094 
L 367.368 134.338666 
L 367.5168 131.613766 
L 367.8144 134.616067 
L 368.112 133.996963 
L 368.2608 132.480119 
L 368.5584 131.861309 
L 368.7072 133.968778 
L 368.856 133.660674 
L 369.0048 134.560294 
L 369.1536 134.560294 
L 369.4512 133.636243 
L 369.6 134.537944 
L 369.8976 133.92382 
L 370.0464 134.825501 
L 370.1952 134.825501 
L 370.4928 133.905152 
L 370.6416 134.807826 
L 371.088 133.890573 
L 371.2368 132.375165 
L 371.3856 134.489226 
L 371.5344 134.184505 
L 371.6832 135.089121 
L 371.9808 134.174983 
L 372.1296 135.081556 
L 372.2784 134.777128 
L 372.4272 136.893744 
L 372.576 134.169442 
L 372.8736 137.193861 
L 373.1712 136.587915 
L 373.32 137.495678 
L 373.6176 136.891349 
L 373.7664 136.891349 
L 373.9152 135.378779 
L 374.3616 134.473628 
L 374.5104 132.960882 
L 374.6592 135.083039 
L 374.808 134.78164 
L 374.9568 135.693218 
L 375.4032 134.791563 
L 375.552 133.279524 
L 375.7008 135.404245 
L 375.9984 134.805612 
L 376.1472 135.718725 
L 376.296 132.99483 
L 376.4448 133.908674 
L 376.8912 133.012726 
L 377.04 135.140862 
L 377.1888 133.629934 
L 377.3376 135.758709 
L 377.4864 133.034386 
L 377.6352 133.950362 
L 377.784 133.652763 
L 377.9328 135.783036 
L 378.0816 135.486658 
L 378.2304 133.976446 
L 378.528 133.382968 
L 378.6768 134.301731 
L 378.8256 136.434141 
L 379.272 135.547328 
L 379.4208 134.03791 
L 379.5696 136.172246 
L 379.7184 134.662235 
L 379.8672 136.797215 
L 380.1648 136.208764 
L 380.3136 136.208764 
L 380.4624 134.406201 
L 380.6112 134.113072 
L 380.76 135.034904 
L 380.9088 137.172448 
L 381.0576 134.448522 
L 381.2064 136.586922 
L 381.3552 135.078878 
L 381.504 134.786058 
L 381.6528 136.925529 
L 381.9504 136.341681 
L 382.0992 137.265871 
L 382.3968 136.683172 
L 382.5456 137.608181 
L 382.992 136.736571 
L 383.1408 137.662718 
L 383.2896 134.938977 
L 383.4384 137.082949 
L 383.5872 135.575601 
L 383.736 137.720216 
L 383.8848 134.996517 
L 384.1824 138.070936 
L 384.6288 137.204836 
L 384.7776 138.134078 
L 385.0752 137.558305 
L 385.224 136.05294 
L 385.3728 138.201629 
L 385.5216 135.478099 
L 385.6704 137.627643 
L 385.8192 136.12185 
L 385.968 138.27204 
L 386.1168 136.767341 
L 386.2656 138.918175 
L 386.4144 136.194813 
L 386.5632 138.346506 
L 386.712 138.060662 
L 386.8608 138.060662 
L 387.0096 138.994797 
L 387.1584 138.709341 
L 387.3072 136.920564 
L 387.6048 136.35162 
L 387.7536 138.506321 
L 387.9024 137.002854 
L 388.2 136.435218 
L 388.4976 139.5277 
L 388.6464 139.244132 
L 388.7952 137.741331 
L 389.2416 136.893239 
L 389.3904 137.831391 
L 389.688 137.267638 
L 389.8368 138.207463 
L 390.2832 137.363456 
L 390.432 138.30358 
L 390.5808 138.023393 
L 390.7296 140.185407 
L 391.0272 139.625143 
L 391.176 140.566503 
L 391.4736 140.007408 
L 391.6224 138.50576 
L 391.7712 140.670359 
L 391.92 137.947607 
L 392.0688 140.113069 
L 392.2176 138.612684 
L 392.3664 140.778789 
L 392.5152 140.500283 
L 392.664 139.000238 
L 392.9616 138.445064 
L 393.2592 141.558424 
L 393.408 141.281934 
L 393.5568 139.782089 
L 393.7056 141.951429 
L 393.8544 141.675526 
L 394.0032 138.953075 
L 394.152 141.12371 
L 394.3008 139.623999 
L 394.4496 141.79528 
L 394.5984 141.520359 
L 394.7472 142.468483 
L 394.896 142.193106 
L 395.0448 139.470809 
L 395.1936 140.420834 
L 395.3424 140.146054 
L 395.4912 142.319923 
L 395.64 142.045529 
L 395.7888 142.996481 
L 396.2352 142.17591 
L 396.384 143.127163 
L 396.6816 142.581775 
L 396.8304 143.262081 
L 397.128 142.718266 
L 397.2768 143.671507 
L 397.5744 143.128871 
L 397.7232 144.082946 
L 397.872 146.262647 
L 398.3184 145.450903 
L 398.4672 146.407072 
L 398.9136 145.597697 
L 399.0624 146.554166 
L 399.2112 146.285533 
L 399.36 145.747166 
L 399.5088 146.705636 
L 399.6576 148.88988 
L 400.104 148.085814 
L 400.2528 148.777822 
L 400.5504 148.243845 
L 400.6992 149.203871 
L 400.848 151.391142 
L 401.1456 150.858728 
L 401.2944 151.553671 
L 401.592 151.022843 
L 401.7408 153.212499 
L 401.8896 152.947998 
L 402.0384 153.910519 
L 402.336 153.381659 
L 402.6336 158.464905 
L 402.7824 157.93754 
L 403.2288 163.02597 
L 403.6752 167.856202 
L 403.824 167.333851 
L 404.2704 172.432373 
L 404.4192 171.912494 
L 404.568 174.109302 
L 404.7168 173.849427 
L 404.8656 174.818265 
L 405.0144 174.559636 
L 405.1632 174.559636 
L 405.312 172.813519 
L 405.4608 172.554651 
L 405.6096 174.754064 
L 405.9072 174.238159 
L 406.056 175.210165 
L 406.3536 174.694608 
L 406.5024 175.667456 
L 406.9488 174.89707 
L 407.0976 175.870229 
L 407.544 175.103097 
L 407.6928 176.077417 
L 408.1392 175.311843 
L 408.288 176.287325 
L 408.4368 176.033301 
L 408.5856 175.52501 
L 408.7344 176.501655 
L 409.1808 175.740902 
L 409.3296 175.740902 
L 409.4784 176.466295 
L 409.6272 176.213231 
L 409.776 176.213231 
L 409.9248 175.961222 
L 410.0736 176.940195 
L 410.2224 176.688585 
L 410.3712 176.184272 
L 410.6688 179.377376 
L 411.1152 178.62444 
L 411.4128 181.570228 
L 411.7104 180.820892 
L 412.1568 185.987212 
L 412.3056 185.490517 
L 412.4544 185.490517 
L 412.6032 186.226703 
L 412.9008 185.731625 
L 413.0496 185.731625 
L 413.3472 185.237365 
L 413.496 186.223507 
L 413.9424 185.484668 
L 414.0912 186.471978 
L 414.8352 185.244523 
L 414.984 186.233644 
L 415.2816 185.500904 
L 415.4304 185.2565 
L 415.728 188.472527 
L 415.8768 188.229568 
L 416.1744 187.500217 
L 416.3232 189.727503 
L 416.472 189.485555 
L 416.6208 190.478172 
L 416.9184 189.994436 
L 417.0672 191.740966 
L 417.3648 197.194862 
L 417.5136 196.71431 
L 417.6624 198.945091 
L 417.8112 198.465742 
L 418.1088 202.689889 
L 418.4064 202.212539 
L 418.704 203.15444 
L 419.2992 193.264019 
L 419.448 188.316709 
L 419.5968 188.316709 
L 421.5312 157.357653 
L 421.68 156.117715 
L 422.1264 148.676743 
L 422.2752 148.676743 
L 422.424 143.714276 
L 422.5728 142.47404 
L 423.6144 125.090236 
L 423.7632 125.090236 
L 424.8048 107.685801 
L 424.9536 107.685801 
L 425.4 101.46487 
L 425.5488 100.220194 
L 426.144 91.506251 
L 426.2928 90.260731 
L 426.888 81.540886 
L 427.0368 80.294531 
L 427.4832 74.062018 
L 427.7808 71.56793 
L 428.0784 67.826879 
L 428.2272 66.579361 
L 428.376 66.579361 
L 428.6736 64.08487 
L 428.9712 64.08487 
L 429.12 62.837043 
L 429.2688 62.837043 
L 429.5664 60.341059 
L 429.864 60.341059 
L 430.0128 59.093778 
L 430.1616 59.093778 
L 430.3104 57.845518 
L 430.608 57.845518 
L 430.7568 56.597156 
L 431.2032 56.597156 
L 431.352 55.3487 
L 431.7984 55.3487 
L 431.9472 54.100131 
L 432.6912 54.100131 
L 432.84 52.852315 
L 434.6256 52.852315 
L 434.7744 51.60353 
L 435.072 51.60353 
L 435.2208 52.852315 
L 437.7504 52.852315 
L 437.8992 54.100131 
L 438.9408 54.100131 
L 439.0896 55.3487 
L 440.1312 55.3487 
L 440.28 56.597156 
L 441.024 56.597156 
L 441.1728 57.845518 
L 441.9168 57.845518 
L 442.0656 59.093778 
L 442.8096 59.093778 
L 442.9584 60.341059 
L 443.7024 60.341059 
L 443.8512 61.589103 
L 444.2976 61.589103 
L 444.4464 62.837043 
L 445.0416 62.837043 
L 445.1904 64.08487 
L 446.0832 64.08487 
L 446.232 65.33174 
L 446.8272 65.33174 
L 446.976 66.579361 
L 447.5712 66.579361 
L 447.72 67.826879 
L 448.3152 67.826879 
L 448.464 69.074294 
L 449.0592 69.074294 
L 449.208 70.321596 
L 449.952 70.321596 
L 450.1008 71.56793 
L 450.696 71.56793 
L 450.8448 72.815026 
L 451.5888 72.815026 
L 451.7376 74.062018 
L 452.3328 74.062018 
L 452.4816 75.308908 
L 453.2256 75.308908 
L 453.3744 76.55482 
L 454.2672 76.55482 
L 454.416 77.801504 
L 455.0112 77.801504 
L 455.16 79.048064 
L 455.904 79.048064 
L 456.0528 80.294531 
L 456.7968 80.294531 
L 456.9456 81.540886 
L 457.9872 81.540886 
L 458.136 82.786282 
L 458.7312 82.786282 
L 458.88 84.03243 
L 459.624 84.03243 
L 459.7728 85.278476 
L 460.5168 85.278476 
L 460.6656 86.524408 
L 461.7072 86.524408 
L 461.856 87.769382 
L 462.6 87.769382 
L 462.7488 89.015108 
L 463.4928 89.015108 
L 463.6416 90.260731 
L 464.5344 90.260731 
L 464.6832 91.506251 
L 465.4272 91.506251 
L 465.576 92.751658 
L 466.4688 92.751658 
L 466.6176 93.996107 
L 467.5104 93.996107 
L 467.6592 95.241307 
L 468.4032 95.241307 
L 468.552 96.4864 
L 469.4448 96.4864 
L 469.5936 97.731389 
L 470.4864 97.731389 
L 470.6352 98.975416 
L 471.528 98.975416 
L 471.6768 100.220194 
L 472.272 100.220194 
L 472.4208 101.46487 
L 473.6112 101.46487 
L 473.76 102.709437 
L 474.2064 102.709437 
L 474.3552 103.953902 
L 475.3968 103.953902 
L 475.5456 105.197398 
L 476.4384 105.197398 
L 476.5872 106.441651 
L 477.3312 106.441651 
L 477.48 107.685801 
L 478.3728 107.685801 
L 478.5216 108.929843 
L 479.4144 108.929843 
L 479.5632 110.172922 
L 480.6048 110.172922 
L 480.7536 111.416753 
L 481.6464 111.416753 
L 481.7952 112.660481 
L 482.688 112.660481 
L 482.8368 113.9041 
L 483.7296 113.9041 
L 483.8784 115.147617 
L 484.92 115.147617 
L 485.0688 116.390166 
L 486.1104 116.390166 
L 486.2592 117.633471 
L 487.4496 117.633471 
L 487.5984 118.876674 
L 488.64 118.876674 
L 488.7888 120.119768 
L 489.8304 120.119768 
L 489.9792 121.3619 
L 491.0208 121.3619 
L 491.1696 122.604783 
L 492.2112 122.604783 
L 492.36 123.847563 
L 493.4016 123.847563 
L 493.5504 125.090236 
L 494.7408 125.090236 
L 494.8896 126.331945 
L 495.7824 126.331945 
L 495.9312 127.574411 
L 497.2704 127.574411 
L 497.4192 128.816769 
L 498.9072 128.816769 
L 499.056 130.059019 
L 500.2464 130.059019 
L 500.3952 131.301166 
L 501.7344 131.301166 
L 501.8832 132.542349 
L 503.3712 132.542349 
L 503.52 133.784285 
L 505.008 133.784285 
L 505.1568 135.026118 
L 506.6448 135.026118 
L 506.7936 136.267848 
L 508.1328 136.267848 
L 508.2816 137.508609 
L 509.7696 137.508609 
L 509.9184 138.750123 
L 511.5552 138.750123 
L 511.704 139.991533 
L 513.192 139.991533 
L 513.3408 141.232841 
L 515.1264 141.232841 
L 515.2752 142.47404 
L 516.912 142.47404 
L 517.0608 143.714276 
L 518.4 143.714276 
L 518.4 143.714276 
" style="fill:none;stroke:#008000;stroke-linecap:square;"/>
   </g>
   <g id="line2d_2">
    <path clip-path="url(#pe196c64281)" d="M 72.1488 181.44 
L 107.712 181.533092 
L 109.0512 181.946508 
L 111.5808 182.92715 
L 115.5984 184.782061 
L 120.0624 187.066052 
L 136.4304 195.430368 
L 143.424 198.574409 
L 152.6496 202.450463 
L 162.768 206.014211 
L 178.6896 210.588243 
L 184.7904 211.852004 
L 189.9984 212.755132 
L 190.8912 212.858373 
L 193.8672 213.281729 
L 194.76 213.374691 
L 198.48 213.862742 
L 199.3728 213.955704 
L 201.9024 214.239854 
L 214.9968 215.94851 
L 224.0736 217.150261 
L 224.52 217.397546 
L 226.6032 218.424268 
L 226.9008 218.740316 
L 228.3888 219.948644 
L 230.0256 221.546539 
L 231.6624 223.439508 
L 233.448 225.855738 
L 235.3824 228.875729 
L 237.4656 232.595027 
L 239.4 236.483677 
L 241.4832 241.142188 
L 242.2272 242.927334 
L 242.5248 244.030085 
L 242.9712 245.154295 
L 243.12 245.154295 
L 245.5008 251.512711 
L 251.0064 267.009485 
L 251.304 268.23319 
L 253.2384 273.505835 
L 253.3872 273.505835 
L 256.9584 282.706655 
L 260.976 292.451946 
L 265.44 302.607825 
L 269.16 310.838013 
L 269.4576 311.767745 
L 269.904 312.704336 
L 270.2016 313.632193 
L 270.648 314.572122 
L 270.9456 315.505953 
L 271.5408 316.753131 
L 271.8384 317.682286 
L 272.5824 319.23762 
L 272.88 320.159298 
L 274.6656 323.806518 
L 274.9632 324.700706 
L 278.2368 331.360326 
L 278.5344 332.203901 
L 279.576 334.165331 
L 279.8736 334.996279 
L 281.064 337.19693 
L 281.3616 338.012572 
L 282.4032 339.906508 
L 282.8496 341.248485 
L 283.5936 342.598537 
L 283.8912 343.397411 
L 287.4624 349.533045 
L 287.6112 349.775324 
L 287.9088 350.496632 
L 288.6528 351.680488 
L 288.9504 352.406028 
L 289.3968 353.128582 
L 289.6944 353.84029 
L 295.944 363.474757 
L 300.7056 369.675846 
L 306.36 376.196307 
L 312.1632 381.604135 
L 312.312 381.604135 
L 313.2048 382.142232 
L 314.2464 382.725049 
L 315.1392 383.14505 
L 315.4368 383.216406 
L 316.776 383.735943 
L 317.52 383.943687 
L 317.9664 384.031914 
L 319.3056 384.298223 
L 320.3472 384.404392 
L 322.2816 384.474554 
L 324.6624 384.280178 
L 327.936 383.499812 
L 331.3584 382.129069 
L 331.8048 381.821293 
L 332.8464 381.333006 
L 333.144 381.245273 
L 334.1856 380.688679 
L 334.4832 380.58733 
L 338.2032 377.969295 
L 351.744 367.97543 
L 362.7552 359.559704 
L 373.9152 351.472053 
L 386.5632 342.715345 
L 394.896 337.375361 
L 398.616 335.145789 
L 404.1216 332.306259 
L 408.1392 331.868059 
L 412.1568 331.666031 
L 413.9424 331.781109 
L 416.9184 332.071746 
L 419.0016 332.867314 
L 419.8944 332.955531 
L 421.0848 332.841431 
L 422.424 332.351063 
L 423.4656 331.62268 
L 425.5488 329.758736 
L 426.888 327.905761 
L 428.376 325.460606 
L 428.6736 324.937516 
L 428.8224 324.937516 
L 429.2688 324.143102 
L 429.5664 323.334731 
L 429.7152 323.063407 
L 429.864 323.063407 
L 430.0128 322.789291 
L 430.3104 321.964163 
L 432.2448 318.305695 
L 432.3936 317.735113 
L 432.5424 317.735113 
L 432.9888 316.873658 
L 433.2864 316.009411 
L 435.072 312.544032 
L 435.3696 311.676994 
L 435.9648 310.524666 
L 436.1136 310.524666 
L 436.56 309.660409 
L 436.7088 309.660409 
L 436.8576 309.372327 
L 437.1552 308.508081 
L 437.7504 307.355752 
L 438.048 306.497088 
L 438.3456 305.926517 
L 438.6432 305.070644 
L 438.792 304.785353 
L 439.0896 303.932282 
L 439.2384 303.932282 
L 440.8752 300.838803 
L 441.024 300.838803 
L 441.1728 300.561896 
L 441.3216 300.008082 
L 441.4704 300.008082 
L 444.744 294.033442 
L 444.8928 294.033442 
L 445.1904 293.239028 
L 445.488 292.713146 
L 445.6368 292.713146 
L 447.4224 289.594145 
L 447.5712 289.594145 
L 448.9104 287.314238 
L 449.0592 287.314238 
L 449.6544 286.318321 
L 449.8032 286.318321 
L 450.3984 285.330767 
L 450.5472 285.330767 
L 451.1424 284.354388 
L 451.2912 284.354388 
L 451.8864 283.386382 
L 452.0352 283.386382 
L 452.6304 282.429542 
L 452.7792 282.429542 
L 453.5232 281.246046 
L 453.672 281.246046 
L 454.1184 280.540971 
L 454.2672 280.540971 
L 454.8624 279.612033 
L 455.0112 279.612033 
L 455.4576 278.923705 
L 455.6064 278.923705 
L 456.3504 277.784869 
L 456.4992 277.784869 
L 457.0944 276.883842 
L 457.2432 276.883842 
L 457.8384 275.988398 
L 457.9872 275.988398 
L 458.4336 275.325181 
L 458.5824 275.325181 
L 459.3264 274.230984 
L 459.4752 274.230984 
L 460.0704 273.366223 
L 460.2192 273.366223 
L 460.6656 272.722534 
L 460.8144 272.722534 
L 461.4096 271.871728 
L 461.5584 271.871728 
L 462.4512 270.609451 
L 462.6 270.609451 
L 463.1952 269.780955 
L 463.344 269.780955 
L 463.9392 268.960822 
L 464.088 268.960822 
L 468.4032 263.216364 
L 472.8672 257.649535 
L 473.016 257.649535 
L 473.3136 257.111804 
L 473.4624 256.932564 
L 473.6112 256.932564 
L 473.9088 256.403202 
L 474.0576 256.226742 
L 474.3552 255.700166 
L 476.5872 253.120224 
L 476.736 253.120224 
L 481.0512 248.404288 
L 485.3664 244.011514 
L 489.9792 239.639057 
L 494.7408 235.47162 
L 499.8 231.410646 
L 504.264 228.094292 
L 508.4304 225.20587 
L 508.5792 225.20587 
L 508.8768 224.910403 
L 513.7872 221.78826 
L 518.4 219.082847 
L 518.4 219.082847 
" style="fill:none;stroke:#0000ff;stroke-linecap:square;"/>
   </g>
   <g id="patch_3">
    <path d="M 72 43.2 
L 518.4 43.2 
" style="fill:none;stroke:#000000;stroke-linecap:square;stroke-linejoin:miter;"/>
   </g>
   <g id="patch_4">
    <path d="M 518.4 388.8 
L 518.4 43.2 
" style="fill:none;stroke:#000000;stroke-linecap:square;stroke-linejoin:miter;"/>
   </g>
   <g id="patch_5">
    <path d="M 72 388.8 
L 518.4 388.8 
" style="fill:none;stroke:#000000;stroke-linecap:square;stroke-linejoin:miter;"/>
   </g>
   <g id="patch_6">
    <path d="M 72 388.8 
L 72 43.2 
" style="fill:none;stroke:#000000;stroke-linecap:square;stroke-linejoin:miter;"/>
   </g>
   <g id="matplotlib.axis_1">
    <g id="xtick_1">
     <g id="line2d_3">
      <path clip-path="url(#pe196c64281)" d="M 72 388.8 
L 72 43.2 
" style="fill:none;stroke:#000000;stroke-dasharray:1.000000,3.000000;stroke-dashoffset:0.0;stroke-width:0.5;"/>
     </g>
     <g id="line2d_4">
      <defs>
       <path d="M 0 0 
L 0 -4 
" id="mcc09fa58c7" style="stroke:#000000;stroke-width:0.5;"/>
      </defs>
      <g>
       <use style="stroke:#000000;stroke-width:0.5;" x="72.0" xlink:href="#mcc09fa58c7" y="388.8"/>
      </g>
     </g>
     <g id="line2d_5">
      <defs>
       <path d="M 0 0 
L 0 4 
" id="m50f4092221" style="stroke:#000000;stroke-width:0.5;"/>
      </defs>
      <g>
       <use style="stroke:#000000;stroke-width:0.5;" x="72.0" xlink:href="#m50f4092221" y="43.2"/>
      </g>
     </g>
     <g id="text_1">
      <!-- 0 -->
      <defs>
       <path d="M 31.78125 66.40625 
Q 24.171875 66.40625 20.328125 58.90625 
Q 16.5 51.421875 16.5 36.375 
Q 16.5 21.390625 20.328125 13.890625 
Q 24.171875 6.390625 31.78125 6.390625 
Q 39.453125 6.390625 43.28125 13.890625 
Q 47.125 21.390625 47.125 36.375 
Q 47.125 51.421875 43.28125 58.90625 
Q 39.453125 66.40625 31.78125 66.40625 
M 31.78125 74.21875 
Q 44.046875 74.21875 50.515625 64.515625 
Q 56.984375 54.828125 56.984375 36.375 
Q 56.984375 17.96875 50.515625 8.265625 
Q 44.046875 -1.421875 31.78125 -1.421875 
Q 19.53125 -1.421875 13.0625 8.265625 
Q 6.59375 17.96875 6.59375 36.375 
Q 6.59375 54.828125 13.0625 64.515625 
Q 19.53125 74.21875 31.78125 74.21875 
" id="BitstreamVeraSans-Roman-30"/>
      </defs>
      <g transform="translate(68.1825 401.918125)scale(0.12 -0.12)">
       <use xlink:href="#BitstreamVeraSans-Roman-30"/>
      </g>
     </g>
    </g>
    <g id="xtick_2">
     <g id="line2d_6">
      <path clip-path="url(#pe196c64281)" d="M 146.4 388.8 
L 146.4 43.2 
" style="fill:none;stroke:#000000;stroke-dasharray:1.000000,3.000000;stroke-dashoffset:0.0;stroke-width:0.5;"/>
     </g>
     <g id="line2d_7">
      <g>
       <use style="stroke:#000000;stroke-width:0.5;" x="146.4" xlink:href="#mcc09fa58c7" y="388.8"/>
      </g>
     </g>
     <g id="line2d_8">
      <g>
       <use style="stroke:#000000;stroke-width:0.5;" x="146.4" xlink:href="#m50f4092221" y="43.2"/>
      </g>
     </g>
     <g id="text_2">
      <!-- 5 -->
      <defs>
       <path d="M 10.796875 72.90625 
L 49.515625 72.90625 
L 49.515625 64.59375 
L 19.828125 64.59375 
L 19.828125 46.734375 
Q 21.96875 47.46875 24.109375 47.828125 
Q 26.265625 48.1875 28.421875 48.1875 
Q 40.625 48.1875 47.75 41.5 
Q 54.890625 34.8125 54.890625 23.390625 
Q 54.890625 11.625 47.5625 5.09375 
Q 40.234375 -1.421875 26.90625 -1.421875 
Q 22.3125 -1.421875 17.546875 -0.640625 
Q 12.796875 0.140625 7.71875 1.703125 
L 7.71875 11.625 
Q 12.109375 9.234375 16.796875 8.0625 
Q 21.484375 6.890625 26.703125 6.890625 
Q 35.15625 6.890625 40.078125 11.328125 
Q 45.015625 15.765625 45.015625 23.390625 
Q 45.015625 31 40.078125 35.4375 
Q 35.15625 39.890625 26.703125 39.890625 
Q 22.75 39.890625 18.8125 39.015625 
Q 14.890625 38.140625 10.796875 36.28125 
z
" id="BitstreamVeraSans-Roman-35"/>
      </defs>
      <g transform="translate(142.5825 401.918125)scale(0.12 -0.12)">
       <use xlink:href="#BitstreamVeraSans-Roman-35"/>
      </g>
     </g>
    </g>
    <g id="xtick_3">
     <g id="line2d_9">
      <path clip-path="url(#pe196c64281)" d="M 220.8 388.8 
L 220.8 43.2 
" style="fill:none;stroke:#000000;stroke-dasharray:1.000000,3.000000;stroke-dashoffset:0.0;stroke-width:0.5;"/>
     </g>
     <g id="line2d_10">
      <g>
       <use style="stroke:#000000;stroke-width:0.5;" x="220.8" xlink:href="#mcc09fa58c7" y="388.8"/>
      </g>
     </g>
     <g id="line2d_11">
      <g>
       <use style="stroke:#000000;stroke-width:0.5;" x="220.8" xlink:href="#m50f4092221" y="43.2"/>
      </g>
     </g>
     <g id="text_3">
      <!-- 10 -->
      <defs>
       <path d="M 12.40625 8.296875 
L 28.515625 8.296875 
L 28.515625 63.921875 
L 10.984375 60.40625 
L 10.984375 69.390625 
L 28.421875 72.90625 
L 38.28125 72.90625 
L 38.28125 8.296875 
L 54.390625 8.296875 
L 54.390625 0 
L 12.40625 0 
z
" id="BitstreamVeraSans-Roman-31"/>
      </defs>
      <g transform="translate(213.165 401.918125)scale(0.12 -0.12)">
       <use xlink:href="#BitstreamVeraSans-Roman-31"/>
       <use x="63.623046875" xlink:href="#BitstreamVeraSans-Roman-30"/>
      </g>
     </g>
    </g>
    <g id="xtick_4">
     <g id="line2d_12">
      <path clip-path="url(#pe196c64281)" d="M 295.2 388.8 
L 295.2 43.2 
" style="fill:none;stroke:#000000;stroke-dasharray:1.000000,3.000000;stroke-dashoffset:0.0;stroke-width:0.5;"/>
     </g>
     <g id="line2d_13">
      <g>
       <use style="stroke:#000000;stroke-width:0.5;" x="295.2" xlink:href="#mcc09fa58c7" y="388.8"/>
      </g>
     </g>
     <g id="line2d_14">
      <g>
       <use style="stroke:#000000;stroke-width:0.5;" x="295.2" xlink:href="#m50f4092221" y="43.2"/>
      </g>
     </g>
     <g id="text_4">
      <!-- 15 -->
      <g transform="translate(287.565 401.918125)scale(0.12 -0.12)">
       <use xlink:href="#BitstreamVeraSans-Roman-31"/>
       <use x="63.623046875" xlink:href="#BitstreamVeraSans-Roman-35"/>
      </g>
     </g>
    </g>
    <g id="xtick_5">
     <g id="line2d_15">
      <path clip-path="url(#pe196c64281)" d="M 369.6 388.8 
L 369.6 43.2 
" style="fill:none;stroke:#000000;stroke-dasharray:1.000000,3.000000;stroke-dashoffset:0.0;stroke-width:0.5;"/>
     </g>
     <g id="line2d_16">
      <g>
       <use style="stroke:#000000;stroke-width:0.5;" x="369.6" xlink:href="#mcc09fa58c7" y="388.8"/>
      </g>
     </g>
     <g id="line2d_17">
      <g>
       <use style="stroke:#000000;stroke-width:0.5;" x="369.6" xlink:href="#m50f4092221" y="43.2"/>
      </g>
     </g>
     <g id="text_5">
      <!-- 20 -->
      <defs>
       <path d="M 19.1875 8.296875 
L 53.609375 8.296875 
L 53.609375 0 
L 7.328125 0 
L 7.328125 8.296875 
Q 12.9375 14.109375 22.625 23.890625 
Q 32.328125 33.6875 34.8125 36.53125 
Q 39.546875 41.84375 41.421875 45.53125 
Q 43.3125 49.21875 43.3125 52.78125 
Q 43.3125 58.59375 39.234375 62.25 
Q 35.15625 65.921875 28.609375 65.921875 
Q 23.96875 65.921875 18.8125 64.3125 
Q 13.671875 62.703125 7.8125 59.421875 
L 7.8125 69.390625 
Q 13.765625 71.78125 18.9375 73 
Q 24.125 74.21875 28.421875 74.21875 
Q 39.75 74.21875 46.484375 68.546875 
Q 53.21875 62.890625 53.21875 53.421875 
Q 53.21875 48.921875 51.53125 44.890625 
Q 49.859375 40.875 45.40625 35.40625 
Q 44.1875 33.984375 37.640625 27.21875 
Q 31.109375 20.453125 19.1875 8.296875 
" id="BitstreamVeraSans-Roman-32"/>
      </defs>
      <g transform="translate(361.965 401.918125)scale(0.12 -0.12)">
       <use xlink:href="#BitstreamVeraSans-Roman-32"/>
       <use x="63.623046875" xlink:href="#BitstreamVeraSans-Roman-30"/>
      </g>
     </g>
    </g>
    <g id="xtick_6">
     <g id="line2d_18">
      <path clip-path="url(#pe196c64281)" d="M 444 388.8 
L 444 43.2 
" style="fill:none;stroke:#000000;stroke-dasharray:1.000000,3.000000;stroke-dashoffset:0.0;stroke-width:0.5;"/>
     </g>
     <g id="line2d_19">
      <g>
       <use style="stroke:#000000;stroke-width:0.5;" x="444.0" xlink:href="#mcc09fa58c7" y="388.8"/>
      </g>
     </g>
     <g id="line2d_20">
      <g>
       <use style="stroke:#000000;stroke-width:0.5;" x="444.0" xlink:href="#m50f4092221" y="43.2"/>
      </g>
     </g>
     <g id="text_6">
      <!-- 25 -->
      <g transform="translate(436.365 401.918125)scale(0.12 -0.12)">
       <use xlink:href="#BitstreamVeraSans-Roman-32"/>
       <use x="63.623046875" xlink:href="#BitstreamVeraSans-Roman-35"/>
      </g>
     </g>
    </g>
    <g id="xtick_7">
     <g id="line2d_21">
      <path clip-path="url(#pe196c64281)" d="M 518.4 388.8 
L 518.4 43.2 
" style="fill:none;stroke:#000000;stroke-dasharray:1.000000,3.000000;stroke-dashoffset:0.0;stroke-width:0.5;"/>
     </g>
     <g id="line2d_22">
      <g>
       <use style="stroke:#000000;stroke-width:0.5;" x="518.4" xlink:href="#mcc09fa58c7" y="388.8"/>
      </g>
     </g>
     <g id="line2d_23">
      <g>
       <use style="stroke:#000000;stroke-width:0.5;" x="518.4" xlink:href="#m50f4092221" y="43.2"/>
      </g>
     </g>
     <g id="text_7">
      <!-- 30 -->
      <defs>
       <path d="M 40.578125 39.3125 
Q 47.65625 37.796875 51.625 33 
Q 55.609375 28.21875 55.609375 21.1875 
Q 55.609375 10.40625 48.1875 4.484375 
Q 40.765625 -1.421875 27.09375 -1.421875 
Q 22.515625 -1.421875 17.65625 -0.515625 
Q 12.796875 0.390625 7.625 2.203125 
L 7.625 11.71875 
Q 11.71875 9.328125 16.59375 8.109375 
Q 21.484375 6.890625 26.8125 6.890625 
Q 36.078125 6.890625 40.9375 10.546875 
Q 45.796875 14.203125 45.796875 21.1875 
Q 45.796875 27.640625 41.28125 31.265625 
Q 36.765625 34.90625 28.71875 34.90625 
L 20.21875 34.90625 
L 20.21875 43.015625 
L 29.109375 43.015625 
Q 36.375 43.015625 40.234375 45.921875 
Q 44.09375 48.828125 44.09375 54.296875 
Q 44.09375 59.90625 40.109375 62.90625 
Q 36.140625 65.921875 28.71875 65.921875 
Q 24.65625 65.921875 20.015625 65.03125 
Q 15.375 64.15625 9.8125 62.3125 
L 9.8125 71.09375 
Q 15.4375 72.65625 20.34375 73.4375 
Q 25.25 74.21875 29.59375 74.21875 
Q 40.828125 74.21875 47.359375 69.109375 
Q 53.90625 64.015625 53.90625 55.328125 
Q 53.90625 49.265625 50.4375 45.09375 
Q 46.96875 40.921875 40.578125 39.3125 
" id="BitstreamVeraSans-Roman-33"/>
      </defs>
      <g transform="translate(510.765 401.918125)scale(0.12 -0.12)">
       <use xlink:href="#BitstreamVeraSans-Roman-33"/>
       <use x="63.623046875" xlink:href="#BitstreamVeraSans-Roman-30"/>
      </g>
     </g>
    </g>
    <g id="text_8">
     <!-- Time, [s] -->
     <defs>
      <path id="BitstreamVeraSans-Roman-20"/>
      <path d="M 8.59375 75.984375 
L 29.296875 75.984375 
L 29.296875 69 
L 17.578125 69 
L 17.578125 -6.203125 
L 29.296875 -6.203125 
L 29.296875 -13.1875 
L 8.59375 -13.1875 
z
" id="BitstreamVeraSans-Roman-5b"/>
      <path d="M 30.421875 75.984375 
L 30.421875 -13.1875 
L 9.71875 -13.1875 
L 9.71875 -6.203125 
L 21.390625 -6.203125 
L 21.390625 69 
L 9.71875 69 
L 9.71875 75.984375 
z
" id="BitstreamVeraSans-Roman-5d"/>
      <path d="M 52 44.1875 
Q 55.375 50.25 60.0625 53.125 
Q 64.75 56 71.09375 56 
Q 79.640625 56 84.28125 50.015625 
Q 88.921875 44.046875 88.921875 33.015625 
L 88.921875 0 
L 79.890625 0 
L 79.890625 32.71875 
Q 79.890625 40.578125 77.09375 44.375 
Q 74.3125 48.1875 68.609375 48.1875 
Q 61.625 48.1875 57.5625 43.546875 
Q 53.515625 38.921875 53.515625 30.90625 
L 53.515625 0 
L 44.484375 0 
L 44.484375 32.71875 
Q 44.484375 40.625 41.703125 44.40625 
Q 38.921875 48.1875 33.109375 48.1875 
Q 26.21875 48.1875 22.15625 43.53125 
Q 18.109375 38.875 18.109375 30.90625 
L 18.109375 0 
L 9.078125 0 
L 9.078125 54.6875 
L 18.109375 54.6875 
L 18.109375 46.1875 
Q 21.1875 51.21875 25.484375 53.609375 
Q 29.78125 56 35.6875 56 
Q 41.65625 56 45.828125 52.96875 
Q 50 49.953125 52 44.1875 
" id="BitstreamVeraSans-Roman-6d"/>
      <path d="M 11.71875 12.40625 
L 22.015625 12.40625 
L 22.015625 4 
L 14.015625 -11.625 
L 7.71875 -11.625 
L 11.71875 4 
z
" id="BitstreamVeraSans-Roman-2c"/>
      <path d="M 9.421875 54.6875 
L 18.40625 54.6875 
L 18.40625 0 
L 9.421875 0 
z
M 9.421875 75.984375 
L 18.40625 75.984375 
L 18.40625 64.59375 
L 9.421875 64.59375 
z
" id="BitstreamVeraSans-Roman-69"/>
      <path d="M 56.203125 29.59375 
L 56.203125 25.203125 
L 14.890625 25.203125 
Q 15.484375 15.921875 20.484375 11.0625 
Q 25.484375 6.203125 34.421875 6.203125 
Q 39.59375 6.203125 44.453125 7.46875 
Q 49.3125 8.734375 54.109375 11.28125 
L 54.109375 2.78125 
Q 49.265625 0.734375 44.1875 -0.34375 
Q 39.109375 -1.421875 33.890625 -1.421875 
Q 20.796875 -1.421875 13.15625 6.1875 
Q 5.515625 13.8125 5.515625 26.8125 
Q 5.515625 40.234375 12.765625 48.109375 
Q 20.015625 56 32.328125 56 
Q 43.359375 56 49.78125 48.890625 
Q 56.203125 41.796875 56.203125 29.59375 
M 47.21875 32.234375 
Q 47.125 39.59375 43.09375 43.984375 
Q 39.0625 48.390625 32.421875 48.390625 
Q 24.90625 48.390625 20.390625 44.140625 
Q 15.875 39.890625 15.1875 32.171875 
z
" id="BitstreamVeraSans-Roman-65"/>
      <path d="M -0.296875 72.90625 
L 61.375 72.90625 
L 61.375 64.59375 
L 35.5 64.59375 
L 35.5 0 
L 25.59375 0 
L 25.59375 64.59375 
L -0.296875 64.59375 
z
" id="BitstreamVeraSans-Roman-54"/>
      <path d="M 44.28125 53.078125 
L 44.28125 44.578125 
Q 40.484375 46.53125 36.375 47.5 
Q 32.28125 48.484375 27.875 48.484375 
Q 21.1875 48.484375 17.84375 46.4375 
Q 14.5 44.390625 14.5 40.28125 
Q 14.5 37.15625 16.890625 35.375 
Q 19.28125 33.59375 26.515625 31.984375 
L 29.59375 31.296875 
Q 39.15625 29.25 43.1875 25.515625 
Q 47.21875 21.78125 47.21875 15.09375 
Q 47.21875 7.46875 41.1875 3.015625 
Q 35.15625 -1.421875 24.609375 -1.421875 
Q 20.21875 -1.421875 15.453125 -0.5625 
Q 10.6875 0.296875 5.421875 2 
L 5.421875 11.28125 
Q 10.40625 8.6875 15.234375 7.390625 
Q 20.0625 6.109375 24.8125 6.109375 
Q 31.15625 6.109375 34.5625 8.28125 
Q 37.984375 10.453125 37.984375 14.40625 
Q 37.984375 18.0625 35.515625 20.015625 
Q 33.0625 21.96875 24.703125 23.78125 
L 21.578125 24.515625 
Q 13.234375 26.265625 9.515625 29.90625 
Q 5.8125 33.546875 5.8125 39.890625 
Q 5.8125 47.609375 11.28125 51.796875 
Q 16.75 56 26.8125 56 
Q 31.78125 56 36.171875 55.265625 
Q 40.578125 54.546875 44.28125 53.078125 
" id="BitstreamVeraSans-Roman-73"/>
     </defs>
     <g transform="translate(268.71375 418.531875)scale(0.12 -0.12)">
      <use xlink:href="#BitstreamVeraSans-Roman-54"/>
      <use x="61.037109375" xlink:href="#BitstreamVeraSans-Roman-69"/>
      <use x="88.8203125" xlink:href="#BitstreamVeraSans-Roman-6d"/>
      <use x="186.232421875" xlink:href="#BitstreamVeraSans-Roman-65"/>
      <use x="247.755859375" xlink:href="#BitstreamVeraSans-Roman-2c"/>
      <use x="279.54296875" xlink:href="#BitstreamVeraSans-Roman-20"/>
      <use x="311.330078125" xlink:href="#BitstreamVeraSans-Roman-5b"/>
      <use x="350.34375" xlink:href="#BitstreamVeraSans-Roman-73"/>
      <use x="402.443359375" xlink:href="#BitstreamVeraSans-Roman-5d"/>
     </g>
    </g>
   </g>
   <g id="matplotlib.axis_2">
    <g id="ytick_1">
     <g id="line2d_24">
      <path clip-path="url(#pe196c64281)" d="M 72 388.8 
L 518.4 388.8 
" style="fill:none;stroke:#000000;stroke-dasharray:1.000000,3.000000;stroke-dashoffset:0.0;stroke-width:0.5;"/>
     </g>
     <g id="line2d_25">
      <defs>
       <path d="M 0 0 
L 4 0 
" id="m2286c0ef86" style="stroke:#000000;stroke-width:0.5;"/>
      </defs>
      <g>
       <use style="stroke:#000000;stroke-width:0.5;" x="72.0" xlink:href="#m2286c0ef86" y="388.8"/>
      </g>
     </g>
     <g id="line2d_26">
      <defs>
       <path d="M 0 0 
L -4 0 
" id="mcdae828d34" style="stroke:#000000;stroke-width:0.5;"/>
      </defs>
      <g>
       <use style="stroke:#000000;stroke-width:0.5;" x="518.4" xlink:href="#mcdae828d34" y="388.8"/>
      </g>
     </g>
     <g id="text_9">
      <!-- −0.3 -->
      <defs>
       <path d="M 10.59375 35.5 
L 73.1875 35.5 
L 73.1875 27.203125 
L 10.59375 27.203125 
z
" id="BitstreamVeraSans-Roman-2212"/>
       <path d="M 10.6875 12.40625 
L 21 12.40625 
L 21 0 
L 10.6875 0 
z
" id="BitstreamVeraSans-Roman-2e"/>
      </defs>
      <g transform="translate(38.860625 392.11125)scale(0.12 -0.12)">
       <use xlink:href="#BitstreamVeraSans-Roman-2212"/>
       <use x="83.7890625" xlink:href="#BitstreamVeraSans-Roman-30"/>
       <use x="147.412109375" xlink:href="#BitstreamVeraSans-Roman-2e"/>
       <use x="179.19921875" xlink:href="#BitstreamVeraSans-Roman-33"/>
      </g>
     </g>
    </g>
    <g id="ytick_2">
     <g id="line2d_27">
      <path clip-path="url(#pe196c64281)" d="M 72 319.68 
L 518.4 319.68 
" style="fill:none;stroke:#000000;stroke-dasharray:1.000000,3.000000;stroke-dashoffset:0.0;stroke-width:0.5;"/>
     </g>
     <g id="line2d_28">
      <g>
       <use style="stroke:#000000;stroke-width:0.5;" x="72.0" xlink:href="#m2286c0ef86" y="319.68"/>
      </g>
     </g>
     <g id="line2d_29">
      <g>
       <use style="stroke:#000000;stroke-width:0.5;" x="518.4" xlink:href="#mcdae828d34" y="319.68"/>
      </g>
     </g>
     <g id="text_10">
      <!-- −0.2 -->
      <g transform="translate(38.860625 322.99125)scale(0.12 -0.12)">
       <use xlink:href="#BitstreamVeraSans-Roman-2212"/>
       <use x="83.7890625" xlink:href="#BitstreamVeraSans-Roman-30"/>
       <use x="147.412109375" xlink:href="#BitstreamVeraSans-Roman-2e"/>
       <use x="179.19921875" xlink:href="#BitstreamVeraSans-Roman-32"/>
      </g>
     </g>
    </g>
    <g id="ytick_3">
     <g id="line2d_30">
      <path clip-path="url(#pe196c64281)" d="M 72 250.56 
L 518.4 250.56 
" style="fill:none;stroke:#000000;stroke-dasharray:1.000000,3.000000;stroke-dashoffset:0.0;stroke-width:0.5;"/>
     </g>
     <g id="line2d_31">
      <g>
       <use style="stroke:#000000;stroke-width:0.5;" x="72.0" xlink:href="#m2286c0ef86" y="250.56"/>
      </g>
     </g>
     <g id="line2d_32">
      <g>
       <use style="stroke:#000000;stroke-width:0.5;" x="518.4" xlink:href="#mcdae828d34" y="250.56"/>
      </g>
     </g>
     <g id="text_11">
      <!-- −0.1 -->
      <g transform="translate(38.860625 253.87125)scale(0.12 -0.12)">
       <use xlink:href="#BitstreamVeraSans-Roman-2212"/>
       <use x="83.7890625" xlink:href="#BitstreamVeraSans-Roman-30"/>
       <use x="147.412109375" xlink:href="#BitstreamVeraSans-Roman-2e"/>
       <use x="179.19921875" xlink:href="#BitstreamVeraSans-Roman-31"/>
      </g>
     </g>
    </g>
    <g id="ytick_4">
     <g id="line2d_33">
      <path clip-path="url(#pe196c64281)" d="M 72 181.44 
L 518.4 181.44 
" style="fill:none;stroke:#000000;stroke-dasharray:1.000000,3.000000;stroke-dashoffset:0.0;stroke-width:0.5;"/>
     </g>
     <g id="line2d_34">
      <g>
       <use style="stroke:#000000;stroke-width:0.5;" x="72.0" xlink:href="#m2286c0ef86" y="181.44"/>
      </g>
     </g>
     <g id="line2d_35">
      <g>
       <use style="stroke:#000000;stroke-width:0.5;" x="518.4" xlink:href="#mcdae828d34" y="181.44"/>
      </g>
     </g>
     <g id="text_12">
      <!-- 0.0 -->
      <g transform="translate(48.91625 184.75125)scale(0.12 -0.12)">
       <use xlink:href="#BitstreamVeraSans-Roman-30"/>
       <use x="63.623046875" xlink:href="#BitstreamVeraSans-Roman-2e"/>
       <use x="95.41015625" xlink:href="#BitstreamVeraSans-Roman-30"/>
      </g>
     </g>
    </g>
    <g id="ytick_5">
     <g id="line2d_36">
      <path clip-path="url(#pe196c64281)" d="M 72 112.32 
L 518.4 112.32 
" style="fill:none;stroke:#000000;stroke-dasharray:1.000000,3.000000;stroke-dashoffset:0.0;stroke-width:0.5;"/>
     </g>
     <g id="line2d_37">
      <g>
       <use style="stroke:#000000;stroke-width:0.5;" x="72.0" xlink:href="#m2286c0ef86" y="112.32"/>
      </g>
     </g>
     <g id="line2d_38">
      <g>
       <use style="stroke:#000000;stroke-width:0.5;" x="518.4" xlink:href="#mcdae828d34" y="112.32"/>
      </g>
     </g>
     <g id="text_13">
      <!-- 0.1 -->
      <g transform="translate(48.91625 115.63125)scale(0.12 -0.12)">
       <use xlink:href="#BitstreamVeraSans-Roman-30"/>
       <use x="63.623046875" xlink:href="#BitstreamVeraSans-Roman-2e"/>
       <use x="95.41015625" xlink:href="#BitstreamVeraSans-Roman-31"/>
      </g>
     </g>
    </g>
    <g id="text_14">
     <!-- Accel Cmd [m/s^2] -->
     <defs>
      <path d="M 46.6875 72.90625 
L 73.1875 45.703125 
L 63.375 45.703125 
L 41.890625 64.984375 
L 20.40625 45.703125 
L 10.59375 45.703125 
L 37.109375 72.90625 
z
" id="BitstreamVeraSans-Roman-5e"/>
      <path d="M 9.421875 75.984375 
L 18.40625 75.984375 
L 18.40625 0 
L 9.421875 0 
z
" id="BitstreamVeraSans-Roman-6c"/>
      <path d="M 64.40625 67.28125 
L 64.40625 56.890625 
Q 59.421875 61.53125 53.78125 63.8125 
Q 48.140625 66.109375 41.796875 66.109375 
Q 29.296875 66.109375 22.65625 58.46875 
Q 16.015625 50.828125 16.015625 36.375 
Q 16.015625 21.96875 22.65625 14.328125 
Q 29.296875 6.6875 41.796875 6.6875 
Q 48.140625 6.6875 53.78125 8.984375 
Q 59.421875 11.28125 64.40625 15.921875 
L 64.40625 5.609375 
Q 59.234375 2.09375 53.4375 0.328125 
Q 47.65625 -1.421875 41.21875 -1.421875 
Q 24.65625 -1.421875 15.125 8.703125 
Q 5.609375 18.84375 5.609375 36.375 
Q 5.609375 53.953125 15.125 64.078125 
Q 24.65625 74.21875 41.21875 74.21875 
Q 47.75 74.21875 53.53125 72.484375 
Q 59.328125 70.75 64.40625 67.28125 
" id="BitstreamVeraSans-Roman-43"/>
      <path d="M 34.1875 63.1875 
L 20.796875 26.90625 
L 47.609375 26.90625 
z
M 28.609375 72.90625 
L 39.796875 72.90625 
L 67.578125 0 
L 57.328125 0 
L 50.6875 18.703125 
L 17.828125 18.703125 
L 11.1875 0 
L 0.78125 0 
z
" id="BitstreamVeraSans-Roman-41"/>
      <path d="M 25.390625 72.90625 
L 33.6875 72.90625 
L 8.296875 -9.28125 
L 0 -9.28125 
z
" id="BitstreamVeraSans-Roman-2f"/>
      <path d="M 45.40625 46.390625 
L 45.40625 75.984375 
L 54.390625 75.984375 
L 54.390625 0 
L 45.40625 0 
L 45.40625 8.203125 
Q 42.578125 3.328125 38.25 0.953125 
Q 33.9375 -1.421875 27.875 -1.421875 
Q 17.96875 -1.421875 11.734375 6.484375 
Q 5.515625 14.40625 5.515625 27.296875 
Q 5.515625 40.1875 11.734375 48.09375 
Q 17.96875 56 27.875 56 
Q 33.9375 56 38.25 53.625 
Q 42.578125 51.265625 45.40625 46.390625 
M 14.796875 27.296875 
Q 14.796875 17.390625 18.875 11.75 
Q 22.953125 6.109375 30.078125 6.109375 
Q 37.203125 6.109375 41.296875 11.75 
Q 45.40625 17.390625 45.40625 27.296875 
Q 45.40625 37.203125 41.296875 42.84375 
Q 37.203125 48.484375 30.078125 48.484375 
Q 22.953125 48.484375 18.875 42.84375 
Q 14.796875 37.203125 14.796875 27.296875 
" id="BitstreamVeraSans-Roman-64"/>
      <path d="M 48.78125 52.59375 
L 48.78125 44.1875 
Q 44.96875 46.296875 41.140625 47.34375 
Q 37.3125 48.390625 33.40625 48.390625 
Q 24.65625 48.390625 19.8125 42.84375 
Q 14.984375 37.3125 14.984375 27.296875 
Q 14.984375 17.28125 19.8125 11.734375 
Q 24.65625 6.203125 33.40625 6.203125 
Q 37.3125 6.203125 41.140625 7.25 
Q 44.96875 8.296875 48.78125 10.40625 
L 48.78125 2.09375 
Q 45.015625 0.34375 40.984375 -0.53125 
Q 36.96875 -1.421875 32.421875 -1.421875 
Q 20.0625 -1.421875 12.78125 6.34375 
Q 5.515625 14.109375 5.515625 27.296875 
Q 5.515625 40.671875 12.859375 48.328125 
Q 20.21875 56 33.015625 56 
Q 37.15625 56 41.109375 55.140625 
Q 45.0625 54.296875 48.78125 52.59375 
" id="BitstreamVeraSans-Roman-63"/>
     </defs>
     <g transform="translate(31.365 274.235625)rotate(-90.0)scale(0.12 -0.12)">
      <use xlink:href="#BitstreamVeraSans-Roman-41"/>
      <use x="68.392578125" xlink:href="#BitstreamVeraSans-Roman-63"/>
      <use x="123.373046875" xlink:href="#BitstreamVeraSans-Roman-63"/>
      <use x="178.353515625" xlink:href="#BitstreamVeraSans-Roman-65"/>
      <use x="239.876953125" xlink:href="#BitstreamVeraSans-Roman-6c"/>
      <use x="267.66015625" xlink:href="#BitstreamVeraSans-Roman-20"/>
      <use x="299.447265625" xlink:href="#BitstreamVeraSans-Roman-43"/>
      <use x="369.271484375" xlink:href="#BitstreamVeraSans-Roman-6d"/>
      <use x="466.68359375" xlink:href="#BitstreamVeraSans-Roman-64"/>
      <use x="530.16015625" xlink:href="#BitstreamVeraSans-Roman-20"/>
      <use x="561.947265625" xlink:href="#BitstreamVeraSans-Roman-5b"/>
      <use x="600.9609375" xlink:href="#BitstreamVeraSans-Roman-6d"/>
      <use x="698.373046875" xlink:href="#BitstreamVeraSans-Roman-2f"/>
      <use x="732.064453125" xlink:href="#BitstreamVeraSans-Roman-73"/>
      <use x="784.1640625" xlink:href="#BitstreamVeraSans-Roman-5e"/>
      <use x="867.953125" xlink:href="#BitstreamVeraSans-Roman-32"/>
      <use x="931.576171875" xlink:href="#BitstreamVeraSans-Roman-5d"/>
     </g>
    </g>
   </g>
   <g id="legend_1">
    <g id="patch_7">
     <path d="M 79.2 96.993 
L 218.727 96.993 
L 218.727 50.4 
L 79.2 50.4 
z
" style="fill:#ffffff;stroke:#000000;stroke-linejoin:miter;"/>
    </g>
    <g id="line2d_39">
     <path d="M 89.28 62.06175 
L 109.44 62.06175 
" style="fill:none;stroke:#008000;stroke-linecap:square;"/>
    </g>
    <g id="line2d_40"/>
    <g id="text_15">
     <!-- Proportional -->
     <defs>
      <path d="M 54.890625 33.015625 
L 54.890625 0 
L 45.90625 0 
L 45.90625 32.71875 
Q 45.90625 40.484375 42.875 44.328125 
Q 39.84375 48.1875 33.796875 48.1875 
Q 26.515625 48.1875 22.3125 43.546875 
Q 18.109375 38.921875 18.109375 30.90625 
L 18.109375 0 
L 9.078125 0 
L 9.078125 54.6875 
L 18.109375 54.6875 
L 18.109375 46.1875 
Q 21.34375 51.125 25.703125 53.5625 
Q 30.078125 56 35.796875 56 
Q 45.21875 56 50.046875 50.171875 
Q 54.890625 44.34375 54.890625 33.015625 
" id="BitstreamVeraSans-Roman-6e"/>
      <path d="M 34.28125 27.484375 
Q 23.390625 27.484375 19.1875 25 
Q 14.984375 22.515625 14.984375 16.5 
Q 14.984375 11.71875 18.140625 8.90625 
Q 21.296875 6.109375 26.703125 6.109375 
Q 34.1875 6.109375 38.703125 11.40625 
Q 43.21875 16.703125 43.21875 25.484375 
L 43.21875 27.484375 
z
M 52.203125 31.203125 
L 52.203125 0 
L 43.21875 0 
L 43.21875 8.296875 
Q 40.140625 3.328125 35.546875 0.953125 
Q 30.953125 -1.421875 24.3125 -1.421875 
Q 15.921875 -1.421875 10.953125 3.296875 
Q 6 8.015625 6 15.921875 
Q 6 25.140625 12.171875 29.828125 
Q 18.359375 34.515625 30.609375 34.515625 
L 43.21875 34.515625 
L 43.21875 35.40625 
Q 43.21875 41.609375 39.140625 45 
Q 35.0625 48.390625 27.6875 48.390625 
Q 23 48.390625 18.546875 47.265625 
Q 14.109375 46.140625 10.015625 43.890625 
L 10.015625 52.203125 
Q 14.9375 54.109375 19.578125 55.046875 
Q 24.21875 56 28.609375 56 
Q 40.484375 56 46.34375 49.84375 
Q 52.203125 43.703125 52.203125 31.203125 
" id="BitstreamVeraSans-Roman-61"/>
      <path d="M 30.609375 48.390625 
Q 23.390625 48.390625 19.1875 42.75 
Q 14.984375 37.109375 14.984375 27.296875 
Q 14.984375 17.484375 19.15625 11.84375 
Q 23.34375 6.203125 30.609375 6.203125 
Q 37.796875 6.203125 41.984375 11.859375 
Q 46.1875 17.53125 46.1875 27.296875 
Q 46.1875 37.015625 41.984375 42.703125 
Q 37.796875 48.390625 30.609375 48.390625 
M 30.609375 56 
Q 42.328125 56 49.015625 48.375 
Q 55.71875 40.765625 55.71875 27.296875 
Q 55.71875 13.875 49.015625 6.21875 
Q 42.328125 -1.421875 30.609375 -1.421875 
Q 18.84375 -1.421875 12.171875 6.21875 
Q 5.515625 13.875 5.515625 27.296875 
Q 5.515625 40.765625 12.171875 48.375 
Q 18.84375 56 30.609375 56 
" id="BitstreamVeraSans-Roman-6f"/>
      <path d="M 19.671875 64.796875 
L 19.671875 37.40625 
L 32.078125 37.40625 
Q 38.96875 37.40625 42.71875 40.96875 
Q 46.484375 44.53125 46.484375 51.125 
Q 46.484375 57.671875 42.71875 61.234375 
Q 38.96875 64.796875 32.078125 64.796875 
z
M 9.8125 72.90625 
L 32.078125 72.90625 
Q 44.34375 72.90625 50.609375 67.359375 
Q 56.890625 61.8125 56.890625 51.125 
Q 56.890625 40.328125 50.609375 34.8125 
Q 44.34375 29.296875 32.078125 29.296875 
L 19.671875 29.296875 
L 19.671875 0 
L 9.8125 0 
z
" id="BitstreamVeraSans-Roman-50"/>
      <path d="M 18.3125 70.21875 
L 18.3125 54.6875 
L 36.8125 54.6875 
L 36.8125 47.703125 
L 18.3125 47.703125 
L 18.3125 18.015625 
Q 18.3125 11.328125 20.140625 9.421875 
Q 21.96875 7.515625 27.59375 7.515625 
L 36.8125 7.515625 
L 36.8125 0 
L 27.59375 0 
Q 17.1875 0 13.234375 3.875 
Q 9.28125 7.765625 9.28125 18.015625 
L 9.28125 47.703125 
L 2.6875 47.703125 
L 2.6875 54.6875 
L 9.28125 54.6875 
L 9.28125 70.21875 
z
" id="BitstreamVeraSans-Roman-74"/>
      <path d="M 41.109375 46.296875 
Q 39.59375 47.171875 37.8125 47.578125 
Q 36.03125 48 33.890625 48 
Q 26.265625 48 22.1875 43.046875 
Q 18.109375 38.09375 18.109375 28.8125 
L 18.109375 0 
L 9.078125 0 
L 9.078125 54.6875 
L 18.109375 54.6875 
L 18.109375 46.1875 
Q 20.953125 51.171875 25.484375 53.578125 
Q 30.03125 56 36.53125 56 
Q 37.453125 56 38.578125 55.875 
Q 39.703125 55.765625 41.0625 55.515625 
z
" id="BitstreamVeraSans-Roman-72"/>
      <path d="M 18.109375 8.203125 
L 18.109375 -20.796875 
L 9.078125 -20.796875 
L 9.078125 54.6875 
L 18.109375 54.6875 
L 18.109375 46.390625 
Q 20.953125 51.265625 25.265625 53.625 
Q 29.59375 56 35.59375 56 
Q 45.5625 56 51.78125 48.09375 
Q 58.015625 40.1875 58.015625 27.296875 
Q 58.015625 14.40625 51.78125 6.484375 
Q 45.5625 -1.421875 35.59375 -1.421875 
Q 29.59375 -1.421875 25.265625 0.953125 
Q 20.953125 3.328125 18.109375 8.203125 
M 48.6875 27.296875 
Q 48.6875 37.203125 44.609375 42.84375 
Q 40.53125 48.484375 33.40625 48.484375 
Q 26.265625 48.484375 22.1875 42.84375 
Q 18.109375 37.203125 18.109375 27.296875 
Q 18.109375 17.390625 22.1875 11.75 
Q 26.265625 6.109375 33.40625 6.109375 
Q 40.53125 6.109375 44.609375 11.75 
Q 48.6875 17.390625 48.6875 27.296875 
" id="BitstreamVeraSans-Roman-70"/>
     </defs>
     <g transform="translate(125.28 67.10175)scale(0.144 -0.144)">
      <use xlink:href="#BitstreamVeraSans-Roman-50"/>
      <use x="60.287109375" xlink:href="#BitstreamVeraSans-Roman-72"/>
      <use x="101.369140625" xlink:href="#BitstreamVeraSans-Roman-6f"/>
      <use x="162.55078125" xlink:href="#BitstreamVeraSans-Roman-70"/>
      <use x="226.02734375" xlink:href="#BitstreamVeraSans-Roman-6f"/>
      <use x="287.208984375" xlink:href="#BitstreamVeraSans-Roman-72"/>
      <use x="328.322265625" xlink:href="#BitstreamVeraSans-Roman-74"/>
      <use x="367.53125" xlink:href="#BitstreamVeraSans-Roman-69"/>
      <use x="395.314453125" xlink:href="#BitstreamVeraSans-Roman-6f"/>
      <use x="456.49609375" xlink:href="#BitstreamVeraSans-Roman-6e"/>
      <use x="519.875" xlink:href="#BitstreamVeraSans-Roman-61"/>
      <use x="581.154296875" xlink:href="#BitstreamVeraSans-Roman-6c"/>
     </g>
    </g>
    <g id="line2d_41">
     <path d="M 89.28 83.19825 
L 109.44 83.19825 
" style="fill:none;stroke:#0000ff;stroke-linecap:square;"/>
    </g>
    <g id="line2d_42"/>
    <g id="text_16">
     <!-- Integral -->
     <defs>
      <path d="M 45.40625 27.984375 
Q 45.40625 37.75 41.375 43.109375 
Q 37.359375 48.484375 30.078125 48.484375 
Q 22.859375 48.484375 18.828125 43.109375 
Q 14.796875 37.75 14.796875 27.984375 
Q 14.796875 18.265625 18.828125 12.890625 
Q 22.859375 7.515625 30.078125 7.515625 
Q 37.359375 7.515625 41.375 12.890625 
Q 45.40625 18.265625 45.40625 27.984375 
M 54.390625 6.78125 
Q 54.390625 -7.171875 48.1875 -13.984375 
Q 42 -20.796875 29.203125 -20.796875 
Q 24.46875 -20.796875 20.265625 -20.09375 
Q 16.0625 -19.390625 12.109375 -17.921875 
L 12.109375 -9.1875 
Q 16.0625 -11.328125 19.921875 -12.34375 
Q 23.78125 -13.375 27.78125 -13.375 
Q 36.625 -13.375 41.015625 -8.765625 
Q 45.40625 -4.15625 45.40625 5.171875 
L 45.40625 9.625 
Q 42.625 4.78125 38.28125 2.390625 
Q 33.9375 0 27.875 0 
Q 17.828125 0 11.671875 7.65625 
Q 5.515625 15.328125 5.515625 27.984375 
Q 5.515625 40.671875 11.671875 48.328125 
Q 17.828125 56 27.875 56 
Q 33.9375 56 38.28125 53.609375 
Q 42.625 51.21875 45.40625 46.390625 
L 45.40625 54.6875 
L 54.390625 54.6875 
z
" id="BitstreamVeraSans-Roman-67"/>
      <path d="M 9.8125 72.90625 
L 19.671875 72.90625 
L 19.671875 0 
L 9.8125 0 
z
" id="BitstreamVeraSans-Roman-49"/>
     </defs>
     <g transform="translate(125.28 88.23825)scale(0.144 -0.144)">
      <use xlink:href="#BitstreamVeraSans-Roman-49"/>
      <use x="29.4921875" xlink:href="#BitstreamVeraSans-Roman-6e"/>
      <use x="92.87109375" xlink:href="#BitstreamVeraSans-Roman-74"/>
      <use x="132.080078125" xlink:href="#BitstreamVeraSans-Roman-65"/>
      <use x="193.603515625" xlink:href="#BitstreamVeraSans-Roman-67"/>
      <use x="257.080078125" xlink:href="#BitstreamVeraSans-Roman-72"/>
      <use x="298.193359375" xlink:href="#BitstreamVeraSans-Roman-61"/>
      <use x="359.47265625" xlink:href="#BitstreamVeraSans-Roman-6c"/>
     </g>
    </g>
   </g>
  </g>
 </g>
 <defs>
  <clipPath id="pe196c64281">
   <rect height="345.6" width="446.4" x="72.0" y="43.2"/>
  </clipPath>
 </defs>
</svg>
