<?xml version="1.0" encoding="utf-8" standalone="no"?>
<!DOCTYPE svg PUBLIC "-//W3C//DTD SVG 1.1//EN"
  "http://www.w3.org/Graphics/SVG/1.1/DTD/svg11.dtd">
<!-- Created with matplotlib (http://matplotlib.org/) -->
<svg height="432pt" version="1.1" viewBox="0 0 576 432" width="576pt" xmlns="http://www.w3.org/2000/svg" xmlns:xlink="http://www.w3.org/1999/xlink">
 <defs>
  <style type="text/css">
*{stroke-linecap:butt;stroke-linejoin:round;stroke-miterlimit:100000;}
  </style>
 </defs>
 <g id="figure_1">
  <g id="patch_1">
   <path d="M 0 432 
L 576 432 
L 576 0 
L 0 0 
z
" style="fill:#ffffff;"/>
  </g>
  <g id="axes_1">
   <g id="patch_2">
    <path d="M 72 388.8 
L 518.4 388.8 
L 518.4 43.2 
L 72 43.2 
z
" style="fill:#ffffff;"/>
   </g>
   <g id="line2d_1">
    <path clip-path="url(#p97fbcb3ece)" d="M 72.1488 144.791702 
L 91.7904 144.67639 
L 91.9392 114.972252 
L 92.2368 114.977716 
L 92.3856 118.137974 
L 92.6832 118.14194 
L 92.832 121.932388 
L 92.9808 121.933588 
L 93.1296 125.723001 
L 93.4272 125.724086 
L 93.576 128.881313 
L 93.7248 128.881404 
L 93.8736 132.669492 
L 94.1712 132.668819 
L 94.32 135.825273 
L 94.6176 135.824077 
L 94.7664 138.349118 
L 94.9152 138.348374 
L 95.064 141.504918 
L 95.3616 141.503221 
L 95.5104 144.676993 
L 103.248 144.632076 
L 103.3968 148.006213 
L 103.5456 148.005159 
L 103.6944 151.379103 
L 103.8432 151.377856 
L 103.992 154.751607 
L 104.1408 154.750167 
L 104.2896 158.123726 
L 104.4384 158.122093 
L 104.5872 161.495459 
L 104.736 161.493634 
L 104.8848 164.866807 
L 105.0336 164.86479 
L 105.1824 168.237771 
L 105.3312 168.235561 
L 105.48 171.60835 
L 105.6288 171.605949 
L 105.7776 175.653546 
L 105.9264 175.650914 
L 106.0752 179.023281 
L 106.224 179.020458 
L 106.3728 180.367634 
L 106.5216 180.364736 
L 106.6704 181.036837 
L 106.8192 181.033902 
L 106.968 181.705966 
L 107.1168 181.702994 
L 107.2656 182.375022 
L 107.4144 182.372012 
L 107.5632 183.044004 
L 108.0096 183.034868 
L 108.1584 183.706824 
L 108.3072 183.703743 
L 108.456 184.375663 
L 108.6048 184.372546 
L 108.7536 185.044429 
L 108.9024 185.041274 
L 109.0512 185.713121 
L 109.4976 185.703552 
L 109.6464 186.375364 
L 109.7952 186.372139 
L 109.944 187.043915 
L 110.0928 187.040653 
L 110.2416 187.712393 
L 110.3904 187.709095 
L 110.5392 188.380798 
L 110.8368 188.374132 
L 110.9856 189.045799 
L 111.2832 189.039063 
L 111.432 189.710696 
L 111.5808 189.707292 
L 111.7296 190.378888 
L 112.176 190.368572 
L 112.3248 191.040135 
L 112.4736 191.036661 
L 112.6224 191.708189 
L 112.7712 191.704679 
L 112.92 192.37617 
L 113.3664 192.365538 
L 113.5152 193.036996 
L 113.664 193.033418 
L 113.8128 193.70484 
L 113.9616 193.701226 
L 114.1104 194.372612 
L 114.5568 194.361667 
L 114.7056 195.03302 
L 114.8544 195.029337 
L 115.0032 195.700656 
L 115.4496 195.689505 
L 115.5984 196.36079 
L 115.7472 196.35704 
L 115.896 197.02829 
L 116.3424 197.016935 
L 116.4912 197.688153 
L 116.64 197.684334 
L 116.7888 198.355517 
L 117.2352 198.34396 
L 117.384 199.01511 
L 117.5328 199.011224 
L 117.6816 199.68234 
L 118.128 199.670582 
L 118.2768 200.341665 
L 118.4256 200.337712 
L 118.5744 201.008761 
L 119.0208 200.996803 
L 119.1696 201.66782 
L 119.3184 201.663801 
L 119.4672 202.334783 
L 119.9136 202.322627 
L 120.0624 202.993577 
L 120.5088 202.981327 
L 120.6576 203.652246 
L 121.104 203.639903 
L 121.2528 204.310791 
L 121.4016 204.306644 
L 121.5504 204.977498 
L 121.9968 204.964958 
L 122.1456 205.635781 
L 122.592 205.62315 
L 122.7408 206.293942 
L 123.0384 206.285458 
L 123.1872 206.956218 
L 123.336 206.951943 
L 123.4848 207.62267 
L 123.6336 207.618361 
L 123.7824 208.289053 
L 124.2288 208.276031 
L 124.3776 208.946694 
L 124.824 208.933581 
L 124.9728 209.604214 
L 125.8656 209.577827 
L 126.0144 210.248435 
L 126.4608 210.235161 
L 126.6096 210.905739 
L 127.056 210.892377 
L 127.2048 211.562926 
L 127.6512 211.549475 
L 127.8 212.219995 
L 128.544 212.197441 
L 128.6928 212.867936 
L 128.8416 212.863397 
L 128.9904 213.533858 
L 129.7344 213.511016 
L 129.8832 214.181453 
L 130.3296 214.167668 
L 130.4784 214.838077 
L 131.2224 214.814969 
L 131.3712 215.485354 
L 132.7104 215.443582 
L 132.8592 216.11395 
L 134.1984 216.07204 
L 134.3472 216.742394 
L 136.1328 216.686374 
L 136.2816 217.356719 
L 141.3408 217.198535 
L 141.4896 217.86892 
L 147.5904 217.680151 
L 147.7392 218.350593 
L 154.4352 218.146177 
L 154.584 218.816685 
L 163.9584 218.535988 
L 164.1072 217.856603 
L 166.0416 217.800228 
L 166.1904 217.120906 
L 168.72 217.048329 
L 168.8688 216.36908 
L 170.5056 216.322827 
L 170.6544 215.643635 
L 171.3984 215.622867 
L 171.5472 216.29372 
L 171.696 216.289542 
L 171.8448 215.610367 
L 173.4816 215.564927 
L 173.6304 214.885808 
L 175.8624 214.824756 
L 176.0112 214.145702 
L 177.3504 214.109594 
L 177.4992 213.430592 
L 179.7312 213.371273 
L 179.88 212.692334 
L 180.9216 212.665036 
L 181.0704 211.986145 
L 183.0048 211.93613 
L 183.1536 211.257296 
L 184.1952 211.230729 
L 184.344 210.551941 
L 186.8736 210.488356 
L 187.0224 209.809633 
L 188.6592 209.769128 
L 188.808 209.090457 
L 189.8496 209.065021 
L 189.9984 208.386395 
L 190.8912 208.364855 
L 191.04 207.686272 
L 191.784 207.668532 
L 191.9328 206.989989 
L 192.6768 206.972452 
L 192.8256 206.29395 
L 193.4208 206.280079 
L 193.5696 205.601615 
L 193.7184 205.598184 
L 193.8672 204.919754 
L 194.76 204.89939 
L 194.9088 204.221001 
L 195.6528 204.204234 
L 195.8016 203.525885 
L 196.0992 203.519252 
L 196.248 202.840939 
L 196.8432 202.827818 
L 196.992 202.149542 
L 197.4384 202.139813 
L 197.5872 201.461573 
L 201.3072 201.381786 
L 201.456 202.053613 
L 202.6464 202.028043 
L 202.7952 201.349854 
L 204.1344 201.321479 
L 204.2832 200.643334 
L 205.176 200.624667 
L 205.3248 199.946561 
L 205.92 199.934268 
L 206.0688 199.256198 
L 207.2592 199.231924 
L 207.408 198.553896 
L 207.5568 198.550898 
L 207.7056 197.872902 
L 208.3008 197.861048 
L 208.4496 197.183088 
L 210.0864 197.150929 
L 210.2352 196.473013 
L 210.8304 196.461478 
L 210.9792 195.783598 
L 211.5744 195.772204 
L 211.7232 195.094359 
L 212.1696 195.085917 
L 212.3184 194.408106 
L 212.616 194.402544 
L 212.7648 193.724766 
L 214.848 193.686384 
L 214.9968 193.008651 
L 215.592 192.997846 
L 215.7408 192.320148 
L 216.4848 192.306815 
L 216.6336 191.629152 
L 217.824 191.608114 
L 217.9728 190.93049 
L 218.7168 190.917524 
L 218.8656 190.239934 
L 219.7584 190.224587 
L 219.9072 189.547033 
L 220.8 189.531899 
L 220.9488 188.85438 
L 222.288 188.832011 
L 222.4368 188.15453 
L 222.7344 188.149629 
L 222.8832 187.472179 
L 223.776 187.457672 
L 223.9248 186.780258 
L 224.0736 186.777872 
L 224.2224 186.100488 
L 224.8176 186.091071 
L 224.9664 185.413719 
L 225.4128 185.406753 
L 225.5616 184.729433 
L 226.1568 184.720272 
L 226.3056 184.042984 
L 226.752 184.036209 
L 226.9008 183.358953 
L 227.6448 183.347822 
L 227.7936 182.670598 
L 228.5376 182.659631 
L 228.6864 181.98244 
L 229.1328 181.975955 
L 229.2816 181.298796 
L 229.728 181.292403 
L 229.8768 180.615275 
L 230.3232 180.608975 
L 230.472 179.931877 
L 231.216 179.921534 
L 231.3648 179.244468 
L 231.5136 179.24243 
L 231.6624 178.565393 
L 232.1088 178.559368 
L 232.2576 177.882362 
L 233.0016 177.872476 
L 233.1504 177.195501 
L 233.2992 177.193554 
L 233.448 176.516609 
L 233.8944 176.510856 
L 234.0432 175.833941 
L 234.4896 175.828279 
L 234.6384 175.151393 
L 235.0848 175.145821 
L 235.2336 174.468965 
L 235.68 174.463482 
L 235.8288 173.786656 
L 235.9776 173.784858 
L 236.1264 173.108061 
L 236.5728 173.102753 
L 236.7216 172.425985 
L 236.8704 172.424245 
L 237.0192 171.747506 
L 237.4656 171.742373 
L 237.6144 171.065663 
L 238.3584 171.057257 
L 238.5072 170.380577 
L 238.9536 170.375623 
L 239.1024 169.698973 
L 239.5488 169.694107 
L 239.6976 169.017486 
L 240.144 169.012707 
L 240.2928 168.336115 
L 240.7392 168.331423 
L 240.888 167.65486 
L 241.3344 167.650255 
L 241.4832 166.973721 
L 241.9296 166.969203 
L 242.0784 166.292698 
L 242.5248 166.288266 
L 242.6736 165.61179 
L 243.12 165.607444 
L 243.2688 141.306009 
L 244.9056 141.300835 
L 245.0544 140.42119 
L 245.5008 140.419886 
L 245.6496 141.298626 
L 246.096 141.297217 
L 246.2448 140.417572 
L 246.3936 140.417138 
L 246.5424 139.560365 
L 246.9888 139.559166 
L 247.1376 141.29428 
L 247.2864 141.293811 
L 247.4352 139.557827 
L 247.584 139.557428 
L 247.7328 136.131672 
L 247.8816 136.13141 
L 248.0304 134.41847 
L 248.1792 134.418277 
L 248.328 136.987101 
L 249.072 136.985619 
L 249.2208 135.272645 
L 249.3696 135.272418 
L 249.5184 136.128529 
L 249.6672 136.128267 
L 249.816 137.840684 
L 249.9648 137.840353 
L 250.1136 136.983684 
L 250.2624 136.983388 
L 250.4112 136.126753 
L 250.8576 136.125968 
L 251.0064 137.838384 
L 251.4528 137.837394 
L 251.6016 136.124385 
L 252.048 136.123601 
L 252.1968 135.267001 
L 252.3456 135.266774 
L 252.4944 136.979225 
L 252.6432 136.978929 
L 252.792 135.265955 
L 253.0896 135.265501 
L 253.2384 133.552596 
L 253.3872 133.552438 
L 253.536 134.408619 
L 253.9824 134.408041 
L 254.1312 133.551509 
L 254.7264 133.550876 
L 254.8752 131.83804 
L 255.024 131.837951 
L 255.1728 132.6942 
L 255.3216 132.694076 
L 255.4704 134.40663 
L 255.6192 134.406438 
L 255.768 133.549906 
L 256.2144 133.549432 
L 256.3632 132.692935 
L 256.6608 132.692687 
L 256.8096 134.405241 
L 257.4048 134.404472 
L 257.5536 133.54794 
L 257.7024 133.547782 
L 257.8512 132.691285 
L 258 134.40384 
L 258.2976 134.403455 
L 258.4464 135.259602 
L 258.8928 135.258922 
L 259.0416 133.546018 
L 259.488 133.545544 
L 259.6368 135.258064 
L 260.3808 135.256933 
L 260.5296 134.400367 
L 260.8272 134.399983 
L 260.976 136.968808 
L 261.2736 136.968219 
L 261.4224 136.111585 
L 261.5712 136.111325 
L 261.72 135.254725 
L 261.8688 135.254499 
L 262.0176 134.397934 
L 262.1664 134.397742 
L 262.3152 133.541211 
L 262.7616 133.540739 
L 262.9104 132.684242 
L 263.0592 132.684119 
L 263.208 131.827656 
L 263.952 131.827211 
L 264.1008 134.396139 
L 264.2496 134.395947 
L 264.3984 133.539417 
L 264.5472 133.539259 
L 264.696 132.682763 
L 265.1424 132.682393 
L 265.2912 130.969592 
L 265.44 130.969537 
L 265.5888 133.538499 
L 265.7376 133.538342 
L 265.8864 134.394523 
L 266.0352 134.394332 
L 266.184 133.537801 
L 266.3328 133.537644 
L 266.4816 132.681147 
L 266.6304 132.681024 
L 266.7792 131.824562 
L 266.928 131.824473 
L 267.0768 132.680723 
L 267.2256 132.6806 
L 267.3744 135.249494 
L 267.5232 135.249269 
L 267.672 134.392704 
L 267.8208 134.392512 
L 267.9696 133.535982 
L 268.1184 133.535825 
L 268.2672 132.679328 
L 268.416 132.679205 
L 268.5648 133.535421 
L 268.7136 133.535264 
L 268.8624 135.247785 
L 269.3088 135.247108 
L 269.4576 134.390543 
L 269.904 134.389969 
L 270.0528 135.246117 
L 270.2016 135.245892 
L 270.3504 136.958344 
L 270.4992 136.95805 
L 270.648 136.101418 
L 270.7968 136.101158 
L 270.9456 135.244559 
L 271.0944 135.244334 
L 271.2432 134.38777 
L 271.392 134.387578 
L 271.5408 133.531048 
L 271.8384 133.530734 
L 271.9872 132.674238 
L 272.4336 132.67387 
L 272.5824 131.817409 
L 272.88 131.817232 
L 273.0288 130.960804 
L 273.1776 130.96075 
L 273.3264 132.673373 
L 273.4752 132.673251 
L 273.624 134.385806 
L 273.7728 134.385615 
L 273.9216 133.529085 
L 274.0704 133.528928 
L 274.2192 132.672433 
L 274.368 132.67231 
L 274.5168 131.815848 
L 274.6656 131.81576 
L 274.8144 133.528349 
L 274.9632 133.528193 
L 275.112 134.384375 
L 275.856 134.383421 
L 276.0048 133.526891 
L 276.1536 133.526734 
L 276.3024 134.382916 
L 276.4512 134.382726 
L 276.6 136.095213 
L 276.7488 136.094954 
L 276.8976 135.238356 
L 277.344 135.237681 
L 277.4928 134.381117 
L 277.9392 134.380545 
L 278.088 135.236693 
L 278.2368 135.236469 
L 278.3856 136.948922 
L 278.5344 136.948629 
L 278.6832 136.091997 
L 278.832 136.091738 
L 278.9808 135.23514 
L 279.1296 135.234915 
L 279.2784 134.378352 
L 279.4272 134.378161 
L 279.576 135.23431 
L 280.32 135.233187 
L 280.4688 134.376623 
L 280.6176 134.376433 
L 280.7664 133.519904 
L 281.2128 133.519435 
L 281.3616 134.375618 
L 281.808 134.375047 
L 281.9568 133.518518 
L 282.4032 133.518049 
L 282.552 132.661554 
L 282.7008 132.661432 
L 282.8496 133.517649 
L 282.9984 133.517493 
L 283.1472 135.230015 
L 283.5936 135.229342 
L 283.7424 134.372779 
L 284.1888 134.372209 
L 284.3376 133.51568 
L 284.4864 133.515524 
L 284.6352 134.371707 
L 284.784 134.371517 
L 284.9328 136.084005 
L 285.0816 136.083747 
L 285.2304 135.22715 
L 285.528 135.226702 
L 285.6768 134.370138 
L 286.5696 134.368999 
L 286.7184 136.937826 
L 287.1648 136.93695 
L 287.3136 136.080319 
L 287.4624 136.080061 
L 287.6112 135.223464 
L 288.0576 135.222793 
L 288.2064 134.36623 
L 288.3552 134.366041 
L 288.504 133.509512 
L 288.9504 133.509045 
L 289.0992 132.652551 
L 289.8432 132.651944 
L 289.992 133.508161 
L 290.1408 133.508006 
L 290.2896 135.220528 
L 290.736 135.219858 
L 290.8848 133.506956 
L 291.6288 133.506179 
L 291.9264 136.074818 
L 292.0752 136.07456 
L 292.224 135.217964 
L 292.8192 135.21707 
L 292.968 134.360508 
L 293.4144 134.35994 
L 293.5632 135.21609 
L 293.712 135.215867 
L 293.8608 136.071983 
L 294.0096 136.071725 
L 294.1584 136.927807 
L 294.3072 136.927516 
L 294.456 136.070886 
L 294.6048 136.070629 
L 294.7536 135.214033 
L 295.3488 135.21314 
L 295.4976 137.781934 
L 295.7952 137.781284 
L 295.944 136.92462 
L 296.3904 136.923748 
L 296.5392 136.067118 
L 296.688 134.354183 
L 296.8368 134.353994 
L 296.9856 135.210144 
L 297.432 135.209476 
L 297.5808 134.352914 
L 298.176 134.352159 
L 298.3248 133.495632 
L 298.4736 133.495477 
L 298.6224 132.638983 
L 298.7712 132.638863 
L 298.92 134.35142 
L 299.0688 134.351231 
L 299.2176 135.207382 
L 299.9616 135.206269 
L 300.1104 134.349708 
L 300.2592 134.349519 
L 300.408 133.492992 
L 301.0032 133.492374 
L 301.152 136.061236 
L 301.3008 136.06098 
L 301.4496 136.917063 
L 301.5984 136.916772 
L 301.7472 136.060143 
L 301.896 136.059887 
L 302.0448 135.203291 
L 302.4912 135.202625 
L 302.64 134.346063 
L 302.7888 134.345875 
L 302.9376 136.058365 
L 303.5328 136.057341 
L 303.6816 134.344407 
L 304.2768 134.343654 
L 304.4256 133.487127 
L 304.5744 133.486973 
L 304.7232 132.63048 
L 304.872 132.63036 
L 305.0208 135.199257 
L 305.1696 135.199035 
L 305.3184 134.342474 
L 305.616 134.342098 
L 305.7648 133.485571 
L 306.0624 133.485263 
L 306.2112 132.62877 
L 306.6576 132.62841 
L 306.8064 133.484629 
L 306.9552 133.484475 
L 307.104 135.196999 
L 307.2528 135.196777 
L 307.4016 136.052894 
L 307.5504 136.052638 
L 307.6992 135.196044 
L 307.848 135.195822 
L 307.9968 134.339261 
L 308.4432 134.338698 
L 308.592 133.482171 
L 309.0384 133.48171 
L 309.1872 135.194234 
L 309.336 135.194013 
L 309.4848 136.906469 
L 309.6336 136.90618 
L 309.7824 136.049551 
L 310.2288 136.048785 
L 310.3776 135.192191 
L 310.824 135.191526 
L 310.9728 134.334966 
L 311.1216 134.334778 
L 311.2704 135.19093 
L 311.4192 135.190709 
L 311.568 134.334148 
L 311.8656 134.333774 
L 312.0144 133.477247 
L 312.312 133.47694 
L 312.4608 132.620448 
L 312.9072 132.620089 
L 313.056 131.763631 
L 313.2048 131.763545 
L 313.5024 134.332323 
L 313.8 134.331948 
L 313.9488 133.475422 
L 314.0976 134.331608 
L 314.2464 134.331421 
L 314.3952 132.618555 
L 315.5856 132.6176 
L 315.7344 135.186498 
L 316.1808 135.185835 
L 316.3296 134.329275 
L 316.9248 134.328526 
L 317.0736 133.472 
L 317.52 133.471541 
L 317.6688 134.327727 
L 317.8176 134.32754 
L 317.9664 136.040031 
L 318.264 136.039522 
L 318.4128 136.895606 
L 318.5616 136.895318 
L 318.8592 135.182097 
L 319.4544 135.181214 
L 319.6032 134.324654 
L 319.752 134.324468 
L 319.9008 136.036959 
L 320.0496 136.036704 
L 320.1984 136.892789 
L 320.3472 136.892501 
L 320.496 136.035874 
L 320.6448 136.035619 
L 320.7936 135.179026 
L 321.3888 135.178144 
L 321.5376 134.321585 
L 321.6864 134.321398 
L 321.8352 133.464873 
L 321.984 133.46472 
L 322.1328 132.608228 
L 322.2816 132.60811 
L 322.4304 135.177008 
L 323.0256 135.176127 
L 323.1744 134.319567 
L 323.6208 134.319008 
L 323.7696 133.462483 
L 323.9184 133.46233 
L 324.0672 134.318517 
L 324.3648 134.318144 
L 324.5136 133.461619 
L 324.6624 133.461466 
L 324.8112 135.173992 
L 324.96 135.173772 
L 325.1088 136.88623 
L 325.2576 136.885942 
L 325.4064 136.029316 
L 325.5552 136.029062 
L 325.704 135.172469 
L 326.5968 135.171149 
L 326.7456 134.314591 
L 326.8944 134.314404 
L 327.0432 135.170557 
L 327.192 135.170338 
L 327.3408 137.739135 
L 327.7872 137.738171 
L 327.936 136.881511 
L 328.0848 136.881224 
L 328.2336 136.024598 
L 328.3824 136.024344 
L 328.5312 135.167752 
L 328.9776 135.167093 
L 329.1264 134.310535 
L 329.424 134.310163 
L 329.5728 135.166316 
L 330.0192 135.165658 
L 330.168 134.309099 
L 331.0608 134.307986 
L 331.2096 133.451461 
L 332.2512 133.450398 
L 332.4 136.019264 
L 332.8464 136.018505 
L 332.9952 135.161913 
L 333.7392 135.160817 
L 333.888 134.304259 
L 334.632 134.303332 
L 334.7808 135.159486 
L 334.9296 135.159267 
L 335.0784 136.871726 
L 335.5248 136.870867 
L 335.6736 136.014242 
L 335.8224 136.013989 
L 335.9712 135.157398 
L 336.5664 135.156522 
L 336.7152 134.299964 
L 336.864 134.299779 
L 337.0128 133.443255 
L 337.1616 133.443104 
L 337.3104 132.586614 
L 337.4592 134.299174 
L 337.9056 134.298619 
L 338.0544 135.154773 
L 338.2032 135.154555 
L 338.352 134.297997 
L 338.5008 134.297812 
L 338.6496 133.441288 
L 339.5424 133.440381 
L 339.6912 132.583891 
L 340.1376 132.583539 
L 340.2864 133.439761 
L 340.4352 133.43961 
L 340.584 136.008476 
L 340.7328 136.008223 
L 340.8816 135.151632 
L 341.7744 135.150322 
L 341.9232 134.293765 
L 342.816 134.292657 
L 342.9648 133.436134 
L 343.1136 134.292322 
L 343.2624 134.292137 
L 343.4112 133.435614 
L 344.304 133.434709 
L 344.4528 132.578219 
L 345.4944 132.5774 
L 345.6432 131.720944 
L 345.792 131.72086 
L 345.9408 130.864438 
L 346.0896 130.864388 
L 346.2384 133.433356 
L 346.3872 133.433205 
L 346.536 135.145732 
L 346.6848 135.145514 
L 346.8336 134.288958 
L 347.5776 134.288036 
L 347.7264 133.431513 
L 348.4704 133.43076 
L 348.6192 132.574271 
L 349.3632 132.573687 
L 349.512 134.286248 
L 349.6608 134.286064 
L 349.8096 135.142219 
L 349.9584 135.142001 
L 350.1072 135.998122 
L 350.256 135.997871 
L 350.4048 135.141281 
L 350.8512 135.140628 
L 351 134.284071 
L 351.4464 134.283519 
L 351.5952 133.426997 
L 352.3392 133.426245 
L 352.488 134.282434 
L 352.6368 134.28225 
L 352.7856 136.851083 
L 353.232 136.85023 
L 353.3808 135.993606 
L 353.5296 135.993355 
L 353.6784 135.136765 
L 354.1248 135.136113 
L 354.2736 134.279557 
L 355.0176 134.278639 
L 355.1664 133.422116 
L 355.6128 133.421667 
L 355.7616 134.277856 
L 355.9104 134.277672 
L 356.0592 133.42115 
L 356.8032 133.4204 
L 356.952 132.563911 
L 357.1008 132.563795 
L 357.2496 133.420018 
L 357.3984 133.419868 
L 357.5472 132.563379 
L 357.9936 132.563031 
L 358.1424 131.706575 
L 358.2912 131.706493 
L 358.44 132.562749 
L 358.5888 132.562633 
L 358.7376 131.706178 
L 359.0352 131.706013 
L 359.184 130.849591 
L 359.3328 130.849542 
L 359.4816 133.41851 
L 359.6304 133.41836 
L 359.7792 135.130889 
L 359.928 135.130672 
L 360.0768 134.274116 
L 360.8208 134.2732 
L 360.9696 133.416678 
L 362.16 133.415481 
L 362.3088 132.558992 
L 362.4576 132.558876 
L 362.6064 133.4151 
L 362.7552 133.41495 
L 362.904 132.558461 
L 363.0528 133.414685 
L 363.4992 133.414236 
L 363.648 132.557748 
L 364.8384 132.556821 
L 364.9872 131.700366 
L 365.136 131.700284 
L 365.2848 130.843862 
L 366.624 130.843424 
L 366.7728 131.699714 
L 366.9216 133.41231 
L 368.112 133.411116 
L 368.2608 132.554627 
L 369.0048 132.554049 
L 369.1536 131.697594 
L 370.4928 131.696855 
L 370.7904 135.12198 
L 371.5344 135.120899 
L 371.6832 134.264344 
L 372.1296 134.263796 
L 372.2784 133.407275 
L 372.4272 133.407126 
L 372.576 134.263316 
L 372.7248 134.263133 
L 372.8736 133.406612 
L 373.7664 133.405718 
L 373.9152 132.54923 
L 374.6592 132.548653 
L 374.808 134.261216 
L 374.9568 134.261033 
L 375.1056 135.973529 
L 375.552 135.972781 
L 375.7008 135.116193 
L 376.1472 135.115545 
L 376.296 134.258991 
L 377.04 134.25808 
L 377.1888 133.401559 
L 377.4864 133.401261 
L 377.6352 132.544774 
L 378.3792 132.544198 
L 378.528 131.687744 
L 378.9744 131.687499 
L 379.1232 132.543756 
L 379.7184 132.543296 
L 379.8672 133.39952 
L 380.016 133.399372 
L 380.3136 131.68643 
L 380.9088 131.686104 
L 381.0576 132.542361 
L 381.3552 132.542131 
L 381.504 131.685677 
L 381.8016 131.685514 
L 381.9504 130.829094 
L 382.0992 130.829046 
L 382.248 131.685337 
L 382.6944 131.685092 
L 382.8432 130.828672 
L 383.5872 130.828432 
L 383.736 132.541062 
L 383.8848 132.540947 
L 384.0336 134.25351 
L 384.6288 134.252783 
L 384.7776 133.396262 
L 385.968 133.395076 
L 386.1168 132.538588 
L 386.2656 132.538474 
L 386.4144 133.394698 
L 386.5632 133.39455 
L 386.712 132.538062 
L 387.7536 132.537259 
L 387.9024 131.680806 
L 389.5392 131.679912 
L 389.688 130.823492 
L 391.92 130.822775 
L 392.0688 129.966389 
L 393.408 129.96626 
L 393.5568 130.822585 
L 393.7056 130.822537 
L 393.8544 133.391506 
L 394.5984 133.390766 
L 394.7472 132.534279 
L 395.7888 132.533478 
L 395.9376 131.677024 
L 396.384 131.676781 
L 396.5328 132.533039 
L 396.6816 131.676586 
L 397.2768 131.676261 
L 397.4256 130.819841 
L 397.872 130.819699 
L 398.0208 131.67599 
L 398.7648 131.675585 
L 398.9136 132.531843 
L 399.0624 132.531729 
L 399.2112 134.244292 
L 400.848 134.2423 
L 400.9968 133.38578 
L 401.592 133.385189 
L 401.7408 132.528703 
L 402.336 132.528246 
L 402.4848 133.384471 
L 402.6336 133.384323 
L 402.7824 132.527836 
L 403.824 132.527037 
L 403.9728 131.670584 
L 405.4608 131.669777 
L 405.6096 130.813358 
L 408.288 130.812507 
L 408.4368 129.95612 
L 410.6688 129.955912 
L 410.8176 132.524915 
L 410.9664 132.524801 
L 411.1152 133.381026 
L 411.4128 133.380732 
L 411.5616 132.524245 
L 412.1568 132.52379 
L 412.3056 133.380015 
L 412.752 133.379573 
L 412.9008 132.523087 
L 413.9424 132.52229 
L 414.0912 131.665837 
L 415.5792 131.665032 
L 415.728 130.808613 
L 416.9184 130.808236 
L 417.0672 132.520867 
L 417.216 132.520753 
L 417.3648 135.089657 
L 417.5136 135.089443 
L 417.6624 134.23289 
L 419.0016 134.231267 
L 419.1504 133.374747 
L 420.192 133.373719 
L 420.3408 132.517233 
L 420.4896 132.51712 
L 420.6384 133.373345 
L 420.7872 133.373198 
L 420.936 132.516712 
L 421.9776 132.515918 
L 422.1264 131.659465 
L 423.6144 131.658664 
L 423.7632 130.802245 
L 424.2096 130.802105 
L 424.3584 131.658397 
L 425.4 131.657836 
L 425.5488 130.801417 
L 428.376 130.80053 
L 428.5248 129.944144 
L 430.7568 129.943943 
L 430.9056 129.087591 
L 432.096 129.08775 
L 432.2448 130.800448 
L 432.3936 130.800401 
L 432.5424 133.369372 
L 433.4352 133.368492 
L 433.584 132.512007 
L 434.6256 132.511214 
L 434.7744 131.654762 
L 435.3696 131.654442 
L 435.5184 132.510701 
L 435.6672 132.510588 
L 435.816 131.654136 
L 437.8992 131.653018 
L 438.048 130.7966 
L 440.7264 130.795763 
L 440.8752 133.364733 
L 441.4704 133.364148 
L 441.6192 134.220341 
L 441.768 134.220161 
L 441.9168 133.363643 
L 443.1072 133.362473 
L 443.256 132.505988 
L 443.4048 132.505875 
L 443.5536 133.362101 
L 443.7024 132.505616 
L 445.0416 132.5046 
L 445.1904 131.648148 
L 446.3808 131.647512 
L 446.5296 130.791093 
L 449.3568 130.790215 
L 449.5056 129.93383 
L 451.1424 129.933687 
L 451.2912 130.790013 
L 453.8208 130.789228 
L 453.9696 129.932843 
L 459.3264 129.932378 
L 459.4752 129.076026 
L 462.3024 129.076412 
L 462.4512 130.789111 
L 462.6 130.789064 
L 462.7488 133.358035 
L 463.344 133.357452 
L 463.4928 132.500967 
L 464.5344 132.500179 
L 464.6832 131.643727 
L 465.1296 131.643489 
L 465.2784 132.499749 
L 466.0224 132.499186 
L 466.1712 131.642735 
L 467.6592 131.641942 
L 467.808 130.785524 
L 468.1056 130.785432 
L 468.2544 131.641725 
L 469.1472 131.64125 
L 469.296 130.784831 
L 473.016 130.783683 
L 473.1648 129.927298 
L 475.248 129.92712 
L 475.3968 131.639786 
L 475.5456 131.639707 
L 475.6944 134.208644 
L 476.1408 134.208108 
L 476.2896 133.351591 
L 476.4384 133.351445 
L 476.5872 131.638622 
L 476.736 131.638542 
L 476.8848 129.925785 
L 477.0336 129.925773 
L 477.1824 129.069421 
L 481.4976 129.070017 
L 481.6464 129.926377 
L 481.7952 129.926364 
L 481.944 132.495369 
L 482.0928 132.495256 
L 482.2416 133.351483 
L 482.3904 133.351338 
L 482.5392 129.925836 
L 482.688 129.925824 
L 482.8368 129.069472 
L 484.4736 129.069698 
L 484.6224 128.21338 
L 485.664 128.213756 
L 485.8128 130.782827 
L 485.9616 130.782781 
L 486.1104 132.495413 
L 486.5568 132.495076 
L 486.7056 129.925947 
L 486.8544 129.925934 
L 487.0032 128.213244 
L 488.3424 128.213728 
L 488.4912 129.07012 
L 488.64 129.070141 
L 488.7888 131.639179 
L 488.9376 131.6391 
L 489.0864 132.495359 
L 489.5328 132.495023 
L 489.6816 129.925893 
L 489.8304 129.925881 
L 489.9792 128.21319 
L 490.4256 128.213351 
L 490.5744 130.782422 
L 490.7232 130.782376 
L 490.872 131.638669 
L 493.4016 131.637326 
L 493.5504 130.780908 
L 493.9968 130.780771 
L 494.1456 131.637064 
L 494.2944 131.636985 
L 494.4432 130.780567 
L 499.056 130.779149 
L 499.2048 129.922764 
L 507.984 129.922027 
L 508.1328 132.491032 
L 508.8768 132.490472 
L 509.0256 133.346699 
L 509.472 133.346263 
L 509.6208 132.489779 
L 510.0672 132.489443 
L 510.216 133.34567 
L 510.6624 133.345235 
L 510.8112 132.488751 
L 511.8528 132.487967 
L 512.0016 131.631516 
L 512.448 131.63128 
L 512.5968 132.487541 
L 513.0432 132.487205 
L 513.192 131.630754 
L 516.6144 131.628946 
L 516.7632 130.772529 
L 518.1024 130.77212 
L 518.2512 129.915736 
L 518.4 129.915724 
L 518.4 129.915724 
" style="fill:none;stroke:#008000;stroke-linecap:square;"/>
   </g>
   <g id="line2d_2">
    <path clip-path="url(#p97fbcb3ece)" d="M 72.1488 129.6 
L 72.2976 129.6 
L 72.4464 228.896078 
L 72.744 272.602668 
L 72.8928 348.021229 
L 73.0416 217.633313 
L 73.1904 214.193369 
L 74.0832 214.44724 
L 74.5296 214.504218 
L 75.1248 214.676007 
L 75.2736 214.439366 
L 76.9104 214.872942 
L 77.8032 215.13546 
L 77.952 214.926809 
L 79.5888 215.342731 
L 79.8864 215.432034 
L 80.3328 215.583774 
L 80.4816 215.342726 
L 80.928 215.432642 
L 81.8208 215.70769 
L 82.2672 215.799027 
L 82.7136 215.984386 
L 83.16 216.076825 
L 83.3088 215.865275 
L 83.6064 215.92749 
L 83.904 216.021918 
L 84.9456 216.335141 
L 85.5408 216.526046 
L 85.6896 216.249469 
L 86.2848 216.440981 
L 86.7312 216.537314 
L 87.624 216.795321 
L 88.0704 216.991283 
L 88.2192 217.023294 
L 88.368 216.745089 
L 88.9632 216.908236 
L 89.856 217.205382 
L 90.7488 217.506246 
L 90.8976 217.540791 
L 91.0464 217.257663 
L 91.9392 217.59609 
L 92.3856 217.696965 
L 93.576 218.063634 
L 94.4688 218.36972 
L 94.7664 218.438635 
L 95.6592 218.754465 
L 96.7008 219.077628 
L 97.4448 219.331731 
L 97.5936 219.075362 
L 97.8912 219.185022 
L 99.3792 219.665039 
L 100.1232 219.926981 
L 100.272 219.668788 
L 101.3136 220.010264 
L 102.2064 220.353181 
L 102.8016 220.547835 
L 102.9504 220.285389 
L 104.4384 220.755116 
L 104.736 220.874696 
L 104.8848 220.652542 
L 105.9264 220.977775 
L 106.0752 220.758309 
L 106.5216 220.841685 
L 106.8192 220.966414 
L 106.968 220.746681 
L 107.4144 220.832127 
L 107.5632 220.613918 
L 107.8608 220.696295 
L 108.3072 220.866579 
L 108.456 220.606626 
L 108.6048 220.606626 
L 108.9024 220.734198 
L 109.0512 220.51399 
L 109.4976 220.601878 
L 109.7952 220.728615 
L 109.944 220.426361 
L 110.5392 220.681989 
L 110.688 220.377561 
L 111.1344 220.551656 
L 111.2832 220.287346 
L 111.8784 220.505771 
L 112.0272 220.202137 
L 112.4736 220.375666 
L 112.6224 220.112416 
L 113.2176 220.332129 
L 113.3664 220.026115 
L 113.8128 220.202271 
L 113.9616 219.897657 
L 114.408 220.07407 
L 114.5568 219.808555 
L 115.0032 219.98709 
L 115.152 219.680272 
L 115.5984 219.857489 
L 115.7472 219.552062 
L 116.1936 219.731132 
L 116.3424 219.423903 
L 116.7888 219.603241 
L 116.9376 219.297412 
L 117.384 219.475422 
L 117.5328 219.210669 
L 117.9792 219.349261 
L 118.128 219.082777 
L 118.5744 219.263218 
L 118.7232 218.956534 
L 119.1696 219.137263 
L 119.3184 218.830363 
L 119.7648 219.01137 
L 119.9136 218.704264 
L 120.2112 218.838932 
L 120.36 218.531827 
L 120.8064 218.713111 
L 120.9552 218.40579 
L 121.4016 218.588949 
L 121.5504 218.281421 
L 121.848 218.374582 
L 121.9968 218.108973 
L 122.4432 218.248833 
L 122.592 217.984666 
L 123.0384 218.077982 
L 123.336 217.953891 
L 123.4848 217.953891 
L 123.6336 217.646147 
L 123.9312 217.781443 
L 124.08 217.475296 
L 124.5264 217.657435 
L 124.6752 217.351051 
L 124.824 217.397739 
L 124.9728 217.136766 
L 125.4192 217.320491 
L 125.568 217.014117 
L 125.7168 217.014117 
L 126.0144 217.144872 
L 126.1632 216.843266 
L 126.312 216.938301 
L 126.4608 216.672404 
L 126.9072 216.814283 
L 127.056 216.506322 
L 127.3536 216.554597 
L 127.5024 216.337057 
L 127.9488 216.430506 
L 128.0976 216.212894 
L 128.544 216.308074 
L 128.6928 216.048398 
L 128.9904 216.138809 
L 129.1392 215.830859 
L 129.4368 215.925889 
L 129.5856 215.666368 
L 129.7344 215.666368 
L 129.8832 215.448915 
L 130.3296 215.543781 
L 130.4784 215.284419 
L 130.776 215.374516 
L 130.9248 215.421271 
L 131.0736 215.161755 
L 131.2224 215.161755 
L 131.3712 214.902559 
L 131.52 214.902559 
L 131.6688 215.040755 
L 131.8176 214.733299 
L 132.1152 214.781403 
L 132.264 214.522377 
L 132.7104 214.616907 
L 132.8592 214.399548 
L 133.008 214.399548 
L 133.1568 214.142282 
L 133.6032 214.236648 
L 133.752 213.977796 
L 134.0496 214.067388 
L 134.1984 214.113891 
L 134.3472 213.856471 
L 134.496 213.856471 
L 134.6448 213.597795 
L 135.0912 213.69198 
L 135.24 213.474796 
L 135.5376 213.522725 
L 135.6864 213.217886 
L 135.984 213.311901 
L 136.1328 213.053405 
L 136.5792 213.101165 
L 136.728 212.93191 
L 136.8768 212.93191 
L 137.0256 212.673594 
L 137.1744 212.721266 
L 137.3232 212.417209 
L 137.6208 212.510704 
L 137.7696 212.206915 
L 138.0672 212.252739 
L 138.216 211.996709 
L 138.3648 211.996709 
L 138.6624 212.130996 
L 138.8112 211.873216 
L 139.2576 211.968112 
L 139.4064 211.663025 
L 139.704 211.757746 
L 139.8528 211.452922 
L 140.1504 211.547468 
L 140.2992 211.290058 
L 140.448 211.290058 
L 140.5968 211.033004 
L 141.0432 211.168058 
L 141.192 210.865387 
L 141.3408 210.910844 
L 141.4896 210.655577 
L 141.936 210.747986 
L 142.0848 210.491143 
L 142.2336 210.491143 
L 142.3824 210.236251 
L 142.8288 210.3283 
L 142.9776 210.071832 
L 143.1264 210.071832 
L 143.2752 209.817317 
L 143.5728 209.909005 
L 143.7216 209.608002 
L 144.0192 209.654505 
L 144.168 209.398789 
L 144.6144 209.490106 
L 144.7632 209.235998 
L 145.2096 209.327299 
L 145.3584 209.073206 
L 145.5072 209.073206 
L 145.656 208.817897 
L 146.1024 208.908823 
L 146.2512 208.655126 
L 146.4 208.655126 
L 146.5488 208.40022 
L 146.9952 208.49236 
L 147.144 208.237474 
L 147.2928 208.237474 
L 147.4416 207.982969 
L 147.888 208.074729 
L 148.0368 207.82025 
L 148.1856 207.82025 
L 148.3344 207.567748 
L 148.7808 207.65753 
L 148.9296 207.403463 
L 149.0784 207.445913 
L 149.2272 207.145018 
L 149.5248 207.240769 
L 149.6736 206.904453 
L 149.9712 206.99507 
L 150.12 206.696652 
L 150.4176 206.787073 
L 150.5664 206.488964 
L 150.864 206.534035 
L 151.0128 206.282986 
L 151.4592 206.371419 
L 151.608 206.118814 
L 151.7568 206.118814 
L 151.9056 205.868207 
L 152.352 205.917744 
L 152.5008 205.667353 
L 152.6496 205.710432 
L 152.7984 205.415789 
L 153.2448 205.504835 
L 153.3936 205.253306 
L 153.84 205.340725 
L 153.9888 205.052823 
L 154.1376 205.052823 
L 154.2864 204.801943 
L 154.7328 204.890366 
L 154.8816 204.59546 
L 155.0304 204.690032 
L 155.1792 204.390692 
L 155.4768 204.439425 
L 155.6256 204.147058 
L 155.9232 204.233092 
L 156.072 203.941075 
L 156.6672 204.028488 
L 156.816 203.741575 
L 156.9648 203.781955 
L 157.1136 203.487724 
L 157.4112 203.53586 
L 157.56 203.288611 
L 157.8576 203.333455 
L 158.0064 203.040208 
L 158.304 203.089631 
L 158.4528 202.841481 
L 158.7504 202.926685 
L 158.8992 202.600128 
L 159.1968 202.685739 
L 159.3456 202.397029 
L 159.6432 202.480827 
L 159.792 202.156382 
L 160.0896 202.239794 
L 160.2384 201.952093 
L 160.536 202.035278 
L 160.6848 201.712162 
L 160.9824 201.796547 
L 161.1312 201.508285 
L 161.4288 201.592443 
L 161.5776 201.270666 
L 161.8752 201.352842 
L 162.024 201.067211 
L 162.3216 201.149161 
L 162.4704 200.828743 
L 162.768 200.910295 
L 162.9168 200.62572 
L 163.2144 200.67349 
L 163.3632 200.387993 
L 163.512 200.470509 
L 163.6608 200.187 
L 164.1072 200.23287 
L 164.256 199.950041 
L 164.5536 199.995704 
L 164.7024 199.71356 
L 165 199.793449 
L 165.1488 199.511712 
L 165.4464 199.558653 
L 165.5952 199.276014 
L 165.8928 199.356856 
L 166.0416 199.04081 
L 166.488 199.159998 
L 166.6368 198.846079 
L 166.9344 198.926278 
L 167.0832 198.645174 
L 167.3808 198.691466 
L 167.5296 198.450803 
L 167.8272 198.457158 
L 167.976 198.177476 
L 168.2736 198.256613 
L 168.4224 197.944394 
L 168.72 198.023125 
L 168.8688 197.74459 
L 169.0176 197.790151 
L 169.1664 197.512337 
L 169.6128 197.557692 
L 169.7616 197.280615 
L 169.9104 197.319404 
L 170.0592 197.049413 
L 170.3568 197.125069 
L 170.5056 196.818747 
L 170.952 196.893991 
L 171.1008 196.626786 
L 171.3984 196.663443 
L 171.5472 196.395394 
L 171.9936 196.47156 
L 172.1424 196.203974 
L 172.44 196.241887 
L 172.5888 195.975053 
L 172.7376 195.975053 
L 172.8864 195.740329 
L 173.3328 195.782593 
L 173.4816 195.51252 
L 173.7792 195.554574 
L 173.928 195.285268 
L 174.3744 195.36268 
L 174.5232 195.093859 
L 174.672 195.100214 
L 174.8208 194.867528 
L 175.2672 194.909031 
L 175.416 194.640178 
L 175.7136 194.683061 
L 175.8624 194.414996 
L 176.16 194.456077 
L 176.3088 194.195165 
L 176.6064 194.231265 
L 176.7552 193.966378 
L 177.2016 194.041411 
L 177.3504 193.747721 
L 177.648 193.817563 
L 177.7968 193.558763 
L 177.9456 193.565123 
L 178.0944 193.30107 
L 178.392 193.34109 
L 178.5408 193.079436 
L 178.9872 193.119245 
L 179.136 192.891653 
L 179.4336 192.896427 
L 179.5824 192.64119 
L 179.88 192.7089 
L 180.0288 192.421405 
L 180.3264 192.488683 
L 180.4752 192.200647 
L 180.7728 192.2396 
L 180.9216 191.982113 
L 181.368 192.0533 
L 181.5168 191.768977 
L 181.8144 191.834962 
L 181.9632 191.550119 
L 182.2608 191.588424 
L 182.4096 191.331905 
L 182.856 191.369998 
L 183.0048 191.115931 
L 183.4512 191.185392 
L 183.6 190.905379 
L 183.8976 190.943035 
L 184.0464 190.689127 
L 184.344 190.726567 
L 184.4928 190.47354 
L 184.7904 190.517123 
L 184.9392 190.264976 
L 185.2368 190.301983 
L 185.3856 190.050732 
L 185.6832 190.087523 
L 185.832 189.81179 
L 186.2784 189.880103 
L 186.4272 189.63065 
L 186.8736 189.667007 
L 187.0224 189.423235 
L 187.32 189.429589 
L 187.4688 189.188608 
L 187.7664 189.223668 
L 187.9152 188.978041 
L 188.2128 189.013673 
L 188.3616 188.768185 
L 188.6592 188.803601 
L 188.808 188.535036 
L 189.2544 188.599002 
L 189.4032 188.331602 
L 189.7008 188.366513 
L 189.8496 188.12412 
L 190.296 188.163583 
L 190.4448 187.923735 
L 190.8912 187.956622 
L 191.04 187.722499 
L 191.4864 187.750396 
L 191.784 187.28931 
L 192.2304 187.319885 
L 192.3792 187.080216 
L 192.8256 187.123285 
L 192.9744 186.866446 
L 193.4208 186.898108 
L 193.5696 186.669439 
L 193.8672 186.700884 
L 194.016 186.46685 
L 194.4624 186.499664 
L 194.6112 186.269019 
L 195.0576 186.297641 
L 195.2064 186.076744 
L 195.3552 186.079128 
L 195.504 185.855558 
L 195.9504 185.881297 
L 196.0992 185.630902 
L 196.6944 185.693014 
L 196.8432 185.469109 
L 197.1408 185.473878 
L 197.2896 185.246523 
L 197.4384 185.271546 
L 197.5872 185.034792 
L 198.1824 185.090704 
L 198.3312 184.845685 
L 198.7776 184.899568 
L 198.9264 184.655826 
L 199.3728 184.684902 
L 199.5216 184.466811 
L 199.968 184.495671 
L 200.1168 184.259607 
L 200.5632 184.288194 
L 200.712 184.072529 
L 201.0096 184.096125 
L 201.1584 183.862992 
L 201.7536 183.909701 
L 201.9024 183.677881 
L 202.2 183.708142 
L 202.3488 183.488882 
L 202.6464 183.503188 
L 202.7952 183.287693 
L 203.2416 183.315085 
L 203.3904 183.087889 
L 203.8368 183.137416 
L 203.9856 182.906795 
L 204.432 182.936088 
L 204.5808 182.721849 
L 204.8784 182.736155 
L 205.0272 182.525712 
L 205.4736 182.556905 
L 205.6224 182.330986 
L 206.0688 182.359527 
L 206.2176 182.149269 
L 206.664 182.184752 
L 206.8128 181.961897 
L 207.2592 181.989964 
L 207.408 181.782302 
L 207.8544 181.815714 
L 208.0032 181.595955 
L 208.5984 181.623542 
L 208.7472 181.428054 
L 209.0448 181.431232 
L 209.1936 181.234812 
L 209.7888 181.26431 
L 209.9376 181.0478 
L 210.384 181.077046 
L 210.5328 180.876146 
L 210.9792 180.905974 
L 211.128 180.694212 
L 211.5744 180.718221 
L 211.7232 180.511378 
L 212.1696 180.535129 
L 212.3184 180.348766 
L 212.7648 180.358298 
L 212.9136 180.162306 
L 213.36 180.191959 
L 213.5088 179.985306 
L 213.9552 180.011524 
L 214.104 179.826248 
L 214.6992 179.834199 
L 214.848 179.650443 
L 215.1456 179.671438 
L 215.2944 179.474575 
L 215.8896 179.500093 
L 216.0384 179.300243 
L 216.4848 179.322336 
L 216.6336 179.125859 
L 217.08 179.158839 
L 217.2288 178.97623 
L 217.824 178.988945 
L 217.9728 178.806306 
L 218.4192 178.830892 
L 218.568 178.639534 
L 219.1632 178.66706 
L 219.312 178.476722 
L 219.7584 178.50004 
L 219.9072 178.31549 
L 220.3536 178.339365 
L 220.5024 178.162798 
L 221.0976 178.175513 
L 221.2464 178.005305 
L 221.8416 178.027161 
L 221.9904 177.844656 
L 222.4368 177.86628 
L 222.5856 177.685613 
L 223.1808 177.711774 
L 223.3296 177.532163 
L 223.9248 177.557305 
L 224.0736 177.377164 
L 224.6688 177.401285 
L 224.8176 177.229358 
L 225.264 177.250081 
L 225.4128 177.075249 
L 226.008 177.098928 
L 226.1568 176.927557 
L 226.6032 176.951014 
L 226.752 176.779936 
L 227.3472 176.804764 
L 227.496 176.635566 
L 228.0912 176.658591 
L 228.24 176.491283 
L 228.8352 176.514091 
L 228.984 176.348678 
L 229.5792 176.371276 
L 229.728 176.207763 
L 230.3232 176.230155 
L 230.472 176.068548 
L 231.216 176.093905 
L 231.5136 175.937391 
L 231.96 175.954602 
L 232.2576 175.801595 
L 232.8528 175.821778 
L 233.0016 174.363198 
L 233.1504 174.371304 
L 233.2992 175.679549 
L 233.5968 175.685909 
L 233.7456 174.403733 
L 244.3104 174.869845 
L 250.8576 174.93875 
L 271.5408 175.048184 
L 276.3024 175.068448 
L 295.2 175.177888 
L 300.408 175.210311 
L 320.3472 175.319745 
L 325.5552 175.352169 
L 344.304 175.461608 
L 349.0656 175.481873 
L 375.1056 175.591307 
L 380.016 175.615629 
L 420.0432 175.725064 
L 424.656 175.741275 
L 510.6624 175.850709 
L 515.2752 175.866921 
L 518.4 175.870979 
L 518.4 175.870979 
" style="fill:none;stroke:#000000;stroke-dasharray:6.000000,6.000000;stroke-dashoffset:0.0;"/>
   </g>
   <g id="line2d_3">
    <path clip-path="url(#p97fbcb3ece)" d="M 72.1488 129.6 
L 72.2976 129.6 
L 72.4464 216 
L 72.8928 216 
L 73.0416 172.736248 
L 73.1904 169.295059 
L 74.0832 169.551362 
L 74.5296 169.608628 
L 75.1248 169.781487 
L 75.2736 169.570959 
L 76.0176 169.802947 
L 76.7616 169.978695 
L 77.8032 170.27622 
L 77.952 170.092705 
L 79.2912 170.45349 
L 79.8864 170.606281 
L 80.3328 170.784785 
L 80.4816 170.54422 
L 80.7792 170.574321 
L 81.8208 170.915743 
L 82.2672 171.010283 
L 82.7136 171.199458 
L 83.16 171.295304 
L 83.3088 171.109307 
L 83.6064 171.172926 
L 83.904 171.268092 
L 84.7968 171.585152 
L 85.392 171.722293 
L 85.5408 171.787806 
L 85.6896 171.535243 
L 86.2848 171.732034 
L 86.5824 171.791004 
L 88.2192 172.335 
L 88.368 172.077755 
L 88.9632 172.247793 
L 89.856 172.556755 
L 90.8976 172.932032 
L 91.0464 172.645144 
L 92.5344 173.223734 
L 92.832 173.334734 
L 93.1296 173.472796 
L 93.4272 173.5585 
L 95.2128 174.050927 
L 95.6592 174.291631 
L 96.2544 174.43905 
L 97.4448 174.87399 
L 97.5936 174.628482 
L 97.7424 174.628482 
L 98.04 174.796578 
L 98.9328 175.110245 
L 99.528 175.333346 
L 99.6768 175.333346 
L 99.9744 175.467386 
L 100.1232 175.547342 
L 100.272 175.312906 
L 100.8672 175.512674 
L 101.76 175.880393 
L 102.3552 176.085146 
L 102.6528 176.197695 
L 102.8016 176.250909 
L 102.9504 176.015509 
L 103.992 176.390917 
L 104.2896 176.475349 
L 104.736 176.58467 
L 104.8848 176.387781 
L 105.1824 176.458087 
L 105.6288 176.566826 
L 105.9264 176.693234 
L 106.0752 176.492735 
L 106.5216 176.545212 
L 106.8192 176.670878 
L 106.968 176.439686 
L 108.1584 176.486632 
L 108.3072 176.601556 
L 108.456 176.325262 
L 108.6048 176.325262 
L 108.9024 176.481658 
L 109.0512 176.249884 
L 109.4976 176.331123 
L 109.7952 176.459503 
L 109.944 176.16986 
L 110.5392 176.425725 
L 110.688 176.106208 
L 110.9856 176.304972 
L 111.1344 176.304972 
L 111.2832 176.030511 
L 111.8784 176.24133 
L 112.0272 175.981052 
L 112.4736 176.121009 
L 112.6224 175.906266 
L 113.0688 176.000801 
L 113.2176 176.087823 
L 113.3664 175.797305 
L 113.8128 175.967987 
L 113.9616 175.675481 
L 114.2592 175.805401 
L 114.408 175.846548 
L 114.5568 175.570512 
L 115.0032 175.771809 
L 115.152 175.48025 
L 115.5984 175.62114 
L 115.7472 175.32763 
L 116.1936 175.529833 
L 116.3424 175.206392 
L 116.7888 175.409059 
L 116.9376 175.1149 
L 117.384 175.256938 
L 117.5328 175.009431 
L 117.9792 175.166167 
L 118.128 174.888724 
L 118.5744 175.061594 
L 118.7232 174.7664 
L 119.1696 174.939697 
L 119.3184 174.644215 
L 119.7648 174.81795 
L 119.9136 174.522189 
L 120.2112 174.654015 
L 120.36 174.358162 
L 120.8064 174.532453 
L 120.9552 174.204666 
L 121.4016 174.409243 
L 121.5504 174.112792 
L 121.848 174.197523 
L 121.9968 173.948868 
L 122.4432 174.044397 
L 122.592 173.825545 
L 123.0384 173.910548 
L 123.336 173.78759 
L 123.4848 173.78759 
L 123.6336 173.458886 
L 123.9312 173.592004 
L 124.08 173.324975 
L 124.3776 173.378317 
L 124.5264 173.46917 
L 124.6752 173.201894 
L 124.824 173.212719 
L 124.9728 172.958327 
L 125.4192 173.228395 
L 125.568 172.833495 
L 126.0144 172.845087 
L 126.1632 172.667871 
L 126.312 172.751525 
L 126.4608 172.50228 
L 126.9072 172.628878 
L 127.056 172.299453 
L 127.3536 172.37221 
L 127.5024 172.163897 
L 127.9488 172.217635 
L 128.0976 172.00927 
L 128.544 172.093215 
L 128.6928 171.836488 
L 128.9904 171.957872 
L 129.1392 171.65999 
L 129.4368 171.712037 
L 129.5856 171.455338 
L 129.7344 171.455338 
L 129.8832 171.247047 
L 130.3296 171.330853 
L 130.4784 171.074229 
L 130.6272 171.074229 
L 130.9248 171.2065 
L 131.0736 170.94967 
L 131.2224 170.94967 
L 131.3712 170.693161 
L 131.52 170.693161 
L 131.6688 170.855384 
L 131.8176 170.525758 
L 132.1152 170.566715 
L 132.264 170.310291 
L 132.7104 170.393935 
L 132.8592 170.185614 
L 133.008 170.185614 
L 133.1568 169.959224 
L 133.6032 170.010995 
L 133.752 169.754626 
L 134.0496 169.843659 
L 134.1984 169.886488 
L 134.3472 169.659931 
L 134.496 169.659931 
L 134.6448 169.371797 
L 135.0912 169.455286 
L 135.24 169.247019 
L 135.5376 169.28794 
L 135.6864 168.988996 
L 135.984 169.072388 
L 136.1328 168.816165 
L 136.5792 168.856942 
L 136.728 168.689515 
L 136.8768 168.689515 
L 137.0256 168.43338 
L 137.1744 168.47411 
L 137.3232 168.175736 
L 137.6208 168.258726 
L 137.7696 167.960571 
L 138.0672 168.002871 
L 138.216 167.745493 
L 138.3648 167.745493 
L 138.6624 167.875964 
L 138.8112 167.620202 
L 139.2576 167.701325 
L 139.4064 167.40507 
L 139.704 167.486082 
L 139.8528 167.190051 
L 140.1504 167.270865 
L 140.2992 167.015374 
L 140.448 167.015374 
L 140.5968 166.728628 
L 140.8944 166.888216 
L 141.0432 166.888216 
L 141.192 166.590785 
L 141.3408 166.632826 
L 141.4896 166.375957 
L 141.936 166.458122 
L 142.0848 166.20303 
L 142.2336 166.20303 
L 142.3824 165.94647 
L 142.8288 166.028311 
L 142.9776 165.74206 
L 143.1264 165.74206 
L 143.2752 165.517257 
L 143.5728 165.598792 
L 143.7216 165.302797 
L 144.0192 165.342553 
L 144.168 165.088368 
L 144.6144 165.138185 
L 144.7632 164.913651 
L 145.2096 164.994841 
L 145.3584 164.738894 
L 145.5072 164.738894 
L 145.656 164.485058 
L 146.1024 164.534569 
L 146.2512 164.310288 
L 146.4 164.310288 
L 146.5488 164.056782 
L 146.9952 164.135541 
L 147.144 163.882025 
L 147.2928 163.882025 
L 147.4416 163.628828 
L 147.888 163.707247 
L 148.0368 163.454065 
L 148.1856 163.454065 
L 148.3344 163.199488 
L 148.7808 163.27928 
L 148.9296 162.995374 
L 149.0784 163.006701 
L 149.2272 162.655189 
L 149.5248 162.820583 
L 149.6736 162.513236 
L 149.9712 162.590594 
L 150.12 162.299945 
L 150.4176 162.377084 
L 150.5664 162.055865 
L 150.864 162.125169 
L 151.0128 161.871905 
L 151.4592 161.950371 
L 151.608 161.668018 
L 151.7568 161.668018 
L 151.9056 161.445934 
L 152.352 161.479016 
L 152.5008 161.226355 
L 152.6496 161.23539 
L 152.7984 160.975776 
L 153.2448 161.051585 
L 153.3936 160.801011 
L 153.84 160.847831 
L 153.9888 160.581796 
L 154.1376 160.581796 
L 154.2864 160.331835 
L 154.7328 160.284935 
L 154.8816 160.089172 
L 155.0304 160.310165 
L 155.1792 159.905832 
L 155.4768 159.938264 
L 155.6256 159.650094 
L 155.9232 159.695758 
L 156.072 159.438332 
L 156.6672 159.512544 
L 156.816 159.220121 
L 156.9648 159.199825 
L 157.1136 158.856182 
L 157.4112 159.008596 
L 158.1552 158.391223 
L 158.304 158.54124 
L 158.4528 158.293811 
L 158.7504 158.352349 
L 158.8992 158.01058 
L 159.1968 158.112794 
L 159.3456 157.828268 
L 159.6432 157.901949 
L 159.792 157.575635 
L 160.0896 157.64892 
L 160.2384 157.365418 
L 160.536 157.408656 
L 160.6848 157.113542 
L 160.9824 157.184595 
L 161.1312 156.874134 
L 161.4288 156.974504 
L 161.5776 156.651056 
L 161.8752 156.723004 
L 162.024 156.441622 
L 162.3216 156.513305 
L 162.4704 156.191314 
L 162.768 156.233169 
L 162.9168 155.982287 
L 163.2144 156.01083 
L 163.3632 155.703583 
L 163.512 155.801847 
L 163.6608 155.522658 
L 164.1072 155.55244 
L 164.256 155.273985 
L 164.5536 155.303612 
L 164.7024 155.025897 
L 165 155.066259 
L 165.1488 154.817975 
L 165.4464 154.845812 
L 165.5952 154.570733 
L 165.8928 154.637944 
L 166.0416 154.324017 
L 166.488 154.396988 
L 166.6368 154.111007 
L 166.9344 154.177512 
L 167.0832 153.904058 
L 167.3808 153.931296 
L 167.5296 153.691426 
L 167.8272 153.685615 
L 167.976 153.413695 
L 168.2736 153.479044 
L 168.4224 153.169377 
L 168.72 153.234265 
L 168.8688 152.96355 
L 169.0176 152.990116 
L 169.1664 152.720153 
L 169.6128 152.774729 
L 169.7616 152.477398 
L 169.9104 152.509211 
L 170.0592 152.235219 
L 170.3568 152.299883 
L 170.5056 151.993694 
L 170.952 152.057843 
L 171.2496 151.81166 
L 171.3984 151.816462 
L 171.5472 151.627828 
L 171.8448 151.717886 
L 173.0352 150.862567 
L 173.184 150.998773 
L 173.3328 150.888881 
L 173.4816 150.624315 
L 173.7792 150.650458 
L 173.928 150.413941 
L 174.0768 150.521685 
L 174.2256 150.412659 
L 174.3744 150.443957 
L 174.5232 150.180805 
L 174.672 150.202669 
L 174.9696 149.971326 
L 175.2672 149.969901 
L 175.416 149.709792 
L 175.7136 149.760818 
L 175.8624 149.474685 
L 176.0112 149.60728 
L 176.904 149.002737 
L 177.2016 149.061113 
L 177.3504 148.796225 
L 177.648 148.827644 
L 177.7968 148.566746 
L 177.9456 148.588165 
L 178.0944 148.30718 
L 178.392 148.33126 
L 178.6896 148.105111 
L 178.9872 148.126369 
L 179.2848 147.900788 
L 179.4336 147.87115 
L 179.5824 147.614535 
L 179.88 147.669888 
L 180.0288 147.41175 
L 180.3264 147.466657 
L 180.4752 147.159355 
L 180.7728 147.182394 
L 180.9216 146.957838 
L 181.368 146.982674 
L 181.5168 146.728032 
L 181.8144 146.781396 
L 181.9632 146.503601 
L 182.2608 146.526 
L 182.4096 146.254815 
L 182.856 146.276983 
L 183.1536 146.027622 
L 183.4512 146.079378 
L 183.6 145.829532 
L 183.8976 145.851255 
L 184.0464 145.608307 
L 184.344 145.629831 
L 184.4928 145.363266 
L 184.7904 145.40489 
L 184.9392 145.164045 
L 185.2368 145.185123 
L 185.3856 144.945356 
L 185.6832 144.966199 
L 185.832 144.675353 
L 186.2784 144.743907 
L 186.4272 144.506301 
L 186.8736 144.526712 
L 187.0224 144.263119 
L 187.32 144.283018 
L 187.4688 144.043885 
L 187.7664 144.052364 
L 187.9152 143.82987 
L 188.2128 143.849522 
L 188.3616 143.616712 
L 188.6592 143.636159 
L 188.808 143.378473 
L 189.2544 143.420755 
L 189.4032 143.164549 
L 189.7008 143.183476 
L 189.8496 142.954467 
L 190.296 142.970313 
L 190.4448 142.741557 
L 190.8912 142.76099 
L 191.04 142.530609 
L 191.4864 142.484127 
L 191.9328 142.114503 
L 192.2304 142.079388 
L 192.3792 141.824816 
L 192.8256 141.903943 
L 192.9744 141.68044 
L 193.4208 141.676362 
L 193.5696 141.475087 
L 193.8672 141.470917 
L 194.016 141.25235 
L 194.4624 141.291027 
L 194.76 140.984225 
L 195.0576 141.004022 
L 195.504 140.713655 
L 195.9504 140.647268 
L 196.0992 140.349299 
L 196.3968 140.447342 
L 196.6944 140.466388 
L 196.992 140.249704 
L 197.1408 140.249704 
L 197.2896 139.97683 
L 197.4384 140.057887 
L 197.5872 139.803183 
L 198.1824 139.857072 
L 198.3312 139.629442 
L 198.7776 139.662886 
L 198.9264 139.436942 
L 199.3728 139.452266 
L 199.5216 139.245631 
L 199.968 139.260717 
L 200.1168 139.036429 
L 200.5632 139.051216 
L 200.712 138.847844 
L 201.0096 138.864512 
L 201.3072 138.660491 
L 201.7536 138.617766 
L 201.9024 138.458319 
L 202.2 138.442035 
L 202.3488 138.217814 
L 202.6464 138.269748 
L 202.7952 138.074983 
L 203.2416 138.088485 
L 203.3904 137.876192 
L 203.8368 137.904586 
L 203.9856 137.69607 
L 204.432 137.679956 
L 204.5808 137.463434 
L 204.8784 137.513578 
L 205.0272 137.325542 
L 205.4736 137.33619 
L 205.6224 137.133986 
L 206.0688 137.118 
L 206.2176 136.907648 
L 206.664 136.970036 
L 206.8128 136.772001 
L 207.2592 136.773905 
L 207.5568 136.548746 
L 207.8544 136.664274 
L 208.0032 136.41744 
L 208.5984 136.419081 
L 208.896 136.265175 
L 209.0448 136.246891 
L 209.1936 136.069843 
L 209.7888 136.095977 
L 209.9376 135.892252 
L 210.384 135.917949 
L 210.5328 135.721788 
L 210.9792 135.738519 
L 211.2768 135.570617 
L 211.5744 135.581965 
L 211.872 135.411353 
L 212.7648 135.238709 
L 213.0624 135.027805 
L 213.36 135.082865 
L 213.5088 134.909447 
L 213.9552 134.917498 
L 214.2528 134.75598 
L 214.848 134.640011 
L 215.7408 134.443872 
L 215.8896 134.443068 
L 216.0384 134.2644 
L 216.4848 134.243008 
L 216.7824 134.096834 
L 217.08 134.130158 
L 217.3776 133.979677 
L 217.824 133.991751 
L 218.1216 133.822416 
L 218.4192 133.836845 
L 218.7168 133.681477 
L 219.1632 133.687793 
L 219.4608 133.535025 
L 219.7584 133.54212 
L 220.056 133.391909 
L 220.3536 133.411152 
L 220.6512 133.259274 
L 221.0976 133.26994 
L 221.3952 133.093971 
L 221.8416 133.125482 
L 222.1392 132.982789 
L 222.4368 132.988958 
L 222.7344 132.861838 
L 223.9248 132.733962 
L 224.2224 132.564034 
L 224.6688 132.604478 
L 224.9664 132.471672 
L 225.264 132.476947 
L 225.5616 132.34756 
L 226.008 132.352159 
L 226.3056 132.225224 
L 226.6032 132.229627 
L 226.9008 132.105424 
L 227.3472 132.120633 
L 227.6448 131.993845 
L 228.0912 131.992401 
L 228.3888 131.879086 
L 228.8352 131.877722 
L 229.1328 131.771982 
L 229.5792 131.765594 
L 229.8768 131.662375 
L 230.3232 131.66606 
L 230.6208 131.545823 
L 231.216 131.558529 
L 231.5136 131.450826 
L 232.8528 131.351924 
L 233.1504 131.249853 
L 233.7456 131.153841 
L 235.3824 131.062224 
L 235.68 130.968699 
L 237.168 130.890483 
L 237.4656 130.802465 
L 241.1856 130.560999 
L 241.4832 130.493663 
L 246.6912 130.365894 
L 247.2864 130.373807 
L 247.4352 83.218917 
L 248.0304 83.21281 
L 248.1792 130.307004 
L 261.2736 130.254604 
L 261.5712 130.191118 
L 287.76 130.091443 
L 288.2064 130.041445 
L 291.48 130.042405 
L 299.0688 129.993849 
L 302.64 129.990046 
L 320.0496 129.899427 
L 320.496 129.855106 
L 353.232 129.75027 
L 353.8272 129.71625 
L 476.4384 129.607174 
L 476.5872 81.0964 
L 481.4976 81.0964 
L 481.6464 129.607852 
L 482.2416 129.607852 
L 482.3904 81.0964 
L 485.5152 81.0964 
L 485.664 129.607852 
L 486.408 129.607852 
L 486.5568 81.0964 
L 488.3424 81.0964 
L 488.4912 129.607852 
L 489.384 129.607852 
L 489.5328 81.0964 
L 490.2768 81.0964 
L 490.4256 129.601971 
L 517.9536 129.601974 
L 518.1024 80.980626 
L 518.4 80.980626 
L 518.4 80.980626 
" style="fill:none;stroke:#000000;stroke-dasharray:6.000000,6.000000;stroke-dashoffset:0.0;"/>
   </g>
   <g id="patch_3">
    <path d="M 72 43.2 
L 518.4 43.2 
" style="fill:none;stroke:#000000;stroke-linecap:square;stroke-linejoin:miter;"/>
   </g>
   <g id="patch_4">
    <path d="M 518.4 388.8 
L 518.4 43.2 
" style="fill:none;stroke:#000000;stroke-linecap:square;stroke-linejoin:miter;"/>
   </g>
   <g id="patch_5">
    <path d="M 72 388.8 
L 518.4 388.8 
" style="fill:none;stroke:#000000;stroke-linecap:square;stroke-linejoin:miter;"/>
   </g>
   <g id="patch_6">
    <path d="M 72 388.8 
L 72 43.2 
" style="fill:none;stroke:#000000;stroke-linecap:square;stroke-linejoin:miter;"/>
   </g>
   <g id="matplotlib.axis_1">
    <g id="xtick_1">
     <g id="line2d_4">
      <path clip-path="url(#p97fbcb3ece)" d="M 72 388.8 
L 72 43.2 
" style="fill:none;stroke:#000000;stroke-dasharray:1.000000,3.000000;stroke-dashoffset:0.0;stroke-width:0.5;"/>
     </g>
     <g id="line2d_5">
      <defs>
       <path d="M 0 0 
L 0 -4 
" id="m37a4f9b4ef" style="stroke:#000000;stroke-width:0.5;"/>
      </defs>
      <g>
       <use style="stroke:#000000;stroke-width:0.5;" x="72.0" xlink:href="#m37a4f9b4ef" y="388.8"/>
      </g>
     </g>
     <g id="line2d_6">
      <defs>
       <path d="M 0 0 
L 0 4 
" id="m4f8678b516" style="stroke:#000000;stroke-width:0.5;"/>
      </defs>
      <g>
       <use style="stroke:#000000;stroke-width:0.5;" x="72.0" xlink:href="#m4f8678b516" y="43.2"/>
      </g>
     </g>
     <g id="text_1">
      <!-- 0 -->
      <defs>
       <path d="M 31.78125 66.40625 
Q 24.171875 66.40625 20.328125 58.90625 
Q 16.5 51.421875 16.5 36.375 
Q 16.5 21.390625 20.328125 13.890625 
Q 24.171875 6.390625 31.78125 6.390625 
Q 39.453125 6.390625 43.28125 13.890625 
Q 47.125 21.390625 47.125 36.375 
Q 47.125 51.421875 43.28125 58.90625 
Q 39.453125 66.40625 31.78125 66.40625 
M 31.78125 74.21875 
Q 44.046875 74.21875 50.515625 64.515625 
Q 56.984375 54.828125 56.984375 36.375 
Q 56.984375 17.96875 50.515625 8.265625 
Q 44.046875 -1.421875 31.78125 -1.421875 
Q 19.53125 -1.421875 13.0625 8.265625 
Q 6.59375 17.96875 6.59375 36.375 
Q 6.59375 54.828125 13.0625 64.515625 
Q 19.53125 74.21875 31.78125 74.21875 
" id="BitstreamVeraSans-Roman-30"/>
      </defs>
      <g transform="translate(68.1825 401.918125)scale(0.12 -0.12)">
       <use xlink:href="#BitstreamVeraSans-Roman-30"/>
      </g>
     </g>
    </g>
    <g id="xtick_2">
     <g id="line2d_7">
      <path clip-path="url(#p97fbcb3ece)" d="M 146.4 388.8 
L 146.4 43.2 
" style="fill:none;stroke:#000000;stroke-dasharray:1.000000,3.000000;stroke-dashoffset:0.0;stroke-width:0.5;"/>
     </g>
     <g id="line2d_8">
      <g>
       <use style="stroke:#000000;stroke-width:0.5;" x="146.4" xlink:href="#m37a4f9b4ef" y="388.8"/>
      </g>
     </g>
     <g id="line2d_9">
      <g>
       <use style="stroke:#000000;stroke-width:0.5;" x="146.4" xlink:href="#m4f8678b516" y="43.2"/>
      </g>
     </g>
     <g id="text_2">
      <!-- 5 -->
      <defs>
       <path d="M 10.796875 72.90625 
L 49.515625 72.90625 
L 49.515625 64.59375 
L 19.828125 64.59375 
L 19.828125 46.734375 
Q 21.96875 47.46875 24.109375 47.828125 
Q 26.265625 48.1875 28.421875 48.1875 
Q 40.625 48.1875 47.75 41.5 
Q 54.890625 34.8125 54.890625 23.390625 
Q 54.890625 11.625 47.5625 5.09375 
Q 40.234375 -1.421875 26.90625 -1.421875 
Q 22.3125 -1.421875 17.546875 -0.640625 
Q 12.796875 0.140625 7.71875 1.703125 
L 7.71875 11.625 
Q 12.109375 9.234375 16.796875 8.0625 
Q 21.484375 6.890625 26.703125 6.890625 
Q 35.15625 6.890625 40.078125 11.328125 
Q 45.015625 15.765625 45.015625 23.390625 
Q 45.015625 31 40.078125 35.4375 
Q 35.15625 39.890625 26.703125 39.890625 
Q 22.75 39.890625 18.8125 39.015625 
Q 14.890625 38.140625 10.796875 36.28125 
z
" id="BitstreamVeraSans-Roman-35"/>
      </defs>
      <g transform="translate(142.5825 401.918125)scale(0.12 -0.12)">
       <use xlink:href="#BitstreamVeraSans-Roman-35"/>
      </g>
     </g>
    </g>
    <g id="xtick_3">
     <g id="line2d_10">
      <path clip-path="url(#p97fbcb3ece)" d="M 220.8 388.8 
L 220.8 43.2 
" style="fill:none;stroke:#000000;stroke-dasharray:1.000000,3.000000;stroke-dashoffset:0.0;stroke-width:0.5;"/>
     </g>
     <g id="line2d_11">
      <g>
       <use style="stroke:#000000;stroke-width:0.5;" x="220.8" xlink:href="#m37a4f9b4ef" y="388.8"/>
      </g>
     </g>
     <g id="line2d_12">
      <g>
       <use style="stroke:#000000;stroke-width:0.5;" x="220.8" xlink:href="#m4f8678b516" y="43.2"/>
      </g>
     </g>
     <g id="text_3">
      <!-- 10 -->
      <defs>
       <path d="M 12.40625 8.296875 
L 28.515625 8.296875 
L 28.515625 63.921875 
L 10.984375 60.40625 
L 10.984375 69.390625 
L 28.421875 72.90625 
L 38.28125 72.90625 
L 38.28125 8.296875 
L 54.390625 8.296875 
L 54.390625 0 
L 12.40625 0 
z
" id="BitstreamVeraSans-Roman-31"/>
      </defs>
      <g transform="translate(213.165 401.918125)scale(0.12 -0.12)">
       <use xlink:href="#BitstreamVeraSans-Roman-31"/>
       <use x="63.623046875" xlink:href="#BitstreamVeraSans-Roman-30"/>
      </g>
     </g>
    </g>
    <g id="xtick_4">
     <g id="line2d_13">
      <path clip-path="url(#p97fbcb3ece)" d="M 295.2 388.8 
L 295.2 43.2 
" style="fill:none;stroke:#000000;stroke-dasharray:1.000000,3.000000;stroke-dashoffset:0.0;stroke-width:0.5;"/>
     </g>
     <g id="line2d_14">
      <g>
       <use style="stroke:#000000;stroke-width:0.5;" x="295.2" xlink:href="#m37a4f9b4ef" y="388.8"/>
      </g>
     </g>
     <g id="line2d_15">
      <g>
       <use style="stroke:#000000;stroke-width:0.5;" x="295.2" xlink:href="#m4f8678b516" y="43.2"/>
      </g>
     </g>
     <g id="text_4">
      <!-- 15 -->
      <g transform="translate(287.565 401.918125)scale(0.12 -0.12)">
       <use xlink:href="#BitstreamVeraSans-Roman-31"/>
       <use x="63.623046875" xlink:href="#BitstreamVeraSans-Roman-35"/>
      </g>
     </g>
    </g>
    <g id="xtick_5">
     <g id="line2d_16">
      <path clip-path="url(#p97fbcb3ece)" d="M 369.6 388.8 
L 369.6 43.2 
" style="fill:none;stroke:#000000;stroke-dasharray:1.000000,3.000000;stroke-dashoffset:0.0;stroke-width:0.5;"/>
     </g>
     <g id="line2d_17">
      <g>
       <use style="stroke:#000000;stroke-width:0.5;" x="369.6" xlink:href="#m37a4f9b4ef" y="388.8"/>
      </g>
     </g>
     <g id="line2d_18">
      <g>
       <use style="stroke:#000000;stroke-width:0.5;" x="369.6" xlink:href="#m4f8678b516" y="43.2"/>
      </g>
     </g>
     <g id="text_5">
      <!-- 20 -->
      <defs>
       <path d="M 19.1875 8.296875 
L 53.609375 8.296875 
L 53.609375 0 
L 7.328125 0 
L 7.328125 8.296875 
Q 12.9375 14.109375 22.625 23.890625 
Q 32.328125 33.6875 34.8125 36.53125 
Q 39.546875 41.84375 41.421875 45.53125 
Q 43.3125 49.21875 43.3125 52.78125 
Q 43.3125 58.59375 39.234375 62.25 
Q 35.15625 65.921875 28.609375 65.921875 
Q 23.96875 65.921875 18.8125 64.3125 
Q 13.671875 62.703125 7.8125 59.421875 
L 7.8125 69.390625 
Q 13.765625 71.78125 18.9375 73 
Q 24.125 74.21875 28.421875 74.21875 
Q 39.75 74.21875 46.484375 68.546875 
Q 53.21875 62.890625 53.21875 53.421875 
Q 53.21875 48.921875 51.53125 44.890625 
Q 49.859375 40.875 45.40625 35.40625 
Q 44.1875 33.984375 37.640625 27.21875 
Q 31.109375 20.453125 19.1875 8.296875 
" id="BitstreamVeraSans-Roman-32"/>
      </defs>
      <g transform="translate(361.965 401.918125)scale(0.12 -0.12)">
       <use xlink:href="#BitstreamVeraSans-Roman-32"/>
       <use x="63.623046875" xlink:href="#BitstreamVeraSans-Roman-30"/>
      </g>
     </g>
    </g>
    <g id="xtick_6">
     <g id="line2d_19">
      <path clip-path="url(#p97fbcb3ece)" d="M 444 388.8 
L 444 43.2 
" style="fill:none;stroke:#000000;stroke-dasharray:1.000000,3.000000;stroke-dashoffset:0.0;stroke-width:0.5;"/>
     </g>
     <g id="line2d_20">
      <g>
       <use style="stroke:#000000;stroke-width:0.5;" x="444.0" xlink:href="#m37a4f9b4ef" y="388.8"/>
      </g>
     </g>
     <g id="line2d_21">
      <g>
       <use style="stroke:#000000;stroke-width:0.5;" x="444.0" xlink:href="#m4f8678b516" y="43.2"/>
      </g>
     </g>
     <g id="text_6">
      <!-- 25 -->
      <g transform="translate(436.365 401.918125)scale(0.12 -0.12)">
       <use xlink:href="#BitstreamVeraSans-Roman-32"/>
       <use x="63.623046875" xlink:href="#BitstreamVeraSans-Roman-35"/>
      </g>
     </g>
    </g>
    <g id="xtick_7">
     <g id="line2d_22">
      <path clip-path="url(#p97fbcb3ece)" d="M 518.4 388.8 
L 518.4 43.2 
" style="fill:none;stroke:#000000;stroke-dasharray:1.000000,3.000000;stroke-dashoffset:0.0;stroke-width:0.5;"/>
     </g>
     <g id="line2d_23">
      <g>
       <use style="stroke:#000000;stroke-width:0.5;" x="518.4" xlink:href="#m37a4f9b4ef" y="388.8"/>
      </g>
     </g>
     <g id="line2d_24">
      <g>
       <use style="stroke:#000000;stroke-width:0.5;" x="518.4" xlink:href="#m4f8678b516" y="43.2"/>
      </g>
     </g>
     <g id="text_7">
      <!-- 30 -->
      <defs>
       <path d="M 40.578125 39.3125 
Q 47.65625 37.796875 51.625 33 
Q 55.609375 28.21875 55.609375 21.1875 
Q 55.609375 10.40625 48.1875 4.484375 
Q 40.765625 -1.421875 27.09375 -1.421875 
Q 22.515625 -1.421875 17.65625 -0.515625 
Q 12.796875 0.390625 7.625 2.203125 
L 7.625 11.71875 
Q 11.71875 9.328125 16.59375 8.109375 
Q 21.484375 6.890625 26.8125 6.890625 
Q 36.078125 6.890625 40.9375 10.546875 
Q 45.796875 14.203125 45.796875 21.1875 
Q 45.796875 27.640625 41.28125 31.265625 
Q 36.765625 34.90625 28.71875 34.90625 
L 20.21875 34.90625 
L 20.21875 43.015625 
L 29.109375 43.015625 
Q 36.375 43.015625 40.234375 45.921875 
Q 44.09375 48.828125 44.09375 54.296875 
Q 44.09375 59.90625 40.109375 62.90625 
Q 36.140625 65.921875 28.71875 65.921875 
Q 24.65625 65.921875 20.015625 65.03125 
Q 15.375 64.15625 9.8125 62.3125 
L 9.8125 71.09375 
Q 15.4375 72.65625 20.34375 73.4375 
Q 25.25 74.21875 29.59375 74.21875 
Q 40.828125 74.21875 47.359375 69.109375 
Q 53.90625 64.015625 53.90625 55.328125 
Q 53.90625 49.265625 50.4375 45.09375 
Q 46.96875 40.921875 40.578125 39.3125 
" id="BitstreamVeraSans-Roman-33"/>
      </defs>
      <g transform="translate(510.765 401.918125)scale(0.12 -0.12)">
       <use xlink:href="#BitstreamVeraSans-Roman-33"/>
       <use x="63.623046875" xlink:href="#BitstreamVeraSans-Roman-30"/>
      </g>
     </g>
    </g>
    <g id="text_8">
     <!-- Time [s] -->
     <defs>
      <path id="BitstreamVeraSans-Roman-20"/>
      <path d="M 8.59375 75.984375 
L 29.296875 75.984375 
L 29.296875 69 
L 17.578125 69 
L 17.578125 -6.203125 
L 29.296875 -6.203125 
L 29.296875 -13.1875 
L 8.59375 -13.1875 
z
" id="BitstreamVeraSans-Roman-5b"/>
      <path d="M 30.421875 75.984375 
L 30.421875 -13.1875 
L 9.71875 -13.1875 
L 9.71875 -6.203125 
L 21.390625 -6.203125 
L 21.390625 69 
L 9.71875 69 
L 9.71875 75.984375 
z
" id="BitstreamVeraSans-Roman-5d"/>
      <path d="M 52 44.1875 
Q 55.375 50.25 60.0625 53.125 
Q 64.75 56 71.09375 56 
Q 79.640625 56 84.28125 50.015625 
Q 88.921875 44.046875 88.921875 33.015625 
L 88.921875 0 
L 79.890625 0 
L 79.890625 32.71875 
Q 79.890625 40.578125 77.09375 44.375 
Q 74.3125 48.1875 68.609375 48.1875 
Q 61.625 48.1875 57.5625 43.546875 
Q 53.515625 38.921875 53.515625 30.90625 
L 53.515625 0 
L 44.484375 0 
L 44.484375 32.71875 
Q 44.484375 40.625 41.703125 44.40625 
Q 38.921875 48.1875 33.109375 48.1875 
Q 26.21875 48.1875 22.15625 43.53125 
Q 18.109375 38.875 18.109375 30.90625 
L 18.109375 0 
L 9.078125 0 
L 9.078125 54.6875 
L 18.109375 54.6875 
L 18.109375 46.1875 
Q 21.1875 51.21875 25.484375 53.609375 
Q 29.78125 56 35.6875 56 
Q 41.65625 56 45.828125 52.96875 
Q 50 49.953125 52 44.1875 
" id="BitstreamVeraSans-Roman-6d"/>
      <path d="M 9.421875 54.6875 
L 18.40625 54.6875 
L 18.40625 0 
L 9.421875 0 
z
M 9.421875 75.984375 
L 18.40625 75.984375 
L 18.40625 64.59375 
L 9.421875 64.59375 
z
" id="BitstreamVeraSans-Roman-69"/>
      <path d="M 56.203125 29.59375 
L 56.203125 25.203125 
L 14.890625 25.203125 
Q 15.484375 15.921875 20.484375 11.0625 
Q 25.484375 6.203125 34.421875 6.203125 
Q 39.59375 6.203125 44.453125 7.46875 
Q 49.3125 8.734375 54.109375 11.28125 
L 54.109375 2.78125 
Q 49.265625 0.734375 44.1875 -0.34375 
Q 39.109375 -1.421875 33.890625 -1.421875 
Q 20.796875 -1.421875 13.15625 6.1875 
Q 5.515625 13.8125 5.515625 26.8125 
Q 5.515625 40.234375 12.765625 48.109375 
Q 20.015625 56 32.328125 56 
Q 43.359375 56 49.78125 48.890625 
Q 56.203125 41.796875 56.203125 29.59375 
M 47.21875 32.234375 
Q 47.125 39.59375 43.09375 43.984375 
Q 39.0625 48.390625 32.421875 48.390625 
Q 24.90625 48.390625 20.390625 44.140625 
Q 15.875 39.890625 15.1875 32.171875 
z
" id="BitstreamVeraSans-Roman-65"/>
      <path d="M -0.296875 72.90625 
L 61.375 72.90625 
L 61.375 64.59375 
L 35.5 64.59375 
L 35.5 0 
L 25.59375 0 
L 25.59375 64.59375 
L -0.296875 64.59375 
z
" id="BitstreamVeraSans-Roman-54"/>
      <path d="M 44.28125 53.078125 
L 44.28125 44.578125 
Q 40.484375 46.53125 36.375 47.5 
Q 32.28125 48.484375 27.875 48.484375 
Q 21.1875 48.484375 17.84375 46.4375 
Q 14.5 44.390625 14.5 40.28125 
Q 14.5 37.15625 16.890625 35.375 
Q 19.28125 33.59375 26.515625 31.984375 
L 29.59375 31.296875 
Q 39.15625 29.25 43.1875 25.515625 
Q 47.21875 21.78125 47.21875 15.09375 
Q 47.21875 7.46875 41.1875 3.015625 
Q 35.15625 -1.421875 24.609375 -1.421875 
Q 20.21875 -1.421875 15.453125 -0.5625 
Q 10.6875 0.296875 5.421875 2 
L 5.421875 11.28125 
Q 10.40625 8.6875 15.234375 7.390625 
Q 20.0625 6.109375 24.8125 6.109375 
Q 31.15625 6.109375 34.5625 8.28125 
Q 37.984375 10.453125 37.984375 14.40625 
Q 37.984375 18.0625 35.515625 20.015625 
Q 33.0625 21.96875 24.703125 23.78125 
L 21.578125 24.515625 
Q 13.234375 26.265625 9.515625 29.90625 
Q 5.8125 33.546875 5.8125 39.890625 
Q 5.8125 47.609375 11.28125 51.796875 
Q 16.75 56 26.8125 56 
Q 31.78125 56 36.171875 55.265625 
Q 40.578125 54.546875 44.28125 53.078125 
" id="BitstreamVeraSans-Roman-73"/>
     </defs>
     <g transform="translate(270.620625 418.531875)scale(0.12 -0.12)">
      <use xlink:href="#BitstreamVeraSans-Roman-54"/>
      <use x="61.037109375" xlink:href="#BitstreamVeraSans-Roman-69"/>
      <use x="88.8203125" xlink:href="#BitstreamVeraSans-Roman-6d"/>
      <use x="186.232421875" xlink:href="#BitstreamVeraSans-Roman-65"/>
      <use x="247.755859375" xlink:href="#BitstreamVeraSans-Roman-20"/>
      <use x="279.54296875" xlink:href="#BitstreamVeraSans-Roman-5b"/>
      <use x="318.556640625" xlink:href="#BitstreamVeraSans-Roman-73"/>
      <use x="370.65625" xlink:href="#BitstreamVeraSans-Roman-5d"/>
     </g>
    </g>
   </g>
   <g id="matplotlib.axis_2">
    <g id="ytick_1">
     <g id="line2d_25">
      <path clip-path="url(#p97fbcb3ece)" d="M 72 388.8 
L 518.4 388.8 
" style="fill:none;stroke:#000000;stroke-dasharray:1.000000,3.000000;stroke-dashoffset:0.0;stroke-width:0.5;"/>
     </g>
     <g id="line2d_26">
      <defs>
       <path d="M 0 0 
L 4 0 
" id="m454f40af64" style="stroke:#000000;stroke-width:0.5;"/>
      </defs>
      <g>
       <use style="stroke:#000000;stroke-width:0.5;" x="72.0" xlink:href="#m454f40af64" y="388.8"/>
      </g>
     </g>
     <g id="line2d_27">
      <defs>
       <path d="M 0 0 
L -4 0 
" id="mabbd69b558" style="stroke:#000000;stroke-width:0.5;"/>
      </defs>
      <g>
       <use style="stroke:#000000;stroke-width:0.5;" x="518.4" xlink:href="#mabbd69b558" y="388.8"/>
      </g>
     </g>
     <g id="text_9">
      <!-- 3.0 -->
      <defs>
       <path d="M 10.59375 35.5 
L 73.1875 35.5 
L 73.1875 27.203125 
L 10.59375 27.203125 
z
" id="BitstreamVeraSans-Roman-2212"/>
       <path d="M 10.6875 12.40625 
L 21 12.40625 
L 21 0 
L 10.6875 0 
z
" id="BitstreamVeraSans-Roman-2e"/>
      </defs>
      <g transform="translate(38.860625 392.11125)scale(0.12 -0.12)">
       <use xlink:href="#BitstreamVeraSans-Roman-2212"/>
       <use x="83.7890625" xlink:href="#BitstreamVeraSans-Roman-33"/>
       <use x="147.412109375" xlink:href="#BitstreamVeraSans-Roman-2e"/>
       <use x="179.19921875" xlink:href="#BitstreamVeraSans-Roman-30"/>
      </g>
     </g>
    </g>
    <g id="ytick_2">
     <g id="line2d_28">
      <path clip-path="url(#p97fbcb3ece)" d="M 72 345.6 
L 518.4 345.6 
" style="fill:none;stroke:#000000;stroke-dasharray:1.000000,3.000000;stroke-dashoffset:0.0;stroke-width:0.5;"/>
     </g>
     <g id="line2d_29">
      <g>
       <use style="stroke:#000000;stroke-width:0.5;" x="72.0" xlink:href="#m454f40af64" y="345.6"/>
      </g>
     </g>
     <g id="line2d_30">
      <g>
       <use style="stroke:#000000;stroke-width:0.5;" x="518.4" xlink:href="#mabbd69b558" y="345.6"/>
      </g>
     </g>
     <g id="text_10">
      <!-- 2.5 -->
      <g transform="translate(38.860625 348.91125)scale(0.12 -0.12)">
       <use xlink:href="#BitstreamVeraSans-Roman-2212"/>
       <use x="83.7890625" xlink:href="#BitstreamVeraSans-Roman-32"/>
       <use x="147.412109375" xlink:href="#BitstreamVeraSans-Roman-2e"/>
       <use x="179.19921875" xlink:href="#BitstreamVeraSans-Roman-35"/>
      </g>
     </g>
    </g>
    <g id="ytick_3">
     <g id="line2d_31">
      <path clip-path="url(#p97fbcb3ece)" d="M 72 302.4 
L 518.4 302.4 
" style="fill:none;stroke:#000000;stroke-dasharray:1.000000,3.000000;stroke-dashoffset:0.0;stroke-width:0.5;"/>
     </g>
     <g id="line2d_32">
      <g>
       <use style="stroke:#000000;stroke-width:0.5;" x="72.0" xlink:href="#m454f40af64" y="302.4"/>
      </g>
     </g>
     <g id="line2d_33">
      <g>
       <use style="stroke:#000000;stroke-width:0.5;" x="518.4" xlink:href="#mabbd69b558" y="302.4"/>
      </g>
     </g>
     <g id="text_11">
      <!-- 2.0 -->
      <g transform="translate(38.860625 305.71125)scale(0.12 -0.12)">
       <use xlink:href="#BitstreamVeraSans-Roman-2212"/>
       <use x="83.7890625" xlink:href="#BitstreamVeraSans-Roman-32"/>
       <use x="147.412109375" xlink:href="#BitstreamVeraSans-Roman-2e"/>
       <use x="179.19921875" xlink:href="#BitstreamVeraSans-Roman-30"/>
      </g>
     </g>
    </g>
    <g id="ytick_4">
     <g id="line2d_34">
      <path clip-path="url(#p97fbcb3ece)" d="M 72 259.2 
L 518.4 259.2 
" style="fill:none;stroke:#000000;stroke-dasharray:1.000000,3.000000;stroke-dashoffset:0.0;stroke-width:0.5;"/>
     </g>
     <g id="line2d_35">
      <g>
       <use style="stroke:#000000;stroke-width:0.5;" x="72.0" xlink:href="#m454f40af64" y="259.2"/>
      </g>
     </g>
     <g id="line2d_36">
      <g>
       <use style="stroke:#000000;stroke-width:0.5;" x="518.4" xlink:href="#mabbd69b558" y="259.2"/>
      </g>
     </g>
     <g id="text_12">
      <!-- 1.5 -->
      <g transform="translate(38.860625 262.51125)scale(0.12 -0.12)">
       <use xlink:href="#BitstreamVeraSans-Roman-2212"/>
       <use x="83.7890625" xlink:href="#BitstreamVeraSans-Roman-31"/>
       <use x="147.412109375" xlink:href="#BitstreamVeraSans-Roman-2e"/>
       <use x="179.19921875" xlink:href="#BitstreamVeraSans-Roman-35"/>
      </g>
     </g>
    </g>
    <g id="ytick_5">
     <g id="line2d_37">
      <path clip-path="url(#p97fbcb3ece)" d="M 72 216 
L 518.4 216 
" style="fill:none;stroke:#000000;stroke-dasharray:1.000000,3.000000;stroke-dashoffset:0.0;stroke-width:0.5;"/>
     </g>
     <g id="line2d_38">
      <g>
       <use style="stroke:#000000;stroke-width:0.5;" x="72.0" xlink:href="#m454f40af64" y="216.0"/>
      </g>
     </g>
     <g id="line2d_39">
      <g>
       <use style="stroke:#000000;stroke-width:0.5;" x="518.4" xlink:href="#mabbd69b558" y="216.0"/>
      </g>
     </g>
     <g id="text_13">
      <!-- 1.0 -->
      <g transform="translate(38.860625 219.31125)scale(0.12 -0.12)">
       <use xlink:href="#BitstreamVeraSans-Roman-2212"/>
       <use x="83.7890625" xlink:href="#BitstreamVeraSans-Roman-31"/>
       <use x="147.412109375" xlink:href="#BitstreamVeraSans-Roman-2e"/>
       <use x="179.19921875" xlink:href="#BitstreamVeraSans-Roman-30"/>
      </g>
     </g>
    </g>
    <g id="ytick_6">
     <g id="line2d_40">
      <path clip-path="url(#p97fbcb3ece)" d="M 72 172.8 
L 518.4 172.8 
" style="fill:none;stroke:#000000;stroke-dasharray:1.000000,3.000000;stroke-dashoffset:0.0;stroke-width:0.5;"/>
     </g>
     <g id="line2d_41">
      <g>
       <use style="stroke:#000000;stroke-width:0.5;" x="72.0" xlink:href="#m454f40af64" y="172.8"/>
      </g>
     </g>
     <g id="line2d_42">
      <g>
       <use style="stroke:#000000;stroke-width:0.5;" x="518.4" xlink:href="#mabbd69b558" y="172.8"/>
      </g>
     </g>
     <g id="text_14">
      <!-- 0.5 -->
      <g transform="translate(38.860625 176.11125)scale(0.12 -0.12)">
       <use xlink:href="#BitstreamVeraSans-Roman-2212"/>
       <use x="83.7890625" xlink:href="#BitstreamVeraSans-Roman-30"/>
       <use x="147.412109375" xlink:href="#BitstreamVeraSans-Roman-2e"/>
       <use x="179.19921875" xlink:href="#BitstreamVeraSans-Roman-35"/>
      </g>
     </g>
    </g>
    <g id="ytick_7">
     <g id="line2d_43">
      <path clip-path="url(#p97fbcb3ece)" d="M 72 129.6 
L 518.4 129.6 
" style="fill:none;stroke:#000000;stroke-dasharray:1.000000,3.000000;stroke-dashoffset:0.0;stroke-width:0.5;"/>
     </g>
     <g id="line2d_44">
      <g>
       <use style="stroke:#000000;stroke-width:0.5;" x="72.0" xlink:href="#m454f40af64" y="129.6"/>
      </g>
     </g>
     <g id="line2d_45">
      <g>
       <use style="stroke:#000000;stroke-width:0.5;" x="518.4" xlink:href="#mabbd69b558" y="129.6"/>
      </g>
     </g>
     <g id="text_15">
      <!-- 0.0 -->
      <g transform="translate(48.91625 132.91125)scale(0.12 -0.12)">
       <use xlink:href="#BitstreamVeraSans-Roman-30"/>
       <use x="63.623046875" xlink:href="#BitstreamVeraSans-Roman-2e"/>
       <use x="95.41015625" xlink:href="#BitstreamVeraSans-Roman-30"/>
      </g>
     </g>
    </g>
    <g id="ytick_8">
     <g id="line2d_46">
      <path clip-path="url(#p97fbcb3ece)" d="M 72 86.4 
L 518.4 86.4 
" style="fill:none;stroke:#000000;stroke-dasharray:1.000000,3.000000;stroke-dashoffset:0.0;stroke-width:0.5;"/>
     </g>
     <g id="line2d_47">
      <g>
       <use style="stroke:#000000;stroke-width:0.5;" x="72.0" xlink:href="#m454f40af64" y="86.4"/>
      </g>
     </g>
     <g id="line2d_48">
      <g>
       <use style="stroke:#000000;stroke-width:0.5;" x="518.4" xlink:href="#mabbd69b558" y="86.4"/>
      </g>
     </g>
     <g id="text_16">
      <!-- 0.5 -->
      <g transform="translate(48.91625 89.71125)scale(0.12 -0.12)">
       <use xlink:href="#BitstreamVeraSans-Roman-30"/>
       <use x="63.623046875" xlink:href="#BitstreamVeraSans-Roman-2e"/>
       <use x="95.41015625" xlink:href="#BitstreamVeraSans-Roman-35"/>
      </g>
     </g>
    </g>
    <g id="ytick_9">
     <g id="line2d_49">
      <path clip-path="url(#p97fbcb3ece)" d="M 72 43.2 
L 518.4 43.2 
" style="fill:none;stroke:#000000;stroke-dasharray:1.000000,3.000000;stroke-dashoffset:0.0;stroke-width:0.5;"/>
     </g>
     <g id="line2d_50">
      <g>
       <use style="stroke:#000000;stroke-width:0.5;" x="72.0" xlink:href="#m454f40af64" y="43.2"/>
      </g>
     </g>
     <g id="line2d_51">
      <g>
       <use style="stroke:#000000;stroke-width:0.5;" x="518.4" xlink:href="#mabbd69b558" y="43.2"/>
      </g>
     </g>
     <g id="text_17">
      <!-- 1.0 -->
      <g transform="translate(48.91625 46.51125)scale(0.12 -0.12)">
       <use xlink:href="#BitstreamVeraSans-Roman-31"/>
       <use x="63.623046875" xlink:href="#BitstreamVeraSans-Roman-2e"/>
       <use x="95.41015625" xlink:href="#BitstreamVeraSans-Roman-30"/>
      </g>
     </g>
    </g>
    <g id="text_18">
     <!-- Acceleration [m/s^2] -->
     <defs>
      <path d="M 46.6875 72.90625 
L 73.1875 45.703125 
L 63.375 45.703125 
L 41.890625 64.984375 
L 20.40625 45.703125 
L 10.59375 45.703125 
L 37.109375 72.90625 
z
" id="BitstreamVeraSans-Roman-5e"/>
      <path d="M 54.890625 33.015625 
L 54.890625 0 
L 45.90625 0 
L 45.90625 32.71875 
Q 45.90625 40.484375 42.875 44.328125 
Q 39.84375 48.1875 33.796875 48.1875 
Q 26.515625 48.1875 22.3125 43.546875 
Q 18.109375 38.921875 18.109375 30.90625 
L 18.109375 0 
L 9.078125 0 
L 9.078125 54.6875 
L 18.109375 54.6875 
L 18.109375 46.1875 
Q 21.34375 51.125 25.703125 53.5625 
Q 30.078125 56 35.796875 56 
Q 45.21875 56 50.046875 50.171875 
Q 54.890625 44.34375 54.890625 33.015625 
" id="BitstreamVeraSans-Roman-6e"/>
      <path d="M 41.109375 46.296875 
Q 39.59375 47.171875 37.8125 47.578125 
Q 36.03125 48 33.890625 48 
Q 26.265625 48 22.1875 43.046875 
Q 18.109375 38.09375 18.109375 28.8125 
L 18.109375 0 
L 9.078125 0 
L 9.078125 54.6875 
L 18.109375 54.6875 
L 18.109375 46.1875 
Q 20.953125 51.171875 25.484375 53.578125 
Q 30.03125 56 36.53125 56 
Q 37.453125 56 38.578125 55.875 
Q 39.703125 55.765625 41.0625 55.515625 
z
" id="BitstreamVeraSans-Roman-72"/>
      <path d="M 30.609375 48.390625 
Q 23.390625 48.390625 19.1875 42.75 
Q 14.984375 37.109375 14.984375 27.296875 
Q 14.984375 17.484375 19.15625 11.84375 
Q 23.34375 6.203125 30.609375 6.203125 
Q 37.796875 6.203125 41.984375 11.859375 
Q 46.1875 17.53125 46.1875 27.296875 
Q 46.1875 37.015625 41.984375 42.703125 
Q 37.796875 48.390625 30.609375 48.390625 
M 30.609375 56 
Q 42.328125 56 49.015625 48.375 
Q 55.71875 40.765625 55.71875 27.296875 
Q 55.71875 13.875 49.015625 6.21875 
Q 42.328125 -1.421875 30.609375 -1.421875 
Q 18.84375 -1.421875 12.171875 6.21875 
Q 5.515625 13.875 5.515625 27.296875 
Q 5.515625 40.765625 12.171875 48.375 
Q 18.84375 56 30.609375 56 
" id="BitstreamVeraSans-Roman-6f"/>
      <path d="M 9.421875 75.984375 
L 18.40625 75.984375 
L 18.40625 0 
L 9.421875 0 
z
" id="BitstreamVeraSans-Roman-6c"/>
      <path d="M 34.1875 63.1875 
L 20.796875 26.90625 
L 47.609375 26.90625 
z
M 28.609375 72.90625 
L 39.796875 72.90625 
L 67.578125 0 
L 57.328125 0 
L 50.6875 18.703125 
L 17.828125 18.703125 
L 11.1875 0 
L 0.78125 0 
z
" id="BitstreamVeraSans-Roman-41"/>
      <path d="M 25.390625 72.90625 
L 33.6875 72.90625 
L 8.296875 -9.28125 
L 0 -9.28125 
z
" id="BitstreamVeraSans-Roman-2f"/>
      <path d="M 18.3125 70.21875 
L 18.3125 54.6875 
L 36.8125 54.6875 
L 36.8125 47.703125 
L 18.3125 47.703125 
L 18.3125 18.015625 
Q 18.3125 11.328125 20.140625 9.421875 
Q 21.96875 7.515625 27.59375 7.515625 
L 36.8125 7.515625 
L 36.8125 0 
L 27.59375 0 
Q 17.1875 0 13.234375 3.875 
Q 9.28125 7.765625 9.28125 18.015625 
L 9.28125 47.703125 
L 2.6875 47.703125 
L 2.6875 54.6875 
L 9.28125 54.6875 
L 9.28125 70.21875 
z
" id="BitstreamVeraSans-Roman-74"/>
      <path d="M 34.28125 27.484375 
Q 23.390625 27.484375 19.1875 25 
Q 14.984375 22.515625 14.984375 16.5 
Q 14.984375 11.71875 18.140625 8.90625 
Q 21.296875 6.109375 26.703125 6.109375 
Q 34.1875 6.109375 38.703125 11.40625 
Q 43.21875 16.703125 43.21875 25.484375 
L 43.21875 27.484375 
z
M 52.203125 31.203125 
L 52.203125 0 
L 43.21875 0 
L 43.21875 8.296875 
Q 40.140625 3.328125 35.546875 0.953125 
Q 30.953125 -1.421875 24.3125 -1.421875 
Q 15.921875 -1.421875 10.953125 3.296875 
Q 6 8.015625 6 15.921875 
Q 6 25.140625 12.171875 29.828125 
Q 18.359375 34.515625 30.609375 34.515625 
L 43.21875 34.515625 
L 43.21875 35.40625 
Q 43.21875 41.609375 39.140625 45 
Q 35.0625 48.390625 27.6875 48.390625 
Q 23 48.390625 18.546875 47.265625 
Q 14.109375 46.140625 10.015625 43.890625 
L 10.015625 52.203125 
Q 14.9375 54.109375 19.578125 55.046875 
Q 24.21875 56 28.609375 56 
Q 40.484375 56 46.34375 49.84375 
Q 52.203125 43.703125 52.203125 31.203125 
" id="BitstreamVeraSans-Roman-61"/>
      <path d="M 48.78125 52.59375 
L 48.78125 44.1875 
Q 44.96875 46.296875 41.140625 47.34375 
Q 37.3125 48.390625 33.40625 48.390625 
Q 24.65625 48.390625 19.8125 42.84375 
Q 14.984375 37.3125 14.984375 27.296875 
Q 14.984375 17.28125 19.8125 11.734375 
Q 24.65625 6.203125 33.40625 6.203125 
Q 37.3125 6.203125 41.140625 7.25 
Q 44.96875 8.296875 48.78125 10.40625 
L 48.78125 2.09375 
Q 45.015625 0.34375 40.984375 -0.53125 
Q 36.96875 -1.421875 32.421875 -1.421875 
Q 20.0625 -1.421875 12.78125 6.34375 
Q 5.515625 14.109375 5.515625 27.296875 
Q 5.515625 40.671875 12.859375 48.328125 
Q 20.21875 56 33.015625 56 
Q 37.15625 56 41.109375 55.140625 
Q 45.0625 54.296875 48.78125 52.59375 
" id="BitstreamVeraSans-Roman-63"/>
     </defs>
     <g transform="translate(31.365 279.81375)rotate(-90.0)scale(0.12 -0.12)">
      <use xlink:href="#BitstreamVeraSans-Roman-41"/>
      <use x="68.392578125" xlink:href="#BitstreamVeraSans-Roman-63"/>
      <use x="123.373046875" xlink:href="#BitstreamVeraSans-Roman-63"/>
      <use x="178.353515625" xlink:href="#BitstreamVeraSans-Roman-65"/>
      <use x="239.876953125" xlink:href="#BitstreamVeraSans-Roman-6c"/>
      <use x="267.66015625" xlink:href="#BitstreamVeraSans-Roman-65"/>
      <use x="329.18359375" xlink:href="#BitstreamVeraSans-Roman-72"/>
      <use x="370.296875" xlink:href="#BitstreamVeraSans-Roman-61"/>
      <use x="431.576171875" xlink:href="#BitstreamVeraSans-Roman-74"/>
      <use x="470.78515625" xlink:href="#BitstreamVeraSans-Roman-69"/>
      <use x="498.568359375" xlink:href="#BitstreamVeraSans-Roman-6f"/>
      <use x="559.75" xlink:href="#BitstreamVeraSans-Roman-6e"/>
      <use x="623.12890625" xlink:href="#BitstreamVeraSans-Roman-20"/>
      <use x="654.916015625" xlink:href="#BitstreamVeraSans-Roman-5b"/>
      <use x="693.9296875" xlink:href="#BitstreamVeraSans-Roman-6d"/>
      <use x="791.341796875" xlink:href="#BitstreamVeraSans-Roman-2f"/>
      <use x="825.033203125" xlink:href="#BitstreamVeraSans-Roman-73"/>
      <use x="877.1328125" xlink:href="#BitstreamVeraSans-Roman-5e"/>
      <use x="960.921875" xlink:href="#BitstreamVeraSans-Roman-32"/>
      <use x="1024.54492188" xlink:href="#BitstreamVeraSans-Roman-5d"/>
     </g>
    </g>
   </g>
   <g id="legend_1">
    <g id="patch_7">
     <path d="M 79.2 381.6 
L 168.561 381.6 
L 168.561 313.8705 
L 79.2 313.8705 
z
" style="fill:#ffffff;stroke:#000000;stroke-linejoin:miter;"/>
    </g>
    <g id="line2d_52">
     <path d="M 89.28 325.53225 
L 109.44 325.53225 
" style="fill:none;stroke:#008000;stroke-linecap:square;"/>
    </g>
    <g id="line2d_53"/>
    <g id="text_19">
     <!-- accel -->
     <g transform="translate(125.28 330.57225)scale(0.144 -0.144)">
      <use xlink:href="#BitstreamVeraSans-Roman-61"/>
      <use x="61.279296875" xlink:href="#BitstreamVeraSans-Roman-63"/>
      <use x="116.259765625" xlink:href="#BitstreamVeraSans-Roman-63"/>
      <use x="171.240234375" xlink:href="#BitstreamVeraSans-Roman-65"/>
      <use x="232.763671875" xlink:href="#BitstreamVeraSans-Roman-6c"/>
     </g>
    </g>
    <g id="line2d_54">
     <path d="M 89.28 346.66875 
L 109.44 346.66875 
" style="fill:none;stroke:#000000;stroke-dasharray:6.000000,6.000000;stroke-dashoffset:0.0;"/>
    </g>
    <g id="line2d_55"/>
    <g id="text_20">
     <!-- max -->
     <defs>
      <path d="M 54.890625 54.6875 
L 35.109375 28.078125 
L 55.90625 0 
L 45.3125 0 
L 29.390625 21.484375 
L 13.484375 0 
L 2.875 0 
L 24.125 28.609375 
L 4.6875 54.6875 
L 15.28125 54.6875 
L 29.78125 35.203125 
L 44.28125 54.6875 
z
" id="BitstreamVeraSans-Roman-78"/>
     </defs>
     <g transform="translate(125.28 351.70875)scale(0.144 -0.144)">
      <use xlink:href="#BitstreamVeraSans-Roman-6d"/>
      <use x="97.412109375" xlink:href="#BitstreamVeraSans-Roman-61"/>
      <use x="158.69140625" xlink:href="#BitstreamVeraSans-Roman-78"/>
     </g>
    </g>
    <g id="line2d_56">
     <path d="M 89.28 367.80525 
L 109.44 367.80525 
" style="fill:none;stroke:#000000;stroke-dasharray:6.000000,6.000000;stroke-dashoffset:0.0;"/>
    </g>
    <g id="line2d_57"/>
    <g id="text_21">
     <!-- min -->
     <g transform="translate(125.28 372.84525)scale(0.144 -0.144)">
      <use xlink:href="#BitstreamVeraSans-Roman-6d"/>
      <use x="97.412109375" xlink:href="#BitstreamVeraSans-Roman-69"/>
      <use x="125.1953125" xlink:href="#BitstreamVeraSans-Roman-6e"/>
     </g>
    </g>
   </g>
  </g>
 </g>
 <defs>
  <clipPath id="p97fbcb3ece">
   <rect height="345.6" width="446.4" x="72.0" y="43.2"/>
  </clipPath>
 </defs>
</svg>
