<?xml version="1.0" encoding="utf-8" standalone="no"?>
<!DOCTYPE svg PUBLIC "-//W3C//DTD SVG 1.1//EN"
  "http://www.w3.org/Graphics/SVG/1.1/DTD/svg11.dtd">
<!-- Created with matplotlib (http://matplotlib.org/) -->
<svg height="432pt" version="1.1" viewBox="0 0 576 432" width="576pt" xmlns="http://www.w3.org/2000/svg" xmlns:xlink="http://www.w3.org/1999/xlink">
 <defs>
  <style type="text/css">
*{stroke-linecap:butt;stroke-linejoin:round;stroke-miterlimit:100000;}
  </style>
 </defs>
 <g id="figure_1">
  <g id="patch_1">
   <path d="M 0 432 
L 576 432 
L 576 0 
L 0 0 
z
" style="fill:#ffffff;"/>
  </g>
  <g id="axes_1">
   <g id="patch_2">
    <path d="M 72 388.8 
L 518.4 388.8 
L 518.4 43.2 
L 72 43.2 
z
" style="fill:#ffffff;"/>
   </g>
   <g id="line2d_1">
    <path clip-path="url(#pe41f91f261)" d="M 72.1488 388.8 
L 91.7904 388.8 
L 91.9392 352.967928 
L 92.2368 352.967928 
L 92.3856 356.777689 
L 92.6832 356.777689 
L 92.832 361.349402 
L 92.9808 361.349402 
L 93.1296 365.921115 
L 93.4272 365.921115 
L 93.576 369.730876 
L 93.7248 369.730876 
L 93.8736 374.302589 
L 94.1712 374.302589 
L 94.32 378.11235 
L 94.6176 378.11235 
L 94.7664 381.160159 
L 94.9152 381.160159 
L 95.064 384.96992 
L 95.3616 384.96992 
L 95.5104 388.8 
L 244.9056 388.8 
L 245.0544 388.017729 
L 245.5008 388.017729 
L 245.6496 388.8 
L 246.096 388.8 
L 246.2448 388.017729 
L 246.3936 388.017729 
L 246.5424 387.255777 
L 246.9888 387.255777 
L 247.1376 388.8 
L 247.2864 388.8 
L 247.4352 387.255777 
L 247.584 387.255777 
L 247.7328 384.207968 
L 247.8816 384.207968 
L 248.0304 382.684063 
L 248.1792 382.684063 
L 248.328 384.96992 
L 249.072 384.96992 
L 249.2208 383.446016 
L 249.3696 383.446016 
L 249.5184 384.207968 
L 249.6672 384.207968 
L 249.816 385.731872 
L 249.9648 385.731872 
L 250.1136 384.96992 
L 250.2624 384.96992 
L 250.4112 384.207968 
L 250.8576 384.207968 
L 251.0064 385.731872 
L 251.4528 385.731872 
L 251.6016 384.207968 
L 252.048 384.207968 
L 252.1968 383.446016 
L 252.3456 383.446016 
L 252.4944 384.96992 
L 252.6432 384.96992 
L 252.792 383.446016 
L 253.0896 383.446016 
L 253.2384 381.922111 
L 253.3872 381.922111 
L 253.536 382.684063 
L 253.9824 382.684063 
L 254.1312 381.922111 
L 254.7264 381.922111 
L 254.8752 380.398207 
L 255.024 380.398207 
L 255.1728 381.160159 
L 255.3216 381.160159 
L 255.4704 382.684063 
L 255.6192 382.684063 
L 255.768 381.922111 
L 256.2144 381.922111 
L 256.3632 381.160159 
L 256.6608 381.160159 
L 256.8096 382.684063 
L 257.4048 382.684063 
L 257.5536 381.922111 
L 257.7024 381.922111 
L 257.8512 381.160159 
L 258 382.684063 
L 258.2976 382.684063 
L 258.4464 383.446016 
L 258.8928 383.446016 
L 259.0416 381.922111 
L 259.488 381.922111 
L 259.6368 383.446016 
L 260.3808 383.446016 
L 260.5296 382.684063 
L 260.8272 382.684063 
L 260.976 384.96992 
L 261.2736 384.96992 
L 261.4224 384.207968 
L 261.5712 384.207968 
L 261.72 383.446016 
L 261.8688 383.446016 
L 262.0176 382.684063 
L 262.1664 382.684063 
L 262.3152 381.922111 
L 262.7616 381.922111 
L 262.9104 381.160159 
L 263.0592 381.160159 
L 263.208 380.398207 
L 263.952 380.398207 
L 264.1008 382.684063 
L 264.2496 382.684063 
L 264.3984 381.922111 
L 264.5472 381.922111 
L 264.696 381.160159 
L 265.1424 381.160159 
L 265.2912 379.636255 
L 265.44 379.636255 
L 265.5888 381.922111 
L 265.7376 381.922111 
L 265.8864 382.684063 
L 266.0352 382.684063 
L 266.184 381.922111 
L 266.3328 381.922111 
L 266.4816 381.160159 
L 266.6304 381.160159 
L 266.7792 380.398207 
L 266.928 380.398207 
L 267.0768 381.160159 
L 267.2256 381.160159 
L 267.3744 383.446016 
L 267.5232 383.446016 
L 267.672 382.684063 
L 267.8208 382.684063 
L 267.9696 381.922111 
L 268.1184 381.922111 
L 268.2672 381.160159 
L 268.416 381.160159 
L 268.5648 381.922111 
L 268.7136 381.922111 
L 268.8624 383.446016 
L 269.3088 383.446016 
L 269.4576 382.684063 
L 269.904 382.684063 
L 270.0528 383.446016 
L 270.2016 383.446016 
L 270.3504 384.96992 
L 270.4992 384.96992 
L 270.648 384.207968 
L 270.7968 384.207968 
L 270.9456 383.446016 
L 271.0944 383.446016 
L 271.2432 382.684063 
L 271.392 382.684063 
L 271.5408 381.922111 
L 271.8384 381.922111 
L 271.9872 381.160159 
L 272.4336 381.160159 
L 272.5824 380.398207 
L 272.88 380.398207 
L 273.0288 379.636255 
L 273.1776 379.636255 
L 273.3264 381.160159 
L 273.4752 381.160159 
L 273.624 382.684063 
L 273.7728 382.684063 
L 273.9216 381.922111 
L 274.0704 381.922111 
L 274.2192 381.160159 
L 274.368 381.160159 
L 274.5168 380.398207 
L 274.6656 380.398207 
L 274.8144 381.922111 
L 274.9632 381.922111 
L 275.112 382.684063 
L 275.856 382.684063 
L 276.0048 381.922111 
L 276.1536 381.922111 
L 276.3024 382.684063 
L 276.4512 382.684063 
L 276.6 384.207968 
L 276.7488 384.207968 
L 276.8976 383.446016 
L 277.344 383.446016 
L 277.4928 382.684063 
L 277.9392 382.684063 
L 278.088 383.446016 
L 278.2368 383.446016 
L 278.3856 384.96992 
L 278.5344 384.96992 
L 278.6832 384.207968 
L 278.832 384.207968 
L 278.9808 383.446016 
L 279.1296 383.446016 
L 279.2784 382.684063 
L 279.4272 382.684063 
L 279.576 383.446016 
L 280.32 383.446016 
L 280.4688 382.684063 
L 280.6176 382.684063 
L 280.7664 381.922111 
L 281.2128 381.922111 
L 281.3616 382.684063 
L 281.808 382.684063 
L 281.9568 381.922111 
L 282.4032 381.922111 
L 282.552 381.160159 
L 282.7008 381.160159 
L 282.8496 381.922111 
L 282.9984 381.922111 
L 283.1472 383.446016 
L 283.5936 383.446016 
L 283.7424 382.684063 
L 284.1888 382.684063 
L 284.3376 381.922111 
L 284.4864 381.922111 
L 284.6352 382.684063 
L 284.784 382.684063 
L 284.9328 384.207968 
L 285.0816 384.207968 
L 285.2304 383.446016 
L 285.528 383.446016 
L 285.6768 382.684063 
L 286.5696 382.684063 
L 286.7184 384.96992 
L 287.1648 384.96992 
L 287.3136 384.207968 
L 287.4624 384.207968 
L 287.6112 383.446016 
L 288.0576 383.446016 
L 288.2064 382.684063 
L 288.3552 382.684063 
L 288.504 381.922111 
L 288.9504 381.922111 
L 289.0992 381.160159 
L 289.8432 381.160159 
L 289.992 381.922111 
L 290.1408 381.922111 
L 290.2896 383.446016 
L 290.736 383.446016 
L 290.8848 381.922111 
L 291.6288 381.922111 
L 291.9264 384.207968 
L 292.0752 384.207968 
L 292.224 383.446016 
L 292.8192 383.446016 
L 292.968 382.684063 
L 293.4144 382.684063 
L 293.5632 383.446016 
L 293.712 383.446016 
L 293.8608 384.207968 
L 294.0096 384.207968 
L 294.1584 384.96992 
L 294.3072 384.96992 
L 294.456 384.207968 
L 294.6048 384.207968 
L 294.7536 383.446016 
L 295.3488 383.446016 
L 295.4976 385.731872 
L 295.7952 385.731872 
L 295.944 384.96992 
L 296.3904 384.96992 
L 296.5392 384.207968 
L 296.688 382.684063 
L 296.8368 382.684063 
L 296.9856 383.446016 
L 297.432 383.446016 
L 297.5808 382.684063 
L 298.176 382.684063 
L 298.3248 381.922111 
L 298.4736 381.922111 
L 298.6224 381.160159 
L 298.7712 381.160159 
L 298.92 382.684063 
L 299.0688 382.684063 
L 299.2176 383.446016 
L 299.9616 383.446016 
L 300.1104 382.684063 
L 300.2592 382.684063 
L 300.408 381.922111 
L 301.0032 381.922111 
L 301.152 384.207968 
L 301.3008 384.207968 
L 301.4496 384.96992 
L 301.5984 384.96992 
L 301.7472 384.207968 
L 301.896 384.207968 
L 302.0448 383.446016 
L 302.4912 383.446016 
L 302.64 382.684063 
L 302.7888 382.684063 
L 302.9376 384.207968 
L 303.5328 384.207968 
L 303.6816 382.684063 
L 304.2768 382.684063 
L 304.4256 381.922111 
L 304.5744 381.922111 
L 304.7232 381.160159 
L 304.872 381.160159 
L 305.0208 383.446016 
L 305.1696 383.446016 
L 305.3184 382.684063 
L 305.616 382.684063 
L 305.7648 381.922111 
L 306.0624 381.922111 
L 306.2112 381.160159 
L 306.6576 381.160159 
L 306.8064 381.922111 
L 306.9552 381.922111 
L 307.104 383.446016 
L 307.2528 383.446016 
L 307.4016 384.207968 
L 307.5504 384.207968 
L 307.6992 383.446016 
L 307.848 383.446016 
L 307.9968 382.684063 
L 308.4432 382.684063 
L 308.592 381.922111 
L 309.0384 381.922111 
L 309.1872 383.446016 
L 309.336 383.446016 
L 309.4848 384.96992 
L 309.6336 384.96992 
L 309.7824 384.207968 
L 310.2288 384.207968 
L 310.3776 383.446016 
L 310.824 383.446016 
L 310.9728 382.684063 
L 311.1216 382.684063 
L 311.2704 383.446016 
L 311.4192 383.446016 
L 311.568 382.684063 
L 311.8656 382.684063 
L 312.0144 381.922111 
L 312.312 381.922111 
L 312.4608 381.160159 
L 312.9072 381.160159 
L 313.056 380.398207 
L 313.2048 380.398207 
L 313.5024 382.684063 
L 313.8 382.684063 
L 313.9488 381.922111 
L 314.0976 382.684063 
L 314.2464 382.684063 
L 314.3952 381.160159 
L 315.5856 381.160159 
L 315.7344 383.446016 
L 316.1808 383.446016 
L 316.3296 382.684063 
L 316.9248 382.684063 
L 317.0736 381.922111 
L 317.52 381.922111 
L 317.6688 382.684063 
L 317.8176 382.684063 
L 317.9664 384.207968 
L 318.264 384.207968 
L 318.4128 384.96992 
L 318.5616 384.96992 
L 318.8592 383.446016 
L 319.4544 383.446016 
L 319.6032 382.684063 
L 319.752 382.684063 
L 319.9008 384.207968 
L 320.0496 384.207968 
L 320.1984 384.96992 
L 320.3472 384.96992 
L 320.496 384.207968 
L 320.6448 384.207968 
L 320.7936 383.446016 
L 321.3888 383.446016 
L 321.5376 382.684063 
L 321.6864 382.684063 
L 321.8352 381.922111 
L 321.984 381.922111 
L 322.1328 381.160159 
L 322.2816 381.160159 
L 322.4304 383.446016 
L 323.0256 383.446016 
L 323.1744 382.684063 
L 323.6208 382.684063 
L 323.7696 381.922111 
L 323.9184 381.922111 
L 324.0672 382.684063 
L 324.3648 382.684063 
L 324.5136 381.922111 
L 324.6624 381.922111 
L 324.8112 383.446016 
L 324.96 383.446016 
L 325.1088 384.96992 
L 325.2576 384.96992 
L 325.4064 384.207968 
L 325.5552 384.207968 
L 325.704 383.446016 
L 326.5968 383.446016 
L 326.7456 382.684063 
L 326.8944 382.684063 
L 327.0432 383.446016 
L 327.192 383.446016 
L 327.3408 385.731872 
L 327.7872 385.731872 
L 327.936 384.96992 
L 328.0848 384.96992 
L 328.2336 384.207968 
L 328.3824 384.207968 
L 328.5312 383.446016 
L 328.9776 383.446016 
L 329.1264 382.684063 
L 329.424 382.684063 
L 329.5728 383.446016 
L 330.0192 383.446016 
L 330.168 382.684063 
L 331.0608 382.684063 
L 331.2096 381.922111 
L 332.2512 381.922111 
L 332.4 384.207968 
L 332.8464 384.207968 
L 332.9952 383.446016 
L 333.7392 383.446016 
L 333.888 382.684063 
L 334.632 382.684063 
L 334.7808 383.446016 
L 334.9296 383.446016 
L 335.0784 384.96992 
L 335.5248 384.96992 
L 335.6736 384.207968 
L 335.8224 384.207968 
L 335.9712 383.446016 
L 336.5664 383.446016 
L 336.7152 382.684063 
L 336.864 382.684063 
L 337.0128 381.922111 
L 337.1616 381.922111 
L 337.3104 381.160159 
L 337.4592 382.684063 
L 337.9056 382.684063 
L 338.0544 383.446016 
L 338.2032 383.446016 
L 338.352 382.684063 
L 338.5008 382.684063 
L 338.6496 381.922111 
L 339.5424 381.922111 
L 339.6912 381.160159 
L 340.1376 381.160159 
L 340.2864 381.922111 
L 340.4352 381.922111 
L 340.584 384.207968 
L 340.7328 384.207968 
L 340.8816 383.446016 
L 341.7744 383.446016 
L 341.9232 382.684063 
L 342.816 382.684063 
L 342.9648 381.922111 
L 343.1136 382.684063 
L 343.2624 382.684063 
L 343.4112 381.922111 
L 344.304 381.922111 
L 344.4528 381.160159 
L 345.4944 381.160159 
L 345.6432 380.398207 
L 345.792 380.398207 
L 345.9408 379.636255 
L 346.0896 379.636255 
L 346.2384 381.922111 
L 346.3872 381.922111 
L 346.536 383.446016 
L 346.6848 383.446016 
L 346.8336 382.684063 
L 347.5776 382.684063 
L 347.7264 381.922111 
L 348.4704 381.922111 
L 348.6192 381.160159 
L 349.3632 381.160159 
L 349.512 382.684063 
L 349.6608 382.684063 
L 349.8096 383.446016 
L 349.9584 383.446016 
L 350.1072 384.207968 
L 350.256 384.207968 
L 350.4048 383.446016 
L 350.8512 383.446016 
L 351 382.684063 
L 351.4464 382.684063 
L 351.5952 381.922111 
L 352.3392 381.922111 
L 352.488 382.684063 
L 352.6368 382.684063 
L 352.7856 384.96992 
L 353.232 384.96992 
L 353.3808 384.207968 
L 353.5296 384.207968 
L 353.6784 383.446016 
L 354.1248 383.446016 
L 354.2736 382.684063 
L 355.0176 382.684063 
L 355.1664 381.922111 
L 355.6128 381.922111 
L 355.7616 382.684063 
L 355.9104 382.684063 
L 356.0592 381.922111 
L 356.8032 381.922111 
L 356.952 381.160159 
L 357.1008 381.160159 
L 357.2496 381.922111 
L 357.3984 381.922111 
L 357.5472 381.160159 
L 357.9936 381.160159 
L 358.1424 380.398207 
L 358.2912 380.398207 
L 358.44 381.160159 
L 358.5888 381.160159 
L 358.7376 380.398207 
L 359.0352 380.398207 
L 359.184 379.636255 
L 359.3328 379.636255 
L 359.4816 381.922111 
L 359.6304 381.922111 
L 359.7792 383.446016 
L 359.928 383.446016 
L 360.0768 382.684063 
L 360.8208 382.684063 
L 360.9696 381.922111 
L 362.16 381.922111 
L 362.3088 381.160159 
L 362.4576 381.160159 
L 362.6064 381.922111 
L 362.7552 381.922111 
L 362.904 381.160159 
L 363.0528 381.922111 
L 363.4992 381.922111 
L 363.648 381.160159 
L 364.8384 381.160159 
L 364.9872 380.398207 
L 365.136 380.398207 
L 365.2848 379.636255 
L 366.624 379.636255 
L 366.7728 380.398207 
L 366.9216 381.922111 
L 368.112 381.922111 
L 368.2608 381.160159 
L 369.0048 381.160159 
L 369.1536 380.398207 
L 370.4928 380.398207 
L 370.7904 383.446016 
L 371.5344 383.446016 
L 371.6832 382.684063 
L 372.1296 382.684063 
L 372.2784 381.922111 
L 372.4272 381.922111 
L 372.576 382.684063 
L 372.7248 382.684063 
L 372.8736 381.922111 
L 373.7664 381.922111 
L 373.9152 381.160159 
L 374.6592 381.160159 
L 374.808 382.684063 
L 374.9568 382.684063 
L 375.1056 384.207968 
L 375.552 384.207968 
L 375.7008 383.446016 
L 376.1472 383.446016 
L 376.296 382.684063 
L 377.04 382.684063 
L 377.1888 381.922111 
L 377.4864 381.922111 
L 377.6352 381.160159 
L 378.3792 381.160159 
L 378.528 380.398207 
L 378.9744 380.398207 
L 379.1232 381.160159 
L 379.7184 381.160159 
L 379.8672 381.922111 
L 380.016 381.922111 
L 380.3136 380.398207 
L 380.9088 380.398207 
L 381.0576 381.160159 
L 381.3552 381.160159 
L 381.504 380.398207 
L 381.8016 380.398207 
L 381.9504 379.636255 
L 382.0992 379.636255 
L 382.248 380.398207 
L 382.6944 380.398207 
L 382.8432 379.636255 
L 383.5872 379.636255 
L 383.736 381.160159 
L 383.8848 381.160159 
L 384.0336 382.684063 
L 384.6288 382.684063 
L 384.7776 381.922111 
L 385.968 381.922111 
L 386.1168 381.160159 
L 386.2656 381.160159 
L 386.4144 381.922111 
L 386.5632 381.922111 
L 386.712 381.160159 
L 387.7536 381.160159 
L 387.9024 380.398207 
L 389.5392 380.398207 
L 389.688 379.636255 
L 391.92 379.636255 
L 392.0688 378.874303 
L 393.408 378.874303 
L 393.5568 379.636255 
L 393.7056 379.636255 
L 393.8544 381.922111 
L 394.5984 381.922111 
L 394.7472 381.160159 
L 395.7888 381.160159 
L 395.9376 380.398207 
L 396.384 380.398207 
L 396.5328 381.160159 
L 396.6816 380.398207 
L 397.2768 380.398207 
L 397.4256 379.636255 
L 397.872 379.636255 
L 398.0208 380.398207 
L 398.7648 380.398207 
L 398.9136 381.160159 
L 399.0624 381.160159 
L 399.2112 382.684063 
L 400.848 382.684063 
L 400.9968 381.922111 
L 401.592 381.922111 
L 401.7408 381.160159 
L 402.336 381.160159 
L 402.4848 381.922111 
L 402.6336 381.922111 
L 402.7824 381.160159 
L 403.824 381.160159 
L 403.9728 380.398207 
L 405.4608 380.398207 
L 405.6096 379.636255 
L 408.288 379.636255 
L 408.4368 378.874303 
L 410.6688 378.874303 
L 410.8176 381.160159 
L 410.9664 381.160159 
L 411.1152 381.922111 
L 411.4128 381.922111 
L 411.5616 381.160159 
L 412.1568 381.160159 
L 412.3056 381.922111 
L 412.752 381.922111 
L 412.9008 381.160159 
L 413.9424 381.160159 
L 414.0912 380.398207 
L 415.5792 380.398207 
L 415.728 379.636255 
L 416.9184 379.636255 
L 417.0672 381.160159 
L 417.216 381.160159 
L 417.3648 383.446016 
L 417.5136 383.446016 
L 417.6624 382.684063 
L 419.0016 382.684063 
L 419.1504 381.922111 
L 420.192 381.922111 
L 420.3408 381.160159 
L 420.4896 381.160159 
L 420.6384 381.922111 
L 420.7872 381.922111 
L 420.936 381.160159 
L 421.9776 381.160159 
L 422.1264 380.398207 
L 423.6144 380.398207 
L 423.7632 379.636255 
L 424.2096 379.636255 
L 424.3584 380.398207 
L 425.4 380.398207 
L 425.5488 379.636255 
L 428.376 379.636255 
L 428.5248 378.874303 
L 430.7568 378.874303 
L 430.9056 378.11235 
L 432.096 378.11235 
L 432.2448 379.636255 
L 432.3936 379.636255 
L 432.5424 381.922111 
L 433.4352 381.922111 
L 433.584 381.160159 
L 434.6256 381.160159 
L 434.7744 380.398207 
L 435.3696 380.398207 
L 435.5184 381.160159 
L 435.6672 381.160159 
L 435.816 380.398207 
L 437.8992 380.398207 
L 438.048 379.636255 
L 440.7264 379.636255 
L 440.8752 381.922111 
L 441.4704 381.922111 
L 441.6192 382.684063 
L 441.768 382.684063 
L 441.9168 381.922111 
L 443.1072 381.922111 
L 443.256 381.160159 
L 443.4048 381.160159 
L 443.5536 381.922111 
L 443.7024 381.160159 
L 445.0416 381.160159 
L 445.1904 380.398207 
L 446.3808 380.398207 
L 446.5296 379.636255 
L 449.3568 379.636255 
L 449.5056 378.874303 
L 451.1424 378.874303 
L 451.2912 379.636255 
L 453.8208 379.636255 
L 453.9696 378.874303 
L 459.3264 378.874303 
L 459.4752 378.11235 
L 462.3024 378.11235 
L 462.4512 379.636255 
L 462.6 379.636255 
L 462.7488 381.922111 
L 463.344 381.922111 
L 463.4928 381.160159 
L 464.5344 381.160159 
L 464.6832 380.398207 
L 465.1296 380.398207 
L 465.2784 381.160159 
L 466.0224 381.160159 
L 466.1712 380.398207 
L 467.6592 380.398207 
L 467.808 379.636255 
L 468.1056 379.636255 
L 468.2544 380.398207 
L 469.1472 380.398207 
L 469.296 379.636255 
L 473.016 379.636255 
L 473.1648 378.874303 
L 475.248 378.874303 
L 475.3968 380.398207 
L 475.5456 380.398207 
L 475.6944 382.684063 
L 476.1408 382.684063 
L 476.2896 381.922111 
L 476.4384 381.922111 
L 476.5872 380.398207 
L 476.736 380.398207 
L 476.8848 378.874303 
L 477.0336 378.874303 
L 477.1824 378.11235 
L 481.4976 378.11235 
L 481.6464 378.874303 
L 481.7952 378.874303 
L 481.944 381.160159 
L 482.0928 381.160159 
L 482.2416 381.922111 
L 482.3904 381.922111 
L 482.5392 378.874303 
L 482.688 378.874303 
L 482.8368 378.11235 
L 484.4736 378.11235 
L 484.6224 377.350398 
L 485.664 377.350398 
L 485.8128 379.636255 
L 485.9616 379.636255 
L 486.1104 381.160159 
L 486.5568 381.160159 
L 486.7056 378.874303 
L 486.8544 378.874303 
L 487.0032 377.350398 
L 488.3424 377.350398 
L 488.4912 378.11235 
L 488.64 378.11235 
L 488.7888 380.398207 
L 488.9376 380.398207 
L 489.0864 381.160159 
L 489.5328 381.160159 
L 489.6816 378.874303 
L 489.8304 378.874303 
L 489.9792 377.350398 
L 490.4256 377.350398 
L 490.5744 379.636255 
L 490.7232 379.636255 
L 490.872 380.398207 
L 493.4016 380.398207 
L 493.5504 379.636255 
L 493.9968 379.636255 
L 494.1456 380.398207 
L 494.2944 380.398207 
L 494.4432 379.636255 
L 499.056 379.636255 
L 499.2048 378.874303 
L 507.984 378.874303 
L 508.1328 381.160159 
L 508.8768 381.160159 
L 509.0256 381.922111 
L 509.472 381.922111 
L 509.6208 381.160159 
L 510.0672 381.160159 
L 510.216 381.922111 
L 510.6624 381.922111 
L 510.8112 381.160159 
L 511.8528 381.160159 
L 512.0016 380.398207 
L 512.448 380.398207 
L 512.5968 381.160159 
L 513.0432 381.160159 
L 513.192 380.398207 
L 516.6144 380.398207 
L 516.7632 379.636255 
L 518.1024 379.636255 
L 518.2512 378.874303 
L 518.4 378.874303 
L 518.4 378.874303 
" style="fill:none;stroke:#008000;stroke-linecap:square;"/>
   </g>
   <g id="line2d_2">
    <path clip-path="url(#pe41f91f261)" d="M 72.1488 388.8 
L 103.248 388.8 
L 103.3968 373.800008 
L 103.5456 373.800008 
L 103.6944 358.800015 
L 103.8432 358.800015 
L 103.992 343.800023 
L 104.1408 343.800023 
L 104.2896 328.800031 
L 104.4384 328.800031 
L 104.5872 313.800038 
L 104.736 313.800038 
L 104.8848 298.800046 
L 105.0336 298.800046 
L 105.1824 283.800054 
L 105.3312 283.800054 
L 105.48 268.800061 
L 105.6288 268.800061 
L 105.7776 250.800071 
L 105.9264 250.800071 
L 106.0752 235.800078 
L 106.224 235.800078 
L 106.3728 229.800081 
L 106.5216 229.800081 
L 106.6704 226.800083 
L 106.8192 226.800083 
L 106.968 223.800084 
L 107.1168 223.800084 
L 107.2656 220.800086 
L 107.4144 220.800086 
L 107.5632 217.800088 
L 108.0096 217.800088 
L 108.1584 214.800089 
L 108.3072 214.800089 
L 108.456 211.800091 
L 108.6048 211.800091 
L 108.7536 208.800092 
L 108.9024 208.800092 
L 109.0512 205.800094 
L 109.4976 205.800094 
L 109.6464 202.800095 
L 109.7952 202.800095 
L 109.944 199.800097 
L 110.0928 199.800097 
L 110.2416 196.800098 
L 110.3904 196.800098 
L 110.5392 193.8001 
L 110.8368 193.8001 
L 110.9856 190.800101 
L 111.2832 190.800101 
L 111.432 187.800103 
L 111.5808 187.800103 
L 111.7296 184.800104 
L 112.176 184.800104 
L 112.3248 181.800106 
L 112.4736 181.800106 
L 112.6224 178.800108 
L 112.7712 178.800108 
L 112.92 175.800109 
L 113.3664 175.800109 
L 113.5152 172.800111 
L 113.664 172.800111 
L 113.8128 169.800112 
L 113.9616 169.800112 
L 114.1104 166.800114 
L 114.5568 166.800114 
L 114.7056 163.800115 
L 114.8544 163.800115 
L 115.0032 160.800117 
L 115.4496 160.800117 
L 115.5984 157.800118 
L 115.7472 157.800118 
L 115.896 154.80012 
L 116.3424 154.80012 
L 116.4912 151.800121 
L 116.64 151.800121 
L 116.7888 148.800123 
L 117.2352 148.800123 
L 117.384 145.800124 
L 117.5328 145.800124 
L 117.6816 142.800126 
L 118.128 142.800126 
L 118.2768 139.800127 
L 118.4256 139.800127 
L 118.5744 136.800129 
L 119.0208 136.800129 
L 119.1696 133.800131 
L 119.3184 133.800131 
L 119.4672 130.800132 
L 119.9136 130.800132 
L 120.0624 127.800134 
L 120.5088 127.800134 
L 120.6576 124.800135 
L 121.104 124.800135 
L 121.2528 121.800137 
L 121.4016 121.800137 
L 121.5504 118.800138 
L 121.9968 118.800138 
L 122.1456 115.80014 
L 122.592 115.80014 
L 122.7408 112.800141 
L 123.0384 112.800141 
L 123.1872 109.800143 
L 123.336 109.800143 
L 123.4848 106.800144 
L 123.6336 106.800144 
L 123.7824 103.800146 
L 124.2288 103.800146 
L 124.3776 100.800147 
L 124.824 100.800147 
L 124.9728 97.800149 
L 125.8656 97.800149 
L 126.0144 94.800151 
L 126.4608 94.800151 
L 126.6096 91.800152 
L 127.056 91.800152 
L 127.2048 88.800154 
L 127.6512 88.800154 
L 127.8 85.800155 
L 128.544 85.800155 
L 128.6928 82.800157 
L 128.8416 82.800157 
L 128.9904 79.800158 
L 129.7344 79.800158 
L 129.8832 76.80016 
L 130.3296 76.80016 
L 130.4784 73.800161 
L 131.2224 73.800161 
L 131.3712 70.800163 
L 132.7104 70.800163 
L 132.8592 67.800164 
L 134.1984 67.800164 
L 134.3472 64.800166 
L 136.1328 64.800166 
L 136.2816 61.800167 
L 141.3408 61.800167 
L 141.4896 58.800169 
L 147.5904 58.800169 
L 147.7392 55.80017 
L 154.4352 55.80017 
L 154.584 52.800172 
L 163.9584 52.800172 
L 164.1072 55.80017 
L 166.0416 55.80017 
L 166.1904 58.800169 
L 168.72 58.800169 
L 168.8688 61.800167 
L 170.5056 61.800167 
L 170.6544 64.800166 
L 171.3984 64.800166 
L 171.5472 61.800167 
L 171.696 61.800167 
L 171.8448 64.800166 
L 173.4816 64.800166 
L 173.6304 67.800164 
L 175.8624 67.800164 
L 176.0112 70.800163 
L 177.3504 70.800163 
L 177.4992 73.800161 
L 179.7312 73.800161 
L 179.88 76.80016 
L 180.9216 76.80016 
L 181.0704 79.800158 
L 183.0048 79.800158 
L 183.1536 82.800157 
L 184.1952 82.800157 
L 184.344 85.800155 
L 186.8736 85.800155 
L 187.0224 88.800154 
L 188.6592 88.800154 
L 188.808 91.800152 
L 189.8496 91.800152 
L 189.9984 94.800151 
L 190.8912 94.800151 
L 191.04 97.800149 
L 191.784 97.800149 
L 191.9328 100.800147 
L 192.6768 100.800147 
L 192.8256 103.800146 
L 193.4208 103.800146 
L 193.5696 106.800144 
L 193.7184 106.800144 
L 193.8672 109.800143 
L 194.76 109.800143 
L 194.9088 112.800141 
L 195.6528 112.800141 
L 195.8016 115.80014 
L 196.0992 115.80014 
L 196.248 118.800138 
L 196.8432 118.800138 
L 196.992 121.800137 
L 197.4384 121.800137 
L 197.5872 124.800135 
L 201.3072 124.800135 
L 201.456 121.800137 
L 202.6464 121.800137 
L 202.7952 124.800135 
L 204.1344 124.800135 
L 204.2832 127.800134 
L 205.176 127.800134 
L 205.3248 130.800132 
L 205.92 130.800132 
L 206.0688 133.800131 
L 207.2592 133.800131 
L 207.408 136.800129 
L 207.5568 136.800129 
L 207.7056 139.800127 
L 208.3008 139.800127 
L 208.4496 142.800126 
L 210.0864 142.800126 
L 210.2352 145.800124 
L 210.8304 145.800124 
L 210.9792 148.800123 
L 211.5744 148.800123 
L 211.7232 151.800121 
L 212.1696 151.800121 
L 212.3184 154.80012 
L 212.616 154.80012 
L 212.7648 157.800118 
L 214.848 157.800118 
L 214.9968 160.800117 
L 215.592 160.800117 
L 215.7408 163.800115 
L 216.4848 163.800115 
L 216.6336 166.800114 
L 217.824 166.800114 
L 217.9728 169.800112 
L 218.7168 169.800112 
L 218.8656 172.800111 
L 219.7584 172.800111 
L 219.9072 175.800109 
L 220.8 175.800109 
L 220.9488 178.800108 
L 222.288 178.800108 
L 222.4368 181.800106 
L 222.7344 181.800106 
L 222.8832 184.800104 
L 223.776 184.800104 
L 223.9248 187.800103 
L 224.0736 187.800103 
L 224.2224 190.800101 
L 224.8176 190.800101 
L 224.9664 193.8001 
L 225.4128 193.8001 
L 225.5616 196.800098 
L 226.1568 196.800098 
L 226.3056 199.800097 
L 226.752 199.800097 
L 226.9008 202.800095 
L 227.6448 202.800095 
L 227.7936 205.800094 
L 228.5376 205.800094 
L 228.6864 208.800092 
L 229.1328 208.800092 
L 229.2816 211.800091 
L 229.728 211.800091 
L 229.8768 214.800089 
L 230.3232 214.800089 
L 230.472 217.800088 
L 231.216 217.800088 
L 231.3648 220.800086 
L 231.5136 220.800086 
L 231.6624 223.800084 
L 232.1088 223.800084 
L 232.2576 226.800083 
L 233.0016 226.800083 
L 233.1504 229.800081 
L 233.2992 229.800081 
L 233.448 232.80008 
L 233.8944 232.80008 
L 234.0432 235.800078 
L 234.4896 235.800078 
L 234.6384 238.800077 
L 235.0848 238.800077 
L 235.2336 241.800075 
L 235.68 241.800075 
L 235.8288 244.800074 
L 235.9776 244.800074 
L 236.1264 247.800072 
L 236.5728 247.800072 
L 236.7216 250.800071 
L 236.8704 250.800071 
L 237.0192 253.800069 
L 237.4656 253.800069 
L 237.6144 256.800068 
L 238.3584 256.800068 
L 238.5072 259.800066 
L 238.9536 259.800066 
L 239.1024 262.800065 
L 239.5488 262.800065 
L 239.6976 265.800063 
L 240.144 265.800063 
L 240.2928 268.800061 
L 240.7392 268.800061 
L 240.888 271.80006 
L 241.3344 271.80006 
L 241.4832 274.800058 
L 241.9296 274.800058 
L 242.0784 277.800057 
L 242.5248 277.800057 
L 242.6736 280.800055 
L 243.12 280.800055 
L 243.2688 388.8 
L 518.4 388.8 
L 518.4 388.8 
" style="fill:none;stroke:#ff0000;stroke-linecap:square;"/>
   </g>
   <g id="patch_3">
    <path d="M 72 43.2 
L 518.4 43.2 
" style="fill:none;stroke:#000000;stroke-linecap:square;stroke-linejoin:miter;"/>
   </g>
   <g id="patch_4">
    <path d="M 518.4 388.8 
L 518.4 43.2 
" style="fill:none;stroke:#000000;stroke-linecap:square;stroke-linejoin:miter;"/>
   </g>
   <g id="patch_5">
    <path d="M 72 388.8 
L 518.4 388.8 
" style="fill:none;stroke:#000000;stroke-linecap:square;stroke-linejoin:miter;"/>
   </g>
   <g id="patch_6">
    <path d="M 72 388.8 
L 72 43.2 
" style="fill:none;stroke:#000000;stroke-linecap:square;stroke-linejoin:miter;"/>
   </g>
   <g id="matplotlib.axis_1">
    <g id="xtick_1">
     <g id="line2d_3">
      <path clip-path="url(#pe41f91f261)" d="M 72 388.8 
L 72 43.2 
" style="fill:none;stroke:#000000;stroke-dasharray:1.000000,3.000000;stroke-dashoffset:0.0;stroke-width:0.5;"/>
     </g>
     <g id="line2d_4">
      <defs>
       <path d="M 0 0 
L 0 -4 
" id="mab030cf956" style="stroke:#000000;stroke-width:0.5;"/>
      </defs>
      <g>
       <use style="stroke:#000000;stroke-width:0.5;" x="72.0" xlink:href="#mab030cf956" y="388.8"/>
      </g>
     </g>
     <g id="line2d_5">
      <defs>
       <path d="M 0 0 
L 0 4 
" id="ma5b77934bf" style="stroke:#000000;stroke-width:0.5;"/>
      </defs>
      <g>
       <use style="stroke:#000000;stroke-width:0.5;" x="72.0" xlink:href="#ma5b77934bf" y="43.2"/>
      </g>
     </g>
     <g id="text_1">
      <!-- 0 -->
      <defs>
       <path d="M 31.78125 66.40625 
Q 24.171875 66.40625 20.328125 58.90625 
Q 16.5 51.421875 16.5 36.375 
Q 16.5 21.390625 20.328125 13.890625 
Q 24.171875 6.390625 31.78125 6.390625 
Q 39.453125 6.390625 43.28125 13.890625 
Q 47.125 21.390625 47.125 36.375 
Q 47.125 51.421875 43.28125 58.90625 
Q 39.453125 66.40625 31.78125 66.40625 
M 31.78125 74.21875 
Q 44.046875 74.21875 50.515625 64.515625 
Q 56.984375 54.828125 56.984375 36.375 
Q 56.984375 17.96875 50.515625 8.265625 
Q 44.046875 -1.421875 31.78125 -1.421875 
Q 19.53125 -1.421875 13.0625 8.265625 
Q 6.59375 17.96875 6.59375 36.375 
Q 6.59375 54.828125 13.0625 64.515625 
Q 19.53125 74.21875 31.78125 74.21875 
" id="BitstreamVeraSans-Roman-30"/>
      </defs>
      <g transform="translate(68.1825 401.918125)scale(0.12 -0.12)">
       <use xlink:href="#BitstreamVeraSans-Roman-30"/>
      </g>
     </g>
    </g>
    <g id="xtick_2">
     <g id="line2d_6">
      <path clip-path="url(#pe41f91f261)" d="M 146.4 388.8 
L 146.4 43.2 
" style="fill:none;stroke:#000000;stroke-dasharray:1.000000,3.000000;stroke-dashoffset:0.0;stroke-width:0.5;"/>
     </g>
     <g id="line2d_7">
      <g>
       <use style="stroke:#000000;stroke-width:0.5;" x="146.4" xlink:href="#mab030cf956" y="388.8"/>
      </g>
     </g>
     <g id="line2d_8">
      <g>
       <use style="stroke:#000000;stroke-width:0.5;" x="146.4" xlink:href="#ma5b77934bf" y="43.2"/>
      </g>
     </g>
     <g id="text_2">
      <!-- 5 -->
      <defs>
       <path d="M 10.796875 72.90625 
L 49.515625 72.90625 
L 49.515625 64.59375 
L 19.828125 64.59375 
L 19.828125 46.734375 
Q 21.96875 47.46875 24.109375 47.828125 
Q 26.265625 48.1875 28.421875 48.1875 
Q 40.625 48.1875 47.75 41.5 
Q 54.890625 34.8125 54.890625 23.390625 
Q 54.890625 11.625 47.5625 5.09375 
Q 40.234375 -1.421875 26.90625 -1.421875 
Q 22.3125 -1.421875 17.546875 -0.640625 
Q 12.796875 0.140625 7.71875 1.703125 
L 7.71875 11.625 
Q 12.109375 9.234375 16.796875 8.0625 
Q 21.484375 6.890625 26.703125 6.890625 
Q 35.15625 6.890625 40.078125 11.328125 
Q 45.015625 15.765625 45.015625 23.390625 
Q 45.015625 31 40.078125 35.4375 
Q 35.15625 39.890625 26.703125 39.890625 
Q 22.75 39.890625 18.8125 39.015625 
Q 14.890625 38.140625 10.796875 36.28125 
z
" id="BitstreamVeraSans-Roman-35"/>
      </defs>
      <g transform="translate(142.5825 401.918125)scale(0.12 -0.12)">
       <use xlink:href="#BitstreamVeraSans-Roman-35"/>
      </g>
     </g>
    </g>
    <g id="xtick_3">
     <g id="line2d_9">
      <path clip-path="url(#pe41f91f261)" d="M 220.8 388.8 
L 220.8 43.2 
" style="fill:none;stroke:#000000;stroke-dasharray:1.000000,3.000000;stroke-dashoffset:0.0;stroke-width:0.5;"/>
     </g>
     <g id="line2d_10">
      <g>
       <use style="stroke:#000000;stroke-width:0.5;" x="220.8" xlink:href="#mab030cf956" y="388.8"/>
      </g>
     </g>
     <g id="line2d_11">
      <g>
       <use style="stroke:#000000;stroke-width:0.5;" x="220.8" xlink:href="#ma5b77934bf" y="43.2"/>
      </g>
     </g>
     <g id="text_3">
      <!-- 10 -->
      <defs>
       <path d="M 12.40625 8.296875 
L 28.515625 8.296875 
L 28.515625 63.921875 
L 10.984375 60.40625 
L 10.984375 69.390625 
L 28.421875 72.90625 
L 38.28125 72.90625 
L 38.28125 8.296875 
L 54.390625 8.296875 
L 54.390625 0 
L 12.40625 0 
z
" id="BitstreamVeraSans-Roman-31"/>
      </defs>
      <g transform="translate(213.165 401.918125)scale(0.12 -0.12)">
       <use xlink:href="#BitstreamVeraSans-Roman-31"/>
       <use x="63.623046875" xlink:href="#BitstreamVeraSans-Roman-30"/>
      </g>
     </g>
    </g>
    <g id="xtick_4">
     <g id="line2d_12">
      <path clip-path="url(#pe41f91f261)" d="M 295.2 388.8 
L 295.2 43.2 
" style="fill:none;stroke:#000000;stroke-dasharray:1.000000,3.000000;stroke-dashoffset:0.0;stroke-width:0.5;"/>
     </g>
     <g id="line2d_13">
      <g>
       <use style="stroke:#000000;stroke-width:0.5;" x="295.2" xlink:href="#mab030cf956" y="388.8"/>
      </g>
     </g>
     <g id="line2d_14">
      <g>
       <use style="stroke:#000000;stroke-width:0.5;" x="295.2" xlink:href="#ma5b77934bf" y="43.2"/>
      </g>
     </g>
     <g id="text_4">
      <!-- 15 -->
      <g transform="translate(287.565 401.918125)scale(0.12 -0.12)">
       <use xlink:href="#BitstreamVeraSans-Roman-31"/>
       <use x="63.623046875" xlink:href="#BitstreamVeraSans-Roman-35"/>
      </g>
     </g>
    </g>
    <g id="xtick_5">
     <g id="line2d_15">
      <path clip-path="url(#pe41f91f261)" d="M 369.6 388.8 
L 369.6 43.2 
" style="fill:none;stroke:#000000;stroke-dasharray:1.000000,3.000000;stroke-dashoffset:0.0;stroke-width:0.5;"/>
     </g>
     <g id="line2d_16">
      <g>
       <use style="stroke:#000000;stroke-width:0.5;" x="369.6" xlink:href="#mab030cf956" y="388.8"/>
      </g>
     </g>
     <g id="line2d_17">
      <g>
       <use style="stroke:#000000;stroke-width:0.5;" x="369.6" xlink:href="#ma5b77934bf" y="43.2"/>
      </g>
     </g>
     <g id="text_5">
      <!-- 20 -->
      <defs>
       <path d="M 19.1875 8.296875 
L 53.609375 8.296875 
L 53.609375 0 
L 7.328125 0 
L 7.328125 8.296875 
Q 12.9375 14.109375 22.625 23.890625 
Q 32.328125 33.6875 34.8125 36.53125 
Q 39.546875 41.84375 41.421875 45.53125 
Q 43.3125 49.21875 43.3125 52.78125 
Q 43.3125 58.59375 39.234375 62.25 
Q 35.15625 65.921875 28.609375 65.921875 
Q 23.96875 65.921875 18.8125 64.3125 
Q 13.671875 62.703125 7.8125 59.421875 
L 7.8125 69.390625 
Q 13.765625 71.78125 18.9375 73 
Q 24.125 74.21875 28.421875 74.21875 
Q 39.75 74.21875 46.484375 68.546875 
Q 53.21875 62.890625 53.21875 53.421875 
Q 53.21875 48.921875 51.53125 44.890625 
Q 49.859375 40.875 45.40625 35.40625 
Q 44.1875 33.984375 37.640625 27.21875 
Q 31.109375 20.453125 19.1875 8.296875 
" id="BitstreamVeraSans-Roman-32"/>
      </defs>
      <g transform="translate(361.965 401.918125)scale(0.12 -0.12)">
       <use xlink:href="#BitstreamVeraSans-Roman-32"/>
       <use x="63.623046875" xlink:href="#BitstreamVeraSans-Roman-30"/>
      </g>
     </g>
    </g>
    <g id="xtick_6">
     <g id="line2d_18">
      <path clip-path="url(#pe41f91f261)" d="M 444 388.8 
L 444 43.2 
" style="fill:none;stroke:#000000;stroke-dasharray:1.000000,3.000000;stroke-dashoffset:0.0;stroke-width:0.5;"/>
     </g>
     <g id="line2d_19">
      <g>
       <use style="stroke:#000000;stroke-width:0.5;" x="444.0" xlink:href="#mab030cf956" y="388.8"/>
      </g>
     </g>
     <g id="line2d_20">
      <g>
       <use style="stroke:#000000;stroke-width:0.5;" x="444.0" xlink:href="#ma5b77934bf" y="43.2"/>
      </g>
     </g>
     <g id="text_6">
      <!-- 25 -->
      <g transform="translate(436.365 401.918125)scale(0.12 -0.12)">
       <use xlink:href="#BitstreamVeraSans-Roman-32"/>
       <use x="63.623046875" xlink:href="#BitstreamVeraSans-Roman-35"/>
      </g>
     </g>
    </g>
    <g id="xtick_7">
     <g id="line2d_21">
      <path clip-path="url(#pe41f91f261)" d="M 518.4 388.8 
L 518.4 43.2 
" style="fill:none;stroke:#000000;stroke-dasharray:1.000000,3.000000;stroke-dashoffset:0.0;stroke-width:0.5;"/>
     </g>
     <g id="line2d_22">
      <g>
       <use style="stroke:#000000;stroke-width:0.5;" x="518.4" xlink:href="#mab030cf956" y="388.8"/>
      </g>
     </g>
     <g id="line2d_23">
      <g>
       <use style="stroke:#000000;stroke-width:0.5;" x="518.4" xlink:href="#ma5b77934bf" y="43.2"/>
      </g>
     </g>
     <g id="text_7">
      <!-- 30 -->
      <defs>
       <path d="M 40.578125 39.3125 
Q 47.65625 37.796875 51.625 33 
Q 55.609375 28.21875 55.609375 21.1875 
Q 55.609375 10.40625 48.1875 4.484375 
Q 40.765625 -1.421875 27.09375 -1.421875 
Q 22.515625 -1.421875 17.65625 -0.515625 
Q 12.796875 0.390625 7.625 2.203125 
L 7.625 11.71875 
Q 11.71875 9.328125 16.59375 8.109375 
Q 21.484375 6.890625 26.8125 6.890625 
Q 36.078125 6.890625 40.9375 10.546875 
Q 45.796875 14.203125 45.796875 21.1875 
Q 45.796875 27.640625 41.28125 31.265625 
Q 36.765625 34.90625 28.71875 34.90625 
L 20.21875 34.90625 
L 20.21875 43.015625 
L 29.109375 43.015625 
Q 36.375 43.015625 40.234375 45.921875 
Q 44.09375 48.828125 44.09375 54.296875 
Q 44.09375 59.90625 40.109375 62.90625 
Q 36.140625 65.921875 28.71875 65.921875 
Q 24.65625 65.921875 20.015625 65.03125 
Q 15.375 64.15625 9.8125 62.3125 
L 9.8125 71.09375 
Q 15.4375 72.65625 20.34375 73.4375 
Q 25.25 74.21875 29.59375 74.21875 
Q 40.828125 74.21875 47.359375 69.109375 
Q 53.90625 64.015625 53.90625 55.328125 
Q 53.90625 49.265625 50.4375 45.09375 
Q 46.96875 40.921875 40.578125 39.3125 
" id="BitstreamVeraSans-Roman-33"/>
      </defs>
      <g transform="translate(510.765 401.918125)scale(0.12 -0.12)">
       <use xlink:href="#BitstreamVeraSans-Roman-33"/>
       <use x="63.623046875" xlink:href="#BitstreamVeraSans-Roman-30"/>
      </g>
     </g>
    </g>
    <g id="text_8">
     <!-- Time [s] -->
     <defs>
      <path id="BitstreamVeraSans-Roman-20"/>
      <path d="M 8.59375 75.984375 
L 29.296875 75.984375 
L 29.296875 69 
L 17.578125 69 
L 17.578125 -6.203125 
L 29.296875 -6.203125 
L 29.296875 -13.1875 
L 8.59375 -13.1875 
z
" id="BitstreamVeraSans-Roman-5b"/>
      <path d="M 30.421875 75.984375 
L 30.421875 -13.1875 
L 9.71875 -13.1875 
L 9.71875 -6.203125 
L 21.390625 -6.203125 
L 21.390625 69 
L 9.71875 69 
L 9.71875 75.984375 
z
" id="BitstreamVeraSans-Roman-5d"/>
      <path d="M 52 44.1875 
Q 55.375 50.25 60.0625 53.125 
Q 64.75 56 71.09375 56 
Q 79.640625 56 84.28125 50.015625 
Q 88.921875 44.046875 88.921875 33.015625 
L 88.921875 0 
L 79.890625 0 
L 79.890625 32.71875 
Q 79.890625 40.578125 77.09375 44.375 
Q 74.3125 48.1875 68.609375 48.1875 
Q 61.625 48.1875 57.5625 43.546875 
Q 53.515625 38.921875 53.515625 30.90625 
L 53.515625 0 
L 44.484375 0 
L 44.484375 32.71875 
Q 44.484375 40.625 41.703125 44.40625 
Q 38.921875 48.1875 33.109375 48.1875 
Q 26.21875 48.1875 22.15625 43.53125 
Q 18.109375 38.875 18.109375 30.90625 
L 18.109375 0 
L 9.078125 0 
L 9.078125 54.6875 
L 18.109375 54.6875 
L 18.109375 46.1875 
Q 21.1875 51.21875 25.484375 53.609375 
Q 29.78125 56 35.6875 56 
Q 41.65625 56 45.828125 52.96875 
Q 50 49.953125 52 44.1875 
" id="BitstreamVeraSans-Roman-6d"/>
      <path d="M 9.421875 54.6875 
L 18.40625 54.6875 
L 18.40625 0 
L 9.421875 0 
z
M 9.421875 75.984375 
L 18.40625 75.984375 
L 18.40625 64.59375 
L 9.421875 64.59375 
z
" id="BitstreamVeraSans-Roman-69"/>
      <path d="M 56.203125 29.59375 
L 56.203125 25.203125 
L 14.890625 25.203125 
Q 15.484375 15.921875 20.484375 11.0625 
Q 25.484375 6.203125 34.421875 6.203125 
Q 39.59375 6.203125 44.453125 7.46875 
Q 49.3125 8.734375 54.109375 11.28125 
L 54.109375 2.78125 
Q 49.265625 0.734375 44.1875 -0.34375 
Q 39.109375 -1.421875 33.890625 -1.421875 
Q 20.796875 -1.421875 13.15625 6.1875 
Q 5.515625 13.8125 5.515625 26.8125 
Q 5.515625 40.234375 12.765625 48.109375 
Q 20.015625 56 32.328125 56 
Q 43.359375 56 49.78125 48.890625 
Q 56.203125 41.796875 56.203125 29.59375 
M 47.21875 32.234375 
Q 47.125 39.59375 43.09375 43.984375 
Q 39.0625 48.390625 32.421875 48.390625 
Q 24.90625 48.390625 20.390625 44.140625 
Q 15.875 39.890625 15.1875 32.171875 
z
" id="BitstreamVeraSans-Roman-65"/>
      <path d="M -0.296875 72.90625 
L 61.375 72.90625 
L 61.375 64.59375 
L 35.5 64.59375 
L 35.5 0 
L 25.59375 0 
L 25.59375 64.59375 
L -0.296875 64.59375 
z
" id="BitstreamVeraSans-Roman-54"/>
      <path d="M 44.28125 53.078125 
L 44.28125 44.578125 
Q 40.484375 46.53125 36.375 47.5 
Q 32.28125 48.484375 27.875 48.484375 
Q 21.1875 48.484375 17.84375 46.4375 
Q 14.5 44.390625 14.5 40.28125 
Q 14.5 37.15625 16.890625 35.375 
Q 19.28125 33.59375 26.515625 31.984375 
L 29.59375 31.296875 
Q 39.15625 29.25 43.1875 25.515625 
Q 47.21875 21.78125 47.21875 15.09375 
Q 47.21875 7.46875 41.1875 3.015625 
Q 35.15625 -1.421875 24.609375 -1.421875 
Q 20.21875 -1.421875 15.453125 -0.5625 
Q 10.6875 0.296875 5.421875 2 
L 5.421875 11.28125 
Q 10.40625 8.6875 15.234375 7.390625 
Q 20.0625 6.109375 24.8125 6.109375 
Q 31.15625 6.109375 34.5625 8.28125 
Q 37.984375 10.453125 37.984375 14.40625 
Q 37.984375 18.0625 35.515625 20.015625 
Q 33.0625 21.96875 24.703125 23.78125 
L 21.578125 24.515625 
Q 13.234375 26.265625 9.515625 29.90625 
Q 5.8125 33.546875 5.8125 39.890625 
Q 5.8125 47.609375 11.28125 51.796875 
Q 16.75 56 26.8125 56 
Q 31.78125 56 36.171875 55.265625 
Q 40.578125 54.546875 44.28125 53.078125 
" id="BitstreamVeraSans-Roman-73"/>
     </defs>
     <g transform="translate(270.620625 418.531875)scale(0.12 -0.12)">
      <use xlink:href="#BitstreamVeraSans-Roman-54"/>
      <use x="61.037109375" xlink:href="#BitstreamVeraSans-Roman-69"/>
      <use x="88.8203125" xlink:href="#BitstreamVeraSans-Roman-6d"/>
      <use x="186.232421875" xlink:href="#BitstreamVeraSans-Roman-65"/>
      <use x="247.755859375" xlink:href="#BitstreamVeraSans-Roman-20"/>
      <use x="279.54296875" xlink:href="#BitstreamVeraSans-Roman-5b"/>
      <use x="318.556640625" xlink:href="#BitstreamVeraSans-Roman-73"/>
      <use x="370.65625" xlink:href="#BitstreamVeraSans-Roman-5d"/>
     </g>
    </g>
   </g>
   <g id="matplotlib.axis_2">
    <g id="ytick_1">
     <g id="line2d_24">
      <path clip-path="url(#pe41f91f261)" d="M 72 388.8 
L 518.4 388.8 
" style="fill:none;stroke:#000000;stroke-dasharray:1.000000,3.000000;stroke-dashoffset:0.0;stroke-width:0.5;"/>
     </g>
     <g id="line2d_25">
      <defs>
       <path d="M 0 0 
L 4 0 
" id="mcb3df95477" style="stroke:#000000;stroke-width:0.5;"/>
      </defs>
      <g>
       <use style="stroke:#000000;stroke-width:0.5;" x="72.0" xlink:href="#mcb3df95477" y="388.8"/>
      </g>
     </g>
     <g id="line2d_26">
      <defs>
       <path d="M 0 0 
L -4 0 
" id="md76e38f5db" style="stroke:#000000;stroke-width:0.5;"/>
      </defs>
      <g>
       <use style="stroke:#000000;stroke-width:0.5;" x="518.4" xlink:href="#md76e38f5db" y="388.8"/>
      </g>
     </g>
     <g id="text_9">
      <!-- 0.00 -->
      <defs>
       <path d="M 10.6875 12.40625 
L 21 12.40625 
L 21 0 
L 10.6875 0 
z
" id="BitstreamVeraSans-Roman-2e"/>
      </defs>
      <g transform="translate(41.28125 392.11125)scale(0.12 -0.12)">
       <use xlink:href="#BitstreamVeraSans-Roman-30"/>
       <use x="63.623046875" xlink:href="#BitstreamVeraSans-Roman-2e"/>
       <use x="95.41015625" xlink:href="#BitstreamVeraSans-Roman-30"/>
       <use x="159.033203125" xlink:href="#BitstreamVeraSans-Roman-30"/>
      </g>
     </g>
    </g>
    <g id="ytick_2">
     <g id="line2d_27">
      <path clip-path="url(#pe41f91f261)" d="M 72 350.4 
L 518.4 350.4 
" style="fill:none;stroke:#000000;stroke-dasharray:1.000000,3.000000;stroke-dashoffset:0.0;stroke-width:0.5;"/>
     </g>
     <g id="line2d_28">
      <g>
       <use style="stroke:#000000;stroke-width:0.5;" x="72.0" xlink:href="#mcb3df95477" y="350.4"/>
      </g>
     </g>
     <g id="line2d_29">
      <g>
       <use style="stroke:#000000;stroke-width:0.5;" x="518.4" xlink:href="#md76e38f5db" y="350.4"/>
      </g>
     </g>
     <g id="text_10">
      <!-- 0.05 -->
      <g transform="translate(41.28125 353.71125)scale(0.12 -0.12)">
       <use xlink:href="#BitstreamVeraSans-Roman-30"/>
       <use x="63.623046875" xlink:href="#BitstreamVeraSans-Roman-2e"/>
       <use x="95.41015625" xlink:href="#BitstreamVeraSans-Roman-30"/>
       <use x="159.033203125" xlink:href="#BitstreamVeraSans-Roman-35"/>
      </g>
     </g>
    </g>
    <g id="ytick_3">
     <g id="line2d_30">
      <path clip-path="url(#pe41f91f261)" d="M 72 312 
L 518.4 312 
" style="fill:none;stroke:#000000;stroke-dasharray:1.000000,3.000000;stroke-dashoffset:0.0;stroke-width:0.5;"/>
     </g>
     <g id="line2d_31">
      <g>
       <use style="stroke:#000000;stroke-width:0.5;" x="72.0" xlink:href="#mcb3df95477" y="312.0"/>
      </g>
     </g>
     <g id="line2d_32">
      <g>
       <use style="stroke:#000000;stroke-width:0.5;" x="518.4" xlink:href="#md76e38f5db" y="312.0"/>
      </g>
     </g>
     <g id="text_11">
      <!-- 0.10 -->
      <g transform="translate(41.28125 315.31125)scale(0.12 -0.12)">
       <use xlink:href="#BitstreamVeraSans-Roman-30"/>
       <use x="63.623046875" xlink:href="#BitstreamVeraSans-Roman-2e"/>
       <use x="95.41015625" xlink:href="#BitstreamVeraSans-Roman-31"/>
       <use x="159.033203125" xlink:href="#BitstreamVeraSans-Roman-30"/>
      </g>
     </g>
    </g>
    <g id="ytick_4">
     <g id="line2d_33">
      <path clip-path="url(#pe41f91f261)" d="M 72 273.6 
L 518.4 273.6 
" style="fill:none;stroke:#000000;stroke-dasharray:1.000000,3.000000;stroke-dashoffset:0.0;stroke-width:0.5;"/>
     </g>
     <g id="line2d_34">
      <g>
       <use style="stroke:#000000;stroke-width:0.5;" x="72.0" xlink:href="#mcb3df95477" y="273.6"/>
      </g>
     </g>
     <g id="line2d_35">
      <g>
       <use style="stroke:#000000;stroke-width:0.5;" x="518.4" xlink:href="#md76e38f5db" y="273.6"/>
      </g>
     </g>
     <g id="text_12">
      <!-- 0.15 -->
      <g transform="translate(41.28125 276.91125)scale(0.12 -0.12)">
       <use xlink:href="#BitstreamVeraSans-Roman-30"/>
       <use x="63.623046875" xlink:href="#BitstreamVeraSans-Roman-2e"/>
       <use x="95.41015625" xlink:href="#BitstreamVeraSans-Roman-31"/>
       <use x="159.033203125" xlink:href="#BitstreamVeraSans-Roman-35"/>
      </g>
     </g>
    </g>
    <g id="ytick_5">
     <g id="line2d_36">
      <path clip-path="url(#pe41f91f261)" d="M 72 235.2 
L 518.4 235.2 
" style="fill:none;stroke:#000000;stroke-dasharray:1.000000,3.000000;stroke-dashoffset:0.0;stroke-width:0.5;"/>
     </g>
     <g id="line2d_37">
      <g>
       <use style="stroke:#000000;stroke-width:0.5;" x="72.0" xlink:href="#mcb3df95477" y="235.2"/>
      </g>
     </g>
     <g id="line2d_38">
      <g>
       <use style="stroke:#000000;stroke-width:0.5;" x="518.4" xlink:href="#md76e38f5db" y="235.2"/>
      </g>
     </g>
     <g id="text_13">
      <!-- 0.20 -->
      <g transform="translate(41.28125 238.51125)scale(0.12 -0.12)">
       <use xlink:href="#BitstreamVeraSans-Roman-30"/>
       <use x="63.623046875" xlink:href="#BitstreamVeraSans-Roman-2e"/>
       <use x="95.41015625" xlink:href="#BitstreamVeraSans-Roman-32"/>
       <use x="159.033203125" xlink:href="#BitstreamVeraSans-Roman-30"/>
      </g>
     </g>
    </g>
    <g id="ytick_6">
     <g id="line2d_39">
      <path clip-path="url(#pe41f91f261)" d="M 72 196.8 
L 518.4 196.8 
" style="fill:none;stroke:#000000;stroke-dasharray:1.000000,3.000000;stroke-dashoffset:0.0;stroke-width:0.5;"/>
     </g>
     <g id="line2d_40">
      <g>
       <use style="stroke:#000000;stroke-width:0.5;" x="72.0" xlink:href="#mcb3df95477" y="196.8"/>
      </g>
     </g>
     <g id="line2d_41">
      <g>
       <use style="stroke:#000000;stroke-width:0.5;" x="518.4" xlink:href="#md76e38f5db" y="196.8"/>
      </g>
     </g>
     <g id="text_14">
      <!-- 0.25 -->
      <g transform="translate(41.28125 200.11125)scale(0.12 -0.12)">
       <use xlink:href="#BitstreamVeraSans-Roman-30"/>
       <use x="63.623046875" xlink:href="#BitstreamVeraSans-Roman-2e"/>
       <use x="95.41015625" xlink:href="#BitstreamVeraSans-Roman-32"/>
       <use x="159.033203125" xlink:href="#BitstreamVeraSans-Roman-35"/>
      </g>
     </g>
    </g>
    <g id="ytick_7">
     <g id="line2d_42">
      <path clip-path="url(#pe41f91f261)" d="M 72 158.4 
L 518.4 158.4 
" style="fill:none;stroke:#000000;stroke-dasharray:1.000000,3.000000;stroke-dashoffset:0.0;stroke-width:0.5;"/>
     </g>
     <g id="line2d_43">
      <g>
       <use style="stroke:#000000;stroke-width:0.5;" x="72.0" xlink:href="#mcb3df95477" y="158.4"/>
      </g>
     </g>
     <g id="line2d_44">
      <g>
       <use style="stroke:#000000;stroke-width:0.5;" x="518.4" xlink:href="#md76e38f5db" y="158.4"/>
      </g>
     </g>
     <g id="text_15">
      <!-- 0.30 -->
      <g transform="translate(41.28125 161.71125)scale(0.12 -0.12)">
       <use xlink:href="#BitstreamVeraSans-Roman-30"/>
       <use x="63.623046875" xlink:href="#BitstreamVeraSans-Roman-2e"/>
       <use x="95.41015625" xlink:href="#BitstreamVeraSans-Roman-33"/>
       <use x="159.033203125" xlink:href="#BitstreamVeraSans-Roman-30"/>
      </g>
     </g>
    </g>
    <g id="ytick_8">
     <g id="line2d_45">
      <path clip-path="url(#pe41f91f261)" d="M 72 120 
L 518.4 120 
" style="fill:none;stroke:#000000;stroke-dasharray:1.000000,3.000000;stroke-dashoffset:0.0;stroke-width:0.5;"/>
     </g>
     <g id="line2d_46">
      <g>
       <use style="stroke:#000000;stroke-width:0.5;" x="72.0" xlink:href="#mcb3df95477" y="120.0"/>
      </g>
     </g>
     <g id="line2d_47">
      <g>
       <use style="stroke:#000000;stroke-width:0.5;" x="518.4" xlink:href="#md76e38f5db" y="120.0"/>
      </g>
     </g>
     <g id="text_16">
      <!-- 0.35 -->
      <g transform="translate(41.28125 123.31125)scale(0.12 -0.12)">
       <use xlink:href="#BitstreamVeraSans-Roman-30"/>
       <use x="63.623046875" xlink:href="#BitstreamVeraSans-Roman-2e"/>
       <use x="95.41015625" xlink:href="#BitstreamVeraSans-Roman-33"/>
       <use x="159.033203125" xlink:href="#BitstreamVeraSans-Roman-35"/>
      </g>
     </g>
    </g>
    <g id="ytick_9">
     <g id="line2d_48">
      <path clip-path="url(#pe41f91f261)" d="M 72 81.6 
L 518.4 81.6 
" style="fill:none;stroke:#000000;stroke-dasharray:1.000000,3.000000;stroke-dashoffset:0.0;stroke-width:0.5;"/>
     </g>
     <g id="line2d_49">
      <g>
       <use style="stroke:#000000;stroke-width:0.5;" x="72.0" xlink:href="#mcb3df95477" y="81.6"/>
      </g>
     </g>
     <g id="line2d_50">
      <g>
       <use style="stroke:#000000;stroke-width:0.5;" x="518.4" xlink:href="#md76e38f5db" y="81.6"/>
      </g>
     </g>
     <g id="text_17">
      <!-- 0.40 -->
      <defs>
       <path d="M 37.796875 64.3125 
L 12.890625 25.390625 
L 37.796875 25.390625 
z
M 35.203125 72.90625 
L 47.609375 72.90625 
L 47.609375 25.390625 
L 58.015625 25.390625 
L 58.015625 17.1875 
L 47.609375 17.1875 
L 47.609375 0 
L 37.796875 0 
L 37.796875 17.1875 
L 4.890625 17.1875 
L 4.890625 26.703125 
z
" id="BitstreamVeraSans-Roman-34"/>
      </defs>
      <g transform="translate(41.28125 84.91125)scale(0.12 -0.12)">
       <use xlink:href="#BitstreamVeraSans-Roman-30"/>
       <use x="63.623046875" xlink:href="#BitstreamVeraSans-Roman-2e"/>
       <use x="95.41015625" xlink:href="#BitstreamVeraSans-Roman-34"/>
       <use x="159.033203125" xlink:href="#BitstreamVeraSans-Roman-30"/>
      </g>
     </g>
    </g>
    <g id="ytick_10">
     <g id="line2d_51">
      <path clip-path="url(#pe41f91f261)" d="M 72 43.2 
L 518.4 43.2 
" style="fill:none;stroke:#000000;stroke-dasharray:1.000000,3.000000;stroke-dashoffset:0.0;stroke-width:0.5;"/>
     </g>
     <g id="line2d_52">
      <g>
       <use style="stroke:#000000;stroke-width:0.5;" x="72.0" xlink:href="#mcb3df95477" y="43.2"/>
      </g>
     </g>
     <g id="line2d_53">
      <g>
       <use style="stroke:#000000;stroke-width:0.5;" x="518.4" xlink:href="#md76e38f5db" y="43.2"/>
      </g>
     </g>
     <g id="text_18">
      <!-- 0.45 -->
      <g transform="translate(41.28125 46.51125)scale(0.12 -0.12)">
       <use xlink:href="#BitstreamVeraSans-Roman-30"/>
       <use x="63.623046875" xlink:href="#BitstreamVeraSans-Roman-2e"/>
       <use x="95.41015625" xlink:href="#BitstreamVeraSans-Roman-34"/>
       <use x="159.033203125" xlink:href="#BitstreamVeraSans-Roman-35"/>
      </g>
     </g>
    </g>
    <g id="text_19">
     <!-- Pedal [] -->
     <defs>
      <path d="M 19.671875 64.796875 
L 19.671875 37.40625 
L 32.078125 37.40625 
Q 38.96875 37.40625 42.71875 40.96875 
Q 46.484375 44.53125 46.484375 51.125 
Q 46.484375 57.671875 42.71875 61.234375 
Q 38.96875 64.796875 32.078125 64.796875 
z
M 9.8125 72.90625 
L 32.078125 72.90625 
Q 44.34375 72.90625 50.609375 67.359375 
Q 56.890625 61.8125 56.890625 51.125 
Q 56.890625 40.328125 50.609375 34.8125 
Q 44.34375 29.296875 32.078125 29.296875 
L 19.671875 29.296875 
L 19.671875 0 
L 9.8125 0 
z
" id="BitstreamVeraSans-Roman-50"/>
      <path d="M 45.40625 46.390625 
L 45.40625 75.984375 
L 54.390625 75.984375 
L 54.390625 0 
L 45.40625 0 
L 45.40625 8.203125 
Q 42.578125 3.328125 38.25 0.953125 
Q 33.9375 -1.421875 27.875 -1.421875 
Q 17.96875 -1.421875 11.734375 6.484375 
Q 5.515625 14.40625 5.515625 27.296875 
Q 5.515625 40.1875 11.734375 48.09375 
Q 17.96875 56 27.875 56 
Q 33.9375 56 38.25 53.625 
Q 42.578125 51.265625 45.40625 46.390625 
M 14.796875 27.296875 
Q 14.796875 17.390625 18.875 11.75 
Q 22.953125 6.109375 30.078125 6.109375 
Q 37.203125 6.109375 41.296875 11.75 
Q 45.40625 17.390625 45.40625 27.296875 
Q 45.40625 37.203125 41.296875 42.84375 
Q 37.203125 48.484375 30.078125 48.484375 
Q 22.953125 48.484375 18.875 42.84375 
Q 14.796875 37.203125 14.796875 27.296875 
" id="BitstreamVeraSans-Roman-64"/>
      <path d="M 34.28125 27.484375 
Q 23.390625 27.484375 19.1875 25 
Q 14.984375 22.515625 14.984375 16.5 
Q 14.984375 11.71875 18.140625 8.90625 
Q 21.296875 6.109375 26.703125 6.109375 
Q 34.1875 6.109375 38.703125 11.40625 
Q 43.21875 16.703125 43.21875 25.484375 
L 43.21875 27.484375 
z
M 52.203125 31.203125 
L 52.203125 0 
L 43.21875 0 
L 43.21875 8.296875 
Q 40.140625 3.328125 35.546875 0.953125 
Q 30.953125 -1.421875 24.3125 -1.421875 
Q 15.921875 -1.421875 10.953125 3.296875 
Q 6 8.015625 6 15.921875 
Q 6 25.140625 12.171875 29.828125 
Q 18.359375 34.515625 30.609375 34.515625 
L 43.21875 34.515625 
L 43.21875 35.40625 
Q 43.21875 41.609375 39.140625 45 
Q 35.0625 48.390625 27.6875 48.390625 
Q 23 48.390625 18.546875 47.265625 
Q 14.109375 46.140625 10.015625 43.890625 
L 10.015625 52.203125 
Q 14.9375 54.109375 19.578125 55.046875 
Q 24.21875 56 28.609375 56 
Q 40.484375 56 46.34375 49.84375 
Q 52.203125 43.703125 52.203125 31.203125 
" id="BitstreamVeraSans-Roman-61"/>
      <path d="M 9.421875 75.984375 
L 18.40625 75.984375 
L 18.40625 0 
L 9.421875 0 
z
" id="BitstreamVeraSans-Roman-6c"/>
     </defs>
     <g transform="translate(33.785625 239.0484375)rotate(-90.0)scale(0.12 -0.12)">
      <use xlink:href="#BitstreamVeraSans-Roman-50"/>
      <use x="60.255859375" xlink:href="#BitstreamVeraSans-Roman-65"/>
      <use x="121.779296875" xlink:href="#BitstreamVeraSans-Roman-64"/>
      <use x="185.255859375" xlink:href="#BitstreamVeraSans-Roman-61"/>
      <use x="246.53515625" xlink:href="#BitstreamVeraSans-Roman-6c"/>
      <use x="274.318359375" xlink:href="#BitstreamVeraSans-Roman-20"/>
      <use x="306.10546875" xlink:href="#BitstreamVeraSans-Roman-5b"/>
      <use x="345.119140625" xlink:href="#BitstreamVeraSans-Roman-5d"/>
     </g>
    </g>
   </g>
   <g id="legend_1">
    <g id="patch_7">
     <path d="M 372.99825 96.993 
L 511.2 96.993 
L 511.2 50.4 
L 372.99825 50.4 
z
" style="fill:#ffffff;stroke:#000000;stroke-linejoin:miter;"/>
    </g>
    <g id="line2d_54">
     <path d="M 383.07825 62.06175 
L 403.23825 62.06175 
" style="fill:none;stroke:#008000;stroke-linecap:square;"/>
    </g>
    <g id="line2d_55"/>
    <g id="text_20">
     <!-- Gas pedal -->
     <defs>
      <path d="M 59.515625 10.40625 
L 59.515625 29.984375 
L 43.40625 29.984375 
L 43.40625 38.09375 
L 69.28125 38.09375 
L 69.28125 6.78125 
Q 63.578125 2.734375 56.6875 0.65625 
Q 49.8125 -1.421875 42 -1.421875 
Q 24.90625 -1.421875 15.25 8.5625 
Q 5.609375 18.5625 5.609375 36.375 
Q 5.609375 54.25 15.25 64.234375 
Q 24.90625 74.21875 42 74.21875 
Q 49.125 74.21875 55.546875 72.453125 
Q 61.96875 70.703125 67.390625 67.28125 
L 67.390625 56.78125 
Q 61.921875 61.421875 55.765625 63.765625 
Q 49.609375 66.109375 42.828125 66.109375 
Q 29.4375 66.109375 22.71875 58.640625 
Q 16.015625 51.171875 16.015625 36.375 
Q 16.015625 21.625 22.71875 14.15625 
Q 29.4375 6.6875 42.828125 6.6875 
Q 48.046875 6.6875 52.140625 7.59375 
Q 56.25 8.5 59.515625 10.40625 
" id="BitstreamVeraSans-Roman-47"/>
      <path d="M 18.109375 8.203125 
L 18.109375 -20.796875 
L 9.078125 -20.796875 
L 9.078125 54.6875 
L 18.109375 54.6875 
L 18.109375 46.390625 
Q 20.953125 51.265625 25.265625 53.625 
Q 29.59375 56 35.59375 56 
Q 45.5625 56 51.78125 48.09375 
Q 58.015625 40.1875 58.015625 27.296875 
Q 58.015625 14.40625 51.78125 6.484375 
Q 45.5625 -1.421875 35.59375 -1.421875 
Q 29.59375 -1.421875 25.265625 0.953125 
Q 20.953125 3.328125 18.109375 8.203125 
M 48.6875 27.296875 
Q 48.6875 37.203125 44.609375 42.84375 
Q 40.53125 48.484375 33.40625 48.484375 
Q 26.265625 48.484375 22.1875 42.84375 
Q 18.109375 37.203125 18.109375 27.296875 
Q 18.109375 17.390625 22.1875 11.75 
Q 26.265625 6.109375 33.40625 6.109375 
Q 40.53125 6.109375 44.609375 11.75 
Q 48.6875 17.390625 48.6875 27.296875 
" id="BitstreamVeraSans-Roman-70"/>
     </defs>
     <g transform="translate(419.07825 67.10175)scale(0.144 -0.144)">
      <use xlink:href="#BitstreamVeraSans-Roman-47"/>
      <use x="77.490234375" xlink:href="#BitstreamVeraSans-Roman-61"/>
      <use x="138.76953125" xlink:href="#BitstreamVeraSans-Roman-73"/>
      <use x="190.869140625" xlink:href="#BitstreamVeraSans-Roman-20"/>
      <use x="222.65625" xlink:href="#BitstreamVeraSans-Roman-70"/>
      <use x="286.1328125" xlink:href="#BitstreamVeraSans-Roman-65"/>
      <use x="347.65625" xlink:href="#BitstreamVeraSans-Roman-64"/>
      <use x="411.1328125" xlink:href="#BitstreamVeraSans-Roman-61"/>
      <use x="472.412109375" xlink:href="#BitstreamVeraSans-Roman-6c"/>
     </g>
    </g>
    <g id="line2d_56">
     <path d="M 383.07825 83.19825 
L 403.23825 83.19825 
" style="fill:none;stroke:#ff0000;stroke-linecap:square;"/>
    </g>
    <g id="line2d_57"/>
    <g id="text_21">
     <!-- Brake pedal -->
     <defs>
      <path d="M 41.109375 46.296875 
Q 39.59375 47.171875 37.8125 47.578125 
Q 36.03125 48 33.890625 48 
Q 26.265625 48 22.1875 43.046875 
Q 18.109375 38.09375 18.109375 28.8125 
L 18.109375 0 
L 9.078125 0 
L 9.078125 54.6875 
L 18.109375 54.6875 
L 18.109375 46.1875 
Q 20.953125 51.171875 25.484375 53.578125 
Q 30.03125 56 36.53125 56 
Q 37.453125 56 38.578125 55.875 
Q 39.703125 55.765625 41.0625 55.515625 
z
" id="BitstreamVeraSans-Roman-72"/>
      <path d="M 19.671875 34.8125 
L 19.671875 8.109375 
L 35.5 8.109375 
Q 43.453125 8.109375 47.28125 11.40625 
Q 51.125 14.703125 51.125 21.484375 
Q 51.125 28.328125 47.28125 31.5625 
Q 43.453125 34.8125 35.5 34.8125 
z
M 19.671875 64.796875 
L 19.671875 42.828125 
L 34.28125 42.828125 
Q 41.5 42.828125 45.03125 45.53125 
Q 48.578125 48.25 48.578125 53.8125 
Q 48.578125 59.328125 45.03125 62.0625 
Q 41.5 64.796875 34.28125 64.796875 
z
M 9.8125 72.90625 
L 35.015625 72.90625 
Q 46.296875 72.90625 52.390625 68.21875 
Q 58.5 63.53125 58.5 54.890625 
Q 58.5 48.1875 55.375 44.234375 
Q 52.25 40.28125 46.1875 39.3125 
Q 53.46875 37.75 57.5 32.78125 
Q 61.53125 27.828125 61.53125 20.40625 
Q 61.53125 10.640625 54.890625 5.3125 
Q 48.25 0 35.984375 0 
L 9.8125 0 
z
" id="BitstreamVeraSans-Roman-42"/>
      <path d="M 9.078125 75.984375 
L 18.109375 75.984375 
L 18.109375 31.109375 
L 44.921875 54.6875 
L 56.390625 54.6875 
L 27.390625 29.109375 
L 57.625 0 
L 45.90625 0 
L 18.109375 26.703125 
L 18.109375 0 
L 9.078125 0 
z
" id="BitstreamVeraSans-Roman-6b"/>
     </defs>
     <g transform="translate(419.07825 88.23825)scale(0.144 -0.144)">
      <use xlink:href="#BitstreamVeraSans-Roman-42"/>
      <use x="68.603515625" xlink:href="#BitstreamVeraSans-Roman-72"/>
      <use x="109.716796875" xlink:href="#BitstreamVeraSans-Roman-61"/>
      <use x="170.99609375" xlink:href="#BitstreamVeraSans-Roman-6b"/>
      <use x="228.859375" xlink:href="#BitstreamVeraSans-Roman-65"/>
      <use x="290.3828125" xlink:href="#BitstreamVeraSans-Roman-20"/>
      <use x="322.169921875" xlink:href="#BitstreamVeraSans-Roman-70"/>
      <use x="385.646484375" xlink:href="#BitstreamVeraSans-Roman-65"/>
      <use x="447.169921875" xlink:href="#BitstreamVeraSans-Roman-64"/>
      <use x="510.646484375" xlink:href="#BitstreamVeraSans-Roman-61"/>
      <use x="571.92578125" xlink:href="#BitstreamVeraSans-Roman-6c"/>
     </g>
    </g>
   </g>
  </g>
 </g>
 <defs>
  <clipPath id="pe41f91f261">
   <rect height="345.6" width="446.4" x="72.0" y="43.2"/>
  </clipPath>
 </defs>
</svg>
