<?xml version="1.0" encoding="utf-8" standalone="no"?>
<!DOCTYPE svg PUBLIC "-//W3C//DTD SVG 1.1//EN"
  "http://www.w3.org/Graphics/SVG/1.1/DTD/svg11.dtd">
<!-- Created with matplotlib (http://matplotlib.org/) -->
<svg height="432pt" version="1.1" viewBox="0 0 576 432" width="576pt" xmlns="http://www.w3.org/2000/svg" xmlns:xlink="http://www.w3.org/1999/xlink">
 <defs>
  <style type="text/css">
*{stroke-linecap:butt;stroke-linejoin:round;stroke-miterlimit:100000;}
  </style>
 </defs>
 <g id="figure_1">
  <g id="patch_1">
   <path d="M 0 432 
L 576 432 
L 576 0 
L 0 0 
z
" style="fill:#ffffff;"/>
  </g>
  <g id="axes_1">
   <g id="patch_2">
    <path d="M 72 388.8 
L 518.4 388.8 
L 518.4 43.2 
L 72 43.2 
z
" style="fill:#ffffff;"/>
   </g>
   <g id="line2d_1">
    <path clip-path="url(#p14086a2791)" d="M 72.1488 188.731521 
L 91.7904 188.731521 
L 91.9392 192.384952 
L 92.088 192.384952 
L 93.1296 202.408568 
L 93.2784 202.408568 
L 93.8736 208.712896 
L 94.0224 208.712896 
L 94.4688 213.153884 
L 94.6176 213.153884 
L 95.808 221.966973 
L 95.9568 221.966973 
L 96.4032 225.251552 
L 96.552 225.251552 
L 97.5936 232.24365 
L 97.7424 232.24365 
L 98.1888 235.940651 
L 98.3376 237.042942 
L 98.4864 237.042942 
L 99.8256 246.696761 
L 99.9744 246.696761 
L 101.1648 256.383207 
L 101.76 261.641659 
L 102.8016 270.28839 
L 103.3968 275.566558 
L 105.48 290.584437 
L 108.1584 303.486599 
L 108.3072 303.83336 
L 109.2 307.862265 
L 109.3488 308.205435 
L 110.0928 311.500186 
L 110.2416 311.842982 
L 110.688 313.662376 
L 110.8368 314.004377 
L 110.9856 315.085307 
L 111.1344 315.085307 
L 111.5808 316.894917 
L 111.7296 317.237573 
L 112.176 319.048684 
L 112.3248 319.389588 
L 112.7712 321.196609 
L 113.0688 321.875505 
L 113.3664 322.948335 
L 113.5152 323.285723 
L 113.9616 325.088932 
L 114.408 326.100258 
L 114.7056 327.163759 
L 114.8544 327.498926 
L 115.152 328.562927 
L 115.5984 329.564321 
L 115.896 330.62076 
L 116.3424 331.6149 
L 116.64 332.671353 
L 117.384 334.316168 
L 117.6816 335.363749 
L 120.6576 341.806333 
L 120.8064 341.728158 
L 121.848 343.927567 
L 121.9968 343.839667 
L 122.7408 345.388209 
L 123.0384 345.299911 
L 123.336 347.720101 
L 123.4848 347.630053 
L 123.9312 348.540471 
L 124.08 348.442359 
L 124.5264 349.34726 
L 124.6752 349.247073 
L 124.9728 349.839982 
L 125.2704 349.737706 
L 125.4192 350.035352 
L 125.568 348.734238 
L 125.7168 349.026366 
L 125.8656 348.922413 
L 126.1632 349.506552 
L 126.312 349.399097 
L 126.6096 349.973716 
L 126.7584 349.863362 
L 126.9072 350.152563 
L 127.056 350.037721 
L 127.3536 350.606985 
L 127.5024 350.489274 
L 127.6512 350.770882 
L 127.8 350.654746 
L 127.9488 350.938046 
L 128.0976 350.818158 
L 128.2464 351.097573 
L 128.3952 350.979289 
L 128.544 351.260706 
L 128.6928 351.137948 
L 128.9904 351.694984 
L 129.288 351.442819 
L 129.4368 351.717717 
L 129.5856 351.588338 
L 129.7344 351.859176 
L 129.8832 351.726045 
L 130.032 351.993263 
L 130.1808 351.861721 
L 130.3296 352.130367 
L 130.4784 351.994352 
L 130.6272 352.258921 
L 130.776 352.124408 
L 130.9248 352.39114 
L 131.2224 352.114696 
L 131.3712 352.372924 
L 131.52 351.472923 
L 131.6688 351.733226 
L 131.8176 351.587411 
L 131.9664 350.787729 
L 132.1152 351.043883 
L 132.264 350.894213 
L 132.5616 350.239448 
L 132.7104 350.091147 
L 132.8592 350.340826 
L 133.008 349.657501 
L 133.1568 349.553489 
L 133.3056 348.63848 
L 133.4544 348.48319 
L 133.6032 348.730015 
L 133.752 348.456485 
L 133.9008 347.537076 
L 134.0496 347.780693 
L 134.1984 347.622961 
L 134.3472 347.863311 
L 134.496 347.507016 
L 134.6448 346.738571 
L 134.7936 346.974963 
L 134.9424 346.048316 
L 135.0912 345.8828 
L 135.24 346.116544 
L 135.5376 345.370052 
L 135.8352 344.665525 
L 136.1328 344.467697 
L 136.2816 344.966746 
L 136.4304 344.966746 
L 136.5792 342.817129 
L 136.8768 342.457817 
L 137.0256 342.677671 
L 137.1744 342.494278 
L 137.3232 341.542793 
L 137.472 341.604326 
L 137.6208 341.416975 
L 138.216 338.291536 
L 138.5136 337.540734 
L 138.6624 337.34582 
L 138.8112 337.551504 
L 139.1088 337.053132 
L 139.2576 337.260494 
L 139.4064 336.292398 
L 139.5552 336.089714 
L 139.704 336.293398 
L 139.8528 335.320608 
L 140.0016 335.113996 
L 140.1504 335.314001 
L 140.2992 335.103667 
L 140.5968 333.542235 
L 140.7456 333.734471 
L 141.0432 333.30855 
L 141.3408 332.51234 
L 141.4896 332.290147 
L 141.7872 331.485536 
L 141.936 331.264622 
L 142.0848 331.446132 
L 142.3824 330.246072 
L 142.68 329.425996 
L 142.9776 328.963761 
L 143.424 326.965137 
L 143.5728 327.1362 
L 144.0192 326.314094 
L 144.168 325.753939 
L 144.3168 324.737802 
L 144.4656 324.493022 
L 144.6144 324.656625 
L 144.7632 324.407314 
L 144.912 323.722032 
L 145.0608 323.882472 
L 145.3584 323.381937 
L 145.5072 323.538271 
L 145.656 323.231532 
L 145.9536 321.946514 
L 146.1024 322.099862 
L 146.2512 321.839486 
L 146.4 321.258245 
L 146.5488 321.166504 
L 146.8464 320.638234 
L 146.9952 320.784268 
L 147.144 320.51605 
L 147.5904 318.116224 
L 147.888 317.572636 
L 148.0368 317.70665 
L 148.1856 317.266029 
L 148.3344 316.339749 
L 148.4832 317.701735 
L 148.632 317.422305 
L 148.7808 317.422305 
L 148.9296 315.495175 
L 149.0784 315.622494 
L 149.376 314.267799 
L 149.6736 313.896893 
L 149.8224 313.896893 
L 149.9712 311.958978 
L 150.12 312.072819 
L 150.4176 311.479094 
L 150.5664 310.879637 
L 150.7152 310.990543 
L 151.1616 309.415633 
L 151.608 308.497586 
L 151.7568 308.60098 
L 151.9056 308.287354 
L 152.0544 307.194904 
L 152.2032 307.294355 
L 152.6496 306.34646 
L 152.7984 305.734497 
L 153.096 304.310735 
L 153.2448 304.40291 
L 153.6912 303.426772 
L 153.84 303.515703 
L 154.1376 302.80732 
L 154.2864 302.887018 
L 154.4352 301.771003 
L 154.584 299.780082 
L 154.7328 301.103878 
L 154.8816 300.557906 
L 155.0304 301.540665 
L 155.1792 300.078736 
L 155.328 300.611325 
L 155.7744 298.081068 
L 155.9232 298.150216 
L 156.072 298.709577 
L 156.3696 297.224178 
L 156.5184 297.224178 
L 156.6672 295.627904 
L 156.9648 294.917697 
L 157.2624 293.827042 
L 157.4112 293.827042 
L 157.56 291.798931 
L 157.7088 291.851378 
L 157.8576 291.487653 
L 158.0064 290.604602 
L 158.1552 290.604602 
L 158.304 288.986639 
L 158.7504 287.868911 
L 158.8992 287.907968 
L 159.3456 286.772458 
L 159.4944 286.808227 
L 159.792 286.041342 
L 159.9408 286.073073 
L 160.3872 284.907619 
L 160.536 284.936311 
L 160.8336 283.899295 
L 160.9824 283.505531 
L 161.1312 283.524416 
L 161.4288 282.728361 
L 161.5776 281.852741 
L 161.7264 281.86819 
L 162.024 281.058164 
L 162.1728 281.069634 
L 162.3216 280.66326 
L 162.6192 279.207547 
L 162.768 279.215529 
L 163.3632 277.459397 
L 163.512 276.6192 
L 163.6608 277.872767 
L 163.8096 277.872767 
L 163.9584 275.741248 
L 164.256 274.887102 
L 164.4048 274.878127 
L 164.5536 274.449057 
L 164.8512 273.045813 
L 165 273.033071 
L 165.2976 272.156399 
L 165.4464 272.139346 
L 165.744 271.063213 
L 165.8928 271.0424 
L 166.1904 269.351589 
L 166.3392 268.905054 
L 166.488 268.880129 
L 166.7856 267.977332 
L 166.9344 267.94839 
L 167.232 267.03703 
L 167.3808 267.003468 
L 167.5296 266.083544 
L 167.8272 266.045936 
L 168.1248 265.116868 
L 168.2736 265.075227 
L 168.5712 263.481808 
L 168.72 263.436048 
L 169.0176 262.438663 
L 169.1664 263.652002 
L 169.3152 262.37376 
L 169.464 262.319371 
L 169.6128 261.841966 
L 169.7616 260.725914 
L 169.9104 260.666831 
L 170.0592 259.161076 
L 170.208 259.097902 
L 170.3568 258.611698 
L 170.5056 257.611496 
L 170.6544 258.815095 
L 170.8032 258.748066 
L 170.952 258.257419 
L 171.1008 258.185799 
L 171.3984 257.013725 
L 171.5472 256.937463 
L 171.8448 255.93871 
L 171.9936 255.86392 
L 172.1424 255.359735 
L 172.2912 255.280435 
L 172.5888 254.267932 
L 172.7376 254.183938 
L 174.0768 249.910383 
L 174.2256 249.814022 
L 174.3744 249.292413 
L 174.5232 249.19145 
L 174.672 248.664846 
L 174.8208 248.559992 
L 175.1184 247.497756 
L 175.2672 247.393141 
L 175.416 246.857517 
L 175.5648 246.748355 
L 175.7136 246.213216 
L 175.8624 246.099765 
L 176.16 245.020267 
L 176.3088 244.902641 
L 176.4576 244.226146 
L 176.6064 244.109028 
L 177.0528 242.809462 
L 177.2016 242.688654 
L 177.4992 241.530587 
L 177.648 241.405214 
L 177.9456 239.878087 
L 178.0944 239.743095 
L 178.2432 239.18088 
L 178.392 240.330906 
L 178.5408 238.479622 
L 178.6896 239.625881 
L 178.8384 239.487369 
L 179.2848 238.207541 
L 179.4336 238.065141 
L 179.7312 235.95808 
L 179.88 235.811902 
L 180.0288 234.725697 
L 180.1776 234.574406 
L 180.624 233.191534 
L 180.7728 233.03606 
L 181.2192 231.698091 
L 181.368 231.539247 
L 181.6656 230.781423 
L 181.8144 230.61843 
L 182.2608 229.254101 
L 182.4096 230.372452 
L 182.7072 228.781647 
L 182.856 228.609808 
L 183.3024 227.219086 
L 183.6 226.862662 
L 184.0464 225.455442 
L 184.1952 225.270357 
L 184.6416 223.656915 
L 184.7904 223.468243 
L 185.088 222.650426 
L 185.2368 222.457929 
L 185.3856 223.556309 
L 185.5344 221.631269 
L 185.6832 223.830034 
L 185.832 222.17954 
L 185.9808 222.275422 
L 186.1296 223.152801 
L 186.2784 221.498414 
L 186.4272 222.590298 
L 187.0224 218.936024 
L 187.1712 220.025052 
L 187.32 219.815647 
L 187.7664 218.3098 
L 188.064 217.874605 
L 188.3616 217.002349 
L 188.5104 216.78033 
L 188.808 215.621369 
L 188.9568 215.395558 
L 189.2544 214.510308 
L 189.4032 214.280016 
L 189.7008 213.385994 
L 189.8496 213.151669 
L 189.9984 212.2492 
L 190.1472 212.2492 
L 190.296 212.015044 
L 190.5936 211.103853 
L 190.7424 210.865965 
L 190.8912 210.865965 
L 191.04 208.884345 
L 191.3376 208.400142 
L 191.4864 208.400142 
L 192.0816 205.228961 
L 192.3792 204.72323 
L 192.528 204.032542 
L 192.6768 204.032542 
L 192.8256 202.470405 
L 192.9744 202.210933 
L 193.272 201.256402 
L 193.4208 201.256402 
L 193.5696 199.684457 
L 193.7184 199.421022 
L 194.016 198.453862 
L 194.3136 197.918966 
L 194.4624 197.918966 
L 194.76 195.628421 
L 194.9088 195.357162 
L 195.0576 195.357162 
L 195.2064 193.770145 
L 195.504 193.214747 
L 195.6528 193.214747 
L 195.8016 191.185166 
L 195.9504 191.185166 
L 196.0992 189.587895 
L 196.5456 188.73595 
L 196.6944 188.73595 
L 196.8432 188.44785 
L 196.992 186.845754 
L 197.1408 186.845754 
L 197.2896 187.283434 
L 197.4384 186.991634 
L 197.5872 185.96466 
L 198.0336 188.431131 
L 198.1824 187.840028 
L 198.3312 188.856161 
L 198.48 188.556455 
L 198.6288 187.957499 
L 198.7776 189.992532 
L 198.9264 189.390298 
L 199.0752 189.390298 
L 199.224 190.100571 
L 199.5216 189.490701 
L 199.6704 190.500904 
L 199.968 189.581177 
L 200.1168 189.270345 
L 200.2656 189.966905 
L 201.0096 188.402241 
L 201.1584 189.40261 
L 201.3072 187.765135 
L 201.6048 187.128868 
L 201.7536 187.128868 
L 201.9024 186.806247 
L 202.0512 185.164029 
L 202.7952 183.532461 
L 202.944 184.193739 
L 203.5392 182.865588 
L 203.688 183.520646 
L 203.9856 182.849308 
L 204.1344 182.849308 
L 204.2832 180.851117 
L 204.432 180.851117 
L 205.6224 178.094375 
L 205.7712 178.094375 
L 205.92 176.419192 
L 206.8128 174.299659 
L 207.1104 174.385531 
L 207.2592 172.700747 
L 207.7056 171.618306 
L 207.8544 171.618306 
L 208.0032 169.92444 
L 208.3008 169.194958 
L 208.5984 169.273443 
L 208.7472 168.167494 
L 208.896 168.167494 
L 209.1936 167.501817 
L 209.3424 168.460541 
L 209.9376 166.968657 
L 210.0864 166.968657 
L 210.384 165.329233 
L 210.5328 164.949394 
L 210.6816 164.949394 
L 210.8304 163.236935 
L 210.9792 163.301744 
L 211.4256 162.151637 
L 211.5744 162.151637 
L 211.872 160.488047 
L 212.1696 159.713723 
L 212.4672 159.768245 
L 212.616 158.041922 
L 212.7648 157.65116 
L 212.9136 157.701753 
L 213.2112 156.912507 
L 213.36 156.963921 
L 213.6576 156.215428 
L 213.8064 157.154653 
L 213.9552 156.756666 
L 214.104 155.953765 
L 214.2528 155.953765 
L 214.4016 156.934431 
L 214.5504 156.533236 
L 214.6992 156.533236 
L 214.9968 154.831368 
L 215.1456 154.467671 
L 215.2944 155.39795 
L 215.592 155.39795 
L 215.7408 153.650715 
L 215.8896 153.68874 
L 216.1872 152.865056 
L 216.336 151.559733 
L 216.4848 151.559733 
L 216.7824 150.790633 
L 216.9312 151.300791 
L 217.08 151.300791 
L 217.2288 150.913531 
L 217.3776 151.836014 
L 217.6752 150.104049 
L 217.824 150.104049 
L 217.9728 149.68146 
L 218.1216 149.706643 
L 218.2704 149.284371 
L 218.4192 149.309601 
L 218.568 148.883927 
L 218.8656 147.13674 
L 219.1632 147.159053 
L 219.312 146.729833 
L 219.4608 146.74832 
L 219.6096 146.319339 
L 219.7584 144.993873 
L 220.056 145.009134 
L 220.3536 144.159793 
L 220.6512 144.172443 
L 220.8 143.736303 
L 220.9488 143.749075 
L 221.2464 142.883026 
L 221.3952 142.892634 
L 221.544 142.453485 
L 221.8416 142.463156 
L 221.9904 142.020704 
L 222.1392 142.026983 
L 222.288 141.584534 
L 222.4368 141.591122 
L 222.5856 141.145396 
L 222.7344 141.145396 
L 222.8832 139.69636 
L 223.032 139.699619 
L 223.3296 139.05633 
L 223.4784 138.715837 
L 223.6272 138.715837 
L 223.9248 136.918428 
L 224.3712 135.038111 
L 224.52 135.038111 
L 224.6688 133.685608 
L 224.9664 133.606282 
L 225.1152 133.150547 
L 225.264 133.145195 
L 225.8592 129.906908 
L 226.008 129.906908 
L 226.3056 129.165751 
L 226.4544 128.703464 
L 226.6032 128.691803 
L 227.0496 127.491155 
L 227.3472 127.462352 
L 227.496 126.153417 
L 227.9424 126.101492 
L 228.0912 125.632599 
L 228.24 124.772561 
L 228.5376 124.73212 
L 228.984 123.08253 
L 229.1328 122.219895 
L 229.2816 122.196654 
L 229.728 120.738587 
L 229.8768 119.872987 
L 230.3232 119.712901 
L 230.6208 117.524189 
L 231.0672 117.367038 
L 231.216 116.914639 
L 231.6624 114.689157 
L 231.8112 114.65778 
L 231.96 114.340248 
L 232.2576 112.59404 
L 232.704 112.442656 
L 232.8528 111.990978 
L 233.1504 110.239775 
L 233.448 110.165411 
L 233.5968 109.864337 
L 234.0432 107.230075 
L 234.4896 107.047808 
L 234.936 104.860582 
L 235.3824 104.679866 
L 235.9776 101.1484 
L 236.1264 101.088647 
L 236.2752 101.483934 
L 237.0192 97.717906 
L 237.168 98.113775 
L 237.6144 96.257139 
L 237.7632 96.260354 
L 238.0608 95.355306 
L 238.2096 95.29726 
L 238.656 93.893149 
L 238.8048 93.211722 
L 238.9536 93.214819 
L 239.6976 91.298048 
L 239.8464 91.071948 
L 240.5904 89.152676 
L 240.7392 88.926391 
L 241.3344 86.899804 
L 241.4832 87.299807 
L 241.632 86.778768 
L 241.7808 86.783175 
L 242.0784 85.64837 
L 242.2272 85.421799 
L 242.5248 84.082885 
L 242.6736 84.027583 
L 242.8224 84.407362 
L 242.9712 83.724838 
L 243.12 83.72912 
L 243.2688 83.045832 
L 243.4176 83.050084 
L 243.5664 82.82391 
L 243.7152 82.838389 
L 243.864 82.395922 
L 244.0128 83.254761 
L 244.1616 82.943409 
L 244.3104 83.174166 
L 244.4592 82.731706 
L 244.608 82.94797 
L 244.7568 82.505797 
L 244.9056 82.722385 
L 245.0544 82.279874 
L 245.352 82.89851 
L 245.6496 84.160412 
L 245.7984 84.767667 
L 245.9472 84.325214 
L 246.096 84.541493 
L 246.2448 84.099328 
L 246.3936 84.113865 
L 246.5424 83.858881 
L 246.6912 83.873419 
L 247.1376 85.99608 
L 247.2864 86.131918 
L 247.7328 83.287411 
L 247.8816 83.518587 
L 248.0304 83.061429 
L 248.4768 85.642345 
L 248.7744 85.804683 
L 248.9232 85.818102 
L 249.072 85.374428 
L 249.3696 85.579414 
L 249.816 87.704062 
L 249.9648 88.06525 
L 250.1136 87.621973 
L 250.2624 87.840378 
L 250.4112 87.853827 
L 250.56 87.410212 
L 251.0064 89.992813 
L 251.304 90.128615 
L 251.4528 90.1421 
L 251.6016 89.698573 
L 251.8992 89.903802 
L 252.048 89.460555 
L 252.1968 89.665482 
L 252.4944 91.387898 
L 252.6432 90.943165 
L 252.9408 90.979957 
L 253.0896 90.535239 
L 253.3872 90.559767 
L 253.6848 91.812708 
L 254.1312 91.849581 
L 254.4288 92.05765 
L 254.5776 91.613027 
L 255.024 91.637614 
L 255.6192 94.546656 
L 255.768 94.10246 
L 256.2144 94.139421 
L 256.6608 94.739863 
L 256.8096 96.463626 
L 256.9584 96.463626 
L 257.1072 96.824607 
L 257.256 96.824607 
L 257.4048 96.392646 
L 257.8512 96.417343 
L 258 98.141334 
L 258.1488 98.546523 
L 258.2976 98.546523 
L 258.4464 98.870352 
L 258.5952 98.882734 
L 258.744 99.103574 
L 258.8928 99.116059 
L 259.0416 98.684311 
L 259.1904 98.696685 
L 259.3392 99.558908 
L 259.488 99.558908 
L 259.7856 100.826674 
L 259.9344 101.150305 
L 260.232 101.17512 
L 260.3808 101.38385 
L 260.5296 100.952014 
L 260.6784 100.952014 
L 260.976 103.539353 
L 261.5712 103.454028 
L 261.72 103.008853 
L 262.7616 103.100145 
L 262.9104 103.300275 
L 263.0592 102.85488 
L 263.3568 102.877393 
L 263.5056 103.077427 
L 263.6544 103.088786 
L 264.1008 105.677479 
L 264.2496 105.804231 
L 264.3984 105.358836 
L 264.8448 105.392685 
L 265.1424 105.593176 
L 265.2912 105.147862 
L 265.8864 108.08667 
L 266.3328 108.120924 
L 266.4816 107.675926 
L 266.928 107.709856 
L 267.3744 110.299565 
L 267.5232 110.135542 
L 267.9696 110.16956 
L 268.1184 110.370125 
L 268.2672 109.924899 
L 268.416 109.936236 
L 269.0112 112.876457 
L 269.16 112.431452 
L 269.6064 112.465544 
L 269.7552 112.65458 
L 269.904 113.062079 
L 270.2016 114.789454 
L 270.3504 114.927234 
L 270.4992 114.705739 
L 270.9456 114.739912 
L 271.0944 114.293789 
L 272.136 114.370117 
L 272.2848 114.564361 
L 272.4336 114.57472 
L 272.5824 114.128575 
L 273.0288 114.149078 
L 273.624 117.071187 
L 273.9216 117.09194 
L 274.0704 116.646222 
L 274.5168 116.677062 
L 274.6656 116.850369 
L 275.112 118.986788 
L 275.4096 119.132815 
L 275.5584 119.143115 
L 275.7072 119.358113 
L 275.856 118.912063 
L 276.1536 118.93267 
L 276.6 121.526101 
L 276.8976 121.420441 
L 277.0464 121.43077 
L 277.1952 121.646055 
L 277.344 121.200395 
L 277.6416 121.221054 
L 277.7904 121.426017 
L 277.9392 121.83451 
L 278.3856 123.935314 
L 278.5344 123.945769 
L 278.6832 123.499881 
L 278.9808 123.52059 
L 279.1296 123.258772 
L 279.4272 123.279475 
L 279.7248 125.009564 
L 279.8736 124.562587 
L 280.32 124.59047 
L 280.4688 124.143773 
L 281.064 124.181006 
L 281.2128 124.59008 
L 281.3616 125.381897 
L 281.5104 125.391182 
L 281.6592 125.618849 
L 281.808 125.628229 
L 281.9568 125.181245 
L 282.2544 125.199814 
L 282.4032 125.399223 
L 282.7008 125.417983 
L 282.8496 125.8273 
L 283.296 127.909417 
L 283.5936 127.928222 
L 283.7424 127.481635 
L 284.1888 127.509554 
L 284.3376 127.243256 
L 284.4864 127.243256 
L 285.0816 130.20131 
L 285.2304 129.754584 
L 285.528 129.782569 
L 285.6768 129.525975 
L 286.272 129.55396 
L 286.4208 129.96384 
L 286.8672 132.038115 
L 287.016 132.275446 
L 287.1648 131.829087 
L 287.4624 131.847788 
L 287.6112 131.400984 
L 287.76 131.600518 
L 288.0576 131.61709 
L 288.2064 131.423706 
L 288.6528 131.448627 
L 288.8016 131.661378 
L 288.9504 131.213578 
L 289.3968 131.238496 
L 289.5456 131.44286 
L 289.6944 131.451258 
L 290.1408 133.595401 
L 290.736 133.963707 
L 290.8848 133.51598 
L 291.3312 133.54096 
L 291.48 133.736845 
L 291.6288 134.14756 
L 291.7776 135.881486 
L 292.0752 136.249887 
L 292.224 135.802241 
L 292.8192 135.827284 
L 292.968 135.575721 
L 293.4144 135.600761 
L 293.8608 137.746677 
L 294.0096 138.090095 
L 294.1584 138.098463 
L 294.3072 137.872094 
L 294.6048 137.888828 
L 294.7536 137.441104 
L 294.9024 137.654076 
L 295.0512 137.662441 
L 295.2 138.082252 
L 295.4976 139.817535 
L 295.6464 139.817535 
L 295.7952 140.169159 
L 295.944 139.720902 
L 296.0928 139.728274 
L 296.2416 139.286951 
L 296.5392 139.294326 
L 296.688 138.852963 
L 296.8368 138.860334 
L 296.9856 139.547283 
L 297.1344 139.547283 
L 297.2832 139.786338 
L 297.432 139.33771 
L 298.0272 139.367281 
L 298.176 139.568982 
L 298.3248 139.127718 
L 298.6224 139.142501 
L 298.7712 139.351607 
L 299.2176 141.500566 
L 299.5152 141.62862 
L 299.664 141.411312 
L 300.1104 141.433544 
L 300.2592 141.650095 
L 300.408 141.201485 
L 300.8544 141.216306 
L 301.3008 143.821945 
L 301.5984 143.7179 
L 301.7472 143.725331 
L 301.896 143.277015 
L 302.0448 143.493853 
L 302.3424 143.50871 
L 302.4912 143.157336 
L 302.7888 143.284331 
L 303.0864 144.572549 
L 303.5328 144.592097 
L 303.6816 144.149078 
L 304.128 144.168625 
L 304.2768 143.719393 
L 304.7232 143.73886 
L 304.872 144.608083 
L 305.0208 144.608083 
L 305.1696 145.622414 
L 305.3184 145.179432 
L 305.616 145.192443 
L 305.7648 144.950044 
L 306.2112 144.963051 
L 306.36 145.189857 
L 306.6576 145.20303 
L 306.8064 145.616389 
L 307.104 147.35552 
L 307.4016 147.707342 
L 307.5504 147.257901 
L 308.1456 147.283985 
L 308.2944 147.035689 
L 308.7408 147.055251 
L 308.8896 147.275532 
L 309.336 149.428993 
L 309.6336 149.560413 
L 309.7824 149.338032 
L 310.2288 149.357642 
L 310.3776 148.908127 
L 310.5264 149.122166 
L 310.824 149.135239 
L 310.9728 148.906601 
L 311.1216 149.776843 
L 311.4192 149.788147 
L 311.568 149.343454 
L 312.1632 149.366213 
L 312.312 148.921565 
L 313.2048 148.961347 
L 313.5024 151.01251 
L 313.8 151.029505 
L 313.9488 151.2477 
L 314.2464 151.259184 
L 314.3952 150.814528 
L 314.6928 150.825858 
L 314.8416 151.032499 
L 315.288 151.049725 
L 315.4368 151.464681 
L 315.8832 153.432038 
L 316.032 153.552317 
L 316.1808 153.102066 
L 316.776 153.119105 
L 316.9248 153.337509 
L 317.0736 152.887229 
L 317.52 152.904264 
L 317.9664 155.061492 
L 318.1152 155.401996 
L 318.4128 155.407687 
L 318.5616 155.187549 
L 318.7104 155.198938 
L 318.8592 154.748617 
L 319.008 154.748617 
L 319.1568 154.972459 
L 319.4544 154.983844 
L 319.6032 154.757666 
L 319.752 154.763357 
L 320.0496 156.506339 
L 320.1984 156.511272 
L 320.3472 156.060212 
L 320.496 156.065075 
L 320.6448 155.613901 
L 321.24 155.62849 
L 321.3888 155.177669 
L 321.984 155.197191 
L 322.1328 154.746017 
L 322.5792 156.759207 
L 322.728 156.424111 
L 323.3232 156.438733 
L 323.472 156.665723 
L 323.6208 156.214582 
L 323.9184 156.224334 
L 324.0672 156.451258 
L 324.216 156.000408 
L 324.5136 156.005282 
L 325.1088 158.974231 
L 325.2576 158.523164 
L 325.5552 158.532938 
L 325.704 158.08176 
L 325.8528 158.303792 
L 326.0016 158.308677 
L 326.1504 157.968688 
L 326.2992 157.968688 
L 326.5968 158.094561 
L 326.7456 158.099446 
L 327.0432 158.747888 
L 327.3408 160.493361 
L 327.4896 160.613444 
L 327.6384 160.399722 
L 327.936 160.407955 
L 328.0848 159.956008 
L 328.3824 159.964237 
L 328.5312 159.512254 
L 328.8288 159.520486 
L 328.9776 159.068532 
L 329.424 159.076761 
L 329.7216 159.995129 
L 329.8704 159.543502 
L 330.3168 159.55588 
L 330.4656 159.325498 
L 331.0608 159.446836 
L 331.2096 159.115793 
L 331.656 159.124044 
L 331.8048 159.354356 
L 331.9536 159.358546 
L 332.1024 159.775896 
L 332.5488 161.879012 
L 332.6976 161.427082 
L 333.144 161.43949 
L 333.2928 161.209426 
L 333.888 161.225968 
L 334.0368 161.452142 
L 334.1856 161.000157 
L 334.632 161.012562 
L 335.0784 163.178479 
L 335.376 163.185328 
L 335.5248 162.732663 
L 335.6736 162.736087 
L 335.8224 162.283637 
L 336.4176 162.293911 
L 336.5664 161.84117 
L 337.0128 161.851473 
L 337.1616 161.402181 
L 337.3104 161.402181 
L 337.4592 162.656727 
L 337.9056 162.66016 
L 338.0544 162.903312 
L 338.2032 162.903312 
L 338.352 162.450567 
L 338.6496 162.457433 
L 338.7984 162.109011 
L 339.096 162.234158 
L 339.2448 162.23759 
L 339.3936 162.473834 
L 339.5424 162.473834 
L 339.6912 162.02135 
L 340.1376 162.031648 
L 340.7328 165.000399 
L 340.8816 164.547695 
L 341.328 164.554577 
L 341.4768 164.209985 
L 341.7744 164.334841 
L 341.9232 164.338282 
L 342.072 164.118588 
L 342.3696 164.125472 
L 342.5184 164.36174 
L 342.6672 164.36174 
L 342.816 163.909265 
L 342.9648 163.912707 
L 343.1136 164.791496 
L 343.2624 164.794343 
L 343.4112 164.340899 
L 344.1552 164.354973 
L 344.304 163.901491 
L 345.4944 163.921261 
L 345.6432 163.467687 
L 345.9408 163.473271 
L 346.3872 166.100332 
L 346.6848 166.235822 
L 346.8336 165.782647 
L 347.1312 165.788248 
L 347.28 166.020822 
L 347.4288 166.023676 
L 347.5776 165.570159 
L 347.8752 165.575758 
L 348.024 165.808345 
L 348.3216 165.814054 
L 348.4704 165.360509 
L 348.768 165.366108 
L 348.9168 165.595849 
L 349.2144 165.601558 
L 349.6608 167.773456 
L 350.1072 168.12432 
L 350.256 167.670897 
L 350.7024 167.679317 
L 350.8512 167.45622 
L 351.1488 167.461834 
L 351.2976 167.7001 
L 351.4464 167.702962 
L 351.5952 167.249484 
L 352.0416 167.257904 
L 352.1904 167.487964 
L 352.3392 167.490826 
L 352.488 167.910975 
L 352.7856 169.664167 
L 353.0832 170.017877 
L 353.232 169.564462 
L 353.5296 169.568904 
L 353.6784 169.115119 
L 354.1248 169.121778 
L 354.2736 168.667691 
L 354.8688 168.676621 
L 355.0176 168.222497 
L 355.6128 168.231426 
L 355.7616 169.108475 
L 355.9104 168.687334 
L 356.3568 168.694012 
L 356.5056 168.932229 
L 356.6544 168.478083 
L 357.1008 168.48476 
L 357.2496 168.720396 
L 357.5472 168.724948 
L 357.696 168.271089 
L 358.1424 168.277767 
L 358.2912 168.508863 
L 358.8864 168.52024 
L 359.0352 168.066039 
L 359.184 168.068264 
L 359.7792 171.039338 
L 359.928 171.041621 
L 360.0768 170.587512 
L 360.672 170.594205 
L 360.8208 170.827882 
L 360.9696 170.375976 
L 361.416 170.38044 
L 361.5648 170.616095 
L 361.7136 170.618376 
L 361.8624 170.164526 
L 362.3088 170.17122 
L 362.4576 170.404604 
L 362.6064 170.406885 
L 362.7552 169.952692 
L 362.904 170.832883 
L 363.4992 170.839852 
L 363.648 170.385132 
L 364.8384 170.397273 
L 364.9872 169.942514 
L 366.624 169.961666 
L 367.0704 172.023541 
L 367.5168 172.028684 
L 367.6656 172.269166 
L 367.9632 172.272683 
L 368.112 171.818283 
L 368.5584 171.823426 
L 368.7072 172.058332 
L 369.0048 172.061847 
L 369.1536 171.607105 
L 369.6 171.612247 
L 369.7488 171.847477 
L 370.4928 171.856265 
L 370.6416 173.613321 
L 370.9392 174.133795 
L 371.088 174.135513 
L 371.3856 174.379452 
L 371.5344 173.924772 
L 371.9808 173.929928 
L 372.1296 173.712524 
L 372.4272 173.714241 
L 372.576 173.957886 
L 372.7248 173.959648 
L 372.8736 173.504913 
L 373.32 173.508349 
L 373.7664 173.748837 
L 373.9152 173.294077 
L 374.3616 173.29923 
L 374.5104 173.536248 
L 374.6592 173.53801 
L 375.1056 175.718858 
L 375.4032 175.82609 
L 375.552 175.827352 
L 375.7008 175.372176 
L 376.1472 175.375961 
L 376.296 174.921064 
L 376.8912 174.926148 
L 377.04 174.470898 
L 377.4864 174.474682 
L 377.6352 174.020694 
L 378.8256 174.030973 
L 378.9744 174.910638 
L 379.1232 174.730388 
L 379.4208 174.732919 
L 379.8672 174.976776 
L 380.016 174.978079 
L 380.1648 174.524396 
L 380.76 174.52819 
L 380.9088 174.766571 
L 381.6528 174.774386 
L 381.8016 174.31902 
L 382.0992 174.321549 
L 382.248 174.556031 
L 383.5872 174.567754 
L 384.0336 176.751301 
L 384.48 176.84527 
L 384.6288 177.09042 
L 384.7776 176.635153 
L 385.224 176.638958 
L 385.3728 176.880276 
L 385.5216 176.424981 
L 386.1168 176.428785 
L 386.2656 176.670113 
L 386.5632 176.672725 
L 386.712 176.217719 
L 387.1584 176.221523 
L 387.3072 176.459934 
L 387.6048 176.462546 
L 387.7536 176.008105 
L 388.3488 176.010733 
L 388.4976 176.202778 
L 389.3904 176.210061 
L 389.5392 175.754287 
L 389.9856 175.756045 
L 390.1344 175.992877 
L 391.92 176.002892 
L 392.0688 175.54709 
L 392.5152 175.549726 
L 392.664 175.782958 
L 393.408 175.78751 
L 393.8544 178.429919 
L 394.152 178.52855 
L 394.5984 178.531289 
L 394.7472 178.075891 
L 395.1936 178.078534 
L 395.3424 178.318131 
L 395.64 178.319956 
L 395.7888 177.864215 
L 396.2352 177.866858 
L 396.384 178.108607 
L 397.2768 178.114083 
L 397.4256 177.658314 
L 397.872 177.660957 
L 398.0208 177.89875 
L 398.7648 177.903314 
L 399.2112 180.090147 
L 399.5088 180.188686 
L 399.6576 180.189569 
L 399.8064 180.434953 
L 399.9552 180.435868 
L 400.104 179.98016 
L 400.5504 179.98281 
L 400.6992 180.22549 
L 400.848 179.77007 
L 401.2944 179.77272 
L 401.4432 180.01601 
L 401.592 180.016925 
L 401.7408 179.562045 
L 402.1872 179.563812 
L 402.336 179.806513 
L 402.6336 179.808343 
L 402.7824 179.352553 
L 403.2288 179.355202 
L 403.3776 179.596998 
L 403.824 179.599743 
L 403.9728 179.143926 
L 404.4192 179.146253 
L 404.568 179.332919 
L 405.4608 179.336446 
L 405.6096 178.88115 
L 405.9072 178.882275 
L 406.056 179.123998 
L 408.288 179.132229 
L 408.4368 178.676028 
L 408.8832 178.677715 
L 409.032 178.914745 
L 410.52 178.920624 
L 410.9664 181.56679 
L 411.264 181.661533 
L 411.4128 181.662122 
L 411.5616 181.206007 
L 412.1568 181.207699 
L 412.3056 181.451511 
L 412.752 181.453279 
L 412.9008 180.997138 
L 413.1984 180.998265 
L 413.3472 181.242652 
L 413.7936 181.24442 
L 413.9424 180.788542 
L 414.24 180.790233 
L 414.3888 181.033776 
L 415.4304 181.037902 
L 415.5792 180.581706 
L 416.0256 180.582833 
L 416.472 180.825746 
L 416.9184 180.826925 
L 417.3648 183.474459 
L 417.5136 183.57189 
L 417.6624 183.115781 
L 418.1088 183.117476 
L 418.2576 183.363093 
L 418.4064 182.906956 
L 418.8528 182.908651 
L 419.0016 183.154278 
L 419.1504 182.698114 
L 419.5968 182.69981 
L 419.7456 182.945131 
L 419.8944 182.945722 
L 420.0432 182.489846 
L 420.4896 182.491542 
L 420.6384 182.736598 
L 420.7872 182.737188 
L 420.936 182.280969 
L 421.3824 182.282665 
L 421.5312 182.527416 
L 421.9776 182.528672 
L 422.1264 182.072168 
L 423.6144 182.07577 
L 423.7632 181.619542 
L 424.0608 181.620169 
L 424.2096 182.048745 
L 425.6976 182.052083 
L 425.8464 181.595837 
L 426.2928 181.596466 
L 426.4416 181.84079 
L 428.6736 181.845128 
L 428.8224 181.38854 
L 429.12 181.388854 
L 429.5664 181.632168 
L 432.096 181.638841 
L 432.5424 184.289452 
L 432.84 184.379564 
L 433.4352 184.380567 
L 433.584 183.924066 
L 434.0304 183.925012 
L 434.1792 184.171019 
L 434.6256 184.172023 
L 434.7744 183.715493 
L 435.2208 183.716124 
L 435.6672 183.963126 
L 436.1136 183.96413 
L 436.2624 183.507573 
L 436.7088 183.508519 
L 436.8576 183.754231 
L 437.7504 183.756573 
L 437.8992 183.300286 
L 438.1968 183.301862 
L 438.3456 183.54597 
L 440.4288 183.55266 
L 440.5776 183.979822 
L 440.8752 185.748035 
L 441.6192 186.086933 
L 441.768 186.087269 
L 441.9168 185.630744 
L 442.512 185.631692 
L 442.6608 185.878415 
L 442.8096 185.421863 
L 443.256 185.422811 
L 443.4048 185.670216 
L 443.5536 185.670886 
L 443.7024 185.214437 
L 444.8928 185.215865 
L 445.0416 184.759062 
L 446.3808 184.760217 
L 446.5296 184.303364 
L 449.208 184.305713 
L 449.3568 183.848835 
L 450.9936 183.850146 
L 451.1424 184.734937 
L 451.7376 184.770146 
L 453.672 184.771792 
L 453.8208 184.314902 
L 454.2672 184.315312 
L 454.416 184.561725 
L 462.3024 184.568907 
L 462.7488 187.223622 
L 463.0464 187.310942 
L 463.344 187.311092 
L 463.4928 186.854754 
L 463.9392 186.855165 
L 464.088 187.103232 
L 464.5344 187.104132 
L 464.6832 186.647451 
L 464.9808 186.647862 
L 465.1296 186.895338 
L 466.0224 186.896238 
L 466.1712 186.43938 
L 466.6176 186.439791 
L 466.7664 186.687743 
L 467.6592 186.688493 
L 467.808 186.231607 
L 468.1056 186.231744 
L 468.2544 186.479815 
L 469.7424 186.481465 
L 469.8912 186.024881 
L 470.3376 186.025155 
L 470.4864 186.272186 
L 472.7184 186.274136 
L 472.8672 185.817209 
L 473.3136 185.817483 
L 473.4624 186.064224 
L 475.248 186.065874 
L 475.6944 188.722643 
L 475.992 188.815384 
L 476.1408 188.815535 
L 476.2896 188.358693 
L 476.4384 188.358831 
L 476.8848 185.78236 
L 481.4976 185.78236 
L 481.944 188.439471 
L 482.0928 188.607684 
L 482.2416 188.607834 
L 482.688 185.819829 
L 483.2832 185.78236 
L 485.5152 185.78236 
L 485.9616 188.439471 
L 486.1104 188.607684 
L 486.408 188.607985 
L 486.8544 185.819979 
L 487.4496 185.78236 
L 488.3424 185.78236 
L 488.7888 188.439471 
L 488.9376 188.607684 
L 489.384 188.608135 
L 489.8304 185.820129 
L 490.2768 185.78236 
L 490.7232 188.439471 
L 491.0208 188.53131 
L 491.616 188.531461 
L 491.7648 188.074476 
L 492.0624 188.074539 
L 492.2112 188.324334 
L 493.4016 188.324636 
L 493.5504 187.867617 
L 493.848 187.86768 
L 493.9968 188.117062 
L 495.9312 188.117553 
L 496.08 187.660829 
L 496.3776 187.660892 
L 496.5264 187.910089 
L 499.056 187.910731 
L 499.2048 187.453658 
L 499.6512 187.453752 
L 499.8 187.702784 
L 507.8352 187.704822 
L 508.2816 190.363303 
L 508.4304 189.996077 
L 508.8768 189.996172 
L 509.0256 190.245886 
L 509.472 190.246 
L 509.6208 189.788992 
L 510.0672 189.789086 
L 510.216 190.038976 
L 510.5136 190.039051 
L 510.6624 189.582332 
L 510.96 189.582395 
L 511.1088 189.832048 
L 511.704 189.832199 
L 511.8528 189.37513 
L 512.2992 189.375193 
L 512.448 189.624787 
L 513.0432 189.624939 
L 513.192 189.16788 
L 513.6384 189.167943 
L 513.7872 189.417547 
L 514.68 189.417737 
L 514.8288 188.960619 
L 515.1264 188.960682 
L 515.5728 189.210569 
L 516.4656 189.210796 
L 516.6144 188.753651 
L 517.0608 188.753746 
L 517.2096 189.003219 
L 517.9536 189.003408 
L 518.1024 188.071471 
L 518.2512 188.071471 
L 518.4 187.139496 
L 518.4 187.139496 
" style="fill:none;stroke:#008000;stroke-linecap:square;"/>
   </g>
   <g id="line2d_2">
    <path clip-path="url(#p14086a2791)" d="M 72.1488 191.314286 
L 93.2784 191.411774 
L 95.3616 191.921789 
L 98.784 193.500707 
L 99.8256 194.223294 
L 99.9744 194.223294 
L 101.4624 195.649942 
L 102.9504 197.367193 
L 104.5872 199.587305 
L 106.6704 202.819305 
L 109.2 207.171609 
L 110.8368 210.204286 
L 110.9856 210.772249 
L 111.1344 210.772249 
L 114.1104 216.71526 
L 117.5328 224.061693 
L 121.6992 233.584426 
L 122.8896 236.395025 
L 123.0384 236.395025 
L 123.336 237.813321 
L 125.1216 242.143756 
L 125.2704 242.143756 
L 137.6208 272.039681 
L 141.4896 280.617478 
L 145.3584 288.680489 
L 149.0784 295.973179 
L 149.5248 296.812265 
L 149.6736 297.368617 
L 149.8224 297.368617 
L 153.5424 304.008712 
L 155.0304 306.771778 
L 155.4768 308.008991 
L 156.3696 309.462813 
L 156.5184 309.462813 
L 157.2624 310.637014 
L 157.4112 310.637014 
L 158.0064 311.545924 
L 158.1552 311.545924 
L 161.7264 316.677653 
L 164.7024 320.595593 
L 167.8272 324.310085 
L 169.9104 326.745651 
L 170.208 327.208225 
L 173.6304 330.551693 
L 176.4576 332.969852 
L 180.7728 336.291368 
L 183.6 337.934358 
L 185.6832 339.111347 
L 186.4272 339.673151 
L 189.4032 340.928947 
L 191.3376 341.46996 
L 191.784 341.579019 
L 193.272 341.794768 
L 194.4624 341.894851 
L 196.248 341.930944 
L 202.0512 341.61904 
L 204.8784 341.23782 
L 208.0032 340.589043 
L 212.0208 339.162669 
L 213.9552 338.176563 
L 214.4016 337.862952 
L 215.4432 337.376969 
L 215.7408 337.292629 
L 216.7824 336.587763 
L 216.9312 336.406533 
L 217.08 336.406533 
L 217.3776 336.137196 
L 218.8656 335.287472 
L 219.1632 335.188654 
L 225.4128 330.865156 
L 229.4304 327.095914 
L 230.0256 326.46319 
L 230.1744 326.143502 
L 230.3232 326.143502 
L 233.1504 322.886963 
L 235.9776 319.272834 
L 238.9536 315.059396 
L 242.2272 310.039882 
L 254.5776 290.415264 
L 254.7264 290.415264 
L 255.3216 289.531861 
L 255.4704 289.099546 
L 255.6192 289.099546 
L 256.6608 287.584647 
L 256.8096 287.159689 
L 256.9584 287.159689 
L 257.1072 286.737748 
L 257.256 286.737748 
L 257.4048 286.315387 
L 257.5536 286.315387 
L 257.8512 285.892122 
L 258.1488 285.267785 
L 258.2976 285.267785 
L 258.8928 284.444288 
L 259.1904 283.824615 
L 259.3392 283.620005 
L 259.488 283.620005 
L 260.3808 282.411903 
L 260.5296 282.008877 
L 260.6784 282.008877 
L 260.976 281.415924 
L 261.1248 281.415924 
L 267.3744 273.361462 
L 272.5824 267.077581 
L 272.7312 267.077581 
L 276.1536 263.285635 
L 280.0224 259.302454 
L 285.6768 253.687177 
L 285.8256 253.687177 
L 290.5872 249.430326 
L 295.4976 245.258182 
L 295.6464 245.258182 
L 297.8784 243.408683 
L 302.1936 240.184919 
L 303.5328 239.131051 
L 303.6816 238.920806 
L 303.8304 238.920806 
L 304.128 238.605551 
L 305.616 237.462047 
L 305.9136 237.152633 
L 309.7824 234.595126 
L 312.1632 233.004852 
L 312.4608 232.722464 
L 313.2048 232.156 
L 313.9488 231.344035 
L 318.1152 228.921701 
L 318.4128 228.841691 
L 322.728 226.607329 
L 323.0256 226.529603 
L 326.1504 225.0164 
L 326.448 224.942378 
L 329.2752 223.596456 
L 329.5728 223.526142 
L 335.2272 220.995074 
L 339.3936 219.316163 
L 339.6912 219.250911 
L 341.9232 218.393078 
L 348.4704 215.845759 
L 352.6368 214.342184 
L 358.5888 212.333475 
L 359.0352 212.129391 
L 361.1184 211.473608 
L 361.5648 211.380893 
L 372.2784 208.155668 
L 372.576 208.07783 
L 381.0576 205.976745 
L 381.3552 205.866234 
L 387.1584 204.542278 
L 399.36 201.941093 
L 408.4368 200.331211 
L 409.032 200.219207 
L 413.6448 199.449886 
L 414.24 199.356166 
L 420.3408 198.528965 
L 429.7152 197.197004 
L 430.608 197.046167 
L 435.5184 196.444545 
L 439.0896 195.946951 
L 440.7264 195.674332 
L 454.5648 194.412333 
L 463.0464 193.655311 
L 464.2368 193.559287 
L 466.6176 193.367007 
L 496.6752 191.396956 
L 512.8944 190.679746 
L 516.4656 190.572972 
L 518.4 190.497674 
L 518.4 190.497674 
" style="fill:none;stroke:#0000ff;stroke-linecap:square;"/>
   </g>
   <g id="patch_3">
    <path d="M 72 43.2 
L 518.4 43.2 
" style="fill:none;stroke:#000000;stroke-linecap:square;stroke-linejoin:miter;"/>
   </g>
   <g id="patch_4">
    <path d="M 518.4 388.8 
L 518.4 43.2 
" style="fill:none;stroke:#000000;stroke-linecap:square;stroke-linejoin:miter;"/>
   </g>
   <g id="patch_5">
    <path d="M 72 388.8 
L 518.4 388.8 
" style="fill:none;stroke:#000000;stroke-linecap:square;stroke-linejoin:miter;"/>
   </g>
   <g id="patch_6">
    <path d="M 72 388.8 
L 72 43.2 
" style="fill:none;stroke:#000000;stroke-linecap:square;stroke-linejoin:miter;"/>
   </g>
   <g id="matplotlib.axis_1">
    <g id="xtick_1">
     <g id="line2d_3">
      <path clip-path="url(#p14086a2791)" d="M 72 388.8 
L 72 43.2 
" style="fill:none;stroke:#000000;stroke-dasharray:1.000000,3.000000;stroke-dashoffset:0.0;stroke-width:0.5;"/>
     </g>
     <g id="line2d_4">
      <defs>
       <path d="M 0 0 
L 0 -4 
" id="mb7c6dc616a" style="stroke:#000000;stroke-width:0.5;"/>
      </defs>
      <g>
       <use style="stroke:#000000;stroke-width:0.5;" x="72.0" xlink:href="#mb7c6dc616a" y="388.8"/>
      </g>
     </g>
     <g id="line2d_5">
      <defs>
       <path d="M 0 0 
L 0 4 
" id="mbf2fa843a4" style="stroke:#000000;stroke-width:0.5;"/>
      </defs>
      <g>
       <use style="stroke:#000000;stroke-width:0.5;" x="72.0" xlink:href="#mbf2fa843a4" y="43.2"/>
      </g>
     </g>
     <g id="text_1">
      <!-- 0 -->
      <defs>
       <path d="M 31.78125 66.40625 
Q 24.171875 66.40625 20.328125 58.90625 
Q 16.5 51.421875 16.5 36.375 
Q 16.5 21.390625 20.328125 13.890625 
Q 24.171875 6.390625 31.78125 6.390625 
Q 39.453125 6.390625 43.28125 13.890625 
Q 47.125 21.390625 47.125 36.375 
Q 47.125 51.421875 43.28125 58.90625 
Q 39.453125 66.40625 31.78125 66.40625 
M 31.78125 74.21875 
Q 44.046875 74.21875 50.515625 64.515625 
Q 56.984375 54.828125 56.984375 36.375 
Q 56.984375 17.96875 50.515625 8.265625 
Q 44.046875 -1.421875 31.78125 -1.421875 
Q 19.53125 -1.421875 13.0625 8.265625 
Q 6.59375 17.96875 6.59375 36.375 
Q 6.59375 54.828125 13.0625 64.515625 
Q 19.53125 74.21875 31.78125 74.21875 
" id="BitstreamVeraSans-Roman-30"/>
      </defs>
      <g transform="translate(68.1825 401.918125)scale(0.12 -0.12)">
       <use xlink:href="#BitstreamVeraSans-Roman-30"/>
      </g>
     </g>
    </g>
    <g id="xtick_2">
     <g id="line2d_6">
      <path clip-path="url(#p14086a2791)" d="M 146.4 388.8 
L 146.4 43.2 
" style="fill:none;stroke:#000000;stroke-dasharray:1.000000,3.000000;stroke-dashoffset:0.0;stroke-width:0.5;"/>
     </g>
     <g id="line2d_7">
      <g>
       <use style="stroke:#000000;stroke-width:0.5;" x="146.4" xlink:href="#mb7c6dc616a" y="388.8"/>
      </g>
     </g>
     <g id="line2d_8">
      <g>
       <use style="stroke:#000000;stroke-width:0.5;" x="146.4" xlink:href="#mbf2fa843a4" y="43.2"/>
      </g>
     </g>
     <g id="text_2">
      <!-- 5 -->
      <defs>
       <path d="M 10.796875 72.90625 
L 49.515625 72.90625 
L 49.515625 64.59375 
L 19.828125 64.59375 
L 19.828125 46.734375 
Q 21.96875 47.46875 24.109375 47.828125 
Q 26.265625 48.1875 28.421875 48.1875 
Q 40.625 48.1875 47.75 41.5 
Q 54.890625 34.8125 54.890625 23.390625 
Q 54.890625 11.625 47.5625 5.09375 
Q 40.234375 -1.421875 26.90625 -1.421875 
Q 22.3125 -1.421875 17.546875 -0.640625 
Q 12.796875 0.140625 7.71875 1.703125 
L 7.71875 11.625 
Q 12.109375 9.234375 16.796875 8.0625 
Q 21.484375 6.890625 26.703125 6.890625 
Q 35.15625 6.890625 40.078125 11.328125 
Q 45.015625 15.765625 45.015625 23.390625 
Q 45.015625 31 40.078125 35.4375 
Q 35.15625 39.890625 26.703125 39.890625 
Q 22.75 39.890625 18.8125 39.015625 
Q 14.890625 38.140625 10.796875 36.28125 
z
" id="BitstreamVeraSans-Roman-35"/>
      </defs>
      <g transform="translate(142.5825 401.918125)scale(0.12 -0.12)">
       <use xlink:href="#BitstreamVeraSans-Roman-35"/>
      </g>
     </g>
    </g>
    <g id="xtick_3">
     <g id="line2d_9">
      <path clip-path="url(#p14086a2791)" d="M 220.8 388.8 
L 220.8 43.2 
" style="fill:none;stroke:#000000;stroke-dasharray:1.000000,3.000000;stroke-dashoffset:0.0;stroke-width:0.5;"/>
     </g>
     <g id="line2d_10">
      <g>
       <use style="stroke:#000000;stroke-width:0.5;" x="220.8" xlink:href="#mb7c6dc616a" y="388.8"/>
      </g>
     </g>
     <g id="line2d_11">
      <g>
       <use style="stroke:#000000;stroke-width:0.5;" x="220.8" xlink:href="#mbf2fa843a4" y="43.2"/>
      </g>
     </g>
     <g id="text_3">
      <!-- 10 -->
      <defs>
       <path d="M 12.40625 8.296875 
L 28.515625 8.296875 
L 28.515625 63.921875 
L 10.984375 60.40625 
L 10.984375 69.390625 
L 28.421875 72.90625 
L 38.28125 72.90625 
L 38.28125 8.296875 
L 54.390625 8.296875 
L 54.390625 0 
L 12.40625 0 
z
" id="BitstreamVeraSans-Roman-31"/>
      </defs>
      <g transform="translate(213.165 401.918125)scale(0.12 -0.12)">
       <use xlink:href="#BitstreamVeraSans-Roman-31"/>
       <use x="63.623046875" xlink:href="#BitstreamVeraSans-Roman-30"/>
      </g>
     </g>
    </g>
    <g id="xtick_4">
     <g id="line2d_12">
      <path clip-path="url(#p14086a2791)" d="M 295.2 388.8 
L 295.2 43.2 
" style="fill:none;stroke:#000000;stroke-dasharray:1.000000,3.000000;stroke-dashoffset:0.0;stroke-width:0.5;"/>
     </g>
     <g id="line2d_13">
      <g>
       <use style="stroke:#000000;stroke-width:0.5;" x="295.2" xlink:href="#mb7c6dc616a" y="388.8"/>
      </g>
     </g>
     <g id="line2d_14">
      <g>
       <use style="stroke:#000000;stroke-width:0.5;" x="295.2" xlink:href="#mbf2fa843a4" y="43.2"/>
      </g>
     </g>
     <g id="text_4">
      <!-- 15 -->
      <g transform="translate(287.565 401.918125)scale(0.12 -0.12)">
       <use xlink:href="#BitstreamVeraSans-Roman-31"/>
       <use x="63.623046875" xlink:href="#BitstreamVeraSans-Roman-35"/>
      </g>
     </g>
    </g>
    <g id="xtick_5">
     <g id="line2d_15">
      <path clip-path="url(#p14086a2791)" d="M 369.6 388.8 
L 369.6 43.2 
" style="fill:none;stroke:#000000;stroke-dasharray:1.000000,3.000000;stroke-dashoffset:0.0;stroke-width:0.5;"/>
     </g>
     <g id="line2d_16">
      <g>
       <use style="stroke:#000000;stroke-width:0.5;" x="369.6" xlink:href="#mb7c6dc616a" y="388.8"/>
      </g>
     </g>
     <g id="line2d_17">
      <g>
       <use style="stroke:#000000;stroke-width:0.5;" x="369.6" xlink:href="#mbf2fa843a4" y="43.2"/>
      </g>
     </g>
     <g id="text_5">
      <!-- 20 -->
      <defs>
       <path d="M 19.1875 8.296875 
L 53.609375 8.296875 
L 53.609375 0 
L 7.328125 0 
L 7.328125 8.296875 
Q 12.9375 14.109375 22.625 23.890625 
Q 32.328125 33.6875 34.8125 36.53125 
Q 39.546875 41.84375 41.421875 45.53125 
Q 43.3125 49.21875 43.3125 52.78125 
Q 43.3125 58.59375 39.234375 62.25 
Q 35.15625 65.921875 28.609375 65.921875 
Q 23.96875 65.921875 18.8125 64.3125 
Q 13.671875 62.703125 7.8125 59.421875 
L 7.8125 69.390625 
Q 13.765625 71.78125 18.9375 73 
Q 24.125 74.21875 28.421875 74.21875 
Q 39.75 74.21875 46.484375 68.546875 
Q 53.21875 62.890625 53.21875 53.421875 
Q 53.21875 48.921875 51.53125 44.890625 
Q 49.859375 40.875 45.40625 35.40625 
Q 44.1875 33.984375 37.640625 27.21875 
Q 31.109375 20.453125 19.1875 8.296875 
" id="BitstreamVeraSans-Roman-32"/>
      </defs>
      <g transform="translate(361.965 401.918125)scale(0.12 -0.12)">
       <use xlink:href="#BitstreamVeraSans-Roman-32"/>
       <use x="63.623046875" xlink:href="#BitstreamVeraSans-Roman-30"/>
      </g>
     </g>
    </g>
    <g id="xtick_6">
     <g id="line2d_18">
      <path clip-path="url(#p14086a2791)" d="M 444 388.8 
L 444 43.2 
" style="fill:none;stroke:#000000;stroke-dasharray:1.000000,3.000000;stroke-dashoffset:0.0;stroke-width:0.5;"/>
     </g>
     <g id="line2d_19">
      <g>
       <use style="stroke:#000000;stroke-width:0.5;" x="444.0" xlink:href="#mb7c6dc616a" y="388.8"/>
      </g>
     </g>
     <g id="line2d_20">
      <g>
       <use style="stroke:#000000;stroke-width:0.5;" x="444.0" xlink:href="#mbf2fa843a4" y="43.2"/>
      </g>
     </g>
     <g id="text_6">
      <!-- 25 -->
      <g transform="translate(436.365 401.918125)scale(0.12 -0.12)">
       <use xlink:href="#BitstreamVeraSans-Roman-32"/>
       <use x="63.623046875" xlink:href="#BitstreamVeraSans-Roman-35"/>
      </g>
     </g>
    </g>
    <g id="xtick_7">
     <g id="line2d_21">
      <path clip-path="url(#p14086a2791)" d="M 518.4 388.8 
L 518.4 43.2 
" style="fill:none;stroke:#000000;stroke-dasharray:1.000000,3.000000;stroke-dashoffset:0.0;stroke-width:0.5;"/>
     </g>
     <g id="line2d_22">
      <g>
       <use style="stroke:#000000;stroke-width:0.5;" x="518.4" xlink:href="#mb7c6dc616a" y="388.8"/>
      </g>
     </g>
     <g id="line2d_23">
      <g>
       <use style="stroke:#000000;stroke-width:0.5;" x="518.4" xlink:href="#mbf2fa843a4" y="43.2"/>
      </g>
     </g>
     <g id="text_7">
      <!-- 30 -->
      <defs>
       <path d="M 40.578125 39.3125 
Q 47.65625 37.796875 51.625 33 
Q 55.609375 28.21875 55.609375 21.1875 
Q 55.609375 10.40625 48.1875 4.484375 
Q 40.765625 -1.421875 27.09375 -1.421875 
Q 22.515625 -1.421875 17.65625 -0.515625 
Q 12.796875 0.390625 7.625 2.203125 
L 7.625 11.71875 
Q 11.71875 9.328125 16.59375 8.109375 
Q 21.484375 6.890625 26.8125 6.890625 
Q 36.078125 6.890625 40.9375 10.546875 
Q 45.796875 14.203125 45.796875 21.1875 
Q 45.796875 27.640625 41.28125 31.265625 
Q 36.765625 34.90625 28.71875 34.90625 
L 20.21875 34.90625 
L 20.21875 43.015625 
L 29.109375 43.015625 
Q 36.375 43.015625 40.234375 45.921875 
Q 44.09375 48.828125 44.09375 54.296875 
Q 44.09375 59.90625 40.109375 62.90625 
Q 36.140625 65.921875 28.71875 65.921875 
Q 24.65625 65.921875 20.015625 65.03125 
Q 15.375 64.15625 9.8125 62.3125 
L 9.8125 71.09375 
Q 15.4375 72.65625 20.34375 73.4375 
Q 25.25 74.21875 29.59375 74.21875 
Q 40.828125 74.21875 47.359375 69.109375 
Q 53.90625 64.015625 53.90625 55.328125 
Q 53.90625 49.265625 50.4375 45.09375 
Q 46.96875 40.921875 40.578125 39.3125 
" id="BitstreamVeraSans-Roman-33"/>
      </defs>
      <g transform="translate(510.765 401.918125)scale(0.12 -0.12)">
       <use xlink:href="#BitstreamVeraSans-Roman-33"/>
       <use x="63.623046875" xlink:href="#BitstreamVeraSans-Roman-30"/>
      </g>
     </g>
    </g>
    <g id="text_8">
     <!-- Time, [s] -->
     <defs>
      <path id="BitstreamVeraSans-Roman-20"/>
      <path d="M 8.59375 75.984375 
L 29.296875 75.984375 
L 29.296875 69 
L 17.578125 69 
L 17.578125 -6.203125 
L 29.296875 -6.203125 
L 29.296875 -13.1875 
L 8.59375 -13.1875 
z
" id="BitstreamVeraSans-Roman-5b"/>
      <path d="M 30.421875 75.984375 
L 30.421875 -13.1875 
L 9.71875 -13.1875 
L 9.71875 -6.203125 
L 21.390625 -6.203125 
L 21.390625 69 
L 9.71875 69 
L 9.71875 75.984375 
z
" id="BitstreamVeraSans-Roman-5d"/>
      <path d="M 52 44.1875 
Q 55.375 50.25 60.0625 53.125 
Q 64.75 56 71.09375 56 
Q 79.640625 56 84.28125 50.015625 
Q 88.921875 44.046875 88.921875 33.015625 
L 88.921875 0 
L 79.890625 0 
L 79.890625 32.71875 
Q 79.890625 40.578125 77.09375 44.375 
Q 74.3125 48.1875 68.609375 48.1875 
Q 61.625 48.1875 57.5625 43.546875 
Q 53.515625 38.921875 53.515625 30.90625 
L 53.515625 0 
L 44.484375 0 
L 44.484375 32.71875 
Q 44.484375 40.625 41.703125 44.40625 
Q 38.921875 48.1875 33.109375 48.1875 
Q 26.21875 48.1875 22.15625 43.53125 
Q 18.109375 38.875 18.109375 30.90625 
L 18.109375 0 
L 9.078125 0 
L 9.078125 54.6875 
L 18.109375 54.6875 
L 18.109375 46.1875 
Q 21.1875 51.21875 25.484375 53.609375 
Q 29.78125 56 35.6875 56 
Q 41.65625 56 45.828125 52.96875 
Q 50 49.953125 52 44.1875 
" id="BitstreamVeraSans-Roman-6d"/>
      <path d="M 11.71875 12.40625 
L 22.015625 12.40625 
L 22.015625 4 
L 14.015625 -11.625 
L 7.71875 -11.625 
L 11.71875 4 
z
" id="BitstreamVeraSans-Roman-2c"/>
      <path d="M 9.421875 54.6875 
L 18.40625 54.6875 
L 18.40625 0 
L 9.421875 0 
z
M 9.421875 75.984375 
L 18.40625 75.984375 
L 18.40625 64.59375 
L 9.421875 64.59375 
z
" id="BitstreamVeraSans-Roman-69"/>
      <path d="M 56.203125 29.59375 
L 56.203125 25.203125 
L 14.890625 25.203125 
Q 15.484375 15.921875 20.484375 11.0625 
Q 25.484375 6.203125 34.421875 6.203125 
Q 39.59375 6.203125 44.453125 7.46875 
Q 49.3125 8.734375 54.109375 11.28125 
L 54.109375 2.78125 
Q 49.265625 0.734375 44.1875 -0.34375 
Q 39.109375 -1.421875 33.890625 -1.421875 
Q 20.796875 -1.421875 13.15625 6.1875 
Q 5.515625 13.8125 5.515625 26.8125 
Q 5.515625 40.234375 12.765625 48.109375 
Q 20.015625 56 32.328125 56 
Q 43.359375 56 49.78125 48.890625 
Q 56.203125 41.796875 56.203125 29.59375 
M 47.21875 32.234375 
Q 47.125 39.59375 43.09375 43.984375 
Q 39.0625 48.390625 32.421875 48.390625 
Q 24.90625 48.390625 20.390625 44.140625 
Q 15.875 39.890625 15.1875 32.171875 
z
" id="BitstreamVeraSans-Roman-65"/>
      <path d="M -0.296875 72.90625 
L 61.375 72.90625 
L 61.375 64.59375 
L 35.5 64.59375 
L 35.5 0 
L 25.59375 0 
L 25.59375 64.59375 
L -0.296875 64.59375 
z
" id="BitstreamVeraSans-Roman-54"/>
      <path d="M 44.28125 53.078125 
L 44.28125 44.578125 
Q 40.484375 46.53125 36.375 47.5 
Q 32.28125 48.484375 27.875 48.484375 
Q 21.1875 48.484375 17.84375 46.4375 
Q 14.5 44.390625 14.5 40.28125 
Q 14.5 37.15625 16.890625 35.375 
Q 19.28125 33.59375 26.515625 31.984375 
L 29.59375 31.296875 
Q 39.15625 29.25 43.1875 25.515625 
Q 47.21875 21.78125 47.21875 15.09375 
Q 47.21875 7.46875 41.1875 3.015625 
Q 35.15625 -1.421875 24.609375 -1.421875 
Q 20.21875 -1.421875 15.453125 -0.5625 
Q 10.6875 0.296875 5.421875 2 
L 5.421875 11.28125 
Q 10.40625 8.6875 15.234375 7.390625 
Q 20.0625 6.109375 24.8125 6.109375 
Q 31.15625 6.109375 34.5625 8.28125 
Q 37.984375 10.453125 37.984375 14.40625 
Q 37.984375 18.0625 35.515625 20.015625 
Q 33.0625 21.96875 24.703125 23.78125 
L 21.578125 24.515625 
Q 13.234375 26.265625 9.515625 29.90625 
Q 5.8125 33.546875 5.8125 39.890625 
Q 5.8125 47.609375 11.28125 51.796875 
Q 16.75 56 26.8125 56 
Q 31.78125 56 36.171875 55.265625 
Q 40.578125 54.546875 44.28125 53.078125 
" id="BitstreamVeraSans-Roman-73"/>
     </defs>
     <g transform="translate(268.71375 418.531875)scale(0.12 -0.12)">
      <use xlink:href="#BitstreamVeraSans-Roman-54"/>
      <use x="61.037109375" xlink:href="#BitstreamVeraSans-Roman-69"/>
      <use x="88.8203125" xlink:href="#BitstreamVeraSans-Roman-6d"/>
      <use x="186.232421875" xlink:href="#BitstreamVeraSans-Roman-65"/>
      <use x="247.755859375" xlink:href="#BitstreamVeraSans-Roman-2c"/>
      <use x="279.54296875" xlink:href="#BitstreamVeraSans-Roman-20"/>
      <use x="311.330078125" xlink:href="#BitstreamVeraSans-Roman-5b"/>
      <use x="350.34375" xlink:href="#BitstreamVeraSans-Roman-73"/>
      <use x="402.443359375" xlink:href="#BitstreamVeraSans-Roman-5d"/>
     </g>
    </g>
   </g>
   <g id="matplotlib.axis_2">
    <g id="ytick_1">
     <g id="line2d_24">
      <path clip-path="url(#p14086a2791)" d="M 72 388.8 
L 518.4 388.8 
" style="fill:none;stroke:#000000;stroke-dasharray:1.000000,3.000000;stroke-dashoffset:0.0;stroke-width:0.5;"/>
     </g>
     <g id="line2d_25">
      <defs>
       <path d="M 0 0 
L 4 0 
" id="m73826166dd" style="stroke:#000000;stroke-width:0.5;"/>
      </defs>
      <g>
       <use style="stroke:#000000;stroke-width:0.5;" x="72.0" xlink:href="#m73826166dd" y="388.8"/>
      </g>
     </g>
     <g id="line2d_26">
      <defs>
       <path d="M 0 0 
L -4 0 
" id="m4c68658aaf" style="stroke:#000000;stroke-width:0.5;"/>
      </defs>
      <g>
       <use style="stroke:#000000;stroke-width:0.5;" x="518.4" xlink:href="#m4c68658aaf" y="388.8"/>
      </g>
     </g>
     <g id="text_9">
      <!-- 0.8 -->
      <defs>
       <path d="M 10.59375 35.5 
L 73.1875 35.5 
L 73.1875 27.203125 
L 10.59375 27.203125 
z
" id="BitstreamVeraSans-Roman-2212"/>
       <path d="M 31.78125 34.625 
Q 24.75 34.625 20.71875 30.859375 
Q 16.703125 27.09375 16.703125 20.515625 
Q 16.703125 13.921875 20.71875 10.15625 
Q 24.75 6.390625 31.78125 6.390625 
Q 38.8125 6.390625 42.859375 10.171875 
Q 46.921875 13.96875 46.921875 20.515625 
Q 46.921875 27.09375 42.890625 30.859375 
Q 38.875 34.625 31.78125 34.625 
M 21.921875 38.8125 
Q 15.578125 40.375 12.03125 44.71875 
Q 8.5 49.078125 8.5 55.328125 
Q 8.5 64.0625 14.71875 69.140625 
Q 20.953125 74.21875 31.78125 74.21875 
Q 42.671875 74.21875 48.875 69.140625 
Q 55.078125 64.0625 55.078125 55.328125 
Q 55.078125 49.078125 51.53125 44.71875 
Q 48 40.375 41.703125 38.8125 
Q 48.828125 37.15625 52.796875 32.3125 
Q 56.78125 27.484375 56.78125 20.515625 
Q 56.78125 9.90625 50.3125 4.234375 
Q 43.84375 -1.421875 31.78125 -1.421875 
Q 19.734375 -1.421875 13.25 4.234375 
Q 6.78125 9.90625 6.78125 20.515625 
Q 6.78125 27.484375 10.78125 32.3125 
Q 14.796875 37.15625 21.921875 38.8125 
M 18.3125 54.390625 
Q 18.3125 48.734375 21.84375 45.5625 
Q 25.390625 42.390625 31.78125 42.390625 
Q 38.140625 42.390625 41.71875 45.5625 
Q 45.3125 48.734375 45.3125 54.390625 
Q 45.3125 60.0625 41.71875 63.234375 
Q 38.140625 66.40625 31.78125 66.40625 
Q 25.390625 66.40625 21.84375 63.234375 
Q 18.3125 60.0625 18.3125 54.390625 
" id="BitstreamVeraSans-Roman-38"/>
       <path d="M 10.6875 12.40625 
L 21 12.40625 
L 21 0 
L 10.6875 0 
z
" id="BitstreamVeraSans-Roman-2e"/>
      </defs>
      <g transform="translate(38.860625 392.11125)scale(0.12 -0.12)">
       <use xlink:href="#BitstreamVeraSans-Roman-2212"/>
       <use x="83.7890625" xlink:href="#BitstreamVeraSans-Roman-30"/>
       <use x="147.412109375" xlink:href="#BitstreamVeraSans-Roman-2e"/>
       <use x="179.19921875" xlink:href="#BitstreamVeraSans-Roman-38"/>
      </g>
     </g>
    </g>
    <g id="ytick_2">
     <g id="line2d_27">
      <path clip-path="url(#p14086a2791)" d="M 72 339.428571 
L 518.4 339.428571 
" style="fill:none;stroke:#000000;stroke-dasharray:1.000000,3.000000;stroke-dashoffset:0.0;stroke-width:0.5;"/>
     </g>
     <g id="line2d_28">
      <g>
       <use style="stroke:#000000;stroke-width:0.5;" x="72.0" xlink:href="#m73826166dd" y="339.428571429"/>
      </g>
     </g>
     <g id="line2d_29">
      <g>
       <use style="stroke:#000000;stroke-width:0.5;" x="518.4" xlink:href="#m4c68658aaf" y="339.428571429"/>
      </g>
     </g>
     <g id="text_10">
      <!-- 0.6 -->
      <defs>
       <path d="M 33.015625 40.375 
Q 26.375 40.375 22.484375 35.828125 
Q 18.609375 31.296875 18.609375 23.390625 
Q 18.609375 15.53125 22.484375 10.953125 
Q 26.375 6.390625 33.015625 6.390625 
Q 39.65625 6.390625 43.53125 10.953125 
Q 47.40625 15.53125 47.40625 23.390625 
Q 47.40625 31.296875 43.53125 35.828125 
Q 39.65625 40.375 33.015625 40.375 
M 52.59375 71.296875 
L 52.59375 62.3125 
Q 48.875 64.0625 45.09375 64.984375 
Q 41.3125 65.921875 37.59375 65.921875 
Q 27.828125 65.921875 22.671875 59.328125 
Q 17.53125 52.734375 16.796875 39.40625 
Q 19.671875 43.65625 24.015625 45.921875 
Q 28.375 48.1875 33.59375 48.1875 
Q 44.578125 48.1875 50.953125 41.515625 
Q 57.328125 34.859375 57.328125 23.390625 
Q 57.328125 12.15625 50.6875 5.359375 
Q 44.046875 -1.421875 33.015625 -1.421875 
Q 20.359375 -1.421875 13.671875 8.265625 
Q 6.984375 17.96875 6.984375 36.375 
Q 6.984375 53.65625 15.1875 63.9375 
Q 23.390625 74.21875 37.203125 74.21875 
Q 40.921875 74.21875 44.703125 73.484375 
Q 48.484375 72.75 52.59375 71.296875 
" id="BitstreamVeraSans-Roman-36"/>
      </defs>
      <g transform="translate(38.860625 342.739821429)scale(0.12 -0.12)">
       <use xlink:href="#BitstreamVeraSans-Roman-2212"/>
       <use x="83.7890625" xlink:href="#BitstreamVeraSans-Roman-30"/>
       <use x="147.412109375" xlink:href="#BitstreamVeraSans-Roman-2e"/>
       <use x="179.19921875" xlink:href="#BitstreamVeraSans-Roman-36"/>
      </g>
     </g>
    </g>
    <g id="ytick_3">
     <g id="line2d_30">
      <path clip-path="url(#p14086a2791)" d="M 72 290.057143 
L 518.4 290.057143 
" style="fill:none;stroke:#000000;stroke-dasharray:1.000000,3.000000;stroke-dashoffset:0.0;stroke-width:0.5;"/>
     </g>
     <g id="line2d_31">
      <g>
       <use style="stroke:#000000;stroke-width:0.5;" x="72.0" xlink:href="#m73826166dd" y="290.057142857"/>
      </g>
     </g>
     <g id="line2d_32">
      <g>
       <use style="stroke:#000000;stroke-width:0.5;" x="518.4" xlink:href="#m4c68658aaf" y="290.057142857"/>
      </g>
     </g>
     <g id="text_11">
      <!-- 0.4 -->
      <defs>
       <path d="M 37.796875 64.3125 
L 12.890625 25.390625 
L 37.796875 25.390625 
z
M 35.203125 72.90625 
L 47.609375 72.90625 
L 47.609375 25.390625 
L 58.015625 25.390625 
L 58.015625 17.1875 
L 47.609375 17.1875 
L 47.609375 0 
L 37.796875 0 
L 37.796875 17.1875 
L 4.890625 17.1875 
L 4.890625 26.703125 
z
" id="BitstreamVeraSans-Roman-34"/>
      </defs>
      <g transform="translate(38.860625 293.368392857)scale(0.12 -0.12)">
       <use xlink:href="#BitstreamVeraSans-Roman-2212"/>
       <use x="83.7890625" xlink:href="#BitstreamVeraSans-Roman-30"/>
       <use x="147.412109375" xlink:href="#BitstreamVeraSans-Roman-2e"/>
       <use x="179.19921875" xlink:href="#BitstreamVeraSans-Roman-34"/>
      </g>
     </g>
    </g>
    <g id="ytick_4">
     <g id="line2d_33">
      <path clip-path="url(#p14086a2791)" d="M 72 240.685714 
L 518.4 240.685714 
" style="fill:none;stroke:#000000;stroke-dasharray:1.000000,3.000000;stroke-dashoffset:0.0;stroke-width:0.5;"/>
     </g>
     <g id="line2d_34">
      <g>
       <use style="stroke:#000000;stroke-width:0.5;" x="72.0" xlink:href="#m73826166dd" y="240.685714286"/>
      </g>
     </g>
     <g id="line2d_35">
      <g>
       <use style="stroke:#000000;stroke-width:0.5;" x="518.4" xlink:href="#m4c68658aaf" y="240.685714286"/>
      </g>
     </g>
     <g id="text_12">
      <!-- 0.2 -->
      <g transform="translate(38.860625 243.996964286)scale(0.12 -0.12)">
       <use xlink:href="#BitstreamVeraSans-Roman-2212"/>
       <use x="83.7890625" xlink:href="#BitstreamVeraSans-Roman-30"/>
       <use x="147.412109375" xlink:href="#BitstreamVeraSans-Roman-2e"/>
       <use x="179.19921875" xlink:href="#BitstreamVeraSans-Roman-32"/>
      </g>
     </g>
    </g>
    <g id="ytick_5">
     <g id="line2d_36">
      <path clip-path="url(#p14086a2791)" d="M 72 191.314286 
L 518.4 191.314286 
" style="fill:none;stroke:#000000;stroke-dasharray:1.000000,3.000000;stroke-dashoffset:0.0;stroke-width:0.5;"/>
     </g>
     <g id="line2d_37">
      <g>
       <use style="stroke:#000000;stroke-width:0.5;" x="72.0" xlink:href="#m73826166dd" y="191.314285714"/>
      </g>
     </g>
     <g id="line2d_38">
      <g>
       <use style="stroke:#000000;stroke-width:0.5;" x="518.4" xlink:href="#m4c68658aaf" y="191.314285714"/>
      </g>
     </g>
     <g id="text_13">
      <!-- 0.0 -->
      <g transform="translate(48.91625 194.625535714)scale(0.12 -0.12)">
       <use xlink:href="#BitstreamVeraSans-Roman-30"/>
       <use x="63.623046875" xlink:href="#BitstreamVeraSans-Roman-2e"/>
       <use x="95.41015625" xlink:href="#BitstreamVeraSans-Roman-30"/>
      </g>
     </g>
    </g>
    <g id="ytick_6">
     <g id="line2d_39">
      <path clip-path="url(#p14086a2791)" d="M 72 141.942857 
L 518.4 141.942857 
" style="fill:none;stroke:#000000;stroke-dasharray:1.000000,3.000000;stroke-dashoffset:0.0;stroke-width:0.5;"/>
     </g>
     <g id="line2d_40">
      <g>
       <use style="stroke:#000000;stroke-width:0.5;" x="72.0" xlink:href="#m73826166dd" y="141.942857143"/>
      </g>
     </g>
     <g id="line2d_41">
      <g>
       <use style="stroke:#000000;stroke-width:0.5;" x="518.4" xlink:href="#m4c68658aaf" y="141.942857143"/>
      </g>
     </g>
     <g id="text_14">
      <!-- 0.2 -->
      <g transform="translate(48.91625 145.254107143)scale(0.12 -0.12)">
       <use xlink:href="#BitstreamVeraSans-Roman-30"/>
       <use x="63.623046875" xlink:href="#BitstreamVeraSans-Roman-2e"/>
       <use x="95.41015625" xlink:href="#BitstreamVeraSans-Roman-32"/>
      </g>
     </g>
    </g>
    <g id="ytick_7">
     <g id="line2d_42">
      <path clip-path="url(#p14086a2791)" d="M 72 92.571429 
L 518.4 92.571429 
" style="fill:none;stroke:#000000;stroke-dasharray:1.000000,3.000000;stroke-dashoffset:0.0;stroke-width:0.5;"/>
     </g>
     <g id="line2d_43">
      <g>
       <use style="stroke:#000000;stroke-width:0.5;" x="72.0" xlink:href="#m73826166dd" y="92.5714285714"/>
      </g>
     </g>
     <g id="line2d_44">
      <g>
       <use style="stroke:#000000;stroke-width:0.5;" x="518.4" xlink:href="#m4c68658aaf" y="92.5714285714"/>
      </g>
     </g>
     <g id="text_15">
      <!-- 0.4 -->
      <g transform="translate(48.91625 95.8826785714)scale(0.12 -0.12)">
       <use xlink:href="#BitstreamVeraSans-Roman-30"/>
       <use x="63.623046875" xlink:href="#BitstreamVeraSans-Roman-2e"/>
       <use x="95.41015625" xlink:href="#BitstreamVeraSans-Roman-34"/>
      </g>
     </g>
    </g>
    <g id="ytick_8">
     <g id="line2d_45">
      <path clip-path="url(#p14086a2791)" d="M 72 43.2 
L 518.4 43.2 
" style="fill:none;stroke:#000000;stroke-dasharray:1.000000,3.000000;stroke-dashoffset:0.0;stroke-width:0.5;"/>
     </g>
     <g id="line2d_46">
      <g>
       <use style="stroke:#000000;stroke-width:0.5;" x="72.0" xlink:href="#m73826166dd" y="43.2"/>
      </g>
     </g>
     <g id="line2d_47">
      <g>
       <use style="stroke:#000000;stroke-width:0.5;" x="518.4" xlink:href="#m4c68658aaf" y="43.2"/>
      </g>
     </g>
     <g id="text_16">
      <!-- 0.6 -->
      <g transform="translate(48.91625 46.51125)scale(0.12 -0.12)">
       <use xlink:href="#BitstreamVeraSans-Roman-30"/>
       <use x="63.623046875" xlink:href="#BitstreamVeraSans-Roman-2e"/>
       <use x="95.41015625" xlink:href="#BitstreamVeraSans-Roman-36"/>
      </g>
     </g>
    </g>
    <g id="text_17">
     <!-- Accel Cmd [m/s^2] -->
     <defs>
      <path d="M 46.6875 72.90625 
L 73.1875 45.703125 
L 63.375 45.703125 
L 41.890625 64.984375 
L 20.40625 45.703125 
L 10.59375 45.703125 
L 37.109375 72.90625 
z
" id="BitstreamVeraSans-Roman-5e"/>
      <path d="M 9.421875 75.984375 
L 18.40625 75.984375 
L 18.40625 0 
L 9.421875 0 
z
" id="BitstreamVeraSans-Roman-6c"/>
      <path d="M 64.40625 67.28125 
L 64.40625 56.890625 
Q 59.421875 61.53125 53.78125 63.8125 
Q 48.140625 66.109375 41.796875 66.109375 
Q 29.296875 66.109375 22.65625 58.46875 
Q 16.015625 50.828125 16.015625 36.375 
Q 16.015625 21.96875 22.65625 14.328125 
Q 29.296875 6.6875 41.796875 6.6875 
Q 48.140625 6.6875 53.78125 8.984375 
Q 59.421875 11.28125 64.40625 15.921875 
L 64.40625 5.609375 
Q 59.234375 2.09375 53.4375 0.328125 
Q 47.65625 -1.421875 41.21875 -1.421875 
Q 24.65625 -1.421875 15.125 8.703125 
Q 5.609375 18.84375 5.609375 36.375 
Q 5.609375 53.953125 15.125 64.078125 
Q 24.65625 74.21875 41.21875 74.21875 
Q 47.75 74.21875 53.53125 72.484375 
Q 59.328125 70.75 64.40625 67.28125 
" id="BitstreamVeraSans-Roman-43"/>
      <path d="M 34.1875 63.1875 
L 20.796875 26.90625 
L 47.609375 26.90625 
z
M 28.609375 72.90625 
L 39.796875 72.90625 
L 67.578125 0 
L 57.328125 0 
L 50.6875 18.703125 
L 17.828125 18.703125 
L 11.1875 0 
L 0.78125 0 
z
" id="BitstreamVeraSans-Roman-41"/>
      <path d="M 25.390625 72.90625 
L 33.6875 72.90625 
L 8.296875 -9.28125 
L 0 -9.28125 
z
" id="BitstreamVeraSans-Roman-2f"/>
      <path d="M 45.40625 46.390625 
L 45.40625 75.984375 
L 54.390625 75.984375 
L 54.390625 0 
L 45.40625 0 
L 45.40625 8.203125 
Q 42.578125 3.328125 38.25 0.953125 
Q 33.9375 -1.421875 27.875 -1.421875 
Q 17.96875 -1.421875 11.734375 6.484375 
Q 5.515625 14.40625 5.515625 27.296875 
Q 5.515625 40.1875 11.734375 48.09375 
Q 17.96875 56 27.875 56 
Q 33.9375 56 38.25 53.625 
Q 42.578125 51.265625 45.40625 46.390625 
M 14.796875 27.296875 
Q 14.796875 17.390625 18.875 11.75 
Q 22.953125 6.109375 30.078125 6.109375 
Q 37.203125 6.109375 41.296875 11.75 
Q 45.40625 17.390625 45.40625 27.296875 
Q 45.40625 37.203125 41.296875 42.84375 
Q 37.203125 48.484375 30.078125 48.484375 
Q 22.953125 48.484375 18.875 42.84375 
Q 14.796875 37.203125 14.796875 27.296875 
" id="BitstreamVeraSans-Roman-64"/>
      <path d="M 48.78125 52.59375 
L 48.78125 44.1875 
Q 44.96875 46.296875 41.140625 47.34375 
Q 37.3125 48.390625 33.40625 48.390625 
Q 24.65625 48.390625 19.8125 42.84375 
Q 14.984375 37.3125 14.984375 27.296875 
Q 14.984375 17.28125 19.8125 11.734375 
Q 24.65625 6.203125 33.40625 6.203125 
Q 37.3125 6.203125 41.140625 7.25 
Q 44.96875 8.296875 48.78125 10.40625 
L 48.78125 2.09375 
Q 45.015625 0.34375 40.984375 -0.53125 
Q 36.96875 -1.421875 32.421875 -1.421875 
Q 20.0625 -1.421875 12.78125 6.34375 
Q 5.515625 14.109375 5.515625 27.296875 
Q 5.515625 40.671875 12.859375 48.328125 
Q 20.21875 56 33.015625 56 
Q 37.15625 56 41.109375 55.140625 
Q 45.0625 54.296875 48.78125 52.59375 
" id="BitstreamVeraSans-Roman-63"/>
     </defs>
     <g transform="translate(31.365 274.235625)rotate(-90.0)scale(0.12 -0.12)">
      <use xlink:href="#BitstreamVeraSans-Roman-41"/>
      <use x="68.392578125" xlink:href="#BitstreamVeraSans-Roman-63"/>
      <use x="123.373046875" xlink:href="#BitstreamVeraSans-Roman-63"/>
      <use x="178.353515625" xlink:href="#BitstreamVeraSans-Roman-65"/>
      <use x="239.876953125" xlink:href="#BitstreamVeraSans-Roman-6c"/>
      <use x="267.66015625" xlink:href="#BitstreamVeraSans-Roman-20"/>
      <use x="299.447265625" xlink:href="#BitstreamVeraSans-Roman-43"/>
      <use x="369.271484375" xlink:href="#BitstreamVeraSans-Roman-6d"/>
      <use x="466.68359375" xlink:href="#BitstreamVeraSans-Roman-64"/>
      <use x="530.16015625" xlink:href="#BitstreamVeraSans-Roman-20"/>
      <use x="561.947265625" xlink:href="#BitstreamVeraSans-Roman-5b"/>
      <use x="600.9609375" xlink:href="#BitstreamVeraSans-Roman-6d"/>
      <use x="698.373046875" xlink:href="#BitstreamVeraSans-Roman-2f"/>
      <use x="732.064453125" xlink:href="#BitstreamVeraSans-Roman-73"/>
      <use x="784.1640625" xlink:href="#BitstreamVeraSans-Roman-5e"/>
      <use x="867.953125" xlink:href="#BitstreamVeraSans-Roman-32"/>
      <use x="931.576171875" xlink:href="#BitstreamVeraSans-Roman-5d"/>
     </g>
    </g>
   </g>
   <g id="legend_1">
    <g id="patch_7">
     <path d="M 371.673 96.993 
L 511.2 96.993 
L 511.2 50.4 
L 371.673 50.4 
z
" style="fill:#ffffff;stroke:#000000;stroke-linejoin:miter;"/>
    </g>
    <g id="line2d_48">
     <path d="M 381.753 62.06175 
L 401.913 62.06175 
" style="fill:none;stroke:#008000;stroke-linecap:square;"/>
    </g>
    <g id="line2d_49"/>
    <g id="text_18">
     <!-- Proportional -->
     <defs>
      <path d="M 54.890625 33.015625 
L 54.890625 0 
L 45.90625 0 
L 45.90625 32.71875 
Q 45.90625 40.484375 42.875 44.328125 
Q 39.84375 48.1875 33.796875 48.1875 
Q 26.515625 48.1875 22.3125 43.546875 
Q 18.109375 38.921875 18.109375 30.90625 
L 18.109375 0 
L 9.078125 0 
L 9.078125 54.6875 
L 18.109375 54.6875 
L 18.109375 46.1875 
Q 21.34375 51.125 25.703125 53.5625 
Q 30.078125 56 35.796875 56 
Q 45.21875 56 50.046875 50.171875 
Q 54.890625 44.34375 54.890625 33.015625 
" id="BitstreamVeraSans-Roman-6e"/>
      <path d="M 34.28125 27.484375 
Q 23.390625 27.484375 19.1875 25 
Q 14.984375 22.515625 14.984375 16.5 
Q 14.984375 11.71875 18.140625 8.90625 
Q 21.296875 6.109375 26.703125 6.109375 
Q 34.1875 6.109375 38.703125 11.40625 
Q 43.21875 16.703125 43.21875 25.484375 
L 43.21875 27.484375 
z
M 52.203125 31.203125 
L 52.203125 0 
L 43.21875 0 
L 43.21875 8.296875 
Q 40.140625 3.328125 35.546875 0.953125 
Q 30.953125 -1.421875 24.3125 -1.421875 
Q 15.921875 -1.421875 10.953125 3.296875 
Q 6 8.015625 6 15.921875 
Q 6 25.140625 12.171875 29.828125 
Q 18.359375 34.515625 30.609375 34.515625 
L 43.21875 34.515625 
L 43.21875 35.40625 
Q 43.21875 41.609375 39.140625 45 
Q 35.0625 48.390625 27.6875 48.390625 
Q 23 48.390625 18.546875 47.265625 
Q 14.109375 46.140625 10.015625 43.890625 
L 10.015625 52.203125 
Q 14.9375 54.109375 19.578125 55.046875 
Q 24.21875 56 28.609375 56 
Q 40.484375 56 46.34375 49.84375 
Q 52.203125 43.703125 52.203125 31.203125 
" id="BitstreamVeraSans-Roman-61"/>
      <path d="M 30.609375 48.390625 
Q 23.390625 48.390625 19.1875 42.75 
Q 14.984375 37.109375 14.984375 27.296875 
Q 14.984375 17.484375 19.15625 11.84375 
Q 23.34375 6.203125 30.609375 6.203125 
Q 37.796875 6.203125 41.984375 11.859375 
Q 46.1875 17.53125 46.1875 27.296875 
Q 46.1875 37.015625 41.984375 42.703125 
Q 37.796875 48.390625 30.609375 48.390625 
M 30.609375 56 
Q 42.328125 56 49.015625 48.375 
Q 55.71875 40.765625 55.71875 27.296875 
Q 55.71875 13.875 49.015625 6.21875 
Q 42.328125 -1.421875 30.609375 -1.421875 
Q 18.84375 -1.421875 12.171875 6.21875 
Q 5.515625 13.875 5.515625 27.296875 
Q 5.515625 40.765625 12.171875 48.375 
Q 18.84375 56 30.609375 56 
" id="BitstreamVeraSans-Roman-6f"/>
      <path d="M 19.671875 64.796875 
L 19.671875 37.40625 
L 32.078125 37.40625 
Q 38.96875 37.40625 42.71875 40.96875 
Q 46.484375 44.53125 46.484375 51.125 
Q 46.484375 57.671875 42.71875 61.234375 
Q 38.96875 64.796875 32.078125 64.796875 
z
M 9.8125 72.90625 
L 32.078125 72.90625 
Q 44.34375 72.90625 50.609375 67.359375 
Q 56.890625 61.8125 56.890625 51.125 
Q 56.890625 40.328125 50.609375 34.8125 
Q 44.34375 29.296875 32.078125 29.296875 
L 19.671875 29.296875 
L 19.671875 0 
L 9.8125 0 
z
" id="BitstreamVeraSans-Roman-50"/>
      <path d="M 18.3125 70.21875 
L 18.3125 54.6875 
L 36.8125 54.6875 
L 36.8125 47.703125 
L 18.3125 47.703125 
L 18.3125 18.015625 
Q 18.3125 11.328125 20.140625 9.421875 
Q 21.96875 7.515625 27.59375 7.515625 
L 36.8125 7.515625 
L 36.8125 0 
L 27.59375 0 
Q 17.1875 0 13.234375 3.875 
Q 9.28125 7.765625 9.28125 18.015625 
L 9.28125 47.703125 
L 2.6875 47.703125 
L 2.6875 54.6875 
L 9.28125 54.6875 
L 9.28125 70.21875 
z
" id="BitstreamVeraSans-Roman-74"/>
      <path d="M 41.109375 46.296875 
Q 39.59375 47.171875 37.8125 47.578125 
Q 36.03125 48 33.890625 48 
Q 26.265625 48 22.1875 43.046875 
Q 18.109375 38.09375 18.109375 28.8125 
L 18.109375 0 
L 9.078125 0 
L 9.078125 54.6875 
L 18.109375 54.6875 
L 18.109375 46.1875 
Q 20.953125 51.171875 25.484375 53.578125 
Q 30.03125 56 36.53125 56 
Q 37.453125 56 38.578125 55.875 
Q 39.703125 55.765625 41.0625 55.515625 
z
" id="BitstreamVeraSans-Roman-72"/>
      <path d="M 18.109375 8.203125 
L 18.109375 -20.796875 
L 9.078125 -20.796875 
L 9.078125 54.6875 
L 18.109375 54.6875 
L 18.109375 46.390625 
Q 20.953125 51.265625 25.265625 53.625 
Q 29.59375 56 35.59375 56 
Q 45.5625 56 51.78125 48.09375 
Q 58.015625 40.1875 58.015625 27.296875 
Q 58.015625 14.40625 51.78125 6.484375 
Q 45.5625 -1.421875 35.59375 -1.421875 
Q 29.59375 -1.421875 25.265625 0.953125 
Q 20.953125 3.328125 18.109375 8.203125 
M 48.6875 27.296875 
Q 48.6875 37.203125 44.609375 42.84375 
Q 40.53125 48.484375 33.40625 48.484375 
Q 26.265625 48.484375 22.1875 42.84375 
Q 18.109375 37.203125 18.109375 27.296875 
Q 18.109375 17.390625 22.1875 11.75 
Q 26.265625 6.109375 33.40625 6.109375 
Q 40.53125 6.109375 44.609375 11.75 
Q 48.6875 17.390625 48.6875 27.296875 
" id="BitstreamVeraSans-Roman-70"/>
     </defs>
     <g transform="translate(417.753 67.10175)scale(0.144 -0.144)">
      <use xlink:href="#BitstreamVeraSans-Roman-50"/>
      <use x="60.287109375" xlink:href="#BitstreamVeraSans-Roman-72"/>
      <use x="101.369140625" xlink:href="#BitstreamVeraSans-Roman-6f"/>
      <use x="162.55078125" xlink:href="#BitstreamVeraSans-Roman-70"/>
      <use x="226.02734375" xlink:href="#BitstreamVeraSans-Roman-6f"/>
      <use x="287.208984375" xlink:href="#BitstreamVeraSans-Roman-72"/>
      <use x="328.322265625" xlink:href="#BitstreamVeraSans-Roman-74"/>
      <use x="367.53125" xlink:href="#BitstreamVeraSans-Roman-69"/>
      <use x="395.314453125" xlink:href="#BitstreamVeraSans-Roman-6f"/>
      <use x="456.49609375" xlink:href="#BitstreamVeraSans-Roman-6e"/>
      <use x="519.875" xlink:href="#BitstreamVeraSans-Roman-61"/>
      <use x="581.154296875" xlink:href="#BitstreamVeraSans-Roman-6c"/>
     </g>
    </g>
    <g id="line2d_50">
     <path d="M 381.753 83.19825 
L 401.913 83.19825 
" style="fill:none;stroke:#0000ff;stroke-linecap:square;"/>
    </g>
    <g id="line2d_51"/>
    <g id="text_19">
     <!-- Integral -->
     <defs>
      <path d="M 45.40625 27.984375 
Q 45.40625 37.75 41.375 43.109375 
Q 37.359375 48.484375 30.078125 48.484375 
Q 22.859375 48.484375 18.828125 43.109375 
Q 14.796875 37.75 14.796875 27.984375 
Q 14.796875 18.265625 18.828125 12.890625 
Q 22.859375 7.515625 30.078125 7.515625 
Q 37.359375 7.515625 41.375 12.890625 
Q 45.40625 18.265625 45.40625 27.984375 
M 54.390625 6.78125 
Q 54.390625 -7.171875 48.1875 -13.984375 
Q 42 -20.796875 29.203125 -20.796875 
Q 24.46875 -20.796875 20.265625 -20.09375 
Q 16.0625 -19.390625 12.109375 -17.921875 
L 12.109375 -9.1875 
Q 16.0625 -11.328125 19.921875 -12.34375 
Q 23.78125 -13.375 27.78125 -13.375 
Q 36.625 -13.375 41.015625 -8.765625 
Q 45.40625 -4.15625 45.40625 5.171875 
L 45.40625 9.625 
Q 42.625 4.78125 38.28125 2.390625 
Q 33.9375 0 27.875 0 
Q 17.828125 0 11.671875 7.65625 
Q 5.515625 15.328125 5.515625 27.984375 
Q 5.515625 40.671875 11.671875 48.328125 
Q 17.828125 56 27.875 56 
Q 33.9375 56 38.28125 53.609375 
Q 42.625 51.21875 45.40625 46.390625 
L 45.40625 54.6875 
L 54.390625 54.6875 
z
" id="BitstreamVeraSans-Roman-67"/>
      <path d="M 9.8125 72.90625 
L 19.671875 72.90625 
L 19.671875 0 
L 9.8125 0 
z
" id="BitstreamVeraSans-Roman-49"/>
     </defs>
     <g transform="translate(417.753 88.23825)scale(0.144 -0.144)">
      <use xlink:href="#BitstreamVeraSans-Roman-49"/>
      <use x="29.4921875" xlink:href="#BitstreamVeraSans-Roman-6e"/>
      <use x="92.87109375" xlink:href="#BitstreamVeraSans-Roman-74"/>
      <use x="132.080078125" xlink:href="#BitstreamVeraSans-Roman-65"/>
      <use x="193.603515625" xlink:href="#BitstreamVeraSans-Roman-67"/>
      <use x="257.080078125" xlink:href="#BitstreamVeraSans-Roman-72"/>
      <use x="298.193359375" xlink:href="#BitstreamVeraSans-Roman-61"/>
      <use x="359.47265625" xlink:href="#BitstreamVeraSans-Roman-6c"/>
     </g>
    </g>
   </g>
  </g>
 </g>
 <defs>
  <clipPath id="p14086a2791">
   <rect height="345.6" width="446.4" x="72.0" y="43.2"/>
  </clipPath>
 </defs>
</svg>
