<?xml version="1.0" encoding="utf-8" standalone="no"?>
<!DOCTYPE svg PUBLIC "-//W3C//DTD SVG 1.1//EN"
  "http://www.w3.org/Graphics/SVG/1.1/DTD/svg11.dtd">
<!-- Created with matplotlib (http://matplotlib.org/) -->
<svg height="432pt" version="1.1" viewBox="0 0 576 432" width="576pt" xmlns="http://www.w3.org/2000/svg" xmlns:xlink="http://www.w3.org/1999/xlink">
 <defs>
  <style type="text/css">
*{stroke-linecap:butt;stroke-linejoin:round;stroke-miterlimit:100000;}
  </style>
 </defs>
 <g id="figure_1">
  <g id="patch_1">
   <path d="M 0 432 
L 576 432 
L 576 0 
L 0 0 
z
" style="fill:#ffffff;"/>
  </g>
  <g id="axes_1">
   <g id="patch_2">
    <path d="M 72 388.8 
L 518.4 388.8 
L 518.4 43.2 
L 72 43.2 
z
" style="fill:#ffffff;"/>
   </g>
   <g id="line2d_1">
    <path clip-path="url(#p6a4bd705a8)" d="M 72.1488 92.590852 
L 92.088 95.107448 
L 93.7248 95.008486 
L 95.808 95.169989 
L 104.5872 96.413061 
L 106.0752 96.93117 
L 109.4976 98.504284 
L 113.5152 100.580906 
L 117.6816 102.970771 
L 122.4432 105.963909 
L 127.056 109.10477 
L 133.3056 113.640805 
L 146.4 123.50927 
L 178.8384 147.933157 
L 187.32 153.904757 
L 194.6112 158.800169 
L 200.5632 162.520049 
L 210.0864 168.265786 
L 216.4848 171.815582 
L 223.776 175.578602 
L 229.1328 178.089478 
L 234.3408 180.287427 
L 238.8048 181.943902 
L 243.12 183.358272 
L 249.5184 183.895486 
L 259.1904 184.327906 
L 283.7424 185.271112 
L 326.2992 187.127177 
L 345.6432 187.943646 
L 351.5952 188.16144 
L 388.4976 189.264043 
L 459.4752 190.424382 
L 466.1712 190.503694 
L 479.712 190.63048 
L 493.2528 190.679357 
L 503.8176 190.754677 
L 512.7456 190.888794 
L 518.4 190.974258 
L 518.4 190.974258 
" style="fill:none;stroke:#ff0000;stroke-linecap:square;"/>
   </g>
   <g id="line2d_2">
    <path clip-path="url(#p6a4bd705a8)" d="M 72.1488 265.527947 
L 72.2976 265.527947 
L 72.4464 92.599567 
L 73.6368 92.751984 
L 74.3808 92.843425 
L 76.0176 93.087282 
L 77.0592 93.178723 
L 78.8448 93.453068 
L 79.7376 93.54453 
L 81.2256 93.7579 
L 82.1184 93.849362 
L 83.4576 94.032245 
L 84.2016 94.123707 
L 85.8384 94.367564 
L 86.88 94.459005 
L 88.368 94.672396 
L 89.2608 94.763838 
L 91.0464 95.038182 
L 91.7904 95.099136 
L 92.5344 95.549537 
L 92.6832 95.549537 
L 93.8736 96.340756 
L 94.0224 96.340756 
L 95.064 97.021993 
L 95.2128 97.021993 
L 96.4032 97.820439 
L 96.552 97.820439 
L 97.5936 98.50766 
L 97.7424 98.50766 
L 99.0816 99.425928 
L 99.2304 99.425928 
L 122.8896 117.672157 
L 123.0384 117.672157 
L 123.336 118.123885 
L 127.3536 121.034792 
L 132.264 124.558397 
L 132.7104 124.827832 
L 133.752 125.454605 
L 134.1984 125.721997 
L 135.24 126.358735 
L 136.1328 126.895331 
L 136.4304 127.052234 
L 136.8768 127.315497 
L 137.7696 127.826851 
L 138.5136 128.150182 
L 140.2992 129.289573 
L 140.7456 129.518429 
L 142.0848 130.339757 
L 142.68 130.641049 
L 143.8704 131.334759 
L 144.912 131.902853 
L 147.144 133.320066 
L 147.7392 133.57509 
L 149.5248 134.645331 
L 155.0304 137.862102 
L 155.4768 138.169947 
L 155.9232 138.39914 
L 156.6672 138.668176 
L 157.2624 138.989737 
L 157.56 139.083959 
L 158.0064 139.329144 
L 158.304 139.423092 
L 162.4704 141.915476 
L 165.4464 143.61287 
L 167.3808 144.695479 
L 167.5296 144.871492 
L 167.8272 144.95952 
L 172.8864 147.828141 
L 174.672 148.77441 
L 182.4096 153.029313 
L 182.7072 153.129603 
L 185.5344 154.691646 
L 185.9808 155.040851 
L 187.4688 155.764774 
L 191.3376 157.625624 
L 191.4864 157.625624 
L 191.9328 157.921291 
L 192.2304 157.995097 
L 193.272 158.435342 
L 193.5696 158.508305 
L 194.9088 159.089884 
L 195.2064 159.162089 
L 195.8016 159.378177 
L 196.0992 159.449813 
L 196.992 159.807761 
L 197.1408 159.807761 
L 197.4384 160.092366 
L 198.3312 160.801394 
L 198.6288 161.013373 
L 199.224 161.436658 
L 200.1168 161.927785 
L 200.5632 162.207418 
L 206.8128 165.010703 
L 207.1104 165.077682 
L 208.4496 165.610843 
L 208.5984 165.610843 
L 208.7472 165.80957 
L 209.0448 165.875854 
L 209.4912 166.140191 
L 210.5328 166.535242 
L 210.8304 166.60081 
L 212.3184 167.187741 
L 212.616 167.252635 
L 213.9552 167.898349 
L 214.4016 168.155206 
L 215.4432 168.539195 
L 215.7408 168.602994 
L 216.7824 169.110787 
L 217.2288 169.363999 
L 218.8656 169.993237 
L 219.1632 170.055961 
L 222.5856 171.4213 
L 222.8832 171.475659 
L 223.9248 171.807144 
L 224.6688 171.954693 
L 225.8592 172.341254 
L 226.3056 172.413479 
L 228.0912 173.031951 
L 228.3888 173.094822 
L 228.984 173.257499 
L 229.2816 173.320075 
L 229.728 173.435872 
L 230.0256 173.498111 
L 230.3232 173.611739 
L 230.7696 173.676148 
L 231.3648 173.823296 
L 231.6624 173.884924 
L 232.1088 173.98631 
L 232.4064 174.047643 
L 233.0016 174.195445 
L 233.2992 174.256462 
L 233.7456 174.358396 
L 234.3408 174.477017 
L 234.7872 174.538076 
L 235.2336 174.654716 
L 235.68 174.715607 
L 236.1264 174.776539 
L 236.5728 174.837283 
L 237.168 174.944315 
L 238.0608 175.096183 
L 238.656 175.212697 
L 239.9952 175.453099 
L 242.376 175.84204 
L 242.6736 175.900929 
L 243.2688 176.019466 
L 244.3104 176.151255 
L 245.352 176.255822 
L 246.096 176.428086 
L 246.84 176.502545 
L 247.2864 176.658332 
L 247.8816 176.51308 
L 248.1792 176.571021 
L 248.7744 176.72862 
L 249.5184 176.802173 
L 250.1136 176.943317 
L 251.0064 177.133742 
L 251.6016 177.17546 
L 255.3216 177.575841 
L 255.6192 177.655652 
L 256.6608 177.730154 
L 256.9584 177.846183 
L 257.7024 177.872983 
L 257.8512 177.873826 
L 258.1488 178.04788 
L 259.488 178.146738 
L 260.0832 178.285417 
L 260.6784 178.301977 
L 260.976 178.476095 
L 263.6544 178.568674 
L 264.3984 178.752146 
L 265.44 178.826753 
L 266.0352 178.967159 
L 267.0768 179.02982 
L 267.672 179.166413 
L 268.5648 179.241041 
L 269.16 179.381531 
L 269.904 179.454621 
L 270.4992 179.595892 
L 273.1776 179.708676 
L 273.7728 179.847776 
L 274.8144 179.921035 
L 275.4096 180.047093 
L 276.3024 180.122458 
L 276.8976 180.262296 
L 277.9392 180.351482 
L 278.5344 180.493427 
L 279.576 180.568139 
L 280.0224 180.627555 
L 281.5104 180.743963 
L 295.3488 182.267997 
L 295.7952 182.349894 
L 298.7712 182.44812 
L 299.5152 182.631634 
L 303.9792 183.016067 
L 305.0208 183.076599 
L 305.3184 183.14558 
L 306.8064 183.236137 
L 307.4016 183.37648 
L 309.0384 183.467078 
L 309.6336 183.592652 
L 311.7168 183.700864 
L 313.2048 183.705458 
L 313.5024 183.873676 
L 315.4368 183.96518 
L 316.032 184.105249 
L 317.6688 184.181394 
L 318.264 184.321105 
L 319.9008 184.428454 
L 320.3472 184.487575 
L 322.2816 184.549645 
L 322.728 184.634302 
L 324.6624 184.725849 
L 325.2576 184.866782 
L 327.0432 184.973583 
L 327.6384 185.114874 
L 331.9536 185.228501 
L 332.6976 185.428282 
L 334.7808 185.520207 
L 335.376 185.637796 
L 338.7984 185.749063 
L 340.584 185.950255 
L 341.4768 185.98148 
L 345.3456 186.084172 
L 346.0896 186.143588 
L 346.6848 186.269941 
L 349.3632 186.377774 
L 349.9584 186.502442 
L 351.2976 186.551281 
L 352.488 186.626498 
L 353.0832 186.767558 
L 359.184 186.881396 
L 359.928 187.080397 
L 366.624 187.19139 
L 367.2192 187.359988 
L 370.4928 187.409754 
L 370.7904 187.586083 
L 381.9504 187.971569 
L 383.736 188.046871 
L 384.3312 188.170759 
L 393.408 188.28327 
L 394.152 188.466511 
L 398.9136 188.575165 
L 399.5088 188.699538 
L 408.8832 188.812154 
L 410.0736 188.828314 
L 410.6688 188.88733 
L 411.264 189.011534 
L 416.9184 189.077797 
L 417.6624 189.261227 
L 426.2928 189.373296 
L 427.3344 189.389709 
L 432.2448 189.465643 
L 432.84 189.589657 
L 440.4288 189.656447 
L 441.1728 189.839561 
L 442.2144 189.856248 
L 462.3024 189.968338 
L 463.0464 190.151346 
L 475.248 190.251215 
L 475.992 190.434688 
L 476.5872 190.372723 
L 477.0336 190.262804 
L 481.6464 190.321903 
L 482.2416 190.451333 
L 482.8368 190.262804 
L 485.664 190.321903 
L 486.2592 190.451333 
L 486.5568 190.389346 
L 487.0032 190.262804 
L 488.4912 190.321903 
L 489.0864 190.451333 
L 489.5328 190.389346 
L 489.9792 190.262804 
L 490.4256 190.321903 
L 491.0208 190.446234 
L 507.8352 190.513045 
L 508.5792 190.696412 
L 517.0608 190.79647 
L 517.9536 190.813136 
L 518.4 190.688806 
L 518.4 190.688806 
" style="fill:none;stroke:#bfbf00;stroke-dasharray:6.000000,6.000000;stroke-dashoffset:0.0;"/>
   </g>
   <g id="line2d_3">
    <path clip-path="url(#p6a4bd705a8)" d="M 72.1488 388.8 
L 72.2976 388.8 
L 72.4464 219.85616 
L 72.744 220.008355 
L 72.8928 91.969297 
L 73.7856 92.520789 
L 73.9344 92.520789 
L 74.0832 92.697603 
L 74.3808 92.749097 
L 75.1248 93.200235 
L 75.2736 93.049083 
L 75.72 93.375638 
L 76.464 93.806992 
L 76.6128 93.806992 
L 77.208 94.187463 
L 77.8032 94.546422 
L 77.952 94.471774 
L 79.2912 95.238784 
L 79.7376 95.548357 
L 80.0352 95.623849 
L 80.184 95.688152 
L 80.3328 95.881148 
L 80.6304 95.733051 
L 81.0768 96.066875 
L 81.8208 96.508511 
L 81.9696 96.508511 
L 82.7136 97.081683 
L 83.6064 97.326467 
L 83.7552 97.326467 
L 84.0528 97.642234 
L 84.3504 97.718948 
L 84.7968 98.112566 
L 85.392 98.430209 
L 85.5408 98.561977 
L 85.6896 98.362471 
L 85.9872 98.57169 
L 86.136 98.57169 
L 86.2848 98.758765 
L 86.5824 98.836153 
L 87.1776 99.211357 
L 87.624 99.477126 
L 88.0704 99.876729 
L 88.2192 99.932246 
L 88.368 99.756127 
L 88.6656 99.867311 
L 89.7072 100.537423 
L 90.4512 101.075957 
L 90.8976 101.346046 
L 91.0464 101.148541 
L 91.344 101.28387 
L 91.6416 101.475938 
L 92.3856 102.00832 
L 94.7664 103.190377 
L 95.064 103.374861 
L 95.2128 103.374861 
L 95.6592 103.756048 
L 96.2544 104.080348 
L 96.8496 104.497628 
L 97.4448 104.846411 
L 97.7424 104.72168 
L 98.04 105.012964 
L 98.4864 105.189905 
L 98.784 105.482285 
L 99.3792 105.834692 
L 99.8256 106.176923 
L 99.9744 106.176923 
L 100.1232 106.318593 
L 100.272 106.207347 
L 100.8672 106.573828 
L 101.76 107.182523 
L 102.8016 107.83932 
L 102.9504 107.708226 
L 103.992 108.369405 
L 104.2896 108.514341 
L 104.4384 108.575716 
L 104.5872 108.804741 
L 105.1824 108.887986 
L 105.3312 108.972032 
L 105.48 109.202173 
L 105.6288 109.202173 
L 105.7776 109.454964 
L 106.224 109.478182 
L 106.3728 109.669492 
L 106.5216 109.669492 
L 106.6704 109.945691 
L 107.1168 109.970132 
L 107.2656 110.184471 
L 107.712 110.23194 
L 108.3072 110.810105 
L 108.6048 110.773508 
L 108.7536 111.074632 
L 109.2 111.102106 
L 109.3488 111.340443 
L 109.4976 111.340443 
L 109.6464 111.620477 
L 109.7952 111.620477 
L 109.944 111.499265 
L 110.5392 112.083182 
L 110.688 111.940205 
L 111.1344 112.375099 
L 111.2832 112.296973 
L 111.8784 112.842207 
L 112.0272 112.722238 
L 112.4736 113.137347 
L 112.6224 113.082883 
L 113.2176 113.631151 
L 113.3664 113.48986 
L 113.8128 113.92962 
L 113.9616 113.810873 
L 114.408 114.251645 
L 114.5568 114.177207 
L 115.0032 114.641408 
L 115.152 114.501338 
L 115.5984 114.94447 
L 115.7472 114.826945 
L 116.1936 115.293274 
L 116.3424 115.153984 
L 116.7888 115.621409 
L 116.9376 115.504663 
L 117.384 115.951082 
L 117.5328 115.902327 
L 117.9792 116.304353 
L 118.128 116.234234 
L 118.5744 116.70524 
L 118.7232 116.589738 
L 119.1696 117.061882 
L 119.3184 116.946822 
L 119.7648 117.420104 
L 119.9136 117.305486 
L 120.2112 117.644704 
L 120.36 117.530423 
L 120.8064 118.005854 
L 120.9552 117.892016 
L 121.4016 118.390666 
L 121.5504 118.277249 
L 121.848 118.549066 
L 121.9968 118.506 
L 122.4432 118.914515 
L 122.592 118.894246 
L 123.336 119.557658 
L 123.4848 119.557658 
L 123.6336 119.445822 
L 123.9312 119.790854 
L 124.08 119.701351 
L 124.5264 120.184536 
L 124.6752 120.095497 
L 125.1216 120.491412 
L 125.2704 120.491412 
L 125.4192 120.767042 
L 125.7168 120.678782 
L 125.8656 120.961533 
L 126.1632 120.939347 
L 126.312 121.237795 
L 126.4608 121.201156 
L 126.9072 121.638767 
L 127.2048 121.529817 
L 127.5024 121.815982 
L 127.6512 121.815982 
L 127.8 122.094161 
L 127.9488 122.094161 
L 128.544 122.521554 
L 128.6928 122.575344 
L 128.8416 122.81109 
L 129.288 122.865597 
L 129.5856 123.060573 
L 129.7344 123.060573 
L 130.3296 123.493591 
L 130.6272 123.549931 
L 130.9248 123.928611 
L 131.52 124.043524 
L 131.6688 124.445549 
L 131.9664 124.340918 
L 132.264 124.563158 
L 132.4128 124.563158 
L 132.5616 124.868349 
L 132.7104 124.868349 
L 133.008 125.005089 
L 133.3056 125.087175 
L 133.4544 125.393419 
L 133.9008 125.454605 
L 134.1984 125.839185 
L 134.7936 126.128762 
L 134.9424 126.128762 
L 135.24 126.435617 
L 135.3888 126.435617 
L 135.5376 126.600738 
L 135.6864 126.521328 
L 135.8352 126.830374 
L 136.1328 126.895331 
L 136.4304 127.060915 
L 136.5792 127.060915 
L 136.728 127.372005 
L 137.0256 127.4385 
L 137.1744 127.604653 
L 137.3232 127.527012 
L 137.6208 127.838207 
L 137.9184 127.760967 
L 138.216 127.995891 
L 138.3648 127.995891 
L 138.5136 128.389151 
L 138.96 128.458617 
L 139.1088 128.793157 
L 139.5552 128.863529 
L 139.704 129.031094 
L 139.8528 128.934427 
L 140.2992 129.341825 
L 140.5968 129.414199 
L 140.8944 129.83367 
L 141.3408 129.907244 
L 142.3824 130.491372 
L 142.5312 130.491372 
L 142.68 130.809035 
L 143.1264 130.885728 
L 144.168 131.481613 
L 144.3168 131.481613 
L 144.4656 131.801657 
L 144.912 131.902853 
L 145.0608 132.223656 
L 145.5072 132.325906 
L 145.8048 132.407571 
L 145.9536 132.729638 
L 146.4 132.833573 
L 146.6976 133.089187 
L 146.8464 133.261472 
L 147.2928 133.346023 
L 147.5904 133.431249 
L 147.7392 133.776998 
L 148.1856 133.863404 
L 149.0784 134.517693 
L 149.2272 134.41184 
L 149.5248 134.82322 
L 149.8224 134.669498 
L 149.9712 135.018323 
L 150.12 134.934509 
L 150.4176 135.284029 
L 150.5664 135.200868 
L 150.7152 135.375934 
L 150.864 135.375934 
L 151.608 135.913478 
L 151.7568 135.913478 
L 152.6496 136.539976 
L 152.9472 136.480856 
L 153.096 136.834442 
L 153.5424 136.932352 
L 153.6912 137.266112 
L 154.1376 137.291564 
L 154.8816 137.67016 
L 155.0304 138.109478 
L 155.1792 137.9712 
L 155.7744 138.335658 
L 155.9232 138.494037 
L 156.2208 138.439762 
L 156.3696 138.619084 
L 156.5184 138.619084 
L 156.816 138.806707 
L 156.9648 138.945259 
L 157.1136 138.851184 
L 157.2624 139.092872 
L 157.4112 139.092872 
L 157.8576 139.421744 
L 158.1552 139.329144 
L 158.4528 139.701419 
L 158.7504 140.053636 
L 158.8992 139.893698 
L 159.1968 140.256724 
L 159.3456 140.207317 
L 159.6432 140.550853 
L 159.792 140.401576 
L 160.0896 140.745766 
L 160.2384 140.697833 
L 160.536 141.042971 
L 160.6848 140.894158 
L 160.9824 141.26026 
L 161.1312 141.193554 
L 161.4288 141.560583 
L 161.5776 141.412255 
L 161.8752 141.75971 
L 162.024 141.714853 
L 162.3216 142.06332 
L 162.4704 141.915476 
L 162.768 142.26466 
L 162.9168 142.221425 
L 163.2144 142.487047 
L 163.3632 142.424323 
L 163.512 142.795377 
L 163.9584 142.753786 
L 164.1072 142.999918 
L 164.256 142.959002 
L 164.5536 143.205408 
L 164.7024 143.165208 
L 165 143.51871 
L 165.1488 143.479584 
L 165.744 143.875837 
L 165.8928 144.063565 
L 166.0416 143.897917 
L 166.488 144.442393 
L 166.6368 144.296972 
L 166.9344 144.674093 
L 167.0832 144.618765 
L 167.3808 144.887 
L 167.6784 145.021949 
L 167.8272 145.100959 
L 167.976 145.047296 
L 168.2736 145.427177 
L 168.4224 145.263173 
L 168.72 145.643876 
L 168.8688 145.592319 
L 169.0176 145.861733 
L 169.3152 145.811019 
L 169.6128 146.080708 
L 169.7616 146.0309 
L 170.3568 146.616987 
L 170.5056 146.4742 
L 170.8032 146.840154 
L 171.2496 146.890721 
L 171.8448 147.484056 
L 172.1424 147.517114 
L 172.2912 147.711458 
L 172.7376 147.745317 
L 173.184 148.150903 
L 173.6304 148.186489 
L 173.7792 148.382287 
L 173.928 148.361281 
L 174.0768 148.61502 
L 174.2256 148.61502 
L 174.3744 148.792382 
L 174.672 148.849164 
L 174.9696 149.008554 
L 175.1184 149.065694 
L 175.2672 149.263199 
L 175.5648 149.302725 
L 175.7136 149.500756 
L 175.8624 149.465465 
L 176.0112 149.720868 
L 176.4576 149.762312 
L 176.6064 149.96146 
L 176.904 150.003894 
L 177.2016 150.38466 
L 177.3504 150.247014 
L 177.7968 150.673795 
L 179.7312 151.708577 
L 179.88 151.893545 
L 180.0288 151.758364 
L 180.3264 152.147853 
L 180.4752 151.994721 
L 180.7728 152.254338 
L 180.9216 152.251367 
L 181.368 152.698481 
L 181.5168 152.564648 
L 181.8144 152.958182 
L 181.9632 152.806609 
L 182.2608 153.067617 
L 182.5584 153.050635 
L 182.856 153.312148 
L 183.1536 153.369036 
L 183.4512 153.76691 
L 183.6 153.635037 
L 183.8976 153.897498 
L 184.1952 153.938942 
L 184.344 154.148182 
L 184.4928 154.137542 
L 184.7904 154.47244 
L 185.088 154.516665 
L 185.2368 154.727359 
L 185.5344 154.720048 
L 185.6832 154.984658 
L 185.832 154.837615 
L 186.2784 155.314774 
L 186.7248 155.363571 
L 187.0224 155.627086 
L 188.5104 156.354949 
L 188.6592 156.571079 
L 188.808 156.427913 
L 189.2544 156.895969 
L 189.4032 156.75354 
L 189.7008 157.022344 
L 189.8496 157.030455 
L 189.9984 157.299954 
L 190.4448 157.377932 
L 190.5936 157.428667 
L 190.7424 157.631165 
L 191.04 157.710829 
L 191.3376 157.914464 
L 191.4864 157.914464 
L 192.0816 158.334378 
L 192.6768 158.468716 
L 192.8256 158.724794 
L 192.9744 158.603982 
L 193.272 158.860523 
L 193.5696 158.948045 
L 193.8672 159.205429 
L 194.1648 159.278687 
L 194.3136 159.504509 
L 194.76 159.580148 
L 194.9088 159.791116 
L 195.0576 159.791116 
L 195.3552 159.957354 
L 195.9504 160.27369 
L 196.0992 160.141627 
L 196.3968 160.466327 
L 196.5456 160.68054 
L 196.8432 160.764628 
L 197.8848 161.202534 
L 198.1824 161.528668 
L 198.48 161.400502 
L 198.7776 161.884972 
L 199.0752 161.75805 
L 199.224 161.80375 
L 199.5216 162.119601 
L 199.6704 162.119601 
L 199.8192 162.386867 
L 200.1168 162.306971 
L 200.2656 162.530033 
L 200.5632 162.574827 
L 201.0096 162.899506 
L 201.1584 162.821023 
L 201.3072 163.046866 
L 201.456 163.046866 
L 201.6048 163.273425 
L 201.9024 163.195847 
L 202.0512 163.466652 
L 202.6464 163.659922 
L 202.944 163.765564 
L 203.0928 163.992798 
L 203.3904 163.914904 
L 203.8368 164.413406 
L 204.1344 164.291456 
L 204.2832 164.584785 
L 204.7296 164.623953 
L 205.0272 164.81718 
L 205.3248 164.905377 
L 205.4736 165.132884 
L 205.7712 165.010429 
L 205.92 165.282098 
L 206.5152 165.475451 
L 206.664 165.703085 
L 206.9616 165.580314 
L 207.1104 165.852236 
L 207.5568 165.942181 
L 207.7056 166.258643 
L 207.8544 166.258643 
L 208.152 166.135514 
L 208.4496 166.429895 
L 208.5984 166.429895 
L 208.896 166.55667 
L 209.4912 166.735254 
L 209.7888 167.007682 
L 210.0864 166.869235 
L 210.384 167.18635 
L 210.8304 167.245977 
L 210.9792 167.548449 
L 211.128 167.424477 
L 211.2768 167.469165 
L 211.4256 167.697262 
L 211.7232 167.602977 
L 211.872 167.831116 
L 212.616 168.009637 
L 212.9136 168.128321 
L 213.2112 168.233015 
L 213.36 168.461302 
L 213.5088 168.321759 
L 213.6576 168.594987 
L 214.9968 168.937049 
L 215.1456 169.165505 
L 215.4432 169.070482 
L 215.592 169.070482 
L 215.7408 169.344047 
L 215.8896 169.374113 
L 216.0384 169.233896 
L 216.1872 169.477437 
L 216.4848 169.507545 
L 216.6336 169.382203 
L 216.9312 169.761347 
L 217.5264 169.849502 
L 217.824 169.939932 
L 218.2704 170.058152 
L 218.4192 170.28686 
L 218.568 170.161118 
L 218.7168 170.191332 
L 218.8656 170.450296 
L 219.4608 170.400045 
L 219.7584 170.659072 
L 220.056 170.563375 
L 220.2048 170.830051 
L 221.6928 171.194678 
L 221.8416 171.408469 
L 221.9904 171.282031 
L 222.288 171.357987 
L 222.4368 171.57182 
L 222.7344 171.445214 
L 223.032 171.551699 
L 223.1808 171.780744 
L 223.3296 171.646448 
L 223.6272 171.68452 
L 223.776 171.944074 
L 223.9248 171.974498 
L 224.0736 171.817236 
L 224.2224 171.83247 
L 224.3712 172.092087 
L 224.9664 172.071902 
L 225.264 172.331583 
L 225.4128 172.189259 
L 225.5616 172.21981 
L 225.8592 172.510104 
L 226.008 172.510104 
L 226.1568 172.382929 
L 226.3056 172.413479 
L 226.4544 172.673328 
L 226.6032 172.703879 
L 226.752 172.561323 
L 226.9008 172.607213 
L 227.1984 172.851807 
L 227.3472 172.897696 
L 227.496 172.755014 
L 227.7936 172.999651 
L 228.0912 173.076218 
L 228.24 172.933388 
L 228.5376 173.193427 
L 228.8352 173.254739 
L 228.984 173.111762 
L 229.1328 173.157777 
L 229.4304 173.402562 
L 229.5792 173.433239 
L 229.728 173.290135 
L 229.8768 173.336193 
L 230.1744 173.611739 
L 230.3232 173.611739 
L 230.472 173.468467 
L 230.6208 173.499228 
L 230.9184 173.759477 
L 231.216 173.820937 
L 231.3648 173.67758 
L 231.5136 173.708363 
L 231.8112 173.953295 
L 231.96 173.984077 
L 232.1088 173.855954 
L 232.2576 173.886736 
L 232.5552 174.131752 
L 232.8528 174.193338 
L 233.0016 174.049729 
L 233.1504 174.080533 
L 233.448 174.325612 
L 233.5968 174.356416 
L 233.7456 174.212659 
L 234.0432 174.27435 
L 234.3408 174.519472 
L 234.4896 174.550317 
L 234.6384 174.406434 
L 234.936 174.468168 
L 235.2336 174.713373 
L 235.3824 174.728796 
L 235.5312 174.584766 
L 235.9776 174.677471 
L 236.2752 174.922719 
L 236.424 174.778562 
L 237.0192 174.886817 
L 237.168 175.101198 
L 237.3168 174.956915 
L 238.0608 175.096183 
L 238.2096 175.295142 
L 238.3584 175.150732 
L 241.1856 175.66255 
L 241.3344 175.517866 
L 241.4832 175.732332 
L 242.2272 175.841008 
L 242.376 175.696198 
L 242.5248 175.727275 
L 242.8224 175.957311 
L 243.5664 176.066071 
L 243.7152 175.921177 
L 243.864 175.936726 
L 244.0128 176.135706 
L 245.2032 176.197924 
L 245.5008 176.396966 
L 246.6912 176.443656 
L 246.84 176.642762 
L 247.2864 176.658332 
L 247.4352 176.481918 
L 248.0304 176.51308 
L 248.1792 176.712122 
L 249.3696 176.743326 
L 249.6672 176.942411 
L 250.56 176.958023 
L 250.7088 177.157129 
L 252.1968 177.203988 
L 252.3456 177.387544 
L 252.4944 177.387544 
L 252.792 177.22611 
L 253.3872 177.241765 
L 253.6848 177.44085 
L 255.024 177.456504 
L 255.3216 177.655652 
L 256.512 177.671307 
L 256.6608 177.8548 
L 257.8512 177.870476 
L 258 178.069666 
L 259.1904 178.085363 
L 259.3392 178.284574 
L 260.6784 178.300292 
L 260.8272 178.499566 
L 261.2736 178.499566 
L 261.4224 178.32153 
L 262.1664 178.337269 
L 262.3152 178.536438 
L 263.6544 178.567915 
L 263.8032 178.751388 
L 265.2912 178.767148 
L 265.44 178.95062 
L 266.928 178.966401 
L 267.0768 179.165654 
L 268.416 179.181435 
L 268.7136 179.380752 
L 269.7552 179.396533 
L 269.904 179.580089 
L 270.9456 179.595892 
L 271.2432 179.432709 
L 271.392 179.432709 
L 271.5408 179.631962 
L 273.0288 179.647785 
L 273.3264 179.847081 
L 274.6656 179.862904 
L 274.8144 180.046397 
L 276.1536 180.062242 
L 276.3024 180.2616 
L 277.7904 180.293331 
L 277.9392 180.476866 
L 279.4272 180.508597 
L 279.576 180.708061 
L 279.7248 180.708061 
L 279.8736 180.528086 
L 281.064 180.55988 
L 281.2128 180.743331 
L 282.7008 180.775167 
L 282.8496 180.958639 
L 284.4864 180.990475 
L 284.784 181.181954 
L 286.272 181.205847 
L 286.4208 181.405332 
L 287.76 181.43721 
L 287.9088 181.256582 
L 288.0576 181.256582 
L 288.2064 181.455983 
L 289.6944 181.487924 
L 289.8432 181.671375 
L 291.48 181.703337 
L 291.6288 181.886831 
L 293.4144 181.918814 
L 293.5632 182.118342 
L 295.0512 182.150325 
L 295.2 182.349894 
L 295.7952 182.349894 
L 296.0928 182.184499 
L 296.8368 182.216546 
L 296.9856 182.399997 
L 298.7712 182.44812 
L 298.92 182.631634 
L 300.8544 182.663702 
L 301.152 182.863292 
L 302.7888 182.895402 
L 302.9376 183.078959 
L 303.2352 182.912974 
L 304.7232 182.945147 
L 304.872 183.144695 
L 306.6576 183.176889 
L 306.8064 183.360383 
L 308.8896 183.408695 
L 309.0384 183.592209 
L 310.9728 183.640564 
L 311.1216 183.824141 
L 311.2704 183.641428 
L 313.2048 183.689845 
L 313.3536 183.873296 
L 315.288 183.905617 
L 315.4368 184.08911 
L 317.52 184.121431 
L 317.6688 184.321105 
L 319.752 184.369628 
L 319.9008 184.553185 
L 320.0496 184.553185 
L 320.1984 184.38602 
L 322.1328 184.434627 
L 322.2816 184.618079 
L 324.5136 184.666707 
L 324.6624 184.850221 
L 326.8944 184.915073 
L 327.0432 185.098651 
L 327.6384 185.114874 
L 327.7872 184.931044 
L 329.424 184.979756 
L 329.7216 185.179473 
L 331.9536 185.228228 
L 332.1024 185.411742 
L 334.632 185.460518 
L 334.7808 185.66034 
L 335.0784 185.66034 
L 335.2272 185.476004 
L 337.3104 185.54115 
L 337.4592 185.724623 
L 340.1376 185.773504 
L 340.2864 185.973305 
L 342.9648 186.022207 
L 343.1136 186.205785 
L 343.2624 186.037272 
L 345.9408 186.06995 
L 346.0896 186.269751 
L 349.2144 186.318738 
L 349.3632 186.502252 
L 352.3392 186.567631 
L 352.488 186.751187 
L 353.232 186.767558 
L 353.3808 186.582253 
L 355.6128 186.647736 
L 355.7616 186.831209 
L 359.184 186.880343 
L 359.3328 187.063857 
L 362.7552 187.129383 
L 362.904 187.312961 
L 363.0528 187.127171 
L 364.0944 187.143605 
L 366.624 187.176431 
L 366.7728 187.359882 
L 370.4928 187.409164 
L 370.6416 187.592657 
L 374.6592 187.674807 
L 374.808 187.858384 
L 375.4032 187.858384 
L 375.552 187.672089 
L 376.8912 187.721454 
L 378.8256 187.754386 
L 378.9744 187.937858 
L 383.5872 187.987245 
L 383.736 188.170759 
L 387.6048 188.236643 
L 387.7536 188.050053 
L 388.3488 188.050053 
L 388.4976 188.24998 
L 393.408 188.282975 
L 393.5568 188.466447 
L 398.7648 188.51596 
L 398.9136 188.699475 
L 405.9072 188.794919 
L 406.9488 188.811459 
L 410.52 188.827998 
L 410.6688 189.01145 
L 416.9184 189.07765 
L 417.0672 189.261185 
L 424.0608 189.172968 
L 424.2096 189.373001 
L 432.096 189.406164 
L 432.2448 189.589636 
L 440.4288 189.656005 
L 440.5776 189.83954 
L 443.5536 189.889348 
L 443.7024 189.701283 
L 450.9936 189.767736 
L 451.1424 189.951229 
L 462.3024 189.967853 
L 462.4512 190.151346 
L 475.248 190.25111 
L 475.3968 190.434688 
L 476.4384 190.434688 
L 476.5872 190.246138 
L 481.4976 190.262804 
L 481.6464 190.451333 
L 482.2416 190.451333 
L 482.3904 190.262804 
L 485.5152 190.262804 
L 485.664 190.451333 
L 486.408 190.451333 
L 486.5568 190.262804 
L 488.3424 190.262804 
L 488.4912 190.451333 
L 489.384 190.451333 
L 489.5328 190.262804 
L 490.2768 190.262804 
L 490.4256 190.446234 
L 507.8352 190.512918 
L 507.984 190.696412 
L 517.0608 190.796449 
L 517.9536 190.813115 
L 518.1024 190.62427 
L 518.4 190.62427 
L 518.4 190.62427 
" style="fill:none;stroke:#0000ff;stroke-linecap:square;"/>
   </g>
   <g id="line2d_4">
    <path clip-path="url(#p6a4bd705a8)" d="M 72.1488 266.061831 
L 91.6416 266.061831 
L 91.7904 94.228394 
L 518.4 94.228394 
L 518.4 94.228394 
" style="fill:none;stroke:#000000;stroke-linecap:square;"/>
   </g>
   <g id="line2d_5">
    <path clip-path="url(#p6a4bd705a8)" d="M 72.1488 191.314286 
L 518.4 191.314286 
L 518.4 191.314286 
" style="fill:none;stroke:#bf00bf;stroke-linecap:square;"/>
   </g>
   <g id="patch_3">
    <path d="M 72 43.2 
L 518.4 43.2 
" style="fill:none;stroke:#000000;stroke-linecap:square;stroke-linejoin:miter;"/>
   </g>
   <g id="patch_4">
    <path d="M 518.4 388.8 
L 518.4 43.2 
" style="fill:none;stroke:#000000;stroke-linecap:square;stroke-linejoin:miter;"/>
   </g>
   <g id="patch_5">
    <path d="M 72 388.8 
L 518.4 388.8 
" style="fill:none;stroke:#000000;stroke-linecap:square;stroke-linejoin:miter;"/>
   </g>
   <g id="patch_6">
    <path d="M 72 388.8 
L 72 43.2 
" style="fill:none;stroke:#000000;stroke-linecap:square;stroke-linejoin:miter;"/>
   </g>
   <g id="matplotlib.axis_1">
    <g id="xtick_1">
     <g id="line2d_6">
      <path clip-path="url(#p6a4bd705a8)" d="M 72 388.8 
L 72 43.2 
" style="fill:none;stroke:#000000;stroke-dasharray:1.000000,3.000000;stroke-dashoffset:0.0;stroke-width:0.5;"/>
     </g>
     <g id="line2d_7">
      <defs>
       <path d="M 0 0 
L 0 -4 
" id="m366a685c1b" style="stroke:#000000;stroke-width:0.5;"/>
      </defs>
      <g>
       <use style="stroke:#000000;stroke-width:0.5;" x="72.0" xlink:href="#m366a685c1b" y="388.8"/>
      </g>
     </g>
     <g id="line2d_8">
      <defs>
       <path d="M 0 0 
L 0 4 
" id="md2120af098" style="stroke:#000000;stroke-width:0.5;"/>
      </defs>
      <g>
       <use style="stroke:#000000;stroke-width:0.5;" x="72.0" xlink:href="#md2120af098" y="43.2"/>
      </g>
     </g>
     <g id="text_1">
      <!-- 0 -->
      <defs>
       <path d="M 31.78125 66.40625 
Q 24.171875 66.40625 20.328125 58.90625 
Q 16.5 51.421875 16.5 36.375 
Q 16.5 21.390625 20.328125 13.890625 
Q 24.171875 6.390625 31.78125 6.390625 
Q 39.453125 6.390625 43.28125 13.890625 
Q 47.125 21.390625 47.125 36.375 
Q 47.125 51.421875 43.28125 58.90625 
Q 39.453125 66.40625 31.78125 66.40625 
M 31.78125 74.21875 
Q 44.046875 74.21875 50.515625 64.515625 
Q 56.984375 54.828125 56.984375 36.375 
Q 56.984375 17.96875 50.515625 8.265625 
Q 44.046875 -1.421875 31.78125 -1.421875 
Q 19.53125 -1.421875 13.0625 8.265625 
Q 6.59375 17.96875 6.59375 36.375 
Q 6.59375 54.828125 13.0625 64.515625 
Q 19.53125 74.21875 31.78125 74.21875 
" id="BitstreamVeraSans-Roman-30"/>
      </defs>
      <g transform="translate(68.1825 401.918125)scale(0.12 -0.12)">
       <use xlink:href="#BitstreamVeraSans-Roman-30"/>
      </g>
     </g>
    </g>
    <g id="xtick_2">
     <g id="line2d_9">
      <path clip-path="url(#p6a4bd705a8)" d="M 146.4 388.8 
L 146.4 43.2 
" style="fill:none;stroke:#000000;stroke-dasharray:1.000000,3.000000;stroke-dashoffset:0.0;stroke-width:0.5;"/>
     </g>
     <g id="line2d_10">
      <g>
       <use style="stroke:#000000;stroke-width:0.5;" x="146.4" xlink:href="#m366a685c1b" y="388.8"/>
      </g>
     </g>
     <g id="line2d_11">
      <g>
       <use style="stroke:#000000;stroke-width:0.5;" x="146.4" xlink:href="#md2120af098" y="43.2"/>
      </g>
     </g>
     <g id="text_2">
      <!-- 5 -->
      <defs>
       <path d="M 10.796875 72.90625 
L 49.515625 72.90625 
L 49.515625 64.59375 
L 19.828125 64.59375 
L 19.828125 46.734375 
Q 21.96875 47.46875 24.109375 47.828125 
Q 26.265625 48.1875 28.421875 48.1875 
Q 40.625 48.1875 47.75 41.5 
Q 54.890625 34.8125 54.890625 23.390625 
Q 54.890625 11.625 47.5625 5.09375 
Q 40.234375 -1.421875 26.90625 -1.421875 
Q 22.3125 -1.421875 17.546875 -0.640625 
Q 12.796875 0.140625 7.71875 1.703125 
L 7.71875 11.625 
Q 12.109375 9.234375 16.796875 8.0625 
Q 21.484375 6.890625 26.703125 6.890625 
Q 35.15625 6.890625 40.078125 11.328125 
Q 45.015625 15.765625 45.015625 23.390625 
Q 45.015625 31 40.078125 35.4375 
Q 35.15625 39.890625 26.703125 39.890625 
Q 22.75 39.890625 18.8125 39.015625 
Q 14.890625 38.140625 10.796875 36.28125 
z
" id="BitstreamVeraSans-Roman-35"/>
      </defs>
      <g transform="translate(142.5825 401.918125)scale(0.12 -0.12)">
       <use xlink:href="#BitstreamVeraSans-Roman-35"/>
      </g>
     </g>
    </g>
    <g id="xtick_3">
     <g id="line2d_12">
      <path clip-path="url(#p6a4bd705a8)" d="M 220.8 388.8 
L 220.8 43.2 
" style="fill:none;stroke:#000000;stroke-dasharray:1.000000,3.000000;stroke-dashoffset:0.0;stroke-width:0.5;"/>
     </g>
     <g id="line2d_13">
      <g>
       <use style="stroke:#000000;stroke-width:0.5;" x="220.8" xlink:href="#m366a685c1b" y="388.8"/>
      </g>
     </g>
     <g id="line2d_14">
      <g>
       <use style="stroke:#000000;stroke-width:0.5;" x="220.8" xlink:href="#md2120af098" y="43.2"/>
      </g>
     </g>
     <g id="text_3">
      <!-- 10 -->
      <defs>
       <path d="M 12.40625 8.296875 
L 28.515625 8.296875 
L 28.515625 63.921875 
L 10.984375 60.40625 
L 10.984375 69.390625 
L 28.421875 72.90625 
L 38.28125 72.90625 
L 38.28125 8.296875 
L 54.390625 8.296875 
L 54.390625 0 
L 12.40625 0 
z
" id="BitstreamVeraSans-Roman-31"/>
      </defs>
      <g transform="translate(213.165 401.918125)scale(0.12 -0.12)">
       <use xlink:href="#BitstreamVeraSans-Roman-31"/>
       <use x="63.623046875" xlink:href="#BitstreamVeraSans-Roman-30"/>
      </g>
     </g>
    </g>
    <g id="xtick_4">
     <g id="line2d_15">
      <path clip-path="url(#p6a4bd705a8)" d="M 295.2 388.8 
L 295.2 43.2 
" style="fill:none;stroke:#000000;stroke-dasharray:1.000000,3.000000;stroke-dashoffset:0.0;stroke-width:0.5;"/>
     </g>
     <g id="line2d_16">
      <g>
       <use style="stroke:#000000;stroke-width:0.5;" x="295.2" xlink:href="#m366a685c1b" y="388.8"/>
      </g>
     </g>
     <g id="line2d_17">
      <g>
       <use style="stroke:#000000;stroke-width:0.5;" x="295.2" xlink:href="#md2120af098" y="43.2"/>
      </g>
     </g>
     <g id="text_4">
      <!-- 15 -->
      <g transform="translate(287.565 401.918125)scale(0.12 -0.12)">
       <use xlink:href="#BitstreamVeraSans-Roman-31"/>
       <use x="63.623046875" xlink:href="#BitstreamVeraSans-Roman-35"/>
      </g>
     </g>
    </g>
    <g id="xtick_5">
     <g id="line2d_18">
      <path clip-path="url(#p6a4bd705a8)" d="M 369.6 388.8 
L 369.6 43.2 
" style="fill:none;stroke:#000000;stroke-dasharray:1.000000,3.000000;stroke-dashoffset:0.0;stroke-width:0.5;"/>
     </g>
     <g id="line2d_19">
      <g>
       <use style="stroke:#000000;stroke-width:0.5;" x="369.6" xlink:href="#m366a685c1b" y="388.8"/>
      </g>
     </g>
     <g id="line2d_20">
      <g>
       <use style="stroke:#000000;stroke-width:0.5;" x="369.6" xlink:href="#md2120af098" y="43.2"/>
      </g>
     </g>
     <g id="text_5">
      <!-- 20 -->
      <defs>
       <path d="M 19.1875 8.296875 
L 53.609375 8.296875 
L 53.609375 0 
L 7.328125 0 
L 7.328125 8.296875 
Q 12.9375 14.109375 22.625 23.890625 
Q 32.328125 33.6875 34.8125 36.53125 
Q 39.546875 41.84375 41.421875 45.53125 
Q 43.3125 49.21875 43.3125 52.78125 
Q 43.3125 58.59375 39.234375 62.25 
Q 35.15625 65.921875 28.609375 65.921875 
Q 23.96875 65.921875 18.8125 64.3125 
Q 13.671875 62.703125 7.8125 59.421875 
L 7.8125 69.390625 
Q 13.765625 71.78125 18.9375 73 
Q 24.125 74.21875 28.421875 74.21875 
Q 39.75 74.21875 46.484375 68.546875 
Q 53.21875 62.890625 53.21875 53.421875 
Q 53.21875 48.921875 51.53125 44.890625 
Q 49.859375 40.875 45.40625 35.40625 
Q 44.1875 33.984375 37.640625 27.21875 
Q 31.109375 20.453125 19.1875 8.296875 
" id="BitstreamVeraSans-Roman-32"/>
      </defs>
      <g transform="translate(361.965 401.918125)scale(0.12 -0.12)">
       <use xlink:href="#BitstreamVeraSans-Roman-32"/>
       <use x="63.623046875" xlink:href="#BitstreamVeraSans-Roman-30"/>
      </g>
     </g>
    </g>
    <g id="xtick_6">
     <g id="line2d_21">
      <path clip-path="url(#p6a4bd705a8)" d="M 444 388.8 
L 444 43.2 
" style="fill:none;stroke:#000000;stroke-dasharray:1.000000,3.000000;stroke-dashoffset:0.0;stroke-width:0.5;"/>
     </g>
     <g id="line2d_22">
      <g>
       <use style="stroke:#000000;stroke-width:0.5;" x="444.0" xlink:href="#m366a685c1b" y="388.8"/>
      </g>
     </g>
     <g id="line2d_23">
      <g>
       <use style="stroke:#000000;stroke-width:0.5;" x="444.0" xlink:href="#md2120af098" y="43.2"/>
      </g>
     </g>
     <g id="text_6">
      <!-- 25 -->
      <g transform="translate(436.365 401.918125)scale(0.12 -0.12)">
       <use xlink:href="#BitstreamVeraSans-Roman-32"/>
       <use x="63.623046875" xlink:href="#BitstreamVeraSans-Roman-35"/>
      </g>
     </g>
    </g>
    <g id="xtick_7">
     <g id="line2d_24">
      <path clip-path="url(#p6a4bd705a8)" d="M 518.4 388.8 
L 518.4 43.2 
" style="fill:none;stroke:#000000;stroke-dasharray:1.000000,3.000000;stroke-dashoffset:0.0;stroke-width:0.5;"/>
     </g>
     <g id="line2d_25">
      <g>
       <use style="stroke:#000000;stroke-width:0.5;" x="518.4" xlink:href="#m366a685c1b" y="388.8"/>
      </g>
     </g>
     <g id="line2d_26">
      <g>
       <use style="stroke:#000000;stroke-width:0.5;" x="518.4" xlink:href="#md2120af098" y="43.2"/>
      </g>
     </g>
     <g id="text_7">
      <!-- 30 -->
      <defs>
       <path d="M 40.578125 39.3125 
Q 47.65625 37.796875 51.625 33 
Q 55.609375 28.21875 55.609375 21.1875 
Q 55.609375 10.40625 48.1875 4.484375 
Q 40.765625 -1.421875 27.09375 -1.421875 
Q 22.515625 -1.421875 17.65625 -0.515625 
Q 12.796875 0.390625 7.625 2.203125 
L 7.625 11.71875 
Q 11.71875 9.328125 16.59375 8.109375 
Q 21.484375 6.890625 26.8125 6.890625 
Q 36.078125 6.890625 40.9375 10.546875 
Q 45.796875 14.203125 45.796875 21.1875 
Q 45.796875 27.640625 41.28125 31.265625 
Q 36.765625 34.90625 28.71875 34.90625 
L 20.21875 34.90625 
L 20.21875 43.015625 
L 29.109375 43.015625 
Q 36.375 43.015625 40.234375 45.921875 
Q 44.09375 48.828125 44.09375 54.296875 
Q 44.09375 59.90625 40.109375 62.90625 
Q 36.140625 65.921875 28.71875 65.921875 
Q 24.65625 65.921875 20.015625 65.03125 
Q 15.375 64.15625 9.8125 62.3125 
L 9.8125 71.09375 
Q 15.4375 72.65625 20.34375 73.4375 
Q 25.25 74.21875 29.59375 74.21875 
Q 40.828125 74.21875 47.359375 69.109375 
Q 53.90625 64.015625 53.90625 55.328125 
Q 53.90625 49.265625 50.4375 45.09375 
Q 46.96875 40.921875 40.578125 39.3125 
" id="BitstreamVeraSans-Roman-33"/>
      </defs>
      <g transform="translate(510.765 401.918125)scale(0.12 -0.12)">
       <use xlink:href="#BitstreamVeraSans-Roman-33"/>
       <use x="63.623046875" xlink:href="#BitstreamVeraSans-Roman-30"/>
      </g>
     </g>
    </g>
    <g id="text_8">
     <!-- Time [s] -->
     <defs>
      <path id="BitstreamVeraSans-Roman-20"/>
      <path d="M 8.59375 75.984375 
L 29.296875 75.984375 
L 29.296875 69 
L 17.578125 69 
L 17.578125 -6.203125 
L 29.296875 -6.203125 
L 29.296875 -13.1875 
L 8.59375 -13.1875 
z
" id="BitstreamVeraSans-Roman-5b"/>
      <path d="M 30.421875 75.984375 
L 30.421875 -13.1875 
L 9.71875 -13.1875 
L 9.71875 -6.203125 
L 21.390625 -6.203125 
L 21.390625 69 
L 9.71875 69 
L 9.71875 75.984375 
z
" id="BitstreamVeraSans-Roman-5d"/>
      <path d="M 52 44.1875 
Q 55.375 50.25 60.0625 53.125 
Q 64.75 56 71.09375 56 
Q 79.640625 56 84.28125 50.015625 
Q 88.921875 44.046875 88.921875 33.015625 
L 88.921875 0 
L 79.890625 0 
L 79.890625 32.71875 
Q 79.890625 40.578125 77.09375 44.375 
Q 74.3125 48.1875 68.609375 48.1875 
Q 61.625 48.1875 57.5625 43.546875 
Q 53.515625 38.921875 53.515625 30.90625 
L 53.515625 0 
L 44.484375 0 
L 44.484375 32.71875 
Q 44.484375 40.625 41.703125 44.40625 
Q 38.921875 48.1875 33.109375 48.1875 
Q 26.21875 48.1875 22.15625 43.53125 
Q 18.109375 38.875 18.109375 30.90625 
L 18.109375 0 
L 9.078125 0 
L 9.078125 54.6875 
L 18.109375 54.6875 
L 18.109375 46.1875 
Q 21.1875 51.21875 25.484375 53.609375 
Q 29.78125 56 35.6875 56 
Q 41.65625 56 45.828125 52.96875 
Q 50 49.953125 52 44.1875 
" id="BitstreamVeraSans-Roman-6d"/>
      <path d="M 9.421875 54.6875 
L 18.40625 54.6875 
L 18.40625 0 
L 9.421875 0 
z
M 9.421875 75.984375 
L 18.40625 75.984375 
L 18.40625 64.59375 
L 9.421875 64.59375 
z
" id="BitstreamVeraSans-Roman-69"/>
      <path d="M 56.203125 29.59375 
L 56.203125 25.203125 
L 14.890625 25.203125 
Q 15.484375 15.921875 20.484375 11.0625 
Q 25.484375 6.203125 34.421875 6.203125 
Q 39.59375 6.203125 44.453125 7.46875 
Q 49.3125 8.734375 54.109375 11.28125 
L 54.109375 2.78125 
Q 49.265625 0.734375 44.1875 -0.34375 
Q 39.109375 -1.421875 33.890625 -1.421875 
Q 20.796875 -1.421875 13.15625 6.1875 
Q 5.515625 13.8125 5.515625 26.8125 
Q 5.515625 40.234375 12.765625 48.109375 
Q 20.015625 56 32.328125 56 
Q 43.359375 56 49.78125 48.890625 
Q 56.203125 41.796875 56.203125 29.59375 
M 47.21875 32.234375 
Q 47.125 39.59375 43.09375 43.984375 
Q 39.0625 48.390625 32.421875 48.390625 
Q 24.90625 48.390625 20.390625 44.140625 
Q 15.875 39.890625 15.1875 32.171875 
z
" id="BitstreamVeraSans-Roman-65"/>
      <path d="M -0.296875 72.90625 
L 61.375 72.90625 
L 61.375 64.59375 
L 35.5 64.59375 
L 35.5 0 
L 25.59375 0 
L 25.59375 64.59375 
L -0.296875 64.59375 
z
" id="BitstreamVeraSans-Roman-54"/>
      <path d="M 44.28125 53.078125 
L 44.28125 44.578125 
Q 40.484375 46.53125 36.375 47.5 
Q 32.28125 48.484375 27.875 48.484375 
Q 21.1875 48.484375 17.84375 46.4375 
Q 14.5 44.390625 14.5 40.28125 
Q 14.5 37.15625 16.890625 35.375 
Q 19.28125 33.59375 26.515625 31.984375 
L 29.59375 31.296875 
Q 39.15625 29.25 43.1875 25.515625 
Q 47.21875 21.78125 47.21875 15.09375 
Q 47.21875 7.46875 41.1875 3.015625 
Q 35.15625 -1.421875 24.609375 -1.421875 
Q 20.21875 -1.421875 15.453125 -0.5625 
Q 10.6875 0.296875 5.421875 2 
L 5.421875 11.28125 
Q 10.40625 8.6875 15.234375 7.390625 
Q 20.0625 6.109375 24.8125 6.109375 
Q 31.15625 6.109375 34.5625 8.28125 
Q 37.984375 10.453125 37.984375 14.40625 
Q 37.984375 18.0625 35.515625 20.015625 
Q 33.0625 21.96875 24.703125 23.78125 
L 21.578125 24.515625 
Q 13.234375 26.265625 9.515625 29.90625 
Q 5.8125 33.546875 5.8125 39.890625 
Q 5.8125 47.609375 11.28125 51.796875 
Q 16.75 56 26.8125 56 
Q 31.78125 56 36.171875 55.265625 
Q 40.578125 54.546875 44.28125 53.078125 
" id="BitstreamVeraSans-Roman-73"/>
     </defs>
     <g transform="translate(270.620625 418.531875)scale(0.12 -0.12)">
      <use xlink:href="#BitstreamVeraSans-Roman-54"/>
      <use x="61.037109375" xlink:href="#BitstreamVeraSans-Roman-69"/>
      <use x="88.8203125" xlink:href="#BitstreamVeraSans-Roman-6d"/>
      <use x="186.232421875" xlink:href="#BitstreamVeraSans-Roman-65"/>
      <use x="247.755859375" xlink:href="#BitstreamVeraSans-Roman-20"/>
      <use x="279.54296875" xlink:href="#BitstreamVeraSans-Roman-5b"/>
      <use x="318.556640625" xlink:href="#BitstreamVeraSans-Roman-73"/>
      <use x="370.65625" xlink:href="#BitstreamVeraSans-Roman-5d"/>
     </g>
    </g>
   </g>
   <g id="matplotlib.axis_2">
    <g id="ytick_1">
     <g id="line2d_27">
      <path clip-path="url(#p6a4bd705a8)" d="M 72 388.8 
L 518.4 388.8 
" style="fill:none;stroke:#000000;stroke-dasharray:1.000000,3.000000;stroke-dashoffset:0.0;stroke-width:0.5;"/>
     </g>
     <g id="line2d_28">
      <defs>
       <path d="M 0 0 
L 4 0 
" id="m98f14f09c6" style="stroke:#000000;stroke-width:0.5;"/>
      </defs>
      <g>
       <use style="stroke:#000000;stroke-width:0.5;" x="72.0" xlink:href="#m98f14f09c6" y="388.8"/>
      </g>
     </g>
     <g id="line2d_29">
      <defs>
       <path d="M 0 0 
L -4 0 
" id="m242561d296" style="stroke:#000000;stroke-width:0.5;"/>
      </defs>
      <g>
       <use style="stroke:#000000;stroke-width:0.5;" x="518.4" xlink:href="#m242561d296" y="388.8"/>
      </g>
     </g>
     <g id="text_9">
      <!-- 0 -->
      <g transform="translate(60.365 392.11125)scale(0.12 -0.12)">
       <use xlink:href="#BitstreamVeraSans-Roman-30"/>
      </g>
     </g>
    </g>
    <g id="ytick_2">
     <g id="line2d_30">
      <path clip-path="url(#p6a4bd705a8)" d="M 72 339.428571 
L 518.4 339.428571 
" style="fill:none;stroke:#000000;stroke-dasharray:1.000000,3.000000;stroke-dashoffset:0.0;stroke-width:0.5;"/>
     </g>
     <g id="line2d_31">
      <g>
       <use style="stroke:#000000;stroke-width:0.5;" x="72.0" xlink:href="#m98f14f09c6" y="339.428571429"/>
      </g>
     </g>
     <g id="line2d_32">
      <g>
       <use style="stroke:#000000;stroke-width:0.5;" x="518.4" xlink:href="#m242561d296" y="339.428571429"/>
      </g>
     </g>
     <g id="text_10">
      <!-- 10 -->
      <g transform="translate(52.73 342.739821429)scale(0.12 -0.12)">
       <use xlink:href="#BitstreamVeraSans-Roman-31"/>
       <use x="63.623046875" xlink:href="#BitstreamVeraSans-Roman-30"/>
      </g>
     </g>
    </g>
    <g id="ytick_3">
     <g id="line2d_33">
      <path clip-path="url(#p6a4bd705a8)" d="M 72 290.057143 
L 518.4 290.057143 
" style="fill:none;stroke:#000000;stroke-dasharray:1.000000,3.000000;stroke-dashoffset:0.0;stroke-width:0.5;"/>
     </g>
     <g id="line2d_34">
      <g>
       <use style="stroke:#000000;stroke-width:0.5;" x="72.0" xlink:href="#m98f14f09c6" y="290.057142857"/>
      </g>
     </g>
     <g id="line2d_35">
      <g>
       <use style="stroke:#000000;stroke-width:0.5;" x="518.4" xlink:href="#m242561d296" y="290.057142857"/>
      </g>
     </g>
     <g id="text_11">
      <!-- 20 -->
      <g transform="translate(52.73 293.368392857)scale(0.12 -0.12)">
       <use xlink:href="#BitstreamVeraSans-Roman-32"/>
       <use x="63.623046875" xlink:href="#BitstreamVeraSans-Roman-30"/>
      </g>
     </g>
    </g>
    <g id="ytick_4">
     <g id="line2d_36">
      <path clip-path="url(#p6a4bd705a8)" d="M 72 240.685714 
L 518.4 240.685714 
" style="fill:none;stroke:#000000;stroke-dasharray:1.000000,3.000000;stroke-dashoffset:0.0;stroke-width:0.5;"/>
     </g>
     <g id="line2d_37">
      <g>
       <use style="stroke:#000000;stroke-width:0.5;" x="72.0" xlink:href="#m98f14f09c6" y="240.685714286"/>
      </g>
     </g>
     <g id="line2d_38">
      <g>
       <use style="stroke:#000000;stroke-width:0.5;" x="518.4" xlink:href="#m242561d296" y="240.685714286"/>
      </g>
     </g>
     <g id="text_12">
      <!-- 30 -->
      <g transform="translate(52.73 243.996964286)scale(0.12 -0.12)">
       <use xlink:href="#BitstreamVeraSans-Roman-33"/>
       <use x="63.623046875" xlink:href="#BitstreamVeraSans-Roman-30"/>
      </g>
     </g>
    </g>
    <g id="ytick_5">
     <g id="line2d_39">
      <path clip-path="url(#p6a4bd705a8)" d="M 72 191.314286 
L 518.4 191.314286 
" style="fill:none;stroke:#000000;stroke-dasharray:1.000000,3.000000;stroke-dashoffset:0.0;stroke-width:0.5;"/>
     </g>
     <g id="line2d_40">
      <g>
       <use style="stroke:#000000;stroke-width:0.5;" x="72.0" xlink:href="#m98f14f09c6" y="191.314285714"/>
      </g>
     </g>
     <g id="line2d_41">
      <g>
       <use style="stroke:#000000;stroke-width:0.5;" x="518.4" xlink:href="#m242561d296" y="191.314285714"/>
      </g>
     </g>
     <g id="text_13">
      <!-- 40 -->
      <defs>
       <path d="M 37.796875 64.3125 
L 12.890625 25.390625 
L 37.796875 25.390625 
z
M 35.203125 72.90625 
L 47.609375 72.90625 
L 47.609375 25.390625 
L 58.015625 25.390625 
L 58.015625 17.1875 
L 47.609375 17.1875 
L 47.609375 0 
L 37.796875 0 
L 37.796875 17.1875 
L 4.890625 17.1875 
L 4.890625 26.703125 
z
" id="BitstreamVeraSans-Roman-34"/>
      </defs>
      <g transform="translate(52.73 194.625535714)scale(0.12 -0.12)">
       <use xlink:href="#BitstreamVeraSans-Roman-34"/>
       <use x="63.623046875" xlink:href="#BitstreamVeraSans-Roman-30"/>
      </g>
     </g>
    </g>
    <g id="ytick_6">
     <g id="line2d_42">
      <path clip-path="url(#p6a4bd705a8)" d="M 72 141.942857 
L 518.4 141.942857 
" style="fill:none;stroke:#000000;stroke-dasharray:1.000000,3.000000;stroke-dashoffset:0.0;stroke-width:0.5;"/>
     </g>
     <g id="line2d_43">
      <g>
       <use style="stroke:#000000;stroke-width:0.5;" x="72.0" xlink:href="#m98f14f09c6" y="141.942857143"/>
      </g>
     </g>
     <g id="line2d_44">
      <g>
       <use style="stroke:#000000;stroke-width:0.5;" x="518.4" xlink:href="#m242561d296" y="141.942857143"/>
      </g>
     </g>
     <g id="text_14">
      <!-- 50 -->
      <g transform="translate(52.73 145.254107143)scale(0.12 -0.12)">
       <use xlink:href="#BitstreamVeraSans-Roman-35"/>
       <use x="63.623046875" xlink:href="#BitstreamVeraSans-Roman-30"/>
      </g>
     </g>
    </g>
    <g id="ytick_7">
     <g id="line2d_45">
      <path clip-path="url(#p6a4bd705a8)" d="M 72 92.571429 
L 518.4 92.571429 
" style="fill:none;stroke:#000000;stroke-dasharray:1.000000,3.000000;stroke-dashoffset:0.0;stroke-width:0.5;"/>
     </g>
     <g id="line2d_46">
      <g>
       <use style="stroke:#000000;stroke-width:0.5;" x="72.0" xlink:href="#m98f14f09c6" y="92.5714285714"/>
      </g>
     </g>
     <g id="line2d_47">
      <g>
       <use style="stroke:#000000;stroke-width:0.5;" x="518.4" xlink:href="#m242561d296" y="92.5714285714"/>
      </g>
     </g>
     <g id="text_15">
      <!-- 60 -->
      <defs>
       <path d="M 33.015625 40.375 
Q 26.375 40.375 22.484375 35.828125 
Q 18.609375 31.296875 18.609375 23.390625 
Q 18.609375 15.53125 22.484375 10.953125 
Q 26.375 6.390625 33.015625 6.390625 
Q 39.65625 6.390625 43.53125 10.953125 
Q 47.40625 15.53125 47.40625 23.390625 
Q 47.40625 31.296875 43.53125 35.828125 
Q 39.65625 40.375 33.015625 40.375 
M 52.59375 71.296875 
L 52.59375 62.3125 
Q 48.875 64.0625 45.09375 64.984375 
Q 41.3125 65.921875 37.59375 65.921875 
Q 27.828125 65.921875 22.671875 59.328125 
Q 17.53125 52.734375 16.796875 39.40625 
Q 19.671875 43.65625 24.015625 45.921875 
Q 28.375 48.1875 33.59375 48.1875 
Q 44.578125 48.1875 50.953125 41.515625 
Q 57.328125 34.859375 57.328125 23.390625 
Q 57.328125 12.15625 50.6875 5.359375 
Q 44.046875 -1.421875 33.015625 -1.421875 
Q 20.359375 -1.421875 13.671875 8.265625 
Q 6.984375 17.96875 6.984375 36.375 
Q 6.984375 53.65625 15.1875 63.9375 
Q 23.390625 74.21875 37.203125 74.21875 
Q 40.921875 74.21875 44.703125 73.484375 
Q 48.484375 72.75 52.59375 71.296875 
" id="BitstreamVeraSans-Roman-36"/>
      </defs>
      <g transform="translate(52.73 95.8826785714)scale(0.12 -0.12)">
       <use xlink:href="#BitstreamVeraSans-Roman-36"/>
       <use x="63.623046875" xlink:href="#BitstreamVeraSans-Roman-30"/>
      </g>
     </g>
    </g>
    <g id="ytick_8">
     <g id="line2d_48">
      <path clip-path="url(#p6a4bd705a8)" d="M 72 43.2 
L 518.4 43.2 
" style="fill:none;stroke:#000000;stroke-dasharray:1.000000,3.000000;stroke-dashoffset:0.0;stroke-width:0.5;"/>
     </g>
     <g id="line2d_49">
      <g>
       <use style="stroke:#000000;stroke-width:0.5;" x="72.0" xlink:href="#m98f14f09c6" y="43.2"/>
      </g>
     </g>
     <g id="line2d_50">
      <g>
       <use style="stroke:#000000;stroke-width:0.5;" x="518.4" xlink:href="#m242561d296" y="43.2"/>
      </g>
     </g>
     <g id="text_16">
      <!-- 70 -->
      <defs>
       <path d="M 8.203125 72.90625 
L 55.078125 72.90625 
L 55.078125 68.703125 
L 28.609375 0 
L 18.3125 0 
L 43.21875 64.59375 
L 8.203125 64.59375 
z
" id="BitstreamVeraSans-Roman-37"/>
      </defs>
      <g transform="translate(52.73 46.51125)scale(0.12 -0.12)">
       <use xlink:href="#BitstreamVeraSans-Roman-37"/>
       <use x="63.623046875" xlink:href="#BitstreamVeraSans-Roman-30"/>
      </g>
     </g>
    </g>
    <g id="text_17">
     <!-- Speed [mph] -->
     <defs>
      <path d="M 45.40625 46.390625 
L 45.40625 75.984375 
L 54.390625 75.984375 
L 54.390625 0 
L 45.40625 0 
L 45.40625 8.203125 
Q 42.578125 3.328125 38.25 0.953125 
Q 33.9375 -1.421875 27.875 -1.421875 
Q 17.96875 -1.421875 11.734375 6.484375 
Q 5.515625 14.40625 5.515625 27.296875 
Q 5.515625 40.1875 11.734375 48.09375 
Q 17.96875 56 27.875 56 
Q 33.9375 56 38.25 53.625 
Q 42.578125 51.265625 45.40625 46.390625 
M 14.796875 27.296875 
Q 14.796875 17.390625 18.875 11.75 
Q 22.953125 6.109375 30.078125 6.109375 
Q 37.203125 6.109375 41.296875 11.75 
Q 45.40625 17.390625 45.40625 27.296875 
Q 45.40625 37.203125 41.296875 42.84375 
Q 37.203125 48.484375 30.078125 48.484375 
Q 22.953125 48.484375 18.875 42.84375 
Q 14.796875 37.203125 14.796875 27.296875 
" id="BitstreamVeraSans-Roman-64"/>
      <path d="M 53.515625 70.515625 
L 53.515625 60.890625 
Q 47.90625 63.578125 42.921875 64.890625 
Q 37.9375 66.21875 33.296875 66.21875 
Q 25.25 66.21875 20.875 63.09375 
Q 16.5 59.96875 16.5 54.203125 
Q 16.5 49.359375 19.40625 46.890625 
Q 22.3125 44.4375 30.421875 42.921875 
L 36.375 41.703125 
Q 47.40625 39.59375 52.65625 34.296875 
Q 57.90625 29 57.90625 20.125 
Q 57.90625 9.515625 50.796875 4.046875 
Q 43.703125 -1.421875 29.984375 -1.421875 
Q 24.8125 -1.421875 18.96875 -0.25 
Q 13.140625 0.921875 6.890625 3.21875 
L 6.890625 13.375 
Q 12.890625 10.015625 18.65625 8.296875 
Q 24.421875 6.59375 29.984375 6.59375 
Q 38.421875 6.59375 43.015625 9.90625 
Q 47.609375 13.234375 47.609375 19.390625 
Q 47.609375 24.75 44.3125 27.78125 
Q 41.015625 30.8125 33.5 32.328125 
L 27.484375 33.5 
Q 16.453125 35.6875 11.515625 40.375 
Q 6.59375 45.0625 6.59375 53.421875 
Q 6.59375 63.09375 13.40625 68.65625 
Q 20.21875 74.21875 32.171875 74.21875 
Q 37.3125 74.21875 42.625 73.28125 
Q 47.953125 72.359375 53.515625 70.515625 
" id="BitstreamVeraSans-Roman-53"/>
      <path d="M 54.890625 33.015625 
L 54.890625 0 
L 45.90625 0 
L 45.90625 32.71875 
Q 45.90625 40.484375 42.875 44.328125 
Q 39.84375 48.1875 33.796875 48.1875 
Q 26.515625 48.1875 22.3125 43.546875 
Q 18.109375 38.921875 18.109375 30.90625 
L 18.109375 0 
L 9.078125 0 
L 9.078125 75.984375 
L 18.109375 75.984375 
L 18.109375 46.1875 
Q 21.34375 51.125 25.703125 53.5625 
Q 30.078125 56 35.796875 56 
Q 45.21875 56 50.046875 50.171875 
Q 54.890625 44.34375 54.890625 33.015625 
" id="BitstreamVeraSans-Roman-68"/>
      <path d="M 18.109375 8.203125 
L 18.109375 -20.796875 
L 9.078125 -20.796875 
L 9.078125 54.6875 
L 18.109375 54.6875 
L 18.109375 46.390625 
Q 20.953125 51.265625 25.265625 53.625 
Q 29.59375 56 35.59375 56 
Q 45.5625 56 51.78125 48.09375 
Q 58.015625 40.1875 58.015625 27.296875 
Q 58.015625 14.40625 51.78125 6.484375 
Q 45.5625 -1.421875 35.59375 -1.421875 
Q 29.59375 -1.421875 25.265625 0.953125 
Q 20.953125 3.328125 18.109375 8.203125 
M 48.6875 27.296875 
Q 48.6875 37.203125 44.609375 42.84375 
Q 40.53125 48.484375 33.40625 48.484375 
Q 26.265625 48.484375 22.1875 42.84375 
Q 18.109375 37.203125 18.109375 27.296875 
Q 18.109375 17.390625 22.1875 11.75 
Q 26.265625 6.109375 33.40625 6.109375 
Q 40.53125 6.109375 44.609375 11.75 
Q 48.6875 17.390625 48.6875 27.296875 
" id="BitstreamVeraSans-Roman-70"/>
     </defs>
     <g transform="translate(45.234375 254.855625)rotate(-90.0)scale(0.12 -0.12)">
      <use xlink:href="#BitstreamVeraSans-Roman-53"/>
      <use x="63.4765625" xlink:href="#BitstreamVeraSans-Roman-70"/>
      <use x="126.953125" xlink:href="#BitstreamVeraSans-Roman-65"/>
      <use x="188.4765625" xlink:href="#BitstreamVeraSans-Roman-65"/>
      <use x="250.0" xlink:href="#BitstreamVeraSans-Roman-64"/>
      <use x="313.4765625" xlink:href="#BitstreamVeraSans-Roman-20"/>
      <use x="345.263671875" xlink:href="#BitstreamVeraSans-Roman-5b"/>
      <use x="384.27734375" xlink:href="#BitstreamVeraSans-Roman-6d"/>
      <use x="481.689453125" xlink:href="#BitstreamVeraSans-Roman-70"/>
      <use x="545.166015625" xlink:href="#BitstreamVeraSans-Roman-68"/>
      <use x="608.544921875" xlink:href="#BitstreamVeraSans-Roman-5d"/>
     </g>
    </g>
   </g>
   <g id="legend_1">
    <g id="patch_7">
     <path d="M 79.2 381.6 
L 272.9115 381.6 
L 272.9115 271.5975 
L 79.2 271.5975 
z
" style="fill:#ffffff;stroke:#000000;stroke-linejoin:miter;"/>
    </g>
    <g id="line2d_51">
     <path d="M 89.28 283.25925 
L 109.44 283.25925 
" style="fill:none;stroke:#ff0000;stroke-linecap:square;"/>
    </g>
    <g id="line2d_52"/>
    <g id="text_18">
     <!-- speed -->
     <g transform="translate(125.28 288.29925)scale(0.144 -0.144)">
      <use xlink:href="#BitstreamVeraSans-Roman-73"/>
      <use x="52.099609375" xlink:href="#BitstreamVeraSans-Roman-70"/>
      <use x="115.576171875" xlink:href="#BitstreamVeraSans-Roman-65"/>
      <use x="177.099609375" xlink:href="#BitstreamVeraSans-Roman-65"/>
      <use x="238.623046875" xlink:href="#BitstreamVeraSans-Roman-64"/>
     </g>
    </g>
    <g id="line2d_53">
     <path d="M 89.28 304.39575 
L 109.44 304.39575 
" style="fill:none;stroke:#bfbf00;stroke-dasharray:6.000000,6.000000;stroke-dashoffset:0.0;"/>
    </g>
    <g id="line2d_54"/>
    <g id="text_19">
     <!-- pid speed -->
     <g transform="translate(125.28 309.43575)scale(0.144 -0.144)">
      <use xlink:href="#BitstreamVeraSans-Roman-70"/>
      <use x="63.4765625" xlink:href="#BitstreamVeraSans-Roman-69"/>
      <use x="91.259765625" xlink:href="#BitstreamVeraSans-Roman-64"/>
      <use x="154.736328125" xlink:href="#BitstreamVeraSans-Roman-20"/>
      <use x="186.5234375" xlink:href="#BitstreamVeraSans-Roman-73"/>
      <use x="238.623046875" xlink:href="#BitstreamVeraSans-Roman-70"/>
      <use x="302.099609375" xlink:href="#BitstreamVeraSans-Roman-65"/>
      <use x="363.623046875" xlink:href="#BitstreamVeraSans-Roman-65"/>
      <use x="425.146484375" xlink:href="#BitstreamVeraSans-Roman-64"/>
     </g>
    </g>
    <g id="line2d_55">
     <path d="M 89.28 325.53225 
L 109.44 325.53225 
" style="fill:none;stroke:#0000ff;stroke-linecap:square;"/>
    </g>
    <g id="line2d_56"/>
    <g id="text_20">
     <!-- Target (lead) speed -->
     <defs>
      <path d="M 8.015625 75.875 
L 15.828125 75.875 
Q 23.140625 64.359375 26.78125 53.3125 
Q 30.421875 42.28125 30.421875 31.390625 
Q 30.421875 20.453125 26.78125 9.375 
Q 23.140625 -1.703125 15.828125 -13.1875 
L 8.015625 -13.1875 
Q 14.5 -2 17.703125 9.0625 
Q 20.90625 20.125 20.90625 31.390625 
Q 20.90625 42.671875 17.703125 53.65625 
Q 14.5 64.65625 8.015625 75.875 
" id="BitstreamVeraSans-Roman-29"/>
      <path d="M 34.28125 27.484375 
Q 23.390625 27.484375 19.1875 25 
Q 14.984375 22.515625 14.984375 16.5 
Q 14.984375 11.71875 18.140625 8.90625 
Q 21.296875 6.109375 26.703125 6.109375 
Q 34.1875 6.109375 38.703125 11.40625 
Q 43.21875 16.703125 43.21875 25.484375 
L 43.21875 27.484375 
z
M 52.203125 31.203125 
L 52.203125 0 
L 43.21875 0 
L 43.21875 8.296875 
Q 40.140625 3.328125 35.546875 0.953125 
Q 30.953125 -1.421875 24.3125 -1.421875 
Q 15.921875 -1.421875 10.953125 3.296875 
Q 6 8.015625 6 15.921875 
Q 6 25.140625 12.171875 29.828125 
Q 18.359375 34.515625 30.609375 34.515625 
L 43.21875 34.515625 
L 43.21875 35.40625 
Q 43.21875 41.609375 39.140625 45 
Q 35.0625 48.390625 27.6875 48.390625 
Q 23 48.390625 18.546875 47.265625 
Q 14.109375 46.140625 10.015625 43.890625 
L 10.015625 52.203125 
Q 14.9375 54.109375 19.578125 55.046875 
Q 24.21875 56 28.609375 56 
Q 40.484375 56 46.34375 49.84375 
Q 52.203125 43.703125 52.203125 31.203125 
" id="BitstreamVeraSans-Roman-61"/>
      <path d="M 9.421875 75.984375 
L 18.40625 75.984375 
L 18.40625 0 
L 9.421875 0 
z
" id="BitstreamVeraSans-Roman-6c"/>
      <path d="M 31 75.875 
Q 24.46875 64.65625 21.28125 53.65625 
Q 18.109375 42.671875 18.109375 31.390625 
Q 18.109375 20.125 21.3125 9.0625 
Q 24.515625 -2 31 -13.1875 
L 23.1875 -13.1875 
Q 15.875 -1.703125 12.234375 9.375 
Q 8.59375 20.453125 8.59375 31.390625 
Q 8.59375 42.28125 12.203125 53.3125 
Q 15.828125 64.359375 23.1875 75.875 
z
" id="BitstreamVeraSans-Roman-28"/>
      <path d="M 45.40625 27.984375 
Q 45.40625 37.75 41.375 43.109375 
Q 37.359375 48.484375 30.078125 48.484375 
Q 22.859375 48.484375 18.828125 43.109375 
Q 14.796875 37.75 14.796875 27.984375 
Q 14.796875 18.265625 18.828125 12.890625 
Q 22.859375 7.515625 30.078125 7.515625 
Q 37.359375 7.515625 41.375 12.890625 
Q 45.40625 18.265625 45.40625 27.984375 
M 54.390625 6.78125 
Q 54.390625 -7.171875 48.1875 -13.984375 
Q 42 -20.796875 29.203125 -20.796875 
Q 24.46875 -20.796875 20.265625 -20.09375 
Q 16.0625 -19.390625 12.109375 -17.921875 
L 12.109375 -9.1875 
Q 16.0625 -11.328125 19.921875 -12.34375 
Q 23.78125 -13.375 27.78125 -13.375 
Q 36.625 -13.375 41.015625 -8.765625 
Q 45.40625 -4.15625 45.40625 5.171875 
L 45.40625 9.625 
Q 42.625 4.78125 38.28125 2.390625 
Q 33.9375 0 27.875 0 
Q 17.828125 0 11.671875 7.65625 
Q 5.515625 15.328125 5.515625 27.984375 
Q 5.515625 40.671875 11.671875 48.328125 
Q 17.828125 56 27.875 56 
Q 33.9375 56 38.28125 53.609375 
Q 42.625 51.21875 45.40625 46.390625 
L 45.40625 54.6875 
L 54.390625 54.6875 
z
" id="BitstreamVeraSans-Roman-67"/>
      <path d="M 41.109375 46.296875 
Q 39.59375 47.171875 37.8125 47.578125 
Q 36.03125 48 33.890625 48 
Q 26.265625 48 22.1875 43.046875 
Q 18.109375 38.09375 18.109375 28.8125 
L 18.109375 0 
L 9.078125 0 
L 9.078125 54.6875 
L 18.109375 54.6875 
L 18.109375 46.1875 
Q 20.953125 51.171875 25.484375 53.578125 
Q 30.03125 56 36.53125 56 
Q 37.453125 56 38.578125 55.875 
Q 39.703125 55.765625 41.0625 55.515625 
z
" id="BitstreamVeraSans-Roman-72"/>
      <path d="M 18.3125 70.21875 
L 18.3125 54.6875 
L 36.8125 54.6875 
L 36.8125 47.703125 
L 18.3125 47.703125 
L 18.3125 18.015625 
Q 18.3125 11.328125 20.140625 9.421875 
Q 21.96875 7.515625 27.59375 7.515625 
L 36.8125 7.515625 
L 36.8125 0 
L 27.59375 0 
Q 17.1875 0 13.234375 3.875 
Q 9.28125 7.765625 9.28125 18.015625 
L 9.28125 47.703125 
L 2.6875 47.703125 
L 2.6875 54.6875 
L 9.28125 54.6875 
L 9.28125 70.21875 
z
" id="BitstreamVeraSans-Roman-74"/>
     </defs>
     <g transform="translate(125.28 330.57225)scale(0.144 -0.144)">
      <use xlink:href="#BitstreamVeraSans-Roman-54"/>
      <use x="60.833984375" xlink:href="#BitstreamVeraSans-Roman-61"/>
      <use x="122.11328125" xlink:href="#BitstreamVeraSans-Roman-72"/>
      <use x="163.2109375" xlink:href="#BitstreamVeraSans-Roman-67"/>
      <use x="226.6875" xlink:href="#BitstreamVeraSans-Roman-65"/>
      <use x="288.2109375" xlink:href="#BitstreamVeraSans-Roman-74"/>
      <use x="327.419921875" xlink:href="#BitstreamVeraSans-Roman-20"/>
      <use x="359.20703125" xlink:href="#BitstreamVeraSans-Roman-28"/>
      <use x="398.220703125" xlink:href="#BitstreamVeraSans-Roman-6c"/>
      <use x="426.00390625" xlink:href="#BitstreamVeraSans-Roman-65"/>
      <use x="487.52734375" xlink:href="#BitstreamVeraSans-Roman-61"/>
      <use x="548.806640625" xlink:href="#BitstreamVeraSans-Roman-64"/>
      <use x="612.283203125" xlink:href="#BitstreamVeraSans-Roman-29"/>
      <use x="651.296875" xlink:href="#BitstreamVeraSans-Roman-20"/>
      <use x="683.083984375" xlink:href="#BitstreamVeraSans-Roman-73"/>
      <use x="735.18359375" xlink:href="#BitstreamVeraSans-Roman-70"/>
      <use x="798.66015625" xlink:href="#BitstreamVeraSans-Roman-65"/>
      <use x="860.18359375" xlink:href="#BitstreamVeraSans-Roman-65"/>
      <use x="921.70703125" xlink:href="#BitstreamVeraSans-Roman-64"/>
     </g>
    </g>
    <g id="line2d_57">
     <path d="M 89.28 346.66875 
L 109.44 346.66875 
" style="fill:none;stroke:#000000;stroke-linecap:square;"/>
    </g>
    <g id="line2d_58"/>
    <g id="text_21">
     <!-- Cruise speed -->
     <defs>
      <path d="M 8.5 21.578125 
L 8.5 54.6875 
L 17.484375 54.6875 
L 17.484375 21.921875 
Q 17.484375 14.15625 20.5 10.265625 
Q 23.53125 6.390625 29.59375 6.390625 
Q 36.859375 6.390625 41.078125 11.03125 
Q 45.3125 15.671875 45.3125 23.6875 
L 45.3125 54.6875 
L 54.296875 54.6875 
L 54.296875 0 
L 45.3125 0 
L 45.3125 8.40625 
Q 42.046875 3.421875 37.71875 1 
Q 33.40625 -1.421875 27.6875 -1.421875 
Q 18.265625 -1.421875 13.375 4.4375 
Q 8.5 10.296875 8.5 21.578125 
" id="BitstreamVeraSans-Roman-75"/>
      <path d="M 64.40625 67.28125 
L 64.40625 56.890625 
Q 59.421875 61.53125 53.78125 63.8125 
Q 48.140625 66.109375 41.796875 66.109375 
Q 29.296875 66.109375 22.65625 58.46875 
Q 16.015625 50.828125 16.015625 36.375 
Q 16.015625 21.96875 22.65625 14.328125 
Q 29.296875 6.6875 41.796875 6.6875 
Q 48.140625 6.6875 53.78125 8.984375 
Q 59.421875 11.28125 64.40625 15.921875 
L 64.40625 5.609375 
Q 59.234375 2.09375 53.4375 0.328125 
Q 47.65625 -1.421875 41.21875 -1.421875 
Q 24.65625 -1.421875 15.125 8.703125 
Q 5.609375 18.84375 5.609375 36.375 
Q 5.609375 53.953125 15.125 64.078125 
Q 24.65625 74.21875 41.21875 74.21875 
Q 47.75 74.21875 53.53125 72.484375 
Q 59.328125 70.75 64.40625 67.28125 
" id="BitstreamVeraSans-Roman-43"/>
     </defs>
     <g transform="translate(125.28 351.70875)scale(0.144 -0.144)">
      <use xlink:href="#BitstreamVeraSans-Roman-43"/>
      <use x="69.82421875" xlink:href="#BitstreamVeraSans-Roman-72"/>
      <use x="110.9375" xlink:href="#BitstreamVeraSans-Roman-75"/>
      <use x="174.31640625" xlink:href="#BitstreamVeraSans-Roman-69"/>
      <use x="202.099609375" xlink:href="#BitstreamVeraSans-Roman-73"/>
      <use x="254.19921875" xlink:href="#BitstreamVeraSans-Roman-65"/>
      <use x="315.72265625" xlink:href="#BitstreamVeraSans-Roman-20"/>
      <use x="347.509765625" xlink:href="#BitstreamVeraSans-Roman-73"/>
      <use x="399.609375" xlink:href="#BitstreamVeraSans-Roman-70"/>
      <use x="463.0859375" xlink:href="#BitstreamVeraSans-Roman-65"/>
      <use x="524.609375" xlink:href="#BitstreamVeraSans-Roman-65"/>
      <use x="586.1328125" xlink:href="#BitstreamVeraSans-Roman-64"/>
     </g>
    </g>
    <g id="line2d_59">
     <path d="M 89.28 367.80525 
L 109.44 367.80525 
" style="fill:none;stroke:#bf00bf;stroke-linecap:square;"/>
    </g>
    <g id="line2d_60"/>
    <g id="text_22">
     <!-- Lead speed -->
     <defs>
      <path d="M 9.8125 72.90625 
L 19.671875 72.90625 
L 19.671875 8.296875 
L 55.171875 8.296875 
L 55.171875 0 
L 9.8125 0 
z
" id="BitstreamVeraSans-Roman-4c"/>
     </defs>
     <g transform="translate(125.28 372.84525)scale(0.144 -0.144)">
      <use xlink:href="#BitstreamVeraSans-Roman-4c"/>
      <use x="55.697265625" xlink:href="#BitstreamVeraSans-Roman-65"/>
      <use x="117.220703125" xlink:href="#BitstreamVeraSans-Roman-61"/>
      <use x="178.5" xlink:href="#BitstreamVeraSans-Roman-64"/>
      <use x="241.9765625" xlink:href="#BitstreamVeraSans-Roman-20"/>
      <use x="273.763671875" xlink:href="#BitstreamVeraSans-Roman-73"/>
      <use x="325.86328125" xlink:href="#BitstreamVeraSans-Roman-70"/>
      <use x="389.33984375" xlink:href="#BitstreamVeraSans-Roman-65"/>
      <use x="450.86328125" xlink:href="#BitstreamVeraSans-Roman-65"/>
      <use x="512.38671875" xlink:href="#BitstreamVeraSans-Roman-64"/>
     </g>
    </g>
   </g>
  </g>
 </g>
 <defs>
  <clipPath id="p6a4bd705a8">
   <rect height="345.6" width="446.4" x="72.0" y="43.2"/>
  </clipPath>
 </defs>
</svg>
