<?xml version="1.0" encoding="utf-8" standalone="no"?>
<!DOCTYPE svg PUBLIC "-//W3C//DTD SVG 1.1//EN"
  "http://www.w3.org/Graphics/SVG/1.1/DTD/svg11.dtd">
<!-- Created with matplotlib (http://matplotlib.org/) -->
<svg height="432pt" version="1.1" viewBox="0 0 576 432" width="576pt" xmlns="http://www.w3.org/2000/svg" xmlns:xlink="http://www.w3.org/1999/xlink">
 <defs>
  <style type="text/css">
*{stroke-linecap:butt;stroke-linejoin:round;stroke-miterlimit:100000;}
  </style>
 </defs>
 <g id="figure_1">
  <g id="patch_1">
   <path d="M 0 432 
L 576 432 
L 576 0 
L 0 0 
z
" style="fill:#ffffff;"/>
  </g>
  <g id="axes_1">
   <g id="patch_2">
    <path d="M 72 388.8 
L 518.4 388.8 
L 518.4 43.2 
L 72 43.2 
z
" style="fill:#ffffff;"/>
   </g>
   <g id="line2d_1">
    <path clip-path="url(#p0d549cc382)" d="M 72.1488 151.629531 
L 74.3808 160.131496 
L 76.6128 167.822093 
L 78.9936 175.21813 
L 81.3744 181.863648 
L 83.7552 187.834766 
L 86.136 193.199889 
L 88.5168 198.020491 
L 90.8976 202.351814 
L 92.2368 204.592015 
L 92.3856 208.689843 
L 92.5344 208.903205 
L 92.6832 212.972285 
L 92.9808 213.340663 
L 93.1296 217.380153 
L 93.2784 217.535565 
L 93.4272 221.547082 
L 93.576 221.674707 
L 93.7248 225.658622 
L 93.8736 225.758829 
L 94.0224 229.71551 
L 94.1712 229.788664 
L 94.32 233.718472 
L 94.4688 233.764933 
L 94.6176 237.668225 
L 94.7664 237.688347 
L 94.9152 242.336904 
L 95.064 242.325893 
L 95.2128 246.172096 
L 95.3616 246.13551 
L 95.5104 249.956309 
L 95.6592 249.894489 
L 95.808 253.690221 
L 95.9568 253.603501 
L 96.1056 257.3745 
L 96.2544 257.263211 
L 96.4032 261.009806 
L 96.552 260.874276 
L 96.7008 264.59679 
L 96.8496 264.43734 
L 96.9984 268.136095 
L 97.1472 267.953044 
L 97.296 272.399782 
L 97.4448 272.188299 
L 97.5936 275.835368 
L 97.7424 275.600976 
L 97.8912 279.225287 
L 98.04 278.96829 
L 98.1888 282.570148 
L 98.3376 282.290847 
L 98.4864 285.870549 
L 98.6352 285.569241 
L 98.784 289.127083 
L 98.9328 288.804059 
L 99.0816 292.340331 
L 99.2304 291.995882 
L 99.3792 295.510871 
L 99.528 295.14528 
L 99.6768 299.410698 
L 99.8256 299.019104 
L 99.9744 300.172978 
L 100.1232 299.776302 
L 100.272 300.153701 
L 100.4208 299.757155 
L 100.5696 300.906111 
L 100.7184 300.50455 
L 101.016 302.784869 
L 101.1648 302.370783 
L 101.3136 303.502315 
L 101.76 302.254071 
L 102.0576 303.73972 
L 102.3552 302.901629 
L 102.504 304.029627 
L 102.6528 303.607249 
L 102.8016 303.959116 
L 103.3968 302.288301 
L 103.5456 303.420395 
L 103.6944 303.002085 
L 103.8432 303.357994 
L 103.992 302.940102 
L 104.1408 303.296425 
L 104.2896 302.878945 
L 104.4384 303.235678 
L 104.5872 302.818605 
L 104.736 303.175742 
L 104.8848 302.75907 
L 105.0336 303.888034 
L 105.1824 303.466615 
L 105.3312 303.819434 
L 105.48 303.398474 
L 105.6288 303.75175 
L 105.7776 303.331243 
L 105.9264 303.684968 
L 106.0752 303.264908 
L 106.224 303.619078 
L 106.3728 303.199459 
L 106.5216 303.554066 
L 106.6704 303.134883 
L 106.8192 303.489923 
L 106.968 303.071168 
L 107.1168 303.426635 
L 107.2656 303.008304 
L 107.4144 303.364191 
L 107.5632 302.946279 
L 107.712 303.302581 
L 107.8608 302.885081 
L 108.0096 303.241794 
L 108.1584 302.8247 
L 108.3072 303.181817 
L 108.456 302.765125 
L 108.6048 303.122641 
L 108.7536 302.706346 
L 108.9024 303.835683 
L 109.0512 303.414635 
L 109.2 303.767824 
L 109.3488 303.34723 
L 109.4976 303.70087 
L 109.6464 303.280724 
L 109.7952 303.634809 
L 109.944 303.215106 
L 110.0928 303.56963 
L 112.4736 297.18668 
L 114.8544 291.451786 
L 117.2352 286.299119 
L 118.4256 283.922399 
L 118.5744 240.685714 
L 242.6736 240.685714 
L 242.8224 240.343772 
L 242.9712 240.346051 
L 243.12 238.034031 
L 243.4176 238.069269 
L 243.5664 235.772428 
L 243.7152 235.805183 
L 243.864 233.523435 
L 244.0128 233.571184 
L 244.1616 231.304329 
L 244.4592 231.428998 
L 244.608 228.404997 
L 244.7568 228.486868 
L 244.9056 226.25391 
L 245.2032 226.445693 
L 245.352 224.226342 
L 245.5008 224.336072 
L 245.6496 222.130786 
L 245.7984 222.254486 
L 245.9472 190.748806 
L 247.7328 194.600544 
L 247.8816 194.136358 
L 248.0304 194.446696 
L 248.1792 193.983537 
L 248.328 194.294894 
L 248.4768 193.832748 
L 248.7744 194.455394 
L 248.9232 193.992179 
L 249.072 194.303481 
L 249.2208 193.84128 
L 249.816 195.078082 
L 249.9648 194.610719 
L 250.2624 195.223035 
L 250.4112 162.354724 
L 250.8576 163.911011 
L 251.0064 162.439429 
L 251.304 163.479303 
L 251.4528 160.079356 
L 251.6016 160.61677 
L 251.7504 157.23591 
L 252.048 158.344952 
L 252.1968 154.979243 
L 252.3456 155.550669 
L 252.4944 152.203593 
L 252.6432 152.793528 
L 252.792 150.443511 
L 253.0896 151.642848 
L 253.3872 149.903282 
L 253.6848 151.109813 
L 253.8336 150.728381 
L 253.9824 151.328167 
L 254.1312 149.966609 
L 254.28 150.571478 
L 254.4288 150.193642 
L 254.5776 150.797001 
L 254.7264 149.438992 
L 254.8752 150.047386 
L 255.024 149.673052 
L 255.1728 150.279889 
L 255.3216 149.904008 
L 255.4704 150.509309 
L 255.6192 149.153229 
L 255.768 149.763539 
L 255.9168 149.391109 
L 256.0656 149.999836 
L 256.2144 149.625834 
L 256.3632 150.233 
L 256.512 148.878773 
L 256.6608 149.490924 
L 256.9584 148.752193 
L 257.256 149.974109 
L 257.4048 149.600293 
L 257.5536 150.207644 
L 257.7024 148.8536 
L 257.8512 149.465934 
L 258 149.095513 
L 258.1488 149.706237 
L 258.2976 149.334218 
L 258.4464 149.943354 
L 258.5952 148.591084 
L 258.744 149.205179 
L 258.8928 148.836508 
L 259.0416 149.448971 
L 259.1904 148.100004 
L 259.3392 148.717381 
L 259.488 148.35197 
L 259.6368 148.967671 
L 259.7856 148.600595 
L 259.9344 147.257295 
L 260.232 148.499154 
L 260.3808 148.13521 
L 260.5296 148.752367 
L 260.6784 148.386738 
L 260.8272 149.002222 
L 260.976 147.656257 
L 261.1248 148.276615 
L 261.2736 147.914166 
L 261.4224 148.532808 
L 261.5712 148.168654 
L 261.72 148.785604 
L 261.8688 147.441094 
L 262.0176 148.062899 
L 262.1664 147.701886 
L 262.3152 148.321955 
L 262.464 146.980546 
L 262.6128 147.605429 
L 262.9104 146.891909 
L 263.0592 147.517389 
L 263.208 146.181354 
L 263.3568 146.811577 
L 263.5056 146.458925 
L 263.6544 147.087301 
L 263.8032 146.732815 
L 264.1008 147.981744 
L 264.2496 146.642626 
L 264.3984 147.269786 
L 264.5472 146.914092 
L 264.696 147.539446 
L 264.8448 146.203285 
L 264.9936 146.833383 
L 265.1424 146.480607 
L 265.2912 147.10886 
L 265.44 146.754251 
L 265.5888 147.380682 
L 265.7376 146.045591 
L 265.8864 146.676752 
L 266.0352 146.325033 
L 266.184 146.954334 
L 266.3328 146.600768 
L 266.4816 147.228234 
L 266.6304 145.894171 
L 266.7792 146.526354 
L 266.928 146.175649 
L 267.0768 146.805959 
L 267.2256 145.47472 
L 267.3744 146.109708 
L 267.5232 145.76179 
L 267.672 146.394867 
L 267.8208 146.045051 
L 267.9696 146.676243 
L 268.1184 145.345881 
L 268.2672 145.98174 
L 268.416 145.634688 
L 268.5648 146.268624 
L 268.7136 145.919662 
L 268.8624 144.594356 
L 269.0112 145.235237 
L 269.16 144.893173 
L 269.3088 145.532065 
L 269.4576 144.209352 
L 269.6064 144.852809 
L 269.7552 144.513304 
L 269.904 145.154738 
L 270.0528 144.813222 
L 270.3504 146.087835 
L 270.4992 144.761429 
L 270.648 145.401218 
L 270.7968 145.058068 
L 270.9456 145.695883 
L 271.0944 145.350772 
L 271.2432 145.986639 
L 271.392 144.660919 
L 271.5408 145.301391 
L 271.6896 144.958919 
L 271.8384 145.597407 
L 271.9872 143.695212 
L 272.136 143.695529 
L 272.2848 142.717176 
L 272.4336 139.781481 
L 273.0288 139.782841 
L 273.1776 138.804513 
L 273.3264 138.804864 
L 273.4752 137.826545 
L 273.624 137.826904 
L 273.7728 136.848592 
L 273.9216 136.84896 
L 274.2192 133.913689 
L 274.5168 133.914461 
L 274.8144 131.957901 
L 275.112 131.958708 
L 275.2608 130.980443 
L 275.4096 130.980856 
L 275.5584 130.002599 
L 275.7072 130.003022 
L 275.856 129.024775 
L 276.0048 129.025206 
L 276.1536 128.046968 
L 276.3024 128.047409 
L 276.4512 127.06918 
L 276.6 127.069631 
L 276.7488 126.091411 
L 276.8976 126.091871 
L 277.0464 125.113661 
L 277.1952 125.114131 
L 277.344 124.135931 
L 277.6416 119.24354 
L 277.9392 119.244556 
L 278.088 120.223742 
L 278.2368 120.224254 
L 278.3856 119.246096 
L 278.6832 119.247144 
L 278.832 120.226346 
L 278.9808 120.226874 
L 279.1296 119.248732 
L 279.2784 119.24927 
L 279.4272 118.271139 
L 279.8736 113.379458 
L 280.0224 113.38004 
L 280.1712 112.401952 
L 280.32 112.402545 
L 280.4688 110.445796 
L 280.7664 110.447019 
L 280.9152 109.468963 
L 281.2128 109.470218 
L 281.3616 108.492178 
L 281.6592 108.493466 
L 281.808 105.558095 
L 282.1056 105.559435 
L 282.2544 103.602764 
L 282.4032 103.603454 
L 282.552 102.625474 
L 283.1472 102.628311 
L 283.296 99.693011 
L 284.04 99.69675 
L 284.1888 98.718837 
L 284.3376 96.762261 
L 285.0816 96.766235 
L 285.2304 94.809697 
L 285.6768 94.812182 
L 285.8256 91.877001 
L 286.1232 91.878725 
L 286.272 89.922247 
L 286.5696 89.924024 
L 286.7184 87.967573 
L 287.3136 87.971252 
L 287.4624 86.014838 
L 288.6528 86.022583 
L 288.8016 84.066228 
L 289.3968 84.070298 
L 289.5456 83.092656 
L 289.6944 81.136353 
L 289.992 81.138481 
L 290.1408 79.182207 
L 290.4384 79.184395 
L 290.5872 78.206824 
L 290.736 76.250593 
L 291.6288 76.257488 
L 291.7776 75.279985 
L 292.3728 75.284752 
L 292.5216 73.328612 
L 292.6704 73.329839 
L 292.8192 74.309746 
L 293.4144 74.31471 
L 293.5632 73.337293 
L 294.1584 66.49178 
L 294.456 66.494482 
L 294.6048 63.559824 
L 294.7536 63.561214 
L 294.9024 62.583939 
L 295.0512 60.628005 
L 295.2 61.608113 
L 295.3488 61.609547 
L 295.4976 59.653641 
L 295.6464 59.655105 
L 295.7952 60.63525 
L 296.0928 60.638197 
L 296.2416 59.661009 
L 296.5392 56.728012 
L 296.688 56.72955 
L 296.8368 57.70977 
L 297.1344 57.712867 
L 297.2832 58.6931 
L 297.432 58.694659 
L 297.5808 59.674898 
L 297.7296 59.676463 
L 297.8784 57.720688 
L 298.0272 57.722285 
L 298.176 58.702561 
L 298.4736 58.705773 
L 298.6224 59.686062 
L 299.0688 59.690929 
L 299.2176 58.713893 
L 299.3664 58.715545 
L 299.5152 59.695878 
L 300.1104 59.702554 
L 300.2592 58.725567 
L 300.408 58.72727 
L 300.5568 59.707654 
L 301.0032 59.7128 
L 301.152 60.693203 
L 301.4496 60.696665 
L 301.5984 61.67708 
L 301.7472 61.678819 
L 301.896 59.723219 
L 302.0448 59.724991 
L 302.1936 60.705444 
L 302.64 60.710796 
L 302.7888 61.691267 
L 303.0864 61.694865 
L 303.2352 62.675348 
L 303.6816 62.680788 
L 303.8304 63.661289 
L 303.9792 63.663113 
L 304.128 62.68627 
L 304.7232 62.693704 
L 304.872 63.674252 
L 305.0208 63.676125 
L 305.1696 61.720657 
L 305.3184 61.722564 
L 305.4672 62.703151 
L 305.9136 62.708902 
L 306.0624 63.689506 
L 306.36 63.693367 
L 306.5088 62.716635 
L 307.104 62.72451 
L 307.2528 61.747823 
L 308.592 61.766111 
L 308.7408 62.746851 
L 309.0384 62.750983 
L 309.1872 61.774386 
L 310.08 61.787059 
L 310.2288 62.767868 
L 310.6752 62.774285 
L 310.824 61.797764 
L 311.4192 61.806491 
L 311.568 62.787364 
L 311.7168 62.789558 
L 311.8656 61.813086 
L 312.6096 61.824256 
L 312.7584 62.805184 
L 312.9072 60.850087 
L 313.056 60.852369 
L 313.2048 61.83333 
L 313.5024 58.901909 
L 313.6512 58.904243 
L 313.8 59.885258 
L 313.9488 58.908922 
L 314.544 58.91839 
L 314.6928 60.878121 
L 314.8416 60.880488 
L 314.9904 61.861535 
L 315.288 61.866277 
L 315.4368 63.826005 
L 316.032 63.835495 
L 316.1808 65.795231 
L 316.4784 65.799977 
L 316.6272 67.759707 
L 317.2224 67.769198 
L 317.3712 69.728934 
L 317.52 69.731302 
L 317.6688 70.71235 
L 317.9664 70.717092 
L 318.1152 71.698145 
L 318.4128 71.702896 
L 318.5616 73.662628 
L 318.7104 73.664991 
L 318.8592 74.646034 
L 319.1568 74.650764 
L 319.3056 76.610484 
L 319.9008 76.619926 
L 320.0496 78.579647 
L 320.3472 78.584358 
L 320.496 79.565396 
L 320.7936 79.570112 
L 320.9424 80.551152 
L 321.0912 80.55351 
L 321.24 81.534546 
L 321.5376 81.539261 
L 321.6864 83.498973 
L 322.2816 83.508373 
L 322.4304 85.468083 
L 322.728 85.472766 
L 322.8768 87.432462 
L 323.472 87.441794 
L 323.6208 88.422813 
L 323.9184 88.427489 
L 324.0672 90.387182 
L 324.96 90.401179 
L 325.1088 93.339548 
L 325.4064 93.344171 
L 325.5552 95.303835 
L 326.5968 95.319977 
L 326.7456 94.343628 
L 326.8944 94.345973 
L 327.0432 95.326995 
L 327.6384 95.336375 
L 327.7872 96.317405 
L 328.0848 96.3221 
L 328.2336 98.2818 
L 329.1264 98.295826 
L 329.2752 100.255526 
L 329.5728 100.26018 
L 329.7216 101.241187 
L 330.3168 101.250499 
L 330.4656 103.210184 
L 330.7632 103.214807 
L 330.912 104.195798 
L 331.5072 104.205045 
L 331.656 105.186039 
L 331.9536 105.190662 
L 332.1024 107.150325 
L 332.6976 107.159498 
L 332.8464 108.140474 
L 333.144 108.145057 
L 333.2928 109.126028 
L 333.888 109.135187 
L 334.0368 110.116159 
L 334.1856 110.118445 
L 334.3344 111.099408 
L 334.9296 111.108534 
L 335.0784 112.089497 
L 335.6736 112.098626 
L 335.8224 113.079591 
L 336.4176 113.088721 
L 336.5664 115.048358 
L 336.864 115.052881 
L 337.0128 116.033821 
L 337.9056 116.047384 
L 338.0544 117.02833 
L 339.2448 117.046485 
L 339.3936 118.027442 
L 339.84 118.03426 
L 339.9888 119.015213 
L 340.584 119.024289 
L 340.7328 120.005239 
L 341.0304 120.009766 
L 341.1792 120.990707 
L 341.9232 121.002003 
L 342.072 121.982944 
L 343.1136 121.998778 
L 343.2624 122.979725 
L 343.8576 122.988777 
L 344.0064 123.96972 
L 344.1552 122.993301 
L 344.304 122.995578 
L 344.4528 123.97653 
L 345.4944 123.992435 
L 345.6432 124.973392 
L 346.2384 124.98248 
L 346.3872 125.963432 
L 346.9824 125.9725 
L 347.1312 126.953447 
L 347.7264 126.962493 
L 347.8752 127.943435 
L 348.4704 127.952459 
L 348.6192 128.933395 
L 349.2144 128.942394 
L 349.3632 129.923324 
L 349.9584 129.932298 
L 350.1072 130.913221 
L 350.7024 130.922167 
L 350.8512 131.903084 
L 362.0112 132.077058 
L 362.16 133.058147 
L 367.9632 133.153455 
L 368.112 134.134621 
L 372.4272 134.207326 
L 372.576 135.188542 
L 375.4032 135.236874 
L 375.552 136.218115 
L 375.7008 136.220661 
L 375.8496 135.244536 
L 375.9984 135.247111 
L 376.1472 136.228361 
L 378.6768 136.272118 
L 378.8256 137.253386 
L 381.6528 137.30266 
L 381.8016 138.283949 
L 383.736 138.31784 
L 383.8848 139.299135 
L 384.7776 139.314766 
L 384.9264 138.338706 
L 385.3728 138.346633 
L 385.5216 139.327953 
L 386.4144 139.343728 
L 386.5632 140.325038 
L 386.8608 140.330267 
L 387.0096 139.354212 
L 387.9024 139.370118 
L 388.0512 140.35145 
L 388.4976 140.359361 
L 388.6464 141.340676 
L 391.176 141.385462 
L 391.3248 142.366788 
L 392.9616 142.395822 
L 393.1104 143.377147 
L 395.64 143.422083 
L 395.7888 144.403418 
L 397.872 144.440507 
L 398.0208 145.421844 
L 400.2528 145.461625 
L 400.4016 146.442966 
L 402.0384 146.472129 
L 402.1872 147.453465 
L 404.1216 147.487883 
L 404.2704 148.469217 
L 404.8656 148.479764 
L 405.0144 147.503733 
L 405.9072 147.519787 
L 406.056 148.501142 
L 407.9904 148.535807 
L 408.1392 149.517159 
L 410.0736 149.551774 
L 410.2224 150.533122 
L 411.5616 150.557014 
L 411.7104 149.581004 
L 413.496 149.613444 
L 413.6448 150.594832 
L 413.7936 150.597519 
L 413.9424 151.578881 
L 414.0912 151.581543 
L 414.24 152.562879 
L 414.3888 152.565514 
L 414.5376 153.546824 
L 414.6864 153.549434 
L 414.8352 154.530718 
L 414.984 154.533301 
L 415.1328 155.514559 
L 415.2816 155.517115 
L 415.4304 156.498347 
L 415.5792 156.500877 
L 415.728 157.482082 
L 416.1744 157.489599 
L 416.3232 158.47078 
L 416.472 158.47326 
L 416.6208 159.454415 
L 416.9184 159.459323 
L 417.0672 160.440452 
L 417.216 160.44288 
L 417.3648 161.423982 
L 417.8112 161.431189 
L 417.96 162.412267 
L 418.1088 162.414643 
L 418.2576 163.395694 
L 418.4064 163.398043 
L 418.5552 162.421721 
L 418.704 162.424102 
L 418.8528 163.405158 
L 419.0016 163.407512 
L 419.1504 164.388541 
L 419.8944 164.400186 
L 420.0432 165.381192 
L 420.192 165.383496 
L 420.3408 163.428455 
L 420.7872 163.435558 
L 420.936 164.416601 
L 421.3824 164.423629 
L 421.5312 165.404647 
L 421.68 165.406962 
L 421.8288 164.430606 
L 421.9776 164.432955 
L 422.1264 165.413978 
L 422.5728 165.420943 
L 422.7216 166.40194 
L 422.8704 166.404235 
L 423.0192 167.385205 
L 423.168 167.387472 
L 423.3168 166.411067 
L 423.7632 166.417969 
L 423.912 167.398945 
L 424.3584 167.405769 
L 424.5072 168.38672 
L 426.2928 168.413763 
L 426.4416 167.437351 
L 426.7392 167.441936 
L 426.888 165.486885 
L 427.0368 166.467915 
L 427.1856 166.470242 
L 427.4832 162.5603 
L 427.632 162.562754 
L 427.7808 161.586536 
L 427.9296 159.631677 
L 428.0784 159.634227 
L 428.2272 157.679432 
L 428.376 158.66072 
L 428.5248 158.663305 
L 428.6736 156.708545 
L 428.8224 156.711194 
L 428.9712 157.692519 
L 429.12 157.69514 
L 429.2688 158.676436 
L 429.4176 158.67903 
L 429.5664 159.660298 
L 429.7152 157.705517 
L 429.864 157.708146 
L 430.0128 158.689449 
L 430.4592 158.697254 
L 430.608 159.678532 
L 430.7568 159.681107 
L 431.0544 161.643576 
L 431.2032 159.688746 
L 431.352 159.691326 
L 431.5008 160.672581 
L 431.6496 160.675133 
L 431.7984 158.72034 
L 431.9472 158.722957 
L 432.096 159.704248 
L 432.5424 159.712017 
L 432.6912 160.693283 
L 432.9888 160.698409 
L 433.1376 159.722301 
L 433.4352 159.727498 
L 433.584 160.708772 
L 433.7328 160.711342 
L 433.8816 161.692587 
L 434.0304 161.695128 
L 434.1792 159.740325 
L 434.328 159.742932 
L 434.4768 160.724214 
L 434.6256 160.726792 
L 434.7744 161.708045 
L 434.9232 161.710594 
L 435.072 162.691818 
L 435.5184 162.699382 
L 435.6672 163.68058 
L 436.4112 163.69306 
L 436.56 164.674232 
L 436.7088 164.676701 
L 436.8576 165.657845 
L 437.304 165.665167 
L 437.4528 166.646283 
L 437.8992 166.653524 
L 438.048 167.634613 
L 438.6432 167.644158 
L 438.792 168.625221 
L 439.2384 168.632299 
L 439.3872 166.677314 
L 439.6848 166.682168 
L 439.8336 165.705924 
L 440.28 165.713314 
L 440.4288 166.694453 
L 440.8752 166.70176 
L 441.024 167.682871 
L 441.3216 167.687686 
L 441.4704 169.647441 
L 442.0656 169.656829 
L 442.2144 172.595198 
L 442.512 172.599706 
L 442.6608 173.580634 
L 443.256 173.589535 
L 443.4048 176.527781 
L 443.5536 176.529912 
L 443.7024 175.553371 
L 444 175.557701 
L 444.1488 178.495888 
L 444.2976 178.497957 
L 444.4464 177.521355 
L 444.744 177.525564 
L 444.8928 179.485015 
L 445.488 179.493184 
L 445.6368 181.452575 
L 445.7856 181.454554 
L 445.9344 180.477861 
L 446.232 180.481889 
L 446.3808 182.44125 
L 446.5296 182.4432 
L 446.6784 181.466478 
L 446.976 181.470447 
L 447.1248 182.451106 
L 447.4224 182.455014 
L 447.5712 184.414316 
L 447.72 184.416205 
L 447.8688 183.439423 
L 448.1664 183.443271 
L 448.3152 184.42387 
L 448.6128 184.427657 
L 448.7616 186.386897 
L 449.3568 186.394217 
L 449.5056 187.374721 
L 449.6544 187.37652 
L 449.8032 185.420973 
L 450.1008 185.424706 
L 450.2496 187.38392 
L 451.2912 187.396544 
L 451.44 188.377023 
L 451.7376 188.38057 
L 451.8864 189.361017 
L 452.0352 189.362758 
L 452.184 188.385827 
L 452.4816 188.389379 
L 452.6304 189.369829 
L 452.928 189.373318 
L 453.0768 190.353736 
L 453.2256 190.355449 
L 453.3744 189.378488 
L 453.672 189.381982 
L 453.8208 190.362403 
L 453.9696 190.364118 
L 454.1184 189.38716 
L 454.2672 189.388909 
L 454.416 188.411986 
L 454.8624 188.417338 
L 455.0112 187.44045 
L 455.4576 187.44591 
L 455.6064 185.490384 
L 456.0528 185.496052 
L 456.2016 184.519269 
L 456.3504 184.521193 
L 456.4992 185.501791 
L 456.648 185.503683 
L 456.7968 184.526903 
L 456.9456 184.52883 
L 457.0944 183.552084 
L 457.5408 183.557971 
L 457.6896 182.581262 
L 458.7312 182.595262 
L 458.88 181.618591 
L 459.0288 181.620629 
L 459.1776 180.643993 
L 459.3264 181.624739 
L 459.4752 181.626778 
L 459.624 180.650145 
L 460.368 180.660524 
L 460.5168 179.683929 
L 460.6656 179.686041 
L 460.8144 180.666828 
L 460.9632 180.668908 
L 461.112 179.692316 
L 462.8976 179.717751 
L 463.0464 178.741202 
L 463.1952 178.743362 
L 463.344 179.724195 
L 463.4928 179.726322 
L 463.6416 178.749776 
L 464.5344 178.762761 
L 464.6832 176.807582 
L 465.2784 176.816532 
L 465.4272 178.776117 
L 466.1712 178.786983 
L 466.32 177.810485 
L 466.4688 178.791369 
L 466.6176 178.793546 
L 466.7664 177.817051 
L 466.9152 177.819264 
L 467.064 178.800151 
L 467.6592 178.808875 
L 467.808 177.832385 
L 467.9568 177.834604 
L 468.1056 178.815496 
L 468.2544 178.817681 
L 468.4032 177.841194 
L 469.296 177.854535 
L 469.4448 178.835435 
L 469.5936 178.837627 
L 469.7424 177.861147 
L 470.784 177.876763 
L 470.9328 178.85767 
L 471.2304 178.862071 
L 471.3792 177.8856 
L 471.528 177.887837 
L 471.6768 178.868748 
L 471.8256 178.870952 
L 471.9744 177.894483 
L 472.4208 177.901206 
L 472.5696 178.882122 
L 472.7184 177.905657 
L 472.8672 177.907901 
L 473.016 178.888819 
L 473.1648 178.89103 
L 473.3136 177.914568 
L 473.4624 177.916816 
L 473.6112 178.897737 
L 473.76 178.899951 
L 473.9088 177.923492 
L 474.504 177.932498 
L 474.6528 178.913425 
L 474.8016 178.915644 
L 474.9504 177.939191 
L 475.0992 177.941447 
L 475.248 178.922376 
L 475.3968 178.924598 
L 475.5456 177.948148 
L 475.6944 177.950407 
L 475.8432 178.93134 
L 475.992 178.933565 
L 476.1408 177.957118 
L 476.2896 177.95938 
L 476.4384 178.940316 
L 481.0512 179.009742 
L 481.2 179.990667 
L 481.3488 179.992883 
L 481.4976 179.016427 
L 481.6464 179.018681 
L 481.7952 179.999609 
L 481.944 180.001828 
L 482.0928 179.025375 
L 482.2416 179.027632 
L 482.3904 180.008563 
L 482.5392 180.010785 
L 482.688 179.034335 
L 482.8368 179.036595 
L 482.9856 180.017529 
L 483.1344 180.019754 
L 483.2832 179.043307 
L 484.0272 179.054628 
L 484.176 180.035568 
L 484.6224 180.042263 
L 484.7712 179.065824 
L 484.92 179.068094 
L 485.0688 180.049038 
L 485.2176 180.051273 
L 485.3664 179.074837 
L 485.5152 179.07711 
L 485.664 180.058057 
L 485.8128 180.060295 
L 485.9616 179.083861 
L 486.1104 179.086137 
L 486.2592 180.067087 
L 488.4912 180.100784 
L 488.64 181.081709 
L 488.7888 179.126579 
L 489.0864 179.13116 
L 489.2352 180.112125 
L 489.9792 180.123411 
L 490.128 181.104344 
L 490.2768 181.106567 
L 490.4256 180.130119 
L 490.5744 180.13238 
L 490.7232 181.113315 
L 491.1696 181.119997 
L 491.3184 180.143552 
L 491.4672 180.145818 
L 491.616 181.126758 
L 495.336 181.18273 
L 495.4848 182.163651 
L 495.6336 182.165862 
L 495.7824 181.189402 
L 496.2288 181.196153 
L 496.3776 182.177079 
L 496.5264 182.179294 
L 496.6752 181.202837 
L 497.1216 181.209601 
L 497.2704 182.190531 
L 497.568 182.194971 
L 497.7168 181.218519 
L 498.0144 181.223037 
L 498.1632 182.20397 
L 500.2464 182.235162 
L 500.3952 180.280049 
L 500.8416 180.286976 
L 500.9904 181.26796 
L 501.288 181.272508 
L 501.4368 182.253457 
L 501.5856 182.255695 
L 501.7344 183.236607 
L 502.1808 183.243216 
L 502.3296 182.266747 
L 502.776 182.273475 
L 502.9248 183.254393 
L 507.3888 183.320889 
L 507.5376 182.344443 
L 507.8352 182.348973 
L 507.984 183.329913 
L 508.1328 183.332142 
L 508.2816 184.313045 
L 509.0256 184.324012 
L 509.1744 183.347534 
L 509.9184 183.35871 
L 510.0672 184.33962 
L 510.216 184.34182 
L 510.3648 185.322693 
L 510.5136 184.346182 
L 510.96 184.352788 
L 511.1088 182.397645 
L 511.5552 182.404488 
L 511.704 183.385444 
L 512.0016 183.389934 
L 512.1504 181.434833 
L 512.5968 181.441805 
L 512.7456 182.422804 
L 513.192 182.429669 
L 513.3408 183.410631 
L 513.6384 183.415135 
L 513.7872 184.396062 
L 514.2336 184.402709 
L 514.3824 185.383599 
L 514.9776 185.392318 
L 515.1264 187.351846 
L 515.2752 187.35395 
L 515.5728 183.443546 
L 516.6144 183.459385 
L 516.7632 184.440324 
L 518.4 184.464856 
L 518.4 184.464856 
" style="fill:none;stroke:#008000;stroke-linecap:square;"/>
   </g>
   <g id="line2d_2">
    <path clip-path="url(#p0d549cc382)" d="M 72.1488 240.685714 
L 72.2976 240.685714 
L 72.4464 339.428571 
L 77.952 339.428571 
L 78.1008 338.229653 
L 78.8448 338.066165 
L 91.1952 336.365881 
L 92.3856 336.318679 
L 92.5344 338.128557 
L 92.6832 338.142176 
L 92.832 340.446027 
L 93.7248 340.48094 
L 93.8736 342.456454 
L 94.6176 342.497324 
L 94.7664 344.57055 
L 95.9568 344.584169 
L 96.1056 346.764912 
L 96.9984 346.724043 
L 97.1472 349.036951 
L 97.5936 348.996082 
L 97.7424 346.448423 
L 98.1888 346.407554 
L 98.3376 348.767394 
L 98.784 348.712894 
L 98.9328 346.102201 
L 99.3792 346.061332 
L 99.528 348.472787 
L 99.8256 348.431918 
L 99.9744 345.796742 
L 100.5696 345.687753 
L 100.8672 345.453026 
L 101.3136 345.398526 
L 101.4624 342.774144 
L 101.76 342.706025 
L 101.9088 345.142259 
L 102.0576 342.435325 
L 102.6528 342.339956 
L 102.8016 339.727086 
L 103.248 339.645347 
L 103.3968 342.102769 
L 103.5456 339.406277 
L 103.992 339.324533 
L 104.1408 339.283658 
L 104.2896 337.226923 
L 109.7952 338.131559 
L 110.3904 338.229653 
L 110.5392 339.428571 
L 253.0896 339.428571 
L 253.2384 338.196953 
L 254.7264 337.869976 
L 259.1904 336.780052 
L 262.1664 336.006205 
L 262.6128 335.92991 
L 263.208 335.744622 
L 265.1424 335.286851 
L 268.5648 334.42581 
L 269.16 334.229621 
L 272.2848 333.43398 
L 281.064 330.796354 
L 281.3616 330.632866 
L 281.808 330.534778 
L 286.272 328.845389 
L 286.7184 328.605606 
L 287.016 328.551112 
L 287.4624 328.300429 
L 287.76 328.235029 
L 289.0992 327.67917 
L 289.3968 327.493882 
L 289.5456 327.493882 
L 289.8432 327.373988 
L 295.6464 324.758168 
L 296.0928 324.474786 
L 296.2416 324.474786 
L 296.5392 324.256803 
L 296.8368 324.180503 
L 298.3248 323.450256 
L 298.7712 323.166873 
L 301.0032 322.142343 
L 303.0864 321.139613 
L 303.5328 320.856231 
L 305.1696 320.136883 
L 307.2528 319.282692 
L 307.6992 319.19059 
L 310.3776 318.312109 
L 313.8 317.242349 
L 314.2464 317.143166 
L 314.6928 316.958966 
L 317.6688 316.03798 
L 317.9664 316.03798 
L 318.264 315.860867 
L 318.5616 315.775851 
L 324.5136 314.160584 
L 324.96 314.082653 
L 325.5552 313.884287 
L 342.072 310.051558 
L 342.5184 309.959461 
L 351.744 308.117489 
L 352.3392 308.004134 
L 360.2256 306.606432 
L 360.9696 306.513787 
L 385.0752 303.623302 
L 388.7952 303.178615 
L 389.5392 303.090603 
L 396.5328 302.32629 
L 397.5744 302.210486 
L 404.2704 301.487866 
L 405.1632 301.395222 
L 411.7104 300.69113 
L 441.024 298.060049 
L 442.2144 297.962773 
L 443.5536 297.856233 
L 468.4032 296.207178 
L 469.7424 296.100638 
L 471.3792 295.994092 
L 482.8368 295.18346 
L 484.0272 295.100079 
L 499.8 294.020784 
L 500.9904 293.937404 
L 518.4 292.80252 
L 518.4 292.80252 
" style="fill:none;stroke:#000000;stroke-dasharray:6.000000,6.000000;stroke-dashoffset:0.0;"/>
   </g>
   <g id="line2d_3">
    <path clip-path="url(#p0d549cc382)" d="M 72.1488 240.685714 
L 72.2976 240.685714 
L 72.4464 141.942857 
L 72.744 141.942857 
L 72.8928 240.693798 
L 74.5296 240.757829 
L 74.976 240.813355 
L 75.72 240.88428 
L 76.0176 240.970403 
L 76.9104 241.071527 
L 77.208 241.187456 
L 77.5056 241.187456 
L 77.8032 241.318001 
L 77.952 241.318001 
L 78.1008 243.419328 
L 78.2496 243.875254 
L 78.3984 241.625211 
L 78.696 241.630411 
L 78.9936 241.791443 
L 79.44 241.811456 
L 79.5888 241.989293 
L 80.184 241.993982 
L 80.3328 242.204508 
L 81.0768 242.226389 
L 81.2256 242.455725 
L 81.672 242.460732 
L 81.8208 242.704284 
L 82.416 242.68878 
L 82.5648 242.946532 
L 83.3088 242.978507 
L 83.4576 242.980381 
L 83.6064 243.260817 
L 84.3504 243.265022 
L 84.4992 243.593005 
L 85.0944 243.574882 
L 85.2432 243.884384 
L 85.9872 243.89628 
L 86.136 244.260642 
L 87.0288 244.275584 
L 87.1776 244.620075 
L 88.0704 244.681031 
L 88.2192 245.045206 
L 89.112 245.111644 
L 89.2608 245.495698 
L 90.1536 245.569837 
L 90.3024 245.935965 
L 91.344 246.020155 
L 91.4928 246.441237 
L 92.6832 246.537193 
L 92.832 246.939769 
L 97.5936 247.003713 
L 97.7424 246.550351 
L 98.784 246.559626 
L 98.9328 246.07344 
L 99.8256 246.080632 
L 99.9744 245.652768 
L 100.5696 245.595009 
L 100.7184 245.244301 
L 101.1648 245.266477 
L 101.3136 245.224485 
L 101.4624 244.828526 
L 101.9088 244.864299 
L 102.0576 244.476059 
L 102.6528 244.463079 
L 102.8016 244.098921 
L 103.3968 244.066287 
L 103.5456 243.808599 
L 104.1408 243.763321 
L 104.2896 243.432081 
L 104.8848 243.419831 
L 105.0336 243.139976 
L 105.7776 243.127653 
L 105.9264 242.828345 
L 106.3728 242.82296 
L 106.5216 242.542917 
L 107.1168 242.561511 
L 107.2656 242.298478 
L 107.712 242.315724 
L 107.8608 242.04872 
L 108.6048 242.04247 
L 108.9024 241.818186 
L 109.3488 241.814148 
L 109.4976 241.62443 
L 110.0928 241.620067 
L 110.3904 241.433944 
L 110.5392 240.685714 
L 110.8368 240.685714 
L 110.9856 241.331937 
L 111.5808 241.331937 
L 111.8784 241.183246 
L 112.4736 241.183246 
L 112.7712 241.058235 
L 113.0688 241.058235 
L 113.3664 240.945893 
L 115.0032 240.853189 
L 115.3008 240.780465 
L 231.5136 240.685714 
L 231.6624 131.760002 
L 231.96 131.760002 
L 232.2576 131.142857 
L 232.5552 131.142857 
L 232.704 130.83429 
L 232.8528 130.83429 
L 233.1504 130.217145 
L 233.2992 130.217145 
L 233.448 129.908567 
L 233.5968 129.908567 
L 233.7456 129.6 
L 233.8944 129.6 
L 234.0432 129.291433 
L 234.192 129.291433 
L 234.3408 128.982855 
L 234.4896 128.982855 
L 234.6384 128.674288 
L 234.7872 128.674288 
L 234.936 128.36571 
L 235.0848 128.36571 
L 235.2336 128.057143 
L 235.3824 128.057143 
L 235.5312 127.748576 
L 235.68 127.748576 
L 235.8288 127.439998 
L 235.9776 127.439998 
L 236.1264 127.131431 
L 236.424 127.131431 
L 236.5728 126.822852 
L 236.8704 126.822852 
L 237.0192 126.514286 
L 237.168 126.514286 
L 237.3168 126.205719 
L 237.4656 126.205719 
L 237.7632 125.588574 
L 237.912 125.588574 
L 238.0608 125.279995 
L 238.2096 125.279995 
L 238.3584 124.971429 
L 238.5072 124.971429 
L 238.656 124.662862 
L 238.8048 124.662862 
L 238.9536 124.354283 
L 239.1024 124.354283 
L 239.2512 124.045717 
L 239.4 124.045717 
L 239.5488 123.737138 
L 239.8464 123.737138 
L 239.9952 123.428571 
L 240.2928 123.428571 
L 240.4416 123.120005 
L 240.7392 123.120005 
L 241.0368 122.502859 
L 241.1856 122.502859 
L 241.3344 122.194281 
L 241.4832 122.194281 
L 241.632 121.885714 
L 241.7808 121.885714 
L 241.9296 121.577148 
L 242.0784 121.577148 
L 242.2272 121.268569 
L 242.5248 121.268569 
L 242.8224 120.651424 
L 242.9712 120.651424 
L 243.12 120.342857 
L 243.4176 120.342857 
L 243.5664 120.03429 
L 243.7152 120.03429 
L 243.864 119.725712 
L 244.0128 119.725712 
L 244.1616 119.417145 
L 244.3104 119.417145 
L 244.4592 119.108567 
L 244.608 119.108567 
L 244.7568 118.8 
L 244.9056 118.8 
L 245.0544 118.491433 
L 245.352 118.491433 
L 245.5008 118.182855 
L 245.6496 118.182855 
L 245.7984 117.874288 
L 245.9472 117.874288 
L 246.096 117.56571 
L 246.3936 117.56571 
L 246.5424 117.257143 
L 246.6912 117.257143 
L 246.84 116.948576 
L 247.2864 116.948576 
L 247.4352 116.639998 
L 247.7328 116.639998 
L 247.8816 116.331431 
L 248.1792 116.331431 
L 248.328 116.022852 
L 248.7744 116.022852 
L 248.9232 115.714286 
L 249.072 115.714286 
L 249.2208 115.405719 
L 249.5184 115.405719 
L 249.6672 115.097141 
L 250.1136 115.097141 
L 250.2624 114.788574 
L 250.4112 114.788574 
L 250.56 114.479995 
L 251.1552 114.479995 
L 251.304 114.171429 
L 251.7504 114.171429 
L 251.8992 113.862862 
L 252.3456 113.862862 
L 252.4944 113.554283 
L 253.0896 113.554283 
L 253.2384 113.245717 
L 253.9824 113.245717 
L 254.1312 112.937138 
L 254.7264 112.937138 
L 254.8752 112.628571 
L 255.4704 112.628571 
L 255.6192 112.320005 
L 256.3632 112.320005 
L 256.512 112.011426 
L 256.9584 112.011426 
L 257.1072 111.702859 
L 258 111.702859 
L 258.1488 111.394281 
L 258.744 111.394281 
L 258.8928 111.085714 
L 259.6368 111.085714 
L 259.7856 110.777148 
L 260.232 110.777148 
L 260.3808 110.468569 
L 261.1248 110.468569 
L 261.2736 110.160002 
L 261.8688 110.160002 
L 262.0176 109.851424 
L 262.7616 109.851424 
L 262.9104 109.542857 
L 263.5056 109.542857 
L 263.6544 109.23429 
L 264.5472 109.23429 
L 264.696 108.925712 
L 265.44 108.925712 
L 265.5888 108.617145 
L 266.184 108.617145 
L 266.3328 108.308567 
L 267.0768 108.308567 
L 267.2256 108 
L 267.9696 108 
L 268.1184 107.691433 
L 268.7136 107.691433 
L 268.8624 107.382855 
L 269.6064 107.382855 
L 269.7552 107.074288 
L 270.648 107.074288 
L 270.7968 106.76571 
L 271.2432 106.76571 
L 271.392 106.457143 
L 272.136 106.457143 
L 272.2848 106.148576 
L 273.3264 106.148576 
L 273.4752 105.839998 
L 274.0704 105.839998 
L 274.2192 105.531431 
L 275.4096 105.531431 
L 275.5584 105.222852 
L 276.6 105.222852 
L 276.7488 104.914286 
L 277.9392 104.914286 
L 278.088 104.605719 
L 279.7248 104.605719 
L 279.8736 104.297141 
L 282.4032 104.297141 
L 282.552 103.988574 
L 290.2896 103.988574 
L 290.4384 104.297141 
L 292.968 104.297141 
L 293.1168 104.605719 
L 294.9024 104.605719 
L 295.0512 104.914286 
L 296.3904 104.914286 
L 296.5392 105.222852 
L 297.8784 105.222852 
L 298.0272 105.531431 
L 299.0688 105.531431 
L 299.2176 105.839998 
L 300.5568 105.839998 
L 300.7056 106.148576 
L 302.0448 106.148576 
L 302.1936 106.457143 
L 303.384 106.457143 
L 303.5328 106.76571 
L 304.872 106.76571 
L 305.0208 107.074288 
L 306.0624 107.127635 
L 306.6576 107.473916 
L 306.9552 108.126327 
L 308.1456 108.9029 
L 308.4432 109.447264 
L 308.7408 109.774076 
L 309.336 110.118086 
L 309.6336 110.341689 
L 309.9312 110.864383 
L 310.2288 111.207251 
L 311.1216 111.755853 
L 311.2704 112.291201 
L 312.4608 113.06011 
L 312.6096 113.591315 
L 314.0976 114.596093 
L 314.3952 115.224197 
L 314.544 115.224197 
L 314.8416 115.563663 
L 315.288 115.784324 
L 315.5856 116.408284 
L 315.8832 116.509786 
L 316.1808 116.84811 
L 317.0736 117.38945 
L 317.2224 117.889826 
L 317.8176 118.210164 
L 317.9664 118.210164 
L 318.264 118.631662 
L 318.4128 118.631662 
L 318.7104 118.935132 
L 319.1568 119.25547 
L 319.4544 119.732975 
L 319.752 119.833794 
L 320.0496 120.136251 
L 320.3472 120.237071 
L 320.6448 120.539516 
L 320.9424 120.640336 
L 321.24 120.925996 
L 321.5376 121.026803 
L 321.8352 121.329261 
L 322.1328 121.413283 
L 322.4304 121.71574 
L 322.728 121.816548 
L 323.0256 122.369387 
L 324.6624 123.206699 
L 324.8112 123.206699 
L 325.2576 123.675599 
L 325.4064 123.675599 
L 325.704 123.943532 
L 326.5968 124.563149 
L 327.192 124.831082 
L 327.3408 124.831082 
L 327.7872 125.283232 
L 328.5312 125.735383 
L 328.68 125.563631 
L 328.9776 125.647641 
L 329.2752 125.916492 
L 329.5728 126.000502 
L 329.8704 126.252556 
L 330.168 126.336566 
L 330.4656 126.605417 
L 330.7632 126.689427 
L 331.0608 126.941481 
L 333.144 128.033671 
L 333.2928 127.938267 
L 335.376 129.067877 
L 336.12 129.146449 
L 337.7568 130.009198 
L 337.9056 130.009198 
L 338.0544 129.855208 
L 338.5008 130.160726 
L 339.84 130.856644 
L 339.9888 130.68953 
L 340.2864 130.774682 
L 340.7328 131.081224 
L 341.0304 131.149343 
L 341.4768 131.455885 
L 341.6256 131.291796 
L 342.816 131.889825 
L 343.4112 131.968185 
L 344.6016 132.551077 
L 344.7504 132.409801 
L 346.2384 133.063412 
L 346.3872 132.993893 
L 347.4288 133.494351 
L 347.7264 133.340927 
L 348.768 133.929598 
L 348.9168 133.778564 
L 349.9584 134.195459 
L 350.1072 134.115946 
L 351.1488 134.621337 
L 351.2976 134.474445 
L 352.3392 134.964004 
L 352.488 134.819149 
L 353.5296 135.310309 
L 353.6784 135.167502 
L 353.976 135.378675 
L 354.1248 135.378675 
L 354.4224 135.519457 
L 354.5712 135.589848 
L 354.72 135.519469 
L 355.9104 135.99615 
L 356.0592 135.857369 
L 356.3568 135.999057 
L 357.1008 136.353284 
L 357.2496 136.216551 
L 358.1424 136.642982 
L 358.2912 136.508062 
L 359.3328 136.94405 
L 359.4816 136.800267 
L 360.5232 137.224661 
L 360.672 137.082937 
L 361.1184 137.326351 
L 361.2672 137.326351 
L 361.5648 137.50892 
L 361.8624 137.369233 
L 362.904 137.796793 
L 363.0528 137.659154 
L 363.7968 138.011674 
L 363.9456 137.875801 
L 365.136 138.306551 
L 365.2848 138.172714 
L 376.7424 142.866656 
L 377.04 142.928419 
L 382.8432 145.229074 
L 383.8848 145.630532 
L 384.1824 145.738608 
L 389.9856 148.039269 
L 392.664 148.981142 
L 395.3424 149.984785 
L 396.5328 150.417124 
L 396.8304 150.5252 
L 400.104 151.775894 
L 402.4848 152.57881 
L 402.9312 152.794979 
L 406.9488 154.153749 
L 408.7344 154.786814 
L 410.9664 155.558843 
L 411.5616 155.805894 
L 412.4544 156.068389 
L 416.6208 157.45804 
L 417.0672 157.643328 
L 421.8288 159.017547 
L 423.3168 159.434443 
L 428.5248 160.963057 
L 428.9712 161.055707 
L 439.3872 164.221035 
L 439.6848 164.298236 
L 441.024 164.637931 
L 441.3216 164.68425 
L 441.768 164.838657 
L 441.9168 164.838657 
L 442.2144 164.962183 
L 442.512 165.039383 
L 442.8096 165.11659 
L 444.4464 165.533486 
L 444.8928 165.641573 
L 445.3392 165.749649 
L 445.7856 165.857737 
L 463.344 169.609812 
L 464.832 169.964951 
L 468.4032 170.814174 
L 468.8496 170.922268 
L 472.4208 171.771491 
L 472.8672 171.879585 
L 473.6112 172.095755 
L 478.224 173.145704 
L 478.6704 173.253798 
L 479.2656 173.392761 
L 482.8368 174.226559 
L 483.2832 174.334635 
L 488.0448 175.430922 
L 489.0864 175.677979 
L 489.5328 175.786055 
L 494.1456 176.836022 
L 494.8896 177.036748 
L 502.3296 178.67345 
L 503.0736 178.874176 
L 503.6688 178.966826 
L 510.216 180.402802 
L 510.5136 180.495446 
L 518.4 182.163029 
L 518.4 182.163029 
" style="fill:none;stroke:#000000;stroke-dasharray:6.000000,6.000000;stroke-dashoffset:0.0;"/>
   </g>
   <g id="patch_3">
    <path d="M 72 43.2 
L 518.4 43.2 
" style="fill:none;stroke:#000000;stroke-linecap:square;stroke-linejoin:miter;"/>
   </g>
   <g id="patch_4">
    <path d="M 518.4 388.8 
L 518.4 43.2 
" style="fill:none;stroke:#000000;stroke-linecap:square;stroke-linejoin:miter;"/>
   </g>
   <g id="patch_5">
    <path d="M 72 388.8 
L 518.4 388.8 
" style="fill:none;stroke:#000000;stroke-linecap:square;stroke-linejoin:miter;"/>
   </g>
   <g id="patch_6">
    <path d="M 72 388.8 
L 72 43.2 
" style="fill:none;stroke:#000000;stroke-linecap:square;stroke-linejoin:miter;"/>
   </g>
   <g id="matplotlib.axis_1">
    <g id="xtick_1">
     <g id="line2d_4">
      <path clip-path="url(#p0d549cc382)" d="M 72 388.8 
L 72 43.2 
" style="fill:none;stroke:#000000;stroke-dasharray:1.000000,3.000000;stroke-dashoffset:0.0;stroke-width:0.5;"/>
     </g>
     <g id="line2d_5">
      <defs>
       <path d="M 0 0 
L 0 -4 
" id="m416072d87b" style="stroke:#000000;stroke-width:0.5;"/>
      </defs>
      <g>
       <use style="stroke:#000000;stroke-width:0.5;" x="72.0" xlink:href="#m416072d87b" y="388.8"/>
      </g>
     </g>
     <g id="line2d_6">
      <defs>
       <path d="M 0 0 
L 0 4 
" id="m65943b9409" style="stroke:#000000;stroke-width:0.5;"/>
      </defs>
      <g>
       <use style="stroke:#000000;stroke-width:0.5;" x="72.0" xlink:href="#m65943b9409" y="43.2"/>
      </g>
     </g>
     <g id="text_1">
      <!-- 0 -->
      <defs>
       <path d="M 31.78125 66.40625 
Q 24.171875 66.40625 20.328125 58.90625 
Q 16.5 51.421875 16.5 36.375 
Q 16.5 21.390625 20.328125 13.890625 
Q 24.171875 6.390625 31.78125 6.390625 
Q 39.453125 6.390625 43.28125 13.890625 
Q 47.125 21.390625 47.125 36.375 
Q 47.125 51.421875 43.28125 58.90625 
Q 39.453125 66.40625 31.78125 66.40625 
M 31.78125 74.21875 
Q 44.046875 74.21875 50.515625 64.515625 
Q 56.984375 54.828125 56.984375 36.375 
Q 56.984375 17.96875 50.515625 8.265625 
Q 44.046875 -1.421875 31.78125 -1.421875 
Q 19.53125 -1.421875 13.0625 8.265625 
Q 6.59375 17.96875 6.59375 36.375 
Q 6.59375 54.828125 13.0625 64.515625 
Q 19.53125 74.21875 31.78125 74.21875 
" id="BitstreamVeraSans-Roman-30"/>
      </defs>
      <g transform="translate(68.1825 401.918125)scale(0.12 -0.12)">
       <use xlink:href="#BitstreamVeraSans-Roman-30"/>
      </g>
     </g>
    </g>
    <g id="xtick_2">
     <g id="line2d_7">
      <path clip-path="url(#p0d549cc382)" d="M 146.4 388.8 
L 146.4 43.2 
" style="fill:none;stroke:#000000;stroke-dasharray:1.000000,3.000000;stroke-dashoffset:0.0;stroke-width:0.5;"/>
     </g>
     <g id="line2d_8">
      <g>
       <use style="stroke:#000000;stroke-width:0.5;" x="146.4" xlink:href="#m416072d87b" y="388.8"/>
      </g>
     </g>
     <g id="line2d_9">
      <g>
       <use style="stroke:#000000;stroke-width:0.5;" x="146.4" xlink:href="#m65943b9409" y="43.2"/>
      </g>
     </g>
     <g id="text_2">
      <!-- 5 -->
      <defs>
       <path d="M 10.796875 72.90625 
L 49.515625 72.90625 
L 49.515625 64.59375 
L 19.828125 64.59375 
L 19.828125 46.734375 
Q 21.96875 47.46875 24.109375 47.828125 
Q 26.265625 48.1875 28.421875 48.1875 
Q 40.625 48.1875 47.75 41.5 
Q 54.890625 34.8125 54.890625 23.390625 
Q 54.890625 11.625 47.5625 5.09375 
Q 40.234375 -1.421875 26.90625 -1.421875 
Q 22.3125 -1.421875 17.546875 -0.640625 
Q 12.796875 0.140625 7.71875 1.703125 
L 7.71875 11.625 
Q 12.109375 9.234375 16.796875 8.0625 
Q 21.484375 6.890625 26.703125 6.890625 
Q 35.15625 6.890625 40.078125 11.328125 
Q 45.015625 15.765625 45.015625 23.390625 
Q 45.015625 31 40.078125 35.4375 
Q 35.15625 39.890625 26.703125 39.890625 
Q 22.75 39.890625 18.8125 39.015625 
Q 14.890625 38.140625 10.796875 36.28125 
z
" id="BitstreamVeraSans-Roman-35"/>
      </defs>
      <g transform="translate(142.5825 401.918125)scale(0.12 -0.12)">
       <use xlink:href="#BitstreamVeraSans-Roman-35"/>
      </g>
     </g>
    </g>
    <g id="xtick_3">
     <g id="line2d_10">
      <path clip-path="url(#p0d549cc382)" d="M 220.8 388.8 
L 220.8 43.2 
" style="fill:none;stroke:#000000;stroke-dasharray:1.000000,3.000000;stroke-dashoffset:0.0;stroke-width:0.5;"/>
     </g>
     <g id="line2d_11">
      <g>
       <use style="stroke:#000000;stroke-width:0.5;" x="220.8" xlink:href="#m416072d87b" y="388.8"/>
      </g>
     </g>
     <g id="line2d_12">
      <g>
       <use style="stroke:#000000;stroke-width:0.5;" x="220.8" xlink:href="#m65943b9409" y="43.2"/>
      </g>
     </g>
     <g id="text_3">
      <!-- 10 -->
      <defs>
       <path d="M 12.40625 8.296875 
L 28.515625 8.296875 
L 28.515625 63.921875 
L 10.984375 60.40625 
L 10.984375 69.390625 
L 28.421875 72.90625 
L 38.28125 72.90625 
L 38.28125 8.296875 
L 54.390625 8.296875 
L 54.390625 0 
L 12.40625 0 
z
" id="BitstreamVeraSans-Roman-31"/>
      </defs>
      <g transform="translate(213.165 401.918125)scale(0.12 -0.12)">
       <use xlink:href="#BitstreamVeraSans-Roman-31"/>
       <use x="63.623046875" xlink:href="#BitstreamVeraSans-Roman-30"/>
      </g>
     </g>
    </g>
    <g id="xtick_4">
     <g id="line2d_13">
      <path clip-path="url(#p0d549cc382)" d="M 295.2 388.8 
L 295.2 43.2 
" style="fill:none;stroke:#000000;stroke-dasharray:1.000000,3.000000;stroke-dashoffset:0.0;stroke-width:0.5;"/>
     </g>
     <g id="line2d_14">
      <g>
       <use style="stroke:#000000;stroke-width:0.5;" x="295.2" xlink:href="#m416072d87b" y="388.8"/>
      </g>
     </g>
     <g id="line2d_15">
      <g>
       <use style="stroke:#000000;stroke-width:0.5;" x="295.2" xlink:href="#m65943b9409" y="43.2"/>
      </g>
     </g>
     <g id="text_4">
      <!-- 15 -->
      <g transform="translate(287.565 401.918125)scale(0.12 -0.12)">
       <use xlink:href="#BitstreamVeraSans-Roman-31"/>
       <use x="63.623046875" xlink:href="#BitstreamVeraSans-Roman-35"/>
      </g>
     </g>
    </g>
    <g id="xtick_5">
     <g id="line2d_16">
      <path clip-path="url(#p0d549cc382)" d="M 369.6 388.8 
L 369.6 43.2 
" style="fill:none;stroke:#000000;stroke-dasharray:1.000000,3.000000;stroke-dashoffset:0.0;stroke-width:0.5;"/>
     </g>
     <g id="line2d_17">
      <g>
       <use style="stroke:#000000;stroke-width:0.5;" x="369.6" xlink:href="#m416072d87b" y="388.8"/>
      </g>
     </g>
     <g id="line2d_18">
      <g>
       <use style="stroke:#000000;stroke-width:0.5;" x="369.6" xlink:href="#m65943b9409" y="43.2"/>
      </g>
     </g>
     <g id="text_5">
      <!-- 20 -->
      <defs>
       <path d="M 19.1875 8.296875 
L 53.609375 8.296875 
L 53.609375 0 
L 7.328125 0 
L 7.328125 8.296875 
Q 12.9375 14.109375 22.625 23.890625 
Q 32.328125 33.6875 34.8125 36.53125 
Q 39.546875 41.84375 41.421875 45.53125 
Q 43.3125 49.21875 43.3125 52.78125 
Q 43.3125 58.59375 39.234375 62.25 
Q 35.15625 65.921875 28.609375 65.921875 
Q 23.96875 65.921875 18.8125 64.3125 
Q 13.671875 62.703125 7.8125 59.421875 
L 7.8125 69.390625 
Q 13.765625 71.78125 18.9375 73 
Q 24.125 74.21875 28.421875 74.21875 
Q 39.75 74.21875 46.484375 68.546875 
Q 53.21875 62.890625 53.21875 53.421875 
Q 53.21875 48.921875 51.53125 44.890625 
Q 49.859375 40.875 45.40625 35.40625 
Q 44.1875 33.984375 37.640625 27.21875 
Q 31.109375 20.453125 19.1875 8.296875 
" id="BitstreamVeraSans-Roman-32"/>
      </defs>
      <g transform="translate(361.965 401.918125)scale(0.12 -0.12)">
       <use xlink:href="#BitstreamVeraSans-Roman-32"/>
       <use x="63.623046875" xlink:href="#BitstreamVeraSans-Roman-30"/>
      </g>
     </g>
    </g>
    <g id="xtick_6">
     <g id="line2d_19">
      <path clip-path="url(#p0d549cc382)" d="M 444 388.8 
L 444 43.2 
" style="fill:none;stroke:#000000;stroke-dasharray:1.000000,3.000000;stroke-dashoffset:0.0;stroke-width:0.5;"/>
     </g>
     <g id="line2d_20">
      <g>
       <use style="stroke:#000000;stroke-width:0.5;" x="444.0" xlink:href="#m416072d87b" y="388.8"/>
      </g>
     </g>
     <g id="line2d_21">
      <g>
       <use style="stroke:#000000;stroke-width:0.5;" x="444.0" xlink:href="#m65943b9409" y="43.2"/>
      </g>
     </g>
     <g id="text_6">
      <!-- 25 -->
      <g transform="translate(436.365 401.918125)scale(0.12 -0.12)">
       <use xlink:href="#BitstreamVeraSans-Roman-32"/>
       <use x="63.623046875" xlink:href="#BitstreamVeraSans-Roman-35"/>
      </g>
     </g>
    </g>
    <g id="xtick_7">
     <g id="line2d_22">
      <path clip-path="url(#p0d549cc382)" d="M 518.4 388.8 
L 518.4 43.2 
" style="fill:none;stroke:#000000;stroke-dasharray:1.000000,3.000000;stroke-dashoffset:0.0;stroke-width:0.5;"/>
     </g>
     <g id="line2d_23">
      <g>
       <use style="stroke:#000000;stroke-width:0.5;" x="518.4" xlink:href="#m416072d87b" y="388.8"/>
      </g>
     </g>
     <g id="line2d_24">
      <g>
       <use style="stroke:#000000;stroke-width:0.5;" x="518.4" xlink:href="#m65943b9409" y="43.2"/>
      </g>
     </g>
     <g id="text_7">
      <!-- 30 -->
      <defs>
       <path d="M 40.578125 39.3125 
Q 47.65625 37.796875 51.625 33 
Q 55.609375 28.21875 55.609375 21.1875 
Q 55.609375 10.40625 48.1875 4.484375 
Q 40.765625 -1.421875 27.09375 -1.421875 
Q 22.515625 -1.421875 17.65625 -0.515625 
Q 12.796875 0.390625 7.625 2.203125 
L 7.625 11.71875 
Q 11.71875 9.328125 16.59375 8.109375 
Q 21.484375 6.890625 26.8125 6.890625 
Q 36.078125 6.890625 40.9375 10.546875 
Q 45.796875 14.203125 45.796875 21.1875 
Q 45.796875 27.640625 41.28125 31.265625 
Q 36.765625 34.90625 28.71875 34.90625 
L 20.21875 34.90625 
L 20.21875 43.015625 
L 29.109375 43.015625 
Q 36.375 43.015625 40.234375 45.921875 
Q 44.09375 48.828125 44.09375 54.296875 
Q 44.09375 59.90625 40.109375 62.90625 
Q 36.140625 65.921875 28.71875 65.921875 
Q 24.65625 65.921875 20.015625 65.03125 
Q 15.375 64.15625 9.8125 62.3125 
L 9.8125 71.09375 
Q 15.4375 72.65625 20.34375 73.4375 
Q 25.25 74.21875 29.59375 74.21875 
Q 40.828125 74.21875 47.359375 69.109375 
Q 53.90625 64.015625 53.90625 55.328125 
Q 53.90625 49.265625 50.4375 45.09375 
Q 46.96875 40.921875 40.578125 39.3125 
" id="BitstreamVeraSans-Roman-33"/>
      </defs>
      <g transform="translate(510.765 401.918125)scale(0.12 -0.12)">
       <use xlink:href="#BitstreamVeraSans-Roman-33"/>
       <use x="63.623046875" xlink:href="#BitstreamVeraSans-Roman-30"/>
      </g>
     </g>
    </g>
    <g id="text_8">
     <!-- Time [s] -->
     <defs>
      <path id="BitstreamVeraSans-Roman-20"/>
      <path d="M 8.59375 75.984375 
L 29.296875 75.984375 
L 29.296875 69 
L 17.578125 69 
L 17.578125 -6.203125 
L 29.296875 -6.203125 
L 29.296875 -13.1875 
L 8.59375 -13.1875 
z
" id="BitstreamVeraSans-Roman-5b"/>
      <path d="M 30.421875 75.984375 
L 30.421875 -13.1875 
L 9.71875 -13.1875 
L 9.71875 -6.203125 
L 21.390625 -6.203125 
L 21.390625 69 
L 9.71875 69 
L 9.71875 75.984375 
z
" id="BitstreamVeraSans-Roman-5d"/>
      <path d="M 52 44.1875 
Q 55.375 50.25 60.0625 53.125 
Q 64.75 56 71.09375 56 
Q 79.640625 56 84.28125 50.015625 
Q 88.921875 44.046875 88.921875 33.015625 
L 88.921875 0 
L 79.890625 0 
L 79.890625 32.71875 
Q 79.890625 40.578125 77.09375 44.375 
Q 74.3125 48.1875 68.609375 48.1875 
Q 61.625 48.1875 57.5625 43.546875 
Q 53.515625 38.921875 53.515625 30.90625 
L 53.515625 0 
L 44.484375 0 
L 44.484375 32.71875 
Q 44.484375 40.625 41.703125 44.40625 
Q 38.921875 48.1875 33.109375 48.1875 
Q 26.21875 48.1875 22.15625 43.53125 
Q 18.109375 38.875 18.109375 30.90625 
L 18.109375 0 
L 9.078125 0 
L 9.078125 54.6875 
L 18.109375 54.6875 
L 18.109375 46.1875 
Q 21.1875 51.21875 25.484375 53.609375 
Q 29.78125 56 35.6875 56 
Q 41.65625 56 45.828125 52.96875 
Q 50 49.953125 52 44.1875 
" id="BitstreamVeraSans-Roman-6d"/>
      <path d="M 9.421875 54.6875 
L 18.40625 54.6875 
L 18.40625 0 
L 9.421875 0 
z
M 9.421875 75.984375 
L 18.40625 75.984375 
L 18.40625 64.59375 
L 9.421875 64.59375 
z
" id="BitstreamVeraSans-Roman-69"/>
      <path d="M 56.203125 29.59375 
L 56.203125 25.203125 
L 14.890625 25.203125 
Q 15.484375 15.921875 20.484375 11.0625 
Q 25.484375 6.203125 34.421875 6.203125 
Q 39.59375 6.203125 44.453125 7.46875 
Q 49.3125 8.734375 54.109375 11.28125 
L 54.109375 2.78125 
Q 49.265625 0.734375 44.1875 -0.34375 
Q 39.109375 -1.421875 33.890625 -1.421875 
Q 20.796875 -1.421875 13.15625 6.1875 
Q 5.515625 13.8125 5.515625 26.8125 
Q 5.515625 40.234375 12.765625 48.109375 
Q 20.015625 56 32.328125 56 
Q 43.359375 56 49.78125 48.890625 
Q 56.203125 41.796875 56.203125 29.59375 
M 47.21875 32.234375 
Q 47.125 39.59375 43.09375 43.984375 
Q 39.0625 48.390625 32.421875 48.390625 
Q 24.90625 48.390625 20.390625 44.140625 
Q 15.875 39.890625 15.1875 32.171875 
z
" id="BitstreamVeraSans-Roman-65"/>
      <path d="M -0.296875 72.90625 
L 61.375 72.90625 
L 61.375 64.59375 
L 35.5 64.59375 
L 35.5 0 
L 25.59375 0 
L 25.59375 64.59375 
L -0.296875 64.59375 
z
" id="BitstreamVeraSans-Roman-54"/>
      <path d="M 44.28125 53.078125 
L 44.28125 44.578125 
Q 40.484375 46.53125 36.375 47.5 
Q 32.28125 48.484375 27.875 48.484375 
Q 21.1875 48.484375 17.84375 46.4375 
Q 14.5 44.390625 14.5 40.28125 
Q 14.5 37.15625 16.890625 35.375 
Q 19.28125 33.59375 26.515625 31.984375 
L 29.59375 31.296875 
Q 39.15625 29.25 43.1875 25.515625 
Q 47.21875 21.78125 47.21875 15.09375 
Q 47.21875 7.46875 41.1875 3.015625 
Q 35.15625 -1.421875 24.609375 -1.421875 
Q 20.21875 -1.421875 15.453125 -0.5625 
Q 10.6875 0.296875 5.421875 2 
L 5.421875 11.28125 
Q 10.40625 8.6875 15.234375 7.390625 
Q 20.0625 6.109375 24.8125 6.109375 
Q 31.15625 6.109375 34.5625 8.28125 
Q 37.984375 10.453125 37.984375 14.40625 
Q 37.984375 18.0625 35.515625 20.015625 
Q 33.0625 21.96875 24.703125 23.78125 
L 21.578125 24.515625 
Q 13.234375 26.265625 9.515625 29.90625 
Q 5.8125 33.546875 5.8125 39.890625 
Q 5.8125 47.609375 11.28125 51.796875 
Q 16.75 56 26.8125 56 
Q 31.78125 56 36.171875 55.265625 
Q 40.578125 54.546875 44.28125 53.078125 
" id="BitstreamVeraSans-Roman-73"/>
     </defs>
     <g transform="translate(270.620625 418.531875)scale(0.12 -0.12)">
      <use xlink:href="#BitstreamVeraSans-Roman-54"/>
      <use x="61.037109375" xlink:href="#BitstreamVeraSans-Roman-69"/>
      <use x="88.8203125" xlink:href="#BitstreamVeraSans-Roman-6d"/>
      <use x="186.232421875" xlink:href="#BitstreamVeraSans-Roman-65"/>
      <use x="247.755859375" xlink:href="#BitstreamVeraSans-Roman-20"/>
      <use x="279.54296875" xlink:href="#BitstreamVeraSans-Roman-5b"/>
      <use x="318.556640625" xlink:href="#BitstreamVeraSans-Roman-73"/>
      <use x="370.65625" xlink:href="#BitstreamVeraSans-Roman-5d"/>
     </g>
    </g>
   </g>
   <g id="matplotlib.axis_2">
    <g id="ytick_1">
     <g id="line2d_25">
      <path clip-path="url(#p0d549cc382)" d="M 72 388.8 
L 518.4 388.8 
" style="fill:none;stroke:#000000;stroke-dasharray:1.000000,3.000000;stroke-dashoffset:0.0;stroke-width:0.5;"/>
     </g>
     <g id="line2d_26">
      <defs>
       <path d="M 0 0 
L 4 0 
" id="m4ec808c30a" style="stroke:#000000;stroke-width:0.5;"/>
      </defs>
      <g>
       <use style="stroke:#000000;stroke-width:0.5;" x="72.0" xlink:href="#m4ec808c30a" y="388.8"/>
      </g>
     </g>
     <g id="line2d_27">
      <defs>
       <path d="M 0 0 
L -4 0 
" id="m831d0c7095" style="stroke:#000000;stroke-width:0.5;"/>
      </defs>
      <g>
       <use style="stroke:#000000;stroke-width:0.5;" x="518.4" xlink:href="#m831d0c7095" y="388.8"/>
      </g>
     </g>
     <g id="text_9">
      <!-- 1.5 -->
      <defs>
       <path d="M 10.59375 35.5 
L 73.1875 35.5 
L 73.1875 27.203125 
L 10.59375 27.203125 
z
" id="BitstreamVeraSans-Roman-2212"/>
       <path d="M 10.6875 12.40625 
L 21 12.40625 
L 21 0 
L 10.6875 0 
z
" id="BitstreamVeraSans-Roman-2e"/>
      </defs>
      <g transform="translate(38.860625 392.11125)scale(0.12 -0.12)">
       <use xlink:href="#BitstreamVeraSans-Roman-2212"/>
       <use x="83.7890625" xlink:href="#BitstreamVeraSans-Roman-31"/>
       <use x="147.412109375" xlink:href="#BitstreamVeraSans-Roman-2e"/>
       <use x="179.19921875" xlink:href="#BitstreamVeraSans-Roman-35"/>
      </g>
     </g>
    </g>
    <g id="ytick_2">
     <g id="line2d_28">
      <path clip-path="url(#p0d549cc382)" d="M 72 339.428571 
L 518.4 339.428571 
" style="fill:none;stroke:#000000;stroke-dasharray:1.000000,3.000000;stroke-dashoffset:0.0;stroke-width:0.5;"/>
     </g>
     <g id="line2d_29">
      <g>
       <use style="stroke:#000000;stroke-width:0.5;" x="72.0" xlink:href="#m4ec808c30a" y="339.428571429"/>
      </g>
     </g>
     <g id="line2d_30">
      <g>
       <use style="stroke:#000000;stroke-width:0.5;" x="518.4" xlink:href="#m831d0c7095" y="339.428571429"/>
      </g>
     </g>
     <g id="text_10">
      <!-- 1.0 -->
      <g transform="translate(38.860625 342.739821429)scale(0.12 -0.12)">
       <use xlink:href="#BitstreamVeraSans-Roman-2212"/>
       <use x="83.7890625" xlink:href="#BitstreamVeraSans-Roman-31"/>
       <use x="147.412109375" xlink:href="#BitstreamVeraSans-Roman-2e"/>
       <use x="179.19921875" xlink:href="#BitstreamVeraSans-Roman-30"/>
      </g>
     </g>
    </g>
    <g id="ytick_3">
     <g id="line2d_31">
      <path clip-path="url(#p0d549cc382)" d="M 72 290.057143 
L 518.4 290.057143 
" style="fill:none;stroke:#000000;stroke-dasharray:1.000000,3.000000;stroke-dashoffset:0.0;stroke-width:0.5;"/>
     </g>
     <g id="line2d_32">
      <g>
       <use style="stroke:#000000;stroke-width:0.5;" x="72.0" xlink:href="#m4ec808c30a" y="290.057142857"/>
      </g>
     </g>
     <g id="line2d_33">
      <g>
       <use style="stroke:#000000;stroke-width:0.5;" x="518.4" xlink:href="#m831d0c7095" y="290.057142857"/>
      </g>
     </g>
     <g id="text_11">
      <!-- 0.5 -->
      <g transform="translate(38.860625 293.368392857)scale(0.12 -0.12)">
       <use xlink:href="#BitstreamVeraSans-Roman-2212"/>
       <use x="83.7890625" xlink:href="#BitstreamVeraSans-Roman-30"/>
       <use x="147.412109375" xlink:href="#BitstreamVeraSans-Roman-2e"/>
       <use x="179.19921875" xlink:href="#BitstreamVeraSans-Roman-35"/>
      </g>
     </g>
    </g>
    <g id="ytick_4">
     <g id="line2d_34">
      <path clip-path="url(#p0d549cc382)" d="M 72 240.685714 
L 518.4 240.685714 
" style="fill:none;stroke:#000000;stroke-dasharray:1.000000,3.000000;stroke-dashoffset:0.0;stroke-width:0.5;"/>
     </g>
     <g id="line2d_35">
      <g>
       <use style="stroke:#000000;stroke-width:0.5;" x="72.0" xlink:href="#m4ec808c30a" y="240.685714286"/>
      </g>
     </g>
     <g id="line2d_36">
      <g>
       <use style="stroke:#000000;stroke-width:0.5;" x="518.4" xlink:href="#m831d0c7095" y="240.685714286"/>
      </g>
     </g>
     <g id="text_12">
      <!-- 0.0 -->
      <g transform="translate(48.91625 243.996964286)scale(0.12 -0.12)">
       <use xlink:href="#BitstreamVeraSans-Roman-30"/>
       <use x="63.623046875" xlink:href="#BitstreamVeraSans-Roman-2e"/>
       <use x="95.41015625" xlink:href="#BitstreamVeraSans-Roman-30"/>
      </g>
     </g>
    </g>
    <g id="ytick_5">
     <g id="line2d_37">
      <path clip-path="url(#p0d549cc382)" d="M 72 191.314286 
L 518.4 191.314286 
" style="fill:none;stroke:#000000;stroke-dasharray:1.000000,3.000000;stroke-dashoffset:0.0;stroke-width:0.5;"/>
     </g>
     <g id="line2d_38">
      <g>
       <use style="stroke:#000000;stroke-width:0.5;" x="72.0" xlink:href="#m4ec808c30a" y="191.314285714"/>
      </g>
     </g>
     <g id="line2d_39">
      <g>
       <use style="stroke:#000000;stroke-width:0.5;" x="518.4" xlink:href="#m831d0c7095" y="191.314285714"/>
      </g>
     </g>
     <g id="text_13">
      <!-- 0.5 -->
      <g transform="translate(48.91625 194.625535714)scale(0.12 -0.12)">
       <use xlink:href="#BitstreamVeraSans-Roman-30"/>
       <use x="63.623046875" xlink:href="#BitstreamVeraSans-Roman-2e"/>
       <use x="95.41015625" xlink:href="#BitstreamVeraSans-Roman-35"/>
      </g>
     </g>
    </g>
    <g id="ytick_6">
     <g id="line2d_40">
      <path clip-path="url(#p0d549cc382)" d="M 72 141.942857 
L 518.4 141.942857 
" style="fill:none;stroke:#000000;stroke-dasharray:1.000000,3.000000;stroke-dashoffset:0.0;stroke-width:0.5;"/>
     </g>
     <g id="line2d_41">
      <g>
       <use style="stroke:#000000;stroke-width:0.5;" x="72.0" xlink:href="#m4ec808c30a" y="141.942857143"/>
      </g>
     </g>
     <g id="line2d_42">
      <g>
       <use style="stroke:#000000;stroke-width:0.5;" x="518.4" xlink:href="#m831d0c7095" y="141.942857143"/>
      </g>
     </g>
     <g id="text_14">
      <!-- 1.0 -->
      <g transform="translate(48.91625 145.254107143)scale(0.12 -0.12)">
       <use xlink:href="#BitstreamVeraSans-Roman-31"/>
       <use x="63.623046875" xlink:href="#BitstreamVeraSans-Roman-2e"/>
       <use x="95.41015625" xlink:href="#BitstreamVeraSans-Roman-30"/>
      </g>
     </g>
    </g>
    <g id="ytick_7">
     <g id="line2d_43">
      <path clip-path="url(#p0d549cc382)" d="M 72 92.571429 
L 518.4 92.571429 
" style="fill:none;stroke:#000000;stroke-dasharray:1.000000,3.000000;stroke-dashoffset:0.0;stroke-width:0.5;"/>
     </g>
     <g id="line2d_44">
      <g>
       <use style="stroke:#000000;stroke-width:0.5;" x="72.0" xlink:href="#m4ec808c30a" y="92.5714285714"/>
      </g>
     </g>
     <g id="line2d_45">
      <g>
       <use style="stroke:#000000;stroke-width:0.5;" x="518.4" xlink:href="#m831d0c7095" y="92.5714285714"/>
      </g>
     </g>
     <g id="text_15">
      <!-- 1.5 -->
      <g transform="translate(48.91625 95.8826785714)scale(0.12 -0.12)">
       <use xlink:href="#BitstreamVeraSans-Roman-31"/>
       <use x="63.623046875" xlink:href="#BitstreamVeraSans-Roman-2e"/>
       <use x="95.41015625" xlink:href="#BitstreamVeraSans-Roman-35"/>
      </g>
     </g>
    </g>
    <g id="ytick_8">
     <g id="line2d_46">
      <path clip-path="url(#p0d549cc382)" d="M 72 43.2 
L 518.4 43.2 
" style="fill:none;stroke:#000000;stroke-dasharray:1.000000,3.000000;stroke-dashoffset:0.0;stroke-width:0.5;"/>
     </g>
     <g id="line2d_47">
      <g>
       <use style="stroke:#000000;stroke-width:0.5;" x="72.0" xlink:href="#m4ec808c30a" y="43.2"/>
      </g>
     </g>
     <g id="line2d_48">
      <g>
       <use style="stroke:#000000;stroke-width:0.5;" x="518.4" xlink:href="#m831d0c7095" y="43.2"/>
      </g>
     </g>
     <g id="text_16">
      <!-- 2.0 -->
      <g transform="translate(48.91625 46.51125)scale(0.12 -0.12)">
       <use xlink:href="#BitstreamVeraSans-Roman-32"/>
       <use x="63.623046875" xlink:href="#BitstreamVeraSans-Roman-2e"/>
       <use x="95.41015625" xlink:href="#BitstreamVeraSans-Roman-30"/>
      </g>
     </g>
    </g>
    <g id="text_17">
     <!-- Acceleration [m/s^2] -->
     <defs>
      <path d="M 46.6875 72.90625 
L 73.1875 45.703125 
L 63.375 45.703125 
L 41.890625 64.984375 
L 20.40625 45.703125 
L 10.59375 45.703125 
L 37.109375 72.90625 
z
" id="BitstreamVeraSans-Roman-5e"/>
      <path d="M 54.890625 33.015625 
L 54.890625 0 
L 45.90625 0 
L 45.90625 32.71875 
Q 45.90625 40.484375 42.875 44.328125 
Q 39.84375 48.1875 33.796875 48.1875 
Q 26.515625 48.1875 22.3125 43.546875 
Q 18.109375 38.921875 18.109375 30.90625 
L 18.109375 0 
L 9.078125 0 
L 9.078125 54.6875 
L 18.109375 54.6875 
L 18.109375 46.1875 
Q 21.34375 51.125 25.703125 53.5625 
Q 30.078125 56 35.796875 56 
Q 45.21875 56 50.046875 50.171875 
Q 54.890625 44.34375 54.890625 33.015625 
" id="BitstreamVeraSans-Roman-6e"/>
      <path d="M 41.109375 46.296875 
Q 39.59375 47.171875 37.8125 47.578125 
Q 36.03125 48 33.890625 48 
Q 26.265625 48 22.1875 43.046875 
Q 18.109375 38.09375 18.109375 28.8125 
L 18.109375 0 
L 9.078125 0 
L 9.078125 54.6875 
L 18.109375 54.6875 
L 18.109375 46.1875 
Q 20.953125 51.171875 25.484375 53.578125 
Q 30.03125 56 36.53125 56 
Q 37.453125 56 38.578125 55.875 
Q 39.703125 55.765625 41.0625 55.515625 
z
" id="BitstreamVeraSans-Roman-72"/>
      <path d="M 30.609375 48.390625 
Q 23.390625 48.390625 19.1875 42.75 
Q 14.984375 37.109375 14.984375 27.296875 
Q 14.984375 17.484375 19.15625 11.84375 
Q 23.34375 6.203125 30.609375 6.203125 
Q 37.796875 6.203125 41.984375 11.859375 
Q 46.1875 17.53125 46.1875 27.296875 
Q 46.1875 37.015625 41.984375 42.703125 
Q 37.796875 48.390625 30.609375 48.390625 
M 30.609375 56 
Q 42.328125 56 49.015625 48.375 
Q 55.71875 40.765625 55.71875 27.296875 
Q 55.71875 13.875 49.015625 6.21875 
Q 42.328125 -1.421875 30.609375 -1.421875 
Q 18.84375 -1.421875 12.171875 6.21875 
Q 5.515625 13.875 5.515625 27.296875 
Q 5.515625 40.765625 12.171875 48.375 
Q 18.84375 56 30.609375 56 
" id="BitstreamVeraSans-Roman-6f"/>
      <path d="M 9.421875 75.984375 
L 18.40625 75.984375 
L 18.40625 0 
L 9.421875 0 
z
" id="BitstreamVeraSans-Roman-6c"/>
      <path d="M 34.1875 63.1875 
L 20.796875 26.90625 
L 47.609375 26.90625 
z
M 28.609375 72.90625 
L 39.796875 72.90625 
L 67.578125 0 
L 57.328125 0 
L 50.6875 18.703125 
L 17.828125 18.703125 
L 11.1875 0 
L 0.78125 0 
z
" id="BitstreamVeraSans-Roman-41"/>
      <path d="M 25.390625 72.90625 
L 33.6875 72.90625 
L 8.296875 -9.28125 
L 0 -9.28125 
z
" id="BitstreamVeraSans-Roman-2f"/>
      <path d="M 18.3125 70.21875 
L 18.3125 54.6875 
L 36.8125 54.6875 
L 36.8125 47.703125 
L 18.3125 47.703125 
L 18.3125 18.015625 
Q 18.3125 11.328125 20.140625 9.421875 
Q 21.96875 7.515625 27.59375 7.515625 
L 36.8125 7.515625 
L 36.8125 0 
L 27.59375 0 
Q 17.1875 0 13.234375 3.875 
Q 9.28125 7.765625 9.28125 18.015625 
L 9.28125 47.703125 
L 2.6875 47.703125 
L 2.6875 54.6875 
L 9.28125 54.6875 
L 9.28125 70.21875 
z
" id="BitstreamVeraSans-Roman-74"/>
      <path d="M 34.28125 27.484375 
Q 23.390625 27.484375 19.1875 25 
Q 14.984375 22.515625 14.984375 16.5 
Q 14.984375 11.71875 18.140625 8.90625 
Q 21.296875 6.109375 26.703125 6.109375 
Q 34.1875 6.109375 38.703125 11.40625 
Q 43.21875 16.703125 43.21875 25.484375 
L 43.21875 27.484375 
z
M 52.203125 31.203125 
L 52.203125 0 
L 43.21875 0 
L 43.21875 8.296875 
Q 40.140625 3.328125 35.546875 0.953125 
Q 30.953125 -1.421875 24.3125 -1.421875 
Q 15.921875 -1.421875 10.953125 3.296875 
Q 6 8.015625 6 15.921875 
Q 6 25.140625 12.171875 29.828125 
Q 18.359375 34.515625 30.609375 34.515625 
L 43.21875 34.515625 
L 43.21875 35.40625 
Q 43.21875 41.609375 39.140625 45 
Q 35.0625 48.390625 27.6875 48.390625 
Q 23 48.390625 18.546875 47.265625 
Q 14.109375 46.140625 10.015625 43.890625 
L 10.015625 52.203125 
Q 14.9375 54.109375 19.578125 55.046875 
Q 24.21875 56 28.609375 56 
Q 40.484375 56 46.34375 49.84375 
Q 52.203125 43.703125 52.203125 31.203125 
" id="BitstreamVeraSans-Roman-61"/>
      <path d="M 48.78125 52.59375 
L 48.78125 44.1875 
Q 44.96875 46.296875 41.140625 47.34375 
Q 37.3125 48.390625 33.40625 48.390625 
Q 24.65625 48.390625 19.8125 42.84375 
Q 14.984375 37.3125 14.984375 27.296875 
Q 14.984375 17.28125 19.8125 11.734375 
Q 24.65625 6.203125 33.40625 6.203125 
Q 37.3125 6.203125 41.140625 7.25 
Q 44.96875 8.296875 48.78125 10.40625 
L 48.78125 2.09375 
Q 45.015625 0.34375 40.984375 -0.53125 
Q 36.96875 -1.421875 32.421875 -1.421875 
Q 20.0625 -1.421875 12.78125 6.34375 
Q 5.515625 14.109375 5.515625 27.296875 
Q 5.515625 40.671875 12.859375 48.328125 
Q 20.21875 56 33.015625 56 
Q 37.15625 56 41.109375 55.140625 
Q 45.0625 54.296875 48.78125 52.59375 
" id="BitstreamVeraSans-Roman-63"/>
     </defs>
     <g transform="translate(31.365 279.81375)rotate(-90.0)scale(0.12 -0.12)">
      <use xlink:href="#BitstreamVeraSans-Roman-41"/>
      <use x="68.392578125" xlink:href="#BitstreamVeraSans-Roman-63"/>
      <use x="123.373046875" xlink:href="#BitstreamVeraSans-Roman-63"/>
      <use x="178.353515625" xlink:href="#BitstreamVeraSans-Roman-65"/>
      <use x="239.876953125" xlink:href="#BitstreamVeraSans-Roman-6c"/>
      <use x="267.66015625" xlink:href="#BitstreamVeraSans-Roman-65"/>
      <use x="329.18359375" xlink:href="#BitstreamVeraSans-Roman-72"/>
      <use x="370.296875" xlink:href="#BitstreamVeraSans-Roman-61"/>
      <use x="431.576171875" xlink:href="#BitstreamVeraSans-Roman-74"/>
      <use x="470.78515625" xlink:href="#BitstreamVeraSans-Roman-69"/>
      <use x="498.568359375" xlink:href="#BitstreamVeraSans-Roman-6f"/>
      <use x="559.75" xlink:href="#BitstreamVeraSans-Roman-6e"/>
      <use x="623.12890625" xlink:href="#BitstreamVeraSans-Roman-20"/>
      <use x="654.916015625" xlink:href="#BitstreamVeraSans-Roman-5b"/>
      <use x="693.9296875" xlink:href="#BitstreamVeraSans-Roman-6d"/>
      <use x="791.341796875" xlink:href="#BitstreamVeraSans-Roman-2f"/>
      <use x="825.033203125" xlink:href="#BitstreamVeraSans-Roman-73"/>
      <use x="877.1328125" xlink:href="#BitstreamVeraSans-Roman-5e"/>
      <use x="960.921875" xlink:href="#BitstreamVeraSans-Roman-32"/>
      <use x="1024.54492188" xlink:href="#BitstreamVeraSans-Roman-5d"/>
     </g>
    </g>
   </g>
   <g id="legend_1">
    <g id="patch_7">
     <path d="M 421.839 118.1295 
L 511.2 118.1295 
L 511.2 50.4 
L 421.839 50.4 
z
" style="fill:#ffffff;stroke:#000000;stroke-linejoin:miter;"/>
    </g>
    <g id="line2d_49">
     <path d="M 431.919 62.06175 
L 452.079 62.06175 
" style="fill:none;stroke:#008000;stroke-linecap:square;"/>
    </g>
    <g id="line2d_50"/>
    <g id="text_18">
     <!-- accel -->
     <g transform="translate(467.919 67.10175)scale(0.144 -0.144)">
      <use xlink:href="#BitstreamVeraSans-Roman-61"/>
      <use x="61.279296875" xlink:href="#BitstreamVeraSans-Roman-63"/>
      <use x="116.259765625" xlink:href="#BitstreamVeraSans-Roman-63"/>
      <use x="171.240234375" xlink:href="#BitstreamVeraSans-Roman-65"/>
      <use x="232.763671875" xlink:href="#BitstreamVeraSans-Roman-6c"/>
     </g>
    </g>
    <g id="line2d_51">
     <path d="M 431.919 83.19825 
L 452.079 83.19825 
" style="fill:none;stroke:#000000;stroke-dasharray:6.000000,6.000000;stroke-dashoffset:0.0;"/>
    </g>
    <g id="line2d_52"/>
    <g id="text_19">
     <!-- max -->
     <defs>
      <path d="M 54.890625 54.6875 
L 35.109375 28.078125 
L 55.90625 0 
L 45.3125 0 
L 29.390625 21.484375 
L 13.484375 0 
L 2.875 0 
L 24.125 28.609375 
L 4.6875 54.6875 
L 15.28125 54.6875 
L 29.78125 35.203125 
L 44.28125 54.6875 
z
" id="BitstreamVeraSans-Roman-78"/>
     </defs>
     <g transform="translate(467.919 88.23825)scale(0.144 -0.144)">
      <use xlink:href="#BitstreamVeraSans-Roman-6d"/>
      <use x="97.412109375" xlink:href="#BitstreamVeraSans-Roman-61"/>
      <use x="158.69140625" xlink:href="#BitstreamVeraSans-Roman-78"/>
     </g>
    </g>
    <g id="line2d_53">
     <path d="M 431.919 104.33475 
L 452.079 104.33475 
" style="fill:none;stroke:#000000;stroke-dasharray:6.000000,6.000000;stroke-dashoffset:0.0;"/>
    </g>
    <g id="line2d_54"/>
    <g id="text_20">
     <!-- min -->
     <g transform="translate(467.919 109.37475)scale(0.144 -0.144)">
      <use xlink:href="#BitstreamVeraSans-Roman-6d"/>
      <use x="97.412109375" xlink:href="#BitstreamVeraSans-Roman-69"/>
      <use x="125.1953125" xlink:href="#BitstreamVeraSans-Roman-6e"/>
     </g>
    </g>
   </g>
  </g>
 </g>
 <defs>
  <clipPath id="p0d549cc382">
   <rect height="345.6" width="446.4" x="72.0" y="43.2"/>
  </clipPath>
 </defs>
</svg>
