<?xml version="1.0" encoding="utf-8" standalone="no"?>
<!DOCTYPE svg PUBLIC "-//W3C//DTD SVG 1.1//EN"
  "http://www.w3.org/Graphics/SVG/1.1/DTD/svg11.dtd">
<!-- Created with matplotlib (http://matplotlib.org/) -->
<svg height="432pt" version="1.1" viewBox="0 0 576 432" width="576pt" xmlns="http://www.w3.org/2000/svg" xmlns:xlink="http://www.w3.org/1999/xlink">
 <defs>
  <style type="text/css">
*{stroke-linecap:butt;stroke-linejoin:round;stroke-miterlimit:100000;}
  </style>
 </defs>
 <g id="figure_1">
  <g id="patch_1">
   <path d="M 0 432 
L 576 432 
L 576 0 
L 0 0 
z
" style="fill:#ffffff;"/>
  </g>
  <g id="axes_1">
   <g id="patch_2">
    <path d="M 72 388.8 
L 518.4 388.8 
L 518.4 43.2 
L 72 43.2 
z
" style="fill:#ffffff;"/>
   </g>
   <g id="line2d_1">
    <path clip-path="url(#pd6b5706d0e)" d="M 72.1488 388.8 
L 250.8576 388.8 
L 251.0064 387.807285 
L 251.304 387.807285 
L 251.4528 385.847979 
L 251.6016 385.847979 
L 251.7504 383.888674 
L 252.048 383.888674 
L 252.1968 381.929368 
L 252.3456 381.929368 
L 252.4944 379.970062 
L 252.6432 379.970062 
L 252.792 378.500583 
L 253.0896 378.500583 
L 253.3872 377.031104 
L 253.6848 377.031104 
L 253.8336 376.541278 
L 253.9824 376.541278 
L 254.1312 375.561625 
L 254.28 375.561625 
L 254.4288 375.071798 
L 254.5776 375.071798 
L 254.7264 374.092146 
L 254.8752 374.092146 
L 255.024 373.602319 
L 255.1728 373.602319 
L 255.3216 373.112493 
L 255.4704 373.112493 
L 255.6192 372.13284 
L 255.768 372.13284 
L 255.9168 371.643013 
L 256.0656 371.643013 
L 256.2144 371.153187 
L 256.3632 371.153187 
L 256.512 370.173534 
L 256.6608 370.173534 
L 256.9584 369.193881 
L 257.256 369.193881 
L 257.4048 368.704055 
L 257.5536 368.704055 
L 257.7024 367.724402 
L 257.8512 367.724402 
L 258 367.234576 
L 258.1488 367.234576 
L 258.2976 366.744749 
L 258.4464 366.744749 
L 258.5952 365.765097 
L 258.744 365.765097 
L 258.8928 365.27527 
L 259.0416 365.27527 
L 259.1904 364.295617 
L 259.3392 364.295617 
L 259.488 363.805791 
L 259.6368 363.805791 
L 259.7856 363.315965 
L 259.9344 362.336312 
L 260.232 362.336312 
L 260.3808 361.846485 
L 260.5296 361.846485 
L 260.6784 361.356659 
L 260.8272 361.356659 
L 260.976 360.377006 
L 261.1248 360.377006 
L 261.2736 359.88718 
L 261.4224 359.88718 
L 261.5712 359.397353 
L 261.72 359.397353 
L 261.8688 358.4177 
L 262.0176 358.4177 
L 262.1664 357.927874 
L 262.3152 357.927874 
L 262.464 356.948221 
L 262.6128 356.948221 
L 262.9104 355.968568 
L 263.0592 355.968568 
L 263.208 354.988916 
L 263.3568 354.988916 
L 263.5056 354.499089 
L 263.6544 354.499089 
L 263.8032 354.009263 
L 264.1008 354.009263 
L 264.2496 353.02961 
L 264.3984 353.02961 
L 264.5472 352.539784 
L 264.696 352.539784 
L 264.8448 351.560131 
L 264.9936 351.560131 
L 265.1424 351.070304 
L 265.2912 351.070304 
L 265.44 350.580478 
L 265.5888 350.580478 
L 265.7376 349.600825 
L 265.8864 349.600825 
L 266.0352 349.110999 
L 266.184 349.110999 
L 266.3328 348.621172 
L 266.4816 348.621172 
L 266.6304 347.641519 
L 266.7792 347.641519 
L 266.928 347.151693 
L 267.0768 347.151693 
L 267.2256 346.17204 
L 267.3744 346.17204 
L 267.5232 345.682214 
L 267.672 345.682214 
L 267.8208 345.192387 
L 267.9696 345.192387 
L 268.1184 344.212735 
L 268.2672 344.212735 
L 268.416 343.722908 
L 268.5648 343.722908 
L 268.7136 343.233082 
L 268.8624 342.253429 
L 269.0112 342.253429 
L 269.16 341.763603 
L 269.3088 341.763603 
L 269.4576 340.78395 
L 269.6064 340.78395 
L 269.7552 340.294123 
L 269.904 340.294123 
L 270.0528 339.804297 
L 270.3504 339.804297 
L 270.4992 338.824644 
L 270.648 338.824644 
L 270.7968 338.334818 
L 270.9456 338.334818 
L 271.0944 337.844991 
L 271.2432 337.844991 
L 271.392 336.865338 
L 271.5408 336.865338 
L 271.6896 336.375512 
L 271.8384 336.375512 
L 271.9872 335.395859 
L 272.136 335.395859 
L 272.2848 334.906033 
L 272.4336 333.436554 
L 273.0288 333.436554 
L 273.1776 332.946727 
L 273.3264 332.946727 
L 273.4752 332.456901 
L 273.624 332.456901 
L 273.7728 331.967074 
L 273.9216 331.967074 
L 274.2192 330.497595 
L 274.5168 330.497595 
L 274.8144 329.517942 
L 275.112 329.517942 
L 275.2608 329.028116 
L 275.4096 329.028116 
L 275.5584 328.538289 
L 275.7072 328.538289 
L 275.856 328.048463 
L 276.0048 328.048463 
L 276.1536 327.558637 
L 276.3024 327.558637 
L 276.4512 327.06881 
L 276.6 327.06881 
L 276.7488 326.578984 
L 276.8976 326.578984 
L 277.0464 326.089157 
L 277.1952 326.089157 
L 277.344 325.599331 
L 277.6416 323.150199 
L 277.9392 323.150199 
L 278.088 323.640025 
L 278.2368 323.640025 
L 278.3856 323.150199 
L 278.6832 323.150199 
L 278.832 323.640025 
L 278.9808 323.640025 
L 279.1296 323.150199 
L 279.2784 323.150199 
L 279.4272 322.660373 
L 279.8736 320.211241 
L 280.0224 320.211241 
L 280.1712 319.721414 
L 280.32 319.721414 
L 280.4688 318.741761 
L 280.7664 318.741761 
L 280.9152 318.251935 
L 281.2128 318.251935 
L 281.3616 317.762108 
L 281.6592 317.762108 
L 281.808 316.292629 
L 282.1056 316.292629 
L 282.2544 315.312976 
L 282.4032 315.312976 
L 282.552 314.82315 
L 283.1472 314.82315 
L 283.296 313.353671 
L 284.04 313.353671 
L 284.1888 312.863844 
L 284.3376 311.884192 
L 285.0816 311.884192 
L 285.2304 310.904539 
L 285.6768 310.904539 
L 285.8256 309.43506 
L 286.1232 309.43506 
L 286.272 308.455407 
L 286.5696 308.455407 
L 286.7184 307.475754 
L 287.3136 307.475754 
L 287.4624 306.496101 
L 288.6528 306.496101 
L 288.8016 305.516448 
L 289.3968 305.516448 
L 289.5456 305.026622 
L 289.6944 304.046969 
L 289.992 304.046969 
L 290.1408 303.067316 
L 290.4384 303.067316 
L 290.5872 302.57749 
L 290.736 301.597837 
L 291.6288 301.597837 
L 291.7776 301.108011 
L 292.3728 301.108011 
L 292.5216 300.128358 
L 292.6704 300.128358 
L 292.8192 300.618184 
L 293.4144 300.618184 
L 293.5632 300.128358 
L 294.1584 296.699573 
L 294.456 296.699573 
L 294.6048 295.230094 
L 294.7536 295.230094 
L 294.9024 294.740267 
L 295.0512 293.760614 
L 295.2 294.250441 
L 295.3488 294.250441 
L 295.4976 293.270788 
L 295.6464 293.270788 
L 295.7952 293.760614 
L 296.0928 293.760614 
L 296.2416 293.270788 
L 296.5392 291.801309 
L 296.688 291.801309 
L 296.8368 292.291135 
L 297.1344 292.291135 
L 297.2832 292.780962 
L 297.432 292.780962 
L 297.5808 293.270788 
L 297.7296 293.270788 
L 297.8784 292.291135 
L 298.0272 292.291135 
L 298.176 292.780962 
L 298.4736 292.780962 
L 298.6224 293.270788 
L 299.0688 293.270788 
L 299.2176 292.780962 
L 299.3664 292.780962 
L 299.5152 293.270788 
L 300.1104 293.270788 
L 300.2592 292.780962 
L 300.408 292.780962 
L 300.5568 293.270788 
L 301.0032 293.270788 
L 301.152 293.760614 
L 301.4496 293.760614 
L 301.5984 294.250441 
L 301.7472 294.250441 
L 301.896 293.270788 
L 302.0448 293.270788 
L 302.1936 293.760614 
L 302.64 293.760614 
L 302.7888 294.250441 
L 303.0864 294.250441 
L 303.2352 294.740267 
L 303.6816 294.740267 
L 303.8304 295.230094 
L 303.9792 295.230094 
L 304.128 294.740267 
L 304.7232 294.740267 
L 304.872 295.230094 
L 305.0208 295.230094 
L 305.1696 294.250441 
L 305.3184 294.250441 
L 305.4672 294.740267 
L 305.9136 294.740267 
L 306.0624 295.230094 
L 306.36 295.230094 
L 306.5088 294.740267 
L 307.104 294.740267 
L 307.2528 294.250441 
L 308.592 294.250441 
L 308.7408 294.740267 
L 309.0384 294.740267 
L 309.1872 294.250441 
L 310.08 294.250441 
L 310.2288 294.740267 
L 310.6752 294.740267 
L 310.824 294.250441 
L 311.4192 294.250441 
L 311.568 294.740267 
L 311.7168 294.740267 
L 311.8656 294.250441 
L 312.6096 294.250441 
L 312.7584 294.740267 
L 312.9072 293.760614 
L 313.056 293.760614 
L 313.2048 294.250441 
L 313.5024 292.780962 
L 313.6512 292.780962 
L 313.8 293.270788 
L 313.9488 292.780962 
L 314.544 292.780962 
L 314.6928 293.760614 
L 314.8416 293.760614 
L 314.9904 294.250441 
L 315.288 294.250441 
L 315.4368 295.230094 
L 316.032 295.230094 
L 316.1808 296.209746 
L 316.4784 296.209746 
L 316.6272 297.189399 
L 317.2224 297.189399 
L 317.3712 298.169052 
L 317.52 298.169052 
L 317.6688 298.658879 
L 317.9664 298.658879 
L 318.1152 299.148705 
L 318.4128 299.148705 
L 318.5616 300.128358 
L 318.7104 300.128358 
L 318.8592 300.618184 
L 319.1568 300.618184 
L 319.3056 301.597837 
L 319.9008 301.597837 
L 320.0496 302.57749 
L 320.3472 302.57749 
L 320.496 303.067316 
L 320.7936 303.067316 
L 320.9424 303.557143 
L 321.0912 303.557143 
L 321.24 304.046969 
L 321.5376 304.046969 
L 321.6864 305.026622 
L 322.2816 305.026622 
L 322.4304 306.006275 
L 322.728 306.006275 
L 322.8768 306.985927 
L 323.472 306.985927 
L 323.6208 307.475754 
L 323.9184 307.475754 
L 324.0672 308.455407 
L 324.96 308.455407 
L 325.1088 309.924886 
L 325.4064 309.924886 
L 325.5552 310.904539 
L 326.5968 310.904539 
L 326.7456 310.414712 
L 326.8944 310.414712 
L 327.0432 310.904539 
L 327.6384 310.904539 
L 327.7872 311.394365 
L 328.0848 311.394365 
L 328.2336 312.374018 
L 329.1264 312.374018 
L 329.2752 313.353671 
L 329.5728 313.353671 
L 329.7216 313.843497 
L 330.3168 313.843497 
L 330.4656 314.82315 
L 330.7632 314.82315 
L 330.912 315.312976 
L 331.5072 315.312976 
L 331.656 315.802803 
L 331.9536 315.802803 
L 332.1024 316.782456 
L 332.6976 316.782456 
L 332.8464 317.272282 
L 333.144 317.272282 
L 333.2928 317.762108 
L 333.888 317.762108 
L 334.0368 318.251935 
L 334.1856 318.251935 
L 334.3344 318.741761 
L 334.9296 318.741761 
L 335.0784 319.231588 
L 335.6736 319.231588 
L 335.8224 319.721414 
L 336.4176 319.721414 
L 336.5664 320.701067 
L 336.864 320.701067 
L 337.0128 321.190893 
L 337.9056 321.190893 
L 338.0544 321.68072 
L 339.2448 321.68072 
L 339.3936 322.170546 
L 339.84 322.170546 
L 339.9888 322.660373 
L 340.584 322.660373 
L 340.7328 323.150199 
L 341.0304 323.150199 
L 341.1792 323.640025 
L 341.9232 323.640025 
L 342.072 324.129852 
L 343.1136 324.129852 
L 343.2624 324.619678 
L 343.8576 324.619678 
L 344.0064 325.109505 
L 344.1552 324.619678 
L 344.304 324.619678 
L 344.4528 325.109505 
L 345.4944 325.109505 
L 345.6432 325.599331 
L 346.2384 325.599331 
L 346.3872 326.089157 
L 346.9824 326.089157 
L 347.1312 326.578984 
L 347.7264 326.578984 
L 347.8752 327.06881 
L 348.4704 327.06881 
L 348.6192 327.558637 
L 349.2144 327.558637 
L 349.3632 328.048463 
L 349.9584 328.048463 
L 350.1072 328.538289 
L 350.7024 328.538289 
L 350.8512 329.028116 
L 362.0112 329.028116 
L 362.16 329.517942 
L 367.9632 329.517942 
L 368.112 330.007769 
L 372.4272 330.007769 
L 372.576 330.497595 
L 375.4032 330.497595 
L 375.552 330.987422 
L 375.7008 330.987422 
L 375.8496 330.497595 
L 375.9984 330.497595 
L 376.1472 330.987422 
L 378.6768 330.987422 
L 378.8256 331.477248 
L 381.6528 331.477248 
L 381.8016 331.967074 
L 383.736 331.967074 
L 383.8848 332.456901 
L 384.7776 332.456901 
L 384.9264 331.967074 
L 385.3728 331.967074 
L 385.5216 332.456901 
L 386.4144 332.456901 
L 386.5632 332.946727 
L 386.8608 332.946727 
L 387.0096 332.456901 
L 387.9024 332.456901 
L 388.0512 332.946727 
L 388.4976 332.946727 
L 388.6464 333.436554 
L 391.176 333.436554 
L 391.3248 333.92638 
L 392.9616 333.92638 
L 393.1104 334.416206 
L 395.64 334.416206 
L 395.7888 334.906033 
L 397.872 334.906033 
L 398.0208 335.395859 
L 400.2528 335.395859 
L 400.4016 335.885686 
L 402.0384 335.885686 
L 402.1872 336.375512 
L 404.1216 336.375512 
L 404.2704 336.865338 
L 404.8656 336.865338 
L 405.0144 336.375512 
L 405.9072 336.375512 
L 406.056 336.865338 
L 407.9904 336.865338 
L 408.1392 337.355165 
L 410.0736 337.355165 
L 410.2224 337.844991 
L 411.5616 337.844991 
L 411.7104 337.355165 
L 413.496 337.355165 
L 413.6448 337.844991 
L 413.7936 337.844991 
L 413.9424 338.334818 
L 414.0912 338.334818 
L 414.24 338.824644 
L 414.3888 338.824644 
L 414.5376 339.31447 
L 414.6864 339.31447 
L 414.8352 339.804297 
L 414.984 339.804297 
L 415.1328 340.294123 
L 415.2816 340.294123 
L 415.4304 340.78395 
L 415.5792 340.78395 
L 415.728 341.273776 
L 416.1744 341.273776 
L 416.3232 341.763603 
L 416.472 341.763603 
L 416.6208 342.253429 
L 416.9184 342.253429 
L 417.0672 342.743255 
L 417.216 342.743255 
L 417.3648 343.233082 
L 417.8112 343.233082 
L 417.96 343.722908 
L 418.1088 343.722908 
L 418.2576 344.212735 
L 418.4064 344.212735 
L 418.5552 343.722908 
L 418.704 343.722908 
L 418.8528 344.212735 
L 419.0016 344.212735 
L 419.1504 344.702561 
L 419.8944 344.702561 
L 420.0432 345.192387 
L 420.192 345.192387 
L 420.3408 344.212735 
L 420.7872 344.212735 
L 420.936 344.702561 
L 421.3824 344.702561 
L 421.5312 345.192387 
L 421.68 345.192387 
L 421.8288 344.702561 
L 421.9776 344.702561 
L 422.1264 345.192387 
L 422.5728 345.192387 
L 422.7216 345.682214 
L 422.8704 345.682214 
L 423.0192 346.17204 
L 423.168 346.17204 
L 423.3168 345.682214 
L 423.7632 345.682214 
L 423.912 346.17204 
L 424.3584 346.17204 
L 424.5072 346.661867 
L 426.2928 346.661867 
L 426.4416 346.17204 
L 426.7392 346.17204 
L 426.888 345.192387 
L 427.0368 345.682214 
L 427.1856 345.682214 
L 427.4832 343.722908 
L 427.632 343.722908 
L 427.7808 343.233082 
L 427.9296 342.253429 
L 428.0784 342.253429 
L 428.2272 341.273776 
L 428.376 341.763603 
L 428.5248 341.763603 
L 428.6736 340.78395 
L 428.8224 340.78395 
L 428.9712 341.273776 
L 429.12 341.273776 
L 429.2688 341.763603 
L 429.4176 341.763603 
L 429.5664 342.253429 
L 429.7152 341.273776 
L 429.864 341.273776 
L 430.0128 341.763603 
L 430.4592 341.763603 
L 430.608 342.253429 
L 430.7568 342.253429 
L 431.0544 343.233082 
L 431.2032 342.253429 
L 431.352 342.253429 
L 431.5008 342.743255 
L 431.6496 342.743255 
L 431.7984 341.763603 
L 431.9472 341.763603 
L 432.096 342.253429 
L 432.5424 342.253429 
L 432.6912 342.743255 
L 432.9888 342.743255 
L 433.1376 342.253429 
L 433.4352 342.253429 
L 433.584 342.743255 
L 433.7328 342.743255 
L 433.8816 343.233082 
L 434.0304 343.233082 
L 434.1792 342.253429 
L 434.328 342.253429 
L 434.4768 342.743255 
L 434.6256 342.743255 
L 434.7744 343.233082 
L 434.9232 343.233082 
L 435.072 343.722908 
L 435.5184 343.722908 
L 435.6672 344.212735 
L 436.4112 344.212735 
L 436.56 344.702561 
L 436.7088 344.702561 
L 436.8576 345.192387 
L 437.304 345.192387 
L 437.4528 345.682214 
L 437.8992 345.682214 
L 438.048 346.17204 
L 438.6432 346.17204 
L 438.792 346.661867 
L 439.2384 346.661867 
L 439.3872 345.682214 
L 439.6848 345.682214 
L 439.8336 345.192387 
L 440.28 345.192387 
L 440.4288 345.682214 
L 440.8752 345.682214 
L 441.024 346.17204 
L 441.3216 346.17204 
L 441.4704 347.151693 
L 442.0656 347.151693 
L 442.2144 348.621172 
L 442.512 348.621172 
L 442.6608 349.110999 
L 443.256 349.110999 
L 443.4048 350.580478 
L 443.5536 350.580478 
L 443.7024 350.090651 
L 444 350.090651 
L 444.1488 351.560131 
L 444.2976 351.560131 
L 444.4464 351.070304 
L 444.744 351.070304 
L 444.8928 352.049957 
L 445.488 352.049957 
L 445.6368 353.02961 
L 445.7856 353.02961 
L 445.9344 352.539784 
L 446.232 352.539784 
L 446.3808 353.519436 
L 446.5296 353.519436 
L 446.6784 353.02961 
L 446.976 353.02961 
L 447.1248 353.519436 
L 447.4224 353.519436 
L 447.5712 354.499089 
L 447.72 354.499089 
L 447.8688 354.009263 
L 448.1664 354.009263 
L 448.3152 354.499089 
L 448.6128 354.499089 
L 448.7616 355.478742 
L 449.3568 355.478742 
L 449.5056 355.968568 
L 449.6544 355.968568 
L 449.8032 354.988916 
L 450.1008 354.988916 
L 450.2496 355.968568 
L 451.2912 355.968568 
L 451.44 356.458395 
L 451.7376 356.458395 
L 451.8864 356.948221 
L 452.0352 356.948221 
L 452.184 356.458395 
L 452.4816 356.458395 
L 452.6304 356.948221 
L 452.928 356.948221 
L 453.0768 357.438048 
L 453.2256 357.438048 
L 453.3744 356.948221 
L 453.672 356.948221 
L 453.8208 357.438048 
L 453.9696 357.438048 
L 454.1184 356.948221 
L 454.2672 356.948221 
L 454.416 356.458395 
L 454.8624 356.458395 
L 455.0112 355.968568 
L 455.4576 355.968568 
L 455.6064 354.988916 
L 456.0528 354.988916 
L 456.2016 354.499089 
L 456.3504 354.499089 
L 456.4992 354.988916 
L 456.648 354.988916 
L 456.7968 354.499089 
L 456.9456 354.499089 
L 457.0944 354.009263 
L 457.5408 354.009263 
L 457.6896 353.519436 
L 458.7312 353.519436 
L 458.88 353.02961 
L 459.0288 353.02961 
L 459.1776 352.539784 
L 459.3264 353.02961 
L 459.4752 353.02961 
L 459.624 352.539784 
L 460.368 352.539784 
L 460.5168 352.049957 
L 460.6656 352.049957 
L 460.8144 352.539784 
L 460.9632 352.539784 
L 461.112 352.049957 
L 462.8976 352.049957 
L 463.0464 351.560131 
L 463.1952 351.560131 
L 463.344 352.049957 
L 463.4928 352.049957 
L 463.6416 351.560131 
L 464.5344 351.560131 
L 464.6832 350.580478 
L 465.2784 350.580478 
L 465.4272 351.560131 
L 466.1712 351.560131 
L 466.32 351.070304 
L 466.4688 351.560131 
L 466.6176 351.560131 
L 466.7664 351.070304 
L 466.9152 351.070304 
L 467.064 351.560131 
L 467.6592 351.560131 
L 467.808 351.070304 
L 467.9568 351.070304 
L 468.1056 351.560131 
L 468.2544 351.560131 
L 468.4032 351.070304 
L 469.296 351.070304 
L 469.4448 351.560131 
L 469.5936 351.560131 
L 469.7424 351.070304 
L 470.784 351.070304 
L 470.9328 351.560131 
L 471.2304 351.560131 
L 471.3792 351.070304 
L 471.528 351.070304 
L 471.6768 351.560131 
L 471.8256 351.560131 
L 471.9744 351.070304 
L 472.4208 351.070304 
L 472.5696 351.560131 
L 472.7184 351.070304 
L 472.8672 351.070304 
L 473.016 351.560131 
L 473.1648 351.560131 
L 473.3136 351.070304 
L 473.4624 351.070304 
L 473.6112 351.560131 
L 473.76 351.560131 
L 473.9088 351.070304 
L 474.504 351.070304 
L 474.6528 351.560131 
L 474.8016 351.560131 
L 474.9504 351.070304 
L 475.0992 351.070304 
L 475.248 351.560131 
L 475.3968 351.560131 
L 475.5456 351.070304 
L 475.6944 351.070304 
L 475.8432 351.560131 
L 475.992 351.560131 
L 476.1408 351.070304 
L 476.2896 351.070304 
L 476.4384 351.560131 
L 481.0512 351.560131 
L 481.2 352.049957 
L 481.3488 352.049957 
L 481.4976 351.560131 
L 481.6464 351.560131 
L 481.7952 352.049957 
L 481.944 352.049957 
L 482.0928 351.560131 
L 482.2416 351.560131 
L 482.3904 352.049957 
L 482.5392 352.049957 
L 482.688 351.560131 
L 482.8368 351.560131 
L 482.9856 352.049957 
L 483.1344 352.049957 
L 483.2832 351.560131 
L 484.0272 351.560131 
L 484.176 352.049957 
L 484.6224 352.049957 
L 484.7712 351.560131 
L 484.92 351.560131 
L 485.0688 352.049957 
L 485.2176 352.049957 
L 485.3664 351.560131 
L 485.5152 351.560131 
L 485.664 352.049957 
L 485.8128 352.049957 
L 485.9616 351.560131 
L 486.1104 351.560131 
L 486.2592 352.049957 
L 488.4912 352.049957 
L 488.64 352.539784 
L 488.7888 351.560131 
L 489.0864 351.560131 
L 489.2352 352.049957 
L 489.9792 352.049957 
L 490.128 352.539784 
L 490.2768 352.539784 
L 490.4256 352.049957 
L 490.5744 352.049957 
L 490.7232 352.539784 
L 491.1696 352.539784 
L 491.3184 352.049957 
L 491.4672 352.049957 
L 491.616 352.539784 
L 495.336 352.539784 
L 495.4848 353.02961 
L 495.6336 353.02961 
L 495.7824 352.539784 
L 496.2288 352.539784 
L 496.3776 353.02961 
L 496.5264 353.02961 
L 496.6752 352.539784 
L 497.1216 352.539784 
L 497.2704 353.02961 
L 497.568 353.02961 
L 497.7168 352.539784 
L 498.0144 352.539784 
L 498.1632 353.02961 
L 500.2464 353.02961 
L 500.3952 352.049957 
L 500.8416 352.049957 
L 500.9904 352.539784 
L 501.288 352.539784 
L 501.4368 353.02961 
L 501.5856 353.02961 
L 501.7344 353.519436 
L 502.1808 353.519436 
L 502.3296 353.02961 
L 502.776 353.02961 
L 502.9248 353.519436 
L 507.3888 353.519436 
L 507.5376 353.02961 
L 507.8352 353.02961 
L 507.984 353.519436 
L 508.1328 353.519436 
L 508.2816 354.009263 
L 509.0256 354.009263 
L 509.1744 353.519436 
L 509.9184 353.519436 
L 510.0672 354.009263 
L 510.216 354.009263 
L 510.3648 354.499089 
L 510.5136 354.009263 
L 510.96 354.009263 
L 511.1088 353.02961 
L 511.5552 353.02961 
L 511.704 353.519436 
L 512.0016 353.519436 
L 512.1504 352.539784 
L 512.5968 352.539784 
L 512.7456 353.02961 
L 513.192 353.02961 
L 513.3408 353.519436 
L 513.6384 353.519436 
L 513.7872 354.009263 
L 514.2336 354.009263 
L 514.3824 354.499089 
L 514.9776 354.499089 
L 515.1264 355.478742 
L 515.2752 355.478742 
L 515.5728 353.519436 
L 516.6144 353.519436 
L 516.7632 354.009263 
L 518.4 354.009263 
L 518.4 354.009263 
" style="fill:none;stroke:#008000;stroke-linecap:square;"/>
   </g>
   <g id="line2d_2">
    <path clip-path="url(#pd6b5706d0e)" d="M 72.1488 388.8 
L 92.2368 388.8 
L 92.3856 379.157148 
L 92.5344 379.157148 
L 92.6832 369.514296 
L 92.9808 369.514296 
L 93.1296 359.871443 
L 93.2784 359.871443 
L 93.4272 350.228591 
L 93.576 350.228591 
L 93.7248 340.585739 
L 93.8736 340.585739 
L 94.0224 330.942887 
L 94.1712 330.942887 
L 94.32 321.300035 
L 94.4688 321.300035 
L 94.6176 311.657182 
L 94.7664 311.657182 
L 94.9152 300.08576 
L 95.064 300.08576 
L 95.2128 290.442908 
L 95.3616 290.442908 
L 95.5104 280.800055 
L 95.6592 280.800055 
L 95.808 271.157203 
L 95.9568 271.157203 
L 96.1056 261.514351 
L 96.2544 261.514351 
L 96.4032 251.871499 
L 96.552 251.871499 
L 96.7008 242.228646 
L 96.8496 242.228646 
L 96.9984 232.585794 
L 97.1472 232.585794 
L 97.296 221.014372 
L 97.4448 221.014372 
L 97.5936 211.371519 
L 97.7424 211.371519 
L 97.8912 201.728667 
L 98.04 201.728667 
L 98.1888 192.085815 
L 98.3376 192.085815 
L 98.4864 182.442963 
L 98.6352 182.442963 
L 98.784 172.800111 
L 98.9328 172.800111 
L 99.0816 163.157258 
L 99.2304 163.157258 
L 99.3792 153.514406 
L 99.528 153.514406 
L 99.6768 141.942984 
L 99.8256 141.942984 
L 99.9744 138.085843 
L 100.1232 138.085843 
L 100.272 136.157272 
L 100.4208 136.157272 
L 100.5696 132.300131 
L 100.7184 132.300131 
L 101.016 124.58585 
L 101.1648 124.58585 
L 101.3136 120.728709 
L 101.76 120.728709 
L 102.0576 114.942997 
L 102.3552 114.942997 
L 102.504 111.085856 
L 102.6528 111.085856 
L 102.8016 109.157286 
L 103.3968 109.157286 
L 103.5456 105.300145 
L 103.6944 105.300145 
L 103.8432 103.371575 
L 103.992 103.371575 
L 104.1408 101.443004 
L 104.2896 101.443004 
L 104.4384 99.514434 
L 104.5872 99.514434 
L 104.736 97.585863 
L 104.8848 97.585863 
L 105.0336 93.728723 
L 105.1824 93.728723 
L 105.3312 91.800152 
L 105.48 91.800152 
L 105.6288 89.871582 
L 105.7776 89.871582 
L 105.9264 87.943011 
L 106.0752 87.943011 
L 106.224 86.014441 
L 106.3728 86.014441 
L 106.5216 84.08587 
L 106.6704 84.08587 
L 106.8192 82.1573 
L 106.968 82.1573 
L 107.1168 80.228729 
L 107.2656 80.228729 
L 107.4144 78.300159 
L 107.5632 78.300159 
L 107.712 76.371589 
L 107.8608 76.371589 
L 108.0096 74.443018 
L 108.1584 74.443018 
L 108.3072 72.514448 
L 108.456 72.514448 
L 108.6048 70.585877 
L 108.7536 70.585877 
L 108.9024 66.728736 
L 109.0512 66.728736 
L 109.2 64.800166 
L 109.3488 64.800166 
L 109.4976 62.871595 
L 109.6464 62.871595 
L 109.7952 60.943025 
L 109.944 60.943025 
L 110.0928 59.014455 
L 237.0192 59.014455 
L 237.168 60.943025 
L 237.3168 60.943025 
L 237.4656 66.728736 
L 237.6144 66.728736 
L 237.912 78.300159 
L 238.0608 78.300159 
L 238.2096 84.08587 
L 238.3584 84.08587 
L 238.5072 89.871582 
L 238.8048 89.871582 
L 239.1024 101.443004 
L 239.2512 101.443004 
L 239.4 107.228716 
L 239.6976 107.228716 
L 239.8464 114.942997 
L 239.9952 114.942997 
L 240.144 120.728709 
L 240.2928 120.728709 
L 240.4416 126.51442 
L 240.7392 126.51442 
L 240.888 132.300131 
L 241.0368 132.300131 
L 241.1856 138.085843 
L 241.3344 138.085843 
L 241.4832 143.871554 
L 241.632 143.871554 
L 241.7808 149.657265 
L 241.9296 149.657265 
L 242.0784 155.442977 
L 242.2272 155.442977 
L 242.376 161.228688 
L 242.6736 161.228688 
L 242.8224 167.014399 
L 242.9712 167.014399 
L 243.12 172.800111 
L 243.4176 172.800111 
L 243.5664 178.585822 
L 243.7152 178.585822 
L 243.864 184.371533 
L 244.0128 184.371533 
L 244.1616 190.157245 
L 244.4592 190.157245 
L 244.608 197.871526 
L 244.7568 197.871526 
L 244.9056 203.657238 
L 245.2032 203.657238 
L 245.352 209.442949 
L 245.5008 209.442949 
L 245.6496 215.22866 
L 245.7984 215.22866 
L 245.9472 294.300048 
L 247.7328 294.300048 
L 247.8816 296.228619 
L 248.0304 296.228619 
L 248.1792 298.157189 
L 248.328 298.157189 
L 248.4768 300.08576 
L 248.7744 300.08576 
L 248.9232 302.01433 
L 249.072 302.01433 
L 249.2208 303.942901 
L 249.816 303.942901 
L 249.9648 305.871471 
L 250.2624 305.871471 
L 250.4112 388.8 
L 518.4 388.8 
L 518.4 388.8 
" style="fill:none;stroke:#ff0000;stroke-linecap:square;"/>
   </g>
   <g id="patch_3">
    <path d="M 72 43.2 
L 518.4 43.2 
" style="fill:none;stroke:#000000;stroke-linecap:square;stroke-linejoin:miter;"/>
   </g>
   <g id="patch_4">
    <path d="M 518.4 388.8 
L 518.4 43.2 
" style="fill:none;stroke:#000000;stroke-linecap:square;stroke-linejoin:miter;"/>
   </g>
   <g id="patch_5">
    <path d="M 72 388.8 
L 518.4 388.8 
" style="fill:none;stroke:#000000;stroke-linecap:square;stroke-linejoin:miter;"/>
   </g>
   <g id="patch_6">
    <path d="M 72 388.8 
L 72 43.2 
" style="fill:none;stroke:#000000;stroke-linecap:square;stroke-linejoin:miter;"/>
   </g>
   <g id="matplotlib.axis_1">
    <g id="xtick_1">
     <g id="line2d_3">
      <path clip-path="url(#pd6b5706d0e)" d="M 72 388.8 
L 72 43.2 
" style="fill:none;stroke:#000000;stroke-dasharray:1.000000,3.000000;stroke-dashoffset:0.0;stroke-width:0.5;"/>
     </g>
     <g id="line2d_4">
      <defs>
       <path d="M 0 0 
L 0 -4 
" id="m2857e49a43" style="stroke:#000000;stroke-width:0.5;"/>
      </defs>
      <g>
       <use style="stroke:#000000;stroke-width:0.5;" x="72.0" xlink:href="#m2857e49a43" y="388.8"/>
      </g>
     </g>
     <g id="line2d_5">
      <defs>
       <path d="M 0 0 
L 0 4 
" id="mbac36db778" style="stroke:#000000;stroke-width:0.5;"/>
      </defs>
      <g>
       <use style="stroke:#000000;stroke-width:0.5;" x="72.0" xlink:href="#mbac36db778" y="43.2"/>
      </g>
     </g>
     <g id="text_1">
      <!-- 0 -->
      <defs>
       <path d="M 31.78125 66.40625 
Q 24.171875 66.40625 20.328125 58.90625 
Q 16.5 51.421875 16.5 36.375 
Q 16.5 21.390625 20.328125 13.890625 
Q 24.171875 6.390625 31.78125 6.390625 
Q 39.453125 6.390625 43.28125 13.890625 
Q 47.125 21.390625 47.125 36.375 
Q 47.125 51.421875 43.28125 58.90625 
Q 39.453125 66.40625 31.78125 66.40625 
M 31.78125 74.21875 
Q 44.046875 74.21875 50.515625 64.515625 
Q 56.984375 54.828125 56.984375 36.375 
Q 56.984375 17.96875 50.515625 8.265625 
Q 44.046875 -1.421875 31.78125 -1.421875 
Q 19.53125 -1.421875 13.0625 8.265625 
Q 6.59375 17.96875 6.59375 36.375 
Q 6.59375 54.828125 13.0625 64.515625 
Q 19.53125 74.21875 31.78125 74.21875 
" id="BitstreamVeraSans-Roman-30"/>
      </defs>
      <g transform="translate(68.1825 401.918125)scale(0.12 -0.12)">
       <use xlink:href="#BitstreamVeraSans-Roman-30"/>
      </g>
     </g>
    </g>
    <g id="xtick_2">
     <g id="line2d_6">
      <path clip-path="url(#pd6b5706d0e)" d="M 146.4 388.8 
L 146.4 43.2 
" style="fill:none;stroke:#000000;stroke-dasharray:1.000000,3.000000;stroke-dashoffset:0.0;stroke-width:0.5;"/>
     </g>
     <g id="line2d_7">
      <g>
       <use style="stroke:#000000;stroke-width:0.5;" x="146.4" xlink:href="#m2857e49a43" y="388.8"/>
      </g>
     </g>
     <g id="line2d_8">
      <g>
       <use style="stroke:#000000;stroke-width:0.5;" x="146.4" xlink:href="#mbac36db778" y="43.2"/>
      </g>
     </g>
     <g id="text_2">
      <!-- 5 -->
      <defs>
       <path d="M 10.796875 72.90625 
L 49.515625 72.90625 
L 49.515625 64.59375 
L 19.828125 64.59375 
L 19.828125 46.734375 
Q 21.96875 47.46875 24.109375 47.828125 
Q 26.265625 48.1875 28.421875 48.1875 
Q 40.625 48.1875 47.75 41.5 
Q 54.890625 34.8125 54.890625 23.390625 
Q 54.890625 11.625 47.5625 5.09375 
Q 40.234375 -1.421875 26.90625 -1.421875 
Q 22.3125 -1.421875 17.546875 -0.640625 
Q 12.796875 0.140625 7.71875 1.703125 
L 7.71875 11.625 
Q 12.109375 9.234375 16.796875 8.0625 
Q 21.484375 6.890625 26.703125 6.890625 
Q 35.15625 6.890625 40.078125 11.328125 
Q 45.015625 15.765625 45.015625 23.390625 
Q 45.015625 31 40.078125 35.4375 
Q 35.15625 39.890625 26.703125 39.890625 
Q 22.75 39.890625 18.8125 39.015625 
Q 14.890625 38.140625 10.796875 36.28125 
z
" id="BitstreamVeraSans-Roman-35"/>
      </defs>
      <g transform="translate(142.5825 401.918125)scale(0.12 -0.12)">
       <use xlink:href="#BitstreamVeraSans-Roman-35"/>
      </g>
     </g>
    </g>
    <g id="xtick_3">
     <g id="line2d_9">
      <path clip-path="url(#pd6b5706d0e)" d="M 220.8 388.8 
L 220.8 43.2 
" style="fill:none;stroke:#000000;stroke-dasharray:1.000000,3.000000;stroke-dashoffset:0.0;stroke-width:0.5;"/>
     </g>
     <g id="line2d_10">
      <g>
       <use style="stroke:#000000;stroke-width:0.5;" x="220.8" xlink:href="#m2857e49a43" y="388.8"/>
      </g>
     </g>
     <g id="line2d_11">
      <g>
       <use style="stroke:#000000;stroke-width:0.5;" x="220.8" xlink:href="#mbac36db778" y="43.2"/>
      </g>
     </g>
     <g id="text_3">
      <!-- 10 -->
      <defs>
       <path d="M 12.40625 8.296875 
L 28.515625 8.296875 
L 28.515625 63.921875 
L 10.984375 60.40625 
L 10.984375 69.390625 
L 28.421875 72.90625 
L 38.28125 72.90625 
L 38.28125 8.296875 
L 54.390625 8.296875 
L 54.390625 0 
L 12.40625 0 
z
" id="BitstreamVeraSans-Roman-31"/>
      </defs>
      <g transform="translate(213.165 401.918125)scale(0.12 -0.12)">
       <use xlink:href="#BitstreamVeraSans-Roman-31"/>
       <use x="63.623046875" xlink:href="#BitstreamVeraSans-Roman-30"/>
      </g>
     </g>
    </g>
    <g id="xtick_4">
     <g id="line2d_12">
      <path clip-path="url(#pd6b5706d0e)" d="M 295.2 388.8 
L 295.2 43.2 
" style="fill:none;stroke:#000000;stroke-dasharray:1.000000,3.000000;stroke-dashoffset:0.0;stroke-width:0.5;"/>
     </g>
     <g id="line2d_13">
      <g>
       <use style="stroke:#000000;stroke-width:0.5;" x="295.2" xlink:href="#m2857e49a43" y="388.8"/>
      </g>
     </g>
     <g id="line2d_14">
      <g>
       <use style="stroke:#000000;stroke-width:0.5;" x="295.2" xlink:href="#mbac36db778" y="43.2"/>
      </g>
     </g>
     <g id="text_4">
      <!-- 15 -->
      <g transform="translate(287.565 401.918125)scale(0.12 -0.12)">
       <use xlink:href="#BitstreamVeraSans-Roman-31"/>
       <use x="63.623046875" xlink:href="#BitstreamVeraSans-Roman-35"/>
      </g>
     </g>
    </g>
    <g id="xtick_5">
     <g id="line2d_15">
      <path clip-path="url(#pd6b5706d0e)" d="M 369.6 388.8 
L 369.6 43.2 
" style="fill:none;stroke:#000000;stroke-dasharray:1.000000,3.000000;stroke-dashoffset:0.0;stroke-width:0.5;"/>
     </g>
     <g id="line2d_16">
      <g>
       <use style="stroke:#000000;stroke-width:0.5;" x="369.6" xlink:href="#m2857e49a43" y="388.8"/>
      </g>
     </g>
     <g id="line2d_17">
      <g>
       <use style="stroke:#000000;stroke-width:0.5;" x="369.6" xlink:href="#mbac36db778" y="43.2"/>
      </g>
     </g>
     <g id="text_5">
      <!-- 20 -->
      <defs>
       <path d="M 19.1875 8.296875 
L 53.609375 8.296875 
L 53.609375 0 
L 7.328125 0 
L 7.328125 8.296875 
Q 12.9375 14.109375 22.625 23.890625 
Q 32.328125 33.6875 34.8125 36.53125 
Q 39.546875 41.84375 41.421875 45.53125 
Q 43.3125 49.21875 43.3125 52.78125 
Q 43.3125 58.59375 39.234375 62.25 
Q 35.15625 65.921875 28.609375 65.921875 
Q 23.96875 65.921875 18.8125 64.3125 
Q 13.671875 62.703125 7.8125 59.421875 
L 7.8125 69.390625 
Q 13.765625 71.78125 18.9375 73 
Q 24.125 74.21875 28.421875 74.21875 
Q 39.75 74.21875 46.484375 68.546875 
Q 53.21875 62.890625 53.21875 53.421875 
Q 53.21875 48.921875 51.53125 44.890625 
Q 49.859375 40.875 45.40625 35.40625 
Q 44.1875 33.984375 37.640625 27.21875 
Q 31.109375 20.453125 19.1875 8.296875 
" id="BitstreamVeraSans-Roman-32"/>
      </defs>
      <g transform="translate(361.965 401.918125)scale(0.12 -0.12)">
       <use xlink:href="#BitstreamVeraSans-Roman-32"/>
       <use x="63.623046875" xlink:href="#BitstreamVeraSans-Roman-30"/>
      </g>
     </g>
    </g>
    <g id="xtick_6">
     <g id="line2d_18">
      <path clip-path="url(#pd6b5706d0e)" d="M 444 388.8 
L 444 43.2 
" style="fill:none;stroke:#000000;stroke-dasharray:1.000000,3.000000;stroke-dashoffset:0.0;stroke-width:0.5;"/>
     </g>
     <g id="line2d_19">
      <g>
       <use style="stroke:#000000;stroke-width:0.5;" x="444.0" xlink:href="#m2857e49a43" y="388.8"/>
      </g>
     </g>
     <g id="line2d_20">
      <g>
       <use style="stroke:#000000;stroke-width:0.5;" x="444.0" xlink:href="#mbac36db778" y="43.2"/>
      </g>
     </g>
     <g id="text_6">
      <!-- 25 -->
      <g transform="translate(436.365 401.918125)scale(0.12 -0.12)">
       <use xlink:href="#BitstreamVeraSans-Roman-32"/>
       <use x="63.623046875" xlink:href="#BitstreamVeraSans-Roman-35"/>
      </g>
     </g>
    </g>
    <g id="xtick_7">
     <g id="line2d_21">
      <path clip-path="url(#pd6b5706d0e)" d="M 518.4 388.8 
L 518.4 43.2 
" style="fill:none;stroke:#000000;stroke-dasharray:1.000000,3.000000;stroke-dashoffset:0.0;stroke-width:0.5;"/>
     </g>
     <g id="line2d_22">
      <g>
       <use style="stroke:#000000;stroke-width:0.5;" x="518.4" xlink:href="#m2857e49a43" y="388.8"/>
      </g>
     </g>
     <g id="line2d_23">
      <g>
       <use style="stroke:#000000;stroke-width:0.5;" x="518.4" xlink:href="#mbac36db778" y="43.2"/>
      </g>
     </g>
     <g id="text_7">
      <!-- 30 -->
      <defs>
       <path d="M 40.578125 39.3125 
Q 47.65625 37.796875 51.625 33 
Q 55.609375 28.21875 55.609375 21.1875 
Q 55.609375 10.40625 48.1875 4.484375 
Q 40.765625 -1.421875 27.09375 -1.421875 
Q 22.515625 -1.421875 17.65625 -0.515625 
Q 12.796875 0.390625 7.625 2.203125 
L 7.625 11.71875 
Q 11.71875 9.328125 16.59375 8.109375 
Q 21.484375 6.890625 26.8125 6.890625 
Q 36.078125 6.890625 40.9375 10.546875 
Q 45.796875 14.203125 45.796875 21.1875 
Q 45.796875 27.640625 41.28125 31.265625 
Q 36.765625 34.90625 28.71875 34.90625 
L 20.21875 34.90625 
L 20.21875 43.015625 
L 29.109375 43.015625 
Q 36.375 43.015625 40.234375 45.921875 
Q 44.09375 48.828125 44.09375 54.296875 
Q 44.09375 59.90625 40.109375 62.90625 
Q 36.140625 65.921875 28.71875 65.921875 
Q 24.65625 65.921875 20.015625 65.03125 
Q 15.375 64.15625 9.8125 62.3125 
L 9.8125 71.09375 
Q 15.4375 72.65625 20.34375 73.4375 
Q 25.25 74.21875 29.59375 74.21875 
Q 40.828125 74.21875 47.359375 69.109375 
Q 53.90625 64.015625 53.90625 55.328125 
Q 53.90625 49.265625 50.4375 45.09375 
Q 46.96875 40.921875 40.578125 39.3125 
" id="BitstreamVeraSans-Roman-33"/>
      </defs>
      <g transform="translate(510.765 401.918125)scale(0.12 -0.12)">
       <use xlink:href="#BitstreamVeraSans-Roman-33"/>
       <use x="63.623046875" xlink:href="#BitstreamVeraSans-Roman-30"/>
      </g>
     </g>
    </g>
    <g id="text_8">
     <!-- Time [s] -->
     <defs>
      <path id="BitstreamVeraSans-Roman-20"/>
      <path d="M 8.59375 75.984375 
L 29.296875 75.984375 
L 29.296875 69 
L 17.578125 69 
L 17.578125 -6.203125 
L 29.296875 -6.203125 
L 29.296875 -13.1875 
L 8.59375 -13.1875 
z
" id="BitstreamVeraSans-Roman-5b"/>
      <path d="M 30.421875 75.984375 
L 30.421875 -13.1875 
L 9.71875 -13.1875 
L 9.71875 -6.203125 
L 21.390625 -6.203125 
L 21.390625 69 
L 9.71875 69 
L 9.71875 75.984375 
z
" id="BitstreamVeraSans-Roman-5d"/>
      <path d="M 52 44.1875 
Q 55.375 50.25 60.0625 53.125 
Q 64.75 56 71.09375 56 
Q 79.640625 56 84.28125 50.015625 
Q 88.921875 44.046875 88.921875 33.015625 
L 88.921875 0 
L 79.890625 0 
L 79.890625 32.71875 
Q 79.890625 40.578125 77.09375 44.375 
Q 74.3125 48.1875 68.609375 48.1875 
Q 61.625 48.1875 57.5625 43.546875 
Q 53.515625 38.921875 53.515625 30.90625 
L 53.515625 0 
L 44.484375 0 
L 44.484375 32.71875 
Q 44.484375 40.625 41.703125 44.40625 
Q 38.921875 48.1875 33.109375 48.1875 
Q 26.21875 48.1875 22.15625 43.53125 
Q 18.109375 38.875 18.109375 30.90625 
L 18.109375 0 
L 9.078125 0 
L 9.078125 54.6875 
L 18.109375 54.6875 
L 18.109375 46.1875 
Q 21.1875 51.21875 25.484375 53.609375 
Q 29.78125 56 35.6875 56 
Q 41.65625 56 45.828125 52.96875 
Q 50 49.953125 52 44.1875 
" id="BitstreamVeraSans-Roman-6d"/>
      <path d="M 9.421875 54.6875 
L 18.40625 54.6875 
L 18.40625 0 
L 9.421875 0 
z
M 9.421875 75.984375 
L 18.40625 75.984375 
L 18.40625 64.59375 
L 9.421875 64.59375 
z
" id="BitstreamVeraSans-Roman-69"/>
      <path d="M 56.203125 29.59375 
L 56.203125 25.203125 
L 14.890625 25.203125 
Q 15.484375 15.921875 20.484375 11.0625 
Q 25.484375 6.203125 34.421875 6.203125 
Q 39.59375 6.203125 44.453125 7.46875 
Q 49.3125 8.734375 54.109375 11.28125 
L 54.109375 2.78125 
Q 49.265625 0.734375 44.1875 -0.34375 
Q 39.109375 -1.421875 33.890625 -1.421875 
Q 20.796875 -1.421875 13.15625 6.1875 
Q 5.515625 13.8125 5.515625 26.8125 
Q 5.515625 40.234375 12.765625 48.109375 
Q 20.015625 56 32.328125 56 
Q 43.359375 56 49.78125 48.890625 
Q 56.203125 41.796875 56.203125 29.59375 
M 47.21875 32.234375 
Q 47.125 39.59375 43.09375 43.984375 
Q 39.0625 48.390625 32.421875 48.390625 
Q 24.90625 48.390625 20.390625 44.140625 
Q 15.875 39.890625 15.1875 32.171875 
z
" id="BitstreamVeraSans-Roman-65"/>
      <path d="M -0.296875 72.90625 
L 61.375 72.90625 
L 61.375 64.59375 
L 35.5 64.59375 
L 35.5 0 
L 25.59375 0 
L 25.59375 64.59375 
L -0.296875 64.59375 
z
" id="BitstreamVeraSans-Roman-54"/>
      <path d="M 44.28125 53.078125 
L 44.28125 44.578125 
Q 40.484375 46.53125 36.375 47.5 
Q 32.28125 48.484375 27.875 48.484375 
Q 21.1875 48.484375 17.84375 46.4375 
Q 14.5 44.390625 14.5 40.28125 
Q 14.5 37.15625 16.890625 35.375 
Q 19.28125 33.59375 26.515625 31.984375 
L 29.59375 31.296875 
Q 39.15625 29.25 43.1875 25.515625 
Q 47.21875 21.78125 47.21875 15.09375 
Q 47.21875 7.46875 41.1875 3.015625 
Q 35.15625 -1.421875 24.609375 -1.421875 
Q 20.21875 -1.421875 15.453125 -0.5625 
Q 10.6875 0.296875 5.421875 2 
L 5.421875 11.28125 
Q 10.40625 8.6875 15.234375 7.390625 
Q 20.0625 6.109375 24.8125 6.109375 
Q 31.15625 6.109375 34.5625 8.28125 
Q 37.984375 10.453125 37.984375 14.40625 
Q 37.984375 18.0625 35.515625 20.015625 
Q 33.0625 21.96875 24.703125 23.78125 
L 21.578125 24.515625 
Q 13.234375 26.265625 9.515625 29.90625 
Q 5.8125 33.546875 5.8125 39.890625 
Q 5.8125 47.609375 11.28125 51.796875 
Q 16.75 56 26.8125 56 
Q 31.78125 56 36.171875 55.265625 
Q 40.578125 54.546875 44.28125 53.078125 
" id="BitstreamVeraSans-Roman-73"/>
     </defs>
     <g transform="translate(270.620625 418.531875)scale(0.12 -0.12)">
      <use xlink:href="#BitstreamVeraSans-Roman-54"/>
      <use x="61.037109375" xlink:href="#BitstreamVeraSans-Roman-69"/>
      <use x="88.8203125" xlink:href="#BitstreamVeraSans-Roman-6d"/>
      <use x="186.232421875" xlink:href="#BitstreamVeraSans-Roman-65"/>
      <use x="247.755859375" xlink:href="#BitstreamVeraSans-Roman-20"/>
      <use x="279.54296875" xlink:href="#BitstreamVeraSans-Roman-5b"/>
      <use x="318.556640625" xlink:href="#BitstreamVeraSans-Roman-73"/>
      <use x="370.65625" xlink:href="#BitstreamVeraSans-Roman-5d"/>
     </g>
    </g>
   </g>
   <g id="matplotlib.axis_2">
    <g id="ytick_1">
     <g id="line2d_24">
      <path clip-path="url(#pd6b5706d0e)" d="M 72 388.8 
L 518.4 388.8 
" style="fill:none;stroke:#000000;stroke-dasharray:1.000000,3.000000;stroke-dashoffset:0.0;stroke-width:0.5;"/>
     </g>
     <g id="line2d_25">
      <defs>
       <path d="M 0 0 
L 4 0 
" id="ma21d217d01" style="stroke:#000000;stroke-width:0.5;"/>
      </defs>
      <g>
       <use style="stroke:#000000;stroke-width:0.5;" x="72.0" xlink:href="#ma21d217d01" y="388.8"/>
      </g>
     </g>
     <g id="line2d_26">
      <defs>
       <path d="M 0 0 
L -4 0 
" id="mea795a2469" style="stroke:#000000;stroke-width:0.5;"/>
      </defs>
      <g>
       <use style="stroke:#000000;stroke-width:0.5;" x="518.4" xlink:href="#mea795a2469" y="388.8"/>
      </g>
     </g>
     <g id="text_9">
      <!-- 0.0 -->
      <defs>
       <path d="M 10.6875 12.40625 
L 21 12.40625 
L 21 0 
L 10.6875 0 
z
" id="BitstreamVeraSans-Roman-2e"/>
      </defs>
      <g transform="translate(48.91625 392.11125)scale(0.12 -0.12)">
       <use xlink:href="#BitstreamVeraSans-Roman-30"/>
       <use x="63.623046875" xlink:href="#BitstreamVeraSans-Roman-2e"/>
       <use x="95.41015625" xlink:href="#BitstreamVeraSans-Roman-30"/>
      </g>
     </g>
    </g>
    <g id="ytick_2">
     <g id="line2d_27">
      <path clip-path="url(#pd6b5706d0e)" d="M 72 339.428571 
L 518.4 339.428571 
" style="fill:none;stroke:#000000;stroke-dasharray:1.000000,3.000000;stroke-dashoffset:0.0;stroke-width:0.5;"/>
     </g>
     <g id="line2d_28">
      <g>
       <use style="stroke:#000000;stroke-width:0.5;" x="72.0" xlink:href="#ma21d217d01" y="339.428571429"/>
      </g>
     </g>
     <g id="line2d_29">
      <g>
       <use style="stroke:#000000;stroke-width:0.5;" x="518.4" xlink:href="#mea795a2469" y="339.428571429"/>
      </g>
     </g>
     <g id="text_10">
      <!-- 0.1 -->
      <g transform="translate(48.91625 342.739821429)scale(0.12 -0.12)">
       <use xlink:href="#BitstreamVeraSans-Roman-30"/>
       <use x="63.623046875" xlink:href="#BitstreamVeraSans-Roman-2e"/>
       <use x="95.41015625" xlink:href="#BitstreamVeraSans-Roman-31"/>
      </g>
     </g>
    </g>
    <g id="ytick_3">
     <g id="line2d_30">
      <path clip-path="url(#pd6b5706d0e)" d="M 72 290.057143 
L 518.4 290.057143 
" style="fill:none;stroke:#000000;stroke-dasharray:1.000000,3.000000;stroke-dashoffset:0.0;stroke-width:0.5;"/>
     </g>
     <g id="line2d_31">
      <g>
       <use style="stroke:#000000;stroke-width:0.5;" x="72.0" xlink:href="#ma21d217d01" y="290.057142857"/>
      </g>
     </g>
     <g id="line2d_32">
      <g>
       <use style="stroke:#000000;stroke-width:0.5;" x="518.4" xlink:href="#mea795a2469" y="290.057142857"/>
      </g>
     </g>
     <g id="text_11">
      <!-- 0.2 -->
      <g transform="translate(48.91625 293.368392857)scale(0.12 -0.12)">
       <use xlink:href="#BitstreamVeraSans-Roman-30"/>
       <use x="63.623046875" xlink:href="#BitstreamVeraSans-Roman-2e"/>
       <use x="95.41015625" xlink:href="#BitstreamVeraSans-Roman-32"/>
      </g>
     </g>
    </g>
    <g id="ytick_4">
     <g id="line2d_33">
      <path clip-path="url(#pd6b5706d0e)" d="M 72 240.685714 
L 518.4 240.685714 
" style="fill:none;stroke:#000000;stroke-dasharray:1.000000,3.000000;stroke-dashoffset:0.0;stroke-width:0.5;"/>
     </g>
     <g id="line2d_34">
      <g>
       <use style="stroke:#000000;stroke-width:0.5;" x="72.0" xlink:href="#ma21d217d01" y="240.685714286"/>
      </g>
     </g>
     <g id="line2d_35">
      <g>
       <use style="stroke:#000000;stroke-width:0.5;" x="518.4" xlink:href="#mea795a2469" y="240.685714286"/>
      </g>
     </g>
     <g id="text_12">
      <!-- 0.3 -->
      <g transform="translate(48.91625 243.996964286)scale(0.12 -0.12)">
       <use xlink:href="#BitstreamVeraSans-Roman-30"/>
       <use x="63.623046875" xlink:href="#BitstreamVeraSans-Roman-2e"/>
       <use x="95.41015625" xlink:href="#BitstreamVeraSans-Roman-33"/>
      </g>
     </g>
    </g>
    <g id="ytick_5">
     <g id="line2d_36">
      <path clip-path="url(#pd6b5706d0e)" d="M 72 191.314286 
L 518.4 191.314286 
" style="fill:none;stroke:#000000;stroke-dasharray:1.000000,3.000000;stroke-dashoffset:0.0;stroke-width:0.5;"/>
     </g>
     <g id="line2d_37">
      <g>
       <use style="stroke:#000000;stroke-width:0.5;" x="72.0" xlink:href="#ma21d217d01" y="191.314285714"/>
      </g>
     </g>
     <g id="line2d_38">
      <g>
       <use style="stroke:#000000;stroke-width:0.5;" x="518.4" xlink:href="#mea795a2469" y="191.314285714"/>
      </g>
     </g>
     <g id="text_13">
      <!-- 0.4 -->
      <defs>
       <path d="M 37.796875 64.3125 
L 12.890625 25.390625 
L 37.796875 25.390625 
z
M 35.203125 72.90625 
L 47.609375 72.90625 
L 47.609375 25.390625 
L 58.015625 25.390625 
L 58.015625 17.1875 
L 47.609375 17.1875 
L 47.609375 0 
L 37.796875 0 
L 37.796875 17.1875 
L 4.890625 17.1875 
L 4.890625 26.703125 
z
" id="BitstreamVeraSans-Roman-34"/>
      </defs>
      <g transform="translate(48.91625 194.625535714)scale(0.12 -0.12)">
       <use xlink:href="#BitstreamVeraSans-Roman-30"/>
       <use x="63.623046875" xlink:href="#BitstreamVeraSans-Roman-2e"/>
       <use x="95.41015625" xlink:href="#BitstreamVeraSans-Roman-34"/>
      </g>
     </g>
    </g>
    <g id="ytick_6">
     <g id="line2d_39">
      <path clip-path="url(#pd6b5706d0e)" d="M 72 141.942857 
L 518.4 141.942857 
" style="fill:none;stroke:#000000;stroke-dasharray:1.000000,3.000000;stroke-dashoffset:0.0;stroke-width:0.5;"/>
     </g>
     <g id="line2d_40">
      <g>
       <use style="stroke:#000000;stroke-width:0.5;" x="72.0" xlink:href="#ma21d217d01" y="141.942857143"/>
      </g>
     </g>
     <g id="line2d_41">
      <g>
       <use style="stroke:#000000;stroke-width:0.5;" x="518.4" xlink:href="#mea795a2469" y="141.942857143"/>
      </g>
     </g>
     <g id="text_14">
      <!-- 0.5 -->
      <g transform="translate(48.91625 145.254107143)scale(0.12 -0.12)">
       <use xlink:href="#BitstreamVeraSans-Roman-30"/>
       <use x="63.623046875" xlink:href="#BitstreamVeraSans-Roman-2e"/>
       <use x="95.41015625" xlink:href="#BitstreamVeraSans-Roman-35"/>
      </g>
     </g>
    </g>
    <g id="ytick_7">
     <g id="line2d_42">
      <path clip-path="url(#pd6b5706d0e)" d="M 72 92.571429 
L 518.4 92.571429 
" style="fill:none;stroke:#000000;stroke-dasharray:1.000000,3.000000;stroke-dashoffset:0.0;stroke-width:0.5;"/>
     </g>
     <g id="line2d_43">
      <g>
       <use style="stroke:#000000;stroke-width:0.5;" x="72.0" xlink:href="#ma21d217d01" y="92.5714285714"/>
      </g>
     </g>
     <g id="line2d_44">
      <g>
       <use style="stroke:#000000;stroke-width:0.5;" x="518.4" xlink:href="#mea795a2469" y="92.5714285714"/>
      </g>
     </g>
     <g id="text_15">
      <!-- 0.6 -->
      <defs>
       <path d="M 33.015625 40.375 
Q 26.375 40.375 22.484375 35.828125 
Q 18.609375 31.296875 18.609375 23.390625 
Q 18.609375 15.53125 22.484375 10.953125 
Q 26.375 6.390625 33.015625 6.390625 
Q 39.65625 6.390625 43.53125 10.953125 
Q 47.40625 15.53125 47.40625 23.390625 
Q 47.40625 31.296875 43.53125 35.828125 
Q 39.65625 40.375 33.015625 40.375 
M 52.59375 71.296875 
L 52.59375 62.3125 
Q 48.875 64.0625 45.09375 64.984375 
Q 41.3125 65.921875 37.59375 65.921875 
Q 27.828125 65.921875 22.671875 59.328125 
Q 17.53125 52.734375 16.796875 39.40625 
Q 19.671875 43.65625 24.015625 45.921875 
Q 28.375 48.1875 33.59375 48.1875 
Q 44.578125 48.1875 50.953125 41.515625 
Q 57.328125 34.859375 57.328125 23.390625 
Q 57.328125 12.15625 50.6875 5.359375 
Q 44.046875 -1.421875 33.015625 -1.421875 
Q 20.359375 -1.421875 13.671875 8.265625 
Q 6.984375 17.96875 6.984375 36.375 
Q 6.984375 53.65625 15.1875 63.9375 
Q 23.390625 74.21875 37.203125 74.21875 
Q 40.921875 74.21875 44.703125 73.484375 
Q 48.484375 72.75 52.59375 71.296875 
" id="BitstreamVeraSans-Roman-36"/>
      </defs>
      <g transform="translate(48.91625 95.8826785714)scale(0.12 -0.12)">
       <use xlink:href="#BitstreamVeraSans-Roman-30"/>
       <use x="63.623046875" xlink:href="#BitstreamVeraSans-Roman-2e"/>
       <use x="95.41015625" xlink:href="#BitstreamVeraSans-Roman-36"/>
      </g>
     </g>
    </g>
    <g id="ytick_8">
     <g id="line2d_45">
      <path clip-path="url(#pd6b5706d0e)" d="M 72 43.2 
L 518.4 43.2 
" style="fill:none;stroke:#000000;stroke-dasharray:1.000000,3.000000;stroke-dashoffset:0.0;stroke-width:0.5;"/>
     </g>
     <g id="line2d_46">
      <g>
       <use style="stroke:#000000;stroke-width:0.5;" x="72.0" xlink:href="#ma21d217d01" y="43.2"/>
      </g>
     </g>
     <g id="line2d_47">
      <g>
       <use style="stroke:#000000;stroke-width:0.5;" x="518.4" xlink:href="#mea795a2469" y="43.2"/>
      </g>
     </g>
     <g id="text_16">
      <!-- 0.7 -->
      <defs>
       <path d="M 8.203125 72.90625 
L 55.078125 72.90625 
L 55.078125 68.703125 
L 28.609375 0 
L 18.3125 0 
L 43.21875 64.59375 
L 8.203125 64.59375 
z
" id="BitstreamVeraSans-Roman-37"/>
      </defs>
      <g transform="translate(48.91625 46.51125)scale(0.12 -0.12)">
       <use xlink:href="#BitstreamVeraSans-Roman-30"/>
       <use x="63.623046875" xlink:href="#BitstreamVeraSans-Roman-2e"/>
       <use x="95.41015625" xlink:href="#BitstreamVeraSans-Roman-37"/>
      </g>
     </g>
    </g>
    <g id="text_17">
     <!-- Pedal [] -->
     <defs>
      <path d="M 19.671875 64.796875 
L 19.671875 37.40625 
L 32.078125 37.40625 
Q 38.96875 37.40625 42.71875 40.96875 
Q 46.484375 44.53125 46.484375 51.125 
Q 46.484375 57.671875 42.71875 61.234375 
Q 38.96875 64.796875 32.078125 64.796875 
z
M 9.8125 72.90625 
L 32.078125 72.90625 
Q 44.34375 72.90625 50.609375 67.359375 
Q 56.890625 61.8125 56.890625 51.125 
Q 56.890625 40.328125 50.609375 34.8125 
Q 44.34375 29.296875 32.078125 29.296875 
L 19.671875 29.296875 
L 19.671875 0 
L 9.8125 0 
z
" id="BitstreamVeraSans-Roman-50"/>
      <path d="M 45.40625 46.390625 
L 45.40625 75.984375 
L 54.390625 75.984375 
L 54.390625 0 
L 45.40625 0 
L 45.40625 8.203125 
Q 42.578125 3.328125 38.25 0.953125 
Q 33.9375 -1.421875 27.875 -1.421875 
Q 17.96875 -1.421875 11.734375 6.484375 
Q 5.515625 14.40625 5.515625 27.296875 
Q 5.515625 40.1875 11.734375 48.09375 
Q 17.96875 56 27.875 56 
Q 33.9375 56 38.25 53.625 
Q 42.578125 51.265625 45.40625 46.390625 
M 14.796875 27.296875 
Q 14.796875 17.390625 18.875 11.75 
Q 22.953125 6.109375 30.078125 6.109375 
Q 37.203125 6.109375 41.296875 11.75 
Q 45.40625 17.390625 45.40625 27.296875 
Q 45.40625 37.203125 41.296875 42.84375 
Q 37.203125 48.484375 30.078125 48.484375 
Q 22.953125 48.484375 18.875 42.84375 
Q 14.796875 37.203125 14.796875 27.296875 
" id="BitstreamVeraSans-Roman-64"/>
      <path d="M 34.28125 27.484375 
Q 23.390625 27.484375 19.1875 25 
Q 14.984375 22.515625 14.984375 16.5 
Q 14.984375 11.71875 18.140625 8.90625 
Q 21.296875 6.109375 26.703125 6.109375 
Q 34.1875 6.109375 38.703125 11.40625 
Q 43.21875 16.703125 43.21875 25.484375 
L 43.21875 27.484375 
z
M 52.203125 31.203125 
L 52.203125 0 
L 43.21875 0 
L 43.21875 8.296875 
Q 40.140625 3.328125 35.546875 0.953125 
Q 30.953125 -1.421875 24.3125 -1.421875 
Q 15.921875 -1.421875 10.953125 3.296875 
Q 6 8.015625 6 15.921875 
Q 6 25.140625 12.171875 29.828125 
Q 18.359375 34.515625 30.609375 34.515625 
L 43.21875 34.515625 
L 43.21875 35.40625 
Q 43.21875 41.609375 39.140625 45 
Q 35.0625 48.390625 27.6875 48.390625 
Q 23 48.390625 18.546875 47.265625 
Q 14.109375 46.140625 10.015625 43.890625 
L 10.015625 52.203125 
Q 14.9375 54.109375 19.578125 55.046875 
Q 24.21875 56 28.609375 56 
Q 40.484375 56 46.34375 49.84375 
Q 52.203125 43.703125 52.203125 31.203125 
" id="BitstreamVeraSans-Roman-61"/>
      <path d="M 9.421875 75.984375 
L 18.40625 75.984375 
L 18.40625 0 
L 9.421875 0 
z
" id="BitstreamVeraSans-Roman-6c"/>
     </defs>
     <g transform="translate(41.420625 239.0484375)rotate(-90.0)scale(0.12 -0.12)">
      <use xlink:href="#BitstreamVeraSans-Roman-50"/>
      <use x="60.255859375" xlink:href="#BitstreamVeraSans-Roman-65"/>
      <use x="121.779296875" xlink:href="#BitstreamVeraSans-Roman-64"/>
      <use x="185.255859375" xlink:href="#BitstreamVeraSans-Roman-61"/>
      <use x="246.53515625" xlink:href="#BitstreamVeraSans-Roman-6c"/>
      <use x="274.318359375" xlink:href="#BitstreamVeraSans-Roman-20"/>
      <use x="306.10546875" xlink:href="#BitstreamVeraSans-Roman-5b"/>
      <use x="345.119140625" xlink:href="#BitstreamVeraSans-Roman-5d"/>
     </g>
    </g>
   </g>
   <g id="legend_1">
    <g id="patch_7">
     <path d="M 372.99825 96.993 
L 511.2 96.993 
L 511.2 50.4 
L 372.99825 50.4 
z
" style="fill:#ffffff;stroke:#000000;stroke-linejoin:miter;"/>
    </g>
    <g id="line2d_48">
     <path d="M 383.07825 62.06175 
L 403.23825 62.06175 
" style="fill:none;stroke:#008000;stroke-linecap:square;"/>
    </g>
    <g id="line2d_49"/>
    <g id="text_18">
     <!-- Gas pedal -->
     <defs>
      <path d="M 59.515625 10.40625 
L 59.515625 29.984375 
L 43.40625 29.984375 
L 43.40625 38.09375 
L 69.28125 38.09375 
L 69.28125 6.78125 
Q 63.578125 2.734375 56.6875 0.65625 
Q 49.8125 -1.421875 42 -1.421875 
Q 24.90625 -1.421875 15.25 8.5625 
Q 5.609375 18.5625 5.609375 36.375 
Q 5.609375 54.25 15.25 64.234375 
Q 24.90625 74.21875 42 74.21875 
Q 49.125 74.21875 55.546875 72.453125 
Q 61.96875 70.703125 67.390625 67.28125 
L 67.390625 56.78125 
Q 61.921875 61.421875 55.765625 63.765625 
Q 49.609375 66.109375 42.828125 66.109375 
Q 29.4375 66.109375 22.71875 58.640625 
Q 16.015625 51.171875 16.015625 36.375 
Q 16.015625 21.625 22.71875 14.15625 
Q 29.4375 6.6875 42.828125 6.6875 
Q 48.046875 6.6875 52.140625 7.59375 
Q 56.25 8.5 59.515625 10.40625 
" id="BitstreamVeraSans-Roman-47"/>
      <path d="M 18.109375 8.203125 
L 18.109375 -20.796875 
L 9.078125 -20.796875 
L 9.078125 54.6875 
L 18.109375 54.6875 
L 18.109375 46.390625 
Q 20.953125 51.265625 25.265625 53.625 
Q 29.59375 56 35.59375 56 
Q 45.5625 56 51.78125 48.09375 
Q 58.015625 40.1875 58.015625 27.296875 
Q 58.015625 14.40625 51.78125 6.484375 
Q 45.5625 -1.421875 35.59375 -1.421875 
Q 29.59375 -1.421875 25.265625 0.953125 
Q 20.953125 3.328125 18.109375 8.203125 
M 48.6875 27.296875 
Q 48.6875 37.203125 44.609375 42.84375 
Q 40.53125 48.484375 33.40625 48.484375 
Q 26.265625 48.484375 22.1875 42.84375 
Q 18.109375 37.203125 18.109375 27.296875 
Q 18.109375 17.390625 22.1875 11.75 
Q 26.265625 6.109375 33.40625 6.109375 
Q 40.53125 6.109375 44.609375 11.75 
Q 48.6875 17.390625 48.6875 27.296875 
" id="BitstreamVeraSans-Roman-70"/>
     </defs>
     <g transform="translate(419.07825 67.10175)scale(0.144 -0.144)">
      <use xlink:href="#BitstreamVeraSans-Roman-47"/>
      <use x="77.490234375" xlink:href="#BitstreamVeraSans-Roman-61"/>
      <use x="138.76953125" xlink:href="#BitstreamVeraSans-Roman-73"/>
      <use x="190.869140625" xlink:href="#BitstreamVeraSans-Roman-20"/>
      <use x="222.65625" xlink:href="#BitstreamVeraSans-Roman-70"/>
      <use x="286.1328125" xlink:href="#BitstreamVeraSans-Roman-65"/>
      <use x="347.65625" xlink:href="#BitstreamVeraSans-Roman-64"/>
      <use x="411.1328125" xlink:href="#BitstreamVeraSans-Roman-61"/>
      <use x="472.412109375" xlink:href="#BitstreamVeraSans-Roman-6c"/>
     </g>
    </g>
    <g id="line2d_50">
     <path d="M 383.07825 83.19825 
L 403.23825 83.19825 
" style="fill:none;stroke:#ff0000;stroke-linecap:square;"/>
    </g>
    <g id="line2d_51"/>
    <g id="text_19">
     <!-- Brake pedal -->
     <defs>
      <path d="M 41.109375 46.296875 
Q 39.59375 47.171875 37.8125 47.578125 
Q 36.03125 48 33.890625 48 
Q 26.265625 48 22.1875 43.046875 
Q 18.109375 38.09375 18.109375 28.8125 
L 18.109375 0 
L 9.078125 0 
L 9.078125 54.6875 
L 18.109375 54.6875 
L 18.109375 46.1875 
Q 20.953125 51.171875 25.484375 53.578125 
Q 30.03125 56 36.53125 56 
Q 37.453125 56 38.578125 55.875 
Q 39.703125 55.765625 41.0625 55.515625 
z
" id="BitstreamVeraSans-Roman-72"/>
      <path d="M 19.671875 34.8125 
L 19.671875 8.109375 
L 35.5 8.109375 
Q 43.453125 8.109375 47.28125 11.40625 
Q 51.125 14.703125 51.125 21.484375 
Q 51.125 28.328125 47.28125 31.5625 
Q 43.453125 34.8125 35.5 34.8125 
z
M 19.671875 64.796875 
L 19.671875 42.828125 
L 34.28125 42.828125 
Q 41.5 42.828125 45.03125 45.53125 
Q 48.578125 48.25 48.578125 53.8125 
Q 48.578125 59.328125 45.03125 62.0625 
Q 41.5 64.796875 34.28125 64.796875 
z
M 9.8125 72.90625 
L 35.015625 72.90625 
Q 46.296875 72.90625 52.390625 68.21875 
Q 58.5 63.53125 58.5 54.890625 
Q 58.5 48.1875 55.375 44.234375 
Q 52.25 40.28125 46.1875 39.3125 
Q 53.46875 37.75 57.5 32.78125 
Q 61.53125 27.828125 61.53125 20.40625 
Q 61.53125 10.640625 54.890625 5.3125 
Q 48.25 0 35.984375 0 
L 9.8125 0 
z
" id="BitstreamVeraSans-Roman-42"/>
      <path d="M 9.078125 75.984375 
L 18.109375 75.984375 
L 18.109375 31.109375 
L 44.921875 54.6875 
L 56.390625 54.6875 
L 27.390625 29.109375 
L 57.625 0 
L 45.90625 0 
L 18.109375 26.703125 
L 18.109375 0 
L 9.078125 0 
z
" id="BitstreamVeraSans-Roman-6b"/>
     </defs>
     <g transform="translate(419.07825 88.23825)scale(0.144 -0.144)">
      <use xlink:href="#BitstreamVeraSans-Roman-42"/>
      <use x="68.603515625" xlink:href="#BitstreamVeraSans-Roman-72"/>
      <use x="109.716796875" xlink:href="#BitstreamVeraSans-Roman-61"/>
      <use x="170.99609375" xlink:href="#BitstreamVeraSans-Roman-6b"/>
      <use x="228.859375" xlink:href="#BitstreamVeraSans-Roman-65"/>
      <use x="290.3828125" xlink:href="#BitstreamVeraSans-Roman-20"/>
      <use x="322.169921875" xlink:href="#BitstreamVeraSans-Roman-70"/>
      <use x="385.646484375" xlink:href="#BitstreamVeraSans-Roman-65"/>
      <use x="447.169921875" xlink:href="#BitstreamVeraSans-Roman-64"/>
      <use x="510.646484375" xlink:href="#BitstreamVeraSans-Roman-61"/>
      <use x="571.92578125" xlink:href="#BitstreamVeraSans-Roman-6c"/>
     </g>
    </g>
   </g>
  </g>
 </g>
 <defs>
  <clipPath id="pd6b5706d0e">
   <rect height="345.6" width="446.4" x="72.0" y="43.2"/>
  </clipPath>
 </defs>
</svg>
