<?xml version="1.0" encoding="utf-8" standalone="no"?>
<!DOCTYPE svg PUBLIC "-//W3C//DTD SVG 1.1//EN"
  "http://www.w3.org/Graphics/SVG/1.1/DTD/svg11.dtd">
<!-- Created with matplotlib (http://matplotlib.org/) -->
<svg height="432pt" version="1.1" viewBox="0 0 576 432" width="576pt" xmlns="http://www.w3.org/2000/svg" xmlns:xlink="http://www.w3.org/1999/xlink">
 <defs>
  <style type="text/css">
*{stroke-linecap:butt;stroke-linejoin:round;stroke-miterlimit:100000;}
  </style>
 </defs>
 <g id="figure_1">
  <g id="patch_1">
   <path d="M 0 432 
L 576 432 
L 576 0 
L 0 0 
z
" style="fill:#ffffff;"/>
  </g>
  <g id="axes_1">
   <g id="patch_2">
    <path d="M 72 388.8 
L 518.4 388.8 
L 518.4 43.2 
L 72 43.2 
z
" style="fill:#ffffff;"/>
   </g>
   <g id="line2d_1">
    <path clip-path="url(#pbabda54281)" d="M 72.1488 254.951708 
L 91.7904 254.951708 
L 91.9392 252.650315 
L 92.832 268.512864 
L 92.9808 268.512864 
L 94.9152 295.35065 
L 96.7008 315.751631 
L 98.784 334.77524 
L 98.9328 335.177273 
L 99.3792 338.422744 
L 99.6768 340.9975 
L 100.1232 343.253419 
L 100.272 343.718388 
L 100.7184 346.574869 
L 101.1648 350.744247 
L 101.4624 351.904164 
L 101.6112 352.320452 
L 101.76 353.196733 
L 101.9088 355.757984 
L 102.0576 355.492062 
L 102.2064 357.288138 
L 102.504 357.241286 
L 102.8016 357.790268 
L 102.9504 357.790268 
L 103.0992 357.237784 
L 103.248 358.060919 
L 103.5456 360.202157 
L 103.6944 360.202157 
L 104.1408 362.2057 
L 104.2896 362.262439 
L 105.0336 365.821655 
L 105.1824 366.150833 
L 105.48 367.726569 
L 245.6496 367.726569 
L 245.7984 298.26317 
L 246.096 294.131522 
L 246.2448 294.131522 
L 246.84 285.837122 
L 246.9888 285.837122 
L 247.584 277.511616 
L 247.7328 277.511616 
L 247.8816 273.338496 
L 248.0304 273.338496 
L 248.4768 267.060672 
L 248.6256 267.060672 
L 249.2208 258.662592 
L 249.3696 258.662592 
L 249.9648 250.228224 
L 250.1136 250.228224 
L 251.0064 237.517056 
L 251.1552 237.517056 
L 251.8992 226.884672 
L 252.048 226.884672 
L 252.792 216.216001 
L 252.9408 216.216001 
L 253.3872 213.656171 
L 253.536 213.656171 
L 254.28 210.461061 
L 254.4288 210.184346 
L 254.5776 208.72587 
L 254.7264 208.72587 
L 254.8752 208.446052 
L 255.6192 205.240836 
L 255.768 204.959947 
L 256.512 201.753417 
L 256.6608 201.471507 
L 256.8096 200.007666 
L 256.9584 199.727779 
L 257.1072 198.992933 
L 257.256 198.992933 
L 257.4048 198.709301 
L 258.1488 195.496751 
L 258.2976 195.212221 
L 259.0416 191.994233 
L 259.1904 191.708878 
L 259.9344 188.204601 
L 260.0832 188.204601 
L 260.5296 186.446066 
L 260.6784 186.157646 
L 261.2736 183.666981 
L 261.4224 183.377103 
L 262.1664 180.146953 
L 262.3152 180.146953 
L 262.464 178.832771 
L 262.6128 178.832771 
L 263.0592 176.341097 
L 263.208 176.050613 
L 263.6544 174.291715 
L 263.8032 173.99913 
L 263.952 173.264417 
L 264.1008 173.264417 
L 264.2496 172.973199 
L 264.8448 170.479243 
L 264.9936 170.186789 
L 265.7376 166.667932 
L 265.8864 166.667932 
L 266.0352 166.375692 
L 266.4816 164.617949 
L 266.6304 164.323765 
L 267.2256 161.831143 
L 267.3744 161.535872 
L 267.8208 159.776933 
L 267.9696 159.484537 
L 268.416 157.721396 
L 268.5648 157.427139 
L 268.8624 155.669395 
L 269.0112 155.373316 
L 269.4576 153.616289 
L 269.6064 153.323111 
L 270.0528 151.56217 
L 270.2016 151.267253 
L 270.3504 151.267253 
L 270.7968 149.511907 
L 270.9456 149.215251 
L 271.392 147.456181 
L 271.5408 147.157844 
L 271.9872 145.399828 
L 272.136 145.104508 
L 272.2848 144.078206 
L 272.4336 142.048336 
L 272.5824 142.048336 
L 272.7312 143.050652 
L 273.0288 142.458651 
L 273.3264 141.437524 
L 273.4752 141.139344 
L 273.7728 140.113891 
L 274.0704 139.522533 
L 274.2192 138.924525 
L 274.368 138.924525 
L 274.6656 137.899443 
L 276.1536 134.940847 
L 276.3024 135.073128 
L 277.0464 133.595263 
L 277.1952 133.725006 
L 277.4928 130.851395 
L 277.6416 128.860812 
L 277.9392 128.995952 
L 278.088 130.822424 
L 278.2368 130.528067 
L 278.5344 130.657407 
L 278.6832 130.364138 
L 278.832 132.181669 
L 278.9808 131.888466 
L 279.1296 132.016948 
L 279.4272 131.562658 
L 279.576 127.621233 
L 279.7248 127.754742 
L 280.1712 127.433145 
L 280.32 125.46766 
L 280.7664 125.731678 
L 280.9152 125.577834 
L 281.2128 125.975196 
L 281.3616 125.691279 
L 281.5104 125.691279 
L 281.6592 123.876804 
L 282.1056 124.416837 
L 282.2544 122.47791 
L 282.4032 122.47791 
L 282.7008 122.876186 
L 283.1472 123.407419 
L 283.296 121.47889 
L 283.4448 123.673118 
L 283.5936 121.748816 
L 283.7424 121.883799 
L 283.8912 120.510102 
L 284.04 120.510102 
L 284.3376 120.92026 
L 284.4864 121.602849 
L 284.784 121.7392 
L 284.9328 119.971123 
L 285.0816 119.971123 
L 285.3792 120.932018 
L 285.6768 121.614137 
L 285.8256 119.723214 
L 285.9744 120.408159 
L 286.1232 118.521876 
L 286.272 118.663451 
L 286.5696 119.89573 
L 286.7184 118.01874 
L 286.8672 118.16165 
L 287.3136 119.938263 
L 287.4624 118.073106 
L 288.2064 120.532061 
L 288.3552 118.681273 
L 288.504 121.214254 
L 288.6528 119.368106 
L 289.248 121.670373 
L 289.3968 119.836478 
L 289.5456 120.376099 
L 289.6944 118.690906 
L 289.992 119.771417 
L 290.1408 118.488579 
L 290.2896 119.028884 
L 290.4384 117.759831 
L 290.5872 118.304767 
L 290.736 116.648981 
L 290.8848 117.195062 
L 291.1824 119.217162 
L 291.48 120.299032 
L 291.6288 118.506797 
L 292.0752 120.129681 
L 292.224 121.206558 
L 292.3728 119.426971 
L 292.6704 120.504919 
L 292.968 122.11429 
L 293.1168 120.351338 
L 293.2656 123.572502 
L 293.5632 121.138259 
L 293.712 121.138259 
L 293.8608 120.467494 
L 294.1584 117.51708 
L 294.3072 118.982955 
L 294.456 117.243553 
L 294.6048 116.974377 
L 294.9024 114.054706 
L 295.2 116.456822 
L 295.3488 114.737731 
L 295.944 118.05563 
L 296.0928 116.893858 
L 296.2416 117.813282 
L 296.5392 115.882166 
L 297.5808 122.461306 
L 297.7296 120.79092 
L 298.0272 122.241379 
L 299.0688 128.352651 
L 299.2176 126.717391 
L 300.1104 132.235508 
L 300.2592 130.619833 
L 300.8544 133.798348 
L 301.152 135.202409 
L 301.5984 137.989874 
L 301.7472 136.405338 
L 302.3424 139.531588 
L 302.64 140.912595 
L 303.8304 147.22274 
L 303.9792 145.686448 
L 304.4256 147.885529 
L 304.5744 148.389192 
L 304.872 150.566026 
L 305.0208 149.052269 
L 305.4672 150.895731 
L 306.2112 154.501254 
L 306.36 153.008756 
L 307.104 156.417383 
L 307.2528 154.938101 
L 307.4016 155.306121 
L 307.848 157.031738 
L 307.9968 157.404043 
L 309.0384 161.979879 
L 309.1872 160.524641 
L 309.4848 161.60347 
L 309.6336 161.991118 
L 310.5264 165.982797 
L 310.6752 164.546568 
L 311.568 168.602451 
L 311.7168 167.180534 
L 312.1632 169.025891 
L 312.4608 170.15926 
L 312.7584 172.025769 
L 312.9072 170.619747 
L 313.2048 171.770164 
L 313.5024 170.123417 
L 313.6512 170.854917 
L 313.8 169.886261 
L 314.3952 172.530297 
L 314.544 172.530297 
L 314.8416 175.839832 
L 314.9904 176.584252 
L 315.1392 176.584252 
L 315.288 177.025894 
L 315.5856 180.347237 
L 315.7344 180.347237 
L 315.8832 180.795784 
L 316.1808 184.121255 
L 316.3296 184.573468 
L 316.4784 184.573468 
L 316.776 187.903047 
L 316.9248 188.358869 
L 317.0736 188.358869 
L 317.2224 190.935022 
L 317.8176 192.62445 
L 317.9664 192.62445 
L 318.264 196.134429 
L 318.4128 196.134429 
L 318.5616 198.411162 
L 318.8592 199.351045 
L 319.008 199.351045 
L 319.1568 201.929946 
L 319.4544 202.882847 
L 319.6032 202.882847 
L 319.752 203.360687 
L 319.9008 205.643179 
L 320.0496 206.123461 
L 320.1984 206.123461 
L 320.3472 206.60465 
L 320.496 208.888288 
L 320.6448 209.371862 
L 320.7936 209.371862 
L 320.9424 209.856388 
L 321.0912 211.841326 
L 321.24 212.328176 
L 321.3888 212.328176 
L 321.5376 212.815874 
L 321.6864 215.101851 
L 321.8352 215.591972 
L 321.984 215.591972 
L 322.1328 215.783707 
L 322.2816 218.070766 
L 322.5792 219.058365 
L 322.728 219.058365 
L 322.8768 221.050666 
L 323.1744 221.751899 
L 323.3232 221.751899 
L 323.6208 224.248151 
L 323.7696 224.751595 
L 323.9184 224.751595 
L 324.0672 226.746761 
L 324.216 226.954438 
L 324.3648 227.460887 
L 324.8112 227.460887 
L 325.2576 231.964669 
L 325.4064 231.964669 
L 325.5552 233.962635 
L 325.8528 234.393727 
L 326.1504 235.125426 
L 326.2992 237.125781 
L 326.448 236.081876 
L 326.5968 236.820776 
L 326.7456 235.560149 
L 327.0432 236.005602 
L 327.192 236.525999 
L 327.3408 236.525999 
L 327.4896 236.751807 
L 327.6384 238.756857 
L 327.936 239.214122 
L 328.0848 239.214122 
L 328.2336 241.220481 
L 328.3824 241.45188 
L 328.68 242.21044 
L 328.8288 242.21044 
L 328.9776 242.441722 
L 329.2752 244.681068 
L 329.424 244.681068 
L 329.5728 244.915509 
L 329.7216 246.62746 
L 329.8704 246.864208 
L 330.0192 246.864208 
L 330.168 247.101729 
L 330.3168 249.11029 
L 330.4656 249.350235 
L 330.6144 249.350235 
L 330.7632 249.590951 
L 330.912 251.306178 
L 331.2096 251.792974 
L 331.3584 251.792974 
L 331.5072 253.509818 
L 331.8048 254.002734 
L 331.9536 254.002734 
L 332.1024 255.721237 
L 332.4 256.22026 
L 332.5488 256.22026 
L 332.6976 257.940311 
L 332.9952 258.445425 
L 333.144 258.445425 
L 333.2928 259.870882 
L 333.7392 260.630555 
L 333.888 260.630555 
L 334.0368 262.058434 
L 334.632 263.087961 
L 334.9296 263.054447 
L 335.0784 264.77864 
L 335.2272 265.040184 
L 335.5248 265.009854 
L 335.6736 265.2728 
L 335.8224 266.99645 
L 336.12 266.9667 
L 336.2688 267.23006 
L 336.4176 268.663066 
L 336.5664 268.928528 
L 336.7152 268.928528 
L 336.864 269.194701 
L 337.0128 270.629535 
L 337.1616 270.606114 
L 337.4592 271.143131 
L 337.608 271.121357 
L 337.7568 271.391821 
L 337.9056 271.391821 
L 338.0544 272.825887 
L 338.2032 273.095889 
L 338.352 273.075471 
L 338.5008 273.346975 
L 338.6496 273.328159 
L 338.7984 273.601162 
L 338.9472 273.583952 
L 339.096 273.858453 
L 339.2448 273.858453 
L 339.3936 275.29703 
L 339.5424 275.282849 
L 339.6912 275.560131 
L 339.84 275.547549 
L 339.9888 275.823811 
L 340.1376 275.823811 
L 340.2864 277.262722 
L 340.4352 277.250661 
L 340.584 277.529707 
L 340.8816 277.519246 
L 341.0304 278.960454 
L 341.1792 279.242276 
L 341.4768 279.228141 
L 341.6256 279.509662 
L 341.7744 279.502079 
L 341.9232 279.785098 
L 342.072 280.938018 
L 342.2208 280.938018 
L 342.3696 281.223008 
L 342.6672 281.216095 
L 342.816 281.503264 
L 342.9648 281.503264 
L 343.2624 282.946011 
L 343.56 282.943273 
L 343.7088 283.232046 
L 343.8576 283.232046 
L 344.0064 284.388894 
L 344.1552 283.52666 
L 344.304 283.52666 
L 344.4528 284.978159 
L 344.8992 284.98411 
L 345.048 285.276889 
L 345.3456 285.281829 
L 345.6432 286.737021 
L 346.0896 286.753505 
L 346.2384 288.204013 
L 346.6848 288.23118 
L 346.8336 288.529743 
L 346.9824 288.529743 
L 347.1312 289.69275 
L 347.4288 289.718924 
L 347.5776 290.018463 
L 347.7264 290.018463 
L 347.8752 291.181619 
L 348.4704 291.225689 
L 348.6192 292.678673 
L 349.2144 292.72882 
L 349.3632 293.894707 
L 349.8096 293.932816 
L 350.1072 295.406458 
L 350.5536 295.447282 
L 350.7024 296.615163 
L 353.6784 297.147553 
L 354.2736 297.307656 
L 354.72 297.410294 
L 355.1664 297.479343 
L 355.3152 297.229782 
L 358.7376 298.173319 
L 361.5648 299.16349 
L 363.4992 299.823951 
L 363.648 299.599265 
L 366.3264 300.694632 
L 366.4752 300.477811 
L 368.7072 301.529776 
L 368.856 301.323547 
L 370.4928 302.189161 
L 370.6416 301.990728 
L 371.9808 302.758347 
L 372.1296 302.566838 
L 373.32 303.294705 
L 373.4688 303.108482 
L 374.5104 303.78024 
L 374.6592 303.59911 
L 375.7008 304.305309 
L 375.8496 304.129737 
L 376.5936 304.653871 
L 376.7424 304.48206 
L 377.4864 305.023704 
L 377.6352 304.855078 
L 378.3792 305.414186 
L 378.528 305.249399 
L 379.272 305.826564 
L 379.4208 305.665514 
L 380.016 306.139456 
L 380.1648 305.981402 
L 380.6112 306.344597 
L 380.76 306.189072 
L 381.3552 306.683473 
L 381.504 306.531026 
L 382.0992 307.037585 
L 382.248 306.888206 
L 382.6944 307.275244 
L 382.8432 307.128292 
L 383.2896 307.522724 
L 383.4384 307.378191 
L 383.8848 307.778844 
L 384.0336 307.637104 
L 384.6288 308.042211 
L 384.7776 307.073621 
L 384.9264 307.211773 
L 385.0752 307.073955 
L 385.3728 307.352977 
L 385.5216 308.599194 
L 385.8192 308.46421 
L 386.1168 308.74994 
L 386.2656 308.617202 
L 386.8608 309.067088 
L 387.0096 308.109374 
L 387.1584 308.256503 
L 387.3072 308.128127 
L 387.456 309.380515 
L 387.6048 308.42571 
L 387.9024 308.299098 
L 388.0512 309.552631 
L 388.3488 309.731034 
L 388.4976 309.731034 
L 388.6464 309.88351 
L 388.7952 309.76094 
L 388.944 310.068575 
L 389.0928 310.068575 
L 389.2416 309.947756 
L 389.5392 310.258748 
L 389.688 310.139589 
L 389.9856 310.453837 
L 390.1344 310.336429 
L 390.2832 310.494212 
L 390.432 310.377553 
L 390.7296 310.696514 
L 390.8784 310.581508 
L 391.176 310.903088 
L 391.3248 310.789825 
L 391.6224 311.114648 
L 391.7712 311.003601 
L 391.92 311.167386 
L 392.0688 311.05699 
L 392.3664 311.387128 
L 392.5152 311.278471 
L 392.664 311.444823 
L 392.8128 311.337372 
L 392.9616 311.504763 
L 393.1104 312.495671 
L 393.2592 311.736489 
L 393.408 311.631894 
L 393.7056 311.972542 
L 393.8544 311.869681 
L 394.0032 312.041327 
L 394.152 311.939574 
L 394.3008 312.112255 
L 394.4496 312.011618 
L 394.7472 312.359616 
L 394.896 312.26071 
L 395.0448 312.436023 
L 395.3424 312.338226 
L 395.4912 312.514573 
L 395.64 312.417883 
L 395.9376 312.77321 
L 396.0864 312.678243 
L 396.2352 312.857218 
L 396.384 312.763359 
L 396.6816 313.031641 
L 397.2768 313.031407 
L 397.4256 313.21449 
L 397.5744 313.125043 
L 397.7232 313.309152 
L 397.872 313.220809 
L 398.0208 313.591639 
L 398.1696 313.505011 
L 398.3184 313.691727 
L 398.4672 313.606203 
L 398.616 313.793941 
L 398.7648 313.709513 
L 398.9136 313.898273 
L 399.2112 313.732003 
L 399.36 313.922238 
L 399.5088 313.840488 
L 399.6576 314.031745 
L 399.8064 313.95109 
L 399.9552 314.14336 
L 400.104 314.063806 
L 400.2528 313.167338 
L 400.4016 314.178004 
L 400.5504 314.372306 
L 400.6992 314.294844 
L 400.848 314.490254 
L 400.9968 314.490254 
L 401.4432 314.732374 
L 401.592 314.658279 
L 401.7408 314.856634 
L 402.0384 314.711108 
L 402.1872 314.910926 
L 402.4848 314.8394 
L 402.9312 315.102463 
L 403.08 315.033685 
L 403.2288 315.236976 
L 403.3776 315.169287 
L 403.5264 315.373587 
L 403.6752 315.306981 
L 403.824 315.512287 
L 404.2704 315.381633 
L 404.7168 315.732193 
L 404.8656 315.66932 
L 405.0144 314.730739 
L 405.1632 314.940177 
L 405.312 314.878869 
L 405.4608 315.089312 
L 405.7584 314.969424 
L 405.9072 315.181222 
L 406.056 315.122642 
L 406.2048 315.335437 
L 406.5024 315.220822 
L 406.6512 315.43506 
L 406.8 315.379112 
L 406.9488 315.594347 
L 407.2464 315.485083 
L 407.3952 315.70176 
L 407.544 315.648346 
L 407.6928 315.86611 
L 407.9904 315.762001 
L 408.1392 315.981108 
L 408.4368 315.880188 
L 408.5856 316.100728 
L 408.8832 316.002807 
L 409.032 316.224786 
L 409.3296 316.130045 
L 409.4784 316.353454 
L 409.6272 316.307295 
L 409.776 316.531783 
L 410.0736 316.442171 
L 410.2224 316.667998 
L 410.52 316.581464 
L 410.6688 316.808807 
L 410.9664 316.725351 
L 411.1152 316.913489 
L 411.264 316.064552 
L 411.4128 315.985302 
L 411.5616 316.21597 
L 411.7104 315.368903 
L 411.8592 315.293011 
L 412.008 314.447061 
L 412.1568 314.679413 
L 412.4544 314.606689 
L 412.6032 314.840459 
L 412.9008 314.770887 
L 413.0496 315.006074 
L 413.3472 314.939468 
L 413.496 315.176068 
L 413.7936 315.112606 
L 413.9424 315.350623 
L 414.24 315.290115 
L 414.3888 315.529541 
L 414.984 315.416582 
L 415.1328 315.658287 
L 418.2576 315.182738 
L 418.4064 314.898344 
L 419.2992 314.809573 
L 419.448 314.528482 
L 419.7456 314.503231 
L 419.8944 313.687776 
L 420.0432 314.479361 
L 420.3408 313.3864 
L 420.936 313.346836 
L 421.0848 313.070442 
L 421.68 313.039679 
L 421.8288 312.765596 
L 422.2752 312.74833 
L 422.424 312.476064 
L 423.0192 312.460833 
L 423.168 312.190874 
L 423.4656 312.186631 
L 423.6144 311.917999 
L 424.0608 311.916116 
L 424.2096 311.649292 
L 424.5072 311.651051 
L 424.656 311.385554 
L 424.9536 311.389715 
L 425.1024 311.125537 
L 425.4 311.13219 
L 425.5488 310.869425 
L 425.8464 310.878567 
L 425.9952 310.617029 
L 426.144 310.622665 
L 426.2928 310.368288 
L 426.5904 309.322581 
L 426.7392 309.330339 
L 426.888 308.538458 
L 427.0368 308.555428 
L 427.4832 306.72702 
L 427.632 306.747747 
L 428.2272 304.151935 
L 428.376 304.444001 
L 428.5248 303.657983 
L 429.5664 303.780215 
L 429.7152 302.998589 
L 431.0544 303.192717 
L 431.2032 302.438583 
L 431.6496 302.507228 
L 431.9472 301.491201 
L 432.096 301.781269 
L 432.2448 301.806067 
L 432.3936 301.565446 
L 432.84 301.670338 
L 432.9888 300.900564 
L 433.7328 301.071724 
L 434.0304 301.132443 
L 434.1792 300.367032 
L 434.328 301.194397 
L 434.4768 300.430074 
L 435.072 300.560695 
L 435.2208 300.329166 
L 435.9648 300.504014 
L 436.1136 300.275213 
L 436.8576 300.462794 
L 437.0064 300.236803 
L 437.304 300.315575 
L 437.4528 300.131351 
L 438.048 300.255173 
L 438.1968 300.075044 
L 438.3456 300.117998 
L 438.4944 299.896732 
L 438.792 299.984523 
L 438.9408 299.764637 
L 439.2384 299.854837 
L 439.536 298.888542 
L 439.6848 298.981329 
L 439.9824 298.017819 
L 440.4288 298.161582 
L 440.5776 297.946051 
L 441.1728 298.094737 
L 441.3216 298.673554 
L 441.4704 298.724698 
L 441.6192 298.512142 
L 441.9168 298.564048 
L 442.0656 299.145086 
L 442.2144 299.198101 
L 442.3632 298.987872 
L 442.512 298.987872 
L 442.6608 299.569433 
L 442.8096 299.623786 
L 442.9584 299.414901 
L 443.256 299.470465 
L 443.4048 300.05358 
L 443.7024 299.639055 
L 443.8512 299.639055 
L 444 300.224027 
L 444.1488 300.281648 
L 444.4464 299.871193 
L 444.5952 299.871193 
L 444.744 300.457636 
L 444.8928 300.253501 
L 445.0416 300.313548 
L 445.3392 299.907304 
L 445.488 299.907304 
L 445.6368 300.494666 
L 446.0832 299.89028 
L 446.232 299.89028 
L 446.3808 300.479039 
L 446.6784 300.079692 
L 446.8272 300.079692 
L 446.976 300.407069 
L 447.1248 300.208153 
L 447.4224 300.273157 
L 447.5712 300.601132 
L 447.8688 300.20674 
L 448.0176 300.20674 
L 448.1664 300.536421 
L 448.464 300.144559 
L 448.6128 300.144559 
L 448.7616 300.737635 
L 449.208 300.154393 
L 449.3568 300.154393 
L 449.5056 300.486162 
L 449.6544 300.292912 
L 449.8032 299.837369 
L 449.952 299.837369 
L 450.2496 300.241681 
L 450.3984 300.050321 
L 450.696 300.122097 
L 450.9936 299.741306 
L 451.1424 299.741306 
L 451.2912 300.076779 
L 451.5888 299.698595 
L 451.7376 299.698595 
L 451.8864 300.03516 
L 452.184 299.659407 
L 452.3328 299.659407 
L 452.4816 299.997063 
L 452.6304 299.810281 
L 452.7792 299.361388 
L 452.928 299.361388 
L 453.0768 299.700045 
L 453.3744 299.329051 
L 453.5232 299.329051 
L 453.672 299.144044 
L 453.8208 299.48418 
L 454.1184 298.853539 
L 455.4576 297.211626 
L 455.7552 296.587996 
L 456.2016 296.048116 
L 456.3504 296.13074 
L 458.136 294.007159 
L 458.2848 294.093957 
L 459.1776 293.052053 
L 459.3264 293.141599 
L 459.624 292.626124 
L 459.7728 292.454952 
L 459.9216 292.545717 
L 460.5168 291.866111 
L 460.6656 291.958631 
L 461.2608 291.286062 
L 461.7072 291.213284 
L 462.0048 290.880509 
L 462.1536 290.975864 
L 462.6 290.480602 
L 462.7488 290.577307 
L 463.1952 290.086334 
L 463.344 290.184387 
L 463.7904 289.697698 
L 463.9392 289.797098 
L 464.5344 289.255792 
L 464.6832 288.574456 
L 464.832 288.415013 
L 464.9808 288.516877 
L 465.2784 288.358393 
L 465.4272 288.982801 
L 465.8736 288.61558 
L 466.0224 288.61558 
L 466.4688 288.253959 
L 466.6176 288.253959 
L 466.7664 287.944906 
L 467.2128 287.89794 
L 467.3616 287.744582 
L 467.5104 287.852329 
L 467.9568 287.395719 
L 468.1056 287.504801 
L 468.552 287.163008 
L 468.7008 287.163008 
L 468.9984 286.864004 
L 469.1472 286.975269 
L 469.4448 286.790926 
L 469.5936 286.790926 
L 469.7424 286.496297 
L 470.04 286.46314 
L 470.3376 286.171515 
L 470.4864 286.286159 
L 470.784 285.996536 
L 470.9328 286.112206 
L 471.3792 285.824762 
L 471.528 285.94163 
L 471.9744 285.514124 
L 472.1232 285.632319 
L 472.7184 285.188629 
L 473.016 285.169418 
L 473.3136 284.891951 
L 473.4624 285.013505 
L 473.9088 284.60095 
L 474.0576 284.723825 
L 474.504 284.451334 
L 474.8016 284.439815 
L 475.0992 284.170124 
L 475.248 284.295152 
L 475.5456 284.028219 
L 475.6944 284.154703 
L 476.1408 283.758112 
L 476.2896 283.885909 
L 476.5872 283.624111 
L 476.736 283.752919 
L 477.1824 283.363756 
L 477.3312 283.493876 
L 477.7776 283.108126 
L 477.9264 283.23929 
L 478.224 282.984458 
L 478.3728 283.116893 
L 478.8192 282.73873 
L 478.968 282.872028 
L 479.4144 282.497744 
L 479.5632 282.632346 
L 480.0096 282.262819 
L 480.1584 282.398725 
L 480.456 282.154381 
L 480.6048 282.29147 
L 481.0512 281.928555 
L 481.2 282.066941 
L 481.6464 281.708183 
L 481.7952 281.847869 
L 482.2416 281.493261 
L 482.3904 281.634243 
L 482.8368 281.283784 
L 482.9856 281.426503 
L 483.5808 280.965489 
L 483.7296 281.109178 
L 484.0272 280.881431 
L 484.176 281.026294 
L 484.7712 280.576606 
L 484.92 280.722876 
L 485.3664 280.390077 
L 485.5152 280.537634 
L 485.9616 280.209548 
L 486.1104 280.358393 
L 486.5568 280.03384 
L 486.7056 280.18397 
L 487.152 279.863532 
L 487.3008 280.014946 
L 487.896 279.593685 
L 488.0448 279.746851 
L 488.4912 279.435387 
L 488.7888 278.869664 
L 489.0864 278.767675 
L 489.384 279.336745 
L 489.8304 279.034589 
L 489.9792 279.192143 
L 490.5744 278.795814 
L 490.7232 278.955113 
L 491.3184 278.565467 
L 491.4672 278.725712 
L 492.0624 278.342452 
L 492.2112 278.504436 
L 492.8064 278.127846 
L 492.9552 278.291209 
L 493.6992 277.829582 
L 493.848 277.994791 
L 494.4432 277.63274 
L 494.592 277.799682 
L 495.336 277.356787 
L 495.4848 277.525389 
L 496.08 277.177839 
L 496.2288 277.347989 
L 496.9728 276.922318 
L 497.1216 277.094481 
L 497.2704 276.927179 
L 497.4192 276.927179 
L 497.7168 276.678425 
L 497.8656 276.678425 
L 498.0144 276.852416 
L 498.9072 276.365904 
L 499.056 276.541831 
L 499.8 276.147015 
L 499.9488 276.247215 
L 500.0976 276.169792 
L 500.2464 275.58112 
L 500.6928 275.351169 
L 500.8416 275.53081 
L 501.288 275.380004 
L 501.5856 275.997412 
L 502.6272 275.485512 
L 502.776 275.668993 
L 503.9664 275.1056 
L 504.1152 275.291738 
L 504.5616 275.018906 
L 504.8592 274.951539 
L 505.1568 274.817532 
L 505.3056 274.750891 
L 505.4544 274.939858 
L 506.7936 274.358348 
L 506.9424 274.550064 
L 507.24 274.36297 
L 507.3888 273.791544 
L 507.6864 273.729709 
L 507.8352 274.177817 
L 507.984 274.11701 
L 508.1328 274.31108 
L 509.6208 273.723014 
L 509.9184 273.863283 
L 510.3648 273.639708 
L 510.96 273.42044 
L 511.1088 272.85776 
L 511.5552 272.696663 
L 511.704 272.897727 
L 512.0016 272.740581 
L 512.1504 272.180414 
L 512.5968 272.025908 
L 512.7456 272.229269 
L 513.192 272.078703 
L 513.3408 272.537139 
L 513.6384 272.48821 
L 513.7872 272.693375 
L 514.2336 272.549454 
L 514.3824 273.009689 
L 515.424 272.688232 
L 515.5728 272.136103 
L 516.4656 271.872052 
L 516.6144 272.082577 
L 517.656 271.790975 
L 517.8048 272.257198 
L 517.9536 271.710575 
L 518.1024 272.177312 
L 518.2512 271.631354 
L 518.4 271.592129 
L 518.4 271.592129 
" style="fill:none;stroke:#008000;stroke-linecap:square;"/>
   </g>
   <g id="line2d_2">
    <path clip-path="url(#pbabda54281)" d="M 72.1488 250.56 
L 92.6832 250.659655 
L 94.1712 251.03586 
L 95.5104 251.668051 
L 96.9984 252.629359 
L 98.784 254.085733 
L 100.7184 255.933242 
L 101.016 256.39357 
L 101.76 257.184971 
L 102.0576 257.673791 
L 102.8016 258.33958 
L 102.9504 258.33958 
L 103.3968 258.841972 
L 103.5456 259.181807 
L 103.6944 259.181807 
L 105.48 261.292283 
L 105.6288 250.56 
L 236.424 250.56 
L 236.5728 181.44 
L 245.7984 181.511554 
L 246.84 181.875722 
L 247.2864 181.972197 
L 248.4768 182.211327 
L 251.7504 182.11603 
L 253.6848 181.577179 
L 253.9824 181.459981 
L 256.3632 180.383648 
L 258.8928 178.979084 
L 261.4224 177.302708 
L 262.6128 176.421624 
L 262.9104 176.075316 
L 265.5888 173.953663 
L 265.7376 173.686094 
L 265.8864 173.686094 
L 268.5648 171.11086 
L 268.8624 170.652088 
L 272.136 167.206498 
L 272.4336 166.677992 
L 272.5824 166.677992 
L 274.0704 164.871008 
L 274.2192 164.500911 
L 274.368 164.500911 
L 277.1952 160.851528 
L 277.6416 159.844655 
L 277.7904 159.639321 
L 277.9392 159.639321 
L 278.3856 159.030305 
L 278.5344 159.030305 
L 279.2784 158.019502 
L 279.8736 156.567824 
L 280.6176 155.5031 
L 280.7664 155.5031 
L 281.2128 154.428827 
L 281.3616 154.213366 
L 281.5104 154.213366 
L 281.808 153.560374 
L 281.9568 153.341634 
L 282.2544 152.682166 
L 282.4032 152.682166 
L 282.7008 152.019509 
L 282.9984 151.575568 
L 283.296 150.906418 
L 283.7424 150.234046 
L 283.8912 149.78161 
L 284.04 149.78161 
L 284.4864 148.646461 
L 284.6352 148.419358 
L 284.784 148.419358 
L 284.9328 147.961821 
L 285.0816 147.961821 
L 285.528 146.813934 
L 285.8256 146.352615 
L 286.1232 145.654379 
L 286.272 145.419423 
L 286.5696 144.717372 
L 287.016 144.00741 
L 287.3136 143.301684 
L 288.0576 142.115985 
L 288.3552 141.406032 
L 289.0992 140.2232 
L 289.3968 139.513741 
L 289.5456 139.27595 
L 289.8432 138.556653 
L 289.992 138.316935 
L 290.4384 137.108568 
L 290.5872 136.864951 
L 291.0336 135.638613 
L 292.0752 133.933184 
L 292.3728 133.203595 
L 292.6704 132.715333 
L 292.968 131.9882 
L 293.4144 131.260696 
L 293.5632 130.528166 
L 293.712 130.528166 
L 294.0096 129.539916 
L 295.0512 126.224094 
L 295.6464 125.187649 
L 295.7952 124.674387 
L 295.944 124.674387 
L 296.5392 122.867402 
L 297.1344 121.83282 
L 297.432 121.069638 
L 298.3248 119.552767 
L 298.6224 118.80782 
L 299.664 117.092642 
L 299.9616 116.369596 
L 301.4496 113.996047 
L 301.7472 113.300349 
L 304.5744 108.844838 
L 304.872 108.205071 
L 306.8064 105.27032 
L 307.104 104.661238 
L 313.3536 95.976579 
L 313.8 95.119283 
L 314.3952 94.440558 
L 314.544 94.440558 
L 314.9904 93.958896 
L 315.1392 93.958896 
L 315.5856 93.49747 
L 315.7344 93.49747 
L 316.3296 92.91843 
L 316.4784 92.91843 
L 317.2224 92.385434 
L 317.8176 92.007378 
L 317.9664 92.007378 
L 318.264 91.651866 
L 318.4128 91.651866 
L 319.3056 91.110103 
L 320.0496 90.713655 
L 320.3472 90.619063 
L 321.24 90.187432 
L 321.5376 90.106172 
L 322.5792 89.672943 
L 322.8768 89.609381 
L 323.7696 89.31481 
L 324.216 89.212637 
L 324.6624 89.162869 
L 325.1088 89.07622 
L 327.3408 88.585131 
L 328.68 88.40417 
L 333.888 88.511534 
L 337.608 89.238955 
L 342.6672 90.880807 
L 345.9408 92.277427 
L 346.2384 92.358968 
L 347.5776 93.025876 
L 347.8752 93.113893 
L 349.0656 93.743476 
L 349.3632 93.837393 
L 350.4048 94.413713 
L 350.7024 94.513563 
L 356.0592 98.146285 
L 356.208 98.349939 
L 356.5056 98.451898 
L 356.6544 98.656078 
L 356.952 98.758301 
L 360.672 101.346405 
L 360.9696 101.661493 
L 371.088 108.949878 
L 377.784 114.157595 
L 384.3312 119.527042 
L 388.2 122.809543 
L 388.3488 123.067785 
L 388.4976 123.067785 
L 393.1104 127.144547 
L 393.408 127.545353 
L 400.9968 134.391956 
L 401.1456 134.672132 
L 401.2944 134.672132 
L 401.592 135.093282 
L 410.9664 144.078214 
L 411.4128 144.800008 
L 416.6208 149.91502 
L 416.9184 150.342193 
L 423.6144 156.597108 
L 426.4416 159.26171 
L 426.7392 159.650214 
L 427.1856 160.158911 
L 427.9296 161.264825 
L 429.4176 162.557921 
L 429.7152 162.907674 
L 431.0544 164.064584 
L 431.352 164.407332 
L 432.9888 165.759879 
L 433.2864 166.092937 
L 439.536 170.808651 
L 439.8336 171.127257 
L 441.768 172.389339 
L 442.0656 172.49653 
L 443.1072 173.142773 
L 443.4048 173.251983 
L 444.4464 173.906458 
L 444.744 174.016582 
L 446.0832 174.892566 
L 446.3808 175.002756 
L 447.2736 175.551235 
L 447.5712 175.661713 
L 448.464 176.211123 
L 448.7616 176.321923 
L 449.8032 176.980658 
L 450.1008 177.090222 
L 450.9936 177.636385 
L 451.2912 177.745751 
L 452.184 178.289871 
L 452.4816 178.399089 
L 453.3744 178.94016 
L 453.672 179.047499 
L 457.392 181.613002 
L 461.856 184.413836 
L 467.2128 187.499719 
L 474.2064 191.282204 
L 474.504 191.357292 
L 474.8016 191.507721 
L 481.4976 194.750679 
L 488.9376 198.138525 
L 489.2352 198.202062 
L 496.3776 201.149918 
L 503.8176 203.991246 
L 513.3408 207.411412 
L 513.7872 207.50956 
L 518.4 209.008258 
L 518.4 209.008258 
" style="fill:none;stroke:#0000ff;stroke-linecap:square;"/>
   </g>
   <g id="patch_3">
    <path d="M 72 43.2 
L 518.4 43.2 
" style="fill:none;stroke:#000000;stroke-linecap:square;stroke-linejoin:miter;"/>
   </g>
   <g id="patch_4">
    <path d="M 518.4 388.8 
L 518.4 43.2 
" style="fill:none;stroke:#000000;stroke-linecap:square;stroke-linejoin:miter;"/>
   </g>
   <g id="patch_5">
    <path d="M 72 388.8 
L 518.4 388.8 
" style="fill:none;stroke:#000000;stroke-linecap:square;stroke-linejoin:miter;"/>
   </g>
   <g id="patch_6">
    <path d="M 72 388.8 
L 72 43.2 
" style="fill:none;stroke:#000000;stroke-linecap:square;stroke-linejoin:miter;"/>
   </g>
   <g id="matplotlib.axis_1">
    <g id="xtick_1">
     <g id="line2d_3">
      <path clip-path="url(#pbabda54281)" d="M 72 388.8 
L 72 43.2 
" style="fill:none;stroke:#000000;stroke-dasharray:1.000000,3.000000;stroke-dashoffset:0.0;stroke-width:0.5;"/>
     </g>
     <g id="line2d_4">
      <defs>
       <path d="M 0 0 
L 0 -4 
" id="m349a6e8ad4" style="stroke:#000000;stroke-width:0.5;"/>
      </defs>
      <g>
       <use style="stroke:#000000;stroke-width:0.5;" x="72.0" xlink:href="#m349a6e8ad4" y="388.8"/>
      </g>
     </g>
     <g id="line2d_5">
      <defs>
       <path d="M 0 0 
L 0 4 
" id="mf19bf346ac" style="stroke:#000000;stroke-width:0.5;"/>
      </defs>
      <g>
       <use style="stroke:#000000;stroke-width:0.5;" x="72.0" xlink:href="#mf19bf346ac" y="43.2"/>
      </g>
     </g>
     <g id="text_1">
      <!-- 0 -->
      <defs>
       <path d="M 31.78125 66.40625 
Q 24.171875 66.40625 20.328125 58.90625 
Q 16.5 51.421875 16.5 36.375 
Q 16.5 21.390625 20.328125 13.890625 
Q 24.171875 6.390625 31.78125 6.390625 
Q 39.453125 6.390625 43.28125 13.890625 
Q 47.125 21.390625 47.125 36.375 
Q 47.125 51.421875 43.28125 58.90625 
Q 39.453125 66.40625 31.78125 66.40625 
M 31.78125 74.21875 
Q 44.046875 74.21875 50.515625 64.515625 
Q 56.984375 54.828125 56.984375 36.375 
Q 56.984375 17.96875 50.515625 8.265625 
Q 44.046875 -1.421875 31.78125 -1.421875 
Q 19.53125 -1.421875 13.0625 8.265625 
Q 6.59375 17.96875 6.59375 36.375 
Q 6.59375 54.828125 13.0625 64.515625 
Q 19.53125 74.21875 31.78125 74.21875 
" id="BitstreamVeraSans-Roman-30"/>
      </defs>
      <g transform="translate(68.1825 401.918125)scale(0.12 -0.12)">
       <use xlink:href="#BitstreamVeraSans-Roman-30"/>
      </g>
     </g>
    </g>
    <g id="xtick_2">
     <g id="line2d_6">
      <path clip-path="url(#pbabda54281)" d="M 146.4 388.8 
L 146.4 43.2 
" style="fill:none;stroke:#000000;stroke-dasharray:1.000000,3.000000;stroke-dashoffset:0.0;stroke-width:0.5;"/>
     </g>
     <g id="line2d_7">
      <g>
       <use style="stroke:#000000;stroke-width:0.5;" x="146.4" xlink:href="#m349a6e8ad4" y="388.8"/>
      </g>
     </g>
     <g id="line2d_8">
      <g>
       <use style="stroke:#000000;stroke-width:0.5;" x="146.4" xlink:href="#mf19bf346ac" y="43.2"/>
      </g>
     </g>
     <g id="text_2">
      <!-- 5 -->
      <defs>
       <path d="M 10.796875 72.90625 
L 49.515625 72.90625 
L 49.515625 64.59375 
L 19.828125 64.59375 
L 19.828125 46.734375 
Q 21.96875 47.46875 24.109375 47.828125 
Q 26.265625 48.1875 28.421875 48.1875 
Q 40.625 48.1875 47.75 41.5 
Q 54.890625 34.8125 54.890625 23.390625 
Q 54.890625 11.625 47.5625 5.09375 
Q 40.234375 -1.421875 26.90625 -1.421875 
Q 22.3125 -1.421875 17.546875 -0.640625 
Q 12.796875 0.140625 7.71875 1.703125 
L 7.71875 11.625 
Q 12.109375 9.234375 16.796875 8.0625 
Q 21.484375 6.890625 26.703125 6.890625 
Q 35.15625 6.890625 40.078125 11.328125 
Q 45.015625 15.765625 45.015625 23.390625 
Q 45.015625 31 40.078125 35.4375 
Q 35.15625 39.890625 26.703125 39.890625 
Q 22.75 39.890625 18.8125 39.015625 
Q 14.890625 38.140625 10.796875 36.28125 
z
" id="BitstreamVeraSans-Roman-35"/>
      </defs>
      <g transform="translate(142.5825 401.918125)scale(0.12 -0.12)">
       <use xlink:href="#BitstreamVeraSans-Roman-35"/>
      </g>
     </g>
    </g>
    <g id="xtick_3">
     <g id="line2d_9">
      <path clip-path="url(#pbabda54281)" d="M 220.8 388.8 
L 220.8 43.2 
" style="fill:none;stroke:#000000;stroke-dasharray:1.000000,3.000000;stroke-dashoffset:0.0;stroke-width:0.5;"/>
     </g>
     <g id="line2d_10">
      <g>
       <use style="stroke:#000000;stroke-width:0.5;" x="220.8" xlink:href="#m349a6e8ad4" y="388.8"/>
      </g>
     </g>
     <g id="line2d_11">
      <g>
       <use style="stroke:#000000;stroke-width:0.5;" x="220.8" xlink:href="#mf19bf346ac" y="43.2"/>
      </g>
     </g>
     <g id="text_3">
      <!-- 10 -->
      <defs>
       <path d="M 12.40625 8.296875 
L 28.515625 8.296875 
L 28.515625 63.921875 
L 10.984375 60.40625 
L 10.984375 69.390625 
L 28.421875 72.90625 
L 38.28125 72.90625 
L 38.28125 8.296875 
L 54.390625 8.296875 
L 54.390625 0 
L 12.40625 0 
z
" id="BitstreamVeraSans-Roman-31"/>
      </defs>
      <g transform="translate(213.165 401.918125)scale(0.12 -0.12)">
       <use xlink:href="#BitstreamVeraSans-Roman-31"/>
       <use x="63.623046875" xlink:href="#BitstreamVeraSans-Roman-30"/>
      </g>
     </g>
    </g>
    <g id="xtick_4">
     <g id="line2d_12">
      <path clip-path="url(#pbabda54281)" d="M 295.2 388.8 
L 295.2 43.2 
" style="fill:none;stroke:#000000;stroke-dasharray:1.000000,3.000000;stroke-dashoffset:0.0;stroke-width:0.5;"/>
     </g>
     <g id="line2d_13">
      <g>
       <use style="stroke:#000000;stroke-width:0.5;" x="295.2" xlink:href="#m349a6e8ad4" y="388.8"/>
      </g>
     </g>
     <g id="line2d_14">
      <g>
       <use style="stroke:#000000;stroke-width:0.5;" x="295.2" xlink:href="#mf19bf346ac" y="43.2"/>
      </g>
     </g>
     <g id="text_4">
      <!-- 15 -->
      <g transform="translate(287.565 401.918125)scale(0.12 -0.12)">
       <use xlink:href="#BitstreamVeraSans-Roman-31"/>
       <use x="63.623046875" xlink:href="#BitstreamVeraSans-Roman-35"/>
      </g>
     </g>
    </g>
    <g id="xtick_5">
     <g id="line2d_15">
      <path clip-path="url(#pbabda54281)" d="M 369.6 388.8 
L 369.6 43.2 
" style="fill:none;stroke:#000000;stroke-dasharray:1.000000,3.000000;stroke-dashoffset:0.0;stroke-width:0.5;"/>
     </g>
     <g id="line2d_16">
      <g>
       <use style="stroke:#000000;stroke-width:0.5;" x="369.6" xlink:href="#m349a6e8ad4" y="388.8"/>
      </g>
     </g>
     <g id="line2d_17">
      <g>
       <use style="stroke:#000000;stroke-width:0.5;" x="369.6" xlink:href="#mf19bf346ac" y="43.2"/>
      </g>
     </g>
     <g id="text_5">
      <!-- 20 -->
      <defs>
       <path d="M 19.1875 8.296875 
L 53.609375 8.296875 
L 53.609375 0 
L 7.328125 0 
L 7.328125 8.296875 
Q 12.9375 14.109375 22.625 23.890625 
Q 32.328125 33.6875 34.8125 36.53125 
Q 39.546875 41.84375 41.421875 45.53125 
Q 43.3125 49.21875 43.3125 52.78125 
Q 43.3125 58.59375 39.234375 62.25 
Q 35.15625 65.921875 28.609375 65.921875 
Q 23.96875 65.921875 18.8125 64.3125 
Q 13.671875 62.703125 7.8125 59.421875 
L 7.8125 69.390625 
Q 13.765625 71.78125 18.9375 73 
Q 24.125 74.21875 28.421875 74.21875 
Q 39.75 74.21875 46.484375 68.546875 
Q 53.21875 62.890625 53.21875 53.421875 
Q 53.21875 48.921875 51.53125 44.890625 
Q 49.859375 40.875 45.40625 35.40625 
Q 44.1875 33.984375 37.640625 27.21875 
Q 31.109375 20.453125 19.1875 8.296875 
" id="BitstreamVeraSans-Roman-32"/>
      </defs>
      <g transform="translate(361.965 401.918125)scale(0.12 -0.12)">
       <use xlink:href="#BitstreamVeraSans-Roman-32"/>
       <use x="63.623046875" xlink:href="#BitstreamVeraSans-Roman-30"/>
      </g>
     </g>
    </g>
    <g id="xtick_6">
     <g id="line2d_18">
      <path clip-path="url(#pbabda54281)" d="M 444 388.8 
L 444 43.2 
" style="fill:none;stroke:#000000;stroke-dasharray:1.000000,3.000000;stroke-dashoffset:0.0;stroke-width:0.5;"/>
     </g>
     <g id="line2d_19">
      <g>
       <use style="stroke:#000000;stroke-width:0.5;" x="444.0" xlink:href="#m349a6e8ad4" y="388.8"/>
      </g>
     </g>
     <g id="line2d_20">
      <g>
       <use style="stroke:#000000;stroke-width:0.5;" x="444.0" xlink:href="#mf19bf346ac" y="43.2"/>
      </g>
     </g>
     <g id="text_6">
      <!-- 25 -->
      <g transform="translate(436.365 401.918125)scale(0.12 -0.12)">
       <use xlink:href="#BitstreamVeraSans-Roman-32"/>
       <use x="63.623046875" xlink:href="#BitstreamVeraSans-Roman-35"/>
      </g>
     </g>
    </g>
    <g id="xtick_7">
     <g id="line2d_21">
      <path clip-path="url(#pbabda54281)" d="M 518.4 388.8 
L 518.4 43.2 
" style="fill:none;stroke:#000000;stroke-dasharray:1.000000,3.000000;stroke-dashoffset:0.0;stroke-width:0.5;"/>
     </g>
     <g id="line2d_22">
      <g>
       <use style="stroke:#000000;stroke-width:0.5;" x="518.4" xlink:href="#m349a6e8ad4" y="388.8"/>
      </g>
     </g>
     <g id="line2d_23">
      <g>
       <use style="stroke:#000000;stroke-width:0.5;" x="518.4" xlink:href="#mf19bf346ac" y="43.2"/>
      </g>
     </g>
     <g id="text_7">
      <!-- 30 -->
      <defs>
       <path d="M 40.578125 39.3125 
Q 47.65625 37.796875 51.625 33 
Q 55.609375 28.21875 55.609375 21.1875 
Q 55.609375 10.40625 48.1875 4.484375 
Q 40.765625 -1.421875 27.09375 -1.421875 
Q 22.515625 -1.421875 17.65625 -0.515625 
Q 12.796875 0.390625 7.625 2.203125 
L 7.625 11.71875 
Q 11.71875 9.328125 16.59375 8.109375 
Q 21.484375 6.890625 26.8125 6.890625 
Q 36.078125 6.890625 40.9375 10.546875 
Q 45.796875 14.203125 45.796875 21.1875 
Q 45.796875 27.640625 41.28125 31.265625 
Q 36.765625 34.90625 28.71875 34.90625 
L 20.21875 34.90625 
L 20.21875 43.015625 
L 29.109375 43.015625 
Q 36.375 43.015625 40.234375 45.921875 
Q 44.09375 48.828125 44.09375 54.296875 
Q 44.09375 59.90625 40.109375 62.90625 
Q 36.140625 65.921875 28.71875 65.921875 
Q 24.65625 65.921875 20.015625 65.03125 
Q 15.375 64.15625 9.8125 62.3125 
L 9.8125 71.09375 
Q 15.4375 72.65625 20.34375 73.4375 
Q 25.25 74.21875 29.59375 74.21875 
Q 40.828125 74.21875 47.359375 69.109375 
Q 53.90625 64.015625 53.90625 55.328125 
Q 53.90625 49.265625 50.4375 45.09375 
Q 46.96875 40.921875 40.578125 39.3125 
" id="BitstreamVeraSans-Roman-33"/>
      </defs>
      <g transform="translate(510.765 401.918125)scale(0.12 -0.12)">
       <use xlink:href="#BitstreamVeraSans-Roman-33"/>
       <use x="63.623046875" xlink:href="#BitstreamVeraSans-Roman-30"/>
      </g>
     </g>
    </g>
    <g id="text_8">
     <!-- Time, [s] -->
     <defs>
      <path id="BitstreamVeraSans-Roman-20"/>
      <path d="M 8.59375 75.984375 
L 29.296875 75.984375 
L 29.296875 69 
L 17.578125 69 
L 17.578125 -6.203125 
L 29.296875 -6.203125 
L 29.296875 -13.1875 
L 8.59375 -13.1875 
z
" id="BitstreamVeraSans-Roman-5b"/>
      <path d="M 30.421875 75.984375 
L 30.421875 -13.1875 
L 9.71875 -13.1875 
L 9.71875 -6.203125 
L 21.390625 -6.203125 
L 21.390625 69 
L 9.71875 69 
L 9.71875 75.984375 
z
" id="BitstreamVeraSans-Roman-5d"/>
      <path d="M 52 44.1875 
Q 55.375 50.25 60.0625 53.125 
Q 64.75 56 71.09375 56 
Q 79.640625 56 84.28125 50.015625 
Q 88.921875 44.046875 88.921875 33.015625 
L 88.921875 0 
L 79.890625 0 
L 79.890625 32.71875 
Q 79.890625 40.578125 77.09375 44.375 
Q 74.3125 48.1875 68.609375 48.1875 
Q 61.625 48.1875 57.5625 43.546875 
Q 53.515625 38.921875 53.515625 30.90625 
L 53.515625 0 
L 44.484375 0 
L 44.484375 32.71875 
Q 44.484375 40.625 41.703125 44.40625 
Q 38.921875 48.1875 33.109375 48.1875 
Q 26.21875 48.1875 22.15625 43.53125 
Q 18.109375 38.875 18.109375 30.90625 
L 18.109375 0 
L 9.078125 0 
L 9.078125 54.6875 
L 18.109375 54.6875 
L 18.109375 46.1875 
Q 21.1875 51.21875 25.484375 53.609375 
Q 29.78125 56 35.6875 56 
Q 41.65625 56 45.828125 52.96875 
Q 50 49.953125 52 44.1875 
" id="BitstreamVeraSans-Roman-6d"/>
      <path d="M 11.71875 12.40625 
L 22.015625 12.40625 
L 22.015625 4 
L 14.015625 -11.625 
L 7.71875 -11.625 
L 11.71875 4 
z
" id="BitstreamVeraSans-Roman-2c"/>
      <path d="M 9.421875 54.6875 
L 18.40625 54.6875 
L 18.40625 0 
L 9.421875 0 
z
M 9.421875 75.984375 
L 18.40625 75.984375 
L 18.40625 64.59375 
L 9.421875 64.59375 
z
" id="BitstreamVeraSans-Roman-69"/>
      <path d="M 56.203125 29.59375 
L 56.203125 25.203125 
L 14.890625 25.203125 
Q 15.484375 15.921875 20.484375 11.0625 
Q 25.484375 6.203125 34.421875 6.203125 
Q 39.59375 6.203125 44.453125 7.46875 
Q 49.3125 8.734375 54.109375 11.28125 
L 54.109375 2.78125 
Q 49.265625 0.734375 44.1875 -0.34375 
Q 39.109375 -1.421875 33.890625 -1.421875 
Q 20.796875 -1.421875 13.15625 6.1875 
Q 5.515625 13.8125 5.515625 26.8125 
Q 5.515625 40.234375 12.765625 48.109375 
Q 20.015625 56 32.328125 56 
Q 43.359375 56 49.78125 48.890625 
Q 56.203125 41.796875 56.203125 29.59375 
M 47.21875 32.234375 
Q 47.125 39.59375 43.09375 43.984375 
Q 39.0625 48.390625 32.421875 48.390625 
Q 24.90625 48.390625 20.390625 44.140625 
Q 15.875 39.890625 15.1875 32.171875 
z
" id="BitstreamVeraSans-Roman-65"/>
      <path d="M -0.296875 72.90625 
L 61.375 72.90625 
L 61.375 64.59375 
L 35.5 64.59375 
L 35.5 0 
L 25.59375 0 
L 25.59375 64.59375 
L -0.296875 64.59375 
z
" id="BitstreamVeraSans-Roman-54"/>
      <path d="M 44.28125 53.078125 
L 44.28125 44.578125 
Q 40.484375 46.53125 36.375 47.5 
Q 32.28125 48.484375 27.875 48.484375 
Q 21.1875 48.484375 17.84375 46.4375 
Q 14.5 44.390625 14.5 40.28125 
Q 14.5 37.15625 16.890625 35.375 
Q 19.28125 33.59375 26.515625 31.984375 
L 29.59375 31.296875 
Q 39.15625 29.25 43.1875 25.515625 
Q 47.21875 21.78125 47.21875 15.09375 
Q 47.21875 7.46875 41.1875 3.015625 
Q 35.15625 -1.421875 24.609375 -1.421875 
Q 20.21875 -1.421875 15.453125 -0.5625 
Q 10.6875 0.296875 5.421875 2 
L 5.421875 11.28125 
Q 10.40625 8.6875 15.234375 7.390625 
Q 20.0625 6.109375 24.8125 6.109375 
Q 31.15625 6.109375 34.5625 8.28125 
Q 37.984375 10.453125 37.984375 14.40625 
Q 37.984375 18.0625 35.515625 20.015625 
Q 33.0625 21.96875 24.703125 23.78125 
L 21.578125 24.515625 
Q 13.234375 26.265625 9.515625 29.90625 
Q 5.8125 33.546875 5.8125 39.890625 
Q 5.8125 47.609375 11.28125 51.796875 
Q 16.75 56 26.8125 56 
Q 31.78125 56 36.171875 55.265625 
Q 40.578125 54.546875 44.28125 53.078125 
" id="BitstreamVeraSans-Roman-73"/>
     </defs>
     <g transform="translate(268.71375 418.531875)scale(0.12 -0.12)">
      <use xlink:href="#BitstreamVeraSans-Roman-54"/>
      <use x="61.037109375" xlink:href="#BitstreamVeraSans-Roman-69"/>
      <use x="88.8203125" xlink:href="#BitstreamVeraSans-Roman-6d"/>
      <use x="186.232421875" xlink:href="#BitstreamVeraSans-Roman-65"/>
      <use x="247.755859375" xlink:href="#BitstreamVeraSans-Roman-2c"/>
      <use x="279.54296875" xlink:href="#BitstreamVeraSans-Roman-20"/>
      <use x="311.330078125" xlink:href="#BitstreamVeraSans-Roman-5b"/>
      <use x="350.34375" xlink:href="#BitstreamVeraSans-Roman-73"/>
      <use x="402.443359375" xlink:href="#BitstreamVeraSans-Roman-5d"/>
     </g>
    </g>
   </g>
   <g id="matplotlib.axis_2">
    <g id="ytick_1">
     <g id="line2d_24">
      <path clip-path="url(#pbabda54281)" d="M 72 388.8 
L 518.4 388.8 
" style="fill:none;stroke:#000000;stroke-dasharray:1.000000,3.000000;stroke-dashoffset:0.0;stroke-width:0.5;"/>
     </g>
     <g id="line2d_25">
      <defs>
       <path d="M 0 0 
L 4 0 
" id="md167d41117" style="stroke:#000000;stroke-width:0.5;"/>
      </defs>
      <g>
       <use style="stroke:#000000;stroke-width:0.5;" x="72.0" xlink:href="#md167d41117" y="388.8"/>
      </g>
     </g>
     <g id="line2d_26">
      <defs>
       <path d="M 0 0 
L -4 0 
" id="m032f6826e5" style="stroke:#000000;stroke-width:0.5;"/>
      </defs>
      <g>
       <use style="stroke:#000000;stroke-width:0.5;" x="518.4" xlink:href="#m032f6826e5" y="388.8"/>
      </g>
     </g>
     <g id="text_9">
      <!-- −1.0 -->
      <defs>
       <path d="M 10.59375 35.5 
L 73.1875 35.5 
L 73.1875 27.203125 
L 10.59375 27.203125 
z
" id="BitstreamVeraSans-Roman-2212"/>
       <path d="M 10.6875 12.40625 
L 21 12.40625 
L 21 0 
L 10.6875 0 
z
" id="BitstreamVeraSans-Roman-2e"/>
      </defs>
      <g transform="translate(38.860625 392.11125)scale(0.12 -0.12)">
       <use xlink:href="#BitstreamVeraSans-Roman-2212"/>
       <use x="83.7890625" xlink:href="#BitstreamVeraSans-Roman-31"/>
       <use x="147.412109375" xlink:href="#BitstreamVeraSans-Roman-2e"/>
       <use x="179.19921875" xlink:href="#BitstreamVeraSans-Roman-30"/>
      </g>
     </g>
    </g>
    <g id="ytick_2">
     <g id="line2d_27">
      <path clip-path="url(#pbabda54281)" d="M 72 319.68 
L 518.4 319.68 
" style="fill:none;stroke:#000000;stroke-dasharray:1.000000,3.000000;stroke-dashoffset:0.0;stroke-width:0.5;"/>
     </g>
     <g id="line2d_28">
      <g>
       <use style="stroke:#000000;stroke-width:0.5;" x="72.0" xlink:href="#md167d41117" y="319.68"/>
      </g>
     </g>
     <g id="line2d_29">
      <g>
       <use style="stroke:#000000;stroke-width:0.5;" x="518.4" xlink:href="#m032f6826e5" y="319.68"/>
      </g>
     </g>
     <g id="text_10">
      <!-- −0.5 -->
      <g transform="translate(38.860625 322.99125)scale(0.12 -0.12)">
       <use xlink:href="#BitstreamVeraSans-Roman-2212"/>
       <use x="83.7890625" xlink:href="#BitstreamVeraSans-Roman-30"/>
       <use x="147.412109375" xlink:href="#BitstreamVeraSans-Roman-2e"/>
       <use x="179.19921875" xlink:href="#BitstreamVeraSans-Roman-35"/>
      </g>
     </g>
    </g>
    <g id="ytick_3">
     <g id="line2d_30">
      <path clip-path="url(#pbabda54281)" d="M 72 250.56 
L 518.4 250.56 
" style="fill:none;stroke:#000000;stroke-dasharray:1.000000,3.000000;stroke-dashoffset:0.0;stroke-width:0.5;"/>
     </g>
     <g id="line2d_31">
      <g>
       <use style="stroke:#000000;stroke-width:0.5;" x="72.0" xlink:href="#md167d41117" y="250.56"/>
      </g>
     </g>
     <g id="line2d_32">
      <g>
       <use style="stroke:#000000;stroke-width:0.5;" x="518.4" xlink:href="#m032f6826e5" y="250.56"/>
      </g>
     </g>
     <g id="text_11">
      <!-- 0.0 -->
      <g transform="translate(48.91625 253.87125)scale(0.12 -0.12)">
       <use xlink:href="#BitstreamVeraSans-Roman-30"/>
       <use x="63.623046875" xlink:href="#BitstreamVeraSans-Roman-2e"/>
       <use x="95.41015625" xlink:href="#BitstreamVeraSans-Roman-30"/>
      </g>
     </g>
    </g>
    <g id="ytick_4">
     <g id="line2d_33">
      <path clip-path="url(#pbabda54281)" d="M 72 181.44 
L 518.4 181.44 
" style="fill:none;stroke:#000000;stroke-dasharray:1.000000,3.000000;stroke-dashoffset:0.0;stroke-width:0.5;"/>
     </g>
     <g id="line2d_34">
      <g>
       <use style="stroke:#000000;stroke-width:0.5;" x="72.0" xlink:href="#md167d41117" y="181.44"/>
      </g>
     </g>
     <g id="line2d_35">
      <g>
       <use style="stroke:#000000;stroke-width:0.5;" x="518.4" xlink:href="#m032f6826e5" y="181.44"/>
      </g>
     </g>
     <g id="text_12">
      <!-- 0.5 -->
      <g transform="translate(48.91625 184.75125)scale(0.12 -0.12)">
       <use xlink:href="#BitstreamVeraSans-Roman-30"/>
       <use x="63.623046875" xlink:href="#BitstreamVeraSans-Roman-2e"/>
       <use x="95.41015625" xlink:href="#BitstreamVeraSans-Roman-35"/>
      </g>
     </g>
    </g>
    <g id="ytick_5">
     <g id="line2d_36">
      <path clip-path="url(#pbabda54281)" d="M 72 112.32 
L 518.4 112.32 
" style="fill:none;stroke:#000000;stroke-dasharray:1.000000,3.000000;stroke-dashoffset:0.0;stroke-width:0.5;"/>
     </g>
     <g id="line2d_37">
      <g>
       <use style="stroke:#000000;stroke-width:0.5;" x="72.0" xlink:href="#md167d41117" y="112.32"/>
      </g>
     </g>
     <g id="line2d_38">
      <g>
       <use style="stroke:#000000;stroke-width:0.5;" x="518.4" xlink:href="#m032f6826e5" y="112.32"/>
      </g>
     </g>
     <g id="text_13">
      <!-- 1.0 -->
      <g transform="translate(48.91625 115.63125)scale(0.12 -0.12)">
       <use xlink:href="#BitstreamVeraSans-Roman-31"/>
       <use x="63.623046875" xlink:href="#BitstreamVeraSans-Roman-2e"/>
       <use x="95.41015625" xlink:href="#BitstreamVeraSans-Roman-30"/>
      </g>
     </g>
    </g>
    <g id="ytick_6">
     <g id="line2d_39">
      <path clip-path="url(#pbabda54281)" d="M 72 43.2 
L 518.4 43.2 
" style="fill:none;stroke:#000000;stroke-dasharray:1.000000,3.000000;stroke-dashoffset:0.0;stroke-width:0.5;"/>
     </g>
     <g id="line2d_40">
      <g>
       <use style="stroke:#000000;stroke-width:0.5;" x="72.0" xlink:href="#md167d41117" y="43.2"/>
      </g>
     </g>
     <g id="line2d_41">
      <g>
       <use style="stroke:#000000;stroke-width:0.5;" x="518.4" xlink:href="#m032f6826e5" y="43.2"/>
      </g>
     </g>
     <g id="text_14">
      <!-- 1.5 -->
      <g transform="translate(48.91625 46.51125)scale(0.12 -0.12)">
       <use xlink:href="#BitstreamVeraSans-Roman-31"/>
       <use x="63.623046875" xlink:href="#BitstreamVeraSans-Roman-2e"/>
       <use x="95.41015625" xlink:href="#BitstreamVeraSans-Roman-35"/>
      </g>
     </g>
    </g>
    <g id="text_15">
     <!-- Accel Cmd [m/s^2] -->
     <defs>
      <path d="M 46.6875 72.90625 
L 73.1875 45.703125 
L 63.375 45.703125 
L 41.890625 64.984375 
L 20.40625 45.703125 
L 10.59375 45.703125 
L 37.109375 72.90625 
z
" id="BitstreamVeraSans-Roman-5e"/>
      <path d="M 9.421875 75.984375 
L 18.40625 75.984375 
L 18.40625 0 
L 9.421875 0 
z
" id="BitstreamVeraSans-Roman-6c"/>
      <path d="M 64.40625 67.28125 
L 64.40625 56.890625 
Q 59.421875 61.53125 53.78125 63.8125 
Q 48.140625 66.109375 41.796875 66.109375 
Q 29.296875 66.109375 22.65625 58.46875 
Q 16.015625 50.828125 16.015625 36.375 
Q 16.015625 21.96875 22.65625 14.328125 
Q 29.296875 6.6875 41.796875 6.6875 
Q 48.140625 6.6875 53.78125 8.984375 
Q 59.421875 11.28125 64.40625 15.921875 
L 64.40625 5.609375 
Q 59.234375 2.09375 53.4375 0.328125 
Q 47.65625 -1.421875 41.21875 -1.421875 
Q 24.65625 -1.421875 15.125 8.703125 
Q 5.609375 18.84375 5.609375 36.375 
Q 5.609375 53.953125 15.125 64.078125 
Q 24.65625 74.21875 41.21875 74.21875 
Q 47.75 74.21875 53.53125 72.484375 
Q 59.328125 70.75 64.40625 67.28125 
" id="BitstreamVeraSans-Roman-43"/>
      <path d="M 34.1875 63.1875 
L 20.796875 26.90625 
L 47.609375 26.90625 
z
M 28.609375 72.90625 
L 39.796875 72.90625 
L 67.578125 0 
L 57.328125 0 
L 50.6875 18.703125 
L 17.828125 18.703125 
L 11.1875 0 
L 0.78125 0 
z
" id="BitstreamVeraSans-Roman-41"/>
      <path d="M 25.390625 72.90625 
L 33.6875 72.90625 
L 8.296875 -9.28125 
L 0 -9.28125 
z
" id="BitstreamVeraSans-Roman-2f"/>
      <path d="M 45.40625 46.390625 
L 45.40625 75.984375 
L 54.390625 75.984375 
L 54.390625 0 
L 45.40625 0 
L 45.40625 8.203125 
Q 42.578125 3.328125 38.25 0.953125 
Q 33.9375 -1.421875 27.875 -1.421875 
Q 17.96875 -1.421875 11.734375 6.484375 
Q 5.515625 14.40625 5.515625 27.296875 
Q 5.515625 40.1875 11.734375 48.09375 
Q 17.96875 56 27.875 56 
Q 33.9375 56 38.25 53.625 
Q 42.578125 51.265625 45.40625 46.390625 
M 14.796875 27.296875 
Q 14.796875 17.390625 18.875 11.75 
Q 22.953125 6.109375 30.078125 6.109375 
Q 37.203125 6.109375 41.296875 11.75 
Q 45.40625 17.390625 45.40625 27.296875 
Q 45.40625 37.203125 41.296875 42.84375 
Q 37.203125 48.484375 30.078125 48.484375 
Q 22.953125 48.484375 18.875 42.84375 
Q 14.796875 37.203125 14.796875 27.296875 
" id="BitstreamVeraSans-Roman-64"/>
      <path d="M 48.78125 52.59375 
L 48.78125 44.1875 
Q 44.96875 46.296875 41.140625 47.34375 
Q 37.3125 48.390625 33.40625 48.390625 
Q 24.65625 48.390625 19.8125 42.84375 
Q 14.984375 37.3125 14.984375 27.296875 
Q 14.984375 17.28125 19.8125 11.734375 
Q 24.65625 6.203125 33.40625 6.203125 
Q 37.3125 6.203125 41.140625 7.25 
Q 44.96875 8.296875 48.78125 10.40625 
L 48.78125 2.09375 
Q 45.015625 0.34375 40.984375 -0.53125 
Q 36.96875 -1.421875 32.421875 -1.421875 
Q 20.0625 -1.421875 12.78125 6.34375 
Q 5.515625 14.109375 5.515625 27.296875 
Q 5.515625 40.671875 12.859375 48.328125 
Q 20.21875 56 33.015625 56 
Q 37.15625 56 41.109375 55.140625 
Q 45.0625 54.296875 48.78125 52.59375 
" id="BitstreamVeraSans-Roman-63"/>
     </defs>
     <g transform="translate(31.365 274.235625)rotate(-90.0)scale(0.12 -0.12)">
      <use xlink:href="#BitstreamVeraSans-Roman-41"/>
      <use x="68.392578125" xlink:href="#BitstreamVeraSans-Roman-63"/>
      <use x="123.373046875" xlink:href="#BitstreamVeraSans-Roman-63"/>
      <use x="178.353515625" xlink:href="#BitstreamVeraSans-Roman-65"/>
      <use x="239.876953125" xlink:href="#BitstreamVeraSans-Roman-6c"/>
      <use x="267.66015625" xlink:href="#BitstreamVeraSans-Roman-20"/>
      <use x="299.447265625" xlink:href="#BitstreamVeraSans-Roman-43"/>
      <use x="369.271484375" xlink:href="#BitstreamVeraSans-Roman-6d"/>
      <use x="466.68359375" xlink:href="#BitstreamVeraSans-Roman-64"/>
      <use x="530.16015625" xlink:href="#BitstreamVeraSans-Roman-20"/>
      <use x="561.947265625" xlink:href="#BitstreamVeraSans-Roman-5b"/>
      <use x="600.9609375" xlink:href="#BitstreamVeraSans-Roman-6d"/>
      <use x="698.373046875" xlink:href="#BitstreamVeraSans-Roman-2f"/>
      <use x="732.064453125" xlink:href="#BitstreamVeraSans-Roman-73"/>
      <use x="784.1640625" xlink:href="#BitstreamVeraSans-Roman-5e"/>
      <use x="867.953125" xlink:href="#BitstreamVeraSans-Roman-32"/>
      <use x="931.576171875" xlink:href="#BitstreamVeraSans-Roman-5d"/>
     </g>
    </g>
   </g>
   <g id="legend_1">
    <g id="patch_7">
     <path d="M 371.673 96.993 
L 511.2 96.993 
L 511.2 50.4 
L 371.673 50.4 
z
" style="fill:#ffffff;stroke:#000000;stroke-linejoin:miter;"/>
    </g>
    <g id="line2d_42">
     <path d="M 381.753 62.06175 
L 401.913 62.06175 
" style="fill:none;stroke:#008000;stroke-linecap:square;"/>
    </g>
    <g id="line2d_43"/>
    <g id="text_16">
     <!-- Proportional -->
     <defs>
      <path d="M 54.890625 33.015625 
L 54.890625 0 
L 45.90625 0 
L 45.90625 32.71875 
Q 45.90625 40.484375 42.875 44.328125 
Q 39.84375 48.1875 33.796875 48.1875 
Q 26.515625 48.1875 22.3125 43.546875 
Q 18.109375 38.921875 18.109375 30.90625 
L 18.109375 0 
L 9.078125 0 
L 9.078125 54.6875 
L 18.109375 54.6875 
L 18.109375 46.1875 
Q 21.34375 51.125 25.703125 53.5625 
Q 30.078125 56 35.796875 56 
Q 45.21875 56 50.046875 50.171875 
Q 54.890625 44.34375 54.890625 33.015625 
" id="BitstreamVeraSans-Roman-6e"/>
      <path d="M 34.28125 27.484375 
Q 23.390625 27.484375 19.1875 25 
Q 14.984375 22.515625 14.984375 16.5 
Q 14.984375 11.71875 18.140625 8.90625 
Q 21.296875 6.109375 26.703125 6.109375 
Q 34.1875 6.109375 38.703125 11.40625 
Q 43.21875 16.703125 43.21875 25.484375 
L 43.21875 27.484375 
z
M 52.203125 31.203125 
L 52.203125 0 
L 43.21875 0 
L 43.21875 8.296875 
Q 40.140625 3.328125 35.546875 0.953125 
Q 30.953125 -1.421875 24.3125 -1.421875 
Q 15.921875 -1.421875 10.953125 3.296875 
Q 6 8.015625 6 15.921875 
Q 6 25.140625 12.171875 29.828125 
Q 18.359375 34.515625 30.609375 34.515625 
L 43.21875 34.515625 
L 43.21875 35.40625 
Q 43.21875 41.609375 39.140625 45 
Q 35.0625 48.390625 27.6875 48.390625 
Q 23 48.390625 18.546875 47.265625 
Q 14.109375 46.140625 10.015625 43.890625 
L 10.015625 52.203125 
Q 14.9375 54.109375 19.578125 55.046875 
Q 24.21875 56 28.609375 56 
Q 40.484375 56 46.34375 49.84375 
Q 52.203125 43.703125 52.203125 31.203125 
" id="BitstreamVeraSans-Roman-61"/>
      <path d="M 30.609375 48.390625 
Q 23.390625 48.390625 19.1875 42.75 
Q 14.984375 37.109375 14.984375 27.296875 
Q 14.984375 17.484375 19.15625 11.84375 
Q 23.34375 6.203125 30.609375 6.203125 
Q 37.796875 6.203125 41.984375 11.859375 
Q 46.1875 17.53125 46.1875 27.296875 
Q 46.1875 37.015625 41.984375 42.703125 
Q 37.796875 48.390625 30.609375 48.390625 
M 30.609375 56 
Q 42.328125 56 49.015625 48.375 
Q 55.71875 40.765625 55.71875 27.296875 
Q 55.71875 13.875 49.015625 6.21875 
Q 42.328125 -1.421875 30.609375 -1.421875 
Q 18.84375 -1.421875 12.171875 6.21875 
Q 5.515625 13.875 5.515625 27.296875 
Q 5.515625 40.765625 12.171875 48.375 
Q 18.84375 56 30.609375 56 
" id="BitstreamVeraSans-Roman-6f"/>
      <path d="M 19.671875 64.796875 
L 19.671875 37.40625 
L 32.078125 37.40625 
Q 38.96875 37.40625 42.71875 40.96875 
Q 46.484375 44.53125 46.484375 51.125 
Q 46.484375 57.671875 42.71875 61.234375 
Q 38.96875 64.796875 32.078125 64.796875 
z
M 9.8125 72.90625 
L 32.078125 72.90625 
Q 44.34375 72.90625 50.609375 67.359375 
Q 56.890625 61.8125 56.890625 51.125 
Q 56.890625 40.328125 50.609375 34.8125 
Q 44.34375 29.296875 32.078125 29.296875 
L 19.671875 29.296875 
L 19.671875 0 
L 9.8125 0 
z
" id="BitstreamVeraSans-Roman-50"/>
      <path d="M 18.3125 70.21875 
L 18.3125 54.6875 
L 36.8125 54.6875 
L 36.8125 47.703125 
L 18.3125 47.703125 
L 18.3125 18.015625 
Q 18.3125 11.328125 20.140625 9.421875 
Q 21.96875 7.515625 27.59375 7.515625 
L 36.8125 7.515625 
L 36.8125 0 
L 27.59375 0 
Q 17.1875 0 13.234375 3.875 
Q 9.28125 7.765625 9.28125 18.015625 
L 9.28125 47.703125 
L 2.6875 47.703125 
L 2.6875 54.6875 
L 9.28125 54.6875 
L 9.28125 70.21875 
z
" id="BitstreamVeraSans-Roman-74"/>
      <path d="M 41.109375 46.296875 
Q 39.59375 47.171875 37.8125 47.578125 
Q 36.03125 48 33.890625 48 
Q 26.265625 48 22.1875 43.046875 
Q 18.109375 38.09375 18.109375 28.8125 
L 18.109375 0 
L 9.078125 0 
L 9.078125 54.6875 
L 18.109375 54.6875 
L 18.109375 46.1875 
Q 20.953125 51.171875 25.484375 53.578125 
Q 30.03125 56 36.53125 56 
Q 37.453125 56 38.578125 55.875 
Q 39.703125 55.765625 41.0625 55.515625 
z
" id="BitstreamVeraSans-Roman-72"/>
      <path d="M 18.109375 8.203125 
L 18.109375 -20.796875 
L 9.078125 -20.796875 
L 9.078125 54.6875 
L 18.109375 54.6875 
L 18.109375 46.390625 
Q 20.953125 51.265625 25.265625 53.625 
Q 29.59375 56 35.59375 56 
Q 45.5625 56 51.78125 48.09375 
Q 58.015625 40.1875 58.015625 27.296875 
Q 58.015625 14.40625 51.78125 6.484375 
Q 45.5625 -1.421875 35.59375 -1.421875 
Q 29.59375 -1.421875 25.265625 0.953125 
Q 20.953125 3.328125 18.109375 8.203125 
M 48.6875 27.296875 
Q 48.6875 37.203125 44.609375 42.84375 
Q 40.53125 48.484375 33.40625 48.484375 
Q 26.265625 48.484375 22.1875 42.84375 
Q 18.109375 37.203125 18.109375 27.296875 
Q 18.109375 17.390625 22.1875 11.75 
Q 26.265625 6.109375 33.40625 6.109375 
Q 40.53125 6.109375 44.609375 11.75 
Q 48.6875 17.390625 48.6875 27.296875 
" id="BitstreamVeraSans-Roman-70"/>
     </defs>
     <g transform="translate(417.753 67.10175)scale(0.144 -0.144)">
      <use xlink:href="#BitstreamVeraSans-Roman-50"/>
      <use x="60.287109375" xlink:href="#BitstreamVeraSans-Roman-72"/>
      <use x="101.369140625" xlink:href="#BitstreamVeraSans-Roman-6f"/>
      <use x="162.55078125" xlink:href="#BitstreamVeraSans-Roman-70"/>
      <use x="226.02734375" xlink:href="#BitstreamVeraSans-Roman-6f"/>
      <use x="287.208984375" xlink:href="#BitstreamVeraSans-Roman-72"/>
      <use x="328.322265625" xlink:href="#BitstreamVeraSans-Roman-74"/>
      <use x="367.53125" xlink:href="#BitstreamVeraSans-Roman-69"/>
      <use x="395.314453125" xlink:href="#BitstreamVeraSans-Roman-6f"/>
      <use x="456.49609375" xlink:href="#BitstreamVeraSans-Roman-6e"/>
      <use x="519.875" xlink:href="#BitstreamVeraSans-Roman-61"/>
      <use x="581.154296875" xlink:href="#BitstreamVeraSans-Roman-6c"/>
     </g>
    </g>
    <g id="line2d_44">
     <path d="M 381.753 83.19825 
L 401.913 83.19825 
" style="fill:none;stroke:#0000ff;stroke-linecap:square;"/>
    </g>
    <g id="line2d_45"/>
    <g id="text_17">
     <!-- Integral -->
     <defs>
      <path d="M 45.40625 27.984375 
Q 45.40625 37.75 41.375 43.109375 
Q 37.359375 48.484375 30.078125 48.484375 
Q 22.859375 48.484375 18.828125 43.109375 
Q 14.796875 37.75 14.796875 27.984375 
Q 14.796875 18.265625 18.828125 12.890625 
Q 22.859375 7.515625 30.078125 7.515625 
Q 37.359375 7.515625 41.375 12.890625 
Q 45.40625 18.265625 45.40625 27.984375 
M 54.390625 6.78125 
Q 54.390625 -7.171875 48.1875 -13.984375 
Q 42 -20.796875 29.203125 -20.796875 
Q 24.46875 -20.796875 20.265625 -20.09375 
Q 16.0625 -19.390625 12.109375 -17.921875 
L 12.109375 -9.1875 
Q 16.0625 -11.328125 19.921875 -12.34375 
Q 23.78125 -13.375 27.78125 -13.375 
Q 36.625 -13.375 41.015625 -8.765625 
Q 45.40625 -4.15625 45.40625 5.171875 
L 45.40625 9.625 
Q 42.625 4.78125 38.28125 2.390625 
Q 33.9375 0 27.875 0 
Q 17.828125 0 11.671875 7.65625 
Q 5.515625 15.328125 5.515625 27.984375 
Q 5.515625 40.671875 11.671875 48.328125 
Q 17.828125 56 27.875 56 
Q 33.9375 56 38.28125 53.609375 
Q 42.625 51.21875 45.40625 46.390625 
L 45.40625 54.6875 
L 54.390625 54.6875 
z
" id="BitstreamVeraSans-Roman-67"/>
      <path d="M 9.8125 72.90625 
L 19.671875 72.90625 
L 19.671875 0 
L 9.8125 0 
z
" id="BitstreamVeraSans-Roman-49"/>
     </defs>
     <g transform="translate(417.753 88.23825)scale(0.144 -0.144)">
      <use xlink:href="#BitstreamVeraSans-Roman-49"/>
      <use x="29.4921875" xlink:href="#BitstreamVeraSans-Roman-6e"/>
      <use x="92.87109375" xlink:href="#BitstreamVeraSans-Roman-74"/>
      <use x="132.080078125" xlink:href="#BitstreamVeraSans-Roman-65"/>
      <use x="193.603515625" xlink:href="#BitstreamVeraSans-Roman-67"/>
      <use x="257.080078125" xlink:href="#BitstreamVeraSans-Roman-72"/>
      <use x="298.193359375" xlink:href="#BitstreamVeraSans-Roman-61"/>
      <use x="359.47265625" xlink:href="#BitstreamVeraSans-Roman-6c"/>
     </g>
    </g>
   </g>
  </g>
 </g>
 <defs>
  <clipPath id="pbabda54281">
   <rect height="345.6" width="446.4" x="72.0" y="43.2"/>
  </clipPath>
 </defs>
</svg>
