<?xml version="1.0" encoding="utf-8" standalone="no"?>
<!DOCTYPE svg PUBLIC "-//W3C//DTD SVG 1.1//EN"
  "http://www.w3.org/Graphics/SVG/1.1/DTD/svg11.dtd">
<!-- Created with matplotlib (http://matplotlib.org/) -->
<svg height="432pt" version="1.1" viewBox="0 0 576 432" width="576pt" xmlns="http://www.w3.org/2000/svg" xmlns:xlink="http://www.w3.org/1999/xlink">
 <defs>
  <style type="text/css">
*{stroke-linecap:butt;stroke-linejoin:round;stroke-miterlimit:100000;}
  </style>
 </defs>
 <g id="figure_1">
  <g id="patch_1">
   <path d="M 0 432 
L 576 432 
L 576 0 
L 0 0 
z
" style="fill:#ffffff;"/>
  </g>
  <g id="axes_1">
   <g id="patch_2">
    <path d="M 72 388.8 
L 518.4 388.8 
L 518.4 43.2 
L 72 43.2 
z
" style="fill:#ffffff;"/>
   </g>
   <g id="line2d_1">
    <path clip-path="url(#p6cdf641052)" d="M 72.1488 354.170261 
L 75.72 352.629121 
L 79.44 351.266316 
L 83.4576 350.029223 
L 87.9216 348.892927 
L 92.5344 347.941403 
L 94.4688 347.759019 
L 96.2544 347.826271 
L 98.1888 348.135501 
L 100.1232 348.664966 
L 107.8608 351.201455 
L 114.1104 353.149402 
L 118.4256 354.229381 
L 120.0624 354.24 
L 245.2032 354.139687 
L 246.3936 353.930166 
L 251.1552 352.615147 
L 253.6848 351.46897 
L 264.8448 346.064818 
L 273.9216 341.466222 
L 277.6416 339.277897 
L 282.1056 336.300151 
L 286.4208 333.052383 
L 290.8848 329.37064 
L 295.4976 325.24367 
L 315.7344 306.11602 
L 319.752 302.521461 
L 323.7696 299.190357 
L 328.3824 295.629877 
L 333.2928 292.083524 
L 338.9472 288.300233 
L 345.048 284.462997 
L 351.1488 280.843334 
L 374.2128 267.766373 
L 385.8192 261.448404 
L 395.7888 256.254965 
L 406.9488 250.721742 
L 416.1744 246.368119 
L 421.5312 244.171104 
L 432.5424 239.689596 
L 439.3872 236.925089 
L 444.4464 235.0699 
L 449.0592 233.647667 
L 462.7488 229.624896 
L 480.6048 223.779221 
L 497.1216 218.532707 
L 518.4 212.096581 
L 518.4 212.096581 
" style="fill:none;stroke:#ff0000;stroke-linecap:square;"/>
   </g>
   <g id="line2d_2">
    <path clip-path="url(#p6cdf641052)" d="M 72.1488 278.447803 
L 72.2976 278.447803 
L 72.4464 354.24 
L 77.8032 354.24 
L 77.952 351.892832 
L 79.8864 351.167343 
L 88.6656 348.756161 
L 90.3024 348.414755 
L 91.4928 348.158701 
L 91.9392 348.212247 
L 96.1056 350.426732 
L 101.76 353.660713 
L 102.2064 353.981742 
L 102.504 354.061379 
L 105.1824 355.368905 
L 105.48 355.520363 
L 105.6288 350.377841 
L 108.6048 351.338047 
L 109.7952 351.743466 
L 110.2416 351.892832 
L 110.3904 354.24 
L 245.7984 354.143827 
L 246.84 353.564614 
L 247.1376 353.467716 
L 248.4768 352.689391 
L 248.7744 352.591768 
L 249.9648 351.904784 
L 250.2624 351.806194 
L 251.8992 350.816675 
L 252.1968 350.717361 
L 263.208 343.236162 
L 277.1952 333.505531 
L 277.6416 332.97392 
L 278.3856 332.547909 
L 278.6832 332.441345 
L 279.4272 331.801962 
L 279.8736 331.268661 
L 281.9568 329.666583 
L 282.2544 329.346169 
L 282.4032 329.346169 
L 282.7008 329.025027 
L 283.7424 328.168653 
L 283.8912 327.954559 
L 284.04 327.954559 
L 284.4864 327.419324 
L 285.8256 326.348857 
L 286.1232 326.027716 
L 287.016 325.278388 
L 287.3136 324.957247 
L 289.0992 323.565637 
L 289.3968 323.244498 
L 289.992 322.709264 
L 290.4384 322.17451 
L 290.8848 321.747292 
L 291.1824 321.426875 
L 292.6704 320.252018 
L 292.968 319.931601 
L 293.4144 319.611911 
L 293.5632 319.292221 
L 293.712 319.292221 
L 294.0096 318.865964 
L 295.0512 317.480881 
L 296.2416 316.523985 
L 296.688 315.992856 
L 298.3248 314.720617 
L 298.6224 314.403102 
L 301.4496 312.291887 
L 301.7472 311.975821 
L 304.5744 309.874996 
L 304.872 309.56038 
L 306.8064 308.097117 
L 307.104 307.785683 
L 309.9312 305.731205 
L 310.2288 305.426758 
L 312.4608 303.817053 
L 312.7584 303.518232 
L 313.3536 303.021968 
L 313.8 302.527109 
L 314.9904 301.838918 
L 315.288 301.741109 
L 316.3296 301.15819 
L 316.6272 301.061465 
L 317.6688 300.484124 
L 317.9664 300.484124 
L 318.264 300.197121 
L 318.5616 300.101697 
L 319.4544 299.626487 
L 319.752 299.531849 
L 320.6448 299.060392 
L 320.9424 298.966388 
L 321.8352 298.498025 
L 322.1328 298.404622 
L 323.1744 297.847155 
L 323.472 297.754711 
L 324.3648 297.293847 
L 324.96 297.201993 
L 328.68 295.021555 
L 328.9776 294.931471 
L 329.8704 294.482543 
L 330.168 294.392997 
L 331.2096 293.857771 
L 331.5072 293.768896 
L 332.4 293.325704 
L 332.6976 293.237357 
L 333.7392 292.708085 
L 334.0368 292.62011 
L 335.376 291.918819 
L 335.6736 291.831478 
L 336.5664 291.3952 
L 336.864 291.308168 
L 339.096 290.095149 
L 339.3936 290.008907 
L 340.7328 289.320812 
L 341.0304 289.235034 
L 342.816 288.294834 
L 343.1136 288.209705 
L 345.1968 287.106364 
L 345.4944 287.021803 
L 346.8336 286.347343 
L 347.1312 286.263239 
L 348.3216 285.675759 
L 348.6192 285.592031 
L 349.6608 285.090491 
L 349.9584 285.007102 
L 357.2496 281.04494 
L 370.4928 273.895012 
L 381.3552 268.283088 
L 392.3664 262.843633 
L 404.1216 257.230662 
L 404.2704 257.230662 
L 404.568 257.025399 
L 404.8656 256.957069 
L 405.312 256.684013 
L 411.7104 253.656572 
L 412.1568 253.391068 
L 427.1856 246.626963 
L 428.0784 246.000568 
L 429.4176 245.376585 
L 429.864 245.127917 
L 431.0544 244.570288 
L 431.5008 244.323286 
L 432.9888 243.646525 
L 433.4352 243.40133 
L 442.512 239.786696 
L 443.8512 239.372961 
L 445.7856 238.726545 
L 447.2736 238.25903 
L 447.5712 238.200722 
L 449.208 237.677634 
L 449.5056 237.619657 
L 450.9936 237.1572 
L 451.2912 237.099548 
L 452.7792 236.639385 
L 453.0768 236.582013 
L 463.6416 232.627004 
L 477.3312 227.630427 
L 491.1696 222.815871 
L 505.1568 218.183326 
L 518.4 213.959273 
L 518.4 213.959273 
" style="fill:none;stroke:#bfbf00;stroke-dasharray:6.000000,6.000000;stroke-dashoffset:0.0;"/>
   </g>
   <g id="line2d_3">
    <path clip-path="url(#p6cdf641052)" d="M 72.1488 354.24 
L 72.2976 354.24 
L 72.4464 292.470054 
L 72.744 292.522648 
L 72.8928 354.518375 
L 73.9344 354.587963 
L 74.232 354.665288 
L 75.1248 354.742613 
L 75.4224 354.819938 
L 76.3152 354.897263 
L 76.6128 354.974588 
L 77.5056 355.051913 
L 77.8032 355.129238 
L 78.1008 355.129238 
L 78.2496 355.399876 
L 78.3984 354.735289 
L 80.7792 354.727841 
L 80.928 354.957641 
L 82.416 354.952034 
L 82.5648 354.989222 
L 82.7136 355.224379 
L 84.3504 355.195676 
L 84.4992 355.461163 
L 85.9872 355.425423 
L 86.136 355.711459 
L 87.3264 355.698673 
L 87.4752 355.935695 
L 88.6656 355.921771 
L 88.8144 356.15733 
L 90.0048 356.147939 
L 90.3024 356.436288 
L 91.1952 356.390219 
L 91.4928 356.680919 
L 92.3856 356.632677 
L 92.5344 356.860243 
L 93.7248 356.881738 
L 93.8736 357.109207 
L 94.6176 357.088781 
L 94.7664 357.321143 
L 95.9568 357.313956 
L 96.1056 357.552917 
L 96.9984 357.575214 
L 97.1472 357.815009 
L 98.1888 357.781575 
L 98.3376 358.028229 
L 99.3792 358.017547 
L 99.528 358.272715 
L 101.76 358.486133 
L 101.9088 358.759906 
L 102.3552 358.703506 
L 102.6528 358.765862 
L 102.9504 358.68249 
L 103.248 358.736423 
L 103.3968 358.984198 
L 103.6944 358.925759 
L 104.1408 359.008581 
L 104.4384 358.94135 
L 106.3728 359.229695 
L 106.6704 359.188749 
L 106.968 359.20775 
L 107.1168 359.465631 
L 107.4144 359.403778 
L 108.6048 359.469032 
L 108.9024 359.407239 
L 109.3488 359.475569 
L 109.6464 359.641297 
L 110.0928 359.711615 
L 110.3904 359.648138 
L 110.8368 359.718333 
L 110.9856 360.553076 
L 112.4736 360.473749 
L 112.6224 360.389737 
L 112.7712 360.652301 
L 114.1104 360.560069 
L 114.408 360.463645 
L 115.896 360.363205 
L 116.1936 360.258911 
L 117.8304 360.15092 
L 118.128 360.039378 
L 221.544 360.039378 
L 221.8416 359.924427 
L 221.9904 359.924427 
L 222.4368 359.684815 
L 222.5856 359.684815 
L 223.032 359.433064 
L 223.1808 359.433064 
L 223.776 359.03459 
L 223.9248 359.03459 
L 224.2224 358.896602 
L 224.3712 358.896602 
L 225.1152 358.259964 
L 225.4128 358.259964 
L 225.8592 357.968081 
L 226.008 357.968081 
L 226.4544 357.667811 
L 226.6032 357.667811 
L 227.496 356.8533 
L 227.7936 356.8533 
L 228.5376 356.188021 
L 228.6864 356.188021 
L 228.984 356.026538 
L 229.1328 356.026538 
L 230.0256 355.188949 
L 230.3232 355.188949 
L 230.472 355.021619 
L 230.6208 354.680083 
L 230.9184 354.680083 
L 231.0672 354.511595 
L 231.216 354.511595 
L 231.3648 354.341743 
L 231.5136 354.341743 
L 231.6624 354.002559 
L 231.96 354.002559 
L 232.2576 353.659418 
L 232.5552 353.659418 
L 232.704 353.32248 
L 232.8528 353.32248 
L 233.448 352.640047 
L 233.5968 352.640047 
L 234.0432 352.131724 
L 234.192 352.131724 
L 234.3408 351.95544 
L 234.4896 351.95544 
L 234.6384 351.624248 
L 234.7872 351.624248 
L 234.936 351.447071 
L 235.0848 351.447071 
L 235.2336 351.117576 
L 235.3824 351.117576 
L 235.5312 350.939529 
L 235.68 350.939529 
L 236.1264 350.432774 
L 236.424 350.432774 
L 236.5728 350.10649 
L 236.8704 350.10649 
L 237.0192 349.926769 
L 237.168 349.926769 
L 237.3168 349.602006 
L 237.4656 349.602006 
L 238.3584 348.594988 
L 238.5072 348.594988 
L 238.9536 348.092396 
L 239.1024 348.092396 
L 239.2512 347.77307 
L 239.4 347.77307 
L 239.5488 347.59038 
L 239.8464 347.59038 
L 239.9952 347.272341 
L 240.2928 347.272341 
L 240.4416 346.955422 
L 240.7392 346.955422 
L 241.0368 346.456413 
L 241.1856 346.456413 
L 241.3344 346.141769 
L 241.4832 346.141769 
L 241.632 345.957852 
L 241.7808 345.957852 
L 241.9296 345.644349 
L 242.0784 345.644349 
L 242.2272 345.331856 
L 242.5248 345.331856 
L 242.8224 344.835909 
L 242.9712 344.835909 
L 243.12 344.525454 
L 243.4176 344.525454 
L 244.1616 343.722348 
L 244.3104 343.722348 
L 244.4592 343.414722 
L 244.608 343.414722 
L 244.7568 343.107974 
L 244.9056 343.107974 
L 245.0544 342.922343 
L 245.2032 342.922343 
L 245.9472 342.192826 
L 246.096 342.007339 
L 246.2448 342.007339 
L 247.584 340.983916 
L 247.7328 340.983916 
L 247.8816 340.683603 
L 248.0304 340.683603 
L 248.6256 340.269808 
L 248.7744 340.269808 
L 248.9232 339.971667 
L 249.072 339.971667 
L 249.2208 339.674226 
L 249.5184 339.674226 
L 249.816 339.265366 
L 250.1136 339.265366 
L 250.7088 338.675237 
L 251.0064 338.564495 
L 251.1552 338.564495 
L 251.304 338.27107 
L 251.7504 338.161 
L 251.8992 337.86886 
L 252.3456 337.759449 
L 252.4944 337.468567 
L 253.0896 337.359813 
L 253.3872 336.962051 
L 253.536 336.962051 
L 253.6848 335.175313 
L 253.8336 334.957693 
L 253.9824 334.957693 
L 254.1312 334.619655 
L 254.28 334.570067 
L 255.024 333.800998 
L 255.4704 333.536414 
L 255.6192 333.200836 
L 256.2144 332.887594 
L 256.9584 332.077683 
L 257.1072 331.727724 
L 257.4048 331.677966 
L 257.8512 331.321524 
L 258 331.255293 
L 258.1488 330.923192 
L 258.5952 330.663202 
L 259.6368 329.721502 
L 259.7856 329.325522 
L 260.232 329.067983 
L 260.3808 328.722361 
L 260.8272 328.465586 
L 262.464 326.938564 
L 262.6128 326.938564 
L 263.3568 326.138219 
L 264.3984 325.271847 
L 264.5472 325.205274 
L 264.8448 324.814613 
L 265.2912 324.478484 
L 265.44 324.428499 
L 265.7376 323.888137 
L 265.8864 323.888137 
L 266.184 323.704506 
L 266.3328 323.315514 
L 266.4816 323.315514 
L 266.928 322.966546 
L 267.0768 322.916482 
L 267.2256 322.578352 
L 267.5232 322.379585 
L 268.7136 321.267561 
L 269.0112 320.8811 
L 270.3504 319.827388 
L 270.648 319.63188 
L 271.0944 319.119098 
L 271.2432 319.052121 
L 271.5408 318.540198 
L 272.136 318.20226 
L 272.2848 317.818679 
L 272.5824 317.768323 
L 272.7312 317.498999 
L 273.0288 317.431941 
L 273.3264 317.238912 
L 273.624 316.839255 
L 273.7728 316.571892 
L 274.0704 316.504775 
L 274.2192 316.122407 
L 274.368 316.122407 
L 274.9632 315.631493 
L 275.2608 315.44026 
L 278.088 312.624095 
L 278.3856 312.393413 
L 278.5344 312.393413 
L 279.576 311.445038 
L 279.7248 311.445038 
L 280.0224 310.896291 
L 280.32 310.742965 
L 280.4688 310.675479 
L 280.6176 310.370405 
L 280.7664 310.370405 
L 281.064 310.064733 
L 281.3616 309.928991 
L 281.5104 309.928991 
L 281.6592 309.539916 
L 281.9568 309.455539 
L 282.2544 309.084019 
L 282.4032 309.084019 
L 282.552 308.65645 
L 282.7008 308.65645 
L 283.7424 307.73146 
L 284.04 307.646865 
L 284.1888 307.261076 
L 284.3376 307.261076 
L 284.9328 306.624302 
L 285.0816 306.624302 
L 285.3792 306.223122 
L 285.528 306.158199 
L 285.6768 305.971924 
L 285.8256 305.971924 
L 286.1232 305.486825 
L 286.272 305.486825 
L 286.5696 305.171917 
L 286.8672 304.92139 
L 287.016 304.92139 
L 287.3136 304.357257 
L 287.76 304.255407 
L 288.9504 303.176356 
L 289.0992 303.113929 
L 289.248 302.762651 
L 289.3968 302.762651 
L 289.5456 302.598529 
L 289.6944 302.247303 
L 289.992 302.185624 
L 290.1408 301.936801 
L 290.5872 301.863832 
L 290.8848 301.434951 
L 291.0336 301.373818 
L 291.6288 300.741402 
L 291.7776 300.741402 
L 292.968 299.459562 
L 293.1168 299.550432 
L 293.5632 299.124099 
L 293.712 299.124099 
L 294.0096 298.681125 
L 294.3072 298.417063 
L 294.456 298.417063 
L 294.7536 297.974664 
L 295.0512 297.887441 
L 295.3488 297.623777 
L 295.4976 297.623777 
L 296.3904 296.529207 
L 296.688 296.620416 
L 297.7296 295.408249 
L 298.176 295.322685 
L 299.0688 294.289473 
L 299.3664 294.324895 
L 300.2592 293.29339 
L 300.408 293.29339 
L 300.5568 293.117455 
L 300.7056 293.209121 
L 301.7472 292.003601 
L 301.896 292.003601 
L 302.0448 291.845489 
L 302.1936 291.920021 
L 302.7888 291.222907 
L 302.9376 291.159636 
L 303.6816 290.254832 
L 303.8304 290.19148 
L 303.9792 289.973768 
L 304.2768 289.910349 
L 304.872 289.121514 
L 305.1696 289.006851 
L 305.3184 288.943351 
L 306.0624 287.937999 
L 306.2112 287.883393 
L 306.36 287.657209 
L 306.6576 287.60255 
L 306.8064 287.479547 
L 307.104 286.981996 
L 307.6992 286.637558 
L 308.1456 286.131106 
L 308.592 285.673532 
L 309.1872 284.951212 
L 309.4848 284.887145 
L 309.6336 284.670894 
L 309.7824 284.710479 
L 310.5264 283.708755 
L 311.1216 283.364346 
L 311.7168 282.683279 
L 311.8656 282.683279 
L 312.312 282.187726 
L 312.6096 281.947619 
L 312.9072 281.66775 
L 313.056 281.66775 
L 313.8 280.66846 
L 314.0976 280.603802 
L 314.2464 280.484066 
L 314.3952 280.204448 
L 314.544 280.204448 
L 314.8416 279.860098 
L 314.9904 279.640617 
L 315.1392 279.640617 
L 315.4368 279.237236 
L 315.7344 279.209486 
L 316.032 278.678397 
L 316.1808 278.650589 
L 316.3296 278.463886 
L 316.4784 278.463886 
L 316.6272 278.119581 
L 316.776 278.063831 
L 316.9248 277.844822 
L 317.0736 277.844822 
L 317.6688 277.172626 
L 317.9664 277.172626 
L 318.264 276.679404 
L 318.4128 276.679404 
L 318.7104 276.288397 
L 318.8592 276.074528 
L 319.008 276.074528 
L 319.1568 275.804717 
L 319.3056 275.882413 
L 319.4544 275.696647 
L 319.6032 275.696647 
L 319.9008 275.148073 
L 320.1984 275.120051 
L 320.496 274.608917 
L 320.7936 274.580843 
L 321.0912 274.069856 
L 321.3888 274.041738 
L 321.6864 273.540286 
L 321.984 273.512116 
L 322.2816 273.001432 
L 322.4304 272.977915 
L 322.5792 272.797872 
L 322.728 272.797872 
L 323.0256 272.393997 
L 323.3232 272.365812 
L 323.6208 271.846308 
L 323.9184 271.794526 
L 324.216 271.317549 
L 324.6624 271.265679 
L 324.8112 271.265679 
L 325.1088 270.590732 
L 325.4064 270.590732 
L 326.0016 269.807715 
L 326.1504 269.760409 
L 326.7456 269.039233 
L 327.0432 268.991838 
L 327.192 268.78948 
L 327.3408 268.78948 
L 327.6384 268.271141 
L 327.7872 268.247403 
L 327.936 268.069005 
L 328.0848 268.069005 
L 328.2336 267.762455 
L 328.3824 267.738688 
L 329.1264 266.887068 
L 329.424 266.863205 
L 329.5728 266.435975 
L 329.7216 266.378684 
L 329.8704 266.200986 
L 330.0192 266.200986 
L 330.3168 265.880057 
L 330.4656 265.702528 
L 330.6144 265.702528 
L 330.912 265.372049 
L 331.2096 265.170783 
L 331.3584 265.170783 
L 331.656 264.696631 
L 331.9536 264.672686 
L 332.2512 264.174789 
L 332.5488 264.126819 
L 332.6976 263.725082 
L 332.8464 263.701094 
L 332.9952 263.52431 
L 333.144 263.52431 
L 333.2928 263.118783 
L 333.4416 263.094728 
L 333.888 262.631055 
L 334.0368 262.606978 
L 334.4832 262.143548 
L 334.7808 262.095342 
L 335.2272 261.475385 
L 335.5248 261.456102 
L 335.8224 260.859772 
L 336.12 260.835592 
L 336.4176 260.372966 
L 336.7152 260.348771 
L 337.0128 259.88638 
L 337.3104 259.862163 
L 337.7568 259.409699 
L 337.9056 259.409699 
L 338.2032 258.862173 
L 338.352 258.837889 
L 338.7984 258.376192 
L 338.9472 258.3373 
L 339.096 258.13815 
L 339.3936 258.099243 
L 339.5424 257.710869 
L 339.6912 257.662235 
L 339.9888 257.314036 
L 340.1376 257.314036 
L 340.4352 256.88716 
L 340.584 256.862781 
L 340.7328 256.688445 
L 341.0304 256.600654 
L 341.1792 256.213217 
L 341.328 256.174184 
L 341.7744 255.627573 
L 341.9232 255.588445 
L 342.072 255.399906 
L 342.2208 255.399906 
L 342.5184 255.11357 
L 342.816 254.736854 
L 343.1136 254.687911 
L 343.4112 254.151542 
L 343.56 254.112303 
L 343.7088 253.924237 
L 343.8576 253.924237 
L 344.1552 253.474715 
L 344.304 253.474715 
L 344.4528 253.22306 
L 344.6016 253.22306 
L 344.7504 252.914195 
L 344.8992 252.874846 
L 345.1968 252.637991 
L 345.3456 252.637991 
L 345.9408 251.986856 
L 346.0896 251.986856 
L 347.1312 250.801217 
L 347.28 250.76175 
L 347.5776 250.453077 
L 347.7264 250.453077 
L 347.8752 250.039858 
L 348.024 250.000317 
L 348.3216 249.803697 
L 348.4704 249.803697 
L 348.9168 249.072573 
L 349.2144 249.052773 
L 349.512 248.590862 
L 349.8096 248.57104 
L 349.9584 248.40458 
L 350.256 247.840675 
L 350.7024 247.614948 
L 351 247.193456 
L 351.1488 247.153745 
L 351.2976 246.855403 
L 351.4464 246.815612 
L 352.0416 246.218906 
L 352.1904 246.179115 
L 352.7856 245.470298 
L 352.9344 245.43044 
L 353.5296 244.835003 
L 355.3152 243.115635 
L 355.464 243.075629 
L 356.208 242.154713 
L 356.3568 242.154713 
L 356.8032 241.746332 
L 356.952 241.706268 
L 357.9936 240.593052 
L 358.1424 240.552921 
L 358.2912 240.25556 
L 358.44 240.215356 
L 359.184 239.441284 
L 359.3328 239.401094 
L 359.4816 239.103932 
L 359.6304 239.063668 
L 360.2256 238.433771 
L 360.3744 238.433771 
L 361.7136 236.805218 
L 362.0112 236.764836 
L 362.7552 235.995064 
L 362.904 235.954689 
L 363.0528 235.65814 
L 363.2016 235.617699 
L 363.3504 235.253616 
L 363.4992 235.213175 
L 364.0944 234.522691 
L 364.2432 234.482198 
L 364.6896 234.07836 
L 364.8384 234.07836 
L 366.1776 232.572611 
L 366.3264 232.572611 
L 369.0048 229.826285 
L 369.1536 229.785594 
L 370.1952 228.519118 
L 370.4928 228.478382 
L 371.832 226.878707 
L 371.9808 226.878707 
L 372.1296 226.658658 
L 372.2784 226.658658 
L 373.4688 225.397699 
L 373.6176 225.35683 
L 374.808 224.098245 
L 374.9568 224.057347 
L 376.296 222.50733 
L 376.4448 222.47658 
L 377.784 221.045761 
L 377.9328 221.004745 
L 378.9744 219.931033 
L 380.9088 217.839832 
L 381.0576 217.798728 
L 381.9504 216.771017 
L 382.0992 216.740178 
L 383.2896 215.497447 
L 385.224 213.430419 
L 385.3728 213.389226 
L 385.6704 212.912788 
L 385.8192 212.912788 
L 386.1168 212.368491 
L 386.2656 212.337593 
L 386.712 211.708124 
L 386.8608 211.666872 
L 387.7536 210.674572 
L 387.9024 210.674572 
L 388.4976 209.816264 
L 388.6464 209.774983 
L 388.7952 209.611731 
L 388.944 209.264726 
L 389.0928 209.264726 
L 392.9616 205.359508 
L 393.408 204.705792 
L 394.0032 204.052607 
L 395.0448 202.89617 
L 395.4912 202.683555 
L 396.5328 201.529891 
L 396.6816 201.210953 
L 396.8304 201.210953 
L 397.872 200.070475 
L 398.0208 199.74021 
L 398.1696 199.698869 
L 398.616 199.0817 
L 400.848 196.811849 
L 400.9968 196.811849 
L 401.1456 196.325426 
L 401.2944 196.325426 
L 402.0384 195.353318 
L 402.1872 195.322287 
L 402.336 195.153563 
L 402.4848 195.153563 
L 402.6336 194.719851 
L 402.7824 194.719851 
L 402.9312 194.393214 
L 403.08 194.351845 
L 410.0736 186.825687 
L 410.3712 186.390929 
L 410.52 186.357626 
L 410.9664 185.774644 
L 411.264 185.320344 
L 412.6032 183.982411 
L 412.752 183.680508 
L 413.0496 183.646129 
L 414.0912 182.472452 
L 414.3888 182.054683 
L 414.6864 181.865311 
L 415.5792 180.869635 
L 415.8768 180.442014 
L 416.6208 179.710352 
L 417.0672 179.016785 
L 418.2576 177.839376 
L 418.5552 177.463464 
L 419.2992 176.653826 
L 419.8944 175.971498 
L 420.0432 175.971498 
L 420.192 175.713471 
L 420.3408 175.713471 
L 420.4896 175.401568 
L 420.6384 175.401568 
L 420.7872 175.144471 
L 420.936 175.144471 
L 421.0848 174.735301 
L 421.2336 174.735301 
L 421.3824 174.601177 
L 421.5312 174.204957 
L 421.68 174.204957 
L 421.8288 173.937963 
L 421.9776 173.937963 
L 422.7216 173.144578 
L 422.8704 172.750186 
L 423.0192 172.750186 
L 423.7632 171.961594 
L 423.912 171.699704 
L 424.0608 171.699704 
L 424.5072 171.138432 
L 424.656 171.138432 
L 424.9536 170.746267 
L 425.2512 170.499272 
L 425.4 170.095014 
L 425.5488 170.095014 
L 425.6976 169.9785 
L 425.8464 169.574698 
L 425.9952 169.574698 
L 426.144 169.458642 
L 426.5904 168.811386 
L 427.0368 168.440636 
L 427.3344 168.051553 
L 428.2272 167.155488 
L 428.5248 166.754637 
L 428.6736 166.754637 
L 429.12 166.376719 
L 429.5664 165.64047 
L 430.4592 164.867659 
L 430.9056 164.221302 
L 431.0544 164.097635 
L 431.352 163.699837 
L 431.7984 163.330355 
L 431.9472 163.056091 
L 432.096 163.056091 
L 432.2448 162.810586 
L 432.5424 162.701476 
L 432.9888 162.060753 
L 433.1376 161.938885 
L 433.4352 161.543019 
L 433.7328 161.219361 
L 434.0304 160.824232 
L 434.4768 160.461962 
L 434.6256 160.187949 
L 434.7744 160.187949 
L 434.9232 159.947193 
L 435.072 159.947193 
L 435.2208 159.827051 
L 435.5184 159.433072 
L 436.2624 158.694256 
L 436.4112 158.377914 
L 436.56 158.377914 
L 436.8576 157.998964 
L 437.1552 157.761763 
L 437.6016 157.147012 
L 437.7504 157.147012 
L 437.8992 157.029038 
L 438.4944 156.066384 
L 438.9408 155.728862 
L 439.2384 155.352287 
L 439.536 155.235581 
L 439.8336 154.668262 
L 440.1312 154.565995 
L 440.28 154.449983 
L 440.5776 154.074573 
L 440.8752 153.843182 
L 441.024 153.569803 
L 441.3216 153.468259 
L 441.6192 152.912075 
L 441.9168 152.818082 
L 442.0656 152.301292 
L 442.2144 152.301292 
L 442.3632 152.114265 
L 442.6608 152.114265 
L 442.8096 151.626603 
L 443.4048 151.312797 
L 443.7024 150.847598 
L 443.8512 150.847598 
L 444 150.283892 
L 444.1488 150.283892 
L 444.2976 150.114283 
L 444.5952 150.114283 
L 444.744 149.531449 
L 444.8928 149.531449 
L 445.0416 149.167351 
L 445.488 149.062046 
L 445.7856 148.593233 
L 445.9344 148.440305 
L 446.0832 147.958365 
L 446.3808 147.958365 
L 446.6784 147.533916 
L 446.8272 147.533916 
L 446.976 147.067359 
L 447.1248 147.067359 
L 447.4224 146.902396 
L 447.5712 146.902396 
L 447.72 146.362008 
L 448.0176 146.362008 
L 448.1664 145.890142 
L 448.3152 145.890142 
L 448.464 145.698337 
L 448.7616 145.698337 
L 449.0592 145.182166 
L 449.208 144.814528 
L 449.5056 144.814528 
L 449.8032 144.233891 
L 449.952 144.233891 
L 450.2496 143.713797 
L 450.5472 143.640998 
L 450.696 143.245795 
L 450.8448 143.166005 
L 450.9936 142.857686 
L 451.1424 142.857686 
L 451.5888 142.268436 
L 451.7376 142.268436 
L 452.184 141.73088 
L 452.3328 141.73088 
L 452.4816 141.287345 
L 452.928 141.130524 
L 453.0768 140.687978 
L 453.2256 140.609943 
L 453.3744 140.352875 
L 453.5232 140.352875 
L 453.9696 139.770469 
L 454.1184 139.770469 
L 454.2672 139.344235 
L 454.5648 139.267026 
L 454.7136 139.175349 
L 454.8624 138.826958 
L 455.0112 138.826958 
L 455.16 138.581984 
L 455.3088 138.581984 
L 455.6064 138.234124 
L 456.0528 137.733837 
L 456.2016 137.339784 
L 456.4992 137.249228 
L 456.7968 137.068337 
L 457.0944 136.55603 
L 457.392 136.149205 
L 457.8384 135.969641 
L 458.136 135.47428 
L 458.2848 135.47428 
L 458.7312 134.709198 
L 458.88 134.709198 
L 459.624 133.89071 
L 459.9216 133.472957 
L 460.2192 133.296475 
L 460.5168 132.879548 
L 460.6656 132.791616 
L 460.9632 132.390131 
L 461.4096 132.200036 
L 461.7072 131.799376 
L 461.856 131.71205 
L 462.1536 131.297202 
L 462.4512 131.123095 
L 462.7488 130.709028 
L 462.8976 130.622262 
L 463.1952 130.223697 
L 463.4928 129.979254 
L 463.7904 129.638075 
L 464.3856 128.997794 
L 464.6832 128.500856 
L 464.9808 128.415284 
L 465.1296 128.004743 
L 465.4272 127.934348 
L 465.576 127.864041 
L 465.8736 127.324361 
L 466.0224 127.324361 
L 466.32 126.930087 
L 466.4688 126.690836 
L 466.6176 126.690836 
L 466.7664 126.297491 
L 466.9152 126.297491 
L 467.064 126.11368 
L 467.2128 126.11368 
L 467.5104 125.721072 
L 467.808 125.483812 
L 468.1056 125.130937 
L 468.4032 124.739451 
L 468.552 124.503518 
L 468.8496 124.419997 
L 469.1472 124.014529 
L 469.296 123.931214 
L 469.4448 123.54132 
L 469.5936 123.54132 
L 469.7424 123.307275 
L 469.8912 123.307275 
L 470.1888 122.820425 
L 470.784 122.199553 
L 471.0816 121.796814 
L 471.3792 121.714605 
L 471.528 121.632441 
L 471.8256 121.230365 
L 472.4208 120.613609 
L 472.5696 120.212713 
L 473.016 119.902196 
L 473.3136 119.517362 
L 473.4624 119.43623 
L 473.76 119.036764 
L 474.0576 118.809267 
L 474.2064 118.55686 
L 474.3552 118.55686 
L 475.248 117.72094 
L 475.5456 117.258528 
L 476.736 116.032434 
L 477.0336 115.652171 
L 477.6288 115.177812 
L 477.7776 114.955596 
L 477.9264 114.955596 
L 478.3728 114.355196 
L 478.5216 114.355196 
L 478.8192 113.883005 
L 478.968 113.883005 
L 479.2656 113.505176 
L 479.712 112.986291 
L 480.456 112.312473 
L 480.6048 112.234541 
L 480.9024 111.84332 
L 481.6464 111.125846 
L 481.944 110.735879 
L 482.2416 110.534767 
L 482.5392 110.145478 
L 482.688 110.068446 
L 482.9856 109.556523 
L 483.2832 109.479757 
L 483.5808 109.091559 
L 484.3248 108.382949 
L 484.6224 107.874344 
L 484.7712 107.874344 
L 485.0688 107.503225 
L 485.3664 107.30617 
L 485.9616 106.459247 
L 486.1104 106.459247 
L 486.5568 105.969358 
L 488.0448 104.602519 
L 488.3424 104.191004 
L 488.4912 104.116376 
L 488.9376 103.233762 
L 489.2352 103.233762 
L 489.9792 102.469107 
L 490.128 102.469107 
L 490.2768 102.060689 
L 490.4256 102.060689 
L 490.5744 101.680323 
L 491.1696 101.41653 
L 491.4672 100.994219 
L 491.616 100.920801 
L 491.7648 100.557041 
L 491.9136 100.557041 
L 492.2112 100.310386 
L 492.36 99.947306 
L 492.6576 99.8743 
L 492.9552 99.454142 
L 493.2528 99.266541 
L 493.5504 98.774675 
L 493.6992 98.774675 
L 493.9968 98.413158 
L 494.1456 98.340684 
L 494.2944 97.92262 
L 494.592 97.850323 
L 494.7408 97.448335 
L 495.336 97.175428 
L 495.6336 96.702647 
L 495.7824 96.702647 
L 496.08 96.286884 
L 496.3776 96.102793 
L 496.824 95.369995 
L 496.9728 95.369995 
L 497.4192 95.075082 
L 497.568 94.66162 
L 497.8656 94.590503 
L 498.1632 94.193087 
L 498.312 94.122117 
L 498.6096 93.709865 
L 498.9072 93.528487 
L 499.2048 93.172249 
L 499.3536 93.061989 
L 499.5024 92.690708 
L 499.8 92.580772 
L 500.0976 92.115779 
L 500.9904 91.456842 
L 501.1392 91.172548 
L 501.288 91.172548 
L 501.8832 90.546972 
L 502.032 90.407628 
L 502.4784 89.647545 
L 502.776 89.539674 
L 502.9248 89.470326 
L 503.0736 89.079724 
L 503.3712 88.995008 
L 503.52 88.887639 
L 503.8176 88.535885 
L 503.9664 88.42881 
L 504.264 87.970719 
L 504.4128 87.864028 
L 504.5616 87.566549 
L 504.8592 87.497821 
L 505.008 87.109727 
L 505.3056 87.003566 
L 505.6032 86.829061 
L 505.9008 86.44197 
L 506.0496 86.358139 
L 506.3472 85.971579 
L 506.496 85.903411 
L 506.6448 85.517411 
L 506.9424 85.412312 
L 507.0912 85.344321 
L 507.3888 84.838887 
L 507.6864 84.838887 
L 507.984 84.386637 
L 508.1328 84.297821 
L 508.4304 83.935035 
L 508.5792 83.830999 
L 508.8768 83.364855 
L 509.0256 83.364855 
L 509.3232 82.9821 
L 509.6208 82.811459 
L 509.7696 82.429441 
L 509.9184 82.429441 
L 510.0672 82.083823 
L 510.216 82.083823 
L 510.3648 81.584347 
L 510.6624 81.517507 
L 510.96 81.312501 
L 511.1088 81.034638 
L 511.4064 80.932372 
L 511.5552 80.865796 
L 511.8528 80.384314 
L 512.0016 80.317887 
L 512.1504 80.025127 
L 512.448 79.92351 
L 512.5968 79.82198 
L 512.8944 79.47884 
L 513.192 79.276401 
L 513.3408 78.883322 
L 513.6384 78.817366 
L 513.936 78.471305 
L 514.3824 77.947701 
L 515.8704 76.391283 
L 516.168 76.326094 
L 516.3168 75.9521 
L 516.6144 75.85296 
L 516.912 75.479555 
L 517.0608 75.414632 
L 517.3584 75.026184 
L 517.656 74.829084 
L 517.9536 74.39229 
L 518.1024 74.39229 
L 518.4 73.922577 
L 518.4 73.922577 
" style="fill:none;stroke:#0000ff;stroke-linecap:square;"/>
   </g>
   <g id="line2d_4">
    <path clip-path="url(#p6cdf641052)" d="M 72.1488 233.956594 
L 91.6416 233.956594 
L 91.7904 268.323282 
L 94.6176 268.323282 
L 94.7664 251.139938 
L 97.5936 251.139938 
L 97.7424 233.956594 
L 100.5696 233.956594 
L 100.7184 216.77325 
L 103.3968 216.77325 
L 103.5456 199.589907 
L 106.5216 199.589907 
L 106.6704 182.406563 
L 518.4 182.406563 
L 518.4 182.406563 
" style="fill:none;stroke:#000000;stroke-linecap:square;"/>
   </g>
   <g id="line2d_5">
    <path clip-path="url(#p6cdf641052)" d="M 72.1488 354.24 
L 220.9488 354.24 
L 518.4 122.380848 
L 518.4 122.380848 
" style="fill:none;stroke:#bf00bf;stroke-linecap:square;"/>
   </g>
   <g id="patch_3">
    <path d="M 72 43.2 
L 518.4 43.2 
" style="fill:none;stroke:#000000;stroke-linecap:square;stroke-linejoin:miter;"/>
   </g>
   <g id="patch_4">
    <path d="M 518.4 388.8 
L 518.4 43.2 
" style="fill:none;stroke:#000000;stroke-linecap:square;stroke-linejoin:miter;"/>
   </g>
   <g id="patch_5">
    <path d="M 72 388.8 
L 518.4 388.8 
" style="fill:none;stroke:#000000;stroke-linecap:square;stroke-linejoin:miter;"/>
   </g>
   <g id="patch_6">
    <path d="M 72 388.8 
L 72 43.2 
" style="fill:none;stroke:#000000;stroke-linecap:square;stroke-linejoin:miter;"/>
   </g>
   <g id="matplotlib.axis_1">
    <g id="xtick_1">
     <g id="line2d_6">
      <path clip-path="url(#p6cdf641052)" d="M 72 388.8 
L 72 43.2 
" style="fill:none;stroke:#000000;stroke-dasharray:1.000000,3.000000;stroke-dashoffset:0.0;stroke-width:0.5;"/>
     </g>
     <g id="line2d_7">
      <defs>
       <path d="M 0 0 
L 0 -4 
" id="m0596ed256b" style="stroke:#000000;stroke-width:0.5;"/>
      </defs>
      <g>
       <use style="stroke:#000000;stroke-width:0.5;" x="72.0" xlink:href="#m0596ed256b" y="388.8"/>
      </g>
     </g>
     <g id="line2d_8">
      <defs>
       <path d="M 0 0 
L 0 4 
" id="m307550a545" style="stroke:#000000;stroke-width:0.5;"/>
      </defs>
      <g>
       <use style="stroke:#000000;stroke-width:0.5;" x="72.0" xlink:href="#m307550a545" y="43.2"/>
      </g>
     </g>
     <g id="text_1">
      <!-- 0 -->
      <defs>
       <path d="M 31.78125 66.40625 
Q 24.171875 66.40625 20.328125 58.90625 
Q 16.5 51.421875 16.5 36.375 
Q 16.5 21.390625 20.328125 13.890625 
Q 24.171875 6.390625 31.78125 6.390625 
Q 39.453125 6.390625 43.28125 13.890625 
Q 47.125 21.390625 47.125 36.375 
Q 47.125 51.421875 43.28125 58.90625 
Q 39.453125 66.40625 31.78125 66.40625 
M 31.78125 74.21875 
Q 44.046875 74.21875 50.515625 64.515625 
Q 56.984375 54.828125 56.984375 36.375 
Q 56.984375 17.96875 50.515625 8.265625 
Q 44.046875 -1.421875 31.78125 -1.421875 
Q 19.53125 -1.421875 13.0625 8.265625 
Q 6.59375 17.96875 6.59375 36.375 
Q 6.59375 54.828125 13.0625 64.515625 
Q 19.53125 74.21875 31.78125 74.21875 
" id="BitstreamVeraSans-Roman-30"/>
      </defs>
      <g transform="translate(68.1825 401.918125)scale(0.12 -0.12)">
       <use xlink:href="#BitstreamVeraSans-Roman-30"/>
      </g>
     </g>
    </g>
    <g id="xtick_2">
     <g id="line2d_9">
      <path clip-path="url(#p6cdf641052)" d="M 146.4 388.8 
L 146.4 43.2 
" style="fill:none;stroke:#000000;stroke-dasharray:1.000000,3.000000;stroke-dashoffset:0.0;stroke-width:0.5;"/>
     </g>
     <g id="line2d_10">
      <g>
       <use style="stroke:#000000;stroke-width:0.5;" x="146.4" xlink:href="#m0596ed256b" y="388.8"/>
      </g>
     </g>
     <g id="line2d_11">
      <g>
       <use style="stroke:#000000;stroke-width:0.5;" x="146.4" xlink:href="#m307550a545" y="43.2"/>
      </g>
     </g>
     <g id="text_2">
      <!-- 5 -->
      <defs>
       <path d="M 10.796875 72.90625 
L 49.515625 72.90625 
L 49.515625 64.59375 
L 19.828125 64.59375 
L 19.828125 46.734375 
Q 21.96875 47.46875 24.109375 47.828125 
Q 26.265625 48.1875 28.421875 48.1875 
Q 40.625 48.1875 47.75 41.5 
Q 54.890625 34.8125 54.890625 23.390625 
Q 54.890625 11.625 47.5625 5.09375 
Q 40.234375 -1.421875 26.90625 -1.421875 
Q 22.3125 -1.421875 17.546875 -0.640625 
Q 12.796875 0.140625 7.71875 1.703125 
L 7.71875 11.625 
Q 12.109375 9.234375 16.796875 8.0625 
Q 21.484375 6.890625 26.703125 6.890625 
Q 35.15625 6.890625 40.078125 11.328125 
Q 45.015625 15.765625 45.015625 23.390625 
Q 45.015625 31 40.078125 35.4375 
Q 35.15625 39.890625 26.703125 39.890625 
Q 22.75 39.890625 18.8125 39.015625 
Q 14.890625 38.140625 10.796875 36.28125 
z
" id="BitstreamVeraSans-Roman-35"/>
      </defs>
      <g transform="translate(142.5825 401.918125)scale(0.12 -0.12)">
       <use xlink:href="#BitstreamVeraSans-Roman-35"/>
      </g>
     </g>
    </g>
    <g id="xtick_3">
     <g id="line2d_12">
      <path clip-path="url(#p6cdf641052)" d="M 220.8 388.8 
L 220.8 43.2 
" style="fill:none;stroke:#000000;stroke-dasharray:1.000000,3.000000;stroke-dashoffset:0.0;stroke-width:0.5;"/>
     </g>
     <g id="line2d_13">
      <g>
       <use style="stroke:#000000;stroke-width:0.5;" x="220.8" xlink:href="#m0596ed256b" y="388.8"/>
      </g>
     </g>
     <g id="line2d_14">
      <g>
       <use style="stroke:#000000;stroke-width:0.5;" x="220.8" xlink:href="#m307550a545" y="43.2"/>
      </g>
     </g>
     <g id="text_3">
      <!-- 10 -->
      <defs>
       <path d="M 12.40625 8.296875 
L 28.515625 8.296875 
L 28.515625 63.921875 
L 10.984375 60.40625 
L 10.984375 69.390625 
L 28.421875 72.90625 
L 38.28125 72.90625 
L 38.28125 8.296875 
L 54.390625 8.296875 
L 54.390625 0 
L 12.40625 0 
z
" id="BitstreamVeraSans-Roman-31"/>
      </defs>
      <g transform="translate(213.165 401.918125)scale(0.12 -0.12)">
       <use xlink:href="#BitstreamVeraSans-Roman-31"/>
       <use x="63.623046875" xlink:href="#BitstreamVeraSans-Roman-30"/>
      </g>
     </g>
    </g>
    <g id="xtick_4">
     <g id="line2d_15">
      <path clip-path="url(#p6cdf641052)" d="M 295.2 388.8 
L 295.2 43.2 
" style="fill:none;stroke:#000000;stroke-dasharray:1.000000,3.000000;stroke-dashoffset:0.0;stroke-width:0.5;"/>
     </g>
     <g id="line2d_16">
      <g>
       <use style="stroke:#000000;stroke-width:0.5;" x="295.2" xlink:href="#m0596ed256b" y="388.8"/>
      </g>
     </g>
     <g id="line2d_17">
      <g>
       <use style="stroke:#000000;stroke-width:0.5;" x="295.2" xlink:href="#m307550a545" y="43.2"/>
      </g>
     </g>
     <g id="text_4">
      <!-- 15 -->
      <g transform="translate(287.565 401.918125)scale(0.12 -0.12)">
       <use xlink:href="#BitstreamVeraSans-Roman-31"/>
       <use x="63.623046875" xlink:href="#BitstreamVeraSans-Roman-35"/>
      </g>
     </g>
    </g>
    <g id="xtick_5">
     <g id="line2d_18">
      <path clip-path="url(#p6cdf641052)" d="M 369.6 388.8 
L 369.6 43.2 
" style="fill:none;stroke:#000000;stroke-dasharray:1.000000,3.000000;stroke-dashoffset:0.0;stroke-width:0.5;"/>
     </g>
     <g id="line2d_19">
      <g>
       <use style="stroke:#000000;stroke-width:0.5;" x="369.6" xlink:href="#m0596ed256b" y="388.8"/>
      </g>
     </g>
     <g id="line2d_20">
      <g>
       <use style="stroke:#000000;stroke-width:0.5;" x="369.6" xlink:href="#m307550a545" y="43.2"/>
      </g>
     </g>
     <g id="text_5">
      <!-- 20 -->
      <defs>
       <path d="M 19.1875 8.296875 
L 53.609375 8.296875 
L 53.609375 0 
L 7.328125 0 
L 7.328125 8.296875 
Q 12.9375 14.109375 22.625 23.890625 
Q 32.328125 33.6875 34.8125 36.53125 
Q 39.546875 41.84375 41.421875 45.53125 
Q 43.3125 49.21875 43.3125 52.78125 
Q 43.3125 58.59375 39.234375 62.25 
Q 35.15625 65.921875 28.609375 65.921875 
Q 23.96875 65.921875 18.8125 64.3125 
Q 13.671875 62.703125 7.8125 59.421875 
L 7.8125 69.390625 
Q 13.765625 71.78125 18.9375 73 
Q 24.125 74.21875 28.421875 74.21875 
Q 39.75 74.21875 46.484375 68.546875 
Q 53.21875 62.890625 53.21875 53.421875 
Q 53.21875 48.921875 51.53125 44.890625 
Q 49.859375 40.875 45.40625 35.40625 
Q 44.1875 33.984375 37.640625 27.21875 
Q 31.109375 20.453125 19.1875 8.296875 
" id="BitstreamVeraSans-Roman-32"/>
      </defs>
      <g transform="translate(361.965 401.918125)scale(0.12 -0.12)">
       <use xlink:href="#BitstreamVeraSans-Roman-32"/>
       <use x="63.623046875" xlink:href="#BitstreamVeraSans-Roman-30"/>
      </g>
     </g>
    </g>
    <g id="xtick_6">
     <g id="line2d_21">
      <path clip-path="url(#p6cdf641052)" d="M 444 388.8 
L 444 43.2 
" style="fill:none;stroke:#000000;stroke-dasharray:1.000000,3.000000;stroke-dashoffset:0.0;stroke-width:0.5;"/>
     </g>
     <g id="line2d_22">
      <g>
       <use style="stroke:#000000;stroke-width:0.5;" x="444.0" xlink:href="#m0596ed256b" y="388.8"/>
      </g>
     </g>
     <g id="line2d_23">
      <g>
       <use style="stroke:#000000;stroke-width:0.5;" x="444.0" xlink:href="#m307550a545" y="43.2"/>
      </g>
     </g>
     <g id="text_6">
      <!-- 25 -->
      <g transform="translate(436.365 401.918125)scale(0.12 -0.12)">
       <use xlink:href="#BitstreamVeraSans-Roman-32"/>
       <use x="63.623046875" xlink:href="#BitstreamVeraSans-Roman-35"/>
      </g>
     </g>
    </g>
    <g id="xtick_7">
     <g id="line2d_24">
      <path clip-path="url(#p6cdf641052)" d="M 518.4 388.8 
L 518.4 43.2 
" style="fill:none;stroke:#000000;stroke-dasharray:1.000000,3.000000;stroke-dashoffset:0.0;stroke-width:0.5;"/>
     </g>
     <g id="line2d_25">
      <g>
       <use style="stroke:#000000;stroke-width:0.5;" x="518.4" xlink:href="#m0596ed256b" y="388.8"/>
      </g>
     </g>
     <g id="line2d_26">
      <g>
       <use style="stroke:#000000;stroke-width:0.5;" x="518.4" xlink:href="#m307550a545" y="43.2"/>
      </g>
     </g>
     <g id="text_7">
      <!-- 30 -->
      <defs>
       <path d="M 40.578125 39.3125 
Q 47.65625 37.796875 51.625 33 
Q 55.609375 28.21875 55.609375 21.1875 
Q 55.609375 10.40625 48.1875 4.484375 
Q 40.765625 -1.421875 27.09375 -1.421875 
Q 22.515625 -1.421875 17.65625 -0.515625 
Q 12.796875 0.390625 7.625 2.203125 
L 7.625 11.71875 
Q 11.71875 9.328125 16.59375 8.109375 
Q 21.484375 6.890625 26.8125 6.890625 
Q 36.078125 6.890625 40.9375 10.546875 
Q 45.796875 14.203125 45.796875 21.1875 
Q 45.796875 27.640625 41.28125 31.265625 
Q 36.765625 34.90625 28.71875 34.90625 
L 20.21875 34.90625 
L 20.21875 43.015625 
L 29.109375 43.015625 
Q 36.375 43.015625 40.234375 45.921875 
Q 44.09375 48.828125 44.09375 54.296875 
Q 44.09375 59.90625 40.109375 62.90625 
Q 36.140625 65.921875 28.71875 65.921875 
Q 24.65625 65.921875 20.015625 65.03125 
Q 15.375 64.15625 9.8125 62.3125 
L 9.8125 71.09375 
Q 15.4375 72.65625 20.34375 73.4375 
Q 25.25 74.21875 29.59375 74.21875 
Q 40.828125 74.21875 47.359375 69.109375 
Q 53.90625 64.015625 53.90625 55.328125 
Q 53.90625 49.265625 50.4375 45.09375 
Q 46.96875 40.921875 40.578125 39.3125 
" id="BitstreamVeraSans-Roman-33"/>
      </defs>
      <g transform="translate(510.765 401.918125)scale(0.12 -0.12)">
       <use xlink:href="#BitstreamVeraSans-Roman-33"/>
       <use x="63.623046875" xlink:href="#BitstreamVeraSans-Roman-30"/>
      </g>
     </g>
    </g>
    <g id="text_8">
     <!-- Time [s] -->
     <defs>
      <path id="BitstreamVeraSans-Roman-20"/>
      <path d="M 8.59375 75.984375 
L 29.296875 75.984375 
L 29.296875 69 
L 17.578125 69 
L 17.578125 -6.203125 
L 29.296875 -6.203125 
L 29.296875 -13.1875 
L 8.59375 -13.1875 
z
" id="BitstreamVeraSans-Roman-5b"/>
      <path d="M 30.421875 75.984375 
L 30.421875 -13.1875 
L 9.71875 -13.1875 
L 9.71875 -6.203125 
L 21.390625 -6.203125 
L 21.390625 69 
L 9.71875 69 
L 9.71875 75.984375 
z
" id="BitstreamVeraSans-Roman-5d"/>
      <path d="M 52 44.1875 
Q 55.375 50.25 60.0625 53.125 
Q 64.75 56 71.09375 56 
Q 79.640625 56 84.28125 50.015625 
Q 88.921875 44.046875 88.921875 33.015625 
L 88.921875 0 
L 79.890625 0 
L 79.890625 32.71875 
Q 79.890625 40.578125 77.09375 44.375 
Q 74.3125 48.1875 68.609375 48.1875 
Q 61.625 48.1875 57.5625 43.546875 
Q 53.515625 38.921875 53.515625 30.90625 
L 53.515625 0 
L 44.484375 0 
L 44.484375 32.71875 
Q 44.484375 40.625 41.703125 44.40625 
Q 38.921875 48.1875 33.109375 48.1875 
Q 26.21875 48.1875 22.15625 43.53125 
Q 18.109375 38.875 18.109375 30.90625 
L 18.109375 0 
L 9.078125 0 
L 9.078125 54.6875 
L 18.109375 54.6875 
L 18.109375 46.1875 
Q 21.1875 51.21875 25.484375 53.609375 
Q 29.78125 56 35.6875 56 
Q 41.65625 56 45.828125 52.96875 
Q 50 49.953125 52 44.1875 
" id="BitstreamVeraSans-Roman-6d"/>
      <path d="M 9.421875 54.6875 
L 18.40625 54.6875 
L 18.40625 0 
L 9.421875 0 
z
M 9.421875 75.984375 
L 18.40625 75.984375 
L 18.40625 64.59375 
L 9.421875 64.59375 
z
" id="BitstreamVeraSans-Roman-69"/>
      <path d="M 56.203125 29.59375 
L 56.203125 25.203125 
L 14.890625 25.203125 
Q 15.484375 15.921875 20.484375 11.0625 
Q 25.484375 6.203125 34.421875 6.203125 
Q 39.59375 6.203125 44.453125 7.46875 
Q 49.3125 8.734375 54.109375 11.28125 
L 54.109375 2.78125 
Q 49.265625 0.734375 44.1875 -0.34375 
Q 39.109375 -1.421875 33.890625 -1.421875 
Q 20.796875 -1.421875 13.15625 6.1875 
Q 5.515625 13.8125 5.515625 26.8125 
Q 5.515625 40.234375 12.765625 48.109375 
Q 20.015625 56 32.328125 56 
Q 43.359375 56 49.78125 48.890625 
Q 56.203125 41.796875 56.203125 29.59375 
M 47.21875 32.234375 
Q 47.125 39.59375 43.09375 43.984375 
Q 39.0625 48.390625 32.421875 48.390625 
Q 24.90625 48.390625 20.390625 44.140625 
Q 15.875 39.890625 15.1875 32.171875 
z
" id="BitstreamVeraSans-Roman-65"/>
      <path d="M -0.296875 72.90625 
L 61.375 72.90625 
L 61.375 64.59375 
L 35.5 64.59375 
L 35.5 0 
L 25.59375 0 
L 25.59375 64.59375 
L -0.296875 64.59375 
z
" id="BitstreamVeraSans-Roman-54"/>
      <path d="M 44.28125 53.078125 
L 44.28125 44.578125 
Q 40.484375 46.53125 36.375 47.5 
Q 32.28125 48.484375 27.875 48.484375 
Q 21.1875 48.484375 17.84375 46.4375 
Q 14.5 44.390625 14.5 40.28125 
Q 14.5 37.15625 16.890625 35.375 
Q 19.28125 33.59375 26.515625 31.984375 
L 29.59375 31.296875 
Q 39.15625 29.25 43.1875 25.515625 
Q 47.21875 21.78125 47.21875 15.09375 
Q 47.21875 7.46875 41.1875 3.015625 
Q 35.15625 -1.421875 24.609375 -1.421875 
Q 20.21875 -1.421875 15.453125 -0.5625 
Q 10.6875 0.296875 5.421875 2 
L 5.421875 11.28125 
Q 10.40625 8.6875 15.234375 7.390625 
Q 20.0625 6.109375 24.8125 6.109375 
Q 31.15625 6.109375 34.5625 8.28125 
Q 37.984375 10.453125 37.984375 14.40625 
Q 37.984375 18.0625 35.515625 20.015625 
Q 33.0625 21.96875 24.703125 23.78125 
L 21.578125 24.515625 
Q 13.234375 26.265625 9.515625 29.90625 
Q 5.8125 33.546875 5.8125 39.890625 
Q 5.8125 47.609375 11.28125 51.796875 
Q 16.75 56 26.8125 56 
Q 31.78125 56 36.171875 55.265625 
Q 40.578125 54.546875 44.28125 53.078125 
" id="BitstreamVeraSans-Roman-73"/>
     </defs>
     <g transform="translate(270.620625 418.531875)scale(0.12 -0.12)">
      <use xlink:href="#BitstreamVeraSans-Roman-54"/>
      <use x="61.037109375" xlink:href="#BitstreamVeraSans-Roman-69"/>
      <use x="88.8203125" xlink:href="#BitstreamVeraSans-Roman-6d"/>
      <use x="186.232421875" xlink:href="#BitstreamVeraSans-Roman-65"/>
      <use x="247.755859375" xlink:href="#BitstreamVeraSans-Roman-20"/>
      <use x="279.54296875" xlink:href="#BitstreamVeraSans-Roman-5b"/>
      <use x="318.556640625" xlink:href="#BitstreamVeraSans-Roman-73"/>
      <use x="370.65625" xlink:href="#BitstreamVeraSans-Roman-5d"/>
     </g>
    </g>
   </g>
   <g id="matplotlib.axis_2">
    <g id="ytick_1">
     <g id="line2d_27">
      <path clip-path="url(#p6cdf641052)" d="M 72 354.24 
L 518.4 354.24 
" style="fill:none;stroke:#000000;stroke-dasharray:1.000000,3.000000;stroke-dashoffset:0.0;stroke-width:0.5;"/>
     </g>
     <g id="line2d_28">
      <defs>
       <path d="M 0 0 
L 4 0 
" id="mf7d14305b4" style="stroke:#000000;stroke-width:0.5;"/>
      </defs>
      <g>
       <use style="stroke:#000000;stroke-width:0.5;" x="72.0" xlink:href="#mf7d14305b4" y="354.24"/>
      </g>
     </g>
     <g id="line2d_29">
      <defs>
       <path d="M 0 0 
L -4 0 
" id="m498c8e674f" style="stroke:#000000;stroke-width:0.5;"/>
      </defs>
      <g>
       <use style="stroke:#000000;stroke-width:0.5;" x="518.4" xlink:href="#m498c8e674f" y="354.24"/>
      </g>
     </g>
     <g id="text_9">
      <!-- 0 -->
      <g transform="translate(60.365 357.55125)scale(0.12 -0.12)">
       <use xlink:href="#BitstreamVeraSans-Roman-30"/>
      </g>
     </g>
    </g>
    <g id="ytick_2">
     <g id="line2d_30">
      <path clip-path="url(#p6cdf641052)" d="M 72 285.12 
L 518.4 285.12 
" style="fill:none;stroke:#000000;stroke-dasharray:1.000000,3.000000;stroke-dashoffset:0.0;stroke-width:0.5;"/>
     </g>
     <g id="line2d_31">
      <g>
       <use style="stroke:#000000;stroke-width:0.5;" x="72.0" xlink:href="#mf7d14305b4" y="285.12"/>
      </g>
     </g>
     <g id="line2d_32">
      <g>
       <use style="stroke:#000000;stroke-width:0.5;" x="518.4" xlink:href="#m498c8e674f" y="285.12"/>
      </g>
     </g>
     <g id="text_10">
      <!-- 20 -->
      <g transform="translate(52.73 288.43125)scale(0.12 -0.12)">
       <use xlink:href="#BitstreamVeraSans-Roman-32"/>
       <use x="63.623046875" xlink:href="#BitstreamVeraSans-Roman-30"/>
      </g>
     </g>
    </g>
    <g id="ytick_3">
     <g id="line2d_33">
      <path clip-path="url(#p6cdf641052)" d="M 72 216 
L 518.4 216 
" style="fill:none;stroke:#000000;stroke-dasharray:1.000000,3.000000;stroke-dashoffset:0.0;stroke-width:0.5;"/>
     </g>
     <g id="line2d_34">
      <g>
       <use style="stroke:#000000;stroke-width:0.5;" x="72.0" xlink:href="#mf7d14305b4" y="216.0"/>
      </g>
     </g>
     <g id="line2d_35">
      <g>
       <use style="stroke:#000000;stroke-width:0.5;" x="518.4" xlink:href="#m498c8e674f" y="216.0"/>
      </g>
     </g>
     <g id="text_11">
      <!-- 40 -->
      <defs>
       <path d="M 37.796875 64.3125 
L 12.890625 25.390625 
L 37.796875 25.390625 
z
M 35.203125 72.90625 
L 47.609375 72.90625 
L 47.609375 25.390625 
L 58.015625 25.390625 
L 58.015625 17.1875 
L 47.609375 17.1875 
L 47.609375 0 
L 37.796875 0 
L 37.796875 17.1875 
L 4.890625 17.1875 
L 4.890625 26.703125 
z
" id="BitstreamVeraSans-Roman-34"/>
      </defs>
      <g transform="translate(52.73 219.31125)scale(0.12 -0.12)">
       <use xlink:href="#BitstreamVeraSans-Roman-34"/>
       <use x="63.623046875" xlink:href="#BitstreamVeraSans-Roman-30"/>
      </g>
     </g>
    </g>
    <g id="ytick_4">
     <g id="line2d_36">
      <path clip-path="url(#p6cdf641052)" d="M 72 146.88 
L 518.4 146.88 
" style="fill:none;stroke:#000000;stroke-dasharray:1.000000,3.000000;stroke-dashoffset:0.0;stroke-width:0.5;"/>
     </g>
     <g id="line2d_37">
      <g>
       <use style="stroke:#000000;stroke-width:0.5;" x="72.0" xlink:href="#mf7d14305b4" y="146.88"/>
      </g>
     </g>
     <g id="line2d_38">
      <g>
       <use style="stroke:#000000;stroke-width:0.5;" x="518.4" xlink:href="#m498c8e674f" y="146.88"/>
      </g>
     </g>
     <g id="text_12">
      <!-- 60 -->
      <defs>
       <path d="M 33.015625 40.375 
Q 26.375 40.375 22.484375 35.828125 
Q 18.609375 31.296875 18.609375 23.390625 
Q 18.609375 15.53125 22.484375 10.953125 
Q 26.375 6.390625 33.015625 6.390625 
Q 39.65625 6.390625 43.53125 10.953125 
Q 47.40625 15.53125 47.40625 23.390625 
Q 47.40625 31.296875 43.53125 35.828125 
Q 39.65625 40.375 33.015625 40.375 
M 52.59375 71.296875 
L 52.59375 62.3125 
Q 48.875 64.0625 45.09375 64.984375 
Q 41.3125 65.921875 37.59375 65.921875 
Q 27.828125 65.921875 22.671875 59.328125 
Q 17.53125 52.734375 16.796875 39.40625 
Q 19.671875 43.65625 24.015625 45.921875 
Q 28.375 48.1875 33.59375 48.1875 
Q 44.578125 48.1875 50.953125 41.515625 
Q 57.328125 34.859375 57.328125 23.390625 
Q 57.328125 12.15625 50.6875 5.359375 
Q 44.046875 -1.421875 33.015625 -1.421875 
Q 20.359375 -1.421875 13.671875 8.265625 
Q 6.984375 17.96875 6.984375 36.375 
Q 6.984375 53.65625 15.1875 63.9375 
Q 23.390625 74.21875 37.203125 74.21875 
Q 40.921875 74.21875 44.703125 73.484375 
Q 48.484375 72.75 52.59375 71.296875 
" id="BitstreamVeraSans-Roman-36"/>
      </defs>
      <g transform="translate(52.73 150.19125)scale(0.12 -0.12)">
       <use xlink:href="#BitstreamVeraSans-Roman-36"/>
       <use x="63.623046875" xlink:href="#BitstreamVeraSans-Roman-30"/>
      </g>
     </g>
    </g>
    <g id="ytick_5">
     <g id="line2d_39">
      <path clip-path="url(#p6cdf641052)" d="M 72 77.76 
L 518.4 77.76 
" style="fill:none;stroke:#000000;stroke-dasharray:1.000000,3.000000;stroke-dashoffset:0.0;stroke-width:0.5;"/>
     </g>
     <g id="line2d_40">
      <g>
       <use style="stroke:#000000;stroke-width:0.5;" x="72.0" xlink:href="#mf7d14305b4" y="77.76"/>
      </g>
     </g>
     <g id="line2d_41">
      <g>
       <use style="stroke:#000000;stroke-width:0.5;" x="518.4" xlink:href="#m498c8e674f" y="77.76"/>
      </g>
     </g>
     <g id="text_13">
      <!-- 80 -->
      <defs>
       <path d="M 31.78125 34.625 
Q 24.75 34.625 20.71875 30.859375 
Q 16.703125 27.09375 16.703125 20.515625 
Q 16.703125 13.921875 20.71875 10.15625 
Q 24.75 6.390625 31.78125 6.390625 
Q 38.8125 6.390625 42.859375 10.171875 
Q 46.921875 13.96875 46.921875 20.515625 
Q 46.921875 27.09375 42.890625 30.859375 
Q 38.875 34.625 31.78125 34.625 
M 21.921875 38.8125 
Q 15.578125 40.375 12.03125 44.71875 
Q 8.5 49.078125 8.5 55.328125 
Q 8.5 64.0625 14.71875 69.140625 
Q 20.953125 74.21875 31.78125 74.21875 
Q 42.671875 74.21875 48.875 69.140625 
Q 55.078125 64.0625 55.078125 55.328125 
Q 55.078125 49.078125 51.53125 44.71875 
Q 48 40.375 41.703125 38.8125 
Q 48.828125 37.15625 52.796875 32.3125 
Q 56.78125 27.484375 56.78125 20.515625 
Q 56.78125 9.90625 50.3125 4.234375 
Q 43.84375 -1.421875 31.78125 -1.421875 
Q 19.734375 -1.421875 13.25 4.234375 
Q 6.78125 9.90625 6.78125 20.515625 
Q 6.78125 27.484375 10.78125 32.3125 
Q 14.796875 37.15625 21.921875 38.8125 
M 18.3125 54.390625 
Q 18.3125 48.734375 21.84375 45.5625 
Q 25.390625 42.390625 31.78125 42.390625 
Q 38.140625 42.390625 41.71875 45.5625 
Q 45.3125 48.734375 45.3125 54.390625 
Q 45.3125 60.0625 41.71875 63.234375 
Q 38.140625 66.40625 31.78125 66.40625 
Q 25.390625 66.40625 21.84375 63.234375 
Q 18.3125 60.0625 18.3125 54.390625 
" id="BitstreamVeraSans-Roman-38"/>
      </defs>
      <g transform="translate(52.73 81.07125)scale(0.12 -0.12)">
       <use xlink:href="#BitstreamVeraSans-Roman-38"/>
       <use x="63.623046875" xlink:href="#BitstreamVeraSans-Roman-30"/>
      </g>
     </g>
    </g>
    <g id="text_14">
     <!-- Speed [mph] -->
     <defs>
      <path d="M 45.40625 46.390625 
L 45.40625 75.984375 
L 54.390625 75.984375 
L 54.390625 0 
L 45.40625 0 
L 45.40625 8.203125 
Q 42.578125 3.328125 38.25 0.953125 
Q 33.9375 -1.421875 27.875 -1.421875 
Q 17.96875 -1.421875 11.734375 6.484375 
Q 5.515625 14.40625 5.515625 27.296875 
Q 5.515625 40.1875 11.734375 48.09375 
Q 17.96875 56 27.875 56 
Q 33.9375 56 38.25 53.625 
Q 42.578125 51.265625 45.40625 46.390625 
M 14.796875 27.296875 
Q 14.796875 17.390625 18.875 11.75 
Q 22.953125 6.109375 30.078125 6.109375 
Q 37.203125 6.109375 41.296875 11.75 
Q 45.40625 17.390625 45.40625 27.296875 
Q 45.40625 37.203125 41.296875 42.84375 
Q 37.203125 48.484375 30.078125 48.484375 
Q 22.953125 48.484375 18.875 42.84375 
Q 14.796875 37.203125 14.796875 27.296875 
" id="BitstreamVeraSans-Roman-64"/>
      <path d="M 53.515625 70.515625 
L 53.515625 60.890625 
Q 47.90625 63.578125 42.921875 64.890625 
Q 37.9375 66.21875 33.296875 66.21875 
Q 25.25 66.21875 20.875 63.09375 
Q 16.5 59.96875 16.5 54.203125 
Q 16.5 49.359375 19.40625 46.890625 
Q 22.3125 44.4375 30.421875 42.921875 
L 36.375 41.703125 
Q 47.40625 39.59375 52.65625 34.296875 
Q 57.90625 29 57.90625 20.125 
Q 57.90625 9.515625 50.796875 4.046875 
Q 43.703125 -1.421875 29.984375 -1.421875 
Q 24.8125 -1.421875 18.96875 -0.25 
Q 13.140625 0.921875 6.890625 3.21875 
L 6.890625 13.375 
Q 12.890625 10.015625 18.65625 8.296875 
Q 24.421875 6.59375 29.984375 6.59375 
Q 38.421875 6.59375 43.015625 9.90625 
Q 47.609375 13.234375 47.609375 19.390625 
Q 47.609375 24.75 44.3125 27.78125 
Q 41.015625 30.8125 33.5 32.328125 
L 27.484375 33.5 
Q 16.453125 35.6875 11.515625 40.375 
Q 6.59375 45.0625 6.59375 53.421875 
Q 6.59375 63.09375 13.40625 68.65625 
Q 20.21875 74.21875 32.171875 74.21875 
Q 37.3125 74.21875 42.625 73.28125 
Q 47.953125 72.359375 53.515625 70.515625 
" id="BitstreamVeraSans-Roman-53"/>
      <path d="M 54.890625 33.015625 
L 54.890625 0 
L 45.90625 0 
L 45.90625 32.71875 
Q 45.90625 40.484375 42.875 44.328125 
Q 39.84375 48.1875 33.796875 48.1875 
Q 26.515625 48.1875 22.3125 43.546875 
Q 18.109375 38.921875 18.109375 30.90625 
L 18.109375 0 
L 9.078125 0 
L 9.078125 75.984375 
L 18.109375 75.984375 
L 18.109375 46.1875 
Q 21.34375 51.125 25.703125 53.5625 
Q 30.078125 56 35.796875 56 
Q 45.21875 56 50.046875 50.171875 
Q 54.890625 44.34375 54.890625 33.015625 
" id="BitstreamVeraSans-Roman-68"/>
      <path d="M 18.109375 8.203125 
L 18.109375 -20.796875 
L 9.078125 -20.796875 
L 9.078125 54.6875 
L 18.109375 54.6875 
L 18.109375 46.390625 
Q 20.953125 51.265625 25.265625 53.625 
Q 29.59375 56 35.59375 56 
Q 45.5625 56 51.78125 48.09375 
Q 58.015625 40.1875 58.015625 27.296875 
Q 58.015625 14.40625 51.78125 6.484375 
Q 45.5625 -1.421875 35.59375 -1.421875 
Q 29.59375 -1.421875 25.265625 0.953125 
Q 20.953125 3.328125 18.109375 8.203125 
M 48.6875 27.296875 
Q 48.6875 37.203125 44.609375 42.84375 
Q 40.53125 48.484375 33.40625 48.484375 
Q 26.265625 48.484375 22.1875 42.84375 
Q 18.109375 37.203125 18.109375 27.296875 
Q 18.109375 17.390625 22.1875 11.75 
Q 26.265625 6.109375 33.40625 6.109375 
Q 40.53125 6.109375 44.609375 11.75 
Q 48.6875 17.390625 48.6875 27.296875 
" id="BitstreamVeraSans-Roman-70"/>
     </defs>
     <g transform="translate(45.234375 254.855625)rotate(-90.0)scale(0.12 -0.12)">
      <use xlink:href="#BitstreamVeraSans-Roman-53"/>
      <use x="63.4765625" xlink:href="#BitstreamVeraSans-Roman-70"/>
      <use x="126.953125" xlink:href="#BitstreamVeraSans-Roman-65"/>
      <use x="188.4765625" xlink:href="#BitstreamVeraSans-Roman-65"/>
      <use x="250.0" xlink:href="#BitstreamVeraSans-Roman-64"/>
      <use x="313.4765625" xlink:href="#BitstreamVeraSans-Roman-20"/>
      <use x="345.263671875" xlink:href="#BitstreamVeraSans-Roman-5b"/>
      <use x="384.27734375" xlink:href="#BitstreamVeraSans-Roman-6d"/>
      <use x="481.689453125" xlink:href="#BitstreamVeraSans-Roman-70"/>
      <use x="545.166015625" xlink:href="#BitstreamVeraSans-Roman-68"/>
      <use x="608.544921875" xlink:href="#BitstreamVeraSans-Roman-5d"/>
     </g>
    </g>
   </g>
   <g id="legend_1">
    <g id="patch_7">
     <path d="M 79.2 160.4025 
L 272.9115 160.4025 
L 272.9115 50.4 
L 79.2 50.4 
z
" style="fill:#ffffff;stroke:#000000;stroke-linejoin:miter;"/>
    </g>
    <g id="line2d_42">
     <path d="M 89.28 62.06175 
L 109.44 62.06175 
" style="fill:none;stroke:#ff0000;stroke-linecap:square;"/>
    </g>
    <g id="line2d_43"/>
    <g id="text_15">
     <!-- speed -->
     <g transform="translate(125.28 67.10175)scale(0.144 -0.144)">
      <use xlink:href="#BitstreamVeraSans-Roman-73"/>
      <use x="52.099609375" xlink:href="#BitstreamVeraSans-Roman-70"/>
      <use x="115.576171875" xlink:href="#BitstreamVeraSans-Roman-65"/>
      <use x="177.099609375" xlink:href="#BitstreamVeraSans-Roman-65"/>
      <use x="238.623046875" xlink:href="#BitstreamVeraSans-Roman-64"/>
     </g>
    </g>
    <g id="line2d_44">
     <path d="M 89.28 83.19825 
L 109.44 83.19825 
" style="fill:none;stroke:#bfbf00;stroke-dasharray:6.000000,6.000000;stroke-dashoffset:0.0;"/>
    </g>
    <g id="line2d_45"/>
    <g id="text_16">
     <!-- pid speed -->
     <g transform="translate(125.28 88.23825)scale(0.144 -0.144)">
      <use xlink:href="#BitstreamVeraSans-Roman-70"/>
      <use x="63.4765625" xlink:href="#BitstreamVeraSans-Roman-69"/>
      <use x="91.259765625" xlink:href="#BitstreamVeraSans-Roman-64"/>
      <use x="154.736328125" xlink:href="#BitstreamVeraSans-Roman-20"/>
      <use x="186.5234375" xlink:href="#BitstreamVeraSans-Roman-73"/>
      <use x="238.623046875" xlink:href="#BitstreamVeraSans-Roman-70"/>
      <use x="302.099609375" xlink:href="#BitstreamVeraSans-Roman-65"/>
      <use x="363.623046875" xlink:href="#BitstreamVeraSans-Roman-65"/>
      <use x="425.146484375" xlink:href="#BitstreamVeraSans-Roman-64"/>
     </g>
    </g>
    <g id="line2d_46">
     <path d="M 89.28 104.33475 
L 109.44 104.33475 
" style="fill:none;stroke:#0000ff;stroke-linecap:square;"/>
    </g>
    <g id="line2d_47"/>
    <g id="text_17">
     <!-- Target (lead) speed -->
     <defs>
      <path d="M 8.015625 75.875 
L 15.828125 75.875 
Q 23.140625 64.359375 26.78125 53.3125 
Q 30.421875 42.28125 30.421875 31.390625 
Q 30.421875 20.453125 26.78125 9.375 
Q 23.140625 -1.703125 15.828125 -13.1875 
L 8.015625 -13.1875 
Q 14.5 -2 17.703125 9.0625 
Q 20.90625 20.125 20.90625 31.390625 
Q 20.90625 42.671875 17.703125 53.65625 
Q 14.5 64.65625 8.015625 75.875 
" id="BitstreamVeraSans-Roman-29"/>
      <path d="M 34.28125 27.484375 
Q 23.390625 27.484375 19.1875 25 
Q 14.984375 22.515625 14.984375 16.5 
Q 14.984375 11.71875 18.140625 8.90625 
Q 21.296875 6.109375 26.703125 6.109375 
Q 34.1875 6.109375 38.703125 11.40625 
Q 43.21875 16.703125 43.21875 25.484375 
L 43.21875 27.484375 
z
M 52.203125 31.203125 
L 52.203125 0 
L 43.21875 0 
L 43.21875 8.296875 
Q 40.140625 3.328125 35.546875 0.953125 
Q 30.953125 -1.421875 24.3125 -1.421875 
Q 15.921875 -1.421875 10.953125 3.296875 
Q 6 8.015625 6 15.921875 
Q 6 25.140625 12.171875 29.828125 
Q 18.359375 34.515625 30.609375 34.515625 
L 43.21875 34.515625 
L 43.21875 35.40625 
Q 43.21875 41.609375 39.140625 45 
Q 35.0625 48.390625 27.6875 48.390625 
Q 23 48.390625 18.546875 47.265625 
Q 14.109375 46.140625 10.015625 43.890625 
L 10.015625 52.203125 
Q 14.9375 54.109375 19.578125 55.046875 
Q 24.21875 56 28.609375 56 
Q 40.484375 56 46.34375 49.84375 
Q 52.203125 43.703125 52.203125 31.203125 
" id="BitstreamVeraSans-Roman-61"/>
      <path d="M 9.421875 75.984375 
L 18.40625 75.984375 
L 18.40625 0 
L 9.421875 0 
z
" id="BitstreamVeraSans-Roman-6c"/>
      <path d="M 31 75.875 
Q 24.46875 64.65625 21.28125 53.65625 
Q 18.109375 42.671875 18.109375 31.390625 
Q 18.109375 20.125 21.3125 9.0625 
Q 24.515625 -2 31 -13.1875 
L 23.1875 -13.1875 
Q 15.875 -1.703125 12.234375 9.375 
Q 8.59375 20.453125 8.59375 31.390625 
Q 8.59375 42.28125 12.203125 53.3125 
Q 15.828125 64.359375 23.1875 75.875 
z
" id="BitstreamVeraSans-Roman-28"/>
      <path d="M 45.40625 27.984375 
Q 45.40625 37.75 41.375 43.109375 
Q 37.359375 48.484375 30.078125 48.484375 
Q 22.859375 48.484375 18.828125 43.109375 
Q 14.796875 37.75 14.796875 27.984375 
Q 14.796875 18.265625 18.828125 12.890625 
Q 22.859375 7.515625 30.078125 7.515625 
Q 37.359375 7.515625 41.375 12.890625 
Q 45.40625 18.265625 45.40625 27.984375 
M 54.390625 6.78125 
Q 54.390625 -7.171875 48.1875 -13.984375 
Q 42 -20.796875 29.203125 -20.796875 
Q 24.46875 -20.796875 20.265625 -20.09375 
Q 16.0625 -19.390625 12.109375 -17.921875 
L 12.109375 -9.1875 
Q 16.0625 -11.328125 19.921875 -12.34375 
Q 23.78125 -13.375 27.78125 -13.375 
Q 36.625 -13.375 41.015625 -8.765625 
Q 45.40625 -4.15625 45.40625 5.171875 
L 45.40625 9.625 
Q 42.625 4.78125 38.28125 2.390625 
Q 33.9375 0 27.875 0 
Q 17.828125 0 11.671875 7.65625 
Q 5.515625 15.328125 5.515625 27.984375 
Q 5.515625 40.671875 11.671875 48.328125 
Q 17.828125 56 27.875 56 
Q 33.9375 56 38.28125 53.609375 
Q 42.625 51.21875 45.40625 46.390625 
L 45.40625 54.6875 
L 54.390625 54.6875 
z
" id="BitstreamVeraSans-Roman-67"/>
      <path d="M 41.109375 46.296875 
Q 39.59375 47.171875 37.8125 47.578125 
Q 36.03125 48 33.890625 48 
Q 26.265625 48 22.1875 43.046875 
Q 18.109375 38.09375 18.109375 28.8125 
L 18.109375 0 
L 9.078125 0 
L 9.078125 54.6875 
L 18.109375 54.6875 
L 18.109375 46.1875 
Q 20.953125 51.171875 25.484375 53.578125 
Q 30.03125 56 36.53125 56 
Q 37.453125 56 38.578125 55.875 
Q 39.703125 55.765625 41.0625 55.515625 
z
" id="BitstreamVeraSans-Roman-72"/>
      <path d="M 18.3125 70.21875 
L 18.3125 54.6875 
L 36.8125 54.6875 
L 36.8125 47.703125 
L 18.3125 47.703125 
L 18.3125 18.015625 
Q 18.3125 11.328125 20.140625 9.421875 
Q 21.96875 7.515625 27.59375 7.515625 
L 36.8125 7.515625 
L 36.8125 0 
L 27.59375 0 
Q 17.1875 0 13.234375 3.875 
Q 9.28125 7.765625 9.28125 18.015625 
L 9.28125 47.703125 
L 2.6875 47.703125 
L 2.6875 54.6875 
L 9.28125 54.6875 
L 9.28125 70.21875 
z
" id="BitstreamVeraSans-Roman-74"/>
     </defs>
     <g transform="translate(125.28 109.37475)scale(0.144 -0.144)">
      <use xlink:href="#BitstreamVeraSans-Roman-54"/>
      <use x="60.833984375" xlink:href="#BitstreamVeraSans-Roman-61"/>
      <use x="122.11328125" xlink:href="#BitstreamVeraSans-Roman-72"/>
      <use x="163.2109375" xlink:href="#BitstreamVeraSans-Roman-67"/>
      <use x="226.6875" xlink:href="#BitstreamVeraSans-Roman-65"/>
      <use x="288.2109375" xlink:href="#BitstreamVeraSans-Roman-74"/>
      <use x="327.419921875" xlink:href="#BitstreamVeraSans-Roman-20"/>
      <use x="359.20703125" xlink:href="#BitstreamVeraSans-Roman-28"/>
      <use x="398.220703125" xlink:href="#BitstreamVeraSans-Roman-6c"/>
      <use x="426.00390625" xlink:href="#BitstreamVeraSans-Roman-65"/>
      <use x="487.52734375" xlink:href="#BitstreamVeraSans-Roman-61"/>
      <use x="548.806640625" xlink:href="#BitstreamVeraSans-Roman-64"/>
      <use x="612.283203125" xlink:href="#BitstreamVeraSans-Roman-29"/>
      <use x="651.296875" xlink:href="#BitstreamVeraSans-Roman-20"/>
      <use x="683.083984375" xlink:href="#BitstreamVeraSans-Roman-73"/>
      <use x="735.18359375" xlink:href="#BitstreamVeraSans-Roman-70"/>
      <use x="798.66015625" xlink:href="#BitstreamVeraSans-Roman-65"/>
      <use x="860.18359375" xlink:href="#BitstreamVeraSans-Roman-65"/>
      <use x="921.70703125" xlink:href="#BitstreamVeraSans-Roman-64"/>
     </g>
    </g>
    <g id="line2d_48">
     <path d="M 89.28 125.47125 
L 109.44 125.47125 
" style="fill:none;stroke:#000000;stroke-linecap:square;"/>
    </g>
    <g id="line2d_49"/>
    <g id="text_18">
     <!-- Cruise speed -->
     <defs>
      <path d="M 8.5 21.578125 
L 8.5 54.6875 
L 17.484375 54.6875 
L 17.484375 21.921875 
Q 17.484375 14.15625 20.5 10.265625 
Q 23.53125 6.390625 29.59375 6.390625 
Q 36.859375 6.390625 41.078125 11.03125 
Q 45.3125 15.671875 45.3125 23.6875 
L 45.3125 54.6875 
L 54.296875 54.6875 
L 54.296875 0 
L 45.3125 0 
L 45.3125 8.40625 
Q 42.046875 3.421875 37.71875 1 
Q 33.40625 -1.421875 27.6875 -1.421875 
Q 18.265625 -1.421875 13.375 4.4375 
Q 8.5 10.296875 8.5 21.578125 
" id="BitstreamVeraSans-Roman-75"/>
      <path d="M 64.40625 67.28125 
L 64.40625 56.890625 
Q 59.421875 61.53125 53.78125 63.8125 
Q 48.140625 66.109375 41.796875 66.109375 
Q 29.296875 66.109375 22.65625 58.46875 
Q 16.015625 50.828125 16.015625 36.375 
Q 16.015625 21.96875 22.65625 14.328125 
Q 29.296875 6.6875 41.796875 6.6875 
Q 48.140625 6.6875 53.78125 8.984375 
Q 59.421875 11.28125 64.40625 15.921875 
L 64.40625 5.609375 
Q 59.234375 2.09375 53.4375 0.328125 
Q 47.65625 -1.421875 41.21875 -1.421875 
Q 24.65625 -1.421875 15.125 8.703125 
Q 5.609375 18.84375 5.609375 36.375 
Q 5.609375 53.953125 15.125 64.078125 
Q 24.65625 74.21875 41.21875 74.21875 
Q 47.75 74.21875 53.53125 72.484375 
Q 59.328125 70.75 64.40625 67.28125 
" id="BitstreamVeraSans-Roman-43"/>
     </defs>
     <g transform="translate(125.28 130.51125)scale(0.144 -0.144)">
      <use xlink:href="#BitstreamVeraSans-Roman-43"/>
      <use x="69.82421875" xlink:href="#BitstreamVeraSans-Roman-72"/>
      <use x="110.9375" xlink:href="#BitstreamVeraSans-Roman-75"/>
      <use x="174.31640625" xlink:href="#BitstreamVeraSans-Roman-69"/>
      <use x="202.099609375" xlink:href="#BitstreamVeraSans-Roman-73"/>
      <use x="254.19921875" xlink:href="#BitstreamVeraSans-Roman-65"/>
      <use x="315.72265625" xlink:href="#BitstreamVeraSans-Roman-20"/>
      <use x="347.509765625" xlink:href="#BitstreamVeraSans-Roman-73"/>
      <use x="399.609375" xlink:href="#BitstreamVeraSans-Roman-70"/>
      <use x="463.0859375" xlink:href="#BitstreamVeraSans-Roman-65"/>
      <use x="524.609375" xlink:href="#BitstreamVeraSans-Roman-65"/>
      <use x="586.1328125" xlink:href="#BitstreamVeraSans-Roman-64"/>
     </g>
    </g>
    <g id="line2d_50">
     <path d="M 89.28 146.60775 
L 109.44 146.60775 
" style="fill:none;stroke:#bf00bf;stroke-linecap:square;"/>
    </g>
    <g id="line2d_51"/>
    <g id="text_19">
     <!-- Lead speed -->
     <defs>
      <path d="M 9.8125 72.90625 
L 19.671875 72.90625 
L 19.671875 8.296875 
L 55.171875 8.296875 
L 55.171875 0 
L 9.8125 0 
z
" id="BitstreamVeraSans-Roman-4c"/>
     </defs>
     <g transform="translate(125.28 151.64775)scale(0.144 -0.144)">
      <use xlink:href="#BitstreamVeraSans-Roman-4c"/>
      <use x="55.697265625" xlink:href="#BitstreamVeraSans-Roman-65"/>
      <use x="117.220703125" xlink:href="#BitstreamVeraSans-Roman-61"/>
      <use x="178.5" xlink:href="#BitstreamVeraSans-Roman-64"/>
      <use x="241.9765625" xlink:href="#BitstreamVeraSans-Roman-20"/>
      <use x="273.763671875" xlink:href="#BitstreamVeraSans-Roman-73"/>
      <use x="325.86328125" xlink:href="#BitstreamVeraSans-Roman-70"/>
      <use x="389.33984375" xlink:href="#BitstreamVeraSans-Roman-65"/>
      <use x="450.86328125" xlink:href="#BitstreamVeraSans-Roman-65"/>
      <use x="512.38671875" xlink:href="#BitstreamVeraSans-Roman-64"/>
     </g>
    </g>
   </g>
  </g>
 </g>
 <defs>
  <clipPath id="p6cdf641052">
   <rect height="345.6" width="446.4" x="72.0" y="43.2"/>
  </clipPath>
 </defs>
</svg>
