<?xml version="1.0" encoding="utf-8" standalone="no"?>
<!DOCTYPE svg PUBLIC "-//W3C//DTD SVG 1.1//EN"
  "http://www.w3.org/Graphics/SVG/1.1/DTD/svg11.dtd">
<!-- Created with matplotlib (http://matplotlib.org/) -->
<svg height="432pt" version="1.1" viewBox="0 0 576 432" width="576pt" xmlns="http://www.w3.org/2000/svg" xmlns:xlink="http://www.w3.org/1999/xlink">
 <defs>
  <style type="text/css">
*{stroke-linecap:butt;stroke-linejoin:round;stroke-miterlimit:100000;}
  </style>
 </defs>
 <g id="figure_1">
  <g id="patch_1">
   <path d="M 0 432 
L 576 432 
L 576 0 
L 0 0 
z
" style="fill:#ffffff;"/>
  </g>
  <g id="axes_1">
   <g id="patch_2">
    <path d="M 72 388.8 
L 518.4 388.8 
L 518.4 43.2 
L 72 43.2 
z
" style="fill:#ffffff;"/>
   </g>
   <g id="line2d_1">
    <path clip-path="url(#p7706a1211b)" d="M 72.08928 169.254551 
L 84.67776 169.188906 
L 84.9456 175.187261 
L 85.03488 175.186543 
L 85.30272 181.184129 
L 85.392 181.183154 
L 85.65984 187.179972 
L 85.74912 187.178742 
L 86.01696 193.174794 
L 86.10624 193.173309 
L 86.37408 199.768545 
L 86.46336 199.76678 
L 86.7312 205.761229 
L 86.82048 205.759211 
L 87.08832 211.752902 
L 87.1776 211.750631 
L 87.44544 217.743566 
L 87.53472 217.741044 
L 87.80256 224.333176 
L 87.89184 224.330378 
L 88.15968 230.321737 
L 88.24896 230.318691 
L 88.5168 236.309305 
L 88.60608 236.306012 
L 88.87392 242.295888 
L 88.9632 242.292349 
L 89.23104 248.88144 
L 89.32032 248.877632 
L 89.58816 254.865969 
L 89.67744 254.86192 
L 89.94528 260.849535 
L 90.03456 260.845246 
L 90.3024 266.832144 
L 90.39168 266.827617 
L 90.65952 273.413804 
L 90.7488 273.409017 
L 91.01664 279.394427 
L 91.10592 279.389407 
L 91.37376 285.374121 
L 91.46304 285.368871 
L 91.73088 291.352897 
L 91.82016 291.347418 
L 92.088 297.930764 
L 92.17728 297.925036 
L 92.44512 303.907637 
L 92.5344 303.901686 
L 92.80224 309.883625 
L 92.89152 309.877455 
L 92.9808 311.671291 
L 93.07008 311.665062 
L 93.78432 311.615474 
L 93.96288 312.203121 
L 94.49856 312.166157 
L 94.67712 312.753867 
L 95.56992 312.692714 
L 95.74848 313.280543 
L 96.46272 313.232044 
L 96.64128 313.819966 
L 97.17696 313.78383 
L 97.35552 314.371818 
L 98.06976 314.32396 
L 98.24832 314.912043 
L 98.96256 314.864569 
L 99.14112 315.452749 
L 99.6768 315.417394 
L 99.85536 316.005643 
L 100.74816 315.947213 
L 100.92672 316.535591 
L 101.4624 316.500833 
L 101.64096 317.089283 
L 102.3552 317.043289 
L 102.53376 317.631841 
L 103.248 317.586259 
L 103.42656 318.174915 
L 103.96224 318.140998 
L 104.1408 318.72973 
L 104.85504 318.684872 
L 105.0336 319.27371 
L 105.74784 319.229281 
L 105.9264 319.818228 
L 106.46208 319.785187 
L 106.64064 320.374214 
L 107.35488 320.33054 
L 107.53344 320.919677 
L 122.8896 320.096928 
L 138.33504 319.492286 
L 143.15616 319.348778 
L 143.424 315.741489 
L 143.51328 315.739109 
L 143.8704 308.529826 
L 144.13824 297.123315 
L 144.3168 297.119218 
L 144.58464 286.313278 
L 144.67392 286.311411 
L 144.94176 276.106 
L 145.03104 276.104299 
L 145.29888 265.299378 
L 145.38816 265.297847 
L 145.656 255.693413 
L 145.74528 255.692031 
L 145.92384 250.889344 
L 146.01312 250.888037 
L 146.19168 244.885518 
L 146.45952 235.882 
L 146.63808 235.879835 
L 146.90592 226.876737 
L 146.9952 226.875787 
L 147.26304 217.273081 
L 147.4416 217.271456 
L 147.70944 209.469129 
L 147.79872 209.468428 
L 148.06656 201.666432 
L 148.24512 201.66525 
L 148.51296 194.463582 
L 148.60224 194.463091 
L 148.7808 166.262507 
L 148.87008 166.2624 
L 149.04864 156.34655 
L 149.31648 148.734835 
L 149.40576 148.734966 
L 149.6736 141.884731 
L 149.85216 141.885181 
L 150.03072 138.840911 
L 150.29856 133.513442 
L 150.38784 133.513782 
L 150.5664 130.469743 
L 150.65568 130.470125 
L 150.92352 125.143002 
L 151.0128 125.143458 
L 151.28064 120.577749 
L 151.36992 120.578269 
L 151.54848 117.534591 
L 151.63776 117.535154 
L 151.81632 119.058641 
L 151.99488 119.059728 
L 152.17344 117.538458 
L 152.352 118.30077 
L 152.53056 122.868962 
L 152.7984 121.348086 
L 152.88768 121.348602 
L 153.06624 126.677893 
L 153.15552 126.678336 
L 153.33408 124.395683 
L 153.51264 123.635455 
L 153.6912 128.203507 
L 153.86976 128.965534 
L 153.95904 128.965947 
L 154.1376 128.205595 
L 154.31616 132.012343 
L 154.49472 131.251907 
L 154.76256 131.253055 
L 154.94112 130.492643 
L 155.11968 135.060509 
L 155.38752 135.0615 
L 155.65536 133.540134 
L 155.74464 133.540487 
L 155.9232 138.108269 
L 156.01248 138.108558 
L 156.19104 138.870314 
L 156.3696 137.348511 
L 156.90528 137.350311 
L 157.08384 141.156809 
L 157.53024 141.158041 
L 157.7088 140.397356 
L 157.88736 140.397871 
L 158.06592 144.204284 
L 158.78016 144.205913 
L 158.95872 143.445142 
L 159.4944 143.446433 
L 159.67296 147.25276 
L 160.11936 147.253564 
L 160.29792 146.492706 
L 160.92288 146.49391 
L 161.10144 145.733075 
L 161.28 145.733441 
L 161.45856 150.300883 
L 161.63712 150.301118 
L 161.81568 149.540173 
L 162.70848 149.541457 
L 162.88704 148.780535 
L 163.60128 148.781653 
L 163.77984 152.587828 
L 163.9584 152.587997 
L 164.13696 151.826987 
L 164.31552 152.588357 
L 164.49408 151.827347 
L 165.02976 151.827921 
L 165.20832 151.066934 
L 166.10112 151.068003 
L 166.27968 150.307037 
L 166.45824 150.307274 
L 166.6368 151.068689 
L 166.81536 158.680694 
L 166.99392 157.158328 
L 167.35104 154.874885 
L 167.5296 156.397347 
L 167.70816 154.875047 
L 167.88672 154.87515 
L 168.06528 154.114074 
L 168.24384 154.875378 
L 168.4224 154.875481 
L 168.60096 153.353226 
L 168.77952 154.114553 
L 168.95808 153.353499 
L 169.67232 153.35409 
L 169.85088 152.593058 
L 170.92224 152.594079 
L 171.1008 151.83307 
L 171.27936 164.773307 
L 171.45792 163.250762 
L 171.63648 152.594113 
L 171.81504 151.833104 
L 171.9936 163.250983 
L 172.17216 161.728482 
L 172.35072 161.728385 
L 172.52928 151.832959 
L 172.70784 151.071972 
L 172.8864 151.833366 
L 173.06496 161.728887 
L 173.3328 160.206382 
L 173.42208 160.206356 
L 173.7792 157.922735 
L 173.95776 157.922749 
L 174.13632 158.683942 
L 174.49344 158.683925 
L 174.672 157.922738 
L 174.85056 157.922752 
L 175.02912 158.683945 
L 175.20768 157.161579 
L 175.38624 158.683973 
L 175.5648 157.922786 
L 175.74336 157.9228 
L 175.92192 156.400456 
L 176.10048 155.639335 
L 176.4576 155.639497 
L 176.63616 154.878399 
L 176.81472 156.400861 
L 176.99328 154.878561 
L 177.17184 154.117485 
L 177.3504 155.639969 
L 177.61824 154.117733 
L 177.70752 154.117796 
L 177.88608 154.8791 
L 178.06464 154.118025 
L 178.42176 154.118276 
L 178.60032 152.596044 
L 178.77888 153.357394 
L 178.95744 152.596363 
L 179.136 153.357713 
L 179.31456 152.596682 
L 180.56448 152.597878 
L 180.74304 166.31957 
L 181.01088 151.836531 
L 181.10016 151.836628 
L 181.27872 164.776865 
L 181.54656 151.836551 
L 181.63584 151.836648 
L 181.8144 164.776884 
L 182.08224 151.075403 
L 182.17152 151.07551 
L 182.35008 161.732233 
L 182.52864 164.015671 
L 182.7072 161.731969 
L 182.88576 151.836543 
L 183.06432 151.075558 
L 183.24288 162.493459 
L 183.42144 162.493338 
L 183.6 159.448502 
L 183.77856 159.448471 
L 183.95712 153.359008 
L 184.13568 161.732125 
L 184.31424 160.209669 
L 184.4928 160.209616 
L 184.67136 151.836593 
L 184.84992 150.314429 
L 185.02848 160.971173 
L 185.20704 159.448739 
L 185.3856 158.68753 
L 185.74272 158.687513 
L 185.92128 157.926325 
L 186.45696 157.926367 
L 186.63552 157.165202 
L 187.1712 157.165311 
L 187.34976 157.926527 
L 187.52832 157.92654 
L 187.70688 156.404196 
L 187.88544 156.404255 
L 188.064 155.643135 
L 188.42112 155.643298 
L 188.59968 156.404558 
L 188.77824 156.404617 
L 188.9568 154.882318 
L 189.13536 155.6436 
L 189.49248 155.643763 
L 189.67104 154.121486 
L 189.8496 154.882792 
L 190.02816 153.360537 
L 190.20672 154.883044 
L 190.38528 154.883148 
L 190.56384 153.360894 
L 190.7424 154.122222 
L 190.92096 154.122348 
L 191.09952 152.600117 
L 191.27808 153.361467 
L 191.45664 152.600437 
L 191.6352 153.361787 
L 191.81376 153.361936 
L 191.99232 152.600906 
L 192.34944 152.601249 
L 192.528 153.3626 
L 192.70656 166.32309 
L 192.88512 164.780199 
L 193.06368 153.362326 
L 193.24224 151.840117 
L 193.4208 152.60149 
L 193.59936 166.323182 
L 193.8672 164.019006 
L 194.04576 152.601155 
L 194.22432 151.840148 
L 194.3136 151.840245 
L 194.49216 165.541661 
L 194.76 165.541344 
L 194.93856 153.362269 
L 195.11712 151.078881 
L 195.2064 151.078989 
L 195.38496 151.840385 
L 195.56352 164.019443 
L 195.92064 161.735595 
L 196.00992 163.257927 
L 196.18848 151.078908 
L 196.27776 151.079016 
L 196.45632 164.019309 
L 196.63488 164.019143 
L 196.81344 155.646008 
L 196.992 150.317837 
L 197.17056 162.49694 
L 197.34912 163.257997 
L 197.52768 161.735496 
L 197.70624 154.884786 
L 197.8848 166.322873 
L 200.02752 166.320065 
L 200.29536 164.777059 
L 200.38464 164.776965 
L 200.74176 161.731896 
L 200.92032 156.403544 
L 201.09888 154.120066 
L 201.27744 152.597834 
L 201.36672 152.59792 
L 201.72384 157.165291 
L 201.9024 154.88179 
L 201.99168 154.881842 
L 202.17024 153.359588 
L 202.43808 151.837453 
L 202.70592 151.837743 
L 202.88448 151.076758 
L 203.15232 151.077082 
L 203.33088 150.316119 
L 203.50944 150.316358 
L 203.688 149.555418 
L 204.04512 149.555941 
L 204.31296 148.033986 
L 204.40224 148.03414 
L 204.5808 147.273268 
L 204.75936 148.795955 
L 204.93792 148.79624 
L 205.11648 148.035345 
L 205.38432 148.035806 
L 205.56288 147.274935 
L 205.83072 147.27543 
L 206.00928 146.514581 
L 206.18784 146.514934 
L 206.3664 145.754109 
L 206.54496 147.276843 
L 206.72352 147.277173 
L 206.90208 146.516326 
L 207.08064 148.039037 
L 207.52704 148.039809 
L 207.79488 149.56263 
L 207.88416 149.562762 
L 208.06272 150.324204 
L 208.152 150.324325 
L 208.33056 149.563387 
L 208.50912 151.086009 
L 208.95552 151.086555 
L 209.13408 151.847952 
L 209.22336 151.84805 
L 209.40192 154.892962 
L 209.4912 154.893014 
L 209.66976 152.609582 
L 209.84832 153.370934 
L 210.02688 156.4158 
L 210.20544 157.938217 
L 210.29472 155.654654 
L 210.65184 160.221845 
L 210.8304 160.221791 
L 210.91968 157.938193 
L 211.18752 162.505287 
L 211.36608 162.505164 
L 211.54464 160.221505 
L 211.63392 160.221477 
L 211.90176 165.549682 
L 212.08032 163.265931 
L 212.25888 163.265786 
L 212.52672 166.330582 
L 212.79456 166.330227 
L 212.97312 164.787334 
L 213.15168 164.025964 
L 213.5088 166.329441 
L 213.68736 166.329204 
L 213.86592 165.54749 
L 214.04448 165.547277 
L 214.22304 166.328541 
L 230.73984 166.307015 
L 231.27552 173.506064 
L 231.54336 180.105318 
L 231.63264 180.105005 
L 231.90048 186.103975 
L 231.98976 186.103575 
L 232.2576 192.102288 
L 232.34688 192.101803 
L 232.61472 198.10026 
L 232.704 198.09969 
L 232.97184 203.497895 
L 235.02528 203.483204 
L 235.29312 202.281328 
L 235.3824 202.280715 
L 235.56096 201.679498 
L 235.91808 201.677088 
L 236.09664 201.075895 
L 236.81088 201.071176 
L 237.07872 199.869432 
L 237.168 199.868862 
L 237.34656 199.267733 
L 237.52512 199.266614 
L 237.70368 198.665505 
L 237.97152 198.663857 
L 238.15008 198.062769 
L 238.77504 198.059003 
L 238.9536 197.45794 
L 239.48928 197.454783 
L 239.66784 196.853743 
L 239.8464 196.852712 
L 240.02496 196.251691 
L 240.38208 196.24967 
L 240.56064 195.64867 
L 241.45344 195.643733 
L 241.632 195.042758 
L 241.89984 195.041311 
L 242.34624 192.638994 
L 242.61408 192.637649 
L 242.79264 192.036763 
L 243.23904 192.034572 
L 243.4176 191.433705 
L 243.59616 166.233188 
L 255.73824 166.219535 
L 256.27392 173.418709 
L 256.54176 180.01806 
L 256.63104 180.017787 
L 256.89888 186.016889 
L 256.98816 186.016541 
L 257.256 192.015418 
L 257.34528 192.014995 
L 257.61312 198.01365 
L 257.7024 198.013153 
L 257.97024 204.011588 
L 259.488 204.001981 
L 259.66656 203.40087 
L 260.29152 203.397024 
L 260.47008 202.795937 
L 260.55936 202.795399 
L 260.8272 201.593801 
L 260.91648 201.593279 
L 261.09504 200.992244 
L 261.2736 200.991218 
L 261.45216 200.390201 
L 262.34496 200.385184 
L 262.52352 199.784194 
L 262.70208 199.783213 
L 263.0592 197.981293 
L 263.59488 197.978499 
L 263.77344 197.377579 
L 263.952 197.376667 
L 264.13056 196.775764 
L 264.8448 196.772196 
L 265.02336 196.171316 
L 265.38048 196.169573 
L 265.55904 195.568711 
L 266.09472 195.566155 
L 266.27328 194.965313 
L 266.6304 194.963648 
L 266.80896 194.362824 
L 267.34464 194.360382 
L 267.61248 193.15918 
L 268.416 193.155672 
L 268.59456 192.554904 
L 268.95168 192.553383 
L 269.13024 191.952632 
L 269.3088 191.951888 
L 269.48736 191.351152 
L 270.02304 191.348972 
L 270.2016 166.148538 
L 283.77216 166.135802 
L 284.04 172.135488 
L 284.12928 172.135342 
L 284.39712 178.134836 
L 284.57568 178.134417 
L 284.84352 184.133722 
L 284.9328 184.133449 
L 285.20064 190.132566 
L 285.28992 190.132231 
L 285.55776 196.731147 
L 285.64704 196.730744 
L 285.8256 199.729905 
L 285.91488 199.729471 
L 286.09344 202.728572 
L 286.272 204.527626 
L 287.1648 204.522841 
L 287.34336 203.921897 
L 288.0576 203.918171 
L 288.23616 203.317252 
L 288.32544 203.316796 
L 288.59328 202.115445 
L 289.30752 202.111928 
L 289.48608 201.511061 
L 290.11104 201.508061 
L 290.2896 200.907215 
L 290.55744 200.905959 
L 290.91456 199.10432 
L 291.00384 199.103922 
L 291.1824 198.503133 
L 291.53952 198.501572 
L 291.71808 197.9008 
L 292.34304 197.898132 
L 292.5216 197.29738 
L 293.05728 197.29515 
L 293.23584 196.694416 
L 293.95008 196.691518 
L 294.21792 195.49045 
L 294.48576 195.489408 
L 294.66432 194.288727 
L 294.84288 193.688064 
L 295.11072 193.68708 
L 295.28928 193.086431 
L 295.82496 193.08451 
L 296.00352 192.483878 
L 296.62848 192.481695 
L 296.80704 191.88108 
L 297.432 191.878956 
L 297.61056 191.278357 
L 301.18176 191.26675 
L 301.36032 166.066413 
L 323.41248 166.050589 
L 323.68032 172.050352 
L 323.7696 172.050241 
L 324.03744 178.049859 
L 324.12672 178.0497 
L 324.39456 184.049174 
L 324.48384 184.048967 
L 324.75168 190.048298 
L 324.84096 190.048045 
L 325.1088 196.647224 
L 325.19808 196.646919 
L 325.46592 202.645956 
L 325.5552 202.645605 
L 325.73376 204.44489 
L 328.94784 204.432185 
L 329.1264 203.831507 
L 329.30496 203.830835 
L 329.48352 203.23017 
L 330.0192 203.228202 
L 330.19776 202.627555 
L 330.37632 202.626914 
L 330.55488 202.02628 
L 330.912 202.025027 
L 331.09056 201.424409 
L 331.8048 201.421971 
L 331.98336 200.821371 
L 332.6976 200.819008 
L 332.87616 200.218427 
L 333.23328 200.217278 
L 333.50112 199.01643 
L 333.76896 199.015603 
L 333.94752 198.415057 
L 334.66176 198.41291 
L 334.84032 197.812382 
L 335.55456 197.810303 
L 335.73312 197.209791 
L 336.44736 197.207778 
L 336.7152 196.007038 
L 337.51872 196.004885 
L 337.78656 194.804183 
L 338.76864 194.801689 
L 338.9472 194.201245 
L 339.48288 194.19993 
L 339.75072 192.999286 
L 352.51776 192.97276 
L 352.69632 192.372441 
L 355.73184 192.367261 
L 355.9104 191.766971 
L 358.76736 191.762536 
L 358.94592 191.162272 
L 361.62432 191.158492 
L 361.80288 165.958355 
L 373.14144 165.954937 
L 373.40928 171.954836 
L 373.49856 171.95479 
L 373.7664 177.954628 
L 373.85568 177.954561 
L 374.12352 183.954339 
L 374.2128 183.954253 
L 374.56992 193.553855 
L 374.6592 193.553738 
L 374.92704 199.553365 
L 375.01632 199.55323 
L 375.19488 202.552949 
L 375.28416 202.552806 
L 375.37344 205.395341 
L 375.46272 205.081887 
L 375.552 206.570523 
L 375.64128 206.249232 
L 377.42688 200.255096 
L 378.94464 195.75445 
L 379.03392 196.105317 
L 379.48032 194.864621 
L 379.5696 195.221426 
L 380.19456 193.536425 
L 380.28384 193.902091 
L 380.55168 193.1965 
L 380.64096 193.564434 
L 381.08736 192.407377 
L 381.17664 192.780576 
L 381.8016 191.207313 
L 381.89088 191.588517 
L 382.15872 190.928925 
L 382.248 191.311988 
L 382.87296 189.805952 
L 382.96224 190.196506 
L 383.23008 189.564589 
L 383.31936 189.956754 
L 383.40864 189.746304 
L 383.49792 190.137257 
L 383.94432 189.093014 
L 384.0336 189.488326 
L 384.48 188.465442 
L 384.56928 188.86494 
L 384.83712 188.259501 
L 384.9264 188.660374 
L 385.01568 188.458574 
L 385.10496 188.85812 
L 386.62272 185.583358 
L 386.712 186.602082 
L 386.80128 186.414013 
L 388.0512 183.909023 
L 388.14048 184.338915 
L 389.8368 181.242427 
L 389.92608 181.690105 
L 390.01536 181.534798 
L 390.10464 181.980527 
L 391.26528 180.016195 
L 391.35456 180.472052 
L 392.87232 178.099098 
L 392.9616 179.167741 
L 393.05088 179.029258 
L 394.47936 176.935045 
L 394.56864 177.411452 
L 394.65792 177.284683 
L 395.37216 176.300492 
L 395.46144 176.781131 
L 395.55072 176.658566 
L 396.62208 175.25 
L 396.71136 175.737645 
L 396.80064 175.622038 
L 397.33632 174.944411 
L 397.4256 175.434094 
L 397.51488 175.320513 
L 398.22912 174.438707 
L 398.3184 174.931763 
L 398.40768 174.821531 
L 400.37184 172.574016 
L 400.46112 173.679506 
L 400.5504 173.577626 
L 400.81824 174.46807 
L 400.90752 174.360932 
L 401.17536 175.235811 
L 401.26464 175.123555 
L 401.53248 175.983282 
L 401.62176 175.866042 
L 401.8896 176.711017 
L 401.97888 176.588925 
L 402.24672 177.419538 
L 402.336 177.292722 
L 402.42528 177.766751 
L 402.51456 177.637621 
L 402.60384 178.109351 
L 402.69312 177.977936 
L 402.7824 178.447398 
L 402.87168 178.313729 
L 402.96096 178.780952 
L 403.05024 178.645059 
L 403.13952 179.110073 
L 403.2288 178.971987 
L 403.31808 179.434821 
L 403.40736 179.294569 
L 403.49664 179.755252 
L 403.58592 179.612865 
L 403.6752 180.071426 
L 403.76448 179.92693 
L 403.85376 180.383398 
L 403.94304 180.236823 
L 404.03232 180.691224 
L 404.1216 180.542597 
L 404.21088 180.99496 
L 404.30016 180.844307 
L 404.38944 181.894659 
L 404.47872 181.738008 
L 404.568 182.182401 
L 404.65728 182.023832 
L 404.74656 182.46632 
L 404.83584 182.305858 
L 404.92512 182.746466 
L 405.0144 182.584136 
L 405.10368 183.022889 
L 405.19296 182.858717 
L 405.28224 183.295639 
L 405.37152 183.129649 
L 405.4608 183.564765 
L 405.55008 183.396981 
L 405.63936 183.830315 
L 405.72864 183.660761 
L 405.81792 184.092336 
L 405.9072 183.921035 
L 405.99648 184.350876 
L 406.08576 184.177851 
L 406.17504 184.60598 
L 406.26432 184.431255 
L 406.3536 184.857695 
L 406.44288 184.681292 
L 406.53216 185.106065 
L 406.62144 184.928006 
L 406.71072 185.351135 
L 406.8 185.171443 
L 406.88928 185.592949 
L 406.97856 185.411645 
L 407.06784 185.831549 
L 407.15712 185.648655 
L 407.2464 186.06698 
L 407.33568 185.882516 
L 407.42496 186.299282 
L 407.51424 186.11327 
L 407.60352 186.528498 
L 407.6928 186.340959 
L 407.78208 186.754669 
L 407.87136 186.565622 
L 407.96064 186.977835 
L 408.04992 186.7873 
L 408.1392 187.198035 
L 408.22848 187.006033 
L 408.31776 187.415311 
L 408.40704 187.22186 
L 408.49632 187.629699 
L 408.5856 187.43482 
L 408.67488 187.84124 
L 408.76416 187.64495 
L 408.85344 188.049969 
L 408.94272 187.852289 
L 409.032 188.255926 
L 409.12128 188.056873 
L 409.21056 188.459147 
L 409.29984 188.25874 
L 409.38912 188.659668 
L 409.4784 188.457924 
L 409.56768 188.857525 
L 409.65696 188.654463 
L 409.74624 189.052754 
L 409.83552 188.84839 
L 409.9248 189.245389 
L 410.01408 189.039742 
L 410.10336 189.435465 
L 410.19264 189.228551 
L 410.28192 189.623017 
L 410.3712 189.414853 
L 410.46048 189.808076 
L 410.54976 189.598679 
L 410.72832 190.380064 
L 410.8176 190.166854 
L 410.90688 190.555066 
L 411.08544 190.127743 
L 411.17472 190.516216 
L 411.264 190.3021 
L 411.35328 190.689412 
L 411.44256 190.474142 
L 411.53184 190.860307 
L 411.62112 190.643898 
L 411.7104 191.028931 
L 411.79968 190.811399 
L 411.88896 191.795316 
L 411.97824 191.572675 
L 413.58528 187.809657 
L 413.76384 158.4 
L 518.4 158.4 
L 518.4 158.4 
" style="fill:none;stroke:#008000;stroke-linecap:square;"/>
   </g>
   <g id="line2d_2">
    <path clip-path="url(#p7706a1211b)" d="M 72.08928 158.4 
L 72.17856 158.4 
L 72.26784 158.4 
L 72.4464 196.802426 
L 72.53568 196.806033 
L 72.62496 388.8 
L 72.71424 363.657404 
L 73.07136 365.877942 
L 73.16064 365.877942 
L 74.14272 372.56087 
L 74.232 372.691846 
L 75.48192 381.891211 
L 75.5712 381.891211 
L 76.10688 385.846161 
L 76.19616 385.669958 
L 76.64256 388.8 
L 146.72736 388.8 
L 146.81664 216.957724 
L 146.90592 216.974258 
L 148.24512 217.200174 
L 149.58432 217.260786 
L 152.26272 217.040378 
L 152.44128 388.8 
L 199.49184 388.8 
L 199.58112 216.191812 
L 199.6704 216.197319 
L 206.8128 216.087117 
L 209.84832 216.009975 
L 217.08 216.120177 
L 217.25856 235.2 
L 217.5264 235.2 
L 217.70496 216.1312 
L 217.9728 216.142218 
L 218.15136 235.2 
L 219.40128 235.2 
L 219.49056 216.175282 
L 219.57984 216.180789 
L 224.49024 216.290996 
L 227.3472 216.357115 
L 231.63264 216.467322 
L 234.13248 216.731808 
L 234.936 216.864052 
L 235.8288 216.974258 
L 237.43584 217.161603 
L 238.41792 217.271805 
L 239.93568 217.442624 
L 244.04256 217.844865 
L 248.86368 217.955067 
L 251.80992 218.026703 
L 256.54176 218.136905 
L 259.0416 218.395885 
L 260.11296 218.550169 
L 269.48736 219.602614 
L 272.07648 219.712816 
L 274.93344 219.77894 
L 278.95104 219.881694 
L 280.82592 219.949512 
L 284.04 220.059718 
L 286.7184 220.424236 
L 297.25344 222.314653 
L 298.05696 222.416377 
L 301.36032 222.93349 
L 304.75296 223.043692 
L 306.62784 223.11151 
L 310.02048 223.221712 
L 311.98464 223.298007 
L 315.19872 223.408209 
L 316.98432 223.467554 
L 320.28768 223.577756 
L 322.16256 223.645573 
L 324.39456 223.738824 
L 325.1088 223.832071 
L 326.26944 224.05248 
L 341.80416 226.89234 
L 342.5184 227.002547 
L 345.37536 227.434882 
L 347.07168 227.697675 
L 347.96448 227.850266 
L 350.1072 228.163921 
L 353.6784 228.731895 
L 354.48192 228.842097 
L 355.28544 228.960777 
L 358.32096 229.427023 
L 359.12448 229.53723 
L 361.7136 229.918703 
L 363.85632 230.011954 
L 367.24896 230.122156 
L 369.12384 230.189973 
L 372.51648 230.300175 
L 376.4448 230.774899 
L 377.15904 230.935968 
L 381.98016 231.741302 
L 384.0336 232.04648 
L 386.17632 232.343184 
L 387.06912 232.453386 
L 388.4976 232.614455 
L 401.17536 233.708011 
L 402.60384 233.818217 
L 407.06784 234.275986 
L 407.2464 235.2 
L 518.4 235.2 
L 518.4 235.2 
" style="fill:none;stroke:#000000;stroke-dasharray:6.000000,6.000000;stroke-dashoffset:0.0;"/>
   </g>
   <g id="line2d_3">
    <path clip-path="url(#p7706a1211b)" d="M 72.08928 158.4 
L 72.17856 158.4 
L 72.26784 158.4 
L 72.4464 119.995715 
L 72.53568 119.989357 
L 72.71424 235.2 
L 143.69184 235.2 
L 143.8704 74.11907 
L 144.04896 74.11907 
L 144.22752 73.393057 
L 144.40608 73.393057 
L 144.58464 72.742639 
L 144.85248 72.100259 
L 144.94176 72.030844 
L 145.2096 71.407892 
L 145.29888 71.349609 
L 145.656 70.402991 
L 145.92384 70.29689 
L 146.19168 69.653275 
L 146.28096 69.605759 
L 146.45952 69.294507 
L 146.63808 69.246817 
L 146.90592 68.645847 
L 147.08448 68.561783 
L 147.26304 68.235956 
L 147.4416 68.199792 
L 147.62016 67.921436 
L 147.888 67.824655 
L 148.06656 67.521204 
L 148.3344 67.472644 
L 148.51296 67.204962 
L 149.13792 67.131848 
L 150.38784 67.241519 
L 150.5664 67.472644 
L 151.10208 67.581921 
L 151.28064 67.848843 
L 151.63776 67.909332 
L 151.81632 68.199792 
L 152.26272 68.284167 
L 152.44128 68.54978 
L 152.88768 68.657858 
L 153.06624 68.898788 
L 153.78048 69.282587 
L 154.04832 69.354108 
L 154.22688 69.605759 
L 154.85184 69.712656 
L 155.0304 69.95181 
L 155.74464 70.058304 
L 155.9232 70.285098 
L 156.3696 70.355832 
L 156.816 70.402991 
L 156.99456 70.652747 
L 157.88736 70.746698 
L 158.06592 70.97243 
L 159.22656 71.077734 
L 159.4944 71.101135 
L 159.67296 71.337955 
L 161.19072 71.442856 
L 161.36928 71.679099 
L 163.33344 71.783615 
L 163.512 71.795224 
L 163.69056 72.019281 
L 164.8512 72.065552 
L 166.54752 72.14653 
L 166.72608 72.358484 
L 167.70816 72.381537 
L 171.01152 72.485248 
L 171.19008 72.696716 
L 171.36864 72.696716 
L 171.5472 72.473721 
L 171.81504 72.485248 
L 171.9936 72.696716 
L 172.26144 72.696716 
L 172.44 72.473721 
L 172.79712 72.485248 
L 172.97568 72.708206 
L 180.38592 72.811514 
L 180.56448 72.822995 
L 180.74304 73.045422 
L 180.9216 72.822995 
L 181.10016 72.822995 
L 181.27872 73.033987 
L 181.45728 72.822995 
L 181.54656 72.822995 
L 181.72512 73.045422 
L 181.8144 73.033987 
L 181.99296 72.822995 
L 182.17152 72.822995 
L 182.35008 73.045422 
L 182.61792 73.045422 
L 182.79648 72.822995 
L 182.97504 72.822995 
L 183.1536 73.045422 
L 183.77856 73.033987 
L 183.95712 72.822995 
L 184.13568 73.045422 
L 184.40352 73.033987 
L 184.58208 72.822995 
L 184.76064 72.822995 
L 184.9392 73.045422 
L 192.17088 73.148337 
L 192.43872 73.159772 
L 192.61728 73.381668 
L 192.79584 73.381668 
L 192.9744 73.159772 
L 193.4208 73.171207 
L 193.59936 73.381668 
L 193.77792 73.381668 
L 193.95648 73.159772 
L 194.22432 73.159772 
L 194.40288 73.381668 
L 194.67072 73.381668 
L 194.84928 73.159772 
L 195.29568 73.171207 
L 195.47424 73.381668 
L 195.92064 73.381668 
L 196.0992 73.171207 
L 196.27776 73.159772 
L 196.45632 73.381668 
L 196.63488 73.381668 
L 196.81344 73.159772 
L 196.992 73.159772 
L 197.17056 73.381668 
L 197.52768 73.381668 
L 197.70624 73.159772 
L 200.29536 73.056857 
L 200.65248 73.033987 
L 200.83104 72.822995 
L 201.36672 72.822995 
L 201.54528 73.045422 
L 204.31296 73.148337 
L 204.49152 73.159772 
L 204.67008 73.381668 
L 206.8128 73.728296 
L 206.99136 73.949524 
L 207.34848 73.972128 
L 207.52704 74.193182 
L 207.7056 74.204443 
L 207.88416 74.425369 
L 208.152 74.436584 
L 208.33056 74.657373 
L 208.68768 74.679712 
L 208.86624 74.900327 
L 209.13408 74.91145 
L 209.31264 75.131937 
L 209.66976 75.131937 
L 209.84832 75.352332 
L 210.29472 75.363364 
L 210.47328 75.572635 
L 210.91968 75.572635 
L 211.09824 75.781897 
L 211.63392 75.770947 
L 211.81248 75.980255 
L 212.25888 75.969351 
L 212.43744 76.167847 
L 213.15168 76.146121 
L 213.33024 76.344791 
L 213.9552 76.323157 
L 214.13376 76.522009 
L 214.75872 76.500458 
L 214.93728 76.699484 
L 215.56224 76.667294 
L 215.7408 76.866541 
L 216.36576 76.845172 
L 216.54432 77.044592 
L 217.08 77.023306 
L 217.25856 235.2 
L 217.5264 235.2 
L 217.70496 77.212308 
L 217.9728 77.191113 
L 218.15136 235.2 
L 219.40128 235.2 
L 219.57984 158.4 
L 240.2928 158.4 
L 240.47136 77.89292 
L 241.89984 77.614764 
L 242.0784 77.342358 
L 242.70336 77.262534 
L 243.14976 77.16275 
L 243.68544 77.072937 
L 243.864 77.286932 
L 244.39968 77.267065 
L 244.57824 77.481235 
L 245.2032 77.451562 
L 245.38176 77.675793 
L 246.096 77.646259 
L 246.27456 77.860822 
L 246.89952 77.831415 
L 247.07808 78.055957 
L 247.70304 78.026688 
L 247.8816 158.4 
L 262.79136 158.4 
L 262.88064 78.401367 
L 263.0592 158.4 
L 263.23776 78.354565 
L 268.05888 77.446619 
L 268.68384 77.353015 
L 270.55872 77.072214 
L 270.91584 77.062848 
L 271.0944 77.292297 
L 271.71936 77.264346 
L 271.89792 77.503281 
L 272.4336 77.475467 
L 272.61216 77.70531 
L 273.3264 77.686853 
L 273.50496 77.91687 
L 274.12992 77.898505 
L 274.30848 78.128696 
L 274.93344 78.101276 
L 275.112 78.331696 
L 275.73696 78.313504 
L 275.91552 78.544098 
L 276.54048 78.525989 
L 276.71904 78.756766 
L 277.25472 78.729739 
L 277.43328 158.4 
L 290.82528 158.4 
L 291.00384 80.4 
L 294.39648 80.4 
L 294.57504 80.160004 
L 298.23552 80.160004 
L 298.41408 80.4 
L 301.98528 80.4 
L 302.16384 80.639996 
L 302.69952 80.639996 
L 302.87808 80.880002 
L 303.59232 80.880002 
L 303.77088 81.119998 
L 304.39584 81.119998 
L 304.5744 81.360004 
L 305.19936 81.360004 
L 305.37792 81.6 
L 306.8064 81.6 
L 306.98496 81.840001 
L 307.60992 81.840001 
L 307.78848 82.080002 
L 308.41344 82.080002 
L 308.592 82.319998 
L 309.21696 82.319998 
L 309.39552 82.559999 
L 310.10976 82.559999 
L 310.28832 82.8 
L 310.46688 158.492014 
L 310.64544 82.8 
L 310.824 82.8 
L 310.91328 158.530539 
L 311.00256 158.526668 
L 313.23456 158.633478 
L 313.5024 158.698278 
L 314.75232 158.766267 
L 314.93088 158.84263 
L 316.35936 158.928623 
L 316.53792 159.011027 
L 319.752 159.342897 
L 319.93056 159.462422 
L 321.26976 159.60832 
L 321.44832 159.743106 
L 321.984 159.742474 
L 322.16256 159.893223 
L 322.96608 159.892168 
L 323.14464 160.051377 
L 323.68032 160.050598 
L 323.85888 160.211278 
L 325.46592 160.160982 
L 325.82304 160.157622 
L 326.80512 160.144711 
L 326.98368 159.988108 
L 328.68 160.006235 
L 328.85856 159.851808 
L 330.64416 159.868722 
L 330.82272 159.699509 
L 331.26912 159.741865 
L 331.62624 159.700659 
L 332.16192 159.729982 
L 332.96544 159.732793 
L 333.144 159.571063 
L 333.67968 159.603091 
L 357.87456 159.525107 
L 358.1424 159.543491 
L 359.0352 159.515901 
L 359.57088 159.532458 
L 361.89216 159.53636 
L 362.07072 159.707769 
L 362.51712 159.732905 
L 362.6064 159.732559 
L 362.78496 159.867347 
L 363.32064 159.890274 
L 363.4992 160.047183 
L 364.12416 160.057368 
L 364.30272 160.222148 
L 364.92768 160.233928 
L 365.10624 160.399211 
L 366.624 160.615236 
L 366.80256 160.805003 
L 367.42752 160.8207 
L 367.60608 161.018856 
L 368.23104 161.036004 
L 368.4096 161.262773 
L 369.12384 161.241778 
L 369.3024 161.477882 
L 369.83808 161.517907 
L 370.01664 161.74373 
L 370.6416 161.765091 
L 370.82016 161.998553 
L 371.35584 162.022595 
L 371.5344 162.292638 
L 372.15936 162.318922 
L 372.33792 162.57125 
L 373.05216 162.575552 
L 373.23072 162.892066 
L 374.03424 162.895329 
L 374.2128 163.140367 
L 374.48064 163.144557 
L 375.73056 163.115519 
L 375.81984 162.840419 
L 375.90912 162.906806 
L 376.26624 162.807542 
L 377.42688 162.913737 
L 377.60544 162.637868 
L 378.05184 162.732469 
L 378.40896 162.637633 
L 378.85536 162.73039 
L 379.21248 162.719114 
L 385.28352 162.938546 
L 385.46208 162.69142 
L 385.64064 162.734971 
L 385.8192 162.682156 
L 385.90848 162.729628 
L 386.08704 162.486505 
L 386.712 162.509089 
L 386.89056 162.237221 
L 387.6048 162.258602 
L 387.78336 162.017821 
L 388.31904 162.016454 
L 388.4976 161.760093 
L 388.944 161.803549 
L 389.21184 161.783801 
L 389.3904 161.555211 
L 390.2832 161.573403 
L 390.37248 161.310109 
L 390.46176 161.350035 
L 390.99744 161.36914 
L 391.176 161.132621 
L 391.6224 161.151405 
L 391.97952 161.147745 
L 392.15808 160.941743 
L 393.05088 160.956927 
L 393.22944 160.734428 
L 394.12224 160.767739 
L 394.3008 160.552643 
L 394.83648 160.54945 
L 395.28288 160.566485 
L 395.46144 160.359439 
L 396.71136 160.370203 
L 396.88992 160.188975 
L 397.872 160.200164 
L 398.05056 159.992867 
L 398.7648 160.02047 
L 400.19328 159.847009 
L 400.5504 159.843767 
L 400.72896 159.686152 
L 401.8896 159.664319 
L 402.06816 159.514831 
L 403.94304 159.374478 
L 404.1216 159.230358 
L 405.0144 159.227238 
L 405.19296 159.106169 
L 405.81792 159.111169 
L 405.99648 158.967175 
L 407.06784 158.855044 
L 407.2464 83.759999 
L 407.33568 83.759999 
L 407.42496 158.877289 
L 407.51424 158.778698 
L 408.94272 158.691161 
L 409.12128 158.614818 
L 410.28192 158.551324 
L 410.54976 158.497264 
L 411.7104 158.454948 
L 411.88896 82.080002 
L 412.24608 82.080002 
L 412.42464 81.840001 
L 412.96032 81.840001 
L 413.13888 81.6 
L 518.4 81.6 
L 518.4 81.6 
" style="fill:none;stroke:#000000;stroke-dasharray:6.000000,6.000000;stroke-dashoffset:0.0;"/>
   </g>
   <g id="patch_3">
    <path d="M 72 43.2 
L 518.4 43.2 
" style="fill:none;stroke:#000000;stroke-linecap:square;stroke-linejoin:miter;"/>
   </g>
   <g id="patch_4">
    <path d="M 518.4 388.8 
L 518.4 43.2 
" style="fill:none;stroke:#000000;stroke-linecap:square;stroke-linejoin:miter;"/>
   </g>
   <g id="patch_5">
    <path d="M 72 388.8 
L 518.4 388.8 
" style="fill:none;stroke:#000000;stroke-linecap:square;stroke-linejoin:miter;"/>
   </g>
   <g id="patch_6">
    <path d="M 72 388.8 
L 72 43.2 
" style="fill:none;stroke:#000000;stroke-linecap:square;stroke-linejoin:miter;"/>
   </g>
   <g id="matplotlib.axis_1">
    <g id="xtick_1">
     <g id="line2d_4">
      <path clip-path="url(#p7706a1211b)" d="M 72 388.8 
L 72 43.2 
" style="fill:none;stroke:#000000;stroke-dasharray:1.000000,3.000000;stroke-dashoffset:0.0;stroke-width:0.5;"/>
     </g>
     <g id="line2d_5">
      <defs>
       <path d="M 0 0 
L 0 -4 
" id="m4a0aae263c" style="stroke:#000000;stroke-width:0.5;"/>
      </defs>
      <g>
       <use style="stroke:#000000;stroke-width:0.5;" x="72.0" xlink:href="#m4a0aae263c" y="388.8"/>
      </g>
     </g>
     <g id="line2d_6">
      <defs>
       <path d="M 0 0 
L 0 4 
" id="m45a849aae5" style="stroke:#000000;stroke-width:0.5;"/>
      </defs>
      <g>
       <use style="stroke:#000000;stroke-width:0.5;" x="72.0" xlink:href="#m45a849aae5" y="43.2"/>
      </g>
     </g>
     <g id="text_1">
      <!-- 0 -->
      <defs>
       <path d="M 31.78125 66.40625 
Q 24.171875 66.40625 20.328125 58.90625 
Q 16.5 51.421875 16.5 36.375 
Q 16.5 21.390625 20.328125 13.890625 
Q 24.171875 6.390625 31.78125 6.390625 
Q 39.453125 6.390625 43.28125 13.890625 
Q 47.125 21.390625 47.125 36.375 
Q 47.125 51.421875 43.28125 58.90625 
Q 39.453125 66.40625 31.78125 66.40625 
M 31.78125 74.21875 
Q 44.046875 74.21875 50.515625 64.515625 
Q 56.984375 54.828125 56.984375 36.375 
Q 56.984375 17.96875 50.515625 8.265625 
Q 44.046875 -1.421875 31.78125 -1.421875 
Q 19.53125 -1.421875 13.0625 8.265625 
Q 6.59375 17.96875 6.59375 36.375 
Q 6.59375 54.828125 13.0625 64.515625 
Q 19.53125 74.21875 31.78125 74.21875 
" id="BitstreamVeraSans-Roman-30"/>
      </defs>
      <g transform="translate(68.1825 401.918125)scale(0.12 -0.12)">
       <use xlink:href="#BitstreamVeraSans-Roman-30"/>
      </g>
     </g>
    </g>
    <g id="xtick_2">
     <g id="line2d_7">
      <path clip-path="url(#p7706a1211b)" d="M 161.28 388.8 
L 161.28 43.2 
" style="fill:none;stroke:#000000;stroke-dasharray:1.000000,3.000000;stroke-dashoffset:0.0;stroke-width:0.5;"/>
     </g>
     <g id="line2d_8">
      <g>
       <use style="stroke:#000000;stroke-width:0.5;" x="161.28" xlink:href="#m4a0aae263c" y="388.8"/>
      </g>
     </g>
     <g id="line2d_9">
      <g>
       <use style="stroke:#000000;stroke-width:0.5;" x="161.28" xlink:href="#m45a849aae5" y="43.2"/>
      </g>
     </g>
     <g id="text_2">
      <!-- 10 -->
      <defs>
       <path d="M 12.40625 8.296875 
L 28.515625 8.296875 
L 28.515625 63.921875 
L 10.984375 60.40625 
L 10.984375 69.390625 
L 28.421875 72.90625 
L 38.28125 72.90625 
L 38.28125 8.296875 
L 54.390625 8.296875 
L 54.390625 0 
L 12.40625 0 
z
" id="BitstreamVeraSans-Roman-31"/>
      </defs>
      <g transform="translate(153.645 401.918125)scale(0.12 -0.12)">
       <use xlink:href="#BitstreamVeraSans-Roman-31"/>
       <use x="63.623046875" xlink:href="#BitstreamVeraSans-Roman-30"/>
      </g>
     </g>
    </g>
    <g id="xtick_3">
     <g id="line2d_10">
      <path clip-path="url(#p7706a1211b)" d="M 250.56 388.8 
L 250.56 43.2 
" style="fill:none;stroke:#000000;stroke-dasharray:1.000000,3.000000;stroke-dashoffset:0.0;stroke-width:0.5;"/>
     </g>
     <g id="line2d_11">
      <g>
       <use style="stroke:#000000;stroke-width:0.5;" x="250.56" xlink:href="#m4a0aae263c" y="388.8"/>
      </g>
     </g>
     <g id="line2d_12">
      <g>
       <use style="stroke:#000000;stroke-width:0.5;" x="250.56" xlink:href="#m45a849aae5" y="43.2"/>
      </g>
     </g>
     <g id="text_3">
      <!-- 20 -->
      <defs>
       <path d="M 19.1875 8.296875 
L 53.609375 8.296875 
L 53.609375 0 
L 7.328125 0 
L 7.328125 8.296875 
Q 12.9375 14.109375 22.625 23.890625 
Q 32.328125 33.6875 34.8125 36.53125 
Q 39.546875 41.84375 41.421875 45.53125 
Q 43.3125 49.21875 43.3125 52.78125 
Q 43.3125 58.59375 39.234375 62.25 
Q 35.15625 65.921875 28.609375 65.921875 
Q 23.96875 65.921875 18.8125 64.3125 
Q 13.671875 62.703125 7.8125 59.421875 
L 7.8125 69.390625 
Q 13.765625 71.78125 18.9375 73 
Q 24.125 74.21875 28.421875 74.21875 
Q 39.75 74.21875 46.484375 68.546875 
Q 53.21875 62.890625 53.21875 53.421875 
Q 53.21875 48.921875 51.53125 44.890625 
Q 49.859375 40.875 45.40625 35.40625 
Q 44.1875 33.984375 37.640625 27.21875 
Q 31.109375 20.453125 19.1875 8.296875 
" id="BitstreamVeraSans-Roman-32"/>
      </defs>
      <g transform="translate(242.925 401.918125)scale(0.12 -0.12)">
       <use xlink:href="#BitstreamVeraSans-Roman-32"/>
       <use x="63.623046875" xlink:href="#BitstreamVeraSans-Roman-30"/>
      </g>
     </g>
    </g>
    <g id="xtick_4">
     <g id="line2d_13">
      <path clip-path="url(#p7706a1211b)" d="M 339.84 388.8 
L 339.84 43.2 
" style="fill:none;stroke:#000000;stroke-dasharray:1.000000,3.000000;stroke-dashoffset:0.0;stroke-width:0.5;"/>
     </g>
     <g id="line2d_14">
      <g>
       <use style="stroke:#000000;stroke-width:0.5;" x="339.84" xlink:href="#m4a0aae263c" y="388.8"/>
      </g>
     </g>
     <g id="line2d_15">
      <g>
       <use style="stroke:#000000;stroke-width:0.5;" x="339.84" xlink:href="#m45a849aae5" y="43.2"/>
      </g>
     </g>
     <g id="text_4">
      <!-- 30 -->
      <defs>
       <path d="M 40.578125 39.3125 
Q 47.65625 37.796875 51.625 33 
Q 55.609375 28.21875 55.609375 21.1875 
Q 55.609375 10.40625 48.1875 4.484375 
Q 40.765625 -1.421875 27.09375 -1.421875 
Q 22.515625 -1.421875 17.65625 -0.515625 
Q 12.796875 0.390625 7.625 2.203125 
L 7.625 11.71875 
Q 11.71875 9.328125 16.59375 8.109375 
Q 21.484375 6.890625 26.8125 6.890625 
Q 36.078125 6.890625 40.9375 10.546875 
Q 45.796875 14.203125 45.796875 21.1875 
Q 45.796875 27.640625 41.28125 31.265625 
Q 36.765625 34.90625 28.71875 34.90625 
L 20.21875 34.90625 
L 20.21875 43.015625 
L 29.109375 43.015625 
Q 36.375 43.015625 40.234375 45.921875 
Q 44.09375 48.828125 44.09375 54.296875 
Q 44.09375 59.90625 40.109375 62.90625 
Q 36.140625 65.921875 28.71875 65.921875 
Q 24.65625 65.921875 20.015625 65.03125 
Q 15.375 64.15625 9.8125 62.3125 
L 9.8125 71.09375 
Q 15.4375 72.65625 20.34375 73.4375 
Q 25.25 74.21875 29.59375 74.21875 
Q 40.828125 74.21875 47.359375 69.109375 
Q 53.90625 64.015625 53.90625 55.328125 
Q 53.90625 49.265625 50.4375 45.09375 
Q 46.96875 40.921875 40.578125 39.3125 
" id="BitstreamVeraSans-Roman-33"/>
      </defs>
      <g transform="translate(332.205 401.918125)scale(0.12 -0.12)">
       <use xlink:href="#BitstreamVeraSans-Roman-33"/>
       <use x="63.623046875" xlink:href="#BitstreamVeraSans-Roman-30"/>
      </g>
     </g>
    </g>
    <g id="xtick_5">
     <g id="line2d_16">
      <path clip-path="url(#p7706a1211b)" d="M 429.12 388.8 
L 429.12 43.2 
" style="fill:none;stroke:#000000;stroke-dasharray:1.000000,3.000000;stroke-dashoffset:0.0;stroke-width:0.5;"/>
     </g>
     <g id="line2d_17">
      <g>
       <use style="stroke:#000000;stroke-width:0.5;" x="429.12" xlink:href="#m4a0aae263c" y="388.8"/>
      </g>
     </g>
     <g id="line2d_18">
      <g>
       <use style="stroke:#000000;stroke-width:0.5;" x="429.12" xlink:href="#m45a849aae5" y="43.2"/>
      </g>
     </g>
     <g id="text_5">
      <!-- 40 -->
      <defs>
       <path d="M 37.796875 64.3125 
L 12.890625 25.390625 
L 37.796875 25.390625 
z
M 35.203125 72.90625 
L 47.609375 72.90625 
L 47.609375 25.390625 
L 58.015625 25.390625 
L 58.015625 17.1875 
L 47.609375 17.1875 
L 47.609375 0 
L 37.796875 0 
L 37.796875 17.1875 
L 4.890625 17.1875 
L 4.890625 26.703125 
z
" id="BitstreamVeraSans-Roman-34"/>
      </defs>
      <g transform="translate(421.485 401.918125)scale(0.12 -0.12)">
       <use xlink:href="#BitstreamVeraSans-Roman-34"/>
       <use x="63.623046875" xlink:href="#BitstreamVeraSans-Roman-30"/>
      </g>
     </g>
    </g>
    <g id="xtick_6">
     <g id="line2d_19">
      <path clip-path="url(#p7706a1211b)" d="M 518.4 388.8 
L 518.4 43.2 
" style="fill:none;stroke:#000000;stroke-dasharray:1.000000,3.000000;stroke-dashoffset:0.0;stroke-width:0.5;"/>
     </g>
     <g id="line2d_20">
      <g>
       <use style="stroke:#000000;stroke-width:0.5;" x="518.4" xlink:href="#m4a0aae263c" y="388.8"/>
      </g>
     </g>
     <g id="line2d_21">
      <g>
       <use style="stroke:#000000;stroke-width:0.5;" x="518.4" xlink:href="#m45a849aae5" y="43.2"/>
      </g>
     </g>
     <g id="text_6">
      <!-- 50 -->
      <defs>
       <path d="M 10.796875 72.90625 
L 49.515625 72.90625 
L 49.515625 64.59375 
L 19.828125 64.59375 
L 19.828125 46.734375 
Q 21.96875 47.46875 24.109375 47.828125 
Q 26.265625 48.1875 28.421875 48.1875 
Q 40.625 48.1875 47.75 41.5 
Q 54.890625 34.8125 54.890625 23.390625 
Q 54.890625 11.625 47.5625 5.09375 
Q 40.234375 -1.421875 26.90625 -1.421875 
Q 22.3125 -1.421875 17.546875 -0.640625 
Q 12.796875 0.140625 7.71875 1.703125 
L 7.71875 11.625 
Q 12.109375 9.234375 16.796875 8.0625 
Q 21.484375 6.890625 26.703125 6.890625 
Q 35.15625 6.890625 40.078125 11.328125 
Q 45.015625 15.765625 45.015625 23.390625 
Q 45.015625 31 40.078125 35.4375 
Q 35.15625 39.890625 26.703125 39.890625 
Q 22.75 39.890625 18.8125 39.015625 
Q 14.890625 38.140625 10.796875 36.28125 
z
" id="BitstreamVeraSans-Roman-35"/>
      </defs>
      <g transform="translate(510.765 401.918125)scale(0.12 -0.12)">
       <use xlink:href="#BitstreamVeraSans-Roman-35"/>
       <use x="63.623046875" xlink:href="#BitstreamVeraSans-Roman-30"/>
      </g>
     </g>
    </g>
    <g id="text_7">
     <!-- Time [s] -->
     <defs>
      <path id="BitstreamVeraSans-Roman-20"/>
      <path d="M 8.59375 75.984375 
L 29.296875 75.984375 
L 29.296875 69 
L 17.578125 69 
L 17.578125 -6.203125 
L 29.296875 -6.203125 
L 29.296875 -13.1875 
L 8.59375 -13.1875 
z
" id="BitstreamVeraSans-Roman-5b"/>
      <path d="M 30.421875 75.984375 
L 30.421875 -13.1875 
L 9.71875 -13.1875 
L 9.71875 -6.203125 
L 21.390625 -6.203125 
L 21.390625 69 
L 9.71875 69 
L 9.71875 75.984375 
z
" id="BitstreamVeraSans-Roman-5d"/>
      <path d="M 52 44.1875 
Q 55.375 50.25 60.0625 53.125 
Q 64.75 56 71.09375 56 
Q 79.640625 56 84.28125 50.015625 
Q 88.921875 44.046875 88.921875 33.015625 
L 88.921875 0 
L 79.890625 0 
L 79.890625 32.71875 
Q 79.890625 40.578125 77.09375 44.375 
Q 74.3125 48.1875 68.609375 48.1875 
Q 61.625 48.1875 57.5625 43.546875 
Q 53.515625 38.921875 53.515625 30.90625 
L 53.515625 0 
L 44.484375 0 
L 44.484375 32.71875 
Q 44.484375 40.625 41.703125 44.40625 
Q 38.921875 48.1875 33.109375 48.1875 
Q 26.21875 48.1875 22.15625 43.53125 
Q 18.109375 38.875 18.109375 30.90625 
L 18.109375 0 
L 9.078125 0 
L 9.078125 54.6875 
L 18.109375 54.6875 
L 18.109375 46.1875 
Q 21.1875 51.21875 25.484375 53.609375 
Q 29.78125 56 35.6875 56 
Q 41.65625 56 45.828125 52.96875 
Q 50 49.953125 52 44.1875 
" id="BitstreamVeraSans-Roman-6d"/>
      <path d="M 9.421875 54.6875 
L 18.40625 54.6875 
L 18.40625 0 
L 9.421875 0 
z
M 9.421875 75.984375 
L 18.40625 75.984375 
L 18.40625 64.59375 
L 9.421875 64.59375 
z
" id="BitstreamVeraSans-Roman-69"/>
      <path d="M 56.203125 29.59375 
L 56.203125 25.203125 
L 14.890625 25.203125 
Q 15.484375 15.921875 20.484375 11.0625 
Q 25.484375 6.203125 34.421875 6.203125 
Q 39.59375 6.203125 44.453125 7.46875 
Q 49.3125 8.734375 54.109375 11.28125 
L 54.109375 2.78125 
Q 49.265625 0.734375 44.1875 -0.34375 
Q 39.109375 -1.421875 33.890625 -1.421875 
Q 20.796875 -1.421875 13.15625 6.1875 
Q 5.515625 13.8125 5.515625 26.8125 
Q 5.515625 40.234375 12.765625 48.109375 
Q 20.015625 56 32.328125 56 
Q 43.359375 56 49.78125 48.890625 
Q 56.203125 41.796875 56.203125 29.59375 
M 47.21875 32.234375 
Q 47.125 39.59375 43.09375 43.984375 
Q 39.0625 48.390625 32.421875 48.390625 
Q 24.90625 48.390625 20.390625 44.140625 
Q 15.875 39.890625 15.1875 32.171875 
z
" id="BitstreamVeraSans-Roman-65"/>
      <path d="M -0.296875 72.90625 
L 61.375 72.90625 
L 61.375 64.59375 
L 35.5 64.59375 
L 35.5 0 
L 25.59375 0 
L 25.59375 64.59375 
L -0.296875 64.59375 
z
" id="BitstreamVeraSans-Roman-54"/>
      <path d="M 44.28125 53.078125 
L 44.28125 44.578125 
Q 40.484375 46.53125 36.375 47.5 
Q 32.28125 48.484375 27.875 48.484375 
Q 21.1875 48.484375 17.84375 46.4375 
Q 14.5 44.390625 14.5 40.28125 
Q 14.5 37.15625 16.890625 35.375 
Q 19.28125 33.59375 26.515625 31.984375 
L 29.59375 31.296875 
Q 39.15625 29.25 43.1875 25.515625 
Q 47.21875 21.78125 47.21875 15.09375 
Q 47.21875 7.46875 41.1875 3.015625 
Q 35.15625 -1.421875 24.609375 -1.421875 
Q 20.21875 -1.421875 15.453125 -0.5625 
Q 10.6875 0.296875 5.421875 2 
L 5.421875 11.28125 
Q 10.40625 8.6875 15.234375 7.390625 
Q 20.0625 6.109375 24.8125 6.109375 
Q 31.15625 6.109375 34.5625 8.28125 
Q 37.984375 10.453125 37.984375 14.40625 
Q 37.984375 18.0625 35.515625 20.015625 
Q 33.0625 21.96875 24.703125 23.78125 
L 21.578125 24.515625 
Q 13.234375 26.265625 9.515625 29.90625 
Q 5.8125 33.546875 5.8125 39.890625 
Q 5.8125 47.609375 11.28125 51.796875 
Q 16.75 56 26.8125 56 
Q 31.78125 56 36.171875 55.265625 
Q 40.578125 54.546875 44.28125 53.078125 
" id="BitstreamVeraSans-Roman-73"/>
     </defs>
     <g transform="translate(270.620625 418.531875)scale(0.12 -0.12)">
      <use xlink:href="#BitstreamVeraSans-Roman-54"/>
      <use x="61.037109375" xlink:href="#BitstreamVeraSans-Roman-69"/>
      <use x="88.8203125" xlink:href="#BitstreamVeraSans-Roman-6d"/>
      <use x="186.232421875" xlink:href="#BitstreamVeraSans-Roman-65"/>
      <use x="247.755859375" xlink:href="#BitstreamVeraSans-Roman-20"/>
      <use x="279.54296875" xlink:href="#BitstreamVeraSans-Roman-5b"/>
      <use x="318.556640625" xlink:href="#BitstreamVeraSans-Roman-73"/>
      <use x="370.65625" xlink:href="#BitstreamVeraSans-Roman-5d"/>
     </g>
    </g>
   </g>
   <g id="matplotlib.axis_2">
    <g id="ytick_1">
     <g id="line2d_22">
      <path clip-path="url(#p7706a1211b)" d="M 72 388.8 
L 518.4 388.8 
" style="fill:none;stroke:#000000;stroke-dasharray:1.000000,3.000000;stroke-dashoffset:0.0;stroke-width:0.5;"/>
     </g>
     <g id="line2d_23">
      <defs>
       <path d="M 0 0 
L 4 0 
" id="md1bd1edd61" style="stroke:#000000;stroke-width:0.5;"/>
      </defs>
      <g>
       <use style="stroke:#000000;stroke-width:0.5;" x="72.0" xlink:href="#md1bd1edd61" y="388.8"/>
      </g>
     </g>
     <g id="line2d_24">
      <defs>
       <path d="M 0 0 
L -4 0 
" id="m5f5c65d6b6" style="stroke:#000000;stroke-width:0.5;"/>
      </defs>
      <g>
       <use style="stroke:#000000;stroke-width:0.5;" x="518.4" xlink:href="#m5f5c65d6b6" y="388.8"/>
      </g>
     </g>
     <g id="text_8">
      <!-- −3.0 -->
      <defs>
       <path d="M 10.59375 35.5 
L 73.1875 35.5 
L 73.1875 27.203125 
L 10.59375 27.203125 
z
" id="BitstreamVeraSans-Roman-2212"/>
       <path d="M 10.6875 12.40625 
L 21 12.40625 
L 21 0 
L 10.6875 0 
z
" id="BitstreamVeraSans-Roman-2e"/>
      </defs>
      <g transform="translate(38.860625 392.11125)scale(0.12 -0.12)">
       <use xlink:href="#BitstreamVeraSans-Roman-2212"/>
       <use x="83.7890625" xlink:href="#BitstreamVeraSans-Roman-33"/>
       <use x="147.412109375" xlink:href="#BitstreamVeraSans-Roman-2e"/>
       <use x="179.19921875" xlink:href="#BitstreamVeraSans-Roman-30"/>
      </g>
     </g>
    </g>
    <g id="ytick_2">
     <g id="line2d_25">
      <path clip-path="url(#p7706a1211b)" d="M 72 350.4 
L 518.4 350.4 
" style="fill:none;stroke:#000000;stroke-dasharray:1.000000,3.000000;stroke-dashoffset:0.0;stroke-width:0.5;"/>
     </g>
     <g id="line2d_26">
      <g>
       <use style="stroke:#000000;stroke-width:0.5;" x="72.0" xlink:href="#md1bd1edd61" y="350.4"/>
      </g>
     </g>
     <g id="line2d_27">
      <g>
       <use style="stroke:#000000;stroke-width:0.5;" x="518.4" xlink:href="#m5f5c65d6b6" y="350.4"/>
      </g>
     </g>
     <g id="text_9">
      <!-- −2.5 -->
      <g transform="translate(38.860625 353.71125)scale(0.12 -0.12)">
       <use xlink:href="#BitstreamVeraSans-Roman-2212"/>
       <use x="83.7890625" xlink:href="#BitstreamVeraSans-Roman-32"/>
       <use x="147.412109375" xlink:href="#BitstreamVeraSans-Roman-2e"/>
       <use x="179.19921875" xlink:href="#BitstreamVeraSans-Roman-35"/>
      </g>
     </g>
    </g>
    <g id="ytick_3">
     <g id="line2d_28">
      <path clip-path="url(#p7706a1211b)" d="M 72 312 
L 518.4 312 
" style="fill:none;stroke:#000000;stroke-dasharray:1.000000,3.000000;stroke-dashoffset:0.0;stroke-width:0.5;"/>
     </g>
     <g id="line2d_29">
      <g>
       <use style="stroke:#000000;stroke-width:0.5;" x="72.0" xlink:href="#md1bd1edd61" y="312.0"/>
      </g>
     </g>
     <g id="line2d_30">
      <g>
       <use style="stroke:#000000;stroke-width:0.5;" x="518.4" xlink:href="#m5f5c65d6b6" y="312.0"/>
      </g>
     </g>
     <g id="text_10">
      <!-- −2.0 -->
      <g transform="translate(38.860625 315.31125)scale(0.12 -0.12)">
       <use xlink:href="#BitstreamVeraSans-Roman-2212"/>
       <use x="83.7890625" xlink:href="#BitstreamVeraSans-Roman-32"/>
       <use x="147.412109375" xlink:href="#BitstreamVeraSans-Roman-2e"/>
       <use x="179.19921875" xlink:href="#BitstreamVeraSans-Roman-30"/>
      </g>
     </g>
    </g>
    <g id="ytick_4">
     <g id="line2d_31">
      <path clip-path="url(#p7706a1211b)" d="M 72 273.6 
L 518.4 273.6 
" style="fill:none;stroke:#000000;stroke-dasharray:1.000000,3.000000;stroke-dashoffset:0.0;stroke-width:0.5;"/>
     </g>
     <g id="line2d_32">
      <g>
       <use style="stroke:#000000;stroke-width:0.5;" x="72.0" xlink:href="#md1bd1edd61" y="273.6"/>
      </g>
     </g>
     <g id="line2d_33">
      <g>
       <use style="stroke:#000000;stroke-width:0.5;" x="518.4" xlink:href="#m5f5c65d6b6" y="273.6"/>
      </g>
     </g>
     <g id="text_11">
      <!-- −1.5 -->
      <g transform="translate(38.860625 276.91125)scale(0.12 -0.12)">
       <use xlink:href="#BitstreamVeraSans-Roman-2212"/>
       <use x="83.7890625" xlink:href="#BitstreamVeraSans-Roman-31"/>
       <use x="147.412109375" xlink:href="#BitstreamVeraSans-Roman-2e"/>
       <use x="179.19921875" xlink:href="#BitstreamVeraSans-Roman-35"/>
      </g>
     </g>
    </g>
    <g id="ytick_5">
     <g id="line2d_34">
      <path clip-path="url(#p7706a1211b)" d="M 72 235.2 
L 518.4 235.2 
" style="fill:none;stroke:#000000;stroke-dasharray:1.000000,3.000000;stroke-dashoffset:0.0;stroke-width:0.5;"/>
     </g>
     <g id="line2d_35">
      <g>
       <use style="stroke:#000000;stroke-width:0.5;" x="72.0" xlink:href="#md1bd1edd61" y="235.2"/>
      </g>
     </g>
     <g id="line2d_36">
      <g>
       <use style="stroke:#000000;stroke-width:0.5;" x="518.4" xlink:href="#m5f5c65d6b6" y="235.2"/>
      </g>
     </g>
     <g id="text_12">
      <!-- −1.0 -->
      <g transform="translate(38.860625 238.51125)scale(0.12 -0.12)">
       <use xlink:href="#BitstreamVeraSans-Roman-2212"/>
       <use x="83.7890625" xlink:href="#BitstreamVeraSans-Roman-31"/>
       <use x="147.412109375" xlink:href="#BitstreamVeraSans-Roman-2e"/>
       <use x="179.19921875" xlink:href="#BitstreamVeraSans-Roman-30"/>
      </g>
     </g>
    </g>
    <g id="ytick_6">
     <g id="line2d_37">
      <path clip-path="url(#p7706a1211b)" d="M 72 196.8 
L 518.4 196.8 
" style="fill:none;stroke:#000000;stroke-dasharray:1.000000,3.000000;stroke-dashoffset:0.0;stroke-width:0.5;"/>
     </g>
     <g id="line2d_38">
      <g>
       <use style="stroke:#000000;stroke-width:0.5;" x="72.0" xlink:href="#md1bd1edd61" y="196.8"/>
      </g>
     </g>
     <g id="line2d_39">
      <g>
       <use style="stroke:#000000;stroke-width:0.5;" x="518.4" xlink:href="#m5f5c65d6b6" y="196.8"/>
      </g>
     </g>
     <g id="text_13">
      <!-- −0.5 -->
      <g transform="translate(38.860625 200.11125)scale(0.12 -0.12)">
       <use xlink:href="#BitstreamVeraSans-Roman-2212"/>
       <use x="83.7890625" xlink:href="#BitstreamVeraSans-Roman-30"/>
       <use x="147.412109375" xlink:href="#BitstreamVeraSans-Roman-2e"/>
       <use x="179.19921875" xlink:href="#BitstreamVeraSans-Roman-35"/>
      </g>
     </g>
    </g>
    <g id="ytick_7">
     <g id="line2d_40">
      <path clip-path="url(#p7706a1211b)" d="M 72 158.4 
L 518.4 158.4 
" style="fill:none;stroke:#000000;stroke-dasharray:1.000000,3.000000;stroke-dashoffset:0.0;stroke-width:0.5;"/>
     </g>
     <g id="line2d_41">
      <g>
       <use style="stroke:#000000;stroke-width:0.5;" x="72.0" xlink:href="#md1bd1edd61" y="158.4"/>
      </g>
     </g>
     <g id="line2d_42">
      <g>
       <use style="stroke:#000000;stroke-width:0.5;" x="518.4" xlink:href="#m5f5c65d6b6" y="158.4"/>
      </g>
     </g>
     <g id="text_14">
      <!-- 0.0 -->
      <g transform="translate(48.91625 161.71125)scale(0.12 -0.12)">
       <use xlink:href="#BitstreamVeraSans-Roman-30"/>
       <use x="63.623046875" xlink:href="#BitstreamVeraSans-Roman-2e"/>
       <use x="95.41015625" xlink:href="#BitstreamVeraSans-Roman-30"/>
      </g>
     </g>
    </g>
    <g id="ytick_8">
     <g id="line2d_43">
      <path clip-path="url(#p7706a1211b)" d="M 72 120 
L 518.4 120 
" style="fill:none;stroke:#000000;stroke-dasharray:1.000000,3.000000;stroke-dashoffset:0.0;stroke-width:0.5;"/>
     </g>
     <g id="line2d_44">
      <g>
       <use style="stroke:#000000;stroke-width:0.5;" x="72.0" xlink:href="#md1bd1edd61" y="120.0"/>
      </g>
     </g>
     <g id="line2d_45">
      <g>
       <use style="stroke:#000000;stroke-width:0.5;" x="518.4" xlink:href="#m5f5c65d6b6" y="120.0"/>
      </g>
     </g>
     <g id="text_15">
      <!-- 0.5 -->
      <g transform="translate(48.91625 123.31125)scale(0.12 -0.12)">
       <use xlink:href="#BitstreamVeraSans-Roman-30"/>
       <use x="63.623046875" xlink:href="#BitstreamVeraSans-Roman-2e"/>
       <use x="95.41015625" xlink:href="#BitstreamVeraSans-Roman-35"/>
      </g>
     </g>
    </g>
    <g id="ytick_9">
     <g id="line2d_46">
      <path clip-path="url(#p7706a1211b)" d="M 72 81.6 
L 518.4 81.6 
" style="fill:none;stroke:#000000;stroke-dasharray:1.000000,3.000000;stroke-dashoffset:0.0;stroke-width:0.5;"/>
     </g>
     <g id="line2d_47">
      <g>
       <use style="stroke:#000000;stroke-width:0.5;" x="72.0" xlink:href="#md1bd1edd61" y="81.6"/>
      </g>
     </g>
     <g id="line2d_48">
      <g>
       <use style="stroke:#000000;stroke-width:0.5;" x="518.4" xlink:href="#m5f5c65d6b6" y="81.6"/>
      </g>
     </g>
     <g id="text_16">
      <!-- 1.0 -->
      <g transform="translate(48.91625 84.91125)scale(0.12 -0.12)">
       <use xlink:href="#BitstreamVeraSans-Roman-31"/>
       <use x="63.623046875" xlink:href="#BitstreamVeraSans-Roman-2e"/>
       <use x="95.41015625" xlink:href="#BitstreamVeraSans-Roman-30"/>
      </g>
     </g>
    </g>
    <g id="ytick_10">
     <g id="line2d_49">
      <path clip-path="url(#p7706a1211b)" d="M 72 43.2 
L 518.4 43.2 
" style="fill:none;stroke:#000000;stroke-dasharray:1.000000,3.000000;stroke-dashoffset:0.0;stroke-width:0.5;"/>
     </g>
     <g id="line2d_50">
      <g>
       <use style="stroke:#000000;stroke-width:0.5;" x="72.0" xlink:href="#md1bd1edd61" y="43.2"/>
      </g>
     </g>
     <g id="line2d_51">
      <g>
       <use style="stroke:#000000;stroke-width:0.5;" x="518.4" xlink:href="#m5f5c65d6b6" y="43.2"/>
      </g>
     </g>
     <g id="text_17">
      <!-- 1.5 -->
      <g transform="translate(48.91625 46.51125)scale(0.12 -0.12)">
       <use xlink:href="#BitstreamVeraSans-Roman-31"/>
       <use x="63.623046875" xlink:href="#BitstreamVeraSans-Roman-2e"/>
       <use x="95.41015625" xlink:href="#BitstreamVeraSans-Roman-35"/>
      </g>
     </g>
    </g>
    <g id="text_18">
     <!-- Acceleration [m/s^2] -->
     <defs>
      <path d="M 46.6875 72.90625 
L 73.1875 45.703125 
L 63.375 45.703125 
L 41.890625 64.984375 
L 20.40625 45.703125 
L 10.59375 45.703125 
L 37.109375 72.90625 
z
" id="BitstreamVeraSans-Roman-5e"/>
      <path d="M 54.890625 33.015625 
L 54.890625 0 
L 45.90625 0 
L 45.90625 32.71875 
Q 45.90625 40.484375 42.875 44.328125 
Q 39.84375 48.1875 33.796875 48.1875 
Q 26.515625 48.1875 22.3125 43.546875 
Q 18.109375 38.921875 18.109375 30.90625 
L 18.109375 0 
L 9.078125 0 
L 9.078125 54.6875 
L 18.109375 54.6875 
L 18.109375 46.1875 
Q 21.34375 51.125 25.703125 53.5625 
Q 30.078125 56 35.796875 56 
Q 45.21875 56 50.046875 50.171875 
Q 54.890625 44.34375 54.890625 33.015625 
" id="BitstreamVeraSans-Roman-6e"/>
      <path d="M 41.109375 46.296875 
Q 39.59375 47.171875 37.8125 47.578125 
Q 36.03125 48 33.890625 48 
Q 26.265625 48 22.1875 43.046875 
Q 18.109375 38.09375 18.109375 28.8125 
L 18.109375 0 
L 9.078125 0 
L 9.078125 54.6875 
L 18.109375 54.6875 
L 18.109375 46.1875 
Q 20.953125 51.171875 25.484375 53.578125 
Q 30.03125 56 36.53125 56 
Q 37.453125 56 38.578125 55.875 
Q 39.703125 55.765625 41.0625 55.515625 
z
" id="BitstreamVeraSans-Roman-72"/>
      <path d="M 30.609375 48.390625 
Q 23.390625 48.390625 19.1875 42.75 
Q 14.984375 37.109375 14.984375 27.296875 
Q 14.984375 17.484375 19.15625 11.84375 
Q 23.34375 6.203125 30.609375 6.203125 
Q 37.796875 6.203125 41.984375 11.859375 
Q 46.1875 17.53125 46.1875 27.296875 
Q 46.1875 37.015625 41.984375 42.703125 
Q 37.796875 48.390625 30.609375 48.390625 
M 30.609375 56 
Q 42.328125 56 49.015625 48.375 
Q 55.71875 40.765625 55.71875 27.296875 
Q 55.71875 13.875 49.015625 6.21875 
Q 42.328125 -1.421875 30.609375 -1.421875 
Q 18.84375 -1.421875 12.171875 6.21875 
Q 5.515625 13.875 5.515625 27.296875 
Q 5.515625 40.765625 12.171875 48.375 
Q 18.84375 56 30.609375 56 
" id="BitstreamVeraSans-Roman-6f"/>
      <path d="M 9.421875 75.984375 
L 18.40625 75.984375 
L 18.40625 0 
L 9.421875 0 
z
" id="BitstreamVeraSans-Roman-6c"/>
      <path d="M 34.1875 63.1875 
L 20.796875 26.90625 
L 47.609375 26.90625 
z
M 28.609375 72.90625 
L 39.796875 72.90625 
L 67.578125 0 
L 57.328125 0 
L 50.6875 18.703125 
L 17.828125 18.703125 
L 11.1875 0 
L 0.78125 0 
z
" id="BitstreamVeraSans-Roman-41"/>
      <path d="M 25.390625 72.90625 
L 33.6875 72.90625 
L 8.296875 -9.28125 
L 0 -9.28125 
z
" id="BitstreamVeraSans-Roman-2f"/>
      <path d="M 18.3125 70.21875 
L 18.3125 54.6875 
L 36.8125 54.6875 
L 36.8125 47.703125 
L 18.3125 47.703125 
L 18.3125 18.015625 
Q 18.3125 11.328125 20.140625 9.421875 
Q 21.96875 7.515625 27.59375 7.515625 
L 36.8125 7.515625 
L 36.8125 0 
L 27.59375 0 
Q 17.1875 0 13.234375 3.875 
Q 9.28125 7.765625 9.28125 18.015625 
L 9.28125 47.703125 
L 2.6875 47.703125 
L 2.6875 54.6875 
L 9.28125 54.6875 
L 9.28125 70.21875 
z
" id="BitstreamVeraSans-Roman-74"/>
      <path d="M 34.28125 27.484375 
Q 23.390625 27.484375 19.1875 25 
Q 14.984375 22.515625 14.984375 16.5 
Q 14.984375 11.71875 18.140625 8.90625 
Q 21.296875 6.109375 26.703125 6.109375 
Q 34.1875 6.109375 38.703125 11.40625 
Q 43.21875 16.703125 43.21875 25.484375 
L 43.21875 27.484375 
z
M 52.203125 31.203125 
L 52.203125 0 
L 43.21875 0 
L 43.21875 8.296875 
Q 40.140625 3.328125 35.546875 0.953125 
Q 30.953125 -1.421875 24.3125 -1.421875 
Q 15.921875 -1.421875 10.953125 3.296875 
Q 6 8.015625 6 15.921875 
Q 6 25.140625 12.171875 29.828125 
Q 18.359375 34.515625 30.609375 34.515625 
L 43.21875 34.515625 
L 43.21875 35.40625 
Q 43.21875 41.609375 39.140625 45 
Q 35.0625 48.390625 27.6875 48.390625 
Q 23 48.390625 18.546875 47.265625 
Q 14.109375 46.140625 10.015625 43.890625 
L 10.015625 52.203125 
Q 14.9375 54.109375 19.578125 55.046875 
Q 24.21875 56 28.609375 56 
Q 40.484375 56 46.34375 49.84375 
Q 52.203125 43.703125 52.203125 31.203125 
" id="BitstreamVeraSans-Roman-61"/>
      <path d="M 48.78125 52.59375 
L 48.78125 44.1875 
Q 44.96875 46.296875 41.140625 47.34375 
Q 37.3125 48.390625 33.40625 48.390625 
Q 24.65625 48.390625 19.8125 42.84375 
Q 14.984375 37.3125 14.984375 27.296875 
Q 14.984375 17.28125 19.8125 11.734375 
Q 24.65625 6.203125 33.40625 6.203125 
Q 37.3125 6.203125 41.140625 7.25 
Q 44.96875 8.296875 48.78125 10.40625 
L 48.78125 2.09375 
Q 45.015625 0.34375 40.984375 -0.53125 
Q 36.96875 -1.421875 32.421875 -1.421875 
Q 20.0625 -1.421875 12.78125 6.34375 
Q 5.515625 14.109375 5.515625 27.296875 
Q 5.515625 40.671875 12.859375 48.328125 
Q 20.21875 56 33.015625 56 
Q 37.15625 56 41.109375 55.140625 
Q 45.0625 54.296875 48.78125 52.59375 
" id="BitstreamVeraSans-Roman-63"/>
     </defs>
     <g transform="translate(31.365 279.81375)rotate(-90.0)scale(0.12 -0.12)">
      <use xlink:href="#BitstreamVeraSans-Roman-41"/>
      <use x="68.392578125" xlink:href="#BitstreamVeraSans-Roman-63"/>
      <use x="123.373046875" xlink:href="#BitstreamVeraSans-Roman-63"/>
      <use x="178.353515625" xlink:href="#BitstreamVeraSans-Roman-65"/>
      <use x="239.876953125" xlink:href="#BitstreamVeraSans-Roman-6c"/>
      <use x="267.66015625" xlink:href="#BitstreamVeraSans-Roman-65"/>
      <use x="329.18359375" xlink:href="#BitstreamVeraSans-Roman-72"/>
      <use x="370.296875" xlink:href="#BitstreamVeraSans-Roman-61"/>
      <use x="431.576171875" xlink:href="#BitstreamVeraSans-Roman-74"/>
      <use x="470.78515625" xlink:href="#BitstreamVeraSans-Roman-69"/>
      <use x="498.568359375" xlink:href="#BitstreamVeraSans-Roman-6f"/>
      <use x="559.75" xlink:href="#BitstreamVeraSans-Roman-6e"/>
      <use x="623.12890625" xlink:href="#BitstreamVeraSans-Roman-20"/>
      <use x="654.916015625" xlink:href="#BitstreamVeraSans-Roman-5b"/>
      <use x="693.9296875" xlink:href="#BitstreamVeraSans-Roman-6d"/>
      <use x="791.341796875" xlink:href="#BitstreamVeraSans-Roman-2f"/>
      <use x="825.033203125" xlink:href="#BitstreamVeraSans-Roman-73"/>
      <use x="877.1328125" xlink:href="#BitstreamVeraSans-Roman-5e"/>
      <use x="960.921875" xlink:href="#BitstreamVeraSans-Roman-32"/>
      <use x="1024.54492188" xlink:href="#BitstreamVeraSans-Roman-5d"/>
     </g>
    </g>
   </g>
   <g id="legend_1">
    <g id="patch_7">
     <path d="M 421.839 381.6 
L 511.2 381.6 
L 511.2 313.8705 
L 421.839 313.8705 
z
" style="fill:#ffffff;stroke:#000000;stroke-linejoin:miter;"/>
    </g>
    <g id="line2d_52">
     <path d="M 431.919 325.53225 
L 452.079 325.53225 
" style="fill:none;stroke:#008000;stroke-linecap:square;"/>
    </g>
    <g id="line2d_53"/>
    <g id="text_19">
     <!-- accel -->
     <g transform="translate(467.919 330.57225)scale(0.144 -0.144)">
      <use xlink:href="#BitstreamVeraSans-Roman-61"/>
      <use x="61.279296875" xlink:href="#BitstreamVeraSans-Roman-63"/>
      <use x="116.259765625" xlink:href="#BitstreamVeraSans-Roman-63"/>
      <use x="171.240234375" xlink:href="#BitstreamVeraSans-Roman-65"/>
      <use x="232.763671875" xlink:href="#BitstreamVeraSans-Roman-6c"/>
     </g>
    </g>
    <g id="line2d_54">
     <path d="M 431.919 346.66875 
L 452.079 346.66875 
" style="fill:none;stroke:#000000;stroke-dasharray:6.000000,6.000000;stroke-dashoffset:0.0;"/>
    </g>
    <g id="line2d_55"/>
    <g id="text_20">
     <!-- max -->
     <defs>
      <path d="M 54.890625 54.6875 
L 35.109375 28.078125 
L 55.90625 0 
L 45.3125 0 
L 29.390625 21.484375 
L 13.484375 0 
L 2.875 0 
L 24.125 28.609375 
L 4.6875 54.6875 
L 15.28125 54.6875 
L 29.78125 35.203125 
L 44.28125 54.6875 
z
" id="BitstreamVeraSans-Roman-78"/>
     </defs>
     <g transform="translate(467.919 351.70875)scale(0.144 -0.144)">
      <use xlink:href="#BitstreamVeraSans-Roman-6d"/>
      <use x="97.412109375" xlink:href="#BitstreamVeraSans-Roman-61"/>
      <use x="158.69140625" xlink:href="#BitstreamVeraSans-Roman-78"/>
     </g>
    </g>
    <g id="line2d_56">
     <path d="M 431.919 367.80525 
L 452.079 367.80525 
" style="fill:none;stroke:#000000;stroke-dasharray:6.000000,6.000000;stroke-dashoffset:0.0;"/>
    </g>
    <g id="line2d_57"/>
    <g id="text_21">
     <!-- min -->
     <g transform="translate(467.919 372.84525)scale(0.144 -0.144)">
      <use xlink:href="#BitstreamVeraSans-Roman-6d"/>
      <use x="97.412109375" xlink:href="#BitstreamVeraSans-Roman-69"/>
      <use x="125.1953125" xlink:href="#BitstreamVeraSans-Roman-6e"/>
     </g>
    </g>
   </g>
  </g>
 </g>
 <defs>
  <clipPath id="p7706a1211b">
   <rect height="345.6" width="446.4" x="72.0" y="43.2"/>
  </clipPath>
 </defs>
</svg>
