<?xml version="1.0" encoding="utf-8" standalone="no"?>
<!DOCTYPE svg PUBLIC "-//W3C//DTD SVG 1.1//EN"
  "http://www.w3.org/Graphics/SVG/1.1/DTD/svg11.dtd">
<!-- Created with matplotlib (http://matplotlib.org/) -->
<svg height="432pt" version="1.1" viewBox="0 0 576 432" width="576pt" xmlns="http://www.w3.org/2000/svg" xmlns:xlink="http://www.w3.org/1999/xlink">
 <defs>
  <style type="text/css">
*{stroke-linecap:butt;stroke-linejoin:round;stroke-miterlimit:100000;}
  </style>
 </defs>
 <g id="figure_1">
  <g id="patch_1">
   <path d="M 0 432 
L 576 432 
L 576 0 
L 0 0 
z
" style="fill:#ffffff;"/>
  </g>
  <g id="axes_1">
   <g id="patch_2">
    <path d="M 72 388.8 
L 518.4 388.8 
L 518.4 43.2 
L 72 43.2 
z
" style="fill:#ffffff;"/>
   </g>
   <g id="line2d_1">
    <path clip-path="url(#p51043fc742)" d="M 72.08928 388.8 
L 148.87008 388.8 
L 149.04864 384.333436 
L 149.31648 380.904651 
L 149.40576 380.904651 
L 149.6736 377.818745 
L 149.85216 377.818745 
L 150.03072 376.447231 
L 150.29856 374.047082 
L 150.38784 374.047082 
L 150.5664 372.675568 
L 150.65568 372.675568 
L 150.92352 370.275418 
L 151.0128 370.275418 
L 151.28064 368.218147 
L 151.36992 368.218147 
L 151.54848 366.846633 
L 151.63776 366.846633 
L 151.81632 367.53239 
L 151.99488 367.53239 
L 152.17344 366.846633 
L 152.352 367.189512 
L 152.53056 369.246783 
L 152.7984 368.561026 
L 152.88768 368.561026 
L 153.06624 370.961175 
L 153.15552 370.961175 
L 153.33408 369.93254 
L 153.51264 369.589661 
L 153.6912 371.646932 
L 153.86976 371.989811 
L 153.95904 371.989811 
L 154.1376 371.646932 
L 154.31616 373.361325 
L 154.49472 373.018446 
L 154.76256 373.018446 
L 154.94112 372.675568 
L 155.11968 374.732839 
L 155.38752 374.732839 
L 155.65536 374.047082 
L 155.74464 374.047082 
L 155.9232 376.104352 
L 156.01248 376.104352 
L 156.19104 376.447231 
L 156.3696 375.761474 
L 156.90528 375.761474 
L 157.08384 377.475866 
L 157.53024 377.475866 
L 157.7088 377.132988 
L 157.88736 377.132988 
L 158.06592 378.84738 
L 158.78016 378.84738 
L 158.95872 378.504502 
L 159.4944 378.504502 
L 159.67296 380.218894 
L 160.11936 380.218894 
L 160.29792 379.876016 
L 160.92288 379.876016 
L 161.10144 379.533137 
L 161.28 379.533137 
L 161.45856 381.590408 
L 161.63712 381.590408 
L 161.81568 381.24753 
L 162.70848 381.24753 
L 162.88704 380.904651 
L 163.60128 380.904651 
L 163.77984 382.619044 
L 163.9584 382.619044 
L 164.13696 382.276165 
L 164.31552 382.619044 
L 164.49408 382.276165 
L 165.02976 382.276165 
L 165.20832 381.933287 
L 166.10112 381.933287 
L 166.27968 381.590408 
L 166.45824 381.590408 
L 166.6368 381.933287 
L 166.81536 385.362072 
L 166.99392 384.676315 
L 167.35104 383.647679 
L 167.5296 384.333436 
L 167.70816 383.647679 
L 167.88672 383.647679 
L 168.06528 383.304801 
L 168.24384 383.647679 
L 168.4224 383.647679 
L 168.60096 382.961922 
L 168.77952 383.304801 
L 168.95808 382.961922 
L 169.67232 382.961922 
L 169.85088 382.619044 
L 170.92224 382.619044 
L 171.1008 382.276165 
L 171.27936 388.105099 
L 171.45792 387.419343 
L 171.63648 382.619044 
L 171.81504 382.276165 
L 171.9936 387.419343 
L 172.17216 386.733586 
L 172.35072 386.733586 
L 172.52928 382.276165 
L 172.70784 381.933287 
L 172.8864 382.276165 
L 173.06496 386.733586 
L 173.3328 386.047829 
L 173.42208 386.047829 
L 173.7792 385.019193 
L 173.95776 385.019193 
L 174.13632 385.362072 
L 174.49344 385.362072 
L 174.672 385.019193 
L 174.85056 385.019193 
L 175.02912 385.362072 
L 175.20768 384.676315 
L 175.38624 385.362072 
L 175.5648 385.019193 
L 175.74336 385.019193 
L 175.92192 384.333436 
L 176.10048 383.990558 
L 176.4576 383.990558 
L 176.63616 383.647679 
L 176.81472 384.333436 
L 176.99328 383.647679 
L 177.17184 383.304801 
L 177.3504 383.990558 
L 177.61824 383.304801 
L 177.70752 383.304801 
L 177.88608 383.647679 
L 178.06464 383.304801 
L 178.42176 383.304801 
L 178.60032 382.619044 
L 178.77888 382.961922 
L 178.95744 382.619044 
L 179.136 382.961922 
L 179.31456 382.619044 
L 180.56448 382.619044 
L 180.74304 388.8 
L 181.01088 382.276165 
L 181.10016 382.276165 
L 181.27872 388.105099 
L 181.54656 382.276165 
L 181.63584 382.276165 
L 181.8144 388.105099 
L 182.08224 381.933287 
L 182.17152 381.933287 
L 182.35008 386.733586 
L 182.52864 387.762221 
L 182.7072 386.733586 
L 182.88576 382.276165 
L 183.06432 381.933287 
L 183.24288 387.076464 
L 183.42144 387.076464 
L 183.6 385.70495 
L 183.77856 385.70495 
L 183.95712 382.961922 
L 184.13568 386.733586 
L 184.31424 386.047829 
L 184.4928 386.047829 
L 184.67136 382.276165 
L 184.84992 381.590408 
L 185.02848 386.390707 
L 185.20704 385.70495 
L 185.3856 385.362072 
L 185.74272 385.362072 
L 185.92128 385.019193 
L 186.45696 385.019193 
L 186.63552 384.676315 
L 187.1712 384.676315 
L 187.34976 385.019193 
L 187.52832 385.019193 
L 187.70688 384.333436 
L 187.88544 384.333436 
L 188.064 383.990558 
L 188.42112 383.990558 
L 188.59968 384.333436 
L 188.77824 384.333436 
L 188.9568 383.647679 
L 189.13536 383.990558 
L 189.49248 383.990558 
L 189.67104 383.304801 
L 189.8496 383.647679 
L 190.02816 382.961922 
L 190.20672 383.647679 
L 190.38528 383.647679 
L 190.56384 382.961922 
L 190.7424 383.304801 
L 190.92096 383.304801 
L 191.09952 382.619044 
L 191.27808 382.961922 
L 191.45664 382.619044 
L 191.6352 382.961922 
L 191.81376 382.961922 
L 191.99232 382.619044 
L 192.34944 382.619044 
L 192.528 382.961922 
L 192.70656 388.8 
L 192.88512 388.105099 
L 193.06368 382.961922 
L 193.24224 382.276165 
L 193.4208 382.619044 
L 193.59936 388.8 
L 193.8672 387.762221 
L 194.04576 382.619044 
L 194.22432 382.276165 
L 194.3136 382.276165 
L 194.49216 388.447978 
L 194.76 388.447978 
L 194.93856 382.961922 
L 195.11712 381.933287 
L 195.2064 381.933287 
L 195.38496 382.276165 
L 195.56352 387.762221 
L 195.92064 386.733586 
L 196.00992 387.419343 
L 196.18848 381.933287 
L 196.27776 381.933287 
L 196.45632 387.762221 
L 196.63488 387.762221 
L 196.81344 383.990558 
L 196.992 381.590408 
L 197.17056 387.076464 
L 197.34912 387.419343 
L 197.52768 386.733586 
L 197.70624 383.647679 
L 197.8848 388.8 
L 200.02752 388.8 
L 200.29536 388.105099 
L 200.38464 388.105099 
L 200.74176 386.733586 
L 200.92032 384.333436 
L 201.09888 383.304801 
L 201.27744 382.619044 
L 201.36672 382.619044 
L 201.72384 384.676315 
L 201.9024 383.647679 
L 201.99168 383.647679 
L 202.17024 382.961922 
L 202.43808 382.276165 
L 202.70592 382.276165 
L 202.88448 381.933287 
L 203.15232 381.933287 
L 203.33088 381.590408 
L 203.50944 381.590408 
L 203.688 381.24753 
L 204.04512 381.24753 
L 204.31296 380.561773 
L 204.40224 380.561773 
L 204.5808 380.218894 
L 204.75936 380.904651 
L 204.93792 380.904651 
L 205.11648 380.561773 
L 205.38432 380.561773 
L 205.56288 380.218894 
L 205.83072 380.218894 
L 206.00928 379.876016 
L 206.18784 379.876016 
L 206.3664 379.533137 
L 206.54496 380.218894 
L 206.72352 380.218894 
L 206.90208 379.876016 
L 207.08064 380.561773 
L 207.52704 380.561773 
L 207.79488 381.24753 
L 207.88416 381.24753 
L 208.06272 381.590408 
L 208.152 381.590408 
L 208.33056 381.24753 
L 208.50912 381.933287 
L 208.95552 381.933287 
L 209.13408 382.276165 
L 209.22336 382.276165 
L 209.40192 383.647679 
L 209.4912 383.647679 
L 209.66976 382.619044 
L 209.84832 382.961922 
L 210.02688 384.333436 
L 210.20544 385.019193 
L 210.29472 383.990558 
L 210.65184 386.047829 
L 210.8304 386.047829 
L 210.91968 385.019193 
L 211.18752 387.076464 
L 211.36608 387.076464 
L 211.54464 386.047829 
L 211.63392 386.047829 
L 211.90176 388.447978 
L 212.08032 387.419343 
L 212.25888 387.419343 
L 212.52672 388.8 
L 212.79456 388.8 
L 212.97312 388.105099 
L 213.15168 387.762221 
L 213.5088 388.8 
L 213.68736 388.8 
L 213.86592 388.447978 
L 214.04448 388.447978 
L 214.22304 388.8 
L 518.4 388.8 
L 518.4 388.8 
" style="fill:none;stroke:#008000;stroke-linecap:square;"/>
   </g>
   <g id="line2d_2">
    <path clip-path="url(#p51043fc742)" d="M 72.08928 388.8 
L 84.67776 388.8 
L 84.9456 375.300007 
L 85.03488 375.300007 
L 85.30272 361.800014 
L 85.392 361.800014 
L 85.65984 348.300021 
L 85.74912 348.300021 
L 86.01696 334.800028 
L 86.10624 334.800028 
L 86.37408 319.950035 
L 86.46336 319.950035 
L 86.7312 306.450042 
L 86.82048 306.450042 
L 87.08832 292.950049 
L 87.1776 292.950049 
L 87.44544 279.450056 
L 87.53472 279.450056 
L 87.80256 264.600064 
L 87.89184 264.600064 
L 88.15968 251.100071 
L 88.24896 251.100071 
L 88.5168 237.600077 
L 88.60608 237.600077 
L 88.87392 224.100084 
L 88.9632 224.100084 
L 89.23104 209.250092 
L 89.32032 209.250092 
L 89.58816 195.750099 
L 89.67744 195.750099 
L 89.94528 182.250106 
L 90.03456 182.250106 
L 90.3024 168.750113 
L 90.39168 168.750113 
L 90.65952 153.90012 
L 90.7488 153.90012 
L 91.01664 140.400127 
L 91.10592 140.400127 
L 91.37376 126.900134 
L 91.46304 126.900134 
L 91.73088 113.400141 
L 91.82016 113.400141 
L 92.088 98.550149 
L 92.17728 98.550149 
L 92.44512 85.050156 
L 92.5344 85.050156 
L 92.80224 71.550162 
L 92.89152 71.550162 
L 93.07008 67.500165 
L 93.78432 67.500165 
L 93.96288 66.150165 
L 94.49856 66.150165 
L 94.67712 64.800166 
L 95.56992 64.800166 
L 95.74848 63.450167 
L 96.46272 63.450167 
L 96.64128 62.100167 
L 97.17696 62.100167 
L 97.35552 60.750168 
L 98.06976 60.750168 
L 98.24832 59.400169 
L 98.96256 59.400169 
L 99.14112 58.050169 
L 99.6768 58.050169 
L 99.85536 56.70017 
L 100.74816 56.70017 
L 100.92672 55.350171 
L 101.4624 55.350171 
L 101.64096 54.000171 
L 102.3552 54.000171 
L 102.53376 52.650172 
L 103.248 52.650172 
L 103.42656 51.300173 
L 103.96224 51.300173 
L 104.1408 49.950173 
L 104.85504 49.950173 
L 105.0336 48.600174 
L 105.74784 48.600174 
L 105.9264 47.250175 
L 106.46208 47.250175 
L 106.64064 45.900176 
L 107.35488 45.900176 
L 107.53344 44.550176 
L 143.15616 44.550176 
L 143.424 52.650172 
L 143.51328 52.650172 
L 143.8704 68.850164 
L 144.13824 94.500151 
L 144.3168 94.500151 
L 144.58464 118.800138 
L 144.67392 118.800138 
L 144.94176 141.750126 
L 145.03104 141.750126 
L 145.29888 166.050114 
L 145.38816 166.050114 
L 145.656 187.650103 
L 145.74528 187.650103 
L 145.92384 198.450097 
L 146.01312 198.450097 
L 146.19168 211.950091 
L 146.45952 232.20008 
L 146.63808 232.20008 
L 146.90592 252.45007 
L 146.9952 252.45007 
L 147.26304 274.050059 
L 147.4416 274.050059 
L 147.70944 291.60005 
L 147.79872 291.60005 
L 148.06656 309.150041 
L 148.24512 309.150041 
L 148.51296 325.350032 
L 148.60224 325.350032 
L 148.7808 388.8 
L 230.73984 388.8 
L 231.27552 372.600008 
L 231.54336 357.750016 
L 231.63264 357.750016 
L 231.90048 344.250023 
L 231.98976 344.250023 
L 232.2576 330.75003 
L 232.34688 330.75003 
L 232.61472 317.250037 
L 232.704 317.250037 
L 232.97184 305.100043 
L 235.02528 305.100043 
L 235.29312 307.800041 
L 235.3824 307.800041 
L 235.56096 309.150041 
L 235.91808 309.150041 
L 236.09664 310.50004 
L 236.81088 310.50004 
L 237.07872 313.200039 
L 237.168 313.200039 
L 237.34656 314.550038 
L 237.52512 314.550038 
L 237.70368 315.900037 
L 237.97152 315.900037 
L 238.15008 317.250037 
L 238.77504 317.250037 
L 238.9536 318.600036 
L 239.48928 318.600036 
L 239.66784 319.950035 
L 239.8464 319.950035 
L 240.02496 321.300035 
L 240.38208 321.300035 
L 240.56064 322.650034 
L 241.45344 322.650034 
L 241.632 324.000033 
L 241.89984 324.000033 
L 242.34624 329.40003 
L 242.61408 329.40003 
L 242.79264 330.75003 
L 243.23904 330.75003 
L 243.4176 332.100029 
L 243.59616 388.8 
L 255.73824 388.8 
L 256.27392 372.600008 
L 256.54176 357.750016 
L 256.63104 357.750016 
L 256.89888 344.250023 
L 256.98816 344.250023 
L 257.256 330.75003 
L 257.34528 330.75003 
L 257.61312 317.250037 
L 257.7024 317.250037 
L 257.97024 303.750044 
L 259.488 303.750044 
L 259.66656 305.100043 
L 260.29152 305.100043 
L 260.47008 306.450042 
L 260.55936 306.450042 
L 260.8272 309.150041 
L 260.91648 309.150041 
L 261.09504 310.50004 
L 261.2736 310.50004 
L 261.45216 311.850039 
L 262.34496 311.850039 
L 262.52352 313.200039 
L 262.70208 313.200039 
L 263.0592 317.250037 
L 263.59488 317.250037 
L 263.77344 318.600036 
L 263.952 318.600036 
L 264.13056 319.950035 
L 264.8448 319.950035 
L 265.02336 321.300035 
L 265.38048 321.300035 
L 265.55904 322.650034 
L 266.09472 322.650034 
L 266.27328 324.000033 
L 266.6304 324.000033 
L 266.80896 325.350032 
L 267.34464 325.350032 
L 267.61248 328.050031 
L 268.416 328.050031 
L 268.59456 329.40003 
L 268.95168 329.40003 
L 269.13024 330.75003 
L 269.3088 330.75003 
L 269.48736 332.100029 
L 270.02304 332.100029 
L 270.2016 388.8 
L 283.77216 388.8 
L 284.04 375.300007 
L 284.12928 375.300007 
L 284.39712 361.800014 
L 284.57568 361.800014 
L 284.84352 348.300021 
L 284.9328 348.300021 
L 285.20064 334.800028 
L 285.28992 334.800028 
L 285.55776 319.950035 
L 285.64704 319.950035 
L 285.8256 313.200039 
L 285.91488 313.200039 
L 286.09344 306.450042 
L 286.272 302.400044 
L 287.1648 302.400044 
L 287.34336 303.750044 
L 288.0576 303.750044 
L 288.23616 305.100043 
L 288.32544 305.100043 
L 288.59328 307.800041 
L 289.30752 307.800041 
L 289.48608 309.150041 
L 290.11104 309.150041 
L 290.2896 310.50004 
L 290.55744 310.50004 
L 290.91456 314.550038 
L 291.00384 314.550038 
L 291.1824 315.900037 
L 291.53952 315.900037 
L 291.71808 317.250037 
L 292.34304 317.250037 
L 292.5216 318.600036 
L 293.05728 318.600036 
L 293.23584 319.950035 
L 293.95008 319.950035 
L 294.21792 322.650034 
L 294.48576 322.650034 
L 294.66432 325.350032 
L 294.84288 326.700032 
L 295.11072 326.700032 
L 295.28928 328.050031 
L 295.82496 328.050031 
L 296.00352 329.40003 
L 296.62848 329.40003 
L 296.80704 330.75003 
L 297.432 330.75003 
L 297.61056 332.100029 
L 301.18176 332.100029 
L 301.36032 388.8 
L 323.41248 388.8 
L 323.68032 375.300007 
L 323.7696 375.300007 
L 324.03744 361.800014 
L 324.12672 361.800014 
L 324.39456 348.300021 
L 324.48384 348.300021 
L 324.75168 334.800028 
L 324.84096 334.800028 
L 325.1088 319.950035 
L 325.19808 319.950035 
L 325.46592 306.450042 
L 325.5552 306.450042 
L 325.73376 302.400044 
L 328.94784 302.400044 
L 329.1264 303.750044 
L 329.30496 303.750044 
L 329.48352 305.100043 
L 330.0192 305.100043 
L 330.19776 306.450042 
L 330.37632 306.450042 
L 330.55488 307.800041 
L 330.912 307.800041 
L 331.09056 309.150041 
L 331.8048 309.150041 
L 331.98336 310.50004 
L 332.6976 310.50004 
L 332.87616 311.850039 
L 333.23328 311.850039 
L 333.50112 314.550038 
L 333.76896 314.550038 
L 333.94752 315.900037 
L 334.66176 315.900037 
L 334.84032 317.250037 
L 335.55456 317.250037 
L 335.73312 318.600036 
L 336.44736 318.600036 
L 336.7152 321.300035 
L 337.51872 321.300035 
L 337.78656 324.000033 
L 338.76864 324.000033 
L 338.9472 325.350032 
L 339.48288 325.350032 
L 339.75072 328.050031 
L 352.51776 328.050031 
L 352.69632 329.40003 
L 355.73184 329.40003 
L 355.9104 330.75003 
L 358.76736 330.75003 
L 358.94592 332.100029 
L 361.62432 332.100029 
L 361.80288 388.8 
L 373.14144 388.8 
L 373.40928 375.300007 
L 373.49856 375.300007 
L 373.7664 361.800014 
L 373.85568 361.800014 
L 374.12352 348.300021 
L 374.2128 348.300021 
L 374.56992 326.700032 
L 374.6592 326.700032 
L 374.92704 313.200039 
L 375.01632 313.200039 
L 375.19488 306.450042 
L 375.28416 306.450042 
L 375.46272 299.700046 
L 375.64128 295.650048 
L 378.94464 295.650048 
L 379.1232 294.300048 
L 379.48032 294.300048 
L 379.65888 292.950049 
L 380.19456 292.950049 
L 380.37312 291.60005 
L 380.55168 291.60005 
L 380.73024 290.25005 
L 381.08736 290.25005 
L 381.26592 288.900051 
L 381.8016 288.900051 
L 381.98016 287.550052 
L 382.15872 287.550052 
L 382.33728 286.200053 
L 382.87296 286.200053 
L 383.05152 284.850053 
L 383.23008 284.850053 
L 383.49792 282.150055 
L 383.94432 282.150055 
L 384.12288 280.800055 
L 384.48 280.800055 
L 384.65856 279.450056 
L 384.83712 279.450056 
L 385.10496 276.750057 
L 386.62272 276.750057 
L 386.80128 274.050059 
L 388.0512 274.050059 
L 388.22976 272.700059 
L 389.8368 272.700059 
L 390.10464 270.000061 
L 391.26528 270.000061 
L 391.44384 268.650062 
L 392.87232 268.650062 
L 393.05088 265.950063 
L 394.47936 265.950063 
L 394.65792 264.600064 
L 395.37216 264.600064 
L 395.55072 263.250064 
L 396.62208 263.250064 
L 396.80064 261.900065 
L 397.33632 261.900065 
L 397.51488 260.550066 
L 398.22912 260.550066 
L 398.40768 259.200066 
L 400.37184 259.200066 
L 400.5504 256.500068 
L 400.81824 253.800069 
L 400.90752 253.800069 
L 401.17536 251.100071 
L 401.26464 251.100071 
L 401.53248 248.400072 
L 401.62176 248.400072 
L 401.8896 245.700073 
L 401.97888 245.700073 
L 402.24672 243.000075 
L 402.336 243.000075 
L 402.60384 240.300076 
L 402.69312 240.300076 
L 402.96096 237.600077 
L 403.05024 237.600077 
L 403.31808 234.900079 
L 403.40736 234.900079 
L 403.6752 232.20008 
L 403.76448 232.20008 
L 404.03232 229.500082 
L 404.1216 229.500082 
L 404.568 224.100084 
L 404.65728 224.100084 
L 404.92512 221.400086 
L 405.0144 221.400086 
L 405.28224 218.700087 
L 405.37152 218.700087 
L 405.63936 216.000088 
L 405.72864 216.000088 
L 405.99648 213.30009 
L 406.08576 213.30009 
L 406.3536 210.600091 
L 406.44288 210.600091 
L 406.71072 207.900093 
L 406.8 207.900093 
L 407.06784 205.200094 
L 407.15712 205.200094 
L 407.42496 202.500095 
L 407.51424 202.500095 
L 407.78208 199.800097 
L 407.87136 199.800097 
L 408.1392 197.100098 
L 408.22848 197.100098 
L 408.49632 194.4001 
L 408.5856 194.4001 
L 408.85344 191.700101 
L 408.94272 191.700101 
L 409.21056 189.000102 
L 409.29984 189.000102 
L 409.56768 186.300104 
L 409.65696 186.300104 
L 409.9248 183.600105 
L 410.01408 183.600105 
L 410.28192 180.900106 
L 410.3712 180.900106 
L 410.72832 176.850109 
L 410.8176 176.850109 
L 410.99616 175.500109 
L 411.08544 175.500109 
L 411.35328 172.800111 
L 411.44256 172.800111 
L 411.7104 170.100112 
L 411.79968 170.100112 
L 411.97824 167.400113 
L 518.4 167.400113 
L 518.4 167.400113 
" style="fill:none;stroke:#ff0000;stroke-linecap:square;"/>
   </g>
   <g id="patch_3">
    <path d="M 72 43.2 
L 518.4 43.2 
" style="fill:none;stroke:#000000;stroke-linecap:square;stroke-linejoin:miter;"/>
   </g>
   <g id="patch_4">
    <path d="M 518.4 388.8 
L 518.4 43.2 
" style="fill:none;stroke:#000000;stroke-linecap:square;stroke-linejoin:miter;"/>
   </g>
   <g id="patch_5">
    <path d="M 72 388.8 
L 518.4 388.8 
" style="fill:none;stroke:#000000;stroke-linecap:square;stroke-linejoin:miter;"/>
   </g>
   <g id="patch_6">
    <path d="M 72 388.8 
L 72 43.2 
" style="fill:none;stroke:#000000;stroke-linecap:square;stroke-linejoin:miter;"/>
   </g>
   <g id="matplotlib.axis_1">
    <g id="xtick_1">
     <g id="line2d_3">
      <path clip-path="url(#p51043fc742)" d="M 72 388.8 
L 72 43.2 
" style="fill:none;stroke:#000000;stroke-dasharray:1.000000,3.000000;stroke-dashoffset:0.0;stroke-width:0.5;"/>
     </g>
     <g id="line2d_4">
      <defs>
       <path d="M 0 0 
L 0 -4 
" id="m90cd3fc081" style="stroke:#000000;stroke-width:0.5;"/>
      </defs>
      <g>
       <use style="stroke:#000000;stroke-width:0.5;" x="72.0" xlink:href="#m90cd3fc081" y="388.8"/>
      </g>
     </g>
     <g id="line2d_5">
      <defs>
       <path d="M 0 0 
L 0 4 
" id="m7c5cc73d9c" style="stroke:#000000;stroke-width:0.5;"/>
      </defs>
      <g>
       <use style="stroke:#000000;stroke-width:0.5;" x="72.0" xlink:href="#m7c5cc73d9c" y="43.2"/>
      </g>
     </g>
     <g id="text_1">
      <!-- 0 -->
      <defs>
       <path d="M 31.78125 66.40625 
Q 24.171875 66.40625 20.328125 58.90625 
Q 16.5 51.421875 16.5 36.375 
Q 16.5 21.390625 20.328125 13.890625 
Q 24.171875 6.390625 31.78125 6.390625 
Q 39.453125 6.390625 43.28125 13.890625 
Q 47.125 21.390625 47.125 36.375 
Q 47.125 51.421875 43.28125 58.90625 
Q 39.453125 66.40625 31.78125 66.40625 
M 31.78125 74.21875 
Q 44.046875 74.21875 50.515625 64.515625 
Q 56.984375 54.828125 56.984375 36.375 
Q 56.984375 17.96875 50.515625 8.265625 
Q 44.046875 -1.421875 31.78125 -1.421875 
Q 19.53125 -1.421875 13.0625 8.265625 
Q 6.59375 17.96875 6.59375 36.375 
Q 6.59375 54.828125 13.0625 64.515625 
Q 19.53125 74.21875 31.78125 74.21875 
" id="BitstreamVeraSans-Roman-30"/>
      </defs>
      <g transform="translate(68.1825 401.918125)scale(0.12 -0.12)">
       <use xlink:href="#BitstreamVeraSans-Roman-30"/>
      </g>
     </g>
    </g>
    <g id="xtick_2">
     <g id="line2d_6">
      <path clip-path="url(#p51043fc742)" d="M 161.28 388.8 
L 161.28 43.2 
" style="fill:none;stroke:#000000;stroke-dasharray:1.000000,3.000000;stroke-dashoffset:0.0;stroke-width:0.5;"/>
     </g>
     <g id="line2d_7">
      <g>
       <use style="stroke:#000000;stroke-width:0.5;" x="161.28" xlink:href="#m90cd3fc081" y="388.8"/>
      </g>
     </g>
     <g id="line2d_8">
      <g>
       <use style="stroke:#000000;stroke-width:0.5;" x="161.28" xlink:href="#m7c5cc73d9c" y="43.2"/>
      </g>
     </g>
     <g id="text_2">
      <!-- 10 -->
      <defs>
       <path d="M 12.40625 8.296875 
L 28.515625 8.296875 
L 28.515625 63.921875 
L 10.984375 60.40625 
L 10.984375 69.390625 
L 28.421875 72.90625 
L 38.28125 72.90625 
L 38.28125 8.296875 
L 54.390625 8.296875 
L 54.390625 0 
L 12.40625 0 
z
" id="BitstreamVeraSans-Roman-31"/>
      </defs>
      <g transform="translate(153.645 401.918125)scale(0.12 -0.12)">
       <use xlink:href="#BitstreamVeraSans-Roman-31"/>
       <use x="63.623046875" xlink:href="#BitstreamVeraSans-Roman-30"/>
      </g>
     </g>
    </g>
    <g id="xtick_3">
     <g id="line2d_9">
      <path clip-path="url(#p51043fc742)" d="M 250.56 388.8 
L 250.56 43.2 
" style="fill:none;stroke:#000000;stroke-dasharray:1.000000,3.000000;stroke-dashoffset:0.0;stroke-width:0.5;"/>
     </g>
     <g id="line2d_10">
      <g>
       <use style="stroke:#000000;stroke-width:0.5;" x="250.56" xlink:href="#m90cd3fc081" y="388.8"/>
      </g>
     </g>
     <g id="line2d_11">
      <g>
       <use style="stroke:#000000;stroke-width:0.5;" x="250.56" xlink:href="#m7c5cc73d9c" y="43.2"/>
      </g>
     </g>
     <g id="text_3">
      <!-- 20 -->
      <defs>
       <path d="M 19.1875 8.296875 
L 53.609375 8.296875 
L 53.609375 0 
L 7.328125 0 
L 7.328125 8.296875 
Q 12.9375 14.109375 22.625 23.890625 
Q 32.328125 33.6875 34.8125 36.53125 
Q 39.546875 41.84375 41.421875 45.53125 
Q 43.3125 49.21875 43.3125 52.78125 
Q 43.3125 58.59375 39.234375 62.25 
Q 35.15625 65.921875 28.609375 65.921875 
Q 23.96875 65.921875 18.8125 64.3125 
Q 13.671875 62.703125 7.8125 59.421875 
L 7.8125 69.390625 
Q 13.765625 71.78125 18.9375 73 
Q 24.125 74.21875 28.421875 74.21875 
Q 39.75 74.21875 46.484375 68.546875 
Q 53.21875 62.890625 53.21875 53.421875 
Q 53.21875 48.921875 51.53125 44.890625 
Q 49.859375 40.875 45.40625 35.40625 
Q 44.1875 33.984375 37.640625 27.21875 
Q 31.109375 20.453125 19.1875 8.296875 
" id="BitstreamVeraSans-Roman-32"/>
      </defs>
      <g transform="translate(242.925 401.918125)scale(0.12 -0.12)">
       <use xlink:href="#BitstreamVeraSans-Roman-32"/>
       <use x="63.623046875" xlink:href="#BitstreamVeraSans-Roman-30"/>
      </g>
     </g>
    </g>
    <g id="xtick_4">
     <g id="line2d_12">
      <path clip-path="url(#p51043fc742)" d="M 339.84 388.8 
L 339.84 43.2 
" style="fill:none;stroke:#000000;stroke-dasharray:1.000000,3.000000;stroke-dashoffset:0.0;stroke-width:0.5;"/>
     </g>
     <g id="line2d_13">
      <g>
       <use style="stroke:#000000;stroke-width:0.5;" x="339.84" xlink:href="#m90cd3fc081" y="388.8"/>
      </g>
     </g>
     <g id="line2d_14">
      <g>
       <use style="stroke:#000000;stroke-width:0.5;" x="339.84" xlink:href="#m7c5cc73d9c" y="43.2"/>
      </g>
     </g>
     <g id="text_4">
      <!-- 30 -->
      <defs>
       <path d="M 40.578125 39.3125 
Q 47.65625 37.796875 51.625 33 
Q 55.609375 28.21875 55.609375 21.1875 
Q 55.609375 10.40625 48.1875 4.484375 
Q 40.765625 -1.421875 27.09375 -1.421875 
Q 22.515625 -1.421875 17.65625 -0.515625 
Q 12.796875 0.390625 7.625 2.203125 
L 7.625 11.71875 
Q 11.71875 9.328125 16.59375 8.109375 
Q 21.484375 6.890625 26.8125 6.890625 
Q 36.078125 6.890625 40.9375 10.546875 
Q 45.796875 14.203125 45.796875 21.1875 
Q 45.796875 27.640625 41.28125 31.265625 
Q 36.765625 34.90625 28.71875 34.90625 
L 20.21875 34.90625 
L 20.21875 43.015625 
L 29.109375 43.015625 
Q 36.375 43.015625 40.234375 45.921875 
Q 44.09375 48.828125 44.09375 54.296875 
Q 44.09375 59.90625 40.109375 62.90625 
Q 36.140625 65.921875 28.71875 65.921875 
Q 24.65625 65.921875 20.015625 65.03125 
Q 15.375 64.15625 9.8125 62.3125 
L 9.8125 71.09375 
Q 15.4375 72.65625 20.34375 73.4375 
Q 25.25 74.21875 29.59375 74.21875 
Q 40.828125 74.21875 47.359375 69.109375 
Q 53.90625 64.015625 53.90625 55.328125 
Q 53.90625 49.265625 50.4375 45.09375 
Q 46.96875 40.921875 40.578125 39.3125 
" id="BitstreamVeraSans-Roman-33"/>
      </defs>
      <g transform="translate(332.205 401.918125)scale(0.12 -0.12)">
       <use xlink:href="#BitstreamVeraSans-Roman-33"/>
       <use x="63.623046875" xlink:href="#BitstreamVeraSans-Roman-30"/>
      </g>
     </g>
    </g>
    <g id="xtick_5">
     <g id="line2d_15">
      <path clip-path="url(#p51043fc742)" d="M 429.12 388.8 
L 429.12 43.2 
" style="fill:none;stroke:#000000;stroke-dasharray:1.000000,3.000000;stroke-dashoffset:0.0;stroke-width:0.5;"/>
     </g>
     <g id="line2d_16">
      <g>
       <use style="stroke:#000000;stroke-width:0.5;" x="429.12" xlink:href="#m90cd3fc081" y="388.8"/>
      </g>
     </g>
     <g id="line2d_17">
      <g>
       <use style="stroke:#000000;stroke-width:0.5;" x="429.12" xlink:href="#m7c5cc73d9c" y="43.2"/>
      </g>
     </g>
     <g id="text_5">
      <!-- 40 -->
      <defs>
       <path d="M 37.796875 64.3125 
L 12.890625 25.390625 
L 37.796875 25.390625 
z
M 35.203125 72.90625 
L 47.609375 72.90625 
L 47.609375 25.390625 
L 58.015625 25.390625 
L 58.015625 17.1875 
L 47.609375 17.1875 
L 47.609375 0 
L 37.796875 0 
L 37.796875 17.1875 
L 4.890625 17.1875 
L 4.890625 26.703125 
z
" id="BitstreamVeraSans-Roman-34"/>
      </defs>
      <g transform="translate(421.485 401.918125)scale(0.12 -0.12)">
       <use xlink:href="#BitstreamVeraSans-Roman-34"/>
       <use x="63.623046875" xlink:href="#BitstreamVeraSans-Roman-30"/>
      </g>
     </g>
    </g>
    <g id="xtick_6">
     <g id="line2d_18">
      <path clip-path="url(#p51043fc742)" d="M 518.4 388.8 
L 518.4 43.2 
" style="fill:none;stroke:#000000;stroke-dasharray:1.000000,3.000000;stroke-dashoffset:0.0;stroke-width:0.5;"/>
     </g>
     <g id="line2d_19">
      <g>
       <use style="stroke:#000000;stroke-width:0.5;" x="518.4" xlink:href="#m90cd3fc081" y="388.8"/>
      </g>
     </g>
     <g id="line2d_20">
      <g>
       <use style="stroke:#000000;stroke-width:0.5;" x="518.4" xlink:href="#m7c5cc73d9c" y="43.2"/>
      </g>
     </g>
     <g id="text_6">
      <!-- 50 -->
      <defs>
       <path d="M 10.796875 72.90625 
L 49.515625 72.90625 
L 49.515625 64.59375 
L 19.828125 64.59375 
L 19.828125 46.734375 
Q 21.96875 47.46875 24.109375 47.828125 
Q 26.265625 48.1875 28.421875 48.1875 
Q 40.625 48.1875 47.75 41.5 
Q 54.890625 34.8125 54.890625 23.390625 
Q 54.890625 11.625 47.5625 5.09375 
Q 40.234375 -1.421875 26.90625 -1.421875 
Q 22.3125 -1.421875 17.546875 -0.640625 
Q 12.796875 0.140625 7.71875 1.703125 
L 7.71875 11.625 
Q 12.109375 9.234375 16.796875 8.0625 
Q 21.484375 6.890625 26.703125 6.890625 
Q 35.15625 6.890625 40.078125 11.328125 
Q 45.015625 15.765625 45.015625 23.390625 
Q 45.015625 31 40.078125 35.4375 
Q 35.15625 39.890625 26.703125 39.890625 
Q 22.75 39.890625 18.8125 39.015625 
Q 14.890625 38.140625 10.796875 36.28125 
z
" id="BitstreamVeraSans-Roman-35"/>
      </defs>
      <g transform="translate(510.765 401.918125)scale(0.12 -0.12)">
       <use xlink:href="#BitstreamVeraSans-Roman-35"/>
       <use x="63.623046875" xlink:href="#BitstreamVeraSans-Roman-30"/>
      </g>
     </g>
    </g>
    <g id="text_7">
     <!-- Time [s] -->
     <defs>
      <path id="BitstreamVeraSans-Roman-20"/>
      <path d="M 8.59375 75.984375 
L 29.296875 75.984375 
L 29.296875 69 
L 17.578125 69 
L 17.578125 -6.203125 
L 29.296875 -6.203125 
L 29.296875 -13.1875 
L 8.59375 -13.1875 
z
" id="BitstreamVeraSans-Roman-5b"/>
      <path d="M 30.421875 75.984375 
L 30.421875 -13.1875 
L 9.71875 -13.1875 
L 9.71875 -6.203125 
L 21.390625 -6.203125 
L 21.390625 69 
L 9.71875 69 
L 9.71875 75.984375 
z
" id="BitstreamVeraSans-Roman-5d"/>
      <path d="M 52 44.1875 
Q 55.375 50.25 60.0625 53.125 
Q 64.75 56 71.09375 56 
Q 79.640625 56 84.28125 50.015625 
Q 88.921875 44.046875 88.921875 33.015625 
L 88.921875 0 
L 79.890625 0 
L 79.890625 32.71875 
Q 79.890625 40.578125 77.09375 44.375 
Q 74.3125 48.1875 68.609375 48.1875 
Q 61.625 48.1875 57.5625 43.546875 
Q 53.515625 38.921875 53.515625 30.90625 
L 53.515625 0 
L 44.484375 0 
L 44.484375 32.71875 
Q 44.484375 40.625 41.703125 44.40625 
Q 38.921875 48.1875 33.109375 48.1875 
Q 26.21875 48.1875 22.15625 43.53125 
Q 18.109375 38.875 18.109375 30.90625 
L 18.109375 0 
L 9.078125 0 
L 9.078125 54.6875 
L 18.109375 54.6875 
L 18.109375 46.1875 
Q 21.1875 51.21875 25.484375 53.609375 
Q 29.78125 56 35.6875 56 
Q 41.65625 56 45.828125 52.96875 
Q 50 49.953125 52 44.1875 
" id="BitstreamVeraSans-Roman-6d"/>
      <path d="M 9.421875 54.6875 
L 18.40625 54.6875 
L 18.40625 0 
L 9.421875 0 
z
M 9.421875 75.984375 
L 18.40625 75.984375 
L 18.40625 64.59375 
L 9.421875 64.59375 
z
" id="BitstreamVeraSans-Roman-69"/>
      <path d="M 56.203125 29.59375 
L 56.203125 25.203125 
L 14.890625 25.203125 
Q 15.484375 15.921875 20.484375 11.0625 
Q 25.484375 6.203125 34.421875 6.203125 
Q 39.59375 6.203125 44.453125 7.46875 
Q 49.3125 8.734375 54.109375 11.28125 
L 54.109375 2.78125 
Q 49.265625 0.734375 44.1875 -0.34375 
Q 39.109375 -1.421875 33.890625 -1.421875 
Q 20.796875 -1.421875 13.15625 6.1875 
Q 5.515625 13.8125 5.515625 26.8125 
Q 5.515625 40.234375 12.765625 48.109375 
Q 20.015625 56 32.328125 56 
Q 43.359375 56 49.78125 48.890625 
Q 56.203125 41.796875 56.203125 29.59375 
M 47.21875 32.234375 
Q 47.125 39.59375 43.09375 43.984375 
Q 39.0625 48.390625 32.421875 48.390625 
Q 24.90625 48.390625 20.390625 44.140625 
Q 15.875 39.890625 15.1875 32.171875 
z
" id="BitstreamVeraSans-Roman-65"/>
      <path d="M -0.296875 72.90625 
L 61.375 72.90625 
L 61.375 64.59375 
L 35.5 64.59375 
L 35.5 0 
L 25.59375 0 
L 25.59375 64.59375 
L -0.296875 64.59375 
z
" id="BitstreamVeraSans-Roman-54"/>
      <path d="M 44.28125 53.078125 
L 44.28125 44.578125 
Q 40.484375 46.53125 36.375 47.5 
Q 32.28125 48.484375 27.875 48.484375 
Q 21.1875 48.484375 17.84375 46.4375 
Q 14.5 44.390625 14.5 40.28125 
Q 14.5 37.15625 16.890625 35.375 
Q 19.28125 33.59375 26.515625 31.984375 
L 29.59375 31.296875 
Q 39.15625 29.25 43.1875 25.515625 
Q 47.21875 21.78125 47.21875 15.09375 
Q 47.21875 7.46875 41.1875 3.015625 
Q 35.15625 -1.421875 24.609375 -1.421875 
Q 20.21875 -1.421875 15.453125 -0.5625 
Q 10.6875 0.296875 5.421875 2 
L 5.421875 11.28125 
Q 10.40625 8.6875 15.234375 7.390625 
Q 20.0625 6.109375 24.8125 6.109375 
Q 31.15625 6.109375 34.5625 8.28125 
Q 37.984375 10.453125 37.984375 14.40625 
Q 37.984375 18.0625 35.515625 20.015625 
Q 33.0625 21.96875 24.703125 23.78125 
L 21.578125 24.515625 
Q 13.234375 26.265625 9.515625 29.90625 
Q 5.8125 33.546875 5.8125 39.890625 
Q 5.8125 47.609375 11.28125 51.796875 
Q 16.75 56 26.8125 56 
Q 31.78125 56 36.171875 55.265625 
Q 40.578125 54.546875 44.28125 53.078125 
" id="BitstreamVeraSans-Roman-73"/>
     </defs>
     <g transform="translate(270.620625 418.531875)scale(0.12 -0.12)">
      <use xlink:href="#BitstreamVeraSans-Roman-54"/>
      <use x="61.037109375" xlink:href="#BitstreamVeraSans-Roman-69"/>
      <use x="88.8203125" xlink:href="#BitstreamVeraSans-Roman-6d"/>
      <use x="186.232421875" xlink:href="#BitstreamVeraSans-Roman-65"/>
      <use x="247.755859375" xlink:href="#BitstreamVeraSans-Roman-20"/>
      <use x="279.54296875" xlink:href="#BitstreamVeraSans-Roman-5b"/>
      <use x="318.556640625" xlink:href="#BitstreamVeraSans-Roman-73"/>
      <use x="370.65625" xlink:href="#BitstreamVeraSans-Roman-5d"/>
     </g>
    </g>
   </g>
   <g id="matplotlib.axis_2">
    <g id="ytick_1">
     <g id="line2d_21">
      <path clip-path="url(#p51043fc742)" d="M 72 388.8 
L 518.4 388.8 
" style="fill:none;stroke:#000000;stroke-dasharray:1.000000,3.000000;stroke-dashoffset:0.0;stroke-width:0.5;"/>
     </g>
     <g id="line2d_22">
      <defs>
       <path d="M 0 0 
L 4 0 
" id="m07d9f6649e" style="stroke:#000000;stroke-width:0.5;"/>
      </defs>
      <g>
       <use style="stroke:#000000;stroke-width:0.5;" x="72.0" xlink:href="#m07d9f6649e" y="388.8"/>
      </g>
     </g>
     <g id="line2d_23">
      <defs>
       <path d="M 0 0 
L -4 0 
" id="m4f8ddae56b" style="stroke:#000000;stroke-width:0.5;"/>
      </defs>
      <g>
       <use style="stroke:#000000;stroke-width:0.5;" x="518.4" xlink:href="#m4f8ddae56b" y="388.8"/>
      </g>
     </g>
     <g id="text_8">
      <!-- 0.0 -->
      <defs>
       <path d="M 10.6875 12.40625 
L 21 12.40625 
L 21 0 
L 10.6875 0 
z
" id="BitstreamVeraSans-Roman-2e"/>
      </defs>
      <g transform="translate(48.91625 392.11125)scale(0.12 -0.12)">
       <use xlink:href="#BitstreamVeraSans-Roman-30"/>
       <use x="63.623046875" xlink:href="#BitstreamVeraSans-Roman-2e"/>
       <use x="95.41015625" xlink:href="#BitstreamVeraSans-Roman-30"/>
      </g>
     </g>
    </g>
    <g id="ytick_2">
     <g id="line2d_24">
      <path clip-path="url(#p51043fc742)" d="M 72 319.68 
L 518.4 319.68 
" style="fill:none;stroke:#000000;stroke-dasharray:1.000000,3.000000;stroke-dashoffset:0.0;stroke-width:0.5;"/>
     </g>
     <g id="line2d_25">
      <g>
       <use style="stroke:#000000;stroke-width:0.5;" x="72.0" xlink:href="#m07d9f6649e" y="319.68"/>
      </g>
     </g>
     <g id="line2d_26">
      <g>
       <use style="stroke:#000000;stroke-width:0.5;" x="518.4" xlink:href="#m4f8ddae56b" y="319.68"/>
      </g>
     </g>
     <g id="text_9">
      <!-- 0.2 -->
      <g transform="translate(48.91625 322.99125)scale(0.12 -0.12)">
       <use xlink:href="#BitstreamVeraSans-Roman-30"/>
       <use x="63.623046875" xlink:href="#BitstreamVeraSans-Roman-2e"/>
       <use x="95.41015625" xlink:href="#BitstreamVeraSans-Roman-32"/>
      </g>
     </g>
    </g>
    <g id="ytick_3">
     <g id="line2d_27">
      <path clip-path="url(#p51043fc742)" d="M 72 250.56 
L 518.4 250.56 
" style="fill:none;stroke:#000000;stroke-dasharray:1.000000,3.000000;stroke-dashoffset:0.0;stroke-width:0.5;"/>
     </g>
     <g id="line2d_28">
      <g>
       <use style="stroke:#000000;stroke-width:0.5;" x="72.0" xlink:href="#m07d9f6649e" y="250.56"/>
      </g>
     </g>
     <g id="line2d_29">
      <g>
       <use style="stroke:#000000;stroke-width:0.5;" x="518.4" xlink:href="#m4f8ddae56b" y="250.56"/>
      </g>
     </g>
     <g id="text_10">
      <!-- 0.4 -->
      <g transform="translate(48.91625 253.87125)scale(0.12 -0.12)">
       <use xlink:href="#BitstreamVeraSans-Roman-30"/>
       <use x="63.623046875" xlink:href="#BitstreamVeraSans-Roman-2e"/>
       <use x="95.41015625" xlink:href="#BitstreamVeraSans-Roman-34"/>
      </g>
     </g>
    </g>
    <g id="ytick_4">
     <g id="line2d_30">
      <path clip-path="url(#p51043fc742)" d="M 72 181.44 
L 518.4 181.44 
" style="fill:none;stroke:#000000;stroke-dasharray:1.000000,3.000000;stroke-dashoffset:0.0;stroke-width:0.5;"/>
     </g>
     <g id="line2d_31">
      <g>
       <use style="stroke:#000000;stroke-width:0.5;" x="72.0" xlink:href="#m07d9f6649e" y="181.44"/>
      </g>
     </g>
     <g id="line2d_32">
      <g>
       <use style="stroke:#000000;stroke-width:0.5;" x="518.4" xlink:href="#m4f8ddae56b" y="181.44"/>
      </g>
     </g>
     <g id="text_11">
      <!-- 0.6 -->
      <defs>
       <path d="M 33.015625 40.375 
Q 26.375 40.375 22.484375 35.828125 
Q 18.609375 31.296875 18.609375 23.390625 
Q 18.609375 15.53125 22.484375 10.953125 
Q 26.375 6.390625 33.015625 6.390625 
Q 39.65625 6.390625 43.53125 10.953125 
Q 47.40625 15.53125 47.40625 23.390625 
Q 47.40625 31.296875 43.53125 35.828125 
Q 39.65625 40.375 33.015625 40.375 
M 52.59375 71.296875 
L 52.59375 62.3125 
Q 48.875 64.0625 45.09375 64.984375 
Q 41.3125 65.921875 37.59375 65.921875 
Q 27.828125 65.921875 22.671875 59.328125 
Q 17.53125 52.734375 16.796875 39.40625 
Q 19.671875 43.65625 24.015625 45.921875 
Q 28.375 48.1875 33.59375 48.1875 
Q 44.578125 48.1875 50.953125 41.515625 
Q 57.328125 34.859375 57.328125 23.390625 
Q 57.328125 12.15625 50.6875 5.359375 
Q 44.046875 -1.421875 33.015625 -1.421875 
Q 20.359375 -1.421875 13.671875 8.265625 
Q 6.984375 17.96875 6.984375 36.375 
Q 6.984375 53.65625 15.1875 63.9375 
Q 23.390625 74.21875 37.203125 74.21875 
Q 40.921875 74.21875 44.703125 73.484375 
Q 48.484375 72.75 52.59375 71.296875 
" id="BitstreamVeraSans-Roman-36"/>
      </defs>
      <g transform="translate(48.91625 184.75125)scale(0.12 -0.12)">
       <use xlink:href="#BitstreamVeraSans-Roman-30"/>
       <use x="63.623046875" xlink:href="#BitstreamVeraSans-Roman-2e"/>
       <use x="95.41015625" xlink:href="#BitstreamVeraSans-Roman-36"/>
      </g>
     </g>
    </g>
    <g id="ytick_5">
     <g id="line2d_33">
      <path clip-path="url(#p51043fc742)" d="M 72 112.32 
L 518.4 112.32 
" style="fill:none;stroke:#000000;stroke-dasharray:1.000000,3.000000;stroke-dashoffset:0.0;stroke-width:0.5;"/>
     </g>
     <g id="line2d_34">
      <g>
       <use style="stroke:#000000;stroke-width:0.5;" x="72.0" xlink:href="#m07d9f6649e" y="112.32"/>
      </g>
     </g>
     <g id="line2d_35">
      <g>
       <use style="stroke:#000000;stroke-width:0.5;" x="518.4" xlink:href="#m4f8ddae56b" y="112.32"/>
      </g>
     </g>
     <g id="text_12">
      <!-- 0.8 -->
      <defs>
       <path d="M 31.78125 34.625 
Q 24.75 34.625 20.71875 30.859375 
Q 16.703125 27.09375 16.703125 20.515625 
Q 16.703125 13.921875 20.71875 10.15625 
Q 24.75 6.390625 31.78125 6.390625 
Q 38.8125 6.390625 42.859375 10.171875 
Q 46.921875 13.96875 46.921875 20.515625 
Q 46.921875 27.09375 42.890625 30.859375 
Q 38.875 34.625 31.78125 34.625 
M 21.921875 38.8125 
Q 15.578125 40.375 12.03125 44.71875 
Q 8.5 49.078125 8.5 55.328125 
Q 8.5 64.0625 14.71875 69.140625 
Q 20.953125 74.21875 31.78125 74.21875 
Q 42.671875 74.21875 48.875 69.140625 
Q 55.078125 64.0625 55.078125 55.328125 
Q 55.078125 49.078125 51.53125 44.71875 
Q 48 40.375 41.703125 38.8125 
Q 48.828125 37.15625 52.796875 32.3125 
Q 56.78125 27.484375 56.78125 20.515625 
Q 56.78125 9.90625 50.3125 4.234375 
Q 43.84375 -1.421875 31.78125 -1.421875 
Q 19.734375 -1.421875 13.25 4.234375 
Q 6.78125 9.90625 6.78125 20.515625 
Q 6.78125 27.484375 10.78125 32.3125 
Q 14.796875 37.15625 21.921875 38.8125 
M 18.3125 54.390625 
Q 18.3125 48.734375 21.84375 45.5625 
Q 25.390625 42.390625 31.78125 42.390625 
Q 38.140625 42.390625 41.71875 45.5625 
Q 45.3125 48.734375 45.3125 54.390625 
Q 45.3125 60.0625 41.71875 63.234375 
Q 38.140625 66.40625 31.78125 66.40625 
Q 25.390625 66.40625 21.84375 63.234375 
Q 18.3125 60.0625 18.3125 54.390625 
" id="BitstreamVeraSans-Roman-38"/>
      </defs>
      <g transform="translate(48.91625 115.63125)scale(0.12 -0.12)">
       <use xlink:href="#BitstreamVeraSans-Roman-30"/>
       <use x="63.623046875" xlink:href="#BitstreamVeraSans-Roman-2e"/>
       <use x="95.41015625" xlink:href="#BitstreamVeraSans-Roman-38"/>
      </g>
     </g>
    </g>
    <g id="ytick_6">
     <g id="line2d_36">
      <path clip-path="url(#p51043fc742)" d="M 72 43.2 
L 518.4 43.2 
" style="fill:none;stroke:#000000;stroke-dasharray:1.000000,3.000000;stroke-dashoffset:0.0;stroke-width:0.5;"/>
     </g>
     <g id="line2d_37">
      <g>
       <use style="stroke:#000000;stroke-width:0.5;" x="72.0" xlink:href="#m07d9f6649e" y="43.2"/>
      </g>
     </g>
     <g id="line2d_38">
      <g>
       <use style="stroke:#000000;stroke-width:0.5;" x="518.4" xlink:href="#m4f8ddae56b" y="43.2"/>
      </g>
     </g>
     <g id="text_13">
      <!-- 1.0 -->
      <g transform="translate(48.91625 46.51125)scale(0.12 -0.12)">
       <use xlink:href="#BitstreamVeraSans-Roman-31"/>
       <use x="63.623046875" xlink:href="#BitstreamVeraSans-Roman-2e"/>
       <use x="95.41015625" xlink:href="#BitstreamVeraSans-Roman-30"/>
      </g>
     </g>
    </g>
    <g id="text_14">
     <!-- Pedal [] -->
     <defs>
      <path d="M 19.671875 64.796875 
L 19.671875 37.40625 
L 32.078125 37.40625 
Q 38.96875 37.40625 42.71875 40.96875 
Q 46.484375 44.53125 46.484375 51.125 
Q 46.484375 57.671875 42.71875 61.234375 
Q 38.96875 64.796875 32.078125 64.796875 
z
M 9.8125 72.90625 
L 32.078125 72.90625 
Q 44.34375 72.90625 50.609375 67.359375 
Q 56.890625 61.8125 56.890625 51.125 
Q 56.890625 40.328125 50.609375 34.8125 
Q 44.34375 29.296875 32.078125 29.296875 
L 19.671875 29.296875 
L 19.671875 0 
L 9.8125 0 
z
" id="BitstreamVeraSans-Roman-50"/>
      <path d="M 45.40625 46.390625 
L 45.40625 75.984375 
L 54.390625 75.984375 
L 54.390625 0 
L 45.40625 0 
L 45.40625 8.203125 
Q 42.578125 3.328125 38.25 0.953125 
Q 33.9375 -1.421875 27.875 -1.421875 
Q 17.96875 -1.421875 11.734375 6.484375 
Q 5.515625 14.40625 5.515625 27.296875 
Q 5.515625 40.1875 11.734375 48.09375 
Q 17.96875 56 27.875 56 
Q 33.9375 56 38.25 53.625 
Q 42.578125 51.265625 45.40625 46.390625 
M 14.796875 27.296875 
Q 14.796875 17.390625 18.875 11.75 
Q 22.953125 6.109375 30.078125 6.109375 
Q 37.203125 6.109375 41.296875 11.75 
Q 45.40625 17.390625 45.40625 27.296875 
Q 45.40625 37.203125 41.296875 42.84375 
Q 37.203125 48.484375 30.078125 48.484375 
Q 22.953125 48.484375 18.875 42.84375 
Q 14.796875 37.203125 14.796875 27.296875 
" id="BitstreamVeraSans-Roman-64"/>
      <path d="M 34.28125 27.484375 
Q 23.390625 27.484375 19.1875 25 
Q 14.984375 22.515625 14.984375 16.5 
Q 14.984375 11.71875 18.140625 8.90625 
Q 21.296875 6.109375 26.703125 6.109375 
Q 34.1875 6.109375 38.703125 11.40625 
Q 43.21875 16.703125 43.21875 25.484375 
L 43.21875 27.484375 
z
M 52.203125 31.203125 
L 52.203125 0 
L 43.21875 0 
L 43.21875 8.296875 
Q 40.140625 3.328125 35.546875 0.953125 
Q 30.953125 -1.421875 24.3125 -1.421875 
Q 15.921875 -1.421875 10.953125 3.296875 
Q 6 8.015625 6 15.921875 
Q 6 25.140625 12.171875 29.828125 
Q 18.359375 34.515625 30.609375 34.515625 
L 43.21875 34.515625 
L 43.21875 35.40625 
Q 43.21875 41.609375 39.140625 45 
Q 35.0625 48.390625 27.6875 48.390625 
Q 23 48.390625 18.546875 47.265625 
Q 14.109375 46.140625 10.015625 43.890625 
L 10.015625 52.203125 
Q 14.9375 54.109375 19.578125 55.046875 
Q 24.21875 56 28.609375 56 
Q 40.484375 56 46.34375 49.84375 
Q 52.203125 43.703125 52.203125 31.203125 
" id="BitstreamVeraSans-Roman-61"/>
      <path d="M 9.421875 75.984375 
L 18.40625 75.984375 
L 18.40625 0 
L 9.421875 0 
z
" id="BitstreamVeraSans-Roman-6c"/>
     </defs>
     <g transform="translate(41.420625 239.0484375)rotate(-90.0)scale(0.12 -0.12)">
      <use xlink:href="#BitstreamVeraSans-Roman-50"/>
      <use x="60.255859375" xlink:href="#BitstreamVeraSans-Roman-65"/>
      <use x="121.779296875" xlink:href="#BitstreamVeraSans-Roman-64"/>
      <use x="185.255859375" xlink:href="#BitstreamVeraSans-Roman-61"/>
      <use x="246.53515625" xlink:href="#BitstreamVeraSans-Roman-6c"/>
      <use x="274.318359375" xlink:href="#BitstreamVeraSans-Roman-20"/>
      <use x="306.10546875" xlink:href="#BitstreamVeraSans-Roman-5b"/>
      <use x="345.119140625" xlink:href="#BitstreamVeraSans-Roman-5d"/>
     </g>
    </g>
   </g>
   <g id="legend_1">
    <g id="patch_7">
     <path d="M 372.99825 96.993 
L 511.2 96.993 
L 511.2 50.4 
L 372.99825 50.4 
z
" style="fill:#ffffff;stroke:#000000;stroke-linejoin:miter;"/>
    </g>
    <g id="line2d_39">
     <path d="M 383.07825 62.06175 
L 403.23825 62.06175 
" style="fill:none;stroke:#008000;stroke-linecap:square;"/>
    </g>
    <g id="line2d_40"/>
    <g id="text_15">
     <!-- Gas pedal -->
     <defs>
      <path d="M 59.515625 10.40625 
L 59.515625 29.984375 
L 43.40625 29.984375 
L 43.40625 38.09375 
L 69.28125 38.09375 
L 69.28125 6.78125 
Q 63.578125 2.734375 56.6875 0.65625 
Q 49.8125 -1.421875 42 -1.421875 
Q 24.90625 -1.421875 15.25 8.5625 
Q 5.609375 18.5625 5.609375 36.375 
Q 5.609375 54.25 15.25 64.234375 
Q 24.90625 74.21875 42 74.21875 
Q 49.125 74.21875 55.546875 72.453125 
Q 61.96875 70.703125 67.390625 67.28125 
L 67.390625 56.78125 
Q 61.921875 61.421875 55.765625 63.765625 
Q 49.609375 66.109375 42.828125 66.109375 
Q 29.4375 66.109375 22.71875 58.640625 
Q 16.015625 51.171875 16.015625 36.375 
Q 16.015625 21.625 22.71875 14.15625 
Q 29.4375 6.6875 42.828125 6.6875 
Q 48.046875 6.6875 52.140625 7.59375 
Q 56.25 8.5 59.515625 10.40625 
" id="BitstreamVeraSans-Roman-47"/>
      <path d="M 18.109375 8.203125 
L 18.109375 -20.796875 
L 9.078125 -20.796875 
L 9.078125 54.6875 
L 18.109375 54.6875 
L 18.109375 46.390625 
Q 20.953125 51.265625 25.265625 53.625 
Q 29.59375 56 35.59375 56 
Q 45.5625 56 51.78125 48.09375 
Q 58.015625 40.1875 58.015625 27.296875 
Q 58.015625 14.40625 51.78125 6.484375 
Q 45.5625 -1.421875 35.59375 -1.421875 
Q 29.59375 -1.421875 25.265625 0.953125 
Q 20.953125 3.328125 18.109375 8.203125 
M 48.6875 27.296875 
Q 48.6875 37.203125 44.609375 42.84375 
Q 40.53125 48.484375 33.40625 48.484375 
Q 26.265625 48.484375 22.1875 42.84375 
Q 18.109375 37.203125 18.109375 27.296875 
Q 18.109375 17.390625 22.1875 11.75 
Q 26.265625 6.109375 33.40625 6.109375 
Q 40.53125 6.109375 44.609375 11.75 
Q 48.6875 17.390625 48.6875 27.296875 
" id="BitstreamVeraSans-Roman-70"/>
     </defs>
     <g transform="translate(419.07825 67.10175)scale(0.144 -0.144)">
      <use xlink:href="#BitstreamVeraSans-Roman-47"/>
      <use x="77.490234375" xlink:href="#BitstreamVeraSans-Roman-61"/>
      <use x="138.76953125" xlink:href="#BitstreamVeraSans-Roman-73"/>
      <use x="190.869140625" xlink:href="#BitstreamVeraSans-Roman-20"/>
      <use x="222.65625" xlink:href="#BitstreamVeraSans-Roman-70"/>
      <use x="286.1328125" xlink:href="#BitstreamVeraSans-Roman-65"/>
      <use x="347.65625" xlink:href="#BitstreamVeraSans-Roman-64"/>
      <use x="411.1328125" xlink:href="#BitstreamVeraSans-Roman-61"/>
      <use x="472.412109375" xlink:href="#BitstreamVeraSans-Roman-6c"/>
     </g>
    </g>
    <g id="line2d_41">
     <path d="M 383.07825 83.19825 
L 403.23825 83.19825 
" style="fill:none;stroke:#ff0000;stroke-linecap:square;"/>
    </g>
    <g id="line2d_42"/>
    <g id="text_16">
     <!-- Brake pedal -->
     <defs>
      <path d="M 41.109375 46.296875 
Q 39.59375 47.171875 37.8125 47.578125 
Q 36.03125 48 33.890625 48 
Q 26.265625 48 22.1875 43.046875 
Q 18.109375 38.09375 18.109375 28.8125 
L 18.109375 0 
L 9.078125 0 
L 9.078125 54.6875 
L 18.109375 54.6875 
L 18.109375 46.1875 
Q 20.953125 51.171875 25.484375 53.578125 
Q 30.03125 56 36.53125 56 
Q 37.453125 56 38.578125 55.875 
Q 39.703125 55.765625 41.0625 55.515625 
z
" id="BitstreamVeraSans-Roman-72"/>
      <path d="M 19.671875 34.8125 
L 19.671875 8.109375 
L 35.5 8.109375 
Q 43.453125 8.109375 47.28125 11.40625 
Q 51.125 14.703125 51.125 21.484375 
Q 51.125 28.328125 47.28125 31.5625 
Q 43.453125 34.8125 35.5 34.8125 
z
M 19.671875 64.796875 
L 19.671875 42.828125 
L 34.28125 42.828125 
Q 41.5 42.828125 45.03125 45.53125 
Q 48.578125 48.25 48.578125 53.8125 
Q 48.578125 59.328125 45.03125 62.0625 
Q 41.5 64.796875 34.28125 64.796875 
z
M 9.8125 72.90625 
L 35.015625 72.90625 
Q 46.296875 72.90625 52.390625 68.21875 
Q 58.5 63.53125 58.5 54.890625 
Q 58.5 48.1875 55.375 44.234375 
Q 52.25 40.28125 46.1875 39.3125 
Q 53.46875 37.75 57.5 32.78125 
Q 61.53125 27.828125 61.53125 20.40625 
Q 61.53125 10.640625 54.890625 5.3125 
Q 48.25 0 35.984375 0 
L 9.8125 0 
z
" id="BitstreamVeraSans-Roman-42"/>
      <path d="M 9.078125 75.984375 
L 18.109375 75.984375 
L 18.109375 31.109375 
L 44.921875 54.6875 
L 56.390625 54.6875 
L 27.390625 29.109375 
L 57.625 0 
L 45.90625 0 
L 18.109375 26.703125 
L 18.109375 0 
L 9.078125 0 
z
" id="BitstreamVeraSans-Roman-6b"/>
     </defs>
     <g transform="translate(419.07825 88.23825)scale(0.144 -0.144)">
      <use xlink:href="#BitstreamVeraSans-Roman-42"/>
      <use x="68.603515625" xlink:href="#BitstreamVeraSans-Roman-72"/>
      <use x="109.716796875" xlink:href="#BitstreamVeraSans-Roman-61"/>
      <use x="170.99609375" xlink:href="#BitstreamVeraSans-Roman-6b"/>
      <use x="228.859375" xlink:href="#BitstreamVeraSans-Roman-65"/>
      <use x="290.3828125" xlink:href="#BitstreamVeraSans-Roman-20"/>
      <use x="322.169921875" xlink:href="#BitstreamVeraSans-Roman-70"/>
      <use x="385.646484375" xlink:href="#BitstreamVeraSans-Roman-65"/>
      <use x="447.169921875" xlink:href="#BitstreamVeraSans-Roman-64"/>
      <use x="510.646484375" xlink:href="#BitstreamVeraSans-Roman-61"/>
      <use x="571.92578125" xlink:href="#BitstreamVeraSans-Roman-6c"/>
     </g>
    </g>
   </g>
  </g>
 </g>
 <defs>
  <clipPath id="p51043fc742">
   <rect height="345.6" width="446.4" x="72.0" y="43.2"/>
  </clipPath>
 </defs>
</svg>
