<?xml version="1.0" encoding="utf-8" standalone="no"?>
<!DOCTYPE svg PUBLIC "-//W3C//DTD SVG 1.1//EN"
  "http://www.w3.org/Graphics/SVG/1.1/DTD/svg11.dtd">
<!-- Created with matplotlib (http://matplotlib.org/) -->
<svg height="432pt" version="1.1" viewBox="0 0 576 432" width="576pt" xmlns="http://www.w3.org/2000/svg" xmlns:xlink="http://www.w3.org/1999/xlink">
 <defs>
  <style type="text/css">
*{stroke-linecap:butt;stroke-linejoin:round;stroke-miterlimit:100000;}
  </style>
 </defs>
 <g id="figure_1">
  <g id="patch_1">
   <path d="M 0 432 
L 576 432 
L 576 0 
L 0 0 
z
" style="fill:#ffffff;"/>
  </g>
  <g id="axes_1">
   <g id="patch_2">
    <path d="M 72 388.8 
L 518.4 388.8 
L 518.4 43.2 
L 72 43.2 
z
" style="fill:#ffffff;"/>
   </g>
   <g id="line2d_1">
    <path clip-path="url(#pca9c8a6c00)" d="M 72.08928 81.777566 
L 83.87424 81.777566 
L 84.32064 87.449181 
L 86.01696 110.554504 
L 87.53472 131.025609 
L 87.624 131.766586 
L 88.0704 138.279456 
L 88.60608 145.244193 
L 88.9632 149.7174 
L 89.94528 162.70665 
L 91.01664 171.784332 
L 91.28448 174.02753 
L 91.46304 176.248297 
L 91.55232 176.138223 
L 92.62368 183.796948 
L 92.9808 186.088641 
L 93.07008 187.613626 
L 93.15936 187.1005 
L 93.33792 188.249478 
L 93.51648 190.351666 
L 93.60576 190.351666 
L 93.69504 191.367517 
L 93.78432 190.9914 
L 93.96288 192.96145 
L 94.05216 193.538681 
L 94.14144 193.163223 
L 94.67712 196.362094 
L 94.85568 197.385324 
L 95.12352 200.081854 
L 96.73056 209.911066 
L 97.35552 213.615857 
L 98.60544 221.206549 
L 98.69472 220.701791 
L 98.96256 223.445004 
L 99.14112 224.497495 
L 99.2304 223.993533 
L 100.30176 230.472034 
L 100.39104 230.472034 
L 100.48032 230.933514 
L 100.83744 234.761151 
L 101.55168 239.027966 
L 101.73024 240.097577 
L 101.81952 239.597113 
L 101.99808 241.77334 
L 102.08736 241.27326 
L 102.26592 243.313623 
L 102.3552 242.813837 
L 102.53376 244.994769 
L 102.71232 246.070917 
L 102.8016 245.571863 
L 102.98016 247.148346 
L 103.248 249.306555 
L 104.1408 254.584259 
L 105.0336 260.030017 
L 105.48 262.694495 
L 105.56928 262.059576 
L 105.74784 264.268799 
L 106.72992 270.109937 
L 107.44416 274.392645 
L 108.6048 281.269171 
L 109.31904 285.600366 
L 109.85472 288.825861 
L 109.944 288.334882 
L 110.03328 289.950073 
L 110.12256 289.318909 
L 110.21184 290.935126 
L 110.30112 290.444476 
L 110.47968 291.571289 
L 110.56896 293.189429 
L 110.65824 292.55863 
L 110.74752 294.177759 
L 110.8368 293.68775 
L 111.01536 295.803021 
L 111.81888 300.835052 
L 111.99744 301.831219 
L 112.08672 301.342584 
L 112.26528 303.46853 
L 112.80096 306.750934 
L 112.89024 306.750934 
L 113.15808 309.039148 
L 114.31872 316.154388 
L 114.76512 319.476508 
L 114.8544 321.11803 
L 114.94368 320.633459 
L 115.12224 322.784418 
L 115.92576 327.941144 
L 116.46144 331.297339 
L 116.55072 332.947559 
L 116.64 332.32359 
L 117.26496 336.866565 
L 117.44352 338.521692 
L 117.5328 339.696918 
L 117.62208 339.216248 
L 117.71136 340.873279 
L 117.80064 340.250336 
L 118.24704 343.125604 
L 118.33632 343.125604 
L 119.05056 347.712561 
L 120.12192 354.556128 
L 120.83616 359.859467 
L 121.01472 361.533984 
L 121.28256 363.788947 
L 121.37184 363.788947 
L 121.5504 364.98988 
L 121.63968 365.042834 
L 121.81824 366.619226 
L 121.90752 365.022729 
L 121.9968 365.582849 
L 122.26464 361.251233 
L 122.35392 360.841864 
L 124.49664 333.341437 
L 124.58592 332.852271 
L 125.38944 322.201373 
L 125.47872 321.736707 
L 125.74656 316.550519 
L 125.83584 317.235315 
L 126.10368 312.854681 
L 126.19296 312.823206 
L 126.4608 308.205414 
L 126.63936 306.143225 
L 126.72864 306.143225 
L 126.81792 303.281543 
L 126.9072 303.850543 
L 127.08576 300.954987 
L 127.8 292.01283 
L 127.88928 289.609772 
L 127.97856 290.299219 
L 128.2464 285.16485 
L 128.42496 285.736432 
L 128.60352 281.159235 
L 129.04992 274.257092 
L 129.1392 273.891925 
L 129.5856 267.409534 
L 129.67488 268.102698 
L 129.76416 267.615967 
L 130.12128 261.296484 
L 130.21056 261.871454 
L 130.56768 255.494934 
L 130.74624 253.63493 
L 130.83552 254.210889 
L 131.01408 249.80365 
L 131.10336 249.771753 
L 131.28192 246.339111 
L 131.46048 243.398529 
L 131.54976 244.095831 
L 131.72832 241.528748 
L 132.08544 236.327875 
L 132.264 234.718854 
L 132.44256 231.227985 
L 132.79968 227.730963 
L 133.06752 223.535596 
L 133.24608 221.911624 
L 133.33536 221.799399 
L 133.69248 215.252948 
L 134.22816 206.580286 
L 134.31744 207.283621 
L 134.496 204.136606 
L 134.58528 204.136606 
L 134.85312 198.867545 
L 134.9424 198.353549 
L 135.03168 198.921616 
L 135.29952 195.807935 
L 135.3888 195.807935 
L 135.65664 193.429367 
L 135.74592 193.429367 
L 136.01376 191.045306 
L 136.37088 188.497925 
L 136.46016 189.084201 
L 136.63872 187.887625 
L 136.728 186.68963 
L 136.81728 187.276538 
L 138.0672 178.536841 
L 138.33504 176.643539 
L 138.42432 175.432617 
L 138.5136 176.022601 
L 138.60288 175.496585 
L 138.78144 174.12442 
L 139.49568 169.260086 
L 139.8528 166.659348 
L 139.94208 166.721136 
L 140.12064 164.806357 
L 140.20992 165.399399 
L 140.47776 162.788287 
L 140.56704 163.381979 
L 140.7456 162.155008 
L 140.83488 162.74902 
L 141.28128 157.769225 
L 141.37056 157.769225 
L 141.72768 154.602901 
L 141.81696 155.19884 
L 141.90624 153.366284 
L 141.99552 153.96254 
L 142.17408 152.128331 
L 142.35264 150.187656 
L 142.44192 150.187656 
L 143.51328 142.555536 
L 143.69184 141.3058 
L 143.95968 134.593973 
L 144.04896 134.593973 
L 144.22752 130.47551 
L 144.3168 130.47551 
L 144.67392 122.383195 
L 145.83456 102.127061 
L 145.92384 102.127061 
L 146.28096 95.699376 
L 147.26304 81.680423 
L 147.35232 81.680423 
L 148.24512 71.09701 
L 148.95936 63.348491 
L 149.04864 63.348491 
L 149.76288 58.105009 
L 149.85216 58.105009 
L 150.03072 57.004568 
L 150.5664 54.257574 
L 151.0128 52.025059 
L 151.54848 49.428257 
L 151.63776 49.428257 
L 151.81632 50.69046 
L 151.9056 50.859229 
L 152.08416 50.362722 
L 152.17344 50.364915 
L 152.26272 50.700224 
L 152.44128 52.757053 
L 152.53056 52.759078 
L 152.70912 52.595611 
L 152.88768 52.599715 
L 153.06624 54.82083 
L 153.2448 54.074597 
L 153.33408 54.159794 
L 153.42336 53.994328 
L 153.51264 56.047343 
L 153.60192 55.881773 
L 153.78048 56.217242 
L 153.86976 56.217242 
L 153.95904 56.019818 
L 154.04832 56.138564 
L 154.1376 58.106648 
L 154.22688 57.941867 
L 154.40544 57.777223 
L 154.67328 57.863773 
L 154.76256 57.947745 
L 154.85184 57.783085 
L 155.0304 59.667867 
L 155.29824 59.754124 
L 155.38752 59.838007 
L 155.56608 59.507053 
L 155.74464 59.508549 
L 155.9232 61.391798 
L 156.10176 61.727074 
L 156.3696 61.229874 
L 156.54816 61.397514 
L 156.72672 61.398937 
L 156.816 61.565808 
L 156.90528 63.614949 
L 156.99456 63.449439 
L 157.44096 63.451937 
L 157.61952 63.28652 
L 157.79808 63.287753 
L 157.88736 63.454522 
L 158.06592 65.003373 
L 158.1552 65.336711 
L 158.33376 65.171148 
L 158.51232 65.337799 
L 158.6016 65.006266 
L 158.78016 65.256504 
L 158.95872 65.173462 
L 159.048 65.174619 
L 159.13728 65.008604 
L 159.40512 65.341865 
L 159.4944 65.176354 
L 159.67296 67.140591 
L 160.03008 66.892074 
L 160.47648 66.948959 
L 160.65504 67.060673 
L 160.8336 67.061156 
L 161.01216 66.812703 
L 161.19072 66.896247 
L 161.28 68.866943 
L 161.36928 68.859127 
L 161.45856 68.942536 
L 161.63712 68.777038 
L 161.7264 68.777038 
L 161.81568 68.611123 
L 161.90496 68.777519 
L 161.99424 68.611552 
L 162.08352 68.777941 
L 162.1728 68.611981 
L 162.26208 68.778393 
L 162.35136 68.695474 
L 162.44064 68.861849 
L 162.52992 68.778874 
L 162.6192 68.945241 
L 162.79776 68.613412 
L 162.88704 68.696809 
L 163.0656 68.613841 
L 163.15488 68.780201 
L 163.33344 68.614327 
L 163.512 68.946968 
L 163.69056 70.660188 
L 163.86912 70.494273 
L 163.9584 70.660545 
L 164.13696 70.494636 
L 164.22624 70.66093 
L 164.4048 70.495085 
L 164.58336 70.412133 
L 164.76192 70.495448 
L 164.8512 70.495448 
L 164.94048 70.661702 
L 165.11904 70.495869 
L 165.20832 70.662116 
L 165.38688 70.496231 
L 166.1904 70.497434 
L 166.27968 70.663659 
L 166.36896 70.497797 
L 166.54752 70.664016 
L 166.72608 72.542246 
L 166.90464 72.376453 
L 167.0832 72.293529 
L 167.26176 72.210661 
L 167.35104 72.210661 
L 167.5296 72.376836 
L 167.70816 72.293914 
L 169.22592 72.377726 
L 169.3152 72.543843 
L 169.49376 72.37808 
L 169.58304 72.37808 
L 169.67232 72.544191 
L 169.85088 72.378434 
L 169.94016 72.295527 
L 170.11872 72.378731 
L 170.208 72.378731 
L 170.38656 72.212979 
L 170.56512 72.379027 
L 170.6544 72.46228 
L 170.83296 72.379381 
L 171.01152 72.379735 
L 171.19008 74.256947 
L 171.27936 74.256947 
L 171.36864 74.091155 
L 171.63648 72.047844 
L 171.81504 72.379735 
L 171.9936 74.256947 
L 172.17216 74.091155 
L 172.26144 74.091155 
L 172.52928 72.213944 
L 172.61856 72.213944 
L 172.79712 72.545846 
L 172.97568 74.257206 
L 173.15424 74.174313 
L 173.3328 74.09142 
L 173.60064 74.09142 
L 173.7792 73.925364 
L 173.95776 73.925364 
L 174.13632 74.091155 
L 174.85056 74.091155 
L 174.93984 74.257206 
L 175.1184 74.091155 
L 175.20768 74.091155 
L 175.38624 74.257206 
L 175.65408 74.257206 
L 175.83264 74.09142 
L 176.54688 74.09142 
L 176.72544 74.257436 
L 176.81472 74.257436 
L 176.99328 74.091656 
L 177.17184 74.091656 
L 177.3504 74.257666 
L 177.97536 74.257954 
L 178.06464 74.092243 
L 178.2432 74.258241 
L 178.42176 74.258241 
L 178.60032 74.09248 
L 178.77888 74.258472 
L 178.86816 74.092716 
L 179.04672 74.258703 
L 179.136 74.258703 
L 179.31456 74.093009 
L 179.49312 74.25899 
L 179.5824 74.25899 
L 179.67168 74.42496 
L 179.93952 74.259278 
L 180.56448 74.259768 
L 180.65376 76.227079 
L 180.74304 75.97058 
L 181.10016 74.09404 
L 181.18944 76.061358 
L 181.27872 75.970523 
L 181.54656 74.09404 
L 181.72512 76.136414 
L 181.8144 75.970523 
L 182.17152 73.928371 
L 182.35008 76.136414 
L 182.52864 76.053611 
L 182.61792 75.887717 
L 182.97504 74.011234 
L 183.1536 76.136414 
L 183.42144 76.136414 
L 183.6 75.804854 
L 183.77856 75.804854 
L 183.95712 74.466656 
L 184.13568 76.136414 
L 184.31424 75.970523 
L 184.40352 75.970523 
L 184.76064 74.09404 
L 184.9392 76.136414 
L 185.20704 75.970751 
L 187.08192 75.970751 
L 187.26048 76.136636 
L 187.52832 76.136636 
L 187.70688 75.970978 
L 188.33184 75.970978 
L 188.5104 76.136857 
L 188.68896 76.136857 
L 188.86752 75.971148 
L 188.9568 75.971148 
L 189.13536 76.137021 
L 189.4032 76.137021 
L 189.58176 75.971318 
L 189.76032 76.137186 
L 189.8496 76.137186 
L 190.02816 75.971545 
L 190.20672 76.137407 
L 190.38528 76.137407 
L 190.56384 75.971773 
L 190.7424 76.137629 
L 190.83168 76.137629 
L 191.01024 75.971943 
L 191.1888 76.137793 
L 191.72448 76.137986 
L 191.81376 76.303819 
L 192.0816 75.972539 
L 192.26016 76.138371 
L 192.34944 76.138371 
L 192.43872 76.304192 
L 192.61728 78.014281 
L 192.79584 77.682858 
L 193.06368 75.807103 
L 193.33152 76.138593 
L 193.4208 76.138593 
L 193.51008 77.939253 
L 193.59936 77.848624 
L 193.68864 77.848624 
L 193.77792 77.682858 
L 194.04576 75.807103 
L 194.22432 75.972766 
L 194.40288 78.014281 
L 194.67072 78.014281 
L 194.93856 75.849899 
L 195.02784 75.807103 
L 195.29568 76.138593 
L 195.38496 77.939253 
L 195.47424 77.931452 
L 195.56352 78.014379 
L 195.83136 77.683024 
L 195.92064 77.683024 
L 196.18848 75.807103 
L 196.27776 75.972936 
L 196.45632 78.014281 
L 196.5456 78.014281 
L 196.72416 77.01665 
L 196.90272 75.807103 
L 196.992 76.138593 
L 197.17056 78.014281 
L 197.34912 78.014281 
L 197.52768 77.682858 
L 197.61696 77.01665 
L 197.70624 78.975222 
L 197.79552 78.703552 
L 197.97408 78.786383 
L 198.50976 78.703347 
L 198.68832 78.620405 
L 198.7776 78.703216 
L 198.86688 78.620285 
L 199.04544 78.703128 
L 199.13472 78.620195 
L 199.224 78.70304 
L 199.40256 78.620104 
L 199.49184 78.702924 
L 199.58112 78.620013 
L 199.75968 78.702836 
L 199.84896 78.619893 
L 199.93824 78.702719 
L 200.65248 78.120893 
L 201.0096 77.180476 
L 201.09888 77.180476 
L 201.27744 76.972215 
L 201.36672 76.972215 
L 201.63456 77.649536 
L 201.81312 77.370289 
L 201.99168 77.453282 
L 202.25952 76.965699 
L 202.3488 76.965699 
L 202.52736 76.840349 
L 202.61664 76.840349 
L 202.97376 76.518866 
L 203.59872 76.056002 
L 203.688 76.139024 
L 203.86656 75.85999 
L 203.95584 75.943029 
L 204.22368 75.46812 
L 204.49152 75.480458 
L 204.67008 75.806649 
L 204.75936 75.959784 
L 204.84864 75.889108 
L 204.93792 75.972117 
L 205.0272 75.693156 
L 205.11648 75.77617 
L 205.20576 75.788552 
L 205.29504 75.58028 
L 205.38432 75.663292 
L 206.18784 75.017694 
L 206.3664 75.326098 
L 206.54496 75.633551 
L 206.72352 75.437736 
L 206.8128 75.450198 
L 207.08064 76.135993 
L 207.16992 76.06548 
L 207.2592 76.06548 
L 207.34848 75.94013 
L 207.52704 76.473498 
L 207.61632 76.436602 
L 207.7056 76.484307 
L 208.06272 77.098493 
L 208.33056 77.19797 
L 208.50912 77.503552 
L 208.5984 77.503552 
L 208.68768 77.224573 
L 208.95552 77.757503 
L 209.22336 78.180574 
L 209.40192 78.437542 
L 209.58048 78.158422 
L 209.84832 78.466211 
L 210.02688 78.840604 
L 210.11616 78.840604 
L 210.29472 78.561418 
L 210.56256 79.011189 
L 210.74112 79.147512 
L 210.91968 78.938422 
L 211.18752 79.523816 
L 211.63392 79.231765 
L 211.90176 79.80379 
L 212.08032 79.594386 
L 212.25888 79.594386 
L 212.616 80.165687 
L 212.70528 80.152939 
L 212.88384 79.860539 
L 212.97312 79.860539 
L 213.15168 79.638131 
L 213.5088 80.278513 
L 213.68736 80.278513 
L 213.77664 79.985901 
L 213.86592 80.055875 
L 213.9552 79.973059 
L 214.22304 80.565734 
L 214.31232 80.565734 
L 214.49088 80.354743 
L 214.66944 80.389727 
L 214.75872 80.096863 
L 215.11584 80.735395 
L 215.20512 80.652588 
L 215.2944 80.722462 
L 215.56224 80.499298 
L 216.00864 81.054181 
L 216.1872 80.760921 
L 216.27648 80.830748 
L 216.36576 80.74793 
L 216.72288 81.384825 
L 216.90144 81.091346 
L 217.08 81.078308 
L 217.5264 82.495825 
L 217.79424 81.695764 
L 217.9728 81.23162 
L 218.50848 82.483733 
L 218.77632 83.60147 
L 218.8656 83.60147 
L 219.40128 85.23686 
L 219.57984 85.15416 
L 219.84768 85.071453 
L 220.11552 84.906024 
L 220.56192 84.8233 
L 220.74048 84.74057 
L 221.0976 84.657835 
L 221.27616 84.575094 
L 221.544 84.492347 
L 221.72256 84.409579 
L 222.07968 84.326821 
L 222.34752 84.161286 
L 222.79392 84.078509 
L 223.06176 83.912939 
L 223.50816 83.830145 
L 223.59744 83.747345 
L 223.86528 84.20272 
L 223.95456 84.272969 
L 224.13312 84.190179 
L 224.40096 84.107384 
L 224.49024 84.024582 
L 224.75808 84.47748 
L 224.93664 84.621145 
L 225.1152 84.538356 
L 225.29376 84.45556 
L 225.65088 85.137014 
L 225.82944 85.054234 
L 226.18656 85.115277 
L 226.4544 85.56591 
L 226.99008 85.621497 
L 227.16864 85.992221 
L 227.70432 85.935247 
L 227.97216 86.533014 
L 228.59712 86.457691 
L 228.77568 86.828789 
L 228.95424 86.996753 
L 229.1328 86.952395 
L 229.22208 87.029178 
L 229.40064 86.946421 
L 229.5792 87.400501 
L 229.66848 87.667701 
L 229.75776 87.584961 
L 230.11488 87.502214 
L 230.38272 88.078299 
L 230.56128 87.995564 
L 230.73984 87.989338 
L 231.09696 88.705359 
L 231.72192 88.21104 
L 231.8112 88.287404 
L 231.98976 88.121869 
L 232.16832 87.875015 
L 232.2576 87.95131 
L 232.34688 87.702933 
L 232.43616 87.765042 
L 232.52544 87.765042 
L 232.704 87.435542 
L 233.06112 87.306361 
L 233.23968 86.974879 
L 233.32896 87.203162 
L 233.41824 86.795123 
L 233.5968 87.010103 
L 233.68608 86.754603 
L 233.77536 86.911921 
L 233.86464 86.580194 
L 233.95392 86.808921 
L 234.0432 86.718634 
L 234.13248 86.456019 
L 234.22176 86.51903 
L 234.40032 86.380357 
L 234.57888 86.556366 
L 234.75744 86.528334 
L 234.84672 86.362327 
L 235.02528 85.947194 
L 235.65024 84.84779 
L 235.73952 84.911565 
L 235.91808 84.700362 
L 236.54304 84.550822 
L 236.7216 84.27887 
L 236.90016 84.248839 
L 237.07872 83.82417 
L 237.168 83.82417 
L 237.34656 83.491097 
L 237.43584 83.407814 
L 237.6144 83.07461 
L 237.79296 83.093373 
L 238.15008 82.562241 
L 238.41792 82.700225 
L 238.59648 82.580107 
L 238.9536 82.13554 
L 239.04288 82.284208 
L 239.66784 81.716278 
L 239.75712 81.781824 
L 239.93568 81.586075 
L 240.20352 81.544682 
L 240.2928 81.528108 
L 240.47136 81.187053 
L 240.64992 81.23699 
L 240.82848 81.203297 
L 241.00704 80.944558 
L 241.36416 80.884731 
L 241.54272 80.61617 
L 241.72128 80.572798 
L 241.81056 80.722684 
L 241.89984 80.555372 
L 242.25696 79.402078 
L 242.34624 79.14971 
L 242.43552 79.299385 
L 242.70336 78.955516 
L 242.79264 79.106067 
L 242.88192 79.078439 
L 243.06048 78.890745 
L 243.23904 78.881713 
L 243.32832 78.696055 
L 243.4176 78.836476 
L 243.59616 78.423572 
L 243.95328 79.195079 
L 244.13184 79.45099 
L 244.39968 79.4417 
L 244.7568 80.111317 
L 245.11392 79.85361 
L 245.2032 79.85361 
L 245.56032 80.684794 
L 245.73888 80.435446 
L 245.91744 80.35167 
L 246.18528 80.577098 
L 246.45312 81.004682 
L 246.5424 80.920917 
L 246.72096 80.994908 
L 246.81024 80.91114 
L 246.89952 80.670203 
L 247.25664 81.44342 
L 247.34592 81.487042 
L 247.52448 81.235134 
L 247.79232 81.460373 
L 247.97088 81.930952 
L 248.23872 81.796869 
L 248.328 81.870472 
L 248.41728 81.786714 
L 248.7744 82.439136 
L 248.95296 82.355392 
L 249.31008 82.41855 
L 249.57792 82.994362 
L 250.20288 83.052003 
L 250.38144 83.523182 
L 250.47072 83.462552 
L 250.82784 83.368228 
L 251.18496 84.084096 
L 251.63136 84.152428 
L 251.8992 84.629074 
L 252.16704 84.545368 
L 252.3456 84.461643 
L 252.43488 84.461643 
L 252.70272 85.08555 
L 253.2384 85.003206 
L 253.32768 84.919499 
L 253.59552 85.543749 
L 253.95264 85.460055 
L 254.04192 85.376355 
L 254.39904 86.195546 
L 254.84544 86.064314 
L 255.29184 86.678708 
L 255.38112 86.750835 
L 255.55968 86.667163 
L 255.73824 86.583484 
L 256.09536 87.277678 
L 256.27392 87.194015 
L 256.45248 87.098611 
L 256.8096 86.847546 
L 256.98816 87.069515 
L 257.256 87.4446 
L 257.43456 87.251036 
L 257.52384 87.167326 
L 257.61312 86.832424 
L 257.7024 87.041635 
L 257.97024 86.61076 
L 258.05952 86.680361 
L 259.0416 85.235934 
L 259.22016 85.292348 
L 259.30944 85.292348 
L 259.488 84.884746 
L 259.66656 84.931842 
L 259.75584 84.750542 
L 259.9344 84.914493 
L 260.47008 84.010836 
L 260.55936 84.010836 
L 260.91648 83.312728 
L 261.00576 83.55202 
L 261.54144 82.725523 
L 261.63072 82.796944 
L 261.72 82.868419 
L 261.80928 83.098534 
L 261.98784 82.833456 
L 262.07712 82.850661 
L 262.43424 82.577577 
L 262.52352 82.577577 
L 262.88064 81.45973 
L 262.96992 81.684116 
L 263.14848 81.448558 
L 263.32704 81.252646 
L 263.41632 81.295946 
L 263.5056 81.127308 
L 263.59488 81.199619 
L 263.68416 81.072472 
L 263.77344 81.199907 
L 264.04128 80.680936 
L 264.21984 80.6692 
L 264.30912 80.850396 
L 264.57696 80.527211 
L 264.66624 80.684505 
L 264.93408 80.229695 
L 265.02336 80.299933 
L 265.11264 80.04656 
L 265.20192 80.288545 
L 265.46976 79.897343 
L 265.55904 80.055094 
L 265.82688 79.940139 
L 266.09472 79.628495 
L 266.27328 79.669347 
L 266.54112 79.526406 
L 266.6304 79.497134 
L 266.71968 79.040636 
L 266.80896 79.283592 
L 266.89824 79.066101 
L 266.98752 79.139958 
L 267.0768 79.076573 
L 267.16608 79.181177 
L 267.25536 79.031964 
L 267.34464 79.171402 
L 267.61248 78.652887 
L 267.79104 78.677202 
L 267.9696 78.631845 
L 268.05888 78.770893 
L 268.14816 78.501678 
L 268.23744 78.556001 
L 268.416 78.01075 
L 268.50528 78.169966 
L 268.59456 78.272927 
L 268.68384 78.103475 
L 268.8624 78.126638 
L 268.95168 77.94174 
L 269.04096 78.185944 
L 269.48736 77.612568 
L 269.93376 77.552926 
L 270.2016 77.125814 
L 270.29088 77.263689 
L 270.55872 77.523361 
L 270.73728 77.438517 
L 270.82656 77.507386 
L 270.91584 77.422553 
L 271.18368 77.904451 
L 271.36224 77.95688 
L 271.71936 77.872054 
L 271.89792 78.277291 
L 272.07648 78.333047 
L 272.34432 78.401418 
L 272.4336 78.384972 
L 272.79072 79.141821 
L 272.88 79.057022 
L 273.05856 78.840924 
L 273.3264 78.739396 
L 273.68352 79.561088 
L 273.86208 79.476291 
L 274.04064 79.173567 
L 274.12992 79.173567 
L 274.48704 79.991771 
L 274.93344 79.957557 
L 275.20128 80.417184 
L 275.46912 80.315016 
L 275.91552 80.788713 
L 276.09408 81.042715 
L 276.18336 81.109966 
L 276.54048 80.717204 
L 276.8976 81.525857 
L 277.16544 81.423288 
L 277.25472 81.423288 
L 277.61184 82.229632 
L 277.7904 82.144987 
L 277.96896 82.060322 
L 278.05824 82.060322 
L 278.2368 82.636713 
L 278.86176 82.534093 
L 278.95104 82.51604 
L 279.30816 83.317609 
L 279.66528 83.233126 
L 279.75456 83.148597 
L 280.0224 83.649843 
L 280.20096 83.71603 
L 280.55808 83.646386 
L 280.9152 84.325531 
L 281.3616 84.373275 
L 281.808 84.999431 
L 282.07584 84.915152 
L 282.34368 85.410527 
L 282.96864 85.432234 
L 283.32576 86.155981 
L 283.77216 86.11876 
L 283.95072 86.779797 
L 284.9328 86.475861 
L 285.28992 87.052885 
L 285.46848 86.933195 
L 285.73632 86.73381 
L 285.91488 86.662611 
L 286.45056 86.134861 
L 287.1648 84.741203 
L 287.25408 84.823836 
L 287.6112 84.773394 
L 287.87904 84.521117 
L 288.0576 84.544755 
L 288.23616 84.112216 
L 288.68256 83.485055 
L 288.77184 83.442237 
L 288.86112 83.573518 
L 288.9504 83.224949 
L 289.03968 83.309032 
L 289.12896 83.226473 
L 289.21824 83.35774 
L 289.30752 82.920448 
L 289.3968 83.180104 
L 289.48608 82.832754 
L 289.57536 83.092826 
L 289.66464 82.777423 
L 289.75392 83.037913 
L 290.02176 82.763887 
L 290.2896 82.805598 
L 290.82528 81.745294 
L 291.00384 81.231549 
L 293.05728 80.175009 
L 293.14656 79.937212 
L 293.23584 80.024969 
L 293.32512 80.281917 
L 293.59296 79.936658 
L 293.68224 79.927639 
L 293.77152 80.058814 
L 294.21792 79.300949 
L 294.3072 79.43178 
L 294.39648 79.249845 
L 294.57504 78.430779 
L 295.73568 77.805689 
L 295.82496 77.844793 
L 296.00352 77.673037 
L 296.0928 77.711954 
L 296.27136 77.631841 
L 296.44992 77.578267 
L 296.71776 77.378222 
L 296.89632 77.362588 
L 297.34272 76.837604 
L 297.61056 76.754812 
L 297.69984 76.485562 
L 297.78912 76.550845 
L 298.05696 76.215466 
L 298.23552 76.364242 
L 298.3248 76.455773 
L 298.50336 77.011464 
L 298.68192 76.687476 
L 298.86048 76.918447 
L 299.03904 76.702712 
L 299.12832 76.702712 
L 299.39616 76.435917 
L 299.48544 76.60134 
L 299.57472 76.41365 
L 299.664 76.514097 
L 299.75328 76.326224 
L 299.84256 76.426488 
L 300.02112 76.338543 
L 300.1104 76.338543 
L 300.28896 75.614941 
L 300.5568 75.385486 
L 300.64608 75.385486 
L 300.91392 74.921593 
L 301.36032 74.439832 
L 301.4496 74.544022 
L 301.98528 74.492678 
L 302.25312 74.824937 
L 302.52096 74.764475 
L 302.69952 74.704 
L 302.96736 75.035394 
L 303.14592 74.974861 
L 303.59232 74.914283 
L 303.77088 75.149695 
L 304.128 75.123547 
L 304.39584 74.345796 
L 304.48512 74.631228 
L 304.5744 74.573508 
L 304.75296 74.607899 
L 305.11008 74.451497 
L 305.19936 74.485888 
L 305.4672 74.81397 
L 305.82432 74.691781 
L 306.09216 74.596306 
L 306.27072 74.535128 
L 306.36 74.569466 
L 306.53856 74.508243 
L 306.8064 74.446991 
L 307.07424 74.774143 
L 307.2528 74.712847 
L 307.60992 74.651498 
L 308.1456 75.705886 
L 308.41344 75.549232 
L 308.592 75.970858 
L 308.77056 75.909619 
L 309.0384 75.814171 
L 309.21696 75.787036 
L 309.39552 76.078198 
L 309.66336 76.112306 
L 309.84192 76.050938 
L 310.02048 75.955425 
L 310.10976 75.893989 
L 310.28832 76.279891 
L 310.3776 76.330943 
L 310.55616 76.252483 
L 310.824 76.190995 
L 311.00256 76.480547 
L 311.35968 76.453548 
L 311.53824 76.374414 
L 311.62752 76.391387 
L 312.1632 77.386809 
L 312.34176 77.403779 
L 312.52032 77.709313 
L 312.69888 77.64784 
L 313.056 77.58841 
L 313.23456 77.525821 
L 313.5024 77.863268 
L 313.59168 77.784772 
L 313.85952 78.521904 
L 313.9488 78.523229 
L 314.12736 78.843365 
L 314.48448 78.783549 
L 314.75232 78.723687 
L 315.02016 79.042967 
L 315.288 78.90102 
L 315.7344 80.039539 
L 316.09152 79.91671 
L 316.35936 79.85525 
L 316.53792 80.141154 
L 316.71648 80.177539 
L 316.98432 80.916939 
L 317.25216 80.858402 
L 317.43072 81.174997 
L 317.60928 81.086414 
L 317.78784 81.116852 
L 317.9664 81.052224 
L 318.32352 82.028527 
L 318.50208 82.085507 
L 318.68064 82.037356 
L 318.94848 81.992843 
L 319.12704 82.277667 
L 319.21632 82.311161 
L 319.48416 83.057439 
L 319.66272 82.983756 
L 319.752 82.893265 
L 319.93056 83.297732 
L 320.28768 83.455855 
L 320.6448 84.285717 
L 320.73408 84.319146 
L 321.00192 84.180298 
L 321.18048 84.197016 
L 321.71616 85.270363 
L 321.89472 85.203385 
L 321.984 85.209418 
L 322.4304 86.271935 
L 322.51968 86.194457 
L 322.8768 86.157041 
L 322.96608 86.163753 
L 323.50176 87.227721 
L 323.68032 87.065545 
L 324.03744 87.960317 
L 324.216 87.982451 
L 324.30528 87.990512 
L 324.39456 87.716468 
L 324.48384 87.767064 
L 324.6624 87.62016 
L 324.93024 88.129333 
L 325.19808 87.849216 
L 325.28736 87.521696 
L 325.37664 87.571868 
L 325.46592 87.490312 
L 325.5552 87.787269 
L 325.64448 87.705993 
L 325.73376 87.937905 
L 326.18016 87.162948 
L 326.448 87.489226 
L 326.53728 87.339516 
L 326.62656 87.473839 
L 326.98368 86.696847 
L 327.16224 86.916166 
L 327.60864 86.368029 
L 327.7872 86.022271 
L 328.14432 86.390681 
L 328.50144 85.792402 
L 328.76928 85.589137 
L 328.85856 85.681085 
L 329.39424 85.039544 
L 329.48352 85.039544 
L 329.75136 85.22887 
L 329.92992 84.974446 
L 330.0192 84.553464 
L 330.10848 84.689589 
L 330.37632 84.254646 
L 330.4656 84.368372 
L 330.64416 84.596372 
L 331.17984 83.646704 
L 331.53696 83.755677 
L 331.98336 83.140995 
L 332.34048 83.479005 
L 332.42976 83.485265 
L 332.6976 82.894267 
L 332.96544 82.749296 
L 333.05472 82.866442 
L 333.50112 82.249533 
L 333.67968 82.086172 
L 333.85824 81.787459 
L 334.21536 82.126605 
L 334.57248 81.696809 
L 334.66176 81.702552 
L 334.84032 81.262846 
L 334.9296 81.382016 
L 335.10816 81.722031 
L 335.19744 81.83747 
L 335.46528 81.199509 
L 335.73312 80.968084 
L 335.8224 81.088338 
L 335.91168 81.412067 
L 336.00096 81.32935 
L 336.09024 81.478051 
L 336.17952 81.076485 
L 336.2688 81.209353 
L 336.53664 80.633758 
L 336.7152 80.328723 
L 336.80448 80.334368 
L 337.07232 80.801209 
L 337.25088 80.676244 
L 337.42944 80.369793 
L 337.87584 79.480992 
L 337.96512 79.480992 
L 338.32224 79.804925 
L 338.41152 79.804925 
L 338.67936 79.360834 
L 338.76864 79.277474 
L 338.9472 79.835261 
L 339.03648 79.685551 
L 339.75072 78.635244 
L 339.84 78.531807 
L 340.01856 78.989529 
L 340.37568 78.963148 
L 340.7328 78.290521 
L 341.08992 78.735051 
L 341.1792 78.70046 
L 341.6256 78.037165 
L 341.80416 78.037211 
L 341.89344 77.727252 
L 341.98272 78.064469 
L 342.072 77.981394 
L 342.25056 78.383432 
L 342.69696 77.575529 
L 342.78624 77.469628 
L 343.05408 77.95987 
L 343.23264 78.028035 
L 343.8576 77.114238 
L 344.12544 77.608365 
L 344.21472 77.616475 
L 344.57184 77.089064 
L 344.83968 76.820471 
L 345.10752 77.237455 
L 345.1968 77.271853 
L 345.55392 76.735884 
L 345.6432 76.699446 
L 345.91104 76.340436 
L 346.17888 76.842651 
L 346.26816 76.727192 
L 346.44672 76.546571 
L 346.71456 76.150619 
L 346.89312 75.96909 
L 347.16096 76.475279 
L 347.25024 76.357242 
L 347.33952 76.320228 
L 347.60736 75.747271 
L 347.8752 75.377945 
L 348.14304 76.104591 
L 348.50016 75.619401 
L 348.768 75.362529 
L 348.85728 75.216141 
L 349.12512 75.730161 
L 349.2144 75.607145 
L 349.30368 75.56935 
L 349.39296 75.240422 
L 349.48224 75.311356 
L 349.92864 74.651645 
L 350.19648 75.169897 
L 350.28576 74.970174 
L 350.37504 75.076745 
L 350.5536 74.653934 
L 350.82144 74.26567 
L 351.08928 74.787925 
L 351.26784 74.804772 
L 351.62496 74.320149 
L 351.80352 74.025473 
L 351.8928 73.876262 
L 352.16064 74.51274 
L 352.42848 74.193295 
L 352.60704 73.753443 
L 352.96416 73.227969 
L 353.232 73.869579 
L 353.49984 73.575318 
L 353.6784 73.283508 
L 353.85696 73.19829 
L 353.94624 73.011538 
L 354.21408 73.657314 
L 354.30336 73.592316 
L 354.66048 72.996772 
L 354.74976 72.950852 
L 354.92832 72.723049 
L 355.19616 73.261619 
L 355.28544 73.122588 
L 355.464 72.930148 
L 355.73184 72.513235 
L 355.99968 72.463131 
L 356.17824 72.862483 
L 356.26752 72.833102 
L 356.8032 72.031094 
L 356.98176 71.836293 
L 357.2496 72.38314 
L 357.33888 72.351474 
L 357.78528 71.514472 
L 357.87456 71.503059 
L 358.23168 72.020164 
L 358.49952 71.674627 
L 358.5888 71.633052 
L 358.85664 71.244945 
L 359.0352 70.945638 
L 359.12448 71.092538 
L 359.30304 71.500737 
L 359.39232 71.530669 
L 359.83872 70.906867 
L 359.928 70.828716 
L 360.01728 70.976735 
L 360.10656 71.387567 
L 360.3744 70.970645 
L 360.46368 70.994413 
L 360.64224 70.72318 
L 360.73152 70.72318 
L 360.8208 70.500076 
L 360.91008 70.541597 
L 361.17792 71.089013 
L 361.44576 70.731935 
L 361.89216 70.258867 
L 362.42784 71.658472 
L 362.6064 71.572577 
L 362.78496 71.864723 
L 362.87424 71.872529 
L 363.0528 72.822193 
L 363.23136 72.743515 
L 363.32064 72.751447 
L 363.40992 73.132495 
L 363.4992 73.035401 
L 363.67776 73.080023 
L 363.76704 72.97418 
L 364.03488 73.879906 
L 364.12416 73.915811 
L 364.30272 74.243246 
L 364.48128 74.164619 
L 364.57056 74.174325 
L 364.8384 75.089454 
L 364.92768 74.984919 
L 365.10624 75.398697 
L 365.37408 75.227267 
L 365.64192 76.168224 
L 365.7312 76.186139 
L 365.90976 76.568429 
L 366.08832 76.512926 
L 366.1776 76.524667 
L 366.44544 77.440788 
L 366.53472 77.338655 
L 366.624 77.362619 
L 366.80256 77.689097 
L 366.89184 77.701934 
L 366.98112 77.600824 
L 367.24896 78.504704 
L 367.33824 78.553372 
L 367.42752 78.452477 
L 367.60608 78.866623 
L 367.69536 78.766834 
L 367.9632 79.683914 
L 368.23104 79.620064 
L 368.58816 80.977926 
L 368.67744 80.993225 
L 368.856 80.910387 
L 368.94528 80.925685 
L 369.12384 80.842713 
L 369.3024 81.497217 
L 369.48096 82.082031 
L 369.65952 82.115163 
L 370.10592 83.342761 
L 370.28448 83.265462 
L 370.55232 84.165793 
L 370.6416 84.201435 
L 370.82016 84.527202 
L 370.90944 84.546473 
L 371.26656 85.406945 
L 371.35584 85.426354 
L 371.89152 86.651993 
L 372.07008 86.581141 
L 372.33792 87.917488 
L 372.69504 87.87211 
L 373.40928 89.937671 
L 373.49856 89.973211 
L 373.7664 89.820996 
L 373.94496 90.3699 
L 374.48064 91.358022 
L 374.6592 91.092888 
L 374.83776 90.939655 
L 375.01632 91.544098 
L 375.37344 91.039364 
L 375.73056 91.256636 
L 375.9984 90.584362 
L 376.08768 91.282373 
L 376.4448 90.444161 
L 376.71264 91.038479 
L 376.80192 90.883506 
L 376.98048 90.614882 
L 377.24832 91.118734 
L 377.3376 91.067227 
L 377.42688 91.067227 
L 377.60544 90.479715 
L 377.87328 90.880239 
L 377.96256 90.880239 
L 378.14112 90.412253 
L 378.31968 90.581868 
L 378.40896 90.523259 
L 378.58752 90.752819 
L 378.76608 90.596303 
L 378.85536 90.537997 
L 379.03392 90.994417 
L 379.1232 90.938167 
L 379.21248 90.551999 
L 379.48032 91.411263 
L 379.5696 90.97972 
L 379.65888 91.178701 
L 379.74816 91.087768 
L 379.83744 90.658722 
L 380.19456 91.462833 
L 380.37312 91.190298 
L 380.64096 91.826323 
L 380.73024 91.65765 
L 380.9088 91.457148 
L 381.17664 92.096084 
L 381.26592 91.926143 
L 381.3552 91.955992 
L 381.53376 91.42775 
L 381.8016 92.300926 
L 381.98016 92.07389 
L 382.248 92.718465 
L 382.33728 92.564373 
L 382.51584 92.344672 
L 382.60512 92.033649 
L 382.87296 92.913132 
L 383.05152 92.69621 
L 383.1408 92.40301 
L 383.40864 93.169511 
L 383.49792 93.281216 
L 383.5872 92.958496 
L 383.67648 92.983423 
L 384.0336 93.636055 
L 384.30144 93.306308 
L 384.65856 93.912714 
L 384.74784 93.705447 
L 385.01568 94.480576 
L 385.10496 94.393431 
L 385.28352 94.142918 
L 385.3728 94.20794 
L 385.55136 94.533598 
L 385.8192 93.992371 
L 385.90848 93.974437 
L 386.08704 94.397353 
L 386.17632 94.317469 
L 386.2656 94.34046 
L 386.44416 93.997527 
L 386.712 94.758945 
L 386.80128 94.663819 
L 387.06912 94.260665 
L 387.24768 94.745504 
L 387.33696 94.665813 
L 387.51552 94.425493 
L 387.69408 94.24833 
L 387.78336 94.034054 
L 387.96192 94.453316 
L 388.0512 94.658576 
L 388.4976 94.128481 
L 388.67616 94.471405 
L 388.76544 94.490462 
L 388.944 94.305132 
L 389.03328 94.324434 
L 389.21184 94.696584 
L 389.74752 94.166624 
L 390.01536 95.096582 
L 390.19392 94.835958 
L 390.55104 94.431913 
L 390.7296 94.921395 
L 390.81888 94.819936 
L 390.99744 94.717545 
L 391.176 94.512151 
L 391.35456 94.943993 
L 391.97952 94.417391 
L 392.15808 94.923534 
L 392.69376 94.558104 
L 392.9616 95.376183 
L 393.49728 94.768458 
L 393.67584 95.387321 
L 393.76512 95.318417 
L 394.39008 94.794081 
L 394.56864 95.340837 
L 394.92576 95.110736 
L 395.01504 95.136666 
L 395.1936 94.987283 
L 395.37216 95.072242 
L 395.46144 95.362782 
L 395.72928 95.181892 
L 396.35424 94.715103 
L 396.71136 95.577824 
L 397.24704 95.04187 
L 397.4256 95.642709 
L 397.96128 95.246524 
L 398.13984 95.145284 
L 398.3184 95.742183 
L 398.67552 95.460179 
L 398.94336 95.316371 
L 399.12192 95.174047 
L 399.30048 95.682851 
L 399.47904 95.601728 
L 399.92544 95.276833 
L 400.104 95.195507 
L 400.19328 95.11414 
L 400.46112 96.064556 
L 518.4 96.064556 
L 518.4 96.064556 
" style="fill:none;stroke:#008000;stroke-linecap:square;"/>
   </g>
   <g id="line2d_2">
    <path clip-path="url(#pca9c8a6c00)" d="M 72.08928 81.6 
L 84.58848 81.693796 
L 85.392 82.007493 
L 86.2848 82.615078 
L 87.1776 83.490872 
L 88.15968 84.7632 
L 89.23104 86.202001 
L 140.83488 86.202001 
L 142.0848 88.460837 
L 142.17408 88.460837 
L 142.35264 88.908527 
L 142.44192 88.908527 
L 143.95968 91.189684 
L 144.04896 91.189684 
L 144.22752 91.511782 
L 144.40608 91.610981 
L 145.29888 92.402362 
L 146.01312 92.753989 
L 146.72736 92.94466 
L 147.53088 92.983254 
L 148.51296 92.797659 
L 149.85216 92.252442 
L 150.12 92.093806 
L 155.11968 89.127383 
L 157.17312 88.163517 
L 157.44096 88.085419 
L 158.86944 87.570782 
L 159.22656 87.464389 
L 160.03008 87.268702 
L 160.3872 87.173634 
L 164.04768 85.997153 
L 169.04736 84.771563 
L 174.58272 83.652284 
L 183.68928 82.115036 
L 195.29568 80.602205 
L 204.1344 79.712302 
L 210.29472 78.913007 
L 215.20512 78.689324 
L 219.22272 78.708592 
L 231.27552 79.789092 
L 234.936 80.289082 
L 237.79296 80.482557 
L 241.632 80.494328 
L 251.27424 80.3639 
L 255.11328 80.69622 
L 261.09504 81.319957 
L 264.48768 81.345442 
L 268.59456 81.128564 
L 276.27264 80.594343 
L 279.93312 80.653766 
L 283.32576 80.925703 
L 284.4864 81.068959 
L 288.59328 81.452014 
L 292.34304 81.508267 
L 295.73568 81.315131 
L 301.62816 80.708771 
L 304.66368 80.348968 
L 305.64576 80.239673 
L 311.7168 79.437254 
L 315.46656 79.156874 
L 319.21632 79.106185 
L 322.34112 79.282743 
L 333.05472 80.254519 
L 337.34016 80.241711 
L 341.71488 80.022951 
L 347.51808 79.501029 
L 353.232 78.737123 
L 358.05312 77.905296 
L 366.44544 76.501444 
L 369.3024 76.38304 
L 372.07008 76.524183 
L 373.7664 76.758091 
L 382.96224 78.292216 
L 388.14048 79.432805 
L 400.46112 82.318246 
L 400.63968 81.6 
L 518.4 81.6 
L 518.4 81.6 
" style="fill:none;stroke:#0000ff;stroke-linecap:square;"/>
   </g>
   <g id="patch_3">
    <path d="M 72 43.2 
L 518.4 43.2 
" style="fill:none;stroke:#000000;stroke-linecap:square;stroke-linejoin:miter;"/>
   </g>
   <g id="patch_4">
    <path d="M 518.4 388.8 
L 518.4 43.2 
" style="fill:none;stroke:#000000;stroke-linecap:square;stroke-linejoin:miter;"/>
   </g>
   <g id="patch_5">
    <path d="M 72 388.8 
L 518.4 388.8 
" style="fill:none;stroke:#000000;stroke-linecap:square;stroke-linejoin:miter;"/>
   </g>
   <g id="patch_6">
    <path d="M 72 388.8 
L 72 43.2 
" style="fill:none;stroke:#000000;stroke-linecap:square;stroke-linejoin:miter;"/>
   </g>
   <g id="matplotlib.axis_1">
    <g id="xtick_1">
     <g id="line2d_3">
      <path clip-path="url(#pca9c8a6c00)" d="M 72 388.8 
L 72 43.2 
" style="fill:none;stroke:#000000;stroke-dasharray:1.000000,3.000000;stroke-dashoffset:0.0;stroke-width:0.5;"/>
     </g>
     <g id="line2d_4">
      <defs>
       <path d="M 0 0 
L 0 -4 
" id="m8a39b86bc1" style="stroke:#000000;stroke-width:0.5;"/>
      </defs>
      <g>
       <use style="stroke:#000000;stroke-width:0.5;" x="72.0" xlink:href="#m8a39b86bc1" y="388.8"/>
      </g>
     </g>
     <g id="line2d_5">
      <defs>
       <path d="M 0 0 
L 0 4 
" id="m2bebb9028b" style="stroke:#000000;stroke-width:0.5;"/>
      </defs>
      <g>
       <use style="stroke:#000000;stroke-width:0.5;" x="72.0" xlink:href="#m2bebb9028b" y="43.2"/>
      </g>
     </g>
     <g id="text_1">
      <!-- 0 -->
      <defs>
       <path d="M 31.78125 66.40625 
Q 24.171875 66.40625 20.328125 58.90625 
Q 16.5 51.421875 16.5 36.375 
Q 16.5 21.390625 20.328125 13.890625 
Q 24.171875 6.390625 31.78125 6.390625 
Q 39.453125 6.390625 43.28125 13.890625 
Q 47.125 21.390625 47.125 36.375 
Q 47.125 51.421875 43.28125 58.90625 
Q 39.453125 66.40625 31.78125 66.40625 
M 31.78125 74.21875 
Q 44.046875 74.21875 50.515625 64.515625 
Q 56.984375 54.828125 56.984375 36.375 
Q 56.984375 17.96875 50.515625 8.265625 
Q 44.046875 -1.421875 31.78125 -1.421875 
Q 19.53125 -1.421875 13.0625 8.265625 
Q 6.59375 17.96875 6.59375 36.375 
Q 6.59375 54.828125 13.0625 64.515625 
Q 19.53125 74.21875 31.78125 74.21875 
" id="BitstreamVeraSans-Roman-30"/>
      </defs>
      <g transform="translate(68.1825 401.918125)scale(0.12 -0.12)">
       <use xlink:href="#BitstreamVeraSans-Roman-30"/>
      </g>
     </g>
    </g>
    <g id="xtick_2">
     <g id="line2d_6">
      <path clip-path="url(#pca9c8a6c00)" d="M 161.28 388.8 
L 161.28 43.2 
" style="fill:none;stroke:#000000;stroke-dasharray:1.000000,3.000000;stroke-dashoffset:0.0;stroke-width:0.5;"/>
     </g>
     <g id="line2d_7">
      <g>
       <use style="stroke:#000000;stroke-width:0.5;" x="161.28" xlink:href="#m8a39b86bc1" y="388.8"/>
      </g>
     </g>
     <g id="line2d_8">
      <g>
       <use style="stroke:#000000;stroke-width:0.5;" x="161.28" xlink:href="#m2bebb9028b" y="43.2"/>
      </g>
     </g>
     <g id="text_2">
      <!-- 10 -->
      <defs>
       <path d="M 12.40625 8.296875 
L 28.515625 8.296875 
L 28.515625 63.921875 
L 10.984375 60.40625 
L 10.984375 69.390625 
L 28.421875 72.90625 
L 38.28125 72.90625 
L 38.28125 8.296875 
L 54.390625 8.296875 
L 54.390625 0 
L 12.40625 0 
z
" id="BitstreamVeraSans-Roman-31"/>
      </defs>
      <g transform="translate(153.645 401.918125)scale(0.12 -0.12)">
       <use xlink:href="#BitstreamVeraSans-Roman-31"/>
       <use x="63.623046875" xlink:href="#BitstreamVeraSans-Roman-30"/>
      </g>
     </g>
    </g>
    <g id="xtick_3">
     <g id="line2d_9">
      <path clip-path="url(#pca9c8a6c00)" d="M 250.56 388.8 
L 250.56 43.2 
" style="fill:none;stroke:#000000;stroke-dasharray:1.000000,3.000000;stroke-dashoffset:0.0;stroke-width:0.5;"/>
     </g>
     <g id="line2d_10">
      <g>
       <use style="stroke:#000000;stroke-width:0.5;" x="250.56" xlink:href="#m8a39b86bc1" y="388.8"/>
      </g>
     </g>
     <g id="line2d_11">
      <g>
       <use style="stroke:#000000;stroke-width:0.5;" x="250.56" xlink:href="#m2bebb9028b" y="43.2"/>
      </g>
     </g>
     <g id="text_3">
      <!-- 20 -->
      <defs>
       <path d="M 19.1875 8.296875 
L 53.609375 8.296875 
L 53.609375 0 
L 7.328125 0 
L 7.328125 8.296875 
Q 12.9375 14.109375 22.625 23.890625 
Q 32.328125 33.6875 34.8125 36.53125 
Q 39.546875 41.84375 41.421875 45.53125 
Q 43.3125 49.21875 43.3125 52.78125 
Q 43.3125 58.59375 39.234375 62.25 
Q 35.15625 65.921875 28.609375 65.921875 
Q 23.96875 65.921875 18.8125 64.3125 
Q 13.671875 62.703125 7.8125 59.421875 
L 7.8125 69.390625 
Q 13.765625 71.78125 18.9375 73 
Q 24.125 74.21875 28.421875 74.21875 
Q 39.75 74.21875 46.484375 68.546875 
Q 53.21875 62.890625 53.21875 53.421875 
Q 53.21875 48.921875 51.53125 44.890625 
Q 49.859375 40.875 45.40625 35.40625 
Q 44.1875 33.984375 37.640625 27.21875 
Q 31.109375 20.453125 19.1875 8.296875 
" id="BitstreamVeraSans-Roman-32"/>
      </defs>
      <g transform="translate(242.925 401.918125)scale(0.12 -0.12)">
       <use xlink:href="#BitstreamVeraSans-Roman-32"/>
       <use x="63.623046875" xlink:href="#BitstreamVeraSans-Roman-30"/>
      </g>
     </g>
    </g>
    <g id="xtick_4">
     <g id="line2d_12">
      <path clip-path="url(#pca9c8a6c00)" d="M 339.84 388.8 
L 339.84 43.2 
" style="fill:none;stroke:#000000;stroke-dasharray:1.000000,3.000000;stroke-dashoffset:0.0;stroke-width:0.5;"/>
     </g>
     <g id="line2d_13">
      <g>
       <use style="stroke:#000000;stroke-width:0.5;" x="339.84" xlink:href="#m8a39b86bc1" y="388.8"/>
      </g>
     </g>
     <g id="line2d_14">
      <g>
       <use style="stroke:#000000;stroke-width:0.5;" x="339.84" xlink:href="#m2bebb9028b" y="43.2"/>
      </g>
     </g>
     <g id="text_4">
      <!-- 30 -->
      <defs>
       <path d="M 40.578125 39.3125 
Q 47.65625 37.796875 51.625 33 
Q 55.609375 28.21875 55.609375 21.1875 
Q 55.609375 10.40625 48.1875 4.484375 
Q 40.765625 -1.421875 27.09375 -1.421875 
Q 22.515625 -1.421875 17.65625 -0.515625 
Q 12.796875 0.390625 7.625 2.203125 
L 7.625 11.71875 
Q 11.71875 9.328125 16.59375 8.109375 
Q 21.484375 6.890625 26.8125 6.890625 
Q 36.078125 6.890625 40.9375 10.546875 
Q 45.796875 14.203125 45.796875 21.1875 
Q 45.796875 27.640625 41.28125 31.265625 
Q 36.765625 34.90625 28.71875 34.90625 
L 20.21875 34.90625 
L 20.21875 43.015625 
L 29.109375 43.015625 
Q 36.375 43.015625 40.234375 45.921875 
Q 44.09375 48.828125 44.09375 54.296875 
Q 44.09375 59.90625 40.109375 62.90625 
Q 36.140625 65.921875 28.71875 65.921875 
Q 24.65625 65.921875 20.015625 65.03125 
Q 15.375 64.15625 9.8125 62.3125 
L 9.8125 71.09375 
Q 15.4375 72.65625 20.34375 73.4375 
Q 25.25 74.21875 29.59375 74.21875 
Q 40.828125 74.21875 47.359375 69.109375 
Q 53.90625 64.015625 53.90625 55.328125 
Q 53.90625 49.265625 50.4375 45.09375 
Q 46.96875 40.921875 40.578125 39.3125 
" id="BitstreamVeraSans-Roman-33"/>
      </defs>
      <g transform="translate(332.205 401.918125)scale(0.12 -0.12)">
       <use xlink:href="#BitstreamVeraSans-Roman-33"/>
       <use x="63.623046875" xlink:href="#BitstreamVeraSans-Roman-30"/>
      </g>
     </g>
    </g>
    <g id="xtick_5">
     <g id="line2d_15">
      <path clip-path="url(#pca9c8a6c00)" d="M 429.12 388.8 
L 429.12 43.2 
" style="fill:none;stroke:#000000;stroke-dasharray:1.000000,3.000000;stroke-dashoffset:0.0;stroke-width:0.5;"/>
     </g>
     <g id="line2d_16">
      <g>
       <use style="stroke:#000000;stroke-width:0.5;" x="429.12" xlink:href="#m8a39b86bc1" y="388.8"/>
      </g>
     </g>
     <g id="line2d_17">
      <g>
       <use style="stroke:#000000;stroke-width:0.5;" x="429.12" xlink:href="#m2bebb9028b" y="43.2"/>
      </g>
     </g>
     <g id="text_5">
      <!-- 40 -->
      <defs>
       <path d="M 37.796875 64.3125 
L 12.890625 25.390625 
L 37.796875 25.390625 
z
M 35.203125 72.90625 
L 47.609375 72.90625 
L 47.609375 25.390625 
L 58.015625 25.390625 
L 58.015625 17.1875 
L 47.609375 17.1875 
L 47.609375 0 
L 37.796875 0 
L 37.796875 17.1875 
L 4.890625 17.1875 
L 4.890625 26.703125 
z
" id="BitstreamVeraSans-Roman-34"/>
      </defs>
      <g transform="translate(421.485 401.918125)scale(0.12 -0.12)">
       <use xlink:href="#BitstreamVeraSans-Roman-34"/>
       <use x="63.623046875" xlink:href="#BitstreamVeraSans-Roman-30"/>
      </g>
     </g>
    </g>
    <g id="xtick_6">
     <g id="line2d_18">
      <path clip-path="url(#pca9c8a6c00)" d="M 518.4 388.8 
L 518.4 43.2 
" style="fill:none;stroke:#000000;stroke-dasharray:1.000000,3.000000;stroke-dashoffset:0.0;stroke-width:0.5;"/>
     </g>
     <g id="line2d_19">
      <g>
       <use style="stroke:#000000;stroke-width:0.5;" x="518.4" xlink:href="#m8a39b86bc1" y="388.8"/>
      </g>
     </g>
     <g id="line2d_20">
      <g>
       <use style="stroke:#000000;stroke-width:0.5;" x="518.4" xlink:href="#m2bebb9028b" y="43.2"/>
      </g>
     </g>
     <g id="text_6">
      <!-- 50 -->
      <defs>
       <path d="M 10.796875 72.90625 
L 49.515625 72.90625 
L 49.515625 64.59375 
L 19.828125 64.59375 
L 19.828125 46.734375 
Q 21.96875 47.46875 24.109375 47.828125 
Q 26.265625 48.1875 28.421875 48.1875 
Q 40.625 48.1875 47.75 41.5 
Q 54.890625 34.8125 54.890625 23.390625 
Q 54.890625 11.625 47.5625 5.09375 
Q 40.234375 -1.421875 26.90625 -1.421875 
Q 22.3125 -1.421875 17.546875 -0.640625 
Q 12.796875 0.140625 7.71875 1.703125 
L 7.71875 11.625 
Q 12.109375 9.234375 16.796875 8.0625 
Q 21.484375 6.890625 26.703125 6.890625 
Q 35.15625 6.890625 40.078125 11.328125 
Q 45.015625 15.765625 45.015625 23.390625 
Q 45.015625 31 40.078125 35.4375 
Q 35.15625 39.890625 26.703125 39.890625 
Q 22.75 39.890625 18.8125 39.015625 
Q 14.890625 38.140625 10.796875 36.28125 
z
" id="BitstreamVeraSans-Roman-35"/>
      </defs>
      <g transform="translate(510.765 401.918125)scale(0.12 -0.12)">
       <use xlink:href="#BitstreamVeraSans-Roman-35"/>
       <use x="63.623046875" xlink:href="#BitstreamVeraSans-Roman-30"/>
      </g>
     </g>
    </g>
    <g id="text_7">
     <!-- Time, [s] -->
     <defs>
      <path id="BitstreamVeraSans-Roman-20"/>
      <path d="M 8.59375 75.984375 
L 29.296875 75.984375 
L 29.296875 69 
L 17.578125 69 
L 17.578125 -6.203125 
L 29.296875 -6.203125 
L 29.296875 -13.1875 
L 8.59375 -13.1875 
z
" id="BitstreamVeraSans-Roman-5b"/>
      <path d="M 30.421875 75.984375 
L 30.421875 -13.1875 
L 9.71875 -13.1875 
L 9.71875 -6.203125 
L 21.390625 -6.203125 
L 21.390625 69 
L 9.71875 69 
L 9.71875 75.984375 
z
" id="BitstreamVeraSans-Roman-5d"/>
      <path d="M 52 44.1875 
Q 55.375 50.25 60.0625 53.125 
Q 64.75 56 71.09375 56 
Q 79.640625 56 84.28125 50.015625 
Q 88.921875 44.046875 88.921875 33.015625 
L 88.921875 0 
L 79.890625 0 
L 79.890625 32.71875 
Q 79.890625 40.578125 77.09375 44.375 
Q 74.3125 48.1875 68.609375 48.1875 
Q 61.625 48.1875 57.5625 43.546875 
Q 53.515625 38.921875 53.515625 30.90625 
L 53.515625 0 
L 44.484375 0 
L 44.484375 32.71875 
Q 44.484375 40.625 41.703125 44.40625 
Q 38.921875 48.1875 33.109375 48.1875 
Q 26.21875 48.1875 22.15625 43.53125 
Q 18.109375 38.875 18.109375 30.90625 
L 18.109375 0 
L 9.078125 0 
L 9.078125 54.6875 
L 18.109375 54.6875 
L 18.109375 46.1875 
Q 21.1875 51.21875 25.484375 53.609375 
Q 29.78125 56 35.6875 56 
Q 41.65625 56 45.828125 52.96875 
Q 50 49.953125 52 44.1875 
" id="BitstreamVeraSans-Roman-6d"/>
      <path d="M 11.71875 12.40625 
L 22.015625 12.40625 
L 22.015625 4 
L 14.015625 -11.625 
L 7.71875 -11.625 
L 11.71875 4 
z
" id="BitstreamVeraSans-Roman-2c"/>
      <path d="M 9.421875 54.6875 
L 18.40625 54.6875 
L 18.40625 0 
L 9.421875 0 
z
M 9.421875 75.984375 
L 18.40625 75.984375 
L 18.40625 64.59375 
L 9.421875 64.59375 
z
" id="BitstreamVeraSans-Roman-69"/>
      <path d="M 56.203125 29.59375 
L 56.203125 25.203125 
L 14.890625 25.203125 
Q 15.484375 15.921875 20.484375 11.0625 
Q 25.484375 6.203125 34.421875 6.203125 
Q 39.59375 6.203125 44.453125 7.46875 
Q 49.3125 8.734375 54.109375 11.28125 
L 54.109375 2.78125 
Q 49.265625 0.734375 44.1875 -0.34375 
Q 39.109375 -1.421875 33.890625 -1.421875 
Q 20.796875 -1.421875 13.15625 6.1875 
Q 5.515625 13.8125 5.515625 26.8125 
Q 5.515625 40.234375 12.765625 48.109375 
Q 20.015625 56 32.328125 56 
Q 43.359375 56 49.78125 48.890625 
Q 56.203125 41.796875 56.203125 29.59375 
M 47.21875 32.234375 
Q 47.125 39.59375 43.09375 43.984375 
Q 39.0625 48.390625 32.421875 48.390625 
Q 24.90625 48.390625 20.390625 44.140625 
Q 15.875 39.890625 15.1875 32.171875 
z
" id="BitstreamVeraSans-Roman-65"/>
      <path d="M -0.296875 72.90625 
L 61.375 72.90625 
L 61.375 64.59375 
L 35.5 64.59375 
L 35.5 0 
L 25.59375 0 
L 25.59375 64.59375 
L -0.296875 64.59375 
z
" id="BitstreamVeraSans-Roman-54"/>
      <path d="M 44.28125 53.078125 
L 44.28125 44.578125 
Q 40.484375 46.53125 36.375 47.5 
Q 32.28125 48.484375 27.875 48.484375 
Q 21.1875 48.484375 17.84375 46.4375 
Q 14.5 44.390625 14.5 40.28125 
Q 14.5 37.15625 16.890625 35.375 
Q 19.28125 33.59375 26.515625 31.984375 
L 29.59375 31.296875 
Q 39.15625 29.25 43.1875 25.515625 
Q 47.21875 21.78125 47.21875 15.09375 
Q 47.21875 7.46875 41.1875 3.015625 
Q 35.15625 -1.421875 24.609375 -1.421875 
Q 20.21875 -1.421875 15.453125 -0.5625 
Q 10.6875 0.296875 5.421875 2 
L 5.421875 11.28125 
Q 10.40625 8.6875 15.234375 7.390625 
Q 20.0625 6.109375 24.8125 6.109375 
Q 31.15625 6.109375 34.5625 8.28125 
Q 37.984375 10.453125 37.984375 14.40625 
Q 37.984375 18.0625 35.515625 20.015625 
Q 33.0625 21.96875 24.703125 23.78125 
L 21.578125 24.515625 
Q 13.234375 26.265625 9.515625 29.90625 
Q 5.8125 33.546875 5.8125 39.890625 
Q 5.8125 47.609375 11.28125 51.796875 
Q 16.75 56 26.8125 56 
Q 31.78125 56 36.171875 55.265625 
Q 40.578125 54.546875 44.28125 53.078125 
" id="BitstreamVeraSans-Roman-73"/>
     </defs>
     <g transform="translate(268.71375 418.531875)scale(0.12 -0.12)">
      <use xlink:href="#BitstreamVeraSans-Roman-54"/>
      <use x="61.037109375" xlink:href="#BitstreamVeraSans-Roman-69"/>
      <use x="88.8203125" xlink:href="#BitstreamVeraSans-Roman-6d"/>
      <use x="186.232421875" xlink:href="#BitstreamVeraSans-Roman-65"/>
      <use x="247.755859375" xlink:href="#BitstreamVeraSans-Roman-2c"/>
      <use x="279.54296875" xlink:href="#BitstreamVeraSans-Roman-20"/>
      <use x="311.330078125" xlink:href="#BitstreamVeraSans-Roman-5b"/>
      <use x="350.34375" xlink:href="#BitstreamVeraSans-Roman-73"/>
      <use x="402.443359375" xlink:href="#BitstreamVeraSans-Roman-5d"/>
     </g>
    </g>
   </g>
   <g id="matplotlib.axis_2">
    <g id="ytick_1">
     <g id="line2d_21">
      <path clip-path="url(#pca9c8a6c00)" d="M 72 388.8 
L 518.4 388.8 
" style="fill:none;stroke:#000000;stroke-dasharray:1.000000,3.000000;stroke-dashoffset:0.0;stroke-width:0.5;"/>
     </g>
     <g id="line2d_22">
      <defs>
       <path d="M 0 0 
L 4 0 
" id="mac67c855af" style="stroke:#000000;stroke-width:0.5;"/>
      </defs>
      <g>
       <use style="stroke:#000000;stroke-width:0.5;" x="72.0" xlink:href="#mac67c855af" y="388.8"/>
      </g>
     </g>
     <g id="line2d_23">
      <defs>
       <path d="M 0 0 
L -4 0 
" id="mb35cc15607" style="stroke:#000000;stroke-width:0.5;"/>
      </defs>
      <g>
       <use style="stroke:#000000;stroke-width:0.5;" x="518.4" xlink:href="#mb35cc15607" y="388.8"/>
      </g>
     </g>
     <g id="text_8">
      <!-- 8 -->
      <defs>
       <path d="M 10.59375 35.5 
L 73.1875 35.5 
L 73.1875 27.203125 
L 10.59375 27.203125 
z
" id="BitstreamVeraSans-Roman-2212"/>
       <path d="M 31.78125 34.625 
Q 24.75 34.625 20.71875 30.859375 
Q 16.703125 27.09375 16.703125 20.515625 
Q 16.703125 13.921875 20.71875 10.15625 
Q 24.75 6.390625 31.78125 6.390625 
Q 38.8125 6.390625 42.859375 10.171875 
Q 46.921875 13.96875 46.921875 20.515625 
Q 46.921875 27.09375 42.890625 30.859375 
Q 38.875 34.625 31.78125 34.625 
M 21.921875 38.8125 
Q 15.578125 40.375 12.03125 44.71875 
Q 8.5 49.078125 8.5 55.328125 
Q 8.5 64.0625 14.71875 69.140625 
Q 20.953125 74.21875 31.78125 74.21875 
Q 42.671875 74.21875 48.875 69.140625 
Q 55.078125 64.0625 55.078125 55.328125 
Q 55.078125 49.078125 51.53125 44.71875 
Q 48 40.375 41.703125 38.8125 
Q 48.828125 37.15625 52.796875 32.3125 
Q 56.78125 27.484375 56.78125 20.515625 
Q 56.78125 9.90625 50.3125 4.234375 
Q 43.84375 -1.421875 31.78125 -1.421875 
Q 19.734375 -1.421875 13.25 4.234375 
Q 6.78125 9.90625 6.78125 20.515625 
Q 6.78125 27.484375 10.78125 32.3125 
Q 14.796875 37.15625 21.921875 38.8125 
M 18.3125 54.390625 
Q 18.3125 48.734375 21.84375 45.5625 
Q 25.390625 42.390625 31.78125 42.390625 
Q 38.140625 42.390625 41.71875 45.5625 
Q 45.3125 48.734375 45.3125 54.390625 
Q 45.3125 60.0625 41.71875 63.234375 
Q 38.140625 66.40625 31.78125 66.40625 
Q 25.390625 66.40625 21.84375 63.234375 
Q 18.3125 60.0625 18.3125 54.390625 
" id="BitstreamVeraSans-Roman-38"/>
      </defs>
      <g transform="translate(50.309375 392.11125)scale(0.12 -0.12)">
       <use xlink:href="#BitstreamVeraSans-Roman-2212"/>
       <use x="83.7890625" xlink:href="#BitstreamVeraSans-Roman-38"/>
      </g>
     </g>
    </g>
    <g id="ytick_2">
     <g id="line2d_24">
      <path clip-path="url(#pca9c8a6c00)" d="M 72 350.4 
L 518.4 350.4 
" style="fill:none;stroke:#000000;stroke-dasharray:1.000000,3.000000;stroke-dashoffset:0.0;stroke-width:0.5;"/>
     </g>
     <g id="line2d_25">
      <g>
       <use style="stroke:#000000;stroke-width:0.5;" x="72.0" xlink:href="#mac67c855af" y="350.4"/>
      </g>
     </g>
     <g id="line2d_26">
      <g>
       <use style="stroke:#000000;stroke-width:0.5;" x="518.4" xlink:href="#mb35cc15607" y="350.4"/>
      </g>
     </g>
     <g id="text_9">
      <!-- 7 -->
      <defs>
       <path d="M 8.203125 72.90625 
L 55.078125 72.90625 
L 55.078125 68.703125 
L 28.609375 0 
L 18.3125 0 
L 43.21875 64.59375 
L 8.203125 64.59375 
z
" id="BitstreamVeraSans-Roman-37"/>
      </defs>
      <g transform="translate(50.309375 353.71125)scale(0.12 -0.12)">
       <use xlink:href="#BitstreamVeraSans-Roman-2212"/>
       <use x="83.7890625" xlink:href="#BitstreamVeraSans-Roman-37"/>
      </g>
     </g>
    </g>
    <g id="ytick_3">
     <g id="line2d_27">
      <path clip-path="url(#pca9c8a6c00)" d="M 72 312 
L 518.4 312 
" style="fill:none;stroke:#000000;stroke-dasharray:1.000000,3.000000;stroke-dashoffset:0.0;stroke-width:0.5;"/>
     </g>
     <g id="line2d_28">
      <g>
       <use style="stroke:#000000;stroke-width:0.5;" x="72.0" xlink:href="#mac67c855af" y="312.0"/>
      </g>
     </g>
     <g id="line2d_29">
      <g>
       <use style="stroke:#000000;stroke-width:0.5;" x="518.4" xlink:href="#mb35cc15607" y="312.0"/>
      </g>
     </g>
     <g id="text_10">
      <!-- 6 -->
      <defs>
       <path d="M 33.015625 40.375 
Q 26.375 40.375 22.484375 35.828125 
Q 18.609375 31.296875 18.609375 23.390625 
Q 18.609375 15.53125 22.484375 10.953125 
Q 26.375 6.390625 33.015625 6.390625 
Q 39.65625 6.390625 43.53125 10.953125 
Q 47.40625 15.53125 47.40625 23.390625 
Q 47.40625 31.296875 43.53125 35.828125 
Q 39.65625 40.375 33.015625 40.375 
M 52.59375 71.296875 
L 52.59375 62.3125 
Q 48.875 64.0625 45.09375 64.984375 
Q 41.3125 65.921875 37.59375 65.921875 
Q 27.828125 65.921875 22.671875 59.328125 
Q 17.53125 52.734375 16.796875 39.40625 
Q 19.671875 43.65625 24.015625 45.921875 
Q 28.375 48.1875 33.59375 48.1875 
Q 44.578125 48.1875 50.953125 41.515625 
Q 57.328125 34.859375 57.328125 23.390625 
Q 57.328125 12.15625 50.6875 5.359375 
Q 44.046875 -1.421875 33.015625 -1.421875 
Q 20.359375 -1.421875 13.671875 8.265625 
Q 6.984375 17.96875 6.984375 36.375 
Q 6.984375 53.65625 15.1875 63.9375 
Q 23.390625 74.21875 37.203125 74.21875 
Q 40.921875 74.21875 44.703125 73.484375 
Q 48.484375 72.75 52.59375 71.296875 
" id="BitstreamVeraSans-Roman-36"/>
      </defs>
      <g transform="translate(50.309375 315.31125)scale(0.12 -0.12)">
       <use xlink:href="#BitstreamVeraSans-Roman-2212"/>
       <use x="83.7890625" xlink:href="#BitstreamVeraSans-Roman-36"/>
      </g>
     </g>
    </g>
    <g id="ytick_4">
     <g id="line2d_30">
      <path clip-path="url(#pca9c8a6c00)" d="M 72 273.6 
L 518.4 273.6 
" style="fill:none;stroke:#000000;stroke-dasharray:1.000000,3.000000;stroke-dashoffset:0.0;stroke-width:0.5;"/>
     </g>
     <g id="line2d_31">
      <g>
       <use style="stroke:#000000;stroke-width:0.5;" x="72.0" xlink:href="#mac67c855af" y="273.6"/>
      </g>
     </g>
     <g id="line2d_32">
      <g>
       <use style="stroke:#000000;stroke-width:0.5;" x="518.4" xlink:href="#mb35cc15607" y="273.6"/>
      </g>
     </g>
     <g id="text_11">
      <!-- 5 -->
      <g transform="translate(50.309375 276.91125)scale(0.12 -0.12)">
       <use xlink:href="#BitstreamVeraSans-Roman-2212"/>
       <use x="83.7890625" xlink:href="#BitstreamVeraSans-Roman-35"/>
      </g>
     </g>
    </g>
    <g id="ytick_5">
     <g id="line2d_33">
      <path clip-path="url(#pca9c8a6c00)" d="M 72 235.2 
L 518.4 235.2 
" style="fill:none;stroke:#000000;stroke-dasharray:1.000000,3.000000;stroke-dashoffset:0.0;stroke-width:0.5;"/>
     </g>
     <g id="line2d_34">
      <g>
       <use style="stroke:#000000;stroke-width:0.5;" x="72.0" xlink:href="#mac67c855af" y="235.2"/>
      </g>
     </g>
     <g id="line2d_35">
      <g>
       <use style="stroke:#000000;stroke-width:0.5;" x="518.4" xlink:href="#mb35cc15607" y="235.2"/>
      </g>
     </g>
     <g id="text_12">
      <!-- 4 -->
      <g transform="translate(50.309375 238.51125)scale(0.12 -0.12)">
       <use xlink:href="#BitstreamVeraSans-Roman-2212"/>
       <use x="83.7890625" xlink:href="#BitstreamVeraSans-Roman-34"/>
      </g>
     </g>
    </g>
    <g id="ytick_6">
     <g id="line2d_36">
      <path clip-path="url(#pca9c8a6c00)" d="M 72 196.8 
L 518.4 196.8 
" style="fill:none;stroke:#000000;stroke-dasharray:1.000000,3.000000;stroke-dashoffset:0.0;stroke-width:0.5;"/>
     </g>
     <g id="line2d_37">
      <g>
       <use style="stroke:#000000;stroke-width:0.5;" x="72.0" xlink:href="#mac67c855af" y="196.8"/>
      </g>
     </g>
     <g id="line2d_38">
      <g>
       <use style="stroke:#000000;stroke-width:0.5;" x="518.4" xlink:href="#mb35cc15607" y="196.8"/>
      </g>
     </g>
     <g id="text_13">
      <!-- 3 -->
      <g transform="translate(50.309375 200.11125)scale(0.12 -0.12)">
       <use xlink:href="#BitstreamVeraSans-Roman-2212"/>
       <use x="83.7890625" xlink:href="#BitstreamVeraSans-Roman-33"/>
      </g>
     </g>
    </g>
    <g id="ytick_7">
     <g id="line2d_39">
      <path clip-path="url(#pca9c8a6c00)" d="M 72 158.4 
L 518.4 158.4 
" style="fill:none;stroke:#000000;stroke-dasharray:1.000000,3.000000;stroke-dashoffset:0.0;stroke-width:0.5;"/>
     </g>
     <g id="line2d_40">
      <g>
       <use style="stroke:#000000;stroke-width:0.5;" x="72.0" xlink:href="#mac67c855af" y="158.4"/>
      </g>
     </g>
     <g id="line2d_41">
      <g>
       <use style="stroke:#000000;stroke-width:0.5;" x="518.4" xlink:href="#mb35cc15607" y="158.4"/>
      </g>
     </g>
     <g id="text_14">
      <!-- 2 -->
      <g transform="translate(50.309375 161.71125)scale(0.12 -0.12)">
       <use xlink:href="#BitstreamVeraSans-Roman-2212"/>
       <use x="83.7890625" xlink:href="#BitstreamVeraSans-Roman-32"/>
      </g>
     </g>
    </g>
    <g id="ytick_8">
     <g id="line2d_42">
      <path clip-path="url(#pca9c8a6c00)" d="M 72 120 
L 518.4 120 
" style="fill:none;stroke:#000000;stroke-dasharray:1.000000,3.000000;stroke-dashoffset:0.0;stroke-width:0.5;"/>
     </g>
     <g id="line2d_43">
      <g>
       <use style="stroke:#000000;stroke-width:0.5;" x="72.0" xlink:href="#mac67c855af" y="120.0"/>
      </g>
     </g>
     <g id="line2d_44">
      <g>
       <use style="stroke:#000000;stroke-width:0.5;" x="518.4" xlink:href="#mb35cc15607" y="120.0"/>
      </g>
     </g>
     <g id="text_15">
      <!-- 1 -->
      <g transform="translate(50.309375 123.31125)scale(0.12 -0.12)">
       <use xlink:href="#BitstreamVeraSans-Roman-2212"/>
       <use x="83.7890625" xlink:href="#BitstreamVeraSans-Roman-31"/>
      </g>
     </g>
    </g>
    <g id="ytick_9">
     <g id="line2d_45">
      <path clip-path="url(#pca9c8a6c00)" d="M 72 81.6 
L 518.4 81.6 
" style="fill:none;stroke:#000000;stroke-dasharray:1.000000,3.000000;stroke-dashoffset:0.0;stroke-width:0.5;"/>
     </g>
     <g id="line2d_46">
      <g>
       <use style="stroke:#000000;stroke-width:0.5;" x="72.0" xlink:href="#mac67c855af" y="81.6"/>
      </g>
     </g>
     <g id="line2d_47">
      <g>
       <use style="stroke:#000000;stroke-width:0.5;" x="518.4" xlink:href="#mb35cc15607" y="81.6"/>
      </g>
     </g>
     <g id="text_16">
      <!-- 0 -->
      <g transform="translate(60.365 84.91125)scale(0.12 -0.12)">
       <use xlink:href="#BitstreamVeraSans-Roman-30"/>
      </g>
     </g>
    </g>
    <g id="ytick_10">
     <g id="line2d_48">
      <path clip-path="url(#pca9c8a6c00)" d="M 72 43.2 
L 518.4 43.2 
" style="fill:none;stroke:#000000;stroke-dasharray:1.000000,3.000000;stroke-dashoffset:0.0;stroke-width:0.5;"/>
     </g>
     <g id="line2d_49">
      <g>
       <use style="stroke:#000000;stroke-width:0.5;" x="72.0" xlink:href="#mac67c855af" y="43.2"/>
      </g>
     </g>
     <g id="line2d_50">
      <g>
       <use style="stroke:#000000;stroke-width:0.5;" x="518.4" xlink:href="#mb35cc15607" y="43.2"/>
      </g>
     </g>
     <g id="text_17">
      <!-- 1 -->
      <g transform="translate(60.365 46.51125)scale(0.12 -0.12)">
       <use xlink:href="#BitstreamVeraSans-Roman-31"/>
      </g>
     </g>
    </g>
    <g id="text_18">
     <!-- Accel Cmd [m/s^2] -->
     <defs>
      <path d="M 46.6875 72.90625 
L 73.1875 45.703125 
L 63.375 45.703125 
L 41.890625 64.984375 
L 20.40625 45.703125 
L 10.59375 45.703125 
L 37.109375 72.90625 
z
" id="BitstreamVeraSans-Roman-5e"/>
      <path d="M 9.421875 75.984375 
L 18.40625 75.984375 
L 18.40625 0 
L 9.421875 0 
z
" id="BitstreamVeraSans-Roman-6c"/>
      <path d="M 64.40625 67.28125 
L 64.40625 56.890625 
Q 59.421875 61.53125 53.78125 63.8125 
Q 48.140625 66.109375 41.796875 66.109375 
Q 29.296875 66.109375 22.65625 58.46875 
Q 16.015625 50.828125 16.015625 36.375 
Q 16.015625 21.96875 22.65625 14.328125 
Q 29.296875 6.6875 41.796875 6.6875 
Q 48.140625 6.6875 53.78125 8.984375 
Q 59.421875 11.28125 64.40625 15.921875 
L 64.40625 5.609375 
Q 59.234375 2.09375 53.4375 0.328125 
Q 47.65625 -1.421875 41.21875 -1.421875 
Q 24.65625 -1.421875 15.125 8.703125 
Q 5.609375 18.84375 5.609375 36.375 
Q 5.609375 53.953125 15.125 64.078125 
Q 24.65625 74.21875 41.21875 74.21875 
Q 47.75 74.21875 53.53125 72.484375 
Q 59.328125 70.75 64.40625 67.28125 
" id="BitstreamVeraSans-Roman-43"/>
      <path d="M 34.1875 63.1875 
L 20.796875 26.90625 
L 47.609375 26.90625 
z
M 28.609375 72.90625 
L 39.796875 72.90625 
L 67.578125 0 
L 57.328125 0 
L 50.6875 18.703125 
L 17.828125 18.703125 
L 11.1875 0 
L 0.78125 0 
z
" id="BitstreamVeraSans-Roman-41"/>
      <path d="M 25.390625 72.90625 
L 33.6875 72.90625 
L 8.296875 -9.28125 
L 0 -9.28125 
z
" id="BitstreamVeraSans-Roman-2f"/>
      <path d="M 45.40625 46.390625 
L 45.40625 75.984375 
L 54.390625 75.984375 
L 54.390625 0 
L 45.40625 0 
L 45.40625 8.203125 
Q 42.578125 3.328125 38.25 0.953125 
Q 33.9375 -1.421875 27.875 -1.421875 
Q 17.96875 -1.421875 11.734375 6.484375 
Q 5.515625 14.40625 5.515625 27.296875 
Q 5.515625 40.1875 11.734375 48.09375 
Q 17.96875 56 27.875 56 
Q 33.9375 56 38.25 53.625 
Q 42.578125 51.265625 45.40625 46.390625 
M 14.796875 27.296875 
Q 14.796875 17.390625 18.875 11.75 
Q 22.953125 6.109375 30.078125 6.109375 
Q 37.203125 6.109375 41.296875 11.75 
Q 45.40625 17.390625 45.40625 27.296875 
Q 45.40625 37.203125 41.296875 42.84375 
Q 37.203125 48.484375 30.078125 48.484375 
Q 22.953125 48.484375 18.875 42.84375 
Q 14.796875 37.203125 14.796875 27.296875 
" id="BitstreamVeraSans-Roman-64"/>
      <path d="M 48.78125 52.59375 
L 48.78125 44.1875 
Q 44.96875 46.296875 41.140625 47.34375 
Q 37.3125 48.390625 33.40625 48.390625 
Q 24.65625 48.390625 19.8125 42.84375 
Q 14.984375 37.3125 14.984375 27.296875 
Q 14.984375 17.28125 19.8125 11.734375 
Q 24.65625 6.203125 33.40625 6.203125 
Q 37.3125 6.203125 41.140625 7.25 
Q 44.96875 8.296875 48.78125 10.40625 
L 48.78125 2.09375 
Q 45.015625 0.34375 40.984375 -0.53125 
Q 36.96875 -1.421875 32.421875 -1.421875 
Q 20.0625 -1.421875 12.78125 6.34375 
Q 5.515625 14.109375 5.515625 27.296875 
Q 5.515625 40.671875 12.859375 48.328125 
Q 20.21875 56 33.015625 56 
Q 37.15625 56 41.109375 55.140625 
Q 45.0625 54.296875 48.78125 52.59375 
" id="BitstreamVeraSans-Roman-63"/>
     </defs>
     <g transform="translate(42.81375 274.235625)rotate(-90.0)scale(0.12 -0.12)">
      <use xlink:href="#BitstreamVeraSans-Roman-41"/>
      <use x="68.392578125" xlink:href="#BitstreamVeraSans-Roman-63"/>
      <use x="123.373046875" xlink:href="#BitstreamVeraSans-Roman-63"/>
      <use x="178.353515625" xlink:href="#BitstreamVeraSans-Roman-65"/>
      <use x="239.876953125" xlink:href="#BitstreamVeraSans-Roman-6c"/>
      <use x="267.66015625" xlink:href="#BitstreamVeraSans-Roman-20"/>
      <use x="299.447265625" xlink:href="#BitstreamVeraSans-Roman-43"/>
      <use x="369.271484375" xlink:href="#BitstreamVeraSans-Roman-6d"/>
      <use x="466.68359375" xlink:href="#BitstreamVeraSans-Roman-64"/>
      <use x="530.16015625" xlink:href="#BitstreamVeraSans-Roman-20"/>
      <use x="561.947265625" xlink:href="#BitstreamVeraSans-Roman-5b"/>
      <use x="600.9609375" xlink:href="#BitstreamVeraSans-Roman-6d"/>
      <use x="698.373046875" xlink:href="#BitstreamVeraSans-Roman-2f"/>
      <use x="732.064453125" xlink:href="#BitstreamVeraSans-Roman-73"/>
      <use x="784.1640625" xlink:href="#BitstreamVeraSans-Roman-5e"/>
      <use x="867.953125" xlink:href="#BitstreamVeraSans-Roman-32"/>
      <use x="931.576171875" xlink:href="#BitstreamVeraSans-Roman-5d"/>
     </g>
    </g>
   </g>
   <g id="legend_1">
    <g id="patch_7">
     <path d="M 371.673 381.6 
L 511.2 381.6 
L 511.2 335.007 
L 371.673 335.007 
z
" style="fill:#ffffff;stroke:#000000;stroke-linejoin:miter;"/>
    </g>
    <g id="line2d_51">
     <path d="M 381.753 346.66875 
L 401.913 346.66875 
" style="fill:none;stroke:#008000;stroke-linecap:square;"/>
    </g>
    <g id="line2d_52"/>
    <g id="text_19">
     <!-- Proportional -->
     <defs>
      <path d="M 54.890625 33.015625 
L 54.890625 0 
L 45.90625 0 
L 45.90625 32.71875 
Q 45.90625 40.484375 42.875 44.328125 
Q 39.84375 48.1875 33.796875 48.1875 
Q 26.515625 48.1875 22.3125 43.546875 
Q 18.109375 38.921875 18.109375 30.90625 
L 18.109375 0 
L 9.078125 0 
L 9.078125 54.6875 
L 18.109375 54.6875 
L 18.109375 46.1875 
Q 21.34375 51.125 25.703125 53.5625 
Q 30.078125 56 35.796875 56 
Q 45.21875 56 50.046875 50.171875 
Q 54.890625 44.34375 54.890625 33.015625 
" id="BitstreamVeraSans-Roman-6e"/>
      <path d="M 34.28125 27.484375 
Q 23.390625 27.484375 19.1875 25 
Q 14.984375 22.515625 14.984375 16.5 
Q 14.984375 11.71875 18.140625 8.90625 
Q 21.296875 6.109375 26.703125 6.109375 
Q 34.1875 6.109375 38.703125 11.40625 
Q 43.21875 16.703125 43.21875 25.484375 
L 43.21875 27.484375 
z
M 52.203125 31.203125 
L 52.203125 0 
L 43.21875 0 
L 43.21875 8.296875 
Q 40.140625 3.328125 35.546875 0.953125 
Q 30.953125 -1.421875 24.3125 -1.421875 
Q 15.921875 -1.421875 10.953125 3.296875 
Q 6 8.015625 6 15.921875 
Q 6 25.140625 12.171875 29.828125 
Q 18.359375 34.515625 30.609375 34.515625 
L 43.21875 34.515625 
L 43.21875 35.40625 
Q 43.21875 41.609375 39.140625 45 
Q 35.0625 48.390625 27.6875 48.390625 
Q 23 48.390625 18.546875 47.265625 
Q 14.109375 46.140625 10.015625 43.890625 
L 10.015625 52.203125 
Q 14.9375 54.109375 19.578125 55.046875 
Q 24.21875 56 28.609375 56 
Q 40.484375 56 46.34375 49.84375 
Q 52.203125 43.703125 52.203125 31.203125 
" id="BitstreamVeraSans-Roman-61"/>
      <path d="M 30.609375 48.390625 
Q 23.390625 48.390625 19.1875 42.75 
Q 14.984375 37.109375 14.984375 27.296875 
Q 14.984375 17.484375 19.15625 11.84375 
Q 23.34375 6.203125 30.609375 6.203125 
Q 37.796875 6.203125 41.984375 11.859375 
Q 46.1875 17.53125 46.1875 27.296875 
Q 46.1875 37.015625 41.984375 42.703125 
Q 37.796875 48.390625 30.609375 48.390625 
M 30.609375 56 
Q 42.328125 56 49.015625 48.375 
Q 55.71875 40.765625 55.71875 27.296875 
Q 55.71875 13.875 49.015625 6.21875 
Q 42.328125 -1.421875 30.609375 -1.421875 
Q 18.84375 -1.421875 12.171875 6.21875 
Q 5.515625 13.875 5.515625 27.296875 
Q 5.515625 40.765625 12.171875 48.375 
Q 18.84375 56 30.609375 56 
" id="BitstreamVeraSans-Roman-6f"/>
      <path d="M 19.671875 64.796875 
L 19.671875 37.40625 
L 32.078125 37.40625 
Q 38.96875 37.40625 42.71875 40.96875 
Q 46.484375 44.53125 46.484375 51.125 
Q 46.484375 57.671875 42.71875 61.234375 
Q 38.96875 64.796875 32.078125 64.796875 
z
M 9.8125 72.90625 
L 32.078125 72.90625 
Q 44.34375 72.90625 50.609375 67.359375 
Q 56.890625 61.8125 56.890625 51.125 
Q 56.890625 40.328125 50.609375 34.8125 
Q 44.34375 29.296875 32.078125 29.296875 
L 19.671875 29.296875 
L 19.671875 0 
L 9.8125 0 
z
" id="BitstreamVeraSans-Roman-50"/>
      <path d="M 18.3125 70.21875 
L 18.3125 54.6875 
L 36.8125 54.6875 
L 36.8125 47.703125 
L 18.3125 47.703125 
L 18.3125 18.015625 
Q 18.3125 11.328125 20.140625 9.421875 
Q 21.96875 7.515625 27.59375 7.515625 
L 36.8125 7.515625 
L 36.8125 0 
L 27.59375 0 
Q 17.1875 0 13.234375 3.875 
Q 9.28125 7.765625 9.28125 18.015625 
L 9.28125 47.703125 
L 2.6875 47.703125 
L 2.6875 54.6875 
L 9.28125 54.6875 
L 9.28125 70.21875 
z
" id="BitstreamVeraSans-Roman-74"/>
      <path d="M 41.109375 46.296875 
Q 39.59375 47.171875 37.8125 47.578125 
Q 36.03125 48 33.890625 48 
Q 26.265625 48 22.1875 43.046875 
Q 18.109375 38.09375 18.109375 28.8125 
L 18.109375 0 
L 9.078125 0 
L 9.078125 54.6875 
L 18.109375 54.6875 
L 18.109375 46.1875 
Q 20.953125 51.171875 25.484375 53.578125 
Q 30.03125 56 36.53125 56 
Q 37.453125 56 38.578125 55.875 
Q 39.703125 55.765625 41.0625 55.515625 
z
" id="BitstreamVeraSans-Roman-72"/>
      <path d="M 18.109375 8.203125 
L 18.109375 -20.796875 
L 9.078125 -20.796875 
L 9.078125 54.6875 
L 18.109375 54.6875 
L 18.109375 46.390625 
Q 20.953125 51.265625 25.265625 53.625 
Q 29.59375 56 35.59375 56 
Q 45.5625 56 51.78125 48.09375 
Q 58.015625 40.1875 58.015625 27.296875 
Q 58.015625 14.40625 51.78125 6.484375 
Q 45.5625 -1.421875 35.59375 -1.421875 
Q 29.59375 -1.421875 25.265625 0.953125 
Q 20.953125 3.328125 18.109375 8.203125 
M 48.6875 27.296875 
Q 48.6875 37.203125 44.609375 42.84375 
Q 40.53125 48.484375 33.40625 48.484375 
Q 26.265625 48.484375 22.1875 42.84375 
Q 18.109375 37.203125 18.109375 27.296875 
Q 18.109375 17.390625 22.1875 11.75 
Q 26.265625 6.109375 33.40625 6.109375 
Q 40.53125 6.109375 44.609375 11.75 
Q 48.6875 17.390625 48.6875 27.296875 
" id="BitstreamVeraSans-Roman-70"/>
     </defs>
     <g transform="translate(417.753 351.70875)scale(0.144 -0.144)">
      <use xlink:href="#BitstreamVeraSans-Roman-50"/>
      <use x="60.287109375" xlink:href="#BitstreamVeraSans-Roman-72"/>
      <use x="101.369140625" xlink:href="#BitstreamVeraSans-Roman-6f"/>
      <use x="162.55078125" xlink:href="#BitstreamVeraSans-Roman-70"/>
      <use x="226.02734375" xlink:href="#BitstreamVeraSans-Roman-6f"/>
      <use x="287.208984375" xlink:href="#BitstreamVeraSans-Roman-72"/>
      <use x="328.322265625" xlink:href="#BitstreamVeraSans-Roman-74"/>
      <use x="367.53125" xlink:href="#BitstreamVeraSans-Roman-69"/>
      <use x="395.314453125" xlink:href="#BitstreamVeraSans-Roman-6f"/>
      <use x="456.49609375" xlink:href="#BitstreamVeraSans-Roman-6e"/>
      <use x="519.875" xlink:href="#BitstreamVeraSans-Roman-61"/>
      <use x="581.154296875" xlink:href="#BitstreamVeraSans-Roman-6c"/>
     </g>
    </g>
    <g id="line2d_53">
     <path d="M 381.753 367.80525 
L 401.913 367.80525 
" style="fill:none;stroke:#0000ff;stroke-linecap:square;"/>
    </g>
    <g id="line2d_54"/>
    <g id="text_20">
     <!-- Integral -->
     <defs>
      <path d="M 45.40625 27.984375 
Q 45.40625 37.75 41.375 43.109375 
Q 37.359375 48.484375 30.078125 48.484375 
Q 22.859375 48.484375 18.828125 43.109375 
Q 14.796875 37.75 14.796875 27.984375 
Q 14.796875 18.265625 18.828125 12.890625 
Q 22.859375 7.515625 30.078125 7.515625 
Q 37.359375 7.515625 41.375 12.890625 
Q 45.40625 18.265625 45.40625 27.984375 
M 54.390625 6.78125 
Q 54.390625 -7.171875 48.1875 -13.984375 
Q 42 -20.796875 29.203125 -20.796875 
Q 24.46875 -20.796875 20.265625 -20.09375 
Q 16.0625 -19.390625 12.109375 -17.921875 
L 12.109375 -9.1875 
Q 16.0625 -11.328125 19.921875 -12.34375 
Q 23.78125 -13.375 27.78125 -13.375 
Q 36.625 -13.375 41.015625 -8.765625 
Q 45.40625 -4.15625 45.40625 5.171875 
L 45.40625 9.625 
Q 42.625 4.78125 38.28125 2.390625 
Q 33.9375 0 27.875 0 
Q 17.828125 0 11.671875 7.65625 
Q 5.515625 15.328125 5.515625 27.984375 
Q 5.515625 40.671875 11.671875 48.328125 
Q 17.828125 56 27.875 56 
Q 33.9375 56 38.28125 53.609375 
Q 42.625 51.21875 45.40625 46.390625 
L 45.40625 54.6875 
L 54.390625 54.6875 
z
" id="BitstreamVeraSans-Roman-67"/>
      <path d="M 9.8125 72.90625 
L 19.671875 72.90625 
L 19.671875 0 
L 9.8125 0 
z
" id="BitstreamVeraSans-Roman-49"/>
     </defs>
     <g transform="translate(417.753 372.84525)scale(0.144 -0.144)">
      <use xlink:href="#BitstreamVeraSans-Roman-49"/>
      <use x="29.4921875" xlink:href="#BitstreamVeraSans-Roman-6e"/>
      <use x="92.87109375" xlink:href="#BitstreamVeraSans-Roman-74"/>
      <use x="132.080078125" xlink:href="#BitstreamVeraSans-Roman-65"/>
      <use x="193.603515625" xlink:href="#BitstreamVeraSans-Roman-67"/>
      <use x="257.080078125" xlink:href="#BitstreamVeraSans-Roman-72"/>
      <use x="298.193359375" xlink:href="#BitstreamVeraSans-Roman-61"/>
      <use x="359.47265625" xlink:href="#BitstreamVeraSans-Roman-6c"/>
     </g>
    </g>
   </g>
  </g>
 </g>
 <defs>
  <clipPath id="pca9c8a6c00">
   <rect height="345.6" width="446.4" x="72.0" y="43.2"/>
  </clipPath>
 </defs>
</svg>
