<?xml version="1.0" encoding="utf-8" standalone="no"?>
<!DOCTYPE svg PUBLIC "-//W3C//DTD SVG 1.1//EN"
  "http://www.w3.org/Graphics/SVG/1.1/DTD/svg11.dtd">
<!-- Created with matplotlib (http://matplotlib.org/) -->
<svg height="432pt" version="1.1" viewBox="0 0 576 432" width="576pt" xmlns="http://www.w3.org/2000/svg" xmlns:xlink="http://www.w3.org/1999/xlink">
 <defs>
  <style type="text/css">
*{stroke-linecap:butt;stroke-linejoin:round;stroke-miterlimit:100000;}
  </style>
 </defs>
 <g id="figure_1">
  <g id="patch_1">
   <path d="M 0 432 
L 576 432 
L 576 0 
L 0 0 
z
" style="fill:#ffffff;"/>
  </g>
  <g id="axes_1">
   <g id="patch_2">
    <path d="M 72 388.8 
L 518.4 388.8 
L 518.4 43.2 
L 72 43.2 
z
" style="fill:#ffffff;"/>
   </g>
   <g id="line2d_1">
    <path clip-path="url(#p7bc6efdb2a)" d="M 72.08928 248.950522 
L 85.92768 250.111394 
L 87.35616 250.572389 
L 88.78464 251.280674 
L 90.3024 252.304317 
L 91.73088 253.521369 
L 93.33792 255.173943 
L 101.9088 264.594316 
L 111.10464 275.044882 
L 142.88832 311.235912 
L 144.67392 313.094804 
L 145.92384 314.04034 
L 147.08448 314.674933 
L 148.3344 315.126351 
L 148.95936 315.210249 
L 150.20928 315.09014 
L 151.9056 314.682468 
L 154.49472 314.073411 
L 157.44096 313.618026 
L 161.45856 313.238642 
L 169.94016 312.864463 
L 173.86848 312.813401 
L 180.0288 312.683506 
L 183.24288 312.663217 
L 186.81408 312.655124 
L 200.02752 312.650398 
L 202.08096 312.643062 
L 206.00928 312.392926 
L 210.11616 312.15628 
L 213.5088 312.252593 
L 232.07904 313.393373 
L 233.5968 313.832021 
L 239.4 315.560486 
L 243.50688 316.590234 
L 257.07744 317.445214 
L 258.5952 317.885959 
L 264.04128 319.522353 
L 270.02304 321.031 
L 285.02208 321.949474 
L 286.45056 322.35012 
L 292.0752 324.064931 
L 297.16416 325.367319 
L 301.71744 326.328274 
L 324.6624 327.672433 
L 326.26944 328.14415 
L 334.12608 330.579715 
L 340.37568 332.227904 
L 361.80288 337.340297 
L 374.39136 338.118364 
L 375.81984 338.544617 
L 379.03392 339.492291 
L 383.5872 340.581012 
L 388.76544 341.612239 
L 394.12224 342.430994 
L 401.17536 343.260279 
L 405.10368 343.832665 
L 409.83552 344.758873 
L 414.21024 345.6 
L 518.4 345.6 
L 518.4 345.6 
" style="fill:none;stroke:#ff0000;stroke-linecap:square;"/>
   </g>
   <g id="line2d_2">
    <path clip-path="url(#p7bc6efdb2a)" d="M 72.08928 345.6 
L 72.17856 345.6 
L 72.35712 248.952679 
L 73.96416 249.086043 
L 75.48192 249.192731 
L 76.99968 249.312757 
L 78.42816 249.419444 
L 79.94592 249.53947 
L 81.46368 249.646167 
L 83.07072 249.779522 
L 83.87424 249.832865 
L 116.72928 303.33213 
L 116.99712 303.912068 
L 121.90752 311.73496 
L 122.08608 311.790645 
L 122.26464 311.695305 
L 122.4432 311.744321 
L 122.62176 311.751681 
L 123.96096 311.659056 
L 124.13952 311.708072 
L 124.31808 311.722097 
L 125.38944 311.68246 
L 125.65728 311.732167 
L 125.83584 311.736845 
L 125.92512 311.785174 
L 126.10368 311.741528 
L 127.71072 311.756281 
L 127.8 311.80461 
L 127.97856 311.760959 
L 128.06784 311.809288 
L 128.2464 311.707283 
L 128.42496 311.75561 
L 128.60352 311.660959 
L 128.87136 311.720633 
L 135.12096 311.872995 
L 138.60288 313.854449 
L 138.87072 313.999434 
L 140.2992 314.86934 
L 140.65632 315.110982 
L 143.78112 316.70134 
L 147.26304 314.719838 
L 147.4416 314.663077 
L 149.76288 313.288276 
L 149.85216 313.288276 
L 150.12 313.116093 
L 151.63776 312.258857 
L 151.9056 312.265992 
L 152.26272 312.159304 
L 152.44128 312.27032 
L 152.88768 312.13696 
L 153.06624 312.274648 
L 153.42336 312.12795 
L 153.60192 312.238965 
L 154.76256 312.163277 
L 154.85184 312.123267 
L 155.0304 312.247621 
L 155.56608 312.140933 
L 155.74464 312.114257 
L 155.9232 312.251949 
L 156.816 312.118589 
L 156.99456 312.229604 
L 157.88736 312.122912 
L 158.06592 312.24727 
L 159.048 312.140578 
L 159.4944 312.100568 
L 159.67296 312.231591 
L 161.19072 312.091562 
L 161.36928 312.235919 
L 163.512 312.095885 
L 163.69056 312.220244 
L 166.54752 312.08688 
L 166.72608 312.224567 
L 167.61888 312.19123 
L 170.92224 312.091207 
L 171.01152 312.077874 
L 171.19008 312.228899 
L 171.45792 312.161498 
L 171.72576 312.064536 
L 171.81504 312.077874 
L 171.9936 312.228899 
L 172.79712 312.077874 
L 172.97568 312.215561 
L 179.93952 312.108873 
L 180.56448 312.082197 
L 180.74304 312.219889 
L 181.10016 312.068859 
L 181.27872 312.219884 
L 181.54656 312.068859 
L 181.72512 312.219884 
L 181.99296 312.112183 
L 182.17152 312.055525 
L 182.35008 312.219884 
L 182.7072 312.159369 
L 182.97504 312.062194 
L 183.1536 312.219884 
L 183.86784 312.1527 
L 183.95712 312.098849 
L 184.13568 312.219884 
L 184.58208 312.112183 
L 184.76064 312.068859 
L 184.9392 312.219884 
L 186.54624 312.206551 
L 191.99232 312.099858 
L 192.43872 312.086525 
L 192.61728 312.224217 
L 193.4208 312.073191 
L 193.59936 312.210878 
L 193.95648 312.103599 
L 194.22432 312.073191 
L 194.40288 312.224217 
L 194.84928 312.116937 
L 195.11712 312.073191 
L 195.29568 312.073191 
L 195.47424 312.217547 
L 196.992 312.073191 
L 197.17056 312.224217 
L 197.61696 312.15724 
L 197.8848 312.073191 
L 200.83104 312.005242 
L 201.18816 311.928044 
L 202.88448 311.821788 
L 203.50944 311.698381 
L 206.8128 311.348773 
L 207.2592 311.421166 
L 207.43776 311.423885 
L 207.97344 311.532144 
L 208.68768 311.51439 
L 209.31264 311.664648 
L 212.616 311.961692 
L 213.0624 311.916706 
L 213.41952 312.02197 
L 214.66944 312.104543 
L 214.848 312.106993 
L 215.2944 312.198181 
L 216.45504 312.305302 
L 216.81216 312.350985 
L 217.25856 312.45888 
L 217.61568 312.552776 
L 217.88352 312.455278 
L 218.06208 312.475261 
L 219.49056 313.151854 
L 224.49024 313.249755 
L 225.02592 313.359053 
L 225.5616 313.468386 
L 242.5248 315.946955 
L 243.23904 316.04058 
L 244.93536 316.383824 
L 245.38176 316.470502 
L 245.73888 316.515015 
L 246.27456 316.601697 
L 246.72096 316.657477 
L 247.16736 316.731459 
L 247.4352 316.749084 
L 247.8816 316.835748 
L 248.23872 316.878533 
L 251.0064 317.35031 
L 251.36352 317.402545 
L 251.72064 317.477581 
L 252.07776 317.529231 
L 252.61344 317.604287 
L 252.97056 317.655352 
L 253.50624 317.730436 
L 253.86336 317.767978 
L 254.22048 317.843083 
L 254.66688 317.917351 
L 255.024 317.992482 
L 255.38112 318.053163 
L 255.9168 318.128316 
L 256.27392 318.176869 
L 259.75584 318.73393 
L 260.3808 318.843076 
L 261.36288 318.936727 
L 262.79136 319.209166 
L 262.96992 319.194332 
L 263.68416 319.29763 
L 264.30912 319.422592 
L 265.91616 319.714498 
L 268.95168 320.178164 
L 269.3088 320.221739 
L 270.38016 320.373566 
L 272.70144 320.764399 
L 273.23712 320.757832 
L 273.50496 320.835038 
L 273.86208 320.900522 
L 274.12992 320.866222 
L 274.75488 321.019001 
L 275.46912 321.12594 
L 277.43328 321.471015 
L 277.7904 321.533888 
L 278.41536 321.637808 
L 280.82592 322.031934 
L 284.66496 322.640963 
L 285.11136 322.739045 
L 285.73632 322.898314 
L 286.89696 322.99777 
L 288.86112 323.335704 
L 289.30752 323.435494 
L 289.8432 323.564835 
L 290.82528 323.68383 
L 291.00384 323.65997 
L 294.39648 324.302181 
L 294.66432 324.241078 
L 297.16416 324.673223 
L 297.52128 324.649157 
L 299.2176 325.095339 
L 299.84256 325.197998 
L 303.32448 325.455584 
L 306.27072 325.564553 
L 307.78848 325.730505 
L 308.23488 325.830724 
L 309.21696 325.905091 
L 309.57408 325.96474 
L 310.824 326.043527 
L 311.18112 326.102844 
L 311.89536 326.23495 
L 312.25248 326.293846 
L 313.59168 326.430809 
L 314.21664 326.607331 
L 315.288 326.682387 
L 315.91296 326.861285 
L 316.80576 326.970131 
L 317.16288 327.051348 
L 318.05568 327.160035 
L 318.59136 327.29515 
L 319.3056 327.403582 
L 319.66272 327.483593 
L 320.28768 327.589655 
L 320.82336 327.724703 
L 321.44832 327.856438 
L 321.80544 327.910977 
L 322.16256 327.996924 
L 322.60896 328.094597 
L 323.14464 328.183297 
L 323.59104 328.277292 
L 323.85888 328.362067 
L 324.30528 328.461601 
L 324.84096 328.557843 
L 325.19808 328.625602 
L 325.64448 328.763229 
L 326.09088 328.82326 
L 326.448 328.956511 
L 326.8944 329.017207 
L 327.25152 329.128897 
L 328.05504 329.3137 
L 328.59072 329.395818 
L 329.30496 329.545642 
L 329.75136 329.701613 
L 331.26912 329.967081 
L 331.8048 330.117845 
L 332.2512 330.262417 
L 333.32256 330.451343 
L 334.84032 330.712364 
L 335.376 330.871475 
L 335.91168 330.998882 
L 336.2688 331.079053 
L 336.89376 331.154116 
L 337.34016 331.275942 
L 338.14368 331.366824 
L 338.59008 331.457739 
L 339.84 331.681529 
L 340.37568 331.844446 
L 342.072 332.161635 
L 342.42912 332.227782 
L 344.7504 332.672748 
L 345.01824 332.760255 
L 345.46464 332.833442 
L 346.0896 332.955967 
L 346.44672 333.029654 
L 346.9824 333.10868 
L 347.4288 333.23021 
L 348.85728 333.457102 
L 349.39296 333.622219 
L 350.82144 333.853186 
L 351.35712 334.005154 
L 351.98208 334.092995 
L 352.42848 334.209641 
L 355.0176 334.684314 
L 355.464 334.800687 
L 356.08896 334.924288 
L 356.44608 335.000413 
L 357.16032 335.124118 
L 357.51744 335.191412 
L 360.01728 335.6524 
L 360.19584 335.746911 
L 362.16 336.124061 
L 362.51712 336.182675 
L 362.87424 336.234316 
L 363.14208 336.361134 
L 363.85632 336.463877 
L 364.30272 336.59583 
L 364.74912 336.691366 
L 365.2848 336.778276 
L 365.55264 336.86974 
L 366.08832 336.958185 
L 366.35616 337.049799 
L 366.89184 337.138741 
L 367.15968 337.23052 
L 368.14176 337.44352 
L 368.4096 337.535497 
L 368.76672 337.622014 
L 369.3024 337.71956 
L 369.48096 337.801687 
L 369.83808 337.895961 
L 370.1952 337.97867 
L 370.46304 338.071178 
L 371.9808 338.460598 
L 372.15936 338.553525 
L 372.51648 338.635718 
L 372.8736 338.731457 
L 374.6592 339.267907 
L 375.37344 339.432088 
L 375.73056 339.522946 
L 375.9984 339.562768 
L 376.17696 339.699103 
L 376.62336 339.808265 
L 376.8912 339.907531 
L 377.15904 339.998811 
L 377.51616 340.075703 
L 377.784 340.167132 
L 379.39104 340.63534 
L 379.74816 340.709832 
L 380.016 340.805238 
L 380.64096 341.016994 
L 381.08736 341.132623 
L 381.44448 341.204863 
L 381.71232 341.299881 
L 382.33728 341.506798 
L 382.78368 341.61778 
L 383.40864 341.82377 
L 384.39072 342.055547 
L 385.01568 342.297892 
L 385.90848 342.437043 
L 386.2656 342.530226 
L 387.1584 342.737685 
L 387.51552 342.800854 
L 388.4976 342.924546 
L 388.944 343.035604 
L 389.74752 343.150888 
L 390.19392 343.290273 
L 391.176 343.411162 
L 391.53312 343.506326 
L 392.87232 343.73222 
L 393.22944 343.77451 
L 394.39008 343.899246 
L 394.7472 343.990834 
L 396.5328 344.220013 
L 396.88992 344.261322 
L 397.69344 344.370089 
L 399.2112 344.549458 
L 399.56832 344.592025 
L 400.37184 344.707846 
L 400.46112 344.742393 
L 400.63968 343.186151 
L 401.53248 343.279504 
L 402.24672 343.386194 
L 406.97856 344.146356 
L 407.15712 345.6 
L 518.4 345.6 
L 518.4 345.6 
" style="fill:none;stroke:#bfbf00;stroke-dasharray:6.000000,6.000000;stroke-dashoffset:0.0;"/>
   </g>
   <g id="line2d_3">
    <path clip-path="url(#p7bc6efdb2a)" d="M 72.08928 345.6 
L 72.17856 345.6 
L 72.26784 345.6 
L 72.4464 79.795152 
L 72.53568 79.795152 
L 72.71424 281.30675 
L 73.3392 281.977704 
L 73.60704 282.286448 
L 74.32128 283.231892 
L 74.41056 283.231892 
L 74.76768 283.830693 
L 74.85696 283.90422 
L 75.03552 284.177898 
L 75.74976 285.170694 
L 75.83904 285.170694 
L 76.0176 285.54216 
L 76.19616 285.606999 
L 79.1424 290.611091 
L 79.41024 291.324982 
L 79.67808 291.732265 
L 79.76736 291.832808 
L 79.94592 292.245312 
L 80.83872 294.122498 
L 80.928 294.122498 
L 81.10656 294.328826 
L 81.19584 294.328826 
L 81.3744 295.037832 
L 82.2672 296.9243 
L 82.35648 296.9243 
L 83.78496 299.984548 
L 83.96352 300.085101 
L 84.14208 300.635371 
L 84.23136 300.635371 
L 84.40992 301.350308 
L 84.4992 301.350308 
L 84.76704 302.065412 
L 84.85632 302.065412 
L 85.03488 302.327849 
L 85.12416 302.327849 
L 85.392 302.661955 
L 85.48128 302.583506 
L 85.8384 302.827895 
L 86.01696 302.872256 
L 86.19552 303.11676 
L 86.37408 303.038011 
L 86.55264 303.215506 
L 87.1776 303.635767 
L 87.26688 303.72459 
L 87.35616 303.656332 
L 87.71328 303.976044 
L 87.80256 303.976044 
L 87.98112 304.131209 
L 88.5168 304.526102 
L 88.60608 304.501799 
L 88.78464 304.679068 
L 89.05248 304.749087 
L 89.49888 305.115308 
L 89.67744 305.135122 
L 89.76672 305.290208 
L 89.856 305.232388 
L 89.94528 305.232388 
L 90.21312 305.473376 
L 90.48096 305.633965 
L 90.57024 305.633965 
L 90.83808 305.84197 
L 90.92736 305.844524 
L 91.10592 306.058097 
L 91.28448 305.999407 
L 91.55232 306.393189 
L 91.6416 306.301043 
L 91.90944 306.609058 
L 92.26656 306.743671 
L 92.5344 306.974046 
L 93.07008 307.116008 
L 93.33792 307.33181 
L 93.60576 307.33181 
L 93.78432 307.588636 
L 94.05216 307.603481 
L 94.32 307.908689 
L 95.12352 308.404145 
L 95.39136 308.340122 
L 95.48064 308.530752 
L 95.56992 308.4705 
L 96.28416 308.977452 
L 96.37344 308.962231 
L 96.552 309.104013 
L 96.81984 309.230563 
L 96.9984 309.361137 
L 97.17696 309.284919 
L 97.35552 309.505802 
L 97.53408 309.632308 
L 97.71264 309.695093 
L 97.98048 309.876627 
L 98.06976 309.821555 
L 98.24832 310.060747 
L 98.3376 310.011236 
L 98.51616 310.107908 
L 98.60544 310.092318 
L 98.87328 310.37639 
L 99.05184 310.451568 
L 100.5696 311.237504 
L 100.74816 311.221666 
L 100.92672 311.363962 
L 101.016 311.348084 
L 101.19456 311.49041 
L 101.28384 311.485912 
L 101.4624 311.594807 
L 102.3552 311.658304 
L 105.74784 311.554447 
L 105.9264 311.816838 
L 106.10496 311.665812 
L 106.28352 311.657157 
L 106.3728 311.612823 
L 106.55136 311.661839 
L 106.64064 311.617501 
L 106.8192 311.666522 
L 106.90848 311.622184 
L 107.08704 311.6712 
L 107.17632 311.613529 
L 107.35488 311.675883 
L 107.44416 311.618211 
L 107.62272 311.680565 
L 107.80128 311.685248 
L 107.97984 311.580897 
L 109.4976 311.562309 
L 109.58688 311.504638 
L 109.76544 311.611325 
L 109.85472 311.509316 
L 109.944 311.722696 
L 110.12256 311.513999 
L 110.30112 311.669707 
L 110.3904 311.518681 
L 110.47968 311.732056 
L 110.65824 311.581031 
L 110.74752 311.736739 
L 110.92608 311.528042 
L 111.01536 311.528042 
L 111.19392 311.690419 
L 111.55104 311.537403 
L 111.81888 311.648773 
L 112.08672 311.595784 
L 112.35456 311.658138 
L 112.44384 311.707154 
L 112.6224 311.511796 
L 112.80096 311.560812 
L 113.15808 311.521156 
L 113.24736 311.721198 
L 113.33664 311.676864 
L 113.42592 311.619188 
L 113.60448 311.681543 
L 113.69376 311.623871 
L 113.87232 311.686225 
L 114.14016 311.628554 
L 114.22944 311.526544 
L 114.31872 311.739924 
L 114.49728 311.531227 
L 114.67584 311.642597 
L 115.12224 311.64728 
L 115.3008 311.70296 
L 115.39008 311.651958 
L 115.56864 311.700978 
L 115.65792 311.65664 
L 115.83648 311.705656 
L 116.01504 311.603652 
L 116.1936 311.666001 
L 116.28288 311.60833 
L 116.46144 311.670684 
L 116.64 311.613012 
L 116.90784 311.680045 
L 116.99712 311.622373 
L 117.17568 311.729065 
L 117.26496 311.627056 
L 117.44352 311.733743 
L 117.71136 311.5874 
L 117.80064 311.5874 
L 117.9792 311.73644 
L 118.06848 311.641099 
L 118.24704 311.690115 
L 121.19328 311.634923 
L 121.37184 311.577247 
L 121.5504 311.73962 
L 121.63968 311.637615 
L 121.81824 311.686631 
L 135.3888 311.776339 
L 135.74592 311.887709 
L 135.92448 311.7857 
L 136.19232 311.883736 
L 136.37088 311.781727 
L 136.54944 311.888414 
L 136.81728 311.835426 
L 145.03104 311.882506 
L 145.12032 311.962526 
L 145.29888 311.958198 
L 145.56672 311.962881 
L 145.74528 311.878537 
L 145.92384 312.011897 
L 146.45952 311.985575 
L 146.63808 312.038924 
L 146.90592 311.896909 
L 147.08448 312.043602 
L 147.17376 311.932586 
L 147.4416 312.02594 
L 147.53088 311.914925 
L 147.888 312.101628 
L 148.06656 312.057295 
L 149.6736 312.186331 
L 150.38784 312.106311 
L 150.5664 312.243998 
L 151.10208 312.137311 
L 151.28064 312.248331 
L 152.26272 312.159304 
L 152.44128 312.27032 
L 152.88768 312.13696 
L 153.06624 312.274648 
L 153.33408 312.154622 
L 153.42336 312.12795 
L 153.60192 312.238965 
L 154.76256 312.163277 
L 154.85184 312.123267 
L 155.0304 312.247621 
L 155.56608 312.140933 
L 155.74464 312.114257 
L 155.9232 312.251949 
L 156.816 312.118589 
L 156.99456 312.229604 
L 157.88736 312.122912 
L 158.06592 312.24727 
L 159.048 312.140578 
L 159.4944 312.100568 
L 159.67296 312.231591 
L 161.19072 312.091562 
L 161.36928 312.235919 
L 163.512 312.095885 
L 163.69056 312.220244 
L 166.54752 312.08688 
L 166.72608 312.224567 
L 167.61888 312.19123 
L 170.92224 312.091207 
L 171.01152 312.077874 
L 171.19008 312.228899 
L 171.36864 312.215561 
L 171.5472 312.064536 
L 171.81504 312.077874 
L 171.9936 312.228899 
L 172.79712 312.077874 
L 172.97568 312.215561 
L 179.93952 312.108873 
L 180.56448 312.082197 
L 180.74304 312.219889 
L 180.9216 312.062194 
L 181.10016 312.068859 
L 181.27872 312.219884 
L 181.45728 312.055525 
L 181.54656 312.068859 
L 181.72512 312.219884 
L 181.8144 312.219884 
L 181.99296 312.068859 
L 182.17152 312.055525 
L 182.35008 312.219884 
L 182.61792 312.21322 
L 182.79648 312.062194 
L 182.97504 312.062194 
L 183.1536 312.219884 
L 183.77856 312.206551 
L 183.95712 312.068859 
L 184.13568 312.219884 
L 184.40352 312.219884 
L 184.58208 312.068859 
L 184.76064 312.068859 
L 184.9392 312.219884 
L 186.54624 312.206551 
L 191.99232 312.099858 
L 192.43872 312.086525 
L 192.61728 312.224217 
L 192.79584 312.210878 
L 192.9744 312.059853 
L 193.4208 312.073191 
L 193.59936 312.210878 
L 193.77792 312.210878 
L 193.95648 312.059853 
L 194.22432 312.073191 
L 194.40288 312.224217 
L 194.67072 312.224217 
L 194.84928 312.059853 
L 195.29568 312.073191 
L 195.47424 312.217547 
L 195.92064 312.197545 
L 196.0992 312.059853 
L 196.27776 312.059853 
L 196.45632 312.224217 
L 196.63488 312.210878 
L 196.81344 312.059853 
L 196.992 312.073191 
L 197.17056 312.224217 
L 197.52768 312.210878 
L 197.70624 312.059853 
L 201.09888 311.961567 
L 201.36672 311.928044 
L 201.54528 312.023712 
L 202.17024 311.945215 
L 202.52736 311.866729 
L 203.15232 311.776848 
L 203.77728 311.642065 
L 205.11648 311.534983 
L 206.8128 311.348773 
L 206.99136 311.432527 
L 207.7056 311.448549 
L 207.88416 311.532144 
L 209.13408 311.592134 
L 209.31264 311.66981 
L 210.29472 311.663068 
L 210.47328 311.757539 
L 211.63392 311.784469 
L 211.81248 311.890018 
L 213.15168 311.916706 
L 213.33024 312.055776 
L 213.77664 311.999441 
L 220.29408 312.721689 
L 220.74048 312.82565 
L 226.9008 313.568727 
L 227.07936 313.733981 
L 227.88288 313.841774 
L 234.57888 314.881434 
L 234.75744 314.930174 
L 234.936 314.804907 
L 235.3824 314.902707 
L 236.98944 315.242703 
L 237.168 315.129798 
L 237.43584 315.226668 
L 237.97152 315.299015 
L 238.32864 315.407329 
L 238.9536 315.479134 
L 239.31072 315.550688 
L 240.38208 315.729044 
L 244.39968 316.29 
L 244.57824 316.398167 
L 245.2032 316.395653 
L 245.38176 316.529567 
L 250.82784 317.241894 
L 251.0064 317.390931 
L 254.84544 317.900222 
L 255.024 318.035955 
L 256.8096 318.182093 
L 256.98816 318.322788 
L 257.79168 318.418757 
L 260.02368 318.786573 
L 260.11296 318.843076 
L 260.29152 318.760293 
L 260.64864 318.786702 
L 262.52352 319.209166 
L 262.70208 319.127111 
L 263.32704 319.219423 
L 263.952 319.344634 
L 265.46976 319.618902 
L 265.7376 319.68133 
L 268.95168 320.178164 
L 269.21952 320.227309 
L 269.7552 320.297973 
L 271.71936 320.527807 
L 271.89792 320.671617 
L 273.3264 320.757832 
L 273.50496 320.889824 
L 274.39776 320.997692 
L 277.25472 321.393698 
L 277.43328 321.52338 
L 280.55808 321.91575 
L 280.73664 322.038326 
L 282.96864 322.327489 
L 283.1472 322.443567 
L 284.9328 322.661343 
L 285.11136 322.796876 
L 287.78976 323.188787 
L 287.96832 323.258933 
L 288.14688 323.165466 
L 288.68256 323.295715 
L 290.82528 323.670713 
L 291.09312 323.679712 
L 294.39648 324.302181 
L 294.57504 324.221732 
L 297.16416 324.673223 
L 297.52128 324.649157 
L 299.2176 325.095339 
L 299.84256 325.197998 
L 303.32448 325.455584 
L 306.27072 325.564553 
L 307.6992 325.704073 
L 307.87776 325.821001 
L 309.21696 325.905091 
L 309.4848 325.96474 
L 310.824 326.043527 
L 311.09184 326.098037 
L 311.62752 326.112456 
L 311.80608 326.284136 
L 313.23456 326.367152 
L 313.5024 326.428423 
L 313.9488 326.548303 
L 314.21664 326.607101 
L 315.288 326.682387 
L 315.46656 326.797665 
L 316.71648 326.928802 
L 316.89504 327.046613 
L 317.9664 327.119069 
L 318.23424 327.290435 
L 319.21632 327.362589 
L 319.39488 327.480647 
L 320.1984 327.547968 
L 320.37696 327.661416 
L 321.18048 327.73332 
L 321.44832 327.904607 
L 321.984 327.913965 
L 322.16256 328.085254 
L 323.05536 328.152087 
L 323.23392 328.270551 
L 323.7696 328.332617 
L 323.94816 328.451163 
L 325.19808 328.625602 
L 325.37664 328.639551 
L 325.5552 328.786106 
L 326.18016 328.832539 
L 326.35872 328.974491 
L 326.98368 328.982264 
L 327.16224 329.11034 
L 331.98336 330.136173 
L 332.16192 330.269294 
L 332.87616 330.333357 
L 333.05472 330.423876 
L 333.85824 330.501611 
L 334.0368 330.634857 
L 335.73312 330.913886 
L 335.91168 331.038195 
L 338.67936 331.466771 
L 338.85792 331.600355 
L 339.84 331.681529 
L 340.01856 331.806182 
L 341.89344 332.074696 
L 342.072 332.219703 
L 342.78624 332.271161 
L 342.9648 332.400562 
L 344.83968 332.672748 
L 345.01824 332.793417 
L 345.91104 332.868955 
L 346.0896 332.998605 
L 347.8752 333.261132 
L 348.05376 333.406399 
L 349.30368 333.609017 
L 350.82144 333.853186 
L 351 333.978857 
L 353.94624 334.444465 
L 354.1248 334.574767 
L 355.9104 334.835335 
L 356.08896 334.965798 
L 356.98176 335.034967 
L 357.16032 335.165514 
L 357.87456 335.225889 
L 358.05312 335.356513 
L 359.928 335.607556 
L 360.10656 335.746911 
L 360.91008 335.804715 
L 361.08864 335.933436 
L 361.89216 335.988988 
L 362.07072 336.168222 
L 363.32064 336.364446 
L 363.58848 336.416741 
L 363.76704 336.416741 
L 363.9456 336.539382 
L 364.57056 336.60006 
L 364.74912 336.720671 
L 365.37408 336.779129 
L 365.55264 336.901941 
L 366.1776 336.958185 
L 366.35616 337.081078 
L 366.98112 337.137227 
L 367.15968 337.260203 
L 367.69536 337.316256 
L 367.87392 337.439314 
L 368.32032 337.495271 
L 368.49888 337.614213 
L 369.12384 337.62261 
L 369.3024 337.793304 
L 369.83808 337.924927 
L 370.10592 337.976567 
L 370.28448 337.976567 
L 370.46304 338.099883 
L 370.90944 338.155624 
L 371.088 338.279023 
L 371.44512 338.330497 
L 371.62368 338.453973 
L 372.07008 338.462324 
L 372.24864 338.633093 
L 372.69504 338.637262 
L 372.8736 338.760837 
L 373.14144 338.8122 
L 373.32 338.935852 
L 373.7664 338.940018 
L 373.94496 339.072029 
L 374.2128 339.123345 
L 374.39136 339.255427 
L 374.83776 339.276222 
L 375.01632 339.41251 
L 375.9984 339.559964 
L 376.17696 339.696328 
L 376.4448 339.717125 
L 376.62336 339.874323 
L 378.14112 340.212368 
L 378.31968 340.334414 
L 378.76608 340.377946 
L 378.94464 340.518711 
L 379.21248 340.543549 
L 379.39104 340.676083 
L 379.83744 340.713308 
L 380.016 340.85417 
L 380.9088 341.040501 
L 381.08736 341.173204 
L 381.53376 341.206199 
L 381.71232 341.338959 
L 382.60512 341.525327 
L 382.78368 341.656129 
L 383.67648 341.84048 
L 383.85504 341.973441 
L 384.30144 342.006326 
L 384.48 342.139345 
L 386.44416 342.544141 
L 386.62272 342.67728 
L 387.78336 342.770591 
L 387.96192 342.895476 
L 389.03328 343.035604 
L 389.21184 343.164679 
L 389.47968 343.130126 
L 391.176 343.368901 
L 391.35456 343.497983 
L 392.69376 343.638257 
L 392.87232 343.763215 
L 394.39008 343.856148 
L 394.56864 343.985284 
L 396.35424 344.125677 
L 396.5328 344.250665 
L 398.13984 344.343445 
L 398.3184 344.472636 
L 400.19328 344.613147 
L 400.37184 344.738166 
L 402.51456 344.83927 
L 402.69312 344.972766 
L 405.37152 345.068162 
L 405.55008 345.201685 
L 406.71072 345.217325 
L 406.97856 345.186146 
L 407.06784 345.190406 
L 407.2464 345.328212 
L 407.33568 345.328212 
L 407.42496 345.793313 
L 407.51424 345.744984 
L 411.08544 345.672492 
L 411.35328 345.624164 
L 412.96032 345.527508 
L 413.22816 345.47918 
L 518.4 345.47918 
L 518.4 345.47918 
" style="fill:none;stroke:#0000ff;stroke-linecap:square;"/>
   </g>
   <g id="line2d_4">
    <path clip-path="url(#p7bc6efdb2a)" d="M 72.08928 259.683282 
L 83.78496 259.683282 
L 83.96352 250.28614 
L 518.4 250.28614 
L 518.4 250.28614 
" style="fill:none;stroke:#000000;stroke-linecap:square;"/>
   </g>
   <g id="line2d_5">
    <path clip-path="url(#p7bc6efdb2a)" d="M 72.08928 302.4 
L 206.45568 302.508 
L 385.01568 345.6 
L 518.4 345.6 
L 518.4 345.6 
" style="fill:none;stroke:#bf00bf;stroke-linecap:square;"/>
   </g>
   <g id="patch_3">
    <path d="M 72 43.2 
L 518.4 43.2 
" style="fill:none;stroke:#000000;stroke-linecap:square;stroke-linejoin:miter;"/>
   </g>
   <g id="patch_4">
    <path d="M 518.4 388.8 
L 518.4 43.2 
" style="fill:none;stroke:#000000;stroke-linecap:square;stroke-linejoin:miter;"/>
   </g>
   <g id="patch_5">
    <path d="M 72 388.8 
L 518.4 388.8 
" style="fill:none;stroke:#000000;stroke-linecap:square;stroke-linejoin:miter;"/>
   </g>
   <g id="patch_6">
    <path d="M 72 388.8 
L 72 43.2 
" style="fill:none;stroke:#000000;stroke-linecap:square;stroke-linejoin:miter;"/>
   </g>
   <g id="matplotlib.axis_1">
    <g id="xtick_1">
     <g id="line2d_6">
      <path clip-path="url(#p7bc6efdb2a)" d="M 72 388.8 
L 72 43.2 
" style="fill:none;stroke:#000000;stroke-dasharray:1.000000,3.000000;stroke-dashoffset:0.0;stroke-width:0.5;"/>
     </g>
     <g id="line2d_7">
      <defs>
       <path d="M 0 0 
L 0 -4 
" id="m3a839ac63c" style="stroke:#000000;stroke-width:0.5;"/>
      </defs>
      <g>
       <use style="stroke:#000000;stroke-width:0.5;" x="72.0" xlink:href="#m3a839ac63c" y="388.8"/>
      </g>
     </g>
     <g id="line2d_8">
      <defs>
       <path d="M 0 0 
L 0 4 
" id="m3a64891fe1" style="stroke:#000000;stroke-width:0.5;"/>
      </defs>
      <g>
       <use style="stroke:#000000;stroke-width:0.5;" x="72.0" xlink:href="#m3a64891fe1" y="43.2"/>
      </g>
     </g>
     <g id="text_1">
      <!-- 0 -->
      <defs>
       <path d="M 31.78125 66.40625 
Q 24.171875 66.40625 20.328125 58.90625 
Q 16.5 51.421875 16.5 36.375 
Q 16.5 21.390625 20.328125 13.890625 
Q 24.171875 6.390625 31.78125 6.390625 
Q 39.453125 6.390625 43.28125 13.890625 
Q 47.125 21.390625 47.125 36.375 
Q 47.125 51.421875 43.28125 58.90625 
Q 39.453125 66.40625 31.78125 66.40625 
M 31.78125 74.21875 
Q 44.046875 74.21875 50.515625 64.515625 
Q 56.984375 54.828125 56.984375 36.375 
Q 56.984375 17.96875 50.515625 8.265625 
Q 44.046875 -1.421875 31.78125 -1.421875 
Q 19.53125 -1.421875 13.0625 8.265625 
Q 6.59375 17.96875 6.59375 36.375 
Q 6.59375 54.828125 13.0625 64.515625 
Q 19.53125 74.21875 31.78125 74.21875 
" id="BitstreamVeraSans-Roman-30"/>
      </defs>
      <g transform="translate(68.1825 401.918125)scale(0.12 -0.12)">
       <use xlink:href="#BitstreamVeraSans-Roman-30"/>
      </g>
     </g>
    </g>
    <g id="xtick_2">
     <g id="line2d_9">
      <path clip-path="url(#p7bc6efdb2a)" d="M 161.28 388.8 
L 161.28 43.2 
" style="fill:none;stroke:#000000;stroke-dasharray:1.000000,3.000000;stroke-dashoffset:0.0;stroke-width:0.5;"/>
     </g>
     <g id="line2d_10">
      <g>
       <use style="stroke:#000000;stroke-width:0.5;" x="161.28" xlink:href="#m3a839ac63c" y="388.8"/>
      </g>
     </g>
     <g id="line2d_11">
      <g>
       <use style="stroke:#000000;stroke-width:0.5;" x="161.28" xlink:href="#m3a64891fe1" y="43.2"/>
      </g>
     </g>
     <g id="text_2">
      <!-- 10 -->
      <defs>
       <path d="M 12.40625 8.296875 
L 28.515625 8.296875 
L 28.515625 63.921875 
L 10.984375 60.40625 
L 10.984375 69.390625 
L 28.421875 72.90625 
L 38.28125 72.90625 
L 38.28125 8.296875 
L 54.390625 8.296875 
L 54.390625 0 
L 12.40625 0 
z
" id="BitstreamVeraSans-Roman-31"/>
      </defs>
      <g transform="translate(153.645 401.918125)scale(0.12 -0.12)">
       <use xlink:href="#BitstreamVeraSans-Roman-31"/>
       <use x="63.623046875" xlink:href="#BitstreamVeraSans-Roman-30"/>
      </g>
     </g>
    </g>
    <g id="xtick_3">
     <g id="line2d_12">
      <path clip-path="url(#p7bc6efdb2a)" d="M 250.56 388.8 
L 250.56 43.2 
" style="fill:none;stroke:#000000;stroke-dasharray:1.000000,3.000000;stroke-dashoffset:0.0;stroke-width:0.5;"/>
     </g>
     <g id="line2d_13">
      <g>
       <use style="stroke:#000000;stroke-width:0.5;" x="250.56" xlink:href="#m3a839ac63c" y="388.8"/>
      </g>
     </g>
     <g id="line2d_14">
      <g>
       <use style="stroke:#000000;stroke-width:0.5;" x="250.56" xlink:href="#m3a64891fe1" y="43.2"/>
      </g>
     </g>
     <g id="text_3">
      <!-- 20 -->
      <defs>
       <path d="M 19.1875 8.296875 
L 53.609375 8.296875 
L 53.609375 0 
L 7.328125 0 
L 7.328125 8.296875 
Q 12.9375 14.109375 22.625 23.890625 
Q 32.328125 33.6875 34.8125 36.53125 
Q 39.546875 41.84375 41.421875 45.53125 
Q 43.3125 49.21875 43.3125 52.78125 
Q 43.3125 58.59375 39.234375 62.25 
Q 35.15625 65.921875 28.609375 65.921875 
Q 23.96875 65.921875 18.8125 64.3125 
Q 13.671875 62.703125 7.8125 59.421875 
L 7.8125 69.390625 
Q 13.765625 71.78125 18.9375 73 
Q 24.125 74.21875 28.421875 74.21875 
Q 39.75 74.21875 46.484375 68.546875 
Q 53.21875 62.890625 53.21875 53.421875 
Q 53.21875 48.921875 51.53125 44.890625 
Q 49.859375 40.875 45.40625 35.40625 
Q 44.1875 33.984375 37.640625 27.21875 
Q 31.109375 20.453125 19.1875 8.296875 
" id="BitstreamVeraSans-Roman-32"/>
      </defs>
      <g transform="translate(242.925 401.918125)scale(0.12 -0.12)">
       <use xlink:href="#BitstreamVeraSans-Roman-32"/>
       <use x="63.623046875" xlink:href="#BitstreamVeraSans-Roman-30"/>
      </g>
     </g>
    </g>
    <g id="xtick_4">
     <g id="line2d_15">
      <path clip-path="url(#p7bc6efdb2a)" d="M 339.84 388.8 
L 339.84 43.2 
" style="fill:none;stroke:#000000;stroke-dasharray:1.000000,3.000000;stroke-dashoffset:0.0;stroke-width:0.5;"/>
     </g>
     <g id="line2d_16">
      <g>
       <use style="stroke:#000000;stroke-width:0.5;" x="339.84" xlink:href="#m3a839ac63c" y="388.8"/>
      </g>
     </g>
     <g id="line2d_17">
      <g>
       <use style="stroke:#000000;stroke-width:0.5;" x="339.84" xlink:href="#m3a64891fe1" y="43.2"/>
      </g>
     </g>
     <g id="text_4">
      <!-- 30 -->
      <defs>
       <path d="M 40.578125 39.3125 
Q 47.65625 37.796875 51.625 33 
Q 55.609375 28.21875 55.609375 21.1875 
Q 55.609375 10.40625 48.1875 4.484375 
Q 40.765625 -1.421875 27.09375 -1.421875 
Q 22.515625 -1.421875 17.65625 -0.515625 
Q 12.796875 0.390625 7.625 2.203125 
L 7.625 11.71875 
Q 11.71875 9.328125 16.59375 8.109375 
Q 21.484375 6.890625 26.8125 6.890625 
Q 36.078125 6.890625 40.9375 10.546875 
Q 45.796875 14.203125 45.796875 21.1875 
Q 45.796875 27.640625 41.28125 31.265625 
Q 36.765625 34.90625 28.71875 34.90625 
L 20.21875 34.90625 
L 20.21875 43.015625 
L 29.109375 43.015625 
Q 36.375 43.015625 40.234375 45.921875 
Q 44.09375 48.828125 44.09375 54.296875 
Q 44.09375 59.90625 40.109375 62.90625 
Q 36.140625 65.921875 28.71875 65.921875 
Q 24.65625 65.921875 20.015625 65.03125 
Q 15.375 64.15625 9.8125 62.3125 
L 9.8125 71.09375 
Q 15.4375 72.65625 20.34375 73.4375 
Q 25.25 74.21875 29.59375 74.21875 
Q 40.828125 74.21875 47.359375 69.109375 
Q 53.90625 64.015625 53.90625 55.328125 
Q 53.90625 49.265625 50.4375 45.09375 
Q 46.96875 40.921875 40.578125 39.3125 
" id="BitstreamVeraSans-Roman-33"/>
      </defs>
      <g transform="translate(332.205 401.918125)scale(0.12 -0.12)">
       <use xlink:href="#BitstreamVeraSans-Roman-33"/>
       <use x="63.623046875" xlink:href="#BitstreamVeraSans-Roman-30"/>
      </g>
     </g>
    </g>
    <g id="xtick_5">
     <g id="line2d_18">
      <path clip-path="url(#p7bc6efdb2a)" d="M 429.12 388.8 
L 429.12 43.2 
" style="fill:none;stroke:#000000;stroke-dasharray:1.000000,3.000000;stroke-dashoffset:0.0;stroke-width:0.5;"/>
     </g>
     <g id="line2d_19">
      <g>
       <use style="stroke:#000000;stroke-width:0.5;" x="429.12" xlink:href="#m3a839ac63c" y="388.8"/>
      </g>
     </g>
     <g id="line2d_20">
      <g>
       <use style="stroke:#000000;stroke-width:0.5;" x="429.12" xlink:href="#m3a64891fe1" y="43.2"/>
      </g>
     </g>
     <g id="text_5">
      <!-- 40 -->
      <defs>
       <path d="M 37.796875 64.3125 
L 12.890625 25.390625 
L 37.796875 25.390625 
z
M 35.203125 72.90625 
L 47.609375 72.90625 
L 47.609375 25.390625 
L 58.015625 25.390625 
L 58.015625 17.1875 
L 47.609375 17.1875 
L 47.609375 0 
L 37.796875 0 
L 37.796875 17.1875 
L 4.890625 17.1875 
L 4.890625 26.703125 
z
" id="BitstreamVeraSans-Roman-34"/>
      </defs>
      <g transform="translate(421.485 401.918125)scale(0.12 -0.12)">
       <use xlink:href="#BitstreamVeraSans-Roman-34"/>
       <use x="63.623046875" xlink:href="#BitstreamVeraSans-Roman-30"/>
      </g>
     </g>
    </g>
    <g id="xtick_6">
     <g id="line2d_21">
      <path clip-path="url(#p7bc6efdb2a)" d="M 518.4 388.8 
L 518.4 43.2 
" style="fill:none;stroke:#000000;stroke-dasharray:1.000000,3.000000;stroke-dashoffset:0.0;stroke-width:0.5;"/>
     </g>
     <g id="line2d_22">
      <g>
       <use style="stroke:#000000;stroke-width:0.5;" x="518.4" xlink:href="#m3a839ac63c" y="388.8"/>
      </g>
     </g>
     <g id="line2d_23">
      <g>
       <use style="stroke:#000000;stroke-width:0.5;" x="518.4" xlink:href="#m3a64891fe1" y="43.2"/>
      </g>
     </g>
     <g id="text_6">
      <!-- 50 -->
      <defs>
       <path d="M 10.796875 72.90625 
L 49.515625 72.90625 
L 49.515625 64.59375 
L 19.828125 64.59375 
L 19.828125 46.734375 
Q 21.96875 47.46875 24.109375 47.828125 
Q 26.265625 48.1875 28.421875 48.1875 
Q 40.625 48.1875 47.75 41.5 
Q 54.890625 34.8125 54.890625 23.390625 
Q 54.890625 11.625 47.5625 5.09375 
Q 40.234375 -1.421875 26.90625 -1.421875 
Q 22.3125 -1.421875 17.546875 -0.640625 
Q 12.796875 0.140625 7.71875 1.703125 
L 7.71875 11.625 
Q 12.109375 9.234375 16.796875 8.0625 
Q 21.484375 6.890625 26.703125 6.890625 
Q 35.15625 6.890625 40.078125 11.328125 
Q 45.015625 15.765625 45.015625 23.390625 
Q 45.015625 31 40.078125 35.4375 
Q 35.15625 39.890625 26.703125 39.890625 
Q 22.75 39.890625 18.8125 39.015625 
Q 14.890625 38.140625 10.796875 36.28125 
z
" id="BitstreamVeraSans-Roman-35"/>
      </defs>
      <g transform="translate(510.765 401.918125)scale(0.12 -0.12)">
       <use xlink:href="#BitstreamVeraSans-Roman-35"/>
       <use x="63.623046875" xlink:href="#BitstreamVeraSans-Roman-30"/>
      </g>
     </g>
    </g>
    <g id="text_7">
     <!-- Time [s] -->
     <defs>
      <path id="BitstreamVeraSans-Roman-20"/>
      <path d="M 8.59375 75.984375 
L 29.296875 75.984375 
L 29.296875 69 
L 17.578125 69 
L 17.578125 -6.203125 
L 29.296875 -6.203125 
L 29.296875 -13.1875 
L 8.59375 -13.1875 
z
" id="BitstreamVeraSans-Roman-5b"/>
      <path d="M 30.421875 75.984375 
L 30.421875 -13.1875 
L 9.71875 -13.1875 
L 9.71875 -6.203125 
L 21.390625 -6.203125 
L 21.390625 69 
L 9.71875 69 
L 9.71875 75.984375 
z
" id="BitstreamVeraSans-Roman-5d"/>
      <path d="M 52 44.1875 
Q 55.375 50.25 60.0625 53.125 
Q 64.75 56 71.09375 56 
Q 79.640625 56 84.28125 50.015625 
Q 88.921875 44.046875 88.921875 33.015625 
L 88.921875 0 
L 79.890625 0 
L 79.890625 32.71875 
Q 79.890625 40.578125 77.09375 44.375 
Q 74.3125 48.1875 68.609375 48.1875 
Q 61.625 48.1875 57.5625 43.546875 
Q 53.515625 38.921875 53.515625 30.90625 
L 53.515625 0 
L 44.484375 0 
L 44.484375 32.71875 
Q 44.484375 40.625 41.703125 44.40625 
Q 38.921875 48.1875 33.109375 48.1875 
Q 26.21875 48.1875 22.15625 43.53125 
Q 18.109375 38.875 18.109375 30.90625 
L 18.109375 0 
L 9.078125 0 
L 9.078125 54.6875 
L 18.109375 54.6875 
L 18.109375 46.1875 
Q 21.1875 51.21875 25.484375 53.609375 
Q 29.78125 56 35.6875 56 
Q 41.65625 56 45.828125 52.96875 
Q 50 49.953125 52 44.1875 
" id="BitstreamVeraSans-Roman-6d"/>
      <path d="M 9.421875 54.6875 
L 18.40625 54.6875 
L 18.40625 0 
L 9.421875 0 
z
M 9.421875 75.984375 
L 18.40625 75.984375 
L 18.40625 64.59375 
L 9.421875 64.59375 
z
" id="BitstreamVeraSans-Roman-69"/>
      <path d="M 56.203125 29.59375 
L 56.203125 25.203125 
L 14.890625 25.203125 
Q 15.484375 15.921875 20.484375 11.0625 
Q 25.484375 6.203125 34.421875 6.203125 
Q 39.59375 6.203125 44.453125 7.46875 
Q 49.3125 8.734375 54.109375 11.28125 
L 54.109375 2.78125 
Q 49.265625 0.734375 44.1875 -0.34375 
Q 39.109375 -1.421875 33.890625 -1.421875 
Q 20.796875 -1.421875 13.15625 6.1875 
Q 5.515625 13.8125 5.515625 26.8125 
Q 5.515625 40.234375 12.765625 48.109375 
Q 20.015625 56 32.328125 56 
Q 43.359375 56 49.78125 48.890625 
Q 56.203125 41.796875 56.203125 29.59375 
M 47.21875 32.234375 
Q 47.125 39.59375 43.09375 43.984375 
Q 39.0625 48.390625 32.421875 48.390625 
Q 24.90625 48.390625 20.390625 44.140625 
Q 15.875 39.890625 15.1875 32.171875 
z
" id="BitstreamVeraSans-Roman-65"/>
      <path d="M -0.296875 72.90625 
L 61.375 72.90625 
L 61.375 64.59375 
L 35.5 64.59375 
L 35.5 0 
L 25.59375 0 
L 25.59375 64.59375 
L -0.296875 64.59375 
z
" id="BitstreamVeraSans-Roman-54"/>
      <path d="M 44.28125 53.078125 
L 44.28125 44.578125 
Q 40.484375 46.53125 36.375 47.5 
Q 32.28125 48.484375 27.875 48.484375 
Q 21.1875 48.484375 17.84375 46.4375 
Q 14.5 44.390625 14.5 40.28125 
Q 14.5 37.15625 16.890625 35.375 
Q 19.28125 33.59375 26.515625 31.984375 
L 29.59375 31.296875 
Q 39.15625 29.25 43.1875 25.515625 
Q 47.21875 21.78125 47.21875 15.09375 
Q 47.21875 7.46875 41.1875 3.015625 
Q 35.15625 -1.421875 24.609375 -1.421875 
Q 20.21875 -1.421875 15.453125 -0.5625 
Q 10.6875 0.296875 5.421875 2 
L 5.421875 11.28125 
Q 10.40625 8.6875 15.234375 7.390625 
Q 20.0625 6.109375 24.8125 6.109375 
Q 31.15625 6.109375 34.5625 8.28125 
Q 37.984375 10.453125 37.984375 14.40625 
Q 37.984375 18.0625 35.515625 20.015625 
Q 33.0625 21.96875 24.703125 23.78125 
L 21.578125 24.515625 
Q 13.234375 26.265625 9.515625 29.90625 
Q 5.8125 33.546875 5.8125 39.890625 
Q 5.8125 47.609375 11.28125 51.796875 
Q 16.75 56 26.8125 56 
Q 31.78125 56 36.171875 55.265625 
Q 40.578125 54.546875 44.28125 53.078125 
" id="BitstreamVeraSans-Roman-73"/>
     </defs>
     <g transform="translate(270.620625 418.531875)scale(0.12 -0.12)">
      <use xlink:href="#BitstreamVeraSans-Roman-54"/>
      <use x="61.037109375" xlink:href="#BitstreamVeraSans-Roman-69"/>
      <use x="88.8203125" xlink:href="#BitstreamVeraSans-Roman-6d"/>
      <use x="186.232421875" xlink:href="#BitstreamVeraSans-Roman-65"/>
      <use x="247.755859375" xlink:href="#BitstreamVeraSans-Roman-20"/>
      <use x="279.54296875" xlink:href="#BitstreamVeraSans-Roman-5b"/>
      <use x="318.556640625" xlink:href="#BitstreamVeraSans-Roman-73"/>
      <use x="370.65625" xlink:href="#BitstreamVeraSans-Roman-5d"/>
     </g>
    </g>
   </g>
   <g id="matplotlib.axis_2">
    <g id="ytick_1">
     <g id="line2d_24">
      <path clip-path="url(#p7bc6efdb2a)" d="M 72 388.8 
L 518.4 388.8 
" style="fill:none;stroke:#000000;stroke-dasharray:1.000000,3.000000;stroke-dashoffset:0.0;stroke-width:0.5;"/>
     </g>
     <g id="line2d_25">
      <defs>
       <path d="M 0 0 
L 4 0 
" id="m0880e75fd2" style="stroke:#000000;stroke-width:0.5;"/>
      </defs>
      <g>
       <use style="stroke:#000000;stroke-width:0.5;" x="72.0" xlink:href="#m0880e75fd2" y="388.8"/>
      </g>
     </g>
     <g id="line2d_26">
      <defs>
       <path d="M 0 0 
L -4 0 
" id="m13a67f58f0" style="stroke:#000000;stroke-width:0.5;"/>
      </defs>
      <g>
       <use style="stroke:#000000;stroke-width:0.5;" x="518.4" xlink:href="#m13a67f58f0" y="388.8"/>
      </g>
     </g>
     <g id="text_8">
      <!-- −20 -->
      <defs>
       <path d="M 10.59375 35.5 
L 73.1875 35.5 
L 73.1875 27.203125 
L 10.59375 27.203125 
z
" id="BitstreamVeraSans-Roman-2212"/>
      </defs>
      <g transform="translate(42.674375 392.11125)scale(0.12 -0.12)">
       <use xlink:href="#BitstreamVeraSans-Roman-2212"/>
       <use x="83.7890625" xlink:href="#BitstreamVeraSans-Roman-32"/>
       <use x="147.412109375" xlink:href="#BitstreamVeraSans-Roman-30"/>
      </g>
     </g>
    </g>
    <g id="ytick_2">
     <g id="line2d_27">
      <path clip-path="url(#p7bc6efdb2a)" d="M 72 345.6 
L 518.4 345.6 
" style="fill:none;stroke:#000000;stroke-dasharray:1.000000,3.000000;stroke-dashoffset:0.0;stroke-width:0.5;"/>
     </g>
     <g id="line2d_28">
      <g>
       <use style="stroke:#000000;stroke-width:0.5;" x="72.0" xlink:href="#m0880e75fd2" y="345.6"/>
      </g>
     </g>
     <g id="line2d_29">
      <g>
       <use style="stroke:#000000;stroke-width:0.5;" x="518.4" xlink:href="#m13a67f58f0" y="345.6"/>
      </g>
     </g>
     <g id="text_9">
      <!-- 0 -->
      <g transform="translate(60.365 348.91125)scale(0.12 -0.12)">
       <use xlink:href="#BitstreamVeraSans-Roman-30"/>
      </g>
     </g>
    </g>
    <g id="ytick_3">
     <g id="line2d_30">
      <path clip-path="url(#p7bc6efdb2a)" d="M 72 302.4 
L 518.4 302.4 
" style="fill:none;stroke:#000000;stroke-dasharray:1.000000,3.000000;stroke-dashoffset:0.0;stroke-width:0.5;"/>
     </g>
     <g id="line2d_31">
      <g>
       <use style="stroke:#000000;stroke-width:0.5;" x="72.0" xlink:href="#m0880e75fd2" y="302.4"/>
      </g>
     </g>
     <g id="line2d_32">
      <g>
       <use style="stroke:#000000;stroke-width:0.5;" x="518.4" xlink:href="#m13a67f58f0" y="302.4"/>
      </g>
     </g>
     <g id="text_10">
      <!-- 20 -->
      <g transform="translate(52.73 305.71125)scale(0.12 -0.12)">
       <use xlink:href="#BitstreamVeraSans-Roman-32"/>
       <use x="63.623046875" xlink:href="#BitstreamVeraSans-Roman-30"/>
      </g>
     </g>
    </g>
    <g id="ytick_4">
     <g id="line2d_33">
      <path clip-path="url(#p7bc6efdb2a)" d="M 72 259.2 
L 518.4 259.2 
" style="fill:none;stroke:#000000;stroke-dasharray:1.000000,3.000000;stroke-dashoffset:0.0;stroke-width:0.5;"/>
     </g>
     <g id="line2d_34">
      <g>
       <use style="stroke:#000000;stroke-width:0.5;" x="72.0" xlink:href="#m0880e75fd2" y="259.2"/>
      </g>
     </g>
     <g id="line2d_35">
      <g>
       <use style="stroke:#000000;stroke-width:0.5;" x="518.4" xlink:href="#m13a67f58f0" y="259.2"/>
      </g>
     </g>
     <g id="text_11">
      <!-- 40 -->
      <g transform="translate(52.73 262.51125)scale(0.12 -0.12)">
       <use xlink:href="#BitstreamVeraSans-Roman-34"/>
       <use x="63.623046875" xlink:href="#BitstreamVeraSans-Roman-30"/>
      </g>
     </g>
    </g>
    <g id="ytick_5">
     <g id="line2d_36">
      <path clip-path="url(#p7bc6efdb2a)" d="M 72 216 
L 518.4 216 
" style="fill:none;stroke:#000000;stroke-dasharray:1.000000,3.000000;stroke-dashoffset:0.0;stroke-width:0.5;"/>
     </g>
     <g id="line2d_37">
      <g>
       <use style="stroke:#000000;stroke-width:0.5;" x="72.0" xlink:href="#m0880e75fd2" y="216.0"/>
      </g>
     </g>
     <g id="line2d_38">
      <g>
       <use style="stroke:#000000;stroke-width:0.5;" x="518.4" xlink:href="#m13a67f58f0" y="216.0"/>
      </g>
     </g>
     <g id="text_12">
      <!-- 60 -->
      <defs>
       <path d="M 33.015625 40.375 
Q 26.375 40.375 22.484375 35.828125 
Q 18.609375 31.296875 18.609375 23.390625 
Q 18.609375 15.53125 22.484375 10.953125 
Q 26.375 6.390625 33.015625 6.390625 
Q 39.65625 6.390625 43.53125 10.953125 
Q 47.40625 15.53125 47.40625 23.390625 
Q 47.40625 31.296875 43.53125 35.828125 
Q 39.65625 40.375 33.015625 40.375 
M 52.59375 71.296875 
L 52.59375 62.3125 
Q 48.875 64.0625 45.09375 64.984375 
Q 41.3125 65.921875 37.59375 65.921875 
Q 27.828125 65.921875 22.671875 59.328125 
Q 17.53125 52.734375 16.796875 39.40625 
Q 19.671875 43.65625 24.015625 45.921875 
Q 28.375 48.1875 33.59375 48.1875 
Q 44.578125 48.1875 50.953125 41.515625 
Q 57.328125 34.859375 57.328125 23.390625 
Q 57.328125 12.15625 50.6875 5.359375 
Q 44.046875 -1.421875 33.015625 -1.421875 
Q 20.359375 -1.421875 13.671875 8.265625 
Q 6.984375 17.96875 6.984375 36.375 
Q 6.984375 53.65625 15.1875 63.9375 
Q 23.390625 74.21875 37.203125 74.21875 
Q 40.921875 74.21875 44.703125 73.484375 
Q 48.484375 72.75 52.59375 71.296875 
" id="BitstreamVeraSans-Roman-36"/>
      </defs>
      <g transform="translate(52.73 219.31125)scale(0.12 -0.12)">
       <use xlink:href="#BitstreamVeraSans-Roman-36"/>
       <use x="63.623046875" xlink:href="#BitstreamVeraSans-Roman-30"/>
      </g>
     </g>
    </g>
    <g id="ytick_6">
     <g id="line2d_39">
      <path clip-path="url(#p7bc6efdb2a)" d="M 72 172.8 
L 518.4 172.8 
" style="fill:none;stroke:#000000;stroke-dasharray:1.000000,3.000000;stroke-dashoffset:0.0;stroke-width:0.5;"/>
     </g>
     <g id="line2d_40">
      <g>
       <use style="stroke:#000000;stroke-width:0.5;" x="72.0" xlink:href="#m0880e75fd2" y="172.8"/>
      </g>
     </g>
     <g id="line2d_41">
      <g>
       <use style="stroke:#000000;stroke-width:0.5;" x="518.4" xlink:href="#m13a67f58f0" y="172.8"/>
      </g>
     </g>
     <g id="text_13">
      <!-- 80 -->
      <defs>
       <path d="M 31.78125 34.625 
Q 24.75 34.625 20.71875 30.859375 
Q 16.703125 27.09375 16.703125 20.515625 
Q 16.703125 13.921875 20.71875 10.15625 
Q 24.75 6.390625 31.78125 6.390625 
Q 38.8125 6.390625 42.859375 10.171875 
Q 46.921875 13.96875 46.921875 20.515625 
Q 46.921875 27.09375 42.890625 30.859375 
Q 38.875 34.625 31.78125 34.625 
M 21.921875 38.8125 
Q 15.578125 40.375 12.03125 44.71875 
Q 8.5 49.078125 8.5 55.328125 
Q 8.5 64.0625 14.71875 69.140625 
Q 20.953125 74.21875 31.78125 74.21875 
Q 42.671875 74.21875 48.875 69.140625 
Q 55.078125 64.0625 55.078125 55.328125 
Q 55.078125 49.078125 51.53125 44.71875 
Q 48 40.375 41.703125 38.8125 
Q 48.828125 37.15625 52.796875 32.3125 
Q 56.78125 27.484375 56.78125 20.515625 
Q 56.78125 9.90625 50.3125 4.234375 
Q 43.84375 -1.421875 31.78125 -1.421875 
Q 19.734375 -1.421875 13.25 4.234375 
Q 6.78125 9.90625 6.78125 20.515625 
Q 6.78125 27.484375 10.78125 32.3125 
Q 14.796875 37.15625 21.921875 38.8125 
M 18.3125 54.390625 
Q 18.3125 48.734375 21.84375 45.5625 
Q 25.390625 42.390625 31.78125 42.390625 
Q 38.140625 42.390625 41.71875 45.5625 
Q 45.3125 48.734375 45.3125 54.390625 
Q 45.3125 60.0625 41.71875 63.234375 
Q 38.140625 66.40625 31.78125 66.40625 
Q 25.390625 66.40625 21.84375 63.234375 
Q 18.3125 60.0625 18.3125 54.390625 
" id="BitstreamVeraSans-Roman-38"/>
      </defs>
      <g transform="translate(52.73 176.11125)scale(0.12 -0.12)">
       <use xlink:href="#BitstreamVeraSans-Roman-38"/>
       <use x="63.623046875" xlink:href="#BitstreamVeraSans-Roman-30"/>
      </g>
     </g>
    </g>
    <g id="ytick_7">
     <g id="line2d_42">
      <path clip-path="url(#p7bc6efdb2a)" d="M 72 129.6 
L 518.4 129.6 
" style="fill:none;stroke:#000000;stroke-dasharray:1.000000,3.000000;stroke-dashoffset:0.0;stroke-width:0.5;"/>
     </g>
     <g id="line2d_43">
      <g>
       <use style="stroke:#000000;stroke-width:0.5;" x="72.0" xlink:href="#m0880e75fd2" y="129.6"/>
      </g>
     </g>
     <g id="line2d_44">
      <g>
       <use style="stroke:#000000;stroke-width:0.5;" x="518.4" xlink:href="#m13a67f58f0" y="129.6"/>
      </g>
     </g>
     <g id="text_14">
      <!-- 100 -->
      <g transform="translate(45.095 132.91125)scale(0.12 -0.12)">
       <use xlink:href="#BitstreamVeraSans-Roman-31"/>
       <use x="63.623046875" xlink:href="#BitstreamVeraSans-Roman-30"/>
       <use x="127.24609375" xlink:href="#BitstreamVeraSans-Roman-30"/>
      </g>
     </g>
    </g>
    <g id="ytick_8">
     <g id="line2d_45">
      <path clip-path="url(#p7bc6efdb2a)" d="M 72 86.4 
L 518.4 86.4 
" style="fill:none;stroke:#000000;stroke-dasharray:1.000000,3.000000;stroke-dashoffset:0.0;stroke-width:0.5;"/>
     </g>
     <g id="line2d_46">
      <g>
       <use style="stroke:#000000;stroke-width:0.5;" x="72.0" xlink:href="#m0880e75fd2" y="86.4"/>
      </g>
     </g>
     <g id="line2d_47">
      <g>
       <use style="stroke:#000000;stroke-width:0.5;" x="518.4" xlink:href="#m13a67f58f0" y="86.4"/>
      </g>
     </g>
     <g id="text_15">
      <!-- 120 -->
      <g transform="translate(45.095 89.71125)scale(0.12 -0.12)">
       <use xlink:href="#BitstreamVeraSans-Roman-31"/>
       <use x="63.623046875" xlink:href="#BitstreamVeraSans-Roman-32"/>
       <use x="127.24609375" xlink:href="#BitstreamVeraSans-Roman-30"/>
      </g>
     </g>
    </g>
    <g id="ytick_9">
     <g id="line2d_48">
      <path clip-path="url(#p7bc6efdb2a)" d="M 72 43.2 
L 518.4 43.2 
" style="fill:none;stroke:#000000;stroke-dasharray:1.000000,3.000000;stroke-dashoffset:0.0;stroke-width:0.5;"/>
     </g>
     <g id="line2d_49">
      <g>
       <use style="stroke:#000000;stroke-width:0.5;" x="72.0" xlink:href="#m0880e75fd2" y="43.2"/>
      </g>
     </g>
     <g id="line2d_50">
      <g>
       <use style="stroke:#000000;stroke-width:0.5;" x="518.4" xlink:href="#m13a67f58f0" y="43.2"/>
      </g>
     </g>
     <g id="text_16">
      <!-- 140 -->
      <g transform="translate(45.095 46.51125)scale(0.12 -0.12)">
       <use xlink:href="#BitstreamVeraSans-Roman-31"/>
       <use x="63.623046875" xlink:href="#BitstreamVeraSans-Roman-34"/>
       <use x="127.24609375" xlink:href="#BitstreamVeraSans-Roman-30"/>
      </g>
     </g>
    </g>
    <g id="text_17">
     <!-- Speed [mph] -->
     <defs>
      <path d="M 45.40625 46.390625 
L 45.40625 75.984375 
L 54.390625 75.984375 
L 54.390625 0 
L 45.40625 0 
L 45.40625 8.203125 
Q 42.578125 3.328125 38.25 0.953125 
Q 33.9375 -1.421875 27.875 -1.421875 
Q 17.96875 -1.421875 11.734375 6.484375 
Q 5.515625 14.40625 5.515625 27.296875 
Q 5.515625 40.1875 11.734375 48.09375 
Q 17.96875 56 27.875 56 
Q 33.9375 56 38.25 53.625 
Q 42.578125 51.265625 45.40625 46.390625 
M 14.796875 27.296875 
Q 14.796875 17.390625 18.875 11.75 
Q 22.953125 6.109375 30.078125 6.109375 
Q 37.203125 6.109375 41.296875 11.75 
Q 45.40625 17.390625 45.40625 27.296875 
Q 45.40625 37.203125 41.296875 42.84375 
Q 37.203125 48.484375 30.078125 48.484375 
Q 22.953125 48.484375 18.875 42.84375 
Q 14.796875 37.203125 14.796875 27.296875 
" id="BitstreamVeraSans-Roman-64"/>
      <path d="M 53.515625 70.515625 
L 53.515625 60.890625 
Q 47.90625 63.578125 42.921875 64.890625 
Q 37.9375 66.21875 33.296875 66.21875 
Q 25.25 66.21875 20.875 63.09375 
Q 16.5 59.96875 16.5 54.203125 
Q 16.5 49.359375 19.40625 46.890625 
Q 22.3125 44.4375 30.421875 42.921875 
L 36.375 41.703125 
Q 47.40625 39.59375 52.65625 34.296875 
Q 57.90625 29 57.90625 20.125 
Q 57.90625 9.515625 50.796875 4.046875 
Q 43.703125 -1.421875 29.984375 -1.421875 
Q 24.8125 -1.421875 18.96875 -0.25 
Q 13.140625 0.921875 6.890625 3.21875 
L 6.890625 13.375 
Q 12.890625 10.015625 18.65625 8.296875 
Q 24.421875 6.59375 29.984375 6.59375 
Q 38.421875 6.59375 43.015625 9.90625 
Q 47.609375 13.234375 47.609375 19.390625 
Q 47.609375 24.75 44.3125 27.78125 
Q 41.015625 30.8125 33.5 32.328125 
L 27.484375 33.5 
Q 16.453125 35.6875 11.515625 40.375 
Q 6.59375 45.0625 6.59375 53.421875 
Q 6.59375 63.09375 13.40625 68.65625 
Q 20.21875 74.21875 32.171875 74.21875 
Q 37.3125 74.21875 42.625 73.28125 
Q 47.953125 72.359375 53.515625 70.515625 
" id="BitstreamVeraSans-Roman-53"/>
      <path d="M 54.890625 33.015625 
L 54.890625 0 
L 45.90625 0 
L 45.90625 32.71875 
Q 45.90625 40.484375 42.875 44.328125 
Q 39.84375 48.1875 33.796875 48.1875 
Q 26.515625 48.1875 22.3125 43.546875 
Q 18.109375 38.921875 18.109375 30.90625 
L 18.109375 0 
L 9.078125 0 
L 9.078125 75.984375 
L 18.109375 75.984375 
L 18.109375 46.1875 
Q 21.34375 51.125 25.703125 53.5625 
Q 30.078125 56 35.796875 56 
Q 45.21875 56 50.046875 50.171875 
Q 54.890625 44.34375 54.890625 33.015625 
" id="BitstreamVeraSans-Roman-68"/>
      <path d="M 18.109375 8.203125 
L 18.109375 -20.796875 
L 9.078125 -20.796875 
L 9.078125 54.6875 
L 18.109375 54.6875 
L 18.109375 46.390625 
Q 20.953125 51.265625 25.265625 53.625 
Q 29.59375 56 35.59375 56 
Q 45.5625 56 51.78125 48.09375 
Q 58.015625 40.1875 58.015625 27.296875 
Q 58.015625 14.40625 51.78125 6.484375 
Q 45.5625 -1.421875 35.59375 -1.421875 
Q 29.59375 -1.421875 25.265625 0.953125 
Q 20.953125 3.328125 18.109375 8.203125 
M 48.6875 27.296875 
Q 48.6875 37.203125 44.609375 42.84375 
Q 40.53125 48.484375 33.40625 48.484375 
Q 26.265625 48.484375 22.1875 42.84375 
Q 18.109375 37.203125 18.109375 27.296875 
Q 18.109375 17.390625 22.1875 11.75 
Q 26.265625 6.109375 33.40625 6.109375 
Q 40.53125 6.109375 44.609375 11.75 
Q 48.6875 17.390625 48.6875 27.296875 
" id="BitstreamVeraSans-Roman-70"/>
     </defs>
     <g transform="translate(35.17875 254.855625)rotate(-90.0)scale(0.12 -0.12)">
      <use xlink:href="#BitstreamVeraSans-Roman-53"/>
      <use x="63.4765625" xlink:href="#BitstreamVeraSans-Roman-70"/>
      <use x="126.953125" xlink:href="#BitstreamVeraSans-Roman-65"/>
      <use x="188.4765625" xlink:href="#BitstreamVeraSans-Roman-65"/>
      <use x="250.0" xlink:href="#BitstreamVeraSans-Roman-64"/>
      <use x="313.4765625" xlink:href="#BitstreamVeraSans-Roman-20"/>
      <use x="345.263671875" xlink:href="#BitstreamVeraSans-Roman-5b"/>
      <use x="384.27734375" xlink:href="#BitstreamVeraSans-Roman-6d"/>
      <use x="481.689453125" xlink:href="#BitstreamVeraSans-Roman-70"/>
      <use x="545.166015625" xlink:href="#BitstreamVeraSans-Roman-68"/>
      <use x="608.544921875" xlink:href="#BitstreamVeraSans-Roman-5d"/>
     </g>
    </g>
   </g>
   <g id="legend_1">
    <g id="patch_7">
     <path d="M 317.4885 160.4025 
L 511.2 160.4025 
L 511.2 50.4 
L 317.4885 50.4 
z
" style="fill:#ffffff;stroke:#000000;stroke-linejoin:miter;"/>
    </g>
    <g id="line2d_51">
     <path d="M 327.5685 62.06175 
L 347.7285 62.06175 
" style="fill:none;stroke:#ff0000;stroke-linecap:square;"/>
    </g>
    <g id="line2d_52"/>
    <g id="text_18">
     <!-- speed -->
     <g transform="translate(363.5685 67.10175)scale(0.144 -0.144)">
      <use xlink:href="#BitstreamVeraSans-Roman-73"/>
      <use x="52.099609375" xlink:href="#BitstreamVeraSans-Roman-70"/>
      <use x="115.576171875" xlink:href="#BitstreamVeraSans-Roman-65"/>
      <use x="177.099609375" xlink:href="#BitstreamVeraSans-Roman-65"/>
      <use x="238.623046875" xlink:href="#BitstreamVeraSans-Roman-64"/>
     </g>
    </g>
    <g id="line2d_53">
     <path d="M 327.5685 83.19825 
L 347.7285 83.19825 
" style="fill:none;stroke:#bfbf00;stroke-dasharray:6.000000,6.000000;stroke-dashoffset:0.0;"/>
    </g>
    <g id="line2d_54"/>
    <g id="text_19">
     <!-- pid speed -->
     <g transform="translate(363.5685 88.23825)scale(0.144 -0.144)">
      <use xlink:href="#BitstreamVeraSans-Roman-70"/>
      <use x="63.4765625" xlink:href="#BitstreamVeraSans-Roman-69"/>
      <use x="91.259765625" xlink:href="#BitstreamVeraSans-Roman-64"/>
      <use x="154.736328125" xlink:href="#BitstreamVeraSans-Roman-20"/>
      <use x="186.5234375" xlink:href="#BitstreamVeraSans-Roman-73"/>
      <use x="238.623046875" xlink:href="#BitstreamVeraSans-Roman-70"/>
      <use x="302.099609375" xlink:href="#BitstreamVeraSans-Roman-65"/>
      <use x="363.623046875" xlink:href="#BitstreamVeraSans-Roman-65"/>
      <use x="425.146484375" xlink:href="#BitstreamVeraSans-Roman-64"/>
     </g>
    </g>
    <g id="line2d_55">
     <path d="M 327.5685 104.33475 
L 347.7285 104.33475 
" style="fill:none;stroke:#0000ff;stroke-linecap:square;"/>
    </g>
    <g id="line2d_56"/>
    <g id="text_20">
     <!-- Target (lead) speed -->
     <defs>
      <path d="M 8.015625 75.875 
L 15.828125 75.875 
Q 23.140625 64.359375 26.78125 53.3125 
Q 30.421875 42.28125 30.421875 31.390625 
Q 30.421875 20.453125 26.78125 9.375 
Q 23.140625 -1.703125 15.828125 -13.1875 
L 8.015625 -13.1875 
Q 14.5 -2 17.703125 9.0625 
Q 20.90625 20.125 20.90625 31.390625 
Q 20.90625 42.671875 17.703125 53.65625 
Q 14.5 64.65625 8.015625 75.875 
" id="BitstreamVeraSans-Roman-29"/>
      <path d="M 34.28125 27.484375 
Q 23.390625 27.484375 19.1875 25 
Q 14.984375 22.515625 14.984375 16.5 
Q 14.984375 11.71875 18.140625 8.90625 
Q 21.296875 6.109375 26.703125 6.109375 
Q 34.1875 6.109375 38.703125 11.40625 
Q 43.21875 16.703125 43.21875 25.484375 
L 43.21875 27.484375 
z
M 52.203125 31.203125 
L 52.203125 0 
L 43.21875 0 
L 43.21875 8.296875 
Q 40.140625 3.328125 35.546875 0.953125 
Q 30.953125 -1.421875 24.3125 -1.421875 
Q 15.921875 -1.421875 10.953125 3.296875 
Q 6 8.015625 6 15.921875 
Q 6 25.140625 12.171875 29.828125 
Q 18.359375 34.515625 30.609375 34.515625 
L 43.21875 34.515625 
L 43.21875 35.40625 
Q 43.21875 41.609375 39.140625 45 
Q 35.0625 48.390625 27.6875 48.390625 
Q 23 48.390625 18.546875 47.265625 
Q 14.109375 46.140625 10.015625 43.890625 
L 10.015625 52.203125 
Q 14.9375 54.109375 19.578125 55.046875 
Q 24.21875 56 28.609375 56 
Q 40.484375 56 46.34375 49.84375 
Q 52.203125 43.703125 52.203125 31.203125 
" id="BitstreamVeraSans-Roman-61"/>
      <path d="M 9.421875 75.984375 
L 18.40625 75.984375 
L 18.40625 0 
L 9.421875 0 
z
" id="BitstreamVeraSans-Roman-6c"/>
      <path d="M 31 75.875 
Q 24.46875 64.65625 21.28125 53.65625 
Q 18.109375 42.671875 18.109375 31.390625 
Q 18.109375 20.125 21.3125 9.0625 
Q 24.515625 -2 31 -13.1875 
L 23.1875 -13.1875 
Q 15.875 -1.703125 12.234375 9.375 
Q 8.59375 20.453125 8.59375 31.390625 
Q 8.59375 42.28125 12.203125 53.3125 
Q 15.828125 64.359375 23.1875 75.875 
z
" id="BitstreamVeraSans-Roman-28"/>
      <path d="M 45.40625 27.984375 
Q 45.40625 37.75 41.375 43.109375 
Q 37.359375 48.484375 30.078125 48.484375 
Q 22.859375 48.484375 18.828125 43.109375 
Q 14.796875 37.75 14.796875 27.984375 
Q 14.796875 18.265625 18.828125 12.890625 
Q 22.859375 7.515625 30.078125 7.515625 
Q 37.359375 7.515625 41.375 12.890625 
Q 45.40625 18.265625 45.40625 27.984375 
M 54.390625 6.78125 
Q 54.390625 -7.171875 48.1875 -13.984375 
Q 42 -20.796875 29.203125 -20.796875 
Q 24.46875 -20.796875 20.265625 -20.09375 
Q 16.0625 -19.390625 12.109375 -17.921875 
L 12.109375 -9.1875 
Q 16.0625 -11.328125 19.921875 -12.34375 
Q 23.78125 -13.375 27.78125 -13.375 
Q 36.625 -13.375 41.015625 -8.765625 
Q 45.40625 -4.15625 45.40625 5.171875 
L 45.40625 9.625 
Q 42.625 4.78125 38.28125 2.390625 
Q 33.9375 0 27.875 0 
Q 17.828125 0 11.671875 7.65625 
Q 5.515625 15.328125 5.515625 27.984375 
Q 5.515625 40.671875 11.671875 48.328125 
Q 17.828125 56 27.875 56 
Q 33.9375 56 38.28125 53.609375 
Q 42.625 51.21875 45.40625 46.390625 
L 45.40625 54.6875 
L 54.390625 54.6875 
z
" id="BitstreamVeraSans-Roman-67"/>
      <path d="M 41.109375 46.296875 
Q 39.59375 47.171875 37.8125 47.578125 
Q 36.03125 48 33.890625 48 
Q 26.265625 48 22.1875 43.046875 
Q 18.109375 38.09375 18.109375 28.8125 
L 18.109375 0 
L 9.078125 0 
L 9.078125 54.6875 
L 18.109375 54.6875 
L 18.109375 46.1875 
Q 20.953125 51.171875 25.484375 53.578125 
Q 30.03125 56 36.53125 56 
Q 37.453125 56 38.578125 55.875 
Q 39.703125 55.765625 41.0625 55.515625 
z
" id="BitstreamVeraSans-Roman-72"/>
      <path d="M 18.3125 70.21875 
L 18.3125 54.6875 
L 36.8125 54.6875 
L 36.8125 47.703125 
L 18.3125 47.703125 
L 18.3125 18.015625 
Q 18.3125 11.328125 20.140625 9.421875 
Q 21.96875 7.515625 27.59375 7.515625 
L 36.8125 7.515625 
L 36.8125 0 
L 27.59375 0 
Q 17.1875 0 13.234375 3.875 
Q 9.28125 7.765625 9.28125 18.015625 
L 9.28125 47.703125 
L 2.6875 47.703125 
L 2.6875 54.6875 
L 9.28125 54.6875 
L 9.28125 70.21875 
z
" id="BitstreamVeraSans-Roman-74"/>
     </defs>
     <g transform="translate(363.5685 109.37475)scale(0.144 -0.144)">
      <use xlink:href="#BitstreamVeraSans-Roman-54"/>
      <use x="60.833984375" xlink:href="#BitstreamVeraSans-Roman-61"/>
      <use x="122.11328125" xlink:href="#BitstreamVeraSans-Roman-72"/>
      <use x="163.2109375" xlink:href="#BitstreamVeraSans-Roman-67"/>
      <use x="226.6875" xlink:href="#BitstreamVeraSans-Roman-65"/>
      <use x="288.2109375" xlink:href="#BitstreamVeraSans-Roman-74"/>
      <use x="327.419921875" xlink:href="#BitstreamVeraSans-Roman-20"/>
      <use x="359.20703125" xlink:href="#BitstreamVeraSans-Roman-28"/>
      <use x="398.220703125" xlink:href="#BitstreamVeraSans-Roman-6c"/>
      <use x="426.00390625" xlink:href="#BitstreamVeraSans-Roman-65"/>
      <use x="487.52734375" xlink:href="#BitstreamVeraSans-Roman-61"/>
      <use x="548.806640625" xlink:href="#BitstreamVeraSans-Roman-64"/>
      <use x="612.283203125" xlink:href="#BitstreamVeraSans-Roman-29"/>
      <use x="651.296875" xlink:href="#BitstreamVeraSans-Roman-20"/>
      <use x="683.083984375" xlink:href="#BitstreamVeraSans-Roman-73"/>
      <use x="735.18359375" xlink:href="#BitstreamVeraSans-Roman-70"/>
      <use x="798.66015625" xlink:href="#BitstreamVeraSans-Roman-65"/>
      <use x="860.18359375" xlink:href="#BitstreamVeraSans-Roman-65"/>
      <use x="921.70703125" xlink:href="#BitstreamVeraSans-Roman-64"/>
     </g>
    </g>
    <g id="line2d_57">
     <path d="M 327.5685 125.47125 
L 347.7285 125.47125 
" style="fill:none;stroke:#000000;stroke-linecap:square;"/>
    </g>
    <g id="line2d_58"/>
    <g id="text_21">
     <!-- Cruise speed -->
     <defs>
      <path d="M 8.5 21.578125 
L 8.5 54.6875 
L 17.484375 54.6875 
L 17.484375 21.921875 
Q 17.484375 14.15625 20.5 10.265625 
Q 23.53125 6.390625 29.59375 6.390625 
Q 36.859375 6.390625 41.078125 11.03125 
Q 45.3125 15.671875 45.3125 23.6875 
L 45.3125 54.6875 
L 54.296875 54.6875 
L 54.296875 0 
L 45.3125 0 
L 45.3125 8.40625 
Q 42.046875 3.421875 37.71875 1 
Q 33.40625 -1.421875 27.6875 -1.421875 
Q 18.265625 -1.421875 13.375 4.4375 
Q 8.5 10.296875 8.5 21.578125 
" id="BitstreamVeraSans-Roman-75"/>
      <path d="M 64.40625 67.28125 
L 64.40625 56.890625 
Q 59.421875 61.53125 53.78125 63.8125 
Q 48.140625 66.109375 41.796875 66.109375 
Q 29.296875 66.109375 22.65625 58.46875 
Q 16.015625 50.828125 16.015625 36.375 
Q 16.015625 21.96875 22.65625 14.328125 
Q 29.296875 6.6875 41.796875 6.6875 
Q 48.140625 6.6875 53.78125 8.984375 
Q 59.421875 11.28125 64.40625 15.921875 
L 64.40625 5.609375 
Q 59.234375 2.09375 53.4375 0.328125 
Q 47.65625 -1.421875 41.21875 -1.421875 
Q 24.65625 -1.421875 15.125 8.703125 
Q 5.609375 18.84375 5.609375 36.375 
Q 5.609375 53.953125 15.125 64.078125 
Q 24.65625 74.21875 41.21875 74.21875 
Q 47.75 74.21875 53.53125 72.484375 
Q 59.328125 70.75 64.40625 67.28125 
" id="BitstreamVeraSans-Roman-43"/>
     </defs>
     <g transform="translate(363.5685 130.51125)scale(0.144 -0.144)">
      <use xlink:href="#BitstreamVeraSans-Roman-43"/>
      <use x="69.82421875" xlink:href="#BitstreamVeraSans-Roman-72"/>
      <use x="110.9375" xlink:href="#BitstreamVeraSans-Roman-75"/>
      <use x="174.31640625" xlink:href="#BitstreamVeraSans-Roman-69"/>
      <use x="202.099609375" xlink:href="#BitstreamVeraSans-Roman-73"/>
      <use x="254.19921875" xlink:href="#BitstreamVeraSans-Roman-65"/>
      <use x="315.72265625" xlink:href="#BitstreamVeraSans-Roman-20"/>
      <use x="347.509765625" xlink:href="#BitstreamVeraSans-Roman-73"/>
      <use x="399.609375" xlink:href="#BitstreamVeraSans-Roman-70"/>
      <use x="463.0859375" xlink:href="#BitstreamVeraSans-Roman-65"/>
      <use x="524.609375" xlink:href="#BitstreamVeraSans-Roman-65"/>
      <use x="586.1328125" xlink:href="#BitstreamVeraSans-Roman-64"/>
     </g>
    </g>
    <g id="line2d_59">
     <path d="M 327.5685 146.60775 
L 347.7285 146.60775 
" style="fill:none;stroke:#bf00bf;stroke-linecap:square;"/>
    </g>
    <g id="line2d_60"/>
    <g id="text_22">
     <!-- Lead speed -->
     <defs>
      <path d="M 9.8125 72.90625 
L 19.671875 72.90625 
L 19.671875 8.296875 
L 55.171875 8.296875 
L 55.171875 0 
L 9.8125 0 
z
" id="BitstreamVeraSans-Roman-4c"/>
     </defs>
     <g transform="translate(363.5685 151.64775)scale(0.144 -0.144)">
      <use xlink:href="#BitstreamVeraSans-Roman-4c"/>
      <use x="55.697265625" xlink:href="#BitstreamVeraSans-Roman-65"/>
      <use x="117.220703125" xlink:href="#BitstreamVeraSans-Roman-61"/>
      <use x="178.5" xlink:href="#BitstreamVeraSans-Roman-64"/>
      <use x="241.9765625" xlink:href="#BitstreamVeraSans-Roman-20"/>
      <use x="273.763671875" xlink:href="#BitstreamVeraSans-Roman-73"/>
      <use x="325.86328125" xlink:href="#BitstreamVeraSans-Roman-70"/>
      <use x="389.33984375" xlink:href="#BitstreamVeraSans-Roman-65"/>
      <use x="450.86328125" xlink:href="#BitstreamVeraSans-Roman-65"/>
      <use x="512.38671875" xlink:href="#BitstreamVeraSans-Roman-64"/>
     </g>
    </g>
   </g>
  </g>
 </g>
 <defs>
  <clipPath id="p7bc6efdb2a">
   <rect height="345.6" width="446.4" x="72.0" y="43.2"/>
  </clipPath>
 </defs>
</svg>
