<?xml version="1.0" encoding="utf-8" standalone="no"?>
<!DOCTYPE svg PUBLIC "-//W3C//DTD SVG 1.1//EN"
  "http://www.w3.org/Graphics/SVG/1.1/DTD/svg11.dtd">
<!-- Created with matplotlib (http://matplotlib.org/) -->
<svg height="432pt" version="1.1" viewBox="0 0 576 432" width="576pt" xmlns="http://www.w3.org/2000/svg" xmlns:xlink="http://www.w3.org/1999/xlink">
 <defs>
  <style type="text/css">
*{stroke-linecap:butt;stroke-linejoin:round;stroke-miterlimit:100000;}
  </style>
 </defs>
 <g id="figure_1">
  <g id="patch_1">
   <path d="M 0 432 
L 576 432 
L 576 0 
L 0 0 
z
" style="fill:#ffffff;"/>
  </g>
  <g id="axes_1">
   <g id="patch_2">
    <path d="M 72 388.8 
L 518.4 388.8 
L 518.4 43.2 
L 72 43.2 
z
" style="fill:#ffffff;"/>
   </g>
   <g id="line2d_1">
    <path clip-path="url(#p174b78b85f)" d="M 72.063771 388.8 
L 83.989029 388.8 
L 84.244114 387.502776 
L 84.307886 387.502776 
L 84.435429 387.931374 
L 84.626743 387.074178 
L 84.690514 387.074178 
L 84.818057 387.502776 
L 84.9456 387.074178 
L 85.200686 387.074178 
L 85.328229 386.64558 
L 85.455771 383.216795 
L 85.519543 383.645393 
L 85.647086 383.216795 
L 85.902171 383.216795 
L 86.029714 381.931001 
L 86.157257 382.359599 
L 86.348571 385.359786 
L 86.922514 385.359786 
L 87.113829 381.502403 
L 87.368914 381.502403 
L 87.560229 385.359786 
L 87.624 385.359786 
L 87.751543 384.931188 
L 87.815314 384.931188 
L 87.942857 383.645393 
L 88.389257 383.645393 
L 88.5168 383.216795 
L 88.580571 383.216795 
L 88.708114 383.645393 
L 88.771886 383.645393 
L 88.899429 383.216795 
L 89.154514 383.216795 
L 89.282057 382.788197 
L 89.473371 382.788197 
L 89.600914 383.216795 
L 89.792229 381.931001 
L 89.856 381.931001 
L 89.919771 381.502403 
L 90.047314 381.931001 
L 90.238629 381.931001 
L 90.366171 381.502403 
L 90.493714 381.931001 
L 90.812571 381.931001 
L 90.940114 381.502403 
L 91.1952 381.502403 
L 91.322743 381.073805 
L 91.450286 381.502403 
L 91.6416 381.502403 
L 91.769143 380.645207 
L 92.088 380.645207 
L 92.215543 380.216608 
L 92.406857 381.073805 
L 92.5344 383.216795 
L 92.661943 383.645393 
L 92.789486 383.216795 
L 93.554743 383.216795 
L 93.809829 381.931001 
L 93.8736 381.931001 
L 94.001143 382.359599 
L 94.128686 381.931001 
L 94.830171 381.931001 
L 94.957714 381.502403 
L 95.085257 381.931001 
L 95.149029 381.931001 
L 95.276571 381.502403 
L 95.340343 381.502403 
L 95.467886 381.931001 
L 95.595429 381.502403 
L 95.722971 381.931001 
L 95.786743 381.931001 
L 95.914286 381.502403 
L 95.978057 381.502403 
L 96.169371 380.645207 
L 96.424457 380.645207 
L 96.552 381.073805 
L 96.615771 381.073805 
L 96.807086 384.073991 
L 97.253486 384.073991 
L 97.381029 383.645393 
L 97.954971 383.645393 
L 98.082514 384.073991 
L 98.210057 383.645393 
L 98.401371 383.645393 
L 98.528914 382.788197 
L 98.784 382.788197 
L 98.911543 382.359599 
L 99.039086 382.788197 
L 99.102857 382.788197 
L 99.2304 382.359599 
L 99.421714 382.359599 
L 99.549257 382.788197 
L 99.613029 382.788197 
L 99.740571 382.359599 
L 99.931886 382.359599 
L 100.059429 382.788197 
L 100.250743 382.788197 
L 100.378286 382.359599 
L 101.143543 382.359599 
L 101.271086 381.073805 
L 101.398629 381.502403 
L 101.717486 381.502403 
L 101.845029 381.073805 
L 101.972571 381.502403 
L 102.100114 381.073805 
L 102.418971 381.073805 
L 102.674057 384.073991 
L 102.8016 384.502589 
L 102.929143 384.073991 
L 104.1408 384.073991 
L 104.268343 383.645393 
L 104.332114 383.645393 
L 104.459657 384.073991 
L 104.650971 382.788197 
L 105.224914 382.788197 
L 105.352457 383.216795 
L 105.48 382.788197 
L 105.990171 382.788197 
L 106.117714 382.359599 
L 106.245257 382.359599 
L 106.3728 382.788197 
L 106.500343 382.788197 
L 106.627886 382.359599 
L 106.755429 382.359599 
L 106.882971 382.788197 
L 107.010514 382.788197 
L 107.138057 382.359599 
L 107.2656 382.359599 
L 107.393143 382.788197 
L 107.520686 382.788197 
L 107.648229 382.359599 
L 107.903314 382.359599 
L 108.094629 381.073805 
L 108.1584 381.073805 
L 108.285943 381.502403 
L 108.668571 381.502403 
L 108.796114 381.073805 
L 108.923657 381.502403 
L 109.178743 381.502403 
L 109.370057 384.931188 
L 109.561371 384.931188 
L 109.688914 384.073991 
L 109.816457 384.073991 
L 109.944 384.502589 
L 110.454171 384.502589 
L 110.581714 384.073991 
L 112.112229 384.073991 
L 112.239771 382.788197 
L 112.494857 382.788197 
L 112.6224 383.216795 
L 112.749943 383.216795 
L 112.877486 382.788197 
L 113.132571 382.788197 
L 113.260114 383.216795 
L 113.387657 383.216795 
L 113.5152 382.788197 
L 113.770286 382.788197 
L 113.897829 383.216795 
L 114.025371 383.216795 
L 114.152914 382.788197 
L 114.918171 382.788197 
L 115.045714 382.359599 
L 115.173257 382.788197 
L 115.3008 382.788197 
L 115.428343 382.359599 
L 115.555886 382.359599 
L 115.683429 382.788197 
L 115.810971 382.788197 
L 115.938514 382.359599 
L 116.066057 382.359599 
L 116.1936 382.788197 
L 116.321143 382.788197 
L 116.448686 382.359599 
L 116.576229 382.359599 
L 116.703771 382.788197 
L 116.831314 382.788197 
L 116.958857 381.502403 
L 117.0864 381.931001 
L 117.213943 381.931001 
L 117.341486 381.502403 
L 117.469029 381.931001 
L 117.596571 381.931001 
L 117.724114 381.502403 
L 117.851657 381.931001 
L 117.9792 381.502403 
L 118.170514 385.359786 
L 118.234286 385.359786 
L 118.361829 384.931188 
L 118.553143 384.931188 
L 118.680686 384.502589 
L 119.063314 384.502589 
L 119.190857 382.359599 
L 119.3184 382.359599 
L 119.445943 384.502589 
L 119.573486 384.931188 
L 119.701029 384.073991 
L 119.828571 384.073991 
L 119.956114 384.502589 
L 120.530057 384.502589 
L 120.785143 381.073805 
L 121.040229 384.073991 
L 121.167771 384.502589 
L 121.933029 384.502589 
L 122.060571 384.073991 
L 123.208457 384.073991 
L 123.463543 381.502403 
L 123.718629 381.502403 
L 123.846171 381.931001 
L 124.356343 381.931001 
L 124.483886 382.359599 
L 124.611429 381.931001 
L 124.738971 381.931001 
L 124.866514 382.359599 
L 125.504229 382.359599 
L 125.631771 382.788197 
L 125.759314 382.788197 
L 125.886857 382.359599 
L 126.0144 382.359599 
L 126.141943 382.788197 
L 126.269486 382.788197 
L 126.397029 382.359599 
L 126.524571 382.359599 
L 126.652114 382.788197 
L 127.672457 382.788197 
L 127.8 383.216795 
L 127.927543 383.216795 
L 128.055086 382.788197 
L 128.437714 382.788197 
L 128.629029 384.931188 
L 128.947886 384.931188 
L 129.1392 382.359599 
L 129.394286 384.931188 
L 129.5856 384.931188 
L 129.776914 382.359599 
L 130.095771 384.931188 
L 130.159543 384.502589 
L 130.861029 384.502589 
L 130.988571 382.359599 
L 131.116114 382.788197 
L 131.243657 384.502589 
L 131.945143 384.502589 
L 132.072686 384.073991 
L 132.200229 382.359599 
L 132.327771 382.359599 
L 132.455314 384.502589 
L 133.411886 384.502589 
L 133.539429 382.788197 
L 133.666971 382.359599 
L 133.794514 384.073991 
L 133.922057 381.931001 
L 134.0496 381.502403 
L 134.177143 381.931001 
L 134.751086 381.931001 
L 134.878629 382.359599 
L 135.069943 382.359599 
L 135.197486 381.931001 
L 135.325029 382.359599 
L 135.452571 382.359599 
L 135.580114 381.931001 
L 135.707657 382.359599 
L 136.026514 382.359599 
L 136.154057 382.788197 
L 136.2816 382.359599 
L 136.472914 384.073991 
L 136.536686 384.073991 
L 136.728 387.931374 
L 136.855543 387.931374 
L 136.983086 388.8 
L 277.662857 388.8 
L 277.7904 388.359972 
L 277.981714 385.359786 
L 278.045486 385.359786 
L 278.2368 381.931001 
L 278.300571 381.931001 
L 278.619429 377.64502 
L 278.6832 377.64502 
L 278.810743 375.930627 
L 278.938286 375.930627 
L 279.1296 375.073431 
L 279.193371 375.073431 
L 279.384686 374.216235 
L 279.448457 374.216235 
L 279.639771 373.359039 
L 279.703543 373.359039 
L 279.894857 372.501842 
L 279.958629 372.501842 
L 280.149943 371.644646 
L 280.213714 371.644646 
L 280.405029 370.78745 
L 280.4688 370.78745 
L 280.660114 369.930254 
L 280.723886 369.930254 
L 280.9152 369.073058 
L 280.978971 369.073058 
L 281.170286 368.215861 
L 281.234057 368.215861 
L 281.425371 367.358665 
L 281.489143 367.358665 
L 281.808 365.644273 
L 281.871771 365.644273 
L 282.063086 364.787077 
L 282.126857 364.787077 
L 282.318171 363.92988 
L 282.381943 363.92988 
L 282.573257 363.072684 
L 282.637029 363.072684 
L 282.955886 361.358292 
L 283.019657 361.358292 
L 283.210971 360.501095 
L 283.274743 360.501095 
L 283.466057 359.643899 
L 283.529829 359.643899 
L 283.721143 358.786703 
L 283.784914 358.786703 
L 283.976229 357.500909 
L 284.04 357.500909 
L 284.231314 356.643712 
L 284.295086 356.643712 
L 284.4864 355.786516 
L 284.550171 355.786516 
L 284.741486 354.500722 
L 284.805257 354.500722 
L 284.996571 353.643526 
L 285.060343 353.643526 
L 285.251657 352.78633 
L 285.315429 352.78633 
L 285.634286 351.071937 
L 285.698057 351.071937 
L 285.889371 350.214741 
L 285.953143 350.214741 
L 286.144457 349.357545 
L 286.208229 349.357545 
L 286.399543 348.07175 
L 286.463314 348.07175 
L 286.654629 347.214554 
L 286.7184 347.214554 
L 286.909714 345.92876 
L 286.973486 345.92876 
L 287.1648 345.071564 
L 287.228571 345.071564 
L 287.419886 344.214367 
L 287.483657 344.214367 
L 287.802514 342.499975 
L 287.866286 342.499975 
L 288.0576 341.642779 
L 288.185143 341.642779 
L 288.376457 339.928386 
L 288.440229 339.928386 
L 288.631543 339.07119 
L 288.759086 339.07119 
L 288.9504 338.213994 
L 289.014171 338.213994 
L 289.141714 337.785396 
L 289.269257 337.785396 
L 289.460571 336.9282 
L 289.524343 336.9282 
L 289.651886 336.071003 
L 289.779429 336.071003 
L 289.970743 335.213807 
L 290.162057 335.213807 
L 290.2896 334.785209 
L 290.353371 334.785209 
L 290.480914 334.356611 
L 290.608457 334.356611 
L 290.799771 333.499415 
L 290.863543 333.499415 
L 290.991086 332.642218 
L 291.118629 332.642218 
L 291.246171 332.21362 
L 291.437486 332.21362 
L 291.565029 331.785022 
L 291.692571 331.785022 
L 291.820114 331.356424 
L 292.202743 331.356424 
L 292.394057 330.07063 
L 292.776686 330.07063 
L 292.904229 329.642032 
L 293.159314 329.642032 
L 293.286857 329.213434 
L 293.4144 329.213434 
L 293.541943 328.356237 
L 294.052114 328.356237 
L 294.179657 327.927639 
L 294.626057 327.927639 
L 294.7536 327.070443 
L 295.327543 327.070443 
L 295.455086 326.213247 
L 296.284114 326.213247 
L 296.475429 324.927452 
L 296.5392 324.927452 
L 296.666743 324.070256 
L 296.9856 324.070256 
L 297.113143 323.641658 
L 297.176914 323.641658 
L 297.368229 322.355864 
L 297.432 322.355864 
L 297.559543 321.927266 
L 298.133486 321.927266 
L 298.261029 322.355864 
L 298.643657 322.355864 
L 298.7712 322.784462 
L 298.898743 321.927266 
L 299.026286 321.927266 
L 299.153829 322.355864 
L 299.855314 322.355864 
L 299.982857 322.784462 
L 300.237943 322.784462 
L 300.365486 322.355864 
L 301.0032 322.355864 
L 301.130743 322.784462 
L 301.322057 322.784462 
L 301.4496 322.355864 
L 301.896 322.355864 
L 302.023543 322.784462 
L 302.533714 322.784462 
L 302.661257 322.355864 
L 302.7888 322.784462 
L 303.362743 322.784462 
L 303.490286 323.21306 
L 303.745371 323.21306 
L 303.872914 322.784462 
L 304.5744 322.784462 
L 304.701943 323.21306 
L 305.212114 323.21306 
L 305.339657 322.784462 
L 305.403429 322.784462 
L 305.530971 323.21306 
L 305.658514 323.21306 
L 305.786057 322.784462 
L 306.296229 322.784462 
L 306.423771 323.641658 
L 306.615086 323.641658 
L 306.742629 324.070256 
L 306.933943 324.070256 
L 307.061486 324.927452 
L 307.125257 324.927452 
L 307.2528 325.356051 
L 307.444114 325.356051 
L 307.571657 325.784649 
L 307.635429 325.784649 
L 307.762971 326.641845 
L 307.954286 326.641845 
L 308.081829 327.070443 
L 308.1456 327.070443 
L 308.273143 327.499041 
L 308.464457 327.499041 
L 308.592 328.356237 
L 308.655771 328.356237 
L 308.783314 328.784835 
L 308.974629 328.784835 
L 309.102171 329.213434 
L 309.293486 329.213434 
L 309.421029 329.642032 
L 309.612343 329.642032 
L 309.803657 330.499228 
L 309.9312 330.499228 
L 310.058743 330.927826 
L 310.505143 330.927826 
L 310.632686 331.356424 
L 310.824 331.356424 
L 310.951543 331.785022 
L 311.015314 331.785022 
L 311.142857 332.21362 
L 311.334171 332.21362 
L 311.461714 332.642218 
L 311.525486 332.642218 
L 311.653029 333.070817 
L 311.844343 333.070817 
L 311.971886 333.499415 
L 312.226971 333.499415 
L 312.354514 333.928013 
L 312.482057 333.499415 
L 312.6096 333.928013 
L 315.032914 333.928013 
L 315.160457 334.356611 
L 316.435886 334.356611 
L 316.563429 334.785209 
L 317.456229 334.785209 
L 317.583771 335.213807 
L 318.476571 335.213807 
L 318.604114 335.642405 
L 319.496914 335.642405 
L 319.624457 336.071003 
L 320.389714 336.071003 
L 320.517257 336.499601 
L 321.154971 336.499601 
L 321.282514 336.9282 
L 321.920229 336.9282 
L 322.047771 337.356798 
L 322.685486 337.356798 
L 322.813029 337.785396 
L 323.578286 337.785396 
L 323.705829 338.213994 
L 324.471086 338.213994 
L 324.598629 338.642592 
L 325.1088 338.642592 
L 325.236343 339.07119 
L 325.810286 339.07119 
L 325.937829 339.499788 
L 326.065371 339.07119 
L 326.511771 339.07119 
L 326.639314 339.928386 
L 327.404571 339.928386 
L 327.532114 340.356984 
L 328.042286 340.356984 
L 328.169829 340.785582 
L 328.424914 340.785582 
L 328.616229 342.071377 
L 328.68 342.071377 
L 328.871314 343.785769 
L 328.935086 343.785769 
L 329.1264 345.071564 
L 329.190171 345.071564 
L 329.381486 346.785956 
L 329.445257 346.785956 
L 329.764114 348.500348 
L 329.827886 348.500348 
L 330.0192 349.786143 
L 330.082971 349.786143 
L 330.274286 351.500535 
L 330.338057 351.500535 
L 330.529371 352.357731 
L 330.593143 352.357731 
L 330.784457 353.643526 
L 330.848229 353.643526 
L 331.039543 354.92932 
L 331.103314 354.92932 
L 331.294629 356.643712 
L 331.3584 356.643712 
L 331.677257 359.643899 
L 331.741029 359.643899 
L 331.932343 361.78689 
L 331.996114 361.78689 
L 332.2512 365.644273 
L 332.314971 365.644273 
L 332.442514 369.073058 
L 332.506286 369.073058 
L 332.6976 375.502029 
L 332.761371 375.502029 
L 332.952686 381.502403 
L 333.016457 381.502403 
L 333.207771 386.64558 
L 333.271543 386.64558 
L 333.399086 388.8 
L 406.162286 388.8 
L 406.8 381.502403 
L 406.863771 381.502403 
L 407.2464 375.930627 
L 407.310171 375.930627 
L 407.437714 375.502029 
L 407.501486 375.502029 
L 407.6928 374.644833 
L 407.756571 374.644833 
L 407.884114 374.216235 
L 408.011657 374.644833 
L 408.075429 374.644833 
L 408.266743 373.787637 
L 408.521829 373.787637 
L 408.649371 372.501842 
L 408.904457 368.644459 
L 408.968229 368.644459 
L 409.159543 367.358665 
L 409.4784 365.644273 
L 409.542171 365.644273 
L 409.733486 364.787077 
L 409.797257 364.787077 
L 409.9248 364.358478 
L 410.052343 364.787077 
L 410.179886 363.92988 
L 410.243657 363.92988 
L 410.434971 363.072684 
L 410.498743 363.072684 
L 410.690057 362.215488 
L 410.753829 362.215488 
L 410.881371 362.644086 
L 410.945143 362.644086 
L 411.136457 361.358292 
L 411.200229 361.358292 
L 411.391543 360.501095 
L 411.646629 360.501095 
L 411.837943 359.643899 
L 411.901714 359.643899 
L 412.029257 359.215301 
L 412.220571 359.215301 
L 412.411886 358.358105 
L 412.475657 358.358105 
L 412.730743 356.215114 
L 412.794514 356.215114 
L 412.922057 355.357918 
L 413.113371 355.357918 
L 413.304686 354.500722 
L 413.368457 354.500722 
L 413.559771 353.643526 
L 413.814857 353.643526 
L 414.006171 352.357731 
L 414.261257 352.357731 
L 414.580114 350.643339 
L 414.643886 350.643339 
L 414.8352 349.786143 
L 414.962743 349.786143 
L 415.090286 349.357545 
L 415.217829 349.357545 
L 415.409143 347.643152 
L 415.472914 347.643152 
L 415.791771 345.92876 
L 415.983086 345.92876 
L 416.1744 344.214367 
L 416.238171 344.214367 
L 416.429486 343.357171 
L 416.493257 343.357171 
L 416.684571 342.499975 
L 416.748343 342.499975 
L 416.875886 342.071377 
L 417.0672 342.071377 
L 417.258514 341.214181 
L 417.5136 341.214181 
L 417.641143 340.785582 
L 417.96 340.785582 
L 418.151314 339.928386 
L 418.215086 339.928386 
L 418.342629 339.499788 
L 418.661486 339.499788 
L 418.789029 339.07119 
L 418.980343 339.07119 
L 419.107886 338.642592 
L 419.171657 338.642592 
L 419.2992 339.07119 
L 419.490514 338.213994 
L 419.618057 338.213994 
L 419.7456 338.642592 
L 419.873143 338.213994 
L 420.192 338.213994 
L 420.319543 337.785396 
L 421.148571 337.785396 
L 421.276114 337.356798 
L 421.339886 337.356798 
L 421.467429 337.785396 
L 421.594971 337.356798 
L 421.658743 337.356798 
L 421.786286 337.785396 
L 421.9776 336.9282 
L 422.105143 336.9282 
L 422.232686 337.356798 
L 422.360229 336.9282 
L 422.424 336.9282 
L 422.551543 337.356798 
L 422.742857 336.499601 
L 422.934171 336.499601 
L 423.125486 335.642405 
L 423.3168 335.642405 
L 423.444343 335.213807 
L 423.571886 335.213807 
L 423.7632 334.356611 
L 423.954514 334.356611 
L 424.082057 333.928013 
L 424.2096 333.928013 
L 424.337143 333.499415 
L 424.464686 333.499415 
L 424.592229 333.070817 
L 424.656 333.070817 
L 424.783543 332.21362 
L 424.847314 332.21362 
L 425.1024 330.927826 
L 425.166171 330.927826 
L 425.293714 330.07063 
L 425.485029 330.07063 
L 425.612571 330.499228 
L 425.803886 330.499228 
L 425.931429 330.927826 
L 426.505371 330.927826 
L 426.632914 330.499228 
L 426.888 330.499228 
L 427.015543 330.07063 
L 427.398171 330.07063 
L 427.525714 329.642032 
L 428.035886 329.642032 
L 428.163429 329.213434 
L 428.546057 329.213434 
L 428.6736 328.784835 
L 429.056229 328.784835 
L 429.183771 328.356237 
L 429.693943 328.356237 
L 429.821486 327.927639 
L 430.586743 327.927639 
L 430.714286 327.499041 
L 431.479543 327.499041 
L 431.607086 327.070443 
L 432.754971 327.070443 
L 432.882514 326.641845 
L 434.668114 326.641845 
L 434.795657 326.213247 
L 435.305829 326.213247 
L 435.433371 325.784649 
L 437.474057 325.784649 
L 437.6016 325.356051 
L 438.111771 325.356051 
L 438.239314 325.784649 
L 438.4944 325.784649 
L 438.621943 325.356051 
L 438.749486 325.784649 
L 440.407543 325.784649 
L 440.535086 326.213247 
L 440.7264 326.213247 
L 440.853943 325.784649 
L 440.917714 325.784649 
L 441.045257 326.213247 
L 441.427886 326.213247 
L 441.555429 326.641845 
L 442.320686 326.641845 
L 442.448229 327.070443 
L 443.213486 327.070443 
L 443.341029 327.499041 
L 443.8512 327.499041 
L 443.978743 327.927639 
L 444.616457 327.927639 
L 444.744 328.356237 
L 445.254171 328.356237 
L 445.381714 328.784835 
L 445.891886 328.784835 
L 446.019429 329.213434 
L 446.402057 329.213434 
L 446.5296 329.642032 
L 446.976 329.642032 
L 447.103543 330.07063 
L 447.549943 330.07063 
L 447.677486 330.499228 
L 448.187657 330.499228 
L 448.3152 330.927826 
L 448.506514 330.07063 
L 448.634057 330.499228 
L 449.399314 330.499228 
L 449.526857 330.927826 
L 449.845714 330.927826 
L 450.037029 331.785022 
L 450.5472 331.785022 
L 450.674743 332.642218 
L 450.9936 332.642218 
L 451.184914 333.499415 
L 451.631314 333.499415 
L 451.695086 333.928013 
L 451.8864 333.070817 
L 452.013943 333.070817 
L 452.141486 333.499415 
L 452.396571 333.499415 
L 452.524114 333.928013 
L 452.587886 333.928013 
L 452.715429 334.356611 
L 453.098057 334.356611 
L 453.2256 334.785209 
L 453.416914 334.785209 
L 453.544457 335.213807 
L 454.1184 335.213807 
L 454.245943 335.642405 
L 454.5648 335.642405 
L 454.628571 336.071003 
L 454.819886 335.213807 
L 454.883657 335.213807 
L 455.0112 335.642405 
L 455.393829 335.642405 
L 455.521371 336.071003 
L 455.776457 336.071003 
L 455.904 336.499601 
L 456.286629 336.499601 
L 456.414171 336.9282 
L 456.605486 336.9282 
L 456.733029 337.356798 
L 457.115657 337.356798 
L 457.2432 337.785396 
L 457.498286 337.785396 
L 457.625829 338.213994 
L 457.880914 338.213994 
L 458.008457 338.642592 
L 458.263543 338.642592 
L 458.391086 339.07119 
L 458.518629 338.642592 
L 458.646171 338.642592 
L 458.773714 339.07119 
L 459.156343 339.07119 
L 459.283886 339.499788 
L 459.411429 339.499788 
L 459.602743 341.214181 
L 459.666514 341.214181 
L 460.240457 344.642965 
L 460.304229 344.642965 
L 460.495543 346.357358 
L 460.559314 346.357358 
L 461.197029 350.214741 
L 461.2608 350.214741 
L 461.452114 351.500535 
L 461.515886 351.500535 
L 461.7072 352.78633 
L 461.770971 352.78633 
L 462.089829 354.500722 
L 462.1536 354.500722 
L 462.344914 355.786516 
L 462.408686 355.786516 
L 462.663771 357.072311 
L 462.727543 357.072311 
L 463.0464 358.786703 
L 463.110171 358.786703 
L 463.429029 360.501095 
L 463.4928 360.501095 
L 463.747886 361.78689 
L 463.811657 361.78689 
L 464.002971 365.215675 
L 464.066743 365.215675 
L 464.321829 369.501656 
L 464.3856 369.501656 
L 464.576914 371.644646 
L 464.640686 371.644646 
L 464.832 374.644833 
L 464.895771 374.644833 
L 465.087086 377.216422 
L 465.150857 377.216422 
L 465.342171 378.930814 
L 465.405943 378.930814 
L 465.7248 381.931001 
L 465.788571 381.931001 
L 466.107429 383.645393 
L 466.1712 383.645393 
L 466.872686 387.931374 
L 466.936457 387.931374 
L 467.127771 388.8 
L 509.854629 388.8 
L 509.982171 388.359972 
L 510.173486 383.645393 
L 510.301029 383.645393 
L 510.556114 377.216422 
L 510.619886 377.216422 
L 510.8112 374.216235 
L 510.938743 374.216235 
L 511.066286 374.644833 
L 511.2576 374.644833 
L 511.385143 374.216235 
L 511.576457 378.073618 
L 511.640229 378.073618 
L 511.767771 378.502216 
L 511.895314 378.502216 
L 512.086629 379.359412 
L 512.1504 379.359412 
L 512.405486 377.216422 
L 512.5968 378.073618 
L 512.660571 378.073618 
L 512.724343 377.216422 
L 512.788114 377.64502 
L 512.851886 377.64502 
L 512.979429 379.78801 
L 513.0432 379.78801 
L 513.234514 381.502403 
L 513.4896 381.502403 
L 513.617143 381.931001 
L 513.808457 381.931001 
L 513.936 382.359599 
L 514.191086 382.359599 
L 514.318629 382.788197 
L 514.637486 382.788197 
L 514.765029 383.216795 
L 515.020114 383.216795 
L 515.147657 383.645393 
L 515.976686 383.645393 
L 516.104229 384.073991 
L 517.570971 384.073991 
L 517.698514 384.502589 
L 517.9536 384.502589 
L 518.081143 384.073991 
L 518.4 384.073991 
L 518.4 384.073991 
" style="fill:none;stroke:#008000;stroke-linecap:square;"/>
   </g>
   <g id="line2d_2">
    <path clip-path="url(#p174b78b85f)" d="M 72.063771 388.8 
L 140.936914 388.8 
L 141.192 363.487513 
L 141.255771 363.487513 
L 141.447086 346.612522 
L 141.510857 346.612522 
L 141.702171 329.73753 
L 141.765943 329.73753 
L 141.957257 311.17504 
L 142.021029 311.17504 
L 142.212343 294.300048 
L 142.276114 294.300048 
L 142.467429 277.425057 
L 142.5312 277.425057 
L 142.658743 272.36256 
L 143.041371 272.36256 
L 143.296457 267.300062 
L 154.711543 267.300062 
L 154.839086 268.987561 
L 158.282743 268.987561 
L 158.410286 267.300062 
L 158.920457 267.300062 
L 159.048 265.612563 
L 159.685714 265.612563 
L 159.813257 263.925064 
L 160.195886 263.925064 
L 160.323429 262.237565 
L 160.8336 262.237565 
L 160.961143 260.550066 
L 161.471314 260.550066 
L 161.598857 258.862567 
L 161.981486 258.862567 
L 162.109029 257.175067 
L 162.555429 257.175067 
L 162.682971 255.487568 
L 163.256914 255.487568 
L 163.384457 253.800069 
L 163.767086 253.800069 
L 163.894629 252.11257 
L 164.4048 252.11257 
L 164.532343 250.425071 
L 165.042514 250.425071 
L 165.170057 248.737572 
L 165.425143 248.737572 
L 165.552686 247.050073 
L 166.062857 247.050073 
L 166.1904 245.362573 
L 166.573029 245.362573 
L 166.700571 243.675074 
L 167.0832 243.675074 
L 167.210743 241.987575 
L 167.593371 241.987575 
L 167.720914 240.300076 
L 168.103543 240.300076 
L 168.231086 238.612577 
L 168.613714 238.612577 
L 168.741257 236.925078 
L 169.251429 236.925078 
L 169.378971 235.237579 
L 169.634057 235.237579 
L 169.7616 233.550079 
L 170.144229 233.550079 
L 170.271771 231.86258 
L 170.6544 231.86258 
L 170.781943 230.175081 
L 171.037029 230.175081 
L 171.164571 228.487582 
L 171.483429 228.487582 
L 171.610971 226.800083 
L 171.802286 226.800083 
L 171.929829 225.112584 
L 172.44 225.112584 
L 172.567543 223.425085 
L 172.950171 223.425085 
L 173.077714 221.737586 
L 173.3328 221.737586 
L 173.460343 220.050086 
L 173.842971 220.050086 
L 173.970514 218.362587 
L 174.2256 218.362587 
L 174.353143 216.675088 
L 174.735771 216.675088 
L 174.863314 214.987589 
L 175.1184 214.987589 
L 175.245943 213.30009 
L 175.628571 213.30009 
L 175.756114 211.612591 
L 176.0112 211.612591 
L 176.138743 209.925092 
L 176.521371 209.925092 
L 176.648914 208.237592 
L 176.904 208.237592 
L 177.031543 206.550093 
L 177.286629 206.550093 
L 177.414171 204.862594 
L 177.7968 204.862594 
L 177.924343 203.175095 
L 178.306971 203.175095 
L 178.434514 201.487596 
L 178.6896 201.487596 
L 178.817143 199.800097 
L 179.199771 199.800097 
L 179.327314 198.112598 
L 179.5824 198.112598 
L 179.709943 196.425098 
L 180.092571 196.425098 
L 180.220114 194.737599 
L 180.602743 194.737599 
L 180.730286 193.0501 
L 180.985371 193.0501 
L 181.112914 191.362601 
L 181.495543 191.362601 
L 181.623086 189.675102 
L 181.878171 189.675102 
L 182.005714 187.987603 
L 182.2608 187.987603 
L 182.388343 186.300104 
L 182.643429 186.300104 
L 182.770971 184.612605 
L 182.898514 184.612605 
L 183.026057 182.925105 
L 183.281143 182.925105 
L 183.408686 181.237606 
L 183.536229 181.237606 
L 183.663771 179.550107 
L 183.791314 179.550107 
L 183.918857 177.862608 
L 184.110171 177.862608 
L 184.237714 176.175109 
L 184.365257 176.175109 
L 184.620343 166.050114 
L 184.747886 166.050114 
L 185.002971 160.987617 
L 185.258057 160.987617 
L 185.449371 157.612618 
L 185.513143 157.612618 
L 185.640686 155.925119 
L 185.832 155.925119 
L 185.959543 154.23762 
L 186.214629 154.23762 
L 186.405943 150.862622 
L 186.597257 150.862622 
L 186.7248 149.175123 
L 186.852343 149.175123 
L 186.979886 147.487624 
L 187.1712 147.487624 
L 187.426286 142.425126 
L 187.553829 142.425126 
L 187.681371 140.737627 
L 187.936457 140.737627 
L 188.064 137.362629 
L 188.319086 137.362629 
L 188.446629 135.67513 
L 188.637943 135.67513 
L 188.829257 132.300131 
L 189.084343 132.300131 
L 189.211886 130.612632 
L 189.466971 130.612632 
L 189.594514 127.237634 
L 189.8496 127.237634 
L 189.977143 125.550135 
L 190.423543 125.550135 
L 190.551086 123.862636 
L 190.678629 123.862636 
L 190.806171 122.175137 
L 190.933714 122.175137 
L 191.061257 120.487637 
L 191.380114 120.487637 
L 191.507657 118.800138 
L 191.6352 118.800138 
L 191.826514 115.42514 
L 192.209143 115.42514 
L 192.336686 112.050142 
L 192.783086 112.050142 
L 192.910629 110.362643 
L 193.165714 110.362643 
L 193.293257 106.987644 
L 194.122286 106.987644 
L 194.3136 103.612646 
L 194.568686 103.612646 
L 194.696229 101.925147 
L 194.951314 101.925147 
L 195.142629 98.550149 
L 195.780343 98.550149 
L 195.907886 95.17515 
L 196.736914 95.17515 
L 196.864457 93.487651 
L 196.992 93.487651 
L 197.119543 91.800152 
L 197.948571 91.800152 
L 198.522514 78.300159 
L 198.905143 78.300159 
L 199.032686 74.925161 
L 199.351543 74.925161 
L 199.479086 73.237662 
L 199.6704 73.237662 
L 199.925486 68.175164 
L 200.1168 68.175164 
L 200.244343 66.487665 
L 201.137143 66.487665 
L 201.264686 69.862663 
L 201.392229 69.862663 
L 201.519771 71.550162 
L 201.966171 71.550162 
L 202.093714 74.925161 
L 202.285029 74.925161 
L 202.412571 76.61266 
L 202.540114 76.61266 
L 202.667657 79.987658 
L 202.986514 79.987658 
L 203.114057 81.675157 
L 203.369143 81.675157 
L 203.496686 83.362656 
L 203.688 83.362656 
L 203.815543 85.050156 
L 204.006857 85.050156 
L 204.1344 86.737655 
L 204.644571 86.737655 
L 204.772114 88.425154 
L 205.601143 88.425154 
L 205.792457 85.050156 
L 205.92 85.050156 
L 206.111314 81.675157 
L 206.238857 81.675157 
L 206.430171 78.300159 
L 206.557714 78.300159 
L 206.685257 76.61266 
L 271.923429 76.61266 
L 272.114743 86.737655 
L 272.178514 86.737655 
L 272.369829 96.862649 
L 272.4336 96.862649 
L 272.624914 106.987644 
L 272.688686 106.987644 
L 272.88 117.112639 
L 272.943771 117.112639 
L 273.135086 128.925133 
L 273.198857 128.925133 
L 273.390171 139.050128 
L 273.453943 139.050128 
L 273.645257 149.175123 
L 273.709029 149.175123 
L 273.900343 159.300118 
L 273.964114 159.300118 
L 274.155429 169.425112 
L 274.2192 169.425112 
L 274.410514 179.550107 
L 274.474286 179.550107 
L 274.6656 189.675102 
L 274.729371 189.675102 
L 274.920686 201.487596 
L 274.984457 201.487596 
L 275.175771 211.612591 
L 275.239543 211.612591 
L 275.430857 221.737586 
L 275.494629 221.737586 
L 275.685943 231.86258 
L 275.749714 231.86258 
L 275.877257 306.112542 
L 276.514971 306.112542 
L 276.706286 309.487541 
L 276.770057 309.487541 
L 276.961371 312.862539 
L 277.025143 312.862539 
L 277.152686 314.550038 
L 277.280229 314.550038 
L 277.471543 317.925036 
L 277.535314 317.925036 
L 277.662857 388.8 
L 335.8224 388.8 
L 336.013714 371.925009 
L 336.077486 371.925009 
L 336.2688 355.050017 
L 336.332571 355.050017 
L 336.523886 338.175026 
L 336.587657 338.175026 
L 336.778971 321.300035 
L 336.842743 321.300035 
L 337.034057 302.737544 
L 337.097829 302.737544 
L 337.289143 285.862553 
L 337.352914 285.862553 
L 337.544229 268.987561 
L 337.608 268.987561 
L 337.735543 260.550066 
L 337.863086 260.550066 
L 337.990629 258.862567 
L 338.245714 258.862567 
L 338.373257 257.175067 
L 338.5008 257.175067 
L 338.692114 253.800069 
L 339.010971 253.800069 
L 339.138514 252.11257 
L 339.266057 252.11257 
L 339.3936 250.425071 
L 339.521143 250.425071 
L 339.648686 248.737572 
L 339.776229 248.737572 
L 339.903771 247.050073 
L 340.158857 247.050073 
L 340.2864 245.362573 
L 340.413943 245.362573 
L 340.541486 243.675074 
L 340.669029 243.675074 
L 340.796571 241.987575 
L 340.924114 241.987575 
L 341.051657 240.300076 
L 341.306743 240.300076 
L 341.434286 238.612577 
L 341.561829 238.612577 
L 341.689371 236.925078 
L 341.944457 236.925078 
L 342.072 235.237579 
L 342.199543 235.237579 
L 342.327086 233.550079 
L 342.582171 233.550079 
L 342.709714 231.86258 
L 342.901029 231.86258 
L 343.028571 228.487582 
L 343.092343 228.487582 
L 343.219886 226.800083 
L 343.4112 226.800083 
L 343.538743 223.425085 
L 343.602514 223.425085 
L 343.793829 220.050086 
L 343.8576 220.050086 
L 344.048914 216.675088 
L 344.112686 216.675088 
L 344.240229 213.30009 
L 344.304 213.30009 
L 344.431543 211.612591 
L 345.579429 211.612591 
L 345.706971 209.925092 
L 346.663543 209.925092 
L 346.854857 206.550093 
L 347.237486 206.550093 
L 347.365029 204.862594 
L 348.002743 204.862594 
L 348.130286 203.175095 
L 349.6608 203.175095 
L 349.788343 201.487596 
L 351.573943 201.487596 
L 351.701486 199.800097 
L 352.721829 199.800097 
L 352.976914 194.737599 
L 353.040686 194.737599 
L 353.168229 193.0501 
L 354.061029 193.0501 
L 354.188571 191.362601 
L 354.252343 191.362601 
L 354.379886 189.675102 
L 354.762514 189.675102 
L 354.953829 186.300104 
L 355.0176 186.300104 
L 355.145143 184.612605 
L 356.293029 184.612605 
L 356.420571 182.925105 
L 357.759771 182.925105 
L 357.887314 181.237606 
L 357.951086 181.237606 
L 358.078629 179.550107 
L 358.1424 179.550107 
L 358.269943 177.862608 
L 360.884571 177.862608 
L 361.012114 179.550107 
L 361.203429 179.550107 
L 361.330971 181.237606 
L 362.478857 181.237606 
L 362.6064 182.925105 
L 362.797714 182.925105 
L 362.925257 184.612605 
L 362.989029 184.612605 
L 363.116571 186.300104 
L 370.131429 186.300104 
L 370.258971 184.612605 
L 370.896686 184.612605 
L 371.024229 182.925105 
L 371.470629 182.925105 
L 371.598171 181.237606 
L 371.853257 181.237606 
L 371.9808 179.550107 
L 373.575086 179.550107 
L 373.702629 177.862608 
L 374.467886 177.862608 
L 374.595429 176.175109 
L 375.488229 176.175109 
L 375.615771 174.48761 
L 376.381029 174.48761 
L 376.508571 172.800111 
L 377.273829 172.800111 
L 377.401371 171.112611 
L 378.039086 171.112611 
L 378.166629 169.425112 
L 379.059429 169.425112 
L 379.186971 167.737613 
L 379.952229 167.737613 
L 380.079771 166.050114 
L 380.717486 166.050114 
L 380.845029 164.362615 
L 381.163886 164.362615 
L 381.3552 160.987617 
L 383.204571 160.987617 
L 383.395886 157.612618 
L 385.053943 157.612618 
L 385.181486 155.925119 
L 385.691657 155.925119 
L 385.8192 154.23762 
L 386.201829 154.23762 
L 386.329371 152.550121 
L 386.839543 152.550121 
L 386.967086 150.862622 
L 387.349714 150.862622 
L 387.477257 149.175123 
L 387.859886 149.175123 
L 387.987429 147.487624 
L 388.242514 147.487624 
L 388.370057 145.800124 
L 388.752686 145.800124 
L 388.880229 144.112625 
L 389.262857 144.112625 
L 389.3904 142.425126 
L 389.645486 142.425126 
L 389.8368 139.050128 
L 390.028114 139.050128 
L 390.155657 137.362629 
L 390.2832 137.362629 
L 390.474514 133.98763 
L 390.538286 133.98763 
L 390.665829 132.300131 
L 390.7296 132.300131 
L 390.857143 130.612632 
L 390.920914 130.612632 
L 391.048457 127.237634 
L 391.176 127.237634 
L 391.367314 123.862636 
L 391.686171 123.862636 
L 391.813714 122.175137 
L 392.0688 122.175137 
L 392.196343 120.487637 
L 393.280457 120.487637 
L 393.408 117.112639 
L 393.599314 117.112639 
L 393.726857 115.42514 
L 393.790629 115.42514 
L 393.918171 113.737641 
L 394.173257 113.737641 
L 394.3008 110.362643 
L 394.428343 110.362643 
L 395.64 79.987658 
L 395.703771 79.987658 
L 395.895086 76.61266 
L 395.958857 76.61266 
L 396.150171 73.237662 
L 396.213943 73.237662 
L 396.341486 71.550162 
L 396.405257 71.550162 
L 396.596571 68.175164 
L 396.660343 68.175164 
L 396.851657 64.800166 
L 396.9792 64.800166 
L 397.106743 61.425168 
L 400.295314 61.425168 
L 400.5504 68.175164 
L 400.741714 78.300159 
L 400.805486 78.300159 
L 400.9968 88.425154 
L 401.060571 88.425154 
L 401.251886 98.550149 
L 401.315657 98.550149 
L 401.570743 113.737641 
L 401.634514 113.737641 
L 401.825829 123.862636 
L 401.8896 123.862636 
L 402.017143 130.612632 
L 402.080914 130.612632 
L 402.272229 140.737627 
L 402.336 140.737627 
L 402.527314 150.862622 
L 402.654857 150.862622 
L 402.846171 160.987617 
L 402.909943 160.987617 
L 403.101257 171.112611 
L 403.165029 171.112611 
L 403.356343 181.237606 
L 403.420114 181.237606 
L 403.611429 191.362601 
L 403.6752 191.362601 
L 404.057829 213.30009 
L 404.1216 213.30009 
L 404.440457 233.550079 
L 404.568 306.112542 
L 405.141943 306.112542 
L 405.4608 312.862539 
L 405.524571 312.862539 
L 405.715886 316.237537 
L 405.843429 316.237537 
L 405.970971 388.8 
L 518.4 388.8 
L 518.4 388.8 
" style="fill:none;stroke:#ff0000;stroke-linecap:square;"/>
   </g>
   <g id="patch_3">
    <path d="M 72 43.2 
L 518.4 43.2 
" style="fill:none;stroke:#000000;stroke-linecap:square;stroke-linejoin:miter;"/>
   </g>
   <g id="patch_4">
    <path d="M 518.4 388.8 
L 518.4 43.2 
" style="fill:none;stroke:#000000;stroke-linecap:square;stroke-linejoin:miter;"/>
   </g>
   <g id="patch_5">
    <path d="M 72 388.8 
L 518.4 388.8 
" style="fill:none;stroke:#000000;stroke-linecap:square;stroke-linejoin:miter;"/>
   </g>
   <g id="patch_6">
    <path d="M 72 388.8 
L 72 43.2 
" style="fill:none;stroke:#000000;stroke-linecap:square;stroke-linejoin:miter;"/>
   </g>
   <g id="matplotlib.axis_1">
    <g id="xtick_1">
     <g id="line2d_3">
      <path clip-path="url(#p174b78b85f)" d="M 72 388.8 
L 72 43.2 
" style="fill:none;stroke:#000000;stroke-dasharray:1.000000,3.000000;stroke-dashoffset:0.0;stroke-width:0.5;"/>
     </g>
     <g id="line2d_4">
      <defs>
       <path d="M 0 0 
L 0 -4 
" id="mb917fdc8e0" style="stroke:#000000;stroke-width:0.5;"/>
      </defs>
      <g>
       <use style="stroke:#000000;stroke-width:0.5;" x="72.0" xlink:href="#mb917fdc8e0" y="388.8"/>
      </g>
     </g>
     <g id="line2d_5">
      <defs>
       <path d="M 0 0 
L 0 4 
" id="m71633b086c" style="stroke:#000000;stroke-width:0.5;"/>
      </defs>
      <g>
       <use style="stroke:#000000;stroke-width:0.5;" x="72.0" xlink:href="#m71633b086c" y="43.2"/>
      </g>
     </g>
     <g id="text_1">
      <!-- 0 -->
      <defs>
       <path d="M 31.78125 66.40625 
Q 24.171875 66.40625 20.328125 58.90625 
Q 16.5 51.421875 16.5 36.375 
Q 16.5 21.390625 20.328125 13.890625 
Q 24.171875 6.390625 31.78125 6.390625 
Q 39.453125 6.390625 43.28125 13.890625 
Q 47.125 21.390625 47.125 36.375 
Q 47.125 51.421875 43.28125 58.90625 
Q 39.453125 66.40625 31.78125 66.40625 
M 31.78125 74.21875 
Q 44.046875 74.21875 50.515625 64.515625 
Q 56.984375 54.828125 56.984375 36.375 
Q 56.984375 17.96875 50.515625 8.265625 
Q 44.046875 -1.421875 31.78125 -1.421875 
Q 19.53125 -1.421875 13.0625 8.265625 
Q 6.59375 17.96875 6.59375 36.375 
Q 6.59375 54.828125 13.0625 64.515625 
Q 19.53125 74.21875 31.78125 74.21875 
" id="BitstreamVeraSans-Roman-30"/>
      </defs>
      <g transform="translate(68.1825 401.918125)scale(0.12 -0.12)">
       <use xlink:href="#BitstreamVeraSans-Roman-30"/>
      </g>
     </g>
    </g>
    <g id="xtick_2">
     <g id="line2d_6">
      <path clip-path="url(#p174b78b85f)" d="M 135.771429 388.8 
L 135.771429 43.2 
" style="fill:none;stroke:#000000;stroke-dasharray:1.000000,3.000000;stroke-dashoffset:0.0;stroke-width:0.5;"/>
     </g>
     <g id="line2d_7">
      <g>
       <use style="stroke:#000000;stroke-width:0.5;" x="135.771428571" xlink:href="#mb917fdc8e0" y="388.8"/>
      </g>
     </g>
     <g id="line2d_8">
      <g>
       <use style="stroke:#000000;stroke-width:0.5;" x="135.771428571" xlink:href="#m71633b086c" y="43.2"/>
      </g>
     </g>
     <g id="text_2">
      <!-- 10 -->
      <defs>
       <path d="M 12.40625 8.296875 
L 28.515625 8.296875 
L 28.515625 63.921875 
L 10.984375 60.40625 
L 10.984375 69.390625 
L 28.421875 72.90625 
L 38.28125 72.90625 
L 38.28125 8.296875 
L 54.390625 8.296875 
L 54.390625 0 
L 12.40625 0 
z
" id="BitstreamVeraSans-Roman-31"/>
      </defs>
      <g transform="translate(128.136428571 401.918125)scale(0.12 -0.12)">
       <use xlink:href="#BitstreamVeraSans-Roman-31"/>
       <use x="63.623046875" xlink:href="#BitstreamVeraSans-Roman-30"/>
      </g>
     </g>
    </g>
    <g id="xtick_3">
     <g id="line2d_9">
      <path clip-path="url(#p174b78b85f)" d="M 199.542857 388.8 
L 199.542857 43.2 
" style="fill:none;stroke:#000000;stroke-dasharray:1.000000,3.000000;stroke-dashoffset:0.0;stroke-width:0.5;"/>
     </g>
     <g id="line2d_10">
      <g>
       <use style="stroke:#000000;stroke-width:0.5;" x="199.542857143" xlink:href="#mb917fdc8e0" y="388.8"/>
      </g>
     </g>
     <g id="line2d_11">
      <g>
       <use style="stroke:#000000;stroke-width:0.5;" x="199.542857143" xlink:href="#m71633b086c" y="43.2"/>
      </g>
     </g>
     <g id="text_3">
      <!-- 20 -->
      <defs>
       <path d="M 19.1875 8.296875 
L 53.609375 8.296875 
L 53.609375 0 
L 7.328125 0 
L 7.328125 8.296875 
Q 12.9375 14.109375 22.625 23.890625 
Q 32.328125 33.6875 34.8125 36.53125 
Q 39.546875 41.84375 41.421875 45.53125 
Q 43.3125 49.21875 43.3125 52.78125 
Q 43.3125 58.59375 39.234375 62.25 
Q 35.15625 65.921875 28.609375 65.921875 
Q 23.96875 65.921875 18.8125 64.3125 
Q 13.671875 62.703125 7.8125 59.421875 
L 7.8125 69.390625 
Q 13.765625 71.78125 18.9375 73 
Q 24.125 74.21875 28.421875 74.21875 
Q 39.75 74.21875 46.484375 68.546875 
Q 53.21875 62.890625 53.21875 53.421875 
Q 53.21875 48.921875 51.53125 44.890625 
Q 49.859375 40.875 45.40625 35.40625 
Q 44.1875 33.984375 37.640625 27.21875 
Q 31.109375 20.453125 19.1875 8.296875 
" id="BitstreamVeraSans-Roman-32"/>
      </defs>
      <g transform="translate(191.907857143 401.918125)scale(0.12 -0.12)">
       <use xlink:href="#BitstreamVeraSans-Roman-32"/>
       <use x="63.623046875" xlink:href="#BitstreamVeraSans-Roman-30"/>
      </g>
     </g>
    </g>
    <g id="xtick_4">
     <g id="line2d_12">
      <path clip-path="url(#p174b78b85f)" d="M 263.314286 388.8 
L 263.314286 43.2 
" style="fill:none;stroke:#000000;stroke-dasharray:1.000000,3.000000;stroke-dashoffset:0.0;stroke-width:0.5;"/>
     </g>
     <g id="line2d_13">
      <g>
       <use style="stroke:#000000;stroke-width:0.5;" x="263.314285714" xlink:href="#mb917fdc8e0" y="388.8"/>
      </g>
     </g>
     <g id="line2d_14">
      <g>
       <use style="stroke:#000000;stroke-width:0.5;" x="263.314285714" xlink:href="#m71633b086c" y="43.2"/>
      </g>
     </g>
     <g id="text_4">
      <!-- 30 -->
      <defs>
       <path d="M 40.578125 39.3125 
Q 47.65625 37.796875 51.625 33 
Q 55.609375 28.21875 55.609375 21.1875 
Q 55.609375 10.40625 48.1875 4.484375 
Q 40.765625 -1.421875 27.09375 -1.421875 
Q 22.515625 -1.421875 17.65625 -0.515625 
Q 12.796875 0.390625 7.625 2.203125 
L 7.625 11.71875 
Q 11.71875 9.328125 16.59375 8.109375 
Q 21.484375 6.890625 26.8125 6.890625 
Q 36.078125 6.890625 40.9375 10.546875 
Q 45.796875 14.203125 45.796875 21.1875 
Q 45.796875 27.640625 41.28125 31.265625 
Q 36.765625 34.90625 28.71875 34.90625 
L 20.21875 34.90625 
L 20.21875 43.015625 
L 29.109375 43.015625 
Q 36.375 43.015625 40.234375 45.921875 
Q 44.09375 48.828125 44.09375 54.296875 
Q 44.09375 59.90625 40.109375 62.90625 
Q 36.140625 65.921875 28.71875 65.921875 
Q 24.65625 65.921875 20.015625 65.03125 
Q 15.375 64.15625 9.8125 62.3125 
L 9.8125 71.09375 
Q 15.4375 72.65625 20.34375 73.4375 
Q 25.25 74.21875 29.59375 74.21875 
Q 40.828125 74.21875 47.359375 69.109375 
Q 53.90625 64.015625 53.90625 55.328125 
Q 53.90625 49.265625 50.4375 45.09375 
Q 46.96875 40.921875 40.578125 39.3125 
" id="BitstreamVeraSans-Roman-33"/>
      </defs>
      <g transform="translate(255.679285714 401.918125)scale(0.12 -0.12)">
       <use xlink:href="#BitstreamVeraSans-Roman-33"/>
       <use x="63.623046875" xlink:href="#BitstreamVeraSans-Roman-30"/>
      </g>
     </g>
    </g>
    <g id="xtick_5">
     <g id="line2d_15">
      <path clip-path="url(#p174b78b85f)" d="M 327.085714 388.8 
L 327.085714 43.2 
" style="fill:none;stroke:#000000;stroke-dasharray:1.000000,3.000000;stroke-dashoffset:0.0;stroke-width:0.5;"/>
     </g>
     <g id="line2d_16">
      <g>
       <use style="stroke:#000000;stroke-width:0.5;" x="327.085714286" xlink:href="#mb917fdc8e0" y="388.8"/>
      </g>
     </g>
     <g id="line2d_17">
      <g>
       <use style="stroke:#000000;stroke-width:0.5;" x="327.085714286" xlink:href="#m71633b086c" y="43.2"/>
      </g>
     </g>
     <g id="text_5">
      <!-- 40 -->
      <defs>
       <path d="M 37.796875 64.3125 
L 12.890625 25.390625 
L 37.796875 25.390625 
z
M 35.203125 72.90625 
L 47.609375 72.90625 
L 47.609375 25.390625 
L 58.015625 25.390625 
L 58.015625 17.1875 
L 47.609375 17.1875 
L 47.609375 0 
L 37.796875 0 
L 37.796875 17.1875 
L 4.890625 17.1875 
L 4.890625 26.703125 
z
" id="BitstreamVeraSans-Roman-34"/>
      </defs>
      <g transform="translate(319.450714286 401.918125)scale(0.12 -0.12)">
       <use xlink:href="#BitstreamVeraSans-Roman-34"/>
       <use x="63.623046875" xlink:href="#BitstreamVeraSans-Roman-30"/>
      </g>
     </g>
    </g>
    <g id="xtick_6">
     <g id="line2d_18">
      <path clip-path="url(#p174b78b85f)" d="M 390.857143 388.8 
L 390.857143 43.2 
" style="fill:none;stroke:#000000;stroke-dasharray:1.000000,3.000000;stroke-dashoffset:0.0;stroke-width:0.5;"/>
     </g>
     <g id="line2d_19">
      <g>
       <use style="stroke:#000000;stroke-width:0.5;" x="390.857142857" xlink:href="#mb917fdc8e0" y="388.8"/>
      </g>
     </g>
     <g id="line2d_20">
      <g>
       <use style="stroke:#000000;stroke-width:0.5;" x="390.857142857" xlink:href="#m71633b086c" y="43.2"/>
      </g>
     </g>
     <g id="text_6">
      <!-- 50 -->
      <defs>
       <path d="M 10.796875 72.90625 
L 49.515625 72.90625 
L 49.515625 64.59375 
L 19.828125 64.59375 
L 19.828125 46.734375 
Q 21.96875 47.46875 24.109375 47.828125 
Q 26.265625 48.1875 28.421875 48.1875 
Q 40.625 48.1875 47.75 41.5 
Q 54.890625 34.8125 54.890625 23.390625 
Q 54.890625 11.625 47.5625 5.09375 
Q 40.234375 -1.421875 26.90625 -1.421875 
Q 22.3125 -1.421875 17.546875 -0.640625 
Q 12.796875 0.140625 7.71875 1.703125 
L 7.71875 11.625 
Q 12.109375 9.234375 16.796875 8.0625 
Q 21.484375 6.890625 26.703125 6.890625 
Q 35.15625 6.890625 40.078125 11.328125 
Q 45.015625 15.765625 45.015625 23.390625 
Q 45.015625 31 40.078125 35.4375 
Q 35.15625 39.890625 26.703125 39.890625 
Q 22.75 39.890625 18.8125 39.015625 
Q 14.890625 38.140625 10.796875 36.28125 
z
" id="BitstreamVeraSans-Roman-35"/>
      </defs>
      <g transform="translate(383.222142857 401.918125)scale(0.12 -0.12)">
       <use xlink:href="#BitstreamVeraSans-Roman-35"/>
       <use x="63.623046875" xlink:href="#BitstreamVeraSans-Roman-30"/>
      </g>
     </g>
    </g>
    <g id="xtick_7">
     <g id="line2d_21">
      <path clip-path="url(#p174b78b85f)" d="M 454.628571 388.8 
L 454.628571 43.2 
" style="fill:none;stroke:#000000;stroke-dasharray:1.000000,3.000000;stroke-dashoffset:0.0;stroke-width:0.5;"/>
     </g>
     <g id="line2d_22">
      <g>
       <use style="stroke:#000000;stroke-width:0.5;" x="454.628571429" xlink:href="#mb917fdc8e0" y="388.8"/>
      </g>
     </g>
     <g id="line2d_23">
      <g>
       <use style="stroke:#000000;stroke-width:0.5;" x="454.628571429" xlink:href="#m71633b086c" y="43.2"/>
      </g>
     </g>
     <g id="text_7">
      <!-- 60 -->
      <defs>
       <path d="M 33.015625 40.375 
Q 26.375 40.375 22.484375 35.828125 
Q 18.609375 31.296875 18.609375 23.390625 
Q 18.609375 15.53125 22.484375 10.953125 
Q 26.375 6.390625 33.015625 6.390625 
Q 39.65625 6.390625 43.53125 10.953125 
Q 47.40625 15.53125 47.40625 23.390625 
Q 47.40625 31.296875 43.53125 35.828125 
Q 39.65625 40.375 33.015625 40.375 
M 52.59375 71.296875 
L 52.59375 62.3125 
Q 48.875 64.0625 45.09375 64.984375 
Q 41.3125 65.921875 37.59375 65.921875 
Q 27.828125 65.921875 22.671875 59.328125 
Q 17.53125 52.734375 16.796875 39.40625 
Q 19.671875 43.65625 24.015625 45.921875 
Q 28.375 48.1875 33.59375 48.1875 
Q 44.578125 48.1875 50.953125 41.515625 
Q 57.328125 34.859375 57.328125 23.390625 
Q 57.328125 12.15625 50.6875 5.359375 
Q 44.046875 -1.421875 33.015625 -1.421875 
Q 20.359375 -1.421875 13.671875 8.265625 
Q 6.984375 17.96875 6.984375 36.375 
Q 6.984375 53.65625 15.1875 63.9375 
Q 23.390625 74.21875 37.203125 74.21875 
Q 40.921875 74.21875 44.703125 73.484375 
Q 48.484375 72.75 52.59375 71.296875 
" id="BitstreamVeraSans-Roman-36"/>
      </defs>
      <g transform="translate(446.993571429 401.918125)scale(0.12 -0.12)">
       <use xlink:href="#BitstreamVeraSans-Roman-36"/>
       <use x="63.623046875" xlink:href="#BitstreamVeraSans-Roman-30"/>
      </g>
     </g>
    </g>
    <g id="xtick_8">
     <g id="line2d_24">
      <path clip-path="url(#p174b78b85f)" d="M 518.4 388.8 
L 518.4 43.2 
" style="fill:none;stroke:#000000;stroke-dasharray:1.000000,3.000000;stroke-dashoffset:0.0;stroke-width:0.5;"/>
     </g>
     <g id="line2d_25">
      <g>
       <use style="stroke:#000000;stroke-width:0.5;" x="518.4" xlink:href="#mb917fdc8e0" y="388.8"/>
      </g>
     </g>
     <g id="line2d_26">
      <g>
       <use style="stroke:#000000;stroke-width:0.5;" x="518.4" xlink:href="#m71633b086c" y="43.2"/>
      </g>
     </g>
     <g id="text_8">
      <!-- 70 -->
      <defs>
       <path d="M 8.203125 72.90625 
L 55.078125 72.90625 
L 55.078125 68.703125 
L 28.609375 0 
L 18.3125 0 
L 43.21875 64.59375 
L 8.203125 64.59375 
z
" id="BitstreamVeraSans-Roman-37"/>
      </defs>
      <g transform="translate(510.765 401.918125)scale(0.12 -0.12)">
       <use xlink:href="#BitstreamVeraSans-Roman-37"/>
       <use x="63.623046875" xlink:href="#BitstreamVeraSans-Roman-30"/>
      </g>
     </g>
    </g>
    <g id="text_9">
     <!-- Time [s] -->
     <defs>
      <path id="BitstreamVeraSans-Roman-20"/>
      <path d="M 8.59375 75.984375 
L 29.296875 75.984375 
L 29.296875 69 
L 17.578125 69 
L 17.578125 -6.203125 
L 29.296875 -6.203125 
L 29.296875 -13.1875 
L 8.59375 -13.1875 
z
" id="BitstreamVeraSans-Roman-5b"/>
      <path d="M 30.421875 75.984375 
L 30.421875 -13.1875 
L 9.71875 -13.1875 
L 9.71875 -6.203125 
L 21.390625 -6.203125 
L 21.390625 69 
L 9.71875 69 
L 9.71875 75.984375 
z
" id="BitstreamVeraSans-Roman-5d"/>
      <path d="M 52 44.1875 
Q 55.375 50.25 60.0625 53.125 
Q 64.75 56 71.09375 56 
Q 79.640625 56 84.28125 50.015625 
Q 88.921875 44.046875 88.921875 33.015625 
L 88.921875 0 
L 79.890625 0 
L 79.890625 32.71875 
Q 79.890625 40.578125 77.09375 44.375 
Q 74.3125 48.1875 68.609375 48.1875 
Q 61.625 48.1875 57.5625 43.546875 
Q 53.515625 38.921875 53.515625 30.90625 
L 53.515625 0 
L 44.484375 0 
L 44.484375 32.71875 
Q 44.484375 40.625 41.703125 44.40625 
Q 38.921875 48.1875 33.109375 48.1875 
Q 26.21875 48.1875 22.15625 43.53125 
Q 18.109375 38.875 18.109375 30.90625 
L 18.109375 0 
L 9.078125 0 
L 9.078125 54.6875 
L 18.109375 54.6875 
L 18.109375 46.1875 
Q 21.1875 51.21875 25.484375 53.609375 
Q 29.78125 56 35.6875 56 
Q 41.65625 56 45.828125 52.96875 
Q 50 49.953125 52 44.1875 
" id="BitstreamVeraSans-Roman-6d"/>
      <path d="M 9.421875 54.6875 
L 18.40625 54.6875 
L 18.40625 0 
L 9.421875 0 
z
M 9.421875 75.984375 
L 18.40625 75.984375 
L 18.40625 64.59375 
L 9.421875 64.59375 
z
" id="BitstreamVeraSans-Roman-69"/>
      <path d="M 56.203125 29.59375 
L 56.203125 25.203125 
L 14.890625 25.203125 
Q 15.484375 15.921875 20.484375 11.0625 
Q 25.484375 6.203125 34.421875 6.203125 
Q 39.59375 6.203125 44.453125 7.46875 
Q 49.3125 8.734375 54.109375 11.28125 
L 54.109375 2.78125 
Q 49.265625 0.734375 44.1875 -0.34375 
Q 39.109375 -1.421875 33.890625 -1.421875 
Q 20.796875 -1.421875 13.15625 6.1875 
Q 5.515625 13.8125 5.515625 26.8125 
Q 5.515625 40.234375 12.765625 48.109375 
Q 20.015625 56 32.328125 56 
Q 43.359375 56 49.78125 48.890625 
Q 56.203125 41.796875 56.203125 29.59375 
M 47.21875 32.234375 
Q 47.125 39.59375 43.09375 43.984375 
Q 39.0625 48.390625 32.421875 48.390625 
Q 24.90625 48.390625 20.390625 44.140625 
Q 15.875 39.890625 15.1875 32.171875 
z
" id="BitstreamVeraSans-Roman-65"/>
      <path d="M -0.296875 72.90625 
L 61.375 72.90625 
L 61.375 64.59375 
L 35.5 64.59375 
L 35.5 0 
L 25.59375 0 
L 25.59375 64.59375 
L -0.296875 64.59375 
z
" id="BitstreamVeraSans-Roman-54"/>
      <path d="M 44.28125 53.078125 
L 44.28125 44.578125 
Q 40.484375 46.53125 36.375 47.5 
Q 32.28125 48.484375 27.875 48.484375 
Q 21.1875 48.484375 17.84375 46.4375 
Q 14.5 44.390625 14.5 40.28125 
Q 14.5 37.15625 16.890625 35.375 
Q 19.28125 33.59375 26.515625 31.984375 
L 29.59375 31.296875 
Q 39.15625 29.25 43.1875 25.515625 
Q 47.21875 21.78125 47.21875 15.09375 
Q 47.21875 7.46875 41.1875 3.015625 
Q 35.15625 -1.421875 24.609375 -1.421875 
Q 20.21875 -1.421875 15.453125 -0.5625 
Q 10.6875 0.296875 5.421875 2 
L 5.421875 11.28125 
Q 10.40625 8.6875 15.234375 7.390625 
Q 20.0625 6.109375 24.8125 6.109375 
Q 31.15625 6.109375 34.5625 8.28125 
Q 37.984375 10.453125 37.984375 14.40625 
Q 37.984375 18.0625 35.515625 20.015625 
Q 33.0625 21.96875 24.703125 23.78125 
L 21.578125 24.515625 
Q 13.234375 26.265625 9.515625 29.90625 
Q 5.8125 33.546875 5.8125 39.890625 
Q 5.8125 47.609375 11.28125 51.796875 
Q 16.75 56 26.8125 56 
Q 31.78125 56 36.171875 55.265625 
Q 40.578125 54.546875 44.28125 53.078125 
" id="BitstreamVeraSans-Roman-73"/>
     </defs>
     <g transform="translate(270.620625 418.531875)scale(0.12 -0.12)">
      <use xlink:href="#BitstreamVeraSans-Roman-54"/>
      <use x="61.037109375" xlink:href="#BitstreamVeraSans-Roman-69"/>
      <use x="88.8203125" xlink:href="#BitstreamVeraSans-Roman-6d"/>
      <use x="186.232421875" xlink:href="#BitstreamVeraSans-Roman-65"/>
      <use x="247.755859375" xlink:href="#BitstreamVeraSans-Roman-20"/>
      <use x="279.54296875" xlink:href="#BitstreamVeraSans-Roman-5b"/>
      <use x="318.556640625" xlink:href="#BitstreamVeraSans-Roman-73"/>
      <use x="370.65625" xlink:href="#BitstreamVeraSans-Roman-5d"/>
     </g>
    </g>
   </g>
   <g id="matplotlib.axis_2">
    <g id="ytick_1">
     <g id="line2d_27">
      <path clip-path="url(#p174b78b85f)" d="M 72 388.8 
L 518.4 388.8 
" style="fill:none;stroke:#000000;stroke-dasharray:1.000000,3.000000;stroke-dashoffset:0.0;stroke-width:0.5;"/>
     </g>
     <g id="line2d_28">
      <defs>
       <path d="M 0 0 
L 4 0 
" id="m753b75daad" style="stroke:#000000;stroke-width:0.5;"/>
      </defs>
      <g>
       <use style="stroke:#000000;stroke-width:0.5;" x="72.0" xlink:href="#m753b75daad" y="388.8"/>
      </g>
     </g>
     <g id="line2d_29">
      <defs>
       <path d="M 0 0 
L -4 0 
" id="me260fa00a6" style="stroke:#000000;stroke-width:0.5;"/>
      </defs>
      <g>
       <use style="stroke:#000000;stroke-width:0.5;" x="518.4" xlink:href="#me260fa00a6" y="388.8"/>
      </g>
     </g>
     <g id="text_10">
      <!-- 0.0 -->
      <defs>
       <path d="M 10.6875 12.40625 
L 21 12.40625 
L 21 0 
L 10.6875 0 
z
" id="BitstreamVeraSans-Roman-2e"/>
      </defs>
      <g transform="translate(48.91625 392.11125)scale(0.12 -0.12)">
       <use xlink:href="#BitstreamVeraSans-Roman-30"/>
       <use x="63.623046875" xlink:href="#BitstreamVeraSans-Roman-2e"/>
       <use x="95.41015625" xlink:href="#BitstreamVeraSans-Roman-30"/>
      </g>
     </g>
    </g>
    <g id="ytick_2">
     <g id="line2d_30">
      <path clip-path="url(#p174b78b85f)" d="M 72 345.6 
L 518.4 345.6 
" style="fill:none;stroke:#000000;stroke-dasharray:1.000000,3.000000;stroke-dashoffset:0.0;stroke-width:0.5;"/>
     </g>
     <g id="line2d_31">
      <g>
       <use style="stroke:#000000;stroke-width:0.5;" x="72.0" xlink:href="#m753b75daad" y="345.6"/>
      </g>
     </g>
     <g id="line2d_32">
      <g>
       <use style="stroke:#000000;stroke-width:0.5;" x="518.4" xlink:href="#me260fa00a6" y="345.6"/>
      </g>
     </g>
     <g id="text_11">
      <!-- 0.1 -->
      <g transform="translate(48.91625 348.91125)scale(0.12 -0.12)">
       <use xlink:href="#BitstreamVeraSans-Roman-30"/>
       <use x="63.623046875" xlink:href="#BitstreamVeraSans-Roman-2e"/>
       <use x="95.41015625" xlink:href="#BitstreamVeraSans-Roman-31"/>
      </g>
     </g>
    </g>
    <g id="ytick_3">
     <g id="line2d_33">
      <path clip-path="url(#p174b78b85f)" d="M 72 302.4 
L 518.4 302.4 
" style="fill:none;stroke:#000000;stroke-dasharray:1.000000,3.000000;stroke-dashoffset:0.0;stroke-width:0.5;"/>
     </g>
     <g id="line2d_34">
      <g>
       <use style="stroke:#000000;stroke-width:0.5;" x="72.0" xlink:href="#m753b75daad" y="302.4"/>
      </g>
     </g>
     <g id="line2d_35">
      <g>
       <use style="stroke:#000000;stroke-width:0.5;" x="518.4" xlink:href="#me260fa00a6" y="302.4"/>
      </g>
     </g>
     <g id="text_12">
      <!-- 0.2 -->
      <g transform="translate(48.91625 305.71125)scale(0.12 -0.12)">
       <use xlink:href="#BitstreamVeraSans-Roman-30"/>
       <use x="63.623046875" xlink:href="#BitstreamVeraSans-Roman-2e"/>
       <use x="95.41015625" xlink:href="#BitstreamVeraSans-Roman-32"/>
      </g>
     </g>
    </g>
    <g id="ytick_4">
     <g id="line2d_36">
      <path clip-path="url(#p174b78b85f)" d="M 72 259.2 
L 518.4 259.2 
" style="fill:none;stroke:#000000;stroke-dasharray:1.000000,3.000000;stroke-dashoffset:0.0;stroke-width:0.5;"/>
     </g>
     <g id="line2d_37">
      <g>
       <use style="stroke:#000000;stroke-width:0.5;" x="72.0" xlink:href="#m753b75daad" y="259.2"/>
      </g>
     </g>
     <g id="line2d_38">
      <g>
       <use style="stroke:#000000;stroke-width:0.5;" x="518.4" xlink:href="#me260fa00a6" y="259.2"/>
      </g>
     </g>
     <g id="text_13">
      <!-- 0.3 -->
      <g transform="translate(48.91625 262.51125)scale(0.12 -0.12)">
       <use xlink:href="#BitstreamVeraSans-Roman-30"/>
       <use x="63.623046875" xlink:href="#BitstreamVeraSans-Roman-2e"/>
       <use x="95.41015625" xlink:href="#BitstreamVeraSans-Roman-33"/>
      </g>
     </g>
    </g>
    <g id="ytick_5">
     <g id="line2d_39">
      <path clip-path="url(#p174b78b85f)" d="M 72 216 
L 518.4 216 
" style="fill:none;stroke:#000000;stroke-dasharray:1.000000,3.000000;stroke-dashoffset:0.0;stroke-width:0.5;"/>
     </g>
     <g id="line2d_40">
      <g>
       <use style="stroke:#000000;stroke-width:0.5;" x="72.0" xlink:href="#m753b75daad" y="216.0"/>
      </g>
     </g>
     <g id="line2d_41">
      <g>
       <use style="stroke:#000000;stroke-width:0.5;" x="518.4" xlink:href="#me260fa00a6" y="216.0"/>
      </g>
     </g>
     <g id="text_14">
      <!-- 0.4 -->
      <g transform="translate(48.91625 219.31125)scale(0.12 -0.12)">
       <use xlink:href="#BitstreamVeraSans-Roman-30"/>
       <use x="63.623046875" xlink:href="#BitstreamVeraSans-Roman-2e"/>
       <use x="95.41015625" xlink:href="#BitstreamVeraSans-Roman-34"/>
      </g>
     </g>
    </g>
    <g id="ytick_6">
     <g id="line2d_42">
      <path clip-path="url(#p174b78b85f)" d="M 72 172.8 
L 518.4 172.8 
" style="fill:none;stroke:#000000;stroke-dasharray:1.000000,3.000000;stroke-dashoffset:0.0;stroke-width:0.5;"/>
     </g>
     <g id="line2d_43">
      <g>
       <use style="stroke:#000000;stroke-width:0.5;" x="72.0" xlink:href="#m753b75daad" y="172.8"/>
      </g>
     </g>
     <g id="line2d_44">
      <g>
       <use style="stroke:#000000;stroke-width:0.5;" x="518.4" xlink:href="#me260fa00a6" y="172.8"/>
      </g>
     </g>
     <g id="text_15">
      <!-- 0.5 -->
      <g transform="translate(48.91625 176.11125)scale(0.12 -0.12)">
       <use xlink:href="#BitstreamVeraSans-Roman-30"/>
       <use x="63.623046875" xlink:href="#BitstreamVeraSans-Roman-2e"/>
       <use x="95.41015625" xlink:href="#BitstreamVeraSans-Roman-35"/>
      </g>
     </g>
    </g>
    <g id="ytick_7">
     <g id="line2d_45">
      <path clip-path="url(#p174b78b85f)" d="M 72 129.6 
L 518.4 129.6 
" style="fill:none;stroke:#000000;stroke-dasharray:1.000000,3.000000;stroke-dashoffset:0.0;stroke-width:0.5;"/>
     </g>
     <g id="line2d_46">
      <g>
       <use style="stroke:#000000;stroke-width:0.5;" x="72.0" xlink:href="#m753b75daad" y="129.6"/>
      </g>
     </g>
     <g id="line2d_47">
      <g>
       <use style="stroke:#000000;stroke-width:0.5;" x="518.4" xlink:href="#me260fa00a6" y="129.6"/>
      </g>
     </g>
     <g id="text_16">
      <!-- 0.6 -->
      <g transform="translate(48.91625 132.91125)scale(0.12 -0.12)">
       <use xlink:href="#BitstreamVeraSans-Roman-30"/>
       <use x="63.623046875" xlink:href="#BitstreamVeraSans-Roman-2e"/>
       <use x="95.41015625" xlink:href="#BitstreamVeraSans-Roman-36"/>
      </g>
     </g>
    </g>
    <g id="ytick_8">
     <g id="line2d_48">
      <path clip-path="url(#p174b78b85f)" d="M 72 86.4 
L 518.4 86.4 
" style="fill:none;stroke:#000000;stroke-dasharray:1.000000,3.000000;stroke-dashoffset:0.0;stroke-width:0.5;"/>
     </g>
     <g id="line2d_49">
      <g>
       <use style="stroke:#000000;stroke-width:0.5;" x="72.0" xlink:href="#m753b75daad" y="86.4"/>
      </g>
     </g>
     <g id="line2d_50">
      <g>
       <use style="stroke:#000000;stroke-width:0.5;" x="518.4" xlink:href="#me260fa00a6" y="86.4"/>
      </g>
     </g>
     <g id="text_17">
      <!-- 0.7 -->
      <g transform="translate(48.91625 89.71125)scale(0.12 -0.12)">
       <use xlink:href="#BitstreamVeraSans-Roman-30"/>
       <use x="63.623046875" xlink:href="#BitstreamVeraSans-Roman-2e"/>
       <use x="95.41015625" xlink:href="#BitstreamVeraSans-Roman-37"/>
      </g>
     </g>
    </g>
    <g id="ytick_9">
     <g id="line2d_51">
      <path clip-path="url(#p174b78b85f)" d="M 72 43.2 
L 518.4 43.2 
" style="fill:none;stroke:#000000;stroke-dasharray:1.000000,3.000000;stroke-dashoffset:0.0;stroke-width:0.5;"/>
     </g>
     <g id="line2d_52">
      <g>
       <use style="stroke:#000000;stroke-width:0.5;" x="72.0" xlink:href="#m753b75daad" y="43.2"/>
      </g>
     </g>
     <g id="line2d_53">
      <g>
       <use style="stroke:#000000;stroke-width:0.5;" x="518.4" xlink:href="#me260fa00a6" y="43.2"/>
      </g>
     </g>
     <g id="text_18">
      <!-- 0.8 -->
      <defs>
       <path d="M 31.78125 34.625 
Q 24.75 34.625 20.71875 30.859375 
Q 16.703125 27.09375 16.703125 20.515625 
Q 16.703125 13.921875 20.71875 10.15625 
Q 24.75 6.390625 31.78125 6.390625 
Q 38.8125 6.390625 42.859375 10.171875 
Q 46.921875 13.96875 46.921875 20.515625 
Q 46.921875 27.09375 42.890625 30.859375 
Q 38.875 34.625 31.78125 34.625 
M 21.921875 38.8125 
Q 15.578125 40.375 12.03125 44.71875 
Q 8.5 49.078125 8.5 55.328125 
Q 8.5 64.0625 14.71875 69.140625 
Q 20.953125 74.21875 31.78125 74.21875 
Q 42.671875 74.21875 48.875 69.140625 
Q 55.078125 64.0625 55.078125 55.328125 
Q 55.078125 49.078125 51.53125 44.71875 
Q 48 40.375 41.703125 38.8125 
Q 48.828125 37.15625 52.796875 32.3125 
Q 56.78125 27.484375 56.78125 20.515625 
Q 56.78125 9.90625 50.3125 4.234375 
Q 43.84375 -1.421875 31.78125 -1.421875 
Q 19.734375 -1.421875 13.25 4.234375 
Q 6.78125 9.90625 6.78125 20.515625 
Q 6.78125 27.484375 10.78125 32.3125 
Q 14.796875 37.15625 21.921875 38.8125 
M 18.3125 54.390625 
Q 18.3125 48.734375 21.84375 45.5625 
Q 25.390625 42.390625 31.78125 42.390625 
Q 38.140625 42.390625 41.71875 45.5625 
Q 45.3125 48.734375 45.3125 54.390625 
Q 45.3125 60.0625 41.71875 63.234375 
Q 38.140625 66.40625 31.78125 66.40625 
Q 25.390625 66.40625 21.84375 63.234375 
Q 18.3125 60.0625 18.3125 54.390625 
" id="BitstreamVeraSans-Roman-38"/>
      </defs>
      <g transform="translate(48.91625 46.51125)scale(0.12 -0.12)">
       <use xlink:href="#BitstreamVeraSans-Roman-30"/>
       <use x="63.623046875" xlink:href="#BitstreamVeraSans-Roman-2e"/>
       <use x="95.41015625" xlink:href="#BitstreamVeraSans-Roman-38"/>
      </g>
     </g>
    </g>
    <g id="text_19">
     <!-- Pedal [] -->
     <defs>
      <path d="M 19.671875 64.796875 
L 19.671875 37.40625 
L 32.078125 37.40625 
Q 38.96875 37.40625 42.71875 40.96875 
Q 46.484375 44.53125 46.484375 51.125 
Q 46.484375 57.671875 42.71875 61.234375 
Q 38.96875 64.796875 32.078125 64.796875 
z
M 9.8125 72.90625 
L 32.078125 72.90625 
Q 44.34375 72.90625 50.609375 67.359375 
Q 56.890625 61.8125 56.890625 51.125 
Q 56.890625 40.328125 50.609375 34.8125 
Q 44.34375 29.296875 32.078125 29.296875 
L 19.671875 29.296875 
L 19.671875 0 
L 9.8125 0 
z
" id="BitstreamVeraSans-Roman-50"/>
      <path d="M 45.40625 46.390625 
L 45.40625 75.984375 
L 54.390625 75.984375 
L 54.390625 0 
L 45.40625 0 
L 45.40625 8.203125 
Q 42.578125 3.328125 38.25 0.953125 
Q 33.9375 -1.421875 27.875 -1.421875 
Q 17.96875 -1.421875 11.734375 6.484375 
Q 5.515625 14.40625 5.515625 27.296875 
Q 5.515625 40.1875 11.734375 48.09375 
Q 17.96875 56 27.875 56 
Q 33.9375 56 38.25 53.625 
Q 42.578125 51.265625 45.40625 46.390625 
M 14.796875 27.296875 
Q 14.796875 17.390625 18.875 11.75 
Q 22.953125 6.109375 30.078125 6.109375 
Q 37.203125 6.109375 41.296875 11.75 
Q 45.40625 17.390625 45.40625 27.296875 
Q 45.40625 37.203125 41.296875 42.84375 
Q 37.203125 48.484375 30.078125 48.484375 
Q 22.953125 48.484375 18.875 42.84375 
Q 14.796875 37.203125 14.796875 27.296875 
" id="BitstreamVeraSans-Roman-64"/>
      <path d="M 34.28125 27.484375 
Q 23.390625 27.484375 19.1875 25 
Q 14.984375 22.515625 14.984375 16.5 
Q 14.984375 11.71875 18.140625 8.90625 
Q 21.296875 6.109375 26.703125 6.109375 
Q 34.1875 6.109375 38.703125 11.40625 
Q 43.21875 16.703125 43.21875 25.484375 
L 43.21875 27.484375 
z
M 52.203125 31.203125 
L 52.203125 0 
L 43.21875 0 
L 43.21875 8.296875 
Q 40.140625 3.328125 35.546875 0.953125 
Q 30.953125 -1.421875 24.3125 -1.421875 
Q 15.921875 -1.421875 10.953125 3.296875 
Q 6 8.015625 6 15.921875 
Q 6 25.140625 12.171875 29.828125 
Q 18.359375 34.515625 30.609375 34.515625 
L 43.21875 34.515625 
L 43.21875 35.40625 
Q 43.21875 41.609375 39.140625 45 
Q 35.0625 48.390625 27.6875 48.390625 
Q 23 48.390625 18.546875 47.265625 
Q 14.109375 46.140625 10.015625 43.890625 
L 10.015625 52.203125 
Q 14.9375 54.109375 19.578125 55.046875 
Q 24.21875 56 28.609375 56 
Q 40.484375 56 46.34375 49.84375 
Q 52.203125 43.703125 52.203125 31.203125 
" id="BitstreamVeraSans-Roman-61"/>
      <path d="M 9.421875 75.984375 
L 18.40625 75.984375 
L 18.40625 0 
L 9.421875 0 
z
" id="BitstreamVeraSans-Roman-6c"/>
     </defs>
     <g transform="translate(41.420625 239.0484375)rotate(-90.0)scale(0.12 -0.12)">
      <use xlink:href="#BitstreamVeraSans-Roman-50"/>
      <use x="60.255859375" xlink:href="#BitstreamVeraSans-Roman-65"/>
      <use x="121.779296875" xlink:href="#BitstreamVeraSans-Roman-64"/>
      <use x="185.255859375" xlink:href="#BitstreamVeraSans-Roman-61"/>
      <use x="246.53515625" xlink:href="#BitstreamVeraSans-Roman-6c"/>
      <use x="274.318359375" xlink:href="#BitstreamVeraSans-Roman-20"/>
      <use x="306.10546875" xlink:href="#BitstreamVeraSans-Roman-5b"/>
      <use x="345.119140625" xlink:href="#BitstreamVeraSans-Roman-5d"/>
     </g>
    </g>
   </g>
   <g id="legend_1">
    <g id="patch_7">
     <path d="M 372.99825 239.2965 
L 511.2 239.2965 
L 511.2 192.7035 
L 372.99825 192.7035 
z
" style="fill:#ffffff;stroke:#000000;stroke-linejoin:miter;"/>
    </g>
    <g id="line2d_54">
     <path d="M 383.07825 204.36525 
L 403.23825 204.36525 
" style="fill:none;stroke:#008000;stroke-linecap:square;"/>
    </g>
    <g id="line2d_55"/>
    <g id="text_20">
     <!-- Gas pedal -->
     <defs>
      <path d="M 59.515625 10.40625 
L 59.515625 29.984375 
L 43.40625 29.984375 
L 43.40625 38.09375 
L 69.28125 38.09375 
L 69.28125 6.78125 
Q 63.578125 2.734375 56.6875 0.65625 
Q 49.8125 -1.421875 42 -1.421875 
Q 24.90625 -1.421875 15.25 8.5625 
Q 5.609375 18.5625 5.609375 36.375 
Q 5.609375 54.25 15.25 64.234375 
Q 24.90625 74.21875 42 74.21875 
Q 49.125 74.21875 55.546875 72.453125 
Q 61.96875 70.703125 67.390625 67.28125 
L 67.390625 56.78125 
Q 61.921875 61.421875 55.765625 63.765625 
Q 49.609375 66.109375 42.828125 66.109375 
Q 29.4375 66.109375 22.71875 58.640625 
Q 16.015625 51.171875 16.015625 36.375 
Q 16.015625 21.625 22.71875 14.15625 
Q 29.4375 6.6875 42.828125 6.6875 
Q 48.046875 6.6875 52.140625 7.59375 
Q 56.25 8.5 59.515625 10.40625 
" id="BitstreamVeraSans-Roman-47"/>
      <path d="M 18.109375 8.203125 
L 18.109375 -20.796875 
L 9.078125 -20.796875 
L 9.078125 54.6875 
L 18.109375 54.6875 
L 18.109375 46.390625 
Q 20.953125 51.265625 25.265625 53.625 
Q 29.59375 56 35.59375 56 
Q 45.5625 56 51.78125 48.09375 
Q 58.015625 40.1875 58.015625 27.296875 
Q 58.015625 14.40625 51.78125 6.484375 
Q 45.5625 -1.421875 35.59375 -1.421875 
Q 29.59375 -1.421875 25.265625 0.953125 
Q 20.953125 3.328125 18.109375 8.203125 
M 48.6875 27.296875 
Q 48.6875 37.203125 44.609375 42.84375 
Q 40.53125 48.484375 33.40625 48.484375 
Q 26.265625 48.484375 22.1875 42.84375 
Q 18.109375 37.203125 18.109375 27.296875 
Q 18.109375 17.390625 22.1875 11.75 
Q 26.265625 6.109375 33.40625 6.109375 
Q 40.53125 6.109375 44.609375 11.75 
Q 48.6875 17.390625 48.6875 27.296875 
" id="BitstreamVeraSans-Roman-70"/>
     </defs>
     <g transform="translate(419.07825 209.40525)scale(0.144 -0.144)">
      <use xlink:href="#BitstreamVeraSans-Roman-47"/>
      <use x="77.490234375" xlink:href="#BitstreamVeraSans-Roman-61"/>
      <use x="138.76953125" xlink:href="#BitstreamVeraSans-Roman-73"/>
      <use x="190.869140625" xlink:href="#BitstreamVeraSans-Roman-20"/>
      <use x="222.65625" xlink:href="#BitstreamVeraSans-Roman-70"/>
      <use x="286.1328125" xlink:href="#BitstreamVeraSans-Roman-65"/>
      <use x="347.65625" xlink:href="#BitstreamVeraSans-Roman-64"/>
      <use x="411.1328125" xlink:href="#BitstreamVeraSans-Roman-61"/>
      <use x="472.412109375" xlink:href="#BitstreamVeraSans-Roman-6c"/>
     </g>
    </g>
    <g id="line2d_56">
     <path d="M 383.07825 225.50175 
L 403.23825 225.50175 
" style="fill:none;stroke:#ff0000;stroke-linecap:square;"/>
    </g>
    <g id="line2d_57"/>
    <g id="text_21">
     <!-- Brake pedal -->
     <defs>
      <path d="M 41.109375 46.296875 
Q 39.59375 47.171875 37.8125 47.578125 
Q 36.03125 48 33.890625 48 
Q 26.265625 48 22.1875 43.046875 
Q 18.109375 38.09375 18.109375 28.8125 
L 18.109375 0 
L 9.078125 0 
L 9.078125 54.6875 
L 18.109375 54.6875 
L 18.109375 46.1875 
Q 20.953125 51.171875 25.484375 53.578125 
Q 30.03125 56 36.53125 56 
Q 37.453125 56 38.578125 55.875 
Q 39.703125 55.765625 41.0625 55.515625 
z
" id="BitstreamVeraSans-Roman-72"/>
      <path d="M 19.671875 34.8125 
L 19.671875 8.109375 
L 35.5 8.109375 
Q 43.453125 8.109375 47.28125 11.40625 
Q 51.125 14.703125 51.125 21.484375 
Q 51.125 28.328125 47.28125 31.5625 
Q 43.453125 34.8125 35.5 34.8125 
z
M 19.671875 64.796875 
L 19.671875 42.828125 
L 34.28125 42.828125 
Q 41.5 42.828125 45.03125 45.53125 
Q 48.578125 48.25 48.578125 53.8125 
Q 48.578125 59.328125 45.03125 62.0625 
Q 41.5 64.796875 34.28125 64.796875 
z
M 9.8125 72.90625 
L 35.015625 72.90625 
Q 46.296875 72.90625 52.390625 68.21875 
Q 58.5 63.53125 58.5 54.890625 
Q 58.5 48.1875 55.375 44.234375 
Q 52.25 40.28125 46.1875 39.3125 
Q 53.46875 37.75 57.5 32.78125 
Q 61.53125 27.828125 61.53125 20.40625 
Q 61.53125 10.640625 54.890625 5.3125 
Q 48.25 0 35.984375 0 
L 9.8125 0 
z
" id="BitstreamVeraSans-Roman-42"/>
      <path d="M 9.078125 75.984375 
L 18.109375 75.984375 
L 18.109375 31.109375 
L 44.921875 54.6875 
L 56.390625 54.6875 
L 27.390625 29.109375 
L 57.625 0 
L 45.90625 0 
L 18.109375 26.703125 
L 18.109375 0 
L 9.078125 0 
z
" id="BitstreamVeraSans-Roman-6b"/>
     </defs>
     <g transform="translate(419.07825 230.54175)scale(0.144 -0.144)">
      <use xlink:href="#BitstreamVeraSans-Roman-42"/>
      <use x="68.603515625" xlink:href="#BitstreamVeraSans-Roman-72"/>
      <use x="109.716796875" xlink:href="#BitstreamVeraSans-Roman-61"/>
      <use x="170.99609375" xlink:href="#BitstreamVeraSans-Roman-6b"/>
      <use x="228.859375" xlink:href="#BitstreamVeraSans-Roman-65"/>
      <use x="290.3828125" xlink:href="#BitstreamVeraSans-Roman-20"/>
      <use x="322.169921875" xlink:href="#BitstreamVeraSans-Roman-70"/>
      <use x="385.646484375" xlink:href="#BitstreamVeraSans-Roman-65"/>
      <use x="447.169921875" xlink:href="#BitstreamVeraSans-Roman-64"/>
      <use x="510.646484375" xlink:href="#BitstreamVeraSans-Roman-61"/>
      <use x="571.92578125" xlink:href="#BitstreamVeraSans-Roman-6c"/>
     </g>
    </g>
   </g>
  </g>
 </g>
 <defs>
  <clipPath id="p174b78b85f">
   <rect height="345.6" width="446.4" x="72.0" y="43.2"/>
  </clipPath>
 </defs>
</svg>
