<?xml version="1.0" encoding="utf-8" standalone="no"?>
<!DOCTYPE svg PUBLIC "-//W3C//DTD SVG 1.1//EN"
  "http://www.w3.org/Graphics/SVG/1.1/DTD/svg11.dtd">
<!-- Created with matplotlib (http://matplotlib.org/) -->
<svg height="432pt" version="1.1" viewBox="0 0 576 432" width="576pt" xmlns="http://www.w3.org/2000/svg" xmlns:xlink="http://www.w3.org/1999/xlink">
 <defs>
  <style type="text/css">
*{stroke-linecap:butt;stroke-linejoin:round;stroke-miterlimit:100000;}
  </style>
 </defs>
 <g id="figure_1">
  <g id="patch_1">
   <path d="M 0 432 
L 576 432 
L 576 0 
L 0 0 
z
" style="fill:#ffffff;"/>
  </g>
  <g id="axes_1">
   <g id="patch_2">
    <path d="M 72 388.8 
L 518.4 388.8 
L 518.4 43.2 
L 72 43.2 
z
" style="fill:#ffffff;"/>
   </g>
   <g id="line2d_1">
    <path clip-path="url(#pb57eb7cb2e)" d="M 72.063771 230.101951 
L 80.4816 230.101951 
L 80.609143 214.35145 
L 80.800457 213.209036 
L 80.991771 213.165505 
L 81.183086 213.317324 
L 81.3744 212.371031 
L 81.565714 210.777574 
L 81.629486 210.973031 
L 81.757029 210.733863 
L 81.8208 210.92941 
L 82.012114 210.060161 
L 82.139657 210.060161 
L 82.203429 210.255557 
L 82.2672 210.01642 
L 82.330971 210.211905 
L 82.458514 209.972674 
L 82.522286 210.168167 
L 82.649829 209.929009 
L 82.841143 209.841503 
L 82.904914 210.036934 
L 83.032457 209.797662 
L 83.096229 209.797662 
L 83.16 209.993101 
L 83.415086 207.593855 
L 83.478857 207.691664 
L 83.542629 207.452279 
L 83.6064 207.647823 
L 83.733943 207.40851 
L 83.861486 207.364655 
L 83.989029 207.560129 
L 84.244114 206.69022 
L 84.371657 207.081198 
L 84.4992 206.841829 
L 84.562971 206.841829 
L 84.690514 206.602361 
L 84.818057 206.993369 
L 84.9456 206.753979 
L 85.264457 206.665951 
L 85.455771 204.451543 
L 85.519543 204.647151 
L 85.902171 204.647151 
L 85.965943 204.06041 
L 86.029714 204.299998 
L 86.093486 204.299998 
L 86.412343 206.318394 
L 86.794971 206.318394 
L 86.986286 205.365098 
L 87.1776 204.06041 
L 87.305143 204.06041 
L 87.560229 206.513829 
L 87.687771 206.318394 
L 87.815314 206.318394 
L 87.942857 205.731262 
L 88.580571 205.731262 
L 88.708114 205.970779 
L 88.771886 205.970779 
L 88.899429 205.775351 
L 89.473371 205.775351 
L 89.600914 206.014776 
L 89.792229 205.232349 
L 89.919771 205.232349 
L 90.047314 205.471868 
L 90.174857 205.471868 
L 90.3024 205.276454 
L 90.429943 205.51588 
L 90.876343 205.560054 
L 90.940114 205.364654 
L 91.067657 205.604059 
L 91.1952 205.604059 
L 91.258971 205.40875 
L 91.386514 205.648227 
L 91.577829 205.648227 
L 91.705371 205.105514 
L 91.832914 205.247341 
L 92.024229 205.149696 
L 92.279314 205.433161 
L 92.661943 207.493595 
L 92.789486 207.298246 
L 93.235886 207.298246 
L 93.363429 207.537518 
L 93.4272 207.537518 
L 93.746057 206.755572 
L 93.809829 206.755572 
L 93.937371 206.994939 
L 94.001143 206.994939 
L 94.128686 206.799687 
L 94.256229 206.799687 
L 94.383771 207.038959 
L 94.511314 207.038959 
L 94.575086 206.843797 
L 94.702629 207.083142 
L 94.830171 206.887823 
L 94.893943 206.887823 
L 95.021486 207.127075 
L 95.149029 207.127075 
L 95.2128 206.931927 
L 95.340343 207.171252 
L 95.467886 207.171252 
L 95.531657 206.976028 
L 95.6592 207.21526 
L 95.722971 207.21526 
L 95.978057 206.672976 
L 96.041829 206.672976 
L 96.169371 206.477767 
L 96.296914 206.717083 
L 96.360686 206.717083 
L 96.424457 206.8587 
L 96.488229 206.761103 
L 96.552 206.761103 
L 96.870857 209.015102 
L 96.9984 208.819996 
L 97.954971 208.819996 
L 98.082514 209.059116 
L 98.3376 208.864019 
L 98.401371 208.864019 
L 98.528914 208.277486 
L 98.911543 208.277486 
L 99.039086 208.5167 
L 99.102857 208.5167 
L 99.2304 208.321609 
L 99.421714 208.321609 
L 99.549257 208.560731 
L 99.613029 208.560731 
L 99.740571 208.365647 
L 99.931886 208.365647 
L 100.059429 208.60484 
L 100.186971 208.60484 
L 100.314514 208.409764 
L 100.442057 208.409764 
L 100.5696 208.648864 
L 100.824686 208.453877 
L 100.952229 208.69305 
L 101.079771 208.69305 
L 101.143543 208.497905 
L 101.271086 207.911646 
L 101.398629 208.150829 
L 101.4624 208.150829 
L 101.526171 207.955774 
L 101.653714 208.194865 
L 101.717486 208.194865 
L 101.781257 207.999899 
L 101.9088 208.239063 
L 102.036343 208.239063 
L 102.100114 208.478125 
L 102.291429 208.185534 
L 102.3552 208.185534 
L 102.418971 208.327283 
L 102.737829 210.340355 
L 104.332114 210.340355 
L 104.395886 210.579323 
L 104.523429 209.992945 
L 104.5872 209.992945 
L 104.714743 209.798091 
L 105.161143 209.798091 
L 105.288686 210.037153 
L 105.416229 210.037153 
L 105.543771 209.842223 
L 105.735086 209.842223 
L 105.862629 210.081192 
L 105.990171 210.081192 
L 106.117714 209.886353 
L 106.245257 209.886353 
L 106.3728 210.125394 
L 106.500343 210.125394 
L 106.627886 209.930396 
L 106.755429 209.930396 
L 106.882971 210.169426 
L 107.010514 210.169426 
L 107.138057 209.974519 
L 107.2656 209.974519 
L 107.393143 210.213456 
L 107.520686 210.213456 
L 107.648229 210.018555 
L 107.775771 210.018555 
L 107.839543 210.257566 
L 107.967086 209.671564 
L 108.030857 209.671564 
L 108.1584 209.47667 
L 108.285943 209.715609 
L 108.668571 209.759815 
L 108.732343 209.564936 
L 108.859886 209.803854 
L 109.114971 209.847972 
L 109.433829 212.098304 
L 109.4976 212.098304 
L 109.752686 211.664705 
L 109.816457 211.664705 
L 109.944 211.859488 
L 112.048457 211.859488 
L 112.176 211.273325 
L 112.431086 211.273325 
L 112.558629 211.512163 
L 112.686171 211.512163 
L 112.813714 211.317469 
L 113.0688 211.317469 
L 113.196343 211.556379 
L 113.323886 211.556379 
L 113.451429 211.361611 
L 113.770286 211.361611 
L 113.897829 211.600427 
L 114.025371 211.600427 
L 114.152914 211.405666 
L 114.408 211.405666 
L 114.535543 211.644556 
L 114.663086 211.644556 
L 114.790629 211.449801 
L 114.981943 211.449801 
L 115.109486 211.68868 
L 115.237029 211.591265 
L 115.428343 211.493851 
L 115.555886 211.732636 
L 115.7472 211.732636 
L 115.874743 211.537979 
L 116.002286 211.537979 
L 116.129829 211.776837 
L 116.257371 211.776837 
L 116.384914 211.582022 
L 116.512457 211.582022 
L 116.64 211.820787 
L 116.767543 211.820787 
L 116.831314 211.626061 
L 116.958857 211.040401 
L 117.0864 211.279259 
L 117.213943 211.279259 
L 117.341486 211.084541 
L 117.469029 211.323307 
L 117.596571 211.323307 
L 117.660343 211.128596 
L 117.787886 211.367433 
L 117.915429 211.367433 
L 118.234286 213.615975 
L 118.361829 213.421444 
L 118.489371 213.421444 
L 118.616914 213.182773 
L 118.744457 213.182773 
L 118.872 213.377312 
L 118.999543 213.377312 
L 119.190857 211.284553 
L 119.509714 213.615975 
L 119.7648 213.182773 
L 119.828571 213.182773 
L 119.956114 213.377312 
L 120.530057 213.377312 
L 120.785143 211.172729 
L 121.040229 213.615975 
L 121.167771 213.421444 
L 123.208457 213.421444 
L 123.399771 211.910957 
L 123.654857 211.910957 
L 123.7824 212.149748 
L 123.973714 212.043127 
L 124.101257 212.281904 
L 124.292571 212.175287 
L 124.420114 212.413968 
L 124.6752 212.307355 
L 124.802743 212.546105 
L 125.1216 212.439413 
L 125.249143 212.678067 
L 125.504229 212.571461 
L 125.631771 212.810185 
L 126.0144 212.7035 
L 126.141943 212.942127 
L 126.524571 212.835447 
L 126.652114 213.074143 
L 127.098514 212.967466 
L 127.226057 213.206066 
L 127.672457 213.099311 
L 127.8 213.33798 
L 128.373943 213.231311 
L 128.501486 214.049749 
L 128.565257 214.677488 
L 128.629029 214.570906 
L 128.884114 214.570906 
L 128.947886 214.332291 
L 129.075429 213.081695 
L 129.1392 213.081695 
L 129.330514 214.677488 
L 129.521829 214.570906 
L 129.5856 214.332291 
L 129.713143 213.081695 
L 129.904457 213.469966 
L 130.095771 214.677488 
L 130.287086 214.570906 
L 130.733486 214.570906 
L 130.797257 214.332291 
L 130.988571 213.081695 
L 131.243657 214.624238 
L 131.307429 214.570906 
L 131.945143 214.570906 
L 132.008914 214.332291 
L 132.200229 213.081695 
L 132.327771 213.900138 
L 132.455314 214.677488 
L 132.646629 214.570906 
L 133.348114 214.570906 
L 133.411886 214.332291 
L 133.539429 213.081695 
L 133.6032 213.320355 
L 133.730743 214.479921 
L 133.985829 212.813986 
L 134.0496 212.813986 
L 134.177143 213.052565 
L 134.432229 212.946152 
L 134.559771 213.1848 
L 134.751086 213.078307 
L 134.878629 213.31686 
L 135.197486 213.210454 
L 135.325029 213.449075 
L 135.580114 213.34259 
L 135.707657 213.581115 
L 135.962743 213.474635 
L 136.090286 213.713228 
L 136.2816 213.659908 
L 136.728 217.215826 
L 136.855543 217.216604 
L 137.1744 221.002537 
L 137.238171 220.765559 
L 137.365714 221.924625 
L 137.429486 221.827065 
L 137.493257 221.932485 
L 138.130971 224.972211 
L 138.194743 224.972211 
L 138.704914 228.214046 
L 139.151314 231.493062 
L 139.215086 231.71815 
L 139.278857 231.485588 
L 139.597714 233.912913 
L 139.661486 233.912913 
L 139.8528 235.998183 
L 141.192 245.625159 
L 141.319543 245.3522 
L 141.957257 248.380197 
L 142.0848 248.595107 
L 142.276114 249.156031 
L 142.339886 249.152031 
L 142.5312 249.47687 
L 142.594971 249.347742 
L 142.658743 249.456517 
L 142.786286 249.6744 
L 142.9776 249.526806 
L 143.168914 249.72857 
L 143.232686 251.597907 
L 143.296457 251.511338 
L 143.487771 251.254746 
L 143.615314 251.476989 
L 143.679086 251.014956 
L 143.742857 251.126494 
L 143.8704 251.000042 
L 143.934171 250.397455 
L 143.997943 250.509608 
L 144.061714 250.621902 
L 144.253029 250.483258 
L 144.3168 250.483258 
L 144.380571 249.881252 
L 144.444343 249.994494 
L 144.508114 250.107876 
L 144.635657 249.982979 
L 144.699429 249.381357 
L 144.7632 249.495361 
L 144.826971 249.370968 
L 144.890743 249.485298 
L 145.018286 249.599772 
L 145.145829 248.874966 
L 145.2096 248.990059 
L 145.592229 248.374515 
L 145.656 249.084634 
L 145.719771 248.484567 
L 145.783543 249.078921 
L 145.847314 248.956729 
L 145.974857 249.073623 
L 146.038629 248.473873 
L 146.1024 248.591196 
L 146.166171 248.469643 
L 146.229943 248.5873 
L 146.612571 247.982873 
L 146.676343 247.982873 
L 146.740114 247.384008 
L 146.803886 247.503052 
L 146.867657 247.622233 
L 146.9952 247.502252 
L 147.058971 246.903786 
L 147.122743 247.023592 
L 147.186514 246.904208 
L 147.250286 247.024347 
L 147.314057 246.426275 
L 147.4416 247.146388 
L 147.569143 247.148578 
L 147.632914 247.030111 
L 147.760457 247.151397 
L 147.824229 246.554033 
L 147.888 246.675754 
L 147.951771 246.558012 
L 148.079314 246.680066 
L 148.143086 246.083104 
L 148.206857 246.205591 
L 148.270629 246.088411 
L 148.398171 246.211235 
L 148.461943 245.614671 
L 148.525714 245.737927 
L 148.589486 245.621396 
L 148.717029 245.744989 
L 148.844571 245.032896 
L 148.972114 245.157117 
L 149.035886 244.561255 
L 149.099657 244.685909 
L 149.163429 244.570544 
L 149.290971 244.695534 
L 149.354743 244.100076 
L 149.418514 244.225503 
L 149.546057 244.110871 
L 149.609829 243.515714 
L 149.6736 243.64177 
L 149.737371 243.527572 
L 149.864914 243.653965 
L 149.928686 243.059215 
L 149.992457 243.186043 
L 150.12 243.072582 
L 150.183771 242.478134 
L 150.247543 242.605593 
L 150.311314 242.733197 
L 150.375086 242.620304 
L 150.438857 242.620304 
L 150.502629 242.026265 
L 150.5664 242.154499 
L 150.821486 241.577279 
L 150.885257 241.706207 
L 150.949029 241.706207 
L 151.076571 241.001374 
L 151.267886 241.260804 
L 151.395429 240.556956 
L 151.522971 240.687376 
L 151.586743 240.09475 
L 151.650514 240.225526 
L 151.778057 240.115433 
L 151.841829 239.523031 
L 151.9056 239.654526 
L 151.969371 239.786163 
L 152.033143 239.676644 
L 152.096914 239.676644 
L 152.160686 239.084658 
L 152.224457 239.216932 
L 152.479543 238.649191 
L 152.607086 238.782244 
L 152.734629 238.082777 
L 152.925943 238.350301 
L 153.053486 237.651996 
L 153.181029 237.786467 
L 153.2448 237.195832 
L 153.308571 237.330746 
L 153.372343 237.223965 
L 153.499886 237.359219 
L 153.627429 236.662837 
L 153.754971 236.798647 
L 153.818743 236.208829 
L 153.882514 236.345164 
L 153.946286 236.239577 
L 154.073829 236.376255 
L 154.1376 235.786775 
L 154.201371 235.923897 
L 154.265143 235.818974 
L 154.392686 235.956437 
L 154.456457 235.367381 
L 154.520229 235.505287 
L 154.584 235.401114 
L 154.711543 235.539363 
L 154.839086 234.847006 
L 155.094171 235.161023 
L 155.157943 235.058117 
L 155.4768 235.515643 
L 155.540571 235.413607 
L 155.795657 235.734734 
L 155.859429 235.633351 
L 156.114514 235.957722 
L 156.178286 235.857162 
L 156.433371 236.184779 
L 156.497143 236.084874 
L 156.752229 236.415742 
L 156.816 236.316577 
L 157.071086 236.650701 
L 157.134857 236.552361 
L 157.389943 236.889679 
L 157.453714 236.791998 
L 157.7088 237.13258 
L 157.772571 237.035643 
L 158.027657 237.379491 
L 158.091429 237.283381 
L 158.346514 237.630499 
L 158.410286 237.535052 
L 158.665371 237.896423 
L 158.729143 237.804562 
L 158.984229 238.16993 
L 159.048 238.08333 
L 159.239314 238.313296 
L 159.303086 238.228243 
L 159.558171 238.620254 
L 159.621943 238.536069 
L 159.813257 238.786832 
L 159.877029 238.708083 
L 160.132114 239.127572 
L 160.195886 239.050473 
L 160.3872 239.317884 
L 160.450971 239.246464 
L 160.642286 239.521421 
L 160.706057 239.450858 
L 160.897371 239.728553 
L 160.961143 239.663802 
L 161.024914 239.843353 
L 161.088686 239.77954 
L 161.152457 239.715672 
L 161.343771 240.013789 
L 161.407543 239.950824 
L 161.598857 240.257802 
L 161.662629 240.200819 
L 161.7264 240.389305 
L 161.790171 240.333307 
L 161.853943 240.277296 
L 162.045257 240.600272 
L 162.109029 240.545217 
L 162.1728 240.735706 
L 162.236571 240.681608 
L 162.300343 240.632692 
L 162.491657 240.978308 
L 162.555429 240.930389 
L 162.6192 241.081279 
L 162.682971 241.768783 
L 162.746743 241.721926 
L 162.810514 241.721926 
L 162.874286 241.1863 
L 162.938057 241.385262 
L 163.0656 241.306085 
L 163.129371 241.511468 
L 163.193143 241.472945 
L 163.256914 241.434416 
L 163.448229 241.80993 
L 163.575771 241.73496 
L 163.639543 241.943675 
L 163.703314 241.91275 
L 163.767086 241.881777 
L 163.830857 242.097126 
L 163.894629 242.0673 
L 163.9584 242.037465 
L 164.022171 242.253946 
L 164.085943 242.225227 
L 164.149714 242.196501 
L 164.213486 242.413097 
L 164.277257 242.385452 
L 164.341029 242.357846 
L 164.4048 242.575624 
L 164.468571 242.554743 
L 164.532343 242.5339 
L 164.596114 242.758505 
L 164.659886 242.738834 
L 164.723657 242.719116 
L 164.787429 242.944952 
L 164.8512 242.926459 
L 164.978743 242.889414 
L 165.106286 243.100382 
L 165.170057 243.083027 
L 165.2976 243.308058 
L 165.425143 243.288613 
L 165.552686 243.516208 
L 165.680229 243.500484 
L 165.807771 243.730672 
L 165.935314 243.717471 
L 166.062857 243.957457 
L 166.1904 243.958794 
L 166.317943 244.20873 
L 166.445486 244.214012 
L 166.573029 244.466701 
L 166.764343 244.480574 
L 166.891886 244.744919 
L 167.0832 244.784068 
L 167.210743 245.058828 
L 167.465829 245.12135 
L 167.593371 245.401962 
L 167.912229 245.514214 
L 168.039771 245.814968 
L 168.486171 246.018051 
L 168.677486 246.359791 
L 169.187657 246.685741 
L 169.378971 247.066685 
L 170.399314 247.934818 
L 171.1008 248.678545 
L 171.355886 249.065147 
L 171.483429 249.225187 
L 171.5472 249.057182 
L 171.674743 249.965181 
L 171.802286 250.047221 
L 171.866057 249.386905 
L 171.929829 249.472774 
L 172.184914 249.827749 
L 172.248686 249.674908 
L 172.312457 249.772347 
L 172.695086 250.367538 
L 172.758857 250.220723 
L 172.822629 250.324496 
L 173.077714 250.74187 
L 173.141486 250.599205 
L 173.205257 250.707331 
L 173.460343 251.144323 
L 173.524114 251.008089 
L 173.587886 251.120668 
L 173.7792 251.460698 
L 173.842971 251.334644 
L 174.353143 252.100992 
L 174.416914 251.981797 
L 174.863314 252.666221 
L 174.927086 252.551641 
L 175.309714 253.12443 
L 175.373486 253.014323 
L 175.692343 253.465483 
L 175.756114 253.358034 
L 176.074971 253.861802 
L 176.138743 253.764284 
L 176.393829 254.132556 
L 176.4576 254.038304 
L 176.712686 254.417758 
L 176.776457 254.326911 
L 177.031543 254.718227 
L 177.095314 254.630879 
L 177.3504 255.034105 
L 177.414171 254.950488 
L 177.669257 255.369002 
L 177.733029 255.286213 
L 177.924343 255.545367 
L 177.988114 255.466444 
L 178.179429 255.735451 
L 178.2432 255.658262 
L 178.434514 255.935159 
L 178.498286 255.862453 
L 178.6896 256.152914 
L 178.753371 256.081689 
L 178.944686 256.377338 
L 179.008457 256.310898 
L 179.199771 256.61801 
L 179.327314 256.494287 
L 179.518629 256.81195 
L 179.5824 256.751577 
L 179.646171 256.945262 
L 179.709943 256.887491 
L 179.773714 256.829367 
L 179.965029 257.165342 
L 180.0288 257.11244 
L 180.092571 257.310235 
L 180.156343 257.259701 
L 180.220114 257.209109 
L 180.283886 257.409774 
L 180.347657 257.361524 
L 180.411429 257.313211 
L 180.602743 257.679599 
L 180.730286 257.589607 
L 180.794057 257.801502 
L 180.857829 257.761443 
L 180.9216 257.720821 
L 180.985371 257.935312 
L 181.049143 257.897756 
L 181.112914 257.859129 
L 181.176686 258.072696 
L 181.240457 258.037149 
L 181.304229 258.001632 
L 181.368 258.221482 
L 181.431771 258.189062 
L 181.495543 258.159729 
L 181.559314 258.38273 
L 181.623086 258.352484 
L 181.686857 258.322268 
L 181.750629 258.584563 
L 181.8144 258.557077 
L 181.941943 258.564554 
L 182.005714 258.857182 
L 182.069486 258.836655 
L 182.133257 258.815145 
L 182.2608 259.090174 
L 182.324571 259.072099 
L 182.452114 259.355158 
L 182.579657 259.412077 
L 182.643429 259.44231 
L 182.834743 259.849313 
L 182.962286 259.985224 
L 183.1536 260.417718 
L 183.281143 260.570929 
L 183.472457 261.026553 
L 183.727543 261.296984 
L 183.918857 261.923988 
L 184.173943 262.247704 
L 184.301486 262.462243 
L 184.747886 268.599841 
L 184.811657 268.679031 
L 184.9392 269.859959 
L 185.130514 270.121368 
L 185.3856 270.571818 
L 185.449371 271.705415 
L 185.513143 271.535961 
L 185.832 272.192895 
L 185.895771 272.300015 
L 186.023314 272.157509 
L 186.087086 272.256348 
L 186.150857 272.089301 
L 186.214629 273.363983 
L 186.2784 272.40432 
L 186.342171 273.691544 
L 186.405943 273.536012 
L 186.7248 273.950038 
L 186.788571 273.917306 
L 186.979886 274.268408 
L 187.043657 274.032154 
L 187.107429 274.151933 
L 187.1712 274.27112 
L 187.362514 276.805193 
L 187.426286 276.920316 
L 187.490057 276.77967 
L 187.681371 277.0474 
L 187.872686 276.80945 
L 187.936457 276.940482 
L 188.000229 278.323125 
L 188.064 277.070959 
L 188.127771 278.46853 
L 188.191543 278.336405 
L 188.255314 278.203168 
L 188.446629 278.514274 
L 188.5104 278.385164 
L 188.574171 278.564969 
L 188.637943 278.197476 
L 188.701714 278.491134 
L 188.765486 279.776974 
L 188.829257 279.64612 
L 188.893029 279.514153 
L 188.9568 279.821729 
L 189.020571 279.696458 
L 189.084343 279.887585 
L 189.148114 279.768027 
L 189.211886 279.647225 
L 189.275657 279.975401 
L 189.4032 279.475495 
L 189.530743 281.119256 
L 189.658286 280.874295 
L 189.722057 280.918233 
L 189.785829 281.093589 
L 189.8496 280.976749 
L 189.913371 281.03028 
L 189.977143 280.920678 
L 190.040914 281.103642 
L 190.168457 280.659011 
L 190.423543 280.844426 
L 190.487314 280.738346 
L 190.551086 280.929467 
L 190.678629 280.615011 
L 190.7424 281.991186 
L 190.806171 281.875513 
L 190.869943 281.944803 
L 190.933714 281.837473 
L 191.061257 282.110319 
L 191.316343 281.516254 
L 191.380114 281.902245 
L 191.443886 281.800326 
L 191.507657 281.697185 
L 191.571429 281.790884 
L 191.6352 283.231707 
L 191.698971 283.139751 
L 191.762743 283.046587 
L 191.826514 283.158181 
L 191.954057 282.677653 
L 192.017829 282.994107 
L 192.0816 282.899261 
L 192.145371 283.014555 
L 192.209143 284.488062 
L 192.272914 282.844892 
L 192.336686 284.234525 
L 192.400457 284.142357 
L 192.528 283.95436 
L 192.591771 284.079261 
L 192.719314 283.823863 
L 192.783086 283.961357 
L 192.846857 283.88619 
L 192.910629 283.502355 
L 192.9744 283.630099 
L 193.101943 283.45738 
L 193.165714 285.199132 
L 193.229486 285.126842 
L 193.293257 285.053364 
L 193.484571 284.439468 
L 193.739657 284.268549 
L 193.803429 284.437573 
L 193.994743 283.797613 
L 194.122286 283.648604 
L 194.186057 283.824392 
L 194.249829 285.410619 
L 194.3136 285.350757 
L 194.377371 285.289721 
L 194.568686 284.592336 
L 194.632457 284.782139 
L 194.696229 284.723417 
L 194.887543 284.472077 
L 194.951314 284.066572 
L 195.015086 285.67026 
L 195.078857 285.599975 
L 195.142629 285.805701 
L 195.2064 285.750632 
L 195.270171 285.694217 
L 195.461486 285.107705 
L 195.525257 285.254881 
L 195.716571 284.751954 
L 195.780343 284.635993 
L 195.844114 286.285618 
L 195.907886 285.880421 
L 195.971657 285.816302 
L 196.035429 286.002205 
L 196.290514 285.045701 
L 196.354286 284.985146 
L 196.418057 285.230779 
L 196.481829 285.188448 
L 196.736914 284.247723 
L 196.800686 285.950198 
L 196.864457 285.896331 
L 197.055771 285.718346 
L 197.247086 285.168082 
L 197.4384 284.996894 
L 197.565943 284.146278 
L 197.629714 284.418821 
L 197.757257 283.976738 
L 197.8848 283.869463 
L 197.948571 283.472589 
L 198.267429 290.413483 
L 198.394971 289.541087 
L 198.458743 291.338539 
L 198.522514 291.305154 
L 198.650057 290.49974 
L 198.713829 290.859103 
L 198.841371 290.007882 
L 198.905143 291.797376 
L 198.968914 289.545014 
L 199.032686 291.381434 
L 199.096457 290.985734 
L 199.224 290.512347 
L 199.287771 290.479498 
L 199.351543 289.661634 
L 199.415314 291.485632 
L 199.479086 291.444241 
L 199.606629 290.562149 
L 199.734171 294.325378 
L 199.797943 293.849114 
L 200.053029 291.949097 
L 200.1168 293.739423 
L 200.180571 293.091875 
L 200.308114 293.03158 
L 200.626971 291.001479 
L 200.690743 291.001479 
L 200.882057 288.087046 
L 201.0096 287.624302 
L 201.519771 282.925491 
L 201.583543 282.925491 
L 201.647314 283.350325 
L 201.838629 281.888491 
L 201.9024 281.87723 
L 201.966171 281.489358 
L 202.157486 279.168846 
L 202.285029 279.059024 
L 202.412571 278.531715 
L 202.476343 278.807787 
L 202.603886 276.014328 
L 202.731429 276.257188 
L 202.7952 276.125338 
L 202.922743 275.504878 
L 202.986514 275.684251 
L 203.114057 274.085925 
L 203.177829 273.943618 
L 203.432914 272.077408 
L 203.496686 272.294735 
L 203.688 272.071997 
L 203.815543 270.677242 
L 204.006857 270.468351 
L 204.1344 269.432354 
L 204.198171 269.668464 
L 204.261943 269.602923 
L 204.325714 269.602923 
L 204.453257 268.591611 
L 204.517029 268.534692 
L 204.644571 268.771512 
L 204.708343 267.898508 
L 204.772114 268.114846 
L 204.899657 268.353572 
L 275.749714 268.353572 
L 275.941029 252.534241 
L 278.874514 179.321004 
L 278.938286 179.210056 
L 279.257143 177.517286 
L 279.320914 177.404147 
L 279.639771 175.708033 
L 279.703543 175.596947 
L 280.0224 173.914391 
L 280.086171 173.805352 
L 280.4688 171.653662 
L 280.532571 171.547147 
L 280.978971 168.937066 
L 281.042743 168.83353 
L 281.489143 166.251005 
L 281.552914 166.15046 
L 281.999314 163.595493 
L 282.063086 163.497941 
L 282.573257 160.501623 
L 282.637029 160.40346 
L 283.210971 156.951803 
L 283.274743 156.857616 
L 283.5936 154.919806 
L 283.657371 154.919806 
L 284.103771 151.993838 
L 284.167543 151.905288 
L 284.805257 148.108468 
L 284.869029 148.020406 
L 285.570514 143.803262 
L 285.634286 143.720199 
L 286.335771 139.573952 
L 286.399543 139.495873 
L 287.101029 135.393297 
L 287.1648 135.316358 
L 287.674971 132.562154 
L 287.738743 132.488848 
L 288.0576 130.983646 
L 288.121371 130.912729 
L 288.185143 130.485519 
L 288.376457 128.4947 
L 288.567771 128.290663 
L 288.759086 127.667045 
L 288.822857 127.600694 
L 289.014171 127.049057 
L 289.333029 126.725544 
L 289.3968 125.250266 
L 289.460571 126.597773 
L 289.588114 125.062688 
L 290.162057 124.527551 
L 290.225829 124.764835 
L 290.2896 124.708818 
L 290.480914 124.542101 
L 290.544686 124.835085 
L 290.608457 124.779955 
L 290.672229 124.72505 
L 290.736 123.280142 
L 290.799771 124.615887 
L 290.863543 123.173458 
L 290.927314 123.467473 
L 291.054857 123.361681 
L 291.118629 123.655229 
L 291.1824 123.602653 
L 291.246171 123.553983 
L 291.437486 124.050291 
L 291.501257 124.002191 
L 291.692571 124.545493 
L 291.820114 124.450337 
L 292.011429 124.992341 
L 292.0752 124.94889 
L 292.138971 125.246475 
L 292.266514 123.798017 
L 292.457829 124.35295 
L 292.5216 124.311257 
L 292.840457 125.416427 
L 292.904229 125.378819 
L 293.159314 126.238266 
L 293.223086 126.200933 
L 293.286857 126.498951 
L 293.350629 126.461755 
L 293.4144 125.085354 
L 293.478171 125.384457 
L 293.797029 126.550951 
L 293.8608 126.518719 
L 294.434743 128.854255 
L 294.498514 127.509714 
L 294.562286 129.125713 
L 294.626057 127.783912 
L 294.689829 128.084992 
L 295.136229 129.840669 
L 295.2 128.515457 
L 295.263771 130.44261 
L 295.327543 129.12044 
L 296.220343 133.011406 
L 296.411657 131.035323 
L 296.475429 131.643642 
L 296.5392 130.356532 
L 296.602971 130.661485 
L 296.921829 132.497878 
L 296.9856 131.224713 
L 297.049371 131.531136 
L 297.113143 132.142511 
L 297.304457 130.230704 
L 297.432 131.473437 
L 297.495771 130.215983 
L 297.559543 130.525907 
L 297.814629 132.081983 
L 298.005943 133.629971 
L 298.3248 135.488287 
L 298.452343 136.410802 
L 298.516114 135.188395 
L 298.707429 137.952679 
L 298.7712 136.736554 
L 298.834971 137.045592 
L 299.281371 139.512085 
L 299.664 142.267909 
L 300.174171 145.017361 
L 300.237943 143.846212 
L 300.301714 144.152374 
L 300.5568 145.674454 
L 300.939429 147.800212 
L 301.258286 150.204385 
L 301.322057 149.068824 
L 301.385829 149.374677 
L 301.704686 151.181385 
L 302.023543 153.286572 
L 302.214857 154.191577 
L 302.278629 153.08467 
L 302.469943 155.678316 
L 302.533714 154.577554 
L 302.597486 154.878799 
L 302.980114 156.966174 
L 303.2352 158.442881 
L 303.298971 158.742719 
L 303.490286 160.209507 
L 303.745371 161.400243 
L 303.809143 160.338335 
L 303.872914 162.264348 
L 303.936686 161.20563 
L 305.212114 167.302826 
L 305.275886 166.273366 
L 305.339657 166.521083 
L 305.403429 166.521083 
L 305.594743 169.061177 
L 305.658514 168.293254 
L 305.722286 168.546925 
L 305.849829 169.055897 
L 305.977371 168.037344 
L 306.168686 170.345349 
L 306.232457 170.345349 
L 306.296229 170.606181 
L 306.487543 172.659612 
L 306.551314 172.9252 
L 306.742629 174.997094 
L 306.8064 174.997094 
L 306.870171 175.26514 
L 307.061486 177.350997 
L 307.125257 177.350997 
L 307.316571 179.441242 
L 307.380343 179.441242 
L 307.571657 181.544015 
L 307.635429 181.544015 
L 307.762971 183.370166 
L 307.826743 183.370166 
L 307.890514 183.651104 
L 308.018057 185.22941 
L 308.081829 185.22941 
L 308.1456 185.514814 
L 308.273143 187.098545 
L 308.336914 187.098545 
L 308.400686 187.38571 
L 308.528229 188.971988 
L 308.592 188.971988 
L 308.655771 189.263622 
L 308.783314 190.857802 
L 308.910857 191.151176 
L 309.102171 193.042897 
L 309.165943 193.086602 
L 309.293486 193.382632 
L 309.4848 195.037313 
L 309.548571 195.037313 
L 309.676114 196.645753 
L 309.803657 196.998948 
L 309.867429 196.998948 
L 310.058743 198.663519 
L 310.3776 199.701926 
L 310.441371 199.701926 
L 310.632686 201.384532 
L 310.760229 201.445004 
L 310.951543 203.135477 
L 311.015314 203.135477 
L 311.142857 204.518534 
L 311.2704 204.585102 
L 311.461714 206.289047 
L 311.525486 206.289047 
L 311.653029 207.677082 
L 311.844343 207.747244 
L 312.035657 209.533946 
L 312.226971 209.759927 
L 312.418286 210.239329 
L 312.482057 210.316927 
L 312.673371 210.801685 
L 312.737143 210.881123 
L 312.928457 211.371185 
L 312.992229 211.452503 
L 313.183543 211.950373 
L 313.311086 212.12201 
L 313.5024 212.631395 
L 313.566171 212.719269 
L 313.757486 213.23393 
L 313.885029 213.413698 
L 314.076343 213.934885 
L 314.140114 214.026817 
L 314.331429 214.553256 
L 314.458971 214.74597 
L 314.650286 215.286158 
L 314.714057 215.384498 
L 314.905371 215.929923 
L 315.032914 216.130646 
L 315.224229 216.682453 
L 315.351771 216.887595 
L 315.543086 217.445811 
L 315.670629 217.660113 
L 315.861943 218.231829 
L 315.989486 218.4505 
L 316.1808 219.028591 
L 316.372114 219.363745 
L 316.563429 219.949331 
L 316.754743 220.292264 
L 316.946057 220.89006 
L 317.137371 221.247707 
L 317.328686 221.855232 
L 317.583771 222.343196 
L 317.775086 222.959339 
L 318.157714 223.711553 
L 318.349029 224.34322 
L 318.8592 225.397691 
L 319.050514 226.044892 
L 319.752 227.552395 
L 319.943314 228.220635 
L 320.1984 228.939053 
L 320.325943 228.107925 
L 320.517257 229.521889 
L 323.960914 237.34562 
L 324.024686 237.273598 
L 324.789943 239.114417 
L 324.853714 239.050046 
L 325.427657 240.415755 
L 325.491429 240.35511 
L 325.937829 241.568888 
L 326.065371 240.733579 
L 326.448 241.602143 
L 326.511771 241.602143 
L 326.575543 242.74882 
L 326.639314 242.695485 
L 327.021943 243.583182 
L 327.085714 243.532523 
L 327.149486 243.912011 
L 327.277029 243.143308 
L 327.404571 244.248883 
L 327.468343 244.202503 
L 327.850971 245.16146 
L 327.914743 245.12754 
L 328.2336 245.941764 
L 328.297371 245.918061 
L 328.361143 246.133421 
L 328.998857 254.490848 
L 329.636571 262.82691 
L 329.700343 262.82691 
L 331.549714 284.465973 
L 332.825143 303.888359 
L 334.291886 316.303507 
L 334.546971 318.157924 
L 335.248457 323.612828 
L 335.503543 325.469545 
L 336.141257 330.348882 
L 336.970286 334.421027 
L 337.352914 335.389362 
L 337.671771 335.792656 
L 337.735543 335.686226 
L 337.926857 335.836436 
L 337.990629 335.735046 
L 338.0544 335.868311 
L 338.118171 335.766907 
L 338.181943 335.665393 
L 338.373257 335.832056 
L 338.5008 335.631102 
L 338.692114 335.809451 
L 338.819657 335.617932 
L 338.883429 335.75798 
L 338.9472 335.662866 
L 339.010971 335.567752 
L 339.074743 335.707828 
L 339.138514 335.613496 
L 339.202286 335.519069 
L 339.266057 335.659927 
L 339.329829 335.565472 
L 339.3936 335.471828 
L 339.457371 335.617905 
L 339.521143 335.528778 
L 339.648686 335.351157 
L 339.712457 335.498044 
L 339.776229 335.409631 
L 340.095086 335.118604 
L 340.158857 335.118604 
L 340.222629 335.267235 
L 340.2864 335.184906 
L 340.477714 334.939293 
L 340.541486 335.093445 
L 340.605257 335.011789 
L 340.7328 334.850125 
L 340.796571 334.924242 
L 340.924114 334.844151 
L 341.306743 334.380254 
L 341.370514 334.468103 
L 341.434286 334.39444 
L 342.199543 333.60043 
L 342.263314 333.770609 
L 342.327086 333.704237 
L 342.837257 333.117458 
L 342.901029 333.764154 
L 342.9648 333.399944 
L 343.028571 333.336195 
L 343.092343 333.984059 
L 343.156114 333.210594 
L 343.219886 333.858609 
L 343.283657 333.795822 
L 343.347429 333.681468 
L 343.4112 334.335786 
L 343.474971 334.279193 
L 343.602514 333.872974 
L 343.8576 335.675116 
L 343.921371 335.620486 
L 344.112686 336.534645 
L 344.176457 336.190265 
L 344.240229 336.848552 
L 344.304 336.795007 
L 344.367771 336.741518 
L 344.559086 336.346394 
L 344.622857 336.346394 
L 344.814171 335.004771 
L 344.877943 334.954083 
L 345.324343 333.228447 
L 345.515657 333.141367 
L 345.706971 331.782028 
L 345.770743 331.782028 
L 346.025829 331.139198 
L 346.0896 331.098637 
L 346.599771 329.115948 
L 346.791086 330.396398 
L 347.109943 329.495451 
L 347.237486 329.424046 
L 347.556343 328.533206 
L 347.620114 328.499073 
L 347.811429 327.92054 
L 347.8752 327.887505 
L 348.130286 327.28014 
L 348.194057 327.249413 
L 348.385371 325.96038 
L 348.449143 325.96038 
L 348.768 325.095055 
L 348.831771 325.066573 
L 348.959314 324.77203 
L 349.150629 323.518359 
L 349.2144 323.492109 
L 349.405714 322.940224 
L 349.469486 322.921163 
L 349.6608 322.385944 
L 349.724571 322.368214 
L 349.915886 321.836469 
L 349.979657 321.819914 
L 350.234743 321.035738 
L 350.298514 321.021792 
L 350.362286 320.767101 
L 350.5536 319.52336 
L 350.681143 319.510691 
L 350.872457 318.993063 
L 350.936229 318.981672 
L 351 318.73049 
L 351.127543 317.74536 
L 351.191314 317.74536 
L 351.382629 317.236404 
L 351.4464 317.227636 
L 351.701486 316.474949 
L 351.765257 316.468982 
L 351.8928 316.215314 
L 352.084114 314.992564 
L 352.147886 314.992564 
L 352.402971 314.255257 
L 352.466743 314.2535 
L 352.658057 313.765391 
L 352.913143 315.463911 
L 352.976914 315.223071 
L 353.040686 315.954293 
L 353.168229 314.748434 
L 353.232 314.748434 
L 353.550857 313.798796 
L 353.614629 313.804763 
L 353.933486 312.868076 
L 353.997257 312.875546 
L 354.061029 312.650787 
L 354.252343 313.660801 
L 354.379886 312.467047 
L 354.443657 313.20881 
L 354.5712 312.017734 
L 354.698743 312.759785 
L 354.762514 312.299705 
L 354.826286 313.057809 
L 354.890057 312.828573 
L 354.953829 312.599316 
L 355.0176 313.361169 
L 355.081371 313.133595 
L 355.591543 311.57197 
L 355.655314 311.591162 
L 355.9104 310.922383 
L 356.101714 309.526138 
L 356.165486 310.063177 
L 356.229257 309.843423 
L 356.293029 309.867847 
L 356.8032 308.321981 
L 356.930743 306.899389 
L 356.994514 306.899389 
L 357.696 305.00687 
L 357.823543 306.322435 
L 357.887314 306.107323 
L 357.951086 305.892107 
L 358.1424 306.787967 
L 358.206171 306.820047 
L 358.5888 305.76503 
L 358.780114 304.155361 
L 359.098971 303.369598 
L 359.162743 303.369598 
L 359.354057 301.773189 
L 359.545371 301.35119 
L 359.736686 299.983852 
L 359.864229 299.77562 
L 360.055543 298.168369 
L 360.246857 297.759602 
L 360.310629 296.567921 
L 360.3744 296.610102 
L 360.565714 296.204995 
L 360.757029 294.612959 
L 360.884571 294.412177 
L 361.012114 293.025806 
L 361.075886 293.074358 
L 361.203429 292.877779 
L 361.394743 291.299833 
L 361.458514 291.299833 
L 361.522286 290.114463 
L 361.586057 290.965814 
L 361.649829 290.965814 
L 361.7136 290.581004 
L 361.841143 289.206615 
L 361.904914 289.264217 
L 361.968686 290.065746 
L 362.16 288.490512 
L 362.223771 288.490512 
L 362.351314 288.102317 
L 362.415086 288.156356 
L 362.478857 288.156356 
L 362.670171 286.587227 
L 362.733943 286.587227 
L 362.925257 285.272335 
L 362.989029 285.272335 
L 363.116571 283.90247 
L 363.180343 283.963623 
L 363.626743 282.913035 
L 363.690514 282.979234 
L 364.200686 281.795746 
L 364.264457 281.867239 
L 364.710857 280.897263 
L 364.774629 280.977003 
L 365.2848 279.879607 
L 365.348571 279.965005 
L 365.794971 279.082336 
L 365.858743 279.173515 
L 366.368914 278.154863 
L 366.432686 278.247897 
L 366.879086 277.37585 
L 366.942857 277.463308 
L 367.453029 276.416949 
L 367.580571 275.341724 
L 367.644343 276.187733 
L 367.708114 276.027553 
L 367.771886 276.11808 
L 368.218286 275.26712 
L 368.282057 275.364308 
L 368.792229 274.384575 
L 368.856 274.484049 
L 369.238629 273.846197 
L 369.3024 273.75341 
L 369.366171 273.898883 
L 369.429943 273.804792 
L 369.557486 273.621169 
L 369.621257 273.768565 
L 369.685029 273.67481 
L 369.876343 273.400214 
L 369.940114 273.548615 
L 370.003886 273.458846 
L 370.131429 273.277235 
L 370.1952 273.428339 
L 370.258971 273.336095 
L 370.386514 273.156781 
L 370.450286 273.310115 
L 370.514057 273.222609 
L 370.705371 272.956627 
L 370.769143 273.111778 
L 370.832914 273.025233 
L 371.024229 272.763903 
L 371.088 272.925244 
L 371.151771 272.839259 
L 371.406857 272.499953 
L 371.470629 272.662952 
L 371.5344 273.469853 
L 371.598171 273.378217 
L 371.661943 273.378217 
L 371.789486 273.191947 
L 371.853257 273.261583 
L 371.917029 272.168354 
L 371.9808 273.079385 
L 372.044571 272.987231 
L 372.235886 272.80885 
L 372.299657 272.887238 
L 372.363429 272.800106 
L 372.554743 272.62725 
L 372.682286 271.439408 
L 372.746057 271.351538 
L 372.809829 271.517974 
L 372.8736 271.433424 
L 373.256229 270.928225 
L 373.32 271.100319 
L 373.383771 271.01927 
L 373.7664 270.538519 
L 373.830171 270.7174 
L 373.893943 270.641523 
L 374.404114 270.036708 
L 374.467886 270.215826 
L 374.531657 270.131709 
L 375.233143 269.273052 
L 375.296914 269.463483 
L 375.360686 269.386771 
L 375.870857 268.933327 
L 375.9984 268.913614 
L 376.381029 268.640511 
L 376.636114 268.793238 
L 376.699886 268.525099 
L 376.763657 268.572131 
L 377.210057 268.224747 
L 377.3376 268.221973 
L 377.720229 267.988438 
L 377.847771 268.007516 
L 379.059429 267.09757 
L 379.186971 267.146016 
L 379.378286 267.013707 
L 379.505829 267.074028 
L 379.633371 266.702004 
L 379.760914 266.777116 
L 379.888457 266.711847 
L 380.016 266.803178 
L 380.334857 266.580028 
L 380.398629 266.243452 
L 380.4624 266.358908 
L 380.717486 266.243297 
L 380.845029 266.347492 
L 380.972571 266.303039 
L 381.036343 265.974149 
L 381.100114 266.109515 
L 381.163886 267.30894 
L 381.227657 267.295111 
L 381.291429 267.280372 
L 381.418971 267.427744 
L 381.546514 267.106232 
L 381.674057 267.274 
L 381.865371 266.691237 
L 381.992914 266.836604 
L 382.056686 266.836604 
L 382.248 265.433358 
L 382.439314 265.430487 
L 382.503086 265.603962 
L 382.630629 265.303863 
L 382.6944 265.31155 
L 382.821943 265.518433 
L 383.013257 265.010432 
L 383.1408 265.195713 
L 383.204571 264.887907 
L 383.332114 266.394654 
L 383.395886 265.117899 
L 383.459657 265.135553 
L 383.523429 265.135553 
L 383.5872 264.827723 
L 383.650971 265.034805 
L 383.778514 265.094024 
L 383.842286 264.794784 
L 383.906057 265.017789 
L 384.0336 265.101334 
L 384.097371 264.811707 
L 384.161143 264.851278 
L 384.288686 264.868605 
L 384.352457 264.567635 
L 384.416229 264.596893 
L 384.607543 264.915599 
L 384.671314 264.623991 
L 384.735086 264.665551 
L 384.862629 264.972553 
L 384.9264 264.692086 
L 384.990171 264.747478 
L 385.053943 264.802224 
L 385.117714 265.07189 
L 385.181486 264.803398 
L 385.245257 264.873494 
L 385.309029 264.942938 
L 385.3728 265.234351 
L 385.436571 264.713211 
L 385.500343 264.773416 
L 385.8192 264.983231 
L 385.882971 264.713448 
L 385.946743 264.786977 
L 386.074286 265.183971 
L 386.138057 264.928 
L 386.201829 265.018407 
L 386.456914 265.30535 
L 386.520686 264.786572 
L 386.584457 264.865715 
L 386.648229 265.187501 
L 386.712 264.934777 
L 386.775771 265.032703 
L 386.839543 265.129998 
L 386.903314 265.479102 
L 386.967086 265.242563 
L 387.094629 265.476544 
L 387.1584 265.236871 
L 387.222171 265.613163 
L 387.285943 265.392918 
L 387.413486 265.666347 
L 387.477257 265.442868 
L 387.541029 265.554163 
L 387.6048 265.682514 
L 387.668571 265.450136 
L 387.732343 265.576818 
L 387.923657 265.892277 
L 387.987429 265.677714 
L 388.0512 265.826006 
L 388.242514 266.214822 
L 388.306286 266.019629 
L 388.433829 266.361592 
L 388.625143 266.110428 
L 388.688914 266.273129 
L 388.752686 266.065284 
L 388.880229 266.720475 
L 388.944 266.536436 
L 389.007771 266.724251 
L 389.071543 266.537957 
L 389.262857 267.06928 
L 389.3904 266.799291 
L 390.091886 269.057455 
L 390.474514 270.629379 
L 390.602057 271.597944 
L 390.665829 271.533434 
L 390.7296 271.799581 
L 390.920914 273.045287 
L 391.176 275.094511 
L 391.303543 274.935072 
L 391.558629 275.878496 
L 391.6224 275.687704 
L 391.686171 275.846333 
L 391.749943 275.981925 
L 391.813714 275.715328 
L 391.877486 275.796572 
L 392.005029 275.938728 
L 392.0688 276.376341 
L 392.196343 275.646004 
L 392.260114 276.006109 
L 392.451429 275.433295 
L 392.5152 275.730304 
L 392.578971 275.243253 
L 392.642743 275.489257 
L 393.152914 274.644649 
L 393.216686 274.86947 
L 393.344229 276.06216 
L 393.408 275.935989 
L 393.471771 276.160947 
L 393.535543 275.902158 
L 393.726857 277.181001 
L 393.790629 277.059011 
L 393.981943 277.38961 
L 394.045714 277.109816 
L 394.109486 277.335736 
L 394.3008 279.074261 
L 394.492114 279.762177 
L 394.874743 286.335159 
L 395.129829 288.590021 
L 395.448686 293.719324 
L 395.64 294.213194 
L 404.440457 294.213194 
L 404.568 254.12832 
L 405.333257 232.34256 
L 405.715886 217.205279 
L 406.736229 191.88576 
L 406.8 191.88576 
L 407.373943 178.969613 
L 407.437714 178.969613 
L 407.501486 178.83787 
L 407.820343 177.045975 
L 407.884114 178.430871 
L 407.947886 177.92241 
L 408.202971 176.778452 
L 408.266743 176.645668 
L 408.394286 176.135806 
L 408.521829 176.135806 
L 408.5856 176.003764 
L 408.904457 167.681192 
L 408.968229 167.556847 
L 409.159543 165.183103 
L 409.223314 165.061244 
L 409.287086 164.563945 
L 409.4784 162.324533 
L 409.605943 162.086521 
L 409.861029 160.864762 
L 409.9248 161.869716 
L 409.988571 161.752063 
L 410.052343 161.752063 
L 410.179886 161.027696 
L 410.243657 161.027696 
L 410.562514 159.332317 
L 410.626286 159.217884 
L 410.753829 158.618305 
L 410.881371 159.618061 
L 411.327771 156.978342 
L 411.391543 156.867366 
L 411.455314 157.863936 
L 411.519086 157.384012 
L 411.646629 156.904678 
L 411.7104 156.794451 
L 412.029257 154.777183 
L 412.093029 155.771233 
L 412.1568 155.296108 
L 412.220571 155.296108 
L 412.6032 152.816219 
L 412.794514 150.18818 
L 412.858286 149.715836 
L 412.922057 150.70611 
L 412.985829 150.234549 
L 413.0496 150.234549 
L 413.559771 147.21232 
L 413.623543 147.836961 
L 413.687314 147.734225 
L 413.751086 147.734225 
L 414.069943 145.41289 
L 414.133714 146.399455 
L 414.197486 145.937192 
L 414.261257 145.937192 
L 414.452571 144.542299 
L 414.707657 143.052072 
L 414.771429 143.672635 
L 414.8352 143.211539 
L 414.898971 143.211539 
L 415.090286 141.831965 
L 415.154057 142.452383 
L 415.345371 140.360648 
L 415.855543 137.074555 
L 415.919314 137.074555 
L 415.983086 137.238547 
L 416.1744 134.709638 
L 416.301943 134.615403 
L 416.684571 132.630764 
L 416.748343 132.539378 
L 416.812114 132.0922 
L 416.875886 133.068569 
L 416.939657 132.977486 
L 417.003429 132.977486 
L 417.258514 131.907081 
L 417.322286 131.81781 
L 417.386057 132.790176 
L 417.449829 132.700699 
L 417.5136 132.700699 
L 417.768686 131.640491 
L 417.832457 132.961205 
L 417.896229 132.521189 
L 418.023771 132.433326 
L 418.087543 132.345717 
L 418.278857 131.733984 
L 418.4064 132.698145 
L 418.597714 132.438647 
L 418.725257 131.918204 
L 418.789029 131.918204 
L 418.8528 133.226278 
L 418.916571 133.140337 
L 419.107886 132.537092 
L 419.171657 132.537092 
L 419.235429 133.839088 
L 419.2992 133.407573 
L 419.490514 133.153912 
L 419.618057 134.449887 
L 419.681829 134.365148 
L 419.873143 133.768707 
L 419.936914 135.05864 
L 420.000686 134.978172 
L 420.128229 134.89793 
L 420.192 134.817984 
L 420.319543 134.31698 
L 420.383314 134.31698 
L 420.447086 135.60374 
L 420.510857 135.524082 
L 420.702171 135.365543 
L 420.765943 136.646164 
L 420.829714 136.56652 
L 420.893486 136.487164 
L 421.021029 136.069155 
L 421.0848 137.344379 
L 421.148571 137.265058 
L 421.339886 137.107191 
L 421.403657 138.37627 
L 421.467429 138.296963 
L 421.658743 138.139185 
L 421.722514 139.402084 
L 421.786286 139.322852 
L 421.850057 139.243847 
L 421.9776 138.752538 
L 422.041371 138.752538 
L 422.105143 140.00934 
L 422.168914 139.93063 
L 422.360229 139.774047 
L 422.424 141.024669 
L 422.487771 140.94957 
L 423.253029 140.068378 
L 423.3168 140.324881 
L 423.380571 140.253106 
L 423.7632 139.827708 
L 423.826971 140.083855 
L 423.890743 140.013844 
L 424.082057 139.808833 
L 424.145829 140.068082 
L 424.2096 140.002535 
L 424.337143 139.872237 
L 424.400914 140.131089 
L 424.464686 140.066304 
L 424.592229 139.937482 
L 424.656 140.131879 
L 424.783543 138.716682 
L 424.911086 139.173177 
L 425.038629 137.704772 
L 425.1024 137.968561 
L 425.229943 136.573352 
L 425.293714 136.838287 
L 425.357486 136.782848 
L 425.421257 136.782848 
L 425.485029 138.64387 
L 425.5488 138.587407 
L 425.612571 138.849561 
L 425.676343 138.793298 
L 425.740114 138.793298 
L 425.867657 140.587743 
L 425.931429 140.534109 
L 426.058971 140.79684 
L 426.122743 142.32076 
L 426.186514 142.266316 
L 426.377829 142.732322 
L 426.4416 142.67831 
L 426.632914 143.143011 
L 426.696686 143.09277 
L 426.888 143.566198 
L 426.951771 143.516361 
L 427.206857 144.248634 
L 427.270629 144.199182 
L 427.461943 144.669026 
L 427.525714 144.623268 
L 427.7808 145.36284 
L 427.844571 145.317432 
L 428.099657 146.053358 
L 428.163429 146.008301 
L 428.290971 146.530096 
L 428.418514 145.232419 
L 428.482286 147.011682 
L 428.546057 146.970154 
L 428.801143 147.710227 
L 428.864914 147.669015 
L 429.183771 148.676269 
L 429.247543 148.638483 
L 429.630171 149.90086 
L 429.693943 149.866452 
L 430.076571 151.136369 
L 430.140343 151.102126 
L 430.586743 152.633077 
L 430.650514 152.601965 
L 431.160686 154.391343 
L 431.224457 154.363259 
L 431.734629 156.150336 
L 431.7984 156.125198 
L 432.372343 158.168003 
L 432.436114 158.145625 
L 433.1376 160.699957 
L 433.201371 160.680051 
L 433.966629 163.475457 
L 434.0304 163.460746 
L 434.668114 165.581467 
L 435.305829 167.322025 
L 435.3696 167.271412 
L 439.004571 179.370119 
L 440.7264 186.07362 
L 440.853943 185.097165 
L 441.045257 187.192509 
L 442.001829 190.995598 
L 442.0656 191.039421 
L 443.022171 195.027479 
L 443.085943 195.082519 
L 443.914971 198.623527 
L 443.978743 198.690947 
L 444.616457 201.389152 
L 444.680229 201.464674 
L 445.254171 203.908731 
L 445.317943 203.991807 
L 445.828114 206.252444 
L 445.891886 206.252444 
L 446.338286 208.130055 
L 446.402057 208.223961 
L 446.784686 209.795242 
L 446.848457 209.89489 
L 447.231086 211.489866 
L 447.294857 211.595245 
L 447.613714 212.866563 
L 447.677486 212.974753 
L 447.932571 214.259497 
L 447.996343 214.259497 
L 448.3152 215.682468 
L 448.442743 214.07023 
L 448.506514 214.549494 
L 448.825371 215.758355 
L 448.889143 215.880251 
L 448.952914 216.247407 
L 449.016686 215.514561 
L 449.080457 215.882617 
L 449.144229 216.006575 
L 449.463086 217.36641 
L 449.6544 217.992081 
L 450.355886 221.515904 
L 450.5472 222.032752 
L 450.738514 223.667424 
L 450.929829 224.191697 
L 451.121143 225.832291 
L 451.44 226.790976 
L 451.631314 227.47105 
L 451.695086 227.187226 
L 451.758857 226.365261 
L 451.822629 226.514178 
L 452.141486 227.507708 
L 452.3328 228.205836 
L 452.524114 228.753976 
L 452.715429 230.185294 
L 452.906743 230.900228 
L 453.353143 232.099025 
L 453.416914 233.226188 
L 453.480686 232.583953 
L 453.735771 233.640541 
L 453.799543 233.640541 
L 454.5648 235.893116 
L 454.628571 236.235625 
L 454.756114 234.826455 
L 454.819886 234.998923 
L 455.585143 237.385765 
L 456.733029 241.104627 
L 457.562057 243.621706 
L 457.625829 243.601215 
L 458.327314 245.834054 
L 458.454857 245.10209 
L 458.965029 246.74549 
L 459.0288 246.74766 
L 459.347657 247.720403 
L 460.304229 260.533672 
L 462.536229 284.159736 
L 462.6 284.162084 
L 463.0464 287.939994 
L 464.449371 297.660567 
L 464.513143 297.666245 
L 465.2784 300.314568 
L 465.342171 300.320954 
L 465.533486 300.807697 
L 465.661029 300.820475 
L 465.788571 301.066994 
L 466.681371 301.174406 
L 466.808914 300.953231 
L 466.936457 300.97199 
L 467.064 300.750643 
L 467.127771 300.756892 
L 467.255314 300.535606 
L 467.382857 300.541855 
L 467.574171 300.09283 
L 467.701714 300.099106 
L 467.893029 299.649964 
L 468.020571 299.656322 
L 468.211886 299.200946 
L 468.275657 299.207222 
L 468.4032 298.9842 
L 468.466971 298.9842 
L 468.658286 298.532531 
L 468.722057 298.532531 
L 468.8496 298.309296 
L 468.913371 298.314775 
L 469.104686 297.857524 
L 469.232229 297.862928 
L 469.423543 297.411156 
L 469.551086 297.416622 
L 469.678629 297.187921 
L 469.7424 297.193387 
L 469.869943 296.970248 
L 469.933714 296.970248 
L 470.125029 296.518256 
L 470.252571 296.522912 
L 470.443886 296.068483 
L 470.507657 296.07309 
L 470.698971 295.618648 
L 470.826514 295.627938 
L 471.017829 295.173434 
L 471.145371 295.182717 
L 471.336686 294.728254 
L 471.464229 294.737579 
L 471.591771 294.512723 
L 471.655543 294.517419 
L 471.846857 294.062867 
L 471.9744 294.07226 
L 472.165714 293.615401 
L 472.293257 293.623249 
L 472.484571 293.166293 
L 472.612114 293.174162 
L 472.803429 292.717213 
L 472.930971 292.725076 
L 473.122286 292.268058 
L 473.249829 292.27592 
L 473.441143 291.818848 
L 473.568686 291.826751 
L 473.76 291.369644 
L 473.887543 291.376167 
L 474.078857 290.916925 
L 474.2064 290.923448 
L 474.397714 290.46413 
L 474.525257 290.470654 
L 474.716571 290.011315 
L 474.844114 290.017866 
L 475.035429 289.558452 
L 475.162971 289.565002 
L 475.354286 289.105437 
L 475.481829 289.111988 
L 475.673143 288.651805 
L 475.800686 288.657099 
L 475.992 288.195632 
L 476.119543 288.200954 
L 476.247086 287.97158 
L 476.310857 287.974265 
L 476.502171 287.51264 
L 476.629714 287.517961 
L 476.821029 287.056309 
L 476.948571 287.06163 
L 477.139886 286.599834 
L 477.267429 286.605176 
L 477.458743 286.142857 
L 477.586286 286.147073 
L 477.7776 285.683553 
L 477.905143 285.687762 
L 478.096457 285.224174 
L 478.224 285.228383 
L 478.415314 284.764719 
L 478.542857 284.768976 
L 478.734171 284.30527 
L 478.861714 284.3095 
L 479.053029 283.845726 
L 479.180571 283.849956 
L 479.371886 283.385104 
L 479.499429 283.388331 
L 479.690743 282.922909 
L 479.818286 282.926136 
L 480.0096 282.460556 
L 480.073371 282.462149 
L 480.200914 282.231876 
L 480.264686 282.233517 
L 480.456 281.767937 
L 480.647314 281.771185 
L 480.838629 281.305529 
L 480.966171 281.30877 
L 481.157486 280.842613 
L 481.285029 280.844982 
L 481.476343 280.377878 
L 481.603886 280.380247 
L 481.7952 279.912991 
L 481.922743 279.91536 
L 482.114057 279.448119 
L 482.2416 279.450501 
L 482.432914 278.983205 
L 482.560457 278.98558 
L 482.751771 278.518208 
L 482.879314 278.520591 
L 483.070629 278.052031 
L 483.198171 278.053672 
L 483.389486 277.585043 
L 483.517029 277.586684 
L 483.644571 277.352724 
L 483.708343 277.353555 
L 483.899657 276.884795 
L 484.0272 276.886464 
L 484.218514 276.41767 
L 484.346057 276.419312 
L 484.537371 275.950422 
L 484.664914 275.95207 
L 484.856229 275.482528 
L 484.983771 275.483592 
L 485.175086 275.013673 
L 485.302629 275.014716 
L 485.493943 274.544728 
L 485.621486 274.545765 
L 485.8128 274.075681 
L 485.940343 274.076724 
L 486.131657 273.606592 
L 486.2592 273.607635 
L 486.450514 273.137352 
L 486.578057 273.138155 
L 486.7056 272.902863 
L 486.769371 272.903158 
L 486.960686 272.432126 
L 487.088229 272.432703 
L 487.279543 271.961619 
L 487.407086 271.962196 
L 487.5984 271.491027 
L 487.725943 271.491603 
L 487.917257 271.0203 
L 488.0448 271.020891 
L 488.236114 270.549601 
L 488.363657 270.550175 
L 488.554971 270.078308 
L 488.682514 270.078552 
L 488.873829 269.606604 
L 489.001371 269.606847 
L 489.192686 269.13484 
L 489.320229 269.135098 
L 489.511543 268.663019 
L 489.639086 268.663263 
L 489.766629 268.427221 
L 489.8304 268.427348 
L 490.021714 267.955166 
L 490.149257 267.95541 
L 490.340571 267.48296 
L 490.468114 267.483012 
L 490.659429 267.010394 
L 490.786971 267.010445 
L 490.978286 266.537758 
L 491.105829 266.53781 
L 491.297143 266.065051 
L 491.424686 266.065102 
L 491.616 265.592271 
L 491.743543 265.592326 
L 491.934857 265.119427 
L 492.0624 265.119451 
L 492.189943 264.882888 
L 492.253714 264.882888 
L 492.445029 264.409796 
L 492.572571 264.409796 
L 492.763886 263.936632 
L 492.891429 263.936632 
L 493.082743 263.463399 
L 493.210286 263.463399 
L 493.4016 262.990098 
L 493.529143 262.990098 
L 493.720457 262.516724 
L 493.848 262.516724 
L 494.039314 262.0432 
L 494.166857 262.0432 
L 494.358171 261.569686 
L 494.485714 261.569686 
L 494.613257 261.332944 
L 494.677029 261.332944 
L 494.868343 260.859324 
L 494.995886 260.859324 
L 495.1872 260.385634 
L 495.314743 260.385634 
L 495.506057 259.911876 
L 495.6336 259.911876 
L 495.824914 259.437964 
L 495.952457 259.437964 
L 496.143771 258.964065 
L 496.271314 258.964065 
L 496.462629 258.490098 
L 496.590171 258.490098 
L 496.781486 258.016055 
L 496.909029 258.016055 
L 497.036571 257.779052 
L 497.100343 257.779052 
L 497.291657 257.304824 
L 497.4192 257.304824 
L 497.610514 256.83061 
L 497.738057 256.83061 
L 497.929371 256.356323 
L 498.056914 256.356323 
L 498.248229 255.881968 
L 498.375771 255.881968 
L 498.567086 255.40754 
L 498.694629 255.40754 
L 498.885943 254.933044 
L 499.013486 254.933044 
L 499.141029 254.695729 
L 499.2048 254.695729 
L 499.396114 254.22113 
L 499.523657 254.22113 
L 499.714971 253.746459 
L 499.842514 253.746459 
L 500.033829 253.271716 
L 500.161371 253.271716 
L 500.352686 252.796904 
L 500.480229 252.796904 
L 500.671543 252.322023 
L 500.735314 252.322023 
L 500.862857 252.084512 
L 500.926629 252.084512 
L 501.054171 251.84707 
L 501.117943 251.84707 
L 501.245486 251.609525 
L 501.309257 251.609525 
L 501.500571 251.13447 
L 501.628114 251.13447 
L 501.819429 250.659342 
L 501.946971 250.659342 
L 502.138286 250.184142 
L 502.265829 250.184142 
L 502.457143 249.708877 
L 502.648457 249.708877 
L 502.839771 249.233536 
L 502.903543 249.233536 
L 503.031086 248.995802 
L 503.094857 248.995802 
L 503.286171 248.520359 
L 503.413714 248.520359 
L 503.605029 248.044843 
L 503.6688 248.044843 
L 503.796343 247.80702 
L 503.860114 247.80702 
L 503.987657 247.569258 
L 504.051429 247.569258 
L 504.242743 247.093605 
L 504.370286 247.093605 
L 504.5616 246.617884 
L 504.689143 246.617884 
L 504.880457 246.142086 
L 505.008 246.142086 
L 505.135543 245.904123 
L 505.199314 245.904123 
L 505.390629 245.428222 
L 505.4544 245.428222 
L 505.581943 245.190207 
L 505.645714 245.190207 
L 505.773257 244.952253 
L 505.837029 244.952253 
L 505.964571 244.714202 
L 506.028343 244.714202 
L 506.219657 244.238127 
L 506.283429 244.238127 
L 506.410971 244.000104 
L 506.474743 244.000104 
L 506.666057 243.523842 
L 506.7936 243.523842 
L 506.921143 243.285766 
L 506.984914 243.285766 
L 507.176229 242.80948 
L 507.303771 242.80948 
L 507.495086 242.333125 
L 507.622629 242.333125 
L 507.813943 241.856699 
L 507.941486 241.856699 
L 508.1328 241.380121 
L 508.260343 241.380121 
L 508.387886 241.141887 
L 508.451657 241.141887 
L 508.834286 236.12403 
L 508.898057 236.12403 
L 509.280686 231.103455 
L 509.344457 231.103455 
L 509.727086 226.319145 
L 509.982171 222.2509 
L 510.8112 213.822166 
L 510.938743 213.822166 
L 511.193829 214.386686 
L 511.321371 214.036861 
L 511.385143 214.079758 
L 511.640229 216.556462 
L 511.704 216.556462 
L 511.895314 217.034761 
L 511.959086 217.034761 
L 512.1504 217.51299 
L 512.405486 215.862969 
L 512.660571 216.580295 
L 512.724343 215.991488 
L 512.788114 216.230638 
L 513.106971 218.464932 
L 513.234514 218.703965 
L 513.425829 218.703965 
L 513.553371 218.942898 
L 513.744686 218.942898 
L 513.872229 219.181896 
L 514.127314 219.181896 
L 514.254857 219.420794 
L 514.701257 219.420794 
L 514.8288 219.659757 
L 515.976686 219.659757 
L 516.104229 219.89862 
L 517.889829 219.89862 
L 518.017371 219.659757 
L 518.4 219.659757 
L 518.4 219.659757 
" style="fill:none;stroke:#008000;stroke-linecap:square;"/>
   </g>
   <g id="line2d_2">
    <path clip-path="url(#pb57eb7cb2e)" d="M 72.063771 216 
L 81.501943 215.889476 
L 82.2672 215.733345 
L 83.542629 215.392277 
L 84.0528 215.225785 
L 85.392 214.699555 
L 85.710857 214.452073 
L 87.624 213.828745 
L 89.218286 213.188316 
L 89.664686 213.011091 
L 94.383771 211.430996 
L 95.914286 211.061531 
L 96.360686 210.959656 
L 97.317257 210.759577 
L 97.954971 210.650488 
L 103.630629 209.423368 
L 113.005029 207.729143 
L 119.382171 206.820507 
L 124.611429 206.286308 
L 129.266743 205.810733 
L 134.113371 205.48334 
L 137.046857 205.298758 
L 139.215086 206.067643 
L 140.171657 206.683132 
L 141.000686 207.448866 
L 142.148571 208.721198 
L 143.168914 209.955999 
L 143.424 210.645164 
L 144.508114 211.774032 
L 145.273371 212.496366 
L 145.400914 212.566856 
L 146.931429 214.108811 
L 147.058971 214.175796 
L 148.3344 215.37414 
L 148.461943 215.438305 
L 149.2272 216.068631 
L 149.354743 216.129498 
L 150.056229 216.666615 
L 150.183771 216.723955 
L 150.885257 217.233145 
L 151.076571 217.341644 
L 151.714286 217.767547 
L 151.9056 217.869664 
L 152.543314 218.27019 
L 152.734629 218.365998 
L 153.436114 218.787658 
L 153.627429 218.877294 
L 154.328914 219.269815 
L 154.520229 219.353894 
L 159.175543 222.544602 
L 162.427886 225.140458 
L 165.680229 228.030095 
L 168.932571 231.228227 
L 171.292114 233.822633 
L 175.1184 238.251067 
L 178.434514 242.54445 
L 182.133257 247.689439 
L 184.365257 251.100192 
L 184.9392 252.585503 
L 185.704457 254.050464 
L 185.959543 254.622011 
L 187.1712 256.940988 
L 187.490057 257.782592 
L 189.020571 260.830749 
L 189.275657 261.447157 
L 191.061257 265.03339 
L 191.316343 265.649043 
L 192.591771 268.252855 
L 192.846857 268.872865 
L 194.504914 272.193304 
L 194.76 272.80209 
L 195.971657 275.225928 
L 196.226743 275.829305 
L 198.076114 279.466171 
L 198.458743 280.566774 
L 199.542857 282.912856 
L 199.861714 283.7903 
L 201.519771 286.86411 
L 201.647314 286.97146 
L 202.667657 288.479924 
L 202.7952 288.57453 
L 203.305371 289.217278 
L 203.432914 289.304963 
L 204.006857 289.90862 
L 204.835886 290.809534 
L 204.963429 216 
L 271.604571 216 
L 271.732114 158.4 
L 275.813486 158.459738 
L 276.514971 158.953735 
L 277.152686 159.142432 
L 277.726629 159.099314 
L 278.364343 158.813937 
L 279.1296 158.182278 
L 280.660114 156.642881 
L 282.190629 154.78775 
L 283.721143 152.593108 
L 285.3792 149.812111 
L 287.101029 146.46731 
L 288.312686 143.69927 
L 290.034514 139.49336 
L 291.373714 136.037769 
L 291.6288 135.244151 
L 294.179657 128.706503 
L 294.434743 127.918666 
L 296.284114 123.054696 
L 296.602971 121.954498 
L 297.049371 120.693452 
L 297.432 119.258219 
L 300.620571 111.450126 
L 304.064229 104.209559 
L 306.168686 100.59847 
L 306.296229 100.501089 
L 306.742629 99.95592 
L 306.870171 99.86851 
L 307.316571 99.380745 
L 307.444114 99.305571 
L 307.890514 98.946867 
L 308.464457 98.504846 
L 309.0384 98.127342 
L 309.739886 97.719942 
L 310.505143 97.35455 
L 311.206629 97.101164 
L 311.7168 97.001559 
L 313.056 96.740538 
L 314.777829 96.605969 
L 316.435886 96.700754 
L 318.093943 97.022255 
L 319.752 97.56855 
L 321.410057 98.33898 
L 321.665143 98.477229 
L 323.514514 99.626509 
L 325.427657 101.079884 
L 327.085714 102.530566 
L 327.277029 102.709939 
L 328.871314 104.370131 
L 329.509029 105.265414 
L 329.700343 105.565498 
L 330.784457 107.524896 
L 331.868571 109.943921 
L 332.952686 112.987745 
L 333.909257 116.041566 
L 334.164343 117.113496 
L 336.396343 125.101579 
L 339.84 139.06694 
L 340.095086 140.3599 
L 340.158857 140.3599 
L 343.283657 153.417961 
L 343.602514 155.207661 
L 343.730057 155.977405 
L 344.176457 158.830925 
L 345.005486 161.941457 
L 345.069257 161.941457 
L 346.153371 165.967774 
L 346.217143 165.967774 
L 346.663543 167.934372 
L 346.918629 169.167494 
L 349.086857 177.101666 
L 349.150629 177.101666 
L 351.127543 183.90667 
L 351.191314 183.90667 
L 351.382629 184.563515 
L 352.976914 190.343812 
L 353.168229 191.19965 
L 353.232 191.19965 
L 354.762514 196.646284 
L 355.081371 198.107778 
L 357.058286 204.388507 
L 357.122057 204.388507 
L 357.759771 206.513358 
L 358.1424 208.259572 
L 358.843886 210.185647 
L 358.907657 210.185647 
L 359.098971 210.938292 
L 359.162743 210.938292 
L 359.800457 212.584696 
L 359.864229 212.584696 
L 360.501943 214.160559 
L 360.565714 214.160559 
L 361.139657 215.500321 
L 361.203429 215.500321 
L 362.415086 218.353973 
L 362.478857 218.353973 
L 362.925257 219.257943 
L 362.989029 219.257943 
L 365.986286 225.856359 
L 369.111086 232.193602 
L 372.490971 238.535924 
L 374.914286 242.712275 
L 378.2304 247.998635 
L 381.992914 253.621767 
L 382.120457 253.711035 
L 386.2656 259.281567 
L 391.558629 266.38672 
L 393.599314 269.590952 
L 393.8544 270.069585 
L 394.555886 271.244984 
L 395.066057 272.53424 
L 395.1936 272.874411 
L 395.512457 273.700841 
L 395.576229 273.821642 
L 395.703771 216 
L 400.040229 216 
L 400.167771 158.4 
L 404.504229 158.4597 
L 405.269486 159.007345 
L 405.843429 159.135047 
L 406.544914 158.963351 
L 407.182629 158.538297 
L 408.394286 157.602715 
L 408.5856 157.541061 
L 408.776914 156.956369 
L 409.159543 156.345515 
L 412.029257 152.61416 
L 414.707657 148.390363 
L 416.748343 144.392686 
L 417.449829 142.999104 
L 417.5136 142.999104 
L 418.342629 141.307587 
L 418.4064 141.307587 
L 419.107886 139.891621 
L 419.171657 139.891621 
L 420.000686 138.204609 
L 420.064457 138.204609 
L 420.6384 137.085397 
L 420.702171 137.085397 
L 421.276114 135.982706 
L 421.339886 135.982706 
L 421.9776 134.762173 
L 422.041371 134.762173 
L 424.911086 128.482979 
L 425.166171 127.764047 
L 425.676343 126.755901 
L 425.740114 126.755901 
L 427.972114 122.112344 
L 431.352 115.238191 
L 434.0304 110.296719 
L 436.2624 106.615839 
L 438.175543 103.860043 
L 438.239314 103.860043 
L 438.4944 103.444787 
L 440.216229 101.400149 
L 441.810514 99.846085 
L 443.277257 98.71588 
L 444.744 97.87375 
L 446.146971 97.33623 
L 447.486171 97.062849 
L 449.080457 96.985176 
L 450.292114 97.086717 
L 451.567543 97.430768 
L 453.416914 98.252422 
L 453.735771 98.513347 
L 453.927086 98.590787 
L 455.074971 99.426146 
L 456.605486 100.583734 
L 456.924343 100.911649 
L 458.773714 102.687039 
L 459.985371 104.087686 
L 460.8144 105.384917 
L 461.069486 105.955877 
L 462.217371 108.308908 
L 463.173943 110.71891 
L 464.130514 113.395187 
L 465.7248 118.090681 
L 466.362514 120.125988 
L 466.681371 121.422045 
L 467.893029 124.727756 
L 467.9568 124.727756 
L 468.4032 125.813638 
L 468.466971 125.813638 
L 468.977143 127.068214 
L 469.040914 127.068214 
L 469.423543 127.956088 
L 469.487314 127.956088 
L 469.869943 128.838139 
L 469.933714 128.838139 
L 472.4208 135.362707 
L 476.055771 144.621421 
L 479.499429 152.804079 
L 482.879314 160.269863 
L 486.195429 167.046069 
L 489.256457 172.816129 
L 492.253714 178.013071 
L 495.1872 182.665074 
L 497.993143 186.7123 
L 500.671543 190.208465 
L 505.518171 196.039098 
L 505.645714 196.102447 
L 506.857371 197.14215 
L 507.6864 198.010157 
L 507.877714 198.235107 
L 508.005257 198.290698 
L 508.834286 198.909587 
L 509.0256 198.991216 
L 509.790857 199.332566 
L 510.556114 199.426755 
L 513.4896 199.444364 
L 518.4 200.036934 
L 518.4 200.036934 
" style="fill:none;stroke:#0000ff;stroke-linecap:square;"/>
   </g>
   <g id="patch_3">
    <path d="M 72 43.2 
L 518.4 43.2 
" style="fill:none;stroke:#000000;stroke-linecap:square;stroke-linejoin:miter;"/>
   </g>
   <g id="patch_4">
    <path d="M 518.4 388.8 
L 518.4 43.2 
" style="fill:none;stroke:#000000;stroke-linecap:square;stroke-linejoin:miter;"/>
   </g>
   <g id="patch_5">
    <path d="M 72 388.8 
L 518.4 388.8 
" style="fill:none;stroke:#000000;stroke-linecap:square;stroke-linejoin:miter;"/>
   </g>
   <g id="patch_6">
    <path d="M 72 388.8 
L 72 43.2 
" style="fill:none;stroke:#000000;stroke-linecap:square;stroke-linejoin:miter;"/>
   </g>
   <g id="matplotlib.axis_1">
    <g id="xtick_1">
     <g id="line2d_3">
      <path clip-path="url(#pb57eb7cb2e)" d="M 72 388.8 
L 72 43.2 
" style="fill:none;stroke:#000000;stroke-dasharray:1.000000,3.000000;stroke-dashoffset:0.0;stroke-width:0.5;"/>
     </g>
     <g id="line2d_4">
      <defs>
       <path d="M 0 0 
L 0 -4 
" id="ma4b5fd582b" style="stroke:#000000;stroke-width:0.5;"/>
      </defs>
      <g>
       <use style="stroke:#000000;stroke-width:0.5;" x="72.0" xlink:href="#ma4b5fd582b" y="388.8"/>
      </g>
     </g>
     <g id="line2d_5">
      <defs>
       <path d="M 0 0 
L 0 4 
" id="m912ac595e8" style="stroke:#000000;stroke-width:0.5;"/>
      </defs>
      <g>
       <use style="stroke:#000000;stroke-width:0.5;" x="72.0" xlink:href="#m912ac595e8" y="43.2"/>
      </g>
     </g>
     <g id="text_1">
      <!-- 0 -->
      <defs>
       <path d="M 31.78125 66.40625 
Q 24.171875 66.40625 20.328125 58.90625 
Q 16.5 51.421875 16.5 36.375 
Q 16.5 21.390625 20.328125 13.890625 
Q 24.171875 6.390625 31.78125 6.390625 
Q 39.453125 6.390625 43.28125 13.890625 
Q 47.125 21.390625 47.125 36.375 
Q 47.125 51.421875 43.28125 58.90625 
Q 39.453125 66.40625 31.78125 66.40625 
M 31.78125 74.21875 
Q 44.046875 74.21875 50.515625 64.515625 
Q 56.984375 54.828125 56.984375 36.375 
Q 56.984375 17.96875 50.515625 8.265625 
Q 44.046875 -1.421875 31.78125 -1.421875 
Q 19.53125 -1.421875 13.0625 8.265625 
Q 6.59375 17.96875 6.59375 36.375 
Q 6.59375 54.828125 13.0625 64.515625 
Q 19.53125 74.21875 31.78125 74.21875 
" id="BitstreamVeraSans-Roman-30"/>
      </defs>
      <g transform="translate(68.1825 401.918125)scale(0.12 -0.12)">
       <use xlink:href="#BitstreamVeraSans-Roman-30"/>
      </g>
     </g>
    </g>
    <g id="xtick_2">
     <g id="line2d_6">
      <path clip-path="url(#pb57eb7cb2e)" d="M 135.771429 388.8 
L 135.771429 43.2 
" style="fill:none;stroke:#000000;stroke-dasharray:1.000000,3.000000;stroke-dashoffset:0.0;stroke-width:0.5;"/>
     </g>
     <g id="line2d_7">
      <g>
       <use style="stroke:#000000;stroke-width:0.5;" x="135.771428571" xlink:href="#ma4b5fd582b" y="388.8"/>
      </g>
     </g>
     <g id="line2d_8">
      <g>
       <use style="stroke:#000000;stroke-width:0.5;" x="135.771428571" xlink:href="#m912ac595e8" y="43.2"/>
      </g>
     </g>
     <g id="text_2">
      <!-- 10 -->
      <defs>
       <path d="M 12.40625 8.296875 
L 28.515625 8.296875 
L 28.515625 63.921875 
L 10.984375 60.40625 
L 10.984375 69.390625 
L 28.421875 72.90625 
L 38.28125 72.90625 
L 38.28125 8.296875 
L 54.390625 8.296875 
L 54.390625 0 
L 12.40625 0 
z
" id="BitstreamVeraSans-Roman-31"/>
      </defs>
      <g transform="translate(128.136428571 401.918125)scale(0.12 -0.12)">
       <use xlink:href="#BitstreamVeraSans-Roman-31"/>
       <use x="63.623046875" xlink:href="#BitstreamVeraSans-Roman-30"/>
      </g>
     </g>
    </g>
    <g id="xtick_3">
     <g id="line2d_9">
      <path clip-path="url(#pb57eb7cb2e)" d="M 199.542857 388.8 
L 199.542857 43.2 
" style="fill:none;stroke:#000000;stroke-dasharray:1.000000,3.000000;stroke-dashoffset:0.0;stroke-width:0.5;"/>
     </g>
     <g id="line2d_10">
      <g>
       <use style="stroke:#000000;stroke-width:0.5;" x="199.542857143" xlink:href="#ma4b5fd582b" y="388.8"/>
      </g>
     </g>
     <g id="line2d_11">
      <g>
       <use style="stroke:#000000;stroke-width:0.5;" x="199.542857143" xlink:href="#m912ac595e8" y="43.2"/>
      </g>
     </g>
     <g id="text_3">
      <!-- 20 -->
      <defs>
       <path d="M 19.1875 8.296875 
L 53.609375 8.296875 
L 53.609375 0 
L 7.328125 0 
L 7.328125 8.296875 
Q 12.9375 14.109375 22.625 23.890625 
Q 32.328125 33.6875 34.8125 36.53125 
Q 39.546875 41.84375 41.421875 45.53125 
Q 43.3125 49.21875 43.3125 52.78125 
Q 43.3125 58.59375 39.234375 62.25 
Q 35.15625 65.921875 28.609375 65.921875 
Q 23.96875 65.921875 18.8125 64.3125 
Q 13.671875 62.703125 7.8125 59.421875 
L 7.8125 69.390625 
Q 13.765625 71.78125 18.9375 73 
Q 24.125 74.21875 28.421875 74.21875 
Q 39.75 74.21875 46.484375 68.546875 
Q 53.21875 62.890625 53.21875 53.421875 
Q 53.21875 48.921875 51.53125 44.890625 
Q 49.859375 40.875 45.40625 35.40625 
Q 44.1875 33.984375 37.640625 27.21875 
Q 31.109375 20.453125 19.1875 8.296875 
" id="BitstreamVeraSans-Roman-32"/>
      </defs>
      <g transform="translate(191.907857143 401.918125)scale(0.12 -0.12)">
       <use xlink:href="#BitstreamVeraSans-Roman-32"/>
       <use x="63.623046875" xlink:href="#BitstreamVeraSans-Roman-30"/>
      </g>
     </g>
    </g>
    <g id="xtick_4">
     <g id="line2d_12">
      <path clip-path="url(#pb57eb7cb2e)" d="M 263.314286 388.8 
L 263.314286 43.2 
" style="fill:none;stroke:#000000;stroke-dasharray:1.000000,3.000000;stroke-dashoffset:0.0;stroke-width:0.5;"/>
     </g>
     <g id="line2d_13">
      <g>
       <use style="stroke:#000000;stroke-width:0.5;" x="263.314285714" xlink:href="#ma4b5fd582b" y="388.8"/>
      </g>
     </g>
     <g id="line2d_14">
      <g>
       <use style="stroke:#000000;stroke-width:0.5;" x="263.314285714" xlink:href="#m912ac595e8" y="43.2"/>
      </g>
     </g>
     <g id="text_4">
      <!-- 30 -->
      <defs>
       <path d="M 40.578125 39.3125 
Q 47.65625 37.796875 51.625 33 
Q 55.609375 28.21875 55.609375 21.1875 
Q 55.609375 10.40625 48.1875 4.484375 
Q 40.765625 -1.421875 27.09375 -1.421875 
Q 22.515625 -1.421875 17.65625 -0.515625 
Q 12.796875 0.390625 7.625 2.203125 
L 7.625 11.71875 
Q 11.71875 9.328125 16.59375 8.109375 
Q 21.484375 6.890625 26.8125 6.890625 
Q 36.078125 6.890625 40.9375 10.546875 
Q 45.796875 14.203125 45.796875 21.1875 
Q 45.796875 27.640625 41.28125 31.265625 
Q 36.765625 34.90625 28.71875 34.90625 
L 20.21875 34.90625 
L 20.21875 43.015625 
L 29.109375 43.015625 
Q 36.375 43.015625 40.234375 45.921875 
Q 44.09375 48.828125 44.09375 54.296875 
Q 44.09375 59.90625 40.109375 62.90625 
Q 36.140625 65.921875 28.71875 65.921875 
Q 24.65625 65.921875 20.015625 65.03125 
Q 15.375 64.15625 9.8125 62.3125 
L 9.8125 71.09375 
Q 15.4375 72.65625 20.34375 73.4375 
Q 25.25 74.21875 29.59375 74.21875 
Q 40.828125 74.21875 47.359375 69.109375 
Q 53.90625 64.015625 53.90625 55.328125 
Q 53.90625 49.265625 50.4375 45.09375 
Q 46.96875 40.921875 40.578125 39.3125 
" id="BitstreamVeraSans-Roman-33"/>
      </defs>
      <g transform="translate(255.679285714 401.918125)scale(0.12 -0.12)">
       <use xlink:href="#BitstreamVeraSans-Roman-33"/>
       <use x="63.623046875" xlink:href="#BitstreamVeraSans-Roman-30"/>
      </g>
     </g>
    </g>
    <g id="xtick_5">
     <g id="line2d_15">
      <path clip-path="url(#pb57eb7cb2e)" d="M 327.085714 388.8 
L 327.085714 43.2 
" style="fill:none;stroke:#000000;stroke-dasharray:1.000000,3.000000;stroke-dashoffset:0.0;stroke-width:0.5;"/>
     </g>
     <g id="line2d_16">
      <g>
       <use style="stroke:#000000;stroke-width:0.5;" x="327.085714286" xlink:href="#ma4b5fd582b" y="388.8"/>
      </g>
     </g>
     <g id="line2d_17">
      <g>
       <use style="stroke:#000000;stroke-width:0.5;" x="327.085714286" xlink:href="#m912ac595e8" y="43.2"/>
      </g>
     </g>
     <g id="text_5">
      <!-- 40 -->
      <defs>
       <path d="M 37.796875 64.3125 
L 12.890625 25.390625 
L 37.796875 25.390625 
z
M 35.203125 72.90625 
L 47.609375 72.90625 
L 47.609375 25.390625 
L 58.015625 25.390625 
L 58.015625 17.1875 
L 47.609375 17.1875 
L 47.609375 0 
L 37.796875 0 
L 37.796875 17.1875 
L 4.890625 17.1875 
L 4.890625 26.703125 
z
" id="BitstreamVeraSans-Roman-34"/>
      </defs>
      <g transform="translate(319.450714286 401.918125)scale(0.12 -0.12)">
       <use xlink:href="#BitstreamVeraSans-Roman-34"/>
       <use x="63.623046875" xlink:href="#BitstreamVeraSans-Roman-30"/>
      </g>
     </g>
    </g>
    <g id="xtick_6">
     <g id="line2d_18">
      <path clip-path="url(#pb57eb7cb2e)" d="M 390.857143 388.8 
L 390.857143 43.2 
" style="fill:none;stroke:#000000;stroke-dasharray:1.000000,3.000000;stroke-dashoffset:0.0;stroke-width:0.5;"/>
     </g>
     <g id="line2d_19">
      <g>
       <use style="stroke:#000000;stroke-width:0.5;" x="390.857142857" xlink:href="#ma4b5fd582b" y="388.8"/>
      </g>
     </g>
     <g id="line2d_20">
      <g>
       <use style="stroke:#000000;stroke-width:0.5;" x="390.857142857" xlink:href="#m912ac595e8" y="43.2"/>
      </g>
     </g>
     <g id="text_6">
      <!-- 50 -->
      <defs>
       <path d="M 10.796875 72.90625 
L 49.515625 72.90625 
L 49.515625 64.59375 
L 19.828125 64.59375 
L 19.828125 46.734375 
Q 21.96875 47.46875 24.109375 47.828125 
Q 26.265625 48.1875 28.421875 48.1875 
Q 40.625 48.1875 47.75 41.5 
Q 54.890625 34.8125 54.890625 23.390625 
Q 54.890625 11.625 47.5625 5.09375 
Q 40.234375 -1.421875 26.90625 -1.421875 
Q 22.3125 -1.421875 17.546875 -0.640625 
Q 12.796875 0.140625 7.71875 1.703125 
L 7.71875 11.625 
Q 12.109375 9.234375 16.796875 8.0625 
Q 21.484375 6.890625 26.703125 6.890625 
Q 35.15625 6.890625 40.078125 11.328125 
Q 45.015625 15.765625 45.015625 23.390625 
Q 45.015625 31 40.078125 35.4375 
Q 35.15625 39.890625 26.703125 39.890625 
Q 22.75 39.890625 18.8125 39.015625 
Q 14.890625 38.140625 10.796875 36.28125 
z
" id="BitstreamVeraSans-Roman-35"/>
      </defs>
      <g transform="translate(383.222142857 401.918125)scale(0.12 -0.12)">
       <use xlink:href="#BitstreamVeraSans-Roman-35"/>
       <use x="63.623046875" xlink:href="#BitstreamVeraSans-Roman-30"/>
      </g>
     </g>
    </g>
    <g id="xtick_7">
     <g id="line2d_21">
      <path clip-path="url(#pb57eb7cb2e)" d="M 454.628571 388.8 
L 454.628571 43.2 
" style="fill:none;stroke:#000000;stroke-dasharray:1.000000,3.000000;stroke-dashoffset:0.0;stroke-width:0.5;"/>
     </g>
     <g id="line2d_22">
      <g>
       <use style="stroke:#000000;stroke-width:0.5;" x="454.628571429" xlink:href="#ma4b5fd582b" y="388.8"/>
      </g>
     </g>
     <g id="line2d_23">
      <g>
       <use style="stroke:#000000;stroke-width:0.5;" x="454.628571429" xlink:href="#m912ac595e8" y="43.2"/>
      </g>
     </g>
     <g id="text_7">
      <!-- 60 -->
      <defs>
       <path d="M 33.015625 40.375 
Q 26.375 40.375 22.484375 35.828125 
Q 18.609375 31.296875 18.609375 23.390625 
Q 18.609375 15.53125 22.484375 10.953125 
Q 26.375 6.390625 33.015625 6.390625 
Q 39.65625 6.390625 43.53125 10.953125 
Q 47.40625 15.53125 47.40625 23.390625 
Q 47.40625 31.296875 43.53125 35.828125 
Q 39.65625 40.375 33.015625 40.375 
M 52.59375 71.296875 
L 52.59375 62.3125 
Q 48.875 64.0625 45.09375 64.984375 
Q 41.3125 65.921875 37.59375 65.921875 
Q 27.828125 65.921875 22.671875 59.328125 
Q 17.53125 52.734375 16.796875 39.40625 
Q 19.671875 43.65625 24.015625 45.921875 
Q 28.375 48.1875 33.59375 48.1875 
Q 44.578125 48.1875 50.953125 41.515625 
Q 57.328125 34.859375 57.328125 23.390625 
Q 57.328125 12.15625 50.6875 5.359375 
Q 44.046875 -1.421875 33.015625 -1.421875 
Q 20.359375 -1.421875 13.671875 8.265625 
Q 6.984375 17.96875 6.984375 36.375 
Q 6.984375 53.65625 15.1875 63.9375 
Q 23.390625 74.21875 37.203125 74.21875 
Q 40.921875 74.21875 44.703125 73.484375 
Q 48.484375 72.75 52.59375 71.296875 
" id="BitstreamVeraSans-Roman-36"/>
      </defs>
      <g transform="translate(446.993571429 401.918125)scale(0.12 -0.12)">
       <use xlink:href="#BitstreamVeraSans-Roman-36"/>
       <use x="63.623046875" xlink:href="#BitstreamVeraSans-Roman-30"/>
      </g>
     </g>
    </g>
    <g id="xtick_8">
     <g id="line2d_24">
      <path clip-path="url(#pb57eb7cb2e)" d="M 518.4 388.8 
L 518.4 43.2 
" style="fill:none;stroke:#000000;stroke-dasharray:1.000000,3.000000;stroke-dashoffset:0.0;stroke-width:0.5;"/>
     </g>
     <g id="line2d_25">
      <g>
       <use style="stroke:#000000;stroke-width:0.5;" x="518.4" xlink:href="#ma4b5fd582b" y="388.8"/>
      </g>
     </g>
     <g id="line2d_26">
      <g>
       <use style="stroke:#000000;stroke-width:0.5;" x="518.4" xlink:href="#m912ac595e8" y="43.2"/>
      </g>
     </g>
     <g id="text_8">
      <!-- 70 -->
      <defs>
       <path d="M 8.203125 72.90625 
L 55.078125 72.90625 
L 55.078125 68.703125 
L 28.609375 0 
L 18.3125 0 
L 43.21875 64.59375 
L 8.203125 64.59375 
z
" id="BitstreamVeraSans-Roman-37"/>
      </defs>
      <g transform="translate(510.765 401.918125)scale(0.12 -0.12)">
       <use xlink:href="#BitstreamVeraSans-Roman-37"/>
       <use x="63.623046875" xlink:href="#BitstreamVeraSans-Roman-30"/>
      </g>
     </g>
    </g>
    <g id="text_9">
     <!-- Time, [s] -->
     <defs>
      <path id="BitstreamVeraSans-Roman-20"/>
      <path d="M 8.59375 75.984375 
L 29.296875 75.984375 
L 29.296875 69 
L 17.578125 69 
L 17.578125 -6.203125 
L 29.296875 -6.203125 
L 29.296875 -13.1875 
L 8.59375 -13.1875 
z
" id="BitstreamVeraSans-Roman-5b"/>
      <path d="M 30.421875 75.984375 
L 30.421875 -13.1875 
L 9.71875 -13.1875 
L 9.71875 -6.203125 
L 21.390625 -6.203125 
L 21.390625 69 
L 9.71875 69 
L 9.71875 75.984375 
z
" id="BitstreamVeraSans-Roman-5d"/>
      <path d="M 52 44.1875 
Q 55.375 50.25 60.0625 53.125 
Q 64.75 56 71.09375 56 
Q 79.640625 56 84.28125 50.015625 
Q 88.921875 44.046875 88.921875 33.015625 
L 88.921875 0 
L 79.890625 0 
L 79.890625 32.71875 
Q 79.890625 40.578125 77.09375 44.375 
Q 74.3125 48.1875 68.609375 48.1875 
Q 61.625 48.1875 57.5625 43.546875 
Q 53.515625 38.921875 53.515625 30.90625 
L 53.515625 0 
L 44.484375 0 
L 44.484375 32.71875 
Q 44.484375 40.625 41.703125 44.40625 
Q 38.921875 48.1875 33.109375 48.1875 
Q 26.21875 48.1875 22.15625 43.53125 
Q 18.109375 38.875 18.109375 30.90625 
L 18.109375 0 
L 9.078125 0 
L 9.078125 54.6875 
L 18.109375 54.6875 
L 18.109375 46.1875 
Q 21.1875 51.21875 25.484375 53.609375 
Q 29.78125 56 35.6875 56 
Q 41.65625 56 45.828125 52.96875 
Q 50 49.953125 52 44.1875 
" id="BitstreamVeraSans-Roman-6d"/>
      <path d="M 11.71875 12.40625 
L 22.015625 12.40625 
L 22.015625 4 
L 14.015625 -11.625 
L 7.71875 -11.625 
L 11.71875 4 
z
" id="BitstreamVeraSans-Roman-2c"/>
      <path d="M 9.421875 54.6875 
L 18.40625 54.6875 
L 18.40625 0 
L 9.421875 0 
z
M 9.421875 75.984375 
L 18.40625 75.984375 
L 18.40625 64.59375 
L 9.421875 64.59375 
z
" id="BitstreamVeraSans-Roman-69"/>
      <path d="M 56.203125 29.59375 
L 56.203125 25.203125 
L 14.890625 25.203125 
Q 15.484375 15.921875 20.484375 11.0625 
Q 25.484375 6.203125 34.421875 6.203125 
Q 39.59375 6.203125 44.453125 7.46875 
Q 49.3125 8.734375 54.109375 11.28125 
L 54.109375 2.78125 
Q 49.265625 0.734375 44.1875 -0.34375 
Q 39.109375 -1.421875 33.890625 -1.421875 
Q 20.796875 -1.421875 13.15625 6.1875 
Q 5.515625 13.8125 5.515625 26.8125 
Q 5.515625 40.234375 12.765625 48.109375 
Q 20.015625 56 32.328125 56 
Q 43.359375 56 49.78125 48.890625 
Q 56.203125 41.796875 56.203125 29.59375 
M 47.21875 32.234375 
Q 47.125 39.59375 43.09375 43.984375 
Q 39.0625 48.390625 32.421875 48.390625 
Q 24.90625 48.390625 20.390625 44.140625 
Q 15.875 39.890625 15.1875 32.171875 
z
" id="BitstreamVeraSans-Roman-65"/>
      <path d="M -0.296875 72.90625 
L 61.375 72.90625 
L 61.375 64.59375 
L 35.5 64.59375 
L 35.5 0 
L 25.59375 0 
L 25.59375 64.59375 
L -0.296875 64.59375 
z
" id="BitstreamVeraSans-Roman-54"/>
      <path d="M 44.28125 53.078125 
L 44.28125 44.578125 
Q 40.484375 46.53125 36.375 47.5 
Q 32.28125 48.484375 27.875 48.484375 
Q 21.1875 48.484375 17.84375 46.4375 
Q 14.5 44.390625 14.5 40.28125 
Q 14.5 37.15625 16.890625 35.375 
Q 19.28125 33.59375 26.515625 31.984375 
L 29.59375 31.296875 
Q 39.15625 29.25 43.1875 25.515625 
Q 47.21875 21.78125 47.21875 15.09375 
Q 47.21875 7.46875 41.1875 3.015625 
Q 35.15625 -1.421875 24.609375 -1.421875 
Q 20.21875 -1.421875 15.453125 -0.5625 
Q 10.6875 0.296875 5.421875 2 
L 5.421875 11.28125 
Q 10.40625 8.6875 15.234375 7.390625 
Q 20.0625 6.109375 24.8125 6.109375 
Q 31.15625 6.109375 34.5625 8.28125 
Q 37.984375 10.453125 37.984375 14.40625 
Q 37.984375 18.0625 35.515625 20.015625 
Q 33.0625 21.96875 24.703125 23.78125 
L 21.578125 24.515625 
Q 13.234375 26.265625 9.515625 29.90625 
Q 5.8125 33.546875 5.8125 39.890625 
Q 5.8125 47.609375 11.28125 51.796875 
Q 16.75 56 26.8125 56 
Q 31.78125 56 36.171875 55.265625 
Q 40.578125 54.546875 44.28125 53.078125 
" id="BitstreamVeraSans-Roman-73"/>
     </defs>
     <g transform="translate(268.71375 418.531875)scale(0.12 -0.12)">
      <use xlink:href="#BitstreamVeraSans-Roman-54"/>
      <use x="61.037109375" xlink:href="#BitstreamVeraSans-Roman-69"/>
      <use x="88.8203125" xlink:href="#BitstreamVeraSans-Roman-6d"/>
      <use x="186.232421875" xlink:href="#BitstreamVeraSans-Roman-65"/>
      <use x="247.755859375" xlink:href="#BitstreamVeraSans-Roman-2c"/>
      <use x="279.54296875" xlink:href="#BitstreamVeraSans-Roman-20"/>
      <use x="311.330078125" xlink:href="#BitstreamVeraSans-Roman-5b"/>
      <use x="350.34375" xlink:href="#BitstreamVeraSans-Roman-73"/>
      <use x="402.443359375" xlink:href="#BitstreamVeraSans-Roman-5d"/>
     </g>
    </g>
   </g>
   <g id="matplotlib.axis_2">
    <g id="ytick_1">
     <g id="line2d_27">
      <path clip-path="url(#pb57eb7cb2e)" d="M 72 388.8 
L 518.4 388.8 
" style="fill:none;stroke:#000000;stroke-dasharray:1.000000,3.000000;stroke-dashoffset:0.0;stroke-width:0.5;"/>
     </g>
     <g id="line2d_28">
      <defs>
       <path d="M 0 0 
L 4 0 
" id="me7bc3e998c" style="stroke:#000000;stroke-width:0.5;"/>
      </defs>
      <g>
       <use style="stroke:#000000;stroke-width:0.5;" x="72.0" xlink:href="#me7bc3e998c" y="388.8"/>
      </g>
     </g>
     <g id="line2d_29">
      <defs>
       <path d="M 0 0 
L -4 0 
" id="m59114bf086" style="stroke:#000000;stroke-width:0.5;"/>
      </defs>
      <g>
       <use style="stroke:#000000;stroke-width:0.5;" x="518.4" xlink:href="#m59114bf086" y="388.8"/>
      </g>
     </g>
     <g id="text_10">
      <!-- 1.5 -->
      <defs>
       <path d="M 10.59375 35.5 
L 73.1875 35.5 
L 73.1875 27.203125 
L 10.59375 27.203125 
z
" id="BitstreamVeraSans-Roman-2212"/>
       <path d="M 10.6875 12.40625 
L 21 12.40625 
L 21 0 
L 10.6875 0 
z
" id="BitstreamVeraSans-Roman-2e"/>
      </defs>
      <g transform="translate(38.860625 392.11125)scale(0.12 -0.12)">
       <use xlink:href="#BitstreamVeraSans-Roman-2212"/>
       <use x="83.7890625" xlink:href="#BitstreamVeraSans-Roman-31"/>
       <use x="147.412109375" xlink:href="#BitstreamVeraSans-Roman-2e"/>
       <use x="179.19921875" xlink:href="#BitstreamVeraSans-Roman-35"/>
      </g>
     </g>
    </g>
    <g id="ytick_2">
     <g id="line2d_30">
      <path clip-path="url(#pb57eb7cb2e)" d="M 72 331.2 
L 518.4 331.2 
" style="fill:none;stroke:#000000;stroke-dasharray:1.000000,3.000000;stroke-dashoffset:0.0;stroke-width:0.5;"/>
     </g>
     <g id="line2d_31">
      <g>
       <use style="stroke:#000000;stroke-width:0.5;" x="72.0" xlink:href="#me7bc3e998c" y="331.2"/>
      </g>
     </g>
     <g id="line2d_32">
      <g>
       <use style="stroke:#000000;stroke-width:0.5;" x="518.4" xlink:href="#m59114bf086" y="331.2"/>
      </g>
     </g>
     <g id="text_11">
      <!-- 1.0 -->
      <g transform="translate(38.860625 334.51125)scale(0.12 -0.12)">
       <use xlink:href="#BitstreamVeraSans-Roman-2212"/>
       <use x="83.7890625" xlink:href="#BitstreamVeraSans-Roman-31"/>
       <use x="147.412109375" xlink:href="#BitstreamVeraSans-Roman-2e"/>
       <use x="179.19921875" xlink:href="#BitstreamVeraSans-Roman-30"/>
      </g>
     </g>
    </g>
    <g id="ytick_3">
     <g id="line2d_33">
      <path clip-path="url(#pb57eb7cb2e)" d="M 72 273.6 
L 518.4 273.6 
" style="fill:none;stroke:#000000;stroke-dasharray:1.000000,3.000000;stroke-dashoffset:0.0;stroke-width:0.5;"/>
     </g>
     <g id="line2d_34">
      <g>
       <use style="stroke:#000000;stroke-width:0.5;" x="72.0" xlink:href="#me7bc3e998c" y="273.6"/>
      </g>
     </g>
     <g id="line2d_35">
      <g>
       <use style="stroke:#000000;stroke-width:0.5;" x="518.4" xlink:href="#m59114bf086" y="273.6"/>
      </g>
     </g>
     <g id="text_12">
      <!-- 0.5 -->
      <g transform="translate(38.860625 276.91125)scale(0.12 -0.12)">
       <use xlink:href="#BitstreamVeraSans-Roman-2212"/>
       <use x="83.7890625" xlink:href="#BitstreamVeraSans-Roman-30"/>
       <use x="147.412109375" xlink:href="#BitstreamVeraSans-Roman-2e"/>
       <use x="179.19921875" xlink:href="#BitstreamVeraSans-Roman-35"/>
      </g>
     </g>
    </g>
    <g id="ytick_4">
     <g id="line2d_36">
      <path clip-path="url(#pb57eb7cb2e)" d="M 72 216 
L 518.4 216 
" style="fill:none;stroke:#000000;stroke-dasharray:1.000000,3.000000;stroke-dashoffset:0.0;stroke-width:0.5;"/>
     </g>
     <g id="line2d_37">
      <g>
       <use style="stroke:#000000;stroke-width:0.5;" x="72.0" xlink:href="#me7bc3e998c" y="216.0"/>
      </g>
     </g>
     <g id="line2d_38">
      <g>
       <use style="stroke:#000000;stroke-width:0.5;" x="518.4" xlink:href="#m59114bf086" y="216.0"/>
      </g>
     </g>
     <g id="text_13">
      <!-- 0.0 -->
      <g transform="translate(48.91625 219.31125)scale(0.12 -0.12)">
       <use xlink:href="#BitstreamVeraSans-Roman-30"/>
       <use x="63.623046875" xlink:href="#BitstreamVeraSans-Roman-2e"/>
       <use x="95.41015625" xlink:href="#BitstreamVeraSans-Roman-30"/>
      </g>
     </g>
    </g>
    <g id="ytick_5">
     <g id="line2d_39">
      <path clip-path="url(#pb57eb7cb2e)" d="M 72 158.4 
L 518.4 158.4 
" style="fill:none;stroke:#000000;stroke-dasharray:1.000000,3.000000;stroke-dashoffset:0.0;stroke-width:0.5;"/>
     </g>
     <g id="line2d_40">
      <g>
       <use style="stroke:#000000;stroke-width:0.5;" x="72.0" xlink:href="#me7bc3e998c" y="158.4"/>
      </g>
     </g>
     <g id="line2d_41">
      <g>
       <use style="stroke:#000000;stroke-width:0.5;" x="518.4" xlink:href="#m59114bf086" y="158.4"/>
      </g>
     </g>
     <g id="text_14">
      <!-- 0.5 -->
      <g transform="translate(48.91625 161.71125)scale(0.12 -0.12)">
       <use xlink:href="#BitstreamVeraSans-Roman-30"/>
       <use x="63.623046875" xlink:href="#BitstreamVeraSans-Roman-2e"/>
       <use x="95.41015625" xlink:href="#BitstreamVeraSans-Roman-35"/>
      </g>
     </g>
    </g>
    <g id="ytick_6">
     <g id="line2d_42">
      <path clip-path="url(#pb57eb7cb2e)" d="M 72 100.8 
L 518.4 100.8 
" style="fill:none;stroke:#000000;stroke-dasharray:1.000000,3.000000;stroke-dashoffset:0.0;stroke-width:0.5;"/>
     </g>
     <g id="line2d_43">
      <g>
       <use style="stroke:#000000;stroke-width:0.5;" x="72.0" xlink:href="#me7bc3e998c" y="100.8"/>
      </g>
     </g>
     <g id="line2d_44">
      <g>
       <use style="stroke:#000000;stroke-width:0.5;" x="518.4" xlink:href="#m59114bf086" y="100.8"/>
      </g>
     </g>
     <g id="text_15">
      <!-- 1.0 -->
      <g transform="translate(48.91625 104.11125)scale(0.12 -0.12)">
       <use xlink:href="#BitstreamVeraSans-Roman-31"/>
       <use x="63.623046875" xlink:href="#BitstreamVeraSans-Roman-2e"/>
       <use x="95.41015625" xlink:href="#BitstreamVeraSans-Roman-30"/>
      </g>
     </g>
    </g>
    <g id="ytick_7">
     <g id="line2d_45">
      <path clip-path="url(#pb57eb7cb2e)" d="M 72 43.2 
L 518.4 43.2 
" style="fill:none;stroke:#000000;stroke-dasharray:1.000000,3.000000;stroke-dashoffset:0.0;stroke-width:0.5;"/>
     </g>
     <g id="line2d_46">
      <g>
       <use style="stroke:#000000;stroke-width:0.5;" x="72.0" xlink:href="#me7bc3e998c" y="43.2"/>
      </g>
     </g>
     <g id="line2d_47">
      <g>
       <use style="stroke:#000000;stroke-width:0.5;" x="518.4" xlink:href="#m59114bf086" y="43.2"/>
      </g>
     </g>
     <g id="text_16">
      <!-- 1.5 -->
      <g transform="translate(48.91625 46.51125)scale(0.12 -0.12)">
       <use xlink:href="#BitstreamVeraSans-Roman-31"/>
       <use x="63.623046875" xlink:href="#BitstreamVeraSans-Roman-2e"/>
       <use x="95.41015625" xlink:href="#BitstreamVeraSans-Roman-35"/>
      </g>
     </g>
    </g>
    <g id="text_17">
     <!-- Accel Cmd [m/s^2] -->
     <defs>
      <path d="M 46.6875 72.90625 
L 73.1875 45.703125 
L 63.375 45.703125 
L 41.890625 64.984375 
L 20.40625 45.703125 
L 10.59375 45.703125 
L 37.109375 72.90625 
z
" id="BitstreamVeraSans-Roman-5e"/>
      <path d="M 9.421875 75.984375 
L 18.40625 75.984375 
L 18.40625 0 
L 9.421875 0 
z
" id="BitstreamVeraSans-Roman-6c"/>
      <path d="M 64.40625 67.28125 
L 64.40625 56.890625 
Q 59.421875 61.53125 53.78125 63.8125 
Q 48.140625 66.109375 41.796875 66.109375 
Q 29.296875 66.109375 22.65625 58.46875 
Q 16.015625 50.828125 16.015625 36.375 
Q 16.015625 21.96875 22.65625 14.328125 
Q 29.296875 6.6875 41.796875 6.6875 
Q 48.140625 6.6875 53.78125 8.984375 
Q 59.421875 11.28125 64.40625 15.921875 
L 64.40625 5.609375 
Q 59.234375 2.09375 53.4375 0.328125 
Q 47.65625 -1.421875 41.21875 -1.421875 
Q 24.65625 -1.421875 15.125 8.703125 
Q 5.609375 18.84375 5.609375 36.375 
Q 5.609375 53.953125 15.125 64.078125 
Q 24.65625 74.21875 41.21875 74.21875 
Q 47.75 74.21875 53.53125 72.484375 
Q 59.328125 70.75 64.40625 67.28125 
" id="BitstreamVeraSans-Roman-43"/>
      <path d="M 34.1875 63.1875 
L 20.796875 26.90625 
L 47.609375 26.90625 
z
M 28.609375 72.90625 
L 39.796875 72.90625 
L 67.578125 0 
L 57.328125 0 
L 50.6875 18.703125 
L 17.828125 18.703125 
L 11.1875 0 
L 0.78125 0 
z
" id="BitstreamVeraSans-Roman-41"/>
      <path d="M 25.390625 72.90625 
L 33.6875 72.90625 
L 8.296875 -9.28125 
L 0 -9.28125 
z
" id="BitstreamVeraSans-Roman-2f"/>
      <path d="M 45.40625 46.390625 
L 45.40625 75.984375 
L 54.390625 75.984375 
L 54.390625 0 
L 45.40625 0 
L 45.40625 8.203125 
Q 42.578125 3.328125 38.25 0.953125 
Q 33.9375 -1.421875 27.875 -1.421875 
Q 17.96875 -1.421875 11.734375 6.484375 
Q 5.515625 14.40625 5.515625 27.296875 
Q 5.515625 40.1875 11.734375 48.09375 
Q 17.96875 56 27.875 56 
Q 33.9375 56 38.25 53.625 
Q 42.578125 51.265625 45.40625 46.390625 
M 14.796875 27.296875 
Q 14.796875 17.390625 18.875 11.75 
Q 22.953125 6.109375 30.078125 6.109375 
Q 37.203125 6.109375 41.296875 11.75 
Q 45.40625 17.390625 45.40625 27.296875 
Q 45.40625 37.203125 41.296875 42.84375 
Q 37.203125 48.484375 30.078125 48.484375 
Q 22.953125 48.484375 18.875 42.84375 
Q 14.796875 37.203125 14.796875 27.296875 
" id="BitstreamVeraSans-Roman-64"/>
      <path d="M 48.78125 52.59375 
L 48.78125 44.1875 
Q 44.96875 46.296875 41.140625 47.34375 
Q 37.3125 48.390625 33.40625 48.390625 
Q 24.65625 48.390625 19.8125 42.84375 
Q 14.984375 37.3125 14.984375 27.296875 
Q 14.984375 17.28125 19.8125 11.734375 
Q 24.65625 6.203125 33.40625 6.203125 
Q 37.3125 6.203125 41.140625 7.25 
Q 44.96875 8.296875 48.78125 10.40625 
L 48.78125 2.09375 
Q 45.015625 0.34375 40.984375 -0.53125 
Q 36.96875 -1.421875 32.421875 -1.421875 
Q 20.0625 -1.421875 12.78125 6.34375 
Q 5.515625 14.109375 5.515625 27.296875 
Q 5.515625 40.671875 12.859375 48.328125 
Q 20.21875 56 33.015625 56 
Q 37.15625 56 41.109375 55.140625 
Q 45.0625 54.296875 48.78125 52.59375 
" id="BitstreamVeraSans-Roman-63"/>
     </defs>
     <g transform="translate(31.365 274.235625)rotate(-90.0)scale(0.12 -0.12)">
      <use xlink:href="#BitstreamVeraSans-Roman-41"/>
      <use x="68.392578125" xlink:href="#BitstreamVeraSans-Roman-63"/>
      <use x="123.373046875" xlink:href="#BitstreamVeraSans-Roman-63"/>
      <use x="178.353515625" xlink:href="#BitstreamVeraSans-Roman-65"/>
      <use x="239.876953125" xlink:href="#BitstreamVeraSans-Roman-6c"/>
      <use x="267.66015625" xlink:href="#BitstreamVeraSans-Roman-20"/>
      <use x="299.447265625" xlink:href="#BitstreamVeraSans-Roman-43"/>
      <use x="369.271484375" xlink:href="#BitstreamVeraSans-Roman-6d"/>
      <use x="466.68359375" xlink:href="#BitstreamVeraSans-Roman-64"/>
      <use x="530.16015625" xlink:href="#BitstreamVeraSans-Roman-20"/>
      <use x="561.947265625" xlink:href="#BitstreamVeraSans-Roman-5b"/>
      <use x="600.9609375" xlink:href="#BitstreamVeraSans-Roman-6d"/>
      <use x="698.373046875" xlink:href="#BitstreamVeraSans-Roman-2f"/>
      <use x="732.064453125" xlink:href="#BitstreamVeraSans-Roman-73"/>
      <use x="784.1640625" xlink:href="#BitstreamVeraSans-Roman-5e"/>
      <use x="867.953125" xlink:href="#BitstreamVeraSans-Roman-32"/>
      <use x="931.576171875" xlink:href="#BitstreamVeraSans-Roman-5d"/>
     </g>
    </g>
   </g>
   <g id="legend_1">
    <g id="patch_7">
     <path d="M 79.2 96.993 
L 218.727 96.993 
L 218.727 50.4 
L 79.2 50.4 
z
" style="fill:#ffffff;stroke:#000000;stroke-linejoin:miter;"/>
    </g>
    <g id="line2d_48">
     <path d="M 89.28 62.06175 
L 109.44 62.06175 
" style="fill:none;stroke:#008000;stroke-linecap:square;"/>
    </g>
    <g id="line2d_49"/>
    <g id="text_18">
     <!-- Proportional -->
     <defs>
      <path d="M 54.890625 33.015625 
L 54.890625 0 
L 45.90625 0 
L 45.90625 32.71875 
Q 45.90625 40.484375 42.875 44.328125 
Q 39.84375 48.1875 33.796875 48.1875 
Q 26.515625 48.1875 22.3125 43.546875 
Q 18.109375 38.921875 18.109375 30.90625 
L 18.109375 0 
L 9.078125 0 
L 9.078125 54.6875 
L 18.109375 54.6875 
L 18.109375 46.1875 
Q 21.34375 51.125 25.703125 53.5625 
Q 30.078125 56 35.796875 56 
Q 45.21875 56 50.046875 50.171875 
Q 54.890625 44.34375 54.890625 33.015625 
" id="BitstreamVeraSans-Roman-6e"/>
      <path d="M 34.28125 27.484375 
Q 23.390625 27.484375 19.1875 25 
Q 14.984375 22.515625 14.984375 16.5 
Q 14.984375 11.71875 18.140625 8.90625 
Q 21.296875 6.109375 26.703125 6.109375 
Q 34.1875 6.109375 38.703125 11.40625 
Q 43.21875 16.703125 43.21875 25.484375 
L 43.21875 27.484375 
z
M 52.203125 31.203125 
L 52.203125 0 
L 43.21875 0 
L 43.21875 8.296875 
Q 40.140625 3.328125 35.546875 0.953125 
Q 30.953125 -1.421875 24.3125 -1.421875 
Q 15.921875 -1.421875 10.953125 3.296875 
Q 6 8.015625 6 15.921875 
Q 6 25.140625 12.171875 29.828125 
Q 18.359375 34.515625 30.609375 34.515625 
L 43.21875 34.515625 
L 43.21875 35.40625 
Q 43.21875 41.609375 39.140625 45 
Q 35.0625 48.390625 27.6875 48.390625 
Q 23 48.390625 18.546875 47.265625 
Q 14.109375 46.140625 10.015625 43.890625 
L 10.015625 52.203125 
Q 14.9375 54.109375 19.578125 55.046875 
Q 24.21875 56 28.609375 56 
Q 40.484375 56 46.34375 49.84375 
Q 52.203125 43.703125 52.203125 31.203125 
" id="BitstreamVeraSans-Roman-61"/>
      <path d="M 30.609375 48.390625 
Q 23.390625 48.390625 19.1875 42.75 
Q 14.984375 37.109375 14.984375 27.296875 
Q 14.984375 17.484375 19.15625 11.84375 
Q 23.34375 6.203125 30.609375 6.203125 
Q 37.796875 6.203125 41.984375 11.859375 
Q 46.1875 17.53125 46.1875 27.296875 
Q 46.1875 37.015625 41.984375 42.703125 
Q 37.796875 48.390625 30.609375 48.390625 
M 30.609375 56 
Q 42.328125 56 49.015625 48.375 
Q 55.71875 40.765625 55.71875 27.296875 
Q 55.71875 13.875 49.015625 6.21875 
Q 42.328125 -1.421875 30.609375 -1.421875 
Q 18.84375 -1.421875 12.171875 6.21875 
Q 5.515625 13.875 5.515625 27.296875 
Q 5.515625 40.765625 12.171875 48.375 
Q 18.84375 56 30.609375 56 
" id="BitstreamVeraSans-Roman-6f"/>
      <path d="M 19.671875 64.796875 
L 19.671875 37.40625 
L 32.078125 37.40625 
Q 38.96875 37.40625 42.71875 40.96875 
Q 46.484375 44.53125 46.484375 51.125 
Q 46.484375 57.671875 42.71875 61.234375 
Q 38.96875 64.796875 32.078125 64.796875 
z
M 9.8125 72.90625 
L 32.078125 72.90625 
Q 44.34375 72.90625 50.609375 67.359375 
Q 56.890625 61.8125 56.890625 51.125 
Q 56.890625 40.328125 50.609375 34.8125 
Q 44.34375 29.296875 32.078125 29.296875 
L 19.671875 29.296875 
L 19.671875 0 
L 9.8125 0 
z
" id="BitstreamVeraSans-Roman-50"/>
      <path d="M 18.3125 70.21875 
L 18.3125 54.6875 
L 36.8125 54.6875 
L 36.8125 47.703125 
L 18.3125 47.703125 
L 18.3125 18.015625 
Q 18.3125 11.328125 20.140625 9.421875 
Q 21.96875 7.515625 27.59375 7.515625 
L 36.8125 7.515625 
L 36.8125 0 
L 27.59375 0 
Q 17.1875 0 13.234375 3.875 
Q 9.28125 7.765625 9.28125 18.015625 
L 9.28125 47.703125 
L 2.6875 47.703125 
L 2.6875 54.6875 
L 9.28125 54.6875 
L 9.28125 70.21875 
z
" id="BitstreamVeraSans-Roman-74"/>
      <path d="M 41.109375 46.296875 
Q 39.59375 47.171875 37.8125 47.578125 
Q 36.03125 48 33.890625 48 
Q 26.265625 48 22.1875 43.046875 
Q 18.109375 38.09375 18.109375 28.8125 
L 18.109375 0 
L 9.078125 0 
L 9.078125 54.6875 
L 18.109375 54.6875 
L 18.109375 46.1875 
Q 20.953125 51.171875 25.484375 53.578125 
Q 30.03125 56 36.53125 56 
Q 37.453125 56 38.578125 55.875 
Q 39.703125 55.765625 41.0625 55.515625 
z
" id="BitstreamVeraSans-Roman-72"/>
      <path d="M 18.109375 8.203125 
L 18.109375 -20.796875 
L 9.078125 -20.796875 
L 9.078125 54.6875 
L 18.109375 54.6875 
L 18.109375 46.390625 
Q 20.953125 51.265625 25.265625 53.625 
Q 29.59375 56 35.59375 56 
Q 45.5625 56 51.78125 48.09375 
Q 58.015625 40.1875 58.015625 27.296875 
Q 58.015625 14.40625 51.78125 6.484375 
Q 45.5625 -1.421875 35.59375 -1.421875 
Q 29.59375 -1.421875 25.265625 0.953125 
Q 20.953125 3.328125 18.109375 8.203125 
M 48.6875 27.296875 
Q 48.6875 37.203125 44.609375 42.84375 
Q 40.53125 48.484375 33.40625 48.484375 
Q 26.265625 48.484375 22.1875 42.84375 
Q 18.109375 37.203125 18.109375 27.296875 
Q 18.109375 17.390625 22.1875 11.75 
Q 26.265625 6.109375 33.40625 6.109375 
Q 40.53125 6.109375 44.609375 11.75 
Q 48.6875 17.390625 48.6875 27.296875 
" id="BitstreamVeraSans-Roman-70"/>
     </defs>
     <g transform="translate(125.28 67.10175)scale(0.144 -0.144)">
      <use xlink:href="#BitstreamVeraSans-Roman-50"/>
      <use x="60.287109375" xlink:href="#BitstreamVeraSans-Roman-72"/>
      <use x="101.369140625" xlink:href="#BitstreamVeraSans-Roman-6f"/>
      <use x="162.55078125" xlink:href="#BitstreamVeraSans-Roman-70"/>
      <use x="226.02734375" xlink:href="#BitstreamVeraSans-Roman-6f"/>
      <use x="287.208984375" xlink:href="#BitstreamVeraSans-Roman-72"/>
      <use x="328.322265625" xlink:href="#BitstreamVeraSans-Roman-74"/>
      <use x="367.53125" xlink:href="#BitstreamVeraSans-Roman-69"/>
      <use x="395.314453125" xlink:href="#BitstreamVeraSans-Roman-6f"/>
      <use x="456.49609375" xlink:href="#BitstreamVeraSans-Roman-6e"/>
      <use x="519.875" xlink:href="#BitstreamVeraSans-Roman-61"/>
      <use x="581.154296875" xlink:href="#BitstreamVeraSans-Roman-6c"/>
     </g>
    </g>
    <g id="line2d_50">
     <path d="M 89.28 83.19825 
L 109.44 83.19825 
" style="fill:none;stroke:#0000ff;stroke-linecap:square;"/>
    </g>
    <g id="line2d_51"/>
    <g id="text_19">
     <!-- Integral -->
     <defs>
      <path d="M 45.40625 27.984375 
Q 45.40625 37.75 41.375 43.109375 
Q 37.359375 48.484375 30.078125 48.484375 
Q 22.859375 48.484375 18.828125 43.109375 
Q 14.796875 37.75 14.796875 27.984375 
Q 14.796875 18.265625 18.828125 12.890625 
Q 22.859375 7.515625 30.078125 7.515625 
Q 37.359375 7.515625 41.375 12.890625 
Q 45.40625 18.265625 45.40625 27.984375 
M 54.390625 6.78125 
Q 54.390625 -7.171875 48.1875 -13.984375 
Q 42 -20.796875 29.203125 -20.796875 
Q 24.46875 -20.796875 20.265625 -20.09375 
Q 16.0625 -19.390625 12.109375 -17.921875 
L 12.109375 -9.1875 
Q 16.0625 -11.328125 19.921875 -12.34375 
Q 23.78125 -13.375 27.78125 -13.375 
Q 36.625 -13.375 41.015625 -8.765625 
Q 45.40625 -4.15625 45.40625 5.171875 
L 45.40625 9.625 
Q 42.625 4.78125 38.28125 2.390625 
Q 33.9375 0 27.875 0 
Q 17.828125 0 11.671875 7.65625 
Q 5.515625 15.328125 5.515625 27.984375 
Q 5.515625 40.671875 11.671875 48.328125 
Q 17.828125 56 27.875 56 
Q 33.9375 56 38.28125 53.609375 
Q 42.625 51.21875 45.40625 46.390625 
L 45.40625 54.6875 
L 54.390625 54.6875 
z
" id="BitstreamVeraSans-Roman-67"/>
      <path d="M 9.8125 72.90625 
L 19.671875 72.90625 
L 19.671875 0 
L 9.8125 0 
z
" id="BitstreamVeraSans-Roman-49"/>
     </defs>
     <g transform="translate(125.28 88.23825)scale(0.144 -0.144)">
      <use xlink:href="#BitstreamVeraSans-Roman-49"/>
      <use x="29.4921875" xlink:href="#BitstreamVeraSans-Roman-6e"/>
      <use x="92.87109375" xlink:href="#BitstreamVeraSans-Roman-74"/>
      <use x="132.080078125" xlink:href="#BitstreamVeraSans-Roman-65"/>
      <use x="193.603515625" xlink:href="#BitstreamVeraSans-Roman-67"/>
      <use x="257.080078125" xlink:href="#BitstreamVeraSans-Roman-72"/>
      <use x="298.193359375" xlink:href="#BitstreamVeraSans-Roman-61"/>
      <use x="359.47265625" xlink:href="#BitstreamVeraSans-Roman-6c"/>
     </g>
    </g>
   </g>
  </g>
 </g>
 <defs>
  <clipPath id="pb57eb7cb2e">
   <rect height="345.6" width="446.4" x="72.0" y="43.2"/>
  </clipPath>
 </defs>
</svg>
