<?xml version="1.0" encoding="utf-8" standalone="no"?>
<!DOCTYPE svg PUBLIC "-//W3C//DTD SVG 1.1//EN"
  "http://www.w3.org/Graphics/SVG/1.1/DTD/svg11.dtd">
<!-- Created with matplotlib (http://matplotlib.org/) -->
<svg height="432pt" version="1.1" viewBox="0 0 576 432" width="576pt" xmlns="http://www.w3.org/2000/svg" xmlns:xlink="http://www.w3.org/1999/xlink">
 <defs>
  <style type="text/css">
*{stroke-linecap:butt;stroke-linejoin:round;stroke-miterlimit:100000;}
  </style>
 </defs>
 <g id="figure_1">
  <g id="patch_1">
   <path d="M 0 432 
L 576 432 
L 576 0 
L 0 0 
z
" style="fill:#ffffff;"/>
  </g>
  <g id="axes_1">
   <g id="patch_2">
    <path d="M 72 388.8 
L 518.4 388.8 
L 518.4 43.2 
L 72 43.2 
z
" style="fill:#ffffff;"/>
   </g>
   <g id="line2d_1">
    <path clip-path="url(#p35355236a7)" d="M 72.063771 264.492639 
L 85.583314 266.371634 
L 93.682286 266.036535 
L 100.186971 265.705781 
L 119.7648 265.013224 
L 124.866514 264.901585 
L 129.649371 264.753857 
L 137.110629 264.657603 
L 141.510857 265.396476 
L 142.276114 265.854828 
L 143.806629 267.196631 
L 163.9584 285.555371 
L 168.167314 289.891115 
L 172.248686 294.442971 
L 176.0112 298.969592 
L 180.156343 304.340899 
L 184.110171 309.850591 
L 186.2784 313.213156 
L 189.148114 318.030749 
L 192.846857 324.707117 
L 196.992 332.692701 
L 202.029943 342.472087 
L 203.496686 344.577877 
L 205.0272 346.393 
L 207.195429 348.56775 
L 209.0448 350.125679 
L 209.554971 350.4 
L 275.685943 350.290132 
L 275.941029 350.145362 
L 277.917943 348.694858 
L 279.257143 347.001102 
L 283.274743 341.955421 
L 289.014171 334.750423 
L 291.246171 331.311049 
L 294.243429 326.215533 
L 297.432 320.378982 
L 306.933943 302.096329 
L 309.676114 297.238931 
L 312.800914 292.168927 
L 320.262171 280.652483 
L 324.789943 274.054534 
L 328.935086 268.355006 
L 330.4656 266.647881 
L 331.8048 265.473052 
L 332.633829 265.00577 
L 333.207771 264.945775 
L 334.9296 265.193799 
L 336.460114 265.518623 
L 337.225371 265.976945 
L 338.309486 266.967627 
L 341.115429 269.82975 
L 343.985143 273.064197 
L 347.938971 278.052559 
L 354.061029 286.129194 
L 358.397486 292.266026 
L 365.603657 302.553592 
L 375.233143 316.221297 
L 380.781257 324.517839 
L 386.456914 333.421211 
L 391.6224 341.51179 
L 393.471771 343.85195 
L 397.361829 348.214666 
L 399.147429 349.93883 
L 399.785143 350.4 
L 404.440457 350.302835 
L 406.226057 348.953319 
L 407.373943 347.539799 
L 412.093029 341.440805 
L 418.023771 334.152352 
L 421.276114 329.489288 
L 424.847314 324.047364 
L 428.864914 317.237624 
L 434.094171 307.940206 
L 448.123886 282.900428 
L 452.587886 275.637007 
L 457.051886 268.903913 
L 460.112914 264.638856 
L 461.515886 263.063922 
L 463.0464 261.698357 
L 464.258057 260.879035 
L 465.150857 260.579996 
L 466.234971 260.487262 
L 467.574171 260.634203 
L 510.3648 266.866072 
L 511.002514 266.71112 
L 512.405486 266.410536 
L 513.808457 266.236947 
L 516.997029 266.172177 
L 518.4 266.175771 
L 518.4 266.175771 
" style="fill:none;stroke:#ff0000;stroke-linecap:square;"/>
   </g>
   <g id="line2d_2">
    <path clip-path="url(#p35355236a7)" d="M 72.063771 99.49009 
L 72.127543 99.49009 
L 72.255086 264.503127 
L 72.701486 264.574256 
L 73.402971 264.669089 
L 73.976914 264.763922 
L 74.742171 264.858756 
L 75.188571 264.929885 
L 75.826286 265.024718 
L 76.336457 265.119552 
L 77.165486 265.214393 
L 77.739429 265.309227 
L 78.440914 265.40406 
L 79.078629 265.522606 
L 79.907657 265.617439 
L 80.4816 265.712273 
L 80.672914 265.482703 
L 81.438171 265.40052 
L 81.629486 265.37943 
L 83.096229 265.476386 
L 83.223771 265.425298 
L 83.415086 265.305261 
L 84.562971 265.373121 
L 85.392 265.309112 
L 85.583314 265.250495 
L 86.221029 265.308424 
L 86.476114 265.39245 
L 86.986286 265.321681 
L 87.241371 265.19232 
L 87.368914 265.25038 
L 87.687771 265.39245 
L 89.600914 265.314856 
L 89.792229 265.23727 
L 91.577829 265.159774 
L 91.769143 265.07252 
L 92.406857 265.140044 
L 92.661943 265.224095 
L 93.044571 265.204717 
L 94.511314 265.107777 
L 94.957714 265.069038 
L 95.850514 265.010937 
L 96.041829 264.952753 
L 96.488229 264.914014 
L 96.615771 264.971927 
L 96.870857 265.113947 
L 97.253486 265.094586 
L 99.613029 264.997655 
L 99.995657 264.978293 
L 101.143543 264.920208 
L 101.334857 264.862017 
L 102.610286 264.958112 
L 102.929143 264.984438 
L 105.990171 264.887524 
L 106.436571 264.868179 
L 107.839543 264.81011 
L 108.030857 264.751919 
L 108.477257 264.71322 
L 109.242514 264.79006 
L 109.4976 264.874291 
L 109.880229 264.874291 
L 114.025371 264.777393 
L 114.471771 264.758048 
L 116.831314 264.661313 
L 117.022629 264.60313 
L 118.042971 264.679847 
L 118.234286 264.764136 
L 118.680686 264.744807 
L 119.063314 264.694825 
L 119.254629 264.613913 
L 119.509714 264.764136 
L 119.892343 264.764136 
L 120.593829 264.694825 
L 120.785143 264.545094 
L 121.167771 264.744807 
L 123.272229 264.675685 
L 123.463543 264.594723 
L 128.947886 264.598157 
L 129.075429 264.473851 
L 129.202971 264.541047 
L 129.394286 264.608751 
L 130.032 264.603982 
L 130.797257 264.598157 
L 130.988571 264.473851 
L 132.008914 264.598157 
L 132.264 264.473851 
L 132.519086 264.598157 
L 133.475657 264.529133 
L 133.6032 264.473851 
L 133.794514 264.520276 
L 133.985829 264.423517 
L 136.472914 264.479832 
L 137.6208 265.397874 
L 137.939657 265.540607 
L 138.322286 265.794709 
L 138.5136 265.9233 
L 139.342629 266.573713 
L 139.470171 266.631404 
L 144.571886 271.137047 
L 144.699429 271.195468 
L 146.293714 272.544013 
L 146.421257 272.602843 
L 147.4416 273.42842 
L 147.505371 273.42842 
L 147.696686 273.664888 
L 147.824229 273.724038 
L 148.653257 274.376024 
L 148.7808 274.435395 
L 149.482286 274.97072 
L 149.609829 275.030296 
L 150.375086 275.627122 
L 150.502629 275.686911 
L 151.204114 276.22589 
L 151.331657 276.285859 
L 152.033143 276.826583 
L 152.160686 276.886749 
L 152.862171 277.429226 
L 152.989714 277.489589 
L 153.6912 278.033795 
L 153.818743 278.094355 
L 154.647771 278.761794 
L 154.775314 278.822574 
L 161.598857 285.482559 
L 165.871543 290.020767 
L 169.634057 294.324956 
L 173.269029 298.793617 
L 177.222857 303.99672 
L 181.8144 310.390104 
L 184.365257 314.25009 
L 184.875429 315.51009 
L 185.704457 316.875686 
L 185.959543 317.369553 
L 187.1712 319.358167 
L 187.490057 320.060622 
L 189.020571 322.600813 
L 189.275657 323.115961 
L 191.061257 326.125673 
L 191.316343 326.651208 
L 192.591771 328.877791 
L 192.846857 329.413538 
L 194.504914 332.324994 
L 194.76 332.869649 
L 195.971657 335.056004 
L 196.226743 335.607421 
L 197.948571 338.711531 
L 198.394971 339.937266 
L 199.287771 341.613324 
L 199.606629 342.393522 
L 200.1168 343.499461 
L 200.308114 343.821194 
L 201.519771 345.61578 
L 201.647314 345.710894 
L 202.667657 347.040289 
L 202.7952 347.12414 
L 203.624229 348.041042 
L 203.751771 348.124626 
L 204.5808 349.046874 
L 204.708343 349.130932 
L 204.835886 349.29919 
L 204.899657 346.108713 
L 204.963429 346.179839 
L 205.0272 346.179839 
L 205.218514 346.464344 
L 205.282286 346.464344 
L 205.537371 346.796267 
L 205.601143 346.796267 
L 205.856229 347.12819 
L 205.92 347.12819 
L 206.175086 347.436404 
L 206.238857 347.436404 
L 206.493943 347.768326 
L 206.557714 347.768326 
L 206.685257 350.4 
L 275.813486 350.297705 
L 284.996571 335.359204 
L 288.695314 329.188237 
L 288.9504 328.664681 
L 292.649143 322.403231 
L 292.904229 321.883973 
L 295.965257 316.726553 
L 296.220343 316.214544 
L 296.730514 315.191865 
L 296.9856 314.681736 
L 297.304457 313.96836 
L 297.559543 313.45957 
L 301.0032 307.824239 
L 301.258286 307.326458 
L 304.383086 302.299584 
L 304.638171 301.812906 
L 306.423771 299.225689 
L 306.551314 299.131355 
L 307.316571 298.193788 
L 307.444114 298.100823 
L 308.018057 297.452274 
L 308.1456 297.360116 
L 308.847086 296.535081 
L 308.974629 296.443914 
L 309.803657 295.446877 
L 309.9312 295.356734 
L 310.951543 294.103703 
L 311.079086 294.014949 
L 311.653029 293.395341 
L 311.844343 293.307063 
L 312.099429 292.867067 
L 317.328686 285.85975 
L 322.685486 279.063886 
L 328.169829 272.462682 
L 328.488686 272.242986 
L 331.294629 272.322792 
L 340.7328 281.023276 
L 340.924114 281.208936 
L 342.901029 283.221384 
L 343.156114 283.539576 
L 343.666286 284.181402 
L 344.176457 285.019728 
L 345.451886 286.188033 
L 345.515657 286.188033 
L 345.706971 286.451049 
L 345.834514 286.516881 
L 352.849371 293.848602 
L 353.168229 294.340701 
L 353.295771 294.411088 
L 354.762514 296.185355 
L 355.081371 296.686274 
L 357.951086 300.016332 
L 358.269943 300.529402 
L 359.4816 301.784576 
L 359.609143 301.85829 
L 360.501943 302.748339 
L 360.629486 302.822872 
L 361.394743 303.572911 
L 361.522286 303.64831 
L 361.777371 304.026193 
L 362.670171 304.934001 
L 362.797714 305.009989 
L 369.238629 312.854801 
L 375.488229 320.896467 
L 380.334857 327.477225 
L 383.1408 331.478427 
L 383.395886 331.942276 
L 387.859886 338.645407 
L 390.7296 343.37128 
L 390.920914 343.699344 
L 392.387657 346.010492 
L 393.599314 347.763773 
L 393.8544 348.180554 
L 394.619657 349.351106 
L 395.002286 350.105712 
L 395.257371 350.609718 
L 395.512457 351.030217 
L 395.576229 351.114379 
L 395.64 346.15613 
L 395.703771 346.227256 
L 397.106743 347.792035 
L 397.234286 350.4 
L 404.504229 350.296094 
L 405.397029 348.62931 
L 405.715886 347.897407 
L 408.011657 344.329178 
L 408.1392 344.224199 
L 408.458057 343.908723 
L 408.5856 343.803475 
L 408.776914 342.856244 
L 409.287086 341.803764 
L 409.4784 341.48802 
L 411.582857 338.225332 
L 411.7104 338.120085 
L 414.197486 334.218929 
L 414.261257 334.218929 
L 414.452571 333.901573 
L 417.449829 329.134001 
L 417.577371 329.027948 
L 418.725257 327.331093 
L 418.8528 327.225039 
L 420.000686 325.528452 
L 420.128229 325.422668 
L 420.957257 324.259033 
L 421.0848 324.153247 
L 421.9776 322.883828 
L 422.105143 322.778044 
L 429.311314 311.038328 
L 436.581257 299.43475 
L 440.917714 292.942228 
L 445.381714 286.664473 
L 450.866057 279.359595 
L 450.9936 279.278568 
L 458.5824 269.826832 
L 459.4752 268.978535 
L 478.542857 269.089542 
L 508.451657 269.105094 
L 510.874971 266.563372 
L 511.321371 266.466065 
L 511.448914 266.504722 
L 511.576457 266.620949 
L 512.214171 266.55014 
L 512.405486 266.433659 
L 512.979429 266.491383 
L 513.170743 266.549419 
L 518.4 266.549419 
L 518.4 266.549419 
" style="fill:none;stroke:#bfbf00;stroke-dasharray:6.000000,6.000000;stroke-dashoffset:0.0;"/>
   </g>
   <g id="line2d_3">
    <path clip-path="url(#p35355236a7)" d="M 72.063771 350.4 
L 72.127543 350.4 
L 72.191314 350.4 
L 72.255086 116.5786 
L 72.318857 116.626008 
L 72.4464 265.430288 
L 73.402971 265.527285 
L 73.658057 265.575783 
L 73.913143 265.60487 
L 73.976914 265.38519 
L 74.040686 265.404585 
L 74.997257 265.501589 
L 75.634971 265.598578 
L 75.762514 265.598578 
L 75.890057 265.398292 
L 76.464 265.475902 
L 77.420571 265.582592 
L 77.675657 265.601986 
L 77.739429 265.391999 
L 77.8032 265.411393 
L 78.696 265.508398 
L 79.014857 265.508398 
L 79.461257 265.547179 
L 79.5888 265.327531 
L 80.226514 265.42452 
L 81.055543 265.511799 
L 81.310629 265.540886 
L 81.438171 265.340633 
L 81.8208 265.398833 
L 82.012114 265.360044 
L 82.841143 265.456999 
L 83.16 265.495772 
L 83.223771 265.276174 
L 83.287543 265.295568 
L 84.754286 265.392499 
L 85.264457 265.450657 
L 85.392 265.2311 
L 86.093486 265.19232 
L 86.221029 265.411828 
L 86.603657 265.39245 
L 86.922514 265.39245 
L 87.050057 265.172933 
L 87.305143 265.19232 
L 87.432686 265.411828 
L 89.600914 265.314856 
L 89.792229 265.23727 
L 91.577829 265.159774 
L 91.769143 265.07252 
L 92.279314 265.043457 
L 92.406857 265.243456 
L 92.853257 265.204717 
L 94.511314 265.107777 
L 94.957714 265.069038 
L 95.850514 265.010937 
L 96.041829 264.952753 
L 96.488229 264.914014 
L 96.552 264.914014 
L 96.679543 265.113947 
L 99.102857 265.017016 
L 99.485486 264.997655 
L 101.143543 264.920208 
L 101.334857 264.862017 
L 102.418971 264.784587 
L 102.546514 265.0038 
L 102.929143 264.984438 
L 105.990171 264.887524 
L 106.436571 264.868179 
L 107.839543 264.81011 
L 108.030857 264.751919 
L 108.477257 264.71322 
L 109.114971 264.674513 
L 109.242514 264.893644 
L 109.688914 264.854946 
L 114.663086 264.758048 
L 115.109486 264.738702 
L 116.831314 264.661313 
L 117.022629 264.60313 
L 117.915429 264.56444 
L 118.042971 264.764136 
L 118.999543 264.764136 
L 119.127086 264.545094 
L 119.190857 264.545094 
L 119.3184 264.764136 
L 120.530057 264.764136 
L 120.6576 264.545094 
L 120.785143 264.545094 
L 120.912686 264.764136 
L 123.208457 264.744807 
L 123.336 264.594723 
L 128.947886 264.598157 
L 129.075429 264.473851 
L 129.1392 264.473851 
L 129.266743 264.608751 
L 129.5856 264.598157 
L 129.713143 264.473851 
L 130.733486 264.598157 
L 130.797257 264.598157 
L 130.9248 264.473851 
L 131.052343 264.488722 
L 131.179886 264.608751 
L 132.646629 264.598157 
L 133.411886 264.598157 
L 133.539429 264.473851 
L 133.6032 264.473851 
L 133.730743 264.608751 
L 133.858286 264.423517 
L 136.472914 264.479832 
L 136.664229 264.718841 
L 136.855543 264.718841 
L 136.983086 265.0131 
L 137.046857 265.0131 
L 137.1744 265.142707 
L 137.238171 265.142707 
L 137.365714 265.272052 
L 137.493257 265.282532 
L 137.748343 265.52998 
L 137.939657 265.540427 
L 138.130971 265.679416 
L 138.194743 265.679416 
L 138.5136 266.111804 
L 138.832457 266.250096 
L 138.96 266.377745 
L 139.023771 266.377745 
L 139.215086 266.515472 
L 139.278857 266.515472 
L 139.597714 266.946221 
L 139.725257 266.95652 
L 139.980343 267.199471 
L 140.107886 267.209729 
L 140.2992 267.513132 
L 140.618057 267.649466 
L 140.936914 268.078486 
L 141.064457 268.088679 
L 141.255771 268.214124 
L 141.319543 268.224292 
L 141.447086 268.527367 
L 141.574629 268.537519 
L 141.702171 268.672682 
L 141.893486 268.70308 
L 142.0848 269.036357 
L 142.339886 269.097007 
L 142.467429 269.420058 
L 142.786286 269.520889 
L 142.9776 269.884016 
L 143.168914 269.984478 
L 143.296457 270.203585 
L 143.679086 270.437366 
L 143.806629 270.666641 
L 144.061714 270.76662 
L 144.3168 271.128984 
L 144.508114 271.228603 
L 144.635657 271.433215 
L 144.699429 271.458115 
L 144.890743 271.665087 
L 145.018286 271.689881 
L 145.2096 271.95919 
L 145.464686 272.350569 
L 145.719771 272.449376 
L 145.911086 272.810675 
L 146.1024 272.889441 
L 146.293714 273.13911 
L 146.421257 273.158791 
L 146.676343 273.549243 
L 146.867657 273.647272 
L 146.9952 273.85299 
L 147.058971 273.877489 
L 147.314057 274.287074 
L 147.888 274.793597 
L 148.015543 274.994965 
L 148.270629 275.101925 
L 148.398171 275.403689 
L 148.972114 275.91839 
L 149.163429 276.207208 
L 149.354743 276.255444 
L 149.482286 276.505719 
L 149.546057 276.505719 
L 149.864914 276.918049 
L 149.928686 276.961295 
L 150.056229 277.182876 
L 150.12 277.182876 
L 150.438857 277.604399 
L 150.757714 277.878886 
L 151.0128 278.266503 
L 152.096914 279.448242 
L 152.224457 279.694387 
L 152.415771 279.722803 
L 152.607086 280.095057 
L 152.670857 280.109224 
L 152.7984 280.379131 
L 152.925943 280.402729 
L 153.117257 280.774705 
L 153.2448 280.784119 
L 153.372343 281.063507 
L 153.499886 281.087022 
L 153.627429 281.342951 
L 153.818743 281.468085 
L 153.946286 281.747513 
L 154.073829 281.770943 
L 154.201371 282.02699 
L 154.265143 282.03636 
L 154.392686 282.337645 
L 155.094171 283.114403 
L 155.285486 283.366043 
L 155.349257 283.384655 
L 155.540571 283.74162 
L 155.604343 283.769462 
L 155.795657 284.02124 
L 155.859429 284.039795 
L 155.986971 284.273093 
L 156.114514 284.424336 
L 156.305829 284.676254 
L 156.3696 284.694751 
L 156.560914 284.955985 
L 156.624686 284.97447 
L 156.752229 285.31263 
L 156.879771 285.358736 
L 157.071086 285.610863 
L 157.134857 285.629295 
L 157.326171 285.985715 
L 157.389943 286.013291 
L 157.645029 286.471935 
L 157.836343 286.536267 
L 157.963886 286.874243 
L 158.091429 286.920062 
L 158.282743 287.172541 
L 158.346514 287.200011 
L 158.6016 287.763038 
L 158.792914 287.826997 
L 158.984229 288.088818 
L 159.430629 288.724998 
L 159.4944 288.7432 
L 159.749486 289.315678 
L 159.9408 289.379249 
L 160.132114 289.641364 
L 160.3872 290.232188 
L 160.578514 290.272923 
L 160.769829 290.530703 
L 160.8336 290.557837 
L 161.088686 291.130745 
L 161.28 291.193906 
L 161.535086 291.673858 
L 161.853943 292.074511 
L 161.917714 292.101485 
L 162.1728 292.572952 
L 162.300343 292.719553 
L 162.491657 292.98234 
L 162.555429 293.009223 
L 162.682971 293.263116 
L 162.810514 293.263116 
L 163.0656 293.845632 
L 163.129371 293.890332 
L 163.320686 294.153369 
L 163.384457 294.171235 
L 163.639543 294.652867 
L 164.085943 295.298289 
L 164.213486 295.351704 
L 164.468571 295.925817 
L 164.596114 295.979092 
L 164.8512 296.452865 
L 164.978743 296.506112 
L 165.233829 297.089451 
L 165.361371 297.133701 
L 165.616457 297.617008 
L 165.807771 297.687756 
L 166.062857 298.27139 
L 166.1904 298.324293 
L 166.445486 298.808271 
L 166.573029 298.852329 
L 166.828114 299.336619 
L 167.274514 300.000006 
L 167.338286 300.02634 
L 167.593371 300.511294 
L 167.720914 300.563943 
L 167.848457 300.90139 
L 167.912229 300.927647 
L 168.167314 301.421855 
L 168.294857 301.465593 
L 168.549943 301.960109 
L 168.677486 302.012544 
L 168.932571 302.597485 
L 168.996343 302.623635 
L 169.251429 303.118782 
L 169.378971 303.171054 
L 169.634057 303.657798 
L 169.7616 303.710028 
L 169.889143 304.056309 
L 169.952914 304.082352 
L 170.208 304.578285 
L 170.335543 304.630336 
L 170.590629 305.12658 
L 170.6544 305.152587 
L 170.909486 305.649127 
L 170.973257 305.649127 
L 171.1008 306.021541 
L 171.164571 306.086344 
L 171.292114 306.321867 
L 171.355886 306.347775 
L 171.610971 306.844954 
L 171.802286 306.87085 
L 171.9936 307.37696 
L 172.057371 307.428715 
L 172.312457 308.024046 
L 172.44 308.084232 
L 172.567543 308.307469 
L 172.631314 308.333254 
L 172.822629 308.831523 
L 173.013943 308.891652 
L 173.205257 309.390228 
L 173.3328 309.415976 
L 173.524114 309.923438 
L 173.715429 309.974894 
L 173.970514 310.605273 
L 174.034286 310.605273 
L 174.161829 310.863541 
L 174.2256 310.889179 
L 174.480686 311.397387 
L 174.544457 311.423012 
L 174.672 311.681498 
L 174.799543 311.732696 
L 174.990857 312.215761 
L 175.309714 312.551197 
L 175.501029 312.835513 
L 175.756114 313.344769 
L 176.4576 314.553821 
L 176.521371 314.579242 
L 176.776457 315.097876 
L 176.840229 315.123276 
L 177.095314 315.642197 
L 177.222857 315.701408 
L 177.477943 316.212164 
L 177.541714 316.245963 
L 177.7968 316.765465 
L 177.924343 316.816106 
L 178.115657 317.310585 
L 178.434514 317.654897 
L 178.6896 318.17512 
L 178.753371 318.20879 
L 179.008457 318.729306 
L 179.072229 318.754537 
L 179.327314 319.275346 
L 179.454857 319.334152 
L 179.709943 319.86364 
L 179.773714 319.888809 
L 180.0288 320.41858 
L 180.092571 320.477232 
L 180.220114 320.704529 
L 180.283886 320.73803 
L 180.4752 321.259852 
L 180.666514 321.326767 
L 180.857829 321.815435 
L 180.9216 321.848873 
L 181.112914 322.176835 
L 181.176686 322.176835 
L 181.368 322.699373 
L 181.431771 322.699373 
L 181.623086 323.02743 
L 181.686857 323.02743 
L 181.8144 323.322177 
L 181.878171 323.322177 
L 182.133257 323.886869 
L 182.197029 323.886869 
L 182.388343 324.410276 
L 182.515886 324.443503 
L 182.770971 324.975501 
L 182.898514 325.041851 
L 183.1536 325.574121 
L 183.217371 325.607244 
L 183.472457 326.139793 
L 183.6 326.197675 
L 183.918857 327.009402 
L 184.0464 327.067155 
L 184.301486 327.608631 
L 184.365257 327.64158 
L 184.620343 328.175091 
L 184.9392 328.418705 
L 185.194286 329.00202 
L 185.258057 329.03489 
L 185.449371 329.347114 
L 185.513143 329.347114 
L 185.832 330.169241 
L 186.150857 330.454417 
L 186.342171 330.972959 
L 186.533486 331.046611 
L 186.788571 331.598147 
L 186.852343 331.638978 
L 187.043657 332.098292 
L 187.1712 332.171793 
L 187.298743 332.451871 
L 187.362514 332.451871 
L 187.553829 332.797172 
L 187.745143 333.117999 
L 188.000229 333.586464 
L 188.064 333.586464 
L 188.191543 333.866858 
L 188.319086 333.93593 
L 188.574171 334.541435 
L 188.637943 334.482047 
L 188.765486 334.77072 
L 188.893029 334.803142 
L 189.148114 335.404875 
L 189.211886 335.445283 
L 189.275657 335.693675 
L 189.339429 335.634446 
L 189.4032 335.674888 
L 189.530743 335.923342 
L 189.658286 335.996057 
L 189.913371 336.565856 
L 190.040914 336.638351 
L 190.296 337.157435 
L 190.359771 337.197658 
L 190.551086 337.518875 
L 190.7424 337.753976 
L 190.806171 337.753976 
L 191.061257 338.300681 
L 191.826514 339.497204 
L 191.954057 339.482816 
L 192.145371 340.047995 
L 192.528 340.360155 
L 192.783086 340.981527 
L 193.101943 341.304704 
L 193.293257 341.590593 
L 193.357029 341.641213 
L 193.4208 341.877275 
L 193.484571 341.812899 
L 193.548343 341.863865 
L 193.739657 342.260846 
L 193.803429 342.499454 
L 193.8672 342.436626 
L 193.930971 342.486372 
L 194.058514 342.775312 
L 194.122286 342.824121 
L 194.3136 343.123186 
L 194.568686 343.448316 
L 194.76 343.785727 
L 195.078857 344.074201 
L 195.270171 344.420704 
L 195.461486 344.657129 
L 195.6528 345.048276 
L 195.971657 345.34008 
L 196.162971 345.727306 
L 196.481829 346.277078 
L 196.928229 346.659835 
L 197.055771 346.96618 
L 197.119543 346.917496 
L 197.310857 347.26359 
L 197.374629 347.300751 
L 197.502171 347.56231 
L 197.565943 347.599031 
L 197.757257 347.950289 
L 197.821029 347.984489 
L 197.8848 348.252839 
L 197.948571 348.216033 
L 198.076114 348.284348 
L 198.267429 348.626398 
L 198.3312 348.592169 
L 198.458743 348.864371 
L 198.650057 348.965228 
L 198.713829 349.246281 
L 198.7776 349.207318 
L 198.841371 349.244319 
L 198.968914 349.591834 
L 199.160229 349.589993 
L 199.415314 350.18855 
L 199.606629 350.277287 
L 199.734171 350.591082 
L 199.989257 350.563917 
L 200.1168 350.849123 
L 200.244343 350.821737 
L 200.308114 351.110014 
L 200.371886 351.080962 
L 200.5632 351.106536 
L 200.754514 351.389436 
L 200.882057 351.373679 
L 201.0096 351.643219 
L 201.200914 351.627471 
L 201.264686 351.920607 
L 201.328457 351.865234 
L 201.583543 351.898088 
L 201.647314 352.192872 
L 201.711086 352.151933 
L 201.966171 352.195097 
L 202.029943 352.443732 
L 202.093714 352.393403 
L 202.412571 352.439356 
L 202.476343 352.730545 
L 202.540114 352.67895 
L 202.731429 352.683795 
L 202.922743 352.695735 
L 202.986514 352.980729 
L 203.050286 352.926372 
L 203.432914 352.983283 
L 203.560457 353.252381 
L 203.751771 353.219386 
L 203.943086 353.236071 
L 204.070629 353.262547 
L 204.198171 353.508912 
L 204.325714 353.433772 
L 204.517029 353.459712 
L 204.708343 353.519539 
L 204.899657 353.797447 
L 205.0272 353.728899 
L 205.154743 353.8029 
L 205.346057 353.734553 
L 205.409829 353.808337 
L 205.4736 353.740191 
L 205.601143 353.765035 
L 205.664914 354.054083 
L 205.728686 354.00009 
L 206.111314 354.035894 
L 206.557714 354.087724 
L 206.685257 354.05999 
L 207.004114 355.011265 
L 207.195429 354.958313 
L 207.578057 354.899141 
L 207.769371 354.834013 
L 208.215771 354.76318 
L 208.407086 354.686879 
L 208.917257 354.605334 
L 209.108571 354.518756 
L 209.236114 354.518756 
L 209.299886 354.79086 
L 209.363657 354.695836 
L 263.824457 354.596265 
L 264.015771 354.230781 
L 264.334629 354.125976 
L 264.589714 353.904135 
L 264.717257 353.904135 
L 264.8448 353.7874 
L 264.908571 353.7874 
L 265.036114 353.666977 
L 265.099886 353.666977 
L 265.227429 353.542999 
L 265.354971 353.542999 
L 265.482514 353.415591 
L 265.546286 353.415591 
L 265.928914 352.782394 
L 266.120229 352.782394 
L 266.247771 352.645047 
L 266.311543 352.645047 
L 266.439086 352.504761 
L 266.502857 352.504761 
L 266.6304 352.361637 
L 266.694171 352.361637 
L 266.821714 351.994331 
L 266.949257 351.994331 
L 267.0768 351.848202 
L 267.140571 351.848202 
L 267.268114 351.69945 
L 267.331886 351.69945 
L 267.650743 351.182266 
L 267.714514 351.182266 
L 267.842057 351.028335 
L 267.905829 351.028335 
L 268.224686 350.507814 
L 268.288457 350.507814 
L 268.416 350.349101 
L 268.543543 350.349101 
L 268.671086 349.986636 
L 268.734857 349.986636 
L 268.8624 349.8256 
L 268.926171 349.8256 
L 269.245029 349.301577 
L 269.3088 349.301577 
L 269.436343 349.136296 
L 269.500114 349.136296 
L 269.627657 348.777062 
L 269.691429 348.777062 
L 269.818971 348.609722 
L 269.882743 348.609722 
L 270.010286 348.252082 
L 270.137829 348.252082 
L 270.392914 347.726663 
L 270.520457 347.726663 
L 270.775543 347.200828 
L 270.903086 347.200828 
L 271.158171 346.6746 
L 271.221943 346.6746 
L 271.413257 346.322908 
L 271.477029 346.322908 
L 271.732114 345.797649 
L 271.923429 345.797649 
L 272.050971 345.448694 
L 272.114743 345.448694 
L 272.369829 344.924292 
L 272.497371 344.924292 
L 272.752457 344.399475 
L 272.816229 344.399475 
L 273.007543 344.054266 
L 273.071314 344.054266 
L 273.198857 343.710301 
L 273.3264 343.710301 
L 273.453943 343.367551 
L 273.517714 343.367551 
L 273.7728 342.845647 
L 273.836571 342.845647 
L 274.2192 342.165699 
L 274.282971 342.165699 
L 274.601829 341.490141 
L 274.6656 341.490141 
L 274.856914 341.153945 
L 274.920686 341.153945 
L 275.175771 340.636262 
L 275.239543 340.636262 
L 275.685943 339.819169 
L 275.749714 339.819169 
L 275.941029 339.487867 
L 276.068571 339.487867 
L 276.196114 339.15748 
L 276.259886 339.15748 
L 276.387429 339.010237 
L 276.4512 339.010237 
L 276.578743 338.68181 
L 276.642514 338.68181 
L 276.770057 338.535631 
L 276.833829 338.535631 
L 277.025143 338.209114 
L 277.088914 338.209114 
L 277.407771 337.73933 
L 277.471543 337.73933 
L 277.7904 337.272394 
L 277.854171 337.272394 
L 277.981714 337.129319 
L 278.045486 337.129319 
L 278.2368 336.843168 
L 278.364343 336.843168 
L 278.491886 336.700093 
L 278.555657 336.700093 
L 278.6832 336.557018 
L 278.746971 336.557018 
L 278.874514 336.413942 
L 278.938286 336.413942 
L 279.065829 334.455741 
L 279.193371 334.208386 
L 279.384686 333.711188 
L 279.512229 333.596107 
L 279.767314 333.105378 
L 279.894857 332.99012 
L 280.149943 332.502106 
L 280.277486 332.386663 
L 280.532571 331.917767 
L 280.787657 331.560477 
L 281.042743 331.078771 
L 281.170286 330.979647 
L 281.425371 330.500365 
L 281.680457 330.162372 
L 281.935543 329.808204 
L 282.190629 329.350148 
L 282.509486 328.947706 
L 282.7008 328.473006 
L 282.955886 328.019694 
L 283.210971 327.685186 
L 283.657371 327.168056 
L 283.912457 326.694682 
L 284.04 326.552348 
L 284.295086 326.106096 
L 284.613943 325.724301 
L 285.060343 324.742942 
L 285.187886 324.692222 
L 285.442971 324.201116 
L 285.506743 324.201116 
L 285.8256 323.644003 
L 285.889371 323.644003 
L 286.144457 323.20706 
L 286.463314 322.828222 
L 286.909714 321.925248 
L 287.1648 321.598285 
L 287.419886 321.167216 
L 287.6112 320.892534 
L 287.802514 320.61819 
L 287.866286 320.592564 
L 288.0576 320.121792 
L 288.121371 320.070503 
L 288.248914 319.84848 
L 288.376457 319.78003 
L 288.631543 319.438387 
L 289.014171 318.672561 
L 289.269257 318.314693 
L 289.588114 317.771837 
L 289.715657 317.702789 
L 289.906971 317.299218 
L 289.970743 317.42546 
L 290.034514 317.356557 
L 290.480914 316.494599 
L 290.799771 316.12114 
L 290.991086 315.799736 
L 291.1824 315.383441 
L 291.246171 315.510434 
L 291.309943 315.441116 
L 291.692571 314.619202 
L 291.883886 314.299305 
L 292.011429 314.142368 
L 292.138971 314.089744 
L 292.5216 313.520736 
L 292.776686 313.026605 
L 292.840457 312.865088 
L 292.904229 312.975723 
L 293.350629 312.233029 
L 293.541943 311.984642 
L 294.817371 310.096529 
L 295.008686 309.88222 
L 295.965257 308.531385 
L 296.156571 308.206289 
L 296.475429 307.694067 
L 296.666743 307.431223 
L 296.730514 307.544049 
L 296.9856 306.929767 
L 297.049371 306.929767 
L 297.304457 306.512181 
L 297.368229 306.512181 
L 297.623314 306.142319 
L 297.750857 306.083464 
L 302.278629 299.826919 
L 302.3424 299.826919 
L 302.533714 299.373888 
L 302.597486 299.373888 
L 302.661257 299.197495 
L 302.725029 299.314086 
L 304.957029 296.115324 
L 305.0208 296.233534 
L 305.212114 295.787901 
L 305.275886 295.787901 
L 305.4672 295.629038 
L 305.530971 295.582248 
L 305.722286 295.183308 
L 306.041143 294.83724 
L 306.36 294.278081 
L 306.423771 294.44415 
L 306.487543 294.44415 
L 306.678857 293.978852 
L 306.8064 293.931731 
L 306.870171 293.648578 
L 306.933943 293.745706 
L 307.125257 293.604234 
L 307.316571 293.157225 
L 307.444114 293.087698 
L 307.507886 293.040384 
L 307.6992 292.640226 
L 307.826743 292.592817 
L 307.954286 292.192434 
L 308.081829 292.359941 
L 308.273143 291.931159 
L 308.336914 291.931159 
L 308.528229 291.569614 
L 308.655771 291.479758 
L 309.165943 290.706748 
L 309.357257 290.588915 
L 309.548571 290.493344 
L 309.803657 289.890898 
L 309.867429 289.890898 
L 310.058743 289.575614 
L 310.122514 289.620212 
L 310.887771 288.48945 
L 311.015314 288.669113 
L 311.206629 288.257394 
L 311.2704 288.257394 
L 311.461714 287.929221 
L 311.525486 287.929221 
L 311.653029 287.555599 
L 311.7168 287.555599 
L 311.908114 287.26513 
L 311.971886 287.445755 
L 312.035657 287.34306 
L 312.290743 286.916838 
L 312.992229 285.896363 
L 313.119771 285.721006 
L 313.183543 285.863732 
L 313.5024 285.391802 
L 314.140114 284.447053 
L 314.331429 284.192451 
L 314.3952 284.335947 
L 314.458971 284.238004 
L 314.777829 283.764881 
L 319.433143 277.89792 
L 319.624457 277.66554 
L 319.815771 277.433069 
L 319.879543 277.574967 
L 320.262171 276.953249 
L 320.325943 276.953249 
L 320.517257 276.583371 
L 320.6448 276.50581 
L 321.410057 275.455448 
L 321.665143 275.067135 
L 321.920229 274.994621 
L 322.8768 273.788801 
L 323.068114 273.418456 
L 323.195657 273.360101 
L 327.149486 268.411247 
L 327.277029 268.274364 
L 327.3408 268.417589 
L 327.404571 268.339372 
L 327.468343 268.339372 
L 327.595886 268.645307 
L 327.659657 268.567123 
L 328.169829 269.269598 
L 328.2336 269.191504 
L 328.297371 269.275932 
L 328.361143 269.275932 
L 328.68 269.750115 
L 328.743771 269.672095 
L 328.871314 269.977268 
L 328.935086 269.89928 
L 329.190171 270.288635 
L 329.253943 270.230173 
L 329.5728 270.723038 
L 329.764114 270.606172 
L 329.955429 270.87199 
L 330.0192 270.813578 
L 330.274286 271.241328 
L 330.338057 271.18294 
L 330.593143 271.610468 
L 330.656914 271.571573 
L 330.848229 271.837007 
L 330.912 271.85704 
L 331.103314 272.141884 
L 331.167086 272.083554 
L 331.422171 272.549494 
L 331.485943 272.510632 
L 331.677257 272.814625 
L 331.741029 272.775778 
L 331.932343 273.138807 
L 331.996114 273.099969 
L 332.2512 273.565336 
L 332.314971 273.526522 
L 332.442514 273.766719 
L 332.570057 273.708503 
L 332.761371 274.070311 
L 332.888914 274.012127 
L 333.080229 274.452545 
L 333.207771 274.43315 
L 333.335314 274.652708 
L 333.399086 274.692742 
L 333.526629 274.912274 
L 333.654171 274.931661 
L 333.845486 275.23 
L 333.909257 275.23 
L 334.164343 275.767102 
L 334.291886 275.786472 
L 334.419429 276.025137 
L 334.4832 276.025137 
L 334.610743 276.323411 
L 334.738286 276.342764 
L 334.9296 276.641046 
L 334.993371 276.641046 
L 335.120914 276.879539 
L 335.248457 276.898892 
L 335.376 277.197133 
L 335.439771 277.197133 
L 335.567314 277.435495 
L 335.694857 277.495382 
L 335.8224 277.75304 
L 335.886171 277.75304 
L 336.141257 278.289446 
L 336.396343 278.368801 
L 336.587657 278.705667 
L 336.651429 278.724996 
L 336.778971 278.9824 
L 336.970286 279.100487 
L 337.1616 279.415746 
L 337.544229 279.986516 
L 337.671771 280.025116 
L 338.5008 281.160519 
L 338.564571 281.199095 
L 338.692114 281.533175 
L 338.819657 281.571734 
L 339.010971 281.786523 
L 339.3936 282.216166 
L 339.584914 282.588559 
L 339.967543 283.076053 
L 340.222629 283.291206 
L 340.413943 283.75135 
L 340.669029 284.028426 
L 341.115429 284.462403 
L 341.306743 284.922129 
L 341.498057 285.21892 
L 341.6256 285.25802 
L 341.944457 285.675945 
L 342.135771 285.851794 
L 342.327086 286.3112 
L 342.709714 286.768889 
L 343.092343 287.305037 
L 343.156114 287.305037 
L 343.666286 288.197937 
L 344.112686 288.695914 
L 344.304 288.889915 
L 344.622857 289.206879 
L 344.814171 289.589256 
L 345.133029 290.022738 
L 345.260571 290.177475 
L 345.770743 291.116267 
L 346.217143 291.510775 
L 346.408457 291.847465 
L 346.599771 292.164957 
L 347.173714 292.81936 
L 347.492571 293.282137 
L 348.3216 294.293743 
L 348.512914 294.621473 
L 349.023086 295.305762 
L 349.2144 295.566865 
L 349.341943 295.700401 
L 349.533257 296.196285 
L 349.915886 296.737992 
L 350.234743 297.132484 
L 350.426057 297.413129 
L 350.489829 297.413129 
L 350.681143 297.760245 
L 351.063771 298.293763 
L 351.382629 298.707326 
L 351.637714 299.045236 
L 351.956571 299.532656 
L 352.020343 299.532656 
L 352.211657 299.861505 
L 352.594286 300.34101 
L 352.913143 300.886113 
L 352.976914 300.886113 
L 353.168229 301.243393 
L 353.295771 301.299684 
L 353.742171 301.939285 
L 354.1248 302.5793 
L 354.188571 302.5793 
L 354.443657 303.070415 
L 354.507429 303.070415 
L 354.826286 303.558732 
L 354.953829 303.633221 
L 355.272686 304.125377 
L 355.974171 305.069446 
L 356.165486 305.501711 
L 356.293029 305.575732 
L 357.504686 307.12099 
L 357.823543 307.709438 
L 357.951086 307.782939 
L 358.1424 308.141592 
L 358.206171 308.141592 
L 358.525029 308.657637 
L 358.652571 308.730913 
L 358.843886 309.035 
L 358.907657 309.035 
L 359.0352 309.412342 
L 359.354057 309.771425 
L 359.417829 309.637782 
L 359.609143 309.942406 
L 359.800457 310.247214 
L 359.864229 310.247214 
L 360.501943 311.362433 
L 360.629486 311.434914 
L 360.8208 311.794472 
L 360.884571 311.794472 
L 361.075886 312.136024 
L 361.458514 312.657264 
L 361.522286 312.693336 
L 361.7136 313.215211 
L 362.223771 313.606261 
L 362.415086 314.038538 
L 362.478857 314.038538 
L 362.670171 314.327385 
L 362.733943 314.327385 
L 362.925257 314.705907 
L 362.989029 314.705907 
L 363.116571 315.030897 
L 363.244114 315.066588 
L 363.626743 315.734793 
L 363.690514 315.78813 
L 363.881829 316.095763 
L 363.9456 316.149001 
L 364.136914 316.456802 
L 364.455771 316.888597 
L 364.583314 317.108454 
L 364.8384 317.469845 
L 365.348571 318.192847 
L 365.667429 318.694457 
L 365.7312 318.694457 
L 365.922514 319.055846 
L 365.986286 319.055846 
L 366.1776 319.417311 
L 366.241371 319.417311 
L 366.432686 319.709362 
L 367.261714 320.668343 
L 367.453029 321.030671 
L 367.5168 321.030671 
L 367.835657 321.635174 
L 367.9632 321.704028 
L 368.282057 322.223743 
L 368.664686 322.724179 
L 368.856 323.087389 
L 368.919771 323.087389 
L 369.111086 323.382601 
L 369.174857 323.450708 
L 369.366171 323.746205 
L 369.429943 323.814134 
L 369.621257 324.109921 
L 370.067657 324.854565 
L 370.1952 324.905097 
L 370.322743 325.151312 
L 370.705371 325.632999 
L 370.832914 325.88012 
L 371.151771 326.311438 
L 371.215543 326.378042 
L 371.406857 326.67598 
L 372.235886 327.600036 
L 372.363429 327.916155 
L 372.490971 327.982155 
L 372.682286 328.380742 
L 372.809829 328.413565 
L 373.064914 329.030822 
L 373.511314 329.592225 
L 373.702629 329.909647 
L 373.830171 329.974271 
L 374.085257 330.529672 
L 374.2128 330.594082 
L 374.276571 330.658355 
L 374.340343 330.912721 
L 374.404114 330.794908 
L 374.531657 330.859304 
L 374.722971 331.226616 
L 374.786743 331.226616 
L 374.978057 331.546187 
L 375.041829 331.610089 
L 375.233143 331.930002 
L 375.424457 332.250399 
L 375.9984 333.066227 
L 376.189714 333.38776 
L 376.572343 333.897027 
L 376.636114 333.959123 
L 376.699886 333.845299 
L 376.954971 334.412764 
L 377.082514 334.474899 
L 377.656457 335.368076 
L 377.720229 335.368076 
L 377.911543 335.692044 
L 377.975314 335.752925 
L 378.166629 336.077328 
L 378.549257 336.597992 
L 378.804343 336.813377 
L 378.995657 337.1394 
L 379.250743 337.525734 
L 379.824686 338.430813 
L 379.888457 338.430813 
L 380.079771 338.816769 
L 380.271086 338.921877 
L 380.653714 339.440557 
L 380.717486 339.498275 
L 380.9088 339.82797 
L 381.036343 339.942422 
L 381.227657 340.272497 
L 381.546514 340.730226 
L 381.674057 341.005363 
L 381.737829 340.916276 
L 381.8016 340.972684 
L 381.865371 341.028872 
L 382.120457 341.652119 
L 382.311771 341.707858 
L 382.949486 342.676356 
L 383.013257 342.577247 
L 383.268343 343.207177 
L 383.395886 343.314886 
L 383.842286 343.836485 
L 384.0336 344.172999 
L 384.735086 344.998917 
L 384.9264 345.350437 
L 385.053943 345.451079 
L 385.245257 345.802863 
L 385.309029 345.852399 
L 385.3728 346.093682 
L 385.436571 346.014686 
L 385.627886 346.163929 
L 385.8192 346.517592 
L 385.946743 346.626913 
L 386.138057 346.980784 
L 386.2656 347.075851 
L 386.456914 347.430006 
L 386.520686 347.343713 
L 386.584457 347.402743 
L 386.775771 347.758194 
L 386.839543 347.804648 
L 387.030857 348.160815 
L 387.1584 348.251864 
L 387.349714 348.608352 
L 387.796114 349.039452 
L 387.987429 349.397604 
L 388.114971 349.493892 
L 388.306286 349.852263 
L 388.688914 350.229224 
L 388.752686 350.280419 
L 388.944 350.640593 
L 389.135314 350.768858 
L 389.326629 351.138242 
L 389.454171 351.116036 
L 389.645486 351.477474 
L 389.773029 351.56131 
L 389.964343 351.913889 
L 390.091886 351.994193 
L 390.2832 352.347482 
L 390.474514 352.457219 
L 390.602057 352.778054 
L 390.7296 352.750504 
L 390.857143 353.106816 
L 391.112229 353.20286 
L 391.176 353.497166 
L 391.239771 353.42979 
L 391.494857 353.276075 
L 391.558629 353.568092 
L 391.6224 353.501212 
L 391.877486 353.320038 
L 391.941257 353.349426 
L 392.0688 353.56625 
L 392.387657 353.2792 
L 392.642743 353.423959 
L 392.897829 353.191622 
L 393.216686 353.255039 
L 393.408 353.057509 
L 393.535543 353.027708 
L 393.790629 352.753632 
L 393.8544 352.793396 
L 394.045714 352.61102 
L 394.109486 352.61102 
L 394.237029 352.758426 
L 394.555886 352.388782 
L 394.619657 352.431583 
L 394.810971 352.221095 
L 394.938514 352.307759 
L 395.1936 352.002164 
L 395.257371 352.046327 
L 395.321143 351.923422 
L 395.384914 351.967845 
L 395.448686 351.967845 
L 395.895086 351.22928 
L 395.958857 351.274684 
L 396.277714 350.872132 
L 396.469029 350.789411 
L 397.298057 349.811604 
L 397.361829 349.811604 
L 397.489371 351.12481 
L 397.680686 350.792893 
L 397.744457 350.792893 
L 398.254629 349.737025 
L 398.3184 349.737025 
L 398.509714 349.194151 
L 398.892343 348.290681 
L 398.956114 348.290681 
L 399.147429 347.745213 
L 399.402514 347.200041 
L 399.466286 347.200041 
L 399.785143 346.468247 
L 399.848914 346.468247 
L 400.104 345.922326 
L 400.231543 345.922326 
L 400.359086 345.566143 
L 400.422857 345.566143 
L 400.677943 345.022007 
L 400.805486 345.022007 
L 401.251886 344.126194 
L 401.315657 344.126194 
L 401.698286 343.426283 
L 401.762057 343.426283 
L 402.144686 342.731375 
L 402.208457 342.731375 
L 402.336 342.385725 
L 402.463543 342.385725 
L 402.591086 342.041242 
L 402.654857 342.041242 
L 402.7824 341.697899 
L 402.846171 341.697899 
L 403.2288 340.822784 
L 403.292571 340.822784 
L 403.802743 339.805539 
L 403.930286 339.805539 
L 404.376686 338.989297 
L 404.440457 338.989297 
L 404.568 338.655155 
L 404.631771 338.655155 
L 404.759314 338.513085 
L 404.823086 338.513085 
L 405.0144 338.180851 
L 405.078171 338.180851 
L 405.4608 337.569299 
L 405.588343 337.569299 
L 405.715886 337.240741 
L 405.779657 337.240741 
L 405.9072 337.101605 
L 405.970971 337.101605 
L 406.098514 336.77482 
L 406.162286 336.77482 
L 406.289829 336.636634 
L 406.3536 336.636634 
L 406.481143 336.498449 
L 406.544914 336.498449 
L 406.736229 336.222079 
L 406.863771 336.222079 
L 406.991314 336.083893 
L 407.055086 336.083893 
L 407.182629 335.945708 
L 407.2464 335.945708 
L 407.437714 335.669337 
L 407.501486 335.669337 
L 407.629029 333.681467 
L 407.884114 333.299761 
L 408.075429 333.003015 
L 408.394286 332.321424 
L 408.5856 332.253621 
L 408.713143 331.783207 
L 408.776914 331.766279 
L 408.968229 331.179748 
L 409.159543 330.887384 
L 409.669714 330.202495 
L 409.988571 329.587661 
L 410.052343 329.587661 
L 410.434971 328.873817 
L 410.753829 328.449656 
L 410.945143 328.162213 
L 411.327771 327.456487 
L 411.646629 327.119957 
L 411.965486 326.533514 
L 412.220571 326.0856 
L 412.348114 326.034386 
L 412.666971 325.112562 
L 412.858286 325.009613 
L 413.113371 324.592359 
L 413.177143 324.566637 
L 413.432229 324.056756 
L 413.623543 323.793879 
L 413.814857 323.514256 
L 414.069943 323.183456 
L 414.516343 322.290692 
L 414.707657 322.030195 
L 414.962743 321.596627 
L 415.154057 321.337306 
L 415.345371 321.026584 
L 415.409143 321.026584 
L 415.855543 320.142452 
L 415.919314 320.142452 
L 416.110629 319.662353 
L 416.429486 319.336153 
L 416.812114 318.689041 
L 417.258514 318.056875 
L 417.577371 317.547451 
L 417.768686 317.258399 
L 418.151314 316.584606 
L 418.4064 316.296776 
L 419.107886 315.130417 
L 419.171657 315.130417 
L 419.554286 314.323825 
L 419.618057 314.323825 
L 419.936914 313.734676 
L 420.128229 313.735762 
L 420.6384 312.951699 
L 420.702171 312.951699 
L 420.957257 312.348183 
L 421.021029 312.348183 
L 421.403657 311.602847 
L 421.722514 311.231416 
L 421.9776 310.700766 
L 422.041371 310.700766 
L 422.232686 310.294811 
L 422.551543 310.018378 
L 422.934171 309.332417 
L 423.189257 308.962465 
L 423.508114 308.435716 
L 424.528457 306.937174 
L 424.719771 306.550339 
L 424.783543 306.550339 
L 425.038629 305.991118 
L 425.1024 306.039239 
L 425.166171 305.950018 
L 425.293714 305.878561 
L 425.485029 305.392116 
L 425.612571 305.320528 
L 425.803886 304.898223 
L 425.931429 304.948045 
L 426.058971 304.615939 
L 426.314057 304.211988 
L 426.505371 303.89777 
L 426.569143 303.89777 
L 426.632914 303.655635 
L 426.696686 303.769404 
L 426.888 303.455533 
L 426.951771 303.455533 
L 427.143086 302.972202 
L 427.206857 302.972202 
L 427.398171 302.640633 
L 428.418514 301.339181 
L 428.482286 301.339181 
L 428.737371 300.749627 
L 429.183771 300.220821 
L 429.375086 299.890018 
L 429.630171 299.392434 
L 429.693943 299.507543 
L 429.757714 299.434758 
L 430.076571 298.846642 
L 433.392686 294.074292 
L 433.456457 294.209713 
L 433.520229 294.117284 
L 433.711543 293.769177 
L 435.114514 291.734573 
L 435.178286 291.852344 
L 435.242057 291.759248 
L 435.497143 291.31788 
L 435.688457 290.988307 
L 435.752229 291.106447 
L 436.134857 290.41008 
L 437.410286 288.661439 
L 437.474057 288.714411 
L 437.792914 288.196703 
L 437.920457 287.942589 
L 437.984229 288.061811 
L 438.048 287.967568 
L 438.239314 287.61921 
L 438.4944 287.176249 
L 438.558171 287.295819 
L 438.621943 287.201301 
L 439.004571 286.523071 
L 439.068343 286.428275 
L 439.132114 286.548168 
L 439.514743 285.86984 
L 439.578514 285.774855 
L 439.642286 285.894986 
L 440.024914 285.197534 
L 440.790171 284.220588 
L 440.917714 284.220588 
L 441.1728 283.699644 
L 441.874286 282.696658 
L 441.938057 282.837085 
L 442.001829 282.74124 
L 443.085943 281.140502 
L 443.149714 281.261777 
L 443.213486 281.165911 
L 443.596114 280.488369 
L 443.723657 280.315696 
L 443.787429 280.437044 
L 444.170057 279.759445 
L 444.361371 279.490685 
L 444.425143 279.631313 
L 444.807771 278.953615 
L 445.254171 278.476892 
L 446.274514 277.091353 
L 447.103543 275.974639 
L 447.231086 276.019401 
L 447.996343 274.840285 
L 448.060114 274.981462 
L 448.506514 274.071728 
L 448.634057 273.994577 
L 448.825371 273.761443 
L 448.889143 273.883438 
L 448.952914 273.78699 
L 449.208 273.380233 
L 450.292114 271.953447 
L 450.483429 271.747139 
L 450.610971 271.747139 
L 450.866057 271.185373 
L 450.9936 271.185373 
L 451.184914 270.952272 
L 451.567543 270.312921 
L 451.631314 270.454647 
L 451.8864 270.066759 
L 452.587886 269.175289 
L 452.715429 268.8647 
L 452.7792 269.006614 
L 452.842971 268.929119 
L 453.416914 268.230831 
L 453.608229 267.842607 
L 454.947429 266.217928 
L 455.0112 266.360202 
L 455.074971 266.28251 
L 455.138743 266.146577 
L 455.202514 266.288836 
L 455.266286 266.211152 
L 455.330057 266.11404 
L 455.521371 266.320857 
L 455.840229 266.094146 
L 455.904 266.236372 
L 455.967771 266.158704 
L 456.031543 266.081028 
L 456.095314 266.223254 
L 456.222857 266.009686 
L 456.414171 266.21642 
L 456.541714 266.061118 
L 456.605486 266.20331 
L 456.669257 265.989775 
L 456.733029 266.131944 
L 456.860571 265.976666 
L 456.924343 266.118834 
L 456.988114 266.041199 
L 457.051886 265.963548 
L 457.115657 266.105724 
L 457.2432 265.921317 
L 457.306971 266.112025 
L 457.370743 266.03439 
L 457.434514 265.898515 
L 457.498286 266.040666 
L 457.562057 265.96304 
L 457.625829 265.885405 
L 457.6896 266.027556 
L 457.753371 265.94993 
L 457.817143 265.872295 
L 457.880914 266.033849 
L 457.944686 265.956222 
L 458.008457 265.878588 
L 458.072229 266.020747 
L 458.136 265.943121 
L 458.199771 265.865478 
L 458.263543 266.007629 
L 458.327314 265.949414 
L 458.454857 265.813563 
L 458.518629 265.95569 
L 458.5824 265.800453 
L 458.646171 266.02019 
L 458.709943 265.961983 
L 458.773714 265.884372 
L 458.837486 265.948873 
L 459.730286 265.877039 
L 459.857829 265.88334 
L 460.431771 265.779502 
L 460.623086 265.585394 
L 460.686857 265.746989 
L 460.750629 265.688757 
L 460.8144 265.611114 
L 460.878171 265.714469 
L 460.941943 265.656236 
L 461.005714 265.597996 
L 461.069486 265.759583 
L 461.133257 265.701351 
L 461.2608 265.584886 
L 461.324571 265.746465 
L 461.388343 265.688241 
L 461.515886 265.571768 
L 461.579657 265.733355 
L 461.643429 265.694542 
L 461.834743 265.519828 
L 461.898514 265.691133 
L 461.962286 265.64261 
L 462.344914 265.571252 
L 462.408686 265.513019 
L 462.472457 265.694025 
L 462.536229 265.635793 
L 462.727543 265.59689 
L 462.791314 265.777928 
L 462.855086 265.739107 
L 463.110171 265.564361 
L 463.173943 265.725989 
L 463.237714 265.687159 
L 463.429029 265.570662 
L 463.4928 265.751701 
L 463.556571 265.69346 
L 463.747886 265.538125 
L 463.875429 265.757944 
L 464.130514 265.602576 
L 464.258057 265.764245 
L 464.704457 265.570031 
L 464.832 265.789883 
L 465.661029 265.615055 
L 465.852343 265.653762 
L 467.382857 265.731348 
L 467.574171 265.808925 
L 468.148114 265.886683 
L 468.275657 265.90611 
L 468.4032 265.763549 
L 469.232229 265.85104 
L 469.423543 265.948086 
L 470.125029 266.02586 
L 470.252571 265.815365 
L 470.443886 265.892943 
L 471.209143 265.990202 
L 471.400457 266.067804 
L 471.9744 266.145611 
L 472.038171 265.925308 
L 472.101943 265.94476 
L 472.548343 266.041805 
L 473.122286 266.119645 
L 473.504914 266.216715 
L 473.76 266.255635 
L 473.823771 266.035242 
L 473.887543 266.054702 
L 474.525257 266.132558 
L 474.716571 266.21016 
L 475.5456 266.307485 
L 475.609371 266.326944 
L 475.736914 266.106519 
L 476.629714 266.281461 
L 477.139886 266.339858 
L 477.394971 266.436969 
L 477.522514 266.216453 
L 478.096457 266.29435 
L 478.542857 266.352763 
L 478.734171 266.430389 
L 479.244343 266.488818 
L 479.371886 266.287738 
L 480.137143 266.385119 
L 480.328457 266.462754 
L 480.838629 266.521183 
L 481.093714 266.560136 
L 481.221257 266.339538 
L 481.7952 266.417468 
L 482.177829 266.514579 
L 482.751771 266.592509 
L 482.879314 266.611985 
L 482.943086 266.391347 
L 483.006857 266.410831 
L 483.899657 266.508262 
L 484.728686 266.663827 
L 484.856229 266.46264 
L 485.430171 266.540594 
L 486.2592 266.638025 
L 486.514286 266.657509 
L 486.641829 266.456314 
L 487.534629 266.631396 
L 488.363657 266.728835 
L 488.427429 266.508114 
L 488.4912 266.527615 
L 489.320229 266.625071 
L 489.8304 266.683541 
L 490.213029 266.722518 
L 490.340571 266.52129 
L 491.1696 266.618745 
L 491.743543 266.696708 
L 491.998629 266.716192 
L 492.126171 266.514964 
L 492.700114 266.592927 
L 493.146514 266.690063 
L 493.784229 266.787526 
L 494.7408 266.884973 
L 494.995886 266.865759 
L 495.697371 266.943689 
L 495.824914 266.742519 
L 496.590171 266.839949 
L 497.164114 266.917879 
L 497.4192 266.937364 
L 497.546743 266.736201 
L 498.375771 266.833624 
L 498.949714 266.911562 
L 499.268571 266.950523 
L 499.396114 266.729876 
L 499.970057 266.807822 
L 501.117943 266.866513 
L 501.245486 266.684868 
L 502.138286 266.782274 
L 502.712229 266.860196 
L 502.903543 266.879672 
L 503.031086 266.678542 
L 504.370286 266.776194 
L 504.752914 266.815147 
L 504.880457 266.61405 
L 505.518171 266.711448 
L 506.602286 266.77009 
L 506.666057 266.549558 
L 506.729829 266.569042 
L 508.1328 266.666629 
L 508.451657 266.705565 
L 508.515429 266.485082 
L 508.5792 266.50455 
L 509.982171 266.602112 
L 510.492343 266.6605 
L 511.002514 266.563372 
L 511.385143 266.446605 
L 511.448914 266.666981 
L 511.512686 266.647521 
L 511.831543 266.56969 
L 512.1504 266.53077 
L 512.341714 266.433659 
L 512.788114 266.375279 
L 512.915657 266.576163 
L 513.936 266.478888 
L 514.573714 266.381785 
L 518.081143 266.28469 
L 518.272457 266.24595 
L 518.4 266.24595 
L 518.4 266.24595 
" style="fill:none;stroke:#0000ff;stroke-linecap:square;"/>
   </g>
   <g id="line2d_4">
    <path clip-path="url(#p35355236a7)" d="M 72.063771 64.010938 
L 80.417829 64.010938 
L 80.545371 254.936979 
L 81.629486 254.936979 
L 81.757029 235.844375 
L 82.904914 235.844375 
L 83.032457 216.751771 
L 518.4 216.751771 
L 518.4 216.751771 
" style="fill:none;stroke:#000000;stroke-linecap:square;"/>
   </g>
   <g id="line2d_5">
    <path clip-path="url(#p35355236a7)" d="M 72.063771 264.483282 
L 135.898971 264.569198 
L 199.734171 350.4 
L 263.441829 350.314083 
L 327.149486 264.483282 
L 327.213257 264.569198 
L 390.920914 350.4 
L 390.984686 350.314083 
L 454.819886 264.483282 
L 518.4 264.483282 
L 518.4 264.483282 
" style="fill:none;stroke:#bf00bf;stroke-linecap:square;"/>
   </g>
   <g id="patch_3">
    <path d="M 72 43.2 
L 518.4 43.2 
" style="fill:none;stroke:#000000;stroke-linecap:square;stroke-linejoin:miter;"/>
   </g>
   <g id="patch_4">
    <path d="M 518.4 388.8 
L 518.4 43.2 
" style="fill:none;stroke:#000000;stroke-linecap:square;stroke-linejoin:miter;"/>
   </g>
   <g id="patch_5">
    <path d="M 72 388.8 
L 518.4 388.8 
" style="fill:none;stroke:#000000;stroke-linecap:square;stroke-linejoin:miter;"/>
   </g>
   <g id="patch_6">
    <path d="M 72 388.8 
L 72 43.2 
" style="fill:none;stroke:#000000;stroke-linecap:square;stroke-linejoin:miter;"/>
   </g>
   <g id="matplotlib.axis_1">
    <g id="xtick_1">
     <g id="line2d_6">
      <path clip-path="url(#p35355236a7)" d="M 72 388.8 
L 72 43.2 
" style="fill:none;stroke:#000000;stroke-dasharray:1.000000,3.000000;stroke-dashoffset:0.0;stroke-width:0.5;"/>
     </g>
     <g id="line2d_7">
      <defs>
       <path d="M 0 0 
L 0 -4 
" id="mdfe21ae2b3" style="stroke:#000000;stroke-width:0.5;"/>
      </defs>
      <g>
       <use style="stroke:#000000;stroke-width:0.5;" x="72.0" xlink:href="#mdfe21ae2b3" y="388.8"/>
      </g>
     </g>
     <g id="line2d_8">
      <defs>
       <path d="M 0 0 
L 0 4 
" id="m765c757a19" style="stroke:#000000;stroke-width:0.5;"/>
      </defs>
      <g>
       <use style="stroke:#000000;stroke-width:0.5;" x="72.0" xlink:href="#m765c757a19" y="43.2"/>
      </g>
     </g>
     <g id="text_1">
      <!-- 0 -->
      <defs>
       <path d="M 31.78125 66.40625 
Q 24.171875 66.40625 20.328125 58.90625 
Q 16.5 51.421875 16.5 36.375 
Q 16.5 21.390625 20.328125 13.890625 
Q 24.171875 6.390625 31.78125 6.390625 
Q 39.453125 6.390625 43.28125 13.890625 
Q 47.125 21.390625 47.125 36.375 
Q 47.125 51.421875 43.28125 58.90625 
Q 39.453125 66.40625 31.78125 66.40625 
M 31.78125 74.21875 
Q 44.046875 74.21875 50.515625 64.515625 
Q 56.984375 54.828125 56.984375 36.375 
Q 56.984375 17.96875 50.515625 8.265625 
Q 44.046875 -1.421875 31.78125 -1.421875 
Q 19.53125 -1.421875 13.0625 8.265625 
Q 6.59375 17.96875 6.59375 36.375 
Q 6.59375 54.828125 13.0625 64.515625 
Q 19.53125 74.21875 31.78125 74.21875 
" id="BitstreamVeraSans-Roman-30"/>
      </defs>
      <g transform="translate(68.1825 401.918125)scale(0.12 -0.12)">
       <use xlink:href="#BitstreamVeraSans-Roman-30"/>
      </g>
     </g>
    </g>
    <g id="xtick_2">
     <g id="line2d_9">
      <path clip-path="url(#p35355236a7)" d="M 135.771429 388.8 
L 135.771429 43.2 
" style="fill:none;stroke:#000000;stroke-dasharray:1.000000,3.000000;stroke-dashoffset:0.0;stroke-width:0.5;"/>
     </g>
     <g id="line2d_10">
      <g>
       <use style="stroke:#000000;stroke-width:0.5;" x="135.771428571" xlink:href="#mdfe21ae2b3" y="388.8"/>
      </g>
     </g>
     <g id="line2d_11">
      <g>
       <use style="stroke:#000000;stroke-width:0.5;" x="135.771428571" xlink:href="#m765c757a19" y="43.2"/>
      </g>
     </g>
     <g id="text_2">
      <!-- 10 -->
      <defs>
       <path d="M 12.40625 8.296875 
L 28.515625 8.296875 
L 28.515625 63.921875 
L 10.984375 60.40625 
L 10.984375 69.390625 
L 28.421875 72.90625 
L 38.28125 72.90625 
L 38.28125 8.296875 
L 54.390625 8.296875 
L 54.390625 0 
L 12.40625 0 
z
" id="BitstreamVeraSans-Roman-31"/>
      </defs>
      <g transform="translate(128.136428571 401.918125)scale(0.12 -0.12)">
       <use xlink:href="#BitstreamVeraSans-Roman-31"/>
       <use x="63.623046875" xlink:href="#BitstreamVeraSans-Roman-30"/>
      </g>
     </g>
    </g>
    <g id="xtick_3">
     <g id="line2d_12">
      <path clip-path="url(#p35355236a7)" d="M 199.542857 388.8 
L 199.542857 43.2 
" style="fill:none;stroke:#000000;stroke-dasharray:1.000000,3.000000;stroke-dashoffset:0.0;stroke-width:0.5;"/>
     </g>
     <g id="line2d_13">
      <g>
       <use style="stroke:#000000;stroke-width:0.5;" x="199.542857143" xlink:href="#mdfe21ae2b3" y="388.8"/>
      </g>
     </g>
     <g id="line2d_14">
      <g>
       <use style="stroke:#000000;stroke-width:0.5;" x="199.542857143" xlink:href="#m765c757a19" y="43.2"/>
      </g>
     </g>
     <g id="text_3">
      <!-- 20 -->
      <defs>
       <path d="M 19.1875 8.296875 
L 53.609375 8.296875 
L 53.609375 0 
L 7.328125 0 
L 7.328125 8.296875 
Q 12.9375 14.109375 22.625 23.890625 
Q 32.328125 33.6875 34.8125 36.53125 
Q 39.546875 41.84375 41.421875 45.53125 
Q 43.3125 49.21875 43.3125 52.78125 
Q 43.3125 58.59375 39.234375 62.25 
Q 35.15625 65.921875 28.609375 65.921875 
Q 23.96875 65.921875 18.8125 64.3125 
Q 13.671875 62.703125 7.8125 59.421875 
L 7.8125 69.390625 
Q 13.765625 71.78125 18.9375 73 
Q 24.125 74.21875 28.421875 74.21875 
Q 39.75 74.21875 46.484375 68.546875 
Q 53.21875 62.890625 53.21875 53.421875 
Q 53.21875 48.921875 51.53125 44.890625 
Q 49.859375 40.875 45.40625 35.40625 
Q 44.1875 33.984375 37.640625 27.21875 
Q 31.109375 20.453125 19.1875 8.296875 
" id="BitstreamVeraSans-Roman-32"/>
      </defs>
      <g transform="translate(191.907857143 401.918125)scale(0.12 -0.12)">
       <use xlink:href="#BitstreamVeraSans-Roman-32"/>
       <use x="63.623046875" xlink:href="#BitstreamVeraSans-Roman-30"/>
      </g>
     </g>
    </g>
    <g id="xtick_4">
     <g id="line2d_15">
      <path clip-path="url(#p35355236a7)" d="M 263.314286 388.8 
L 263.314286 43.2 
" style="fill:none;stroke:#000000;stroke-dasharray:1.000000,3.000000;stroke-dashoffset:0.0;stroke-width:0.5;"/>
     </g>
     <g id="line2d_16">
      <g>
       <use style="stroke:#000000;stroke-width:0.5;" x="263.314285714" xlink:href="#mdfe21ae2b3" y="388.8"/>
      </g>
     </g>
     <g id="line2d_17">
      <g>
       <use style="stroke:#000000;stroke-width:0.5;" x="263.314285714" xlink:href="#m765c757a19" y="43.2"/>
      </g>
     </g>
     <g id="text_4">
      <!-- 30 -->
      <defs>
       <path d="M 40.578125 39.3125 
Q 47.65625 37.796875 51.625 33 
Q 55.609375 28.21875 55.609375 21.1875 
Q 55.609375 10.40625 48.1875 4.484375 
Q 40.765625 -1.421875 27.09375 -1.421875 
Q 22.515625 -1.421875 17.65625 -0.515625 
Q 12.796875 0.390625 7.625 2.203125 
L 7.625 11.71875 
Q 11.71875 9.328125 16.59375 8.109375 
Q 21.484375 6.890625 26.8125 6.890625 
Q 36.078125 6.890625 40.9375 10.546875 
Q 45.796875 14.203125 45.796875 21.1875 
Q 45.796875 27.640625 41.28125 31.265625 
Q 36.765625 34.90625 28.71875 34.90625 
L 20.21875 34.90625 
L 20.21875 43.015625 
L 29.109375 43.015625 
Q 36.375 43.015625 40.234375 45.921875 
Q 44.09375 48.828125 44.09375 54.296875 
Q 44.09375 59.90625 40.109375 62.90625 
Q 36.140625 65.921875 28.71875 65.921875 
Q 24.65625 65.921875 20.015625 65.03125 
Q 15.375 64.15625 9.8125 62.3125 
L 9.8125 71.09375 
Q 15.4375 72.65625 20.34375 73.4375 
Q 25.25 74.21875 29.59375 74.21875 
Q 40.828125 74.21875 47.359375 69.109375 
Q 53.90625 64.015625 53.90625 55.328125 
Q 53.90625 49.265625 50.4375 45.09375 
Q 46.96875 40.921875 40.578125 39.3125 
" id="BitstreamVeraSans-Roman-33"/>
      </defs>
      <g transform="translate(255.679285714 401.918125)scale(0.12 -0.12)">
       <use xlink:href="#BitstreamVeraSans-Roman-33"/>
       <use x="63.623046875" xlink:href="#BitstreamVeraSans-Roman-30"/>
      </g>
     </g>
    </g>
    <g id="xtick_5">
     <g id="line2d_18">
      <path clip-path="url(#p35355236a7)" d="M 327.085714 388.8 
L 327.085714 43.2 
" style="fill:none;stroke:#000000;stroke-dasharray:1.000000,3.000000;stroke-dashoffset:0.0;stroke-width:0.5;"/>
     </g>
     <g id="line2d_19">
      <g>
       <use style="stroke:#000000;stroke-width:0.5;" x="327.085714286" xlink:href="#mdfe21ae2b3" y="388.8"/>
      </g>
     </g>
     <g id="line2d_20">
      <g>
       <use style="stroke:#000000;stroke-width:0.5;" x="327.085714286" xlink:href="#m765c757a19" y="43.2"/>
      </g>
     </g>
     <g id="text_5">
      <!-- 40 -->
      <defs>
       <path d="M 37.796875 64.3125 
L 12.890625 25.390625 
L 37.796875 25.390625 
z
M 35.203125 72.90625 
L 47.609375 72.90625 
L 47.609375 25.390625 
L 58.015625 25.390625 
L 58.015625 17.1875 
L 47.609375 17.1875 
L 47.609375 0 
L 37.796875 0 
L 37.796875 17.1875 
L 4.890625 17.1875 
L 4.890625 26.703125 
z
" id="BitstreamVeraSans-Roman-34"/>
      </defs>
      <g transform="translate(319.450714286 401.918125)scale(0.12 -0.12)">
       <use xlink:href="#BitstreamVeraSans-Roman-34"/>
       <use x="63.623046875" xlink:href="#BitstreamVeraSans-Roman-30"/>
      </g>
     </g>
    </g>
    <g id="xtick_6">
     <g id="line2d_21">
      <path clip-path="url(#p35355236a7)" d="M 390.857143 388.8 
L 390.857143 43.2 
" style="fill:none;stroke:#000000;stroke-dasharray:1.000000,3.000000;stroke-dashoffset:0.0;stroke-width:0.5;"/>
     </g>
     <g id="line2d_22">
      <g>
       <use style="stroke:#000000;stroke-width:0.5;" x="390.857142857" xlink:href="#mdfe21ae2b3" y="388.8"/>
      </g>
     </g>
     <g id="line2d_23">
      <g>
       <use style="stroke:#000000;stroke-width:0.5;" x="390.857142857" xlink:href="#m765c757a19" y="43.2"/>
      </g>
     </g>
     <g id="text_6">
      <!-- 50 -->
      <defs>
       <path d="M 10.796875 72.90625 
L 49.515625 72.90625 
L 49.515625 64.59375 
L 19.828125 64.59375 
L 19.828125 46.734375 
Q 21.96875 47.46875 24.109375 47.828125 
Q 26.265625 48.1875 28.421875 48.1875 
Q 40.625 48.1875 47.75 41.5 
Q 54.890625 34.8125 54.890625 23.390625 
Q 54.890625 11.625 47.5625 5.09375 
Q 40.234375 -1.421875 26.90625 -1.421875 
Q 22.3125 -1.421875 17.546875 -0.640625 
Q 12.796875 0.140625 7.71875 1.703125 
L 7.71875 11.625 
Q 12.109375 9.234375 16.796875 8.0625 
Q 21.484375 6.890625 26.703125 6.890625 
Q 35.15625 6.890625 40.078125 11.328125 
Q 45.015625 15.765625 45.015625 23.390625 
Q 45.015625 31 40.078125 35.4375 
Q 35.15625 39.890625 26.703125 39.890625 
Q 22.75 39.890625 18.8125 39.015625 
Q 14.890625 38.140625 10.796875 36.28125 
z
" id="BitstreamVeraSans-Roman-35"/>
      </defs>
      <g transform="translate(383.222142857 401.918125)scale(0.12 -0.12)">
       <use xlink:href="#BitstreamVeraSans-Roman-35"/>
       <use x="63.623046875" xlink:href="#BitstreamVeraSans-Roman-30"/>
      </g>
     </g>
    </g>
    <g id="xtick_7">
     <g id="line2d_24">
      <path clip-path="url(#p35355236a7)" d="M 454.628571 388.8 
L 454.628571 43.2 
" style="fill:none;stroke:#000000;stroke-dasharray:1.000000,3.000000;stroke-dashoffset:0.0;stroke-width:0.5;"/>
     </g>
     <g id="line2d_25">
      <g>
       <use style="stroke:#000000;stroke-width:0.5;" x="454.628571429" xlink:href="#mdfe21ae2b3" y="388.8"/>
      </g>
     </g>
     <g id="line2d_26">
      <g>
       <use style="stroke:#000000;stroke-width:0.5;" x="454.628571429" xlink:href="#m765c757a19" y="43.2"/>
      </g>
     </g>
     <g id="text_7">
      <!-- 60 -->
      <defs>
       <path d="M 33.015625 40.375 
Q 26.375 40.375 22.484375 35.828125 
Q 18.609375 31.296875 18.609375 23.390625 
Q 18.609375 15.53125 22.484375 10.953125 
Q 26.375 6.390625 33.015625 6.390625 
Q 39.65625 6.390625 43.53125 10.953125 
Q 47.40625 15.53125 47.40625 23.390625 
Q 47.40625 31.296875 43.53125 35.828125 
Q 39.65625 40.375 33.015625 40.375 
M 52.59375 71.296875 
L 52.59375 62.3125 
Q 48.875 64.0625 45.09375 64.984375 
Q 41.3125 65.921875 37.59375 65.921875 
Q 27.828125 65.921875 22.671875 59.328125 
Q 17.53125 52.734375 16.796875 39.40625 
Q 19.671875 43.65625 24.015625 45.921875 
Q 28.375 48.1875 33.59375 48.1875 
Q 44.578125 48.1875 50.953125 41.515625 
Q 57.328125 34.859375 57.328125 23.390625 
Q 57.328125 12.15625 50.6875 5.359375 
Q 44.046875 -1.421875 33.015625 -1.421875 
Q 20.359375 -1.421875 13.671875 8.265625 
Q 6.984375 17.96875 6.984375 36.375 
Q 6.984375 53.65625 15.1875 63.9375 
Q 23.390625 74.21875 37.203125 74.21875 
Q 40.921875 74.21875 44.703125 73.484375 
Q 48.484375 72.75 52.59375 71.296875 
" id="BitstreamVeraSans-Roman-36"/>
      </defs>
      <g transform="translate(446.993571429 401.918125)scale(0.12 -0.12)">
       <use xlink:href="#BitstreamVeraSans-Roman-36"/>
       <use x="63.623046875" xlink:href="#BitstreamVeraSans-Roman-30"/>
      </g>
     </g>
    </g>
    <g id="xtick_8">
     <g id="line2d_27">
      <path clip-path="url(#p35355236a7)" d="M 518.4 388.8 
L 518.4 43.2 
" style="fill:none;stroke:#000000;stroke-dasharray:1.000000,3.000000;stroke-dashoffset:0.0;stroke-width:0.5;"/>
     </g>
     <g id="line2d_28">
      <g>
       <use style="stroke:#000000;stroke-width:0.5;" x="518.4" xlink:href="#mdfe21ae2b3" y="388.8"/>
      </g>
     </g>
     <g id="line2d_29">
      <g>
       <use style="stroke:#000000;stroke-width:0.5;" x="518.4" xlink:href="#m765c757a19" y="43.2"/>
      </g>
     </g>
     <g id="text_8">
      <!-- 70 -->
      <defs>
       <path d="M 8.203125 72.90625 
L 55.078125 72.90625 
L 55.078125 68.703125 
L 28.609375 0 
L 18.3125 0 
L 43.21875 64.59375 
L 8.203125 64.59375 
z
" id="BitstreamVeraSans-Roman-37"/>
      </defs>
      <g transform="translate(510.765 401.918125)scale(0.12 -0.12)">
       <use xlink:href="#BitstreamVeraSans-Roman-37"/>
       <use x="63.623046875" xlink:href="#BitstreamVeraSans-Roman-30"/>
      </g>
     </g>
    </g>
    <g id="text_9">
     <!-- Time [s] -->
     <defs>
      <path id="BitstreamVeraSans-Roman-20"/>
      <path d="M 8.59375 75.984375 
L 29.296875 75.984375 
L 29.296875 69 
L 17.578125 69 
L 17.578125 -6.203125 
L 29.296875 -6.203125 
L 29.296875 -13.1875 
L 8.59375 -13.1875 
z
" id="BitstreamVeraSans-Roman-5b"/>
      <path d="M 30.421875 75.984375 
L 30.421875 -13.1875 
L 9.71875 -13.1875 
L 9.71875 -6.203125 
L 21.390625 -6.203125 
L 21.390625 69 
L 9.71875 69 
L 9.71875 75.984375 
z
" id="BitstreamVeraSans-Roman-5d"/>
      <path d="M 52 44.1875 
Q 55.375 50.25 60.0625 53.125 
Q 64.75 56 71.09375 56 
Q 79.640625 56 84.28125 50.015625 
Q 88.921875 44.046875 88.921875 33.015625 
L 88.921875 0 
L 79.890625 0 
L 79.890625 32.71875 
Q 79.890625 40.578125 77.09375 44.375 
Q 74.3125 48.1875 68.609375 48.1875 
Q 61.625 48.1875 57.5625 43.546875 
Q 53.515625 38.921875 53.515625 30.90625 
L 53.515625 0 
L 44.484375 0 
L 44.484375 32.71875 
Q 44.484375 40.625 41.703125 44.40625 
Q 38.921875 48.1875 33.109375 48.1875 
Q 26.21875 48.1875 22.15625 43.53125 
Q 18.109375 38.875 18.109375 30.90625 
L 18.109375 0 
L 9.078125 0 
L 9.078125 54.6875 
L 18.109375 54.6875 
L 18.109375 46.1875 
Q 21.1875 51.21875 25.484375 53.609375 
Q 29.78125 56 35.6875 56 
Q 41.65625 56 45.828125 52.96875 
Q 50 49.953125 52 44.1875 
" id="BitstreamVeraSans-Roman-6d"/>
      <path d="M 9.421875 54.6875 
L 18.40625 54.6875 
L 18.40625 0 
L 9.421875 0 
z
M 9.421875 75.984375 
L 18.40625 75.984375 
L 18.40625 64.59375 
L 9.421875 64.59375 
z
" id="BitstreamVeraSans-Roman-69"/>
      <path d="M 56.203125 29.59375 
L 56.203125 25.203125 
L 14.890625 25.203125 
Q 15.484375 15.921875 20.484375 11.0625 
Q 25.484375 6.203125 34.421875 6.203125 
Q 39.59375 6.203125 44.453125 7.46875 
Q 49.3125 8.734375 54.109375 11.28125 
L 54.109375 2.78125 
Q 49.265625 0.734375 44.1875 -0.34375 
Q 39.109375 -1.421875 33.890625 -1.421875 
Q 20.796875 -1.421875 13.15625 6.1875 
Q 5.515625 13.8125 5.515625 26.8125 
Q 5.515625 40.234375 12.765625 48.109375 
Q 20.015625 56 32.328125 56 
Q 43.359375 56 49.78125 48.890625 
Q 56.203125 41.796875 56.203125 29.59375 
M 47.21875 32.234375 
Q 47.125 39.59375 43.09375 43.984375 
Q 39.0625 48.390625 32.421875 48.390625 
Q 24.90625 48.390625 20.390625 44.140625 
Q 15.875 39.890625 15.1875 32.171875 
z
" id="BitstreamVeraSans-Roman-65"/>
      <path d="M -0.296875 72.90625 
L 61.375 72.90625 
L 61.375 64.59375 
L 35.5 64.59375 
L 35.5 0 
L 25.59375 0 
L 25.59375 64.59375 
L -0.296875 64.59375 
z
" id="BitstreamVeraSans-Roman-54"/>
      <path d="M 44.28125 53.078125 
L 44.28125 44.578125 
Q 40.484375 46.53125 36.375 47.5 
Q 32.28125 48.484375 27.875 48.484375 
Q 21.1875 48.484375 17.84375 46.4375 
Q 14.5 44.390625 14.5 40.28125 
Q 14.5 37.15625 16.890625 35.375 
Q 19.28125 33.59375 26.515625 31.984375 
L 29.59375 31.296875 
Q 39.15625 29.25 43.1875 25.515625 
Q 47.21875 21.78125 47.21875 15.09375 
Q 47.21875 7.46875 41.1875 3.015625 
Q 35.15625 -1.421875 24.609375 -1.421875 
Q 20.21875 -1.421875 15.453125 -0.5625 
Q 10.6875 0.296875 5.421875 2 
L 5.421875 11.28125 
Q 10.40625 8.6875 15.234375 7.390625 
Q 20.0625 6.109375 24.8125 6.109375 
Q 31.15625 6.109375 34.5625 8.28125 
Q 37.984375 10.453125 37.984375 14.40625 
Q 37.984375 18.0625 35.515625 20.015625 
Q 33.0625 21.96875 24.703125 23.78125 
L 21.578125 24.515625 
Q 13.234375 26.265625 9.515625 29.90625 
Q 5.8125 33.546875 5.8125 39.890625 
Q 5.8125 47.609375 11.28125 51.796875 
Q 16.75 56 26.8125 56 
Q 31.78125 56 36.171875 55.265625 
Q 40.578125 54.546875 44.28125 53.078125 
" id="BitstreamVeraSans-Roman-73"/>
     </defs>
     <g transform="translate(270.620625 418.531875)scale(0.12 -0.12)">
      <use xlink:href="#BitstreamVeraSans-Roman-54"/>
      <use x="61.037109375" xlink:href="#BitstreamVeraSans-Roman-69"/>
      <use x="88.8203125" xlink:href="#BitstreamVeraSans-Roman-6d"/>
      <use x="186.232421875" xlink:href="#BitstreamVeraSans-Roman-65"/>
      <use x="247.755859375" xlink:href="#BitstreamVeraSans-Roman-20"/>
      <use x="279.54296875" xlink:href="#BitstreamVeraSans-Roman-5b"/>
      <use x="318.556640625" xlink:href="#BitstreamVeraSans-Roman-73"/>
      <use x="370.65625" xlink:href="#BitstreamVeraSans-Roman-5d"/>
     </g>
    </g>
   </g>
   <g id="matplotlib.axis_2">
    <g id="ytick_1">
     <g id="line2d_30">
      <path clip-path="url(#p35355236a7)" d="M 72 388.8 
L 518.4 388.8 
" style="fill:none;stroke:#000000;stroke-dasharray:1.000000,3.000000;stroke-dashoffset:0.0;stroke-width:0.5;"/>
     </g>
     <g id="line2d_31">
      <defs>
       <path d="M 0 0 
L 4 0 
" id="mbd630d4385" style="stroke:#000000;stroke-width:0.5;"/>
      </defs>
      <g>
       <use style="stroke:#000000;stroke-width:0.5;" x="72.0" xlink:href="#mbd630d4385" y="388.8"/>
      </g>
     </g>
     <g id="line2d_32">
      <defs>
       <path d="M 0 0 
L -4 0 
" id="m049cb12a81" style="stroke:#000000;stroke-width:0.5;"/>
      </defs>
      <g>
       <use style="stroke:#000000;stroke-width:0.5;" x="518.4" xlink:href="#m049cb12a81" y="388.8"/>
      </g>
     </g>
     <g id="text_10">
      <!-- 10 -->
      <defs>
       <path d="M 10.59375 35.5 
L 73.1875 35.5 
L 73.1875 27.203125 
L 10.59375 27.203125 
z
" id="BitstreamVeraSans-Roman-2212"/>
      </defs>
      <g transform="translate(42.674375 392.11125)scale(0.12 -0.12)">
       <use xlink:href="#BitstreamVeraSans-Roman-2212"/>
       <use x="83.7890625" xlink:href="#BitstreamVeraSans-Roman-31"/>
       <use x="147.412109375" xlink:href="#BitstreamVeraSans-Roman-30"/>
      </g>
     </g>
    </g>
    <g id="ytick_2">
     <g id="line2d_33">
      <path clip-path="url(#p35355236a7)" d="M 72 350.4 
L 518.4 350.4 
" style="fill:none;stroke:#000000;stroke-dasharray:1.000000,3.000000;stroke-dashoffset:0.0;stroke-width:0.5;"/>
     </g>
     <g id="line2d_34">
      <g>
       <use style="stroke:#000000;stroke-width:0.5;" x="72.0" xlink:href="#mbd630d4385" y="350.4"/>
      </g>
     </g>
     <g id="line2d_35">
      <g>
       <use style="stroke:#000000;stroke-width:0.5;" x="518.4" xlink:href="#m049cb12a81" y="350.4"/>
      </g>
     </g>
     <g id="text_11">
      <!-- 0 -->
      <g transform="translate(60.365 353.71125)scale(0.12 -0.12)">
       <use xlink:href="#BitstreamVeraSans-Roman-30"/>
      </g>
     </g>
    </g>
    <g id="ytick_3">
     <g id="line2d_36">
      <path clip-path="url(#p35355236a7)" d="M 72 312 
L 518.4 312 
" style="fill:none;stroke:#000000;stroke-dasharray:1.000000,3.000000;stroke-dashoffset:0.0;stroke-width:0.5;"/>
     </g>
     <g id="line2d_37">
      <g>
       <use style="stroke:#000000;stroke-width:0.5;" x="72.0" xlink:href="#mbd630d4385" y="312.0"/>
      </g>
     </g>
     <g id="line2d_38">
      <g>
       <use style="stroke:#000000;stroke-width:0.5;" x="518.4" xlink:href="#m049cb12a81" y="312.0"/>
      </g>
     </g>
     <g id="text_12">
      <!-- 10 -->
      <g transform="translate(52.73 315.31125)scale(0.12 -0.12)">
       <use xlink:href="#BitstreamVeraSans-Roman-31"/>
       <use x="63.623046875" xlink:href="#BitstreamVeraSans-Roman-30"/>
      </g>
     </g>
    </g>
    <g id="ytick_4">
     <g id="line2d_39">
      <path clip-path="url(#p35355236a7)" d="M 72 273.6 
L 518.4 273.6 
" style="fill:none;stroke:#000000;stroke-dasharray:1.000000,3.000000;stroke-dashoffset:0.0;stroke-width:0.5;"/>
     </g>
     <g id="line2d_40">
      <g>
       <use style="stroke:#000000;stroke-width:0.5;" x="72.0" xlink:href="#mbd630d4385" y="273.6"/>
      </g>
     </g>
     <g id="line2d_41">
      <g>
       <use style="stroke:#000000;stroke-width:0.5;" x="518.4" xlink:href="#m049cb12a81" y="273.6"/>
      </g>
     </g>
     <g id="text_13">
      <!-- 20 -->
      <g transform="translate(52.73 276.91125)scale(0.12 -0.12)">
       <use xlink:href="#BitstreamVeraSans-Roman-32"/>
       <use x="63.623046875" xlink:href="#BitstreamVeraSans-Roman-30"/>
      </g>
     </g>
    </g>
    <g id="ytick_5">
     <g id="line2d_42">
      <path clip-path="url(#p35355236a7)" d="M 72 235.2 
L 518.4 235.2 
" style="fill:none;stroke:#000000;stroke-dasharray:1.000000,3.000000;stroke-dashoffset:0.0;stroke-width:0.5;"/>
     </g>
     <g id="line2d_43">
      <g>
       <use style="stroke:#000000;stroke-width:0.5;" x="72.0" xlink:href="#mbd630d4385" y="235.2"/>
      </g>
     </g>
     <g id="line2d_44">
      <g>
       <use style="stroke:#000000;stroke-width:0.5;" x="518.4" xlink:href="#m049cb12a81" y="235.2"/>
      </g>
     </g>
     <g id="text_14">
      <!-- 30 -->
      <g transform="translate(52.73 238.51125)scale(0.12 -0.12)">
       <use xlink:href="#BitstreamVeraSans-Roman-33"/>
       <use x="63.623046875" xlink:href="#BitstreamVeraSans-Roman-30"/>
      </g>
     </g>
    </g>
    <g id="ytick_6">
     <g id="line2d_45">
      <path clip-path="url(#p35355236a7)" d="M 72 196.8 
L 518.4 196.8 
" style="fill:none;stroke:#000000;stroke-dasharray:1.000000,3.000000;stroke-dashoffset:0.0;stroke-width:0.5;"/>
     </g>
     <g id="line2d_46">
      <g>
       <use style="stroke:#000000;stroke-width:0.5;" x="72.0" xlink:href="#mbd630d4385" y="196.8"/>
      </g>
     </g>
     <g id="line2d_47">
      <g>
       <use style="stroke:#000000;stroke-width:0.5;" x="518.4" xlink:href="#m049cb12a81" y="196.8"/>
      </g>
     </g>
     <g id="text_15">
      <!-- 40 -->
      <g transform="translate(52.73 200.11125)scale(0.12 -0.12)">
       <use xlink:href="#BitstreamVeraSans-Roman-34"/>
       <use x="63.623046875" xlink:href="#BitstreamVeraSans-Roman-30"/>
      </g>
     </g>
    </g>
    <g id="ytick_7">
     <g id="line2d_48">
      <path clip-path="url(#p35355236a7)" d="M 72 158.4 
L 518.4 158.4 
" style="fill:none;stroke:#000000;stroke-dasharray:1.000000,3.000000;stroke-dashoffset:0.0;stroke-width:0.5;"/>
     </g>
     <g id="line2d_49">
      <g>
       <use style="stroke:#000000;stroke-width:0.5;" x="72.0" xlink:href="#mbd630d4385" y="158.4"/>
      </g>
     </g>
     <g id="line2d_50">
      <g>
       <use style="stroke:#000000;stroke-width:0.5;" x="518.4" xlink:href="#m049cb12a81" y="158.4"/>
      </g>
     </g>
     <g id="text_16">
      <!-- 50 -->
      <g transform="translate(52.73 161.71125)scale(0.12 -0.12)">
       <use xlink:href="#BitstreamVeraSans-Roman-35"/>
       <use x="63.623046875" xlink:href="#BitstreamVeraSans-Roman-30"/>
      </g>
     </g>
    </g>
    <g id="ytick_8">
     <g id="line2d_51">
      <path clip-path="url(#p35355236a7)" d="M 72 120 
L 518.4 120 
" style="fill:none;stroke:#000000;stroke-dasharray:1.000000,3.000000;stroke-dashoffset:0.0;stroke-width:0.5;"/>
     </g>
     <g id="line2d_52">
      <g>
       <use style="stroke:#000000;stroke-width:0.5;" x="72.0" xlink:href="#mbd630d4385" y="120.0"/>
      </g>
     </g>
     <g id="line2d_53">
      <g>
       <use style="stroke:#000000;stroke-width:0.5;" x="518.4" xlink:href="#m049cb12a81" y="120.0"/>
      </g>
     </g>
     <g id="text_17">
      <!-- 60 -->
      <g transform="translate(52.73 123.31125)scale(0.12 -0.12)">
       <use xlink:href="#BitstreamVeraSans-Roman-36"/>
       <use x="63.623046875" xlink:href="#BitstreamVeraSans-Roman-30"/>
      </g>
     </g>
    </g>
    <g id="ytick_9">
     <g id="line2d_54">
      <path clip-path="url(#p35355236a7)" d="M 72 81.6 
L 518.4 81.6 
" style="fill:none;stroke:#000000;stroke-dasharray:1.000000,3.000000;stroke-dashoffset:0.0;stroke-width:0.5;"/>
     </g>
     <g id="line2d_55">
      <g>
       <use style="stroke:#000000;stroke-width:0.5;" x="72.0" xlink:href="#mbd630d4385" y="81.6"/>
      </g>
     </g>
     <g id="line2d_56">
      <g>
       <use style="stroke:#000000;stroke-width:0.5;" x="518.4" xlink:href="#m049cb12a81" y="81.6"/>
      </g>
     </g>
     <g id="text_18">
      <!-- 70 -->
      <g transform="translate(52.73 84.91125)scale(0.12 -0.12)">
       <use xlink:href="#BitstreamVeraSans-Roman-37"/>
       <use x="63.623046875" xlink:href="#BitstreamVeraSans-Roman-30"/>
      </g>
     </g>
    </g>
    <g id="ytick_10">
     <g id="line2d_57">
      <path clip-path="url(#p35355236a7)" d="M 72 43.2 
L 518.4 43.2 
" style="fill:none;stroke:#000000;stroke-dasharray:1.000000,3.000000;stroke-dashoffset:0.0;stroke-width:0.5;"/>
     </g>
     <g id="line2d_58">
      <g>
       <use style="stroke:#000000;stroke-width:0.5;" x="72.0" xlink:href="#mbd630d4385" y="43.2"/>
      </g>
     </g>
     <g id="line2d_59">
      <g>
       <use style="stroke:#000000;stroke-width:0.5;" x="518.4" xlink:href="#m049cb12a81" y="43.2"/>
      </g>
     </g>
     <g id="text_19">
      <!-- 80 -->
      <defs>
       <path d="M 31.78125 34.625 
Q 24.75 34.625 20.71875 30.859375 
Q 16.703125 27.09375 16.703125 20.515625 
Q 16.703125 13.921875 20.71875 10.15625 
Q 24.75 6.390625 31.78125 6.390625 
Q 38.8125 6.390625 42.859375 10.171875 
Q 46.921875 13.96875 46.921875 20.515625 
Q 46.921875 27.09375 42.890625 30.859375 
Q 38.875 34.625 31.78125 34.625 
M 21.921875 38.8125 
Q 15.578125 40.375 12.03125 44.71875 
Q 8.5 49.078125 8.5 55.328125 
Q 8.5 64.0625 14.71875 69.140625 
Q 20.953125 74.21875 31.78125 74.21875 
Q 42.671875 74.21875 48.875 69.140625 
Q 55.078125 64.0625 55.078125 55.328125 
Q 55.078125 49.078125 51.53125 44.71875 
Q 48 40.375 41.703125 38.8125 
Q 48.828125 37.15625 52.796875 32.3125 
Q 56.78125 27.484375 56.78125 20.515625 
Q 56.78125 9.90625 50.3125 4.234375 
Q 43.84375 -1.421875 31.78125 -1.421875 
Q 19.734375 -1.421875 13.25 4.234375 
Q 6.78125 9.90625 6.78125 20.515625 
Q 6.78125 27.484375 10.78125 32.3125 
Q 14.796875 37.15625 21.921875 38.8125 
M 18.3125 54.390625 
Q 18.3125 48.734375 21.84375 45.5625 
Q 25.390625 42.390625 31.78125 42.390625 
Q 38.140625 42.390625 41.71875 45.5625 
Q 45.3125 48.734375 45.3125 54.390625 
Q 45.3125 60.0625 41.71875 63.234375 
Q 38.140625 66.40625 31.78125 66.40625 
Q 25.390625 66.40625 21.84375 63.234375 
Q 18.3125 60.0625 18.3125 54.390625 
" id="BitstreamVeraSans-Roman-38"/>
      </defs>
      <g transform="translate(52.73 46.51125)scale(0.12 -0.12)">
       <use xlink:href="#BitstreamVeraSans-Roman-38"/>
       <use x="63.623046875" xlink:href="#BitstreamVeraSans-Roman-30"/>
      </g>
     </g>
    </g>
    <g id="text_20">
     <!-- Speed [mph] -->
     <defs>
      <path d="M 45.40625 46.390625 
L 45.40625 75.984375 
L 54.390625 75.984375 
L 54.390625 0 
L 45.40625 0 
L 45.40625 8.203125 
Q 42.578125 3.328125 38.25 0.953125 
Q 33.9375 -1.421875 27.875 -1.421875 
Q 17.96875 -1.421875 11.734375 6.484375 
Q 5.515625 14.40625 5.515625 27.296875 
Q 5.515625 40.1875 11.734375 48.09375 
Q 17.96875 56 27.875 56 
Q 33.9375 56 38.25 53.625 
Q 42.578125 51.265625 45.40625 46.390625 
M 14.796875 27.296875 
Q 14.796875 17.390625 18.875 11.75 
Q 22.953125 6.109375 30.078125 6.109375 
Q 37.203125 6.109375 41.296875 11.75 
Q 45.40625 17.390625 45.40625 27.296875 
Q 45.40625 37.203125 41.296875 42.84375 
Q 37.203125 48.484375 30.078125 48.484375 
Q 22.953125 48.484375 18.875 42.84375 
Q 14.796875 37.203125 14.796875 27.296875 
" id="BitstreamVeraSans-Roman-64"/>
      <path d="M 53.515625 70.515625 
L 53.515625 60.890625 
Q 47.90625 63.578125 42.921875 64.890625 
Q 37.9375 66.21875 33.296875 66.21875 
Q 25.25 66.21875 20.875 63.09375 
Q 16.5 59.96875 16.5 54.203125 
Q 16.5 49.359375 19.40625 46.890625 
Q 22.3125 44.4375 30.421875 42.921875 
L 36.375 41.703125 
Q 47.40625 39.59375 52.65625 34.296875 
Q 57.90625 29 57.90625 20.125 
Q 57.90625 9.515625 50.796875 4.046875 
Q 43.703125 -1.421875 29.984375 -1.421875 
Q 24.8125 -1.421875 18.96875 -0.25 
Q 13.140625 0.921875 6.890625 3.21875 
L 6.890625 13.375 
Q 12.890625 10.015625 18.65625 8.296875 
Q 24.421875 6.59375 29.984375 6.59375 
Q 38.421875 6.59375 43.015625 9.90625 
Q 47.609375 13.234375 47.609375 19.390625 
Q 47.609375 24.75 44.3125 27.78125 
Q 41.015625 30.8125 33.5 32.328125 
L 27.484375 33.5 
Q 16.453125 35.6875 11.515625 40.375 
Q 6.59375 45.0625 6.59375 53.421875 
Q 6.59375 63.09375 13.40625 68.65625 
Q 20.21875 74.21875 32.171875 74.21875 
Q 37.3125 74.21875 42.625 73.28125 
Q 47.953125 72.359375 53.515625 70.515625 
" id="BitstreamVeraSans-Roman-53"/>
      <path d="M 54.890625 33.015625 
L 54.890625 0 
L 45.90625 0 
L 45.90625 32.71875 
Q 45.90625 40.484375 42.875 44.328125 
Q 39.84375 48.1875 33.796875 48.1875 
Q 26.515625 48.1875 22.3125 43.546875 
Q 18.109375 38.921875 18.109375 30.90625 
L 18.109375 0 
L 9.078125 0 
L 9.078125 75.984375 
L 18.109375 75.984375 
L 18.109375 46.1875 
Q 21.34375 51.125 25.703125 53.5625 
Q 30.078125 56 35.796875 56 
Q 45.21875 56 50.046875 50.171875 
Q 54.890625 44.34375 54.890625 33.015625 
" id="BitstreamVeraSans-Roman-68"/>
      <path d="M 18.109375 8.203125 
L 18.109375 -20.796875 
L 9.078125 -20.796875 
L 9.078125 54.6875 
L 18.109375 54.6875 
L 18.109375 46.390625 
Q 20.953125 51.265625 25.265625 53.625 
Q 29.59375 56 35.59375 56 
Q 45.5625 56 51.78125 48.09375 
Q 58.015625 40.1875 58.015625 27.296875 
Q 58.015625 14.40625 51.78125 6.484375 
Q 45.5625 -1.421875 35.59375 -1.421875 
Q 29.59375 -1.421875 25.265625 0.953125 
Q 20.953125 3.328125 18.109375 8.203125 
M 48.6875 27.296875 
Q 48.6875 37.203125 44.609375 42.84375 
Q 40.53125 48.484375 33.40625 48.484375 
Q 26.265625 48.484375 22.1875 42.84375 
Q 18.109375 37.203125 18.109375 27.296875 
Q 18.109375 17.390625 22.1875 11.75 
Q 26.265625 6.109375 33.40625 6.109375 
Q 40.53125 6.109375 44.609375 11.75 
Q 48.6875 17.390625 48.6875 27.296875 
" id="BitstreamVeraSans-Roman-70"/>
     </defs>
     <g transform="translate(35.17875 254.855625)rotate(-90.0)scale(0.12 -0.12)">
      <use xlink:href="#BitstreamVeraSans-Roman-53"/>
      <use x="63.4765625" xlink:href="#BitstreamVeraSans-Roman-70"/>
      <use x="126.953125" xlink:href="#BitstreamVeraSans-Roman-65"/>
      <use x="188.4765625" xlink:href="#BitstreamVeraSans-Roman-65"/>
      <use x="250.0" xlink:href="#BitstreamVeraSans-Roman-64"/>
      <use x="313.4765625" xlink:href="#BitstreamVeraSans-Roman-20"/>
      <use x="345.263671875" xlink:href="#BitstreamVeraSans-Roman-5b"/>
      <use x="384.27734375" xlink:href="#BitstreamVeraSans-Roman-6d"/>
      <use x="481.689453125" xlink:href="#BitstreamVeraSans-Roman-70"/>
      <use x="545.166015625" xlink:href="#BitstreamVeraSans-Roman-68"/>
      <use x="608.544921875" xlink:href="#BitstreamVeraSans-Roman-5d"/>
     </g>
    </g>
   </g>
   <g id="legend_1">
    <g id="patch_7">
     <path d="M 317.4885 160.4025 
L 511.2 160.4025 
L 511.2 50.4 
L 317.4885 50.4 
z
" style="fill:#ffffff;stroke:#000000;stroke-linejoin:miter;"/>
    </g>
    <g id="line2d_60">
     <path d="M 327.5685 62.06175 
L 347.7285 62.06175 
" style="fill:none;stroke:#ff0000;stroke-linecap:square;"/>
    </g>
    <g id="line2d_61"/>
    <g id="text_21">
     <!-- speed -->
     <g transform="translate(363.5685 67.10175)scale(0.144 -0.144)">
      <use xlink:href="#BitstreamVeraSans-Roman-73"/>
      <use x="52.099609375" xlink:href="#BitstreamVeraSans-Roman-70"/>
      <use x="115.576171875" xlink:href="#BitstreamVeraSans-Roman-65"/>
      <use x="177.099609375" xlink:href="#BitstreamVeraSans-Roman-65"/>
      <use x="238.623046875" xlink:href="#BitstreamVeraSans-Roman-64"/>
     </g>
    </g>
    <g id="line2d_62">
     <path d="M 327.5685 83.19825 
L 347.7285 83.19825 
" style="fill:none;stroke:#bfbf00;stroke-dasharray:6.000000,6.000000;stroke-dashoffset:0.0;"/>
    </g>
    <g id="line2d_63"/>
    <g id="text_22">
     <!-- pid speed -->
     <g transform="translate(363.5685 88.23825)scale(0.144 -0.144)">
      <use xlink:href="#BitstreamVeraSans-Roman-70"/>
      <use x="63.4765625" xlink:href="#BitstreamVeraSans-Roman-69"/>
      <use x="91.259765625" xlink:href="#BitstreamVeraSans-Roman-64"/>
      <use x="154.736328125" xlink:href="#BitstreamVeraSans-Roman-20"/>
      <use x="186.5234375" xlink:href="#BitstreamVeraSans-Roman-73"/>
      <use x="238.623046875" xlink:href="#BitstreamVeraSans-Roman-70"/>
      <use x="302.099609375" xlink:href="#BitstreamVeraSans-Roman-65"/>
      <use x="363.623046875" xlink:href="#BitstreamVeraSans-Roman-65"/>
      <use x="425.146484375" xlink:href="#BitstreamVeraSans-Roman-64"/>
     </g>
    </g>
    <g id="line2d_64">
     <path d="M 327.5685 104.33475 
L 347.7285 104.33475 
" style="fill:none;stroke:#0000ff;stroke-linecap:square;"/>
    </g>
    <g id="line2d_65"/>
    <g id="text_23">
     <!-- Target (lead) speed -->
     <defs>
      <path d="M 8.015625 75.875 
L 15.828125 75.875 
Q 23.140625 64.359375 26.78125 53.3125 
Q 30.421875 42.28125 30.421875 31.390625 
Q 30.421875 20.453125 26.78125 9.375 
Q 23.140625 -1.703125 15.828125 -13.1875 
L 8.015625 -13.1875 
Q 14.5 -2 17.703125 9.0625 
Q 20.90625 20.125 20.90625 31.390625 
Q 20.90625 42.671875 17.703125 53.65625 
Q 14.5 64.65625 8.015625 75.875 
" id="BitstreamVeraSans-Roman-29"/>
      <path d="M 34.28125 27.484375 
Q 23.390625 27.484375 19.1875 25 
Q 14.984375 22.515625 14.984375 16.5 
Q 14.984375 11.71875 18.140625 8.90625 
Q 21.296875 6.109375 26.703125 6.109375 
Q 34.1875 6.109375 38.703125 11.40625 
Q 43.21875 16.703125 43.21875 25.484375 
L 43.21875 27.484375 
z
M 52.203125 31.203125 
L 52.203125 0 
L 43.21875 0 
L 43.21875 8.296875 
Q 40.140625 3.328125 35.546875 0.953125 
Q 30.953125 -1.421875 24.3125 -1.421875 
Q 15.921875 -1.421875 10.953125 3.296875 
Q 6 8.015625 6 15.921875 
Q 6 25.140625 12.171875 29.828125 
Q 18.359375 34.515625 30.609375 34.515625 
L 43.21875 34.515625 
L 43.21875 35.40625 
Q 43.21875 41.609375 39.140625 45 
Q 35.0625 48.390625 27.6875 48.390625 
Q 23 48.390625 18.546875 47.265625 
Q 14.109375 46.140625 10.015625 43.890625 
L 10.015625 52.203125 
Q 14.9375 54.109375 19.578125 55.046875 
Q 24.21875 56 28.609375 56 
Q 40.484375 56 46.34375 49.84375 
Q 52.203125 43.703125 52.203125 31.203125 
" id="BitstreamVeraSans-Roman-61"/>
      <path d="M 9.421875 75.984375 
L 18.40625 75.984375 
L 18.40625 0 
L 9.421875 0 
z
" id="BitstreamVeraSans-Roman-6c"/>
      <path d="M 31 75.875 
Q 24.46875 64.65625 21.28125 53.65625 
Q 18.109375 42.671875 18.109375 31.390625 
Q 18.109375 20.125 21.3125 9.0625 
Q 24.515625 -2 31 -13.1875 
L 23.1875 -13.1875 
Q 15.875 -1.703125 12.234375 9.375 
Q 8.59375 20.453125 8.59375 31.390625 
Q 8.59375 42.28125 12.203125 53.3125 
Q 15.828125 64.359375 23.1875 75.875 
z
" id="BitstreamVeraSans-Roman-28"/>
      <path d="M 45.40625 27.984375 
Q 45.40625 37.75 41.375 43.109375 
Q 37.359375 48.484375 30.078125 48.484375 
Q 22.859375 48.484375 18.828125 43.109375 
Q 14.796875 37.75 14.796875 27.984375 
Q 14.796875 18.265625 18.828125 12.890625 
Q 22.859375 7.515625 30.078125 7.515625 
Q 37.359375 7.515625 41.375 12.890625 
Q 45.40625 18.265625 45.40625 27.984375 
M 54.390625 6.78125 
Q 54.390625 -7.171875 48.1875 -13.984375 
Q 42 -20.796875 29.203125 -20.796875 
Q 24.46875 -20.796875 20.265625 -20.09375 
Q 16.0625 -19.390625 12.109375 -17.921875 
L 12.109375 -9.1875 
Q 16.0625 -11.328125 19.921875 -12.34375 
Q 23.78125 -13.375 27.78125 -13.375 
Q 36.625 -13.375 41.015625 -8.765625 
Q 45.40625 -4.15625 45.40625 5.171875 
L 45.40625 9.625 
Q 42.625 4.78125 38.28125 2.390625 
Q 33.9375 0 27.875 0 
Q 17.828125 0 11.671875 7.65625 
Q 5.515625 15.328125 5.515625 27.984375 
Q 5.515625 40.671875 11.671875 48.328125 
Q 17.828125 56 27.875 56 
Q 33.9375 56 38.28125 53.609375 
Q 42.625 51.21875 45.40625 46.390625 
L 45.40625 54.6875 
L 54.390625 54.6875 
z
" id="BitstreamVeraSans-Roman-67"/>
      <path d="M 41.109375 46.296875 
Q 39.59375 47.171875 37.8125 47.578125 
Q 36.03125 48 33.890625 48 
Q 26.265625 48 22.1875 43.046875 
Q 18.109375 38.09375 18.109375 28.8125 
L 18.109375 0 
L 9.078125 0 
L 9.078125 54.6875 
L 18.109375 54.6875 
L 18.109375 46.1875 
Q 20.953125 51.171875 25.484375 53.578125 
Q 30.03125 56 36.53125 56 
Q 37.453125 56 38.578125 55.875 
Q 39.703125 55.765625 41.0625 55.515625 
z
" id="BitstreamVeraSans-Roman-72"/>
      <path d="M 18.3125 70.21875 
L 18.3125 54.6875 
L 36.8125 54.6875 
L 36.8125 47.703125 
L 18.3125 47.703125 
L 18.3125 18.015625 
Q 18.3125 11.328125 20.140625 9.421875 
Q 21.96875 7.515625 27.59375 7.515625 
L 36.8125 7.515625 
L 36.8125 0 
L 27.59375 0 
Q 17.1875 0 13.234375 3.875 
Q 9.28125 7.765625 9.28125 18.015625 
L 9.28125 47.703125 
L 2.6875 47.703125 
L 2.6875 54.6875 
L 9.28125 54.6875 
L 9.28125 70.21875 
z
" id="BitstreamVeraSans-Roman-74"/>
     </defs>
     <g transform="translate(363.5685 109.37475)scale(0.144 -0.144)">
      <use xlink:href="#BitstreamVeraSans-Roman-54"/>
      <use x="60.833984375" xlink:href="#BitstreamVeraSans-Roman-61"/>
      <use x="122.11328125" xlink:href="#BitstreamVeraSans-Roman-72"/>
      <use x="163.2109375" xlink:href="#BitstreamVeraSans-Roman-67"/>
      <use x="226.6875" xlink:href="#BitstreamVeraSans-Roman-65"/>
      <use x="288.2109375" xlink:href="#BitstreamVeraSans-Roman-74"/>
      <use x="327.419921875" xlink:href="#BitstreamVeraSans-Roman-20"/>
      <use x="359.20703125" xlink:href="#BitstreamVeraSans-Roman-28"/>
      <use x="398.220703125" xlink:href="#BitstreamVeraSans-Roman-6c"/>
      <use x="426.00390625" xlink:href="#BitstreamVeraSans-Roman-65"/>
      <use x="487.52734375" xlink:href="#BitstreamVeraSans-Roman-61"/>
      <use x="548.806640625" xlink:href="#BitstreamVeraSans-Roman-64"/>
      <use x="612.283203125" xlink:href="#BitstreamVeraSans-Roman-29"/>
      <use x="651.296875" xlink:href="#BitstreamVeraSans-Roman-20"/>
      <use x="683.083984375" xlink:href="#BitstreamVeraSans-Roman-73"/>
      <use x="735.18359375" xlink:href="#BitstreamVeraSans-Roman-70"/>
      <use x="798.66015625" xlink:href="#BitstreamVeraSans-Roman-65"/>
      <use x="860.18359375" xlink:href="#BitstreamVeraSans-Roman-65"/>
      <use x="921.70703125" xlink:href="#BitstreamVeraSans-Roman-64"/>
     </g>
    </g>
    <g id="line2d_66">
     <path d="M 327.5685 125.47125 
L 347.7285 125.47125 
" style="fill:none;stroke:#000000;stroke-linecap:square;"/>
    </g>
    <g id="line2d_67"/>
    <g id="text_24">
     <!-- Cruise speed -->
     <defs>
      <path d="M 8.5 21.578125 
L 8.5 54.6875 
L 17.484375 54.6875 
L 17.484375 21.921875 
Q 17.484375 14.15625 20.5 10.265625 
Q 23.53125 6.390625 29.59375 6.390625 
Q 36.859375 6.390625 41.078125 11.03125 
Q 45.3125 15.671875 45.3125 23.6875 
L 45.3125 54.6875 
L 54.296875 54.6875 
L 54.296875 0 
L 45.3125 0 
L 45.3125 8.40625 
Q 42.046875 3.421875 37.71875 1 
Q 33.40625 -1.421875 27.6875 -1.421875 
Q 18.265625 -1.421875 13.375 4.4375 
Q 8.5 10.296875 8.5 21.578125 
" id="BitstreamVeraSans-Roman-75"/>
      <path d="M 64.40625 67.28125 
L 64.40625 56.890625 
Q 59.421875 61.53125 53.78125 63.8125 
Q 48.140625 66.109375 41.796875 66.109375 
Q 29.296875 66.109375 22.65625 58.46875 
Q 16.015625 50.828125 16.015625 36.375 
Q 16.015625 21.96875 22.65625 14.328125 
Q 29.296875 6.6875 41.796875 6.6875 
Q 48.140625 6.6875 53.78125 8.984375 
Q 59.421875 11.28125 64.40625 15.921875 
L 64.40625 5.609375 
Q 59.234375 2.09375 53.4375 0.328125 
Q 47.65625 -1.421875 41.21875 -1.421875 
Q 24.65625 -1.421875 15.125 8.703125 
Q 5.609375 18.84375 5.609375 36.375 
Q 5.609375 53.953125 15.125 64.078125 
Q 24.65625 74.21875 41.21875 74.21875 
Q 47.75 74.21875 53.53125 72.484375 
Q 59.328125 70.75 64.40625 67.28125 
" id="BitstreamVeraSans-Roman-43"/>
     </defs>
     <g transform="translate(363.5685 130.51125)scale(0.144 -0.144)">
      <use xlink:href="#BitstreamVeraSans-Roman-43"/>
      <use x="69.82421875" xlink:href="#BitstreamVeraSans-Roman-72"/>
      <use x="110.9375" xlink:href="#BitstreamVeraSans-Roman-75"/>
      <use x="174.31640625" xlink:href="#BitstreamVeraSans-Roman-69"/>
      <use x="202.099609375" xlink:href="#BitstreamVeraSans-Roman-73"/>
      <use x="254.19921875" xlink:href="#BitstreamVeraSans-Roman-65"/>
      <use x="315.72265625" xlink:href="#BitstreamVeraSans-Roman-20"/>
      <use x="347.509765625" xlink:href="#BitstreamVeraSans-Roman-73"/>
      <use x="399.609375" xlink:href="#BitstreamVeraSans-Roman-70"/>
      <use x="463.0859375" xlink:href="#BitstreamVeraSans-Roman-65"/>
      <use x="524.609375" xlink:href="#BitstreamVeraSans-Roman-65"/>
      <use x="586.1328125" xlink:href="#BitstreamVeraSans-Roman-64"/>
     </g>
    </g>
    <g id="line2d_68">
     <path d="M 327.5685 146.60775 
L 347.7285 146.60775 
" style="fill:none;stroke:#bf00bf;stroke-linecap:square;"/>
    </g>
    <g id="line2d_69"/>
    <g id="text_25">
     <!-- Lead speed -->
     <defs>
      <path d="M 9.8125 72.90625 
L 19.671875 72.90625 
L 19.671875 8.296875 
L 55.171875 8.296875 
L 55.171875 0 
L 9.8125 0 
z
" id="BitstreamVeraSans-Roman-4c"/>
     </defs>
     <g transform="translate(363.5685 151.64775)scale(0.144 -0.144)">
      <use xlink:href="#BitstreamVeraSans-Roman-4c"/>
      <use x="55.697265625" xlink:href="#BitstreamVeraSans-Roman-65"/>
      <use x="117.220703125" xlink:href="#BitstreamVeraSans-Roman-61"/>
      <use x="178.5" xlink:href="#BitstreamVeraSans-Roman-64"/>
      <use x="241.9765625" xlink:href="#BitstreamVeraSans-Roman-20"/>
      <use x="273.763671875" xlink:href="#BitstreamVeraSans-Roman-73"/>
      <use x="325.86328125" xlink:href="#BitstreamVeraSans-Roman-70"/>
      <use x="389.33984375" xlink:href="#BitstreamVeraSans-Roman-65"/>
      <use x="450.86328125" xlink:href="#BitstreamVeraSans-Roman-65"/>
      <use x="512.38671875" xlink:href="#BitstreamVeraSans-Roman-64"/>
     </g>
    </g>
   </g>
  </g>
 </g>
 <defs>
  <clipPath id="p35355236a7">
   <rect height="345.6" width="446.4" x="72.0" y="43.2"/>
  </clipPath>
 </defs>
</svg>
