<?xml version="1.0" encoding="utf-8" standalone="no"?>
<!DOCTYPE svg PUBLIC "-//W3C//DTD SVG 1.1//EN"
  "http://www.w3.org/Graphics/SVG/1.1/DTD/svg11.dtd">
<!-- Created with matplotlib (http://matplotlib.org/) -->
<svg height="432pt" version="1.1" viewBox="0 0 576 432" width="576pt" xmlns="http://www.w3.org/2000/svg" xmlns:xlink="http://www.w3.org/1999/xlink">
 <defs>
  <style type="text/css">
*{stroke-linecap:butt;stroke-linejoin:round;stroke-miterlimit:100000;}
  </style>
 </defs>
 <g id="figure_1">
  <g id="patch_1">
   <path d="M 0 432 
L 576 432 
L 576 0 
L 0 0 
z
" style="fill:#ffffff;"/>
  </g>
  <g id="axes_1">
   <g id="patch_2">
    <path d="M 72 388.8 
L 518.4 388.8 
L 518.4 43.2 
L 72 43.2 
z
" style="fill:#ffffff;"/>
   </g>
   <g id="line2d_1">
    <path clip-path="url(#pd4ebf758e4)" d="M 72.1488 228.546296 
L 93.2784 228.508138 
L 93.4272 219.343141 
L 93.576 219.34307 
L 93.7248 210.208716 
L 93.8736 210.208839 
L 94.0224 202.216465 
L 94.1712 202.216758 
L 94.4688 188.516067 
L 94.6176 188.516652 
L 94.7664 182.808311 
L 95.064 182.809725 
L 95.2128 175.95972 
L 95.3616 175.960574 
L 95.5104 170.252502 
L 95.6592 170.253478 
L 95.808 164.545528 
L 95.9568 164.546627 
L 96.1056 163.405941 
L 96.2544 163.407065 
L 96.4032 161.124619 
L 96.552 161.125793 
L 96.7008 159.985182 
L 96.8496 159.986382 
L 96.9984 158.845797 
L 97.1472 158.847022 
L 97.296 157.706463 
L 97.4448 157.707714 
L 97.5936 155.425395 
L 97.7424 155.426696 
L 97.8912 154.286213 
L 98.04 154.28754 
L 98.1888 153.147082 
L 98.3376 153.148435 
L 98.4864 152.008004 
L 98.6352 152.009383 
L 98.784 149.727192 
L 98.9328 149.728622 
L 99.0816 148.588268 
L 99.2304 148.589724 
L 99.3792 147.449395 
L 99.528 147.450878 
L 99.6768 146.310576 
L 99.8256 146.312085 
L 99.9744 145.171809 
L 100.1232 145.173345 
L 100.272 144.033096 
L 100.4208 144.034658 
L 100.5696 142.894436 
L 100.7184 142.896024 
L 100.8672 140.614043 
L 101.016 140.615684 
L 101.1648 139.47554 
L 101.3136 139.477207 
L 101.4624 138.33709 
L 101.6112 138.338785 
L 101.76 137.198695 
L 101.9088 137.200416 
L 102.0576 136.060354 
L 102.2064 136.062103 
L 102.3552 134.922067 
L 102.504 134.923843 
L 102.6528 133.783835 
L 102.8016 133.785639 
L 102.9504 132.645658 
L 103.0992 132.647489 
L 103.248 131.507536 
L 103.3968 131.509395 
L 103.5456 130.36947 
L 103.992 130.375134 
L 104.1408 129.235239 
L 104.2896 129.237156 
L 104.4384 128.097289 
L 104.5872 128.099234 
L 104.736 126.959395 
L 104.8848 126.961369 
L 105.0336 125.821558 
L 105.1824 125.82356 
L 105.3312 124.683777 
L 105.48 124.685807 
L 105.6288 123.546053 
L 105.7776 123.548111 
L 105.9264 122.408386 
L 106.0752 122.410473 
L 106.224 121.270776 
L 106.6704 121.277128 
L 106.8192 120.137463 
L 106.968 120.139611 
L 107.1168 118.999975 
L 107.2656 119.002151 
L 107.4144 117.862545 
L 107.5632 117.86475 
L 107.712 116.725173 
L 108.1584 116.731883 
L 108.3072 115.592338 
L 108.456 115.594606 
L 108.6048 114.455091 
L 109.0512 114.461989 
L 109.2 113.322507 
L 109.3488 113.324838 
L 109.4976 112.185386 
L 109.944 112.192475 
L 110.0928 111.053056 
L 110.2416 111.055451 
L 110.3904 109.916062 
L 110.8368 109.923343 
L 110.9856 108.783989 
L 111.1344 108.786449 
L 111.2832 107.647125 
L 111.7296 107.654601 
L 111.8784 106.515312 
L 112.3248 106.522893 
L 112.4736 105.383639 
L 112.6224 105.386199 
L 112.7712 104.246975 
L 113.2176 104.254755 
L 113.3664 103.115567 
L 113.8128 103.123454 
L 113.9616 101.984303 
L 114.408 101.992298 
L 114.5568 100.853182 
L 115.0032 100.861286 
L 115.152 99.722207 
L 115.896 99.735909 
L 116.0448 98.596871 
L 116.4912 98.605211 
L 116.64 97.466211 
L 116.7888 97.469025 
L 116.9376 98.613628 
L 117.0864 98.61642 
L 117.2352 96.335644 
L 117.9792 96.349931 
L 118.128 95.21101 
L 118.5744 95.219704 
L 118.7232 94.080821 
L 119.4672 94.095515 
L 119.616 92.956676 
L 120.36 92.97159 
L 120.5088 91.832795 
L 121.2528 91.847932 
L 121.4016 90.709182 
L 122.4432 90.730707 
L 122.592 89.592009 
L 123.336 89.607626 
L 123.4848 88.468973 
L 124.824 88.497551 
L 124.9728 87.358956 
L 126.312 87.388061 
L 126.4608 86.249524 
L 128.3952 86.292416 
L 128.544 85.153951 
L 130.4784 85.197787 
L 130.6272 84.059395 
L 134.7936 84.156541 
L 134.9424 83.018271 
L 135.3888 83.028928 
L 135.5376 81.890702 
L 135.6864 81.894294 
L 135.8352 83.039676 
L 137.9184 83.089928 
L 138.0672 84.235327 
L 138.216 84.238912 
L 138.3648 83.100716 
L 138.8112 83.111595 
L 138.96 84.257013 
L 142.9776 84.35545 
L 143.1264 85.500925 
L 143.7216 85.515588 
L 143.8704 84.377476 
L 144.912 84.403503 
L 145.0608 85.549019 
L 145.5072 85.560132 
L 145.656 86.705629 
L 146.1024 86.716681 
L 146.2512 85.578586 
L 146.6976 85.589774 
L 146.8464 86.735294 
L 148.1856 86.768754 
L 148.3344 87.914272 
L 148.4832 86.77619 
L 149.2272 86.794914 
L 149.376 89.082239 
L 149.5248 89.08593 
L 149.6736 87.947838 
L 150.4176 87.966516 
L 150.5664 89.112046 
L 150.7152 89.11576 
L 150.864 90.261262 
L 151.9056 90.287127 
L 152.0544 91.432619 
L 152.7984 91.451025 
L 152.9472 92.5965 
L 154.1376 92.625845 
L 154.2864 93.771311 
L 155.0304 93.789583 
L 155.1792 94.935031 
L 155.6256 94.945932 
L 155.7744 96.091357 
L 156.6672 96.113039 
L 156.816 97.258447 
L 157.1136 97.265631 
L 157.2624 96.127442 
L 157.4112 96.131075 
L 157.56 97.276496 
L 157.8576 97.283705 
L 158.0064 96.145529 
L 158.1552 96.149175 
L 158.304 97.294608 
L 158.4528 96.156439 
L 158.8992 96.167408 
L 159.048 97.312855 
L 159.4944 97.32375 
L 159.6432 98.469172 
L 160.6848 98.494453 
L 160.8336 99.639859 
L 161.5776 99.657828 
L 161.7264 100.803214 
L 162.4704 100.821077 
L 162.6192 101.966443 
L 162.768 101.969989 
L 162.9168 103.115324 
L 163.0656 103.11884 
L 163.2144 105.405928 
L 163.3632 105.409377 
L 163.512 107.696399 
L 163.6608 107.699782 
L 163.8096 112.270307 
L 163.9584 112.273551 
L 164.1072 113.418582 
L 164.256 113.421793 
L 164.4048 114.566792 
L 164.5536 114.569971 
L 164.7024 115.714938 
L 164.8512 115.718085 
L 165 118.004805 
L 165.1488 118.007884 
L 165.2976 119.152751 
L 165.4464 119.155797 
L 165.5952 120.300631 
L 165.744 120.303645 
L 165.8928 121.448446 
L 166.0416 121.451427 
L 166.1904 122.596195 
L 166.488 122.602093 
L 166.6368 123.74683 
L 166.7856 123.749747 
L 166.9344 124.894451 
L 167.3808 124.903106 
L 167.5296 126.04778 
L 167.6784 126.050633 
L 167.8272 127.195273 
L 168.2736 127.203737 
L 168.5712 129.492921 
L 168.72 129.495675 
L 168.8688 130.640216 
L 169.3152 130.648381 
L 169.464 129.50932 
L 169.6128 129.512082 
L 169.7616 130.65663 
L 170.208 130.664819 
L 170.3568 131.809336 
L 170.5056 131.812032 
L 170.6544 132.956516 
L 171.1008 132.964507 
L 171.2496 134.108958 
L 171.9936 134.122123 
L 172.1424 135.266545 
L 172.2912 135.269146 
L 172.44 136.413533 
L 172.8864 136.421236 
L 173.0352 137.565591 
L 173.184 137.568125 
L 173.3328 139.85423 
L 173.7792 139.86162 
L 173.928 141.00587 
L 174.0768 141.0083 
L 174.2256 139.868944 
L 174.5232 139.873882 
L 174.672 141.018137 
L 174.8208 141.020571 
L 174.9696 142.164792 
L 176.0112 142.181604 
L 176.16 143.325795 
L 177.2016 143.3424 
L 177.3504 144.486561 
L 178.0944 144.498266 
L 178.2432 145.642395 
L 178.392 145.644702 
L 178.5408 144.505225 
L 178.9872 144.512266 
L 179.136 145.6564 
L 180.1776 145.672604 
L 180.3264 146.816708 
L 180.7728 146.823554 
L 180.9216 149.109409 
L 183.8976 149.15374 
L 184.0464 150.29775 
L 184.4928 150.304314 
L 184.6416 151.448289 
L 186.8736 151.480647 
L 187.0224 152.624595 
L 187.1712 152.62672 
L 187.32 151.487061 
L 188.064 151.497893 
L 188.2128 152.641847 
L 188.3616 152.643977 
L 188.5104 151.504324 
L 188.6592 151.506494 
L 188.808 152.650451 
L 190.296 152.671817 
L 190.4448 154.957528 
L 190.5936 154.959592 
L 190.7424 159.528798 
L 190.8912 160.672494 
L 191.04 160.674366 
L 191.1888 165.24338 
L 191.3376 165.245099 
L 191.6352 173.240881 
L 191.784 173.24233 
L 191.9328 175.52735 
L 192.0816 175.528722 
L 192.3792 182.382063 
L 192.528 182.383204 
L 192.6768 183.52613 
L 192.8256 183.527232 
L 192.9744 186.953691 
L 193.1232 186.954677 
L 193.272 189.239234 
L 193.4208 189.240143 
L 193.5696 192.666408 
L 193.7184 192.6672 
L 194.016 197.23585 
L 194.1648 197.236487 
L 194.3136 198.37891 
L 194.4624 198.379509 
L 194.6112 200.663679 
L 194.76 200.664201 
L 194.9088 202.948293 
L 195.0576 202.948737 
L 195.2064 205.232751 
L 195.3552 205.233117 
L 195.504 207.517054 
L 195.6528 207.517343 
L 195.8016 208.659417 
L 195.9504 208.659666 
L 196.0992 210.943487 
L 196.248 210.943659 
L 196.3968 212.085616 
L 196.5456 212.085749 
L 196.6944 214.369453 
L 196.8432 214.369508 
L 196.992 215.511349 
L 197.2896 215.511383 
L 197.4384 216.653185 
L 197.5872 216.653162 
L 197.736 217.794925 
L 197.8848 217.794864 
L 198.0336 218.936589 
L 198.3312 218.936389 
L 198.48 220.078074 
L 198.6288 220.077936 
L 198.7776 221.219582 
L 199.0752 221.219227 
L 199.224 222.360835 
L 199.3728 222.360619 
L 199.5216 223.502188 
L 199.8192 223.501677 
L 199.968 224.643208 
L 200.4144 224.642326 
L 200.5632 226.925603 
L 201.0096 226.924489 
L 201.1584 228.065903 
L 201.3072 228.065492 
L 201.456 229.206868 
L 201.6048 229.206419 
L 201.7536 230.378203 
L 225.264 230.301688 
L 225.4128 234.801206 
L 225.5616 234.800575 
L 225.7104 239.299942 
L 226.008 239.298379 
L 226.1568 243.797596 
L 226.3056 243.796663 
L 226.4544 248.295729 
L 226.6032 248.294647 
L 226.752 252.793562 
L 226.9008 252.792329 
L 227.0496 257.291094 
L 227.1984 257.289711 
L 227.3472 261.788326 
L 227.496 261.786793 
L 227.6448 266.285258 
L 227.7936 266.283576 
L 227.9424 271.681891 
L 228.0912 271.680029 
L 228.24 276.178165 
L 228.3888 276.176154 
L 228.5376 280.674141 
L 228.6864 280.671981 
L 228.8352 285.16982 
L 228.984 285.167511 
L 229.1328 289.665202 
L 229.2816 289.662745 
L 229.4304 291.460289 
L 229.8768 291.45275 
L 230.0256 292.350238 
L 230.1744 292.347699 
L 230.3232 293.24516 
L 230.472 293.242593 
L 230.6208 294.140026 
L 231.0672 294.132246 
L 231.216 295.029655 
L 231.3648 295.027036 
L 231.5136 295.924417 
L 231.6624 295.92177 
L 231.8112 296.819124 
L 232.2576 296.811106 
L 232.4064 297.708436 
L 232.5552 297.705737 
L 232.704 298.60304 
L 232.8528 298.600315 
L 233.0016 299.49759 
L 233.448 299.489337 
L 233.5968 300.386589 
L 233.7456 300.383812 
L 233.8944 301.281037 
L 234.0432 301.278234 
L 234.192 302.175432 
L 234.6384 302.166947 
L 234.7872 303.064121 
L 234.936 303.061268 
L 235.0848 303.958416 
L 235.5312 303.949782 
L 235.68 304.846906 
L 235.8288 304.844003 
L 235.9776 305.741102 
L 236.424 305.732319 
L 236.5728 306.629394 
L 236.7216 306.626442 
L 236.8704 307.523492 
L 237.0192 307.520514 
L 237.168 308.417537 
L 237.6144 308.40853 
L 237.7632 309.305531 
L 237.912 309.302505 
L 238.0608 310.19948 
L 238.5072 310.190329 
L 238.656 311.087282 
L 238.8048 311.084208 
L 238.9536 311.981135 
L 239.4 311.971843 
L 239.5488 312.868748 
L 239.9952 312.85939 
L 240.144 313.756274 
L 240.5904 313.746852 
L 240.7392 314.643715 
L 240.888 314.640551 
L 241.0368 315.537389 
L 241.4832 315.527828 
L 241.632 316.424644 
L 242.0784 316.415021 
L 242.2272 317.311817 
L 242.6736 317.302131 
L 242.8224 318.198907 
L 243.2688 318.18916 
L 243.4176 319.085915 
L 243.864 319.076107 
L 244.0128 319.972842 
L 244.4592 319.962974 
L 244.608 320.859688 
L 245.0544 320.849761 
L 245.2032 321.746456 
L 245.6496 321.73647 
L 245.7984 322.633145 
L 246.2448 322.6231 
L 246.3936 323.519756 
L 247.1376 323.502931 
L 247.2864 324.399572 
L 247.7328 324.389427 
L 247.8816 325.286049 
L 248.6256 325.269058 
L 248.7744 326.165667 
L 249.5184 326.148607 
L 249.6672 327.045202 
L 250.4112 327.028075 
L 250.56 327.924657 
L 251.304 327.907465 
L 251.4528 328.804033 
L 252.1968 328.786777 
L 252.3456 329.683333 
L 253.0896 329.666015 
L 253.2384 330.562559 
L 254.28 330.538247 
L 254.4288 331.434783 
L 255.6192 331.406957 
L 255.768 332.30349 
L 255.9168 332.299999 
L 256.0656 333.19651 
L 258 333.151054 
L 258.1488 334.047576 
L 261.72 333.964281 
L 261.8688 334.860843 
L 283.4448 334.387696 
L 283.5936 333.484632 
L 284.9328 333.457383 
L 285.0816 332.554369 
L 289.8432 332.460036 
L 289.992 331.557132 
L 290.4384 331.5485 
L 290.5872 330.645629 
L 291.1824 330.634256 
L 291.3312 329.73142 
L 291.7776 329.722991 
L 291.9264 328.820187 
L 293.2656 328.795256 
L 293.4144 327.892499 
L 294.0096 327.88158 
L 294.1584 326.978856 
L 294.6048 326.970765 
L 294.7536 326.068073 
L 296.0928 326.044145 
L 296.2416 325.141498 
L 296.9856 325.128405 
L 297.1344 324.225794 
L 297.7296 324.215456 
L 297.8784 323.312878 
L 299.2176 323.289962 
L 299.3664 322.387427 
L 299.9616 322.377394 
L 300.1104 321.474891 
L 300.8544 321.462515 
L 301.0032 320.560046 
L 302.64 320.53326 
L 302.7888 319.630838 
L 303.384 319.621252 
L 303.5328 318.718861 
L 305.1696 318.69292 
L 305.3184 317.790574 
L 305.9136 317.781292 
L 306.0624 316.878977 
L 307.104 316.862967 
L 307.2528 315.960688 
L 309.9312 315.920355 
L 310.08 315.018133 
L 311.8656 314.991851 
L 312.0144 314.089673 
L 312.1632 314.087517 
L 312.312 313.185363 
L 312.4608 313.18323 
L 312.7584 311.378991 
L 313.2048 311.372732 
L 313.3536 310.47065 
L 313.5024 310.468589 
L 313.6512 309.56653 
L 313.9488 309.562455 
L 314.0976 307.760421 
L 314.2464 307.758427 
L 314.3952 305.956435 
L 314.6928 305.952533 
L 314.8416 304.150585 
L 315.1392 304.146771 
L 315.288 303.244866 
L 315.4368 303.242982 
L 315.5856 302.341099 
L 315.8832 302.337377 
L 316.032 300.535519 
L 316.3296 300.531882 
L 316.4784 299.630067 
L 316.6272 299.628271 
L 316.776 298.726478 
L 317.0736 298.722932 
L 317.2224 296.921162 
L 317.3712 296.919431 
L 317.52 296.017702 
L 317.8176 296.014285 
L 317.9664 294.212579 
L 318.264 294.209246 
L 318.4128 291.507582 
L 319.008 291.501164 
L 319.1568 290.599563 
L 319.4544 290.596401 
L 319.6032 286.094823 
L 319.9008 286.091858 
L 320.0496 285.190377 
L 320.1984 285.188916 
L 320.3472 284.287456 
L 320.7936 284.283137 
L 320.9424 282.4817 
L 321.24 282.478903 
L 321.3888 281.577506 
L 321.5376 281.576129 
L 321.6864 280.674752 
L 321.984 280.672039 
L 322.1328 278.870685 
L 322.5792 278.866737 
L 322.728 277.065423 
L 322.8768 277.064147 
L 323.0256 275.262872 
L 323.1744 275.261635 
L 323.3232 274.360399 
L 323.6208 274.357966 
L 323.7696 272.556751 
L 324.216 272.55322 
L 324.3648 270.752046 
L 324.6624 270.749771 
L 324.8112 269.848635 
L 324.96 269.847518 
L 325.1088 268.946401 
L 325.2576 268.945304 
L 325.4064 266.244208 
L 325.704 266.242128 
L 325.8528 228.441108 
L 327.0432 228.43905 
L 327.192 224.982989 
L 327.3408 224.982803 
L 327.4896 215.848335 
L 327.7872 215.848341 
L 327.936 214.706559 
L 328.3824 214.706639 
L 328.5312 213.564881 
L 328.9776 213.565032 
L 329.1264 212.423296 
L 329.424 212.423444 
L 329.5728 205.572806 
L 329.7216 205.573022 
L 329.8704 203.289666 
L 330.3168 203.290455 
L 330.4656 205.574288 
L 330.7632 205.574719 
L 330.912 206.71672 
L 331.3584 206.717296 
L 331.5072 199.866776 
L 331.656 199.86711 
L 331.8048 197.583873 
L 332.1024 197.584636 
L 332.2512 198.726802 
L 332.6976 198.727876 
L 332.8464 197.586448 
L 333.7392 197.588738 
L 333.888 195.30555 
L 334.0368 195.305979 
L 334.1856 194.164623 
L 334.7808 194.166436 
L 334.9296 195.308675 
L 335.5248 195.310395 
L 335.6736 194.16904 
L 335.8224 194.169494 
L 335.9712 190.744592 
L 336.2688 190.745643 
L 336.4176 191.887954 
L 336.5664 191.888456 
L 336.7152 193.030743 
L 338.5008 193.036489 
L 338.6496 189.611612 
L 338.7984 189.612164 
L 338.9472 190.7545 
L 339.9888 190.758194 
L 340.1376 189.616937 
L 340.2864 189.617489 
L 340.4352 190.759827 
L 340.8816 190.761413 
L 341.0304 195.329083 
L 341.1792 195.329517 
L 341.328 193.046379 
L 341.4768 193.04686 
L 341.6256 187.338415 
L 341.7744 187.339016 
L 341.9232 188.481403 
L 342.072 188.48198 
L 342.2208 187.340773 
L 342.6672 187.342578 
L 342.816 188.484966 
L 342.9648 188.485544 
L 343.1136 193.053264 
L 344.304 193.057127 
L 344.4528 191.915825 
L 344.6016 191.916332 
L 344.7504 193.058625 
L 345.048 193.059592 
L 345.1968 190.776505 
L 346.3872 190.780763 
L 346.536 189.639511 
L 346.8336 189.640625 
L 346.9824 190.782968 
L 347.1312 190.783501 
L 347.28 193.067605 
L 347.4288 193.06809 
L 347.5776 196.493931 
L 347.7264 196.494344 
L 347.8752 195.352972 
L 348.3216 195.354283 
L 348.4704 196.496506 
L 348.6192 196.496919 
L 348.768 195.355547 
L 348.9168 195.355985 
L 349.0656 189.647496 
L 349.2144 189.648054 
L 349.3632 188.506828 
L 349.8096 188.508578 
L 349.9584 193.076303 
L 350.1072 193.07679 
L 350.256 194.219062 
L 350.4048 194.219524 
L 350.5536 193.078202 
L 351 193.079663 
L 351.1488 194.221936 
L 351.2976 194.222399 
L 351.4464 193.081077 
L 351.5952 193.081565 
L 351.744 194.223838 
L 351.8928 194.224301 
L 352.0416 196.508335 
L 352.1904 196.50875 
L 352.3392 197.650951 
L 352.488 197.651342 
L 352.6368 198.793518 
L 353.0832 198.794618 
L 353.232 197.653199 
L 354.4224 197.65633 
L 354.5712 195.37315 
L 355.464 195.375794 
L 355.6128 194.234449 
L 355.7616 194.234914 
L 355.9104 195.377165 
L 356.6544 195.379371 
L 356.8032 196.521598 
L 356.952 196.522015 
L 357.1008 195.380646 
L 357.5472 195.381971 
L 357.696 201.09134 
L 358.1424 201.092298 
L 358.2912 199.950833 
L 360.8208 199.956688 
L 360.9696 204.524174 
L 361.416 204.524915 
L 361.5648 203.383376 
L 362.6064 203.385276 
L 362.7552 202.243762 
L 363.2016 202.24465 
L 363.3504 203.386732 
L 364.0944 203.38809 
L 364.2432 202.246576 
L 364.6896 202.247465 
L 364.8384 206.814903 
L 365.2848 206.815497 
L 365.4336 205.67391 
L 365.88 205.674578 
L 366.0288 206.816586 
L 366.1776 206.816784 
L 366.3264 205.675197 
L 367.0704 205.676311 
L 367.2192 204.534748 
L 367.6656 204.535491 
L 367.8144 205.677524 
L 367.9632 205.677747 
L 368.112 204.536184 
L 370.0464 204.539405 
L 370.1952 203.397867 
L 372.7248 203.402505 
L 372.8736 202.260992 
L 373.32 202.261886 
L 373.4688 203.403969 
L 373.9152 203.404788 
L 374.064 205.688632 
L 374.2128 205.688856 
L 374.3616 206.830865 
L 374.808 206.831462 
L 374.9568 207.973446 
L 375.1056 207.97362 
L 375.2544 206.832009 
L 376.296 206.833402 
L 376.4448 205.691816 
L 376.8912 205.692488 
L 377.04 206.834497 
L 377.1888 206.834696 
L 377.3376 205.69311 
L 378.9744 205.695575 
L 379.1232 204.554013 
L 379.272 204.554262 
L 379.4208 207.979867 
L 379.5696 207.980042 
L 379.7184 210.263787 
L 380.1648 210.264162 
L 380.3136 209.122501 
L 381.6528 209.123849 
L 381.8016 207.982213 
L 383.4384 207.984134 
L 383.5872 206.842524 
L 383.736 206.842723 
L 383.8848 207.984708 
L 384.3312 207.985232 
L 384.48 206.843622 
L 385.8192 206.845419 
L 385.968 209.12919 
L 386.1168 209.12934 
L 386.2656 213.696631 
L 386.4144 213.696681 
L 386.5632 218.263873 
L 386.8608 218.263774 
L 387.0096 217.121939 
L 387.1584 217.121915 
L 387.3072 215.980105 
L 388.4976 215.980108 
L 388.6464 214.838324 
L 389.0928 214.8384 
L 389.2416 215.98021 
L 389.3904 215.980211 
L 389.5392 214.838426 
L 389.9856 214.838502 
L 390.1344 213.696742 
L 390.8784 213.696993 
L 391.0272 212.555258 
L 392.2176 212.55586 
L 392.3664 211.41415 
L 393.408 211.414851 
L 393.5568 210.273165 
L 394.0032 210.273541 
L 394.152 211.415451 
L 394.3008 211.415551 
L 394.4496 210.273866 
L 394.5984 210.273991 
L 394.7472 211.415902 
L 395.0448 211.416102 
L 395.1936 210.274417 
L 395.64 210.274792 
L 395.7888 214.842059 
L 395.9376 214.842084 
L 396.0864 217.12568 
L 396.5328 217.125606 
L 396.6816 215.983796 
L 397.2768 215.983798 
L 397.4256 214.842013 
L 398.4672 214.84219 
L 398.616 213.70043 
L 400.2528 213.700983 
L 400.4016 212.559247 
L 401.7408 212.559925 
L 401.8896 211.418214 
L 402.336 211.418515 
L 402.4848 212.560401 
L 402.6336 212.560476 
L 402.7824 211.418766 
L 403.2288 211.419066 
L 403.3776 210.277381 
L 403.5264 210.277506 
L 403.6752 211.419417 
L 403.824 211.419517 
L 403.9728 213.703188 
L 404.1216 213.703238 
L 404.2704 218.27043 
L 404.4192 218.27038 
L 404.568 217.128545 
L 405.4608 217.128397 
L 405.6096 215.986587 
L 406.6512 215.986589 
L 406.8 214.844804 
L 407.8416 214.844981 
L 407.9904 213.703221 
L 409.6272 213.703774 
L 409.776 212.562039 
L 410.0736 212.562189 
L 410.2224 214.845835 
L 410.3712 214.84586 
L 410.52 217.129456 
L 411.264 217.129333 
L 411.4128 215.987523 
L 411.5616 215.987523 
L 411.7104 218.271094 
L 412.6032 218.270796 
L 412.752 217.128961 
L 413.496 217.128837 
L 413.6448 215.987027 
L 414.6864 215.987029 
L 414.8352 214.845244 
L 415.4304 214.845345 
L 415.5792 215.987156 
L 415.728 214.845371 
L 416.3232 214.845472 
L 416.472 213.703712 
L 417.3648 213.704013 
L 417.6624 218.271205 
L 417.8112 218.271155 
L 417.96 217.12932 
L 418.1088 217.129296 
L 418.2576 214.8457 
L 418.4064 214.845725 
L 418.5552 212.56218 
L 418.704 212.562255 
L 418.8528 217.129472 
L 419.0016 217.129447 
L 419.1504 221.696564 
L 419.2992 221.696439 
L 419.448 223.979885 
L 419.5968 223.979711 
L 419.7456 218.270609 
L 419.8944 217.128774 
L 421.8288 217.128453 
L 421.9776 215.986643 
L 423.4656 215.986646 
L 423.6144 214.844861 
L 424.9536 214.845088 
L 425.1024 213.703328 
L 425.5488 213.703479 
L 425.6976 214.845315 
L 426.4416 214.845441 
L 426.5904 215.987252 
L 426.7392 215.987252 
L 426.888 220.554394 
L 427.3344 220.554095 
L 427.4832 219.41221 
L 428.5248 219.411687 
L 428.6736 218.269827 
L 430.1616 218.269331 
L 430.3104 217.127496 
L 430.4592 217.127471 
L 430.608 215.985661 
L 432.5424 215.985665 
L 432.6912 214.84388 
L 432.84 214.843905 
L 432.9888 215.985716 
L 433.4352 215.985717 
L 433.584 214.843932 
L 434.0304 214.844008 
L 434.1792 217.127604 
L 434.328 221.69472 
L 434.4768 220.55281 
L 435.5184 220.552114 
L 435.6672 219.410229 
L 436.8576 219.409632 
L 437.0064 218.267772 
L 438.9408 218.267128 
L 439.0896 217.125293 
L 440.4288 217.125072 
L 440.5776 215.983262 
L 442.6608 215.983267 
L 442.8096 220.550409 
L 442.9584 220.550309 
L 443.1072 222.833781 
L 443.256 222.833631 
L 443.4048 221.691697 
L 444.2976 221.690951 
L 444.4464 220.549041 
L 444.8928 220.548743 
L 445.0416 219.406858 
L 446.3808 219.406189 
L 446.5296 218.264329 
L 446.976 218.264181 
L 447.1248 219.405917 
L 447.2736 219.405843 
L 447.4224 218.263983 
L 448.3152 218.263687 
L 448.464 217.121852 
L 451.2912 217.121387 
L 451.44 211.412435 
L 451.8864 211.412736 
L 452.0352 215.979977 
L 452.184 215.979978 
L 452.3328 220.54712 
L 452.6304 220.546921 
L 452.7792 222.830393 
L 453.2256 222.829946 
L 453.3744 217.12087 
L 455.3088 217.120552 
L 455.4576 215.978742 
L 457.392 215.978748 
L 457.5408 214.836963 
L 457.6896 214.836989 
L 457.8384 215.978799 
L 458.7312 215.978802 
L 458.88 214.837017 
L 461.7072 214.837499 
L 461.856 213.695739 
L 462.0048 213.69579 
L 462.1536 215.97941 
L 462.4512 215.979411 
L 462.6 221.688339 
L 463.0464 221.687966 
L 463.1952 220.546057 
L 463.7904 220.54566 
L 463.9392 219.403776 
L 464.088 219.403702 
L 464.2368 220.545413 
L 464.6832 220.545115 
L 464.832 219.403231 
L 466.0224 219.402637 
L 466.1712 218.260778 
L 467.9568 218.260187 
L 468.1056 217.118352 
L 470.3376 217.117986 
L 470.4864 215.976177 
L 473.3136 215.976187 
L 473.4624 220.543328 
L 473.6112 220.543229 
L 473.76 222.826701 
L 473.9088 222.826552 
L 474.0576 221.684618 
L 474.8016 221.683999 
L 474.9504 220.54209 
L 475.992 220.541398 
L 476.1408 219.399514 
L 476.2896 219.39944 
L 476.4384 220.541151 
L 476.8848 220.540854 
L 477.0336 219.39897 
L 478.0752 219.398452 
L 478.224 218.256593 
L 479.8608 218.256053 
L 480.0096 217.114218 
L 483.2832 217.113685 
L 483.432 215.971876 
L 487.0032 215.97189 
L 487.152 220.539032 
L 487.3008 220.538934 
L 487.4496 221.68062 
L 487.5984 221.680497 
L 487.7472 217.113232 
L 489.384 217.112965 
L 489.5328 215.971156 
L 493.5504 215.971173 
L 493.6992 214.829388 
L 497.7168 214.830075 
L 497.8656 217.113671 
L 498.0144 217.113647 
L 498.1632 220.538979 
L 498.312 220.53888 
L 498.4608 219.396996 
L 498.6096 219.396922 
L 498.7584 213.687922 
L 499.8 213.688274 
L 499.9488 214.830109 
L 500.0976 214.830135 
L 500.2464 219.397302 
L 500.6928 219.39708 
L 500.8416 214.829865 
L 500.9904 214.82989 
L 501.1392 212.546345 
L 501.288 212.54642 
L 501.4368 213.68828 
L 501.5856 213.688331 
L 501.7344 219.397308 
L 502.1808 219.397086 
L 502.3296 220.538798 
L 503.3712 220.538107 
L 503.52 219.396223 
L 504.5616 219.395706 
L 504.7104 218.253847 
L 504.8592 218.253798 
L 505.008 219.395534 
L 505.1568 219.39546 
L 505.3056 218.253601 
L 506.3472 218.253258 
L 506.496 217.111424 
L 506.6448 217.1114 
L 506.7936 218.253161 
L 508.1328 218.25272 
L 508.2816 217.110886 
L 509.0256 217.110765 
L 509.1744 215.968956 
L 509.3232 215.968956 
L 509.472 217.110742 
L 511.1088 217.110477 
L 511.2576 215.968667 
L 516.7632 215.968693 
L 516.912 214.826908 
L 518.4 214.827163 
L 518.4 214.827163 
" style="fill:none;stroke:#008000;stroke-linecap:square;"/>
   </g>
   <g id="line2d_2">
    <path clip-path="url(#pd4ebf758e4)" d="M 72.1488 216 
L 72.2976 216 
L 72.4464 216 
L 72.5952 293.190916 
L 77.952 293.29837 
L 81.3744 293.381021 
L 86.4336 293.488467 
L 89.7072 293.562859 
L 97.1472 293.455405 
L 104.4384 292.756187 
L 107.8608 292.399509 
L 112.0272 291.902323 
L 116.9376 291.264622 
L 117.8304 291.145729 
L 166.6368 284.163485 
L 174.9696 283.36366 
L 195.8016 281.958563 
L 198.9264 281.953159 
L 206.9616 282.061244 
L 212.616 282.158514 
L 215.592 282.201752 
L 215.7408 312.454646 
L 216.0384 312.514886 
L 216.1872 313.043479 
L 216.6336 313.166354 
L 216.7824 313.701251 
L 217.08 313.763908 
L 217.2288 314.304222 
L 217.6752 314.432027 
L 217.824 314.978776 
L 218.1216 315.043938 
L 218.2704 315.109307 
L 218.4192 315.596214 
L 218.7168 315.729115 
L 218.8656 316.287955 
L 219.1632 316.355713 
L 219.312 316.423691 
L 219.4608 316.92019 
L 219.7584 317.058371 
L 219.9072 317.62955 
L 220.2048 317.7 
L 220.3536 317.770676 
L 220.5024 318.276926 
L 220.8 318.42058 
L 220.9488 319.004345 
L 221.2464 319.077583 
L 221.3952 319.151047 
L 221.544 319.667205 
L 221.9904 319.89156 
L 222.1392 320.413149 
L 222.4368 320.565633 
L 222.5856 321.169331 
L 222.8832 321.24706 
L 223.032 321.325042 
L 223.1808 321.935902 
L 223.4784 322.015272 
L 223.6272 322.632236 
L 224.0736 322.794058 
L 224.2224 323.418349 
L 224.52 323.500829 
L 224.6688 324.131342 
L 224.9664 324.299501 
L 225.1152 324.937498 
L 225.5616 325.1092 
L 225.7104 325.754771 
L 226.1568 325.930085 
L 226.3056 326.583332 
L 226.6032 326.672678 
L 226.752 326.762334 
L 226.9008 327.423354 
L 227.496 327.697957 
L 227.6448 328.368143 
L 227.9424 328.461603 
L 228.3888 328.74391 
L 228.5376 329.328987 
L 229.2816 329.713989 
L 229.4304 330.404322 
L 230.6208 331.100697 
L 230.7696 331.100697 
L 230.9184 331.806322 
L 232.1088 332.530019 
L 232.2576 333.145473 
L 233.5968 334.00378 
L 233.7456 334.00378 
L 233.8944 334.741512 
L 235.5312 335.86544 
L 235.68 336.624857 
L 236.2752 336.975005 
L 236.424 336.443047 
L 236.8704 336.677097 
L 237.0192 336.14496 
L 237.4656 336.497003 
L 237.6144 335.846901 
L 238.0608 336.081349 
L 238.2096 335.66597 
L 238.3584 335.66597 
L 238.656 335.783524 
L 238.8048 335.250851 
L 239.2512 335.485712 
L 239.4 334.952861 
L 239.8464 335.30614 
L 239.9952 334.654898 
L 240.4416 335.008493 
L 240.5904 334.356949 
L 240.7392 334.474461 
L 240.888 334.059027 
L 241.0368 334.059027 
L 241.4832 334.294739 
L 241.632 333.761133 
L 241.9296 333.878865 
L 242.0784 333.345877 
L 242.5248 333.581108 
L 242.6736 333.047928 
L 243.12 333.401784 
L 243.2688 332.750006 
L 243.5664 332.985663 
L 243.7152 332.452098 
L 243.864 332.452098 
L 244.1616 332.687975 
L 244.3104 332.154218 
L 244.4592 332.154218 
L 244.608 332.272032 
L 244.7568 331.738907 
L 245.2032 331.974289 
L 245.352 331.440971 
L 245.5008 331.440971 
L 245.6496 331.025867 
L 245.7984 331.025867 
L 246.096 331.143063 
L 246.2448 330.611044 
L 246.6912 330.845176 
L 246.84 330.312964 
L 247.1376 330.4299 
L 247.2864 329.898347 
L 247.584 330.13195 
L 247.7328 329.484025 
L 248.1792 329.716873 
L 248.328 329.302091 
L 248.6256 329.302091 
L 248.7744 328.887605 
L 248.9232 329.003998 
L 249.072 328.357892 
L 249.2208 328.357892 
L 249.6672 328.589429 
L 249.816 328.059531 
L 250.1136 328.175162 
L 250.2624 327.645957 
L 250.56 327.761197 
L 250.7088 327.232693 
L 251.0064 327.462877 
L 251.1552 326.819744 
L 251.6016 327.049139 
L 251.7504 326.521163 
L 252.048 326.635716 
L 252.1968 326.108462 
L 252.4944 326.22261 
L 252.6432 325.696076 
L 252.9408 325.809826 
L 253.0896 325.284027 
L 253.2384 325.397372 
L 253.3872 324.872308 
L 253.6848 324.872308 
L 253.8336 324.98524 
L 253.9824 324.460925 
L 254.1312 324.460925 
L 254.28 324.686474 
L 254.4288 324.686474 
L 254.5776 324.162 
L 254.7264 324.162 
L 254.8752 323.639195 
L 255.024 323.639195 
L 255.1728 323.750892 
L 255.3216 323.228856 
L 255.6192 323.340134 
L 255.768 322.818874 
L 256.0656 322.929733 
L 256.2144 322.409255 
L 256.6608 322.519682 
L 256.8096 322.000001 
L 257.256 322.110001 
L 257.5536 321.07397 
L 257.7024 321.182611 
L 257.8512 321.182611 
L 258 320.666281 
L 258.2976 320.774483 
L 258.4464 320.258984 
L 258.8928 320.366746 
L 259.0416 319.852084 
L 259.3392 319.9594 
L 259.488 319.445583 
L 259.9344 319.552446 
L 260.0832 319.039487 
L 260.3808 319.145904 
L 260.5296 318.633804 
L 260.8272 318.739767 
L 260.976 318.12353 
L 261.2736 318.228539 
L 261.4224 317.719151 
L 261.5712 317.823699 
L 261.72 317.315204 
L 262.1664 317.419286 
L 262.3152 316.808569 
L 262.464 316.911697 
L 262.6128 316.405982 
L 262.9104 316.508636 
L 263.0592 316.508636 
L 263.208 316.003848 
L 263.3568 316.003848 
L 263.5056 315.500963 
L 263.952 315.602174 
L 264.1008 315.100243 
L 264.3984 315.200974 
L 264.5472 314.699998 
L 264.8448 314.800241 
L 264.9936 314.200978 
L 265.2912 314.300246 
L 265.44 313.802209 
L 265.5888 313.900983 
L 265.7376 313.306142 
L 266.184 313.403941 
L 266.3328 312.90889 
L 266.6304 313.006187 
L 266.7792 312.415844 
L 267.0768 312.51216 
L 267.2256 312.020151 
L 267.5232 312.115958 
L 267.672 311.530174 
L 267.9696 311.625 
L 268.1184 311.136088 
L 268.416 311.230405 
L 268.5648 310.649249 
L 268.8624 310.742571 
L 269.0112 310.256818 
L 269.3088 310.349618 
L 269.4576 309.773165 
L 269.7552 309.864977 
L 269.904 309.382443 
L 270.2016 309.382443 
L 270.3504 308.902039 
L 270.648 308.992326 
L 270.7968 308.513074 
L 270.9456 308.513074 
L 271.0944 308.035986 
L 271.392 308.124742 
L 271.5408 307.561082 
L 271.9872 307.648835 
L 272.136 307.088374 
L 272.5824 307.262336 
L 272.7312 306.703633 
L 273.0288 306.789841 
L 273.1776 306.234373 
L 273.4752 306.319585 
L 273.624 305.851568 
L 273.9216 305.936217 
L 274.0704 305.38583 
L 274.2192 305.469477 
L 274.368 304.922372 
L 274.6656 305.005016 
L 274.8144 304.542856 
L 275.2608 304.542856 
L 275.4096 304.083023 
L 275.7072 304.164095 
L 275.856 303.625532 
L 276.1536 303.705602 
L 276.3024 303.170403 
L 276.6 303.249463 
L 276.7488 302.717649 
L 276.8976 302.795714 
L 277.0464 302.344354 
L 277.344 302.344354 
L 277.4928 301.895419 
L 277.7904 301.97189 
L 277.9392 301.44892 
L 278.3856 301.52439 
L 278.5344 301.004881 
L 278.832 301.079347 
L 278.9808 300.563313 
L 279.2784 300.636784 
L 279.4272 300.124251 
L 279.7248 300.196719 
L 279.8736 299.687702 
L 280.1712 299.759175 
L 280.32 299.253701 
L 280.4688 299.324178 
L 280.6176 298.822254 
L 280.9152 298.891736 
L 281.064 298.461875 
L 281.3616 298.461875 
L 281.5104 298.034624 
L 281.808 298.034624 
L 281.9568 297.610002 
L 282.4032 297.610002 
L 282.552 297.188024 
L 282.8496 297.188024 
L 282.9984 296.768717 
L 283.296 296.768717 
L 283.4448 296.352102 
L 283.5936 296.352102 
L 283.7424 295.875632 
L 284.04 295.938199 
L 284.3376 295.938199 
L 284.4864 295.527042 
L 284.6352 295.527042 
L 284.784 295.118646 
L 285.0816 295.118646 
L 285.2304 294.713031 
L 285.528 294.713031 
L 285.6768 294.251557 
L 285.9744 294.310224 
L 286.1232 293.852554 
L 286.4208 293.910253 
L 286.5696 293.456408 
L 286.8672 293.456408 
L 287.016 293.063145 
L 287.3136 293.118908 
L 287.4624 292.672781 
L 287.9088 292.672781 
L 288.0576 292.285348 
L 288.3552 292.285348 
L 288.504 291.848277 
L 288.6528 291.900867 
L 288.8016 291.467725 
L 289.0992 291.519367 
L 289.248 291.090173 
L 289.8432 291.140868 
L 289.992 290.715656 
L 290.1408 290.715656 
L 290.2896 290.344187 
L 292.224 290.437777 
L 293.1168 290.551266 
L 298.6224 291.243006 
L 309.0384 292.475164 
L 310.08 292.610275 
L 310.9728 292.691334 
L 311.7168 292.777803 
L 317.8176 293.546324 
L 319.1568 293.670305 
L 319.4544 293.752956 
L 319.9008 293.827341 
L 326.8944 294.496834 
L 334.1856 294.389381 
L 342.072 294.058775 
L 344.8992 293.951321 
L 346.6848 293.86041 
L 349.6608 293.752956 
L 351.2976 293.678572 
L 356.5056 293.496735 
L 360.0768 293.389281 
L 363.4992 293.30663 
L 369.0048 293.199184 
L 371.832 293.150693 
L 381.9504 293.042608 
L 386.1168 292.999377 
L 518.4 293.085839 
L 518.4 293.085839 
" style="fill:none;stroke:#000000;stroke-dasharray:6.000000,6.000000;stroke-dashoffset:0.0;"/>
   </g>
   <g id="line2d_3">
    <path clip-path="url(#pd4ebf758e4)" d="M 72.1488 216 
L 72.8928 216 
L 73.0416 93.081061 
L 75.1248 92.975111 
L 76.464 92.890338 
L 78.5472 92.784361 
L 79.8864 92.699602 
L 81.9696 92.593625 
L 83.3088 92.508865 
L 85.392 92.402888 
L 86.7312 92.318129 
L 88.6656 92.212152 
L 90.0048 92.127379 
L 91.9392 92.021416 
L 93.2784 91.936642 
L 95.3616 92.042606 
L 96.9984 92.381699 
L 105.7776 94.996404 
L 111.8784 97.320204 
L 113.664 98.076805 
L 115.3008 98.779353 
L 118.7232 100.328563 
L 119.7648 100.796924 
L 120.0624 100.941037 
L 120.2112 100.941037 
L 120.6576 101.229263 
L 121.6992 101.715642 
L 130.6272 106.147101 
L 131.9664 106.831631 
L 138.216 109.912033 
L 138.8112 110.731874 
L 138.96 110.803134 
L 139.4064 111.386893 
L 140.2992 112.701084 
L 140.448 112.77049 
L 141.192 113.825954 
L 141.3408 113.894296 
L 142.0848 114.920748 
L 142.2336 115.004855 
L 143.1264 116.254873 
L 143.2752 116.337325 
L 144.0192 117.337548 
L 144.168 117.40245 
L 144.912 118.406978 
L 145.0608 118.470829 
L 145.9536 119.752494 
L 146.1024 119.815013 
L 146.5488 120.490672 
L 146.6976 120.490672 
L 147.2928 121.237729 
L 147.4416 121.298662 
L 148.3344 122.522449 
L 148.4832 122.522449 
L 149.0784 123.23606 
L 149.2272 123.294871 
L 149.6736 124.015828 
L 149.8224 124.015828 
L 150.2688 124.715733 
L 150.4176 124.715733 
L 150.5664 124.985591 
L 150.7152 124.985591 
L 151.7568 126.347175 
L 152.0544 126.45791 
L 152.2032 126.818413 
L 152.6496 127.080121 
L 153.096 127.751344 
L 153.3936 127.751344 
L 153.6912 128.199738 
L 153.84 128.25298 
L 154.584 129.113862 
L 154.7328 129.166054 
L 155.6256 130.238642 
L 155.7744 130.289502 
L 156.2208 130.733322 
L 156.3696 130.733322 
L 157.1136 131.586781 
L 157.2624 131.586781 
L 158.0064 132.392429 
L 158.1552 132.440646 
L 158.304 132.809361 
L 158.7504 133.046363 
L 159.3456 133.646127 
L 159.4944 133.692751 
L 160.0896 134.274305 
L 160.2384 134.320132 
L 160.9824 135.089552 
L 161.1312 135.123136 
L 161.7264 135.701237 
L 161.8752 135.745216 
L 162.6192 136.484232 
L 162.768 136.516422 
L 163.512 137.245111 
L 163.6608 137.286962 
L 164.4048 138.025456 
L 164.7024 138.08665 
L 165.2976 138.612366 
L 165.5952 138.773213 
L 165.8928 139.123121 
L 166.3392 139.181932 
L 166.488 139.470646 
L 166.6368 139.49965 
L 167.0832 139.844394 
L 167.3808 139.892075 
L 167.8272 140.23377 
L 167.976 140.261984 
L 168.72 140.928284 
L 168.8688 140.946563 
L 169.1664 141.12748 
L 169.3152 141.145628 
L 169.9104 141.603333 
L 170.0592 141.621082 
L 170.5056 141.941444 
L 170.6544 141.967673 
L 171.2496 142.426566 
L 171.3984 142.452198 
L 171.8448 142.766737 
L 171.9936 142.783566 
L 172.5888 143.242788 
L 172.7376 143.259212 
L 173.184 143.568059 
L 173.6304 143.745728 
L 174.0768 144.066763 
L 174.5232 144.338647 
L 174.9696 144.520292 
L 175.416 144.812446 
L 175.5648 144.827545 
L 176.0112 145.117584 
L 176.16 145.132416 
L 176.6064 145.420333 
L 177.0528 145.588863 
L 177.648 146.004648 
L 178.0944 146.17026 
L 178.5408 146.450954 
L 178.6896 146.464604 
L 179.136 146.743176 
L 179.2848 146.756559 
L 179.7312 147.033016 
L 179.88 147.046131 
L 180.3264 147.314046 
L 180.7728 147.47284 
L 181.368 147.882067 
L 181.5168 147.894386 
L 181.8144 148.019534 
L 181.9632 148.031721 
L 182.4096 148.29288 
L 182.856 148.446442 
L 183.4512 148.827516 
L 183.8976 148.972604 
L 184.344 149.232905 
L 184.4928 149.243898 
L 184.7904 149.386796 
L 184.9392 149.386796 
L 185.3856 149.649019 
L 190.296 149.993406 
L 190.4448 225.806468 
L 190.5936 225.806468 
L 190.8912 226.294936 
L 191.1888 226.296213 
L 191.6352 226.820816 
L 191.784 227.04661 
L 192.0816 227.069901 
L 192.2304 227.317447 
L 192.3792 227.337534 
L 192.528 227.591184 
L 192.8256 227.611059 
L 192.9744 227.845073 
L 193.1232 227.865406 
L 193.272 228.124969 
L 193.5696 228.146553 
L 193.8672 228.672015 
L 194.1648 228.718167 
L 194.3136 228.98396 
L 194.76 228.982559 
L 194.9088 229.278494 
L 195.2064 229.301452 
L 195.3552 229.574092 
L 195.504 229.59932 
L 195.6528 229.852146 
L 195.9504 229.876137 
L 196.0992 230.180076 
L 196.3968 230.178887 
L 196.6944 230.512812 
L 196.8432 230.512812 
L 196.992 230.82452 
L 197.2896 230.799037 
L 197.4384 231.114099 
L 197.736 231.139524 
L 197.8848 231.45878 
L 198.3312 231.484854 
L 198.48 231.808334 
L 198.7776 231.835067 
L 198.9264 232.107825 
L 199.224 232.162451 
L 199.3728 232.493167 
L 199.8192 232.52116 
L 199.968 232.828516 
L 200.2656 232.870799 
L 200.4144 233.195763 
L 200.712 233.225102 
L 200.8608 233.567058 
L 201.1584 233.568021 
L 201.3072 233.915797 
L 201.7536 233.976112 
L 201.9024 234.296294 
L 202.2 234.298002 
L 202.3488 234.68306 
L 202.7952 234.683949 
L 202.944 235.073733 
L 203.3904 235.138429 
L 203.688 235.503227 
L 203.8368 235.472456 
L 203.9856 235.871801 
L 204.2832 235.90499 
L 204.432 235.908401 
L 204.5808 236.278024 
L 204.8784 236.31197 
L 205.0272 236.690856 
L 205.3248 236.725595 
L 205.4736 236.729902 
L 205.6224 237.107661 
L 205.92 237.143194 
L 206.2176 237.567553 
L 206.5152 237.604019 
L 206.664 237.958788 
L 207.1104 238.001679 
L 207.2592 238.431239 
L 207.5568 238.469346 
L 207.7056 238.872073 
L 208.152 238.87732 
L 208.3008 239.316971 
L 208.5984 239.356796 
L 208.7472 239.734585 
L 209.1936 239.850582 
L 209.3424 240.225106 
L 209.64 240.26673 
L 209.9376 240.731052 
L 210.2352 240.773737 
L 210.384 241.165566 
L 210.8304 241.24308 
L 210.9792 241.675411 
L 211.2768 241.719969 
L 211.4256 242.202738 
L 211.5744 242.166294 
L 211.872 242.248415 
L 212.0208 242.654638 
L 212.3184 242.738119 
L 212.4672 243.135048 
L 212.9136 243.231993 
L 213.0624 243.231993 
L 213.2112 243.647491 
L 213.36 243.696077 
L 213.5088 244.19003 
L 213.9552 244.23972 
L 214.104 244.753725 
L 214.5504 244.857706 
L 214.848 245.325953 
L 214.9968 245.341111 
L 215.1456 245.798424 
L 215.592 245.906804 
L 215.7408 246.385386 
L 216.0384 246.402023 
L 216.1872 246.925714 
L 216.6336 246.998697 
L 216.7824 247.529097 
L 217.08 247.585899 
L 217.2288 248.083529 
L 217.6752 248.160759 
L 217.824 248.703741 
L 217.9728 248.662172 
L 218.2704 248.783323 
L 218.4192 249.270268 
L 218.7168 249.394012 
L 218.8656 249.910036 
L 219.0144 249.867557 
L 219.312 249.994147 
L 219.4608 250.491206 
L 219.7584 250.620512 
L 219.9072 251.148752 
L 220.3536 251.237542 
L 220.5024 251.744873 
L 220.8 251.879919 
L 220.9488 252.376223 
L 221.3952 252.556207 
L 221.544 253.032038 
L 221.9904 253.200208 
L 222.1392 253.723635 
L 222.4368 253.86794 
L 222.5856 254.38243 
L 223.032 254.573204 
L 223.1808 255.140627 
L 223.3296 255.094231 
L 223.4784 255.214665 
L 223.6272 255.741205 
L 224.0736 255.939292 
L 224.3712 256.597174 
L 224.52 256.597174 
L 224.6688 257.180806 
L 224.9664 257.341687 
L 225.264 258.016333 
L 225.5616 258.051788 
L 225.7104 258.649781 
L 226.008 258.781218 
L 226.1568 258.841042 
L 226.3056 259.423524 
L 226.6032 259.507796 
L 226.752 259.592428 
L 226.9008 260.158636 
L 227.1984 260.241422 
L 227.496 260.364362 
L 227.6448 260.985453 
L 227.9424 261.0669 
L 228.3888 261.279461 
L 228.5376 261.81272 
L 228.8352 261.990696 
L 229.1328 262.114769 
L 229.2816 262.059484 
L 229.4304 262.694899 
L 229.8768 262.960771 
L 230.1744 262.991488 
L 230.6208 263.310088 
L 230.7696 263.302649 
L 231.0672 264.041527 
L 231.6624 264.307946 
L 232.1088 264.588979 
L 232.2576 265.094282 
L 233.5968 265.849585 
L 233.7456 265.837473 
L 233.8944 266.56691 
L 234.3408 266.811651 
L 235.5312 267.488979 
L 235.68 268.13 
L 236.2752 268.481343 
L 236.424 267.935072 
L 236.8704 268.19771 
L 237.0192 267.690722 
L 237.4656 267.947287 
L 237.6144 267.336869 
L 238.0608 267.542739 
L 238.2096 267.208649 
L 238.656 267.246054 
L 238.8048 266.751789 
L 239.2512 266.945018 
L 239.4 266.450602 
L 239.8464 266.761062 
L 239.9952 266.14945 
L 240.4416 266.460178 
L 240.5904 265.791199 
L 240.7392 265.894347 
L 240.888 265.555876 
L 241.3344 265.646115 
L 241.4832 265.74987 
L 241.632 265.254775 
L 241.7808 265.358249 
L 241.9296 265.287864 
L 242.0784 264.793507 
L 242.5248 265.039711 
L 242.6736 264.545048 
L 243.12 264.798564 
L 243.2688 264.239545 
L 243.5664 264.389251 
L 243.7152 263.894403 
L 243.864 263.881309 
L 244.1616 264.141242 
L 244.3104 263.588921 
L 244.4592 263.575817 
L 244.608 263.679157 
L 244.7568 263.180408 
L 245.2032 263.426657 
L 245.352 262.874879 
L 245.5008 262.861829 
L 245.6496 262.466651 
L 246.096 262.556303 
L 246.2448 262.058701 
L 246.6912 262.246454 
L 246.84 261.753075 
L 247.1376 261.838123 
L 247.2864 261.345386 
L 247.584 261.545581 
L 247.7328 260.938065 
L 248.0304 261.067655 
L 248.1792 261.067655 
L 248.328 260.672947 
L 248.6256 260.712467 
L 248.7744 260.317965 
L 248.9232 260.419736 
L 249.072 259.757838 
L 249.2208 259.757838 
L 249.5184 259.955571 
L 249.6672 259.99505 
L 249.816 259.447707 
L 249.9648 259.600802 
L 250.1136 259.531444 
L 250.2624 259.093481 
L 250.56 259.176973 
L 250.7088 258.631269 
L 251.0064 258.82746 
L 251.1552 258.277591 
L 251.6016 258.404147 
L 251.7504 257.967372 
L 252.048 258.050178 
L 252.1968 257.50608 
L 252.3456 257.657135 
L 252.4944 257.588446 
L 252.6432 257.152917 
L 252.9408 257.179089 
L 253.0896 256.692666 
L 253.2384 256.786805 
L 253.3872 256.2845 
L 253.8336 256.365768 
L 253.9824 255.915781 
L 254.1312 255.915781 
L 254.4288 256.051311 
L 254.5776 255.549981 
L 254.7264 255.549981 
L 254.8752 255.050412 
L 255.1728 255.130496 
L 255.3216 254.64408 
L 255.6192 254.723755 
L 255.768 254.238207 
L 256.0656 254.384699 
L 256.2144 253.832804 
L 256.6608 253.911714 
L 256.8096 253.427883 
L 257.1072 253.506394 
L 257.256 253.506394 
L 257.5536 252.514637 
L 257.7024 252.57854 
L 257.8512 252.57854 
L 258 252.111755 
L 258.2976 252.20037 
L 258.4464 251.709391 
L 258.8928 251.785828 
L 259.0416 251.207851 
L 259.1904 251.092914 
L 259.3392 251.329728 
L 259.488 250.906249 
L 259.9344 250.96643 
L 260.0832 250.490221 
L 260.3808 250.511813 
L 260.5296 250.074941 
L 260.8272 250.160981 
L 260.976 249.590369 
L 261.2736 249.660417 
L 261.4224 249.139219 
L 261.5712 249.276596 
L 261.72 248.790492 
L 262.1664 248.863414 
L 262.3152 248.295544 
L 262.464 248.329849 
L 262.6128 247.899583 
L 262.9104 247.982152 
L 263.0592 247.918936 
L 263.208 247.504285 
L 263.3568 247.489841 
L 263.5056 246.962628 
L 263.6544 246.962628 
L 263.952 247.080927 
L 264.1008 246.617324 
L 264.3984 246.687098 
L 264.5472 246.224628 
L 264.8448 246.293941 
L 264.9936 245.739753 
L 265.1424 245.818642 
L 265.2912 245.757084 
L 265.44 245.349066 
L 265.5888 245.413559 
L 265.7376 244.817691 
L 265.8864 244.817691 
L 266.184 244.93175 
L 266.3328 244.47618 
L 266.4816 244.415817 
L 266.6304 244.542726 
L 266.7792 243.999282 
L 267.0768 244.064925 
L 267.2256 243.612922 
L 267.5232 243.628226 
L 267.672 243.140139 
L 267.9696 243.201106 
L 268.1184 242.706852 
L 268.416 242.81654 
L 268.5648 242.284284 
L 268.8624 242.347107 
L 269.0112 241.902567 
L 269.3088 241.964884 
L 269.4576 241.438362 
L 269.7552 241.451371 
L 269.904 241.05909 
L 270.2016 241.034379 
L 270.3504 240.587136 
L 270.648 240.656223 
L 270.7968 240.163049 
L 270.9456 240.198454 
L 271.0944 239.76437 
L 271.392 239.822884 
L 271.5408 239.312118 
L 271.9872 239.322843 
L 272.136 238.86283 
L 272.5824 238.938562 
L 272.7312 238.480825 
L 273.0288 238.534061 
L 273.1776 237.990784 
L 273.4752 238.088871 
L 273.624 237.666131 
L 273.9216 237.720731 
L 274.0704 237.173494 
L 274.2192 237.280447 
L 274.368 236.790531 
L 274.6656 236.798431 
L 274.8144 236.427829 
L 275.2608 236.406648 
L 275.4096 235.996698 
L 275.7072 236.045361 
L 275.856 235.525083 
L 276.1536 235.616585 
L 276.3024 235.141646 
L 276.6 235.191074 
L 276.7488 234.720351 
L 276.8976 234.776292 
L 277.0464 234.367003 
L 277.344 234.347556 
L 277.4928 233.951171 
L 277.7904 233.995789 
L 277.9392 233.496921 
L 278.3856 233.582495 
L 278.5344 233.098747 
L 278.832 233.172647 
L 278.9808 232.722015 
L 279.2784 232.766285 
L 279.4272 232.320081 
L 279.7248 232.322776 
L 279.8736 231.921704 
L 280.1712 231.961997 
L 280.32 231.487219 
L 280.4688 231.574837 
L 280.6176 231.133718 
L 280.9152 231.17437 
L 281.064 230.800275 
L 281.3616 230.786056 
L 281.5104 230.415364 
L 281.808 230.401464 
L 281.9568 230.034218 
L 282.4032 229.982578 
L 282.552 229.656879 
L 282.8496 229.641718 
L 282.9984 229.246188 
L 283.296 229.268588 
L 283.4448 228.911984 
L 283.5936 228.899348 
L 283.7424 228.499585 
L 284.3376 228.527013 
L 284.4864 228.177868 
L 284.6352 228.172722 
L 284.784 227.820438 
L 285.0816 227.808746 
L 285.2304 227.467083 
L 285.528 227.455696 
L 285.6768 227.075777 
L 285.9744 227.106764 
L 286.272 226.766614 
L 286.4208 226.761998 
L 286.5696 226.392146 
L 286.8672 226.386202 
L 287.016 226.056693 
L 287.3136 226.085146 
L 287.76 225.596421 
L 287.9088 225.71574 
L 288.2064 225.393321 
L 288.3552 225.389246 
L 288.504 225.041366 
L 288.6528 225.071109 
L 288.8016 224.724544 
L 289.0992 224.749529 
L 289.248 224.412225 
L 289.8432 224.431476 
L 289.992 224.100906 
L 290.1408 224.096164 
L 290.2896 223.79788 
L 290.736 223.78872 
L 290.8848 223.495095 
L 291.0336 223.495095 
L 291.1824 223.177541 
L 291.48 223.225602 
L 291.6288 222.889711 
L 291.7776 222.99655 
L 291.9264 222.965646 
L 292.0752 222.606708 
L 292.5216 222.521723 
L 292.8192 222.313453 
L 293.1168 222.319149 
L 293.2656 222.028607 
L 293.5632 222.046346 
L 293.712 221.786973 
L 293.8608 221.75893 
L 294.0096 221.478335 
L 294.3072 221.494524 
L 294.456 221.246597 
L 294.7536 221.241072 
L 294.9024 220.972222 
L 295.3488 220.987664 
L 295.4976 220.705384 
L 295.944 220.719398 
L 296.0928 220.488562 
L 296.3904 220.483798 
L 296.5392 220.237411 
L 296.9856 220.236841 
L 297.1344 219.98407 
L 297.432 220.019266 
L 297.5808 219.782699 
L 297.7296 219.782699 
L 297.8784 219.533558 
L 298.3248 219.562225 
L 298.4736 219.34122 
L 298.92 219.337632 
L 299.2176 219.103306 
L 299.3664 219.133107 
L 299.5152 218.925353 
L 299.9616 218.92084 
L 300.1104 218.729796 
L 300.408 218.657911 
L 300.5568 218.533869 
L 300.7056 218.583135 
L 300.8544 218.344031 
L 301.3008 218.293778 
L 301.5984 218.16949 
L 301.896 218.15937 
L 302.1936 217.992787 
L 302.4912 217.99062 
L 302.9376 217.67049 
L 303.384 217.724959 
L 303.5328 217.515626 
L 303.8304 217.533669 
L 304.128 217.374048 
L 304.5744 217.385253 
L 304.872 217.198482 
L 305.0208 217.233152 
L 305.3184 217.117588 
L 306.0624 216.979956 
L 306.36 216.872404 
L 306.6576 216.762066 
L 307.6992 216.660522 
L 308.1456 216.476321 
L 309.1872 216.396098 
L 309.6336 216.322547 
L 310.3776 216.212536 
L 313.3536 216.018594 
L 314.0976 216.005548 
L 314.2464 124.270958 
L 314.6928 124.195193 
L 314.8416 123.927388 
L 315.8832 123.714912 
L 316.032 123.435915 
L 316.4784 123.333659 
L 316.6272 123.053735 
L 317.0736 122.950951 
L 317.2224 122.683015 
L 317.8176 122.553864 
L 317.9664 122.272023 
L 318.4128 122.181159 
L 318.5616 121.898447 
L 319.3056 121.872354 
L 319.6032 121.405538 
L 319.9008 121.379315 
L 320.0496 121.107795 
L 320.6448 121.015544 
L 320.7936 120.716805 
L 321.6864 120.571106 
L 321.8352 120.297739 
L 322.4304 120.19124 
L 322.5792 119.917083 
L 323.472 119.783297 
L 323.6208 119.494769 
L 324.216 119.387206 
L 324.3648 119.097743 
L 325.1088 119.003178 
L 325.2576 118.976152 
L 325.4064 118.685701 
L 326.7456 118.577081 
L 326.8944 118.563506 
L 327.0432 118.31299 
L 330.3168 118.31299 
L 330.4656 118.577081 
L 333.144 118.685701 
L 333.7392 118.699269 
L 333.888 118.976152 
L 336.2688 119.111256 
L 336.4176 119.373768 
L 338.5008 119.508206 
L 338.6496 119.769921 
L 340.2864 119.876942 
L 340.7328 119.917083 
L 340.8816 120.177926 
L 342.816 120.311053 
L 342.9648 120.584351 
L 344.8992 120.690314 
L 345.048 120.962823 
L 346.536 121.068258 
L 347.1312 121.107795 
L 347.28 121.366193 
L 349.6608 121.497329 
L 349.8096 121.767984 
L 351.5952 121.872354 
L 351.8928 121.898447 
L 352.0416 122.155197 
L 354.1248 122.259039 
L 354.5712 122.285001 
L 354.72 122.540955 
L 356.8032 122.644267 
L 357.3984 122.683015 
L 357.5472 122.925256 
L 360.2256 123.053735 
L 360.672 123.066582 
L 360.8208 123.320874 
L 363.9456 123.423136 
L 364.5408 123.4487 
L 364.6896 123.702203 
L 368.7072 123.803922 
L 370.6416 123.860632 
L 373.4688 123.936926 
L 373.9152 123.946463 
L 374.064 124.185725 
L 376.4448 124.233069 
L 379.272 124.289896 
L 379.4208 124.53783 
L 385.968 124.64128 
L 386.1168 124.879017 
L 410.0736 124.981739 
L 410.2224 125.218748 
L 411.5616 125.218748 
L 411.7104 124.981739 
L 417.3648 124.981739 
L 417.5136 125.218748 
L 418.1088 125.218748 
L 418.2576 124.981739 
L 418.5552 124.981739 
L 418.704 125.218748 
L 418.8528 216.059015 
L 419.448 216.059015 
L 419.5968 124.981739 
L 442.512 124.925709 
L 442.6608 216.033637 
L 451.1424 216.033611 
L 451.2912 124.64128 
L 451.7376 124.64128 
L 451.8864 216.033611 
L 453.0768 216.033751 
L 453.2256 124.64128 
L 455.0112 124.631879 
L 473.1648 124.594258 
L 473.3136 216.015142 
L 480.0096 216.01513 
L 480.1584 124.53783 
L 480.456 124.53783 
L 480.6048 216.015127 
L 487.4496 216.015191 
L 487.5984 124.289896 
L 497.7168 124.289896 
L 497.8656 216.016559 
L 498.4608 216.015191 
L 498.6096 124.289896 
L 499.9488 124.289896 
L 500.0976 216.016559 
L 500.6928 216.015191 
L 500.8416 124.289896 
L 501.4368 124.289896 
L 501.5856 216.016559 
L 502.032 216.015191 
L 502.1808 124.289896 
L 518.4 124.252013 
L 518.4 124.252013 
" style="fill:none;stroke:#000000;stroke-dasharray:6.000000,6.000000;stroke-dashoffset:0.0;"/>
   </g>
   <g id="patch_3">
    <path d="M 72 43.2 
L 518.4 43.2 
" style="fill:none;stroke:#000000;stroke-linecap:square;stroke-linejoin:miter;"/>
   </g>
   <g id="patch_4">
    <path d="M 518.4 388.8 
L 518.4 43.2 
" style="fill:none;stroke:#000000;stroke-linecap:square;stroke-linejoin:miter;"/>
   </g>
   <g id="patch_5">
    <path d="M 72 388.8 
L 518.4 388.8 
" style="fill:none;stroke:#000000;stroke-linecap:square;stroke-linejoin:miter;"/>
   </g>
   <g id="patch_6">
    <path d="M 72 388.8 
L 72 43.2 
" style="fill:none;stroke:#000000;stroke-linecap:square;stroke-linejoin:miter;"/>
   </g>
   <g id="matplotlib.axis_1">
    <g id="xtick_1">
     <g id="line2d_4">
      <path clip-path="url(#pd4ebf758e4)" d="M 72 388.8 
L 72 43.2 
" style="fill:none;stroke:#000000;stroke-dasharray:1.000000,3.000000;stroke-dashoffset:0.0;stroke-width:0.5;"/>
     </g>
     <g id="line2d_5">
      <defs>
       <path d="M 0 0 
L 0 -4 
" id="mf4ba3897fa" style="stroke:#000000;stroke-width:0.5;"/>
      </defs>
      <g>
       <use style="stroke:#000000;stroke-width:0.5;" x="72.0" xlink:href="#mf4ba3897fa" y="388.8"/>
      </g>
     </g>
     <g id="line2d_6">
      <defs>
       <path d="M 0 0 
L 0 4 
" id="m060a2a4556" style="stroke:#000000;stroke-width:0.5;"/>
      </defs>
      <g>
       <use style="stroke:#000000;stroke-width:0.5;" x="72.0" xlink:href="#m060a2a4556" y="43.2"/>
      </g>
     </g>
     <g id="text_1">
      <!-- 0 -->
      <defs>
       <path d="M 31.78125 66.40625 
Q 24.171875 66.40625 20.328125 58.90625 
Q 16.5 51.421875 16.5 36.375 
Q 16.5 21.390625 20.328125 13.890625 
Q 24.171875 6.390625 31.78125 6.390625 
Q 39.453125 6.390625 43.28125 13.890625 
Q 47.125 21.390625 47.125 36.375 
Q 47.125 51.421875 43.28125 58.90625 
Q 39.453125 66.40625 31.78125 66.40625 
M 31.78125 74.21875 
Q 44.046875 74.21875 50.515625 64.515625 
Q 56.984375 54.828125 56.984375 36.375 
Q 56.984375 17.96875 50.515625 8.265625 
Q 44.046875 -1.421875 31.78125 -1.421875 
Q 19.53125 -1.421875 13.0625 8.265625 
Q 6.59375 17.96875 6.59375 36.375 
Q 6.59375 54.828125 13.0625 64.515625 
Q 19.53125 74.21875 31.78125 74.21875 
" id="BitstreamVeraSans-Roman-30"/>
      </defs>
      <g transform="translate(68.1825 401.918125)scale(0.12 -0.12)">
       <use xlink:href="#BitstreamVeraSans-Roman-30"/>
      </g>
     </g>
    </g>
    <g id="xtick_2">
     <g id="line2d_7">
      <path clip-path="url(#pd4ebf758e4)" d="M 146.4 388.8 
L 146.4 43.2 
" style="fill:none;stroke:#000000;stroke-dasharray:1.000000,3.000000;stroke-dashoffset:0.0;stroke-width:0.5;"/>
     </g>
     <g id="line2d_8">
      <g>
       <use style="stroke:#000000;stroke-width:0.5;" x="146.4" xlink:href="#mf4ba3897fa" y="388.8"/>
      </g>
     </g>
     <g id="line2d_9">
      <g>
       <use style="stroke:#000000;stroke-width:0.5;" x="146.4" xlink:href="#m060a2a4556" y="43.2"/>
      </g>
     </g>
     <g id="text_2">
      <!-- 5 -->
      <defs>
       <path d="M 10.796875 72.90625 
L 49.515625 72.90625 
L 49.515625 64.59375 
L 19.828125 64.59375 
L 19.828125 46.734375 
Q 21.96875 47.46875 24.109375 47.828125 
Q 26.265625 48.1875 28.421875 48.1875 
Q 40.625 48.1875 47.75 41.5 
Q 54.890625 34.8125 54.890625 23.390625 
Q 54.890625 11.625 47.5625 5.09375 
Q 40.234375 -1.421875 26.90625 -1.421875 
Q 22.3125 -1.421875 17.546875 -0.640625 
Q 12.796875 0.140625 7.71875 1.703125 
L 7.71875 11.625 
Q 12.109375 9.234375 16.796875 8.0625 
Q 21.484375 6.890625 26.703125 6.890625 
Q 35.15625 6.890625 40.078125 11.328125 
Q 45.015625 15.765625 45.015625 23.390625 
Q 45.015625 31 40.078125 35.4375 
Q 35.15625 39.890625 26.703125 39.890625 
Q 22.75 39.890625 18.8125 39.015625 
Q 14.890625 38.140625 10.796875 36.28125 
z
" id="BitstreamVeraSans-Roman-35"/>
      </defs>
      <g transform="translate(142.5825 401.918125)scale(0.12 -0.12)">
       <use xlink:href="#BitstreamVeraSans-Roman-35"/>
      </g>
     </g>
    </g>
    <g id="xtick_3">
     <g id="line2d_10">
      <path clip-path="url(#pd4ebf758e4)" d="M 220.8 388.8 
L 220.8 43.2 
" style="fill:none;stroke:#000000;stroke-dasharray:1.000000,3.000000;stroke-dashoffset:0.0;stroke-width:0.5;"/>
     </g>
     <g id="line2d_11">
      <g>
       <use style="stroke:#000000;stroke-width:0.5;" x="220.8" xlink:href="#mf4ba3897fa" y="388.8"/>
      </g>
     </g>
     <g id="line2d_12">
      <g>
       <use style="stroke:#000000;stroke-width:0.5;" x="220.8" xlink:href="#m060a2a4556" y="43.2"/>
      </g>
     </g>
     <g id="text_3">
      <!-- 10 -->
      <defs>
       <path d="M 12.40625 8.296875 
L 28.515625 8.296875 
L 28.515625 63.921875 
L 10.984375 60.40625 
L 10.984375 69.390625 
L 28.421875 72.90625 
L 38.28125 72.90625 
L 38.28125 8.296875 
L 54.390625 8.296875 
L 54.390625 0 
L 12.40625 0 
z
" id="BitstreamVeraSans-Roman-31"/>
      </defs>
      <g transform="translate(213.165 401.918125)scale(0.12 -0.12)">
       <use xlink:href="#BitstreamVeraSans-Roman-31"/>
       <use x="63.623046875" xlink:href="#BitstreamVeraSans-Roman-30"/>
      </g>
     </g>
    </g>
    <g id="xtick_4">
     <g id="line2d_13">
      <path clip-path="url(#pd4ebf758e4)" d="M 295.2 388.8 
L 295.2 43.2 
" style="fill:none;stroke:#000000;stroke-dasharray:1.000000,3.000000;stroke-dashoffset:0.0;stroke-width:0.5;"/>
     </g>
     <g id="line2d_14">
      <g>
       <use style="stroke:#000000;stroke-width:0.5;" x="295.2" xlink:href="#mf4ba3897fa" y="388.8"/>
      </g>
     </g>
     <g id="line2d_15">
      <g>
       <use style="stroke:#000000;stroke-width:0.5;" x="295.2" xlink:href="#m060a2a4556" y="43.2"/>
      </g>
     </g>
     <g id="text_4">
      <!-- 15 -->
      <g transform="translate(287.565 401.918125)scale(0.12 -0.12)">
       <use xlink:href="#BitstreamVeraSans-Roman-31"/>
       <use x="63.623046875" xlink:href="#BitstreamVeraSans-Roman-35"/>
      </g>
     </g>
    </g>
    <g id="xtick_5">
     <g id="line2d_16">
      <path clip-path="url(#pd4ebf758e4)" d="M 369.6 388.8 
L 369.6 43.2 
" style="fill:none;stroke:#000000;stroke-dasharray:1.000000,3.000000;stroke-dashoffset:0.0;stroke-width:0.5;"/>
     </g>
     <g id="line2d_17">
      <g>
       <use style="stroke:#000000;stroke-width:0.5;" x="369.6" xlink:href="#mf4ba3897fa" y="388.8"/>
      </g>
     </g>
     <g id="line2d_18">
      <g>
       <use style="stroke:#000000;stroke-width:0.5;" x="369.6" xlink:href="#m060a2a4556" y="43.2"/>
      </g>
     </g>
     <g id="text_5">
      <!-- 20 -->
      <defs>
       <path d="M 19.1875 8.296875 
L 53.609375 8.296875 
L 53.609375 0 
L 7.328125 0 
L 7.328125 8.296875 
Q 12.9375 14.109375 22.625 23.890625 
Q 32.328125 33.6875 34.8125 36.53125 
Q 39.546875 41.84375 41.421875 45.53125 
Q 43.3125 49.21875 43.3125 52.78125 
Q 43.3125 58.59375 39.234375 62.25 
Q 35.15625 65.921875 28.609375 65.921875 
Q 23.96875 65.921875 18.8125 64.3125 
Q 13.671875 62.703125 7.8125 59.421875 
L 7.8125 69.390625 
Q 13.765625 71.78125 18.9375 73 
Q 24.125 74.21875 28.421875 74.21875 
Q 39.75 74.21875 46.484375 68.546875 
Q 53.21875 62.890625 53.21875 53.421875 
Q 53.21875 48.921875 51.53125 44.890625 
Q 49.859375 40.875 45.40625 35.40625 
Q 44.1875 33.984375 37.640625 27.21875 
Q 31.109375 20.453125 19.1875 8.296875 
" id="BitstreamVeraSans-Roman-32"/>
      </defs>
      <g transform="translate(361.965 401.918125)scale(0.12 -0.12)">
       <use xlink:href="#BitstreamVeraSans-Roman-32"/>
       <use x="63.623046875" xlink:href="#BitstreamVeraSans-Roman-30"/>
      </g>
     </g>
    </g>
    <g id="xtick_6">
     <g id="line2d_19">
      <path clip-path="url(#pd4ebf758e4)" d="M 444 388.8 
L 444 43.2 
" style="fill:none;stroke:#000000;stroke-dasharray:1.000000,3.000000;stroke-dashoffset:0.0;stroke-width:0.5;"/>
     </g>
     <g id="line2d_20">
      <g>
       <use style="stroke:#000000;stroke-width:0.5;" x="444.0" xlink:href="#mf4ba3897fa" y="388.8"/>
      </g>
     </g>
     <g id="line2d_21">
      <g>
       <use style="stroke:#000000;stroke-width:0.5;" x="444.0" xlink:href="#m060a2a4556" y="43.2"/>
      </g>
     </g>
     <g id="text_6">
      <!-- 25 -->
      <g transform="translate(436.365 401.918125)scale(0.12 -0.12)">
       <use xlink:href="#BitstreamVeraSans-Roman-32"/>
       <use x="63.623046875" xlink:href="#BitstreamVeraSans-Roman-35"/>
      </g>
     </g>
    </g>
    <g id="xtick_7">
     <g id="line2d_22">
      <path clip-path="url(#pd4ebf758e4)" d="M 518.4 388.8 
L 518.4 43.2 
" style="fill:none;stroke:#000000;stroke-dasharray:1.000000,3.000000;stroke-dashoffset:0.0;stroke-width:0.5;"/>
     </g>
     <g id="line2d_23">
      <g>
       <use style="stroke:#000000;stroke-width:0.5;" x="518.4" xlink:href="#mf4ba3897fa" y="388.8"/>
      </g>
     </g>
     <g id="line2d_24">
      <g>
       <use style="stroke:#000000;stroke-width:0.5;" x="518.4" xlink:href="#m060a2a4556" y="43.2"/>
      </g>
     </g>
     <g id="text_7">
      <!-- 30 -->
      <defs>
       <path d="M 40.578125 39.3125 
Q 47.65625 37.796875 51.625 33 
Q 55.609375 28.21875 55.609375 21.1875 
Q 55.609375 10.40625 48.1875 4.484375 
Q 40.765625 -1.421875 27.09375 -1.421875 
Q 22.515625 -1.421875 17.65625 -0.515625 
Q 12.796875 0.390625 7.625 2.203125 
L 7.625 11.71875 
Q 11.71875 9.328125 16.59375 8.109375 
Q 21.484375 6.890625 26.8125 6.890625 
Q 36.078125 6.890625 40.9375 10.546875 
Q 45.796875 14.203125 45.796875 21.1875 
Q 45.796875 27.640625 41.28125 31.265625 
Q 36.765625 34.90625 28.71875 34.90625 
L 20.21875 34.90625 
L 20.21875 43.015625 
L 29.109375 43.015625 
Q 36.375 43.015625 40.234375 45.921875 
Q 44.09375 48.828125 44.09375 54.296875 
Q 44.09375 59.90625 40.109375 62.90625 
Q 36.140625 65.921875 28.71875 65.921875 
Q 24.65625 65.921875 20.015625 65.03125 
Q 15.375 64.15625 9.8125 62.3125 
L 9.8125 71.09375 
Q 15.4375 72.65625 20.34375 73.4375 
Q 25.25 74.21875 29.59375 74.21875 
Q 40.828125 74.21875 47.359375 69.109375 
Q 53.90625 64.015625 53.90625 55.328125 
Q 53.90625 49.265625 50.4375 45.09375 
Q 46.96875 40.921875 40.578125 39.3125 
" id="BitstreamVeraSans-Roman-33"/>
      </defs>
      <g transform="translate(510.765 401.918125)scale(0.12 -0.12)">
       <use xlink:href="#BitstreamVeraSans-Roman-33"/>
       <use x="63.623046875" xlink:href="#BitstreamVeraSans-Roman-30"/>
      </g>
     </g>
    </g>
    <g id="text_8">
     <!-- Time [s] -->
     <defs>
      <path id="BitstreamVeraSans-Roman-20"/>
      <path d="M 8.59375 75.984375 
L 29.296875 75.984375 
L 29.296875 69 
L 17.578125 69 
L 17.578125 -6.203125 
L 29.296875 -6.203125 
L 29.296875 -13.1875 
L 8.59375 -13.1875 
z
" id="BitstreamVeraSans-Roman-5b"/>
      <path d="M 30.421875 75.984375 
L 30.421875 -13.1875 
L 9.71875 -13.1875 
L 9.71875 -6.203125 
L 21.390625 -6.203125 
L 21.390625 69 
L 9.71875 69 
L 9.71875 75.984375 
z
" id="BitstreamVeraSans-Roman-5d"/>
      <path d="M 52 44.1875 
Q 55.375 50.25 60.0625 53.125 
Q 64.75 56 71.09375 56 
Q 79.640625 56 84.28125 50.015625 
Q 88.921875 44.046875 88.921875 33.015625 
L 88.921875 0 
L 79.890625 0 
L 79.890625 32.71875 
Q 79.890625 40.578125 77.09375 44.375 
Q 74.3125 48.1875 68.609375 48.1875 
Q 61.625 48.1875 57.5625 43.546875 
Q 53.515625 38.921875 53.515625 30.90625 
L 53.515625 0 
L 44.484375 0 
L 44.484375 32.71875 
Q 44.484375 40.625 41.703125 44.40625 
Q 38.921875 48.1875 33.109375 48.1875 
Q 26.21875 48.1875 22.15625 43.53125 
Q 18.109375 38.875 18.109375 30.90625 
L 18.109375 0 
L 9.078125 0 
L 9.078125 54.6875 
L 18.109375 54.6875 
L 18.109375 46.1875 
Q 21.1875 51.21875 25.484375 53.609375 
Q 29.78125 56 35.6875 56 
Q 41.65625 56 45.828125 52.96875 
Q 50 49.953125 52 44.1875 
" id="BitstreamVeraSans-Roman-6d"/>
      <path d="M 9.421875 54.6875 
L 18.40625 54.6875 
L 18.40625 0 
L 9.421875 0 
z
M 9.421875 75.984375 
L 18.40625 75.984375 
L 18.40625 64.59375 
L 9.421875 64.59375 
z
" id="BitstreamVeraSans-Roman-69"/>
      <path d="M 56.203125 29.59375 
L 56.203125 25.203125 
L 14.890625 25.203125 
Q 15.484375 15.921875 20.484375 11.0625 
Q 25.484375 6.203125 34.421875 6.203125 
Q 39.59375 6.203125 44.453125 7.46875 
Q 49.3125 8.734375 54.109375 11.28125 
L 54.109375 2.78125 
Q 49.265625 0.734375 44.1875 -0.34375 
Q 39.109375 -1.421875 33.890625 -1.421875 
Q 20.796875 -1.421875 13.15625 6.1875 
Q 5.515625 13.8125 5.515625 26.8125 
Q 5.515625 40.234375 12.765625 48.109375 
Q 20.015625 56 32.328125 56 
Q 43.359375 56 49.78125 48.890625 
Q 56.203125 41.796875 56.203125 29.59375 
M 47.21875 32.234375 
Q 47.125 39.59375 43.09375 43.984375 
Q 39.0625 48.390625 32.421875 48.390625 
Q 24.90625 48.390625 20.390625 44.140625 
Q 15.875 39.890625 15.1875 32.171875 
z
" id="BitstreamVeraSans-Roman-65"/>
      <path d="M -0.296875 72.90625 
L 61.375 72.90625 
L 61.375 64.59375 
L 35.5 64.59375 
L 35.5 0 
L 25.59375 0 
L 25.59375 64.59375 
L -0.296875 64.59375 
z
" id="BitstreamVeraSans-Roman-54"/>
      <path d="M 44.28125 53.078125 
L 44.28125 44.578125 
Q 40.484375 46.53125 36.375 47.5 
Q 32.28125 48.484375 27.875 48.484375 
Q 21.1875 48.484375 17.84375 46.4375 
Q 14.5 44.390625 14.5 40.28125 
Q 14.5 37.15625 16.890625 35.375 
Q 19.28125 33.59375 26.515625 31.984375 
L 29.59375 31.296875 
Q 39.15625 29.25 43.1875 25.515625 
Q 47.21875 21.78125 47.21875 15.09375 
Q 47.21875 7.46875 41.1875 3.015625 
Q 35.15625 -1.421875 24.609375 -1.421875 
Q 20.21875 -1.421875 15.453125 -0.5625 
Q 10.6875 0.296875 5.421875 2 
L 5.421875 11.28125 
Q 10.40625 8.6875 15.234375 7.390625 
Q 20.0625 6.109375 24.8125 6.109375 
Q 31.15625 6.109375 34.5625 8.28125 
Q 37.984375 10.453125 37.984375 14.40625 
Q 37.984375 18.0625 35.515625 20.015625 
Q 33.0625 21.96875 24.703125 23.78125 
L 21.578125 24.515625 
Q 13.234375 26.265625 9.515625 29.90625 
Q 5.8125 33.546875 5.8125 39.890625 
Q 5.8125 47.609375 11.28125 51.796875 
Q 16.75 56 26.8125 56 
Q 31.78125 56 36.171875 55.265625 
Q 40.578125 54.546875 44.28125 53.078125 
" id="BitstreamVeraSans-Roman-73"/>
     </defs>
     <g transform="translate(270.620625 418.531875)scale(0.12 -0.12)">
      <use xlink:href="#BitstreamVeraSans-Roman-54"/>
      <use x="61.037109375" xlink:href="#BitstreamVeraSans-Roman-69"/>
      <use x="88.8203125" xlink:href="#BitstreamVeraSans-Roman-6d"/>
      <use x="186.232421875" xlink:href="#BitstreamVeraSans-Roman-65"/>
      <use x="247.755859375" xlink:href="#BitstreamVeraSans-Roman-20"/>
      <use x="279.54296875" xlink:href="#BitstreamVeraSans-Roman-5b"/>
      <use x="318.556640625" xlink:href="#BitstreamVeraSans-Roman-73"/>
      <use x="370.65625" xlink:href="#BitstreamVeraSans-Roman-5d"/>
     </g>
    </g>
   </g>
   <g id="matplotlib.axis_2">
    <g id="ytick_1">
     <g id="line2d_25">
      <path clip-path="url(#pd4ebf758e4)" d="M 72 388.8 
L 518.4 388.8 
" style="fill:none;stroke:#000000;stroke-dasharray:1.000000,3.000000;stroke-dashoffset:0.0;stroke-width:0.5;"/>
     </g>
     <g id="line2d_26">
      <defs>
       <path d="M 0 0 
L 4 0 
" id="m596b04c2fa" style="stroke:#000000;stroke-width:0.5;"/>
      </defs>
      <g>
       <use style="stroke:#000000;stroke-width:0.5;" x="72.0" xlink:href="#m596b04c2fa" y="388.8"/>
      </g>
     </g>
     <g id="line2d_27">
      <defs>
       <path d="M 0 0 
L -4 0 
" id="mefd814d6fd" style="stroke:#000000;stroke-width:0.5;"/>
      </defs>
      <g>
       <use style="stroke:#000000;stroke-width:0.5;" x="518.4" xlink:href="#mefd814d6fd" y="388.8"/>
      </g>
     </g>
     <g id="text_9">
      <!-- 1.5 -->
      <defs>
       <path d="M 10.59375 35.5 
L 73.1875 35.5 
L 73.1875 27.203125 
L 10.59375 27.203125 
z
" id="BitstreamVeraSans-Roman-2212"/>
       <path d="M 10.6875 12.40625 
L 21 12.40625 
L 21 0 
L 10.6875 0 
z
" id="BitstreamVeraSans-Roman-2e"/>
      </defs>
      <g transform="translate(38.860625 392.11125)scale(0.12 -0.12)">
       <use xlink:href="#BitstreamVeraSans-Roman-2212"/>
       <use x="83.7890625" xlink:href="#BitstreamVeraSans-Roman-31"/>
       <use x="147.412109375" xlink:href="#BitstreamVeraSans-Roman-2e"/>
       <use x="179.19921875" xlink:href="#BitstreamVeraSans-Roman-35"/>
      </g>
     </g>
    </g>
    <g id="ytick_2">
     <g id="line2d_28">
      <path clip-path="url(#pd4ebf758e4)" d="M 72 331.2 
L 518.4 331.2 
" style="fill:none;stroke:#000000;stroke-dasharray:1.000000,3.000000;stroke-dashoffset:0.0;stroke-width:0.5;"/>
     </g>
     <g id="line2d_29">
      <g>
       <use style="stroke:#000000;stroke-width:0.5;" x="72.0" xlink:href="#m596b04c2fa" y="331.2"/>
      </g>
     </g>
     <g id="line2d_30">
      <g>
       <use style="stroke:#000000;stroke-width:0.5;" x="518.4" xlink:href="#mefd814d6fd" y="331.2"/>
      </g>
     </g>
     <g id="text_10">
      <!-- 1.0 -->
      <g transform="translate(38.860625 334.51125)scale(0.12 -0.12)">
       <use xlink:href="#BitstreamVeraSans-Roman-2212"/>
       <use x="83.7890625" xlink:href="#BitstreamVeraSans-Roman-31"/>
       <use x="147.412109375" xlink:href="#BitstreamVeraSans-Roman-2e"/>
       <use x="179.19921875" xlink:href="#BitstreamVeraSans-Roman-30"/>
      </g>
     </g>
    </g>
    <g id="ytick_3">
     <g id="line2d_31">
      <path clip-path="url(#pd4ebf758e4)" d="M 72 273.6 
L 518.4 273.6 
" style="fill:none;stroke:#000000;stroke-dasharray:1.000000,3.000000;stroke-dashoffset:0.0;stroke-width:0.5;"/>
     </g>
     <g id="line2d_32">
      <g>
       <use style="stroke:#000000;stroke-width:0.5;" x="72.0" xlink:href="#m596b04c2fa" y="273.6"/>
      </g>
     </g>
     <g id="line2d_33">
      <g>
       <use style="stroke:#000000;stroke-width:0.5;" x="518.4" xlink:href="#mefd814d6fd" y="273.6"/>
      </g>
     </g>
     <g id="text_11">
      <!-- 0.5 -->
      <g transform="translate(38.860625 276.91125)scale(0.12 -0.12)">
       <use xlink:href="#BitstreamVeraSans-Roman-2212"/>
       <use x="83.7890625" xlink:href="#BitstreamVeraSans-Roman-30"/>
       <use x="147.412109375" xlink:href="#BitstreamVeraSans-Roman-2e"/>
       <use x="179.19921875" xlink:href="#BitstreamVeraSans-Roman-35"/>
      </g>
     </g>
    </g>
    <g id="ytick_4">
     <g id="line2d_34">
      <path clip-path="url(#pd4ebf758e4)" d="M 72 216 
L 518.4 216 
" style="fill:none;stroke:#000000;stroke-dasharray:1.000000,3.000000;stroke-dashoffset:0.0;stroke-width:0.5;"/>
     </g>
     <g id="line2d_35">
      <g>
       <use style="stroke:#000000;stroke-width:0.5;" x="72.0" xlink:href="#m596b04c2fa" y="216.0"/>
      </g>
     </g>
     <g id="line2d_36">
      <g>
       <use style="stroke:#000000;stroke-width:0.5;" x="518.4" xlink:href="#mefd814d6fd" y="216.0"/>
      </g>
     </g>
     <g id="text_12">
      <!-- 0.0 -->
      <g transform="translate(48.91625 219.31125)scale(0.12 -0.12)">
       <use xlink:href="#BitstreamVeraSans-Roman-30"/>
       <use x="63.623046875" xlink:href="#BitstreamVeraSans-Roman-2e"/>
       <use x="95.41015625" xlink:href="#BitstreamVeraSans-Roman-30"/>
      </g>
     </g>
    </g>
    <g id="ytick_5">
     <g id="line2d_37">
      <path clip-path="url(#pd4ebf758e4)" d="M 72 158.4 
L 518.4 158.4 
" style="fill:none;stroke:#000000;stroke-dasharray:1.000000,3.000000;stroke-dashoffset:0.0;stroke-width:0.5;"/>
     </g>
     <g id="line2d_38">
      <g>
       <use style="stroke:#000000;stroke-width:0.5;" x="72.0" xlink:href="#m596b04c2fa" y="158.4"/>
      </g>
     </g>
     <g id="line2d_39">
      <g>
       <use style="stroke:#000000;stroke-width:0.5;" x="518.4" xlink:href="#mefd814d6fd" y="158.4"/>
      </g>
     </g>
     <g id="text_13">
      <!-- 0.5 -->
      <g transform="translate(48.91625 161.71125)scale(0.12 -0.12)">
       <use xlink:href="#BitstreamVeraSans-Roman-30"/>
       <use x="63.623046875" xlink:href="#BitstreamVeraSans-Roman-2e"/>
       <use x="95.41015625" xlink:href="#BitstreamVeraSans-Roman-35"/>
      </g>
     </g>
    </g>
    <g id="ytick_6">
     <g id="line2d_40">
      <path clip-path="url(#pd4ebf758e4)" d="M 72 100.8 
L 518.4 100.8 
" style="fill:none;stroke:#000000;stroke-dasharray:1.000000,3.000000;stroke-dashoffset:0.0;stroke-width:0.5;"/>
     </g>
     <g id="line2d_41">
      <g>
       <use style="stroke:#000000;stroke-width:0.5;" x="72.0" xlink:href="#m596b04c2fa" y="100.8"/>
      </g>
     </g>
     <g id="line2d_42">
      <g>
       <use style="stroke:#000000;stroke-width:0.5;" x="518.4" xlink:href="#mefd814d6fd" y="100.8"/>
      </g>
     </g>
     <g id="text_14">
      <!-- 1.0 -->
      <g transform="translate(48.91625 104.11125)scale(0.12 -0.12)">
       <use xlink:href="#BitstreamVeraSans-Roman-31"/>
       <use x="63.623046875" xlink:href="#BitstreamVeraSans-Roman-2e"/>
       <use x="95.41015625" xlink:href="#BitstreamVeraSans-Roman-30"/>
      </g>
     </g>
    </g>
    <g id="ytick_7">
     <g id="line2d_43">
      <path clip-path="url(#pd4ebf758e4)" d="M 72 43.2 
L 518.4 43.2 
" style="fill:none;stroke:#000000;stroke-dasharray:1.000000,3.000000;stroke-dashoffset:0.0;stroke-width:0.5;"/>
     </g>
     <g id="line2d_44">
      <g>
       <use style="stroke:#000000;stroke-width:0.5;" x="72.0" xlink:href="#m596b04c2fa" y="43.2"/>
      </g>
     </g>
     <g id="line2d_45">
      <g>
       <use style="stroke:#000000;stroke-width:0.5;" x="518.4" xlink:href="#mefd814d6fd" y="43.2"/>
      </g>
     </g>
     <g id="text_15">
      <!-- 1.5 -->
      <g transform="translate(48.91625 46.51125)scale(0.12 -0.12)">
       <use xlink:href="#BitstreamVeraSans-Roman-31"/>
       <use x="63.623046875" xlink:href="#BitstreamVeraSans-Roman-2e"/>
       <use x="95.41015625" xlink:href="#BitstreamVeraSans-Roman-35"/>
      </g>
     </g>
    </g>
    <g id="text_16">
     <!-- Acceleration [m/s^2] -->
     <defs>
      <path d="M 46.6875 72.90625 
L 73.1875 45.703125 
L 63.375 45.703125 
L 41.890625 64.984375 
L 20.40625 45.703125 
L 10.59375 45.703125 
L 37.109375 72.90625 
z
" id="BitstreamVeraSans-Roman-5e"/>
      <path d="M 54.890625 33.015625 
L 54.890625 0 
L 45.90625 0 
L 45.90625 32.71875 
Q 45.90625 40.484375 42.875 44.328125 
Q 39.84375 48.1875 33.796875 48.1875 
Q 26.515625 48.1875 22.3125 43.546875 
Q 18.109375 38.921875 18.109375 30.90625 
L 18.109375 0 
L 9.078125 0 
L 9.078125 54.6875 
L 18.109375 54.6875 
L 18.109375 46.1875 
Q 21.34375 51.125 25.703125 53.5625 
Q 30.078125 56 35.796875 56 
Q 45.21875 56 50.046875 50.171875 
Q 54.890625 44.34375 54.890625 33.015625 
" id="BitstreamVeraSans-Roman-6e"/>
      <path d="M 41.109375 46.296875 
Q 39.59375 47.171875 37.8125 47.578125 
Q 36.03125 48 33.890625 48 
Q 26.265625 48 22.1875 43.046875 
Q 18.109375 38.09375 18.109375 28.8125 
L 18.109375 0 
L 9.078125 0 
L 9.078125 54.6875 
L 18.109375 54.6875 
L 18.109375 46.1875 
Q 20.953125 51.171875 25.484375 53.578125 
Q 30.03125 56 36.53125 56 
Q 37.453125 56 38.578125 55.875 
Q 39.703125 55.765625 41.0625 55.515625 
z
" id="BitstreamVeraSans-Roman-72"/>
      <path d="M 30.609375 48.390625 
Q 23.390625 48.390625 19.1875 42.75 
Q 14.984375 37.109375 14.984375 27.296875 
Q 14.984375 17.484375 19.15625 11.84375 
Q 23.34375 6.203125 30.609375 6.203125 
Q 37.796875 6.203125 41.984375 11.859375 
Q 46.1875 17.53125 46.1875 27.296875 
Q 46.1875 37.015625 41.984375 42.703125 
Q 37.796875 48.390625 30.609375 48.390625 
M 30.609375 56 
Q 42.328125 56 49.015625 48.375 
Q 55.71875 40.765625 55.71875 27.296875 
Q 55.71875 13.875 49.015625 6.21875 
Q 42.328125 -1.421875 30.609375 -1.421875 
Q 18.84375 -1.421875 12.171875 6.21875 
Q 5.515625 13.875 5.515625 27.296875 
Q 5.515625 40.765625 12.171875 48.375 
Q 18.84375 56 30.609375 56 
" id="BitstreamVeraSans-Roman-6f"/>
      <path d="M 9.421875 75.984375 
L 18.40625 75.984375 
L 18.40625 0 
L 9.421875 0 
z
" id="BitstreamVeraSans-Roman-6c"/>
      <path d="M 34.1875 63.1875 
L 20.796875 26.90625 
L 47.609375 26.90625 
z
M 28.609375 72.90625 
L 39.796875 72.90625 
L 67.578125 0 
L 57.328125 0 
L 50.6875 18.703125 
L 17.828125 18.703125 
L 11.1875 0 
L 0.78125 0 
z
" id="BitstreamVeraSans-Roman-41"/>
      <path d="M 25.390625 72.90625 
L 33.6875 72.90625 
L 8.296875 -9.28125 
L 0 -9.28125 
z
" id="BitstreamVeraSans-Roman-2f"/>
      <path d="M 18.3125 70.21875 
L 18.3125 54.6875 
L 36.8125 54.6875 
L 36.8125 47.703125 
L 18.3125 47.703125 
L 18.3125 18.015625 
Q 18.3125 11.328125 20.140625 9.421875 
Q 21.96875 7.515625 27.59375 7.515625 
L 36.8125 7.515625 
L 36.8125 0 
L 27.59375 0 
Q 17.1875 0 13.234375 3.875 
Q 9.28125 7.765625 9.28125 18.015625 
L 9.28125 47.703125 
L 2.6875 47.703125 
L 2.6875 54.6875 
L 9.28125 54.6875 
L 9.28125 70.21875 
z
" id="BitstreamVeraSans-Roman-74"/>
      <path d="M 34.28125 27.484375 
Q 23.390625 27.484375 19.1875 25 
Q 14.984375 22.515625 14.984375 16.5 
Q 14.984375 11.71875 18.140625 8.90625 
Q 21.296875 6.109375 26.703125 6.109375 
Q 34.1875 6.109375 38.703125 11.40625 
Q 43.21875 16.703125 43.21875 25.484375 
L 43.21875 27.484375 
z
M 52.203125 31.203125 
L 52.203125 0 
L 43.21875 0 
L 43.21875 8.296875 
Q 40.140625 3.328125 35.546875 0.953125 
Q 30.953125 -1.421875 24.3125 -1.421875 
Q 15.921875 -1.421875 10.953125 3.296875 
Q 6 8.015625 6 15.921875 
Q 6 25.140625 12.171875 29.828125 
Q 18.359375 34.515625 30.609375 34.515625 
L 43.21875 34.515625 
L 43.21875 35.40625 
Q 43.21875 41.609375 39.140625 45 
Q 35.0625 48.390625 27.6875 48.390625 
Q 23 48.390625 18.546875 47.265625 
Q 14.109375 46.140625 10.015625 43.890625 
L 10.015625 52.203125 
Q 14.9375 54.109375 19.578125 55.046875 
Q 24.21875 56 28.609375 56 
Q 40.484375 56 46.34375 49.84375 
Q 52.203125 43.703125 52.203125 31.203125 
" id="BitstreamVeraSans-Roman-61"/>
      <path d="M 48.78125 52.59375 
L 48.78125 44.1875 
Q 44.96875 46.296875 41.140625 47.34375 
Q 37.3125 48.390625 33.40625 48.390625 
Q 24.65625 48.390625 19.8125 42.84375 
Q 14.984375 37.3125 14.984375 27.296875 
Q 14.984375 17.28125 19.8125 11.734375 
Q 24.65625 6.203125 33.40625 6.203125 
Q 37.3125 6.203125 41.140625 7.25 
Q 44.96875 8.296875 48.78125 10.40625 
L 48.78125 2.09375 
Q 45.015625 0.34375 40.984375 -0.53125 
Q 36.96875 -1.421875 32.421875 -1.421875 
Q 20.0625 -1.421875 12.78125 6.34375 
Q 5.515625 14.109375 5.515625 27.296875 
Q 5.515625 40.671875 12.859375 48.328125 
Q 20.21875 56 33.015625 56 
Q 37.15625 56 41.109375 55.140625 
Q 45.0625 54.296875 48.78125 52.59375 
" id="BitstreamVeraSans-Roman-63"/>
     </defs>
     <g transform="translate(31.365 279.81375)rotate(-90.0)scale(0.12 -0.12)">
      <use xlink:href="#BitstreamVeraSans-Roman-41"/>
      <use x="68.392578125" xlink:href="#BitstreamVeraSans-Roman-63"/>
      <use x="123.373046875" xlink:href="#BitstreamVeraSans-Roman-63"/>
      <use x="178.353515625" xlink:href="#BitstreamVeraSans-Roman-65"/>
      <use x="239.876953125" xlink:href="#BitstreamVeraSans-Roman-6c"/>
      <use x="267.66015625" xlink:href="#BitstreamVeraSans-Roman-65"/>
      <use x="329.18359375" xlink:href="#BitstreamVeraSans-Roman-72"/>
      <use x="370.296875" xlink:href="#BitstreamVeraSans-Roman-61"/>
      <use x="431.576171875" xlink:href="#BitstreamVeraSans-Roman-74"/>
      <use x="470.78515625" xlink:href="#BitstreamVeraSans-Roman-69"/>
      <use x="498.568359375" xlink:href="#BitstreamVeraSans-Roman-6f"/>
      <use x="559.75" xlink:href="#BitstreamVeraSans-Roman-6e"/>
      <use x="623.12890625" xlink:href="#BitstreamVeraSans-Roman-20"/>
      <use x="654.916015625" xlink:href="#BitstreamVeraSans-Roman-5b"/>
      <use x="693.9296875" xlink:href="#BitstreamVeraSans-Roman-6d"/>
      <use x="791.341796875" xlink:href="#BitstreamVeraSans-Roman-2f"/>
      <use x="825.033203125" xlink:href="#BitstreamVeraSans-Roman-73"/>
      <use x="877.1328125" xlink:href="#BitstreamVeraSans-Roman-5e"/>
      <use x="960.921875" xlink:href="#BitstreamVeraSans-Roman-32"/>
      <use x="1024.54492188" xlink:href="#BitstreamVeraSans-Roman-5d"/>
     </g>
    </g>
   </g>
   <g id="legend_1">
    <g id="patch_7">
     <path d="M 421.839 118.1295 
L 511.2 118.1295 
L 511.2 50.4 
L 421.839 50.4 
z
" style="fill:#ffffff;stroke:#000000;stroke-linejoin:miter;"/>
    </g>
    <g id="line2d_46">
     <path d="M 431.919 62.06175 
L 452.079 62.06175 
" style="fill:none;stroke:#008000;stroke-linecap:square;"/>
    </g>
    <g id="line2d_47"/>
    <g id="text_17">
     <!-- accel -->
     <g transform="translate(467.919 67.10175)scale(0.144 -0.144)">
      <use xlink:href="#BitstreamVeraSans-Roman-61"/>
      <use x="61.279296875" xlink:href="#BitstreamVeraSans-Roman-63"/>
      <use x="116.259765625" xlink:href="#BitstreamVeraSans-Roman-63"/>
      <use x="171.240234375" xlink:href="#BitstreamVeraSans-Roman-65"/>
      <use x="232.763671875" xlink:href="#BitstreamVeraSans-Roman-6c"/>
     </g>
    </g>
    <g id="line2d_48">
     <path d="M 431.919 83.19825 
L 452.079 83.19825 
" style="fill:none;stroke:#000000;stroke-dasharray:6.000000,6.000000;stroke-dashoffset:0.0;"/>
    </g>
    <g id="line2d_49"/>
    <g id="text_18">
     <!-- max -->
     <defs>
      <path d="M 54.890625 54.6875 
L 35.109375 28.078125 
L 55.90625 0 
L 45.3125 0 
L 29.390625 21.484375 
L 13.484375 0 
L 2.875 0 
L 24.125 28.609375 
L 4.6875 54.6875 
L 15.28125 54.6875 
L 29.78125 35.203125 
L 44.28125 54.6875 
z
" id="BitstreamVeraSans-Roman-78"/>
     </defs>
     <g transform="translate(467.919 88.23825)scale(0.144 -0.144)">
      <use xlink:href="#BitstreamVeraSans-Roman-6d"/>
      <use x="97.412109375" xlink:href="#BitstreamVeraSans-Roman-61"/>
      <use x="158.69140625" xlink:href="#BitstreamVeraSans-Roman-78"/>
     </g>
    </g>
    <g id="line2d_50">
     <path d="M 431.919 104.33475 
L 452.079 104.33475 
" style="fill:none;stroke:#000000;stroke-dasharray:6.000000,6.000000;stroke-dashoffset:0.0;"/>
    </g>
    <g id="line2d_51"/>
    <g id="text_19">
     <!-- min -->
     <g transform="translate(467.919 109.37475)scale(0.144 -0.144)">
      <use xlink:href="#BitstreamVeraSans-Roman-6d"/>
      <use x="97.412109375" xlink:href="#BitstreamVeraSans-Roman-69"/>
      <use x="125.1953125" xlink:href="#BitstreamVeraSans-Roman-6e"/>
     </g>
    </g>
   </g>
  </g>
 </g>
 <defs>
  <clipPath id="pd4ebf758e4">
   <rect height="345.6" width="446.4" x="72.0" y="43.2"/>
  </clipPath>
 </defs>
</svg>
