<?xml version="1.0" encoding="utf-8" standalone="no"?>
<!DOCTYPE svg PUBLIC "-//W3C//DTD SVG 1.1//EN"
  "http://www.w3.org/Graphics/SVG/1.1/DTD/svg11.dtd">
<!-- Created with matplotlib (http://matplotlib.org/) -->
<svg height="432pt" version="1.1" viewBox="0 0 576 432" width="576pt" xmlns="http://www.w3.org/2000/svg" xmlns:xlink="http://www.w3.org/1999/xlink">
 <defs>
  <style type="text/css">
*{stroke-linecap:butt;stroke-linejoin:round;stroke-miterlimit:100000;}
  </style>
 </defs>
 <g id="figure_1">
  <g id="patch_1">
   <path d="M 0 432 
L 576 432 
L 576 0 
L 0 0 
z
" style="fill:#ffffff;"/>
  </g>
  <g id="axes_1">
   <g id="patch_2">
    <path d="M 72 388.8 
L 518.4 388.8 
L 518.4 43.2 
L 72 43.2 
z
" style="fill:#ffffff;"/>
   </g>
   <g id="line2d_1">
    <path clip-path="url(#p940a879ab5)" d="M 72.1488 388.8 
L 93.2784 388.8 
L 93.4272 383.295657 
L 93.576 383.295657 
L 93.7248 377.809601 
L 93.8736 377.809601 
L 94.0224 373.009303 
L 94.1712 373.009303 
L 94.4688 364.780219 
L 94.6176 364.780219 
L 94.7664 361.351434 
L 95.064 361.351434 
L 95.2128 357.236892 
L 95.3616 357.236892 
L 95.5104 353.808107 
L 95.6592 353.808107 
L 95.808 350.379322 
L 95.9568 350.379322 
L 96.1056 349.693565 
L 96.2544 349.693565 
L 96.4032 348.322052 
L 96.552 348.322052 
L 96.7008 347.636295 
L 96.8496 347.636295 
L 96.9984 346.950538 
L 97.1472 346.950538 
L 97.296 346.264781 
L 97.4448 346.264781 
L 97.5936 344.893267 
L 97.7424 344.893267 
L 97.8912 344.20751 
L 98.04 344.20751 
L 98.1888 343.521753 
L 98.3376 343.521753 
L 98.4864 342.835996 
L 98.6352 342.835996 
L 98.784 341.464482 
L 98.9328 341.464482 
L 99.0816 340.778725 
L 99.2304 340.778725 
L 99.3792 340.092968 
L 99.528 340.092968 
L 99.6768 339.407211 
L 99.8256 339.407211 
L 99.9744 338.721454 
L 100.1232 338.721454 
L 100.272 338.035697 
L 100.4208 338.035697 
L 100.5696 337.34994 
L 100.7184 337.34994 
L 100.8672 335.978426 
L 101.016 335.978426 
L 101.1648 335.292669 
L 101.3136 335.292669 
L 101.4624 334.606912 
L 101.6112 334.606912 
L 101.76 333.921155 
L 101.9088 333.921155 
L 102.0576 333.235398 
L 102.2064 333.235398 
L 102.3552 332.549641 
L 102.504 332.549641 
L 102.6528 331.863884 
L 102.8016 331.863884 
L 102.9504 331.178127 
L 103.0992 331.178127 
L 103.248 330.49237 
L 103.3968 330.49237 
L 103.5456 329.806613 
L 103.992 329.806613 
L 104.1408 329.120856 
L 104.2896 329.120856 
L 104.4384 328.435099 
L 104.5872 328.435099 
L 104.736 327.749342 
L 104.8848 327.749342 
L 105.0336 327.063585 
L 105.1824 327.063585 
L 105.3312 326.377828 
L 105.48 326.377828 
L 105.6288 325.692071 
L 105.7776 325.692071 
L 105.9264 325.006314 
L 106.0752 325.006314 
L 106.224 324.320557 
L 106.6704 324.320557 
L 106.8192 323.634801 
L 106.968 323.634801 
L 107.1168 322.949044 
L 107.2656 322.949044 
L 107.4144 322.263287 
L 107.5632 322.263287 
L 107.712 321.57753 
L 108.1584 321.57753 
L 108.3072 320.891773 
L 108.456 320.891773 
L 108.6048 320.206016 
L 109.0512 320.206016 
L 109.2 319.520259 
L 109.3488 319.520259 
L 109.4976 318.834502 
L 109.944 318.834502 
L 110.0928 318.148745 
L 110.2416 318.148745 
L 110.3904 317.462988 
L 110.8368 317.462988 
L 110.9856 316.777231 
L 111.1344 316.777231 
L 111.2832 316.091474 
L 111.7296 316.091474 
L 111.8784 315.405717 
L 112.3248 315.405717 
L 112.4736 314.71996 
L 112.6224 314.71996 
L 112.7712 314.034203 
L 113.2176 314.034203 
L 113.3664 313.348446 
L 113.8128 313.348446 
L 113.9616 312.662689 
L 114.408 312.662689 
L 114.5568 311.976932 
L 115.0032 311.976932 
L 115.152 311.291175 
L 115.896 311.291175 
L 116.0448 310.605418 
L 116.4912 310.605418 
L 116.64 309.919661 
L 116.7888 309.919661 
L 116.9376 310.605418 
L 117.0864 310.605418 
L 117.2352 309.233904 
L 117.9792 309.233904 
L 118.128 308.548147 
L 118.5744 308.548147 
L 118.7232 307.86239 
L 119.4672 307.86239 
L 119.616 307.176633 
L 120.36 307.176633 
L 120.5088 306.490876 
L 121.2528 306.490876 
L 121.4016 305.805119 
L 122.4432 305.805119 
L 122.592 305.119362 
L 123.336 305.119362 
L 123.4848 304.433605 
L 124.824 304.433605 
L 124.9728 303.747848 
L 126.312 303.747848 
L 126.4608 303.062091 
L 128.3952 303.062091 
L 128.544 302.376334 
L 130.4784 302.376334 
L 130.6272 301.690577 
L 134.7936 301.690577 
L 134.9424 301.00482 
L 135.3888 301.00482 
L 135.5376 300.319063 
L 135.6864 300.319063 
L 135.8352 301.00482 
L 137.9184 301.00482 
L 138.0672 301.690577 
L 138.216 301.690577 
L 138.3648 301.00482 
L 138.8112 301.00482 
L 138.96 301.690577 
L 142.9776 301.690577 
L 143.1264 302.376334 
L 143.7216 302.376334 
L 143.8704 301.690577 
L 144.912 301.690577 
L 145.0608 302.376334 
L 145.5072 302.376334 
L 145.656 303.062091 
L 146.1024 303.062091 
L 146.2512 302.376334 
L 146.6976 302.376334 
L 146.8464 303.062091 
L 148.1856 303.062091 
L 148.3344 303.747848 
L 148.4832 303.062091 
L 149.2272 303.062091 
L 149.376 304.433605 
L 149.5248 304.433605 
L 149.6736 303.747848 
L 150.4176 303.747848 
L 150.5664 304.433605 
L 150.7152 304.433605 
L 150.864 305.119362 
L 151.9056 305.119362 
L 152.0544 305.805119 
L 152.7984 305.805119 
L 152.9472 306.490876 
L 154.1376 306.490876 
L 154.2864 307.176633 
L 155.0304 307.176633 
L 155.1792 307.86239 
L 155.6256 307.86239 
L 155.7744 308.548147 
L 156.6672 308.548147 
L 156.816 309.233904 
L 157.1136 309.233904 
L 157.2624 308.548147 
L 157.4112 308.548147 
L 157.56 309.233904 
L 157.8576 309.233904 
L 158.0064 308.548147 
L 158.1552 308.548147 
L 158.304 309.233904 
L 158.4528 308.548147 
L 158.8992 308.548147 
L 159.048 309.233904 
L 159.4944 309.233904 
L 159.6432 309.919661 
L 160.6848 309.919661 
L 160.8336 310.605418 
L 161.5776 310.605418 
L 161.7264 311.291175 
L 162.4704 311.291175 
L 162.6192 311.976932 
L 162.768 311.976932 
L 162.9168 312.662689 
L 163.0656 312.662689 
L 163.2144 314.034203 
L 163.3632 314.034203 
L 163.512 315.405717 
L 163.6608 315.405717 
L 163.8096 318.148745 
L 163.9584 318.148745 
L 164.1072 318.834502 
L 164.256 318.834502 
L 164.4048 319.520259 
L 164.5536 319.520259 
L 164.7024 320.206016 
L 164.8512 320.206016 
L 165 321.57753 
L 165.1488 321.57753 
L 165.2976 322.263287 
L 165.4464 322.263287 
L 165.5952 322.949044 
L 165.744 322.949044 
L 165.8928 323.634801 
L 166.0416 323.634801 
L 166.1904 324.320557 
L 166.488 324.320557 
L 166.6368 325.006314 
L 166.7856 325.006314 
L 166.9344 325.692071 
L 167.3808 325.692071 
L 167.5296 326.377828 
L 167.6784 326.377828 
L 167.8272 327.063585 
L 168.2736 327.063585 
L 168.5712 328.435099 
L 168.72 328.435099 
L 168.8688 329.120856 
L 169.3152 329.120856 
L 169.464 328.435099 
L 169.6128 328.435099 
L 169.7616 329.120856 
L 170.208 329.120856 
L 170.3568 329.806613 
L 170.5056 329.806613 
L 170.6544 330.49237 
L 171.1008 330.49237 
L 171.2496 331.178127 
L 171.9936 331.178127 
L 172.1424 331.863884 
L 172.2912 331.863884 
L 172.44 332.549641 
L 172.8864 332.549641 
L 173.0352 333.235398 
L 173.184 333.235398 
L 173.3328 334.606912 
L 173.7792 334.606912 
L 173.928 335.292669 
L 174.0768 335.292669 
L 174.2256 334.606912 
L 174.5232 334.606912 
L 174.672 335.292669 
L 174.8208 335.292669 
L 174.9696 335.978426 
L 176.0112 335.978426 
L 176.16 336.664183 
L 177.2016 336.664183 
L 177.3504 337.34994 
L 178.0944 337.34994 
L 178.2432 338.035697 
L 178.392 338.035697 
L 178.5408 337.34994 
L 178.9872 337.34994 
L 179.136 338.035697 
L 180.1776 338.035697 
L 180.3264 338.721454 
L 180.7728 338.721454 
L 180.9216 340.092968 
L 183.8976 340.092968 
L 184.0464 340.778725 
L 184.4928 340.778725 
L 184.6416 341.464482 
L 186.8736 341.464482 
L 187.0224 342.150239 
L 187.1712 342.150239 
L 187.32 341.464482 
L 188.064 341.464482 
L 188.2128 342.150239 
L 188.3616 342.150239 
L 188.5104 341.464482 
L 188.6592 341.464482 
L 188.808 342.150239 
L 190.296 342.150239 
L 190.4448 343.521753 
L 190.5936 343.521753 
L 190.7424 346.264781 
L 190.8912 346.950538 
L 191.04 346.950538 
L 191.1888 349.693565 
L 191.3376 349.693565 
L 191.6352 354.493864 
L 191.784 354.493864 
L 191.9328 355.865378 
L 192.0816 355.865378 
L 192.3792 359.97992 
L 192.528 359.97992 
L 192.6768 360.665677 
L 192.8256 360.665677 
L 192.9744 362.722948 
L 193.1232 362.722948 
L 193.272 364.094462 
L 193.4208 364.094462 
L 193.5696 366.151733 
L 193.7184 366.151733 
L 194.016 368.894761 
L 194.1648 368.894761 
L 194.3136 369.580518 
L 194.4624 369.580518 
L 194.6112 370.952032 
L 194.76 370.952032 
L 194.9088 372.323546 
L 195.0576 372.323546 
L 195.2064 373.69506 
L 195.3552 373.69506 
L 195.504 375.066573 
L 195.6528 375.066573 
L 195.8016 375.75233 
L 195.9504 375.75233 
L 196.0992 377.123844 
L 196.248 377.123844 
L 196.3968 377.809601 
L 196.5456 377.809601 
L 196.6944 379.181115 
L 196.8432 379.181115 
L 196.992 379.866872 
L 197.2896 379.866872 
L 197.4384 380.552629 
L 197.5872 380.552629 
L 197.736 381.238386 
L 197.8848 381.238386 
L 198.0336 381.924143 
L 198.3312 381.924143 
L 198.48 382.6099 
L 198.6288 382.6099 
L 198.7776 383.295657 
L 199.0752 383.295657 
L 199.224 383.981414 
L 199.3728 383.981414 
L 199.5216 384.667171 
L 199.8192 384.667171 
L 199.968 385.352928 
L 200.4144 385.352928 
L 200.5632 386.724442 
L 201.0096 386.724442 
L 201.1584 387.410199 
L 201.3072 387.410199 
L 201.456 388.095956 
L 201.6048 388.095956 
L 201.7536 388.8 
L 327.0432 388.8 
L 327.192 386.724442 
L 327.3408 386.724442 
L 327.4896 381.238386 
L 327.7872 381.238386 
L 327.936 380.552629 
L 328.3824 380.552629 
L 328.5312 379.866872 
L 328.9776 379.866872 
L 329.1264 379.181115 
L 329.424 379.181115 
L 329.5728 375.066573 
L 329.7216 375.066573 
L 329.8704 373.69506 
L 330.3168 373.69506 
L 330.4656 375.066573 
L 330.7632 375.066573 
L 330.912 375.75233 
L 331.3584 375.75233 
L 331.5072 371.637789 
L 331.656 371.637789 
L 331.8048 370.266275 
L 332.1024 370.266275 
L 332.2512 370.952032 
L 332.6976 370.952032 
L 332.8464 370.266275 
L 333.7392 370.266275 
L 333.888 368.894761 
L 334.0368 368.894761 
L 334.1856 368.209004 
L 334.7808 368.209004 
L 334.9296 368.894761 
L 335.5248 368.894761 
L 335.6736 368.209004 
L 335.8224 368.209004 
L 335.9712 366.151733 
L 336.2688 366.151733 
L 336.4176 366.83749 
L 336.5664 366.83749 
L 336.7152 367.523247 
L 338.5008 367.523247 
L 338.6496 365.465976 
L 338.7984 365.465976 
L 338.9472 366.151733 
L 339.9888 366.151733 
L 340.1376 365.465976 
L 340.2864 365.465976 
L 340.4352 366.151733 
L 340.8816 366.151733 
L 341.0304 368.894761 
L 341.1792 368.894761 
L 341.328 367.523247 
L 341.4768 367.523247 
L 341.6256 364.094462 
L 341.7744 364.094462 
L 341.9232 364.780219 
L 342.072 364.780219 
L 342.2208 364.094462 
L 342.6672 364.094462 
L 342.816 364.780219 
L 342.9648 364.780219 
L 343.1136 367.523247 
L 344.304 367.523247 
L 344.4528 366.83749 
L 344.6016 366.83749 
L 344.7504 367.523247 
L 345.048 367.523247 
L 345.1968 366.151733 
L 346.3872 366.151733 
L 346.536 365.465976 
L 346.8336 365.465976 
L 346.9824 366.151733 
L 347.1312 366.151733 
L 347.28 367.523247 
L 347.4288 367.523247 
L 347.5776 369.580518 
L 347.7264 369.580518 
L 347.8752 368.894761 
L 348.3216 368.894761 
L 348.4704 369.580518 
L 348.6192 369.580518 
L 348.768 368.894761 
L 348.9168 368.894761 
L 349.0656 365.465976 
L 349.2144 365.465976 
L 349.3632 364.780219 
L 349.8096 364.780219 
L 349.9584 367.523247 
L 350.1072 367.523247 
L 350.256 368.209004 
L 350.4048 368.209004 
L 350.5536 367.523247 
L 351 367.523247 
L 351.1488 368.209004 
L 351.2976 368.209004 
L 351.4464 367.523247 
L 351.5952 367.523247 
L 351.744 368.209004 
L 351.8928 368.209004 
L 352.0416 369.580518 
L 352.1904 369.580518 
L 352.3392 370.266275 
L 352.488 370.266275 
L 352.6368 370.952032 
L 353.0832 370.952032 
L 353.232 370.266275 
L 354.4224 370.266275 
L 354.5712 368.894761 
L 355.464 368.894761 
L 355.6128 368.209004 
L 355.7616 368.209004 
L 355.9104 368.894761 
L 356.6544 368.894761 
L 356.8032 369.580518 
L 356.952 369.580518 
L 357.1008 368.894761 
L 357.5472 368.894761 
L 357.696 372.323546 
L 358.1424 372.323546 
L 358.2912 371.637789 
L 360.8208 371.637789 
L 360.9696 374.380816 
L 361.416 374.380816 
L 361.5648 373.69506 
L 362.6064 373.69506 
L 362.7552 373.009303 
L 363.2016 373.009303 
L 363.3504 373.69506 
L 364.0944 373.69506 
L 364.2432 373.009303 
L 364.6896 373.009303 
L 364.8384 375.75233 
L 365.2848 375.75233 
L 365.4336 375.066573 
L 365.88 375.066573 
L 366.0288 375.75233 
L 366.1776 375.75233 
L 366.3264 375.066573 
L 367.0704 375.066573 
L 367.2192 374.380816 
L 367.6656 374.380816 
L 367.8144 375.066573 
L 367.9632 375.066573 
L 368.112 374.380816 
L 370.0464 374.380816 
L 370.1952 373.69506 
L 372.7248 373.69506 
L 372.8736 373.009303 
L 373.32 373.009303 
L 373.4688 373.69506 
L 373.9152 373.69506 
L 374.064 375.066573 
L 374.2128 375.066573 
L 374.3616 375.75233 
L 374.808 375.75233 
L 374.9568 376.438087 
L 375.1056 376.438087 
L 375.2544 375.75233 
L 376.296 375.75233 
L 376.4448 375.066573 
L 376.8912 375.066573 
L 377.04 375.75233 
L 377.1888 375.75233 
L 377.3376 375.066573 
L 378.9744 375.066573 
L 379.1232 374.380816 
L 379.272 374.380816 
L 379.4208 376.438087 
L 379.5696 376.438087 
L 379.7184 377.809601 
L 380.1648 377.809601 
L 380.3136 377.123844 
L 381.6528 377.123844 
L 381.8016 376.438087 
L 383.4384 376.438087 
L 383.5872 375.75233 
L 383.736 375.75233 
L 383.8848 376.438087 
L 384.3312 376.438087 
L 384.48 375.75233 
L 385.8192 375.75233 
L 385.968 377.123844 
L 386.1168 377.123844 
L 386.2656 379.866872 
L 386.4144 379.866872 
L 386.5632 382.6099 
L 386.8608 382.6099 
L 387.0096 381.924143 
L 387.1584 381.924143 
L 387.3072 381.238386 
L 388.4976 381.238386 
L 388.6464 380.552629 
L 389.0928 380.552629 
L 389.2416 381.238386 
L 389.3904 381.238386 
L 389.5392 380.552629 
L 389.9856 380.552629 
L 390.1344 379.866872 
L 390.8784 379.866872 
L 391.0272 379.181115 
L 392.2176 379.181115 
L 392.3664 378.495358 
L 393.408 378.495358 
L 393.5568 377.809601 
L 394.0032 377.809601 
L 394.152 378.495358 
L 394.3008 378.495358 
L 394.4496 377.809601 
L 394.5984 377.809601 
L 394.7472 378.495358 
L 395.0448 378.495358 
L 395.1936 377.809601 
L 395.64 377.809601 
L 395.7888 380.552629 
L 395.9376 380.552629 
L 396.0864 381.924143 
L 396.5328 381.924143 
L 396.6816 381.238386 
L 397.2768 381.238386 
L 397.4256 380.552629 
L 398.4672 380.552629 
L 398.616 379.866872 
L 400.2528 379.866872 
L 400.4016 379.181115 
L 401.7408 379.181115 
L 401.8896 378.495358 
L 402.336 378.495358 
L 402.4848 379.181115 
L 402.6336 379.181115 
L 402.7824 378.495358 
L 403.2288 378.495358 
L 403.3776 377.809601 
L 403.5264 377.809601 
L 403.6752 378.495358 
L 403.824 378.495358 
L 403.9728 379.866872 
L 404.1216 379.866872 
L 404.2704 382.6099 
L 404.4192 382.6099 
L 404.568 381.924143 
L 405.4608 381.924143 
L 405.6096 381.238386 
L 406.6512 381.238386 
L 406.8 380.552629 
L 407.8416 380.552629 
L 407.9904 379.866872 
L 409.6272 379.866872 
L 409.776 379.181115 
L 410.0736 379.181115 
L 410.2224 380.552629 
L 410.3712 380.552629 
L 410.52 381.924143 
L 411.264 381.924143 
L 411.4128 381.238386 
L 411.5616 381.238386 
L 411.7104 382.6099 
L 412.6032 382.6099 
L 412.752 381.924143 
L 413.496 381.924143 
L 413.6448 381.238386 
L 414.6864 381.238386 
L 414.8352 380.552629 
L 415.4304 380.552629 
L 415.5792 381.238386 
L 415.728 380.552629 
L 416.3232 380.552629 
L 416.472 379.866872 
L 417.3648 379.866872 
L 417.6624 382.6099 
L 417.8112 382.6099 
L 417.96 381.924143 
L 418.1088 381.924143 
L 418.2576 380.552629 
L 418.4064 380.552629 
L 418.5552 379.181115 
L 418.704 379.181115 
L 418.8528 381.924143 
L 419.0016 381.924143 
L 419.1504 384.667171 
L 419.2992 384.667171 
L 419.448 386.038685 
L 419.5968 386.038685 
L 419.7456 382.6099 
L 419.8944 381.924143 
L 421.8288 381.924143 
L 421.9776 381.238386 
L 423.4656 381.238386 
L 423.6144 380.552629 
L 424.9536 380.552629 
L 425.1024 379.866872 
L 425.5488 379.866872 
L 425.6976 380.552629 
L 426.4416 380.552629 
L 426.5904 381.238386 
L 426.7392 381.238386 
L 426.888 383.981414 
L 427.3344 383.981414 
L 427.4832 383.295657 
L 428.5248 383.295657 
L 428.6736 382.6099 
L 430.1616 382.6099 
L 430.3104 381.924143 
L 430.4592 381.924143 
L 430.608 381.238386 
L 432.5424 381.238386 
L 432.6912 380.552629 
L 432.84 380.552629 
L 432.9888 381.238386 
L 433.4352 381.238386 
L 433.584 380.552629 
L 434.0304 380.552629 
L 434.1792 381.924143 
L 434.328 384.667171 
L 434.4768 383.981414 
L 435.5184 383.981414 
L 435.6672 383.295657 
L 436.8576 383.295657 
L 437.0064 382.6099 
L 438.9408 382.6099 
L 439.0896 381.924143 
L 440.4288 381.924143 
L 440.5776 381.238386 
L 442.6608 381.238386 
L 442.8096 383.981414 
L 442.9584 383.981414 
L 443.1072 385.352928 
L 443.256 385.352928 
L 443.4048 384.667171 
L 444.2976 384.667171 
L 444.4464 383.981414 
L 444.8928 383.981414 
L 445.0416 383.295657 
L 446.3808 383.295657 
L 446.5296 382.6099 
L 446.976 382.6099 
L 447.1248 383.295657 
L 447.2736 383.295657 
L 447.4224 382.6099 
L 448.3152 382.6099 
L 448.464 381.924143 
L 451.2912 381.924143 
L 451.44 378.495358 
L 451.8864 378.495358 
L 452.0352 381.238386 
L 452.184 381.238386 
L 452.3328 383.981414 
L 452.6304 383.981414 
L 452.7792 385.352928 
L 453.2256 385.352928 
L 453.3744 381.924143 
L 455.3088 381.924143 
L 455.4576 381.238386 
L 457.392 381.238386 
L 457.5408 380.552629 
L 457.6896 380.552629 
L 457.8384 381.238386 
L 458.7312 381.238386 
L 458.88 380.552629 
L 461.7072 380.552629 
L 461.856 379.866872 
L 462.0048 379.866872 
L 462.1536 381.238386 
L 462.4512 381.238386 
L 462.6 384.667171 
L 463.0464 384.667171 
L 463.1952 383.981414 
L 463.7904 383.981414 
L 463.9392 383.295657 
L 464.088 383.295657 
L 464.2368 383.981414 
L 464.6832 383.981414 
L 464.832 383.295657 
L 466.0224 383.295657 
L 466.1712 382.6099 
L 467.9568 382.6099 
L 468.1056 381.924143 
L 470.3376 381.924143 
L 470.4864 381.238386 
L 473.3136 381.238386 
L 473.4624 383.981414 
L 473.6112 383.981414 
L 473.76 385.352928 
L 473.9088 385.352928 
L 474.0576 384.667171 
L 474.8016 384.667171 
L 474.9504 383.981414 
L 475.992 383.981414 
L 476.1408 383.295657 
L 476.2896 383.295657 
L 476.4384 383.981414 
L 476.8848 383.981414 
L 477.0336 383.295657 
L 478.0752 383.295657 
L 478.224 382.6099 
L 479.8608 382.6099 
L 480.0096 381.924143 
L 483.2832 381.924143 
L 483.432 381.238386 
L 487.0032 381.238386 
L 487.152 383.981414 
L 487.3008 383.981414 
L 487.4496 384.667171 
L 487.5984 384.667171 
L 487.7472 381.924143 
L 489.384 381.924143 
L 489.5328 381.238386 
L 493.5504 381.238386 
L 493.6992 380.552629 
L 497.7168 380.552629 
L 497.8656 381.924143 
L 498.0144 381.924143 
L 498.1632 383.981414 
L 498.312 383.981414 
L 498.4608 383.295657 
L 498.6096 383.295657 
L 498.7584 379.866872 
L 499.8 379.866872 
L 499.9488 380.552629 
L 500.0976 380.552629 
L 500.2464 383.295657 
L 500.6928 383.295657 
L 500.8416 380.552629 
L 500.9904 380.552629 
L 501.1392 379.181115 
L 501.288 379.181115 
L 501.4368 379.866872 
L 501.5856 379.866872 
L 501.7344 383.295657 
L 502.1808 383.295657 
L 502.3296 383.981414 
L 503.3712 383.981414 
L 503.52 383.295657 
L 504.5616 383.295657 
L 504.7104 382.6099 
L 504.8592 382.6099 
L 505.008 383.295657 
L 505.1568 383.295657 
L 505.3056 382.6099 
L 506.3472 382.6099 
L 506.496 381.924143 
L 506.6448 381.924143 
L 506.7936 382.6099 
L 508.1328 382.6099 
L 508.2816 381.924143 
L 509.0256 381.924143 
L 509.1744 381.238386 
L 509.3232 381.238386 
L 509.472 381.924143 
L 511.1088 381.924143 
L 511.2576 381.238386 
L 516.7632 381.238386 
L 516.912 380.552629 
L 518.4 380.552629 
L 518.4 380.552629 
" style="fill:none;stroke:#008000;stroke-linecap:square;"/>
   </g>
   <g id="line2d_2">
    <path clip-path="url(#p940a879ab5)" d="M 72.1488 388.8 
L 225.264 388.8 
L 225.4128 375.300007 
L 225.5616 375.300007 
L 225.7104 361.800014 
L 226.008 361.800014 
L 226.1568 348.300021 
L 226.3056 348.300021 
L 226.4544 334.800028 
L 226.6032 334.800028 
L 226.752 321.300035 
L 226.9008 321.300035 
L 227.0496 307.800041 
L 227.1984 307.800041 
L 227.3472 294.300048 
L 227.496 294.300048 
L 227.6448 280.800055 
L 227.7936 280.800055 
L 227.9424 264.600064 
L 228.0912 264.600064 
L 228.24 251.100071 
L 228.3888 251.100071 
L 228.5376 237.600077 
L 228.6864 237.600077 
L 228.8352 224.100084 
L 228.984 224.100084 
L 229.1328 210.600091 
L 229.2816 210.600091 
L 229.4304 205.200094 
L 229.8768 205.200094 
L 230.0256 202.500095 
L 230.1744 202.500095 
L 230.3232 199.800097 
L 230.472 199.800097 
L 230.6208 197.100098 
L 231.0672 197.100098 
L 231.216 194.4001 
L 231.3648 194.4001 
L 231.5136 191.700101 
L 231.6624 191.700101 
L 231.8112 189.000102 
L 232.2576 189.000102 
L 232.4064 186.300104 
L 232.5552 186.300104 
L 232.704 183.600105 
L 232.8528 183.600105 
L 233.0016 180.900106 
L 233.448 180.900106 
L 233.5968 178.200108 
L 233.7456 178.200108 
L 233.8944 175.500109 
L 234.0432 175.500109 
L 234.192 172.800111 
L 234.6384 172.800111 
L 234.7872 170.100112 
L 234.936 170.100112 
L 235.0848 167.400113 
L 235.5312 167.400113 
L 235.68 164.700115 
L 235.8288 164.700115 
L 235.9776 162.000116 
L 236.424 162.000116 
L 236.5728 159.300118 
L 236.7216 159.300118 
L 236.8704 156.600119 
L 237.0192 156.600119 
L 237.168 153.90012 
L 237.6144 153.90012 
L 237.7632 151.200122 
L 237.912 151.200122 
L 238.0608 148.500123 
L 238.5072 148.500123 
L 238.656 145.800124 
L 238.8048 145.800124 
L 238.9536 143.100126 
L 239.4 143.100126 
L 239.5488 140.400127 
L 239.9952 140.400127 
L 240.144 137.700129 
L 240.5904 137.700129 
L 240.7392 135.00013 
L 240.888 135.00013 
L 241.0368 132.300131 
L 241.4832 132.300131 
L 241.632 129.600133 
L 242.0784 129.600133 
L 242.2272 126.900134 
L 242.6736 126.900134 
L 242.8224 124.200135 
L 243.2688 124.200135 
L 243.4176 121.500137 
L 243.864 121.500137 
L 244.0128 118.800138 
L 244.4592 118.800138 
L 244.608 116.10014 
L 245.0544 116.10014 
L 245.2032 113.400141 
L 245.6496 113.400141 
L 245.7984 110.700142 
L 246.2448 110.700142 
L 246.3936 108.000144 
L 247.1376 108.000144 
L 247.2864 105.300145 
L 247.7328 105.300145 
L 247.8816 102.600147 
L 248.6256 102.600147 
L 248.7744 99.900148 
L 249.5184 99.900148 
L 249.6672 97.200149 
L 250.4112 97.200149 
L 250.56 94.500151 
L 251.304 94.500151 
L 251.4528 91.800152 
L 252.1968 91.800152 
L 252.3456 89.100153 
L 253.0896 89.100153 
L 253.2384 86.400155 
L 254.28 86.400155 
L 254.4288 83.700156 
L 255.6192 83.700156 
L 255.768 81.000158 
L 255.9168 81.000158 
L 256.0656 78.300159 
L 258 78.300159 
L 258.1488 75.60016 
L 261.72 75.60016 
L 261.8688 72.900162 
L 283.4448 72.900162 
L 283.5936 75.60016 
L 284.9328 75.60016 
L 285.0816 78.300159 
L 289.8432 78.300159 
L 289.992 81.000158 
L 290.4384 81.000158 
L 290.5872 83.700156 
L 291.1824 83.700156 
L 291.3312 86.400155 
L 291.7776 86.400155 
L 291.9264 89.100153 
L 293.2656 89.100153 
L 293.4144 91.800152 
L 294.0096 91.800152 
L 294.1584 94.500151 
L 294.6048 94.500151 
L 294.7536 97.200149 
L 296.0928 97.200149 
L 296.2416 99.900148 
L 296.9856 99.900148 
L 297.1344 102.600147 
L 297.7296 102.600147 
L 297.8784 105.300145 
L 299.2176 105.300145 
L 299.3664 108.000144 
L 299.9616 108.000144 
L 300.1104 110.700142 
L 300.8544 110.700142 
L 301.0032 113.400141 
L 302.64 113.400141 
L 302.7888 116.10014 
L 303.384 116.10014 
L 303.5328 118.800138 
L 305.1696 118.800138 
L 305.3184 121.500137 
L 305.9136 121.500137 
L 306.0624 124.200135 
L 307.104 124.200135 
L 307.2528 126.900134 
L 309.9312 126.900134 
L 310.08 129.600133 
L 311.8656 129.600133 
L 312.0144 132.300131 
L 312.1632 132.300131 
L 312.312 135.00013 
L 312.4608 135.00013 
L 312.7584 140.400127 
L 313.2048 140.400127 
L 313.3536 143.100126 
L 313.5024 143.100126 
L 313.6512 145.800124 
L 313.9488 145.800124 
L 314.0976 151.200122 
L 314.2464 151.200122 
L 314.3952 156.600119 
L 314.6928 156.600119 
L 314.8416 162.000116 
L 315.1392 162.000116 
L 315.288 164.700115 
L 315.4368 164.700115 
L 315.5856 167.400113 
L 315.8832 167.400113 
L 316.032 172.800111 
L 316.3296 172.800111 
L 316.4784 175.500109 
L 316.6272 175.500109 
L 316.776 178.200108 
L 317.0736 178.200108 
L 317.2224 183.600105 
L 317.3712 183.600105 
L 317.52 186.300104 
L 317.8176 186.300104 
L 317.9664 191.700101 
L 318.264 191.700101 
L 318.4128 199.800097 
L 319.008 199.800097 
L 319.1568 202.500095 
L 319.4544 202.500095 
L 319.6032 216.000088 
L 319.9008 216.000088 
L 320.0496 218.700087 
L 320.1984 218.700087 
L 320.3472 221.400086 
L 320.7936 221.400086 
L 320.9424 226.800083 
L 321.24 226.800083 
L 321.3888 229.500082 
L 321.5376 229.500082 
L 321.6864 232.20008 
L 321.984 232.20008 
L 322.1328 237.600077 
L 322.5792 237.600077 
L 322.728 243.000075 
L 322.8768 243.000075 
L 323.0256 248.400072 
L 323.1744 248.400072 
L 323.3232 251.100071 
L 323.6208 251.100071 
L 323.7696 256.500068 
L 324.216 256.500068 
L 324.3648 261.900065 
L 324.6624 261.900065 
L 324.8112 264.600064 
L 324.96 264.600064 
L 325.1088 267.300062 
L 325.2576 267.300062 
L 325.4064 275.400058 
L 325.704 275.400058 
L 325.8528 388.8 
L 518.4 388.8 
L 518.4 388.8 
" style="fill:none;stroke:#ff0000;stroke-linecap:square;"/>
   </g>
   <g id="patch_3">
    <path d="M 72 43.2 
L 518.4 43.2 
" style="fill:none;stroke:#000000;stroke-linecap:square;stroke-linejoin:miter;"/>
   </g>
   <g id="patch_4">
    <path d="M 518.4 388.8 
L 518.4 43.2 
" style="fill:none;stroke:#000000;stroke-linecap:square;stroke-linejoin:miter;"/>
   </g>
   <g id="patch_5">
    <path d="M 72 388.8 
L 518.4 388.8 
" style="fill:none;stroke:#000000;stroke-linecap:square;stroke-linejoin:miter;"/>
   </g>
   <g id="patch_6">
    <path d="M 72 388.8 
L 72 43.2 
" style="fill:none;stroke:#000000;stroke-linecap:square;stroke-linejoin:miter;"/>
   </g>
   <g id="matplotlib.axis_1">
    <g id="xtick_1">
     <g id="line2d_3">
      <path clip-path="url(#p940a879ab5)" d="M 72 388.8 
L 72 43.2 
" style="fill:none;stroke:#000000;stroke-dasharray:1.000000,3.000000;stroke-dashoffset:0.0;stroke-width:0.5;"/>
     </g>
     <g id="line2d_4">
      <defs>
       <path d="M 0 0 
L 0 -4 
" id="ma4ce1e68d8" style="stroke:#000000;stroke-width:0.5;"/>
      </defs>
      <g>
       <use style="stroke:#000000;stroke-width:0.5;" x="72.0" xlink:href="#ma4ce1e68d8" y="388.8"/>
      </g>
     </g>
     <g id="line2d_5">
      <defs>
       <path d="M 0 0 
L 0 4 
" id="m3da92037d9" style="stroke:#000000;stroke-width:0.5;"/>
      </defs>
      <g>
       <use style="stroke:#000000;stroke-width:0.5;" x="72.0" xlink:href="#m3da92037d9" y="43.2"/>
      </g>
     </g>
     <g id="text_1">
      <!-- 0 -->
      <defs>
       <path d="M 31.78125 66.40625 
Q 24.171875 66.40625 20.328125 58.90625 
Q 16.5 51.421875 16.5 36.375 
Q 16.5 21.390625 20.328125 13.890625 
Q 24.171875 6.390625 31.78125 6.390625 
Q 39.453125 6.390625 43.28125 13.890625 
Q 47.125 21.390625 47.125 36.375 
Q 47.125 51.421875 43.28125 58.90625 
Q 39.453125 66.40625 31.78125 66.40625 
M 31.78125 74.21875 
Q 44.046875 74.21875 50.515625 64.515625 
Q 56.984375 54.828125 56.984375 36.375 
Q 56.984375 17.96875 50.515625 8.265625 
Q 44.046875 -1.421875 31.78125 -1.421875 
Q 19.53125 -1.421875 13.0625 8.265625 
Q 6.59375 17.96875 6.59375 36.375 
Q 6.59375 54.828125 13.0625 64.515625 
Q 19.53125 74.21875 31.78125 74.21875 
" id="BitstreamVeraSans-Roman-30"/>
      </defs>
      <g transform="translate(68.1825 401.918125)scale(0.12 -0.12)">
       <use xlink:href="#BitstreamVeraSans-Roman-30"/>
      </g>
     </g>
    </g>
    <g id="xtick_2">
     <g id="line2d_6">
      <path clip-path="url(#p940a879ab5)" d="M 146.4 388.8 
L 146.4 43.2 
" style="fill:none;stroke:#000000;stroke-dasharray:1.000000,3.000000;stroke-dashoffset:0.0;stroke-width:0.5;"/>
     </g>
     <g id="line2d_7">
      <g>
       <use style="stroke:#000000;stroke-width:0.5;" x="146.4" xlink:href="#ma4ce1e68d8" y="388.8"/>
      </g>
     </g>
     <g id="line2d_8">
      <g>
       <use style="stroke:#000000;stroke-width:0.5;" x="146.4" xlink:href="#m3da92037d9" y="43.2"/>
      </g>
     </g>
     <g id="text_2">
      <!-- 5 -->
      <defs>
       <path d="M 10.796875 72.90625 
L 49.515625 72.90625 
L 49.515625 64.59375 
L 19.828125 64.59375 
L 19.828125 46.734375 
Q 21.96875 47.46875 24.109375 47.828125 
Q 26.265625 48.1875 28.421875 48.1875 
Q 40.625 48.1875 47.75 41.5 
Q 54.890625 34.8125 54.890625 23.390625 
Q 54.890625 11.625 47.5625 5.09375 
Q 40.234375 -1.421875 26.90625 -1.421875 
Q 22.3125 -1.421875 17.546875 -0.640625 
Q 12.796875 0.140625 7.71875 1.703125 
L 7.71875 11.625 
Q 12.109375 9.234375 16.796875 8.0625 
Q 21.484375 6.890625 26.703125 6.890625 
Q 35.15625 6.890625 40.078125 11.328125 
Q 45.015625 15.765625 45.015625 23.390625 
Q 45.015625 31 40.078125 35.4375 
Q 35.15625 39.890625 26.703125 39.890625 
Q 22.75 39.890625 18.8125 39.015625 
Q 14.890625 38.140625 10.796875 36.28125 
z
" id="BitstreamVeraSans-Roman-35"/>
      </defs>
      <g transform="translate(142.5825 401.918125)scale(0.12 -0.12)">
       <use xlink:href="#BitstreamVeraSans-Roman-35"/>
      </g>
     </g>
    </g>
    <g id="xtick_3">
     <g id="line2d_9">
      <path clip-path="url(#p940a879ab5)" d="M 220.8 388.8 
L 220.8 43.2 
" style="fill:none;stroke:#000000;stroke-dasharray:1.000000,3.000000;stroke-dashoffset:0.0;stroke-width:0.5;"/>
     </g>
     <g id="line2d_10">
      <g>
       <use style="stroke:#000000;stroke-width:0.5;" x="220.8" xlink:href="#ma4ce1e68d8" y="388.8"/>
      </g>
     </g>
     <g id="line2d_11">
      <g>
       <use style="stroke:#000000;stroke-width:0.5;" x="220.8" xlink:href="#m3da92037d9" y="43.2"/>
      </g>
     </g>
     <g id="text_3">
      <!-- 10 -->
      <defs>
       <path d="M 12.40625 8.296875 
L 28.515625 8.296875 
L 28.515625 63.921875 
L 10.984375 60.40625 
L 10.984375 69.390625 
L 28.421875 72.90625 
L 38.28125 72.90625 
L 38.28125 8.296875 
L 54.390625 8.296875 
L 54.390625 0 
L 12.40625 0 
z
" id="BitstreamVeraSans-Roman-31"/>
      </defs>
      <g transform="translate(213.165 401.918125)scale(0.12 -0.12)">
       <use xlink:href="#BitstreamVeraSans-Roman-31"/>
       <use x="63.623046875" xlink:href="#BitstreamVeraSans-Roman-30"/>
      </g>
     </g>
    </g>
    <g id="xtick_4">
     <g id="line2d_12">
      <path clip-path="url(#p940a879ab5)" d="M 295.2 388.8 
L 295.2 43.2 
" style="fill:none;stroke:#000000;stroke-dasharray:1.000000,3.000000;stroke-dashoffset:0.0;stroke-width:0.5;"/>
     </g>
     <g id="line2d_13">
      <g>
       <use style="stroke:#000000;stroke-width:0.5;" x="295.2" xlink:href="#ma4ce1e68d8" y="388.8"/>
      </g>
     </g>
     <g id="line2d_14">
      <g>
       <use style="stroke:#000000;stroke-width:0.5;" x="295.2" xlink:href="#m3da92037d9" y="43.2"/>
      </g>
     </g>
     <g id="text_4">
      <!-- 15 -->
      <g transform="translate(287.565 401.918125)scale(0.12 -0.12)">
       <use xlink:href="#BitstreamVeraSans-Roman-31"/>
       <use x="63.623046875" xlink:href="#BitstreamVeraSans-Roman-35"/>
      </g>
     </g>
    </g>
    <g id="xtick_5">
     <g id="line2d_15">
      <path clip-path="url(#p940a879ab5)" d="M 369.6 388.8 
L 369.6 43.2 
" style="fill:none;stroke:#000000;stroke-dasharray:1.000000,3.000000;stroke-dashoffset:0.0;stroke-width:0.5;"/>
     </g>
     <g id="line2d_16">
      <g>
       <use style="stroke:#000000;stroke-width:0.5;" x="369.6" xlink:href="#ma4ce1e68d8" y="388.8"/>
      </g>
     </g>
     <g id="line2d_17">
      <g>
       <use style="stroke:#000000;stroke-width:0.5;" x="369.6" xlink:href="#m3da92037d9" y="43.2"/>
      </g>
     </g>
     <g id="text_5">
      <!-- 20 -->
      <defs>
       <path d="M 19.1875 8.296875 
L 53.609375 8.296875 
L 53.609375 0 
L 7.328125 0 
L 7.328125 8.296875 
Q 12.9375 14.109375 22.625 23.890625 
Q 32.328125 33.6875 34.8125 36.53125 
Q 39.546875 41.84375 41.421875 45.53125 
Q 43.3125 49.21875 43.3125 52.78125 
Q 43.3125 58.59375 39.234375 62.25 
Q 35.15625 65.921875 28.609375 65.921875 
Q 23.96875 65.921875 18.8125 64.3125 
Q 13.671875 62.703125 7.8125 59.421875 
L 7.8125 69.390625 
Q 13.765625 71.78125 18.9375 73 
Q 24.125 74.21875 28.421875 74.21875 
Q 39.75 74.21875 46.484375 68.546875 
Q 53.21875 62.890625 53.21875 53.421875 
Q 53.21875 48.921875 51.53125 44.890625 
Q 49.859375 40.875 45.40625 35.40625 
Q 44.1875 33.984375 37.640625 27.21875 
Q 31.109375 20.453125 19.1875 8.296875 
" id="BitstreamVeraSans-Roman-32"/>
      </defs>
      <g transform="translate(361.965 401.918125)scale(0.12 -0.12)">
       <use xlink:href="#BitstreamVeraSans-Roman-32"/>
       <use x="63.623046875" xlink:href="#BitstreamVeraSans-Roman-30"/>
      </g>
     </g>
    </g>
    <g id="xtick_6">
     <g id="line2d_18">
      <path clip-path="url(#p940a879ab5)" d="M 444 388.8 
L 444 43.2 
" style="fill:none;stroke:#000000;stroke-dasharray:1.000000,3.000000;stroke-dashoffset:0.0;stroke-width:0.5;"/>
     </g>
     <g id="line2d_19">
      <g>
       <use style="stroke:#000000;stroke-width:0.5;" x="444.0" xlink:href="#ma4ce1e68d8" y="388.8"/>
      </g>
     </g>
     <g id="line2d_20">
      <g>
       <use style="stroke:#000000;stroke-width:0.5;" x="444.0" xlink:href="#m3da92037d9" y="43.2"/>
      </g>
     </g>
     <g id="text_6">
      <!-- 25 -->
      <g transform="translate(436.365 401.918125)scale(0.12 -0.12)">
       <use xlink:href="#BitstreamVeraSans-Roman-32"/>
       <use x="63.623046875" xlink:href="#BitstreamVeraSans-Roman-35"/>
      </g>
     </g>
    </g>
    <g id="xtick_7">
     <g id="line2d_21">
      <path clip-path="url(#p940a879ab5)" d="M 518.4 388.8 
L 518.4 43.2 
" style="fill:none;stroke:#000000;stroke-dasharray:1.000000,3.000000;stroke-dashoffset:0.0;stroke-width:0.5;"/>
     </g>
     <g id="line2d_22">
      <g>
       <use style="stroke:#000000;stroke-width:0.5;" x="518.4" xlink:href="#ma4ce1e68d8" y="388.8"/>
      </g>
     </g>
     <g id="line2d_23">
      <g>
       <use style="stroke:#000000;stroke-width:0.5;" x="518.4" xlink:href="#m3da92037d9" y="43.2"/>
      </g>
     </g>
     <g id="text_7">
      <!-- 30 -->
      <defs>
       <path d="M 40.578125 39.3125 
Q 47.65625 37.796875 51.625 33 
Q 55.609375 28.21875 55.609375 21.1875 
Q 55.609375 10.40625 48.1875 4.484375 
Q 40.765625 -1.421875 27.09375 -1.421875 
Q 22.515625 -1.421875 17.65625 -0.515625 
Q 12.796875 0.390625 7.625 2.203125 
L 7.625 11.71875 
Q 11.71875 9.328125 16.59375 8.109375 
Q 21.484375 6.890625 26.8125 6.890625 
Q 36.078125 6.890625 40.9375 10.546875 
Q 45.796875 14.203125 45.796875 21.1875 
Q 45.796875 27.640625 41.28125 31.265625 
Q 36.765625 34.90625 28.71875 34.90625 
L 20.21875 34.90625 
L 20.21875 43.015625 
L 29.109375 43.015625 
Q 36.375 43.015625 40.234375 45.921875 
Q 44.09375 48.828125 44.09375 54.296875 
Q 44.09375 59.90625 40.109375 62.90625 
Q 36.140625 65.921875 28.71875 65.921875 
Q 24.65625 65.921875 20.015625 65.03125 
Q 15.375 64.15625 9.8125 62.3125 
L 9.8125 71.09375 
Q 15.4375 72.65625 20.34375 73.4375 
Q 25.25 74.21875 29.59375 74.21875 
Q 40.828125 74.21875 47.359375 69.109375 
Q 53.90625 64.015625 53.90625 55.328125 
Q 53.90625 49.265625 50.4375 45.09375 
Q 46.96875 40.921875 40.578125 39.3125 
" id="BitstreamVeraSans-Roman-33"/>
      </defs>
      <g transform="translate(510.765 401.918125)scale(0.12 -0.12)">
       <use xlink:href="#BitstreamVeraSans-Roman-33"/>
       <use x="63.623046875" xlink:href="#BitstreamVeraSans-Roman-30"/>
      </g>
     </g>
    </g>
    <g id="text_8">
     <!-- Time [s] -->
     <defs>
      <path id="BitstreamVeraSans-Roman-20"/>
      <path d="M 8.59375 75.984375 
L 29.296875 75.984375 
L 29.296875 69 
L 17.578125 69 
L 17.578125 -6.203125 
L 29.296875 -6.203125 
L 29.296875 -13.1875 
L 8.59375 -13.1875 
z
" id="BitstreamVeraSans-Roman-5b"/>
      <path d="M 30.421875 75.984375 
L 30.421875 -13.1875 
L 9.71875 -13.1875 
L 9.71875 -6.203125 
L 21.390625 -6.203125 
L 21.390625 69 
L 9.71875 69 
L 9.71875 75.984375 
z
" id="BitstreamVeraSans-Roman-5d"/>
      <path d="M 52 44.1875 
Q 55.375 50.25 60.0625 53.125 
Q 64.75 56 71.09375 56 
Q 79.640625 56 84.28125 50.015625 
Q 88.921875 44.046875 88.921875 33.015625 
L 88.921875 0 
L 79.890625 0 
L 79.890625 32.71875 
Q 79.890625 40.578125 77.09375 44.375 
Q 74.3125 48.1875 68.609375 48.1875 
Q 61.625 48.1875 57.5625 43.546875 
Q 53.515625 38.921875 53.515625 30.90625 
L 53.515625 0 
L 44.484375 0 
L 44.484375 32.71875 
Q 44.484375 40.625 41.703125 44.40625 
Q 38.921875 48.1875 33.109375 48.1875 
Q 26.21875 48.1875 22.15625 43.53125 
Q 18.109375 38.875 18.109375 30.90625 
L 18.109375 0 
L 9.078125 0 
L 9.078125 54.6875 
L 18.109375 54.6875 
L 18.109375 46.1875 
Q 21.1875 51.21875 25.484375 53.609375 
Q 29.78125 56 35.6875 56 
Q 41.65625 56 45.828125 52.96875 
Q 50 49.953125 52 44.1875 
" id="BitstreamVeraSans-Roman-6d"/>
      <path d="M 9.421875 54.6875 
L 18.40625 54.6875 
L 18.40625 0 
L 9.421875 0 
z
M 9.421875 75.984375 
L 18.40625 75.984375 
L 18.40625 64.59375 
L 9.421875 64.59375 
z
" id="BitstreamVeraSans-Roman-69"/>
      <path d="M 56.203125 29.59375 
L 56.203125 25.203125 
L 14.890625 25.203125 
Q 15.484375 15.921875 20.484375 11.0625 
Q 25.484375 6.203125 34.421875 6.203125 
Q 39.59375 6.203125 44.453125 7.46875 
Q 49.3125 8.734375 54.109375 11.28125 
L 54.109375 2.78125 
Q 49.265625 0.734375 44.1875 -0.34375 
Q 39.109375 -1.421875 33.890625 -1.421875 
Q 20.796875 -1.421875 13.15625 6.1875 
Q 5.515625 13.8125 5.515625 26.8125 
Q 5.515625 40.234375 12.765625 48.109375 
Q 20.015625 56 32.328125 56 
Q 43.359375 56 49.78125 48.890625 
Q 56.203125 41.796875 56.203125 29.59375 
M 47.21875 32.234375 
Q 47.125 39.59375 43.09375 43.984375 
Q 39.0625 48.390625 32.421875 48.390625 
Q 24.90625 48.390625 20.390625 44.140625 
Q 15.875 39.890625 15.1875 32.171875 
z
" id="BitstreamVeraSans-Roman-65"/>
      <path d="M -0.296875 72.90625 
L 61.375 72.90625 
L 61.375 64.59375 
L 35.5 64.59375 
L 35.5 0 
L 25.59375 0 
L 25.59375 64.59375 
L -0.296875 64.59375 
z
" id="BitstreamVeraSans-Roman-54"/>
      <path d="M 44.28125 53.078125 
L 44.28125 44.578125 
Q 40.484375 46.53125 36.375 47.5 
Q 32.28125 48.484375 27.875 48.484375 
Q 21.1875 48.484375 17.84375 46.4375 
Q 14.5 44.390625 14.5 40.28125 
Q 14.5 37.15625 16.890625 35.375 
Q 19.28125 33.59375 26.515625 31.984375 
L 29.59375 31.296875 
Q 39.15625 29.25 43.1875 25.515625 
Q 47.21875 21.78125 47.21875 15.09375 
Q 47.21875 7.46875 41.1875 3.015625 
Q 35.15625 -1.421875 24.609375 -1.421875 
Q 20.21875 -1.421875 15.453125 -0.5625 
Q 10.6875 0.296875 5.421875 2 
L 5.421875 11.28125 
Q 10.40625 8.6875 15.234375 7.390625 
Q 20.0625 6.109375 24.8125 6.109375 
Q 31.15625 6.109375 34.5625 8.28125 
Q 37.984375 10.453125 37.984375 14.40625 
Q 37.984375 18.0625 35.515625 20.015625 
Q 33.0625 21.96875 24.703125 23.78125 
L 21.578125 24.515625 
Q 13.234375 26.265625 9.515625 29.90625 
Q 5.8125 33.546875 5.8125 39.890625 
Q 5.8125 47.609375 11.28125 51.796875 
Q 16.75 56 26.8125 56 
Q 31.78125 56 36.171875 55.265625 
Q 40.578125 54.546875 44.28125 53.078125 
" id="BitstreamVeraSans-Roman-73"/>
     </defs>
     <g transform="translate(270.620625 418.531875)scale(0.12 -0.12)">
      <use xlink:href="#BitstreamVeraSans-Roman-54"/>
      <use x="61.037109375" xlink:href="#BitstreamVeraSans-Roman-69"/>
      <use x="88.8203125" xlink:href="#BitstreamVeraSans-Roman-6d"/>
      <use x="186.232421875" xlink:href="#BitstreamVeraSans-Roman-65"/>
      <use x="247.755859375" xlink:href="#BitstreamVeraSans-Roman-20"/>
      <use x="279.54296875" xlink:href="#BitstreamVeraSans-Roman-5b"/>
      <use x="318.556640625" xlink:href="#BitstreamVeraSans-Roman-73"/>
      <use x="370.65625" xlink:href="#BitstreamVeraSans-Roman-5d"/>
     </g>
    </g>
   </g>
   <g id="matplotlib.axis_2">
    <g id="ytick_1">
     <g id="line2d_24">
      <path clip-path="url(#p940a879ab5)" d="M 72 388.8 
L 518.4 388.8 
" style="fill:none;stroke:#000000;stroke-dasharray:1.000000,3.000000;stroke-dashoffset:0.0;stroke-width:0.5;"/>
     </g>
     <g id="line2d_25">
      <defs>
       <path d="M 0 0 
L 4 0 
" id="md067016dc7" style="stroke:#000000;stroke-width:0.5;"/>
      </defs>
      <g>
       <use style="stroke:#000000;stroke-width:0.5;" x="72.0" xlink:href="#md067016dc7" y="388.8"/>
      </g>
     </g>
     <g id="line2d_26">
      <defs>
       <path d="M 0 0 
L -4 0 
" id="m25142010c4" style="stroke:#000000;stroke-width:0.5;"/>
      </defs>
      <g>
       <use style="stroke:#000000;stroke-width:0.5;" x="518.4" xlink:href="#m25142010c4" y="388.8"/>
      </g>
     </g>
     <g id="text_9">
      <!-- 0.0 -->
      <defs>
       <path d="M 10.6875 12.40625 
L 21 12.40625 
L 21 0 
L 10.6875 0 
z
" id="BitstreamVeraSans-Roman-2e"/>
      </defs>
      <g transform="translate(48.91625 392.11125)scale(0.12 -0.12)">
       <use xlink:href="#BitstreamVeraSans-Roman-30"/>
       <use x="63.623046875" xlink:href="#BitstreamVeraSans-Roman-2e"/>
       <use x="95.41015625" xlink:href="#BitstreamVeraSans-Roman-30"/>
      </g>
     </g>
    </g>
    <g id="ytick_2">
     <g id="line2d_27">
      <path clip-path="url(#p940a879ab5)" d="M 72 319.68 
L 518.4 319.68 
" style="fill:none;stroke:#000000;stroke-dasharray:1.000000,3.000000;stroke-dashoffset:0.0;stroke-width:0.5;"/>
     </g>
     <g id="line2d_28">
      <g>
       <use style="stroke:#000000;stroke-width:0.5;" x="72.0" xlink:href="#md067016dc7" y="319.68"/>
      </g>
     </g>
     <g id="line2d_29">
      <g>
       <use style="stroke:#000000;stroke-width:0.5;" x="518.4" xlink:href="#m25142010c4" y="319.68"/>
      </g>
     </g>
     <g id="text_10">
      <!-- 0.1 -->
      <g transform="translate(48.91625 322.99125)scale(0.12 -0.12)">
       <use xlink:href="#BitstreamVeraSans-Roman-30"/>
       <use x="63.623046875" xlink:href="#BitstreamVeraSans-Roman-2e"/>
       <use x="95.41015625" xlink:href="#BitstreamVeraSans-Roman-31"/>
      </g>
     </g>
    </g>
    <g id="ytick_3">
     <g id="line2d_30">
      <path clip-path="url(#p940a879ab5)" d="M 72 250.56 
L 518.4 250.56 
" style="fill:none;stroke:#000000;stroke-dasharray:1.000000,3.000000;stroke-dashoffset:0.0;stroke-width:0.5;"/>
     </g>
     <g id="line2d_31">
      <g>
       <use style="stroke:#000000;stroke-width:0.5;" x="72.0" xlink:href="#md067016dc7" y="250.56"/>
      </g>
     </g>
     <g id="line2d_32">
      <g>
       <use style="stroke:#000000;stroke-width:0.5;" x="518.4" xlink:href="#m25142010c4" y="250.56"/>
      </g>
     </g>
     <g id="text_11">
      <!-- 0.2 -->
      <g transform="translate(48.91625 253.87125)scale(0.12 -0.12)">
       <use xlink:href="#BitstreamVeraSans-Roman-30"/>
       <use x="63.623046875" xlink:href="#BitstreamVeraSans-Roman-2e"/>
       <use x="95.41015625" xlink:href="#BitstreamVeraSans-Roman-32"/>
      </g>
     </g>
    </g>
    <g id="ytick_4">
     <g id="line2d_33">
      <path clip-path="url(#p940a879ab5)" d="M 72 181.44 
L 518.4 181.44 
" style="fill:none;stroke:#000000;stroke-dasharray:1.000000,3.000000;stroke-dashoffset:0.0;stroke-width:0.5;"/>
     </g>
     <g id="line2d_34">
      <g>
       <use style="stroke:#000000;stroke-width:0.5;" x="72.0" xlink:href="#md067016dc7" y="181.44"/>
      </g>
     </g>
     <g id="line2d_35">
      <g>
       <use style="stroke:#000000;stroke-width:0.5;" x="518.4" xlink:href="#m25142010c4" y="181.44"/>
      </g>
     </g>
     <g id="text_12">
      <!-- 0.3 -->
      <g transform="translate(48.91625 184.75125)scale(0.12 -0.12)">
       <use xlink:href="#BitstreamVeraSans-Roman-30"/>
       <use x="63.623046875" xlink:href="#BitstreamVeraSans-Roman-2e"/>
       <use x="95.41015625" xlink:href="#BitstreamVeraSans-Roman-33"/>
      </g>
     </g>
    </g>
    <g id="ytick_5">
     <g id="line2d_36">
      <path clip-path="url(#p940a879ab5)" d="M 72 112.32 
L 518.4 112.32 
" style="fill:none;stroke:#000000;stroke-dasharray:1.000000,3.000000;stroke-dashoffset:0.0;stroke-width:0.5;"/>
     </g>
     <g id="line2d_37">
      <g>
       <use style="stroke:#000000;stroke-width:0.5;" x="72.0" xlink:href="#md067016dc7" y="112.32"/>
      </g>
     </g>
     <g id="line2d_38">
      <g>
       <use style="stroke:#000000;stroke-width:0.5;" x="518.4" xlink:href="#m25142010c4" y="112.32"/>
      </g>
     </g>
     <g id="text_13">
      <!-- 0.4 -->
      <defs>
       <path d="M 37.796875 64.3125 
L 12.890625 25.390625 
L 37.796875 25.390625 
z
M 35.203125 72.90625 
L 47.609375 72.90625 
L 47.609375 25.390625 
L 58.015625 25.390625 
L 58.015625 17.1875 
L 47.609375 17.1875 
L 47.609375 0 
L 37.796875 0 
L 37.796875 17.1875 
L 4.890625 17.1875 
L 4.890625 26.703125 
z
" id="BitstreamVeraSans-Roman-34"/>
      </defs>
      <g transform="translate(48.91625 115.63125)scale(0.12 -0.12)">
       <use xlink:href="#BitstreamVeraSans-Roman-30"/>
       <use x="63.623046875" xlink:href="#BitstreamVeraSans-Roman-2e"/>
       <use x="95.41015625" xlink:href="#BitstreamVeraSans-Roman-34"/>
      </g>
     </g>
    </g>
    <g id="ytick_6">
     <g id="line2d_39">
      <path clip-path="url(#p940a879ab5)" d="M 72 43.2 
L 518.4 43.2 
" style="fill:none;stroke:#000000;stroke-dasharray:1.000000,3.000000;stroke-dashoffset:0.0;stroke-width:0.5;"/>
     </g>
     <g id="line2d_40">
      <g>
       <use style="stroke:#000000;stroke-width:0.5;" x="72.0" xlink:href="#md067016dc7" y="43.2"/>
      </g>
     </g>
     <g id="line2d_41">
      <g>
       <use style="stroke:#000000;stroke-width:0.5;" x="518.4" xlink:href="#m25142010c4" y="43.2"/>
      </g>
     </g>
     <g id="text_14">
      <!-- 0.5 -->
      <g transform="translate(48.91625 46.51125)scale(0.12 -0.12)">
       <use xlink:href="#BitstreamVeraSans-Roman-30"/>
       <use x="63.623046875" xlink:href="#BitstreamVeraSans-Roman-2e"/>
       <use x="95.41015625" xlink:href="#BitstreamVeraSans-Roman-35"/>
      </g>
     </g>
    </g>
    <g id="text_15">
     <!-- Pedal [] -->
     <defs>
      <path d="M 19.671875 64.796875 
L 19.671875 37.40625 
L 32.078125 37.40625 
Q 38.96875 37.40625 42.71875 40.96875 
Q 46.484375 44.53125 46.484375 51.125 
Q 46.484375 57.671875 42.71875 61.234375 
Q 38.96875 64.796875 32.078125 64.796875 
z
M 9.8125 72.90625 
L 32.078125 72.90625 
Q 44.34375 72.90625 50.609375 67.359375 
Q 56.890625 61.8125 56.890625 51.125 
Q 56.890625 40.328125 50.609375 34.8125 
Q 44.34375 29.296875 32.078125 29.296875 
L 19.671875 29.296875 
L 19.671875 0 
L 9.8125 0 
z
" id="BitstreamVeraSans-Roman-50"/>
      <path d="M 45.40625 46.390625 
L 45.40625 75.984375 
L 54.390625 75.984375 
L 54.390625 0 
L 45.40625 0 
L 45.40625 8.203125 
Q 42.578125 3.328125 38.25 0.953125 
Q 33.9375 -1.421875 27.875 -1.421875 
Q 17.96875 -1.421875 11.734375 6.484375 
Q 5.515625 14.40625 5.515625 27.296875 
Q 5.515625 40.1875 11.734375 48.09375 
Q 17.96875 56 27.875 56 
Q 33.9375 56 38.25 53.625 
Q 42.578125 51.265625 45.40625 46.390625 
M 14.796875 27.296875 
Q 14.796875 17.390625 18.875 11.75 
Q 22.953125 6.109375 30.078125 6.109375 
Q 37.203125 6.109375 41.296875 11.75 
Q 45.40625 17.390625 45.40625 27.296875 
Q 45.40625 37.203125 41.296875 42.84375 
Q 37.203125 48.484375 30.078125 48.484375 
Q 22.953125 48.484375 18.875 42.84375 
Q 14.796875 37.203125 14.796875 27.296875 
" id="BitstreamVeraSans-Roman-64"/>
      <path d="M 34.28125 27.484375 
Q 23.390625 27.484375 19.1875 25 
Q 14.984375 22.515625 14.984375 16.5 
Q 14.984375 11.71875 18.140625 8.90625 
Q 21.296875 6.109375 26.703125 6.109375 
Q 34.1875 6.109375 38.703125 11.40625 
Q 43.21875 16.703125 43.21875 25.484375 
L 43.21875 27.484375 
z
M 52.203125 31.203125 
L 52.203125 0 
L 43.21875 0 
L 43.21875 8.296875 
Q 40.140625 3.328125 35.546875 0.953125 
Q 30.953125 -1.421875 24.3125 -1.421875 
Q 15.921875 -1.421875 10.953125 3.296875 
Q 6 8.015625 6 15.921875 
Q 6 25.140625 12.171875 29.828125 
Q 18.359375 34.515625 30.609375 34.515625 
L 43.21875 34.515625 
L 43.21875 35.40625 
Q 43.21875 41.609375 39.140625 45 
Q 35.0625 48.390625 27.6875 48.390625 
Q 23 48.390625 18.546875 47.265625 
Q 14.109375 46.140625 10.015625 43.890625 
L 10.015625 52.203125 
Q 14.9375 54.109375 19.578125 55.046875 
Q 24.21875 56 28.609375 56 
Q 40.484375 56 46.34375 49.84375 
Q 52.203125 43.703125 52.203125 31.203125 
" id="BitstreamVeraSans-Roman-61"/>
      <path d="M 9.421875 75.984375 
L 18.40625 75.984375 
L 18.40625 0 
L 9.421875 0 
z
" id="BitstreamVeraSans-Roman-6c"/>
     </defs>
     <g transform="translate(41.420625 239.0484375)rotate(-90.0)scale(0.12 -0.12)">
      <use xlink:href="#BitstreamVeraSans-Roman-50"/>
      <use x="60.255859375" xlink:href="#BitstreamVeraSans-Roman-65"/>
      <use x="121.779296875" xlink:href="#BitstreamVeraSans-Roman-64"/>
      <use x="185.255859375" xlink:href="#BitstreamVeraSans-Roman-61"/>
      <use x="246.53515625" xlink:href="#BitstreamVeraSans-Roman-6c"/>
      <use x="274.318359375" xlink:href="#BitstreamVeraSans-Roman-20"/>
      <use x="306.10546875" xlink:href="#BitstreamVeraSans-Roman-5b"/>
      <use x="345.119140625" xlink:href="#BitstreamVeraSans-Roman-5d"/>
     </g>
    </g>
   </g>
   <g id="legend_1">
    <g id="patch_7">
     <path d="M 372.99825 96.993 
L 511.2 96.993 
L 511.2 50.4 
L 372.99825 50.4 
z
" style="fill:#ffffff;stroke:#000000;stroke-linejoin:miter;"/>
    </g>
    <g id="line2d_42">
     <path d="M 383.07825 62.06175 
L 403.23825 62.06175 
" style="fill:none;stroke:#008000;stroke-linecap:square;"/>
    </g>
    <g id="line2d_43"/>
    <g id="text_16">
     <!-- Gas pedal -->
     <defs>
      <path d="M 59.515625 10.40625 
L 59.515625 29.984375 
L 43.40625 29.984375 
L 43.40625 38.09375 
L 69.28125 38.09375 
L 69.28125 6.78125 
Q 63.578125 2.734375 56.6875 0.65625 
Q 49.8125 -1.421875 42 -1.421875 
Q 24.90625 -1.421875 15.25 8.5625 
Q 5.609375 18.5625 5.609375 36.375 
Q 5.609375 54.25 15.25 64.234375 
Q 24.90625 74.21875 42 74.21875 
Q 49.125 74.21875 55.546875 72.453125 
Q 61.96875 70.703125 67.390625 67.28125 
L 67.390625 56.78125 
Q 61.921875 61.421875 55.765625 63.765625 
Q 49.609375 66.109375 42.828125 66.109375 
Q 29.4375 66.109375 22.71875 58.640625 
Q 16.015625 51.171875 16.015625 36.375 
Q 16.015625 21.625 22.71875 14.15625 
Q 29.4375 6.6875 42.828125 6.6875 
Q 48.046875 6.6875 52.140625 7.59375 
Q 56.25 8.5 59.515625 10.40625 
" id="BitstreamVeraSans-Roman-47"/>
      <path d="M 18.109375 8.203125 
L 18.109375 -20.796875 
L 9.078125 -20.796875 
L 9.078125 54.6875 
L 18.109375 54.6875 
L 18.109375 46.390625 
Q 20.953125 51.265625 25.265625 53.625 
Q 29.59375 56 35.59375 56 
Q 45.5625 56 51.78125 48.09375 
Q 58.015625 40.1875 58.015625 27.296875 
Q 58.015625 14.40625 51.78125 6.484375 
Q 45.5625 -1.421875 35.59375 -1.421875 
Q 29.59375 -1.421875 25.265625 0.953125 
Q 20.953125 3.328125 18.109375 8.203125 
M 48.6875 27.296875 
Q 48.6875 37.203125 44.609375 42.84375 
Q 40.53125 48.484375 33.40625 48.484375 
Q 26.265625 48.484375 22.1875 42.84375 
Q 18.109375 37.203125 18.109375 27.296875 
Q 18.109375 17.390625 22.1875 11.75 
Q 26.265625 6.109375 33.40625 6.109375 
Q 40.53125 6.109375 44.609375 11.75 
Q 48.6875 17.390625 48.6875 27.296875 
" id="BitstreamVeraSans-Roman-70"/>
     </defs>
     <g transform="translate(419.07825 67.10175)scale(0.144 -0.144)">
      <use xlink:href="#BitstreamVeraSans-Roman-47"/>
      <use x="77.490234375" xlink:href="#BitstreamVeraSans-Roman-61"/>
      <use x="138.76953125" xlink:href="#BitstreamVeraSans-Roman-73"/>
      <use x="190.869140625" xlink:href="#BitstreamVeraSans-Roman-20"/>
      <use x="222.65625" xlink:href="#BitstreamVeraSans-Roman-70"/>
      <use x="286.1328125" xlink:href="#BitstreamVeraSans-Roman-65"/>
      <use x="347.65625" xlink:href="#BitstreamVeraSans-Roman-64"/>
      <use x="411.1328125" xlink:href="#BitstreamVeraSans-Roman-61"/>
      <use x="472.412109375" xlink:href="#BitstreamVeraSans-Roman-6c"/>
     </g>
    </g>
    <g id="line2d_44">
     <path d="M 383.07825 83.19825 
L 403.23825 83.19825 
" style="fill:none;stroke:#ff0000;stroke-linecap:square;"/>
    </g>
    <g id="line2d_45"/>
    <g id="text_17">
     <!-- Brake pedal -->
     <defs>
      <path d="M 41.109375 46.296875 
Q 39.59375 47.171875 37.8125 47.578125 
Q 36.03125 48 33.890625 48 
Q 26.265625 48 22.1875 43.046875 
Q 18.109375 38.09375 18.109375 28.8125 
L 18.109375 0 
L 9.078125 0 
L 9.078125 54.6875 
L 18.109375 54.6875 
L 18.109375 46.1875 
Q 20.953125 51.171875 25.484375 53.578125 
Q 30.03125 56 36.53125 56 
Q 37.453125 56 38.578125 55.875 
Q 39.703125 55.765625 41.0625 55.515625 
z
" id="BitstreamVeraSans-Roman-72"/>
      <path d="M 19.671875 34.8125 
L 19.671875 8.109375 
L 35.5 8.109375 
Q 43.453125 8.109375 47.28125 11.40625 
Q 51.125 14.703125 51.125 21.484375 
Q 51.125 28.328125 47.28125 31.5625 
Q 43.453125 34.8125 35.5 34.8125 
z
M 19.671875 64.796875 
L 19.671875 42.828125 
L 34.28125 42.828125 
Q 41.5 42.828125 45.03125 45.53125 
Q 48.578125 48.25 48.578125 53.8125 
Q 48.578125 59.328125 45.03125 62.0625 
Q 41.5 64.796875 34.28125 64.796875 
z
M 9.8125 72.90625 
L 35.015625 72.90625 
Q 46.296875 72.90625 52.390625 68.21875 
Q 58.5 63.53125 58.5 54.890625 
Q 58.5 48.1875 55.375 44.234375 
Q 52.25 40.28125 46.1875 39.3125 
Q 53.46875 37.75 57.5 32.78125 
Q 61.53125 27.828125 61.53125 20.40625 
Q 61.53125 10.640625 54.890625 5.3125 
Q 48.25 0 35.984375 0 
L 9.8125 0 
z
" id="BitstreamVeraSans-Roman-42"/>
      <path d="M 9.078125 75.984375 
L 18.109375 75.984375 
L 18.109375 31.109375 
L 44.921875 54.6875 
L 56.390625 54.6875 
L 27.390625 29.109375 
L 57.625 0 
L 45.90625 0 
L 18.109375 26.703125 
L 18.109375 0 
L 9.078125 0 
z
" id="BitstreamVeraSans-Roman-6b"/>
     </defs>
     <g transform="translate(419.07825 88.23825)scale(0.144 -0.144)">
      <use xlink:href="#BitstreamVeraSans-Roman-42"/>
      <use x="68.603515625" xlink:href="#BitstreamVeraSans-Roman-72"/>
      <use x="109.716796875" xlink:href="#BitstreamVeraSans-Roman-61"/>
      <use x="170.99609375" xlink:href="#BitstreamVeraSans-Roman-6b"/>
      <use x="228.859375" xlink:href="#BitstreamVeraSans-Roman-65"/>
      <use x="290.3828125" xlink:href="#BitstreamVeraSans-Roman-20"/>
      <use x="322.169921875" xlink:href="#BitstreamVeraSans-Roman-70"/>
      <use x="385.646484375" xlink:href="#BitstreamVeraSans-Roman-65"/>
      <use x="447.169921875" xlink:href="#BitstreamVeraSans-Roman-64"/>
      <use x="510.646484375" xlink:href="#BitstreamVeraSans-Roman-61"/>
      <use x="571.92578125" xlink:href="#BitstreamVeraSans-Roman-6c"/>
     </g>
    </g>
   </g>
  </g>
 </g>
 <defs>
  <clipPath id="p940a879ab5">
   <rect height="345.6" width="446.4" x="72.0" y="43.2"/>
  </clipPath>
 </defs>
</svg>
