<?xml version="1.0" encoding="utf-8" standalone="no"?>
<!DOCTYPE svg PUBLIC "-//W3C//DTD SVG 1.1//EN"
  "http://www.w3.org/Graphics/SVG/1.1/DTD/svg11.dtd">
<!-- Created with matplotlib (http://matplotlib.org/) -->
<svg height="432pt" version="1.1" viewBox="0 0 576 432" width="576pt" xmlns="http://www.w3.org/2000/svg" xmlns:xlink="http://www.w3.org/1999/xlink">
 <defs>
  <style type="text/css">
*{stroke-linecap:butt;stroke-linejoin:round;stroke-miterlimit:100000;}
  </style>
 </defs>
 <g id="figure_1">
  <g id="patch_1">
   <path d="M 0 432 
L 576 432 
L 576 0 
L 0 0 
z
" style="fill:#ffffff;"/>
  </g>
  <g id="axes_1">
   <g id="patch_2">
    <path d="M 72 388.8 
L 518.4 388.8 
L 518.4 43.2 
L 72 43.2 
z
" style="fill:#ffffff;"/>
   </g>
   <g id="line2d_1">
    <path clip-path="url(#p22bbb3b03b)" d="M 72.1488 382.571844 
L 91.7904 382.571844 
L 91.9392 189.317972 
L 92.832 175.79928 
L 94.1712 157.304428 
L 94.4688 151.824159 
L 94.9152 147.373555 
L 95.064 147.373555 
L 96.1056 138.032071 
L 96.7008 133.661959 
L 97.1472 130.263241 
L 100.5696 108.895409 
L 101.3136 104.708404 
L 101.4624 104.284234 
L 102.0576 101.055474 
L 102.2064 100.635365 
L 102.504 99.284289 
L 102.6528 98.866645 
L 103.0992 96.59271 
L 103.3968 95.765256 
L 103.6944 94.428276 
L 103.8432 94.017745 
L 104.1408 92.686114 
L 104.2896 92.278041 
L 104.5872 90.951751 
L 104.8848 90.141989 
L 105.1824 88.82299 
L 105.9264 86.82377 
L 106.224 85.517918 
L 107.712 81.607908 
L 107.8608 81.734278 
L 108.7536 79.441149 
L 108.9024 79.574088 
L 109.4976 78.06918 
L 109.6464 78.206872 
L 109.944 77.462411 
L 110.0928 75.187468 
L 110.2416 75.187468 
L 110.3904 76.863477 
L 110.5392 76.495668 
L 110.688 76.640106 
L 110.9856 75.910057 
L 111.1344 76.057409 
L 111.432 75.333349 
L 111.5808 75.483621 
L 111.7296 75.124287 
L 111.8784 75.276561 
L 112.176 74.563094 
L 112.3248 74.718288 
L 112.4736 74.364156 
L 112.6224 74.521344 
L 112.7712 74.169168 
L 112.92 74.328541 
L 113.0688 73.978484 
L 113.2176 74.139689 
L 113.3664 73.791935 
L 113.5152 73.955141 
L 113.664 73.609513 
L 113.8128 73.774712 
L 113.9616 73.431203 
L 114.2592 73.766708 
L 114.408 73.426502 
L 114.5568 73.596793 
L 114.7056 73.258706 
L 115.0032 73.604385 
L 115.152 73.269594 
L 115.3008 73.444975 
L 115.4496 73.112296 
L 115.7472 73.468128 
L 115.896 73.138744 
L 116.1936 73.500741 
L 116.3424 73.174645 
L 116.7888 73.728511 
L 116.9376 75.440796 
L 117.0864 73.595711 
L 117.2352 73.784674 
L 117.384 73.466134 
L 117.8304 74.041879 
L 117.9792 73.727783 
L 118.5744 74.514171 
L 118.7232 74.205857 
L 119.3184 75.013168 
L 119.4672 74.710277 
L 119.7648 75.122286 
L 119.9136 73.510209 
L 120.0624 73.510209 
L 120.2112 75.747028 
L 120.5088 76.169859 
L 120.6576 75.876223 
L 122.2944 78.287967 
L 122.4432 78.007838 
L 125.4192 82.743058 
L 125.568 82.990979 
L 125.8656 83.994182 
L 127.8 87.344206 
L 128.0976 88.378272 
L 129.4368 90.827426 
L 129.7344 91.886594 
L 130.6272 93.584246 
L 130.9248 94.659658 
L 131.6688 96.114584 
L 131.9664 97.204357 
L 132.7104 98.696692 
L 133.008 99.80076 
L 133.6032 101.022273 
L 133.9008 102.138773 
L 134.6448 103.700197 
L 134.7936 102.834833 
L 135.5376 104.423809 
L 135.6864 105.242663 
L 135.8352 107.555692 
L 136.1328 108.204624 
L 136.2816 108.204624 
L 136.5792 109.355157 
L 137.1744 110.673936 
L 137.472 111.836564 
L 137.9184 112.843262 
L 138.216 114.016006 
L 138.8112 115.400652 
L 139.1088 116.604596 
L 139.8528 118.426897 
L 140.1504 119.671577 
L 140.8944 121.596448 
L 141.192 122.88112 
L 141.936 124.901395 
L 142.2336 126.222683 
L 142.9776 128.339311 
L 143.2752 129.69916 
L 143.5728 130.577318 
L 143.7216 131.464349 
L 143.8704 129.942479 
L 144.168 130.841053 
L 144.4656 132.243447 
L 145.3584 135.03263 
L 145.5072 135.997214 
L 145.656 138.439346 
L 146.1024 139.888029 
L 146.2512 138.411599 
L 146.4 140.866036 
L 146.5488 139.396981 
L 146.9952 140.888551 
L 147.2928 142.386692 
L 148.1856 145.46558 
L 148.3344 144.551387 
L 149.0784 147.196956 
L 149.376 150.716876 
L 149.5248 151.259033 
L 149.6736 149.848878 
L 149.8224 152.34945 
L 149.9712 150.943907 
L 150.12 153.450118 
L 150.2688 152.051557 
L 150.4176 152.051557 
L 150.7152 153.725999 
L 150.864 156.24096 
L 151.0128 154.854958 
L 151.1616 157.372734 
L 151.4592 158.517724 
L 151.608 158.605871 
L 152.352 161.515468 
L 152.5008 160.153909 
L 152.6496 162.691126 
L 152.9472 163.879319 
L 153.096 162.531179 
L 153.2448 162.531179 
L 153.3936 165.07635 
L 153.5424 165.191949 
L 155.0304 170.844952 
L 155.1792 173.410735 
L 155.328 172.097693 
L 155.6256 174.816723 
L 156.2208 176.882615 
L 156.3696 176.882615 
L 156.9648 179.633281 
L 157.1136 178.348876 
L 157.4112 179.656156 
L 157.56 178.552629 
L 157.7088 181.146231 
L 157.8576 179.875024 
L 158.0064 180.538994 
L 158.1552 179.268718 
L 158.304 182.053658 
L 158.4528 180.790252 
L 159.3456 184.359308 
L 159.4944 184.558451 
L 160.3872 188.206672 
L 160.536 188.420108 
L 161.28 191.440154 
L 161.4288 191.665286 
L 162.024 194.023153 
L 162.1728 194.257017 
L 162.9168 197.373459 
L 163.0656 197.618486 
L 163.512 199.323189 
L 163.6608 199.57397 
L 163.8096 201.748073 
L 163.9584 202.002228 
L 164.256 202.997744 
L 164.7024 203.783204 
L 164.8512 202.608811 
L 165 204.793893 
L 165.2976 205.33313 
L 165.4464 204.165275 
L 165.5952 205.875446 
L 165.8928 206.427794 
L 166.0416 206.427794 
L 166.1904 206.983458 
L 166.3392 206.983458 
L 167.0832 208.406574 
L 167.232 208.216041 
L 167.976 209.672953 
L 168.1248 209.490818 
L 168.2736 209.786917 
L 168.5712 210.687216 
L 168.72 210.512622 
L 169.0176 211.122183 
L 169.1664 210.950609 
L 169.3152 211.256951 
L 169.464 210.132597 
L 169.7616 210.752559 
L 169.9104 210.588245 
L 170.208 211.217426 
L 170.3568 211.05607 
L 170.6544 211.692853 
L 170.8032 211.536309 
L 170.952 211.859004 
L 171.1008 211.704992 
L 171.3984 212.355866 
L 171.5472 212.206609 
L 171.696 212.534444 
L 171.8448 212.387852 
L 172.1424 213.050627 
L 172.2912 212.906728 
L 172.44 213.241646 
L 172.5888 213.102058 
L 172.7376 213.439177 
L 172.8864 213.302046 
L 173.0352 213.641684 
L 173.184 214.936021 
L 173.3328 214.801868 
L 173.4816 213.717337 
L 173.6304 215.013966 
L 173.7792 214.884317 
L 173.928 215.231044 
L 174.2256 214.978627 
L 174.3744 215.331325 
L 174.5232 215.331325 
L 174.672 215.20854 
L 174.8208 215.563682 
L 175.1184 215.324911 
L 175.2672 215.682538 
L 175.5648 215.450775 
L 175.7136 215.812651 
L 176.0112 215.587848 
L 176.16 215.952166 
L 176.4576 215.734276 
L 176.6064 216.102788 
L 177.0528 215.787483 
L 177.2016 216.160352 
L 177.4992 215.958362 
L 177.648 216.335193 
L 178.0944 216.046334 
L 178.2432 216.427448 
L 178.8384 216.062742 
L 178.9872 216.448276 
L 179.4336 216.190007 
L 179.5824 216.579736 
L 180.1776 216.254261 
L 180.3264 216.650024 
L 180.7728 216.420018 
L 180.9216 217.767924 
L 182.2608 217.217774 
L 182.4096 217.627724 
L 183.7488 217.100049 
L 183.8976 217.519805 
L 184.344 217.367094 
L 184.4928 218.263589 
L 186.8736 217.565447 
L 187.0224 217.996033 
L 187.1712 217.482404 
L 187.32 217.441088 
L 187.4688 216.455417 
L 187.6176 216.886669 
L 188.064 216.764562 
L 188.2128 217.668271 
L 188.3616 216.684135 
L 188.5104 216.644087 
L 188.6592 217.548234 
L 190.296 217.15941 
L 190.4448 219.336741 
L 190.5936 219.336741 
L 190.7424 221.049617 
L 190.8912 221.202615 
L 191.9328 228.123887 
L 192.0816 228.75912 
L 192.3792 231.146134 
L 192.528 231.318279 
L 194.1648 238.192143 
L 194.3136 238.384898 
L 194.76 239.903127 
L 194.9088 240.100237 
L 195.3552 241.636192 
L 195.6528 242.043658 
L 195.9504 242.925289 
L 196.3968 243.556674 
L 196.6944 244.456536 
L 197.1408 245.111606 
L 197.2896 245.111606 
L 198.0336 246.244207 
L 198.1824 246.244207 
L 198.6288 246.943287 
L 198.7776 246.708627 
L 198.9264 246.947709 
L 199.0752 246.947709 
L 199.5216 247.677618 
L 199.6704 247.677618 
L 199.8192 247.453324 
L 200.1168 247.953326 
L 200.2656 247.734056 
L 200.712 248.500242 
L 200.8608 248.291324 
L 201.1584 248.812897 
L 201.3072 248.609323 
L 201.6048 249.141659 
L 201.7536 248.938825 
L 201.9024 249.210442 
L 202.0512 249.012983 
L 202.2 249.284637 
L 202.3488 249.092287 
L 202.4976 249.369223 
L 202.6464 249.177487 
L 202.944 249.738088 
L 203.0928 249.552028 
L 203.2416 249.835703 
L 203.3904 249.650272 
L 203.5392 249.938928 
L 203.688 249.75875 
L 203.8368 250.047898 
L 203.9856 249.873352 
L 204.1344 250.167982 
L 204.2832 249.993763 
L 204.5808 250.590541 
L 204.7296 250.422399 
L 204.8784 250.724047 
L 205.0272 250.561672 
L 205.176 250.868489 
L 205.3248 250.706468 
L 205.4736 251.014347 
L 205.6224 250.85816 
L 205.7712 251.171734 
L 205.92 251.015914 
L 206.2176 251.655587 
L 206.3664 251.506242 
L 206.5152 251.827143 
L 206.664 251.683451 
L 206.8128 252.009719 
L 206.9616 251.867315 
L 207.1104 252.19415 
L 207.2592 252.057481 
L 207.5568 252.72401 
L 207.7056 252.593903 
L 207.8544 252.933671 
L 208.0032 252.804307 
L 208.152 253.144193 
L 208.3008 253.0207 
L 208.4496 253.367232 
L 208.5984 253.244504 
L 208.7472 253.597151 
L 208.896 253.48036 
L 209.1936 254.188007 
L 209.3424 254.078197 
L 209.4912 254.438782 
L 209.64 254.329436 
L 209.7888 254.695774 
L 209.9376 254.593498 
L 210.0864 254.960483 
L 210.2352 254.858685 
L 210.384 255.232667 
L 210.5328 255.137203 
L 210.8304 255.886991 
L 210.9792 255.798781 
L 211.128 256.181039 
L 211.2768 256.093338 
L 212.1696 257.893347 
L 212.3184 257.820999 
L 212.7648 258.967037 
L 213.2112 258.843103 
L 213.36 259.25484 
L 213.5088 259.204121 
L 213.6576 259.623686 
L 213.9552 259.573556 
L 214.104 260.001045 
L 214.2528 259.958573 
L 214.4016 260.386562 
L 214.5504 260.345812 
L 214.6992 260.780495 
L 214.848 260.74655 
L 214.9968 261.18283 
L 215.1456 261.156095 
L 215.4432 262.044126 
L 215.592 262.01887 
L 215.7408 262.470717 
L 215.8896 262.45359 
L 216.0384 262.905702 
L 216.1872 262.895631 
L 216.336 263.355798 
L 216.4848 263.346735 
L 216.7824 264.276656 
L 216.9312 264.275611 
L 217.08 264.74538 
L 217.2288 264.752597 
L 217.3776 265.230068 
L 217.5264 265.23833 
L 217.6752 265.716692 
L 217.824 265.733171 
L 217.9728 266.219007 
L 218.1216 266.236553 
L 218.4192 267.219106 
L 218.568 267.245017 
L 218.7168 267.741778 
L 218.8656 267.776452 
L 219.0144 268.280268 
L 219.1632 268.315728 
L 219.312 268.821457 
L 219.4608 268.864819 
L 219.7584 269.893367 
L 219.9072 269.946396 
L 220.056 270.469304 
L 220.2048 270.523318 
L 220.3536 271.047601 
L 220.5024 271.109716 
L 220.6512 271.641937 
L 220.8 271.705928 
L 220.9488 272.247198 
L 221.0976 272.319377 
L 221.3952 273.405647 
L 221.544 273.486846 
L 221.6928 274.038945 
L 221.8416 274.122439 
L 221.9904 274.67604 
L 222.1392 274.767589 
L 222.288 275.329415 
L 222.4368 275.423311 
L 222.7344 276.566421 
L 222.8832 276.669624 
L 223.032 277.243721 
L 223.1808 277.356642 
L 223.3296 277.938516 
L 223.4784 278.052408 
L 223.6272 278.643934 
L 223.776 278.767184 
L 223.9248 279.359865 
L 224.0736 279.484763 
L 224.3712 280.691547 
L 224.52 280.826135 
L 225.264 283.593505 
L 225.5616 283.905909 
L 225.8592 284.708357 
L 226.008 284.708357 
L 226.1568 284.876551 
L 226.4544 285.700025 
L 227.0496 286.435055 
L 227.1984 286.154609 
L 227.496 286.535477 
L 227.6448 286.266081 
L 227.7936 286.466248 
L 227.9424 286.268921 
L 228.24 288.214884 
L 229.8768 296.074933 
L 230.0256 296.375683 
L 230.6208 299.00481 
L 230.7696 299.312167 
L 231.3648 302.003857 
L 231.5136 302.326678 
L 231.96 304.245612 
L 232.2576 304.91387 
L 232.704 306.880933 
L 232.8528 307.226377 
L 233.1504 308.389866 
L 233.2992 308.738812 
L 233.7456 310.735633 
L 234.0432 311.464785 
L 234.3408 312.671562 
L 234.6384 313.414801 
L 234.936 314.635895 
L 235.0848 315.01368 
L 235.3824 316.242417 
L 235.8288 317.411843 
L 236.1264 318.674643 
L 236.5728 319.856708 
L 236.8704 321.117007 
L 237.912 323.828192 
L 238.2096 325.066567 
L 240.2928 330.314359 
L 240.4416 330.213628 
L 241.632 333.088843 
L 241.7808 332.971559 
L 242.5248 334.726243 
L 242.6736 334.596422 
L 243.2688 335.976506 
L 243.4176 335.844214 
L 244.0128 337.193222 
L 244.1616 337.058311 
L 244.4592 337.71936 
L 244.608 337.57818 
L 245.0544 338.555297 
L 245.2032 338.409659 
L 245.5008 339.050196 
L 245.6496 338.890242 
L 245.9472 339.520186 
L 246.096 339.361997 
L 246.3936 339.979905 
L 246.5424 339.817199 
L 246.84 340.432532 
L 246.9888 340.263543 
L 247.1376 340.569076 
L 247.2864 340.392024 
L 247.584 340.992717 
L 247.7328 340.809367 
L 247.8816 341.102599 
L 248.0304 340.922738 
L 248.1792 341.217809 
L 248.328 341.03162 
L 248.6256 341.609623 
L 248.7744 341.41696 
L 248.9232 341.701644 
L 249.072 341.501079 
L 249.2208 341.77589 
L 249.3696 341.577018 
L 249.5184 341.855418 
L 249.6672 341.658253 
L 249.816 341.928693 
L 249.9648 341.725186 
L 250.1136 341.997451 
L 250.2624 341.78588 
L 250.4112 342.051936 
L 250.56 341.842043 
L 250.7088 342.100315 
L 250.8576 341.883933 
L 251.0064 342.145766 
L 251.1552 341.921307 
L 251.304 342.175179 
L 251.4528 341.954295 
L 251.6016 342.209815 
L 251.7504 341.980853 
L 251.8992 342.230165 
L 252.048 342.002851 
L 252.1968 342.244216 
L 252.3456 342.010575 
L 252.4944 342.253736 
L 252.792 341.771932 
L 252.9408 342.008883 
L 253.0896 341.760734 
L 253.2384 341.991462 
L 253.536 341.482393 
L 253.6848 341.705204 
L 253.8336 341.452259 
L 253.9824 341.669008 
L 254.28 341.150169 
L 254.4288 341.370229 
L 254.5776 341.104498 
L 254.7264 341.316789 
L 255.3216 340.422276 
L 255.4704 340.621943 
L 255.6192 340.343219 
L 255.768 340.535161 
L 255.9168 342.164511 
L 256.0656 339.964735 
L 256.2144 341.586655 
L 256.3632 341.772564 
L 256.6608 341.188057 
L 256.8096 341.367566 
L 257.1072 340.770317 
L 257.256 340.770317 
L 257.4048 339.02814 
L 257.7024 338.401478 
L 257.8512 338.568333 
L 258 337.936654 
L 258.1488 339.536636 
L 258.2976 339.697443 
L 258.4464 339.370678 
L 258.5952 339.370678 
L 258.744 337.603768 
L 259.1904 336.610746 
L 259.3392 336.759061 
L 259.6368 336.078723 
L 259.7856 336.220785 
L 260.232 335.190287 
L 260.3808 335.325934 
L 260.6784 334.619685 
L 260.8272 334.749078 
L 261.2736 333.668539 
L 261.4224 333.782247 
L 261.72 333.042112 
L 261.8688 333.149597 
L 262.3152 332.021943 
L 262.464 332.123336 
L 262.9104 330.96037 
L 263.0592 331.055318 
L 263.5056 329.861894 
L 263.6544 329.94129 
L 263.952 329.137752 
L 264.1008 329.210924 
L 264.5472 327.976625 
L 264.696 328.04525 
L 265.1424 326.783495 
L 265.2912 326.844146 
L 265.7376 325.545944 
L 265.8864 325.591174 
L 266.3328 324.271667 
L 266.4816 324.310644 
L 266.7792 323.413748 
L 266.928 323.446692 
L 267.3744 322.075834 
L 267.5232 322.102525 
L 267.9696 320.702871 
L 268.1184 320.714113 
L 268.5648 319.2859 
L 268.7136 319.290903 
L 269.0112 318.322291 
L 269.16 318.319672 
L 269.6064 316.841888 
L 269.7552 316.833207 
L 270.2016 315.325392 
L 270.3504 315.301468 
L 271.0944 312.69375 
L 271.2432 312.656075 
L 271.5408 311.600527 
L 271.6896 313.017086 
L 271.8384 312.484747 
L 271.9872 312.441187 
L 272.4336 310.824019 
L 272.5824 310.774073 
L 273.0288 309.137417 
L 273.1776 309.071307 
L 273.4752 307.965511 
L 273.624 307.893296 
L 274.6656 304.32247 
L 274.8144 305.696418 
L 275.112 304.532414 
L 275.2608 304.439511 
L 275.7072 302.671806 
L 275.856 302.564196 
L 276.3024 300.76632 
L 276.4512 300.652575 
L 277.7904 295.462138 
L 277.9392 296.79207 
L 278.088 294.686057 
L 278.2368 296.017504 
L 278.3856 293.420829 
L 278.5344 294.744596 
L 278.6832 294.594905 
L 279.576 291.194509 
L 279.7248 291.031818 
L 281.064 285.300133 
L 281.2128 285.109228 
L 281.9568 282.148195 
L 282.1056 283.423391 
L 282.8496 280.405709 
L 282.9984 280.187437 
L 283.7424 276.372346 
L 283.8912 277.623544 
L 284.04 277.39172 
L 285.2304 271.760597 
L 285.3792 271.508725 
L 285.528 271.995408 
L 285.6768 271.240566 
L 285.9744 273.437451 
L 286.1232 271.92239 
L 286.4208 274.102355 
L 286.5696 272.574353 
L 286.7184 273.789914 
L 286.8672 273.518216 
L 287.016 273.960867 
L 287.1648 273.960867 
L 287.3136 272.909504 
L 287.4624 270.14401 
L 287.6112 271.348271 
L 287.76 271.063573 
L 288.504 267.621162 
L 288.6528 267.323663 
L 288.8016 265.727653 
L 288.9504 265.727653 
L 289.0992 264.622703 
L 289.248 265.803878 
L 289.3968 265.493203 
L 290.2896 260.800403 
L 290.4384 260.800403 
L 290.5872 259.655586 
L 290.736 259.655586 
L 290.8848 258.009564 
L 291.0336 258.009564 
L 291.3312 256.538166 
L 291.48 255.715611 
L 291.6288 256.888142 
L 291.7776 256.065852 
L 291.9264 253.746732 
L 292.0752 254.920682 
L 292.224 252.601241 
L 292.3728 253.7761 
L 292.5216 253.453441 
L 293.1168 250.666622 
L 293.2656 250.344923 
L 293.712 248.381454 
L 293.8608 248.060689 
L 294.1584 246.098816 
L 294.3072 245.77864 
L 294.7536 243.818363 
L 294.9024 243.498956 
L 295.0512 243.498956 
L 295.3488 241.54028 
L 295.4976 242.724725 
L 295.6464 242.406391 
L 295.944 241.268935 
L 296.0928 240.950998 
L 296.5392 238.99564 
L 296.688 238.678476 
L 297.1344 236.408518 
L 297.2832 236.408518 
L 297.432 236.092307 
L 297.5808 234.958444 
L 297.7296 234.958444 
L 297.8784 233.825177 
L 298.0272 235.01716 
L 298.176 232.692172 
L 298.3248 232.377487 
L 298.4736 233.570772 
L 298.6224 233.25623 
L 299.0688 231.308314 
L 299.3664 230.681148 
L 299.664 229.551523 
L 299.8128 229.238523 
L 300.2592 226.981616 
L 300.408 228.180635 
L 300.5568 227.868911 
L 300.7056 225.54197 
L 300.8544 226.742292 
L 301.0032 224.919171 
L 301.152 226.120275 
L 301.3008 223.79286 
L 301.4496 224.994881 
L 301.5984 224.68433 
L 301.896 223.559594 
L 302.1936 222.94002 
L 302.4912 221.816516 
L 302.64 221.50732 
L 302.9376 220.076298 
L 303.0864 221.283026 
L 303.2352 221.283026 
L 303.5328 218.338604 
L 303.6816 218.338604 
L 303.9792 216.910845 
L 304.128 218.120584 
L 304.4256 217.507085 
L 304.7232 216.388536 
L 305.1696 215.470816 
L 305.4672 214.353824 
L 305.7648 213.743814 
L 306.0624 212.628074 
L 306.36 211.715599 
L 306.5088 211.411764 
L 306.6576 210.601339 
L 306.8064 211.818686 
L 306.9552 209.994575 
L 307.104 209.691524 
L 307.2528 210.910054 
L 307.5504 210.304967 
L 307.6992 209.495445 
L 307.848 210.41355 
L 307.9968 208.589537 
L 308.1456 208.287979 
L 308.2944 209.509402 
L 308.592 208.907306 
L 308.8896 207.798179 
L 309.0384 207.497736 
L 309.1872 208.421584 
L 309.336 206.597475 
L 309.4848 207.822188 
L 309.6336 207.522826 
L 309.9312 206.416238 
L 310.08 207.343724 
L 310.5264 206.448644 
L 310.6752 207.37862 
L 310.824 207.081093 
L 311.1216 205.680586 
L 311.2704 205.383852 
L 311.4192 206.613972 
L 311.568 206.317392 
L 311.8656 204.803062 
L 312.0144 201.921384 
L 312.1632 201.922419 
L 312.4608 198.867631 
L 312.7584 194.28201 
L 312.9072 195.516226 
L 313.056 195.220763 
L 313.5024 191.230349 
L 313.6512 190.382944 
L 313.8 190.382944 
L 313.9488 188.851982 
L 314.3952 181.490544 
L 314.544 181.490544 
L 315.1392 175.282552 
L 315.4368 173.585861 
L 315.5856 172.393108 
L 315.7344 172.393108 
L 315.8832 171.07636 
L 316.1808 166.688236 
L 316.3296 166.688236 
L 316.4784 165.37137 
L 316.776 161.491157 
L 316.9248 161.491157 
L 317.3712 155.549226 
L 317.52 155.770747 
L 317.6688 155.770747 
L 317.8176 154.453829 
L 317.9664 151.405594 
L 318.1152 151.405594 
L 318.5616 142.207624 
L 319.008 142.207624 
L 319.1568 142.393765 
L 319.3056 142.393765 
L 319.6032 131.434285 
L 319.752 130.405178 
L 319.9008 130.630215 
L 320.496 127.042868 
L 320.6448 127.042868 
L 320.9424 122.965408 
L 321.0912 122.965408 
L 321.24 122.391598 
L 321.5376 120.727912 
L 321.6864 120.15344 
L 321.8352 117.578394 
L 321.984 117.578394 
L 322.1328 115.616099 
L 322.2816 115.497969 
L 322.4304 114.922908 
L 323.0256 106.258065 
L 323.1744 105.681584 
L 323.3232 104.588854 
L 323.472 104.588854 
L 323.7696 101.307265 
L 324.216 98.83114 
L 324.3648 96.231956 
L 324.5136 96.231956 
L 324.96 94.681648 
L 325.4064 86.617894 
L 325.5552 86.617894 
L 325.8528 85.5372 
L 326.0016 84.844164 
L 326.2992 85.528394 
L 326.7456 85.40504 
L 326.8944 85.40504 
L 327.4896 78.855023 
L 327.6384 78.855023 
L 327.7872 78.68733 
L 327.936 78.68733 
L 328.3824 78.91521 
L 328.5312 78.91521 
L 328.68 79.43313 
L 329.2752 79.43313 
L 329.7216 75.42211 
L 329.8704 75.42211 
L 330.0192 75.940316 
L 330.168 75.940316 
L 330.3168 76.458309 
L 330.7632 79.325712 
L 330.912 79.098405 
L 331.0608 79.098405 
L 331.2096 79.388944 
L 331.5072 76.240412 
L 331.656 75.895049 
L 331.8048 75.895049 
L 331.9536 76.186037 
L 332.1024 76.186037 
L 332.2512 76.703927 
L 332.4 76.590292 
L 332.5488 76.994695 
L 332.6976 76.767425 
L 332.8464 77.285256 
L 332.9952 77.285256 
L 333.2928 77.86632 
L 333.4416 77.86632 
L 333.5904 78.384232 
L 333.7392 78.384232 
L 333.888 77.334194 
L 334.0368 77.640551 
L 334.1856 77.527122 
L 334.4832 78.108959 
L 334.7808 78.108959 
L 334.9296 78.690707 
L 335.0784 78.690707 
L 335.2272 79.208457 
L 335.5248 79.27219 
L 335.8224 79.966992 
L 336.12 77.354441 
L 336.2688 77.354441 
L 336.5664 79.625226 
L 336.864 80.320403 
L 337.0128 80.320403 
L 337.1616 80.837933 
L 337.3104 80.789105 
L 337.4592 81.19339 
L 337.608 80.966657 
L 337.7568 80.966657 
L 338.0544 82.065655 
L 338.352 82.065655 
L 338.5008 81.02488 
L 338.6496 81.203976 
L 339.096 82.529406 
L 339.2448 82.820519 
L 339.3936 82.594573 
L 339.9888 83.984243 
L 340.1376 83.531889 
L 340.4352 84.339634 
L 340.7328 85.147092 
L 341.0304 87.546742 
L 341.1792 87.837391 
L 341.6256 84.640944 
L 342.072 85.739589 
L 342.2208 85.513592 
L 342.6672 86.612023 
L 342.816 87.128575 
L 343.1136 90.041472 
L 343.2624 90.558023 
L 343.4112 90.332438 
L 343.8576 91.204505 
L 344.0064 91.204505 
L 344.304 91.785539 
L 344.4528 91.559638 
L 344.7504 92.366493 
L 344.8992 92.366493 
L 345.048 91.350142 
L 345.4944 92.534054 
L 345.6432 92.308734 
L 345.792 92.374181 
L 346.0896 93.181124 
L 346.2384 93.471465 
L 346.536 93.536684 
L 346.6848 93.939983 
L 346.8336 93.939983 
L 346.9824 94.633504 
L 347.1312 94.520701 
L 347.4288 97.541922 
L 347.5776 98.057612 
L 347.7264 97.83238 
L 348.024 98.638455 
L 348.1728 98.413245 
L 348.4704 99.219217 
L 348.6192 98.993846 
L 348.768 99.509566 
L 349.2144 96.318268 
L 349.3632 96.608866 
L 349.512 96.383707 
L 349.6608 96.899273 
L 349.9584 100.029082 
L 350.1072 100.544632 
L 350.4048 100.610079 
L 350.7024 101.190827 
L 350.8512 100.965896 
L 351.1488 101.771479 
L 351.2976 102.061783 
L 351.4464 102.061783 
L 351.744 102.642133 
L 351.8928 102.416894 
L 352.1904 105.770088 
L 352.3392 105.545216 
L 352.6368 106.350438 
L 352.7856 106.125589 
L 352.9344 106.640668 
L 353.0832 106.415826 
L 353.232 106.705873 
L 353.3808 106.480862 
L 353.6784 107.510889 
L 353.8272 107.285892 
L 353.976 107.800685 
L 354.2736 107.865485 
L 354.4224 108.155244 
L 354.5712 107.161501 
L 354.72 107.222012 
L 355.0176 108.027175 
L 355.1664 107.802583 
L 355.6128 107.868074 
L 355.9104 108.785563 
L 356.0592 108.673098 
L 356.3568 109.253102 
L 356.5056 109.253102 
L 356.8032 110.057735 
L 356.952 109.833026 
L 357.2496 110.637372 
L 357.3984 110.412501 
L 357.696 113.759986 
L 357.8448 113.535659 
L 357.9936 114.049907 
L 358.1424 113.825411 
L 358.2912 114.115317 
L 358.44 114.115317 
L 358.5888 114.405379 
L 358.7376 114.180728 
L 358.8864 114.694888 
L 359.0352 114.694888 
L 359.184 114.984728 
L 359.3328 114.760092 
L 359.4816 115.274201 
L 359.6304 115.274201 
L 359.7792 115.563821 
L 359.928 115.339199 
L 360.0768 115.853249 
L 360.2256 115.853249 
L 360.3744 116.142832 
L 360.5232 116.142832 
L 360.672 116.432216 
L 361.1184 119.264129 
L 361.2672 119.553734 
L 361.416 119.329333 
L 361.5648 119.329333 
L 361.7136 119.618739 
L 362.0112 119.618739 
L 362.16 120.132694 
L 362.3088 119.908308 
L 362.4576 120.422056 
L 362.6064 120.422056 
L 362.7552 120.197677 
L 362.904 120.487025 
L 363.0528 120.487025 
L 363.2016 121.000714 
L 363.3504 121.000714 
L 363.4992 120.776181 
L 363.648 121.290017 
L 363.7968 121.065661 
L 363.9456 121.579291 
L 364.0944 121.579291 
L 364.2432 121.354596 
L 364.392 121.868374 
L 364.5408 121.643856 
L 364.8384 124.642388 
L 364.9872 124.987993 
L 365.136 124.987993 
L 365.2848 124.763674 
L 365.4336 124.763674 
L 365.5824 125.053139 
L 365.88 125.053139 
L 366.0288 125.566527 
L 366.1776 125.342045 
L 366.3264 125.342045 
L 366.4752 125.85558 
L 366.624 125.631466 
L 366.7728 125.631466 
L 366.9216 125.920328 
L 367.2192 125.920328 
L 367.368 126.433811 
L 367.5168 126.209528 
L 367.6656 126.209528 
L 367.8144 126.722806 
L 367.9632 126.498354 
L 368.112 126.498354 
L 368.2608 126.787341 
L 368.5584 126.787341 
L 368.7072 127.300552 
L 368.856 127.076122 
L 369.0048 127.076122 
L 369.1536 127.365057 
L 369.3024 127.365057 
L 369.4512 127.878393 
L 369.6 127.653801 
L 369.7488 127.653801 
L 369.8976 127.942347 
L 370.1952 127.942347 
L 370.344 128.455617 
L 370.4928 128.23104 
L 370.6416 128.744111 
L 370.7904 128.744111 
L 370.9392 128.519541 
L 371.088 128.808205 
L 371.3856 128.808205 
L 371.5344 129.32121 
L 371.6832 129.096485 
L 371.832 129.609641 
L 371.9808 129.609641 
L 372.1296 129.385097 
L 372.2784 129.898047 
L 372.4272 129.673337 
L 372.576 130.186438 
L 372.7248 130.186438 
L 372.8736 129.961736 
L 373.0224 130.474804 
L 373.1712 130.249936 
L 373.32 130.762797 
L 373.4688 130.762797 
L 373.6176 131.050946 
L 373.7664 131.050946 
L 373.9152 130.826269 
L 374.2128 133.658285 
L 374.3616 133.658285 
L 374.5104 134.171143 
L 374.6592 133.946661 
L 374.808 133.946661 
L 374.9568 134.459309 
L 375.1056 134.234835 
L 375.4032 134.234835 
L 375.552 134.523167 
L 375.8496 134.523167 
L 375.9984 135.03576 
L 376.1472 134.811124 
L 376.4448 134.811124 
L 376.5936 135.099416 
L 376.8912 135.099416 
L 377.04 135.612123 
L 377.1888 135.387506 
L 377.3376 135.387506 
L 377.4864 135.900011 
L 377.6352 135.675224 
L 377.784 135.675224 
L 377.9328 136.187876 
L 378.0816 135.963273 
L 378.2304 135.963273 
L 378.3792 136.475719 
L 378.528 136.251127 
L 378.6768 136.251127 
L 378.8256 136.76372 
L 378.9744 136.538959 
L 379.1232 136.538959 
L 379.272 137.051346 
L 379.7184 139.882063 
L 379.8672 139.65767 
L 380.1648 139.65767 
L 380.3136 139.433276 
L 380.4624 139.433276 
L 380.6112 139.94552 
L 381.0576 139.94552 
L 381.2064 140.233525 
L 381.6528 140.233525 
L 381.8016 140.008973 
L 381.9504 140.521158 
L 382.3968 140.521158 
L 382.5456 140.809123 
L 382.992 140.809123 
L 383.1408 141.096888 
L 383.5872 141.096888 
L 383.736 141.384459 
L 384.0336 141.384459 
L 384.1824 141.896692 
L 384.3312 141.672181 
L 384.7776 141.672181 
L 384.9264 141.959535 
L 385.224 141.959535 
L 385.3728 142.359376 
L 385.6704 142.247216 
L 385.8192 142.646854 
L 385.968 142.646854 
L 386.1168 143.882791 
L 386.4144 148.102526 
L 386.5632 149.119885 
L 386.712 149.119885 
L 386.8608 148.89523 
L 387.1584 148.89523 
L 387.3072 148.383325 
L 387.6048 148.383325 
L 388.0512 148.607991 
L 388.944 148.607991 
L 389.0928 149.119885 
L 389.3904 149.119885 
L 389.5392 148.89523 
L 391.3248 148.89523 
L 391.4736 149.406919 
L 392.0688 149.406919 
L 392.2176 149.182448 
L 392.8128 149.182448 
L 392.9616 149.694284 
L 393.2592 149.694284 
L 393.408 149.469647 
L 393.8544 149.469647 
L 394.0032 149.981453 
L 394.3008 149.981453 
L 394.4496 149.756825 
L 394.5984 149.756825 
L 394.7472 150.268425 
L 395.3424 150.268425 
L 395.4912 150.043803 
L 396.0864 154.309439 
L 396.2352 154.309439 
L 396.384 154.084472 
L 399.6576 154.084472 
L 399.8064 154.595877 
L 400.104 154.595877 
L 400.5504 154.371097 
L 401.1456 154.371097 
L 401.2944 154.882646 
L 401.7408 154.882646 
L 401.8896 154.65752 
L 402.336 154.65752 
L 402.4848 155.168866 
L 403.08 155.168866 
L 403.2288 154.943925 
L 403.5264 154.943925 
L 403.6752 155.455418 
L 403.824 155.455418 
L 404.2704 158.982585 
L 408.8832 158.982585 
L 409.032 159.493733 
L 409.4784 159.493733 
L 409.6272 159.268456 
L 410.0736 159.268456 
L 410.3712 161.737417 
L 410.6688 161.817713 
L 411.4128 161.817713 
L 411.5616 163.052192 
L 412.1568 163.020243 
L 413.3472 163.020243 
L 413.496 162.509226 
L 413.7936 162.509226 
L 414.24 162.734686 
L 415.2816 162.734686 
L 415.4304 163.245695 
L 415.728 163.245695 
L 415.8768 163.020243 
L 417.3648 163.020243 
L 417.6624 165.572142 
L 418.1088 165.572142 
L 418.4064 163.020243 
L 418.5552 163.020243 
L 419.2992 169.192642 
L 419.448 169.326571 
L 419.5968 166.772029 
L 419.7456 166.26115 
L 420.192 166.26115 
L 420.3408 166.486963 
L 425.5488 166.486963 
L 425.6976 166.997835 
L 426.2928 166.997835 
L 426.4416 166.772029 
L 426.888 170.475469 
L 427.1856 170.523815 
L 427.3344 170.013074 
L 427.7808 170.013074 
L 427.9296 170.239064 
L 428.5248 170.239064 
L 428.6736 169.728117 
L 429.12 169.728117 
L 429.2688 169.954114 
L 430.4592 169.954114 
L 430.608 169.443314 
L 431.0544 169.443314 
L 431.2032 169.669321 
L 432.84 169.669321 
L 432.9888 170.180113 
L 433.4352 170.180113 
L 433.584 169.954114 
L 434.0304 169.954114 
L 434.328 173.706706 
L 434.4768 173.196044 
L 435.072 173.196044 
L 435.2208 173.422227 
L 435.3696 173.422227 
L 435.5184 172.911359 
L 436.1136 172.911359 
L 436.2624 173.137549 
L 436.8576 173.137549 
L 437.0064 172.62683 
L 437.4528 172.62683 
L 437.6016 172.852853 
L 438.792 172.852853 
L 438.9408 172.341926 
L 439.3872 172.341926 
L 439.536 172.568135 
L 442.512 172.568135 
L 442.9584 176.273954 
L 443.1072 176.322161 
L 443.256 175.812061 
L 443.8512 175.924716 
L 444.1488 176.038452 
L 444.2976 175.528146 
L 444.744 175.529671 
L 444.8928 175.75329 
L 445.0416 175.242955 
L 445.6368 175.24448 
L 445.7856 175.468824 
L 446.3808 175.470444 
L 446.5296 174.960255 
L 446.976 174.961779 
L 447.1248 175.184161 
L 448.3152 175.187938 
L 448.464 174.677543 
L 449.0592 174.679068 
L 449.208 174.900016 
L 451.1424 174.90595 
L 451.44 172.33561 
L 451.7376 172.33561 
L 452.3328 177.279348 
L 452.4816 177.279348 
L 452.6304 178.515282 
L 452.928 178.65597 
L 453.0768 178.656512 
L 453.3744 175.578173 
L 453.672 175.578173 
L 454.1184 175.804961 
L 455.3088 175.804961 
L 455.4576 175.294012 
L 456.0528 175.294012 
L 456.2016 175.520808 
L 457.6896 175.520808 
L 457.8384 176.031747 
L 458.2848 176.031747 
L 458.4336 175.804961 
L 462.0048 175.804961 
L 462.1536 177.041028 
L 462.3024 177.041028 
L 462.6 179.513161 
L 463.0464 179.558582 
L 463.344 179.558582 
L 463.4928 179.047772 
L 464.088 179.047772 
L 464.2368 179.274743 
L 464.5344 179.274743 
L 464.6832 178.76408 
L 465.1296 178.76408 
L 465.576 178.99106 
L 465.8736 178.99106 
L 466.0224 178.480191 
L 466.4688 178.480191 
L 466.9152 178.707356 
L 467.808 178.707356 
L 467.9568 178.196634 
L 468.2544 178.196634 
L 468.4032 178.423454 
L 473.1648 178.423454 
L 473.6112 182.133242 
L 473.9088 182.17893 
L 474.0576 181.668384 
L 474.3552 181.668828 
L 474.504 181.895079 
L 474.6528 181.895323 
L 474.8016 181.384747 
L 475.248 181.385414 
L 475.3968 181.61145 
L 475.5456 181.611694 
L 475.6944 181.101266 
L 476.1408 181.101932 
L 476.2896 181.327802 
L 476.736 181.32853 
L 476.8848 180.817897 
L 477.3312 180.818562 
L 477.48 181.043954 
L 477.9264 181.044684 
L 478.0752 180.534197 
L 478.5216 180.534863 
L 478.6704 180.760263 
L 479.8608 180.762208 
L 480.0096 180.251515 
L 480.456 180.249328 
L 480.6048 180.476551 
L 486.8544 180.486754 
L 487.3008 184.198923 
L 487.4496 183.7232 
L 487.7472 181.147262 
L 487.896 181.374846 
L 497.568 181.374846 
L 497.7168 181.885582 
L 498.0144 184.360362 
L 498.312 184.461316 
L 498.4608 183.950919 
L 498.7584 181.147262 
L 498.9072 181.147262 
L 499.056 181.374846 
L 499.8 181.374846 
L 499.9488 181.885582 
L 500.2464 184.233849 
L 500.544 184.234337 
L 500.6928 183.723931 
L 500.9904 181.147262 
L 501.1392 181.147262 
L 501.288 181.374846 
L 501.4368 181.374846 
L 501.7344 184.360362 
L 502.032 184.461316 
L 502.1808 184.902051 
L 502.4784 184.902051 
L 502.6272 185.129989 
L 503.2224 185.129989 
L 503.3712 184.619177 
L 503.6688 184.619177 
L 503.8176 184.846946 
L 504.4128 184.846946 
L 504.5616 184.336282 
L 504.8592 184.336282 
L 505.008 184.564059 
L 506.1984 184.564059 
L 506.3472 184.053189 
L 506.6448 184.053189 
L 506.7936 184.281151 
L 508.5792 184.281151 
L 508.728 183.770428 
L 509.1744 183.770428 
L 509.3232 183.998046 
L 518.4 183.998046 
L 518.4 183.998046 
" style="fill:none;stroke:#008000;stroke-linecap:square;"/>
   </g>
   <g id="line2d_2">
    <path clip-path="url(#p22bbb3b03b)" d="M 72.1488 191.314286 
L 92.6832 191.215495 
L 93.7248 190.882032 
L 94.32 190.511831 
L 96.2544 189.279751 
L 97.8912 187.821942 
L 99.6768 185.931516 
L 101.76 183.388433 
L 104.1408 180.115881 
L 106.968 175.833762 
L 109.944 171.001261 
L 110.0928 170.500308 
L 110.2416 170.500308 
L 116.0448 160.577515 
L 123.336 148.22723 
L 127.5024 141.619693 
L 131.0736 136.361569 
L 134.3472 131.930829 
L 134.6448 131.547115 
L 134.9424 130.971215 
L 136.1328 129.471644 
L 136.2816 129.471644 
L 139.2576 126.038738 
L 141.936 123.273471 
L 145.656 119.834878 
L 149.2272 117.193907 
L 151.608 115.887584 
L 153.2448 115.231597 
L 155.328 114.532072 
L 157.8576 114.004868 
L 160.536 113.689293 
L 162.6192 113.728991 
L 164.5536 113.985674 
L 167.8272 114.697669 
L 171.5472 115.821945 
L 176.7552 117.573267 
L 186.576 121.26624 
L 191.3376 123.169974 
L 191.784 123.479119 
L 192.8256 124.171192 
L 193.8672 124.949428 
L 196.5456 126.92977 
L 198.0336 128.004027 
L 198.1824 128.004027 
L 199.5216 128.988412 
L 199.6704 128.988412 
L 205.0272 133.594967 
L 210.2352 138.341834 
L 211.2768 139.33714 
L 211.5744 139.769428 
L 212.4672 140.648061 
L 212.7648 141.093622 
L 213.6576 141.842865 
L 213.8064 141.842865 
L 217.5264 145.766411 
L 220.9488 149.702689 
L 224.0736 153.63041 
L 224.8176 154.61964 
L 225.1152 155.22362 
L 225.8592 156.247858 
L 226.008 156.247858 
L 229.5792 161.394559 
L 232.2576 165.72399 
L 235.0848 170.718018 
L 238.3584 176.990622 
L 242.2272 184.943612 
L 247.2864 195.911357 
L 255.024 213.097531 
L 255.3216 214.082001 
L 257.1072 218.02885 
L 257.256 218.02885 
L 257.8512 219.323086 
L 258.1488 220.292996 
L 258.4464 220.943773 
L 258.5952 220.943773 
L 263.3568 230.968391 
L 267.672 239.528744 
L 273.1776 249.816277 
L 273.9216 251.089671 
L 274.2192 251.842232 
L 279.2784 260.099635 
L 283.296 265.842407 
L 283.4448 266.032899 
L 283.7424 266.594879 
L 285.3792 268.777691 
L 285.8256 269.659749 
L 285.9744 269.839007 
L 286.5696 271.08624 
L 286.8672 271.44564 
L 287.016 271.803723 
L 287.1648 271.803723 
L 287.4624 272.329198 
L 290.8848 276.345523 
L 291.0336 276.345523 
L 291.3312 276.775387 
L 294.7536 279.865513 
L 297.5808 281.968141 
L 297.7296 281.968141 
L 298.0272 282.249161 
L 301.5984 284.294244 
L 304.5744 285.604356 
L 307.5504 286.582701 
L 312.9072 287.91317 
L 314.2464 287.891246 
L 316.3296 287.512784 
L 319.4544 286.33787 
L 319.752 285.688446 
L 322.8768 282.779411 
L 323.3232 282.220984 
L 323.472 282.220984 
L 325.4064 279.741004 
L 325.5552 279.741004 
L 326.5968 278.134158 
L 326.7456 278.134158 
L 329.1264 274.517785 
L 329.2752 274.517785 
L 330.6144 272.280775 
L 330.7632 272.280775 
L 331.9536 270.3052 
L 332.1024 270.3052 
L 333.5904 267.833026 
L 333.7392 267.833026 
L 334.632 266.355184 
L 334.7808 266.355184 
L 335.376 265.380414 
L 335.5248 265.380414 
L 336.12 264.404372 
L 336.2688 264.404372 
L 336.864 263.436849 
L 337.0128 263.436849 
L 337.608 262.479192 
L 337.7568 262.479192 
L 338.2032 261.767094 
L 338.352 261.767094 
L 342.5184 255.268259 
L 346.2384 249.622036 
L 346.3872 249.622036 
L 346.6848 248.986365 
L 346.8336 248.986365 
L 350.5536 243.932182 
L 355.3152 237.790934 
L 355.464 237.790934 
L 358.8864 233.798446 
L 362.6064 229.79852 
L 366.3264 226.086651 
L 372.2784 220.550562 
L 375.8496 217.480615 
L 380.76 213.580734 
L 384.6288 210.729976 
L 384.7776 210.729976 
L 385.0752 210.301188 
L 387.3072 208.807182 
L 387.6048 208.713935 
L 396.0864 203.540345 
L 407.6928 197.394537 
L 416.6208 193.09878 
L 417.0672 192.85294 
L 422.424 190.709838 
L 422.8704 190.60198 
L 430.608 187.912739 
L 433.7328 186.835574 
L 434.4768 186.449282 
L 443.8512 184.081789 
L 453.3744 182.060162 
L 453.9696 181.958364 
L 458.136 181.107083 
L 458.7312 181.006025 
L 462.4512 180.272986 
L 480.0096 177.359556 
L 491.3184 175.645073 
L 502.4784 174.134101 
L 511.8528 173.178286 
L 518.4 172.479173 
L 518.4 172.479173 
" style="fill:none;stroke:#0000ff;stroke-linecap:square;"/>
   </g>
   <g id="patch_3">
    <path d="M 72 43.2 
L 518.4 43.2 
" style="fill:none;stroke:#000000;stroke-linecap:square;stroke-linejoin:miter;"/>
   </g>
   <g id="patch_4">
    <path d="M 518.4 388.8 
L 518.4 43.2 
" style="fill:none;stroke:#000000;stroke-linecap:square;stroke-linejoin:miter;"/>
   </g>
   <g id="patch_5">
    <path d="M 72 388.8 
L 518.4 388.8 
" style="fill:none;stroke:#000000;stroke-linecap:square;stroke-linejoin:miter;"/>
   </g>
   <g id="patch_6">
    <path d="M 72 388.8 
L 72 43.2 
" style="fill:none;stroke:#000000;stroke-linecap:square;stroke-linejoin:miter;"/>
   </g>
   <g id="matplotlib.axis_1">
    <g id="xtick_1">
     <g id="line2d_3">
      <path clip-path="url(#p22bbb3b03b)" d="M 72 388.8 
L 72 43.2 
" style="fill:none;stroke:#000000;stroke-dasharray:1.000000,3.000000;stroke-dashoffset:0.0;stroke-width:0.5;"/>
     </g>
     <g id="line2d_4">
      <defs>
       <path d="M 0 0 
L 0 -4 
" id="md6c4eb483d" style="stroke:#000000;stroke-width:0.5;"/>
      </defs>
      <g>
       <use style="stroke:#000000;stroke-width:0.5;" x="72.0" xlink:href="#md6c4eb483d" y="388.8"/>
      </g>
     </g>
     <g id="line2d_5">
      <defs>
       <path d="M 0 0 
L 0 4 
" id="m375d9b3dcc" style="stroke:#000000;stroke-width:0.5;"/>
      </defs>
      <g>
       <use style="stroke:#000000;stroke-width:0.5;" x="72.0" xlink:href="#m375d9b3dcc" y="43.2"/>
      </g>
     </g>
     <g id="text_1">
      <!-- 0 -->
      <defs>
       <path d="M 31.78125 66.40625 
Q 24.171875 66.40625 20.328125 58.90625 
Q 16.5 51.421875 16.5 36.375 
Q 16.5 21.390625 20.328125 13.890625 
Q 24.171875 6.390625 31.78125 6.390625 
Q 39.453125 6.390625 43.28125 13.890625 
Q 47.125 21.390625 47.125 36.375 
Q 47.125 51.421875 43.28125 58.90625 
Q 39.453125 66.40625 31.78125 66.40625 
M 31.78125 74.21875 
Q 44.046875 74.21875 50.515625 64.515625 
Q 56.984375 54.828125 56.984375 36.375 
Q 56.984375 17.96875 50.515625 8.265625 
Q 44.046875 -1.421875 31.78125 -1.421875 
Q 19.53125 -1.421875 13.0625 8.265625 
Q 6.59375 17.96875 6.59375 36.375 
Q 6.59375 54.828125 13.0625 64.515625 
Q 19.53125 74.21875 31.78125 74.21875 
" id="BitstreamVeraSans-Roman-30"/>
      </defs>
      <g transform="translate(68.1825 401.918125)scale(0.12 -0.12)">
       <use xlink:href="#BitstreamVeraSans-Roman-30"/>
      </g>
     </g>
    </g>
    <g id="xtick_2">
     <g id="line2d_6">
      <path clip-path="url(#p22bbb3b03b)" d="M 146.4 388.8 
L 146.4 43.2 
" style="fill:none;stroke:#000000;stroke-dasharray:1.000000,3.000000;stroke-dashoffset:0.0;stroke-width:0.5;"/>
     </g>
     <g id="line2d_7">
      <g>
       <use style="stroke:#000000;stroke-width:0.5;" x="146.4" xlink:href="#md6c4eb483d" y="388.8"/>
      </g>
     </g>
     <g id="line2d_8">
      <g>
       <use style="stroke:#000000;stroke-width:0.5;" x="146.4" xlink:href="#m375d9b3dcc" y="43.2"/>
      </g>
     </g>
     <g id="text_2">
      <!-- 5 -->
      <defs>
       <path d="M 10.796875 72.90625 
L 49.515625 72.90625 
L 49.515625 64.59375 
L 19.828125 64.59375 
L 19.828125 46.734375 
Q 21.96875 47.46875 24.109375 47.828125 
Q 26.265625 48.1875 28.421875 48.1875 
Q 40.625 48.1875 47.75 41.5 
Q 54.890625 34.8125 54.890625 23.390625 
Q 54.890625 11.625 47.5625 5.09375 
Q 40.234375 -1.421875 26.90625 -1.421875 
Q 22.3125 -1.421875 17.546875 -0.640625 
Q 12.796875 0.140625 7.71875 1.703125 
L 7.71875 11.625 
Q 12.109375 9.234375 16.796875 8.0625 
Q 21.484375 6.890625 26.703125 6.890625 
Q 35.15625 6.890625 40.078125 11.328125 
Q 45.015625 15.765625 45.015625 23.390625 
Q 45.015625 31 40.078125 35.4375 
Q 35.15625 39.890625 26.703125 39.890625 
Q 22.75 39.890625 18.8125 39.015625 
Q 14.890625 38.140625 10.796875 36.28125 
z
" id="BitstreamVeraSans-Roman-35"/>
      </defs>
      <g transform="translate(142.5825 401.918125)scale(0.12 -0.12)">
       <use xlink:href="#BitstreamVeraSans-Roman-35"/>
      </g>
     </g>
    </g>
    <g id="xtick_3">
     <g id="line2d_9">
      <path clip-path="url(#p22bbb3b03b)" d="M 220.8 388.8 
L 220.8 43.2 
" style="fill:none;stroke:#000000;stroke-dasharray:1.000000,3.000000;stroke-dashoffset:0.0;stroke-width:0.5;"/>
     </g>
     <g id="line2d_10">
      <g>
       <use style="stroke:#000000;stroke-width:0.5;" x="220.8" xlink:href="#md6c4eb483d" y="388.8"/>
      </g>
     </g>
     <g id="line2d_11">
      <g>
       <use style="stroke:#000000;stroke-width:0.5;" x="220.8" xlink:href="#m375d9b3dcc" y="43.2"/>
      </g>
     </g>
     <g id="text_3">
      <!-- 10 -->
      <defs>
       <path d="M 12.40625 8.296875 
L 28.515625 8.296875 
L 28.515625 63.921875 
L 10.984375 60.40625 
L 10.984375 69.390625 
L 28.421875 72.90625 
L 38.28125 72.90625 
L 38.28125 8.296875 
L 54.390625 8.296875 
L 54.390625 0 
L 12.40625 0 
z
" id="BitstreamVeraSans-Roman-31"/>
      </defs>
      <g transform="translate(213.165 401.918125)scale(0.12 -0.12)">
       <use xlink:href="#BitstreamVeraSans-Roman-31"/>
       <use x="63.623046875" xlink:href="#BitstreamVeraSans-Roman-30"/>
      </g>
     </g>
    </g>
    <g id="xtick_4">
     <g id="line2d_12">
      <path clip-path="url(#p22bbb3b03b)" d="M 295.2 388.8 
L 295.2 43.2 
" style="fill:none;stroke:#000000;stroke-dasharray:1.000000,3.000000;stroke-dashoffset:0.0;stroke-width:0.5;"/>
     </g>
     <g id="line2d_13">
      <g>
       <use style="stroke:#000000;stroke-width:0.5;" x="295.2" xlink:href="#md6c4eb483d" y="388.8"/>
      </g>
     </g>
     <g id="line2d_14">
      <g>
       <use style="stroke:#000000;stroke-width:0.5;" x="295.2" xlink:href="#m375d9b3dcc" y="43.2"/>
      </g>
     </g>
     <g id="text_4">
      <!-- 15 -->
      <g transform="translate(287.565 401.918125)scale(0.12 -0.12)">
       <use xlink:href="#BitstreamVeraSans-Roman-31"/>
       <use x="63.623046875" xlink:href="#BitstreamVeraSans-Roman-35"/>
      </g>
     </g>
    </g>
    <g id="xtick_5">
     <g id="line2d_15">
      <path clip-path="url(#p22bbb3b03b)" d="M 369.6 388.8 
L 369.6 43.2 
" style="fill:none;stroke:#000000;stroke-dasharray:1.000000,3.000000;stroke-dashoffset:0.0;stroke-width:0.5;"/>
     </g>
     <g id="line2d_16">
      <g>
       <use style="stroke:#000000;stroke-width:0.5;" x="369.6" xlink:href="#md6c4eb483d" y="388.8"/>
      </g>
     </g>
     <g id="line2d_17">
      <g>
       <use style="stroke:#000000;stroke-width:0.5;" x="369.6" xlink:href="#m375d9b3dcc" y="43.2"/>
      </g>
     </g>
     <g id="text_5">
      <!-- 20 -->
      <defs>
       <path d="M 19.1875 8.296875 
L 53.609375 8.296875 
L 53.609375 0 
L 7.328125 0 
L 7.328125 8.296875 
Q 12.9375 14.109375 22.625 23.890625 
Q 32.328125 33.6875 34.8125 36.53125 
Q 39.546875 41.84375 41.421875 45.53125 
Q 43.3125 49.21875 43.3125 52.78125 
Q 43.3125 58.59375 39.234375 62.25 
Q 35.15625 65.921875 28.609375 65.921875 
Q 23.96875 65.921875 18.8125 64.3125 
Q 13.671875 62.703125 7.8125 59.421875 
L 7.8125 69.390625 
Q 13.765625 71.78125 18.9375 73 
Q 24.125 74.21875 28.421875 74.21875 
Q 39.75 74.21875 46.484375 68.546875 
Q 53.21875 62.890625 53.21875 53.421875 
Q 53.21875 48.921875 51.53125 44.890625 
Q 49.859375 40.875 45.40625 35.40625 
Q 44.1875 33.984375 37.640625 27.21875 
Q 31.109375 20.453125 19.1875 8.296875 
" id="BitstreamVeraSans-Roman-32"/>
      </defs>
      <g transform="translate(361.965 401.918125)scale(0.12 -0.12)">
       <use xlink:href="#BitstreamVeraSans-Roman-32"/>
       <use x="63.623046875" xlink:href="#BitstreamVeraSans-Roman-30"/>
      </g>
     </g>
    </g>
    <g id="xtick_6">
     <g id="line2d_18">
      <path clip-path="url(#p22bbb3b03b)" d="M 444 388.8 
L 444 43.2 
" style="fill:none;stroke:#000000;stroke-dasharray:1.000000,3.000000;stroke-dashoffset:0.0;stroke-width:0.5;"/>
     </g>
     <g id="line2d_19">
      <g>
       <use style="stroke:#000000;stroke-width:0.5;" x="444.0" xlink:href="#md6c4eb483d" y="388.8"/>
      </g>
     </g>
     <g id="line2d_20">
      <g>
       <use style="stroke:#000000;stroke-width:0.5;" x="444.0" xlink:href="#m375d9b3dcc" y="43.2"/>
      </g>
     </g>
     <g id="text_6">
      <!-- 25 -->
      <g transform="translate(436.365 401.918125)scale(0.12 -0.12)">
       <use xlink:href="#BitstreamVeraSans-Roman-32"/>
       <use x="63.623046875" xlink:href="#BitstreamVeraSans-Roman-35"/>
      </g>
     </g>
    </g>
    <g id="xtick_7">
     <g id="line2d_21">
      <path clip-path="url(#p22bbb3b03b)" d="M 518.4 388.8 
L 518.4 43.2 
" style="fill:none;stroke:#000000;stroke-dasharray:1.000000,3.000000;stroke-dashoffset:0.0;stroke-width:0.5;"/>
     </g>
     <g id="line2d_22">
      <g>
       <use style="stroke:#000000;stroke-width:0.5;" x="518.4" xlink:href="#md6c4eb483d" y="388.8"/>
      </g>
     </g>
     <g id="line2d_23">
      <g>
       <use style="stroke:#000000;stroke-width:0.5;" x="518.4" xlink:href="#m375d9b3dcc" y="43.2"/>
      </g>
     </g>
     <g id="text_7">
      <!-- 30 -->
      <defs>
       <path d="M 40.578125 39.3125 
Q 47.65625 37.796875 51.625 33 
Q 55.609375 28.21875 55.609375 21.1875 
Q 55.609375 10.40625 48.1875 4.484375 
Q 40.765625 -1.421875 27.09375 -1.421875 
Q 22.515625 -1.421875 17.65625 -0.515625 
Q 12.796875 0.390625 7.625 2.203125 
L 7.625 11.71875 
Q 11.71875 9.328125 16.59375 8.109375 
Q 21.484375 6.890625 26.8125 6.890625 
Q 36.078125 6.890625 40.9375 10.546875 
Q 45.796875 14.203125 45.796875 21.1875 
Q 45.796875 27.640625 41.28125 31.265625 
Q 36.765625 34.90625 28.71875 34.90625 
L 20.21875 34.90625 
L 20.21875 43.015625 
L 29.109375 43.015625 
Q 36.375 43.015625 40.234375 45.921875 
Q 44.09375 48.828125 44.09375 54.296875 
Q 44.09375 59.90625 40.109375 62.90625 
Q 36.140625 65.921875 28.71875 65.921875 
Q 24.65625 65.921875 20.015625 65.03125 
Q 15.375 64.15625 9.8125 62.3125 
L 9.8125 71.09375 
Q 15.4375 72.65625 20.34375 73.4375 
Q 25.25 74.21875 29.59375 74.21875 
Q 40.828125 74.21875 47.359375 69.109375 
Q 53.90625 64.015625 53.90625 55.328125 
Q 53.90625 49.265625 50.4375 45.09375 
Q 46.96875 40.921875 40.578125 39.3125 
" id="BitstreamVeraSans-Roman-33"/>
      </defs>
      <g transform="translate(510.765 401.918125)scale(0.12 -0.12)">
       <use xlink:href="#BitstreamVeraSans-Roman-33"/>
       <use x="63.623046875" xlink:href="#BitstreamVeraSans-Roman-30"/>
      </g>
     </g>
    </g>
    <g id="text_8">
     <!-- Time, [s] -->
     <defs>
      <path id="BitstreamVeraSans-Roman-20"/>
      <path d="M 8.59375 75.984375 
L 29.296875 75.984375 
L 29.296875 69 
L 17.578125 69 
L 17.578125 -6.203125 
L 29.296875 -6.203125 
L 29.296875 -13.1875 
L 8.59375 -13.1875 
z
" id="BitstreamVeraSans-Roman-5b"/>
      <path d="M 30.421875 75.984375 
L 30.421875 -13.1875 
L 9.71875 -13.1875 
L 9.71875 -6.203125 
L 21.390625 -6.203125 
L 21.390625 69 
L 9.71875 69 
L 9.71875 75.984375 
z
" id="BitstreamVeraSans-Roman-5d"/>
      <path d="M 52 44.1875 
Q 55.375 50.25 60.0625 53.125 
Q 64.75 56 71.09375 56 
Q 79.640625 56 84.28125 50.015625 
Q 88.921875 44.046875 88.921875 33.015625 
L 88.921875 0 
L 79.890625 0 
L 79.890625 32.71875 
Q 79.890625 40.578125 77.09375 44.375 
Q 74.3125 48.1875 68.609375 48.1875 
Q 61.625 48.1875 57.5625 43.546875 
Q 53.515625 38.921875 53.515625 30.90625 
L 53.515625 0 
L 44.484375 0 
L 44.484375 32.71875 
Q 44.484375 40.625 41.703125 44.40625 
Q 38.921875 48.1875 33.109375 48.1875 
Q 26.21875 48.1875 22.15625 43.53125 
Q 18.109375 38.875 18.109375 30.90625 
L 18.109375 0 
L 9.078125 0 
L 9.078125 54.6875 
L 18.109375 54.6875 
L 18.109375 46.1875 
Q 21.1875 51.21875 25.484375 53.609375 
Q 29.78125 56 35.6875 56 
Q 41.65625 56 45.828125 52.96875 
Q 50 49.953125 52 44.1875 
" id="BitstreamVeraSans-Roman-6d"/>
      <path d="M 11.71875 12.40625 
L 22.015625 12.40625 
L 22.015625 4 
L 14.015625 -11.625 
L 7.71875 -11.625 
L 11.71875 4 
z
" id="BitstreamVeraSans-Roman-2c"/>
      <path d="M 9.421875 54.6875 
L 18.40625 54.6875 
L 18.40625 0 
L 9.421875 0 
z
M 9.421875 75.984375 
L 18.40625 75.984375 
L 18.40625 64.59375 
L 9.421875 64.59375 
z
" id="BitstreamVeraSans-Roman-69"/>
      <path d="M 56.203125 29.59375 
L 56.203125 25.203125 
L 14.890625 25.203125 
Q 15.484375 15.921875 20.484375 11.0625 
Q 25.484375 6.203125 34.421875 6.203125 
Q 39.59375 6.203125 44.453125 7.46875 
Q 49.3125 8.734375 54.109375 11.28125 
L 54.109375 2.78125 
Q 49.265625 0.734375 44.1875 -0.34375 
Q 39.109375 -1.421875 33.890625 -1.421875 
Q 20.796875 -1.421875 13.15625 6.1875 
Q 5.515625 13.8125 5.515625 26.8125 
Q 5.515625 40.234375 12.765625 48.109375 
Q 20.015625 56 32.328125 56 
Q 43.359375 56 49.78125 48.890625 
Q 56.203125 41.796875 56.203125 29.59375 
M 47.21875 32.234375 
Q 47.125 39.59375 43.09375 43.984375 
Q 39.0625 48.390625 32.421875 48.390625 
Q 24.90625 48.390625 20.390625 44.140625 
Q 15.875 39.890625 15.1875 32.171875 
z
" id="BitstreamVeraSans-Roman-65"/>
      <path d="M -0.296875 72.90625 
L 61.375 72.90625 
L 61.375 64.59375 
L 35.5 64.59375 
L 35.5 0 
L 25.59375 0 
L 25.59375 64.59375 
L -0.296875 64.59375 
z
" id="BitstreamVeraSans-Roman-54"/>
      <path d="M 44.28125 53.078125 
L 44.28125 44.578125 
Q 40.484375 46.53125 36.375 47.5 
Q 32.28125 48.484375 27.875 48.484375 
Q 21.1875 48.484375 17.84375 46.4375 
Q 14.5 44.390625 14.5 40.28125 
Q 14.5 37.15625 16.890625 35.375 
Q 19.28125 33.59375 26.515625 31.984375 
L 29.59375 31.296875 
Q 39.15625 29.25 43.1875 25.515625 
Q 47.21875 21.78125 47.21875 15.09375 
Q 47.21875 7.46875 41.1875 3.015625 
Q 35.15625 -1.421875 24.609375 -1.421875 
Q 20.21875 -1.421875 15.453125 -0.5625 
Q 10.6875 0.296875 5.421875 2 
L 5.421875 11.28125 
Q 10.40625 8.6875 15.234375 7.390625 
Q 20.0625 6.109375 24.8125 6.109375 
Q 31.15625 6.109375 34.5625 8.28125 
Q 37.984375 10.453125 37.984375 14.40625 
Q 37.984375 18.0625 35.515625 20.015625 
Q 33.0625 21.96875 24.703125 23.78125 
L 21.578125 24.515625 
Q 13.234375 26.265625 9.515625 29.90625 
Q 5.8125 33.546875 5.8125 39.890625 
Q 5.8125 47.609375 11.28125 51.796875 
Q 16.75 56 26.8125 56 
Q 31.78125 56 36.171875 55.265625 
Q 40.578125 54.546875 44.28125 53.078125 
" id="BitstreamVeraSans-Roman-73"/>
     </defs>
     <g transform="translate(268.71375 418.531875)scale(0.12 -0.12)">
      <use xlink:href="#BitstreamVeraSans-Roman-54"/>
      <use x="61.037109375" xlink:href="#BitstreamVeraSans-Roman-69"/>
      <use x="88.8203125" xlink:href="#BitstreamVeraSans-Roman-6d"/>
      <use x="186.232421875" xlink:href="#BitstreamVeraSans-Roman-65"/>
      <use x="247.755859375" xlink:href="#BitstreamVeraSans-Roman-2c"/>
      <use x="279.54296875" xlink:href="#BitstreamVeraSans-Roman-20"/>
      <use x="311.330078125" xlink:href="#BitstreamVeraSans-Roman-5b"/>
      <use x="350.34375" xlink:href="#BitstreamVeraSans-Roman-73"/>
      <use x="402.443359375" xlink:href="#BitstreamVeraSans-Roman-5d"/>
     </g>
    </g>
   </g>
   <g id="matplotlib.axis_2">
    <g id="ytick_1">
     <g id="line2d_24">
      <path clip-path="url(#p22bbb3b03b)" d="M 72 388.8 
L 518.4 388.8 
" style="fill:none;stroke:#000000;stroke-dasharray:1.000000,3.000000;stroke-dashoffset:0.0;stroke-width:0.5;"/>
     </g>
     <g id="line2d_25">
      <defs>
       <path d="M 0 0 
L 4 0 
" id="me1feb1ed5f" style="stroke:#000000;stroke-width:0.5;"/>
      </defs>
      <g>
       <use style="stroke:#000000;stroke-width:0.5;" x="72.0" xlink:href="#me1feb1ed5f" y="388.8"/>
      </g>
     </g>
     <g id="line2d_26">
      <defs>
       <path d="M 0 0 
L -4 0 
" id="mb3b51307d8" style="stroke:#000000;stroke-width:0.5;"/>
      </defs>
      <g>
       <use style="stroke:#000000;stroke-width:0.5;" x="518.4" xlink:href="#mb3b51307d8" y="388.8"/>
      </g>
     </g>
     <g id="text_9">
      <!-- 0.8 -->
      <defs>
       <path d="M 10.59375 35.5 
L 73.1875 35.5 
L 73.1875 27.203125 
L 10.59375 27.203125 
z
" id="BitstreamVeraSans-Roman-2212"/>
       <path d="M 31.78125 34.625 
Q 24.75 34.625 20.71875 30.859375 
Q 16.703125 27.09375 16.703125 20.515625 
Q 16.703125 13.921875 20.71875 10.15625 
Q 24.75 6.390625 31.78125 6.390625 
Q 38.8125 6.390625 42.859375 10.171875 
Q 46.921875 13.96875 46.921875 20.515625 
Q 46.921875 27.09375 42.890625 30.859375 
Q 38.875 34.625 31.78125 34.625 
M 21.921875 38.8125 
Q 15.578125 40.375 12.03125 44.71875 
Q 8.5 49.078125 8.5 55.328125 
Q 8.5 64.0625 14.71875 69.140625 
Q 20.953125 74.21875 31.78125 74.21875 
Q 42.671875 74.21875 48.875 69.140625 
Q 55.078125 64.0625 55.078125 55.328125 
Q 55.078125 49.078125 51.53125 44.71875 
Q 48 40.375 41.703125 38.8125 
Q 48.828125 37.15625 52.796875 32.3125 
Q 56.78125 27.484375 56.78125 20.515625 
Q 56.78125 9.90625 50.3125 4.234375 
Q 43.84375 -1.421875 31.78125 -1.421875 
Q 19.734375 -1.421875 13.25 4.234375 
Q 6.78125 9.90625 6.78125 20.515625 
Q 6.78125 27.484375 10.78125 32.3125 
Q 14.796875 37.15625 21.921875 38.8125 
M 18.3125 54.390625 
Q 18.3125 48.734375 21.84375 45.5625 
Q 25.390625 42.390625 31.78125 42.390625 
Q 38.140625 42.390625 41.71875 45.5625 
Q 45.3125 48.734375 45.3125 54.390625 
Q 45.3125 60.0625 41.71875 63.234375 
Q 38.140625 66.40625 31.78125 66.40625 
Q 25.390625 66.40625 21.84375 63.234375 
Q 18.3125 60.0625 18.3125 54.390625 
" id="BitstreamVeraSans-Roman-38"/>
       <path d="M 10.6875 12.40625 
L 21 12.40625 
L 21 0 
L 10.6875 0 
z
" id="BitstreamVeraSans-Roman-2e"/>
      </defs>
      <g transform="translate(38.860625 392.11125)scale(0.12 -0.12)">
       <use xlink:href="#BitstreamVeraSans-Roman-2212"/>
       <use x="83.7890625" xlink:href="#BitstreamVeraSans-Roman-30"/>
       <use x="147.412109375" xlink:href="#BitstreamVeraSans-Roman-2e"/>
       <use x="179.19921875" xlink:href="#BitstreamVeraSans-Roman-38"/>
      </g>
     </g>
    </g>
    <g id="ytick_2">
     <g id="line2d_27">
      <path clip-path="url(#p22bbb3b03b)" d="M 72 339.428571 
L 518.4 339.428571 
" style="fill:none;stroke:#000000;stroke-dasharray:1.000000,3.000000;stroke-dashoffset:0.0;stroke-width:0.5;"/>
     </g>
     <g id="line2d_28">
      <g>
       <use style="stroke:#000000;stroke-width:0.5;" x="72.0" xlink:href="#me1feb1ed5f" y="339.428571429"/>
      </g>
     </g>
     <g id="line2d_29">
      <g>
       <use style="stroke:#000000;stroke-width:0.5;" x="518.4" xlink:href="#mb3b51307d8" y="339.428571429"/>
      </g>
     </g>
     <g id="text_10">
      <!-- 0.6 -->
      <defs>
       <path d="M 33.015625 40.375 
Q 26.375 40.375 22.484375 35.828125 
Q 18.609375 31.296875 18.609375 23.390625 
Q 18.609375 15.53125 22.484375 10.953125 
Q 26.375 6.390625 33.015625 6.390625 
Q 39.65625 6.390625 43.53125 10.953125 
Q 47.40625 15.53125 47.40625 23.390625 
Q 47.40625 31.296875 43.53125 35.828125 
Q 39.65625 40.375 33.015625 40.375 
M 52.59375 71.296875 
L 52.59375 62.3125 
Q 48.875 64.0625 45.09375 64.984375 
Q 41.3125 65.921875 37.59375 65.921875 
Q 27.828125 65.921875 22.671875 59.328125 
Q 17.53125 52.734375 16.796875 39.40625 
Q 19.671875 43.65625 24.015625 45.921875 
Q 28.375 48.1875 33.59375 48.1875 
Q 44.578125 48.1875 50.953125 41.515625 
Q 57.328125 34.859375 57.328125 23.390625 
Q 57.328125 12.15625 50.6875 5.359375 
Q 44.046875 -1.421875 33.015625 -1.421875 
Q 20.359375 -1.421875 13.671875 8.265625 
Q 6.984375 17.96875 6.984375 36.375 
Q 6.984375 53.65625 15.1875 63.9375 
Q 23.390625 74.21875 37.203125 74.21875 
Q 40.921875 74.21875 44.703125 73.484375 
Q 48.484375 72.75 52.59375 71.296875 
" id="BitstreamVeraSans-Roman-36"/>
      </defs>
      <g transform="translate(38.860625 342.739821429)scale(0.12 -0.12)">
       <use xlink:href="#BitstreamVeraSans-Roman-2212"/>
       <use x="83.7890625" xlink:href="#BitstreamVeraSans-Roman-30"/>
       <use x="147.412109375" xlink:href="#BitstreamVeraSans-Roman-2e"/>
       <use x="179.19921875" xlink:href="#BitstreamVeraSans-Roman-36"/>
      </g>
     </g>
    </g>
    <g id="ytick_3">
     <g id="line2d_30">
      <path clip-path="url(#p22bbb3b03b)" d="M 72 290.057143 
L 518.4 290.057143 
" style="fill:none;stroke:#000000;stroke-dasharray:1.000000,3.000000;stroke-dashoffset:0.0;stroke-width:0.5;"/>
     </g>
     <g id="line2d_31">
      <g>
       <use style="stroke:#000000;stroke-width:0.5;" x="72.0" xlink:href="#me1feb1ed5f" y="290.057142857"/>
      </g>
     </g>
     <g id="line2d_32">
      <g>
       <use style="stroke:#000000;stroke-width:0.5;" x="518.4" xlink:href="#mb3b51307d8" y="290.057142857"/>
      </g>
     </g>
     <g id="text_11">
      <!-- 0.4 -->
      <defs>
       <path d="M 37.796875 64.3125 
L 12.890625 25.390625 
L 37.796875 25.390625 
z
M 35.203125 72.90625 
L 47.609375 72.90625 
L 47.609375 25.390625 
L 58.015625 25.390625 
L 58.015625 17.1875 
L 47.609375 17.1875 
L 47.609375 0 
L 37.796875 0 
L 37.796875 17.1875 
L 4.890625 17.1875 
L 4.890625 26.703125 
z
" id="BitstreamVeraSans-Roman-34"/>
      </defs>
      <g transform="translate(38.860625 293.368392857)scale(0.12 -0.12)">
       <use xlink:href="#BitstreamVeraSans-Roman-2212"/>
       <use x="83.7890625" xlink:href="#BitstreamVeraSans-Roman-30"/>
       <use x="147.412109375" xlink:href="#BitstreamVeraSans-Roman-2e"/>
       <use x="179.19921875" xlink:href="#BitstreamVeraSans-Roman-34"/>
      </g>
     </g>
    </g>
    <g id="ytick_4">
     <g id="line2d_33">
      <path clip-path="url(#p22bbb3b03b)" d="M 72 240.685714 
L 518.4 240.685714 
" style="fill:none;stroke:#000000;stroke-dasharray:1.000000,3.000000;stroke-dashoffset:0.0;stroke-width:0.5;"/>
     </g>
     <g id="line2d_34">
      <g>
       <use style="stroke:#000000;stroke-width:0.5;" x="72.0" xlink:href="#me1feb1ed5f" y="240.685714286"/>
      </g>
     </g>
     <g id="line2d_35">
      <g>
       <use style="stroke:#000000;stroke-width:0.5;" x="518.4" xlink:href="#mb3b51307d8" y="240.685714286"/>
      </g>
     </g>
     <g id="text_12">
      <!-- 0.2 -->
      <g transform="translate(38.860625 243.996964286)scale(0.12 -0.12)">
       <use xlink:href="#BitstreamVeraSans-Roman-2212"/>
       <use x="83.7890625" xlink:href="#BitstreamVeraSans-Roman-30"/>
       <use x="147.412109375" xlink:href="#BitstreamVeraSans-Roman-2e"/>
       <use x="179.19921875" xlink:href="#BitstreamVeraSans-Roman-32"/>
      </g>
     </g>
    </g>
    <g id="ytick_5">
     <g id="line2d_36">
      <path clip-path="url(#p22bbb3b03b)" d="M 72 191.314286 
L 518.4 191.314286 
" style="fill:none;stroke:#000000;stroke-dasharray:1.000000,3.000000;stroke-dashoffset:0.0;stroke-width:0.5;"/>
     </g>
     <g id="line2d_37">
      <g>
       <use style="stroke:#000000;stroke-width:0.5;" x="72.0" xlink:href="#me1feb1ed5f" y="191.314285714"/>
      </g>
     </g>
     <g id="line2d_38">
      <g>
       <use style="stroke:#000000;stroke-width:0.5;" x="518.4" xlink:href="#mb3b51307d8" y="191.314285714"/>
      </g>
     </g>
     <g id="text_13">
      <!-- 0.0 -->
      <g transform="translate(48.91625 194.625535714)scale(0.12 -0.12)">
       <use xlink:href="#BitstreamVeraSans-Roman-30"/>
       <use x="63.623046875" xlink:href="#BitstreamVeraSans-Roman-2e"/>
       <use x="95.41015625" xlink:href="#BitstreamVeraSans-Roman-30"/>
      </g>
     </g>
    </g>
    <g id="ytick_6">
     <g id="line2d_39">
      <path clip-path="url(#p22bbb3b03b)" d="M 72 141.942857 
L 518.4 141.942857 
" style="fill:none;stroke:#000000;stroke-dasharray:1.000000,3.000000;stroke-dashoffset:0.0;stroke-width:0.5;"/>
     </g>
     <g id="line2d_40">
      <g>
       <use style="stroke:#000000;stroke-width:0.5;" x="72.0" xlink:href="#me1feb1ed5f" y="141.942857143"/>
      </g>
     </g>
     <g id="line2d_41">
      <g>
       <use style="stroke:#000000;stroke-width:0.5;" x="518.4" xlink:href="#mb3b51307d8" y="141.942857143"/>
      </g>
     </g>
     <g id="text_14">
      <!-- 0.2 -->
      <g transform="translate(48.91625 145.254107143)scale(0.12 -0.12)">
       <use xlink:href="#BitstreamVeraSans-Roman-30"/>
       <use x="63.623046875" xlink:href="#BitstreamVeraSans-Roman-2e"/>
       <use x="95.41015625" xlink:href="#BitstreamVeraSans-Roman-32"/>
      </g>
     </g>
    </g>
    <g id="ytick_7">
     <g id="line2d_42">
      <path clip-path="url(#p22bbb3b03b)" d="M 72 92.571429 
L 518.4 92.571429 
" style="fill:none;stroke:#000000;stroke-dasharray:1.000000,3.000000;stroke-dashoffset:0.0;stroke-width:0.5;"/>
     </g>
     <g id="line2d_43">
      <g>
       <use style="stroke:#000000;stroke-width:0.5;" x="72.0" xlink:href="#me1feb1ed5f" y="92.5714285714"/>
      </g>
     </g>
     <g id="line2d_44">
      <g>
       <use style="stroke:#000000;stroke-width:0.5;" x="518.4" xlink:href="#mb3b51307d8" y="92.5714285714"/>
      </g>
     </g>
     <g id="text_15">
      <!-- 0.4 -->
      <g transform="translate(48.91625 95.8826785714)scale(0.12 -0.12)">
       <use xlink:href="#BitstreamVeraSans-Roman-30"/>
       <use x="63.623046875" xlink:href="#BitstreamVeraSans-Roman-2e"/>
       <use x="95.41015625" xlink:href="#BitstreamVeraSans-Roman-34"/>
      </g>
     </g>
    </g>
    <g id="ytick_8">
     <g id="line2d_45">
      <path clip-path="url(#p22bbb3b03b)" d="M 72 43.2 
L 518.4 43.2 
" style="fill:none;stroke:#000000;stroke-dasharray:1.000000,3.000000;stroke-dashoffset:0.0;stroke-width:0.5;"/>
     </g>
     <g id="line2d_46">
      <g>
       <use style="stroke:#000000;stroke-width:0.5;" x="72.0" xlink:href="#me1feb1ed5f" y="43.2"/>
      </g>
     </g>
     <g id="line2d_47">
      <g>
       <use style="stroke:#000000;stroke-width:0.5;" x="518.4" xlink:href="#mb3b51307d8" y="43.2"/>
      </g>
     </g>
     <g id="text_16">
      <!-- 0.6 -->
      <g transform="translate(48.91625 46.51125)scale(0.12 -0.12)">
       <use xlink:href="#BitstreamVeraSans-Roman-30"/>
       <use x="63.623046875" xlink:href="#BitstreamVeraSans-Roman-2e"/>
       <use x="95.41015625" xlink:href="#BitstreamVeraSans-Roman-36"/>
      </g>
     </g>
    </g>
    <g id="text_17">
     <!-- Accel Cmd [m/s^2] -->
     <defs>
      <path d="M 46.6875 72.90625 
L 73.1875 45.703125 
L 63.375 45.703125 
L 41.890625 64.984375 
L 20.40625 45.703125 
L 10.59375 45.703125 
L 37.109375 72.90625 
z
" id="BitstreamVeraSans-Roman-5e"/>
      <path d="M 9.421875 75.984375 
L 18.40625 75.984375 
L 18.40625 0 
L 9.421875 0 
z
" id="BitstreamVeraSans-Roman-6c"/>
      <path d="M 64.40625 67.28125 
L 64.40625 56.890625 
Q 59.421875 61.53125 53.78125 63.8125 
Q 48.140625 66.109375 41.796875 66.109375 
Q 29.296875 66.109375 22.65625 58.46875 
Q 16.015625 50.828125 16.015625 36.375 
Q 16.015625 21.96875 22.65625 14.328125 
Q 29.296875 6.6875 41.796875 6.6875 
Q 48.140625 6.6875 53.78125 8.984375 
Q 59.421875 11.28125 64.40625 15.921875 
L 64.40625 5.609375 
Q 59.234375 2.09375 53.4375 0.328125 
Q 47.65625 -1.421875 41.21875 -1.421875 
Q 24.65625 -1.421875 15.125 8.703125 
Q 5.609375 18.84375 5.609375 36.375 
Q 5.609375 53.953125 15.125 64.078125 
Q 24.65625 74.21875 41.21875 74.21875 
Q 47.75 74.21875 53.53125 72.484375 
Q 59.328125 70.75 64.40625 67.28125 
" id="BitstreamVeraSans-Roman-43"/>
      <path d="M 34.1875 63.1875 
L 20.796875 26.90625 
L 47.609375 26.90625 
z
M 28.609375 72.90625 
L 39.796875 72.90625 
L 67.578125 0 
L 57.328125 0 
L 50.6875 18.703125 
L 17.828125 18.703125 
L 11.1875 0 
L 0.78125 0 
z
" id="BitstreamVeraSans-Roman-41"/>
      <path d="M 25.390625 72.90625 
L 33.6875 72.90625 
L 8.296875 -9.28125 
L 0 -9.28125 
z
" id="BitstreamVeraSans-Roman-2f"/>
      <path d="M 45.40625 46.390625 
L 45.40625 75.984375 
L 54.390625 75.984375 
L 54.390625 0 
L 45.40625 0 
L 45.40625 8.203125 
Q 42.578125 3.328125 38.25 0.953125 
Q 33.9375 -1.421875 27.875 -1.421875 
Q 17.96875 -1.421875 11.734375 6.484375 
Q 5.515625 14.40625 5.515625 27.296875 
Q 5.515625 40.1875 11.734375 48.09375 
Q 17.96875 56 27.875 56 
Q 33.9375 56 38.25 53.625 
Q 42.578125 51.265625 45.40625 46.390625 
M 14.796875 27.296875 
Q 14.796875 17.390625 18.875 11.75 
Q 22.953125 6.109375 30.078125 6.109375 
Q 37.203125 6.109375 41.296875 11.75 
Q 45.40625 17.390625 45.40625 27.296875 
Q 45.40625 37.203125 41.296875 42.84375 
Q 37.203125 48.484375 30.078125 48.484375 
Q 22.953125 48.484375 18.875 42.84375 
Q 14.796875 37.203125 14.796875 27.296875 
" id="BitstreamVeraSans-Roman-64"/>
      <path d="M 48.78125 52.59375 
L 48.78125 44.1875 
Q 44.96875 46.296875 41.140625 47.34375 
Q 37.3125 48.390625 33.40625 48.390625 
Q 24.65625 48.390625 19.8125 42.84375 
Q 14.984375 37.3125 14.984375 27.296875 
Q 14.984375 17.28125 19.8125 11.734375 
Q 24.65625 6.203125 33.40625 6.203125 
Q 37.3125 6.203125 41.140625 7.25 
Q 44.96875 8.296875 48.78125 10.40625 
L 48.78125 2.09375 
Q 45.015625 0.34375 40.984375 -0.53125 
Q 36.96875 -1.421875 32.421875 -1.421875 
Q 20.0625 -1.421875 12.78125 6.34375 
Q 5.515625 14.109375 5.515625 27.296875 
Q 5.515625 40.671875 12.859375 48.328125 
Q 20.21875 56 33.015625 56 
Q 37.15625 56 41.109375 55.140625 
Q 45.0625 54.296875 48.78125 52.59375 
" id="BitstreamVeraSans-Roman-63"/>
     </defs>
     <g transform="translate(31.365 274.235625)rotate(-90.0)scale(0.12 -0.12)">
      <use xlink:href="#BitstreamVeraSans-Roman-41"/>
      <use x="68.392578125" xlink:href="#BitstreamVeraSans-Roman-63"/>
      <use x="123.373046875" xlink:href="#BitstreamVeraSans-Roman-63"/>
      <use x="178.353515625" xlink:href="#BitstreamVeraSans-Roman-65"/>
      <use x="239.876953125" xlink:href="#BitstreamVeraSans-Roman-6c"/>
      <use x="267.66015625" xlink:href="#BitstreamVeraSans-Roman-20"/>
      <use x="299.447265625" xlink:href="#BitstreamVeraSans-Roman-43"/>
      <use x="369.271484375" xlink:href="#BitstreamVeraSans-Roman-6d"/>
      <use x="466.68359375" xlink:href="#BitstreamVeraSans-Roman-64"/>
      <use x="530.16015625" xlink:href="#BitstreamVeraSans-Roman-20"/>
      <use x="561.947265625" xlink:href="#BitstreamVeraSans-Roman-5b"/>
      <use x="600.9609375" xlink:href="#BitstreamVeraSans-Roman-6d"/>
      <use x="698.373046875" xlink:href="#BitstreamVeraSans-Roman-2f"/>
      <use x="732.064453125" xlink:href="#BitstreamVeraSans-Roman-73"/>
      <use x="784.1640625" xlink:href="#BitstreamVeraSans-Roman-5e"/>
      <use x="867.953125" xlink:href="#BitstreamVeraSans-Roman-32"/>
      <use x="931.576171875" xlink:href="#BitstreamVeraSans-Roman-5d"/>
     </g>
    </g>
   </g>
   <g id="legend_1">
    <g id="patch_7">
     <path d="M 371.673 96.993 
L 511.2 96.993 
L 511.2 50.4 
L 371.673 50.4 
z
" style="fill:#ffffff;stroke:#000000;stroke-linejoin:miter;"/>
    </g>
    <g id="line2d_48">
     <path d="M 381.753 62.06175 
L 401.913 62.06175 
" style="fill:none;stroke:#008000;stroke-linecap:square;"/>
    </g>
    <g id="line2d_49"/>
    <g id="text_18">
     <!-- Proportional -->
     <defs>
      <path d="M 54.890625 33.015625 
L 54.890625 0 
L 45.90625 0 
L 45.90625 32.71875 
Q 45.90625 40.484375 42.875 44.328125 
Q 39.84375 48.1875 33.796875 48.1875 
Q 26.515625 48.1875 22.3125 43.546875 
Q 18.109375 38.921875 18.109375 30.90625 
L 18.109375 0 
L 9.078125 0 
L 9.078125 54.6875 
L 18.109375 54.6875 
L 18.109375 46.1875 
Q 21.34375 51.125 25.703125 53.5625 
Q 30.078125 56 35.796875 56 
Q 45.21875 56 50.046875 50.171875 
Q 54.890625 44.34375 54.890625 33.015625 
" id="BitstreamVeraSans-Roman-6e"/>
      <path d="M 34.28125 27.484375 
Q 23.390625 27.484375 19.1875 25 
Q 14.984375 22.515625 14.984375 16.5 
Q 14.984375 11.71875 18.140625 8.90625 
Q 21.296875 6.109375 26.703125 6.109375 
Q 34.1875 6.109375 38.703125 11.40625 
Q 43.21875 16.703125 43.21875 25.484375 
L 43.21875 27.484375 
z
M 52.203125 31.203125 
L 52.203125 0 
L 43.21875 0 
L 43.21875 8.296875 
Q 40.140625 3.328125 35.546875 0.953125 
Q 30.953125 -1.421875 24.3125 -1.421875 
Q 15.921875 -1.421875 10.953125 3.296875 
Q 6 8.015625 6 15.921875 
Q 6 25.140625 12.171875 29.828125 
Q 18.359375 34.515625 30.609375 34.515625 
L 43.21875 34.515625 
L 43.21875 35.40625 
Q 43.21875 41.609375 39.140625 45 
Q 35.0625 48.390625 27.6875 48.390625 
Q 23 48.390625 18.546875 47.265625 
Q 14.109375 46.140625 10.015625 43.890625 
L 10.015625 52.203125 
Q 14.9375 54.109375 19.578125 55.046875 
Q 24.21875 56 28.609375 56 
Q 40.484375 56 46.34375 49.84375 
Q 52.203125 43.703125 52.203125 31.203125 
" id="BitstreamVeraSans-Roman-61"/>
      <path d="M 30.609375 48.390625 
Q 23.390625 48.390625 19.1875 42.75 
Q 14.984375 37.109375 14.984375 27.296875 
Q 14.984375 17.484375 19.15625 11.84375 
Q 23.34375 6.203125 30.609375 6.203125 
Q 37.796875 6.203125 41.984375 11.859375 
Q 46.1875 17.53125 46.1875 27.296875 
Q 46.1875 37.015625 41.984375 42.703125 
Q 37.796875 48.390625 30.609375 48.390625 
M 30.609375 56 
Q 42.328125 56 49.015625 48.375 
Q 55.71875 40.765625 55.71875 27.296875 
Q 55.71875 13.875 49.015625 6.21875 
Q 42.328125 -1.421875 30.609375 -1.421875 
Q 18.84375 -1.421875 12.171875 6.21875 
Q 5.515625 13.875 5.515625 27.296875 
Q 5.515625 40.765625 12.171875 48.375 
Q 18.84375 56 30.609375 56 
" id="BitstreamVeraSans-Roman-6f"/>
      <path d="M 19.671875 64.796875 
L 19.671875 37.40625 
L 32.078125 37.40625 
Q 38.96875 37.40625 42.71875 40.96875 
Q 46.484375 44.53125 46.484375 51.125 
Q 46.484375 57.671875 42.71875 61.234375 
Q 38.96875 64.796875 32.078125 64.796875 
z
M 9.8125 72.90625 
L 32.078125 72.90625 
Q 44.34375 72.90625 50.609375 67.359375 
Q 56.890625 61.8125 56.890625 51.125 
Q 56.890625 40.328125 50.609375 34.8125 
Q 44.34375 29.296875 32.078125 29.296875 
L 19.671875 29.296875 
L 19.671875 0 
L 9.8125 0 
z
" id="BitstreamVeraSans-Roman-50"/>
      <path d="M 18.3125 70.21875 
L 18.3125 54.6875 
L 36.8125 54.6875 
L 36.8125 47.703125 
L 18.3125 47.703125 
L 18.3125 18.015625 
Q 18.3125 11.328125 20.140625 9.421875 
Q 21.96875 7.515625 27.59375 7.515625 
L 36.8125 7.515625 
L 36.8125 0 
L 27.59375 0 
Q 17.1875 0 13.234375 3.875 
Q 9.28125 7.765625 9.28125 18.015625 
L 9.28125 47.703125 
L 2.6875 47.703125 
L 2.6875 54.6875 
L 9.28125 54.6875 
L 9.28125 70.21875 
z
" id="BitstreamVeraSans-Roman-74"/>
      <path d="M 41.109375 46.296875 
Q 39.59375 47.171875 37.8125 47.578125 
Q 36.03125 48 33.890625 48 
Q 26.265625 48 22.1875 43.046875 
Q 18.109375 38.09375 18.109375 28.8125 
L 18.109375 0 
L 9.078125 0 
L 9.078125 54.6875 
L 18.109375 54.6875 
L 18.109375 46.1875 
Q 20.953125 51.171875 25.484375 53.578125 
Q 30.03125 56 36.53125 56 
Q 37.453125 56 38.578125 55.875 
Q 39.703125 55.765625 41.0625 55.515625 
z
" id="BitstreamVeraSans-Roman-72"/>
      <path d="M 18.109375 8.203125 
L 18.109375 -20.796875 
L 9.078125 -20.796875 
L 9.078125 54.6875 
L 18.109375 54.6875 
L 18.109375 46.390625 
Q 20.953125 51.265625 25.265625 53.625 
Q 29.59375 56 35.59375 56 
Q 45.5625 56 51.78125 48.09375 
Q 58.015625 40.1875 58.015625 27.296875 
Q 58.015625 14.40625 51.78125 6.484375 
Q 45.5625 -1.421875 35.59375 -1.421875 
Q 29.59375 -1.421875 25.265625 0.953125 
Q 20.953125 3.328125 18.109375 8.203125 
M 48.6875 27.296875 
Q 48.6875 37.203125 44.609375 42.84375 
Q 40.53125 48.484375 33.40625 48.484375 
Q 26.265625 48.484375 22.1875 42.84375 
Q 18.109375 37.203125 18.109375 27.296875 
Q 18.109375 17.390625 22.1875 11.75 
Q 26.265625 6.109375 33.40625 6.109375 
Q 40.53125 6.109375 44.609375 11.75 
Q 48.6875 17.390625 48.6875 27.296875 
" id="BitstreamVeraSans-Roman-70"/>
     </defs>
     <g transform="translate(417.753 67.10175)scale(0.144 -0.144)">
      <use xlink:href="#BitstreamVeraSans-Roman-50"/>
      <use x="60.287109375" xlink:href="#BitstreamVeraSans-Roman-72"/>
      <use x="101.369140625" xlink:href="#BitstreamVeraSans-Roman-6f"/>
      <use x="162.55078125" xlink:href="#BitstreamVeraSans-Roman-70"/>
      <use x="226.02734375" xlink:href="#BitstreamVeraSans-Roman-6f"/>
      <use x="287.208984375" xlink:href="#BitstreamVeraSans-Roman-72"/>
      <use x="328.322265625" xlink:href="#BitstreamVeraSans-Roman-74"/>
      <use x="367.53125" xlink:href="#BitstreamVeraSans-Roman-69"/>
      <use x="395.314453125" xlink:href="#BitstreamVeraSans-Roman-6f"/>
      <use x="456.49609375" xlink:href="#BitstreamVeraSans-Roman-6e"/>
      <use x="519.875" xlink:href="#BitstreamVeraSans-Roman-61"/>
      <use x="581.154296875" xlink:href="#BitstreamVeraSans-Roman-6c"/>
     </g>
    </g>
    <g id="line2d_50">
     <path d="M 381.753 83.19825 
L 401.913 83.19825 
" style="fill:none;stroke:#0000ff;stroke-linecap:square;"/>
    </g>
    <g id="line2d_51"/>
    <g id="text_19">
     <!-- Integral -->
     <defs>
      <path d="M 45.40625 27.984375 
Q 45.40625 37.75 41.375 43.109375 
Q 37.359375 48.484375 30.078125 48.484375 
Q 22.859375 48.484375 18.828125 43.109375 
Q 14.796875 37.75 14.796875 27.984375 
Q 14.796875 18.265625 18.828125 12.890625 
Q 22.859375 7.515625 30.078125 7.515625 
Q 37.359375 7.515625 41.375 12.890625 
Q 45.40625 18.265625 45.40625 27.984375 
M 54.390625 6.78125 
Q 54.390625 -7.171875 48.1875 -13.984375 
Q 42 -20.796875 29.203125 -20.796875 
Q 24.46875 -20.796875 20.265625 -20.09375 
Q 16.0625 -19.390625 12.109375 -17.921875 
L 12.109375 -9.1875 
Q 16.0625 -11.328125 19.921875 -12.34375 
Q 23.78125 -13.375 27.78125 -13.375 
Q 36.625 -13.375 41.015625 -8.765625 
Q 45.40625 -4.15625 45.40625 5.171875 
L 45.40625 9.625 
Q 42.625 4.78125 38.28125 2.390625 
Q 33.9375 0 27.875 0 
Q 17.828125 0 11.671875 7.65625 
Q 5.515625 15.328125 5.515625 27.984375 
Q 5.515625 40.671875 11.671875 48.328125 
Q 17.828125 56 27.875 56 
Q 33.9375 56 38.28125 53.609375 
Q 42.625 51.21875 45.40625 46.390625 
L 45.40625 54.6875 
L 54.390625 54.6875 
z
" id="BitstreamVeraSans-Roman-67"/>
      <path d="M 9.8125 72.90625 
L 19.671875 72.90625 
L 19.671875 0 
L 9.8125 0 
z
" id="BitstreamVeraSans-Roman-49"/>
     </defs>
     <g transform="translate(417.753 88.23825)scale(0.144 -0.144)">
      <use xlink:href="#BitstreamVeraSans-Roman-49"/>
      <use x="29.4921875" xlink:href="#BitstreamVeraSans-Roman-6e"/>
      <use x="92.87109375" xlink:href="#BitstreamVeraSans-Roman-74"/>
      <use x="132.080078125" xlink:href="#BitstreamVeraSans-Roman-65"/>
      <use x="193.603515625" xlink:href="#BitstreamVeraSans-Roman-67"/>
      <use x="257.080078125" xlink:href="#BitstreamVeraSans-Roman-72"/>
      <use x="298.193359375" xlink:href="#BitstreamVeraSans-Roman-61"/>
      <use x="359.47265625" xlink:href="#BitstreamVeraSans-Roman-6c"/>
     </g>
    </g>
   </g>
  </g>
 </g>
 <defs>
  <clipPath id="p22bbb3b03b">
   <rect height="345.6" width="446.4" x="72.0" y="43.2"/>
  </clipPath>
 </defs>
</svg>
