<?xml version="1.0" encoding="utf-8" standalone="no"?>
<!DOCTYPE svg PUBLIC "-//W3C//DTD SVG 1.1//EN"
  "http://www.w3.org/Graphics/SVG/1.1/DTD/svg11.dtd">
<!-- Created with matplotlib (http://matplotlib.org/) -->
<svg height="432pt" version="1.1" viewBox="0 0 576 432" width="576pt" xmlns="http://www.w3.org/2000/svg" xmlns:xlink="http://www.w3.org/1999/xlink">
 <defs>
  <style type="text/css">
*{stroke-linecap:butt;stroke-linejoin:round;stroke-miterlimit:100000;}
  </style>
 </defs>
 <g id="figure_1">
  <g id="patch_1">
   <path d="M 0 432 
L 576 432 
L 576 0 
L 0 0 
z
" style="fill:#ffffff;"/>
  </g>
  <g id="axes_1">
   <g id="patch_2">
    <path d="M 72 388.8 
L 518.4 388.8 
L 518.4 43.2 
L 72 43.2 
z
" style="fill:#ffffff;"/>
   </g>
   <g id="line2d_1">
    <path clip-path="url(#pf508af8016)" d="M 72.1488 234.16675 
L 93.8736 236.548175 
L 94.9152 236.320562 
L 95.9568 235.907528 
L 98.3376 234.661552 
L 100.8672 233.078794 
L 103.5456 231.133399 
L 106.6704 228.585073 
L 110.0928 225.481865 
L 113.8128 221.810585 
L 118.7232 216.603662 
L 124.5264 210.061203 
L 131.6688 201.678353 
L 151.3104 178.471833 
L 156.9648 172.222678 
L 163.8096 165.03809 
L 166.488 162.671765 
L 170.208 159.717795 
L 173.928 157.022069 
L 179.88 153.124899 
L 184.4928 150.326685 
L 191.3376 146.447663 
L 192.8256 145.935019 
L 194.6112 145.576004 
L 196.3968 145.430152 
L 198.7776 145.454906 
L 201.6048 145.689139 
L 226.4544 149.012267 
L 227.6448 149.455707 
L 228.8352 150.100775 
L 230.9184 151.523662 
L 234.3408 154.065676 
L 238.2096 157.212204 
L 242.376 160.89137 
L 247.1376 165.393332 
L 253.0896 171.362829 
L 260.976 179.670595 
L 294.6048 215.311907 
L 301.5984 222.100653 
L 308.4432 228.407272 
L 314.544 233.760637 
L 317.52 236.041184 
L 320.1984 237.846291 
L 323.472 239.734586 
L 325.704 240.826195 
L 328.0848 240.996531 
L 330.3168 240.869333 
L 333.144 240.493109 
L 336.864 239.766511 
L 342.816 238.420265 
L 346.6848 237.573554 
L 350.4048 236.799456 
L 354.2736 236.106891 
L 362.6064 234.835985 
L 367.8144 234.298674 
L 386.5632 232.663967 
L 390.8784 232.641738 
L 406.2048 232.274746 
L 435.5184 232.380068 
L 442.2144 232.478717 
L 444.8928 232.587124 
L 451.7376 232.68707 
L 453.2256 232.735847 
L 462.1536 232.715756 
L 465.1296 232.82401 
L 471.6768 232.914598 
L 475.5456 233.021045 
L 481.6464 233.163642 
L 495.9312 233.198292 
L 503.0736 233.230191 
L 508.8768 233.3589 
L 518.4 233.35928 
L 518.4 233.35928 
" style="fill:none;stroke:#ff0000;stroke-linecap:square;"/>
   </g>
   <g id="line2d_2">
    <path clip-path="url(#pf508af8016)" d="M 72.1488 388.8 
L 72.2976 388.8 
L 72.4464 234.185628 
L 73.488 234.270978 
L 74.0832 234.356328 
L 74.976 234.441678 
L 75.5712 234.527028 
L 76.464 234.612378 
L 77.0592 234.697743 
L 77.952 234.783093 
L 78.5472 234.868443 
L 79.5888 234.953793 
L 80.184 235.039143 
L 81.0768 235.124493 
L 81.672 235.209843 
L 82.416 235.295193 
L 83.0112 235.380543 
L 84.0528 235.465908 
L 84.648 235.551258 
L 85.5408 235.636608 
L 86.136 235.721958 
L 87.0288 235.807308 
L 87.624 235.892658 
L 88.5168 235.978008 
L 89.112 236.063358 
L 90.1536 236.148708 
L 90.7488 236.234058 
L 91.6416 236.319423 
L 91.7904 236.362091 
L 94.1712 233.697774 
L 94.4688 233.198151 
L 95.3616 232.365859 
L 107.1168 219.388479 
L 116.64 209.197518 
L 125.4192 200.124205 
L 133.752 191.828275 
L 141.192 184.717394 
L 149.8224 176.915674 
L 153.096 174.257345 
L 153.2448 174.257345 
L 156.2208 171.929591 
L 156.3696 171.929591 
L 157.4112 171.020798 
L 157.7088 170.682481 
L 158.7504 169.787389 
L 159.048 169.454145 
L 159.3456 169.343589 
L 165.2976 165.059849 
L 171.9936 160.519233 
L 175.7136 158.197776 
L 181.6656 154.46637 
L 181.9632 154.375121 
L 189.4032 149.904176 
L 189.7008 149.815508 
L 190.4448 149.487308 
L 191.3376 149.569929 
L 192.8256 149.74998 
L 200.2656 150.650543 
L 206.2176 151.684552 
L 211.2768 152.764723 
L 211.872 152.94057 
L 217.824 154.483596 
L 222.4368 155.951375 
L 225.7104 157.197218 
L 228.0912 158.181508 
L 233.7456 164.079835 
L 248.9232 180.178975 
L 257.1072 188.402312 
L 257.256 188.402312 
L 263.208 193.927544 
L 269.0112 199.016675 
L 279.7248 207.991497 
L 283.4448 210.85812 
L 283.7424 211.181084 
L 285.3792 212.460583 
L 285.8256 212.987151 
L 286.272 213.406513 
L 286.7184 213.928244 
L 288.6528 215.369372 
L 288.8016 215.572578 
L 288.9504 215.572578 
L 289.248 215.876148 
L 293.8608 219.078788 
L 294.1584 219.37957 
L 299.9616 223.410505 
L 300.2592 223.714341 
L 306.0624 227.784832 
L 306.36 228.091587 
L 309.0384 230.038666 
L 309.336 230.346764 
L 310.5264 231.272119 
L 310.824 231.580881 
L 312.1632 232.38518 
L 312.9072 232.488774 
L 313.2048 232.592073 
L 313.9488 232.699457 
L 314.0976 232.712303 
L 314.3952 232.553653 
L 315.288 232.651067 
L 315.5856 232.776121 
L 317.6688 232.842592 
L 317.8176 232.946688 
L 318.264 232.694989 
L 318.7104 232.482152 
L 321.3888 232.583829 
L 321.6864 232.659784 
L 321.984 232.531309 
L 322.5792 232.524628 
L 323.0256 232.27635 
L 323.472 232.352232 
L 323.6208 232.22268 
L 324.216 232.346067 
L 324.5136 232.215984 
L 324.96 232.301983 
L 325.4064 231.932944 
L 326.1504 232.0385 
L 326.8944 232.133186 
L 327.4896 231.675272 
L 329.2752 231.680271 
L 329.7216 231.347189 
L 330.4656 231.452553 
L 330.7632 231.542298 
L 331.3584 231.373781 
L 331.656 231.171327 
L 333.7392 231.076936 
L 334.0368 230.929111 
L 335.8224 230.778292 
L 336.2688 230.518142 
L 336.5664 230.620837 
L 337.7568 230.517272 
L 338.9472 230.312547 
L 341.328 230.143056 
L 341.7744 229.900914 
L 344.8992 229.831832 
L 345.1968 229.692635 
L 347.4288 229.661205 
L 348.768 229.56736 
L 349.3632 229.196802 
L 349.6608 229.178042 
L 349.9584 229.352916 
L 351 229.259174 
L 351.8928 229.165358 
L 352.1904 229.358992 
L 356.5056 228.919573 
L 357.5472 228.948583 
L 357.8448 229.019317 
L 359.184 228.925664 
L 360.672 228.831937 
L 361.1184 229.025394 
L 362.4576 228.950471 
L 364.392 228.856759 
L 364.5408 228.838013 
L 364.9872 229.03147 
L 367.368 228.937817 
L 368.5584 228.881595 
L 370.7904 228.787824 
L 372.1296 228.712768 
L 386.1168 228.725039 
L 386.4144 229.035143 
L 386.712 229.120227 
L 387.6048 229.101438 
L 389.3904 229.120227 
L 390.2832 229.101438 
L 395.64 229.129622 
L 396.0864 229.34032 
L 403.9728 229.368343 
L 404.4192 229.560148 
L 410.2224 229.644584 
L 410.52 229.754593 
L 414.0912 229.864647 
L 415.728 229.874072 
L 416.6208 229.855208 
L 417.5136 229.958492 
L 417.8112 230.068723 
L 418.1088 230.068723 
L 418.4064 229.855208 
L 418.704 229.958492 
L 419.448 230.382853 
L 419.5968 230.169117 
L 426.5904 230.272401 
L 427.0368 230.483026 
L 434.0304 230.520841 
L 434.328 230.834794 
L 442.512 230.910469 
L 443.1072 231.224496 
L 451.2912 231.197019 
L 451.5888 231.104693 
L 451.8864 231.208066 
L 452.6304 231.621528 
L 453.0768 231.633341 
L 453.3744 231.418602 
L 462.0048 231.437569 
L 462.6 231.747687 
L 470.04 231.827418 
L 473.3136 231.93082 
L 473.76 232.14143 
L 480.456 232.236367 
L 481.3488 232.255466 
L 487.0032 232.359665 
L 487.4496 232.569478 
L 487.7472 232.354134 
L 488.64 232.37316 
L 497.8656 232.476606 
L 498.1632 232.588474 
L 498.4608 232.588519 
L 498.9072 232.354134 
L 499.8 232.37316 
L 500.0976 232.476606 
L 500.3952 232.569493 
L 500.6928 232.569537 
L 500.9904 232.354134 
L 501.4368 232.37316 
L 501.8832 232.588474 
L 503.6688 232.687083 
L 504.5616 232.706124 
L 518.4 232.763245 
L 518.4 232.763245 
" style="fill:none;stroke:#bfbf00;stroke-dasharray:6.000000,6.000000;stroke-dashoffset:0.0;"/>
   </g>
   <g id="line2d_3">
    <path clip-path="url(#pf508af8016)" d="M 72.1488 388.8 
L 72.2976 388.8 
L 72.4464 388.8 
L 72.5952 252.474327 
L 72.744 252.160197 
L 72.8928 252.160197 
L 73.0416 110.465553 
L 74.0832 110.550889 
L 74.6784 110.636253 
L 75.5712 110.721618 
L 76.1664 110.806953 
L 76.7616 110.849636 
L 76.9104 110.366354 
L 77.6544 110.494372 
L 78.5472 110.528294 
L 79.1424 110.001209 
L 79.7376 109.556775 
L 80.0352 109.354071 
L 80.184 109.354071 
L 80.928 108.62611 
L 81.0768 108.062331 
L 81.672 107.618015 
L 82.5648 106.929197 
L 82.7136 106.929197 
L 83.16 106.504084 
L 84.0528 105.795238 
L 84.648 105.350391 
L 85.2432 104.86357 
L 85.5408 104.222419 
L 86.2848 103.494193 
L 86.5824 103.413637 
L 86.7312 103.129992 
L 87.0288 103.087988 
L 87.1776 102.846259 
L 87.3264 102.846259 
L 87.624 102.562466 
L 87.7728 102.95646 
L 88.2192 102.591639 
L 88.368 102.865697 
L 88.5168 102.823398 
L 88.6656 102.661872 
L 88.8144 103.016074 
L 89.2608 102.688655 
L 89.4096 102.880357 
L 89.5584 102.880357 
L 89.7072 102.756853 
L 89.856 103.028758 
L 90.1536 102.824047 
L 90.3024 103.052414 
L 90.4512 103.052414 
L 90.7488 102.809181 
L 90.8976 103.117839 
L 91.344 102.750157 
L 91.4928 103.100996 
L 91.6416 102.976636 
L 91.7904 103.202496 
L 91.9392 103.202496 
L 92.2368 102.83384 
L 92.3856 102.83384 
L 92.5344 103.058638 
L 92.6832 102.977197 
L 92.832 103.244736 
L 93.1296 103.201228 
L 93.2784 102.913158 
L 93.4272 102.913158 
L 93.576 103.261431 
L 93.8736 103.054568 
L 94.0224 103.320662 
L 94.1712 103.276858 
L 94.32 103.460655 
L 94.4688 103.177571 
L 94.6176 103.442396 
L 94.7664 103.442396 
L 94.9152 103.240931 
L 95.064 103.240931 
L 95.2128 103.587109 
L 95.5104 103.265915 
L 95.6592 103.491863 
L 95.808 103.372193 
L 95.9568 103.597787 
L 96.1056 103.478058 
L 96.2544 103.665483 
L 96.4032 103.545754 
L 96.552 103.770493 
L 96.8496 103.37355 
L 96.9984 103.679967 
L 97.1472 103.44042 
L 97.296 103.708874 
L 97.4448 103.506848 
L 97.5936 103.775006 
L 97.7424 103.535342 
L 97.8912 103.803176 
L 98.04 103.563482 
L 98.1888 103.868542 
L 98.3376 103.628789 
L 98.4864 103.896033 
L 98.6352 103.656221 
L 98.784 103.923141 
L 98.9328 103.68327 
L 99.0816 103.949895 
L 99.2304 103.710024 
L 99.3792 103.976325 
L 99.528 103.736365 
L 99.6768 104.0024 
L 99.8256 103.762441 
L 99.9744 104.028151 
L 100.1232 103.788103 
L 100.272 104.053489 
L 100.4208 103.776127 
L 100.5696 104.041277 
L 100.7184 103.88391 
L 100.8672 104.065996 
L 101.016 103.908629 
L 101.1648 104.053106 
L 101.3136 103.895768 
L 101.6112 104.30395 
L 101.76 104.063666 
L 101.9088 104.3274 
L 102.0576 104.132866 
L 102.2064 104.31333 
L 102.3552 104.118855 
L 102.504 104.298994 
L 102.6528 104.141656 
L 102.8016 104.284334 
L 102.9504 104.126996 
L 103.0992 104.352561 
L 103.248 104.075022 
L 103.5456 104.479192 
L 103.6944 104.321854 
L 103.8432 104.546711 
L 103.992 104.269113 
L 104.1408 104.530665 
L 104.2896 104.253037 
L 104.4384 104.477363 
L 104.5872 104.320085 
L 104.8848 104.684669 
L 105.0336 104.527361 
L 105.1824 104.667502 
L 105.3312 104.473293 
L 105.48 104.696763 
L 105.6288 104.455919 
L 105.9264 104.81841 
L 106.0752 104.624289 
L 106.224 104.847051 
L 106.3728 104.569277 
L 106.6704 105.050877 
L 106.8192 104.773013 
L 106.968 104.995068 
L 107.1168 104.801036 
L 107.2656 104.939053 
L 107.4144 104.74508 
L 107.712 105.104178 
L 107.8608 104.910205 
L 108.0096 105.131404 
L 108.1584 104.853482 
L 108.456 105.258596 
L 108.6048 105.064681 
L 108.7536 105.201194 
L 108.9024 105.007339 
L 109.2 105.363635 
L 109.3488 105.16978 
L 109.4976 105.353193 
L 109.6464 105.075153 
L 109.944 105.514366 
L 110.2416 105.41909 
L 110.5392 105.444428 
L 110.688 105.663356 
L 110.8368 105.366968 
L 110.9856 105.567431 
L 111.1344 105.373753 
L 111.432 105.689638 
L 111.5808 105.495959 
L 111.8784 105.895617 
L 112.3248 105.22432 
L 112.4736 105.142731 
L 112.92 104.422617 
L 113.0688 104.362855 
L 113.5152 103.352283 
L 113.8128 103.206537 
L 114.408 102.131926 
L 114.7056 101.981903 
L 115.152 100.967968 
L 115.4496 100.814671 
L 115.7472 100.401799 
L 116.1936 99.642837 
L 116.3424 99.552517 
L 116.64 99.137816 
L 116.7888 99.046552 
L 117.0864 98.028398 
L 117.384 97.936102 
L 117.5328 97.854483 
L 117.8304 97.42645 
L 117.9792 97.354978 
L 118.5744 96.239749 
L 118.872 96.048814 
L 119.1696 95.607212 
L 119.3184 95.532584 
L 119.616 95.090215 
L 119.7648 94.992668 
L 119.9136 94.57139 
L 120.2112 94.57139 
L 120.36 93.869947 
L 120.6576 93.671461 
L 120.9552 93.226761 
L 121.104 93.126412 
L 121.4016 92.702508 
L 121.5504 92.601186 
L 121.848 92.155011 
L 121.9968 92.052833 
L 122.2944 91.605892 
L 122.4432 91.502829 
L 122.7408 91.055151 
L 122.8896 90.951203 
L 123.1872 90.523936 
L 123.336 90.419044 
L 123.6336 89.969891 
L 123.7824 89.864114 
L 124.08 89.414194 
L 124.2288 89.307532 
L 124.5264 88.856904 
L 124.6752 88.749357 
L 124.9728 88.18956 
L 125.568 87.97134 
L 125.8656 87.435996 
L 126.0144 87.325942 
L 126.312 86.851923 
L 126.4608 86.741043 
L 126.7584 86.286846 
L 126.9072 86.175051 
L 127.056 85.832383 
L 127.2048 85.981461 
L 127.5024 85.755926 
L 127.8 85.299929 
L 127.9488 85.18607 
L 128.2464 84.729307 
L 128.3952 84.876586 
L 128.6928 84.399175 
L 128.8416 84.286554 
L 129.1392 83.737406 
L 129.5856 83.458923 
L 129.8832 83.035845 
L 130.9248 82.198952 
L 131.0736 82.361274 
L 131.3712 81.94858 
L 131.52 81.883037 
L 131.6688 81.564202 
L 131.8176 81.72974 
L 131.9664 81.669212 
L 132.264 81.273006 
L 132.4128 81.44114 
L 132.5616 81.126612 
L 132.8592 81.024758 
L 133.008 80.713061 
L 133.1568 80.883997 
L 133.4544 80.772056 
L 133.6032 80.463309 
L 133.752 80.636487 
L 133.9008 80.597403 
L 134.1984 80.230724 
L 134.3472 80.405966 
L 134.496 80.100818 
L 134.6448 80.068637 
L 134.7936 80.245177 
L 134.9424 80.245177 
L 135.0912 79.94177 
L 135.8352 79.896255 
L 135.984 79.596948 
L 136.2816 79.614086 
L 136.4304 79.831922 
L 136.5792 79.435333 
L 136.728 79.418608 
L 136.8768 79.600399 
L 137.0256 79.279204 
L 137.1744 79.265518 
L 137.3232 79.44837 
L 137.472 79.153428 
L 137.6208 79.14275 
L 137.7696 79.326636 
L 137.9184 79.292979 
L 138.0672 79.000132 
L 138.216 79.184961 
L 138.3648 79.179238 
L 138.5136 78.887747 
L 138.6624 79.048153 
L 138.8112 79.045144 
L 138.96 78.754922 
L 139.1088 78.941609 
L 139.4064 78.839048 
L 140.0016 78.717106 
L 140.1504 78.905711 
L 140.2992 78.910903 
L 140.448 78.624515 
L 140.7456 78.795657 
L 141.0432 78.700617 
L 141.192 78.710558 
L 141.4896 78.617406 
L 141.6384 78.782443 
L 141.7872 78.499004 
L 142.0848 78.704098 
L 142.2336 78.421692 
L 142.5312 78.629765 
L 142.8288 78.515021 
L 143.1264 78.726427 
L 143.424 78.640001 
L 143.5728 78.833915 
L 143.8704 78.743742 
L 144.3168 78.66 
L 144.4656 78.855006 
L 144.6144 78.577024 
L 144.7632 78.772325 
L 145.2096 78.68932 
L 145.3584 78.885358 
L 145.5072 78.608881 
L 145.9536 79.029924 
L 146.1024 78.727578 
L 146.4 78.954706 
L 146.6976 79.044318 
L 146.9952 79.075526 
L 147.144 78.999512 
L 147.2928 79.197615 
L 147.4416 78.924147 
L 147.5904 79.122515 
L 147.7392 79.129418 
L 147.888 79.020927 
L 148.1856 79.254722 
L 148.4832 79.181864 
L 148.632 79.381235 
L 148.7808 79.272331 
L 148.9296 79.309203 
L 149.0784 79.508928 
L 149.2272 79.23782 
L 149.6736 79.676915 
L 149.8224 79.56751 
L 149.9712 79.607301 
L 150.2688 79.82148 
L 150.864 79.844694 
L 151.0128 80.155948 
L 151.1616 79.936047 
L 151.3104 80.180372 
L 151.608 80.113886 
L 151.7568 80.315794 
L 152.0544 80.205533 
L 152.2032 80.479945 
L 152.6496 80.415022 
L 152.7984 80.61755 
L 152.9472 80.553393 
L 153.096 80.756216 
L 153.5424 80.692767 
L 153.6912 80.895914 
L 153.84 80.784946 
L 154.1376 81.064373 
L 154.2864 80.953286 
L 154.584 81.360288 
L 154.7328 81.094843 
L 155.0304 81.502406 
L 155.1792 81.237403 
L 155.4768 81.673401 
L 155.7744 81.613138 
L 156.072 81.938226 
L 156.3696 81.826579 
L 156.5184 81.87876 
L 156.816 82.20435 
L 157.1136 82.257592 
L 157.2624 82.14565 
L 157.56 82.471741 
L 157.7088 82.471741 
L 157.8576 82.731287 
L 158.1552 82.647161 
L 158.304 83.058027 
L 158.4528 83.058027 
L 158.6016 82.795502 
L 159.048 83.328369 
L 159.1968 83.328369 
L 159.3456 83.562281 
L 159.4944 83.412848 
L 159.6432 83.506354 
L 159.792 83.393852 
L 160.0896 83.834156 
L 160.2384 83.721595 
L 160.3872 83.778967 
L 160.536 84.013529 
L 160.6848 83.90082 
L 160.9824 84.313692 
L 161.1312 84.229123 
L 161.4288 84.642261 
L 161.5776 84.409646 
L 161.7264 84.616451 
L 161.8752 84.503506 
L 162.1728 84.945433 
L 162.3216 84.832458 
L 162.6192 85.274591 
L 162.768 85.189817 
L 163.0656 85.457061 
L 163.2144 85.372168 
L 163.512 85.78678 
L 163.6608 85.701858 
L 163.8096 85.909223 
L 163.9584 85.824271 
L 164.4048 86.390056 
L 164.7024 86.305045 
L 165.1488 86.899561 
L 165.2976 86.899561 
L 165.4464 86.668775 
L 165.8928 87.264116 
L 166.3392 87.178928 
L 166.488 87.651827 
L 166.6368 87.56658 
L 166.7856 87.803147 
L 166.9344 87.717871 
L 167.0832 87.954468 
L 167.3808 87.783945 
L 167.5296 88.020571 
L 167.6784 87.935265 
L 167.8272 88.200386 
L 167.976 88.11508 
L 168.1248 88.351795 
L 168.2736 88.266489 
L 168.4224 88.740125 
L 168.5712 88.683195 
L 168.72 88.920146 
L 168.8688 88.834752 
L 169.0176 89.215973 
L 169.3152 89.130608 
L 169.464 89.31057 
L 169.6128 89.31057 
L 169.9104 89.813025 
L 170.0592 89.727601 
L 170.208 89.96467 
L 170.3568 89.893464 
L 170.5056 90.144839 
L 170.6544 90.059385 
L 170.952 90.562342 
L 171.1008 90.476829 
L 171.2496 90.714134 
L 171.3984 90.657116 
L 171.8448 91.218359 
L 171.9936 91.132817 
L 172.1424 91.398675 
L 172.2912 91.313133 
L 172.5888 91.816561 
L 172.7376 91.73096 
L 172.8864 91.997054 
L 173.0352 91.911424 
L 173.184 92.320756 
L 173.3328 92.235155 
L 173.4816 92.415619 
L 173.6304 92.415619 
L 173.7792 92.667466 
L 173.928 92.596112 
L 174.0768 92.790911 
L 174.3744 93.45212 
L 174.672 93.36646 
L 174.8208 93.632731 
L 174.9696 93.575624 
L 175.1184 93.813401 
L 175.2672 93.756265 
L 175.7136 94.34612 
L 175.8624 94.260401 
L 176.0112 94.52679 
L 176.16 94.469654 
L 176.6064 95.059538 
L 176.7552 94.97382 
L 176.904 95.240238 
L 177.0528 95.183102 
L 177.2016 95.563704 
L 177.3504 95.506597 
L 177.648 96.039493 
L 177.7968 95.953745 
L 178.2432 96.543688 
L 178.392 96.486523 
L 178.5408 96.753088 
L 178.6896 96.695893 
L 178.8384 97.076495 
L 178.9872 97.01933 
L 179.136 97.285866 
L 179.2848 97.228671 
L 179.4336 97.637885 
L 179.5824 97.552137 
L 179.7312 97.818674 
L 179.88 97.761479 
L 180.3264 98.35151 
L 180.4752 98.294315 
L 180.9216 98.884377 
L 181.0704 99.093747 
L 181.2192 99.093747 
L 181.368 99.431519 
L 181.5168 99.360077 
L 181.6656 99.626643 
L 181.9632 99.712244 
L 182.112 99.978721 
L 182.2608 99.921556 
L 182.7072 100.540259 
L 182.856 100.483093 
L 183.0048 100.863872 
L 183.1536 100.806736 
L 183.7488 101.691917 
L 183.8976 101.634751 
L 184.0464 102.044172 
L 184.1952 101.987036 
L 184.6416 102.577215 
L 184.9392 102.52005 
L 185.2368 103.081705 
L 185.3856 103.081705 
L 185.6832 103.700497 
L 185.832 103.786599 
L 185.9808 104.052899 
L 186.1296 103.995793 
L 186.2784 104.40542 
L 186.4272 104.348313 
L 186.8736 104.967164 
L 187.0224 104.910057 
L 187.1712 105.319773 
L 187.4688 105.262666 
L 187.6176 105.672471 
L 187.7664 105.58687 
L 188.064 105.968209 
L 188.2128 106.20572 
L 188.3616 106.148643 
L 188.5104 106.558565 
L 188.6592 106.501488 
L 188.808 106.911469 
L 188.9568 106.854422 
L 189.2544 107.473331 
L 189.552 107.416284 
L 189.7008 107.503537 
L 190.1472 108.122476 
L 190.296 108.065457 
L 190.4448 108.418686 
L 190.5936 108.418686 
L 190.8912 109.182338 
L 191.1888 109.125409 
L 191.784 110.126336 
L 192.0816 110.097871 
L 192.3792 110.568321 
L 192.528 110.862025 
L 192.6768 110.862025 
L 192.8256 110.97901 
L 193.272 111.654908 
L 193.4208 111.626473 
L 193.5696 111.743724 
L 194.016 112.565574 
L 194.1648 112.565574 
L 194.3136 113.004964 
L 194.76 113.094518 
L 195.0576 113.534055 
L 195.2064 113.534055 
L 195.3552 113.973681 
L 195.504 113.973681 
L 195.8016 114.413336 
L 195.9504 114.384959 
L 196.0992 114.85302 
L 196.248 114.85302 
L 196.3968 114.971717 
L 196.6944 115.439896 
L 196.8432 115.439896 
L 196.992 115.908134 
L 197.2896 115.879787 
L 197.5872 116.495659 
L 197.736 116.495659 
L 197.8848 116.964044 
L 198.1824 116.964044 
L 198.3312 117.112031 
L 198.48 117.580535 
L 198.6288 117.580535 
L 198.7776 117.728876 
L 198.9264 118.049097 
L 199.0752 118.049097 
L 199.5216 118.84322 
L 199.8192 118.84322 
L 200.1168 119.461156 
L 200.2656 119.475256 
L 200.4144 119.958272 
L 200.5632 119.958272 
L 200.712 120.107793 
L 201.0096 120.605027 
L 201.1584 120.605027 
L 201.3072 121.07409 
L 201.456 121.10229 
L 201.7536 121.402453 
L 202.0512 121.899864 
L 202.2 121.899864 
L 202.3488 122.397333 
L 202.4976 122.397333 
L 202.6464 122.576116 
L 202.7952 122.576116 
L 203.0928 123.224699 
L 203.2416 123.25281 
L 203.3904 123.404101 
L 203.688 123.901807 
L 203.8368 123.901807 
L 203.9856 124.399542 
L 204.1344 124.399542 
L 204.8784 125.257319 
L 205.0272 125.727209 
L 205.176 125.727209 
L 205.92 126.58658 
L 206.2176 127.237877 
L 206.3664 127.237877 
L 207.1104 128.071467 
L 207.2592 128.56988 
L 207.408 128.56988 
L 207.5568 128.752025 
L 207.7056 129.222594 
L 207.8544 129.250527 
L 208.152 129.405122 
L 208.4496 130.05872 
L 208.5984 130.086595 
L 208.7472 130.557399 
L 208.896 130.585274 
L 209.1936 130.924167 
L 209.4912 131.423023 
L 209.64 131.423023 
L 209.9376 132.078037 
L 210.0864 132.078037 
L 210.2352 132.262306 
L 210.384 132.733553 
L 210.5328 132.761339 
L 210.8304 132.945962 
L 211.128 133.602333 
L 211.2768 133.602333 
L 211.4256 134.259205 
L 211.5744 134.259205 
L 211.7232 134.44489 
L 211.872 134.44489 
L 212.0208 134.916608 
L 212.1696 134.944306 
L 212.3184 135.102647 
L 212.616 135.760965 
L 213.0624 135.788603 
L 213.5088 136.947105 
L 213.6576 137.120489 
L 213.9552 137.134294 
L 214.104 137.794086 
L 214.2528 137.794086 
L 214.9968 138.803804 
L 215.2944 139.303957 
L 215.4432 139.492975 
L 215.592 139.492975 
L 215.8896 140.155157 
L 216.0384 140.155157 
L 216.336 140.817899 
L 216.4848 140.845302 
L 216.6336 141.008038 
L 216.7824 141.508576 
L 216.9312 141.508576 
L 217.08 141.699098 
L 217.3776 142.335971 
L 217.5264 142.36333 
L 217.6752 142.527275 
L 217.824 143.028092 
L 217.9728 143.028092 
L 218.7168 144.077985 
L 218.8656 144.551842 
L 219.0144 144.551842 
L 219.7584 145.605687 
L 219.9072 146.079913 
L 220.056 146.107065 
L 220.3536 146.441342 
L 220.6512 146.942912 
L 220.8 147.137785 
L 220.9488 147.61238 
L 221.0976 147.639443 
L 221.544 148.309486 
L 222.4368 149.542866 
L 222.5856 150.018065 
L 222.7344 150.044996 
L 223.032 150.413253 
L 223.1808 150.888703 
L 223.3296 150.888703 
L 223.4784 151.086954 
L 223.776 151.747852 
L 223.9248 151.761244 
L 224.0736 151.960335 
L 224.3712 152.635747 
L 224.52 152.635747 
L 224.8176 153.311748 
L 224.9664 153.512196 
L 225.264 154.189318 
L 225.4128 154.189318 
L 225.5616 154.364 
L 225.8592 155.068894 
L 226.008 155.068894 
L 226.1568 155.257823 
L 226.3056 155.747815 
L 226.4544 155.747815 
L 226.752 156.153608 
L 227.0496 156.834181 
L 227.1984 156.860655 
L 227.496 157.269043 
L 227.6448 157.772766 
L 227.7936 157.825581 
L 228.6864 159.230324 
L 232.2576 165.006621 
L 232.8528 166.040556 
L 233.0016 166.092029 
L 233.5968 167.105979 
L 233.7456 167.182819 
L 234.0432 167.981499 
L 236.2752 171.900241 
L 236.424 171.862102 
L 236.7216 172.408035 
L 237.0192 172.473283 
L 237.4656 173.272464 
L 237.6144 173.065276 
L 237.912 173.617434 
L 238.0608 173.617434 
L 238.5072 174.218807 
L 238.8048 174.21863 
L 239.2512 174.851108 
L 239.4 174.854294 
L 239.8464 175.698547 
L 239.9952 175.496373 
L 240.4416 176.345907 
L 240.5904 176.14506 
L 240.888 176.752717 
L 241.0368 176.752717 
L 241.4832 177.397716 
L 241.632 177.415651 
L 241.9296 177.775236 
L 242.0784 177.796076 
L 242.5248 178.470514 
L 242.6736 178.495335 
L 243.12 179.372581 
L 243.2688 179.202014 
L 243.5664 179.790438 
L 243.864 179.89328 
L 244.1616 180.509077 
L 244.4592 180.615783 
L 244.9056 181.346531 
L 245.0544 181.346531 
L 245.2032 181.669776 
L 245.5008 181.783488 
L 245.6496 182.158116 
L 245.7984 182.158116 
L 245.9472 182.52925 
L 246.2448 182.605043 
L 246.6912 183.306249 
L 246.84 183.365022 
L 247.1376 183.761243 
L 247.2864 183.823983 
L 247.584 184.467862 
L 247.7328 184.288298 
L 248.0304 185.00033 
L 248.1792 185.00033 
L 248.328 185.409928 
L 248.6256 185.494821 
L 248.9232 186.229197 
L 249.072 186.055223 
L 249.2208 186.055223 
L 249.5184 186.716977 
L 249.816 186.887824 
L 249.9648 187.23157 
L 250.2624 187.40634 
L 250.56 187.813091 
L 250.7088 187.910978 
L 251.0064 188.588203 
L 251.1552 188.442399 
L 251.6016 189.183633 
L 251.7504 189.313878 
L 252.048 189.726042 
L 252.1968 189.842408 
L 252.3456 190.198852 
L 252.6432 190.39781 
L 252.9408 190.813558 
L 253.0896 190.942165 
L 253.3872 191.513437 
L 253.6848 191.587062 
L 253.9824 192.165398 
L 254.1312 192.165398 
L 254.28 192.88302 
L 254.4288 192.88302 
L 254.5776 193.104956 
L 254.7264 193.104956 
L 254.8752 193.330802 
L 255.024 193.330802 
L 255.4704 194.305019 
L 255.6192 194.364441 
L 255.768 194.552073 
L 255.9168 194.932394 
L 256.0656 194.932394 
L 256.2144 195.17402 
L 256.512 195.224107 
L 256.8096 195.796057 
L 256.9584 195.846246 
L 257.1072 196.22701 
L 257.256 196.22701 
L 257.4048 196.849282 
L 257.5536 196.726309 
L 257.7024 197.098873 
L 257.8512 197.098873 
L 258.4464 197.970189 
L 258.744 197.970189 
L 259.0416 198.55823 
L 259.1904 198.592093 
L 259.488 199.213967 
L 259.6368 199.281795 
L 259.7856 199.714283 
L 259.9344 199.714283 
L 260.0832 199.903802 
L 260.232 200.336585 
L 260.3808 200.336585 
L 260.5296 200.593903 
L 260.6784 200.593903 
L 260.8272 200.975877 
L 260.976 200.83401 
L 261.1248 201.216028 
L 261.4224 201.455943 
L 261.72 202.094984 
L 261.8688 202.094984 
L 262.0176 202.528755 
L 262.1664 202.528755 
L 262.3152 202.403171 
L 262.7616 203.407667 
L 263.0592 203.459258 
L 263.5056 203.95509 
L 263.6544 203.95509 
L 263.8032 204.337904 
L 264.2496 204.646106 
L 264.696 205.651236 
L 264.8448 205.651236 
L 264.9936 205.524177 
L 265.1424 205.90739 
L 265.2912 205.959467 
L 265.44 206.145977 
L 265.5888 206.598951 
L 265.8864 206.454046 
L 266.0352 206.837494 
L 266.4816 207.145621 
L 266.6304 207.529262 
L 266.7792 207.401318 
L 266.928 207.785002 
L 267.0768 207.837448 
L 267.5232 208.459484 
L 267.672 208.331083 
L 267.8208 208.715018 
L 268.2672 209.023101 
L 268.416 209.407213 
L 268.5648 209.278384 
L 268.7136 209.71537 
L 268.8624 209.71537 
L 269.3088 210.337347 
L 269.4576 210.208061 
L 269.6064 210.64546 
L 269.7552 210.64546 
L 270.0528 210.900493 
L 270.2016 210.971241 
L 270.3504 211.208531 
L 270.4992 211.208531 
L 270.7968 211.830302 
L 271.2432 212.156069 
L 271.392 212.523205 
L 271.5408 212.392872 
L 271.8384 212.464063 
L 271.9872 212.831259 
L 272.136 212.700778 
L 272.2848 213.085819 
L 272.4336 213.157129 
L 272.5824 213.524472 
L 272.7312 213.393785 
L 272.88 213.779018 
L 273.0288 213.85043 
L 273.1776 213.701735 
L 273.3264 214.087042 
L 273.7728 214.395066 
L 273.9216 214.78055 
L 274.0704 214.70306 
L 274.2192 215.088633 
L 274.368 214.957208 
L 274.5168 215.342824 
L 274.6656 215.396701 
L 274.8144 215.578861 
L 275.112 215.650819 
L 275.5584 215.958799 
L 275.7072 216.344696 
L 275.856 216.194644 
L 276.0048 216.266764 
L 276.1536 216.652735 
L 276.3024 216.520573 
L 276.6 216.960773 
L 276.7488 216.828449 
L 277.0464 217.450028 
L 277.6416 217.830409 
L 277.7904 218.216777 
L 278.088 218.065708 
L 278.2368 218.524772 
L 278.6832 218.455306 
L 278.832 218.832752 
L 278.9808 218.699528 
L 279.1296 219.086103 
L 279.2784 219.140717 
L 279.4272 219.007346 
L 279.576 219.393995 
L 279.7248 219.448668 
L 279.8736 219.315134 
L 280.0224 219.701871 
L 280.1712 219.774847 
L 280.32 219.622922 
L 280.4688 220.009733 
L 280.6176 219.948984 
L 280.9152 220.390718 
L 281.2128 220.625413 
L 281.808 221.006546 
L 282.1056 221.259395 
L 282.4032 221.314437 
L 282.7008 221.567213 
L 283.296 221.948567 
L 283.5936 222.256444 
L 283.7424 222.121583 
L 283.8912 222.490592 
L 284.1888 222.564306 
L 284.6352 222.872153 
L 284.9328 223.179985 
L 285.6768 223.426331 
L 285.8256 223.814115 
L 286.1232 223.808112 
L 286.4208 224.177491 
L 286.5696 224.041804 
L 287.1648 224.349503 
L 287.3136 224.7932 
L 287.6112 224.657203 
L 287.76 224.657203 
L 288.3552 225.095015 
L 288.504 224.958856 
L 288.6528 225.347024 
L 288.9504 225.266511 
L 289.0992 225.710635 
L 289.3968 225.574167 
L 289.5456 225.648721 
L 289.8432 226.092978 
L 289.992 225.937793 
L 290.1408 226.012377 
L 290.2896 226.245478 
L 290.4384 226.245478 
L 290.8848 226.627909 
L 291.3312 226.621847 
L 291.48 227.010457 
L 291.6288 226.854742 
L 292.5216 227.237305 
L 292.6704 227.156291 
L 292.8192 227.221864 
L 292.968 227.601256 
L 293.1168 227.657463 
L 293.2656 227.520183 
L 293.4144 227.576434 
L 293.5632 227.965295 
L 293.712 227.827853 
L 293.8608 227.884163 
L 294.0096 227.802987 
L 294.1584 228.191893 
L 294.3072 228.248232 
L 294.456 228.110613 
L 294.7536 228.242141 
L 295.0512 228.39942 
L 295.3488 228.606283 
L 295.6464 228.449771 
L 295.7952 228.838824 
L 295.944 228.895282 
L 296.0928 228.757397 
L 296.3904 228.889176 
L 296.5392 228.732443 
L 296.8368 229.178115 
L 296.9856 229.244027 
L 297.2832 229.153161 
L 297.432 229.54242 
L 297.8784 229.360378 
L 298.0272 229.435876 
L 298.3248 229.881815 
L 298.6224 229.724654 
L 298.7712 229.724654 
L 298.92 229.85683 
L 299.0688 229.699625 
L 299.2176 229.756304 
L 299.3664 230.145711 
L 299.5152 229.988329 
L 300.408 230.466242 
L 300.5568 230.32762 
L 300.7056 230.441184 
L 301.0032 230.302547 
L 301.3008 230.359344 
L 301.4496 230.648018 
L 301.7472 230.704874 
L 301.896 230.771169 
L 302.0448 230.622916 
L 302.64 230.968431 
L 302.7888 231.101168 
L 302.9376 230.9433 
L 303.384 231.076066 
L 303.6816 230.975097 
L 303.8304 231.421729 
L 303.9792 231.263712 
L 304.5744 231.453512 
L 304.872 231.295525 
L 305.0208 231.409428 
L 305.1696 231.260881 
L 305.3184 231.641143 
L 305.616 231.755135 
L 305.7648 231.596957 
L 306.0624 231.729989 
L 306.2112 231.628814 
L 306.5088 231.761802 
L 306.6576 231.603638 
L 306.8064 231.660656 
L 306.9552 232.031538 
L 307.104 231.873153 
L 307.4016 231.949286 
L 307.5504 231.949286 
L 307.6992 232.063395 
L 307.848 231.962132 
L 307.9968 232.019209 
L 308.1456 231.879835 
L 308.7408 232.051066 
L 308.8896 231.892695 
L 309.0384 231.949802 
L 309.1872 232.396846 
L 309.336 232.238358 
L 309.7824 232.352615 
L 309.9312 232.136873 
L 310.2288 232.384501 
L 310.5264 232.225998 
L 310.9728 232.397348 
L 311.1216 232.29601 
L 311.2704 232.353117 
L 311.568 232.213624 
L 311.8656 232.327911 
L 312.0144 232.2265 
L 312.4608 232.340772 
L 312.6096 232.258416 
L 312.7584 232.315552 
L 312.9072 232.686582 
L 313.056 232.686582 
L 313.2048 232.527887 
L 313.8 232.699443 
L 313.9488 232.540777 
L 314.0976 232.712303 
L 314.2464 232.525041 
L 314.544 232.553653 
L 314.6928 232.725164 
L 314.8416 232.528389 
L 315.1392 232.547459 
L 315.4368 232.747553 
L 315.8832 232.928311 
L 316.032 232.741373 
L 316.4784 232.922132 
L 316.6272 232.735193 
L 317.0736 232.915967 
L 317.2224 232.719501 
L 317.6688 232.852739 
L 317.8176 232.947824 
L 317.9664 232.751402 
L 318.1152 232.751402 
L 318.264 232.551485 
L 318.4128 232.608473 
L 318.5616 232.421742 
L 319.008 232.421742 
L 319.3056 232.583312 
L 319.4544 232.367998 
L 319.752 232.398439 
L 319.9008 232.596144 
L 320.1984 232.532975 
L 320.6448 232.589993 
L 320.7936 232.469793 
L 321.6864 232.659784 
L 321.8352 232.482639 
L 322.1328 232.539657 
L 322.4304 232.653619 
L 322.5792 232.162432 
L 323.472 232.352232 
L 323.6208 232.213241 
L 324.216 232.346067 
L 324.5136 232.207091 
L 324.96 232.301983 
L 325.1088 232.025713 
L 325.2576 232.063587 
L 325.5552 231.905822 
L 326.8944 232.133186 
L 327.0432 231.928121 
L 327.192 231.93759 
L 327.3408 231.642412 
L 329.2752 231.680271 
L 329.424 231.347189 
L 330.3168 231.347189 
L 330.4656 231.561191 
L 331.2096 231.504527 
L 331.3584 231.190206 
L 333.144 231.095829 
L 335.8224 230.778292 
L 335.9712 230.45465 
L 336.2688 230.416952 
L 336.4176 230.630246 
L 338.352 230.479604 
L 338.5008 230.108884 
L 338.6496 230.321942 
L 339.6912 230.22792 
L 340.7328 230.133824 
L 340.8816 230.309243 
L 341.1792 230.271634 
L 341.328 229.957283 
L 342.816 229.825726 
L 342.9648 230.000939 
L 347.1312 229.49552 
L 347.28 229.698726 
L 348.024 229.62367 
L 348.768 229.56736 
L 348.9168 229.234322 
L 349.6608 229.178042 
L 349.8096 229.352916 
L 351 229.259174 
L 351.8928 229.165358 
L 352.0416 229.358992 
L 353.232 229.265265 
L 354.4224 229.171449 
L 354.5712 228.85726 
L 354.72 229.050688 
L 356.0592 228.957049 
L 357.3984 228.844591 
L 357.5472 229.056749 
L 359.4816 228.906919 
L 360.672 228.831937 
L 360.8208 229.04411 
L 362.3088 228.950471 
L 364.392 228.856759 
L 364.5408 228.838013 
L 364.6896 229.050186 
L 366.7728 228.956562 
L 367.9632 228.900341 
L 370.344 228.806584 
L 371.6832 228.731528 
L 373.7664 228.637639 
L 373.9152 228.618864 
L 374.064 228.831435 
L 375.2544 228.775155 
L 377.9328 228.681295 
L 379.1232 228.624955 
L 379.272 228.624955 
L 379.4208 228.818766 
L 382.992 228.724951 
L 384.0336 228.687401 
L 385.968 228.621666 
L 386.4144 229.120227 
L 395.4912 229.026294 
L 395.64 229.34032 
L 403.824 229.265044 
L 403.9728 229.578997 
L 410.0736 229.541299 
L 410.2224 229.754593 
L 411.4128 229.754593 
L 411.5616 230.068723 
L 411.7104 229.855208 
L 417.3648 229.855208 
L 417.5136 230.068723 
L 418.1088 230.068723 
L 418.2576 229.855208 
L 418.5552 229.855208 
L 419.0016 230.382853 
L 419.448 230.382853 
L 419.5968 230.169117 
L 426.4416 230.169117 
L 426.5904 230.483026 
L 434.0304 230.520841 
L 434.1792 230.834794 
L 442.512 230.910469 
L 442.6608 231.224496 
L 451.1424 231.319123 
L 451.2912 231.104693 
L 451.7376 231.104693 
L 451.8864 231.319123 
L 452.0352 231.319123 
L 452.184 231.633253 
L 453.0768 231.633253 
L 453.2256 231.418602 
L 462.0048 231.437569 
L 462.1536 231.751492 
L 473.1648 231.827418 
L 473.3136 232.14143 
L 480.456 232.236367 
L 481.3488 232.255363 
L 486.8544 232.255363 
L 487.0032 232.569478 
L 487.4496 232.569478 
L 487.5984 232.354134 
L 497.7168 232.37316 
L 497.8656 232.588474 
L 498.4608 232.569478 
L 498.6096 232.354134 
L 499.9488 232.37316 
L 500.0976 232.588474 
L 500.6928 232.569478 
L 500.8416 232.354134 
L 501.4368 232.37316 
L 501.5856 232.588474 
L 503.6688 232.687083 
L 504.5616 232.706124 
L 518.4 232.763245 
L 518.4 232.763245 
" style="fill:none;stroke:#0000ff;stroke-linecap:square;"/>
   </g>
   <g id="line2d_4">
    <path clip-path="url(#pf508af8016)" d="M 72.1488 148.233188 
L 91.6416 148.233188 
L 91.7904 216.966563 
L 94.4688 216.966563 
L 94.6176 182.599876 
L 97.5936 182.599876 
L 97.7424 148.233188 
L 100.5696 148.233188 
L 100.7184 113.866501 
L 103.5456 113.866501 
L 103.6944 79.499814 
L 106.5216 79.499814 
L 106.6704 45.133126 
L 518.4 45.133126 
L 518.4 45.133126 
" style="fill:none;stroke:#000000;stroke-linecap:square;"/>
   </g>
   <g id="line2d_5">
    <path clip-path="url(#pf508af8016)" d="M 72.1488 79.499814 
L 87.0288 79.499814 
L 235.9776 234.149907 
L 518.4 234.149907 
L 518.4 234.149907 
" style="fill:none;stroke:#bf00bf;stroke-linecap:square;"/>
   </g>
   <g id="patch_3">
    <path d="M 72 43.2 
L 518.4 43.2 
" style="fill:none;stroke:#000000;stroke-linecap:square;stroke-linejoin:miter;"/>
   </g>
   <g id="patch_4">
    <path d="M 518.4 388.8 
L 518.4 43.2 
" style="fill:none;stroke:#000000;stroke-linecap:square;stroke-linejoin:miter;"/>
   </g>
   <g id="patch_5">
    <path d="M 72 388.8 
L 518.4 388.8 
" style="fill:none;stroke:#000000;stroke-linecap:square;stroke-linejoin:miter;"/>
   </g>
   <g id="patch_6">
    <path d="M 72 388.8 
L 72 43.2 
" style="fill:none;stroke:#000000;stroke-linecap:square;stroke-linejoin:miter;"/>
   </g>
   <g id="matplotlib.axis_1">
    <g id="xtick_1">
     <g id="line2d_6">
      <path clip-path="url(#pf508af8016)" d="M 72 388.8 
L 72 43.2 
" style="fill:none;stroke:#000000;stroke-dasharray:1.000000,3.000000;stroke-dashoffset:0.0;stroke-width:0.5;"/>
     </g>
     <g id="line2d_7">
      <defs>
       <path d="M 0 0 
L 0 -4 
" id="mdb337c8cf0" style="stroke:#000000;stroke-width:0.5;"/>
      </defs>
      <g>
       <use style="stroke:#000000;stroke-width:0.5;" x="72.0" xlink:href="#mdb337c8cf0" y="388.8"/>
      </g>
     </g>
     <g id="line2d_8">
      <defs>
       <path d="M 0 0 
L 0 4 
" id="mdbd3460c75" style="stroke:#000000;stroke-width:0.5;"/>
      </defs>
      <g>
       <use style="stroke:#000000;stroke-width:0.5;" x="72.0" xlink:href="#mdbd3460c75" y="43.2"/>
      </g>
     </g>
     <g id="text_1">
      <!-- 0 -->
      <defs>
       <path d="M 31.78125 66.40625 
Q 24.171875 66.40625 20.328125 58.90625 
Q 16.5 51.421875 16.5 36.375 
Q 16.5 21.390625 20.328125 13.890625 
Q 24.171875 6.390625 31.78125 6.390625 
Q 39.453125 6.390625 43.28125 13.890625 
Q 47.125 21.390625 47.125 36.375 
Q 47.125 51.421875 43.28125 58.90625 
Q 39.453125 66.40625 31.78125 66.40625 
M 31.78125 74.21875 
Q 44.046875 74.21875 50.515625 64.515625 
Q 56.984375 54.828125 56.984375 36.375 
Q 56.984375 17.96875 50.515625 8.265625 
Q 44.046875 -1.421875 31.78125 -1.421875 
Q 19.53125 -1.421875 13.0625 8.265625 
Q 6.59375 17.96875 6.59375 36.375 
Q 6.59375 54.828125 13.0625 64.515625 
Q 19.53125 74.21875 31.78125 74.21875 
" id="BitstreamVeraSans-Roman-30"/>
      </defs>
      <g transform="translate(68.1825 401.918125)scale(0.12 -0.12)">
       <use xlink:href="#BitstreamVeraSans-Roman-30"/>
      </g>
     </g>
    </g>
    <g id="xtick_2">
     <g id="line2d_9">
      <path clip-path="url(#pf508af8016)" d="M 146.4 388.8 
L 146.4 43.2 
" style="fill:none;stroke:#000000;stroke-dasharray:1.000000,3.000000;stroke-dashoffset:0.0;stroke-width:0.5;"/>
     </g>
     <g id="line2d_10">
      <g>
       <use style="stroke:#000000;stroke-width:0.5;" x="146.4" xlink:href="#mdb337c8cf0" y="388.8"/>
      </g>
     </g>
     <g id="line2d_11">
      <g>
       <use style="stroke:#000000;stroke-width:0.5;" x="146.4" xlink:href="#mdbd3460c75" y="43.2"/>
      </g>
     </g>
     <g id="text_2">
      <!-- 5 -->
      <defs>
       <path d="M 10.796875 72.90625 
L 49.515625 72.90625 
L 49.515625 64.59375 
L 19.828125 64.59375 
L 19.828125 46.734375 
Q 21.96875 47.46875 24.109375 47.828125 
Q 26.265625 48.1875 28.421875 48.1875 
Q 40.625 48.1875 47.75 41.5 
Q 54.890625 34.8125 54.890625 23.390625 
Q 54.890625 11.625 47.5625 5.09375 
Q 40.234375 -1.421875 26.90625 -1.421875 
Q 22.3125 -1.421875 17.546875 -0.640625 
Q 12.796875 0.140625 7.71875 1.703125 
L 7.71875 11.625 
Q 12.109375 9.234375 16.796875 8.0625 
Q 21.484375 6.890625 26.703125 6.890625 
Q 35.15625 6.890625 40.078125 11.328125 
Q 45.015625 15.765625 45.015625 23.390625 
Q 45.015625 31 40.078125 35.4375 
Q 35.15625 39.890625 26.703125 39.890625 
Q 22.75 39.890625 18.8125 39.015625 
Q 14.890625 38.140625 10.796875 36.28125 
z
" id="BitstreamVeraSans-Roman-35"/>
      </defs>
      <g transform="translate(142.5825 401.918125)scale(0.12 -0.12)">
       <use xlink:href="#BitstreamVeraSans-Roman-35"/>
      </g>
     </g>
    </g>
    <g id="xtick_3">
     <g id="line2d_12">
      <path clip-path="url(#pf508af8016)" d="M 220.8 388.8 
L 220.8 43.2 
" style="fill:none;stroke:#000000;stroke-dasharray:1.000000,3.000000;stroke-dashoffset:0.0;stroke-width:0.5;"/>
     </g>
     <g id="line2d_13">
      <g>
       <use style="stroke:#000000;stroke-width:0.5;" x="220.8" xlink:href="#mdb337c8cf0" y="388.8"/>
      </g>
     </g>
     <g id="line2d_14">
      <g>
       <use style="stroke:#000000;stroke-width:0.5;" x="220.8" xlink:href="#mdbd3460c75" y="43.2"/>
      </g>
     </g>
     <g id="text_3">
      <!-- 10 -->
      <defs>
       <path d="M 12.40625 8.296875 
L 28.515625 8.296875 
L 28.515625 63.921875 
L 10.984375 60.40625 
L 10.984375 69.390625 
L 28.421875 72.90625 
L 38.28125 72.90625 
L 38.28125 8.296875 
L 54.390625 8.296875 
L 54.390625 0 
L 12.40625 0 
z
" id="BitstreamVeraSans-Roman-31"/>
      </defs>
      <g transform="translate(213.165 401.918125)scale(0.12 -0.12)">
       <use xlink:href="#BitstreamVeraSans-Roman-31"/>
       <use x="63.623046875" xlink:href="#BitstreamVeraSans-Roman-30"/>
      </g>
     </g>
    </g>
    <g id="xtick_4">
     <g id="line2d_15">
      <path clip-path="url(#pf508af8016)" d="M 295.2 388.8 
L 295.2 43.2 
" style="fill:none;stroke:#000000;stroke-dasharray:1.000000,3.000000;stroke-dashoffset:0.0;stroke-width:0.5;"/>
     </g>
     <g id="line2d_16">
      <g>
       <use style="stroke:#000000;stroke-width:0.5;" x="295.2" xlink:href="#mdb337c8cf0" y="388.8"/>
      </g>
     </g>
     <g id="line2d_17">
      <g>
       <use style="stroke:#000000;stroke-width:0.5;" x="295.2" xlink:href="#mdbd3460c75" y="43.2"/>
      </g>
     </g>
     <g id="text_4">
      <!-- 15 -->
      <g transform="translate(287.565 401.918125)scale(0.12 -0.12)">
       <use xlink:href="#BitstreamVeraSans-Roman-31"/>
       <use x="63.623046875" xlink:href="#BitstreamVeraSans-Roman-35"/>
      </g>
     </g>
    </g>
    <g id="xtick_5">
     <g id="line2d_18">
      <path clip-path="url(#pf508af8016)" d="M 369.6 388.8 
L 369.6 43.2 
" style="fill:none;stroke:#000000;stroke-dasharray:1.000000,3.000000;stroke-dashoffset:0.0;stroke-width:0.5;"/>
     </g>
     <g id="line2d_19">
      <g>
       <use style="stroke:#000000;stroke-width:0.5;" x="369.6" xlink:href="#mdb337c8cf0" y="388.8"/>
      </g>
     </g>
     <g id="line2d_20">
      <g>
       <use style="stroke:#000000;stroke-width:0.5;" x="369.6" xlink:href="#mdbd3460c75" y="43.2"/>
      </g>
     </g>
     <g id="text_5">
      <!-- 20 -->
      <defs>
       <path d="M 19.1875 8.296875 
L 53.609375 8.296875 
L 53.609375 0 
L 7.328125 0 
L 7.328125 8.296875 
Q 12.9375 14.109375 22.625 23.890625 
Q 32.328125 33.6875 34.8125 36.53125 
Q 39.546875 41.84375 41.421875 45.53125 
Q 43.3125 49.21875 43.3125 52.78125 
Q 43.3125 58.59375 39.234375 62.25 
Q 35.15625 65.921875 28.609375 65.921875 
Q 23.96875 65.921875 18.8125 64.3125 
Q 13.671875 62.703125 7.8125 59.421875 
L 7.8125 69.390625 
Q 13.765625 71.78125 18.9375 73 
Q 24.125 74.21875 28.421875 74.21875 
Q 39.75 74.21875 46.484375 68.546875 
Q 53.21875 62.890625 53.21875 53.421875 
Q 53.21875 48.921875 51.53125 44.890625 
Q 49.859375 40.875 45.40625 35.40625 
Q 44.1875 33.984375 37.640625 27.21875 
Q 31.109375 20.453125 19.1875 8.296875 
" id="BitstreamVeraSans-Roman-32"/>
      </defs>
      <g transform="translate(361.965 401.918125)scale(0.12 -0.12)">
       <use xlink:href="#BitstreamVeraSans-Roman-32"/>
       <use x="63.623046875" xlink:href="#BitstreamVeraSans-Roman-30"/>
      </g>
     </g>
    </g>
    <g id="xtick_6">
     <g id="line2d_21">
      <path clip-path="url(#pf508af8016)" d="M 444 388.8 
L 444 43.2 
" style="fill:none;stroke:#000000;stroke-dasharray:1.000000,3.000000;stroke-dashoffset:0.0;stroke-width:0.5;"/>
     </g>
     <g id="line2d_22">
      <g>
       <use style="stroke:#000000;stroke-width:0.5;" x="444.0" xlink:href="#mdb337c8cf0" y="388.8"/>
      </g>
     </g>
     <g id="line2d_23">
      <g>
       <use style="stroke:#000000;stroke-width:0.5;" x="444.0" xlink:href="#mdbd3460c75" y="43.2"/>
      </g>
     </g>
     <g id="text_6">
      <!-- 25 -->
      <g transform="translate(436.365 401.918125)scale(0.12 -0.12)">
       <use xlink:href="#BitstreamVeraSans-Roman-32"/>
       <use x="63.623046875" xlink:href="#BitstreamVeraSans-Roman-35"/>
      </g>
     </g>
    </g>
    <g id="xtick_7">
     <g id="line2d_24">
      <path clip-path="url(#pf508af8016)" d="M 518.4 388.8 
L 518.4 43.2 
" style="fill:none;stroke:#000000;stroke-dasharray:1.000000,3.000000;stroke-dashoffset:0.0;stroke-width:0.5;"/>
     </g>
     <g id="line2d_25">
      <g>
       <use style="stroke:#000000;stroke-width:0.5;" x="518.4" xlink:href="#mdb337c8cf0" y="388.8"/>
      </g>
     </g>
     <g id="line2d_26">
      <g>
       <use style="stroke:#000000;stroke-width:0.5;" x="518.4" xlink:href="#mdbd3460c75" y="43.2"/>
      </g>
     </g>
     <g id="text_7">
      <!-- 30 -->
      <defs>
       <path d="M 40.578125 39.3125 
Q 47.65625 37.796875 51.625 33 
Q 55.609375 28.21875 55.609375 21.1875 
Q 55.609375 10.40625 48.1875 4.484375 
Q 40.765625 -1.421875 27.09375 -1.421875 
Q 22.515625 -1.421875 17.65625 -0.515625 
Q 12.796875 0.390625 7.625 2.203125 
L 7.625 11.71875 
Q 11.71875 9.328125 16.59375 8.109375 
Q 21.484375 6.890625 26.8125 6.890625 
Q 36.078125 6.890625 40.9375 10.546875 
Q 45.796875 14.203125 45.796875 21.1875 
Q 45.796875 27.640625 41.28125 31.265625 
Q 36.765625 34.90625 28.71875 34.90625 
L 20.21875 34.90625 
L 20.21875 43.015625 
L 29.109375 43.015625 
Q 36.375 43.015625 40.234375 45.921875 
Q 44.09375 48.828125 44.09375 54.296875 
Q 44.09375 59.90625 40.109375 62.90625 
Q 36.140625 65.921875 28.71875 65.921875 
Q 24.65625 65.921875 20.015625 65.03125 
Q 15.375 64.15625 9.8125 62.3125 
L 9.8125 71.09375 
Q 15.4375 72.65625 20.34375 73.4375 
Q 25.25 74.21875 29.59375 74.21875 
Q 40.828125 74.21875 47.359375 69.109375 
Q 53.90625 64.015625 53.90625 55.328125 
Q 53.90625 49.265625 50.4375 45.09375 
Q 46.96875 40.921875 40.578125 39.3125 
" id="BitstreamVeraSans-Roman-33"/>
      </defs>
      <g transform="translate(510.765 401.918125)scale(0.12 -0.12)">
       <use xlink:href="#BitstreamVeraSans-Roman-33"/>
       <use x="63.623046875" xlink:href="#BitstreamVeraSans-Roman-30"/>
      </g>
     </g>
    </g>
    <g id="text_8">
     <!-- Time [s] -->
     <defs>
      <path id="BitstreamVeraSans-Roman-20"/>
      <path d="M 8.59375 75.984375 
L 29.296875 75.984375 
L 29.296875 69 
L 17.578125 69 
L 17.578125 -6.203125 
L 29.296875 -6.203125 
L 29.296875 -13.1875 
L 8.59375 -13.1875 
z
" id="BitstreamVeraSans-Roman-5b"/>
      <path d="M 30.421875 75.984375 
L 30.421875 -13.1875 
L 9.71875 -13.1875 
L 9.71875 -6.203125 
L 21.390625 -6.203125 
L 21.390625 69 
L 9.71875 69 
L 9.71875 75.984375 
z
" id="BitstreamVeraSans-Roman-5d"/>
      <path d="M 52 44.1875 
Q 55.375 50.25 60.0625 53.125 
Q 64.75 56 71.09375 56 
Q 79.640625 56 84.28125 50.015625 
Q 88.921875 44.046875 88.921875 33.015625 
L 88.921875 0 
L 79.890625 0 
L 79.890625 32.71875 
Q 79.890625 40.578125 77.09375 44.375 
Q 74.3125 48.1875 68.609375 48.1875 
Q 61.625 48.1875 57.5625 43.546875 
Q 53.515625 38.921875 53.515625 30.90625 
L 53.515625 0 
L 44.484375 0 
L 44.484375 32.71875 
Q 44.484375 40.625 41.703125 44.40625 
Q 38.921875 48.1875 33.109375 48.1875 
Q 26.21875 48.1875 22.15625 43.53125 
Q 18.109375 38.875 18.109375 30.90625 
L 18.109375 0 
L 9.078125 0 
L 9.078125 54.6875 
L 18.109375 54.6875 
L 18.109375 46.1875 
Q 21.1875 51.21875 25.484375 53.609375 
Q 29.78125 56 35.6875 56 
Q 41.65625 56 45.828125 52.96875 
Q 50 49.953125 52 44.1875 
" id="BitstreamVeraSans-Roman-6d"/>
      <path d="M 9.421875 54.6875 
L 18.40625 54.6875 
L 18.40625 0 
L 9.421875 0 
z
M 9.421875 75.984375 
L 18.40625 75.984375 
L 18.40625 64.59375 
L 9.421875 64.59375 
z
" id="BitstreamVeraSans-Roman-69"/>
      <path d="M 56.203125 29.59375 
L 56.203125 25.203125 
L 14.890625 25.203125 
Q 15.484375 15.921875 20.484375 11.0625 
Q 25.484375 6.203125 34.421875 6.203125 
Q 39.59375 6.203125 44.453125 7.46875 
Q 49.3125 8.734375 54.109375 11.28125 
L 54.109375 2.78125 
Q 49.265625 0.734375 44.1875 -0.34375 
Q 39.109375 -1.421875 33.890625 -1.421875 
Q 20.796875 -1.421875 13.15625 6.1875 
Q 5.515625 13.8125 5.515625 26.8125 
Q 5.515625 40.234375 12.765625 48.109375 
Q 20.015625 56 32.328125 56 
Q 43.359375 56 49.78125 48.890625 
Q 56.203125 41.796875 56.203125 29.59375 
M 47.21875 32.234375 
Q 47.125 39.59375 43.09375 43.984375 
Q 39.0625 48.390625 32.421875 48.390625 
Q 24.90625 48.390625 20.390625 44.140625 
Q 15.875 39.890625 15.1875 32.171875 
z
" id="BitstreamVeraSans-Roman-65"/>
      <path d="M -0.296875 72.90625 
L 61.375 72.90625 
L 61.375 64.59375 
L 35.5 64.59375 
L 35.5 0 
L 25.59375 0 
L 25.59375 64.59375 
L -0.296875 64.59375 
z
" id="BitstreamVeraSans-Roman-54"/>
      <path d="M 44.28125 53.078125 
L 44.28125 44.578125 
Q 40.484375 46.53125 36.375 47.5 
Q 32.28125 48.484375 27.875 48.484375 
Q 21.1875 48.484375 17.84375 46.4375 
Q 14.5 44.390625 14.5 40.28125 
Q 14.5 37.15625 16.890625 35.375 
Q 19.28125 33.59375 26.515625 31.984375 
L 29.59375 31.296875 
Q 39.15625 29.25 43.1875 25.515625 
Q 47.21875 21.78125 47.21875 15.09375 
Q 47.21875 7.46875 41.1875 3.015625 
Q 35.15625 -1.421875 24.609375 -1.421875 
Q 20.21875 -1.421875 15.453125 -0.5625 
Q 10.6875 0.296875 5.421875 2 
L 5.421875 11.28125 
Q 10.40625 8.6875 15.234375 7.390625 
Q 20.0625 6.109375 24.8125 6.109375 
Q 31.15625 6.109375 34.5625 8.28125 
Q 37.984375 10.453125 37.984375 14.40625 
Q 37.984375 18.0625 35.515625 20.015625 
Q 33.0625 21.96875 24.703125 23.78125 
L 21.578125 24.515625 
Q 13.234375 26.265625 9.515625 29.90625 
Q 5.8125 33.546875 5.8125 39.890625 
Q 5.8125 47.609375 11.28125 51.796875 
Q 16.75 56 26.8125 56 
Q 31.78125 56 36.171875 55.265625 
Q 40.578125 54.546875 44.28125 53.078125 
" id="BitstreamVeraSans-Roman-73"/>
     </defs>
     <g transform="translate(270.620625 418.531875)scale(0.12 -0.12)">
      <use xlink:href="#BitstreamVeraSans-Roman-54"/>
      <use x="61.037109375" xlink:href="#BitstreamVeraSans-Roman-69"/>
      <use x="88.8203125" xlink:href="#BitstreamVeraSans-Roman-6d"/>
      <use x="186.232421875" xlink:href="#BitstreamVeraSans-Roman-65"/>
      <use x="247.755859375" xlink:href="#BitstreamVeraSans-Roman-20"/>
      <use x="279.54296875" xlink:href="#BitstreamVeraSans-Roman-5b"/>
      <use x="318.556640625" xlink:href="#BitstreamVeraSans-Roman-73"/>
      <use x="370.65625" xlink:href="#BitstreamVeraSans-Roman-5d"/>
     </g>
    </g>
   </g>
   <g id="matplotlib.axis_2">
    <g id="ytick_1">
     <g id="line2d_27">
      <path clip-path="url(#pf508af8016)" d="M 72 388.8 
L 518.4 388.8 
" style="fill:none;stroke:#000000;stroke-dasharray:1.000000,3.000000;stroke-dashoffset:0.0;stroke-width:0.5;"/>
     </g>
     <g id="line2d_28">
      <defs>
       <path d="M 0 0 
L 4 0 
" id="m0097998acf" style="stroke:#000000;stroke-width:0.5;"/>
      </defs>
      <g>
       <use style="stroke:#000000;stroke-width:0.5;" x="72.0" xlink:href="#m0097998acf" y="388.8"/>
      </g>
     </g>
     <g id="line2d_29">
      <defs>
       <path d="M 0 0 
L -4 0 
" id="mb867c5d18c" style="stroke:#000000;stroke-width:0.5;"/>
      </defs>
      <g>
       <use style="stroke:#000000;stroke-width:0.5;" x="518.4" xlink:href="#mb867c5d18c" y="388.8"/>
      </g>
     </g>
     <g id="text_9">
      <!-- 0 -->
      <g transform="translate(60.365 392.11125)scale(0.12 -0.12)">
       <use xlink:href="#BitstreamVeraSans-Roman-30"/>
      </g>
     </g>
    </g>
    <g id="ytick_2">
     <g id="line2d_30">
      <path clip-path="url(#pf508af8016)" d="M 72 319.68 
L 518.4 319.68 
" style="fill:none;stroke:#000000;stroke-dasharray:1.000000,3.000000;stroke-dashoffset:0.0;stroke-width:0.5;"/>
     </g>
     <g id="line2d_31">
      <g>
       <use style="stroke:#000000;stroke-width:0.5;" x="72.0" xlink:href="#m0097998acf" y="319.68"/>
      </g>
     </g>
     <g id="line2d_32">
      <g>
       <use style="stroke:#000000;stroke-width:0.5;" x="518.4" xlink:href="#mb867c5d18c" y="319.68"/>
      </g>
     </g>
     <g id="text_10">
      <!-- 10 -->
      <g transform="translate(52.73 322.99125)scale(0.12 -0.12)">
       <use xlink:href="#BitstreamVeraSans-Roman-31"/>
       <use x="63.623046875" xlink:href="#BitstreamVeraSans-Roman-30"/>
      </g>
     </g>
    </g>
    <g id="ytick_3">
     <g id="line2d_33">
      <path clip-path="url(#pf508af8016)" d="M 72 250.56 
L 518.4 250.56 
" style="fill:none;stroke:#000000;stroke-dasharray:1.000000,3.000000;stroke-dashoffset:0.0;stroke-width:0.5;"/>
     </g>
     <g id="line2d_34">
      <g>
       <use style="stroke:#000000;stroke-width:0.5;" x="72.0" xlink:href="#m0097998acf" y="250.56"/>
      </g>
     </g>
     <g id="line2d_35">
      <g>
       <use style="stroke:#000000;stroke-width:0.5;" x="518.4" xlink:href="#mb867c5d18c" y="250.56"/>
      </g>
     </g>
     <g id="text_11">
      <!-- 20 -->
      <g transform="translate(52.73 253.87125)scale(0.12 -0.12)">
       <use xlink:href="#BitstreamVeraSans-Roman-32"/>
       <use x="63.623046875" xlink:href="#BitstreamVeraSans-Roman-30"/>
      </g>
     </g>
    </g>
    <g id="ytick_4">
     <g id="line2d_36">
      <path clip-path="url(#pf508af8016)" d="M 72 181.44 
L 518.4 181.44 
" style="fill:none;stroke:#000000;stroke-dasharray:1.000000,3.000000;stroke-dashoffset:0.0;stroke-width:0.5;"/>
     </g>
     <g id="line2d_37">
      <g>
       <use style="stroke:#000000;stroke-width:0.5;" x="72.0" xlink:href="#m0097998acf" y="181.44"/>
      </g>
     </g>
     <g id="line2d_38">
      <g>
       <use style="stroke:#000000;stroke-width:0.5;" x="518.4" xlink:href="#mb867c5d18c" y="181.44"/>
      </g>
     </g>
     <g id="text_12">
      <!-- 30 -->
      <g transform="translate(52.73 184.75125)scale(0.12 -0.12)">
       <use xlink:href="#BitstreamVeraSans-Roman-33"/>
       <use x="63.623046875" xlink:href="#BitstreamVeraSans-Roman-30"/>
      </g>
     </g>
    </g>
    <g id="ytick_5">
     <g id="line2d_39">
      <path clip-path="url(#pf508af8016)" d="M 72 112.32 
L 518.4 112.32 
" style="fill:none;stroke:#000000;stroke-dasharray:1.000000,3.000000;stroke-dashoffset:0.0;stroke-width:0.5;"/>
     </g>
     <g id="line2d_40">
      <g>
       <use style="stroke:#000000;stroke-width:0.5;" x="72.0" xlink:href="#m0097998acf" y="112.32"/>
      </g>
     </g>
     <g id="line2d_41">
      <g>
       <use style="stroke:#000000;stroke-width:0.5;" x="518.4" xlink:href="#mb867c5d18c" y="112.32"/>
      </g>
     </g>
     <g id="text_13">
      <!-- 40 -->
      <defs>
       <path d="M 37.796875 64.3125 
L 12.890625 25.390625 
L 37.796875 25.390625 
z
M 35.203125 72.90625 
L 47.609375 72.90625 
L 47.609375 25.390625 
L 58.015625 25.390625 
L 58.015625 17.1875 
L 47.609375 17.1875 
L 47.609375 0 
L 37.796875 0 
L 37.796875 17.1875 
L 4.890625 17.1875 
L 4.890625 26.703125 
z
" id="BitstreamVeraSans-Roman-34"/>
      </defs>
      <g transform="translate(52.73 115.63125)scale(0.12 -0.12)">
       <use xlink:href="#BitstreamVeraSans-Roman-34"/>
       <use x="63.623046875" xlink:href="#BitstreamVeraSans-Roman-30"/>
      </g>
     </g>
    </g>
    <g id="ytick_6">
     <g id="line2d_42">
      <path clip-path="url(#pf508af8016)" d="M 72 43.2 
L 518.4 43.2 
" style="fill:none;stroke:#000000;stroke-dasharray:1.000000,3.000000;stroke-dashoffset:0.0;stroke-width:0.5;"/>
     </g>
     <g id="line2d_43">
      <g>
       <use style="stroke:#000000;stroke-width:0.5;" x="72.0" xlink:href="#m0097998acf" y="43.2"/>
      </g>
     </g>
     <g id="line2d_44">
      <g>
       <use style="stroke:#000000;stroke-width:0.5;" x="518.4" xlink:href="#mb867c5d18c" y="43.2"/>
      </g>
     </g>
     <g id="text_14">
      <!-- 50 -->
      <g transform="translate(52.73 46.51125)scale(0.12 -0.12)">
       <use xlink:href="#BitstreamVeraSans-Roman-35"/>
       <use x="63.623046875" xlink:href="#BitstreamVeraSans-Roman-30"/>
      </g>
     </g>
    </g>
    <g id="text_15">
     <!-- Speed [mph] -->
     <defs>
      <path d="M 45.40625 46.390625 
L 45.40625 75.984375 
L 54.390625 75.984375 
L 54.390625 0 
L 45.40625 0 
L 45.40625 8.203125 
Q 42.578125 3.328125 38.25 0.953125 
Q 33.9375 -1.421875 27.875 -1.421875 
Q 17.96875 -1.421875 11.734375 6.484375 
Q 5.515625 14.40625 5.515625 27.296875 
Q 5.515625 40.1875 11.734375 48.09375 
Q 17.96875 56 27.875 56 
Q 33.9375 56 38.25 53.625 
Q 42.578125 51.265625 45.40625 46.390625 
M 14.796875 27.296875 
Q 14.796875 17.390625 18.875 11.75 
Q 22.953125 6.109375 30.078125 6.109375 
Q 37.203125 6.109375 41.296875 11.75 
Q 45.40625 17.390625 45.40625 27.296875 
Q 45.40625 37.203125 41.296875 42.84375 
Q 37.203125 48.484375 30.078125 48.484375 
Q 22.953125 48.484375 18.875 42.84375 
Q 14.796875 37.203125 14.796875 27.296875 
" id="BitstreamVeraSans-Roman-64"/>
      <path d="M 53.515625 70.515625 
L 53.515625 60.890625 
Q 47.90625 63.578125 42.921875 64.890625 
Q 37.9375 66.21875 33.296875 66.21875 
Q 25.25 66.21875 20.875 63.09375 
Q 16.5 59.96875 16.5 54.203125 
Q 16.5 49.359375 19.40625 46.890625 
Q 22.3125 44.4375 30.421875 42.921875 
L 36.375 41.703125 
Q 47.40625 39.59375 52.65625 34.296875 
Q 57.90625 29 57.90625 20.125 
Q 57.90625 9.515625 50.796875 4.046875 
Q 43.703125 -1.421875 29.984375 -1.421875 
Q 24.8125 -1.421875 18.96875 -0.25 
Q 13.140625 0.921875 6.890625 3.21875 
L 6.890625 13.375 
Q 12.890625 10.015625 18.65625 8.296875 
Q 24.421875 6.59375 29.984375 6.59375 
Q 38.421875 6.59375 43.015625 9.90625 
Q 47.609375 13.234375 47.609375 19.390625 
Q 47.609375 24.75 44.3125 27.78125 
Q 41.015625 30.8125 33.5 32.328125 
L 27.484375 33.5 
Q 16.453125 35.6875 11.515625 40.375 
Q 6.59375 45.0625 6.59375 53.421875 
Q 6.59375 63.09375 13.40625 68.65625 
Q 20.21875 74.21875 32.171875 74.21875 
Q 37.3125 74.21875 42.625 73.28125 
Q 47.953125 72.359375 53.515625 70.515625 
" id="BitstreamVeraSans-Roman-53"/>
      <path d="M 54.890625 33.015625 
L 54.890625 0 
L 45.90625 0 
L 45.90625 32.71875 
Q 45.90625 40.484375 42.875 44.328125 
Q 39.84375 48.1875 33.796875 48.1875 
Q 26.515625 48.1875 22.3125 43.546875 
Q 18.109375 38.921875 18.109375 30.90625 
L 18.109375 0 
L 9.078125 0 
L 9.078125 75.984375 
L 18.109375 75.984375 
L 18.109375 46.1875 
Q 21.34375 51.125 25.703125 53.5625 
Q 30.078125 56 35.796875 56 
Q 45.21875 56 50.046875 50.171875 
Q 54.890625 44.34375 54.890625 33.015625 
" id="BitstreamVeraSans-Roman-68"/>
      <path d="M 18.109375 8.203125 
L 18.109375 -20.796875 
L 9.078125 -20.796875 
L 9.078125 54.6875 
L 18.109375 54.6875 
L 18.109375 46.390625 
Q 20.953125 51.265625 25.265625 53.625 
Q 29.59375 56 35.59375 56 
Q 45.5625 56 51.78125 48.09375 
Q 58.015625 40.1875 58.015625 27.296875 
Q 58.015625 14.40625 51.78125 6.484375 
Q 45.5625 -1.421875 35.59375 -1.421875 
Q 29.59375 -1.421875 25.265625 0.953125 
Q 20.953125 3.328125 18.109375 8.203125 
M 48.6875 27.296875 
Q 48.6875 37.203125 44.609375 42.84375 
Q 40.53125 48.484375 33.40625 48.484375 
Q 26.265625 48.484375 22.1875 42.84375 
Q 18.109375 37.203125 18.109375 27.296875 
Q 18.109375 17.390625 22.1875 11.75 
Q 26.265625 6.109375 33.40625 6.109375 
Q 40.53125 6.109375 44.609375 11.75 
Q 48.6875 17.390625 48.6875 27.296875 
" id="BitstreamVeraSans-Roman-70"/>
     </defs>
     <g transform="translate(45.234375 254.855625)rotate(-90.0)scale(0.12 -0.12)">
      <use xlink:href="#BitstreamVeraSans-Roman-53"/>
      <use x="63.4765625" xlink:href="#BitstreamVeraSans-Roman-70"/>
      <use x="126.953125" xlink:href="#BitstreamVeraSans-Roman-65"/>
      <use x="188.4765625" xlink:href="#BitstreamVeraSans-Roman-65"/>
      <use x="250.0" xlink:href="#BitstreamVeraSans-Roman-64"/>
      <use x="313.4765625" xlink:href="#BitstreamVeraSans-Roman-20"/>
      <use x="345.263671875" xlink:href="#BitstreamVeraSans-Roman-5b"/>
      <use x="384.27734375" xlink:href="#BitstreamVeraSans-Roman-6d"/>
      <use x="481.689453125" xlink:href="#BitstreamVeraSans-Roman-70"/>
      <use x="545.166015625" xlink:href="#BitstreamVeraSans-Roman-68"/>
      <use x="608.544921875" xlink:href="#BitstreamVeraSans-Roman-5d"/>
     </g>
    </g>
   </g>
   <g id="legend_1">
    <g id="patch_7">
     <path d="M 317.4885 160.4025 
L 511.2 160.4025 
L 511.2 50.4 
L 317.4885 50.4 
z
" style="fill:#ffffff;stroke:#000000;stroke-linejoin:miter;"/>
    </g>
    <g id="line2d_45">
     <path d="M 327.5685 62.06175 
L 347.7285 62.06175 
" style="fill:none;stroke:#ff0000;stroke-linecap:square;"/>
    </g>
    <g id="line2d_46"/>
    <g id="text_16">
     <!-- speed -->
     <g transform="translate(363.5685 67.10175)scale(0.144 -0.144)">
      <use xlink:href="#BitstreamVeraSans-Roman-73"/>
      <use x="52.099609375" xlink:href="#BitstreamVeraSans-Roman-70"/>
      <use x="115.576171875" xlink:href="#BitstreamVeraSans-Roman-65"/>
      <use x="177.099609375" xlink:href="#BitstreamVeraSans-Roman-65"/>
      <use x="238.623046875" xlink:href="#BitstreamVeraSans-Roman-64"/>
     </g>
    </g>
    <g id="line2d_47">
     <path d="M 327.5685 83.19825 
L 347.7285 83.19825 
" style="fill:none;stroke:#bfbf00;stroke-dasharray:6.000000,6.000000;stroke-dashoffset:0.0;"/>
    </g>
    <g id="line2d_48"/>
    <g id="text_17">
     <!-- pid speed -->
     <g transform="translate(363.5685 88.23825)scale(0.144 -0.144)">
      <use xlink:href="#BitstreamVeraSans-Roman-70"/>
      <use x="63.4765625" xlink:href="#BitstreamVeraSans-Roman-69"/>
      <use x="91.259765625" xlink:href="#BitstreamVeraSans-Roman-64"/>
      <use x="154.736328125" xlink:href="#BitstreamVeraSans-Roman-20"/>
      <use x="186.5234375" xlink:href="#BitstreamVeraSans-Roman-73"/>
      <use x="238.623046875" xlink:href="#BitstreamVeraSans-Roman-70"/>
      <use x="302.099609375" xlink:href="#BitstreamVeraSans-Roman-65"/>
      <use x="363.623046875" xlink:href="#BitstreamVeraSans-Roman-65"/>
      <use x="425.146484375" xlink:href="#BitstreamVeraSans-Roman-64"/>
     </g>
    </g>
    <g id="line2d_49">
     <path d="M 327.5685 104.33475 
L 347.7285 104.33475 
" style="fill:none;stroke:#0000ff;stroke-linecap:square;"/>
    </g>
    <g id="line2d_50"/>
    <g id="text_18">
     <!-- Target (lead) speed -->
     <defs>
      <path d="M 8.015625 75.875 
L 15.828125 75.875 
Q 23.140625 64.359375 26.78125 53.3125 
Q 30.421875 42.28125 30.421875 31.390625 
Q 30.421875 20.453125 26.78125 9.375 
Q 23.140625 -1.703125 15.828125 -13.1875 
L 8.015625 -13.1875 
Q 14.5 -2 17.703125 9.0625 
Q 20.90625 20.125 20.90625 31.390625 
Q 20.90625 42.671875 17.703125 53.65625 
Q 14.5 64.65625 8.015625 75.875 
" id="BitstreamVeraSans-Roman-29"/>
      <path d="M 34.28125 27.484375 
Q 23.390625 27.484375 19.1875 25 
Q 14.984375 22.515625 14.984375 16.5 
Q 14.984375 11.71875 18.140625 8.90625 
Q 21.296875 6.109375 26.703125 6.109375 
Q 34.1875 6.109375 38.703125 11.40625 
Q 43.21875 16.703125 43.21875 25.484375 
L 43.21875 27.484375 
z
M 52.203125 31.203125 
L 52.203125 0 
L 43.21875 0 
L 43.21875 8.296875 
Q 40.140625 3.328125 35.546875 0.953125 
Q 30.953125 -1.421875 24.3125 -1.421875 
Q 15.921875 -1.421875 10.953125 3.296875 
Q 6 8.015625 6 15.921875 
Q 6 25.140625 12.171875 29.828125 
Q 18.359375 34.515625 30.609375 34.515625 
L 43.21875 34.515625 
L 43.21875 35.40625 
Q 43.21875 41.609375 39.140625 45 
Q 35.0625 48.390625 27.6875 48.390625 
Q 23 48.390625 18.546875 47.265625 
Q 14.109375 46.140625 10.015625 43.890625 
L 10.015625 52.203125 
Q 14.9375 54.109375 19.578125 55.046875 
Q 24.21875 56 28.609375 56 
Q 40.484375 56 46.34375 49.84375 
Q 52.203125 43.703125 52.203125 31.203125 
" id="BitstreamVeraSans-Roman-61"/>
      <path d="M 9.421875 75.984375 
L 18.40625 75.984375 
L 18.40625 0 
L 9.421875 0 
z
" id="BitstreamVeraSans-Roman-6c"/>
      <path d="M 31 75.875 
Q 24.46875 64.65625 21.28125 53.65625 
Q 18.109375 42.671875 18.109375 31.390625 
Q 18.109375 20.125 21.3125 9.0625 
Q 24.515625 -2 31 -13.1875 
L 23.1875 -13.1875 
Q 15.875 -1.703125 12.234375 9.375 
Q 8.59375 20.453125 8.59375 31.390625 
Q 8.59375 42.28125 12.203125 53.3125 
Q 15.828125 64.359375 23.1875 75.875 
z
" id="BitstreamVeraSans-Roman-28"/>
      <path d="M 45.40625 27.984375 
Q 45.40625 37.75 41.375 43.109375 
Q 37.359375 48.484375 30.078125 48.484375 
Q 22.859375 48.484375 18.828125 43.109375 
Q 14.796875 37.75 14.796875 27.984375 
Q 14.796875 18.265625 18.828125 12.890625 
Q 22.859375 7.515625 30.078125 7.515625 
Q 37.359375 7.515625 41.375 12.890625 
Q 45.40625 18.265625 45.40625 27.984375 
M 54.390625 6.78125 
Q 54.390625 -7.171875 48.1875 -13.984375 
Q 42 -20.796875 29.203125 -20.796875 
Q 24.46875 -20.796875 20.265625 -20.09375 
Q 16.0625 -19.390625 12.109375 -17.921875 
L 12.109375 -9.1875 
Q 16.0625 -11.328125 19.921875 -12.34375 
Q 23.78125 -13.375 27.78125 -13.375 
Q 36.625 -13.375 41.015625 -8.765625 
Q 45.40625 -4.15625 45.40625 5.171875 
L 45.40625 9.625 
Q 42.625 4.78125 38.28125 2.390625 
Q 33.9375 0 27.875 0 
Q 17.828125 0 11.671875 7.65625 
Q 5.515625 15.328125 5.515625 27.984375 
Q 5.515625 40.671875 11.671875 48.328125 
Q 17.828125 56 27.875 56 
Q 33.9375 56 38.28125 53.609375 
Q 42.625 51.21875 45.40625 46.390625 
L 45.40625 54.6875 
L 54.390625 54.6875 
z
" id="BitstreamVeraSans-Roman-67"/>
      <path d="M 41.109375 46.296875 
Q 39.59375 47.171875 37.8125 47.578125 
Q 36.03125 48 33.890625 48 
Q 26.265625 48 22.1875 43.046875 
Q 18.109375 38.09375 18.109375 28.8125 
L 18.109375 0 
L 9.078125 0 
L 9.078125 54.6875 
L 18.109375 54.6875 
L 18.109375 46.1875 
Q 20.953125 51.171875 25.484375 53.578125 
Q 30.03125 56 36.53125 56 
Q 37.453125 56 38.578125 55.875 
Q 39.703125 55.765625 41.0625 55.515625 
z
" id="BitstreamVeraSans-Roman-72"/>
      <path d="M 18.3125 70.21875 
L 18.3125 54.6875 
L 36.8125 54.6875 
L 36.8125 47.703125 
L 18.3125 47.703125 
L 18.3125 18.015625 
Q 18.3125 11.328125 20.140625 9.421875 
Q 21.96875 7.515625 27.59375 7.515625 
L 36.8125 7.515625 
L 36.8125 0 
L 27.59375 0 
Q 17.1875 0 13.234375 3.875 
Q 9.28125 7.765625 9.28125 18.015625 
L 9.28125 47.703125 
L 2.6875 47.703125 
L 2.6875 54.6875 
L 9.28125 54.6875 
L 9.28125 70.21875 
z
" id="BitstreamVeraSans-Roman-74"/>
     </defs>
     <g transform="translate(363.5685 109.37475)scale(0.144 -0.144)">
      <use xlink:href="#BitstreamVeraSans-Roman-54"/>
      <use x="60.833984375" xlink:href="#BitstreamVeraSans-Roman-61"/>
      <use x="122.11328125" xlink:href="#BitstreamVeraSans-Roman-72"/>
      <use x="163.2109375" xlink:href="#BitstreamVeraSans-Roman-67"/>
      <use x="226.6875" xlink:href="#BitstreamVeraSans-Roman-65"/>
      <use x="288.2109375" xlink:href="#BitstreamVeraSans-Roman-74"/>
      <use x="327.419921875" xlink:href="#BitstreamVeraSans-Roman-20"/>
      <use x="359.20703125" xlink:href="#BitstreamVeraSans-Roman-28"/>
      <use x="398.220703125" xlink:href="#BitstreamVeraSans-Roman-6c"/>
      <use x="426.00390625" xlink:href="#BitstreamVeraSans-Roman-65"/>
      <use x="487.52734375" xlink:href="#BitstreamVeraSans-Roman-61"/>
      <use x="548.806640625" xlink:href="#BitstreamVeraSans-Roman-64"/>
      <use x="612.283203125" xlink:href="#BitstreamVeraSans-Roman-29"/>
      <use x="651.296875" xlink:href="#BitstreamVeraSans-Roman-20"/>
      <use x="683.083984375" xlink:href="#BitstreamVeraSans-Roman-73"/>
      <use x="735.18359375" xlink:href="#BitstreamVeraSans-Roman-70"/>
      <use x="798.66015625" xlink:href="#BitstreamVeraSans-Roman-65"/>
      <use x="860.18359375" xlink:href="#BitstreamVeraSans-Roman-65"/>
      <use x="921.70703125" xlink:href="#BitstreamVeraSans-Roman-64"/>
     </g>
    </g>
    <g id="line2d_51">
     <path d="M 327.5685 125.47125 
L 347.7285 125.47125 
" style="fill:none;stroke:#000000;stroke-linecap:square;"/>
    </g>
    <g id="line2d_52"/>
    <g id="text_19">
     <!-- Cruise speed -->
     <defs>
      <path d="M 8.5 21.578125 
L 8.5 54.6875 
L 17.484375 54.6875 
L 17.484375 21.921875 
Q 17.484375 14.15625 20.5 10.265625 
Q 23.53125 6.390625 29.59375 6.390625 
Q 36.859375 6.390625 41.078125 11.03125 
Q 45.3125 15.671875 45.3125 23.6875 
L 45.3125 54.6875 
L 54.296875 54.6875 
L 54.296875 0 
L 45.3125 0 
L 45.3125 8.40625 
Q 42.046875 3.421875 37.71875 1 
Q 33.40625 -1.421875 27.6875 -1.421875 
Q 18.265625 -1.421875 13.375 4.4375 
Q 8.5 10.296875 8.5 21.578125 
" id="BitstreamVeraSans-Roman-75"/>
      <path d="M 64.40625 67.28125 
L 64.40625 56.890625 
Q 59.421875 61.53125 53.78125 63.8125 
Q 48.140625 66.109375 41.796875 66.109375 
Q 29.296875 66.109375 22.65625 58.46875 
Q 16.015625 50.828125 16.015625 36.375 
Q 16.015625 21.96875 22.65625 14.328125 
Q 29.296875 6.6875 41.796875 6.6875 
Q 48.140625 6.6875 53.78125 8.984375 
Q 59.421875 11.28125 64.40625 15.921875 
L 64.40625 5.609375 
Q 59.234375 2.09375 53.4375 0.328125 
Q 47.65625 -1.421875 41.21875 -1.421875 
Q 24.65625 -1.421875 15.125 8.703125 
Q 5.609375 18.84375 5.609375 36.375 
Q 5.609375 53.953125 15.125 64.078125 
Q 24.65625 74.21875 41.21875 74.21875 
Q 47.75 74.21875 53.53125 72.484375 
Q 59.328125 70.75 64.40625 67.28125 
" id="BitstreamVeraSans-Roman-43"/>
     </defs>
     <g transform="translate(363.5685 130.51125)scale(0.144 -0.144)">
      <use xlink:href="#BitstreamVeraSans-Roman-43"/>
      <use x="69.82421875" xlink:href="#BitstreamVeraSans-Roman-72"/>
      <use x="110.9375" xlink:href="#BitstreamVeraSans-Roman-75"/>
      <use x="174.31640625" xlink:href="#BitstreamVeraSans-Roman-69"/>
      <use x="202.099609375" xlink:href="#BitstreamVeraSans-Roman-73"/>
      <use x="254.19921875" xlink:href="#BitstreamVeraSans-Roman-65"/>
      <use x="315.72265625" xlink:href="#BitstreamVeraSans-Roman-20"/>
      <use x="347.509765625" xlink:href="#BitstreamVeraSans-Roman-73"/>
      <use x="399.609375" xlink:href="#BitstreamVeraSans-Roman-70"/>
      <use x="463.0859375" xlink:href="#BitstreamVeraSans-Roman-65"/>
      <use x="524.609375" xlink:href="#BitstreamVeraSans-Roman-65"/>
      <use x="586.1328125" xlink:href="#BitstreamVeraSans-Roman-64"/>
     </g>
    </g>
    <g id="line2d_53">
     <path d="M 327.5685 146.60775 
L 347.7285 146.60775 
" style="fill:none;stroke:#bf00bf;stroke-linecap:square;"/>
    </g>
    <g id="line2d_54"/>
    <g id="text_20">
     <!-- Lead speed -->
     <defs>
      <path d="M 9.8125 72.90625 
L 19.671875 72.90625 
L 19.671875 8.296875 
L 55.171875 8.296875 
L 55.171875 0 
L 9.8125 0 
z
" id="BitstreamVeraSans-Roman-4c"/>
     </defs>
     <g transform="translate(363.5685 151.64775)scale(0.144 -0.144)">
      <use xlink:href="#BitstreamVeraSans-Roman-4c"/>
      <use x="55.697265625" xlink:href="#BitstreamVeraSans-Roman-65"/>
      <use x="117.220703125" xlink:href="#BitstreamVeraSans-Roman-61"/>
      <use x="178.5" xlink:href="#BitstreamVeraSans-Roman-64"/>
      <use x="241.9765625" xlink:href="#BitstreamVeraSans-Roman-20"/>
      <use x="273.763671875" xlink:href="#BitstreamVeraSans-Roman-73"/>
      <use x="325.86328125" xlink:href="#BitstreamVeraSans-Roman-70"/>
      <use x="389.33984375" xlink:href="#BitstreamVeraSans-Roman-65"/>
      <use x="450.86328125" xlink:href="#BitstreamVeraSans-Roman-65"/>
      <use x="512.38671875" xlink:href="#BitstreamVeraSans-Roman-64"/>
     </g>
    </g>
   </g>
  </g>
 </g>
 <defs>
  <clipPath id="pf508af8016">
   <rect height="345.6" width="446.4" x="72.0" y="43.2"/>
  </clipPath>
 </defs>
</svg>
