<?xml version="1.0" encoding="utf-8" standalone="no"?>
<!DOCTYPE svg PUBLIC "-//W3C//DTD SVG 1.1//EN"
  "http://www.w3.org/Graphics/SVG/1.1/DTD/svg11.dtd">
<!-- Created with matplotlib (http://matplotlib.org/) -->
<svg height="432pt" version="1.1" viewBox="0 0 576 432" width="576pt" xmlns="http://www.w3.org/2000/svg" xmlns:xlink="http://www.w3.org/1999/xlink">
 <defs>
  <style type="text/css">
*{stroke-linecap:butt;stroke-linejoin:round;stroke-miterlimit:100000;}
  </style>
 </defs>
 <g id="figure_1">
  <g id="patch_1">
   <path d="M 0 432 
L 576 432 
L 576 0 
L 0 0 
z
" style="fill:#ffffff;"/>
  </g>
  <g id="axes_1">
   <g id="patch_2">
    <path d="M 72 388.8 
L 518.4 388.8 
L 518.4 43.2 
L 72 43.2 
z
" style="fill:#ffffff;"/>
   </g>
   <g id="line2d_1">
    <path clip-path="url(#p495e989224)" d="M 72.1488 125.881344 
L 74.3808 137.784095 
L 76.6128 148.55093 
L 78.8448 158.290178 
L 81.0768 167.099853 
L 83.3088 175.068627 
L 85.6896 182.732039 
L 88.0704 189.617676 
L 90.4512 195.804445 
L 92.832 201.363251 
L 95.2128 206.357814 
L 97.5936 210.845388 
L 99.9744 214.877424 
L 102.2064 218.284916 
L 102.3552 217.093473 
L 102.504 217.316656 
L 102.6528 216.168209 
L 102.8016 216.397562 
L 102.9504 213.885102 
L 103.0992 214.129682 
L 103.248 211.632346 
L 103.3968 211.89195 
L 103.5456 209.409537 
L 103.6944 209.683965 
L 103.8432 207.216278 
L 103.992 207.505333 
L 104.1408 205.052176 
L 104.2896 205.355663 
L 104.4384 202.916843 
L 104.5872 203.234572 
L 104.736 200.809897 
L 104.8848 201.141677 
L 105.0336 198.730961 
L 105.1824 199.076607 
L 105.3312 198.049805 
L 105.48 198.399994 
L 105.6288 196.007564 
L 105.7776 196.371373 
L 105.9264 195.362615 
L 106.0752 195.730727 
L 106.224 193.356099 
L 106.3728 193.737594 
L 106.5216 191.376259 
L 106.6704 191.770958 
L 106.8192 190.792883 
L 106.968 191.191474 
L 107.1168 190.217264 
L 107.2656 190.619695 
L 107.4144 188.279157 
L 107.5632 188.694514 
L 107.712 186.366817 
L 107.8608 186.794929 
L 108.0096 185.850044 
L 108.3072 186.710286 
L 108.456 185.765968 
L 108.6048 183.457805 
L 108.7536 183.905322 
L 108.9024 182.979712 
L 109.0512 183.430419 
L 109.2 181.137835 
L 109.3488 181.600827 
L 109.4976 179.320447 
L 109.6464 179.795561 
L 109.7952 178.897364 
L 109.944 179.375302 
L 110.0928 178.47991 
L 110.2416 178.960633 
L 110.3904 176.697865 
L 110.5392 177.190475 
L 110.688 176.309658 
L 110.8368 176.804858 
L 110.9856 175.926614 
L 111.1344 176.424371 
L 111.2832 175.548666 
L 111.432 176.048945 
L 111.5808 175.175746 
L 111.7296 175.678514 
L 111.8784 174.807788 
L 112.0272 175.313012 
L 112.176 174.444724 
L 112.3248 174.952371 
L 112.4736 174.086491 
L 112.6224 174.596529 
L 112.7712 172.362882 
L 112.92 172.884417 
L 113.0688 172.032333 
L 113.2176 172.556075 
L 113.3664 170.33604 
L 113.5152 170.871098 
L 113.664 170.032445 
L 113.8128 170.56953 
L 113.9616 169.732891 
L 114.408 171.339384 
L 114.5568 170.497614 
L 114.7056 171.031602 
L 114.8544 168.821745 
L 115.0032 169.366912 
L 115.152 168.538302 
L 115.3008 169.085362 
L 115.4496 166.88849 
L 115.896 168.551549 
L 116.0448 167.728384 
L 116.1936 168.280852 
L 116.3424 167.459494 
L 116.4912 168.013758 
L 116.64 165.824041 
L 116.7888 166.389215 
L 116.9376 165.580479 
L 117.384 167.269569 
L 117.5328 166.454965 
L 117.6816 166.8384 
L 117.8304 164.098387 
L 118.2768 164.099238 
L 118.4256 162.729382 
L 118.5744 162.729673 
L 118.7232 161.359824 
L 118.872 161.360123 
L 119.0208 159.99028 
L 119.1696 159.990586 
L 119.3184 158.620751 
L 119.4672 158.621064 
L 119.616 157.251236 
L 119.7648 157.251556 
L 119.9136 154.511593 
L 120.6576 154.51327 
L 120.8064 153.143468 
L 120.9552 153.143814 
L 121.104 151.774019 
L 121.5504 151.775086 
L 121.6992 150.405302 
L 121.848 150.405667 
L 121.9968 149.035891 
L 122.1456 149.036265 
L 122.2944 147.666497 
L 122.7408 147.667647 
L 122.8896 144.927749 
L 123.336 144.92895 
L 123.4848 143.559211 
L 123.6336 143.559622 
L 123.7824 142.189893 
L 124.2288 142.191157 
L 124.3776 140.82144 
L 125.1216 140.823622 
L 125.2704 139.453921 
L 125.4192 139.45437 
L 125.568 138.084679 
L 126.312 138.086993 
L 126.4608 136.717319 
L 126.6096 136.717796 
L 126.7584 138.088417 
L 126.9072 138.088891 
L 127.056 136.719226 
L 128.0976 136.722659 
L 128.2464 135.353016 
L 128.6928 135.354542 
L 128.8416 133.984912 
L 128.9904 133.985434 
L 129.1392 132.615814 
L 129.288 132.616346 
L 129.4368 133.987022 
L 129.8832 133.988617 
L 130.032 132.619011 
L 130.4784 132.620651 
L 130.6272 131.25106 
L 130.776 131.251619 
L 130.9248 129.882039 
L 131.9664 129.886081 
L 132.1152 128.516525 
L 133.752 128.523203 
L 133.9008 127.153681 
L 134.3472 127.15558 
L 134.496 128.52636 
L 134.6448 128.526992 
L 134.7936 127.157485 
L 134.9424 127.15813 
L 135.0912 125.788634 
L 135.24 125.789291 
L 135.3888 127.160092 
L 135.5376 127.160746 
L 135.6864 125.79126 
L 136.4304 125.794616 
L 136.5792 127.165437 
L 137.0256 127.167464 
L 137.1744 125.798002 
L 137.3232 125.798693 
L 137.472 124.429243 
L 138.8112 124.435659 
L 138.96 123.066242 
L 139.1088 123.066978 
L 139.2576 124.437858 
L 140.5968 124.444543 
L 140.7456 123.075156 
L 141.192 123.077461 
L 141.3408 121.708092 
L 142.68 121.715245 
L 142.8288 123.086195 
L 142.9776 123.086997 
L 143.1264 121.717659 
L 143.2752 121.718474 
L 143.424 123.089435 
L 143.5728 123.090246 
L 143.7216 121.720918 
L 144.168 121.723403 
L 144.3168 123.094379 
L 145.0608 123.098541 
L 145.2096 121.729238 
L 145.656 121.7318 
L 145.8048 120.362517 
L 145.9536 120.363388 
L 146.1024 121.734404 
L 146.2512 121.735271 
L 146.4 120.365999 
L 148.3344 120.377665 
L 148.4832 121.748723 
L 148.632 121.749632 
L 148.7808 119.010259 
L 148.9296 119.011192 
L 149.0784 121.752413 
L 149.2272 121.753333 
L 149.376 119.01397 
L 150.12 119.018718 
L 150.2688 120.389818 
L 151.9056 120.400418 
L 152.0544 119.031255 
L 157.4112 119.068682 
L 157.56 116.329486 
L 158.6016 116.33735 
L 158.7504 113.5982 
L 159.1968 113.601691 
L 159.4944 110.86376 
L 160.0896 110.868574 
L 160.2384 109.499642 
L 160.536 109.502098 
L 160.8336 106.764292 
L 161.4288 106.769362 
L 161.5776 105.400495 
L 161.7264 106.771928 
L 161.8752 106.77321 
L 162.024 104.034211 
L 162.1728 105.405666 
L 162.3216 105.40697 
L 162.4704 104.038135 
L 163.512 104.047466 
L 163.6608 105.418954 
L 163.9584 105.421632 
L 164.1072 106.793118 
L 165.1488 106.802524 
L 165.2976 108.174024 
L 165.8928 108.17943 
L 166.0416 109.550932 
L 166.1904 108.18214 
L 167.3808 108.193155 
L 167.5296 109.564688 
L 167.8272 109.567453 
L 167.976 110.938982 
L 168.1248 110.940359 
L 168.2736 112.311881 
L 168.72 112.315997 
L 168.8688 113.687518 
L 169.464 113.693004 
L 169.6128 115.064526 
L 170.8032 115.07555 
L 170.952 117.817225 
L 171.1008 116.448449 
L 171.3984 116.451216 
L 171.5472 115.082462 
L 171.8448 115.085274 
L 172.1424 112.347828 
L 172.44 112.350721 
L 172.5888 113.722315 
L 172.8864 113.725197 
L 173.0352 115.096785 
L 173.6304 115.102537 
L 173.7792 116.474125 
L 174.3744 116.479876 
L 174.5232 117.851463 
L 175.7136 117.863 
L 175.8624 116.494312 
L 178.6896 116.522764 
L 178.9872 113.785549 
L 179.136 113.787111 
L 179.2848 115.158819 
L 179.4336 113.790229 
L 181.6656 113.814099 
L 181.8144 115.185856 
L 183.4512 115.203627 
L 183.6 116.575402 
L 184.6416 116.586793 
L 184.7904 117.958574 
L 185.2368 117.963455 
L 185.3856 116.594945 
L 185.6832 116.598252 
L 185.9808 113.861303 
L 186.2784 113.864701 
L 186.4272 112.496262 
L 190.4448 112.543828 
L 190.5936 113.915773 
L 190.7424 113.917562 
L 190.8912 116.659637 
L 191.04 116.661395 
L 191.1888 120.773583 
L 191.4864 120.777005 
L 191.784 124.890827 
L 191.9328 124.892492 
L 192.0816 127.634445 
L 192.2304 127.636078 
L 192.3792 130.377999 
L 192.528 130.379601 
L 192.6768 133.12149 
L 192.8256 133.12306 
L 192.9744 134.494774 
L 193.1232 134.496329 
L 193.272 137.238172 
L 193.4208 137.239694 
L 193.5696 139.981504 
L 193.7184 139.982994 
L 193.8672 142.72477 
L 194.016 142.726227 
L 194.1648 145.46797 
L 194.3136 145.469393 
L 194.4624 146.840961 
L 194.6112 146.842368 
L 194.76 149.584063 
L 194.9088 149.585437 
L 195.0576 152.327097 
L 195.2064 152.328437 
L 195.3552 155.070063 
L 195.6528 155.072674 
L 195.8016 157.814267 
L 195.9504 157.815539 
L 196.0992 160.557097 
L 196.248 160.558334 
L 196.3968 161.929714 
L 196.5456 161.930934 
L 196.6944 164.672441 
L 196.8432 164.673626 
L 196.992 167.415097 
L 197.1408 167.416246 
L 197.2896 168.787539 
L 197.4384 168.788671 
L 197.5872 171.53009 
L 197.8848 171.532284 
L 198.0336 174.273667 
L 198.1824 174.274728 
L 198.3312 175.645933 
L 198.48 175.646977 
L 198.6288 178.388307 
L 198.7776 178.389314 
L 198.9264 181.130607 
L 199.224 181.132549 
L 199.3728 182.503664 
L 199.5216 182.504617 
L 199.6704 185.245857 
L 199.8192 185.246773 
L 199.968 186.617833 
L 200.1168 186.618732 
L 200.2656 189.359916 
L 200.4144 189.360777 
L 200.5632 192.101924 
L 200.8608 192.103572 
L 201.0096 193.47454 
L 201.1584 193.475346 
L 201.3072 194.846295 
L 201.456 194.847083 
L 201.6048 197.588156 
L 201.9024 197.589656 
L 202.0512 198.960549 
L 202.2 198.961281 
L 202.3488 201.702298 
L 202.4976 201.702991 
L 202.6464 203.073828 
L 202.7952 203.074502 
L 202.944 204.44532 
L 203.2416 204.446632 
L 203.3904 207.187574 
L 203.5392 207.188192 
L 203.688 208.558953 
L 203.8368 208.559552 
L 203.9856 209.930293 
L 204.1344 209.930873 
L 204.2832 212.671738 
L 204.5808 212.672821 
L 204.7296 214.043505 
L 204.8784 214.044028 
L 205.0272 215.414693 
L 205.176 215.415196 
L 205.3248 216.785841 
L 205.4736 216.786325 
L 205.6224 219.527094 
L 205.92 219.527984 
L 206.0688 220.898572 
L 206.2176 220.898997 
L 206.3664 222.269566 
L 206.5152 222.269972 
L 206.664 223.640521 
L 206.9616 223.641295 
L 207.1104 226.381966 
L 207.2592 226.382314 
L 207.408 227.752804 
L 207.5568 227.753133 
L 207.7056 229.123603 
L 207.8544 229.123912 
L 208.0032 230.494363 
L 208.152 230.494652 
L 208.3008 231.865083 
L 208.5984 231.865622 
L 208.7472 233.236034 
L 208.896 233.236284 
L 209.0448 234.606676 
L 209.1936 234.606906 
L 209.3424 235.977279 
L 209.4912 235.977489 
L 209.64 237.347842 
L 209.9376 237.348223 
L 210.0864 238.718557 
L 210.2352 238.718728 
L 210.384 240.089041 
L 210.5328 240.089192 
L 210.6816 241.459486 
L 210.8304 241.459617 
L 210.9792 244.200034 
L 211.128 244.200126 
L 211.2768 248.310645 
L 211.4256 248.310677 
L 211.5744 252.421137 
L 211.7232 252.42111 
L 211.872 256.531511 
L 212.0208 256.531424 
L 212.1696 260.641765 
L 212.3184 260.64162 
L 212.4672 263.381759 
L 212.616 263.381574 
L 212.7648 264.788069 
L 224.2224 264.772351 
L 224.3712 266.932147 
L 224.52 266.931913 
L 224.6688 272.331677 
L 224.8176 272.331367 
L 224.9664 277.731053 
L 225.1152 277.730666 
L 225.264 283.130276 
L 225.4128 283.129812 
L 225.5616 289.609345 
L 225.7104 289.608789 
L 225.8592 295.008231 
L 226.008 295.007599 
L 226.1568 300.406965 
L 226.3056 300.406256 
L 226.4544 305.805546 
L 226.6032 305.804762 
L 226.752 311.203976 
L 226.9008 311.203116 
L 227.0496 316.602255 
L 227.1984 316.60132 
L 227.3472 322.000383 
L 227.496 321.999374 
L 227.6448 327.398362 
L 227.7936 327.397278 
L 227.9424 333.876191 
L 228.0912 333.875018 
L 228.24 334.953845 
L 237.3168 334.883537 
L 237.4656 333.80242 
L 238.5072 333.794728 
L 238.656 332.713634 
L 239.6976 332.706102 
L 239.8464 331.625031 
L 240.5904 331.619758 
L 240.7392 330.538707 
L 242.0784 330.529416 
L 242.2272 329.44839 
L 243.5664 329.439314 
L 243.7152 328.358311 
L 244.1616 328.355347 
L 244.3104 327.274362 
L 246.2448 327.261808 
L 246.3936 326.180849 
L 246.84 326.178018 
L 246.9888 325.097076 
L 248.328 325.088758 
L 248.4768 324.007839 
L 249.5184 324.001518 
L 249.6672 322.920619 
L 251.304 322.910924 
L 251.4528 321.830048 
L 252.792 321.822314 
L 252.9408 320.741459 
L 253.9824 320.735585 
L 254.1312 319.654749 
L 255.1728 319.649008 
L 255.3216 318.568192 
L 256.3632 318.562581 
L 256.512 317.481784 
L 257.256 317.477865 
L 257.4048 316.397084 
L 259.3392 316.38715 
L 259.488 315.306391 
L 260.8272 315.299699 
L 260.976 314.21896 
L 261.4224 314.21678 
L 261.5712 313.136055 
L 263.5056 313.126843 
L 263.6544 312.046139 
L 264.696 312.041311 
L 264.8448 310.960624 
L 265.8864 310.955913 
L 266.0352 309.875243 
L 267.3744 309.86934 
L 267.5232 264.50871 
L 285.2304 264.490667 
L 285.3792 266.650516 
L 285.528 266.650343 
L 285.6768 272.050168 
L 285.8256 272.049937 
L 285.9744 277.449703 
L 286.1232 277.449415 
L 286.272 282.849124 
L 286.4208 282.848777 
L 286.5696 289.328428 
L 286.7184 289.328013 
L 286.8672 294.727595 
L 287.016 294.727122 
L 287.3136 305.526115 
L 287.4624 305.525528 
L 287.6112 310.924939 
L 287.76 310.924296 
L 287.9088 316.32365 
L 288.0576 316.32295 
L 288.2064 321.722248 
L 288.3552 321.721493 
L 288.504 327.120735 
L 288.6528 327.119924 
L 288.8016 332.519111 
L 294.1584 332.488585 
L 294.3072 331.407757 
L 294.9024 331.404497 
L 295.0512 330.323686 
L 295.6464 330.32049 
L 295.7952 329.239694 
L 295.944 329.23891 
L 296.0928 328.158126 
L 296.9856 328.153509 
L 297.1344 327.072743 
L 297.2832 327.071989 
L 297.432 325.991235 
L 298.0272 325.988272 
L 298.176 324.907534 
L 298.4736 324.90608 
L 298.6224 323.825356 
L 298.92 323.823928 
L 299.0688 322.743217 
L 300.1104 322.738327 
L 300.2592 321.657632 
L 300.8544 321.654901 
L 301.0032 320.57422 
L 301.152 320.573551 
L 301.3008 319.492882 
L 301.7472 319.490911 
L 301.896 318.410256 
L 302.9376 318.405759 
L 303.0864 317.32512 
L 303.6816 317.322609 
L 303.8304 316.241984 
L 304.872 316.237693 
L 305.0208 315.157083 
L 305.616 315.154689 
L 305.7648 314.074092 
L 306.5088 314.071167 
L 306.6576 312.990584 
L 307.2528 312.988298 
L 307.4016 311.907728 
L 308.2944 311.904379 
L 308.4432 310.823823 
L 309.336 310.820557 
L 309.4848 309.740016 
L 314.8416 309.72121 
L 314.9904 264.360721 
L 341.7744 264.339725 
L 341.9232 269.739608 
L 342.072 269.73945 
L 342.2208 275.139289 
L 342.5184 275.138883 
L 342.6672 280.538678 
L 342.816 280.538431 
L 342.9648 285.938181 
L 343.2624 285.937599 
L 343.4112 291.337305 
L 343.56 291.33697 
L 343.7088 296.736632 
L 343.8576 296.736254 
L 344.0064 302.135872 
L 344.304 302.135028 
L 344.4528 307.534604 
L 344.6016 307.534139 
L 344.7504 314.013671 
L 344.8992 314.013154 
L 345.048 319.412635 
L 345.3456 319.411517 
L 345.4944 324.810957 
L 345.6432 324.810356 
L 345.792 330.209753 
L 345.9408 330.209111 
L 346.0896 331.288469 
L 347.4288 331.282662 
L 347.5776 330.202022 
L 347.8752 330.200762 
L 348.024 329.120134 
L 348.4704 329.11828 
L 348.6192 328.037665 
L 348.9168 328.036452 
L 349.0656 326.955848 
L 349.512 326.954064 
L 349.6608 325.873472 
L 350.1072 325.871725 
L 350.256 324.791144 
L 350.7024 324.789432 
L 350.8512 323.708864 
L 351.2976 323.707187 
L 351.4464 322.62663 
L 351.5952 322.626082 
L 351.744 321.545535 
L 352.3392 321.543386 
L 352.488 320.462852 
L 352.6368 320.462325 
L 352.7856 319.3818 
L 353.5296 319.379224 
L 353.6784 318.298712 
L 354.1248 318.297201 
L 354.2736 317.2167 
L 354.72 317.215222 
L 354.8688 316.134731 
L 355.1664 316.133767 
L 355.3152 315.053286 
L 355.7616 315.05187 
L 355.9104 313.9714 
L 356.208 313.970476 
L 356.3568 312.890016 
L 357.1008 312.88776 
L 357.2496 311.807311 
L 363.4992 311.789296 
L 363.648 310.708881 
L 365.88 310.702815 
L 366.0288 309.622416 
L 367.9632 309.617362 
L 368.112 264.257 
L 410.52 264.232786 
L 410.6688 266.392704 
L 410.8176 266.39261 
L 410.9664 271.792514 
L 411.1152 271.792389 
L 411.264 277.192261 
L 411.4128 277.192104 
L 411.5616 282.591945 
L 411.7104 282.591757 
L 411.8592 289.071565 
L 412.008 289.071339 
L 412.1568 294.47111 
L 412.3056 294.470853 
L 412.4544 299.870594 
L 412.6032 299.870306 
L 412.752 305.270015 
L 412.9008 305.269696 
L 413.0496 310.669375 
L 413.1984 310.669026 
L 413.3472 316.068675 
L 413.496 316.068296 
L 413.6448 321.467914 
L 413.7936 321.467505 
L 413.9424 326.867094 
L 414.0912 326.866656 
L 414.24 332.266216 
L 415.8768 332.261131 
L 416.0256 331.180675 
L 416.1744 331.180226 
L 416.3232 330.099779 
L 416.7696 330.098459 
L 416.9184 329.018022 
L 417.6624 329.015876 
L 417.8112 327.935451 
L 417.96 327.935031 
L 418.1088 326.854613 
L 418.5552 326.853381 
L 418.704 325.772973 
L 419.1504 325.771769 
L 419.2992 324.69137 
L 419.448 324.690977 
L 419.5968 323.610585 
L 420.0432 323.609431 
L 420.192 322.529048 
L 422.424 322.523485 
L 422.5728 323.60312 
L 422.7216 323.602751 
L 422.8704 324.682382 
L 423.0192 324.682009 
L 423.168 325.761637 
L 423.3168 325.76126 
L 423.4656 326.840884 
L 423.6144 326.840504 
L 423.7632 327.920124 
L 423.912 327.919741 
L 424.0608 328.999357 
L 424.2096 328.99897 
L 424.5072 331.158193 
L 424.656 331.157798 
L 424.8048 332.237404 
L 424.9536 332.237006 
L 425.1024 333.316608 
L 425.2512 333.316207 
L 425.4 334.395807 
L 425.6976 334.395 
L 425.9952 336.554191 
L 426.4416 336.552964 
L 426.5904 337.632557 
L 426.7392 337.632147 
L 426.888 338.711737 
L 428.2272 338.708062 
L 428.376 339.78766 
L 428.5248 339.787254 
L 428.6736 340.866849 
L 429.2688 340.865223 
L 429.4176 341.94482 
L 429.864 341.943604 
L 430.0128 343.0232 
L 430.1616 343.022794 
L 430.4592 345.18198 
L 430.7568 345.181159 
L 430.9056 346.260749 
L 431.0544 346.260337 
L 431.2032 347.339926 
L 432.2448 347.337061 
L 432.3936 348.416657 
L 433.4352 348.413844 
L 433.584 349.493448 
L 434.4768 349.491078 
L 434.6256 350.570688 
L 434.7744 350.570295 
L 434.9232 351.649904 
L 436.8576 351.644916 
L 437.0064 352.724542 
L 441.024 352.714993 
L 441.4704 350.836357 
L 443.7024 341.259201 
L 445.9344 332.597001 
L 448.1664 324.762298 
L 450.5472 317.2284 
L 452.928 310.459595 
L 455.3088 304.378153 
L 457.6896 298.914249 
L 459.1776 295.784756 
L 459.3264 297.643171 
L 461.7072 292.863174 
L 462.4512 291.47138 
L 462.6 292.278565 
L 463.9392 289.84056 
L 464.088 290.658623 
L 464.6832 289.599709 
L 464.832 290.419379 
L 467.2128 286.372895 
L 467.5104 285.896871 
L 467.6592 286.741237 
L 468.7008 285.085805 
L 468.8496 285.93558 
L 469.8912 284.317021 
L 470.04 285.171924 
L 472.5696 281.450889 
L 472.8672 281.0403 
L 473.016 281.917056 
L 474.0576 280.482388 
L 474.2064 281.362865 
L 476.736 278.051396 
L 477.3312 277.325458 
L 477.48 278.226988 
L 477.6288 278.042508 
L 477.7776 278.939257 
L 480.3072 275.888383 
L 480.9024 275.219572 
L 481.0512 276.135147 
L 482.8368 274.162201 
L 482.9856 275.084827 
L 483.1344 274.921302 
L 483.2832 275.838867 
L 483.432 275.670314 
L 483.5808 276.582885 
L 483.7296 276.409372 
L 483.8784 278.397015 
L 484.0272 278.211406 
L 484.176 279.107034 
L 484.3248 278.916691 
L 484.4736 279.807616 
L 484.6224 279.612602 
L 484.7712 280.498888 
L 484.92 280.299265 
L 485.0688 281.180973 
L 485.2176 280.976802 
L 485.3664 281.853993 
L 485.5152 281.645335 
L 485.664 282.518068 
L 485.8128 282.304982 
L 485.9616 283.173318 
L 486.1104 282.955864 
L 486.2592 283.819859 
L 486.408 283.598095 
L 486.5568 284.457808 
L 486.7056 284.231791 
L 486.8544 285.087279 
L 487.0032 284.857065 
L 487.152 285.708385 
L 487.3008 285.47403 
L 487.4496 286.321236 
L 487.5984 286.082795 
L 487.7472 286.925943 
L 487.896 286.683471 
L 488.0448 287.522614 
L 488.1936 287.276164 
L 488.3424 288.111356 
L 488.4912 287.86098 
L 488.64 288.692273 
L 488.7888 288.438025 
L 488.9376 289.265471 
L 489.0864 289.007401 
L 489.2352 289.831051 
L 489.384 289.569211 
L 489.5328 290.389116 
L 489.6816 290.123555 
L 489.8304 290.939764 
L 489.9792 290.670532 
L 490.128 291.483095 
L 490.2768 291.210241 
L 490.4256 292.019206 
L 490.5744 291.742778 
L 490.7232 292.548193 
L 490.872 292.268239 
L 491.0208 293.07015 
L 491.1696 292.786716 
L 491.3184 293.585172 
L 491.4672 293.298304 
L 491.616 294.09335 
L 491.7648 293.803095 
L 491.9136 294.594775 
L 492.0624 294.301177 
L 492.2112 295.089537 
L 492.36 294.792641 
L 492.5088 295.577724 
L 492.6576 295.277574 
L 492.8064 296.059425 
L 492.9552 295.756064 
L 493.104 296.534725 
L 493.2528 296.228196 
L 493.4016 297.00371 
L 493.5504 296.694054 
L 493.6992 297.466463 
L 493.848 297.153723 
L 493.9968 297.923067 
L 494.1456 297.607283 
L 494.2944 298.373604 
L 494.4432 298.054817 
L 494.592 298.818155 
L 494.7408 298.496405 
L 494.8896 299.2568 
L 495.0384 298.932126 
L 495.1872 299.689616 
L 495.336 299.362057 
L 495.4848 300.116681 
L 495.6336 299.786276 
L 495.7824 300.538073 
L 495.9312 300.204858 
L 496.08 300.953865 
L 496.2288 300.617879 
L 496.3776 302.444133 
L 496.5264 302.098212 
L 496.6752 302.834597 
L 496.824 302.486074 
L 496.9728 303.219874 
L 497.1216 302.868783 
L 497.2704 303.600032 
L 497.568 302.89514 
L 497.8656 304.352417 
L 498.0144 303.993777 
L 498.1632 304.717529 
L 498.312 304.356456 
L 498.4608 305.077791 
L 498.6096 304.714317 
L 498.7584 305.433267 
L 498.9072 305.067424 
L 499.056 305.78402 
L 499.2048 305.41584 
L 499.3536 306.130114 
L 499.5024 305.759627 
L 499.6512 306.471611 
L 499.8 306.098848 
L 499.9488 306.808571 
L 500.0976 306.433562 
L 500.2464 307.141055 
L 500.3952 306.763831 
L 500.544 307.469122 
L 500.6928 307.089712 
L 500.8416 307.792831 
L 500.9904 307.411264 
L 501.1392 308.112241 
L 501.288 307.728546 
L 501.4368 308.427408 
L 501.5856 308.041612 
L 501.7344 308.738389 
L 501.8832 308.350521 
L 502.032 309.045239 
L 502.1808 308.655326 
L 502.3296 309.348013 
L 502.4784 308.956083 
L 502.6272 309.646766 
L 505.008 303.64964 
L 505.1568 250.56 
L 518.4 250.56 
L 518.4 250.56 
" style="fill:none;stroke:#008000;stroke-linecap:square;"/>
   </g>
   <g id="line2d_2">
    <path clip-path="url(#p495e989224)" d="M 72.1488 250.56 
L 72.2976 250.56 
L 72.4464 250.56 
L 72.5952 388.8 
L 77.952 388.8 
L 78.1008 387.121514 
L 79.7376 386.709519 
L 80.184 386.633227 
L 81.0768 386.358563 
L 81.5232 386.297531 
L 81.8208 386.1602 
L 87.9216 385.000521 
L 88.5168 384.908961 
L 90.0048 384.695338 
L 90.6 384.588526 
L 92.2368 384.344382 
L 93.2784 384.23757 
L 94.7664 384.039207 
L 106.6704 382.757448 
L 106.968 382.681156 
L 107.4144 382.589604 
L 109.4976 382.253901 
L 110.0928 382.162349 
L 117.8304 380.499123 
L 118.4256 380.31602 
L 121.6992 379.568329 
L 122.1456 379.415737 
L 122.4432 379.339445 
L 122.7408 379.247885 
L 123.0384 379.202113 
L 123.4848 379.080041 
L 134.3472 375.66203 
L 134.6448 375.555218 
L 135.0912 375.463666 
L 137.6208 374.624423 
L 137.9184 374.517611 
L 139.8528 373.8157 
L 140.7456 373.556297 
L 142.8288 372.839126 
L 143.1264 372.686534 
L 143.424 372.579722 
L 145.9536 371.770999 
L 146.1024 371.603147 
L 146.6976 371.511595 
L 148.632 370.779164 
L 149.0784 370.672353 
L 149.376 370.565541 
L 150.864 370.000953 
L 152.0544 369.573706 
L 152.5008 369.466894 
L 155.0304 368.581871 
L 156.9648 367.89522 
L 158.4528 367.361153 
L 158.8992 367.147529 
L 159.3456 367.147529 
L 159.4944 366.933906 
L 159.792 366.933906 
L 160.2384 366.705022 
L 160.9824 366.430358 
L 161.4288 366.201475 
L 161.5776 366.201475 
L 161.8752 366.018363 
L 162.1728 365.972591 
L 162.4704 365.850519 
L 165.2976 364.751873 
L 165.4464 364.751873 
L 166.0416 364.400917 
L 168.2736 363.546414 
L 168.72 363.439602 
L 172.1424 362.142592 
L 172.2912 362.142592 
L 172.7376 361.913708 
L 173.0352 361.806888 
L 174.3744 361.318609 
L 174.8208 361.272829 
L 175.1184 361.091678 
L 177.4992 360.566007 
L 180.1776 359.931242 
L 180.624 359.832052 
L 184.4928 358.909654 
L 187.6176 358.17569 
L 188.064 358.066596 
L 191.04 357.352473 
L 191.4864 357.243371 
L 191.9328 357.144189 
L 193.8672 356.737533 
L 197.736 356.063093 
L 198.6288 355.963903 
L 202.944 355.497748 
L 210.2352 355.120845 
L 217.6752 355.229948 
L 220.5024 355.309297 
L 225.1152 355.418399 
L 227.3472 355.616763 
L 228.3888 355.715953 
L 233.5968 356.479662 
L 234.0432 356.568923 
L 246.84 358.383983 
L 247.7328 358.512918 
L 248.6256 358.6121 
L 249.3696 358.731123 
L 250.2624 358.820384 
L 250.8576 358.899733 
L 251.8992 359.008835 
L 260.232 360.020503 
L 261.2736 360.119685 
L 265.8864 360.625523 
L 272.2848 360.94291 
L 277.1952 361.052004 
L 279.8736 361.12144 
L 283.296 361.227049 
L 284.9328 361.288089 
L 286.7184 361.379641 
L 288.2064 361.578005 
L 288.9504 361.715337 
L 289.248 361.806888 
L 306.9552 365.346972 
L 307.5504 365.453784 
L 309.336 365.743707 
L 311.7168 366.125175 
L 313.6512 366.430358 
L 314.3952 366.55243 
L 317.3712 366.750794 
L 320.1984 366.857606 
L 321.8352 366.918646 
L 325.1088 367.025457 
L 326.8944 367.101749 
L 330.0192 367.208569 
L 331.8048 367.284861 
L 334.7808 367.391673 
L 336.4176 367.452705 
L 339.5424 367.559525 
L 341.328 367.635817 
L 343.4112 367.727368 
L 345.048 367.956252 
L 345.6432 368.063064 
L 356.208 370.123025 
L 357.5472 370.351909 
L 358.44 370.519761 
L 359.0352 370.611313 
L 361.8624 371.08434 
L 363.648 371.374264 
L 366.1776 371.786251 
L 367.9632 372.060915 
L 368.4096 372.137215 
L 371.3856 372.244026 
L 373.1712 372.320318 
L 376.296 372.42713 
L 378.0816 372.50343 
L 381.3552 372.610242 
L 383.1408 372.686534 
L 386.2656 372.793346 
L 388.0512 372.869637 
L 391.176 372.976458 
L 392.8128 373.037489 
L 395.9376 373.144301 
L 397.7232 373.220601 
L 400.848 373.327413 
L 402.6336 373.403705 
L 405.7584 373.510517 
L 405.9072 377.586398 
L 406.056 377.576864 
L 406.2048 378.039427 
L 406.3536 378.039427 
L 406.5024 378.497705 
L 406.6512 378.497705 
L 406.8 378.98039 
L 407.2464 378.961315 
L 407.3952 379.449421 
L 407.544 379.449421 
L 407.6928 378.681658 
L 407.8416 379.153531 
L 408.1392 379.153531 
L 408.288 379.631008 
L 408.5856 379.631008 
L 408.8832 380.622266 
L 409.1808 380.622266 
L 409.3296 381.11717 
L 409.6272 381.098095 
L 409.776 381.618089 
L 409.9248 381.618089 
L 410.0736 382.144189 
L 410.2224 382.125114 
L 410.3712 382.638376 
L 410.52 382.638376 
L 410.6688 383.177041 
L 410.9664 383.157966 
L 411.1152 383.703091 
L 411.264 383.703091 
L 411.4128 384.2357 
L 411.5616 384.2357 
L 411.7104 384.775008 
L 411.8592 383.439732 
L 412.008 383.420657 
L 412.1568 383.976378 
L 412.3056 383.957303 
L 412.4544 384.500781 
L 412.6032 384.481706 
L 412.752 385.032121 
L 413.0496 384.993971 
L 413.1984 384.17199 
L 413.3472 384.707763 
L 413.6448 384.688688 
L 413.7936 385.250746 
L 413.9424 385.174454 
L 414.0912 384.367214 
L 414.24 384.367214 
L 414.3888 384.876768 
L 414.6864 384.800468 
L 414.8352 385.393829 
L 414.984 383.915231 
L 415.1328 383.915231 
L 415.2816 384.486847 
L 415.4304 384.448705 
L 415.5792 384.951701 
L 415.728 384.951701 
L 415.8768 384.119272 
L 416.1744 384.042972 
L 416.3232 384.570209 
L 416.472 384.570209 
L 416.6208 383.697859 
L 416.7696 383.602492 
L 416.9184 384.211343 
L 417.216 384.211343 
L 417.3648 384.752076 
L 417.5136 383.260913 
L 417.6624 383.260913 
L 417.8112 383.79896 
L 417.96 383.76081 
L 418.1088 384.364438 
L 418.2576 382.923001 
L 418.4064 382.884851 
L 418.5552 383.466717 
L 418.704 383.428567 
L 418.8528 384.018986 
L 419.0016 383.980836 
L 419.1504 383.100337 
L 419.448 383.100337 
L 419.5968 383.658654 
L 419.8944 383.582362 
L 420.0432 383.544212 
L 420.192 382.699984 
L 420.3408 383.264563 
L 420.6384 383.188263 
L 420.7872 383.800139 
L 420.936 382.30399 
L 421.0848 382.913179 
L 421.5312 382.855963 
L 421.68 383.474529 
L 421.8288 383.436378 
L 421.9776 381.931628 
L 422.1264 382.547499 
L 422.2752 382.509349 
L 422.424 383.134845 
L 422.7216 383.058545 
L 422.8704 382.224946 
L 423.168 382.148646 
L 423.4656 383.38591 
L 423.6144 383.38591 
L 423.7632 381.850376 
L 423.912 381.812226 
L 424.0608 382.452314 
L 424.2096 382.414164 
L 424.3584 381.519402 
L 424.656 381.443102 
L 424.8048 382.090877 
L 425.1024 382.052736 
L 425.2512 381.155971 
L 425.5488 381.117829 
L 425.6976 381.773581 
L 425.8464 381.735431 
L 425.9952 380.817589 
L 426.2928 380.741298 
L 426.4416 381.405331 
L 426.7392 381.348105 
L 426.888 379.785957 
L 427.0368 379.785957 
L 427.3344 381.062722 
L 427.4832 381.024572 
L 427.632 379.451777 
L 427.7808 380.10266 
L 428.0784 380.10266 
L 428.2272 379.114607 
L 428.5248 379.066924 
L 428.6736 379.736288 
L 428.9712 379.688604 
L 429.12 378.784308 
L 429.4176 378.708017 
L 429.5664 379.415292 
L 429.7152 377.766181 
L 429.864 377.728031 
L 430.0128 378.413553 
L 430.1616 378.356328 
L 430.3104 377.584659 
L 430.608 377.615179 
L 430.7568 378.031311 
L 430.9056 377.993161 
L 431.0544 377.767771 
L 432.5424 378.149247 
L 432.9888 378.240798 
L 433.584 378.423902 
L 434.0304 378.515462 
L 435.2208 378.820638 
L 435.6672 378.988489 
L 437.7504 379.522549 
L 438.9408 379.842984 
L 439.536 380.041356 
L 439.9824 380.132908 
L 440.5776 380.331271 
L 441.024 380.407571 
L 443.7024 381.155262 
L 444.1488 381.231554 
L 444.5952 381.368886 
L 445.1904 381.475698 
L 445.6368 381.61303 
L 452.7792 382.971072 
L 454.7136 383.276255 
L 455.3088 383.383067 
L 456.0528 383.489879 
L 460.2192 384.023947 
L 461.4096 384.161278 
L 476.4384 385.59562 
L 477.9264 385.702432 
L 481.6464 385.977088 
L 483.432 386.083908 
L 484.176 386.14494 
L 485.5152 386.251751 
L 493.848 387.121514 
L 493.9968 388.8 
L 518.4 388.8 
L 518.4 388.8 
" style="fill:none;stroke:#000000;stroke-dasharray:6.000000,6.000000;stroke-dashoffset:0.0;"/>
   </g>
   <g id="line2d_3">
    <path clip-path="url(#p495e989224)" d="M 72.1488 250.56 
L 72.2976 250.56 
L 72.4464 250.56 
L 72.5952 112.32 
L 72.744 112.32 
L 72.8928 112.752002 
L 73.488 112.752002 
L 73.6368 113.184003 
L 73.9344 113.184003 
L 74.0832 113.615997 
L 74.6784 113.615997 
L 74.8272 114.047998 
L 75.2736 114.047998 
L 75.4224 114.48 
L 76.0176 114.48 
L 76.1664 114.912002 
L 76.464 114.912002 
L 76.6128 115.344003 
L 76.9104 115.344003 
L 77.0592 115.775997 
L 77.5056 115.775997 
L 77.6544 116.207998 
L 78.2496 116.207998 
L 78.3984 116.64 
L 78.8448 116.64 
L 78.9936 117.072002 
L 79.5888 117.072002 
L 79.7376 117.504003 
L 80.3328 117.504003 
L 80.4816 117.935997 
L 80.928 117.935997 
L 81.0768 118.367998 
L 81.5232 118.367998 
L 81.672 118.8 
L 82.2672 118.8 
L 82.416 119.232002 
L 83.16 119.232002 
L 83.3088 119.664003 
L 84.3504 119.664003 
L 84.4992 120.095997 
L 85.0944 120.095997 
L 85.2432 120.527998 
L 86.136 120.527998 
L 86.2848 120.96 
L 86.88 120.96 
L 87.0288 121.392002 
L 88.0704 121.392002 
L 88.2192 121.824003 
L 88.9632 121.824003 
L 89.112 122.255997 
L 90.1536 122.255997 
L 90.3024 122.687998 
L 91.1952 122.687998 
L 91.344 123.12 
L 92.6832 123.12 
L 92.832 123.552002 
L 93.8736 123.552002 
L 94.0224 123.984003 
L 95.3616 123.984003 
L 95.5104 124.415997 
L 96.8496 124.415997 
L 96.9984 124.847998 
L 98.3376 124.847998 
L 98.4864 125.28 
L 100.1232 125.28 
L 100.272 125.712002 
L 102.0576 125.712002 
L 102.2064 126.144003 
L 103.992 126.144003 
L 104.1408 126.575997 
L 105.3312 126.575997 
L 105.48 127.007998 
L 106.6704 127.007998 
L 106.8192 127.44 
L 107.4144 127.44 
L 107.5632 127.872002 
L 108.7536 127.872002 
L 108.9024 128.304003 
L 109.6464 128.304003 
L 109.7952 128.735997 
L 110.5392 128.735997 
L 110.688 129.167998 
L 111.432 129.167998 
L 111.5808 129.6 
L 112.176 129.6 
L 112.3248 130.032002 
L 112.92 130.032002 
L 113.0688 130.464003 
L 113.664 130.464003 
L 113.8128 130.895997 
L 114.5568 130.895997 
L 114.7056 131.327998 
L 115.5984 131.327998 
L 115.7472 131.76 
L 116.3424 131.76 
L 116.4912 132.192002 
L 116.9376 132.192002 
L 117.0864 132.624003 
L 117.5328 132.624003 
L 117.6816 133.055997 
L 118.2768 133.055997 
L 118.4256 133.487998 
L 119.0208 133.487998 
L 119.1696 133.92 
L 120.0624 133.92 
L 120.2112 134.352002 
L 120.5088 134.352002 
L 120.6576 134.784003 
L 121.2528 134.784003 
L 121.4016 135.215997 
L 121.9968 135.215997 
L 122.1456 135.647998 
L 122.4432 135.647998 
L 122.592 136.08 
L 123.0384 136.08 
L 123.1872 136.512002 
L 123.7824 136.512002 
L 123.9312 136.944003 
L 124.5264 136.944003 
L 124.6752 137.375997 
L 124.9728 137.375997 
L 125.1216 137.807998 
L 125.7168 137.807998 
L 125.8656 138.24 
L 126.1632 138.24 
L 126.312 138.672002 
L 126.6096 138.672002 
L 126.7584 139.104003 
L 127.2048 139.104003 
L 127.3536 139.535997 
L 127.8 139.535997 
L 127.9488 139.967998 
L 175.2672 140.070558 
L 178.6896 140.884365 
L 181.5168 141.545588 
L 184.6416 142.298363 
L 188.6592 143.285106 
L 190.4448 143.722538 
L 190.5936 281.353742 
L 190.7424 281.67639 
L 191.1888 281.716678 
L 191.3376 282.222067 
L 191.4864 282.222067 
L 191.6352 282.55068 
L 192.0816 282.564645 
L 192.2304 282.881205 
L 192.528 282.90873 
L 192.6768 283.284908 
L 193.1232 283.315916 
L 193.272 283.665611 
L 193.5696 283.722848 
L 193.7184 284.075233 
L 194.1648 284.162424 
L 194.3136 284.517835 
L 194.76 284.576513 
L 194.9088 284.93481 
L 195.6528 285.052873 
L 195.8016 285.474536 
L 196.0992 285.502201 
L 196.248 285.88188 
L 196.8432 285.988267 
L 196.992 286.35658 
L 197.5872 286.479929 
L 197.736 286.881658 
L 198.3312 286.944894 
L 198.48 287.318879 
L 199.224 287.477222 
L 199.3728 287.855015 
L 199.8192 287.91989 
L 200.2656 288.015875 
L 200.4144 288.397693 
L 200.8608 288.495202 
L 201.3072 288.591817 
L 201.456 289.009267 
L 201.9024 289.075305 
L 202.4976 289.225087 
L 202.6464 289.599007 
L 203.8368 289.867948 
L 203.9856 290.230632 
L 204.5808 290.39949 
L 205.4736 290.605524 
L 205.6224 291.006112 
L 206.0688 291.111016 
L 207.7056 291.498198 
L 207.8544 291.872068 
L 208.4496 292.050768 
L 208.896 292.157674 
L 209.4912 292.337523 
L 216.1872 294.042215 
L 216.336 293.687869 
L 216.7824 293.72871 
L 217.08 293.916296 
L 217.3776 293.992501 
L 217.6752 294.070428 
L 218.1216 294.186378 
L 218.7168 294.380506 
L 219.1632 294.498116 
L 220.6512 294.934296 
L 220.8 294.573869 
L 225.1152 295.800149 
L 225.264 295.435371 
L 226.008 295.526433 
L 226.4544 295.653008 
L 226.6032 295.653008 
L 226.752 295.323685 
L 227.0496 295.399524 
L 227.1984 295.481992 
L 227.496 295.410841 
L 227.6448 295.07826 
L 227.9424 295.154116 
L 228.24 295.163806 
L 228.5376 295.316179 
L 228.6864 295.356068 
L 228.8352 294.945081 
L 229.4304 295.140598 
L 229.5792 294.769245 
L 230.1744 294.814032 
L 230.3232 294.553772 
L 230.6208 294.596816 
L 230.7696 294.671522 
L 230.9184 294.225933 
L 231.3648 294.381347 
L 231.5136 294.010459 
L 232.1088 294.240571 
L 232.2576 293.867702 
L 232.704 293.985238 
L 233.1504 294.025097 
L 233.2992 293.728289 
L 233.5968 293.695157 
L 233.7456 293.436759 
L 234.192 293.479684 
L 234.4896 293.521175 
L 234.6384 293.188141 
L 235.0848 293.265908 
L 235.2336 293.531528 
L 235.3824 293.455146 
L 235.68 293.01071 
L 236.1264 293.130096 
L 236.2752 292.793577 
L 236.5728 292.874751 
L 236.7216 292.874751 
L 236.8704 292.578099 
L 237.3168 292.652607 
L 237.7632 292.80873 
L 237.912 292.43544 
L 238.3584 292.53503 
L 238.5072 292.59326 
L 238.656 292.219963 
L 239.1024 292.301301 
L 239.2512 292.377787 
L 239.4 292.004481 
L 239.9952 292.092675 
L 240.144 291.79564 
L 240.2928 291.79564 
L 240.7392 292.064973 
L 240.888 291.576838 
L 241.0368 291.692841 
L 241.1856 291.583525 
L 241.4832 291.656669 
L 241.632 291.656669 
L 241.7808 291.396198 
L 242.0784 291.436017 
L 242.2272 291.364809 
L 242.376 291.517743 
L 242.5248 291.126062 
L 242.6736 291.126062 
L 242.9712 291.260436 
L 243.12 291.300415 
L 243.5664 291.006681 
L 243.864 291.053482 
L 244.0128 291.09356 
L 244.1616 290.792822 
L 244.4592 290.675365 
L 244.9056 290.907903 
L 245.0544 290.534288 
L 245.7984 290.7342 
L 246.096 290.400169 
L 246.3936 290.596914 
L 246.9888 290.189965 
L 247.1376 290.189965 
L 247.2864 289.856371 
L 247.4352 290.007372 
L 247.584 289.974277 
L 247.8816 290.087504 
L 248.1792 290.131298 
L 248.328 289.717226 
L 248.6256 289.720646 
L 248.9232 289.914193 
L 249.072 289.46687 
L 249.3696 289.619964 
L 249.6672 289.700359 
L 249.816 289.779037 
L 249.9648 289.287894 
L 250.1136 289.211677 
L 250.4112 289.444655 
L 250.8576 289.451845 
L 251.0064 289.451845 
L 251.1552 289.150562 
L 251.6016 289.309379 
L 251.8992 289.328121 
L 252.048 288.935093 
L 252.4944 289.055599 
L 252.6432 288.876117 
L 253.6848 288.847443 
L 253.8336 288.510894 
L 254.5776 288.705443 
L 254.7264 288.368635 
L 255.3216 288.456529 
L 255.4704 288.421852 
L 255.768 288.270409 
L 256.3632 288.356795 
L 256.512 288.397454 
L 256.6608 287.98482 
L 257.4048 288.183661 
L 257.5536 287.774653 
L 258.1488 288.049205 
L 258.2976 287.560827 
L 258.5952 287.560827 
L 258.744 287.718688 
L 258.8928 287.641778 
L 259.1904 287.798519 
L 259.3392 287.422115 
L 259.6368 287.504892 
L 259.9344 287.546185 
L 260.232 287.622291 
L 260.3808 287.622291 
L 260.5296 287.289443 
L 260.6784 287.250971 
L 260.8272 287.328503 
L 260.976 287.251499 
L 261.2736 287.452825 
L 261.4224 287.11249 
L 261.5712 287.154908 
L 261.8688 287.081731 
L 262.3152 287.298671 
L 262.464 286.90423 
L 262.9104 286.903172 
L 263.0592 286.907106 
L 263.208 287.103463 
L 263.3568 286.764258 
L 264.1008 286.851006 
L 264.2496 286.932645 
L 264.3984 286.85513 
L 264.696 286.512529 
L 264.8448 286.692061 
L 265.1424 286.661607 
L 265.2912 286.647233 
L 265.44 286.756912 
L 265.5888 286.341357 
L 266.4816 286.51199 
L 266.6304 286.51199 
L 266.928 286.211461 
L 267.2256 286.370044 
L 267.672 286.341464 
L 267.8208 286.044001 
L 268.7136 286.369487 
L 269.3088 286.464974 
L 269.7552 286.631536 
L 270.2016 286.690871 
L 270.648 286.819489 
L 271.9872 287.142166 
L 272.136 286.803487 
L 273.3264 287.129934 
L 273.624 287.224023 
L 274.368 287.375062 
L 274.5168 287.375062 
L 274.8144 287.549806 
L 275.2608 287.615588 
L 275.5584 287.703717 
L 275.856 287.75126 
L 276.3024 287.948297 
L 276.4512 287.506029 
L 278.5344 288.057787 
L 280.9152 288.709823 
L 281.064 288.306524 
L 282.1056 288.565578 
L 282.552 288.669798 
L 284.04 289.092456 
L 284.4864 289.17915 
L 285.0816 289.362448 
L 285.8256 289.580335 
L 285.9744 289.126338 
L 286.272 289.235156 
L 287.6112 289.569735 
L 287.76 289.054948 
L 288.6528 289.273738 
L 288.8016 288.815003 
L 289.3968 289.019291 
L 289.5456 288.601799 
L 290.1408 288.65813 
L 290.2896 288.710358 
L 290.4384 288.33458 
L 290.8848 288.382309 
L 291.0336 287.970157 
L 291.6288 288.167099 
L 291.7776 288.162872 
L 291.9264 287.7547 
L 292.6704 287.947691 
L 292.8192 287.530962 
L 293.2656 287.535103 
L 293.4144 287.767562 
L 293.5632 287.263842 
L 293.712 287.218396 
L 294.0096 287.371663 
L 294.1584 287.371663 
L 294.3072 286.992569 
L 294.9024 287.091784 
L 295.0512 286.684287 
L 295.4976 286.745376 
L 295.6464 286.745376 
L 295.944 286.456371 
L 296.3904 286.476975 
L 296.5392 286.140138 
L 296.8368 286.160486 
L 296.9856 286.160486 
L 297.1344 286.333715 
L 297.2832 286.29863 
L 297.432 285.862764 
L 297.5808 285.838053 
L 297.7296 286.109973 
L 298.176 286.029392 
L 298.3248 285.616395 
L 298.6224 285.663498 
L 299.0688 285.859525 
L 299.2176 285.388509 
L 299.8128 285.538546 
L 299.9616 285.261361 
L 300.7056 285.234401 
L 300.8544 285.40994 
L 301.0032 284.907942 
L 301.5984 284.918071 
L 301.7472 285.076603 
L 301.896 284.641036 
L 302.1936 284.786927 
L 302.64 284.844727 
L 302.7888 284.417298 
L 303.5328 284.569311 
L 303.6816 284.205732 
L 303.9792 284.160475 
L 304.2768 284.30642 
L 304.5744 284.333207 
L 304.7232 283.936737 
L 305.1696 284.037279 
L 305.616 284.099227 
L 305.7648 283.723093 
L 306.5088 283.90872 
L 306.6576 283.376087 
L 306.9552 283.56304 
L 307.5504 283.618764 
L 307.6992 283.205579 
L 307.848 283.380542 
L 308.1456 283.293918 
L 308.592 283.407606 
L 308.7408 283.033155 
L 309.336 283.090789 
L 309.6336 283.237935 
L 309.7824 282.778466 
L 309.9312 282.778466 
L 310.2288 282.910434 
L 310.824 283.022746 
L 310.9728 282.608336 
L 311.2704 282.709763 
L 311.7168 282.759673 
L 311.8656 282.855493 
L 312.0144 282.341257 
L 312.7584 282.528002 
L 312.9072 282.505154 
L 313.056 282.12994 
L 313.2048 282.225126 
L 313.3536 282.17957 
L 313.6512 282.285651 
L 313.9488 282.315001 
L 314.0976 282.248521 
L 314.2464 281.875305 
L 314.544 282.007733 
L 314.6928 281.920774 
L 314.8416 282.114163 
L 315.288 282.219173 
L 315.4368 282.302559 
L 315.5856 281.927539 
L 316.4784 282.151129 
L 316.776 282.164576 
L 317.0736 282.264118 
L 318.1152 282.549074 
L 318.4128 282.563427 
L 318.7104 282.664937 
L 319.752 282.957172 
L 320.0496 283.017623 
L 320.1984 282.591063 
L 320.496 282.606101 
L 320.7936 282.709091 
L 321.8352 283.006849 
L 322.1328 283.022873 
L 322.4304 283.127969 
L 322.728 283.144282 
L 323.0256 283.310171 
L 323.3232 283.324704 
L 323.6208 283.433573 
L 324.0672 283.494432 
L 324.3648 283.619225 
L 324.6624 283.68318 
L 324.96 283.744964 
L 325.1088 283.310395 
L 326.2992 283.68703 
L 326.8944 283.749823 
L 327.192 283.88108 
L 327.6384 283.963615 
L 329.5728 284.537825 
L 329.7216 284.022116 
L 330.3168 284.223357 
L 330.6144 284.289261 
L 331.2096 284.493732 
L 331.5072 284.560705 
L 331.9536 284.698071 
L 332.1024 284.698071 
L 332.4 284.836553 
L 332.9952 284.927122 
L 333.2928 285.045043 
L 334.0368 285.328845 
L 334.1856 285.328845 
L 334.3344 284.869732 
L 334.4832 284.820448 
L 334.9296 285.082066 
L 335.2272 285.082066 
L 335.5248 285.226013 
L 335.8224 285.29982 
L 336.2688 285.395484 
L 338.9472 286.265304 
L 339.096 285.719376 
L 339.6912 285.946092 
L 339.9888 285.997125 
L 340.4352 286.17575 
L 340.7328 286.254951 
L 341.328 286.488647 
L 341.7744 286.566216 
L 342.2208 286.725424 
L 342.3696 286.725424 
L 342.5184 286.856543 
L 342.9648 286.863024 
L 343.1136 286.431141 
L 343.2624 286.431141 
L 343.56 286.588937 
L 343.8576 286.565964 
L 344.0064 286.695242 
L 344.304 286.639298 
L 344.6016 286.793134 
L 344.7504 286.28447 
L 344.8992 286.256549 
L 345.1968 286.382803 
L 345.4944 286.483925 
L 345.6432 286.427747 
L 345.792 285.891319 
L 345.9408 285.891319 
L 346.0896 286.088129 
L 346.3872 286.081875 
L 346.536 285.595569 
L 346.9824 285.66571 
L 347.28 285.813094 
L 347.4288 285.244152 
L 347.8752 285.343915 
L 348.024 285.464145 
L 348.1728 284.895978 
L 348.768 285.118441 
L 348.9168 285.118441 
L 349.0656 284.620544 
L 349.3632 284.696537 
L 349.6608 284.766663 
L 349.8096 284.281655 
L 350.256 284.345134 
L 350.5536 284.497673 
L 350.7024 283.93063 
L 351.1488 284.075934 
L 351.4464 284.145961 
L 351.5952 283.661227 
L 351.8928 283.724607 
L 352.1904 283.847093 
L 352.3392 283.847093 
L 352.488 283.362666 
L 352.6368 283.307235 
L 353.232 283.581106 
L 353.3808 283.014871 
L 353.5296 283.0902 
L 353.6784 283.034724 
L 354.1248 283.232639 
L 354.2736 282.748436 
L 354.4224 282.693038 
L 354.72 282.814702 
L 355.1664 282.963527 
L 355.3152 282.39766 
L 355.464 282.472879 
L 355.6128 282.417444 
L 355.9104 282.621293 
L 356.208 282.615119 
L 356.3568 282.134233 
L 356.8032 282.276105 
L 357.1008 282.349062 
L 357.2496 281.783535 
L 357.3984 281.783535 
L 357.696 281.931053 
L 357.8448 282.009959 
L 357.9936 281.954287 
L 358.1424 282.07997 
L 358.2912 281.517014 
L 358.7376 281.769987 
L 358.8864 281.658668 
L 359.0352 281.712925 
L 359.184 281.632468 
L 359.3328 281.299852 
L 359.4816 281.299852 
L 359.6304 281.424828 
L 359.928 281.343001 
L 360.0768 281.339926 
L 360.2256 281.465493 
L 360.3744 281.030429 
L 360.5232 280.978022 
L 360.8208 281.182114 
L 361.1184 281.021186 
L 361.2672 281.149884 
L 361.5648 280.705544 
L 361.7136 280.836852 
L 362.0112 280.72866 
L 362.16 280.854127 
L 362.3088 280.366865 
L 362.4576 280.311494 
L 362.7552 280.433101 
L 363.0528 280.456293 
L 363.2016 280.581933 
L 363.3504 280.022219 
L 363.4992 279.969982 
L 363.7968 280.219384 
L 364.0944 280.111277 
L 364.2432 280.190143 
L 364.392 280.41543 
L 364.5408 280.309787 
L 364.8384 279.821882 
L 365.4336 280.041906 
L 365.5824 279.936483 
L 365.88 279.375517 
L 366.0288 279.601951 
L 366.1776 279.54638 
L 366.3264 279.674821 
L 366.4752 279.6191 
L 366.624 279.695283 
L 366.7728 279.132436 
L 367.368 279.326527 
L 367.6656 279.399507 
L 367.8144 278.86594 
L 368.5584 279.10995 
L 368.7072 279.288919 
L 369.1536 279.3691 
L 369.4512 279.449724 
L 369.8976 279.530811 
L 370.344 279.697555 
L 370.4928 279.128741 
L 370.9392 279.294331 
L 371.088 279.240888 
L 371.3856 279.376244 
L 371.832 279.541484 
L 372.2784 279.628075 
L 372.7248 279.770676 
L 373.7664 280.055475 
L 374.2128 280.23202 
L 374.6592 280.319376 
L 374.808 280.381203 
L 374.9568 279.819765 
L 375.4032 279.997228 
L 375.7008 279.993809 
L 375.8496 280.085048 
L 375.9984 280.029551 
L 376.296 280.1734 
L 377.4864 280.53569 
L 377.784 280.626755 
L 379.7184 281.192416 
L 379.8672 280.580928 
L 380.3136 280.771847 
L 380.76 280.866369 
L 381.2064 281.060945 
L 381.6528 281.157282 
L 382.0992 281.355627 
L 382.248 281.32446 
L 382.3968 281.453844 
L 382.5456 281.395149 
L 382.992 281.596981 
L 383.736 281.856993 
L 383.8848 281.797533 
L 384.0336 281.958442 
L 384.1824 281.898789 
L 384.3312 281.430452 
L 384.9264 281.531312 
L 385.0752 281.636808 
L 385.3728 281.632834 
L 385.8192 281.84191 
L 386.2656 281.945487 
L 386.4144 281.993342 
L 386.712 282.18712 
L 387.3072 282.375052 
L 387.6048 282.370891 
L 387.9024 282.477995 
L 388.944 282.918062 
L 389.0928 282.378591 
L 389.688 282.483842 
L 390.1344 282.709493 
L 390.2832 282.709493 
L 390.7296 282.938354 
L 391.3248 283.047352 
L 391.7712 283.28106 
L 392.0688 283.337681 
L 392.9616 283.635707 
L 393.1104 283.631107 
L 393.5568 283.87332 
L 393.7056 283.87332 
L 393.8544 283.998115 
L 394.0032 283.314091 
L 397.872 284.812686 
L 398.0208 284.74544 
L 398.1696 284.942518 
L 398.3184 284.942518 
L 398.4672 285.073332 
L 398.616 284.366683 
L 398.7648 284.532261 
L 398.9136 284.46485 
L 399.2112 284.662737 
L 399.36 284.626342 
L 399.8064 284.895197 
L 400.104 284.965396 
L 403.2288 286.288936 
L 403.3776 285.551993 
L 403.824 285.842271 
L 403.9728 285.842271 
L 404.4192 286.131713 
L 404.568 286.126024 
L 405.0144 286.425942 
L 405.1632 286.425942 
L 405.6096 286.730957 
L 405.7584 286.730957 
L 405.9072 286.882461 
L 406.056 286.843022 
L 406.2048 287.035234 
L 406.3536 287.035234 
L 406.8 287.350751 
L 407.544 287.4333 
L 407.6928 286.821075 
L 407.8416 287.051306 
L 408.1392 287.051306 
L 408.288 287.283597 
L 408.5856 287.209089 
L 408.7344 287.299705 
L 408.8832 287.535074 
L 409.1808 287.535074 
L 409.4784 287.697075 
L 409.6272 287.690727 
L 409.776 287.860498 
L 409.9248 287.784742 
L 410.3712 288.191716 
L 410.52 288.191716 
L 410.6688 288.366114 
L 410.9664 288.359539 
L 411.7104 288.801028 
L 411.8592 287.922947 
L 412.3056 288.009049 
L 412.4544 288.180209 
L 412.6032 288.173506 
L 412.752 288.346174 
L 413.0496 288.254803 
L 413.1984 287.69476 
L 413.7936 287.793217 
L 413.9424 287.922082 
L 414.0912 287.05765 
L 414.24 287.05765 
L 414.5376 287.209369 
L 414.8352 287.362365 
L 414.984 286.525911 
L 415.4304 286.606067 
L 415.5792 286.984906 
L 415.728 286.829072 
L 415.8768 286.191488 
L 416.1744 286.164812 
L 416.472 286.238768 
L 416.6208 285.7436 
L 416.7696 285.942417 
L 417.0672 285.810726 
L 417.216 285.810726 
L 417.3648 285.963054 
L 417.5136 285.28922 
L 417.6624 285.135029 
L 417.8112 285.440159 
L 418.1088 285.521342 
L 418.2576 284.637128 
L 418.4064 284.623961 
L 418.5552 284.786859 
L 418.704 284.773576 
L 418.8528 284.937906 
L 419.0016 284.924518 
L 419.1504 284.275403 
L 419.448 284.275403 
L 419.5968 284.580729 
L 419.7456 284.425795 
L 420.0432 284.540571 
L 420.192 283.904965 
L 420.3408 284.055266 
L 420.6384 284.028621 
L 420.7872 284.19348 
L 420.936 283.457596 
L 421.0848 283.620751 
L 421.5312 283.523621 
L 421.68 283.687821 
L 421.8288 283.674429 
L 421.9776 282.863552 
L 422.1264 283.025502 
L 422.2752 283.012306 
L 422.424 283.253154 
L 422.7216 283.226451 
L 422.8704 282.521054 
L 423.168 282.494772 
L 423.4656 282.808302 
L 423.6144 282.808302 
L 423.7632 281.997272 
L 423.912 281.9842 
L 424.0608 282.146049 
L 424.2096 282.132859 
L 424.3584 281.487009 
L 424.656 281.461003 
L 424.8048 281.621935 
L 425.1024 281.608807 
L 425.2512 280.964191 
L 425.5488 280.723199 
L 425.6976 281.034868 
L 425.8464 281.021839 
L 425.9952 280.448344 
L 426.2928 280.346771 
L 426.5904 280.505468 
L 426.7392 280.562277 
L 426.888 279.688304 
L 427.0368 279.688304 
L 427.4832 279.97027 
L 427.632 279.1747 
L 427.7808 279.399089 
L 428.0784 279.399089 
L 428.2272 278.621162 
L 428.5248 278.642975 
L 428.6736 278.831516 
L 428.9712 278.778242 
L 429.2688 278.124425 
L 429.4176 278.043865 
L 429.5664 278.127955 
L 429.7152 277.474469 
L 430.0128 277.538544 
L 430.1616 277.5943 
L 430.3104 276.95827 
L 430.608 276.946225 
L 430.7568 277.077233 
L 430.9056 276.991266 
L 431.0544 276.284403 
L 431.5008 276.412949 
L 431.6496 276.327913 
L 431.7984 275.698497 
L 431.9472 275.753409 
L 432.096 275.669306 
L 432.2448 275.88076 
L 432.3936 275.044158 
L 432.9888 275.151473 
L 433.1376 274.52827 
L 433.2864 274.582642 
L 433.4352 274.499913 
L 433.7328 274.554244 
L 433.8816 273.881157 
L 434.1792 273.853381 
L 434.328 273.303675 
L 434.4768 273.222851 
L 434.7744 273.341155 
L 434.9232 273.341155 
L 435.072 272.597094 
L 435.5184 272.686093 
L 435.6672 272.478334 
L 435.816 272.073858 
L 436.1136 272.06334 
L 436.2624 271.455858 
L 436.56 271.430154 
L 436.8576 271.552271 
L 437.0064 270.832888 
L 437.1552 270.817811 
L 437.304 270.927079 
L 437.4528 270.21068 
L 437.8992 270.186175 
L 438.1968 270.28775 
L 438.3456 269.570604 
L 438.6432 269.684148 
L 438.792 269.674491 
L 438.9408 268.975161 
L 439.2384 269.062438 
L 439.3872 268.371665 
L 439.6848 268.484192 
L 439.9824 268.456665 
L 440.1312 267.884093 
L 440.4288 267.861765 
L 440.5776 267.188342 
L 441.1728 267.268828 
L 441.3216 266.707901 
L 441.9168 266.67415 
L 442.0656 266.019121 
L 442.3632 266.094971 
L 442.512 265.508614 
L 442.9584 265.594436 
L 443.1072 265.526728 
L 443.256 264.984633 
L 443.7024 265.012617 
L 444 265.004907 
L 444.1488 264.47644 
L 444.4464 264.450263 
L 444.5952 263.931765 
L 445.1904 263.906414 
L 445.3392 263.383678 
L 446.0832 263.408223 
L 446.232 263.495127 
L 446.3808 262.833461 
L 446.6784 262.871637 
L 446.976 262.955531 
L 447.1248 262.365826 
L 447.5712 262.427166 
L 447.72 261.847555 
L 448.6128 261.900294 
L 448.7616 261.331261 
L 449.3568 261.381956 
L 449.5056 260.874849 
L 450.2496 260.875279 
L 450.3984 260.377908 
L 451.44 260.421985 
L 451.5888 259.953764 
L 452.3328 259.978694 
L 452.4816 259.474534 
L 453.2256 259.456336 
L 453.3744 259.046684 
L 454.5648 259.091013 
L 454.7136 258.538737 
L 455.3088 258.541618 
L 455.4576 258.629589 
L 455.6064 258.534471 
L 455.7552 258.666478 
L 455.904 258.128112 
L 456.3504 258.175154 
L 457.0944 258.163708 
L 457.2432 257.739195 
L 458.136 257.820262 
L 458.2848 257.301999 
L 459.7728 257.334487 
L 459.9216 256.873351 
L 460.5168 256.913882 
L 461.112 256.948118 
L 461.2608 256.457532 
L 461.856 256.538533 
L 462.4512 256.538167 
L 462.6 256.099125 
L 464.2368 256.166682 
L 464.3856 255.737883 
L 465.7248 255.76723 
L 465.8736 255.393538 
L 467.5104 255.457651 
L 467.6592 255.016744 
L 468.552 255.012196 
L 469.296 255.006325 
L 469.4448 254.720894 
L 469.8912 254.685896 
L 470.1888 254.681772 
L 471.0816 254.674919 
L 471.3792 254.710317 
L 471.528 254.365274 
L 471.9744 254.312698 
L 472.4208 254.341344 
L 473.1648 254.388005 
L 473.3136 253.991219 
L 474.3552 253.9853 
L 474.6528 254.029977 
L 475.3968 254.026422 
L 475.5456 253.69304 
L 475.992 253.704637 
L 477.0336 253.6831 
L 477.6288 253.723937 
L 477.7776 253.373815 
L 480.1584 253.419207 
L 480.3072 253.12611 
L 480.9024 253.119929 
L 482.5392 253.110142 
L 482.688 252.830769 
L 484.7712 252.818104 
L 484.92 252.55404 
L 487.0032 252.5406 
L 487.152 252.268511 
L 488.7888 252.279619 
L 488.9376 252.047879 
L 489.9792 252.000033 
L 490.2768 252.019798 
L 490.4256 251.766625 
L 491.7648 251.774101 
L 492.0624 251.578229 
L 493.4016 251.574819 
L 493.5504 251.371772 
L 493.848 251.371159 
L 493.9968 116.207998 
L 494.7408 116.207998 
L 494.8896 115.775997 
L 496.08 115.775997 
L 496.2288 115.344003 
L 497.2704 115.344003 
L 497.4192 114.912002 
L 498.6096 114.912002 
L 498.7584 114.48 
L 499.8 114.48 
L 499.9488 114.047998 
L 500.8416 114.047998 
L 500.9904 113.615997 
L 501.8832 113.615997 
L 502.032 113.184003 
L 502.9248 113.184003 
L 503.0736 112.752002 
L 503.9664 112.752002 
L 504.1152 112.32 
L 518.4 112.32 
L 518.4 112.32 
" style="fill:none;stroke:#000000;stroke-dasharray:6.000000,6.000000;stroke-dashoffset:0.0;"/>
   </g>
   <g id="patch_3">
    <path d="M 72 43.2 
L 518.4 43.2 
" style="fill:none;stroke:#000000;stroke-linecap:square;stroke-linejoin:miter;"/>
   </g>
   <g id="patch_4">
    <path d="M 518.4 388.8 
L 518.4 43.2 
" style="fill:none;stroke:#000000;stroke-linecap:square;stroke-linejoin:miter;"/>
   </g>
   <g id="patch_5">
    <path d="M 72 388.8 
L 518.4 388.8 
" style="fill:none;stroke:#000000;stroke-linecap:square;stroke-linejoin:miter;"/>
   </g>
   <g id="patch_6">
    <path d="M 72 388.8 
L 72 43.2 
" style="fill:none;stroke:#000000;stroke-linecap:square;stroke-linejoin:miter;"/>
   </g>
   <g id="matplotlib.axis_1">
    <g id="xtick_1">
     <g id="line2d_4">
      <path clip-path="url(#p495e989224)" d="M 72 388.8 
L 72 43.2 
" style="fill:none;stroke:#000000;stroke-dasharray:1.000000,3.000000;stroke-dashoffset:0.0;stroke-width:0.5;"/>
     </g>
     <g id="line2d_5">
      <defs>
       <path d="M 0 0 
L 0 -4 
" id="m737f67bbbc" style="stroke:#000000;stroke-width:0.5;"/>
      </defs>
      <g>
       <use style="stroke:#000000;stroke-width:0.5;" x="72.0" xlink:href="#m737f67bbbc" y="388.8"/>
      </g>
     </g>
     <g id="line2d_6">
      <defs>
       <path d="M 0 0 
L 0 4 
" id="me256b4bc1c" style="stroke:#000000;stroke-width:0.5;"/>
      </defs>
      <g>
       <use style="stroke:#000000;stroke-width:0.5;" x="72.0" xlink:href="#me256b4bc1c" y="43.2"/>
      </g>
     </g>
     <g id="text_1">
      <!-- 0 -->
      <defs>
       <path d="M 31.78125 66.40625 
Q 24.171875 66.40625 20.328125 58.90625 
Q 16.5 51.421875 16.5 36.375 
Q 16.5 21.390625 20.328125 13.890625 
Q 24.171875 6.390625 31.78125 6.390625 
Q 39.453125 6.390625 43.28125 13.890625 
Q 47.125 21.390625 47.125 36.375 
Q 47.125 51.421875 43.28125 58.90625 
Q 39.453125 66.40625 31.78125 66.40625 
M 31.78125 74.21875 
Q 44.046875 74.21875 50.515625 64.515625 
Q 56.984375 54.828125 56.984375 36.375 
Q 56.984375 17.96875 50.515625 8.265625 
Q 44.046875 -1.421875 31.78125 -1.421875 
Q 19.53125 -1.421875 13.0625 8.265625 
Q 6.59375 17.96875 6.59375 36.375 
Q 6.59375 54.828125 13.0625 64.515625 
Q 19.53125 74.21875 31.78125 74.21875 
" id="BitstreamVeraSans-Roman-30"/>
      </defs>
      <g transform="translate(68.1825 401.918125)scale(0.12 -0.12)">
       <use xlink:href="#BitstreamVeraSans-Roman-30"/>
      </g>
     </g>
    </g>
    <g id="xtick_2">
     <g id="line2d_7">
      <path clip-path="url(#p495e989224)" d="M 146.4 388.8 
L 146.4 43.2 
" style="fill:none;stroke:#000000;stroke-dasharray:1.000000,3.000000;stroke-dashoffset:0.0;stroke-width:0.5;"/>
     </g>
     <g id="line2d_8">
      <g>
       <use style="stroke:#000000;stroke-width:0.5;" x="146.4" xlink:href="#m737f67bbbc" y="388.8"/>
      </g>
     </g>
     <g id="line2d_9">
      <g>
       <use style="stroke:#000000;stroke-width:0.5;" x="146.4" xlink:href="#me256b4bc1c" y="43.2"/>
      </g>
     </g>
     <g id="text_2">
      <!-- 5 -->
      <defs>
       <path d="M 10.796875 72.90625 
L 49.515625 72.90625 
L 49.515625 64.59375 
L 19.828125 64.59375 
L 19.828125 46.734375 
Q 21.96875 47.46875 24.109375 47.828125 
Q 26.265625 48.1875 28.421875 48.1875 
Q 40.625 48.1875 47.75 41.5 
Q 54.890625 34.8125 54.890625 23.390625 
Q 54.890625 11.625 47.5625 5.09375 
Q 40.234375 -1.421875 26.90625 -1.421875 
Q 22.3125 -1.421875 17.546875 -0.640625 
Q 12.796875 0.140625 7.71875 1.703125 
L 7.71875 11.625 
Q 12.109375 9.234375 16.796875 8.0625 
Q 21.484375 6.890625 26.703125 6.890625 
Q 35.15625 6.890625 40.078125 11.328125 
Q 45.015625 15.765625 45.015625 23.390625 
Q 45.015625 31 40.078125 35.4375 
Q 35.15625 39.890625 26.703125 39.890625 
Q 22.75 39.890625 18.8125 39.015625 
Q 14.890625 38.140625 10.796875 36.28125 
z
" id="BitstreamVeraSans-Roman-35"/>
      </defs>
      <g transform="translate(142.5825 401.918125)scale(0.12 -0.12)">
       <use xlink:href="#BitstreamVeraSans-Roman-35"/>
      </g>
     </g>
    </g>
    <g id="xtick_3">
     <g id="line2d_10">
      <path clip-path="url(#p495e989224)" d="M 220.8 388.8 
L 220.8 43.2 
" style="fill:none;stroke:#000000;stroke-dasharray:1.000000,3.000000;stroke-dashoffset:0.0;stroke-width:0.5;"/>
     </g>
     <g id="line2d_11">
      <g>
       <use style="stroke:#000000;stroke-width:0.5;" x="220.8" xlink:href="#m737f67bbbc" y="388.8"/>
      </g>
     </g>
     <g id="line2d_12">
      <g>
       <use style="stroke:#000000;stroke-width:0.5;" x="220.8" xlink:href="#me256b4bc1c" y="43.2"/>
      </g>
     </g>
     <g id="text_3">
      <!-- 10 -->
      <defs>
       <path d="M 12.40625 8.296875 
L 28.515625 8.296875 
L 28.515625 63.921875 
L 10.984375 60.40625 
L 10.984375 69.390625 
L 28.421875 72.90625 
L 38.28125 72.90625 
L 38.28125 8.296875 
L 54.390625 8.296875 
L 54.390625 0 
L 12.40625 0 
z
" id="BitstreamVeraSans-Roman-31"/>
      </defs>
      <g transform="translate(213.165 401.918125)scale(0.12 -0.12)">
       <use xlink:href="#BitstreamVeraSans-Roman-31"/>
       <use x="63.623046875" xlink:href="#BitstreamVeraSans-Roman-30"/>
      </g>
     </g>
    </g>
    <g id="xtick_4">
     <g id="line2d_13">
      <path clip-path="url(#p495e989224)" d="M 295.2 388.8 
L 295.2 43.2 
" style="fill:none;stroke:#000000;stroke-dasharray:1.000000,3.000000;stroke-dashoffset:0.0;stroke-width:0.5;"/>
     </g>
     <g id="line2d_14">
      <g>
       <use style="stroke:#000000;stroke-width:0.5;" x="295.2" xlink:href="#m737f67bbbc" y="388.8"/>
      </g>
     </g>
     <g id="line2d_15">
      <g>
       <use style="stroke:#000000;stroke-width:0.5;" x="295.2" xlink:href="#me256b4bc1c" y="43.2"/>
      </g>
     </g>
     <g id="text_4">
      <!-- 15 -->
      <g transform="translate(287.565 401.918125)scale(0.12 -0.12)">
       <use xlink:href="#BitstreamVeraSans-Roman-31"/>
       <use x="63.623046875" xlink:href="#BitstreamVeraSans-Roman-35"/>
      </g>
     </g>
    </g>
    <g id="xtick_5">
     <g id="line2d_16">
      <path clip-path="url(#p495e989224)" d="M 369.6 388.8 
L 369.6 43.2 
" style="fill:none;stroke:#000000;stroke-dasharray:1.000000,3.000000;stroke-dashoffset:0.0;stroke-width:0.5;"/>
     </g>
     <g id="line2d_17">
      <g>
       <use style="stroke:#000000;stroke-width:0.5;" x="369.6" xlink:href="#m737f67bbbc" y="388.8"/>
      </g>
     </g>
     <g id="line2d_18">
      <g>
       <use style="stroke:#000000;stroke-width:0.5;" x="369.6" xlink:href="#me256b4bc1c" y="43.2"/>
      </g>
     </g>
     <g id="text_5">
      <!-- 20 -->
      <defs>
       <path d="M 19.1875 8.296875 
L 53.609375 8.296875 
L 53.609375 0 
L 7.328125 0 
L 7.328125 8.296875 
Q 12.9375 14.109375 22.625 23.890625 
Q 32.328125 33.6875 34.8125 36.53125 
Q 39.546875 41.84375 41.421875 45.53125 
Q 43.3125 49.21875 43.3125 52.78125 
Q 43.3125 58.59375 39.234375 62.25 
Q 35.15625 65.921875 28.609375 65.921875 
Q 23.96875 65.921875 18.8125 64.3125 
Q 13.671875 62.703125 7.8125 59.421875 
L 7.8125 69.390625 
Q 13.765625 71.78125 18.9375 73 
Q 24.125 74.21875 28.421875 74.21875 
Q 39.75 74.21875 46.484375 68.546875 
Q 53.21875 62.890625 53.21875 53.421875 
Q 53.21875 48.921875 51.53125 44.890625 
Q 49.859375 40.875 45.40625 35.40625 
Q 44.1875 33.984375 37.640625 27.21875 
Q 31.109375 20.453125 19.1875 8.296875 
" id="BitstreamVeraSans-Roman-32"/>
      </defs>
      <g transform="translate(361.965 401.918125)scale(0.12 -0.12)">
       <use xlink:href="#BitstreamVeraSans-Roman-32"/>
       <use x="63.623046875" xlink:href="#BitstreamVeraSans-Roman-30"/>
      </g>
     </g>
    </g>
    <g id="xtick_6">
     <g id="line2d_19">
      <path clip-path="url(#p495e989224)" d="M 444 388.8 
L 444 43.2 
" style="fill:none;stroke:#000000;stroke-dasharray:1.000000,3.000000;stroke-dashoffset:0.0;stroke-width:0.5;"/>
     </g>
     <g id="line2d_20">
      <g>
       <use style="stroke:#000000;stroke-width:0.5;" x="444.0" xlink:href="#m737f67bbbc" y="388.8"/>
      </g>
     </g>
     <g id="line2d_21">
      <g>
       <use style="stroke:#000000;stroke-width:0.5;" x="444.0" xlink:href="#me256b4bc1c" y="43.2"/>
      </g>
     </g>
     <g id="text_6">
      <!-- 25 -->
      <g transform="translate(436.365 401.918125)scale(0.12 -0.12)">
       <use xlink:href="#BitstreamVeraSans-Roman-32"/>
       <use x="63.623046875" xlink:href="#BitstreamVeraSans-Roman-35"/>
      </g>
     </g>
    </g>
    <g id="xtick_7">
     <g id="line2d_22">
      <path clip-path="url(#p495e989224)" d="M 518.4 388.8 
L 518.4 43.2 
" style="fill:none;stroke:#000000;stroke-dasharray:1.000000,3.000000;stroke-dashoffset:0.0;stroke-width:0.5;"/>
     </g>
     <g id="line2d_23">
      <g>
       <use style="stroke:#000000;stroke-width:0.5;" x="518.4" xlink:href="#m737f67bbbc" y="388.8"/>
      </g>
     </g>
     <g id="line2d_24">
      <g>
       <use style="stroke:#000000;stroke-width:0.5;" x="518.4" xlink:href="#me256b4bc1c" y="43.2"/>
      </g>
     </g>
     <g id="text_7">
      <!-- 30 -->
      <defs>
       <path d="M 40.578125 39.3125 
Q 47.65625 37.796875 51.625 33 
Q 55.609375 28.21875 55.609375 21.1875 
Q 55.609375 10.40625 48.1875 4.484375 
Q 40.765625 -1.421875 27.09375 -1.421875 
Q 22.515625 -1.421875 17.65625 -0.515625 
Q 12.796875 0.390625 7.625 2.203125 
L 7.625 11.71875 
Q 11.71875 9.328125 16.59375 8.109375 
Q 21.484375 6.890625 26.8125 6.890625 
Q 36.078125 6.890625 40.9375 10.546875 
Q 45.796875 14.203125 45.796875 21.1875 
Q 45.796875 27.640625 41.28125 31.265625 
Q 36.765625 34.90625 28.71875 34.90625 
L 20.21875 34.90625 
L 20.21875 43.015625 
L 29.109375 43.015625 
Q 36.375 43.015625 40.234375 45.921875 
Q 44.09375 48.828125 44.09375 54.296875 
Q 44.09375 59.90625 40.109375 62.90625 
Q 36.140625 65.921875 28.71875 65.921875 
Q 24.65625 65.921875 20.015625 65.03125 
Q 15.375 64.15625 9.8125 62.3125 
L 9.8125 71.09375 
Q 15.4375 72.65625 20.34375 73.4375 
Q 25.25 74.21875 29.59375 74.21875 
Q 40.828125 74.21875 47.359375 69.109375 
Q 53.90625 64.015625 53.90625 55.328125 
Q 53.90625 49.265625 50.4375 45.09375 
Q 46.96875 40.921875 40.578125 39.3125 
" id="BitstreamVeraSans-Roman-33"/>
      </defs>
      <g transform="translate(510.765 401.918125)scale(0.12 -0.12)">
       <use xlink:href="#BitstreamVeraSans-Roman-33"/>
       <use x="63.623046875" xlink:href="#BitstreamVeraSans-Roman-30"/>
      </g>
     </g>
    </g>
    <g id="text_8">
     <!-- Time [s] -->
     <defs>
      <path id="BitstreamVeraSans-Roman-20"/>
      <path d="M 8.59375 75.984375 
L 29.296875 75.984375 
L 29.296875 69 
L 17.578125 69 
L 17.578125 -6.203125 
L 29.296875 -6.203125 
L 29.296875 -13.1875 
L 8.59375 -13.1875 
z
" id="BitstreamVeraSans-Roman-5b"/>
      <path d="M 30.421875 75.984375 
L 30.421875 -13.1875 
L 9.71875 -13.1875 
L 9.71875 -6.203125 
L 21.390625 -6.203125 
L 21.390625 69 
L 9.71875 69 
L 9.71875 75.984375 
z
" id="BitstreamVeraSans-Roman-5d"/>
      <path d="M 52 44.1875 
Q 55.375 50.25 60.0625 53.125 
Q 64.75 56 71.09375 56 
Q 79.640625 56 84.28125 50.015625 
Q 88.921875 44.046875 88.921875 33.015625 
L 88.921875 0 
L 79.890625 0 
L 79.890625 32.71875 
Q 79.890625 40.578125 77.09375 44.375 
Q 74.3125 48.1875 68.609375 48.1875 
Q 61.625 48.1875 57.5625 43.546875 
Q 53.515625 38.921875 53.515625 30.90625 
L 53.515625 0 
L 44.484375 0 
L 44.484375 32.71875 
Q 44.484375 40.625 41.703125 44.40625 
Q 38.921875 48.1875 33.109375 48.1875 
Q 26.21875 48.1875 22.15625 43.53125 
Q 18.109375 38.875 18.109375 30.90625 
L 18.109375 0 
L 9.078125 0 
L 9.078125 54.6875 
L 18.109375 54.6875 
L 18.109375 46.1875 
Q 21.1875 51.21875 25.484375 53.609375 
Q 29.78125 56 35.6875 56 
Q 41.65625 56 45.828125 52.96875 
Q 50 49.953125 52 44.1875 
" id="BitstreamVeraSans-Roman-6d"/>
      <path d="M 9.421875 54.6875 
L 18.40625 54.6875 
L 18.40625 0 
L 9.421875 0 
z
M 9.421875 75.984375 
L 18.40625 75.984375 
L 18.40625 64.59375 
L 9.421875 64.59375 
z
" id="BitstreamVeraSans-Roman-69"/>
      <path d="M 56.203125 29.59375 
L 56.203125 25.203125 
L 14.890625 25.203125 
Q 15.484375 15.921875 20.484375 11.0625 
Q 25.484375 6.203125 34.421875 6.203125 
Q 39.59375 6.203125 44.453125 7.46875 
Q 49.3125 8.734375 54.109375 11.28125 
L 54.109375 2.78125 
Q 49.265625 0.734375 44.1875 -0.34375 
Q 39.109375 -1.421875 33.890625 -1.421875 
Q 20.796875 -1.421875 13.15625 6.1875 
Q 5.515625 13.8125 5.515625 26.8125 
Q 5.515625 40.234375 12.765625 48.109375 
Q 20.015625 56 32.328125 56 
Q 43.359375 56 49.78125 48.890625 
Q 56.203125 41.796875 56.203125 29.59375 
M 47.21875 32.234375 
Q 47.125 39.59375 43.09375 43.984375 
Q 39.0625 48.390625 32.421875 48.390625 
Q 24.90625 48.390625 20.390625 44.140625 
Q 15.875 39.890625 15.1875 32.171875 
z
" id="BitstreamVeraSans-Roman-65"/>
      <path d="M -0.296875 72.90625 
L 61.375 72.90625 
L 61.375 64.59375 
L 35.5 64.59375 
L 35.5 0 
L 25.59375 0 
L 25.59375 64.59375 
L -0.296875 64.59375 
z
" id="BitstreamVeraSans-Roman-54"/>
      <path d="M 44.28125 53.078125 
L 44.28125 44.578125 
Q 40.484375 46.53125 36.375 47.5 
Q 32.28125 48.484375 27.875 48.484375 
Q 21.1875 48.484375 17.84375 46.4375 
Q 14.5 44.390625 14.5 40.28125 
Q 14.5 37.15625 16.890625 35.375 
Q 19.28125 33.59375 26.515625 31.984375 
L 29.59375 31.296875 
Q 39.15625 29.25 43.1875 25.515625 
Q 47.21875 21.78125 47.21875 15.09375 
Q 47.21875 7.46875 41.1875 3.015625 
Q 35.15625 -1.421875 24.609375 -1.421875 
Q 20.21875 -1.421875 15.453125 -0.5625 
Q 10.6875 0.296875 5.421875 2 
L 5.421875 11.28125 
Q 10.40625 8.6875 15.234375 7.390625 
Q 20.0625 6.109375 24.8125 6.109375 
Q 31.15625 6.109375 34.5625 8.28125 
Q 37.984375 10.453125 37.984375 14.40625 
Q 37.984375 18.0625 35.515625 20.015625 
Q 33.0625 21.96875 24.703125 23.78125 
L 21.578125 24.515625 
Q 13.234375 26.265625 9.515625 29.90625 
Q 5.8125 33.546875 5.8125 39.890625 
Q 5.8125 47.609375 11.28125 51.796875 
Q 16.75 56 26.8125 56 
Q 31.78125 56 36.171875 55.265625 
Q 40.578125 54.546875 44.28125 53.078125 
" id="BitstreamVeraSans-Roman-73"/>
     </defs>
     <g transform="translate(270.620625 418.531875)scale(0.12 -0.12)">
      <use xlink:href="#BitstreamVeraSans-Roman-54"/>
      <use x="61.037109375" xlink:href="#BitstreamVeraSans-Roman-69"/>
      <use x="88.8203125" xlink:href="#BitstreamVeraSans-Roman-6d"/>
      <use x="186.232421875" xlink:href="#BitstreamVeraSans-Roman-65"/>
      <use x="247.755859375" xlink:href="#BitstreamVeraSans-Roman-20"/>
      <use x="279.54296875" xlink:href="#BitstreamVeraSans-Roman-5b"/>
      <use x="318.556640625" xlink:href="#BitstreamVeraSans-Roman-73"/>
      <use x="370.65625" xlink:href="#BitstreamVeraSans-Roman-5d"/>
     </g>
    </g>
   </g>
   <g id="matplotlib.axis_2">
    <g id="ytick_1">
     <g id="line2d_25">
      <path clip-path="url(#p495e989224)" d="M 72 388.8 
L 518.4 388.8 
" style="fill:none;stroke:#000000;stroke-dasharray:1.000000,3.000000;stroke-dashoffset:0.0;stroke-width:0.5;"/>
     </g>
     <g id="line2d_26">
      <defs>
       <path d="M 0 0 
L 4 0 
" id="md1e7f43c5b" style="stroke:#000000;stroke-width:0.5;"/>
      </defs>
      <g>
       <use style="stroke:#000000;stroke-width:0.5;" x="72.0" xlink:href="#md1e7f43c5b" y="388.8"/>
      </g>
     </g>
     <g id="line2d_27">
      <defs>
       <path d="M 0 0 
L -4 0 
" id="mb2ad05a9c4" style="stroke:#000000;stroke-width:0.5;"/>
      </defs>
      <g>
       <use style="stroke:#000000;stroke-width:0.5;" x="518.4" xlink:href="#mb2ad05a9c4" y="388.8"/>
      </g>
     </g>
     <g id="text_9">
      <!-- 1.0 -->
      <defs>
       <path d="M 10.59375 35.5 
L 73.1875 35.5 
L 73.1875 27.203125 
L 10.59375 27.203125 
z
" id="BitstreamVeraSans-Roman-2212"/>
       <path d="M 10.6875 12.40625 
L 21 12.40625 
L 21 0 
L 10.6875 0 
z
" id="BitstreamVeraSans-Roman-2e"/>
      </defs>
      <g transform="translate(38.860625 392.11125)scale(0.12 -0.12)">
       <use xlink:href="#BitstreamVeraSans-Roman-2212"/>
       <use x="83.7890625" xlink:href="#BitstreamVeraSans-Roman-31"/>
       <use x="147.412109375" xlink:href="#BitstreamVeraSans-Roman-2e"/>
       <use x="179.19921875" xlink:href="#BitstreamVeraSans-Roman-30"/>
      </g>
     </g>
    </g>
    <g id="ytick_2">
     <g id="line2d_28">
      <path clip-path="url(#p495e989224)" d="M 72 319.68 
L 518.4 319.68 
" style="fill:none;stroke:#000000;stroke-dasharray:1.000000,3.000000;stroke-dashoffset:0.0;stroke-width:0.5;"/>
     </g>
     <g id="line2d_29">
      <g>
       <use style="stroke:#000000;stroke-width:0.5;" x="72.0" xlink:href="#md1e7f43c5b" y="319.68"/>
      </g>
     </g>
     <g id="line2d_30">
      <g>
       <use style="stroke:#000000;stroke-width:0.5;" x="518.4" xlink:href="#mb2ad05a9c4" y="319.68"/>
      </g>
     </g>
     <g id="text_10">
      <!-- 0.5 -->
      <g transform="translate(38.860625 322.99125)scale(0.12 -0.12)">
       <use xlink:href="#BitstreamVeraSans-Roman-2212"/>
       <use x="83.7890625" xlink:href="#BitstreamVeraSans-Roman-30"/>
       <use x="147.412109375" xlink:href="#BitstreamVeraSans-Roman-2e"/>
       <use x="179.19921875" xlink:href="#BitstreamVeraSans-Roman-35"/>
      </g>
     </g>
    </g>
    <g id="ytick_3">
     <g id="line2d_31">
      <path clip-path="url(#p495e989224)" d="M 72 250.56 
L 518.4 250.56 
" style="fill:none;stroke:#000000;stroke-dasharray:1.000000,3.000000;stroke-dashoffset:0.0;stroke-width:0.5;"/>
     </g>
     <g id="line2d_32">
      <g>
       <use style="stroke:#000000;stroke-width:0.5;" x="72.0" xlink:href="#md1e7f43c5b" y="250.56"/>
      </g>
     </g>
     <g id="line2d_33">
      <g>
       <use style="stroke:#000000;stroke-width:0.5;" x="518.4" xlink:href="#mb2ad05a9c4" y="250.56"/>
      </g>
     </g>
     <g id="text_11">
      <!-- 0.0 -->
      <g transform="translate(48.91625 253.87125)scale(0.12 -0.12)">
       <use xlink:href="#BitstreamVeraSans-Roman-30"/>
       <use x="63.623046875" xlink:href="#BitstreamVeraSans-Roman-2e"/>
       <use x="95.41015625" xlink:href="#BitstreamVeraSans-Roman-30"/>
      </g>
     </g>
    </g>
    <g id="ytick_4">
     <g id="line2d_34">
      <path clip-path="url(#p495e989224)" d="M 72 181.44 
L 518.4 181.44 
" style="fill:none;stroke:#000000;stroke-dasharray:1.000000,3.000000;stroke-dashoffset:0.0;stroke-width:0.5;"/>
     </g>
     <g id="line2d_35">
      <g>
       <use style="stroke:#000000;stroke-width:0.5;" x="72.0" xlink:href="#md1e7f43c5b" y="181.44"/>
      </g>
     </g>
     <g id="line2d_36">
      <g>
       <use style="stroke:#000000;stroke-width:0.5;" x="518.4" xlink:href="#mb2ad05a9c4" y="181.44"/>
      </g>
     </g>
     <g id="text_12">
      <!-- 0.5 -->
      <g transform="translate(48.91625 184.75125)scale(0.12 -0.12)">
       <use xlink:href="#BitstreamVeraSans-Roman-30"/>
       <use x="63.623046875" xlink:href="#BitstreamVeraSans-Roman-2e"/>
       <use x="95.41015625" xlink:href="#BitstreamVeraSans-Roman-35"/>
      </g>
     </g>
    </g>
    <g id="ytick_5">
     <g id="line2d_37">
      <path clip-path="url(#p495e989224)" d="M 72 112.32 
L 518.4 112.32 
" style="fill:none;stroke:#000000;stroke-dasharray:1.000000,3.000000;stroke-dashoffset:0.0;stroke-width:0.5;"/>
     </g>
     <g id="line2d_38">
      <g>
       <use style="stroke:#000000;stroke-width:0.5;" x="72.0" xlink:href="#md1e7f43c5b" y="112.32"/>
      </g>
     </g>
     <g id="line2d_39">
      <g>
       <use style="stroke:#000000;stroke-width:0.5;" x="518.4" xlink:href="#mb2ad05a9c4" y="112.32"/>
      </g>
     </g>
     <g id="text_13">
      <!-- 1.0 -->
      <g transform="translate(48.91625 115.63125)scale(0.12 -0.12)">
       <use xlink:href="#BitstreamVeraSans-Roman-31"/>
       <use x="63.623046875" xlink:href="#BitstreamVeraSans-Roman-2e"/>
       <use x="95.41015625" xlink:href="#BitstreamVeraSans-Roman-30"/>
      </g>
     </g>
    </g>
    <g id="ytick_6">
     <g id="line2d_40">
      <path clip-path="url(#p495e989224)" d="M 72 43.2 
L 518.4 43.2 
" style="fill:none;stroke:#000000;stroke-dasharray:1.000000,3.000000;stroke-dashoffset:0.0;stroke-width:0.5;"/>
     </g>
     <g id="line2d_41">
      <g>
       <use style="stroke:#000000;stroke-width:0.5;" x="72.0" xlink:href="#md1e7f43c5b" y="43.2"/>
      </g>
     </g>
     <g id="line2d_42">
      <g>
       <use style="stroke:#000000;stroke-width:0.5;" x="518.4" xlink:href="#mb2ad05a9c4" y="43.2"/>
      </g>
     </g>
     <g id="text_14">
      <!-- 1.5 -->
      <g transform="translate(48.91625 46.51125)scale(0.12 -0.12)">
       <use xlink:href="#BitstreamVeraSans-Roman-31"/>
       <use x="63.623046875" xlink:href="#BitstreamVeraSans-Roman-2e"/>
       <use x="95.41015625" xlink:href="#BitstreamVeraSans-Roman-35"/>
      </g>
     </g>
    </g>
    <g id="text_15">
     <!-- Acceleration [m/s^2] -->
     <defs>
      <path d="M 46.6875 72.90625 
L 73.1875 45.703125 
L 63.375 45.703125 
L 41.890625 64.984375 
L 20.40625 45.703125 
L 10.59375 45.703125 
L 37.109375 72.90625 
z
" id="BitstreamVeraSans-Roman-5e"/>
      <path d="M 54.890625 33.015625 
L 54.890625 0 
L 45.90625 0 
L 45.90625 32.71875 
Q 45.90625 40.484375 42.875 44.328125 
Q 39.84375 48.1875 33.796875 48.1875 
Q 26.515625 48.1875 22.3125 43.546875 
Q 18.109375 38.921875 18.109375 30.90625 
L 18.109375 0 
L 9.078125 0 
L 9.078125 54.6875 
L 18.109375 54.6875 
L 18.109375 46.1875 
Q 21.34375 51.125 25.703125 53.5625 
Q 30.078125 56 35.796875 56 
Q 45.21875 56 50.046875 50.171875 
Q 54.890625 44.34375 54.890625 33.015625 
" id="BitstreamVeraSans-Roman-6e"/>
      <path d="M 41.109375 46.296875 
Q 39.59375 47.171875 37.8125 47.578125 
Q 36.03125 48 33.890625 48 
Q 26.265625 48 22.1875 43.046875 
Q 18.109375 38.09375 18.109375 28.8125 
L 18.109375 0 
L 9.078125 0 
L 9.078125 54.6875 
L 18.109375 54.6875 
L 18.109375 46.1875 
Q 20.953125 51.171875 25.484375 53.578125 
Q 30.03125 56 36.53125 56 
Q 37.453125 56 38.578125 55.875 
Q 39.703125 55.765625 41.0625 55.515625 
z
" id="BitstreamVeraSans-Roman-72"/>
      <path d="M 30.609375 48.390625 
Q 23.390625 48.390625 19.1875 42.75 
Q 14.984375 37.109375 14.984375 27.296875 
Q 14.984375 17.484375 19.15625 11.84375 
Q 23.34375 6.203125 30.609375 6.203125 
Q 37.796875 6.203125 41.984375 11.859375 
Q 46.1875 17.53125 46.1875 27.296875 
Q 46.1875 37.015625 41.984375 42.703125 
Q 37.796875 48.390625 30.609375 48.390625 
M 30.609375 56 
Q 42.328125 56 49.015625 48.375 
Q 55.71875 40.765625 55.71875 27.296875 
Q 55.71875 13.875 49.015625 6.21875 
Q 42.328125 -1.421875 30.609375 -1.421875 
Q 18.84375 -1.421875 12.171875 6.21875 
Q 5.515625 13.875 5.515625 27.296875 
Q 5.515625 40.765625 12.171875 48.375 
Q 18.84375 56 30.609375 56 
" id="BitstreamVeraSans-Roman-6f"/>
      <path d="M 9.421875 75.984375 
L 18.40625 75.984375 
L 18.40625 0 
L 9.421875 0 
z
" id="BitstreamVeraSans-Roman-6c"/>
      <path d="M 34.1875 63.1875 
L 20.796875 26.90625 
L 47.609375 26.90625 
z
M 28.609375 72.90625 
L 39.796875 72.90625 
L 67.578125 0 
L 57.328125 0 
L 50.6875 18.703125 
L 17.828125 18.703125 
L 11.1875 0 
L 0.78125 0 
z
" id="BitstreamVeraSans-Roman-41"/>
      <path d="M 25.390625 72.90625 
L 33.6875 72.90625 
L 8.296875 -9.28125 
L 0 -9.28125 
z
" id="BitstreamVeraSans-Roman-2f"/>
      <path d="M 18.3125 70.21875 
L 18.3125 54.6875 
L 36.8125 54.6875 
L 36.8125 47.703125 
L 18.3125 47.703125 
L 18.3125 18.015625 
Q 18.3125 11.328125 20.140625 9.421875 
Q 21.96875 7.515625 27.59375 7.515625 
L 36.8125 7.515625 
L 36.8125 0 
L 27.59375 0 
Q 17.1875 0 13.234375 3.875 
Q 9.28125 7.765625 9.28125 18.015625 
L 9.28125 47.703125 
L 2.6875 47.703125 
L 2.6875 54.6875 
L 9.28125 54.6875 
L 9.28125 70.21875 
z
" id="BitstreamVeraSans-Roman-74"/>
      <path d="M 34.28125 27.484375 
Q 23.390625 27.484375 19.1875 25 
Q 14.984375 22.515625 14.984375 16.5 
Q 14.984375 11.71875 18.140625 8.90625 
Q 21.296875 6.109375 26.703125 6.109375 
Q 34.1875 6.109375 38.703125 11.40625 
Q 43.21875 16.703125 43.21875 25.484375 
L 43.21875 27.484375 
z
M 52.203125 31.203125 
L 52.203125 0 
L 43.21875 0 
L 43.21875 8.296875 
Q 40.140625 3.328125 35.546875 0.953125 
Q 30.953125 -1.421875 24.3125 -1.421875 
Q 15.921875 -1.421875 10.953125 3.296875 
Q 6 8.015625 6 15.921875 
Q 6 25.140625 12.171875 29.828125 
Q 18.359375 34.515625 30.609375 34.515625 
L 43.21875 34.515625 
L 43.21875 35.40625 
Q 43.21875 41.609375 39.140625 45 
Q 35.0625 48.390625 27.6875 48.390625 
Q 23 48.390625 18.546875 47.265625 
Q 14.109375 46.140625 10.015625 43.890625 
L 10.015625 52.203125 
Q 14.9375 54.109375 19.578125 55.046875 
Q 24.21875 56 28.609375 56 
Q 40.484375 56 46.34375 49.84375 
Q 52.203125 43.703125 52.203125 31.203125 
" id="BitstreamVeraSans-Roman-61"/>
      <path d="M 48.78125 52.59375 
L 48.78125 44.1875 
Q 44.96875 46.296875 41.140625 47.34375 
Q 37.3125 48.390625 33.40625 48.390625 
Q 24.65625 48.390625 19.8125 42.84375 
Q 14.984375 37.3125 14.984375 27.296875 
Q 14.984375 17.28125 19.8125 11.734375 
Q 24.65625 6.203125 33.40625 6.203125 
Q 37.3125 6.203125 41.140625 7.25 
Q 44.96875 8.296875 48.78125 10.40625 
L 48.78125 2.09375 
Q 45.015625 0.34375 40.984375 -0.53125 
Q 36.96875 -1.421875 32.421875 -1.421875 
Q 20.0625 -1.421875 12.78125 6.34375 
Q 5.515625 14.109375 5.515625 27.296875 
Q 5.515625 40.671875 12.859375 48.328125 
Q 20.21875 56 33.015625 56 
Q 37.15625 56 41.109375 55.140625 
Q 45.0625 54.296875 48.78125 52.59375 
" id="BitstreamVeraSans-Roman-63"/>
     </defs>
     <g transform="translate(31.365 279.81375)rotate(-90.0)scale(0.12 -0.12)">
      <use xlink:href="#BitstreamVeraSans-Roman-41"/>
      <use x="68.392578125" xlink:href="#BitstreamVeraSans-Roman-63"/>
      <use x="123.373046875" xlink:href="#BitstreamVeraSans-Roman-63"/>
      <use x="178.353515625" xlink:href="#BitstreamVeraSans-Roman-65"/>
      <use x="239.876953125" xlink:href="#BitstreamVeraSans-Roman-6c"/>
      <use x="267.66015625" xlink:href="#BitstreamVeraSans-Roman-65"/>
      <use x="329.18359375" xlink:href="#BitstreamVeraSans-Roman-72"/>
      <use x="370.296875" xlink:href="#BitstreamVeraSans-Roman-61"/>
      <use x="431.576171875" xlink:href="#BitstreamVeraSans-Roman-74"/>
      <use x="470.78515625" xlink:href="#BitstreamVeraSans-Roman-69"/>
      <use x="498.568359375" xlink:href="#BitstreamVeraSans-Roman-6f"/>
      <use x="559.75" xlink:href="#BitstreamVeraSans-Roman-6e"/>
      <use x="623.12890625" xlink:href="#BitstreamVeraSans-Roman-20"/>
      <use x="654.916015625" xlink:href="#BitstreamVeraSans-Roman-5b"/>
      <use x="693.9296875" xlink:href="#BitstreamVeraSans-Roman-6d"/>
      <use x="791.341796875" xlink:href="#BitstreamVeraSans-Roman-2f"/>
      <use x="825.033203125" xlink:href="#BitstreamVeraSans-Roman-73"/>
      <use x="877.1328125" xlink:href="#BitstreamVeraSans-Roman-5e"/>
      <use x="960.921875" xlink:href="#BitstreamVeraSans-Roman-32"/>
      <use x="1024.54492188" xlink:href="#BitstreamVeraSans-Roman-5d"/>
     </g>
    </g>
   </g>
   <g id="legend_1">
    <g id="patch_7">
     <path d="M 250.5195 118.1295 
L 339.8805 118.1295 
L 339.8805 50.4 
L 250.5195 50.4 
z
" style="fill:#ffffff;stroke:#000000;stroke-linejoin:miter;"/>
    </g>
    <g id="line2d_43">
     <path d="M 260.5995 62.06175 
L 280.7595 62.06175 
" style="fill:none;stroke:#008000;stroke-linecap:square;"/>
    </g>
    <g id="line2d_44"/>
    <g id="text_16">
     <!-- accel -->
     <g transform="translate(296.5995 67.10175)scale(0.144 -0.144)">
      <use xlink:href="#BitstreamVeraSans-Roman-61"/>
      <use x="61.279296875" xlink:href="#BitstreamVeraSans-Roman-63"/>
      <use x="116.259765625" xlink:href="#BitstreamVeraSans-Roman-63"/>
      <use x="171.240234375" xlink:href="#BitstreamVeraSans-Roman-65"/>
      <use x="232.763671875" xlink:href="#BitstreamVeraSans-Roman-6c"/>
     </g>
    </g>
    <g id="line2d_45">
     <path d="M 260.5995 83.19825 
L 280.7595 83.19825 
" style="fill:none;stroke:#000000;stroke-dasharray:6.000000,6.000000;stroke-dashoffset:0.0;"/>
    </g>
    <g id="line2d_46"/>
    <g id="text_17">
     <!-- max -->
     <defs>
      <path d="M 54.890625 54.6875 
L 35.109375 28.078125 
L 55.90625 0 
L 45.3125 0 
L 29.390625 21.484375 
L 13.484375 0 
L 2.875 0 
L 24.125 28.609375 
L 4.6875 54.6875 
L 15.28125 54.6875 
L 29.78125 35.203125 
L 44.28125 54.6875 
z
" id="BitstreamVeraSans-Roman-78"/>
     </defs>
     <g transform="translate(296.5995 88.23825)scale(0.144 -0.144)">
      <use xlink:href="#BitstreamVeraSans-Roman-6d"/>
      <use x="97.412109375" xlink:href="#BitstreamVeraSans-Roman-61"/>
      <use x="158.69140625" xlink:href="#BitstreamVeraSans-Roman-78"/>
     </g>
    </g>
    <g id="line2d_47">
     <path d="M 260.5995 104.33475 
L 280.7595 104.33475 
" style="fill:none;stroke:#000000;stroke-dasharray:6.000000,6.000000;stroke-dashoffset:0.0;"/>
    </g>
    <g id="line2d_48"/>
    <g id="text_18">
     <!-- min -->
     <g transform="translate(296.5995 109.37475)scale(0.144 -0.144)">
      <use xlink:href="#BitstreamVeraSans-Roman-6d"/>
      <use x="97.412109375" xlink:href="#BitstreamVeraSans-Roman-69"/>
      <use x="125.1953125" xlink:href="#BitstreamVeraSans-Roman-6e"/>
     </g>
    </g>
   </g>
  </g>
 </g>
 <defs>
  <clipPath id="p495e989224">
   <rect height="345.6" width="446.4" x="72.0" y="43.2"/>
  </clipPath>
 </defs>
</svg>
