<?xml version="1.0" encoding="utf-8" standalone="no"?>
<!DOCTYPE svg PUBLIC "-//W3C//DTD SVG 1.1//EN"
  "http://www.w3.org/Graphics/SVG/1.1/DTD/svg11.dtd">
<!-- Created with matplotlib (http://matplotlib.org/) -->
<svg height="432pt" version="1.1" viewBox="0 0 576 432" width="576pt" xmlns="http://www.w3.org/2000/svg" xmlns:xlink="http://www.w3.org/1999/xlink">
 <defs>
  <style type="text/css">
*{stroke-linecap:butt;stroke-linejoin:round;stroke-miterlimit:100000;}
  </style>
 </defs>
 <g id="figure_1">
  <g id="patch_1">
   <path d="M 0 432 
L 576 432 
L 576 0 
L 0 0 
z
" style="fill:#ffffff;"/>
  </g>
  <g id="axes_1">
   <g id="patch_2">
    <path d="M 72 388.8 
L 518.4 388.8 
L 518.4 43.2 
L 72 43.2 
z
" style="fill:#ffffff;"/>
   </g>
   <g id="line2d_1">
    <path clip-path="url(#pf51369d538)" d="M 72.1488 388.8 
L 102.2064 388.8 
L 102.3552 388.297111 
L 102.504 388.297111 
L 102.6528 387.807285 
L 102.8016 387.807285 
L 102.9504 386.827632 
L 103.0992 386.827632 
L 103.248 385.847979 
L 103.3968 385.847979 
L 103.5456 384.868327 
L 103.6944 384.868327 
L 103.8432 383.888674 
L 103.992 383.888674 
L 104.1408 382.909021 
L 104.2896 382.909021 
L 104.4384 381.929368 
L 104.5872 381.929368 
L 104.736 380.949715 
L 104.8848 380.949715 
L 105.0336 379.970062 
L 105.1824 379.970062 
L 105.3312 379.480236 
L 105.48 379.480236 
L 105.6288 378.500583 
L 105.7776 378.500583 
L 105.9264 378.010757 
L 106.0752 378.010757 
L 106.224 377.031104 
L 106.3728 377.031104 
L 106.5216 376.051451 
L 106.6704 376.051451 
L 106.8192 375.561625 
L 106.968 375.561625 
L 107.1168 375.071798 
L 107.2656 375.071798 
L 107.4144 374.092146 
L 107.5632 374.092146 
L 107.712 373.112493 
L 107.8608 373.112493 
L 108.0096 372.622666 
L 108.3072 372.622666 
L 108.456 372.13284 
L 108.6048 371.153187 
L 108.7536 371.153187 
L 108.9024 370.663361 
L 109.0512 370.663361 
L 109.2 369.683708 
L 109.3488 369.683708 
L 109.4976 368.704055 
L 109.6464 368.704055 
L 109.7952 368.214229 
L 109.944 368.214229 
L 110.0928 367.724402 
L 110.2416 367.724402 
L 110.3904 366.744749 
L 110.5392 366.744749 
L 110.688 366.254923 
L 110.8368 366.254923 
L 110.9856 365.765097 
L 111.1344 365.765097 
L 111.2832 365.27527 
L 111.432 365.27527 
L 111.5808 364.785444 
L 111.7296 364.785444 
L 111.8784 364.295617 
L 112.0272 364.295617 
L 112.176 363.805791 
L 112.3248 363.805791 
L 112.4736 363.315965 
L 112.6224 363.315965 
L 112.7712 362.336312 
L 112.92 362.336312 
L 113.0688 361.846485 
L 113.2176 361.846485 
L 113.3664 360.866832 
L 113.5152 360.866832 
L 113.664 360.377006 
L 113.8128 360.377006 
L 113.9616 359.88718 
L 114.408 359.88718 
L 114.5568 359.397353 
L 114.7056 359.397353 
L 114.8544 358.4177 
L 115.0032 358.4177 
L 115.152 357.927874 
L 115.3008 357.927874 
L 115.4496 356.948221 
L 115.896 356.948221 
L 116.0448 356.458395 
L 116.1936 356.458395 
L 116.3424 355.968568 
L 116.4912 355.968568 
L 116.64 354.988916 
L 116.7888 354.988916 
L 116.9376 354.499089 
L 117.384 354.499089 
L 117.5328 354.009263 
L 117.6816 354.009263 
L 117.8304 353.02961 
L 118.2768 353.02961 
L 118.4256 352.539784 
L 118.5744 352.539784 
L 118.7232 352.049957 
L 118.872 352.049957 
L 119.0208 351.560131 
L 119.1696 351.560131 
L 119.3184 351.070304 
L 119.4672 351.070304 
L 119.616 350.580478 
L 119.7648 350.580478 
L 119.9136 349.600825 
L 120.6576 349.600825 
L 120.8064 349.110999 
L 120.9552 349.110999 
L 121.104 348.621172 
L 121.5504 348.621172 
L 121.6992 348.131346 
L 121.848 348.131346 
L 121.9968 347.641519 
L 122.1456 347.641519 
L 122.2944 347.151693 
L 122.7408 347.151693 
L 122.8896 346.17204 
L 123.336 346.17204 
L 123.4848 345.682214 
L 123.6336 345.682214 
L 123.7824 345.192387 
L 124.2288 345.192387 
L 124.3776 344.702561 
L 125.1216 344.702561 
L 125.2704 344.212735 
L 125.4192 344.212735 
L 125.568 343.722908 
L 126.312 343.722908 
L 126.4608 343.233082 
L 126.6096 343.233082 
L 126.7584 343.722908 
L 126.9072 343.722908 
L 127.056 343.233082 
L 128.0976 343.233082 
L 128.2464 342.743255 
L 128.6928 342.743255 
L 128.8416 342.253429 
L 128.9904 342.253429 
L 129.1392 341.763603 
L 129.288 341.763603 
L 129.4368 342.253429 
L 129.8832 342.253429 
L 130.032 341.763603 
L 130.4784 341.763603 
L 130.6272 341.273776 
L 130.776 341.273776 
L 130.9248 340.78395 
L 131.9664 340.78395 
L 132.1152 340.294123 
L 133.752 340.294123 
L 133.9008 339.804297 
L 134.3472 339.804297 
L 134.496 340.294123 
L 134.6448 340.294123 
L 134.7936 339.804297 
L 134.9424 339.804297 
L 135.0912 339.31447 
L 135.24 339.31447 
L 135.3888 339.804297 
L 135.5376 339.804297 
L 135.6864 339.31447 
L 136.4304 339.31447 
L 136.5792 339.804297 
L 137.0256 339.804297 
L 137.1744 339.31447 
L 137.3232 339.31447 
L 137.472 338.824644 
L 138.8112 338.824644 
L 138.96 338.334818 
L 139.1088 338.334818 
L 139.2576 338.824644 
L 140.5968 338.824644 
L 140.7456 338.334818 
L 141.192 338.334818 
L 141.3408 337.844991 
L 142.68 337.844991 
L 142.8288 338.334818 
L 142.9776 338.334818 
L 143.1264 337.844991 
L 143.2752 337.844991 
L 143.424 338.334818 
L 143.5728 338.334818 
L 143.7216 337.844991 
L 144.168 337.844991 
L 144.3168 338.334818 
L 145.0608 338.334818 
L 145.2096 337.844991 
L 145.656 337.844991 
L 145.8048 337.355165 
L 145.9536 337.355165 
L 146.1024 337.844991 
L 146.2512 337.844991 
L 146.4 337.355165 
L 148.3344 337.355165 
L 148.4832 337.844991 
L 148.632 337.844991 
L 148.7808 336.865338 
L 148.9296 336.865338 
L 149.0784 337.844991 
L 149.2272 337.844991 
L 149.376 336.865338 
L 150.12 336.865338 
L 150.2688 337.355165 
L 151.9056 337.355165 
L 152.0544 336.865338 
L 157.4112 336.865338 
L 157.56 335.885686 
L 158.6016 335.885686 
L 158.7504 334.906033 
L 159.1968 334.906033 
L 159.4944 333.92638 
L 160.0896 333.92638 
L 160.2384 333.436554 
L 160.536 333.436554 
L 160.8336 332.456901 
L 161.4288 332.456901 
L 161.5776 331.967074 
L 161.7264 332.456901 
L 161.8752 332.456901 
L 162.024 331.477248 
L 162.1728 331.967074 
L 162.3216 331.967074 
L 162.4704 331.477248 
L 163.512 331.477248 
L 163.6608 331.967074 
L 163.9584 331.967074 
L 164.1072 332.456901 
L 165.1488 332.456901 
L 165.2976 332.946727 
L 165.8928 332.946727 
L 166.0416 333.436554 
L 166.1904 332.946727 
L 167.3808 332.946727 
L 167.5296 333.436554 
L 167.8272 333.436554 
L 167.976 333.92638 
L 168.1248 333.92638 
L 168.2736 334.416206 
L 168.72 334.416206 
L 168.8688 334.906033 
L 169.464 334.906033 
L 169.6128 335.395859 
L 170.8032 335.395859 
L 170.952 336.375512 
L 171.1008 335.885686 
L 171.3984 335.885686 
L 171.5472 335.395859 
L 171.8448 335.395859 
L 172.1424 334.416206 
L 172.44 334.416206 
L 172.5888 334.906033 
L 172.8864 334.906033 
L 173.0352 335.395859 
L 173.6304 335.395859 
L 173.7792 335.885686 
L 174.3744 335.885686 
L 174.5232 336.375512 
L 175.7136 336.375512 
L 175.8624 335.885686 
L 178.6896 335.885686 
L 178.9872 334.906033 
L 179.136 334.906033 
L 179.2848 335.395859 
L 179.4336 334.906033 
L 181.6656 334.906033 
L 181.8144 335.395859 
L 183.4512 335.395859 
L 183.6 335.885686 
L 184.6416 335.885686 
L 184.7904 336.375512 
L 185.2368 336.375512 
L 185.3856 335.885686 
L 185.6832 335.885686 
L 185.9808 334.906033 
L 186.2784 334.906033 
L 186.4272 334.416206 
L 190.4448 334.416206 
L 190.5936 334.906033 
L 190.7424 334.906033 
L 190.8912 335.885686 
L 191.04 335.885686 
L 191.1888 337.355165 
L 191.4864 337.355165 
L 191.784 338.824644 
L 191.9328 338.824644 
L 192.0816 339.804297 
L 192.2304 339.804297 
L 192.3792 340.78395 
L 192.528 340.78395 
L 192.6768 341.763603 
L 192.8256 341.763603 
L 192.9744 342.253429 
L 193.1232 342.253429 
L 193.272 343.233082 
L 193.4208 343.233082 
L 193.5696 344.212735 
L 193.7184 344.212735 
L 193.8672 345.192387 
L 194.016 345.192387 
L 194.1648 346.17204 
L 194.3136 346.17204 
L 194.4624 346.661867 
L 194.6112 346.661867 
L 194.76 347.641519 
L 194.9088 347.641519 
L 195.0576 348.621172 
L 195.2064 348.621172 
L 195.3552 349.600825 
L 195.6528 349.600825 
L 195.8016 350.580478 
L 195.9504 350.580478 
L 196.0992 351.560131 
L 196.248 351.560131 
L 196.3968 352.049957 
L 196.5456 352.049957 
L 196.6944 353.02961 
L 196.8432 353.02961 
L 196.992 354.009263 
L 197.1408 354.009263 
L 197.2896 354.499089 
L 197.4384 354.499089 
L 197.5872 355.478742 
L 197.8848 355.478742 
L 198.0336 356.458395 
L 198.1824 356.458395 
L 198.3312 356.948221 
L 198.48 356.948221 
L 198.6288 357.927874 
L 198.7776 357.927874 
L 198.9264 358.907527 
L 199.224 358.907527 
L 199.3728 359.397353 
L 199.5216 359.397353 
L 199.6704 360.377006 
L 199.8192 360.377006 
L 199.968 360.866832 
L 200.1168 360.866832 
L 200.2656 361.846485 
L 200.4144 361.846485 
L 200.5632 362.826138 
L 200.8608 362.826138 
L 201.0096 363.315965 
L 201.1584 363.315965 
L 201.3072 363.805791 
L 201.456 363.805791 
L 201.6048 364.785444 
L 201.9024 364.785444 
L 202.0512 365.27527 
L 202.2 365.27527 
L 202.3488 366.254923 
L 202.4976 366.254923 
L 202.6464 366.744749 
L 202.7952 366.744749 
L 202.944 367.234576 
L 203.2416 367.234576 
L 203.3904 368.214229 
L 203.5392 368.214229 
L 203.688 368.704055 
L 203.8368 368.704055 
L 203.9856 369.193881 
L 204.1344 369.193881 
L 204.2832 370.173534 
L 204.5808 370.173534 
L 204.7296 370.663361 
L 204.8784 370.663361 
L 205.0272 371.153187 
L 205.176 371.153187 
L 205.3248 371.643013 
L 205.4736 371.643013 
L 205.6224 372.622666 
L 205.92 372.622666 
L 206.0688 373.112493 
L 206.2176 373.112493 
L 206.3664 373.602319 
L 206.5152 373.602319 
L 206.664 374.092146 
L 206.9616 374.092146 
L 207.1104 375.071798 
L 207.2592 375.071798 
L 207.408 375.561625 
L 207.5568 375.561625 
L 207.7056 376.051451 
L 207.8544 376.051451 
L 208.0032 376.541278 
L 208.152 376.541278 
L 208.3008 377.031104 
L 208.5984 377.031104 
L 208.7472 377.52093 
L 208.896 377.52093 
L 209.0448 378.010757 
L 209.1936 378.010757 
L 209.3424 378.500583 
L 209.4912 378.500583 
L 209.64 378.99041 
L 209.9376 378.99041 
L 210.0864 379.480236 
L 210.2352 379.480236 
L 210.384 379.970062 
L 210.5328 379.970062 
L 210.6816 380.459889 
L 210.8304 380.459889 
L 210.9792 381.439542 
L 211.128 381.439542 
L 211.2768 382.909021 
L 211.4256 382.909021 
L 211.5744 384.3785 
L 211.7232 384.3785 
L 211.872 385.847979 
L 212.0208 385.847979 
L 212.1696 387.317459 
L 212.3184 387.317459 
L 212.4672 388.297111 
L 212.616 388.297111 
L 212.7648 388.8 
L 518.4 388.8 
L 518.4 388.8 
" style="fill:none;stroke:#008000;stroke-linecap:square;"/>
   </g>
   <g id="line2d_2">
    <path clip-path="url(#pf51369d538)" d="M 72.1488 388.8 
L 224.2224 388.8 
L 224.3712 384.942859 
L 224.52 384.942859 
L 224.6688 375.300007 
L 224.8176 375.300007 
L 224.9664 365.657155 
L 225.1152 365.657155 
L 225.264 356.014303 
L 225.4128 356.014303 
L 225.5616 344.44288 
L 225.7104 344.44288 
L 225.8592 334.800028 
L 226.008 334.800028 
L 226.1568 325.157175 
L 226.3056 325.157175 
L 226.4544 315.514323 
L 226.6032 315.514323 
L 226.752 305.871471 
L 226.9008 305.871471 
L 227.0496 296.228619 
L 227.1984 296.228619 
L 227.3472 286.585767 
L 227.496 286.585767 
L 227.6448 276.942914 
L 227.7936 276.942914 
L 227.9424 265.371492 
L 228.0912 265.371492 
L 228.24 263.442921 
L 237.3168 263.442921 
L 237.4656 265.371492 
L 238.5072 265.371492 
L 238.656 267.300062 
L 239.6976 267.300062 
L 239.8464 269.228633 
L 240.5904 269.228633 
L 240.7392 271.157203 
L 242.0784 271.157203 
L 242.2272 273.085774 
L 243.5664 273.085774 
L 243.7152 275.014344 
L 244.1616 275.014344 
L 244.3104 276.942914 
L 246.2448 276.942914 
L 246.3936 278.871485 
L 246.84 278.871485 
L 246.9888 280.800055 
L 248.328 280.800055 
L 248.4768 282.728626 
L 249.5184 282.728626 
L 249.6672 284.657196 
L 251.304 284.657196 
L 251.4528 286.585767 
L 252.792 286.585767 
L 252.9408 288.514337 
L 253.9824 288.514337 
L 254.1312 290.442908 
L 255.1728 290.442908 
L 255.3216 292.371478 
L 256.3632 292.371478 
L 256.512 294.300048 
L 257.256 294.300048 
L 257.4048 296.228619 
L 259.3392 296.228619 
L 259.488 298.157189 
L 260.8272 298.157189 
L 260.976 300.08576 
L 261.4224 300.08576 
L 261.5712 302.01433 
L 263.5056 302.01433 
L 263.6544 303.942901 
L 264.696 303.942901 
L 264.8448 305.871471 
L 265.8864 305.871471 
L 266.0352 307.800041 
L 267.3744 307.800041 
L 267.5232 388.8 
L 285.2304 388.8 
L 285.3792 384.942859 
L 285.528 384.942859 
L 285.6768 375.300007 
L 285.8256 375.300007 
L 285.9744 365.657155 
L 286.1232 365.657155 
L 286.272 356.014303 
L 286.4208 356.014303 
L 286.5696 344.44288 
L 286.7184 344.44288 
L 286.8672 334.800028 
L 287.016 334.800028 
L 287.3136 315.514323 
L 287.4624 315.514323 
L 287.6112 305.871471 
L 287.76 305.871471 
L 287.9088 296.228619 
L 288.0576 296.228619 
L 288.2064 286.585767 
L 288.3552 286.585767 
L 288.504 276.942914 
L 288.6528 276.942914 
L 288.8016 267.300062 
L 294.1584 267.300062 
L 294.3072 269.228633 
L 294.9024 269.228633 
L 295.0512 271.157203 
L 295.6464 271.157203 
L 295.7952 273.085774 
L 295.944 273.085774 
L 296.0928 275.014344 
L 296.9856 275.014344 
L 297.1344 276.942914 
L 297.2832 276.942914 
L 297.432 278.871485 
L 298.0272 278.871485 
L 298.176 280.800055 
L 298.4736 280.800055 
L 298.6224 282.728626 
L 298.92 282.728626 
L 299.0688 284.657196 
L 300.1104 284.657196 
L 300.2592 286.585767 
L 300.8544 286.585767 
L 301.0032 288.514337 
L 301.152 288.514337 
L 301.3008 290.442908 
L 301.7472 290.442908 
L 301.896 292.371478 
L 302.9376 292.371478 
L 303.0864 294.300048 
L 303.6816 294.300048 
L 303.8304 296.228619 
L 304.872 296.228619 
L 305.0208 298.157189 
L 305.616 298.157189 
L 305.7648 300.08576 
L 306.5088 300.08576 
L 306.6576 302.01433 
L 307.2528 302.01433 
L 307.4016 303.942901 
L 308.2944 303.942901 
L 308.4432 305.871471 
L 309.336 305.871471 
L 309.4848 307.800041 
L 314.8416 307.800041 
L 314.9904 388.8 
L 341.7744 388.8 
L 341.9232 379.157148 
L 342.072 379.157148 
L 342.2208 369.514296 
L 342.5184 369.514296 
L 342.6672 359.871443 
L 342.816 359.871443 
L 342.9648 350.228591 
L 343.2624 350.228591 
L 343.4112 340.585739 
L 343.56 340.585739 
L 343.7088 330.942887 
L 343.8576 330.942887 
L 344.0064 321.300035 
L 344.304 321.300035 
L 344.4528 311.657182 
L 344.6016 311.657182 
L 344.7504 300.08576 
L 344.8992 300.08576 
L 345.048 290.442908 
L 345.3456 290.442908 
L 345.4944 280.800055 
L 345.6432 280.800055 
L 345.792 271.157203 
L 345.9408 271.157203 
L 346.0896 269.228633 
L 347.4288 269.228633 
L 347.5776 271.157203 
L 347.8752 271.157203 
L 348.024 273.085774 
L 348.4704 273.085774 
L 348.6192 275.014344 
L 348.9168 275.014344 
L 349.0656 276.942914 
L 349.512 276.942914 
L 349.6608 278.871485 
L 350.1072 278.871485 
L 350.256 280.800055 
L 350.7024 280.800055 
L 350.8512 282.728626 
L 351.2976 282.728626 
L 351.4464 284.657196 
L 351.5952 284.657196 
L 351.744 286.585767 
L 352.3392 286.585767 
L 352.488 288.514337 
L 352.6368 288.514337 
L 352.7856 290.442908 
L 353.5296 290.442908 
L 353.6784 292.371478 
L 354.1248 292.371478 
L 354.2736 294.300048 
L 354.72 294.300048 
L 354.8688 296.228619 
L 355.1664 296.228619 
L 355.3152 298.157189 
L 355.7616 298.157189 
L 355.9104 300.08576 
L 356.208 300.08576 
L 356.3568 302.01433 
L 357.1008 302.01433 
L 357.2496 303.942901 
L 363.4992 303.942901 
L 363.648 305.871471 
L 365.88 305.871471 
L 366.0288 307.800041 
L 367.9632 307.800041 
L 368.112 388.8 
L 410.52 388.8 
L 410.6688 384.942859 
L 410.8176 384.942859 
L 410.9664 375.300007 
L 411.1152 375.300007 
L 411.264 365.657155 
L 411.4128 365.657155 
L 411.5616 356.014303 
L 411.7104 356.014303 
L 411.8592 344.44288 
L 412.008 344.44288 
L 412.1568 334.800028 
L 412.3056 334.800028 
L 412.4544 325.157175 
L 412.6032 325.157175 
L 412.752 315.514323 
L 412.9008 315.514323 
L 413.0496 305.871471 
L 413.1984 305.871471 
L 413.3472 296.228619 
L 413.496 296.228619 
L 413.6448 286.585767 
L 413.7936 286.585767 
L 413.9424 276.942914 
L 414.0912 276.942914 
L 414.24 267.300062 
L 415.8768 267.300062 
L 416.0256 269.228633 
L 416.1744 269.228633 
L 416.3232 271.157203 
L 416.7696 271.157203 
L 416.9184 273.085774 
L 417.6624 273.085774 
L 417.8112 275.014344 
L 417.96 275.014344 
L 418.1088 276.942914 
L 418.5552 276.942914 
L 418.704 278.871485 
L 419.1504 278.871485 
L 419.2992 280.800055 
L 419.448 280.800055 
L 419.5968 282.728626 
L 420.0432 282.728626 
L 420.192 284.657196 
L 422.424 284.657196 
L 422.5728 282.728626 
L 422.7216 282.728626 
L 422.8704 280.800055 
L 423.0192 280.800055 
L 423.168 278.871485 
L 423.3168 278.871485 
L 423.4656 276.942914 
L 423.6144 276.942914 
L 423.7632 275.014344 
L 423.912 275.014344 
L 424.0608 273.085774 
L 424.2096 273.085774 
L 424.5072 269.228633 
L 424.656 269.228633 
L 424.8048 267.300062 
L 424.9536 267.300062 
L 425.1024 265.371492 
L 425.2512 265.371492 
L 425.4 263.442921 
L 425.6976 263.442921 
L 425.9952 259.58578 
L 426.4416 259.58578 
L 426.5904 257.65721 
L 426.7392 257.65721 
L 426.888 255.72864 
L 428.2272 255.72864 
L 428.376 253.800069 
L 428.5248 253.800069 
L 428.6736 251.871499 
L 429.2688 251.871499 
L 429.4176 249.942928 
L 429.864 249.942928 
L 430.0128 248.014358 
L 430.1616 248.014358 
L 430.4592 244.157217 
L 430.7568 244.157217 
L 430.9056 242.228646 
L 431.0544 242.228646 
L 431.2032 240.300076 
L 432.2448 240.300076 
L 432.3936 238.371506 
L 433.4352 238.371506 
L 433.584 236.442935 
L 434.4768 236.442935 
L 434.6256 234.514365 
L 434.7744 234.514365 
L 434.9232 232.585794 
L 436.8576 232.585794 
L 437.0064 230.657224 
L 459.1776 230.657224 
L 459.3264 226.800083 
L 462.4512 226.800083 
L 462.6 224.871513 
L 463.9392 224.871513 
L 464.088 222.942942 
L 464.6832 222.942942 
L 464.832 221.014372 
L 467.5104 221.014372 
L 467.6592 219.085801 
L 468.7008 219.085801 
L 468.8496 217.157231 
L 469.8912 217.157231 
L 470.04 215.22866 
L 472.8672 215.22866 
L 473.016 213.30009 
L 474.0576 213.30009 
L 474.2064 211.371519 
L 477.3312 211.371519 
L 477.48 209.442949 
L 477.6288 209.442949 
L 477.7776 207.514379 
L 480.9024 207.514379 
L 481.0512 205.585808 
L 482.8368 205.585808 
L 482.9856 203.657238 
L 483.1344 203.657238 
L 483.2832 201.728667 
L 483.432 201.728667 
L 483.5808 199.800097 
L 483.7296 199.800097 
L 483.8784 195.942956 
L 484.0272 195.942956 
L 484.176 194.014385 
L 484.3248 194.014385 
L 484.4736 192.085815 
L 484.6224 192.085815 
L 484.7712 190.157245 
L 484.92 190.157245 
L 485.0688 188.228674 
L 485.2176 188.228674 
L 485.3664 186.300104 
L 485.5152 186.300104 
L 485.664 184.371533 
L 485.8128 184.371533 
L 485.9616 182.442963 
L 486.1104 182.442963 
L 486.2592 180.514392 
L 486.408 180.514392 
L 486.5568 178.585822 
L 486.7056 178.585822 
L 486.8544 176.657251 
L 487.0032 176.657251 
L 487.152 174.728681 
L 487.3008 174.728681 
L 487.4496 172.800111 
L 487.5984 172.800111 
L 487.7472 170.87154 
L 487.896 170.87154 
L 488.0448 168.94297 
L 488.1936 168.94297 
L 488.3424 167.014399 
L 488.4912 167.014399 
L 488.64 165.085829 
L 488.7888 165.085829 
L 488.9376 163.157258 
L 489.0864 163.157258 
L 489.2352 161.228688 
L 489.384 161.228688 
L 489.5328 159.300118 
L 489.6816 159.300118 
L 489.8304 157.371547 
L 489.9792 157.371547 
L 490.128 155.442977 
L 490.2768 155.442977 
L 490.4256 153.514406 
L 490.5744 153.514406 
L 490.7232 151.585836 
L 490.872 151.585836 
L 491.0208 149.657265 
L 491.1696 149.657265 
L 491.3184 147.728695 
L 491.4672 147.728695 
L 491.616 145.800124 
L 491.7648 145.800124 
L 491.9136 143.871554 
L 492.0624 143.871554 
L 492.2112 141.942984 
L 492.36 141.942984 
L 492.5088 140.014413 
L 492.6576 140.014413 
L 492.8064 138.085843 
L 492.9552 138.085843 
L 493.104 136.157272 
L 493.2528 136.157272 
L 493.4016 134.228702 
L 493.5504 134.228702 
L 493.6992 132.300131 
L 493.848 132.300131 
L 493.9968 130.371561 
L 494.1456 130.371561 
L 494.2944 128.44299 
L 494.4432 128.44299 
L 494.592 126.51442 
L 494.7408 126.51442 
L 494.8896 124.58585 
L 495.0384 124.58585 
L 495.1872 122.657279 
L 495.336 122.657279 
L 495.4848 120.728709 
L 495.6336 120.728709 
L 495.7824 118.800138 
L 495.9312 118.800138 
L 496.08 116.871568 
L 496.2288 116.871568 
L 496.3776 113.014427 
L 496.5264 113.014427 
L 496.6752 111.085856 
L 496.824 111.085856 
L 496.9728 109.157286 
L 497.1216 109.157286 
L 497.2704 107.228716 
L 497.568 107.228716 
L 497.8656 103.371575 
L 498.0144 103.371575 
L 498.1632 101.443004 
L 498.312 101.443004 
L 498.4608 99.514434 
L 498.6096 99.514434 
L 498.7584 97.585863 
L 498.9072 97.585863 
L 499.056 95.657293 
L 499.2048 95.657293 
L 499.3536 93.728723 
L 499.5024 93.728723 
L 499.6512 91.800152 
L 499.8 91.800152 
L 499.9488 89.871582 
L 500.0976 89.871582 
L 500.2464 87.943011 
L 500.3952 87.943011 
L 500.544 86.014441 
L 500.6928 86.014441 
L 500.8416 84.08587 
L 500.9904 84.08587 
L 501.1392 82.1573 
L 501.288 82.1573 
L 501.4368 80.228729 
L 501.5856 80.228729 
L 501.7344 78.300159 
L 501.8832 78.300159 
L 502.032 76.371589 
L 502.1808 76.371589 
L 502.3296 74.443018 
L 502.4784 74.443018 
L 502.6272 72.514448 
L 518.4 72.514448 
L 518.4 72.514448 
" style="fill:none;stroke:#ff0000;stroke-linecap:square;"/>
   </g>
   <g id="patch_3">
    <path d="M 72 43.2 
L 518.4 43.2 
" style="fill:none;stroke:#000000;stroke-linecap:square;stroke-linejoin:miter;"/>
   </g>
   <g id="patch_4">
    <path d="M 518.4 388.8 
L 518.4 43.2 
" style="fill:none;stroke:#000000;stroke-linecap:square;stroke-linejoin:miter;"/>
   </g>
   <g id="patch_5">
    <path d="M 72 388.8 
L 518.4 388.8 
" style="fill:none;stroke:#000000;stroke-linecap:square;stroke-linejoin:miter;"/>
   </g>
   <g id="patch_6">
    <path d="M 72 388.8 
L 72 43.2 
" style="fill:none;stroke:#000000;stroke-linecap:square;stroke-linejoin:miter;"/>
   </g>
   <g id="matplotlib.axis_1">
    <g id="xtick_1">
     <g id="line2d_3">
      <path clip-path="url(#pf51369d538)" d="M 72 388.8 
L 72 43.2 
" style="fill:none;stroke:#000000;stroke-dasharray:1.000000,3.000000;stroke-dashoffset:0.0;stroke-width:0.5;"/>
     </g>
     <g id="line2d_4">
      <defs>
       <path d="M 0 0 
L 0 -4 
" id="mc81a9daeeb" style="stroke:#000000;stroke-width:0.5;"/>
      </defs>
      <g>
       <use style="stroke:#000000;stroke-width:0.5;" x="72.0" xlink:href="#mc81a9daeeb" y="388.8"/>
      </g>
     </g>
     <g id="line2d_5">
      <defs>
       <path d="M 0 0 
L 0 4 
" id="m05dc77b22c" style="stroke:#000000;stroke-width:0.5;"/>
      </defs>
      <g>
       <use style="stroke:#000000;stroke-width:0.5;" x="72.0" xlink:href="#m05dc77b22c" y="43.2"/>
      </g>
     </g>
     <g id="text_1">
      <!-- 0 -->
      <defs>
       <path d="M 31.78125 66.40625 
Q 24.171875 66.40625 20.328125 58.90625 
Q 16.5 51.421875 16.5 36.375 
Q 16.5 21.390625 20.328125 13.890625 
Q 24.171875 6.390625 31.78125 6.390625 
Q 39.453125 6.390625 43.28125 13.890625 
Q 47.125 21.390625 47.125 36.375 
Q 47.125 51.421875 43.28125 58.90625 
Q 39.453125 66.40625 31.78125 66.40625 
M 31.78125 74.21875 
Q 44.046875 74.21875 50.515625 64.515625 
Q 56.984375 54.828125 56.984375 36.375 
Q 56.984375 17.96875 50.515625 8.265625 
Q 44.046875 -1.421875 31.78125 -1.421875 
Q 19.53125 -1.421875 13.0625 8.265625 
Q 6.59375 17.96875 6.59375 36.375 
Q 6.59375 54.828125 13.0625 64.515625 
Q 19.53125 74.21875 31.78125 74.21875 
" id="BitstreamVeraSans-Roman-30"/>
      </defs>
      <g transform="translate(68.1825 401.918125)scale(0.12 -0.12)">
       <use xlink:href="#BitstreamVeraSans-Roman-30"/>
      </g>
     </g>
    </g>
    <g id="xtick_2">
     <g id="line2d_6">
      <path clip-path="url(#pf51369d538)" d="M 146.4 388.8 
L 146.4 43.2 
" style="fill:none;stroke:#000000;stroke-dasharray:1.000000,3.000000;stroke-dashoffset:0.0;stroke-width:0.5;"/>
     </g>
     <g id="line2d_7">
      <g>
       <use style="stroke:#000000;stroke-width:0.5;" x="146.4" xlink:href="#mc81a9daeeb" y="388.8"/>
      </g>
     </g>
     <g id="line2d_8">
      <g>
       <use style="stroke:#000000;stroke-width:0.5;" x="146.4" xlink:href="#m05dc77b22c" y="43.2"/>
      </g>
     </g>
     <g id="text_2">
      <!-- 5 -->
      <defs>
       <path d="M 10.796875 72.90625 
L 49.515625 72.90625 
L 49.515625 64.59375 
L 19.828125 64.59375 
L 19.828125 46.734375 
Q 21.96875 47.46875 24.109375 47.828125 
Q 26.265625 48.1875 28.421875 48.1875 
Q 40.625 48.1875 47.75 41.5 
Q 54.890625 34.8125 54.890625 23.390625 
Q 54.890625 11.625 47.5625 5.09375 
Q 40.234375 -1.421875 26.90625 -1.421875 
Q 22.3125 -1.421875 17.546875 -0.640625 
Q 12.796875 0.140625 7.71875 1.703125 
L 7.71875 11.625 
Q 12.109375 9.234375 16.796875 8.0625 
Q 21.484375 6.890625 26.703125 6.890625 
Q 35.15625 6.890625 40.078125 11.328125 
Q 45.015625 15.765625 45.015625 23.390625 
Q 45.015625 31 40.078125 35.4375 
Q 35.15625 39.890625 26.703125 39.890625 
Q 22.75 39.890625 18.8125 39.015625 
Q 14.890625 38.140625 10.796875 36.28125 
z
" id="BitstreamVeraSans-Roman-35"/>
      </defs>
      <g transform="translate(142.5825 401.918125)scale(0.12 -0.12)">
       <use xlink:href="#BitstreamVeraSans-Roman-35"/>
      </g>
     </g>
    </g>
    <g id="xtick_3">
     <g id="line2d_9">
      <path clip-path="url(#pf51369d538)" d="M 220.8 388.8 
L 220.8 43.2 
" style="fill:none;stroke:#000000;stroke-dasharray:1.000000,3.000000;stroke-dashoffset:0.0;stroke-width:0.5;"/>
     </g>
     <g id="line2d_10">
      <g>
       <use style="stroke:#000000;stroke-width:0.5;" x="220.8" xlink:href="#mc81a9daeeb" y="388.8"/>
      </g>
     </g>
     <g id="line2d_11">
      <g>
       <use style="stroke:#000000;stroke-width:0.5;" x="220.8" xlink:href="#m05dc77b22c" y="43.2"/>
      </g>
     </g>
     <g id="text_3">
      <!-- 10 -->
      <defs>
       <path d="M 12.40625 8.296875 
L 28.515625 8.296875 
L 28.515625 63.921875 
L 10.984375 60.40625 
L 10.984375 69.390625 
L 28.421875 72.90625 
L 38.28125 72.90625 
L 38.28125 8.296875 
L 54.390625 8.296875 
L 54.390625 0 
L 12.40625 0 
z
" id="BitstreamVeraSans-Roman-31"/>
      </defs>
      <g transform="translate(213.165 401.918125)scale(0.12 -0.12)">
       <use xlink:href="#BitstreamVeraSans-Roman-31"/>
       <use x="63.623046875" xlink:href="#BitstreamVeraSans-Roman-30"/>
      </g>
     </g>
    </g>
    <g id="xtick_4">
     <g id="line2d_12">
      <path clip-path="url(#pf51369d538)" d="M 295.2 388.8 
L 295.2 43.2 
" style="fill:none;stroke:#000000;stroke-dasharray:1.000000,3.000000;stroke-dashoffset:0.0;stroke-width:0.5;"/>
     </g>
     <g id="line2d_13">
      <g>
       <use style="stroke:#000000;stroke-width:0.5;" x="295.2" xlink:href="#mc81a9daeeb" y="388.8"/>
      </g>
     </g>
     <g id="line2d_14">
      <g>
       <use style="stroke:#000000;stroke-width:0.5;" x="295.2" xlink:href="#m05dc77b22c" y="43.2"/>
      </g>
     </g>
     <g id="text_4">
      <!-- 15 -->
      <g transform="translate(287.565 401.918125)scale(0.12 -0.12)">
       <use xlink:href="#BitstreamVeraSans-Roman-31"/>
       <use x="63.623046875" xlink:href="#BitstreamVeraSans-Roman-35"/>
      </g>
     </g>
    </g>
    <g id="xtick_5">
     <g id="line2d_15">
      <path clip-path="url(#pf51369d538)" d="M 369.6 388.8 
L 369.6 43.2 
" style="fill:none;stroke:#000000;stroke-dasharray:1.000000,3.000000;stroke-dashoffset:0.0;stroke-width:0.5;"/>
     </g>
     <g id="line2d_16">
      <g>
       <use style="stroke:#000000;stroke-width:0.5;" x="369.6" xlink:href="#mc81a9daeeb" y="388.8"/>
      </g>
     </g>
     <g id="line2d_17">
      <g>
       <use style="stroke:#000000;stroke-width:0.5;" x="369.6" xlink:href="#m05dc77b22c" y="43.2"/>
      </g>
     </g>
     <g id="text_5">
      <!-- 20 -->
      <defs>
       <path d="M 19.1875 8.296875 
L 53.609375 8.296875 
L 53.609375 0 
L 7.328125 0 
L 7.328125 8.296875 
Q 12.9375 14.109375 22.625 23.890625 
Q 32.328125 33.6875 34.8125 36.53125 
Q 39.546875 41.84375 41.421875 45.53125 
Q 43.3125 49.21875 43.3125 52.78125 
Q 43.3125 58.59375 39.234375 62.25 
Q 35.15625 65.921875 28.609375 65.921875 
Q 23.96875 65.921875 18.8125 64.3125 
Q 13.671875 62.703125 7.8125 59.421875 
L 7.8125 69.390625 
Q 13.765625 71.78125 18.9375 73 
Q 24.125 74.21875 28.421875 74.21875 
Q 39.75 74.21875 46.484375 68.546875 
Q 53.21875 62.890625 53.21875 53.421875 
Q 53.21875 48.921875 51.53125 44.890625 
Q 49.859375 40.875 45.40625 35.40625 
Q 44.1875 33.984375 37.640625 27.21875 
Q 31.109375 20.453125 19.1875 8.296875 
" id="BitstreamVeraSans-Roman-32"/>
      </defs>
      <g transform="translate(361.965 401.918125)scale(0.12 -0.12)">
       <use xlink:href="#BitstreamVeraSans-Roman-32"/>
       <use x="63.623046875" xlink:href="#BitstreamVeraSans-Roman-30"/>
      </g>
     </g>
    </g>
    <g id="xtick_6">
     <g id="line2d_18">
      <path clip-path="url(#pf51369d538)" d="M 444 388.8 
L 444 43.2 
" style="fill:none;stroke:#000000;stroke-dasharray:1.000000,3.000000;stroke-dashoffset:0.0;stroke-width:0.5;"/>
     </g>
     <g id="line2d_19">
      <g>
       <use style="stroke:#000000;stroke-width:0.5;" x="444.0" xlink:href="#mc81a9daeeb" y="388.8"/>
      </g>
     </g>
     <g id="line2d_20">
      <g>
       <use style="stroke:#000000;stroke-width:0.5;" x="444.0" xlink:href="#m05dc77b22c" y="43.2"/>
      </g>
     </g>
     <g id="text_6">
      <!-- 25 -->
      <g transform="translate(436.365 401.918125)scale(0.12 -0.12)">
       <use xlink:href="#BitstreamVeraSans-Roman-32"/>
       <use x="63.623046875" xlink:href="#BitstreamVeraSans-Roman-35"/>
      </g>
     </g>
    </g>
    <g id="xtick_7">
     <g id="line2d_21">
      <path clip-path="url(#pf51369d538)" d="M 518.4 388.8 
L 518.4 43.2 
" style="fill:none;stroke:#000000;stroke-dasharray:1.000000,3.000000;stroke-dashoffset:0.0;stroke-width:0.5;"/>
     </g>
     <g id="line2d_22">
      <g>
       <use style="stroke:#000000;stroke-width:0.5;" x="518.4" xlink:href="#mc81a9daeeb" y="388.8"/>
      </g>
     </g>
     <g id="line2d_23">
      <g>
       <use style="stroke:#000000;stroke-width:0.5;" x="518.4" xlink:href="#m05dc77b22c" y="43.2"/>
      </g>
     </g>
     <g id="text_7">
      <!-- 30 -->
      <defs>
       <path d="M 40.578125 39.3125 
Q 47.65625 37.796875 51.625 33 
Q 55.609375 28.21875 55.609375 21.1875 
Q 55.609375 10.40625 48.1875 4.484375 
Q 40.765625 -1.421875 27.09375 -1.421875 
Q 22.515625 -1.421875 17.65625 -0.515625 
Q 12.796875 0.390625 7.625 2.203125 
L 7.625 11.71875 
Q 11.71875 9.328125 16.59375 8.109375 
Q 21.484375 6.890625 26.8125 6.890625 
Q 36.078125 6.890625 40.9375 10.546875 
Q 45.796875 14.203125 45.796875 21.1875 
Q 45.796875 27.640625 41.28125 31.265625 
Q 36.765625 34.90625 28.71875 34.90625 
L 20.21875 34.90625 
L 20.21875 43.015625 
L 29.109375 43.015625 
Q 36.375 43.015625 40.234375 45.921875 
Q 44.09375 48.828125 44.09375 54.296875 
Q 44.09375 59.90625 40.109375 62.90625 
Q 36.140625 65.921875 28.71875 65.921875 
Q 24.65625 65.921875 20.015625 65.03125 
Q 15.375 64.15625 9.8125 62.3125 
L 9.8125 71.09375 
Q 15.4375 72.65625 20.34375 73.4375 
Q 25.25 74.21875 29.59375 74.21875 
Q 40.828125 74.21875 47.359375 69.109375 
Q 53.90625 64.015625 53.90625 55.328125 
Q 53.90625 49.265625 50.4375 45.09375 
Q 46.96875 40.921875 40.578125 39.3125 
" id="BitstreamVeraSans-Roman-33"/>
      </defs>
      <g transform="translate(510.765 401.918125)scale(0.12 -0.12)">
       <use xlink:href="#BitstreamVeraSans-Roman-33"/>
       <use x="63.623046875" xlink:href="#BitstreamVeraSans-Roman-30"/>
      </g>
     </g>
    </g>
    <g id="text_8">
     <!-- Time [s] -->
     <defs>
      <path id="BitstreamVeraSans-Roman-20"/>
      <path d="M 8.59375 75.984375 
L 29.296875 75.984375 
L 29.296875 69 
L 17.578125 69 
L 17.578125 -6.203125 
L 29.296875 -6.203125 
L 29.296875 -13.1875 
L 8.59375 -13.1875 
z
" id="BitstreamVeraSans-Roman-5b"/>
      <path d="M 30.421875 75.984375 
L 30.421875 -13.1875 
L 9.71875 -13.1875 
L 9.71875 -6.203125 
L 21.390625 -6.203125 
L 21.390625 69 
L 9.71875 69 
L 9.71875 75.984375 
z
" id="BitstreamVeraSans-Roman-5d"/>
      <path d="M 52 44.1875 
Q 55.375 50.25 60.0625 53.125 
Q 64.75 56 71.09375 56 
Q 79.640625 56 84.28125 50.015625 
Q 88.921875 44.046875 88.921875 33.015625 
L 88.921875 0 
L 79.890625 0 
L 79.890625 32.71875 
Q 79.890625 40.578125 77.09375 44.375 
Q 74.3125 48.1875 68.609375 48.1875 
Q 61.625 48.1875 57.5625 43.546875 
Q 53.515625 38.921875 53.515625 30.90625 
L 53.515625 0 
L 44.484375 0 
L 44.484375 32.71875 
Q 44.484375 40.625 41.703125 44.40625 
Q 38.921875 48.1875 33.109375 48.1875 
Q 26.21875 48.1875 22.15625 43.53125 
Q 18.109375 38.875 18.109375 30.90625 
L 18.109375 0 
L 9.078125 0 
L 9.078125 54.6875 
L 18.109375 54.6875 
L 18.109375 46.1875 
Q 21.1875 51.21875 25.484375 53.609375 
Q 29.78125 56 35.6875 56 
Q 41.65625 56 45.828125 52.96875 
Q 50 49.953125 52 44.1875 
" id="BitstreamVeraSans-Roman-6d"/>
      <path d="M 9.421875 54.6875 
L 18.40625 54.6875 
L 18.40625 0 
L 9.421875 0 
z
M 9.421875 75.984375 
L 18.40625 75.984375 
L 18.40625 64.59375 
L 9.421875 64.59375 
z
" id="BitstreamVeraSans-Roman-69"/>
      <path d="M 56.203125 29.59375 
L 56.203125 25.203125 
L 14.890625 25.203125 
Q 15.484375 15.921875 20.484375 11.0625 
Q 25.484375 6.203125 34.421875 6.203125 
Q 39.59375 6.203125 44.453125 7.46875 
Q 49.3125 8.734375 54.109375 11.28125 
L 54.109375 2.78125 
Q 49.265625 0.734375 44.1875 -0.34375 
Q 39.109375 -1.421875 33.890625 -1.421875 
Q 20.796875 -1.421875 13.15625 6.1875 
Q 5.515625 13.8125 5.515625 26.8125 
Q 5.515625 40.234375 12.765625 48.109375 
Q 20.015625 56 32.328125 56 
Q 43.359375 56 49.78125 48.890625 
Q 56.203125 41.796875 56.203125 29.59375 
M 47.21875 32.234375 
Q 47.125 39.59375 43.09375 43.984375 
Q 39.0625 48.390625 32.421875 48.390625 
Q 24.90625 48.390625 20.390625 44.140625 
Q 15.875 39.890625 15.1875 32.171875 
z
" id="BitstreamVeraSans-Roman-65"/>
      <path d="M -0.296875 72.90625 
L 61.375 72.90625 
L 61.375 64.59375 
L 35.5 64.59375 
L 35.5 0 
L 25.59375 0 
L 25.59375 64.59375 
L -0.296875 64.59375 
z
" id="BitstreamVeraSans-Roman-54"/>
      <path d="M 44.28125 53.078125 
L 44.28125 44.578125 
Q 40.484375 46.53125 36.375 47.5 
Q 32.28125 48.484375 27.875 48.484375 
Q 21.1875 48.484375 17.84375 46.4375 
Q 14.5 44.390625 14.5 40.28125 
Q 14.5 37.15625 16.890625 35.375 
Q 19.28125 33.59375 26.515625 31.984375 
L 29.59375 31.296875 
Q 39.15625 29.25 43.1875 25.515625 
Q 47.21875 21.78125 47.21875 15.09375 
Q 47.21875 7.46875 41.1875 3.015625 
Q 35.15625 -1.421875 24.609375 -1.421875 
Q 20.21875 -1.421875 15.453125 -0.5625 
Q 10.6875 0.296875 5.421875 2 
L 5.421875 11.28125 
Q 10.40625 8.6875 15.234375 7.390625 
Q 20.0625 6.109375 24.8125 6.109375 
Q 31.15625 6.109375 34.5625 8.28125 
Q 37.984375 10.453125 37.984375 14.40625 
Q 37.984375 18.0625 35.515625 20.015625 
Q 33.0625 21.96875 24.703125 23.78125 
L 21.578125 24.515625 
Q 13.234375 26.265625 9.515625 29.90625 
Q 5.8125 33.546875 5.8125 39.890625 
Q 5.8125 47.609375 11.28125 51.796875 
Q 16.75 56 26.8125 56 
Q 31.78125 56 36.171875 55.265625 
Q 40.578125 54.546875 44.28125 53.078125 
" id="BitstreamVeraSans-Roman-73"/>
     </defs>
     <g transform="translate(270.620625 418.531875)scale(0.12 -0.12)">
      <use xlink:href="#BitstreamVeraSans-Roman-54"/>
      <use x="61.037109375" xlink:href="#BitstreamVeraSans-Roman-69"/>
      <use x="88.8203125" xlink:href="#BitstreamVeraSans-Roman-6d"/>
      <use x="186.232421875" xlink:href="#BitstreamVeraSans-Roman-65"/>
      <use x="247.755859375" xlink:href="#BitstreamVeraSans-Roman-20"/>
      <use x="279.54296875" xlink:href="#BitstreamVeraSans-Roman-5b"/>
      <use x="318.556640625" xlink:href="#BitstreamVeraSans-Roman-73"/>
      <use x="370.65625" xlink:href="#BitstreamVeraSans-Roman-5d"/>
     </g>
    </g>
   </g>
   <g id="matplotlib.axis_2">
    <g id="ytick_1">
     <g id="line2d_24">
      <path clip-path="url(#pf51369d538)" d="M 72 388.8 
L 518.4 388.8 
" style="fill:none;stroke:#000000;stroke-dasharray:1.000000,3.000000;stroke-dashoffset:0.0;stroke-width:0.5;"/>
     </g>
     <g id="line2d_25">
      <defs>
       <path d="M 0 0 
L 4 0 
" id="m8d99cc280e" style="stroke:#000000;stroke-width:0.5;"/>
      </defs>
      <g>
       <use style="stroke:#000000;stroke-width:0.5;" x="72.0" xlink:href="#m8d99cc280e" y="388.8"/>
      </g>
     </g>
     <g id="line2d_26">
      <defs>
       <path d="M 0 0 
L -4 0 
" id="me9eabada3f" style="stroke:#000000;stroke-width:0.5;"/>
      </defs>
      <g>
       <use style="stroke:#000000;stroke-width:0.5;" x="518.4" xlink:href="#me9eabada3f" y="388.8"/>
      </g>
     </g>
     <g id="text_9">
      <!-- 0.0 -->
      <defs>
       <path d="M 10.6875 12.40625 
L 21 12.40625 
L 21 0 
L 10.6875 0 
z
" id="BitstreamVeraSans-Roman-2e"/>
      </defs>
      <g transform="translate(48.91625 392.11125)scale(0.12 -0.12)">
       <use xlink:href="#BitstreamVeraSans-Roman-30"/>
       <use x="63.623046875" xlink:href="#BitstreamVeraSans-Roman-2e"/>
       <use x="95.41015625" xlink:href="#BitstreamVeraSans-Roman-30"/>
      </g>
     </g>
    </g>
    <g id="ytick_2">
     <g id="line2d_27">
      <path clip-path="url(#pf51369d538)" d="M 72 339.428571 
L 518.4 339.428571 
" style="fill:none;stroke:#000000;stroke-dasharray:1.000000,3.000000;stroke-dashoffset:0.0;stroke-width:0.5;"/>
     </g>
     <g id="line2d_28">
      <g>
       <use style="stroke:#000000;stroke-width:0.5;" x="72.0" xlink:href="#m8d99cc280e" y="339.428571429"/>
      </g>
     </g>
     <g id="line2d_29">
      <g>
       <use style="stroke:#000000;stroke-width:0.5;" x="518.4" xlink:href="#me9eabada3f" y="339.428571429"/>
      </g>
     </g>
     <g id="text_10">
      <!-- 0.1 -->
      <g transform="translate(48.91625 342.739821429)scale(0.12 -0.12)">
       <use xlink:href="#BitstreamVeraSans-Roman-30"/>
       <use x="63.623046875" xlink:href="#BitstreamVeraSans-Roman-2e"/>
       <use x="95.41015625" xlink:href="#BitstreamVeraSans-Roman-31"/>
      </g>
     </g>
    </g>
    <g id="ytick_3">
     <g id="line2d_30">
      <path clip-path="url(#pf51369d538)" d="M 72 290.057143 
L 518.4 290.057143 
" style="fill:none;stroke:#000000;stroke-dasharray:1.000000,3.000000;stroke-dashoffset:0.0;stroke-width:0.5;"/>
     </g>
     <g id="line2d_31">
      <g>
       <use style="stroke:#000000;stroke-width:0.5;" x="72.0" xlink:href="#m8d99cc280e" y="290.057142857"/>
      </g>
     </g>
     <g id="line2d_32">
      <g>
       <use style="stroke:#000000;stroke-width:0.5;" x="518.4" xlink:href="#me9eabada3f" y="290.057142857"/>
      </g>
     </g>
     <g id="text_11">
      <!-- 0.2 -->
      <g transform="translate(48.91625 293.368392857)scale(0.12 -0.12)">
       <use xlink:href="#BitstreamVeraSans-Roman-30"/>
       <use x="63.623046875" xlink:href="#BitstreamVeraSans-Roman-2e"/>
       <use x="95.41015625" xlink:href="#BitstreamVeraSans-Roman-32"/>
      </g>
     </g>
    </g>
    <g id="ytick_4">
     <g id="line2d_33">
      <path clip-path="url(#pf51369d538)" d="M 72 240.685714 
L 518.4 240.685714 
" style="fill:none;stroke:#000000;stroke-dasharray:1.000000,3.000000;stroke-dashoffset:0.0;stroke-width:0.5;"/>
     </g>
     <g id="line2d_34">
      <g>
       <use style="stroke:#000000;stroke-width:0.5;" x="72.0" xlink:href="#m8d99cc280e" y="240.685714286"/>
      </g>
     </g>
     <g id="line2d_35">
      <g>
       <use style="stroke:#000000;stroke-width:0.5;" x="518.4" xlink:href="#me9eabada3f" y="240.685714286"/>
      </g>
     </g>
     <g id="text_12">
      <!-- 0.3 -->
      <g transform="translate(48.91625 243.996964286)scale(0.12 -0.12)">
       <use xlink:href="#BitstreamVeraSans-Roman-30"/>
       <use x="63.623046875" xlink:href="#BitstreamVeraSans-Roman-2e"/>
       <use x="95.41015625" xlink:href="#BitstreamVeraSans-Roman-33"/>
      </g>
     </g>
    </g>
    <g id="ytick_5">
     <g id="line2d_36">
      <path clip-path="url(#pf51369d538)" d="M 72 191.314286 
L 518.4 191.314286 
" style="fill:none;stroke:#000000;stroke-dasharray:1.000000,3.000000;stroke-dashoffset:0.0;stroke-width:0.5;"/>
     </g>
     <g id="line2d_37">
      <g>
       <use style="stroke:#000000;stroke-width:0.5;" x="72.0" xlink:href="#m8d99cc280e" y="191.314285714"/>
      </g>
     </g>
     <g id="line2d_38">
      <g>
       <use style="stroke:#000000;stroke-width:0.5;" x="518.4" xlink:href="#me9eabada3f" y="191.314285714"/>
      </g>
     </g>
     <g id="text_13">
      <!-- 0.4 -->
      <defs>
       <path d="M 37.796875 64.3125 
L 12.890625 25.390625 
L 37.796875 25.390625 
z
M 35.203125 72.90625 
L 47.609375 72.90625 
L 47.609375 25.390625 
L 58.015625 25.390625 
L 58.015625 17.1875 
L 47.609375 17.1875 
L 47.609375 0 
L 37.796875 0 
L 37.796875 17.1875 
L 4.890625 17.1875 
L 4.890625 26.703125 
z
" id="BitstreamVeraSans-Roman-34"/>
      </defs>
      <g transform="translate(48.91625 194.625535714)scale(0.12 -0.12)">
       <use xlink:href="#BitstreamVeraSans-Roman-30"/>
       <use x="63.623046875" xlink:href="#BitstreamVeraSans-Roman-2e"/>
       <use x="95.41015625" xlink:href="#BitstreamVeraSans-Roman-34"/>
      </g>
     </g>
    </g>
    <g id="ytick_6">
     <g id="line2d_39">
      <path clip-path="url(#pf51369d538)" d="M 72 141.942857 
L 518.4 141.942857 
" style="fill:none;stroke:#000000;stroke-dasharray:1.000000,3.000000;stroke-dashoffset:0.0;stroke-width:0.5;"/>
     </g>
     <g id="line2d_40">
      <g>
       <use style="stroke:#000000;stroke-width:0.5;" x="72.0" xlink:href="#m8d99cc280e" y="141.942857143"/>
      </g>
     </g>
     <g id="line2d_41">
      <g>
       <use style="stroke:#000000;stroke-width:0.5;" x="518.4" xlink:href="#me9eabada3f" y="141.942857143"/>
      </g>
     </g>
     <g id="text_14">
      <!-- 0.5 -->
      <g transform="translate(48.91625 145.254107143)scale(0.12 -0.12)">
       <use xlink:href="#BitstreamVeraSans-Roman-30"/>
       <use x="63.623046875" xlink:href="#BitstreamVeraSans-Roman-2e"/>
       <use x="95.41015625" xlink:href="#BitstreamVeraSans-Roman-35"/>
      </g>
     </g>
    </g>
    <g id="ytick_7">
     <g id="line2d_42">
      <path clip-path="url(#pf51369d538)" d="M 72 92.571429 
L 518.4 92.571429 
" style="fill:none;stroke:#000000;stroke-dasharray:1.000000,3.000000;stroke-dashoffset:0.0;stroke-width:0.5;"/>
     </g>
     <g id="line2d_43">
      <g>
       <use style="stroke:#000000;stroke-width:0.5;" x="72.0" xlink:href="#m8d99cc280e" y="92.5714285714"/>
      </g>
     </g>
     <g id="line2d_44">
      <g>
       <use style="stroke:#000000;stroke-width:0.5;" x="518.4" xlink:href="#me9eabada3f" y="92.5714285714"/>
      </g>
     </g>
     <g id="text_15">
      <!-- 0.6 -->
      <defs>
       <path d="M 33.015625 40.375 
Q 26.375 40.375 22.484375 35.828125 
Q 18.609375 31.296875 18.609375 23.390625 
Q 18.609375 15.53125 22.484375 10.953125 
Q 26.375 6.390625 33.015625 6.390625 
Q 39.65625 6.390625 43.53125 10.953125 
Q 47.40625 15.53125 47.40625 23.390625 
Q 47.40625 31.296875 43.53125 35.828125 
Q 39.65625 40.375 33.015625 40.375 
M 52.59375 71.296875 
L 52.59375 62.3125 
Q 48.875 64.0625 45.09375 64.984375 
Q 41.3125 65.921875 37.59375 65.921875 
Q 27.828125 65.921875 22.671875 59.328125 
Q 17.53125 52.734375 16.796875 39.40625 
Q 19.671875 43.65625 24.015625 45.921875 
Q 28.375 48.1875 33.59375 48.1875 
Q 44.578125 48.1875 50.953125 41.515625 
Q 57.328125 34.859375 57.328125 23.390625 
Q 57.328125 12.15625 50.6875 5.359375 
Q 44.046875 -1.421875 33.015625 -1.421875 
Q 20.359375 -1.421875 13.671875 8.265625 
Q 6.984375 17.96875 6.984375 36.375 
Q 6.984375 53.65625 15.1875 63.9375 
Q 23.390625 74.21875 37.203125 74.21875 
Q 40.921875 74.21875 44.703125 73.484375 
Q 48.484375 72.75 52.59375 71.296875 
" id="BitstreamVeraSans-Roman-36"/>
      </defs>
      <g transform="translate(48.91625 95.8826785714)scale(0.12 -0.12)">
       <use xlink:href="#BitstreamVeraSans-Roman-30"/>
       <use x="63.623046875" xlink:href="#BitstreamVeraSans-Roman-2e"/>
       <use x="95.41015625" xlink:href="#BitstreamVeraSans-Roman-36"/>
      </g>
     </g>
    </g>
    <g id="ytick_8">
     <g id="line2d_45">
      <path clip-path="url(#pf51369d538)" d="M 72 43.2 
L 518.4 43.2 
" style="fill:none;stroke:#000000;stroke-dasharray:1.000000,3.000000;stroke-dashoffset:0.0;stroke-width:0.5;"/>
     </g>
     <g id="line2d_46">
      <g>
       <use style="stroke:#000000;stroke-width:0.5;" x="72.0" xlink:href="#m8d99cc280e" y="43.2"/>
      </g>
     </g>
     <g id="line2d_47">
      <g>
       <use style="stroke:#000000;stroke-width:0.5;" x="518.4" xlink:href="#me9eabada3f" y="43.2"/>
      </g>
     </g>
     <g id="text_16">
      <!-- 0.7 -->
      <defs>
       <path d="M 8.203125 72.90625 
L 55.078125 72.90625 
L 55.078125 68.703125 
L 28.609375 0 
L 18.3125 0 
L 43.21875 64.59375 
L 8.203125 64.59375 
z
" id="BitstreamVeraSans-Roman-37"/>
      </defs>
      <g transform="translate(48.91625 46.51125)scale(0.12 -0.12)">
       <use xlink:href="#BitstreamVeraSans-Roman-30"/>
       <use x="63.623046875" xlink:href="#BitstreamVeraSans-Roman-2e"/>
       <use x="95.41015625" xlink:href="#BitstreamVeraSans-Roman-37"/>
      </g>
     </g>
    </g>
    <g id="text_17">
     <!-- Pedal [] -->
     <defs>
      <path d="M 19.671875 64.796875 
L 19.671875 37.40625 
L 32.078125 37.40625 
Q 38.96875 37.40625 42.71875 40.96875 
Q 46.484375 44.53125 46.484375 51.125 
Q 46.484375 57.671875 42.71875 61.234375 
Q 38.96875 64.796875 32.078125 64.796875 
z
M 9.8125 72.90625 
L 32.078125 72.90625 
Q 44.34375 72.90625 50.609375 67.359375 
Q 56.890625 61.8125 56.890625 51.125 
Q 56.890625 40.328125 50.609375 34.8125 
Q 44.34375 29.296875 32.078125 29.296875 
L 19.671875 29.296875 
L 19.671875 0 
L 9.8125 0 
z
" id="BitstreamVeraSans-Roman-50"/>
      <path d="M 45.40625 46.390625 
L 45.40625 75.984375 
L 54.390625 75.984375 
L 54.390625 0 
L 45.40625 0 
L 45.40625 8.203125 
Q 42.578125 3.328125 38.25 0.953125 
Q 33.9375 -1.421875 27.875 -1.421875 
Q 17.96875 -1.421875 11.734375 6.484375 
Q 5.515625 14.40625 5.515625 27.296875 
Q 5.515625 40.1875 11.734375 48.09375 
Q 17.96875 56 27.875 56 
Q 33.9375 56 38.25 53.625 
Q 42.578125 51.265625 45.40625 46.390625 
M 14.796875 27.296875 
Q 14.796875 17.390625 18.875 11.75 
Q 22.953125 6.109375 30.078125 6.109375 
Q 37.203125 6.109375 41.296875 11.75 
Q 45.40625 17.390625 45.40625 27.296875 
Q 45.40625 37.203125 41.296875 42.84375 
Q 37.203125 48.484375 30.078125 48.484375 
Q 22.953125 48.484375 18.875 42.84375 
Q 14.796875 37.203125 14.796875 27.296875 
" id="BitstreamVeraSans-Roman-64"/>
      <path d="M 34.28125 27.484375 
Q 23.390625 27.484375 19.1875 25 
Q 14.984375 22.515625 14.984375 16.5 
Q 14.984375 11.71875 18.140625 8.90625 
Q 21.296875 6.109375 26.703125 6.109375 
Q 34.1875 6.109375 38.703125 11.40625 
Q 43.21875 16.703125 43.21875 25.484375 
L 43.21875 27.484375 
z
M 52.203125 31.203125 
L 52.203125 0 
L 43.21875 0 
L 43.21875 8.296875 
Q 40.140625 3.328125 35.546875 0.953125 
Q 30.953125 -1.421875 24.3125 -1.421875 
Q 15.921875 -1.421875 10.953125 3.296875 
Q 6 8.015625 6 15.921875 
Q 6 25.140625 12.171875 29.828125 
Q 18.359375 34.515625 30.609375 34.515625 
L 43.21875 34.515625 
L 43.21875 35.40625 
Q 43.21875 41.609375 39.140625 45 
Q 35.0625 48.390625 27.6875 48.390625 
Q 23 48.390625 18.546875 47.265625 
Q 14.109375 46.140625 10.015625 43.890625 
L 10.015625 52.203125 
Q 14.9375 54.109375 19.578125 55.046875 
Q 24.21875 56 28.609375 56 
Q 40.484375 56 46.34375 49.84375 
Q 52.203125 43.703125 52.203125 31.203125 
" id="BitstreamVeraSans-Roman-61"/>
      <path d="M 9.421875 75.984375 
L 18.40625 75.984375 
L 18.40625 0 
L 9.421875 0 
z
" id="BitstreamVeraSans-Roman-6c"/>
     </defs>
     <g transform="translate(41.420625 239.0484375)rotate(-90.0)scale(0.12 -0.12)">
      <use xlink:href="#BitstreamVeraSans-Roman-50"/>
      <use x="60.255859375" xlink:href="#BitstreamVeraSans-Roman-65"/>
      <use x="121.779296875" xlink:href="#BitstreamVeraSans-Roman-64"/>
      <use x="185.255859375" xlink:href="#BitstreamVeraSans-Roman-61"/>
      <use x="246.53515625" xlink:href="#BitstreamVeraSans-Roman-6c"/>
      <use x="274.318359375" xlink:href="#BitstreamVeraSans-Roman-20"/>
      <use x="306.10546875" xlink:href="#BitstreamVeraSans-Roman-5b"/>
      <use x="345.119140625" xlink:href="#BitstreamVeraSans-Roman-5d"/>
     </g>
    </g>
   </g>
   <g id="legend_1">
    <g id="patch_7">
     <path d="M 79.2 96.993 
L 217.40175 96.993 
L 217.40175 50.4 
L 79.2 50.4 
z
" style="fill:#ffffff;stroke:#000000;stroke-linejoin:miter;"/>
    </g>
    <g id="line2d_48">
     <path d="M 89.28 62.06175 
L 109.44 62.06175 
" style="fill:none;stroke:#008000;stroke-linecap:square;"/>
    </g>
    <g id="line2d_49"/>
    <g id="text_18">
     <!-- Gas pedal -->
     <defs>
      <path d="M 59.515625 10.40625 
L 59.515625 29.984375 
L 43.40625 29.984375 
L 43.40625 38.09375 
L 69.28125 38.09375 
L 69.28125 6.78125 
Q 63.578125 2.734375 56.6875 0.65625 
Q 49.8125 -1.421875 42 -1.421875 
Q 24.90625 -1.421875 15.25 8.5625 
Q 5.609375 18.5625 5.609375 36.375 
Q 5.609375 54.25 15.25 64.234375 
Q 24.90625 74.21875 42 74.21875 
Q 49.125 74.21875 55.546875 72.453125 
Q 61.96875 70.703125 67.390625 67.28125 
L 67.390625 56.78125 
Q 61.921875 61.421875 55.765625 63.765625 
Q 49.609375 66.109375 42.828125 66.109375 
Q 29.4375 66.109375 22.71875 58.640625 
Q 16.015625 51.171875 16.015625 36.375 
Q 16.015625 21.625 22.71875 14.15625 
Q 29.4375 6.6875 42.828125 6.6875 
Q 48.046875 6.6875 52.140625 7.59375 
Q 56.25 8.5 59.515625 10.40625 
" id="BitstreamVeraSans-Roman-47"/>
      <path d="M 18.109375 8.203125 
L 18.109375 -20.796875 
L 9.078125 -20.796875 
L 9.078125 54.6875 
L 18.109375 54.6875 
L 18.109375 46.390625 
Q 20.953125 51.265625 25.265625 53.625 
Q 29.59375 56 35.59375 56 
Q 45.5625 56 51.78125 48.09375 
Q 58.015625 40.1875 58.015625 27.296875 
Q 58.015625 14.40625 51.78125 6.484375 
Q 45.5625 -1.421875 35.59375 -1.421875 
Q 29.59375 -1.421875 25.265625 0.953125 
Q 20.953125 3.328125 18.109375 8.203125 
M 48.6875 27.296875 
Q 48.6875 37.203125 44.609375 42.84375 
Q 40.53125 48.484375 33.40625 48.484375 
Q 26.265625 48.484375 22.1875 42.84375 
Q 18.109375 37.203125 18.109375 27.296875 
Q 18.109375 17.390625 22.1875 11.75 
Q 26.265625 6.109375 33.40625 6.109375 
Q 40.53125 6.109375 44.609375 11.75 
Q 48.6875 17.390625 48.6875 27.296875 
" id="BitstreamVeraSans-Roman-70"/>
     </defs>
     <g transform="translate(125.28 67.10175)scale(0.144 -0.144)">
      <use xlink:href="#BitstreamVeraSans-Roman-47"/>
      <use x="77.490234375" xlink:href="#BitstreamVeraSans-Roman-61"/>
      <use x="138.76953125" xlink:href="#BitstreamVeraSans-Roman-73"/>
      <use x="190.869140625" xlink:href="#BitstreamVeraSans-Roman-20"/>
      <use x="222.65625" xlink:href="#BitstreamVeraSans-Roman-70"/>
      <use x="286.1328125" xlink:href="#BitstreamVeraSans-Roman-65"/>
      <use x="347.65625" xlink:href="#BitstreamVeraSans-Roman-64"/>
      <use x="411.1328125" xlink:href="#BitstreamVeraSans-Roman-61"/>
      <use x="472.412109375" xlink:href="#BitstreamVeraSans-Roman-6c"/>
     </g>
    </g>
    <g id="line2d_50">
     <path d="M 89.28 83.19825 
L 109.44 83.19825 
" style="fill:none;stroke:#ff0000;stroke-linecap:square;"/>
    </g>
    <g id="line2d_51"/>
    <g id="text_19">
     <!-- Brake pedal -->
     <defs>
      <path d="M 41.109375 46.296875 
Q 39.59375 47.171875 37.8125 47.578125 
Q 36.03125 48 33.890625 48 
Q 26.265625 48 22.1875 43.046875 
Q 18.109375 38.09375 18.109375 28.8125 
L 18.109375 0 
L 9.078125 0 
L 9.078125 54.6875 
L 18.109375 54.6875 
L 18.109375 46.1875 
Q 20.953125 51.171875 25.484375 53.578125 
Q 30.03125 56 36.53125 56 
Q 37.453125 56 38.578125 55.875 
Q 39.703125 55.765625 41.0625 55.515625 
z
" id="BitstreamVeraSans-Roman-72"/>
      <path d="M 19.671875 34.8125 
L 19.671875 8.109375 
L 35.5 8.109375 
Q 43.453125 8.109375 47.28125 11.40625 
Q 51.125 14.703125 51.125 21.484375 
Q 51.125 28.328125 47.28125 31.5625 
Q 43.453125 34.8125 35.5 34.8125 
z
M 19.671875 64.796875 
L 19.671875 42.828125 
L 34.28125 42.828125 
Q 41.5 42.828125 45.03125 45.53125 
Q 48.578125 48.25 48.578125 53.8125 
Q 48.578125 59.328125 45.03125 62.0625 
Q 41.5 64.796875 34.28125 64.796875 
z
M 9.8125 72.90625 
L 35.015625 72.90625 
Q 46.296875 72.90625 52.390625 68.21875 
Q 58.5 63.53125 58.5 54.890625 
Q 58.5 48.1875 55.375 44.234375 
Q 52.25 40.28125 46.1875 39.3125 
Q 53.46875 37.75 57.5 32.78125 
Q 61.53125 27.828125 61.53125 20.40625 
Q 61.53125 10.640625 54.890625 5.3125 
Q 48.25 0 35.984375 0 
L 9.8125 0 
z
" id="BitstreamVeraSans-Roman-42"/>
      <path d="M 9.078125 75.984375 
L 18.109375 75.984375 
L 18.109375 31.109375 
L 44.921875 54.6875 
L 56.390625 54.6875 
L 27.390625 29.109375 
L 57.625 0 
L 45.90625 0 
L 18.109375 26.703125 
L 18.109375 0 
L 9.078125 0 
z
" id="BitstreamVeraSans-Roman-6b"/>
     </defs>
     <g transform="translate(125.28 88.23825)scale(0.144 -0.144)">
      <use xlink:href="#BitstreamVeraSans-Roman-42"/>
      <use x="68.603515625" xlink:href="#BitstreamVeraSans-Roman-72"/>
      <use x="109.716796875" xlink:href="#BitstreamVeraSans-Roman-61"/>
      <use x="170.99609375" xlink:href="#BitstreamVeraSans-Roman-6b"/>
      <use x="228.859375" xlink:href="#BitstreamVeraSans-Roman-65"/>
      <use x="290.3828125" xlink:href="#BitstreamVeraSans-Roman-20"/>
      <use x="322.169921875" xlink:href="#BitstreamVeraSans-Roman-70"/>
      <use x="385.646484375" xlink:href="#BitstreamVeraSans-Roman-65"/>
      <use x="447.169921875" xlink:href="#BitstreamVeraSans-Roman-64"/>
      <use x="510.646484375" xlink:href="#BitstreamVeraSans-Roman-61"/>
      <use x="571.92578125" xlink:href="#BitstreamVeraSans-Roman-6c"/>
     </g>
    </g>
   </g>
  </g>
 </g>
 <defs>
  <clipPath id="pf51369d538">
   <rect height="345.6" width="446.4" x="72.0" y="43.2"/>
  </clipPath>
 </defs>
</svg>
