<?xml version="1.0" encoding="utf-8" standalone="no"?>
<!DOCTYPE svg PUBLIC "-//W3C//DTD SVG 1.1//EN"
  "http://www.w3.org/Graphics/SVG/1.1/DTD/svg11.dtd">
<!-- Created with matplotlib (http://matplotlib.org/) -->
<svg height="432pt" version="1.1" viewBox="0 0 576 432" width="576pt" xmlns="http://www.w3.org/2000/svg" xmlns:xlink="http://www.w3.org/1999/xlink">
 <defs>
  <style type="text/css">
*{stroke-linecap:butt;stroke-linejoin:round;stroke-miterlimit:100000;}
  </style>
 </defs>
 <g id="figure_1">
  <g id="patch_1">
   <path d="M 0 432 
L 576 432 
L 576 0 
L 0 0 
z
" style="fill:#ffffff;"/>
  </g>
  <g id="axes_1">
   <g id="patch_2">
    <path d="M 72 388.8 
L 518.4 388.8 
L 518.4 43.2 
L 72 43.2 
z
" style="fill:#ffffff;"/>
   </g>
   <g id="line2d_1">
    <path clip-path="url(#pd763d2c828)" d="M 72.1488 280.855117 
L 91.7904 280.855117 
L 91.9392 233.790368 
L 92.5344 229.96561 
L 92.6832 227.956489 
L 92.832 227.762735 
L 93.7248 219.984004 
L 94.0224 217.804839 
L 96.1056 199.076644 
L 96.2544 198.309467 
L 96.552 194.961063 
L 96.7008 194.801429 
L 97.1472 190.100851 
L 97.296 189.345206 
L 102.0576 145.092225 
L 102.504 140.509948 
L 105.0336 118.758918 
L 105.1824 118.066333 
L 105.6288 114.777393 
L 105.9264 113.411163 
L 106.0752 111.500457 
L 106.224 111.433257 
L 106.6704 108.163795 
L 106.8192 107.491397 
L 106.968 105.590774 
L 107.1168 105.534114 
L 107.2656 103.634624 
L 107.4144 103.57928 
L 107.5632 102.916576 
L 107.8608 99.749595 
L 108.0096 100.317794 
L 108.1584 99.043231 
L 108.3072 99.043231 
L 108.456 98.383571 
L 108.7536 94.564929 
L 108.9024 95.143211 
L 109.0512 94.493095 
L 109.6464 90.056266 
L 110.2416 87.498145 
L 110.5392 85.608497 
L 111.432 81.834899 
L 111.5808 82.440795 
L 112.176 79.963882 
L 112.3248 78.127299 
L 112.4736 78.741882 
L 112.6224 78.131671 
L 112.92 75.688403 
L 113.0688 76.310939 
L 113.3664 73.884631 
L 114.1104 70.908733 
L 114.2592 72.151504 
L 114.408 70.338725 
L 114.5568 70.970588 
L 114.7056 69.165809 
L 114.8544 69.804836 
L 115.152 68.641223 
L 115.4496 66.259078 
L 115.5984 65.679321 
L 115.7472 66.936568 
L 116.0448 65.792056 
L 116.1936 64.001468 
L 116.3424 64.649661 
L 116.4912 64.694728 
L 116.64 62.913192 
L 116.7888 63.56824 
L 116.9376 61.788158 
L 117.0864 62.450301 
L 117.2352 62.503585 
L 117.6816 60.847923 
L 117.8304 59.085509 
L 117.9792 60.362796 
L 118.2768 59.272025 
L 118.4256 59.34077 
L 118.872 57.72895 
L 119.0208 57.798907 
L 119.1696 57.269481 
L 119.3184 57.346317 
L 119.4672 55.606162 
L 119.616 56.289706 
L 119.7648 54.550983 
L 119.9136 54.629707 
L 120.0624 54.103244 
L 120.2112 54.188823 
L 120.36 55.483298 
L 120.5088 54.964297 
L 120.6576 55.056045 
L 120.8064 54.544311 
L 120.9552 54.636459 
L 121.104 54.125583 
L 121.2528 52.408626 
L 121.4016 54.317111 
L 121.5504 52.608669 
L 121.6992 53.913203 
L 121.848 52.206535 
L 121.9968 53.51052 
L 122.1456 51.812 
L 122.2944 53.12181 
L 122.4432 51.425063 
L 122.592 53.341171 
L 122.7408 51.652904 
L 122.8896 51.652904 
L 123.0384 51.766818 
L 123.1872 51.401271 
L 123.336 51.401271 
L 123.6336 51.642513 
L 123.7824 51.164161 
L 124.2288 51.673309 
L 124.3776 51.203117 
L 125.4192 52.152621 
L 125.568 51.697833 
L 126.4608 52.583526 
L 126.6096 54.512485 
L 126.9072 54.828124 
L 127.056 53.212825 
L 127.2048 55.143523 
L 128.2464 56.307948 
L 128.3952 54.714313 
L 128.544 56.647197 
L 128.6928 56.816661 
L 128.8416 55.226081 
L 129.1392 55.566886 
L 129.288 57.493968 
L 129.4368 57.663078 
L 129.5856 56.077579 
L 129.7344 58.001193 
L 129.8832 56.417731 
L 130.032 58.338966 
L 130.1808 56.757541 
L 130.3296 59.259025 
L 130.4784 57.679969 
L 131.52 58.863631 
L 131.6688 59.612178 
L 132.264 60.285262 
L 132.4128 61.031085 
L 132.5616 61.031085 
L 132.7104 61.198718 
L 132.8592 61.533847 
L 133.008 61.533847 
L 133.1568 61.868655 
L 133.3056 62.611285 
L 133.4544 62.778117 
L 133.6032 64.667331 
L 133.752 63.111678 
L 133.9008 63.278304 
L 134.0496 64.018176 
L 134.3472 64.350387 
L 134.496 66.802821 
L 134.6448 65.253955 
L 135.0912 65.750262 
L 135.24 66.485419 
L 135.3888 68.357536 
L 135.5376 66.815101 
L 135.6864 66.979793 
L 135.8352 69.415931 
L 135.984 67.876895 
L 136.2816 68.205089 
L 136.4304 70.6338 
L 136.728 70.95872 
L 136.8768 71.685535 
L 137.0256 70.154292 
L 137.1744 72.009311 
L 137.3232 70.480106 
L 137.472 70.642852 
L 137.6208 73.056834 
L 137.7696 71.531028 
L 137.9184 71.693202 
L 138.0672 72.417178 
L 138.5136 72.902076 
L 138.6624 73.623729 
L 138.8112 75.462749 
L 138.96 73.945754 
L 139.1088 76.340625 
L 139.2576 76.499984 
L 139.4064 77.216487 
L 139.704 77.534175 
L 139.8528 78.248779 
L 140.2992 78.565322 
L 140.448 79.278026 
L 140.5968 77.931331 
L 140.8944 78.248618 
L 141.0432 78.960349 
L 141.3408 79.276481 
L 141.4896 79.986312 
L 141.6384 80.143863 
L 141.7872 80.852184 
L 142.0848 81.166209 
L 142.2336 81.872676 
L 142.3824 83.675372 
L 142.5312 82.1855 
L 142.68 82.890079 
L 142.8288 85.235179 
L 142.9776 85.38956 
L 143.1264 83.904437 
L 143.2752 86.243667 
L 143.424 86.397464 
L 143.5728 84.91574 
L 143.7216 85.07043 
L 143.8704 85.769756 
L 144.168 86.078117 
L 144.3168 88.404151 
L 144.4656 86.929202 
L 144.6144 89.250854 
L 144.7632 89.402923 
L 144.912 90.095622 
L 145.2096 90.39865 
L 145.3584 88.930476 
L 145.5072 91.240398 
L 145.656 89.774604 
L 145.8048 89.926547 
L 145.9536 90.616809 
L 146.1024 92.918044 
L 146.2512 91.457 
L 146.5488 91.758792 
L 146.6976 92.445655 
L 146.8464 92.596008 
L 146.9952 93.281451 
L 147.2928 93.581035 
L 147.4416 94.264579 
L 147.5904 94.413856 
L 147.7392 95.095889 
L 148.0368 95.393356 
L 148.1856 96.073489 
L 148.3344 98.344169 
L 148.4832 98.490836 
L 148.632 97.048103 
L 148.7808 97.195674 
L 148.9296 97.872501 
L 149.0784 100.132915 
L 149.2272 98.69493 
L 149.376 98.841541 
L 149.5248 99.515437 
L 149.8224 99.807536 
L 149.9712 100.479533 
L 150.12 102.725402 
L 150.2688 102.869415 
L 150.4176 101.440585 
L 150.5664 103.680595 
L 150.7152 103.824023 
L 150.864 104.489841 
L 151.0128 104.632777 
L 151.1616 105.297084 
L 151.3104 105.439506 
L 151.4592 106.102393 
L 151.7568 106.386127 
L 151.9056 107.047115 
L 152.0544 105.631171 
L 152.2032 105.773536 
L 152.352 106.434375 
L 152.6496 106.718028 
L 152.7984 107.376968 
L 152.9472 107.518256 
L 153.2448 108.972572 
L 153.5424 109.112842 
L 153.6912 109.767444 
L 153.84 109.907176 
L 153.9888 110.560302 
L 154.2864 110.838725 
L 154.4352 111.489963 
L 154.584 111.628654 
L 154.7328 112.278426 
L 154.8816 112.416568 
L 155.0304 113.064876 
L 155.1792 113.20256 
L 155.328 113.849403 
L 155.6256 114.123649 
L 155.7744 114.768592 
L 155.9232 114.905154 
L 156.072 115.548633 
L 156.2208 115.684737 
L 156.3696 116.326751 
L 156.5184 116.462306 
L 156.6672 117.102855 
L 156.9648 117.372924 
L 157.1136 118.011584 
L 157.2624 118.146098 
L 157.4112 118.917258 
L 157.56 117.544379 
L 157.7088 118.315986 
L 157.8576 116.945476 
L 158.0064 117.58242 
L 158.1552 117.717448 
L 158.304 118.352973 
L 158.4528 118.487498 
L 158.6016 117.757102 
L 158.7504 117.892142 
L 158.8992 117.164058 
L 159.3456 117.207923 
L 159.4944 115.986266 
L 159.6432 116.620326 
L 159.792 116.620326 
L 159.9408 118.020591 
L 160.0896 116.668391 
L 160.2384 116.804576 
L 160.3872 117.436073 
L 160.536 118.695815 
L 160.8336 116.138519 
L 160.9824 116.769122 
L 161.1312 118.02732 
L 161.28 118.162795 
L 161.4288 116.821788 
L 161.7264 118.077708 
L 161.8752 117.367236 
L 162.024 117.503375 
L 162.1728 118.129642 
L 162.3216 117.421745 
L 162.6192 118.671931 
L 162.768 118.807281 
L 163.6608 122.530421 
L 163.8096 122.530421 
L 164.1072 125.212676 
L 164.4048 126.437812 
L 164.5536 126.56776 
L 165 128.396388 
L 165.1488 128.524871 
L 165.2976 131.044048 
L 165.4464 131.044048 
L 165.5952 131.647655 
L 165.744 131.773837 
L 165.8928 132.37598 
L 166.0416 133.577254 
L 166.1904 132.277618 
L 166.3392 132.403354 
L 166.6368 133.602363 
L 166.7856 133.727161 
L 167.0832 134.92118 
L 167.232 134.92118 
L 167.5296 137.522525 
L 167.6784 138.114173 
L 167.8272 138.114173 
L 168.1248 140.698283 
L 168.2736 141.284976 
L 168.5712 141.284976 
L 168.8688 143.851852 
L 169.0176 143.969068 
L 169.3152 146.520602 
L 169.464 146.520602 
L 169.7616 147.788951 
L 170.0592 147.903123 
L 170.3568 150.429738 
L 170.5056 150.54189 
L 170.6544 151.112207 
L 170.8032 151.112207 
L 170.952 153.61955 
L 171.1008 152.360603 
L 171.2496 153.037744 
L 171.3984 151.781165 
L 171.5472 152.458713 
L 171.696 152.569429 
L 171.8448 151.316243 
L 171.9936 151.882463 
L 172.1424 150.742877 
L 172.2912 150.742877 
L 172.44 153.122098 
L 172.5888 153.232391 
L 172.7376 153.794576 
L 172.8864 153.794576 
L 173.184 156.266929 
L 173.3328 156.374761 
L 173.4816 156.93163 
L 173.6304 156.93163 
L 173.7792 158.831693 
L 173.928 158.937499 
L 174.0768 159.490163 
L 174.2256 159.490163 
L 174.3744 161.37909 
L 174.8208 161.482946 
L 175.1184 163.155265 
L 175.2672 163.206603 
L 175.416 163.684348 
L 175.5648 163.736488 
L 175.7136 162.510808 
L 175.8624 162.989331 
L 176.0112 163.042249 
L 176.16 163.521453 
L 176.3088 163.575097 
L 176.4576 164.054908 
L 176.6064 164.109273 
L 176.7552 164.589616 
L 176.904 164.644782 
L 177.0528 165.125732 
L 177.2016 165.18155 
L 177.3504 165.663175 
L 177.4992 165.719714 
L 177.648 167.477624 
L 177.7968 166.259544 
L 178.0944 168.500886 
L 178.2432 168.559468 
L 178.392 169.043336 
L 178.5408 169.102639 
L 178.6896 167.887803 
L 178.8384 168.432588 
L 178.9872 167.218839 
L 179.2848 168.189819 
L 179.4336 167.039235 
L 179.5824 167.525649 
L 179.7312 167.587888 
L 180.0288 168.562301 
L 180.1776 168.625724 
L 180.3264 169.177718 
L 180.4752 169.177718 
L 180.624 169.666318 
L 180.7728 169.731103 
L 181.0704 170.709739 
L 181.2192 170.775634 
L 181.368 171.265739 
L 181.5168 171.332349 
L 181.6656 171.82298 
L 181.9632 174.076127 
L 182.2608 174.144437 
L 182.4096 174.636401 
L 182.5584 174.705495 
L 182.7072 175.198055 
L 182.856 175.267783 
L 183.1536 176.254476 
L 183.3024 176.254476 
L 183.4512 178.01698 
L 183.6 178.088403 
L 183.7488 178.582959 
L 183.8976 178.655097 
L 184.0464 179.150163 
L 184.1952 179.223085 
L 184.344 179.718745 
L 184.4928 179.792302 
L 184.6416 180.288627 
L 184.7904 182.051892 
L 185.088 182.126817 
L 185.2368 181.433442 
L 185.3856 182.007209 
L 185.5344 182.08361 
L 185.6832 180.894506 
L 185.832 181.393342 
L 185.9808 180.282539 
L 186.1296 180.782056 
L 186.2784 179.673232 
L 186.576 180.67407 
L 186.7248 179.568153 
L 186.8736 180.069478 
L 187.0224 180.149656 
L 187.32 181.153783 
L 187.4688 181.235053 
L 187.9152 182.826904 
L 188.2128 182.90997 
L 188.3616 183.918824 
L 188.6592 184.002973 
L 188.808 184.508138 
L 188.9568 184.592916 
L 189.1056 185.604785 
L 189.4032 185.690719 
L 189.552 185.02263 
L 189.7008 185.529729 
L 189.8496 185.616876 
L 189.9984 186.124553 
L 190.1472 187.893069 
L 190.296 186.721099 
L 190.4448 187.22966 
L 191.04 192.791045 
L 191.3376 199.353028 
L 191.4864 199.353028 
L 191.9328 205.365118 
L 195.504 243.380445 
L 195.6528 243.380445 
L 195.8016 247.058073 
L 195.9504 247.058073 
L 196.5456 252.760028 
L 197.4384 260.919043 
L 197.736 264.200052 
L 197.8848 264.200052 
L 199.8192 279.398516 
L 200.1168 281.457711 
L 200.712 286.418445 
L 200.8608 286.418445 
L 201.6048 291.809482 
L 201.7536 292.642909 
L 201.9024 292.642909 
L 202.0512 295.137241 
L 202.2 295.137241 
L 202.7952 299.310392 
L 205.6224 315.323863 
L 205.7712 315.323863 
L 206.664 320.035968 
L 206.8128 320.035968 
L 207.5568 323.906074 
L 207.7056 324.351529 
L 208.4496 328.252105 
L 208.5984 328.252105 
L 208.7472 328.704084 
L 209.1936 330.886621 
L 209.3424 331.340705 
L 209.64 332.661639 
L 209.7888 332.661639 
L 209.9376 333.116908 
L 210.2352 334.440166 
L 210.384 334.896602 
L 210.6816 336.222057 
L 210.8304 336.680049 
L 211.128 338.008571 
L 212.3184 341.692687 
L 212.4672 341.74351 
L 212.7648 342.668365 
L 212.9136 342.720035 
L 213.36 344.111762 
L 213.6576 344.219737 
L 213.9552 345.150737 
L 214.104 345.206905 
L 214.5504 346.609641 
L 214.6992 346.667079 
L 214.848 347.135623 
L 214.9968 347.193496 
L 215.2944 348.131889 
L 215.4432 348.191444 
L 215.7408 349.13391 
L 215.8896 349.194736 
L 216.0384 349.667022 
L 216.1872 349.729106 
L 216.336 350.198383 
L 216.4848 350.256633 
L 216.7824 351.196124 
L 216.9312 351.256183 
L 217.2288 352.199783 
L 217.3776 352.26142 
L 217.6752 353.208408 
L 217.824 353.271156 
L 218.1216 354.220695 
L 218.2704 354.285365 
L 218.4192 354.760993 
L 218.568 354.826328 
L 218.7168 355.303249 
L 218.8656 355.369258 
L 219.1632 356.325263 
L 219.312 356.392978 
L 219.6096 357.351581 
L 219.7584 357.420623 
L 220.056 358.382281 
L 220.2048 358.453098 
L 220.3536 358.935237 
L 220.5024 359.006557 
L 220.8 359.968696 
L 220.9488 360.037303 
L 221.0976 360.517291 
L 221.2464 360.586482 
L 221.544 361.548656 
L 221.6928 361.619575 
L 221.9904 362.584415 
L 222.1392 362.656696 
L 222.288 363.140231 
L 222.4368 363.213462 
L 222.7344 364.183681 
L 222.8832 364.258674 
L 223.3296 365.718288 
L 223.6272 365.872028 
L 224.0736 367.337215 
L 224.2224 367.416373 
L 224.3712 367.906707 
L 224.52 367.986392 
L 224.6688 368.476794 
L 224.8176 368.557338 
L 225.1152 369.541312 
L 225.264 369.20861 
L 225.4128 369.697318 
L 225.5616 369.364707 
L 225.7104 369.853553 
L 225.8592 369.521823 
L 226.008 370.011584 
L 226.1568 369.680736 
L 226.3056 370.171436 
L 226.4544 369.430156 
L 226.6032 369.921394 
L 226.752 369.587363 
L 226.9008 370.075042 
L 227.1984 369.409476 
L 227.3472 368.665233 
L 227.496 369.153987 
L 227.7936 367.658851 
L 227.9424 368.144904 
L 228.5376 366.803016 
L 228.8352 365.7187 
L 229.2816 364.705165 
L 229.728 362.451457 
L 229.8768 362.933871 
L 230.1744 361.017043 
L 230.3232 361.497134 
L 230.6208 360.809917 
L 230.9184 359.707999 
L 231.3648 358.668464 
L 231.5136 357.081649 
L 231.8112 356.382621 
L 232.1088 355.274135 
L 232.5552 354.220191 
L 232.704 353.456699 
L 232.8528 353.931228 
L 233.448 352.522655 
L 233.7456 350.572364 
L 233.8944 351.041148 
L 234.192 350.32722 
L 234.936 346.881713 
L 235.0848 347.348918 
L 235.5312 346.273265 
L 235.8288 345.134887 
L 236.2752 344.046325 
L 236.5728 342.075721 
L 236.7216 342.539035 
L 237.0192 341.025085 
L 237.168 341.025085 
L 237.7632 339.559406 
L 238.0608 338.405395 
L 238.5072 337.29874 
L 238.8048 336.139144 
L 239.4 334.6491 
L 239.9952 331.907966 
L 240.4416 330.775567 
L 240.5904 331.229629 
L 240.7392 329.608957 
L 240.888 330.059024 
L 241.1856 328.468536 
L 241.3344 328.088735 
L 241.4832 328.539804 
L 241.7808 326.946157 
L 241.9296 327.394897 
L 242.376 325.000369 
L 242.5248 325.445842 
L 242.6736 324.228036 
L 242.8224 324.675054 
L 242.9712 324.290349 
L 243.12 323.074111 
L 243.2688 323.520454 
L 243.4176 323.132293 
L 243.7152 321.525428 
L 244.0128 320.750961 
L 244.3104 319.553371 
L 244.4592 319.994312 
L 246.2448 315.285382 
L 246.3936 314.058198 
L 246.5424 314.497428 
L 246.6912 313.268607 
L 246.84 313.70382 
L 246.9888 312.471589 
L 247.1376 312.907747 
L 247.2864 311.671556 
L 247.4352 311.688533 
L 247.7328 310.888345 
L 247.8816 311.323512 
L 248.1792 310.524995 
L 248.4768 308.882516 
L 248.6256 309.313792 
L 248.9232 307.674569 
L 249.3696 306.456901 
L 249.5184 306.88725 
L 249.6672 305.647071 
L 249.816 305.661336 
L 250.1136 304.842282 
L 250.2624 305.270349 
L 250.56 303.619596 
L 250.7088 303.212032 
L 250.8576 303.640779 
L 251.304 302.412009 
L 251.4528 302.420129 
L 252.4944 299.539737 
L 252.6432 299.54384 
L 253.0896 298.299123 
L 253.2384 298.299123 
L 253.536 297.055488 
L 253.6848 297.059116 
L 254.4288 294.969344 
L 254.5776 294.971404 
L 255.1728 293.290038 
L 255.3216 292.450517 
L 255.4704 292.868736 
L 255.6192 291.607648 
L 255.768 292.024253 
L 255.9168 291.60192 
L 256.0656 291.598619 
L 256.512 290.334087 
L 256.6608 290.328021 
L 256.9584 289.477599 
L 257.1072 288.633203 
L 257.256 289.049092 
L 257.5536 287.357095 
L 257.7024 287.34945 
L 257.8512 287.762159 
L 258.1488 286.911193 
L 258.2976 286.060142 
L 258.4464 286.469348 
L 258.8928 285.178655 
L 259.0416 285.170341 
L 259.3392 284.308858 
L 259.488 284.29726 
L 259.9344 283.001199 
L 260.0832 282.149721 
L 260.232 282.559903 
L 260.3808 282.128967 
L 260.5296 282.114906 
L 260.8272 281.245455 
L 260.976 281.230941 
L 261.2736 280.363811 
L 261.4224 280.347723 
L 261.5712 279.06949 
L 261.72 279.47393 
L 261.8688 279.457464 
L 262.1664 278.58636 
L 262.3152 278.572267 
L 262.464 277.290563 
L 262.6128 277.692774 
L 262.7616 277.6738 
L 263.0592 276.79445 
L 263.208 276.778125 
L 263.3568 276.336781 
L 263.5056 276.316725 
L 263.8032 275.432941 
L 263.952 274.569172 
L 264.1008 274.971418 
L 264.2496 274.531658 
L 264.3984 274.512495 
L 264.5472 274.068785 
L 264.696 274.045802 
L 264.8448 272.759958 
L 264.9936 272.738309 
L 265.1424 272.295225 
L 265.2912 272.273596 
L 265.5888 271.384708 
L 265.7376 271.782006 
L 265.8864 271.75749 
L 266.184 270.446286 
L 266.3328 270.422886 
L 266.4816 270.821718 
L 266.7792 269.928991 
L 266.928 269.902503 
L 267.0768 269.455234 
L 267.2256 269.430486 
L 267.3744 268.561622 
L 267.5232 268.958715 
L 267.672 268.511425 
L 267.8208 268.483024 
L 268.1184 269.273204 
L 268.2672 269.247455 
L 268.7136 270.438822 
L 268.8624 270.414097 
L 269.0112 270.812051 
L 269.16 270.788327 
L 269.4576 271.586338 
L 269.6064 271.586338 
L 269.904 272.365372 
L 270.0528 272.344203 
L 270.3504 273.147292 
L 270.4992 273.127156 
L 270.648 273.529679 
L 270.7968 273.510568 
L 270.9456 274.317763 
L 271.0944 274.299695 
L 271.392 275.109379 
L 271.6896 275.092882 
L 271.9872 275.905173 
L 272.2848 275.866323 
L 272.5824 276.674038 
L 272.7312 276.656394 
L 273.0288 277.466948 
L 273.1776 277.450897 
L 273.3264 277.856962 
L 273.4752 277.840941 
L 273.9216 279.064343 
L 274.0704 279.050444 
L 274.2192 279.45917 
L 274.368 279.445909 
L 274.8144 280.675848 
L 274.9632 280.664662 
L 275.112 281.076082 
L 275.2608 281.065548 
L 275.4096 281.478056 
L 275.5584 281.478056 
L 276.0048 282.708762 
L 276.1536 282.701424 
L 276.4512 283.527015 
L 276.6 283.51588 
L 276.7488 283.927312 
L 276.8976 283.916835 
L 277.1952 284.741903 
L 277.344 284.732976 
L 277.6416 285.560258 
L 277.7904 285.552945 
L 278.088 286.383008 
L 278.2368 286.376897 
L 278.3856 286.79333 
L 278.5344 286.7879 
L 278.832 287.622455 
L 278.9808 287.61861 
L 279.2784 288.456569 
L 279.4272 288.453874 
L 279.7248 289.294116 
L 279.8736 289.293155 
L 280.0224 289.714709 
L 280.1712 289.713874 
L 280.4688 290.558711 
L 280.6176 290.560073 
L 280.9152 291.407811 
L 281.064 291.405305 
L 281.2128 291.825292 
L 281.3616 291.835981 
L 281.6592 292.67846 
L 281.808 292.67846 
L 282.1056 293.536584 
L 282.2544 293.551107 
L 282.552 294.398673 
L 282.7008 294.415153 
L 282.8496 294.840221 
L 282.9984 294.857541 
L 283.296 295.708747 
L 283.4448 295.727475 
L 283.7424 296.583614 
L 283.8912 296.604814 
L 284.1888 297.462726 
L 284.3376 297.484779 
L 284.4864 297.914819 
L 284.6352 297.938188 
L 284.9328 298.800901 
L 285.0816 298.825711 
L 285.3792 299.692155 
L 285.528 299.718969 
L 285.6768 300.153215 
L 285.8256 300.180824 
L 285.9744 300.610744 
L 286.1232 300.63449 
L 286.4208 301.497461 
L 286.5696 301.114679 
L 286.7184 301.13989 
L 286.8672 301.598289 
L 287.016 301.215913 
L 287.3136 301.269551 
L 287.4624 301.705497 
L 287.6112 301.325107 
L 287.76 301.347131 
L 288.0576 300.574552 
L 288.2064 300.597657 
L 288.9504 298.655589 
L 289.0992 297.872338 
L 289.248 298.304136 
L 289.3968 297.912965 
L 289.8432 295.911205 
L 289.992 296.340816 
L 290.5872 294.740394 
L 290.736 295.167819 
L 290.8848 293.518783 
L 291.0336 293.967912 
L 291.1824 293.15093 
L 291.3312 293.576604 
L 291.6288 292.761235 
L 291.9264 291.106952 
L 292.0752 291.530383 
L 292.224 290.703382 
L 292.3728 291.128329 
L 292.6704 290.301505 
L 292.968 289.043353 
L 293.1168 288.623429 
L 293.2656 288.623429 
L 293.5632 286.937801 
L 293.712 286.512166 
L 294.0096 285.238851 
L 294.1584 285.238851 
L 294.456 283.529355 
L 294.7536 282.666797 
L 294.9024 282.666797 
L 295.2 280.514821 
L 295.4976 279.639139 
L 295.6464 279.639139 
L 295.7952 279.198276 
L 296.0928 277.45526 
L 296.3904 277.426204 
L 296.688 275.669524 
L 296.8368 275.220003 
L 296.9856 275.220003 
L 297.5808 272.115204 
L 297.7296 271.661523 
L 297.8784 271.661523 
L 298.176 269.882542 
L 298.4736 269.855725 
L 298.7712 268.062413 
L 298.92 267.601125 
L 299.0688 267.551131 
L 299.664 265.683118 
L 299.8128 265.62439 
L 299.9616 265.153606 
L 300.1104 265.153606 
L 300.408 263.769543 
L 300.5568 263.29655 
L 300.7056 263.29655 
L 300.8544 262.825102 
L 301.152 260.986526 
L 301.3008 260.065122 
L 301.5984 260.065122 
L 301.7472 259.107841 
L 302.0448 258.989095 
L 302.64 257.053373 
L 302.7888 257.008405 
L 303.2352 255.539277 
L 303.384 255.897885 
L 303.5328 255.897885 
L 303.6816 254.511011 
L 303.9792 254.413295 
L 304.128 253.871531 
L 304.2768 252.480424 
L 304.4256 252.881251 
L 304.5744 252.833899 
L 304.872 251.832113 
L 305.0208 252.178854 
L 305.4672 250.67718 
L 305.616 250.6263 
L 305.9136 249.614466 
L 306.0624 249.560003 
L 306.36 248.549871 
L 306.5088 248.496018 
L 306.8064 247.471999 
L 307.104 247.41366 
L 307.2528 246.902114 
L 307.5504 245.42524 
L 307.6992 245.361962 
L 307.9968 244.328774 
L 308.1456 244.328774 
L 308.2944 243.356066 
L 308.4432 243.293844 
L 308.7408 242.25358 
L 308.8896 242.25358 
L 309.0384 241.273955 
L 309.1872 241.208504 
L 309.4848 240.161877 
L 309.6336 240.09728 
L 309.7824 239.503361 
L 309.9312 239.891663 
L 310.08 239.294768 
L 310.2288 239.684958 
L 310.3776 239.157083 
L 310.5264 239.089402 
L 310.824 238.033527 
L 310.9728 237.960541 
L 311.2704 236.821603 
L 311.568 236.7499 
L 311.7168 236.216691 
L 311.8656 236.14607 
L 312.1632 235.068086 
L 312.4608 234.992127 
L 312.7584 233.452138 
L 312.9072 233.376364 
L 313.056 232.831823 
L 313.2048 232.752433 
L 313.3536 232.20785 
L 313.5024 232.12885 
L 313.6512 231.584835 
L 313.8 230.574839 
L 313.9488 230.574839 
L 314.0976 230.028907 
L 314.2464 229.944331 
L 314.3952 229.394257 
L 314.544 229.311074 
L 314.6928 228.75969 
L 314.8416 228.677587 
L 314.9904 227.576975 
L 315.4368 228.737492 
L 315.5856 228.653002 
L 315.7344 229.421253 
L 316.032 229.338277 
L 316.3296 230.108756 
L 316.4784 230.027304 
L 316.6272 230.413664 
L 316.776 230.332393 
L 317.0736 231.108069 
L 317.2224 231.028893 
L 317.52 231.80755 
L 317.6688 231.729927 
L 318.264 233.218048 
L 318.4128 233.142325 
L 318.7104 233.928595 
L 318.8592 233.854934 
L 319.1568 234.644261 
L 319.3056 234.572236 
L 319.6032 235.363905 
L 319.752 235.293488 
L 320.0496 236.088253 
L 320.1984 236.013512 
L 320.6448 237.11798 
L 320.7936 237.906317 
L 320.9424 237.834114 
L 321.24 238.624821 
L 321.3888 238.553755 
L 321.6864 239.347593 
L 321.8352 239.278693 
L 321.984 239.676811 
L 322.1328 239.608173 
L 322.2816 240.007876 
L 322.728 239.940793 
L 323.0256 241.079088 
L 323.6208 242.627579 
L 323.7696 242.564651 
L 323.9184 243.373325 
L 324.0672 243.373325 
L 324.3648 244.530814 
L 324.5136 244.937055 
L 324.6624 244.877698 
L 324.96 245.693471 
L 325.1088 245.629744 
L 325.2576 246.033145 
L 325.4064 245.97024 
L 325.704 247.183264 
L 326.7456 249.854414 
L 326.8944 250.26287 
L 327.0432 251.082202 
L 327.192 251.026757 
L 327.3408 251.436899 
L 327.4896 251.382308 
L 328.2336 253.391657 
L 328.3824 253.340744 
L 328.68 254.170482 
L 328.8288 254.12134 
L 328.9776 254.537527 
L 329.1264 254.489306 
L 329.424 255.32378 
L 329.5728 255.277392 
L 329.8704 256.103275 
L 330.0192 256.052378 
L 330.3168 256.881755 
L 330.4656 256.831847 
L 330.6144 257.247873 
L 330.7632 257.199661 
L 331.0608 258.03384 
L 331.2096 257.987524 
L 331.8048 259.622419 
L 332.1024 259.578991 
L 332.2512 260.424512 
L 332.5488 260.382979 
L 332.6976 260.807125 
L 332.8464 260.766479 
L 333.144 261.616984 
L 333.2928 261.5783 
L 334.0368 263.683626 
L 334.1856 263.648936 
L 334.4832 264.456371 
L 334.632 265.305989 
L 334.7808 265.267758 
L 335.6736 267.799972 
L 335.8224 267.765894 
L 335.9712 268.195734 
L 336.12 268.162626 
L 336.4176 269.02554 
L 336.5664 268.994397 
L 336.864 269.861751 
L 337.0128 269.832668 
L 337.3104 270.702972 
L 337.4592 270.675932 
L 337.608 271.112564 
L 337.7568 271.086526 
L 338.0544 271.962185 
L 338.2032 271.938213 
L 338.5008 272.818426 
L 338.6496 272.796499 
L 338.9472 273.68071 
L 339.096 273.653187 
L 339.2448 274.090037 
L 339.5424 274.064488 
L 339.6912 274.503337 
L 339.84 274.47881 
L 340.1376 275.359261 
L 340.2864 275.336842 
L 340.4352 275.778755 
L 340.7328 275.758313 
L 341.0304 276.646226 
L 341.1792 276.627973 
L 341.328 277.073989 
L 341.6256 277.05779 
L 341.7744 277.504879 
L 341.9232 277.489747 
L 342.2208 278.38749 
L 342.3696 278.38749 
L 342.5184 277.911762 
L 342.6672 278.362502 
L 342.9648 278.338616 
L 343.1136 278.784578 
L 343.2624 278.784578 
L 343.4112 278.304916 
L 343.8576 278.256725 
L 344.0064 277.777772 
L 344.304 277.762503 
L 344.4528 276.818694 
L 344.7504 276.785049 
L 345.048 275.813814 
L 345.1968 275.813814 
L 345.4944 274.377292 
L 345.792 273.3974 
L 345.9408 273.3974 
L 346.0896 271.473949 
L 346.2384 271.473949 
L 346.6848 269.979968 
L 346.8336 269.979968 
L 347.1312 268.037763 
L 347.28 267.537728 
L 347.5776 266.049575 
L 347.7264 266.049575 
L 348.024 264.087657 
L 348.768 261.51308 
L 348.9168 261.51308 
L 349.0656 259.522964 
L 349.2144 259.522964 
L 351.5952 251.020999 
L 351.744 249.510671 
L 351.8928 249.450488 
L 352.1904 248.364805 
L 352.3392 248.364805 
L 352.9344 246.162954 
L 353.0832 246.09823 
L 353.6784 243.877044 
L 353.8272 243.807275 
L 354.2736 242.130024 
L 354.4224 242.054349 
L 354.5712 241.491153 
L 354.72 239.947597 
L 354.8688 239.873097 
L 355.0176 239.309707 
L 355.1664 239.309707 
L 355.464 238.167729 
L 355.6128 238.087293 
L 355.9104 236.94661 
L 356.208 236.86834 
L 356.3568 235.3053 
L 356.5056 235.221224 
L 356.8032 234.066168 
L 356.952 233.982559 
L 357.2496 232.820504 
L 357.3984 232.820504 
L 357.5472 231.741198 
L 357.696 231.652444 
L 357.9936 230.483848 
L 358.1424 230.396627 
L 358.2912 229.805282 
L 358.5888 229.711546 
L 358.7376 228.127357 
L 358.8864 228.033982 
L 359.0352 227.442923 
L 359.184 227.348982 
L 359.3328 226.751849 
L 359.4816 226.751849 
L 359.7792 225.057918 
L 359.928 224.95947 
L 360.2256 223.762822 
L 360.3744 223.659834 
L 360.5232 223.054959 
L 360.672 222.952728 
L 360.9696 221.745483 
L 361.1184 221.641761 
L 361.2672 221.037032 
L 361.416 219.924172 
L 361.5648 220.319102 
L 361.7136 219.708958 
L 361.8624 219.601431 
L 362.0112 218.989156 
L 362.3088 217.254771 
L 362.4576 217.645451 
L 362.6064 216.521968 
L 362.7552 216.914519 
L 363.0528 215.170181 
L 363.2016 215.56515 
L 363.3504 215.446293 
L 363.648 214.194445 
L 363.7968 214.07774 
L 363.9456 213.452512 
L 364.0944 213.334134 
L 364.392 212.085202 
L 364.5408 211.969 
L 364.6896 211.338541 
L 364.8384 211.215648 
L 364.9872 210.073687 
L 365.136 210.462025 
L 365.4336 209.200846 
L 365.5824 209.078766 
L 365.7312 208.439453 
L 365.88 208.309694 
L 366.0288 207.671254 
L 366.1776 207.543501 
L 366.4752 206.265634 
L 366.624 206.139397 
L 366.7728 205.492542 
L 366.9216 205.359574 
L 367.0704 204.713589 
L 367.2192 204.581278 
L 367.368 203.935471 
L 367.5168 203.803909 
L 367.6656 203.158242 
L 367.8144 203.019943 
L 368.112 201.575968 
L 368.2608 201.575968 
L 368.4096 201.819392 
L 368.5584 201.819392 
L 368.7072 202.068361 
L 368.856 202.068361 
L 369.0048 202.834326 
L 369.1536 202.702387 
L 369.4512 203.472451 
L 369.6 203.472451 
L 369.7488 203.342873 
L 370.0464 204.116408 
L 370.1952 203.988036 
L 370.4928 204.75748 
L 370.6416 204.623862 
L 370.7904 205.00596 
L 370.9392 204.873457 
L 371.2368 205.640466 
L 371.3856 205.509131 
L 371.5344 205.894725 
L 371.6832 205.765713 
L 372.1296 206.927237 
L 372.2784 206.799549 
L 372.4272 207.1887 
L 372.576 207.062165 
L 372.8736 207.842561 
L 373.0224 207.717277 
L 373.1712 208.108525 
L 373.32 207.985546 
L 373.6176 208.771186 
L 373.7664 208.649527 
L 374.2128 209.836494 
L 374.3616 209.717415 
L 374.5104 210.115132 
L 374.6592 209.99726 
L 374.9568 210.787026 
L 375.1056 210.663807 
L 375.4032 211.449782 
L 375.552 211.327072 
L 375.8496 212.115567 
L 375.9984 211.994203 
L 376.296 212.786464 
L 376.4448 212.66764 
L 376.5936 213.065051 
L 376.7424 212.947461 
L 376.8912 213.345457 
L 377.04 213.229109 
L 377.4864 214.430903 
L 377.6352 214.317918 
L 377.784 214.720482 
L 377.9328 214.608101 
L 378.2304 215.418431 
L 378.3792 215.308133 
L 378.6768 216.121134 
L 378.8256 216.011501 
L 378.9744 216.419346 
L 379.1232 216.311004 
L 379.5696 217.537875 
L 379.7184 217.433065 
L 380.016 218.239185 
L 380.1648 218.12766 
L 380.3136 218.532722 
L 380.4624 218.422501 
L 380.76 219.234622 
L 380.9088 219.127081 
L 381.2064 219.943996 
L 381.3552 219.837885 
L 381.6528 220.6572 
L 381.8016 220.553866 
L 382.0992 221.379039 
L 382.248 221.27679 
L 382.3968 221.69147 
L 382.5456 221.590221 
L 382.8432 222.421684 
L 382.992 222.32329 
L 383.2896 223.158354 
L 383.4384 223.062149 
L 383.736 223.902905 
L 383.8848 223.807502 
L 384.0336 224.22934 
L 384.1824 224.13535 
L 384.48 224.965027 
L 384.6288 224.8655 
L 384.9264 225.697331 
L 385.0752 225.600114 
L 385.3728 226.434863 
L 385.5216 226.339123 
L 385.8192 227.178996 
L 385.968 227.084834 
L 386.1168 227.506978 
L 386.2656 227.414262 
L 386.5632 228.262258 
L 386.712 228.172946 
L 387.0096 229.026206 
L 387.3072 228.939578 
L 387.456 229.795895 
L 387.6048 229.795895 
L 387.9024 230.569393 
L 388.0512 230.485145 
L 388.2 230.915622 
L 388.3488 230.833725 
L 388.4976 231.267675 
L 388.6464 231.187313 
L 389.0928 232.487028 
L 389.2416 232.40114 
L 389.3904 232.829833 
L 389.5392 232.743902 
L 389.8368 233.605979 
L 389.9856 233.52327 
L 390.2832 234.390083 
L 390.432 234.310599 
L 390.7296 235.182203 
L 390.8784 235.1044 
L 391.0272 235.540243 
L 391.176 235.462444 
L 391.4736 236.340565 
L 391.6224 236.266017 
L 391.7712 236.70753 
L 391.92 236.634646 
L 392.3664 237.965014 
L 392.5152 237.896403 
L 392.8128 238.787757 
L 392.9616 238.7201 
L 393.2592 239.614842 
L 393.408 239.548912 
L 393.7056 240.448738 
L 394.0032 240.314637 
L 394.4496 241.646786 
L 394.5984 241.578652 
L 394.896 242.472106 
L 395.0448 242.405772 
L 395.3424 243.304402 
L 395.4912 243.241554 
L 395.7888 244.147153 
L 396.0864 244.027294 
L 396.384 244.936629 
L 396.5328 244.879188 
L 396.9792 246.253735 
L 397.128 246.200067 
L 397.4256 247.121871 
L 397.5744 247.070073 
L 397.7232 247.531912 
L 397.872 247.481982 
L 398.1696 248.410339 
L 398.3184 248.362355 
L 398.616 249.287564 
L 398.7648 249.234209 
L 399.0624 250.154973 
L 399.2112 250.103568 
L 399.5088 251.028508 
L 399.6576 250.978599 
L 399.8064 251.443893 
L 399.9552 251.395905 
L 400.2528 252.329461 
L 400.4016 252.285364 
L 400.6992 253.223635 
L 400.848 253.181565 
L 401.1456 254.125648 
L 401.2944 254.085625 
L 401.592 255.035582 
L 401.7408 254.999535 
L 401.8896 255.476503 
L 402.0384 255.442487 
L 402.1872 255.921462 
L 402.336 255.921462 
L 402.6336 256.852571 
L 402.7824 257.818575 
L 402.9312 257.789973 
L 403.2288 258.759199 
L 403.3776 258.721681 
L 403.6752 259.675408 
L 404.1216 259.610545 
L 404.4192 260.576598 
L 404.568 260.547259 
L 404.7168 261.032608 
L 404.8656 261.005431 
L 405.1632 261.980365 
L 405.312 261.95738 
L 405.6096 262.940825 
L 405.7584 262.920217 
L 405.9072 263.414112 
L 406.056 263.395127 
L 406.3536 264.387292 
L 406.5024 264.37323 
L 406.9488 265.872495 
L 407.0976 265.860873 
L 407.2464 266.361392 
L 407.3952 266.351038 
L 407.544 266.852873 
L 407.6928 266.834336 
L 408.1392 268.324583 
L 408.288 268.312667 
L 408.5856 269.310686 
L 408.7344 269.299205 
L 409.032 270.306328 
L 409.1808 270.298271 
L 409.4784 271.310035 
L 409.6272 271.304276 
L 409.776 271.812499 
L 409.9248 271.808173 
L 410.2224 272.834005 
L 410.3712 272.878001 
L 410.6688 273.951838 
L 410.8176 273.955809 
L 410.9664 274.472427 
L 411.1152 274.523187 
L 411.264 275.04187 
L 411.4128 275.096178 
L 411.5616 275.61792 
L 411.7104 275.675919 
L 412.008 275.56312 
L 412.752 275.714208 
L 412.9008 275.202142 
L 413.1984 275.138713 
L 413.3472 273.632482 
L 413.496 274.14427 
L 413.6448 274.139092 
L 413.9424 273.144695 
L 414.0912 271.518169 
L 414.24 272.021903 
L 414.3888 270.496987 
L 414.5376 271.003894 
L 414.8352 269.985756 
L 414.984 267.785795 
L 415.1328 268.283485 
L 415.8768 265.599001 
L 416.0256 264.000616 
L 416.1744 264.495333 
L 416.3232 262.405894 
L 416.472 262.902825 
L 416.7696 261.743092 
L 416.9184 260.164339 
L 417.0672 260.656063 
L 417.216 260.656063 
L 417.5136 258.925923 
L 419.0016 253.214766 
L 419.1504 251.534653 
L 419.2992 252.007785 
L 420.192 248.463981 
L 420.3408 248.683531 
L 421.3824 254.395471 
L 421.5312 254.395471 
L 421.8288 256.043486 
L 421.9776 255.369129 
L 424.2096 268.020617 
L 424.5072 270.362458 
L 424.656 270.295702 
L 424.8048 271.152799 
L 424.9536 273.032088 
L 425.1024 272.676362 
L 425.2512 274.483562 
L 425.4 274.099621 
L 425.5488 274.530883 
L 426.144 277.974971 
L 426.2928 277.326635 
L 426.5904 280.072945 
L 426.7392 280.322117 
L 426.888 278.450879 
L 427.0368 278.450879 
L 427.1856 278.766936 
L 427.632 281.068793 
L 427.7808 280.308164 
L 428.0784 280.308164 
L 428.5248 282.800824 
L 428.6736 283.119954 
L 428.8224 283.903995 
L 428.9712 283.903995 
L 429.12 282.977484 
L 429.5664 284.838027 
L 430.1616 287.272609 
L 430.4592 290.004165 
L 430.7568 290.411323 
L 430.9056 291.178472 
L 431.0544 290.075542 
L 431.352 292.779712 
L 431.5008 293.003118 
L 431.7984 291.926486 
L 431.9472 292.151597 
L 432.096 291.849176 
L 432.2448 293.803689 
L 432.3936 293.112649 
L 432.5424 293.492072 
L 432.6912 292.219861 
L 432.84 292.544267 
L 432.9888 293.31874 
L 433.1376 292.718257 
L 433.2864 292.949445 
L 433.584 294.863137 
L 433.7328 293.578544 
L 433.8816 293.721103 
L 434.0304 294.43082 
L 434.1792 293.135503 
L 434.328 294.133308 
L 434.4768 293.244348 
L 434.6256 294.056712 
L 434.7744 295.935025 
L 434.9232 296.174665 
L 435.2208 294.058011 
L 435.3696 295.088311 
L 435.5184 294.619109 
L 435.6672 293.2958 
L 435.9648 295.977529 
L 436.2624 294.404487 
L 436.4112 294.650592 
L 436.56 293.750663 
L 436.8576 296.448596 
L 437.1552 293.889777 
L 437.304 293.534444 
L 437.4528 293.784978 
L 437.6016 294.527316 
L 437.8992 292.344241 
L 438.048 292.59612 
L 438.1968 293.402911 
L 438.3456 291.068397 
L 438.6432 293.797315 
L 438.792 294.053554 
L 438.9408 292.661466 
L 439.0896 293.73257 
L 439.3872 292.389966 
L 439.536 294.320104 
L 439.6848 294.536231 
L 440.1312 291.609096 
L 440.28 292.430873 
L 440.4288 291.559177 
L 440.5776 291.808017 
L 440.7264 290.378141 
L 441.024 291.467824 
L 441.1728 290.517696 
L 441.4704 292.328048 
L 442.0656 287.231033 
L 442.2144 288.334026 
L 442.3632 288.197881 
L 442.512 286.730027 
L 442.8096 289.495624 
L 443.1072 287.533048 
L 443.256 287.192947 
L 443.4048 287.467719 
L 443.5536 286.864255 
L 443.7024 287.38321 
L 444 284.984883 
L 444.1488 285.828977 
L 444.4464 284.786294 
L 444.5952 286.771117 
L 444.744 287.267608 
L 445.1904 284.503425 
L 445.3392 283.993001 
L 445.488 284.845752 
L 445.6368 284.217712 
L 445.7856 284.742595 
L 446.0832 282.848649 
L 446.232 283.132102 
L 446.3808 283.135796 
L 446.6784 281.722227 
L 446.976 284.588168 
L 447.4224 281.038766 
L 447.5712 281.901862 
L 447.72 283.874549 
L 447.8688 282.898288 
L 448.1664 280.335029 
L 448.464 283.221132 
L 448.6128 284.039584 
L 448.9104 282.065561 
L 449.0592 281.948343 
L 449.3568 283.126397 
L 449.5056 282.130192 
L 449.6544 282.288827 
L 449.952 280.29385 
L 450.2496 282.045909 
L 450.5472 280.016465 
L 450.9936 282.890163 
L 451.44 280.126721 
L 451.5888 280.571976 
L 451.7376 281.428352 
L 451.8864 281.20708 
L 452.0352 280.224207 
L 452.184 280.002352 
L 452.3328 279.198147 
L 452.4816 281.248628 
L 452.6304 281.52431 
L 452.7792 281.303545 
L 453.0768 279.515286 
L 453.2256 279.293468 
L 453.3744 281.657491 
L 453.5232 280.622865 
L 453.672 280.775163 
L 453.8208 280.322678 
L 454.1184 278.440766 
L 454.5648 282.34117 
L 454.7136 281.88104 
L 455.0112 279.330157 
L 455.3088 282.84095 
L 455.4576 281.449824 
L 455.6064 281.632036 
L 455.7552 281.592983 
L 455.904 280.539323 
L 456.2016 283.301715 
L 456.4992 281.505634 
L 456.648 280.514919 
L 456.7968 280.880623 
L 457.0944 279.94397 
L 457.392 282.002018 
L 457.5408 281.598168 
L 457.6896 280.606314 
L 457.8384 280.38544 
L 457.9872 279.575922 
L 458.2848 281.688453 
L 458.5824 280.879713 
L 458.88 279.665089 
L 459.1776 283.257312 
L 459.3264 284.273004 
L 459.4752 284.053128 
L 459.7728 282.654351 
L 459.9216 282.163798 
L 460.0704 281.182635 
L 460.368 283.557616 
L 460.8144 282.527216 
L 460.9632 282.71235 
L 461.2608 281.132756 
L 461.5584 283.648872 
L 461.856 283.024136 
L 462.1536 282.398536 
L 462.3024 282.823907 
L 462.4512 284.340186 
L 462.7488 283.330726 
L 463.0464 283.418628 
L 463.344 282.081783 
L 463.4928 283.601361 
L 463.6416 283.601361 
L 463.9392 285.911346 
L 464.088 285.505412 
L 464.2368 285.505412 
L 464.5344 283.889592 
L 464.832 286.938785 
L 464.9808 285.241494 
L 465.1296 285.241494 
L 465.576 284.379159 
L 465.7248 284.379159 
L 466.0224 286.50249 
L 466.1712 286.096322 
L 466.32 286.096322 
L 466.4688 285.878141 
L 466.7664 284.37552 
L 466.9152 284.37552 
L 467.064 283.655063 
L 467.3616 287.318099 
L 467.5104 287.318099 
L 467.808 285.673017 
L 467.9568 285.147309 
L 468.1056 285.147309 
L 468.2544 284.150375 
L 468.552 287.226392 
L 468.7008 287.226392 
L 468.8496 288.010055 
L 469.1472 287.006528 
L 469.4448 287.072686 
L 469.5936 285.944728 
L 469.7424 287.486963 
L 469.8912 287.486963 
L 470.04 289.030021 
L 470.3376 287.600082 
L 470.4864 287.097646 
L 470.784 287.069677 
L 471.0816 286.063838 
L 471.2304 287.610913 
L 471.3792 287.610913 
L 471.528 288.790136 
L 471.8256 287.281753 
L 471.9744 287.281753 
L 472.1232 287.159684 
L 472.5696 286.247979 
L 472.7184 287.200746 
L 473.016 290.634454 
L 473.1648 290.634454 
L 473.4624 288.947332 
L 473.76 289.002132 
L 473.9088 287.858661 
L 474.2064 290.753278 
L 474.504 290.728582 
L 474.6528 290.224818 
L 474.8016 290.224818 
L 475.0992 289.503967 
L 475.248 288.999597 
L 475.3968 288.999597 
L 475.5456 288.449411 
L 475.8432 291.132255 
L 475.992 291.132255 
L 476.1408 290.219915 
L 476.2896 290.412164 
L 476.4384 290.003741 
L 476.5872 290.003741 
L 477.1824 288.585023 
L 477.6288 292.995914 
L 477.7776 292.440063 
L 477.9264 292.440063 
L 478.3728 290.771806 
L 478.5216 290.771806 
L 478.8192 289.658691 
L 478.968 291.830247 
L 479.1168 291.830247 
L 479.2656 292.799012 
L 479.4144 292.585511 
L 479.5632 292.585511 
L 479.712 292.971881 
L 479.8608 291.960687 
L 480.1584 292.006652 
L 480.456 290.883489 
L 480.6048 292.457372 
L 480.7536 292.457372 
L 480.9024 293.689031 
L 481.3488 292.77443 
L 481.6464 291.955995 
L 481.7952 292.052949 
L 481.944 292.052949 
L 482.0928 291.233701 
L 482.2416 291.274842 
L 482.3904 292.853137 
L 518.4 292.853137 
L 518.4 292.853137 
" style="fill:none;stroke:#008000;stroke-linecap:square;"/>
   </g>
   <g id="line2d_2">
    <path clip-path="url(#pd763d2c828)" d="M 72.1488 235.2 
L 93.2784 235.101942 
L 94.9152 234.770473 
L 96.552 234.188371 
L 98.04 233.446636 
L 99.6768 232.384176 
L 101.3136 231.05369 
L 103.0992 229.287654 
L 105.0336 227.025967 
L 107.2656 224.04292 
L 109.6464 220.484234 
L 112.4736 215.829441 
L 115.4496 210.515114 
L 119.4672 202.805172 
L 124.2288 193.109454 
L 132.4128 176.307428 
L 132.5616 176.307428 
L 132.7104 176.006511 
L 132.8592 175.405032 
L 133.008 175.405032 
L 133.3056 174.50464 
L 138.6624 163.972533 
L 140.0016 161.433124 
L 140.1504 161.433124 
L 140.448 160.87436 
L 140.7456 160.03287 
L 145.0608 152.105674 
L 150.2688 143.052636 
L 154.2864 136.503165 
L 157.56 131.194251 
L 157.8576 130.510009 
L 158.4528 129.597388 
L 158.8992 128.454032 
L 159.1968 128.454032 
L 159.4944 127.058517 
L 159.6432 126.825858 
L 159.792 126.825858 
L 160.0896 125.896346 
L 160.3872 125.431327 
L 160.8336 124.270301 
L 160.9824 124.036212 
L 161.28 123.339233 
L 161.7264 122.638637 
L 162.024 121.939059 
L 162.1728 121.706081 
L 162.4704 121.006 
L 163.6608 119.168273 
L 163.8096 119.168273 
L 165.2976 116.986766 
L 165.4464 116.986766 
L 165.8928 116.357192 
L 166.1904 115.732276 
L 167.0832 114.487228 
L 167.232 114.487228 
L 167.6784 113.885463 
L 167.8272 113.885463 
L 168.2736 113.301196 
L 168.5712 113.301196 
L 169.3152 112.36444 
L 169.464 112.36444 
L 169.7616 111.819438 
L 169.9104 111.637683 
L 170.0592 111.637683 
L 170.6544 110.930026 
L 170.8032 110.930026 
L 171.2496 110.067085 
L 171.3984 109.891887 
L 171.696 109.368766 
L 171.9936 109.016574 
L 172.1424 108.662986 
L 172.2912 108.662986 
L 172.7376 108.143928 
L 172.8864 108.143928 
L 173.4816 107.474036 
L 173.6304 107.474036 
L 174.2256 106.987342 
L 174.672 106.671931 
L 174.8208 106.671931 
L 175.1184 105.897086 
L 180.1776 100.57722 
L 180.3264 100.293876 
L 180.4752 100.293876 
L 182.112 98.792525 
L 182.2608 98.792525 
L 183.4512 97.898719 
L 184.9392 96.709026 
L 185.088 96.709026 
L 185.5344 96.137302 
L 186.1296 95.555141 
L 186.4272 95.201129 
L 187.6176 94.147277 
L 187.9152 93.806609 
L 188.064 93.806609 
L 191.3376 91.448989 
L 191.4864 91.448989 
L 191.784 91.235934 
L 192.9744 90.823466 
L 194.1648 90.636676 
L 195.3552 90.662265 
L 196.8432 90.946033 
L 198.48 91.54679 
L 200.4144 92.636268 
L 201.7536 93.564098 
L 201.9024 93.564098 
L 202.0512 93.820193 
L 202.2 93.820193 
L 205.4736 96.844924 
L 205.6224 97.017329 
L 205.7712 97.017329 
L 210.6816 102.927562 
L 213.6576 107.484622 
L 217.2288 113.332748 
L 220.9488 119.844905 
L 224.8176 127.083568 
L 231.0672 138.941261 
L 234.192 144.310605 
L 237.3168 149.26786 
L 240.2928 153.59463 
L 243.4176 157.726234 
L 246.5424 161.4703 
L 249.6672 164.836007 
L 252.792 167.864932 
L 255.768 170.442016 
L 258.744 172.731939 
L 261.8688 174.849479 
L 264.8448 176.605575 
L 268.416 178.41147 
L 270.7968 179.668214 
L 271.2432 180.003492 
L 275.7072 182.587957 
L 276.0048 182.890733 
L 279.2784 185.264341 
L 282.552 187.9121 
L 285.8256 190.839264 
L 287.3136 192.387475 
L 289.3968 194.445031 
L 289.6944 194.837409 
L 290.8848 195.852655 
L 291.1824 196.468101 
L 292.0752 197.307076 
L 292.3728 197.658092 
L 293.4144 198.336924 
L 294.456 198.963906 
L 295.4976 199.53682 
L 295.7952 199.628055 
L 297.2832 200.387668 
L 298.3248 200.830723 
L 298.6224 200.899173 
L 301.3008 201.993749 
L 301.7472 202.092048 
L 302.1936 202.283911 
L 305.616 203.2344 
L 307.9968 203.601964 
L 309.4848 203.708646 
L 312.7584 203.817007 
L 315.288 203.649838 
L 318.8592 203.455531 
L 321.8352 203.524771 
L 324.3648 203.783817 
L 326.2992 204.142806 
L 327.7872 204.505238 
L 328.3824 204.678038 
L 331.3584 205.492285 
L 331.8048 205.678804 
L 334.1856 206.503926 
L 334.7808 206.848241 
L 336.7152 207.732454 
L 347.5776 212.564393 
L 347.8752 212.62068 
L 349.512 213.120855 
L 351.744 213.661405 
L 353.8272 213.936777 
L 356.0592 214.05756 
L 358.8864 213.959251 
L 361.5648 213.59511 
L 364.0944 213.001294 
L 366.7728 212.141564 
L 368.856 211.319409 
L 369.3024 211.08301 
L 372.2784 210.041452 
L 375.9984 208.875842 
L 379.7184 207.952753 
L 383.2896 207.307641 
L 386.5632 206.927883 
L 389.8368 206.757298 
L 392.9616 206.795441 
L 396.2352 207.060005 
L 399.36 207.532006 
L 402.6336 208.265898 
L 403.2288 208.470241 
L 407.0976 209.679432 
L 410.2224 210.964873 
L 416.6208 213.750249 
L 418.8528 214.342888 
L 423.7632 215.483768 
L 425.1024 216.081283 
L 425.8464 216.492223 
L 426.2928 216.782651 
L 427.7808 217.472078 
L 428.0784 217.472078 
L 428.5248 217.788206 
L 430.608 219.001452 
L 430.9056 219.283463 
L 431.9472 220.052556 
L 432.3936 220.541761 
L 434.1792 221.813694 
L 434.4768 222.108837 
L 436.1136 223.308029 
L 436.4112 223.603451 
L 438.1968 224.874755 
L 438.4944 225.157656 
L 439.9824 226.217331 
L 440.28 226.4971 
L 442.0656 227.68215 
L 442.3632 227.942421 
L 444.1488 229.045285 
L 444.5952 229.374364 
L 447.1248 230.878597 
L 447.5712 231.180734 
L 450.2496 232.691902 
L 450.696 232.985611 
L 453.8208 234.659801 
L 454.416 235.085633 
L 455.904 235.890843 
L 456.4992 236.334332 
L 459.9216 238.086621 
L 460.368 238.382884 
L 464.088 240.19431 
L 464.3856 240.271573 
L 465.576 240.818817 
L 465.8736 240.897369 
L 466.7664 241.291722 
L 467.064 241.367572 
L 467.9568 241.765194 
L 468.2544 241.84173 
L 469.1472 242.247131 
L 469.4448 242.328155 
L 470.4864 242.818305 
L 470.784 242.899204 
L 471.8256 243.386904 
L 472.1232 243.467835 
L 473.016 243.879106 
L 473.3136 243.963572 
L 474.2064 244.383398 
L 474.504 244.469702 
L 475.248 244.808138 
L 475.5456 244.890831 
L 476.4384 245.318875 
L 476.736 245.403263 
L 477.7776 245.920785 
L 478.0752 246.008625 
L 478.968 246.438919 
L 479.2656 246.528088 
L 480.0096 246.88206 
L 480.3072 246.969075 
L 481.2 247.412997 
L 481.4976 247.501499 
L 482.3904 247.939291 
L 482.5392 247.939291 
L 482.688 235.2 
L 518.4 235.2 
L 518.4 235.2 
" style="fill:none;stroke:#0000ff;stroke-linecap:square;"/>
   </g>
   <g id="patch_3">
    <path d="M 72 43.2 
L 518.4 43.2 
" style="fill:none;stroke:#000000;stroke-linecap:square;stroke-linejoin:miter;"/>
   </g>
   <g id="patch_4">
    <path d="M 518.4 388.8 
L 518.4 43.2 
" style="fill:none;stroke:#000000;stroke-linecap:square;stroke-linejoin:miter;"/>
   </g>
   <g id="patch_5">
    <path d="M 72 388.8 
L 518.4 388.8 
" style="fill:none;stroke:#000000;stroke-linecap:square;stroke-linejoin:miter;"/>
   </g>
   <g id="patch_6">
    <path d="M 72 388.8 
L 72 43.2 
" style="fill:none;stroke:#000000;stroke-linecap:square;stroke-linejoin:miter;"/>
   </g>
   <g id="matplotlib.axis_1">
    <g id="xtick_1">
     <g id="line2d_3">
      <path clip-path="url(#pd763d2c828)" d="M 72 388.8 
L 72 43.2 
" style="fill:none;stroke:#000000;stroke-dasharray:1.000000,3.000000;stroke-dashoffset:0.0;stroke-width:0.5;"/>
     </g>
     <g id="line2d_4">
      <defs>
       <path d="M 0 0 
L 0 -4 
" id="mad34ea35d1" style="stroke:#000000;stroke-width:0.5;"/>
      </defs>
      <g>
       <use style="stroke:#000000;stroke-width:0.5;" x="72.0" xlink:href="#mad34ea35d1" y="388.8"/>
      </g>
     </g>
     <g id="line2d_5">
      <defs>
       <path d="M 0 0 
L 0 4 
" id="mcbb56a4100" style="stroke:#000000;stroke-width:0.5;"/>
      </defs>
      <g>
       <use style="stroke:#000000;stroke-width:0.5;" x="72.0" xlink:href="#mcbb56a4100" y="43.2"/>
      </g>
     </g>
     <g id="text_1">
      <!-- 0 -->
      <defs>
       <path d="M 31.78125 66.40625 
Q 24.171875 66.40625 20.328125 58.90625 
Q 16.5 51.421875 16.5 36.375 
Q 16.5 21.390625 20.328125 13.890625 
Q 24.171875 6.390625 31.78125 6.390625 
Q 39.453125 6.390625 43.28125 13.890625 
Q 47.125 21.390625 47.125 36.375 
Q 47.125 51.421875 43.28125 58.90625 
Q 39.453125 66.40625 31.78125 66.40625 
M 31.78125 74.21875 
Q 44.046875 74.21875 50.515625 64.515625 
Q 56.984375 54.828125 56.984375 36.375 
Q 56.984375 17.96875 50.515625 8.265625 
Q 44.046875 -1.421875 31.78125 -1.421875 
Q 19.53125 -1.421875 13.0625 8.265625 
Q 6.59375 17.96875 6.59375 36.375 
Q 6.59375 54.828125 13.0625 64.515625 
Q 19.53125 74.21875 31.78125 74.21875 
" id="BitstreamVeraSans-Roman-30"/>
      </defs>
      <g transform="translate(68.1825 401.918125)scale(0.12 -0.12)">
       <use xlink:href="#BitstreamVeraSans-Roman-30"/>
      </g>
     </g>
    </g>
    <g id="xtick_2">
     <g id="line2d_6">
      <path clip-path="url(#pd763d2c828)" d="M 146.4 388.8 
L 146.4 43.2 
" style="fill:none;stroke:#000000;stroke-dasharray:1.000000,3.000000;stroke-dashoffset:0.0;stroke-width:0.5;"/>
     </g>
     <g id="line2d_7">
      <g>
       <use style="stroke:#000000;stroke-width:0.5;" x="146.4" xlink:href="#mad34ea35d1" y="388.8"/>
      </g>
     </g>
     <g id="line2d_8">
      <g>
       <use style="stroke:#000000;stroke-width:0.5;" x="146.4" xlink:href="#mcbb56a4100" y="43.2"/>
      </g>
     </g>
     <g id="text_2">
      <!-- 5 -->
      <defs>
       <path d="M 10.796875 72.90625 
L 49.515625 72.90625 
L 49.515625 64.59375 
L 19.828125 64.59375 
L 19.828125 46.734375 
Q 21.96875 47.46875 24.109375 47.828125 
Q 26.265625 48.1875 28.421875 48.1875 
Q 40.625 48.1875 47.75 41.5 
Q 54.890625 34.8125 54.890625 23.390625 
Q 54.890625 11.625 47.5625 5.09375 
Q 40.234375 -1.421875 26.90625 -1.421875 
Q 22.3125 -1.421875 17.546875 -0.640625 
Q 12.796875 0.140625 7.71875 1.703125 
L 7.71875 11.625 
Q 12.109375 9.234375 16.796875 8.0625 
Q 21.484375 6.890625 26.703125 6.890625 
Q 35.15625 6.890625 40.078125 11.328125 
Q 45.015625 15.765625 45.015625 23.390625 
Q 45.015625 31 40.078125 35.4375 
Q 35.15625 39.890625 26.703125 39.890625 
Q 22.75 39.890625 18.8125 39.015625 
Q 14.890625 38.140625 10.796875 36.28125 
z
" id="BitstreamVeraSans-Roman-35"/>
      </defs>
      <g transform="translate(142.5825 401.918125)scale(0.12 -0.12)">
       <use xlink:href="#BitstreamVeraSans-Roman-35"/>
      </g>
     </g>
    </g>
    <g id="xtick_3">
     <g id="line2d_9">
      <path clip-path="url(#pd763d2c828)" d="M 220.8 388.8 
L 220.8 43.2 
" style="fill:none;stroke:#000000;stroke-dasharray:1.000000,3.000000;stroke-dashoffset:0.0;stroke-width:0.5;"/>
     </g>
     <g id="line2d_10">
      <g>
       <use style="stroke:#000000;stroke-width:0.5;" x="220.8" xlink:href="#mad34ea35d1" y="388.8"/>
      </g>
     </g>
     <g id="line2d_11">
      <g>
       <use style="stroke:#000000;stroke-width:0.5;" x="220.8" xlink:href="#mcbb56a4100" y="43.2"/>
      </g>
     </g>
     <g id="text_3">
      <!-- 10 -->
      <defs>
       <path d="M 12.40625 8.296875 
L 28.515625 8.296875 
L 28.515625 63.921875 
L 10.984375 60.40625 
L 10.984375 69.390625 
L 28.421875 72.90625 
L 38.28125 72.90625 
L 38.28125 8.296875 
L 54.390625 8.296875 
L 54.390625 0 
L 12.40625 0 
z
" id="BitstreamVeraSans-Roman-31"/>
      </defs>
      <g transform="translate(213.165 401.918125)scale(0.12 -0.12)">
       <use xlink:href="#BitstreamVeraSans-Roman-31"/>
       <use x="63.623046875" xlink:href="#BitstreamVeraSans-Roman-30"/>
      </g>
     </g>
    </g>
    <g id="xtick_4">
     <g id="line2d_12">
      <path clip-path="url(#pd763d2c828)" d="M 295.2 388.8 
L 295.2 43.2 
" style="fill:none;stroke:#000000;stroke-dasharray:1.000000,3.000000;stroke-dashoffset:0.0;stroke-width:0.5;"/>
     </g>
     <g id="line2d_13">
      <g>
       <use style="stroke:#000000;stroke-width:0.5;" x="295.2" xlink:href="#mad34ea35d1" y="388.8"/>
      </g>
     </g>
     <g id="line2d_14">
      <g>
       <use style="stroke:#000000;stroke-width:0.5;" x="295.2" xlink:href="#mcbb56a4100" y="43.2"/>
      </g>
     </g>
     <g id="text_4">
      <!-- 15 -->
      <g transform="translate(287.565 401.918125)scale(0.12 -0.12)">
       <use xlink:href="#BitstreamVeraSans-Roman-31"/>
       <use x="63.623046875" xlink:href="#BitstreamVeraSans-Roman-35"/>
      </g>
     </g>
    </g>
    <g id="xtick_5">
     <g id="line2d_15">
      <path clip-path="url(#pd763d2c828)" d="M 369.6 388.8 
L 369.6 43.2 
" style="fill:none;stroke:#000000;stroke-dasharray:1.000000,3.000000;stroke-dashoffset:0.0;stroke-width:0.5;"/>
     </g>
     <g id="line2d_16">
      <g>
       <use style="stroke:#000000;stroke-width:0.5;" x="369.6" xlink:href="#mad34ea35d1" y="388.8"/>
      </g>
     </g>
     <g id="line2d_17">
      <g>
       <use style="stroke:#000000;stroke-width:0.5;" x="369.6" xlink:href="#mcbb56a4100" y="43.2"/>
      </g>
     </g>
     <g id="text_5">
      <!-- 20 -->
      <defs>
       <path d="M 19.1875 8.296875 
L 53.609375 8.296875 
L 53.609375 0 
L 7.328125 0 
L 7.328125 8.296875 
Q 12.9375 14.109375 22.625 23.890625 
Q 32.328125 33.6875 34.8125 36.53125 
Q 39.546875 41.84375 41.421875 45.53125 
Q 43.3125 49.21875 43.3125 52.78125 
Q 43.3125 58.59375 39.234375 62.25 
Q 35.15625 65.921875 28.609375 65.921875 
Q 23.96875 65.921875 18.8125 64.3125 
Q 13.671875 62.703125 7.8125 59.421875 
L 7.8125 69.390625 
Q 13.765625 71.78125 18.9375 73 
Q 24.125 74.21875 28.421875 74.21875 
Q 39.75 74.21875 46.484375 68.546875 
Q 53.21875 62.890625 53.21875 53.421875 
Q 53.21875 48.921875 51.53125 44.890625 
Q 49.859375 40.875 45.40625 35.40625 
Q 44.1875 33.984375 37.640625 27.21875 
Q 31.109375 20.453125 19.1875 8.296875 
" id="BitstreamVeraSans-Roman-32"/>
      </defs>
      <g transform="translate(361.965 401.918125)scale(0.12 -0.12)">
       <use xlink:href="#BitstreamVeraSans-Roman-32"/>
       <use x="63.623046875" xlink:href="#BitstreamVeraSans-Roman-30"/>
      </g>
     </g>
    </g>
    <g id="xtick_6">
     <g id="line2d_18">
      <path clip-path="url(#pd763d2c828)" d="M 444 388.8 
L 444 43.2 
" style="fill:none;stroke:#000000;stroke-dasharray:1.000000,3.000000;stroke-dashoffset:0.0;stroke-width:0.5;"/>
     </g>
     <g id="line2d_19">
      <g>
       <use style="stroke:#000000;stroke-width:0.5;" x="444.0" xlink:href="#mad34ea35d1" y="388.8"/>
      </g>
     </g>
     <g id="line2d_20">
      <g>
       <use style="stroke:#000000;stroke-width:0.5;" x="444.0" xlink:href="#mcbb56a4100" y="43.2"/>
      </g>
     </g>
     <g id="text_6">
      <!-- 25 -->
      <g transform="translate(436.365 401.918125)scale(0.12 -0.12)">
       <use xlink:href="#BitstreamVeraSans-Roman-32"/>
       <use x="63.623046875" xlink:href="#BitstreamVeraSans-Roman-35"/>
      </g>
     </g>
    </g>
    <g id="xtick_7">
     <g id="line2d_21">
      <path clip-path="url(#pd763d2c828)" d="M 518.4 388.8 
L 518.4 43.2 
" style="fill:none;stroke:#000000;stroke-dasharray:1.000000,3.000000;stroke-dashoffset:0.0;stroke-width:0.5;"/>
     </g>
     <g id="line2d_22">
      <g>
       <use style="stroke:#000000;stroke-width:0.5;" x="518.4" xlink:href="#mad34ea35d1" y="388.8"/>
      </g>
     </g>
     <g id="line2d_23">
      <g>
       <use style="stroke:#000000;stroke-width:0.5;" x="518.4" xlink:href="#mcbb56a4100" y="43.2"/>
      </g>
     </g>
     <g id="text_7">
      <!-- 30 -->
      <defs>
       <path d="M 40.578125 39.3125 
Q 47.65625 37.796875 51.625 33 
Q 55.609375 28.21875 55.609375 21.1875 
Q 55.609375 10.40625 48.1875 4.484375 
Q 40.765625 -1.421875 27.09375 -1.421875 
Q 22.515625 -1.421875 17.65625 -0.515625 
Q 12.796875 0.390625 7.625 2.203125 
L 7.625 11.71875 
Q 11.71875 9.328125 16.59375 8.109375 
Q 21.484375 6.890625 26.8125 6.890625 
Q 36.078125 6.890625 40.9375 10.546875 
Q 45.796875 14.203125 45.796875 21.1875 
Q 45.796875 27.640625 41.28125 31.265625 
Q 36.765625 34.90625 28.71875 34.90625 
L 20.21875 34.90625 
L 20.21875 43.015625 
L 29.109375 43.015625 
Q 36.375 43.015625 40.234375 45.921875 
Q 44.09375 48.828125 44.09375 54.296875 
Q 44.09375 59.90625 40.109375 62.90625 
Q 36.140625 65.921875 28.71875 65.921875 
Q 24.65625 65.921875 20.015625 65.03125 
Q 15.375 64.15625 9.8125 62.3125 
L 9.8125 71.09375 
Q 15.4375 72.65625 20.34375 73.4375 
Q 25.25 74.21875 29.59375 74.21875 
Q 40.828125 74.21875 47.359375 69.109375 
Q 53.90625 64.015625 53.90625 55.328125 
Q 53.90625 49.265625 50.4375 45.09375 
Q 46.96875 40.921875 40.578125 39.3125 
" id="BitstreamVeraSans-Roman-33"/>
      </defs>
      <g transform="translate(510.765 401.918125)scale(0.12 -0.12)">
       <use xlink:href="#BitstreamVeraSans-Roman-33"/>
       <use x="63.623046875" xlink:href="#BitstreamVeraSans-Roman-30"/>
      </g>
     </g>
    </g>
    <g id="text_8">
     <!-- Time, [s] -->
     <defs>
      <path id="BitstreamVeraSans-Roman-20"/>
      <path d="M 8.59375 75.984375 
L 29.296875 75.984375 
L 29.296875 69 
L 17.578125 69 
L 17.578125 -6.203125 
L 29.296875 -6.203125 
L 29.296875 -13.1875 
L 8.59375 -13.1875 
z
" id="BitstreamVeraSans-Roman-5b"/>
      <path d="M 30.421875 75.984375 
L 30.421875 -13.1875 
L 9.71875 -13.1875 
L 9.71875 -6.203125 
L 21.390625 -6.203125 
L 21.390625 69 
L 9.71875 69 
L 9.71875 75.984375 
z
" id="BitstreamVeraSans-Roman-5d"/>
      <path d="M 52 44.1875 
Q 55.375 50.25 60.0625 53.125 
Q 64.75 56 71.09375 56 
Q 79.640625 56 84.28125 50.015625 
Q 88.921875 44.046875 88.921875 33.015625 
L 88.921875 0 
L 79.890625 0 
L 79.890625 32.71875 
Q 79.890625 40.578125 77.09375 44.375 
Q 74.3125 48.1875 68.609375 48.1875 
Q 61.625 48.1875 57.5625 43.546875 
Q 53.515625 38.921875 53.515625 30.90625 
L 53.515625 0 
L 44.484375 0 
L 44.484375 32.71875 
Q 44.484375 40.625 41.703125 44.40625 
Q 38.921875 48.1875 33.109375 48.1875 
Q 26.21875 48.1875 22.15625 43.53125 
Q 18.109375 38.875 18.109375 30.90625 
L 18.109375 0 
L 9.078125 0 
L 9.078125 54.6875 
L 18.109375 54.6875 
L 18.109375 46.1875 
Q 21.1875 51.21875 25.484375 53.609375 
Q 29.78125 56 35.6875 56 
Q 41.65625 56 45.828125 52.96875 
Q 50 49.953125 52 44.1875 
" id="BitstreamVeraSans-Roman-6d"/>
      <path d="M 11.71875 12.40625 
L 22.015625 12.40625 
L 22.015625 4 
L 14.015625 -11.625 
L 7.71875 -11.625 
L 11.71875 4 
z
" id="BitstreamVeraSans-Roman-2c"/>
      <path d="M 9.421875 54.6875 
L 18.40625 54.6875 
L 18.40625 0 
L 9.421875 0 
z
M 9.421875 75.984375 
L 18.40625 75.984375 
L 18.40625 64.59375 
L 9.421875 64.59375 
z
" id="BitstreamVeraSans-Roman-69"/>
      <path d="M 56.203125 29.59375 
L 56.203125 25.203125 
L 14.890625 25.203125 
Q 15.484375 15.921875 20.484375 11.0625 
Q 25.484375 6.203125 34.421875 6.203125 
Q 39.59375 6.203125 44.453125 7.46875 
Q 49.3125 8.734375 54.109375 11.28125 
L 54.109375 2.78125 
Q 49.265625 0.734375 44.1875 -0.34375 
Q 39.109375 -1.421875 33.890625 -1.421875 
Q 20.796875 -1.421875 13.15625 6.1875 
Q 5.515625 13.8125 5.515625 26.8125 
Q 5.515625 40.234375 12.765625 48.109375 
Q 20.015625 56 32.328125 56 
Q 43.359375 56 49.78125 48.890625 
Q 56.203125 41.796875 56.203125 29.59375 
M 47.21875 32.234375 
Q 47.125 39.59375 43.09375 43.984375 
Q 39.0625 48.390625 32.421875 48.390625 
Q 24.90625 48.390625 20.390625 44.140625 
Q 15.875 39.890625 15.1875 32.171875 
z
" id="BitstreamVeraSans-Roman-65"/>
      <path d="M -0.296875 72.90625 
L 61.375 72.90625 
L 61.375 64.59375 
L 35.5 64.59375 
L 35.5 0 
L 25.59375 0 
L 25.59375 64.59375 
L -0.296875 64.59375 
z
" id="BitstreamVeraSans-Roman-54"/>
      <path d="M 44.28125 53.078125 
L 44.28125 44.578125 
Q 40.484375 46.53125 36.375 47.5 
Q 32.28125 48.484375 27.875 48.484375 
Q 21.1875 48.484375 17.84375 46.4375 
Q 14.5 44.390625 14.5 40.28125 
Q 14.5 37.15625 16.890625 35.375 
Q 19.28125 33.59375 26.515625 31.984375 
L 29.59375 31.296875 
Q 39.15625 29.25 43.1875 25.515625 
Q 47.21875 21.78125 47.21875 15.09375 
Q 47.21875 7.46875 41.1875 3.015625 
Q 35.15625 -1.421875 24.609375 -1.421875 
Q 20.21875 -1.421875 15.453125 -0.5625 
Q 10.6875 0.296875 5.421875 2 
L 5.421875 11.28125 
Q 10.40625 8.6875 15.234375 7.390625 
Q 20.0625 6.109375 24.8125 6.109375 
Q 31.15625 6.109375 34.5625 8.28125 
Q 37.984375 10.453125 37.984375 14.40625 
Q 37.984375 18.0625 35.515625 20.015625 
Q 33.0625 21.96875 24.703125 23.78125 
L 21.578125 24.515625 
Q 13.234375 26.265625 9.515625 29.90625 
Q 5.8125 33.546875 5.8125 39.890625 
Q 5.8125 47.609375 11.28125 51.796875 
Q 16.75 56 26.8125 56 
Q 31.78125 56 36.171875 55.265625 
Q 40.578125 54.546875 44.28125 53.078125 
" id="BitstreamVeraSans-Roman-73"/>
     </defs>
     <g transform="translate(268.71375 418.531875)scale(0.12 -0.12)">
      <use xlink:href="#BitstreamVeraSans-Roman-54"/>
      <use x="61.037109375" xlink:href="#BitstreamVeraSans-Roman-69"/>
      <use x="88.8203125" xlink:href="#BitstreamVeraSans-Roman-6d"/>
      <use x="186.232421875" xlink:href="#BitstreamVeraSans-Roman-65"/>
      <use x="247.755859375" xlink:href="#BitstreamVeraSans-Roman-2c"/>
      <use x="279.54296875" xlink:href="#BitstreamVeraSans-Roman-20"/>
      <use x="311.330078125" xlink:href="#BitstreamVeraSans-Roman-5b"/>
      <use x="350.34375" xlink:href="#BitstreamVeraSans-Roman-73"/>
      <use x="402.443359375" xlink:href="#BitstreamVeraSans-Roman-5d"/>
     </g>
    </g>
   </g>
   <g id="matplotlib.axis_2">
    <g id="ytick_1">
     <g id="line2d_24">
      <path clip-path="url(#pd763d2c828)" d="M 72 388.8 
L 518.4 388.8 
" style="fill:none;stroke:#000000;stroke-dasharray:1.000000,3.000000;stroke-dashoffset:0.0;stroke-width:0.5;"/>
     </g>
     <g id="line2d_25">
      <defs>
       <path d="M 0 0 
L 4 0 
" id="m6cabfdfb4c" style="stroke:#000000;stroke-width:0.5;"/>
      </defs>
      <g>
       <use style="stroke:#000000;stroke-width:0.5;" x="72.0" xlink:href="#m6cabfdfb4c" y="388.8"/>
      </g>
     </g>
     <g id="line2d_26">
      <defs>
       <path d="M 0 0 
L -4 0 
" id="mc845b566ff" style="stroke:#000000;stroke-width:0.5;"/>
      </defs>
      <g>
       <use style="stroke:#000000;stroke-width:0.5;" x="518.4" xlink:href="#mc845b566ff" y="388.8"/>
      </g>
     </g>
     <g id="text_9">
      <!-- 0.8 -->
      <defs>
       <path d="M 10.59375 35.5 
L 73.1875 35.5 
L 73.1875 27.203125 
L 10.59375 27.203125 
z
" id="BitstreamVeraSans-Roman-2212"/>
       <path d="M 31.78125 34.625 
Q 24.75 34.625 20.71875 30.859375 
Q 16.703125 27.09375 16.703125 20.515625 
Q 16.703125 13.921875 20.71875 10.15625 
Q 24.75 6.390625 31.78125 6.390625 
Q 38.8125 6.390625 42.859375 10.171875 
Q 46.921875 13.96875 46.921875 20.515625 
Q 46.921875 27.09375 42.890625 30.859375 
Q 38.875 34.625 31.78125 34.625 
M 21.921875 38.8125 
Q 15.578125 40.375 12.03125 44.71875 
Q 8.5 49.078125 8.5 55.328125 
Q 8.5 64.0625 14.71875 69.140625 
Q 20.953125 74.21875 31.78125 74.21875 
Q 42.671875 74.21875 48.875 69.140625 
Q 55.078125 64.0625 55.078125 55.328125 
Q 55.078125 49.078125 51.53125 44.71875 
Q 48 40.375 41.703125 38.8125 
Q 48.828125 37.15625 52.796875 32.3125 
Q 56.78125 27.484375 56.78125 20.515625 
Q 56.78125 9.90625 50.3125 4.234375 
Q 43.84375 -1.421875 31.78125 -1.421875 
Q 19.734375 -1.421875 13.25 4.234375 
Q 6.78125 9.90625 6.78125 20.515625 
Q 6.78125 27.484375 10.78125 32.3125 
Q 14.796875 37.15625 21.921875 38.8125 
M 18.3125 54.390625 
Q 18.3125 48.734375 21.84375 45.5625 
Q 25.390625 42.390625 31.78125 42.390625 
Q 38.140625 42.390625 41.71875 45.5625 
Q 45.3125 48.734375 45.3125 54.390625 
Q 45.3125 60.0625 41.71875 63.234375 
Q 38.140625 66.40625 31.78125 66.40625 
Q 25.390625 66.40625 21.84375 63.234375 
Q 18.3125 60.0625 18.3125 54.390625 
" id="BitstreamVeraSans-Roman-38"/>
       <path d="M 10.6875 12.40625 
L 21 12.40625 
L 21 0 
L 10.6875 0 
z
" id="BitstreamVeraSans-Roman-2e"/>
      </defs>
      <g transform="translate(38.860625 392.11125)scale(0.12 -0.12)">
       <use xlink:href="#BitstreamVeraSans-Roman-2212"/>
       <use x="83.7890625" xlink:href="#BitstreamVeraSans-Roman-30"/>
       <use x="147.412109375" xlink:href="#BitstreamVeraSans-Roman-2e"/>
       <use x="179.19921875" xlink:href="#BitstreamVeraSans-Roman-38"/>
      </g>
     </g>
    </g>
    <g id="ytick_2">
     <g id="line2d_27">
      <path clip-path="url(#pd763d2c828)" d="M 72 350.4 
L 518.4 350.4 
" style="fill:none;stroke:#000000;stroke-dasharray:1.000000,3.000000;stroke-dashoffset:0.0;stroke-width:0.5;"/>
     </g>
     <g id="line2d_28">
      <g>
       <use style="stroke:#000000;stroke-width:0.5;" x="72.0" xlink:href="#m6cabfdfb4c" y="350.4"/>
      </g>
     </g>
     <g id="line2d_29">
      <g>
       <use style="stroke:#000000;stroke-width:0.5;" x="518.4" xlink:href="#mc845b566ff" y="350.4"/>
      </g>
     </g>
     <g id="text_10">
      <!-- 0.6 -->
      <defs>
       <path d="M 33.015625 40.375 
Q 26.375 40.375 22.484375 35.828125 
Q 18.609375 31.296875 18.609375 23.390625 
Q 18.609375 15.53125 22.484375 10.953125 
Q 26.375 6.390625 33.015625 6.390625 
Q 39.65625 6.390625 43.53125 10.953125 
Q 47.40625 15.53125 47.40625 23.390625 
Q 47.40625 31.296875 43.53125 35.828125 
Q 39.65625 40.375 33.015625 40.375 
M 52.59375 71.296875 
L 52.59375 62.3125 
Q 48.875 64.0625 45.09375 64.984375 
Q 41.3125 65.921875 37.59375 65.921875 
Q 27.828125 65.921875 22.671875 59.328125 
Q 17.53125 52.734375 16.796875 39.40625 
Q 19.671875 43.65625 24.015625 45.921875 
Q 28.375 48.1875 33.59375 48.1875 
Q 44.578125 48.1875 50.953125 41.515625 
Q 57.328125 34.859375 57.328125 23.390625 
Q 57.328125 12.15625 50.6875 5.359375 
Q 44.046875 -1.421875 33.015625 -1.421875 
Q 20.359375 -1.421875 13.671875 8.265625 
Q 6.984375 17.96875 6.984375 36.375 
Q 6.984375 53.65625 15.1875 63.9375 
Q 23.390625 74.21875 37.203125 74.21875 
Q 40.921875 74.21875 44.703125 73.484375 
Q 48.484375 72.75 52.59375 71.296875 
" id="BitstreamVeraSans-Roman-36"/>
      </defs>
      <g transform="translate(38.860625 353.71125)scale(0.12 -0.12)">
       <use xlink:href="#BitstreamVeraSans-Roman-2212"/>
       <use x="83.7890625" xlink:href="#BitstreamVeraSans-Roman-30"/>
       <use x="147.412109375" xlink:href="#BitstreamVeraSans-Roman-2e"/>
       <use x="179.19921875" xlink:href="#BitstreamVeraSans-Roman-36"/>
      </g>
     </g>
    </g>
    <g id="ytick_3">
     <g id="line2d_30">
      <path clip-path="url(#pd763d2c828)" d="M 72 312 
L 518.4 312 
" style="fill:none;stroke:#000000;stroke-dasharray:1.000000,3.000000;stroke-dashoffset:0.0;stroke-width:0.5;"/>
     </g>
     <g id="line2d_31">
      <g>
       <use style="stroke:#000000;stroke-width:0.5;" x="72.0" xlink:href="#m6cabfdfb4c" y="312.0"/>
      </g>
     </g>
     <g id="line2d_32">
      <g>
       <use style="stroke:#000000;stroke-width:0.5;" x="518.4" xlink:href="#mc845b566ff" y="312.0"/>
      </g>
     </g>
     <g id="text_11">
      <!-- 0.4 -->
      <defs>
       <path d="M 37.796875 64.3125 
L 12.890625 25.390625 
L 37.796875 25.390625 
z
M 35.203125 72.90625 
L 47.609375 72.90625 
L 47.609375 25.390625 
L 58.015625 25.390625 
L 58.015625 17.1875 
L 47.609375 17.1875 
L 47.609375 0 
L 37.796875 0 
L 37.796875 17.1875 
L 4.890625 17.1875 
L 4.890625 26.703125 
z
" id="BitstreamVeraSans-Roman-34"/>
      </defs>
      <g transform="translate(38.860625 315.31125)scale(0.12 -0.12)">
       <use xlink:href="#BitstreamVeraSans-Roman-2212"/>
       <use x="83.7890625" xlink:href="#BitstreamVeraSans-Roman-30"/>
       <use x="147.412109375" xlink:href="#BitstreamVeraSans-Roman-2e"/>
       <use x="179.19921875" xlink:href="#BitstreamVeraSans-Roman-34"/>
      </g>
     </g>
    </g>
    <g id="ytick_4">
     <g id="line2d_33">
      <path clip-path="url(#pd763d2c828)" d="M 72 273.6 
L 518.4 273.6 
" style="fill:none;stroke:#000000;stroke-dasharray:1.000000,3.000000;stroke-dashoffset:0.0;stroke-width:0.5;"/>
     </g>
     <g id="line2d_34">
      <g>
       <use style="stroke:#000000;stroke-width:0.5;" x="72.0" xlink:href="#m6cabfdfb4c" y="273.6"/>
      </g>
     </g>
     <g id="line2d_35">
      <g>
       <use style="stroke:#000000;stroke-width:0.5;" x="518.4" xlink:href="#mc845b566ff" y="273.6"/>
      </g>
     </g>
     <g id="text_12">
      <!-- 0.2 -->
      <g transform="translate(38.860625 276.91125)scale(0.12 -0.12)">
       <use xlink:href="#BitstreamVeraSans-Roman-2212"/>
       <use x="83.7890625" xlink:href="#BitstreamVeraSans-Roman-30"/>
       <use x="147.412109375" xlink:href="#BitstreamVeraSans-Roman-2e"/>
       <use x="179.19921875" xlink:href="#BitstreamVeraSans-Roman-32"/>
      </g>
     </g>
    </g>
    <g id="ytick_5">
     <g id="line2d_36">
      <path clip-path="url(#pd763d2c828)" d="M 72 235.2 
L 518.4 235.2 
" style="fill:none;stroke:#000000;stroke-dasharray:1.000000,3.000000;stroke-dashoffset:0.0;stroke-width:0.5;"/>
     </g>
     <g id="line2d_37">
      <g>
       <use style="stroke:#000000;stroke-width:0.5;" x="72.0" xlink:href="#m6cabfdfb4c" y="235.2"/>
      </g>
     </g>
     <g id="line2d_38">
      <g>
       <use style="stroke:#000000;stroke-width:0.5;" x="518.4" xlink:href="#mc845b566ff" y="235.2"/>
      </g>
     </g>
     <g id="text_13">
      <!-- 0.0 -->
      <g transform="translate(48.91625 238.51125)scale(0.12 -0.12)">
       <use xlink:href="#BitstreamVeraSans-Roman-30"/>
       <use x="63.623046875" xlink:href="#BitstreamVeraSans-Roman-2e"/>
       <use x="95.41015625" xlink:href="#BitstreamVeraSans-Roman-30"/>
      </g>
     </g>
    </g>
    <g id="ytick_6">
     <g id="line2d_39">
      <path clip-path="url(#pd763d2c828)" d="M 72 196.8 
L 518.4 196.8 
" style="fill:none;stroke:#000000;stroke-dasharray:1.000000,3.000000;stroke-dashoffset:0.0;stroke-width:0.5;"/>
     </g>
     <g id="line2d_40">
      <g>
       <use style="stroke:#000000;stroke-width:0.5;" x="72.0" xlink:href="#m6cabfdfb4c" y="196.8"/>
      </g>
     </g>
     <g id="line2d_41">
      <g>
       <use style="stroke:#000000;stroke-width:0.5;" x="518.4" xlink:href="#mc845b566ff" y="196.8"/>
      </g>
     </g>
     <g id="text_14">
      <!-- 0.2 -->
      <g transform="translate(48.91625 200.11125)scale(0.12 -0.12)">
       <use xlink:href="#BitstreamVeraSans-Roman-30"/>
       <use x="63.623046875" xlink:href="#BitstreamVeraSans-Roman-2e"/>
       <use x="95.41015625" xlink:href="#BitstreamVeraSans-Roman-32"/>
      </g>
     </g>
    </g>
    <g id="ytick_7">
     <g id="line2d_42">
      <path clip-path="url(#pd763d2c828)" d="M 72 158.4 
L 518.4 158.4 
" style="fill:none;stroke:#000000;stroke-dasharray:1.000000,3.000000;stroke-dashoffset:0.0;stroke-width:0.5;"/>
     </g>
     <g id="line2d_43">
      <g>
       <use style="stroke:#000000;stroke-width:0.5;" x="72.0" xlink:href="#m6cabfdfb4c" y="158.4"/>
      </g>
     </g>
     <g id="line2d_44">
      <g>
       <use style="stroke:#000000;stroke-width:0.5;" x="518.4" xlink:href="#mc845b566ff" y="158.4"/>
      </g>
     </g>
     <g id="text_15">
      <!-- 0.4 -->
      <g transform="translate(48.91625 161.71125)scale(0.12 -0.12)">
       <use xlink:href="#BitstreamVeraSans-Roman-30"/>
       <use x="63.623046875" xlink:href="#BitstreamVeraSans-Roman-2e"/>
       <use x="95.41015625" xlink:href="#BitstreamVeraSans-Roman-34"/>
      </g>
     </g>
    </g>
    <g id="ytick_8">
     <g id="line2d_45">
      <path clip-path="url(#pd763d2c828)" d="M 72 120 
L 518.4 120 
" style="fill:none;stroke:#000000;stroke-dasharray:1.000000,3.000000;stroke-dashoffset:0.0;stroke-width:0.5;"/>
     </g>
     <g id="line2d_46">
      <g>
       <use style="stroke:#000000;stroke-width:0.5;" x="72.0" xlink:href="#m6cabfdfb4c" y="120.0"/>
      </g>
     </g>
     <g id="line2d_47">
      <g>
       <use style="stroke:#000000;stroke-width:0.5;" x="518.4" xlink:href="#mc845b566ff" y="120.0"/>
      </g>
     </g>
     <g id="text_16">
      <!-- 0.6 -->
      <g transform="translate(48.91625 123.31125)scale(0.12 -0.12)">
       <use xlink:href="#BitstreamVeraSans-Roman-30"/>
       <use x="63.623046875" xlink:href="#BitstreamVeraSans-Roman-2e"/>
       <use x="95.41015625" xlink:href="#BitstreamVeraSans-Roman-36"/>
      </g>
     </g>
    </g>
    <g id="ytick_9">
     <g id="line2d_48">
      <path clip-path="url(#pd763d2c828)" d="M 72 81.6 
L 518.4 81.6 
" style="fill:none;stroke:#000000;stroke-dasharray:1.000000,3.000000;stroke-dashoffset:0.0;stroke-width:0.5;"/>
     </g>
     <g id="line2d_49">
      <g>
       <use style="stroke:#000000;stroke-width:0.5;" x="72.0" xlink:href="#m6cabfdfb4c" y="81.6"/>
      </g>
     </g>
     <g id="line2d_50">
      <g>
       <use style="stroke:#000000;stroke-width:0.5;" x="518.4" xlink:href="#mc845b566ff" y="81.6"/>
      </g>
     </g>
     <g id="text_17">
      <!-- 0.8 -->
      <g transform="translate(48.91625 84.91125)scale(0.12 -0.12)">
       <use xlink:href="#BitstreamVeraSans-Roman-30"/>
       <use x="63.623046875" xlink:href="#BitstreamVeraSans-Roman-2e"/>
       <use x="95.41015625" xlink:href="#BitstreamVeraSans-Roman-38"/>
      </g>
     </g>
    </g>
    <g id="ytick_10">
     <g id="line2d_51">
      <path clip-path="url(#pd763d2c828)" d="M 72 43.2 
L 518.4 43.2 
" style="fill:none;stroke:#000000;stroke-dasharray:1.000000,3.000000;stroke-dashoffset:0.0;stroke-width:0.5;"/>
     </g>
     <g id="line2d_52">
      <g>
       <use style="stroke:#000000;stroke-width:0.5;" x="72.0" xlink:href="#m6cabfdfb4c" y="43.2"/>
      </g>
     </g>
     <g id="line2d_53">
      <g>
       <use style="stroke:#000000;stroke-width:0.5;" x="518.4" xlink:href="#mc845b566ff" y="43.2"/>
      </g>
     </g>
     <g id="text_18">
      <!-- 1.0 -->
      <g transform="translate(48.91625 46.51125)scale(0.12 -0.12)">
       <use xlink:href="#BitstreamVeraSans-Roman-31"/>
       <use x="63.623046875" xlink:href="#BitstreamVeraSans-Roman-2e"/>
       <use x="95.41015625" xlink:href="#BitstreamVeraSans-Roman-30"/>
      </g>
     </g>
    </g>
    <g id="text_19">
     <!-- Accel Cmd [m/s^2] -->
     <defs>
      <path d="M 46.6875 72.90625 
L 73.1875 45.703125 
L 63.375 45.703125 
L 41.890625 64.984375 
L 20.40625 45.703125 
L 10.59375 45.703125 
L 37.109375 72.90625 
z
" id="BitstreamVeraSans-Roman-5e"/>
      <path d="M 9.421875 75.984375 
L 18.40625 75.984375 
L 18.40625 0 
L 9.421875 0 
z
" id="BitstreamVeraSans-Roman-6c"/>
      <path d="M 64.40625 67.28125 
L 64.40625 56.890625 
Q 59.421875 61.53125 53.78125 63.8125 
Q 48.140625 66.109375 41.796875 66.109375 
Q 29.296875 66.109375 22.65625 58.46875 
Q 16.015625 50.828125 16.015625 36.375 
Q 16.015625 21.96875 22.65625 14.328125 
Q 29.296875 6.6875 41.796875 6.6875 
Q 48.140625 6.6875 53.78125 8.984375 
Q 59.421875 11.28125 64.40625 15.921875 
L 64.40625 5.609375 
Q 59.234375 2.09375 53.4375 0.328125 
Q 47.65625 -1.421875 41.21875 -1.421875 
Q 24.65625 -1.421875 15.125 8.703125 
Q 5.609375 18.84375 5.609375 36.375 
Q 5.609375 53.953125 15.125 64.078125 
Q 24.65625 74.21875 41.21875 74.21875 
Q 47.75 74.21875 53.53125 72.484375 
Q 59.328125 70.75 64.40625 67.28125 
" id="BitstreamVeraSans-Roman-43"/>
      <path d="M 34.1875 63.1875 
L 20.796875 26.90625 
L 47.609375 26.90625 
z
M 28.609375 72.90625 
L 39.796875 72.90625 
L 67.578125 0 
L 57.328125 0 
L 50.6875 18.703125 
L 17.828125 18.703125 
L 11.1875 0 
L 0.78125 0 
z
" id="BitstreamVeraSans-Roman-41"/>
      <path d="M 25.390625 72.90625 
L 33.6875 72.90625 
L 8.296875 -9.28125 
L 0 -9.28125 
z
" id="BitstreamVeraSans-Roman-2f"/>
      <path d="M 45.40625 46.390625 
L 45.40625 75.984375 
L 54.390625 75.984375 
L 54.390625 0 
L 45.40625 0 
L 45.40625 8.203125 
Q 42.578125 3.328125 38.25 0.953125 
Q 33.9375 -1.421875 27.875 -1.421875 
Q 17.96875 -1.421875 11.734375 6.484375 
Q 5.515625 14.40625 5.515625 27.296875 
Q 5.515625 40.1875 11.734375 48.09375 
Q 17.96875 56 27.875 56 
Q 33.9375 56 38.25 53.625 
Q 42.578125 51.265625 45.40625 46.390625 
M 14.796875 27.296875 
Q 14.796875 17.390625 18.875 11.75 
Q 22.953125 6.109375 30.078125 6.109375 
Q 37.203125 6.109375 41.296875 11.75 
Q 45.40625 17.390625 45.40625 27.296875 
Q 45.40625 37.203125 41.296875 42.84375 
Q 37.203125 48.484375 30.078125 48.484375 
Q 22.953125 48.484375 18.875 42.84375 
Q 14.796875 37.203125 14.796875 27.296875 
" id="BitstreamVeraSans-Roman-64"/>
      <path d="M 48.78125 52.59375 
L 48.78125 44.1875 
Q 44.96875 46.296875 41.140625 47.34375 
Q 37.3125 48.390625 33.40625 48.390625 
Q 24.65625 48.390625 19.8125 42.84375 
Q 14.984375 37.3125 14.984375 27.296875 
Q 14.984375 17.28125 19.8125 11.734375 
Q 24.65625 6.203125 33.40625 6.203125 
Q 37.3125 6.203125 41.140625 7.25 
Q 44.96875 8.296875 48.78125 10.40625 
L 48.78125 2.09375 
Q 45.015625 0.34375 40.984375 -0.53125 
Q 36.96875 -1.421875 32.421875 -1.421875 
Q 20.0625 -1.421875 12.78125 6.34375 
Q 5.515625 14.109375 5.515625 27.296875 
Q 5.515625 40.671875 12.859375 48.328125 
Q 20.21875 56 33.015625 56 
Q 37.15625 56 41.109375 55.140625 
Q 45.0625 54.296875 48.78125 52.59375 
" id="BitstreamVeraSans-Roman-63"/>
     </defs>
     <g transform="translate(31.365 274.235625)rotate(-90.0)scale(0.12 -0.12)">
      <use xlink:href="#BitstreamVeraSans-Roman-41"/>
      <use x="68.392578125" xlink:href="#BitstreamVeraSans-Roman-63"/>
      <use x="123.373046875" xlink:href="#BitstreamVeraSans-Roman-63"/>
      <use x="178.353515625" xlink:href="#BitstreamVeraSans-Roman-65"/>
      <use x="239.876953125" xlink:href="#BitstreamVeraSans-Roman-6c"/>
      <use x="267.66015625" xlink:href="#BitstreamVeraSans-Roman-20"/>
      <use x="299.447265625" xlink:href="#BitstreamVeraSans-Roman-43"/>
      <use x="369.271484375" xlink:href="#BitstreamVeraSans-Roman-6d"/>
      <use x="466.68359375" xlink:href="#BitstreamVeraSans-Roman-64"/>
      <use x="530.16015625" xlink:href="#BitstreamVeraSans-Roman-20"/>
      <use x="561.947265625" xlink:href="#BitstreamVeraSans-Roman-5b"/>
      <use x="600.9609375" xlink:href="#BitstreamVeraSans-Roman-6d"/>
      <use x="698.373046875" xlink:href="#BitstreamVeraSans-Roman-2f"/>
      <use x="732.064453125" xlink:href="#BitstreamVeraSans-Roman-73"/>
      <use x="784.1640625" xlink:href="#BitstreamVeraSans-Roman-5e"/>
      <use x="867.953125" xlink:href="#BitstreamVeraSans-Roman-32"/>
      <use x="931.576171875" xlink:href="#BitstreamVeraSans-Roman-5d"/>
     </g>
    </g>
   </g>
   <g id="legend_1">
    <g id="patch_7">
     <path d="M 371.673 96.993 
L 511.2 96.993 
L 511.2 50.4 
L 371.673 50.4 
z
" style="fill:#ffffff;stroke:#000000;stroke-linejoin:miter;"/>
    </g>
    <g id="line2d_54">
     <path d="M 381.753 62.06175 
L 401.913 62.06175 
" style="fill:none;stroke:#008000;stroke-linecap:square;"/>
    </g>
    <g id="line2d_55"/>
    <g id="text_20">
     <!-- Proportional -->
     <defs>
      <path d="M 54.890625 33.015625 
L 54.890625 0 
L 45.90625 0 
L 45.90625 32.71875 
Q 45.90625 40.484375 42.875 44.328125 
Q 39.84375 48.1875 33.796875 48.1875 
Q 26.515625 48.1875 22.3125 43.546875 
Q 18.109375 38.921875 18.109375 30.90625 
L 18.109375 0 
L 9.078125 0 
L 9.078125 54.6875 
L 18.109375 54.6875 
L 18.109375 46.1875 
Q 21.34375 51.125 25.703125 53.5625 
Q 30.078125 56 35.796875 56 
Q 45.21875 56 50.046875 50.171875 
Q 54.890625 44.34375 54.890625 33.015625 
" id="BitstreamVeraSans-Roman-6e"/>
      <path d="M 34.28125 27.484375 
Q 23.390625 27.484375 19.1875 25 
Q 14.984375 22.515625 14.984375 16.5 
Q 14.984375 11.71875 18.140625 8.90625 
Q 21.296875 6.109375 26.703125 6.109375 
Q 34.1875 6.109375 38.703125 11.40625 
Q 43.21875 16.703125 43.21875 25.484375 
L 43.21875 27.484375 
z
M 52.203125 31.203125 
L 52.203125 0 
L 43.21875 0 
L 43.21875 8.296875 
Q 40.140625 3.328125 35.546875 0.953125 
Q 30.953125 -1.421875 24.3125 -1.421875 
Q 15.921875 -1.421875 10.953125 3.296875 
Q 6 8.015625 6 15.921875 
Q 6 25.140625 12.171875 29.828125 
Q 18.359375 34.515625 30.609375 34.515625 
L 43.21875 34.515625 
L 43.21875 35.40625 
Q 43.21875 41.609375 39.140625 45 
Q 35.0625 48.390625 27.6875 48.390625 
Q 23 48.390625 18.546875 47.265625 
Q 14.109375 46.140625 10.015625 43.890625 
L 10.015625 52.203125 
Q 14.9375 54.109375 19.578125 55.046875 
Q 24.21875 56 28.609375 56 
Q 40.484375 56 46.34375 49.84375 
Q 52.203125 43.703125 52.203125 31.203125 
" id="BitstreamVeraSans-Roman-61"/>
      <path d="M 30.609375 48.390625 
Q 23.390625 48.390625 19.1875 42.75 
Q 14.984375 37.109375 14.984375 27.296875 
Q 14.984375 17.484375 19.15625 11.84375 
Q 23.34375 6.203125 30.609375 6.203125 
Q 37.796875 6.203125 41.984375 11.859375 
Q 46.1875 17.53125 46.1875 27.296875 
Q 46.1875 37.015625 41.984375 42.703125 
Q 37.796875 48.390625 30.609375 48.390625 
M 30.609375 56 
Q 42.328125 56 49.015625 48.375 
Q 55.71875 40.765625 55.71875 27.296875 
Q 55.71875 13.875 49.015625 6.21875 
Q 42.328125 -1.421875 30.609375 -1.421875 
Q 18.84375 -1.421875 12.171875 6.21875 
Q 5.515625 13.875 5.515625 27.296875 
Q 5.515625 40.765625 12.171875 48.375 
Q 18.84375 56 30.609375 56 
" id="BitstreamVeraSans-Roman-6f"/>
      <path d="M 19.671875 64.796875 
L 19.671875 37.40625 
L 32.078125 37.40625 
Q 38.96875 37.40625 42.71875 40.96875 
Q 46.484375 44.53125 46.484375 51.125 
Q 46.484375 57.671875 42.71875 61.234375 
Q 38.96875 64.796875 32.078125 64.796875 
z
M 9.8125 72.90625 
L 32.078125 72.90625 
Q 44.34375 72.90625 50.609375 67.359375 
Q 56.890625 61.8125 56.890625 51.125 
Q 56.890625 40.328125 50.609375 34.8125 
Q 44.34375 29.296875 32.078125 29.296875 
L 19.671875 29.296875 
L 19.671875 0 
L 9.8125 0 
z
" id="BitstreamVeraSans-Roman-50"/>
      <path d="M 18.3125 70.21875 
L 18.3125 54.6875 
L 36.8125 54.6875 
L 36.8125 47.703125 
L 18.3125 47.703125 
L 18.3125 18.015625 
Q 18.3125 11.328125 20.140625 9.421875 
Q 21.96875 7.515625 27.59375 7.515625 
L 36.8125 7.515625 
L 36.8125 0 
L 27.59375 0 
Q 17.1875 0 13.234375 3.875 
Q 9.28125 7.765625 9.28125 18.015625 
L 9.28125 47.703125 
L 2.6875 47.703125 
L 2.6875 54.6875 
L 9.28125 54.6875 
L 9.28125 70.21875 
z
" id="BitstreamVeraSans-Roman-74"/>
      <path d="M 41.109375 46.296875 
Q 39.59375 47.171875 37.8125 47.578125 
Q 36.03125 48 33.890625 48 
Q 26.265625 48 22.1875 43.046875 
Q 18.109375 38.09375 18.109375 28.8125 
L 18.109375 0 
L 9.078125 0 
L 9.078125 54.6875 
L 18.109375 54.6875 
L 18.109375 46.1875 
Q 20.953125 51.171875 25.484375 53.578125 
Q 30.03125 56 36.53125 56 
Q 37.453125 56 38.578125 55.875 
Q 39.703125 55.765625 41.0625 55.515625 
z
" id="BitstreamVeraSans-Roman-72"/>
      <path d="M 18.109375 8.203125 
L 18.109375 -20.796875 
L 9.078125 -20.796875 
L 9.078125 54.6875 
L 18.109375 54.6875 
L 18.109375 46.390625 
Q 20.953125 51.265625 25.265625 53.625 
Q 29.59375 56 35.59375 56 
Q 45.5625 56 51.78125 48.09375 
Q 58.015625 40.1875 58.015625 27.296875 
Q 58.015625 14.40625 51.78125 6.484375 
Q 45.5625 -1.421875 35.59375 -1.421875 
Q 29.59375 -1.421875 25.265625 0.953125 
Q 20.953125 3.328125 18.109375 8.203125 
M 48.6875 27.296875 
Q 48.6875 37.203125 44.609375 42.84375 
Q 40.53125 48.484375 33.40625 48.484375 
Q 26.265625 48.484375 22.1875 42.84375 
Q 18.109375 37.203125 18.109375 27.296875 
Q 18.109375 17.390625 22.1875 11.75 
Q 26.265625 6.109375 33.40625 6.109375 
Q 40.53125 6.109375 44.609375 11.75 
Q 48.6875 17.390625 48.6875 27.296875 
" id="BitstreamVeraSans-Roman-70"/>
     </defs>
     <g transform="translate(417.753 67.10175)scale(0.144 -0.144)">
      <use xlink:href="#BitstreamVeraSans-Roman-50"/>
      <use x="60.287109375" xlink:href="#BitstreamVeraSans-Roman-72"/>
      <use x="101.369140625" xlink:href="#BitstreamVeraSans-Roman-6f"/>
      <use x="162.55078125" xlink:href="#BitstreamVeraSans-Roman-70"/>
      <use x="226.02734375" xlink:href="#BitstreamVeraSans-Roman-6f"/>
      <use x="287.208984375" xlink:href="#BitstreamVeraSans-Roman-72"/>
      <use x="328.322265625" xlink:href="#BitstreamVeraSans-Roman-74"/>
      <use x="367.53125" xlink:href="#BitstreamVeraSans-Roman-69"/>
      <use x="395.314453125" xlink:href="#BitstreamVeraSans-Roman-6f"/>
      <use x="456.49609375" xlink:href="#BitstreamVeraSans-Roman-6e"/>
      <use x="519.875" xlink:href="#BitstreamVeraSans-Roman-61"/>
      <use x="581.154296875" xlink:href="#BitstreamVeraSans-Roman-6c"/>
     </g>
    </g>
    <g id="line2d_56">
     <path d="M 381.753 83.19825 
L 401.913 83.19825 
" style="fill:none;stroke:#0000ff;stroke-linecap:square;"/>
    </g>
    <g id="line2d_57"/>
    <g id="text_21">
     <!-- Integral -->
     <defs>
      <path d="M 45.40625 27.984375 
Q 45.40625 37.75 41.375 43.109375 
Q 37.359375 48.484375 30.078125 48.484375 
Q 22.859375 48.484375 18.828125 43.109375 
Q 14.796875 37.75 14.796875 27.984375 
Q 14.796875 18.265625 18.828125 12.890625 
Q 22.859375 7.515625 30.078125 7.515625 
Q 37.359375 7.515625 41.375 12.890625 
Q 45.40625 18.265625 45.40625 27.984375 
M 54.390625 6.78125 
Q 54.390625 -7.171875 48.1875 -13.984375 
Q 42 -20.796875 29.203125 -20.796875 
Q 24.46875 -20.796875 20.265625 -20.09375 
Q 16.0625 -19.390625 12.109375 -17.921875 
L 12.109375 -9.1875 
Q 16.0625 -11.328125 19.921875 -12.34375 
Q 23.78125 -13.375 27.78125 -13.375 
Q 36.625 -13.375 41.015625 -8.765625 
Q 45.40625 -4.15625 45.40625 5.171875 
L 45.40625 9.625 
Q 42.625 4.78125 38.28125 2.390625 
Q 33.9375 0 27.875 0 
Q 17.828125 0 11.671875 7.65625 
Q 5.515625 15.328125 5.515625 27.984375 
Q 5.515625 40.671875 11.671875 48.328125 
Q 17.828125 56 27.875 56 
Q 33.9375 56 38.28125 53.609375 
Q 42.625 51.21875 45.40625 46.390625 
L 45.40625 54.6875 
L 54.390625 54.6875 
z
" id="BitstreamVeraSans-Roman-67"/>
      <path d="M 9.8125 72.90625 
L 19.671875 72.90625 
L 19.671875 0 
L 9.8125 0 
z
" id="BitstreamVeraSans-Roman-49"/>
     </defs>
     <g transform="translate(417.753 88.23825)scale(0.144 -0.144)">
      <use xlink:href="#BitstreamVeraSans-Roman-49"/>
      <use x="29.4921875" xlink:href="#BitstreamVeraSans-Roman-6e"/>
      <use x="92.87109375" xlink:href="#BitstreamVeraSans-Roman-74"/>
      <use x="132.080078125" xlink:href="#BitstreamVeraSans-Roman-65"/>
      <use x="193.603515625" xlink:href="#BitstreamVeraSans-Roman-67"/>
      <use x="257.080078125" xlink:href="#BitstreamVeraSans-Roman-72"/>
      <use x="298.193359375" xlink:href="#BitstreamVeraSans-Roman-61"/>
      <use x="359.47265625" xlink:href="#BitstreamVeraSans-Roman-6c"/>
     </g>
    </g>
   </g>
  </g>
 </g>
 <defs>
  <clipPath id="pd763d2c828">
   <rect height="345.6" width="446.4" x="72.0" y="43.2"/>
  </clipPath>
 </defs>
</svg>
