<?xml version="1.0" encoding="utf-8" standalone="no"?>
<!DOCTYPE svg PUBLIC "-//W3C//DTD SVG 1.1//EN"
  "http://www.w3.org/Graphics/SVG/1.1/DTD/svg11.dtd">
<!-- Created with matplotlib (http://matplotlib.org/) -->
<svg height="432pt" version="1.1" viewBox="0 0 576 432" width="576pt" xmlns="http://www.w3.org/2000/svg" xmlns:xlink="http://www.w3.org/1999/xlink">
 <defs>
  <style type="text/css">
*{stroke-linecap:butt;stroke-linejoin:round;stroke-miterlimit:100000;}
  </style>
 </defs>
 <g id="figure_1">
  <g id="patch_1">
   <path d="M 0 432 
L 576 432 
L 576 0 
L 0 0 
z
" style="fill:#ffffff;"/>
  </g>
  <g id="axes_1">
   <g id="patch_2">
    <path d="M 72 388.8 
L 518.4 388.8 
L 518.4 43.2 
L 72 43.2 
z
" style="fill:#ffffff;"/>
   </g>
   <g id="line2d_1">
    <path clip-path="url(#pc904298ef0)" d="M 72.1488 388.645023 
L 74.8272 386.025621 
L 77.6544 383.58237 
L 80.4816 381.430738 
L 83.4576 379.442718 
L 86.5824 377.62268 
L 89.856 375.971295 
L 93.4272 374.426466 
L 97.1472 373.060446 
L 101.1648 371.820471 
L 104.4384 370.797137 
L 106.6704 369.796213 
L 109.4976 368.27074 
L 113.2176 365.947994 
L 118.7232 362.128703 
L 121.4016 360.005261 
L 124.2288 357.539482 
L 129.288 352.755537 
L 134.0496 347.965769 
L 142.2336 339.370301 
L 156.6672 323.673313 
L 160.6848 319.097153 
L 170.8032 307.115264 
L 180.3264 296.390256 
L 192.3792 282.785949 
L 194.4624 280.841197 
L 196.3968 279.296481 
L 198.48 277.892229 
L 200.712 276.665921 
L 202.944 275.690203 
L 205.176 274.942884 
L 207.5568 274.381946 
L 210.2352 274.011373 
L 212.0208 273.960788 
L 215.592 274.37139 
L 225.4128 275.639782 
L 226.752 276.183998 
L 227.9424 276.895742 
L 245.2032 288.778602 
L 251.304 292.55805 
L 257.8512 296.331488 
L 264.696 299.971311 
L 267.5232 301.32651 
L 286.4208 303.628968 
L 287.6112 304.108439 
L 288.8016 304.816077 
L 298.176 311.103274 
L 302.4912 313.659414 
L 307.4016 316.319883 
L 314.8416 320.023078 
L 342.816 323.339509 
L 344.304 323.879929 
L 345.6432 324.620653 
L 351.744 328.553044 
L 356.0592 330.984065 
L 363.4992 334.800879 
L 368.112 337.04186 
L 411.7104 342.12773 
L 413.0496 342.665947 
L 414.24 343.371057 
L 419.448 346.799168 
L 425.5488 350.639821 
L 429.2688 353.372391 
L 433.2864 356.577472 
L 438.792 361.218534 
L 443.7024 365.272661 
L 446.6784 367.376028 
L 449.8032 369.301606 
L 453.0768 371.04871 
L 456.4992 372.620072 
L 460.5168 374.204688 
L 464.9808 375.741025 
L 469.5936 377.140189 
L 475.3968 378.672642 
L 481.6464 380.072471 
L 486.1104 381.10039 
L 489.9792 382.289185 
L 494.1456 383.823415 
L 498.4608 385.661549 
L 503.9664 388.273757 
L 505.3056 388.8 
L 518.4 388.8 
L 518.4 388.8 
" style="fill:none;stroke:#ff0000;stroke-linecap:square;"/>
   </g>
   <g id="line2d_2">
    <path clip-path="url(#pc904298ef0)" d="M 72.1488 388.8 
L 77.8032 388.8 
L 77.952 383.584071 
L 78.5472 383.109895 
L 78.696 383.109895 
L 78.9936 382.777973 
L 79.7376 382.208962 
L 79.8864 382.208962 
L 81.0768 381.213194 
L 81.3744 381.023523 
L 81.672 380.691601 
L 84.9456 378.700064 
L 85.392 378.462976 
L 85.5408 378.273306 
L 85.8384 378.178471 
L 86.2848 377.941383 
L 87.3264 377.324956 
L 87.4752 377.324956 
L 87.7728 377.087867 
L 88.6656 376.613692 
L 89.2608 376.329187 
L 89.856 376.044682 
L 90.1536 376.044682 
L 90.7488 375.617924 
L 91.7904 375.238583 
L 103.3968 363.043242 
L 108.1584 358.127732 
L 108.3072 358.127732 
L 120.2112 346.084357 
L 122.7408 343.645933 
L 122.8896 343.645933 
L 132.4128 334.620383 
L 132.5616 334.620383 
L 152.9472 315.649966 
L 153.2448 315.237571 
L 158.4528 310.288766 
L 158.8992 309.601433 
L 159.1968 309.601433 
L 159.4944 308.776635 
L 160.3872 307.814363 
L 160.8336 307.12703 
L 161.7264 306.164759 
L 162.024 305.752364 
L 167.6784 300.666094 
L 167.8272 300.666094 
L 168.4224 300.253691 
L 168.5712 300.253691 
L 170.6544 298.466622 
L 170.8032 298.466622 
L 171.2496 297.779289 
L 171.9936 296.954491 
L 172.1424 296.679561 
L 172.2912 296.679561 
L 173.4816 295.71729 
L 173.6304 295.71729 
L 174.3744 295.167421 
L 174.5232 295.167421 
L 174.8208 295.029956 
L 175.1184 294.342738 
L 179.2848 290.376828 
L 179.5824 289.968489 
L 183.1536 286.851097 
L 183.3024 286.851097 
L 185.832 284.429347 
L 186.2784 283.758811 
L 187.6176 282.420238 
L 187.9152 282.019503 
L 188.064 282.019503 
L 190.5936 279.794515 
L 198.7776 282.035079 
L 201.7536 282.87837 
L 202.2 282.974203 
L 205.6224 284.005719 
L 206.0688 284.106493 
L 209.64 285.233276 
L 210.0864 285.33736 
L 221.2464 289.36233 
L 241.4832 296.711762 
L 251.7504 300.12138 
L 262.464 303.476978 
L 285.0816 310.452016 
L 289.3968 311.943057 
L 289.8432 312.132199 
L 291.0336 312.602941 
L 291.48 312.789396 
L 295.4976 313.981491 
L 295.944 314.070843 
L 298.3248 314.690152 
L 298.7712 314.777538 
L 308.7408 317.597295 
L 309.1872 317.678215 
L 311.1216 318.28194 
L 311.568 318.401863 
L 323.7696 321.785486 
L 324.5136 322.072695 
L 326.0016 322.564236 
L 326.7456 322.852399 
L 331.3584 324.231346 
L 331.9536 324.443087 
L 332.4 324.528211 
L 334.4832 325.214253 
L 335.0784 325.428308 
L 344.1552 327.942811 
L 344.6016 328.032855 
L 346.6848 328.563316 
L 347.1312 328.650677 
L 350.7024 329.587757 
L 355.9104 330.92905 
L 358.44 331.516281 
L 358.8864 331.593728 
L 366.4752 333.45486 
L 386.1168 338.34805 
L 397.128 341.349624 
L 407.8416 344.506071 
L 420.192 348.24457 
L 420.7872 348.909198 
L 421.8288 349.896768 
L 421.9776 349.936921 
L 426.888 355.230678 
L 427.0368 355.230678 
L 427.9296 356.037704 
L 428.0784 356.037704 
L 428.376 356.518219 
L 429.864 357.953373 
L 430.608 358.9027 
L 430.9056 359.301639 
L 431.2032 359.519828 
L 431.9472 360.234895 
L 432.2448 360.460354 
L 432.5424 360.681697 
L 432.6912 360.712198 
L 433.8816 361.821238 
L 435.072 362.890625 
L 435.2208 362.918084 
L 435.5184 363.336563 
L 435.6672 363.363807 
L 436.4112 364.081173 
L 436.7088 364.304479 
L 437.0064 364.489676 
L 437.1552 364.527334 
L 437.6016 364.95203 
L 437.8992 365.000834 
L 438.792 365.886611 
L 438.9408 365.909502 
L 439.2384 366.329021 
L 439.3872 366.351161 
L 439.8336 366.711595 
L 439.9824 366.75383 
L 440.4288 367.164524 
L 440.7264 367.205863 
L 441.4704 367.971565 
L 442.0656 368.061521 
L 442.3632 368.467074 
L 442.512 368.485655 
L 442.9584 368.849259 
L 443.1072 368.877644 
L 443.4048 369.24463 
L 444.1488 369.529128 
L 444.4464 369.769759 
L 444.8928 370.108964 
L 445.1904 370.166012 
L 445.6368 370.562145 
L 446.232 370.799952 
L 446.5296 371.015393 
L 446.6784 371.058285 
L 447.1248 371.399406 
L 447.5712 371.632781 
L 447.8688 371.806958 
L 448.3152 372.042664 
L 448.7616 372.379219 
L 448.9104 372.392601 
L 449.3568 372.804956 
L 449.952 372.856212 
L 450.3984 373.241915 
L 450.5472 373.254113 
L 450.9936 373.625605 
L 451.44 373.683289 
L 451.8864 374.050284 
L 452.3328 374.122498 
L 452.6304 374.402535 
L 453.2256 374.503892 
L 453.3744 374.833353 
L 454.1184 374.949649 
L 454.5648 375.401506 
L 455.0112 375.441262 
L 455.4576 375.797192 
L 455.904 375.864706 
L 456.2016 376.17819 
L 457.2432 376.449839 
L 457.5408 376.602789 
L 457.9872 376.675698 
L 458.2848 376.983519 
L 458.88 377.056594 
L 459.3264 377.515208 
L 460.2192 377.76315 
L 460.5168 377.939863 
L 461.2608 378.013689 
L 461.5584 378.305803 
L 462.1536 378.393835 
L 462.4512 378.733697 
L 463.344 378.78913 
L 463.7904 379.121911 
L 464.088 379.292046 
L 464.5344 379.304916 
L 464.9808 379.644511 
L 465.7248 379.716766 
L 466.0224 380.023412 
L 467.064 380.126727 
L 467.5104 380.460436 
L 468.2544 380.492284 
L 468.7008 380.826297 
L 468.9984 380.988243 
L 469.5936 381.005938 
L 469.7424 381.173086 
L 469.8912 381.173086 
L 470.1888 381.361029 
L 471.0816 381.435119 
L 471.2304 381.602438 
L 471.3792 381.602438 
L 471.6768 381.755884 
L 472.5696 381.822704 
L 473.016 382.304133 
L 473.9088 382.321206 
L 474.2064 382.639501 
L 475.5456 382.740144 
L 475.8432 383.041644 
L 477.1824 383.123673 
L 477.6288 383.605345 
L 478.8192 383.62642 
L 478.968 383.794498 
L 479.1168 383.794498 
L 479.4144 383.992664 
L 480.456 384.047389 
L 480.6048 384.215619 
L 480.7536 384.215619 
L 481.0512 384.372341 
L 482.2416 384.450378 
L 482.3904 384.61876 
L 482.5392 384.61876 
L 482.688 380.217425 
L 483.7296 380.454513 
L 484.3248 380.549348 
L 484.6224 380.691601 
L 485.2176 380.786436 
L 485.5152 380.881271 
L 488.64 381.782204 
L 489.0864 381.877039 
L 491.3184 382.683137 
L 491.7648 382.872808 
L 492.0624 382.967642 
L 493.6992 383.584071 
L 493.848 388.8 
L 518.4 388.8 
L 518.4 388.8 
" style="fill:none;stroke:#bfbf00;stroke-dasharray:6.000000,6.000000;stroke-dashoffset:0.0;"/>
   </g>
   <g id="line2d_3">
    <path clip-path="url(#pc904298ef0)" d="M 72.1488 388.8 
L 72.2976 388.8 
L 72.4464 388.8 
L 72.5952 154.607984 
L 72.744 154.686791 
L 72.8928 155.156779 
L 73.488 155.156779 
L 73.6368 155.626784 
L 73.9344 155.626784 
L 74.0832 156.096821 
L 74.6784 156.096821 
L 74.8272 156.566858 
L 75.2736 156.566858 
L 75.4224 157.036928 
L 76.0176 157.036928 
L 76.1664 157.506998 
L 76.464 157.506998 
L 76.6128 157.977101 
L 76.9104 157.977101 
L 77.0592 158.447221 
L 77.5056 158.447221 
L 77.6544 158.917373 
L 78.2496 158.917373 
L 78.3984 159.466135 
L 78.5472 154.900301 
L 78.696 154.900301 
L 78.8448 154.703785 
L 78.9936 155.038266 
L 79.44 154.955264 
L 79.5888 154.679974 
L 79.7376 155.010227 
L 80.0352 154.906479 
L 80.3328 154.656179 
L 80.4816 155.044444 
L 80.6304 154.982189 
L 80.7792 154.781723 
L 80.928 154.781723 
L 81.0768 155.074515 
L 81.3744 154.991513 
L 81.5232 154.793145 
L 81.672 155.170971 
L 82.2672 154.734101 
L 82.416 155.101439 
L 82.7136 155.014341 
L 83.16 154.789195 
L 83.3088 155.152289 
L 83.7552 154.986318 
L 83.904 154.986318 
L 84.2016 154.765385 
L 84.3504 154.765385 
L 84.4992 155.207252 
L 84.7968 154.996708 
L 85.0944 154.890977 
L 85.2432 155.258135 
L 85.9872 154.902415 
L 86.136 154.902415 
L 86.2848 155.184556 
L 86.5824 155.163809 
L 86.7312 154.957559 
L 86.88 154.957559 
L 87.0288 155.322504 
L 87.4752 155.235504 
L 87.7728 155.012718 
L 88.0704 155.012718 
L 88.2192 155.29045 
L 88.5168 155.165989 
L 88.6656 155.173642 
L 88.9632 155.032678 
L 89.112 155.382908 
L 90.1536 155.079349 
L 90.3024 155.475398 
L 91.1952 155.178394 
L 91.344 155.567904 
L 91.7904 155.401966 
L 92.3856 155.295547 
L 92.6832 155.268901 
L 92.832 155.577474 
L 93.1296 155.494505 
L 93.7248 155.39469 
L 93.8736 155.324208 
L 94.0224 155.67003 
L 94.7664 155.555728 
L 95.2128 155.450014 
L 95.3616 155.414765 
L 95.5104 155.804094 
L 96.1056 155.681566 
L 96.552 155.540603 
L 96.8496 155.549321 
L 96.9984 155.934406 
L 97.1472 155.934406 
L 97.4448 155.736956 
L 98.3376 155.639959 
L 98.4864 156.027077 
L 98.784 155.981897 
L 99.6768 155.765879 
L 99.8256 155.845145 
L 100.1232 155.73943 
L 100.272 156.116076 
L 101.1648 156.041596 
L 101.4624 155.971114 
L 102.0576 155.909481 
L 102.2064 156.288143 
L 102.6528 156.205223 
L 102.9504 156.211696 
L 103.6944 156.070749 
L 103.992 156.079647 
L 104.1408 156.460308 
L 105.3312 156.205715 
L 105.48 156.632588 
L 105.7776 156.549684 
L 106.224 156.367064 
L 106.5216 156.340795 
L 106.6704 156.340795 
L 106.8192 156.601124 
L 107.2656 156.572676 
L 107.4144 156.449345 
L 107.5632 156.81842 
L 107.8608 156.773568 
L 108.1584 156.698858 
L 108.3072 156.698858 
L 108.456 156.522662 
L 108.7536 156.522662 
L 108.9024 156.825122 
L 109.3488 156.78984 
L 109.6464 156.648877 
L 109.7952 157.083911 
L 110.5392 156.819469 
L 110.688 157.176942 
L 110.9856 156.971871 
L 111.432 156.981015 
L 111.5808 157.270005 
L 111.7296 157.104231 
L 112.0272 157.036846 
L 112.176 156.966381 
L 112.3248 157.321642 
L 112.6224 157.235559 
L 112.92 157.092727 
L 113.0688 157.373327 
L 113.3664 157.373327 
L 113.664 157.219106 
L 113.8128 157.670478 
L 114.408 157.421883 
L 114.5568 157.421883 
L 114.7056 157.8051 
L 115.0032 157.436697 
L 115.5984 157.375523 
L 115.7472 157.649748 
L 116.0448 157.572499 
L 116.3424 157.572499 
L 116.4912 157.739977 
L 116.64 157.739977 
L 116.9376 157.593294 
L 117.0864 157.919123 
L 117.5328 157.684588 
L 117.6816 158.012416 
L 117.9792 157.926612 
L 118.2768 157.846396 
L 118.4256 158.185646 
L 119.0208 157.911995 
L 119.1696 158.279021 
L 119.9136 157.96817 
L 120.0624 157.96817 
L 120.2112 158.328183 
L 120.36 158.328183 
L 120.5088 158.130093 
L 120.6576 158.527977 
L 120.8064 158.465869 
L 120.9552 158.2568 
L 121.2528 158.151085 
L 121.4016 158.517915 
L 121.9968 158.390914 
L 122.1456 158.691473 
L 122.2944 158.484436 
L 122.4432 158.484436 
L 122.592 158.826423 
L 122.8896 158.826423 
L 123.0384 158.619402 
L 123.1872 158.85787 
L 123.6336 158.79314 
L 123.7824 158.668941 
L 123.9312 159.013566 
L 124.2288 158.886761 
L 124.3776 158.886761 
L 124.5264 158.762578 
L 124.6752 159.107187 
L 124.9728 158.798319 
L 125.1216 159.200824 
L 125.4192 159.15689 
L 125.7168 158.854773 
L 125.8656 159.333381 
L 126.1632 159.002243 
L 126.312 159.4271 
L 126.6096 159.178767 
L 126.7584 159.479474 
L 127.2048 159.231141 
L 127.3536 159.531864 
L 127.8 159.24938 
L 127.9488 159.584287 
L 128.2464 159.416415 
L 128.544 159.305998 
L 128.6928 159.593054 
L 128.8416 159.46892 
L 128.9904 159.893843 
L 129.288 159.76971 
L 129.4368 159.726087 
L 129.5856 159.946381 
L 130.032 159.662291 
L 130.1808 160.123086 
L 130.3296 160.123086 
L 130.4784 159.955394 
L 130.6272 160.175672 
L 131.2224 159.966669 
L 131.3712 160.26754 
L 131.8176 159.983793 
L 131.9664 160.320241 
L 132.264 160.111385 
L 132.4128 160.455683 
L 132.5616 160.455683 
L 132.7104 160.168052 
L 132.8592 160.630519 
L 133.008 160.630519 
L 133.1568 160.423744 
L 133.9008 160.474643 
L 134.0496 160.568886 
L 134.1984 161.037154 
L 134.3472 160.99394 
L 134.6448 160.828543 
L 134.9424 160.785362 
L 135.0912 161.129562 
L 135.24 160.796997 
L 135.3888 161.14118 
L 135.8352 160.932701 
L 135.984 161.233769 
L 136.1328 161.233769 
L 136.2816 161.109749 
L 136.4304 161.369505 
L 136.8768 161.202502 
L 137.0256 161.381254 
L 137.3232 161.214284 
L 137.472 161.598108 
L 137.6208 161.598108 
L 137.7696 161.350102 
L 137.9184 161.350102 
L 138.0672 161.775271 
L 138.216 161.567087 
L 138.3648 161.567087 
L 138.5136 161.992255 
L 138.96 161.660199 
L 139.1088 162.004185 
L 139.2576 161.920118 
L 139.4064 161.672195 
L 139.5552 162.22135 
L 139.8528 161.808177 
L 140.0016 162.192066 
L 140.1504 162.192066 
L 140.5968 161.86491 
L 140.7456 162.285474 
L 140.8944 161.996287 
L 141.0432 161.996287 
L 141.192 162.421537 
L 141.6384 162.096659 
L 141.7872 162.515125 
L 142.0848 162.307449 
L 142.2336 162.651271 
L 142.3824 162.486071 
L 142.5312 162.78745 
L 142.8288 162.579855 
L 142.9776 163.005172 
L 143.2752 162.921547 
L 143.424 162.632491 
L 143.5728 163.057824 
L 143.8704 163.057824 
L 144.0192 162.850426 
L 144.168 163.194134 
L 144.4656 162.945653 
L 144.6144 163.350206 
L 144.7632 163.288279 
L 144.912 163.081012 
L 145.0608 163.548526 
L 145.3584 163.217436 
L 145.5072 163.217436 
L 145.656 163.477733 
L 145.9536 163.435699 
L 146.2512 163.572205 
L 146.4 163.572205 
L 146.5488 163.956357 
L 146.6976 163.749352 
L 147.144 163.707466 
L 147.2928 163.885924 
L 147.4416 163.680378 
L 147.5904 163.680378 
L 147.7392 164.104498 
L 148.0368 163.897674 
L 148.1856 164.15815 
L 148.3344 164.15815 
L 148.4832 163.978562 
L 148.632 164.37697 
L 148.9296 164.232581 
L 149.0784 164.513722 
L 149.5248 164.389637 
L 149.6736 164.567718 
L 149.9712 164.526193 
L 150.12 164.848925 
L 150.4176 164.58209 
L 150.5664 164.903085 
L 150.864 164.717351 
L 151.0128 165.266686 
L 151.3104 164.936695 
L 151.4592 165.321109 
L 151.9056 164.993067 
L 152.0544 165.375678 
L 152.2032 165.375678 
L 152.5008 165.210822 
L 152.6496 165.47161 
L 152.9472 165.389296 
L 153.096 165.691347 
L 153.3936 165.48744 
L 153.5424 165.48744 
L 153.6912 165.869969 
L 153.9888 165.664226 
L 154.1376 166.007229 
L 154.4352 165.80147 
L 154.584 166.186031 
L 154.8816 166.021568 
L 155.0304 166.406162 
L 155.4768 166.077187 
L 155.6256 166.4616 
L 155.7744 166.42091 
L 155.9232 166.256136 
L 156.072 166.681977 
L 156.3696 166.476578 
L 156.5184 166.902452 
L 156.9648 166.538735 
L 157.1136 166.9583 
L 157.2624 166.876642 
L 157.4112 167.17902 
L 157.7088 166.973917 
L 157.8576 167.358674 
L 158.0064 167.358674 
L 158.304 167.153669 
L 158.4528 167.579625 
L 158.6016 167.374701 
L 158.7504 167.374701 
L 158.8992 167.636013 
L 159.3456 167.636013 
L 159.4944 167.899439 
L 159.792 167.899439 
L 160.2384 167.643535 
L 160.3872 168.08047 
L 160.536 167.971953 
L 160.6848 168.398023 
L 160.9824 168.233446 
L 161.1312 168.537414 
L 161.4288 168.333064 
L 161.5776 168.333064 
L 161.7264 168.553506 
L 162.024 168.513816 
L 162.1728 168.89882 
L 162.3216 168.653551 
L 162.4704 168.653551 
L 162.6192 169.079719 
L 162.9168 168.834549 
L 163.0656 169.219618 
L 163.3632 169.015661 
L 163.512 169.400763 
L 163.8096 169.236284 
L 163.9584 169.155789 
L 164.1072 169.376477 
L 164.256 169.296065 
L 164.4048 169.701782 
L 164.7024 169.477571 
L 164.8512 169.862754 
L 165.1488 169.659191 
L 165.2976 170.044408 
L 165.4464 170.044408 
L 165.5952 169.79986 
L 165.744 170.226209 
L 165.8928 170.146107 
L 166.0416 170.367025 
L 166.488 170.163773 
L 166.6368 170.549071 
L 166.7856 170.46915 
L 166.9344 170.731233 
L 167.232 170.65141 
L 167.3808 170.913542 
L 167.8272 170.774626 
L 167.976 171.016306 
L 168.1248 170.936697 
L 168.2736 171.33581 
L 168.5712 171.33581 
L 168.72 171.119415 
L 168.8688 171.586995 
L 169.0176 171.445949 
L 169.1664 171.851961 
L 169.6128 171.508565 
L 169.7616 171.832526 
L 170.0592 171.773826 
L 170.208 172.015752 
L 170.5056 172.062686 
L 170.6544 172.32521 
L 170.8032 172.32521 
L 170.952 172.5908 
L 171.1008 172.5908 
L 171.2496 172.306742 
L 171.3984 172.306742 
L 171.5472 172.654595 
L 171.9936 172.454818 
L 172.1424 172.838477 
L 172.2912 172.838477 
L 172.44 172.722291 
L 172.5888 173.148902 
L 172.8864 172.984882 
L 173.0352 173.333112 
L 173.3328 173.254617 
L 173.4816 173.517453 
L 173.6304 173.517453 
L 173.7792 173.401693 
L 173.928 173.787565 
L 174.2256 173.650944 
L 174.3744 174.013218 
L 174.8208 173.935034 
L 174.9696 174.22237 
L 175.1184 174.246738 
L 175.2672 174.107282 
L 175.416 174.431832 
L 175.7136 174.231022 
L 175.8624 174.231022 
L 176.0112 174.65801 
L 176.3088 174.543364 
L 176.4576 174.843367 
L 176.904 174.692833 
L 177.0528 175.078328 
L 177.2016 175.041735 
L 177.3504 174.877961 
L 177.4992 175.305047 
L 177.7968 175.191122 
L 177.9456 175.577322 
L 178.0944 175.397668 
L 178.2432 175.804352 
L 178.6896 175.618372 
L 178.8384 176.040935 
L 179.136 175.877259 
L 179.2848 175.841141 
L 179.4336 176.19142 
L 179.7312 176.114514 
L 179.88 176.500895 
L 180.1776 176.301363 
L 180.3264 176.651936 
L 180.624 176.57526 
L 180.7728 177.002592 
L 181.0704 176.803339 
L 181.2192 177.189817 
L 181.6656 177.006279 
L 181.8144 177.428777 
L 181.9632 177.317097 
L 182.112 177.616444 
L 182.4096 177.560662 
L 182.5584 177.504929 
L 182.7072 177.891555 
L 183.0048 177.780318 
L 183.1536 178.207846 
L 183.4512 178.131907 
L 183.6 178.396055 
L 183.8976 178.264858 
L 184.0464 178.672033 
L 184.4928 178.526743 
L 184.6416 178.913582 
L 184.7904 178.791087 
L 184.9392 179.143283 
L 185.088 179.143283 
L 185.2368 179.012922 
L 185.3856 179.420229 
L 185.832 179.310549 
L 185.9808 179.663187 
L 186.4272 179.557374 
L 186.576 179.893511 
L 186.8736 179.784404 
L 187.0224 180.171472 
L 187.32 180.062644 
L 187.4688 180.449762 
L 187.6176 180.41584 
L 187.7664 180.728363 
L 188.2128 180.620108 
L 188.3616 180.973681 
L 188.5104 180.973681 
L 188.6592 180.810627 
L 188.808 181.238631 
L 188.9568 181.164331 
L 189.1056 181.518133 
L 189.7008 181.338511 
L 189.8496 181.723941 
L 190.1472 181.616965 
L 190.296 181.971193 
L 190.5936 181.89745 
L 190.7424 182.305281 
L 191.1888 182.178394 
L 191.3376 182.622507 
L 191.4864 182.622507 
L 191.6352 182.916347 
L 191.784 182.916347 
L 192.0816 182.75349 
L 192.2304 183.137117 
L 192.528 183.033795 
L 192.6768 183.459964 
L 192.9744 183.305595 
L 193.1232 183.244192 
L 193.272 183.661102 
L 193.5696 183.596831 
L 193.7184 184.02531 
L 194.1648 183.931755 
L 194.3136 184.357907 
L 194.76 184.268678 
L 194.9088 184.691192 
L 195.6528 184.661564 
L 195.8016 185.052827 
L 196.0992 185.125685 
L 196.248 185.561244 
L 196.8432 185.555721 
L 196.992 185.967354 
L 197.5872 185.986757 
L 197.736 186.445339 
L 198.3312 186.453926 
L 198.48 186.904446 
L 199.224 186.978533 
L 199.3728 187.425481 
L 200.2656 187.561315 
L 200.4144 187.999315 
L 201.3072 188.27336 
L 201.456 188.748412 
L 201.9024 188.811356 
L 202.2 188.908516 
L 202.4976 189.005693 
L 202.6464 189.459753 
L 203.8368 189.833613 
L 204.1344 190.412183 
L 205.4736 190.927499 
L 205.6224 191.397765 
L 205.92 191.503906 
L 206.9616 191.980171 
L 207.5568 192.309769 
L 207.7056 192.368829 
L 207.8544 192.830623 
L 209.64 193.902042 
L 209.9376 193.996859 
L 213.5088 196.391045 
L 213.9552 196.696964 
L 214.104 197.05578 
L 214.4016 197.05578 
L 214.6992 197.380036 
L 214.9968 197.476558 
L 215.4432 197.898121 
L 216.1872 198.549386 
L 216.336 198.285484 
L 216.4848 198.285484 
L 216.6336 198.479789 
L 216.7824 198.479789 
L 217.08 198.938879 
L 217.2288 198.938879 
L 217.5264 199.363819 
L 217.6752 199.363819 
L 219.7584 201.043011 
L 219.9072 201.239822 
L 220.056 201.239822 
L 220.3536 201.570338 
L 220.6512 201.802562 
L 220.8 201.505919 
L 221.8416 202.303375 
L 222.288 202.635939 
L 222.7344 203.068466 
L 223.1808 203.402128 
L 223.3296 203.402128 
L 223.6272 203.736265 
L 224.9664 204.641255 
L 225.1152 204.876757 
L 225.4128 204.717653 
L 225.5616 204.918758 
L 225.7104 204.918758 
L 225.8592 205.189787 
L 226.008 205.189787 
L 226.1568 205.46103 
L 226.3056 205.46103 
L 226.4544 205.732486 
L 226.6032 205.732486 
L 226.9008 205.609516 
L 227.3472 206.188398 
L 227.6448 206.135893 
L 227.7936 206.341832 
L 228.0912 206.341832 
L 228.6864 207.128374 
L 228.8352 206.905408 
L 229.4304 207.626384 
L 229.5792 207.575534 
L 229.728 207.84953 
L 229.8768 207.84953 
L 230.0256 208.05624 
L 230.3232 208.075626 
L 230.6208 208.385002 
L 230.7696 208.626748 
L 230.9184 208.335332 
L 231.3648 208.887126 
L 231.5136 208.838111 
L 232.1088 209.632994 
L 232.2576 209.41193 
L 232.704 209.965362 
L 232.8528 209.965362 
L 233.0016 210.138346 
L 233.5968 210.229214 
L 233.7456 210.424944 
L 233.8944 210.424944 
L 234.4896 211.084107 
L 234.6384 211.037928 
L 234.936 211.420211 
L 235.0848 211.420211 
L 235.2336 211.872157 
L 235.3824 211.872157 
L 235.68 211.757331 
L 236.1264 212.279742 
L 236.2752 212.095483 
L 236.7216 212.618599 
L 237.168 212.609226 
L 237.7632 213.412122 
L 237.912 213.193974 
L 238.5072 213.928617 
L 238.656 213.710879 
L 239.2512 214.446702 
L 239.4 214.229406 
L 239.5488 214.404915 
L 239.8464 214.897091 
L 240.144 215.03191 
L 240.2928 215.03191 
L 240.7392 215.629162 
L 240.888 215.412816 
L 241.4832 215.976147 
L 241.7808 216.005873 
L 241.9296 216.182348 
L 242.2272 216.289603 
L 242.376 216.712117 
L 242.5248 216.479352 
L 242.6736 216.479352 
L 242.8224 216.884938 
L 242.9712 216.884938 
L 243.2688 217.169553 
L 243.4176 217.023804 
L 243.5664 217.200902 
L 243.864 217.663352 
L 244.0128 217.840712 
L 244.1616 217.695454 
L 244.608 217.942149 
L 244.9056 218.331872 
L 245.0544 218.117788 
L 245.7984 219.007095 
L 246.096 218.971715 
L 246.3936 219.506449 
L 246.6912 219.54101 
L 246.84 219.471872 
L 246.9888 219.828968 
L 247.2864 219.795046 
L 247.7328 220.400672 
L 247.8816 220.400672 
L 248.1792 220.724141 
L 248.328 220.546699 
L 248.7744 221.118944 
L 248.9232 221.29832 
L 249.072 221.017786 
L 249.3696 221.445937 
L 249.5184 221.445937 
L 249.816 221.985047 
L 249.9648 221.594291 
L 250.1136 221.594291 
L 250.7088 222.459738 
L 251.0064 222.459738 
L 251.1552 222.318332 
L 251.304 222.678935 
L 251.4528 222.678935 
L 251.8992 223.091502 
L 252.048 222.86439 
L 252.6432 223.558852 
L 252.9408 223.593314 
L 253.6848 224.248938 
L 253.8336 224.040213 
L 254.5776 224.86946 
L 254.7264 224.661275 
L 255.6192 225.614099 
L 255.9168 225.614099 
L 256.3632 226.092216 
L 256.512 226.274656 
L 256.6608 226.033385 
L 256.9584 226.284766 
L 257.4048 226.798623 
L 257.5536 226.706543 
L 258.1488 227.507899 
L 258.2976 227.233543 
L 258.5952 227.233543 
L 258.744 227.600487 
L 258.8928 227.600487 
L 259.0416 228.002042 
L 259.1904 228.002042 
L 259.3392 227.796955 
L 259.488 228.130339 
L 259.6368 228.130339 
L 260.232 228.785372 
L 260.6784 228.696619 
L 260.8272 228.915274 
L 260.976 228.915274 
L 261.2736 229.434425 
L 261.4224 229.265012 
L 262.3152 230.172247 
L 262.464 229.917867 
L 262.6128 230.103076 
L 262.9104 230.171591 
L 263.0592 230.322601 
L 263.208 230.727629 
L 263.3568 230.525246 
L 263.6544 230.710849 
L 263.8032 230.710849 
L 263.952 230.862284 
L 264.2496 231.419748 
L 264.3984 231.419748 
L 264.696 231.286551 
L 264.9936 231.810782 
L 265.44 232.217662 
L 265.5888 231.982553 
L 265.7376 232.169123 
L 265.8864 232.169123 
L 266.184 232.695057 
L 266.3328 232.712166 
L 266.6304 232.847738 
L 266.928 232.868845 
L 267.3744 233.413379 
L 267.672 233.549508 
L 267.8208 233.503542 
L 268.2672 233.913045 
L 268.5648 234.066708 
L 269.4576 234.733869 
L 269.6064 234.733869 
L 270.3504 235.40329 
L 270.4992 235.40329 
L 271.392 236.230063 
L 271.5408 236.230063 
L 271.9872 236.506386 
L 272.136 236.397394 
L 272.4336 236.779235 
L 272.5824 236.796261 
L 273.1776 237.352086 
L 273.3264 237.352086 
L 274.368 238.154655 
L 274.5168 238.154655 
L 274.6656 238.434288 
L 274.9632 238.591229 
L 275.5584 238.994701 
L 275.7072 238.994701 
L 276.3024 239.680412 
L 276.4512 239.295982 
L 277.0464 239.860132 
L 277.1952 239.860132 
L 277.4928 240.142797 
L 277.6416 240.142797 
L 277.7904 240.425871 
L 277.9392 240.425871 
L 280.0224 242.098901 
L 280.1712 242.098901 
L 280.7664 242.671162 
L 280.9152 242.671162 
L 281.064 242.448393 
L 281.6592 242.862255 
L 281.808 242.862255 
L 282.1056 243.149967 
L 282.2544 243.149967 
L 282.4032 243.438105 
L 282.552 243.438105 
L 282.9984 243.854228 
L 283.1472 243.854228 
L 284.04 244.594935 
L 284.1888 244.594935 
L 285.8256 245.887828 
L 285.9744 245.635611 
L 286.4208 245.961915 
L 286.5696 245.961915 
L 286.8672 246.418515 
L 287.016 246.418515 
L 287.3136 246.909757 
L 287.6112 247.073712 
L 287.76 246.726498 
L 288.6528 247.682649 
L 288.8016 247.46686 
L 288.9504 247.665278 
L 289.0992 248.129563 
L 289.248 248.129563 
L 289.3968 248.32826 
L 289.5456 248.146983 
L 289.6944 248.214106 
L 289.992 248.612121 
L 290.1408 248.612121 
L 290.2896 248.811276 
L 290.4384 248.664281 
L 290.5872 248.731355 
L 290.736 248.930756 
L 291.0336 249.017346 
L 291.3312 249.450479 
L 291.48 249.450479 
L 291.7776 249.717461 
L 291.9264 249.738453 
L 292.3728 250.172701 
L 292.5216 250.239643 
L 292.6704 250.440158 
L 292.8192 250.261864 
L 293.1168 250.529584 
L 293.2656 250.529584 
L 293.4144 250.964896 
L 293.5632 250.787389 
L 293.712 250.820819 
L 294.0096 251.458343 
L 294.456 251.550169 
L 294.7536 251.852196 
L 295.0512 251.878178 
L 295.3488 252.15827 
L 295.6464 252.15827 
L 295.944 252.476806 
L 296.2416 252.815639 
L 296.5392 252.774466 
L 296.8368 253.114125 
L 296.9856 253.114125 
L 297.2832 253.654096 
L 297.432 253.463937 
L 297.5808 253.513878 
L 297.7296 253.987954 
L 297.8784 253.987954 
L 298.176 254.225136 
L 298.3248 254.019197 
L 298.4736 254.019197 
L 299.0688 254.936444 
L 299.2176 254.626552 
L 299.5152 255.036087 
L 299.664 255.036087 
L 299.8128 255.307461 
L 300.408 255.547076 
L 300.5568 255.752548 
L 300.7056 255.752548 
L 300.8544 256.057664 
L 301.0032 255.887752 
L 301.152 256.060482 
L 301.5984 256.060482 
L 301.7472 256.621748 
L 301.896 256.436162 
L 302.1936 256.849114 
L 302.3424 256.849114 
L 302.64 257.295635 
L 302.7888 256.98698 
L 302.9376 257.193936 
L 303.0864 257.193936 
L 303.5328 257.641276 
L 303.9792 257.714675 
L 304.128 258.130044 
L 304.2768 258.130044 
L 304.4256 258.387481 
L 304.5744 258.387481 
L 304.872 258.270984 
L 305.0208 258.654455 
L 305.1696 258.720479 
L 305.3184 258.928901 
L 305.4672 258.928901 
L 305.616 259.104459 
L 305.7648 259.005561 
L 306.36 259.665528 
L 306.5088 259.825345 
L 306.6576 259.468683 
L 306.9552 259.920678 
L 307.2528 259.986547 
L 307.4016 260.373164 
L 307.5504 260.406078 
L 307.6992 260.210479 
L 307.848 260.519364 
L 308.1456 260.519364 
L 308.2944 260.874313 
L 308.4432 260.907194 
L 308.592 261.117755 
L 308.8896 260.989155 
L 309.1872 261.411104 
L 309.336 261.443944 
L 309.6336 261.866401 
L 309.9312 261.706207 
L 310.08 262.016271 
L 310.2288 262.016271 
L 310.824 262.651968 
L 310.9728 262.460261 
L 311.1216 262.525794 
L 311.2704 262.917959 
L 311.568 262.983459 
L 311.8656 263.376164 
L 312.0144 263.038241 
L 312.312 263.431709 
L 312.4608 263.431709 
L 312.7584 263.874814 
L 312.9072 263.89116 
L 313.056 263.767321 
L 313.5024 264.227739 
L 313.9488 264.639708 
L 314.0976 264.65603 
L 314.2464 264.500858 
L 314.544 264.813323 
L 314.6928 264.813323 
L 314.9904 265.45791 
L 315.1392 265.45791 
L 315.4368 265.705654 
L 315.5856 265.552064 
L 316.032 265.885627 
L 316.1808 265.885627 
L 316.9248 266.554861 
L 317.0736 266.554861 
L 317.3712 266.890547 
L 317.52 266.890547 
L 317.6688 267.074887 
L 317.8176 267.074887 
L 317.9664 267.41163 
L 318.264 267.41163 
L 319.008 268.087296 
L 319.1568 268.087296 
L 319.3056 268.272874 
L 319.4544 268.272874 
L 320.0496 268.765903 
L 320.1984 268.58579 
L 320.3472 268.58579 
L 320.9424 269.113772 
L 321.0912 269.113772 
L 321.8352 269.798844 
L 321.984 269.798844 
L 322.5792 270.298542 
L 322.728 270.298542 
L 322.8768 270.675615 
L 323.3232 270.686356 
L 323.472 271.021239 
L 323.7696 271.021239 
L 323.9184 271.210439 
L 324.0672 271.210439 
L 324.216 271.557236 
L 324.5136 271.557236 
L 324.96 271.904827 
L 325.1088 271.699183 
L 325.2576 271.889677 
L 325.4064 271.889677 
L 325.8528 272.430245 
L 326.0016 272.430245 
L 326.5968 272.940612 
L 326.8944 272.972632 
L 327.0432 273.292578 
L 327.3408 273.324575 
L 327.936 273.870043 
L 328.0848 273.870043 
L 328.8288 274.547076 
L 328.9776 274.578982 
L 329.5728 275.097018 
L 329.7216 274.768035 
L 330.3168 275.288496 
L 330.4656 275.288496 
L 330.7632 275.647198 
L 330.912 275.647198 
L 331.2096 276.006793 
L 331.3584 276.03856 
L 331.9536 276.56374 
L 332.1024 276.56374 
L 332.2512 276.925597 
L 332.5488 276.925597 
L 332.6976 277.122703 
L 332.8464 277.122703 
L 333.7392 278.048324 
L 333.888 278.048324 
L 334.1856 278.215188 
L 334.4832 278.056329 
L 334.9296 278.622732 
L 335.2272 278.622732 
L 335.376 278.991013 
L 335.5248 278.991013 
L 335.6736 279.159786 
L 335.9712 279.191266 
L 336.7152 279.931726 
L 336.864 279.931726 
L 337.4592 280.474024 
L 337.608 280.505389 
L 337.7568 280.676202 
L 337.9056 280.676202 
L 338.2032 281.049956 
L 338.352 281.081272 
L 338.9472 281.628149 
L 339.096 281.274101 
L 339.2448 281.477943 
L 339.3936 281.477943 
L 340.1376 282.233423 
L 340.2864 282.233423 
L 340.4352 282.438535 
L 340.584 282.438535 
L 341.328 283.19934 
L 341.4768 283.19934 
L 342.072 283.757296 
L 342.3696 283.788333 
L 342.816 284.348787 
L 342.9648 284.348787 
L 343.2624 284.237198 
L 343.56 284.654427 
L 343.7088 284.654427 
L 344.1552 285.10362 
L 344.304 285.10362 
L 344.6016 285.584661 
L 344.7504 285.430268 
L 344.8992 285.445672 
L 345.048 285.7178 
L 345.1968 285.7178 
L 345.6432 286.231919 
L 345.9408 286.095085 
L 346.0896 286.672394 
L 346.8336 286.690625 
L 347.28 287.482525 
L 347.4288 287.197058 
L 347.5776 287.441254 
L 347.7264 287.441254 
L 348.024 288.022061 
L 348.1728 287.737192 
L 348.768 288.534173 
L 349.2144 288.556837 
L 349.6608 289.110384 
L 349.8096 289.012846 
L 349.9584 289.073627 
L 350.5536 289.876564 
L 350.7024 289.593752 
L 351.1488 290.150806 
L 351.2976 290.211382 
L 351.4464 290.459953 
L 351.5952 290.36634 
L 351.744 290.426809 
L 352.0416 290.9861 
L 352.3392 291.046496 
L 352.6368 290.984781 
L 353.232 291.796674 
L 353.3808 291.516041 
L 353.5296 291.767332 
L 353.6784 291.797403 
L 354.1248 292.360865 
L 354.4224 292.303222 
L 355.0176 293.151725 
L 355.1664 293.151725 
L 355.3152 292.872706 
L 355.464 293.126349 
L 355.6128 293.156239 
L 356.0592 293.724076 
L 356.208 293.724076 
L 356.3568 293.611045 
L 356.5056 293.925681 
L 356.6544 293.955465 
L 356.952 294.270306 
L 357.1008 294.496123 
L 357.2496 294.218825 
L 357.3984 294.218825 
L 357.8448 294.988095 
L 357.9936 295.017756 
L 358.1424 295.304428 
L 358.2912 294.998509 
L 358.44 295.256077 
L 358.5888 295.256077 
L 358.8864 295.602701 
L 359.0352 295.816507 
L 359.4816 295.814532 
L 359.6304 296.103063 
L 359.7792 296.132552 
L 360.2256 296.680962 
L 360.5232 296.637323 
L 360.8208 297.158775 
L 361.1184 297.188117 
L 361.2672 297.449322 
L 361.5648 297.496354 
L 361.8624 297.758428 
L 362.0112 297.758428 
L 362.16 298.050081 
L 362.4576 298.040617 
L 362.7552 298.362276 
L 362.904 298.362276 
L 363.2016 298.919027 
L 363.3504 298.58951 
L 363.4992 298.58951 
L 363.7968 299.177209 
L 364.0944 299.206239 
L 364.5408 299.795125 
L 364.8384 299.762219 
L 364.9872 299.820091 
L 365.2848 300.353564 
L 365.5824 300.396892 
L 365.88 300.323092 
L 366.0288 300.648666 
L 366.1776 300.677475 
L 366.3264 300.945744 
L 366.4752 300.97452 
L 366.624 301.243133 
L 366.7728 300.946424 
L 367.0704 301.27313 
L 367.5168 301.812788 
L 367.6656 301.870079 
L 367.8144 301.787945 
L 367.9632 301.845121 
L 368.112 302.144754 
L 368.2608 302.144754 
L 368.4096 302.444724 
L 368.5584 302.444724 
L 368.7072 302.745038 
L 368.856 302.745038 
L 369.0048 302.988742 
L 369.1536 302.988742 
L 369.3024 303.232921 
L 369.6 303.232921 
L 370.0464 303.694339 
L 370.1952 303.694339 
L 370.344 303.939985 
L 370.4928 303.619326 
L 370.9392 304.08466 
L 371.088 304.08466 
L 371.2368 304.332215 
L 371.3856 304.332215 
L 371.6832 304.800712 
L 371.9808 304.828833 
L 372.1296 305.049815 
L 372.2784 305.049815 
L 372.4272 305.299435 
L 372.576 305.299435 
L 372.7248 305.53556 
L 373.0224 305.549555 
L 373.4688 306.051367 
L 373.6176 306.051367 
L 374.2128 306.752425 
L 374.3616 306.752425 
L 374.5104 307.005797 
L 374.6592 307.005797 
L 374.808 307.245847 
L 374.9568 306.945926 
L 375.4032 307.428704 
L 375.7008 307.456309 
L 375.8496 307.684773 
L 375.9984 307.684773 
L 376.1472 307.941414 
L 376.296 307.941414 
L 376.7424 308.428953 
L 376.8912 308.428953 
L 377.04 308.68734 
L 377.1888 308.68734 
L 377.3376 308.946317 
L 377.4864 308.946317 
L 377.6352 309.205884 
L 377.784 309.205884 
L 378.2304 309.699568 
L 378.3792 309.726788 
L 378.528 309.960962 
L 378.8256 309.960962 
L 378.9744 310.222963 
L 379.1232 310.222963 
L 379.272 310.458497 
L 379.5696 310.485578 
L 379.7184 310.721768 
L 379.8672 310.442864 
L 380.016 310.680292 
L 380.1648 310.680292 
L 380.3136 310.945348 
L 380.4624 310.945348 
L 380.6112 311.184193 
L 380.76 311.211036 
L 380.9088 311.477371 
L 381.0576 311.477371 
L 381.2064 311.7176 
L 381.504 311.730981 
L 381.8016 312.253629 
L 381.9504 312.253629 
L 382.0992 312.496039 
L 382.248 312.509337 
L 382.3968 312.765766 
L 382.5456 312.765766 
L 382.6944 313.009683 
L 382.8432 313.036181 
L 382.992 313.280827 
L 383.2896 313.307268 
L 383.5872 313.825189 
L 383.8848 313.825189 
L 384.0336 314.098423 
L 384.48 314.075571 
L 384.6288 314.324715 
L 384.9264 314.350845 
L 385.0752 314.600768 
L 385.3728 314.62684 
L 385.5216 314.877566 
L 385.6704 314.903581 
L 385.8192 315.155093 
L 385.968 315.155093 
L 386.1168 315.433383 
L 386.2656 315.433383 
L 386.8608 316.247078 
L 387.0096 316.247078 
L 387.1584 316.502827 
L 387.6048 316.52849 
L 387.7536 316.810695 
L 387.9024 316.810695 
L 388.0512 317.068148 
L 388.2 317.068148 
L 388.4976 317.623981 
L 388.6464 317.636682 
L 388.7952 317.896822 
L 389.5392 317.922403 
L 389.8368 318.473918 
L 389.9856 318.473918 
L 390.1344 318.763588 
L 390.2832 318.763588 
L 390.432 319.029161 
L 390.5808 319.054127 
L 390.7296 319.320642 
L 391.176 319.345542 
L 391.4736 319.9063 
L 391.6224 319.9063 
L 391.7712 320.200485 
L 391.92 320.200485 
L 392.0688 320.470978 
L 392.2176 320.495596 
L 392.3664 320.767089 
L 392.664 320.791633 
L 392.8128 321.064141 
L 393.1104 321.088612 
L 393.2592 321.362145 
L 393.408 321.362145 
L 393.5568 321.661107 
L 393.7056 321.661107 
L 393.8544 321.936807 
L 394.0032 321.686876 
L 394.152 321.964567 
L 394.3008 321.964567 
L 394.4496 322.255434 
L 394.7472 322.291461 
L 394.896 322.571332 
L 395.0448 322.571332 
L 395.1936 322.876259 
L 395.3424 322.876259 
L 395.64 323.465559 
L 395.9376 323.477403 
L 396.0864 323.773735 
L 396.2352 323.773735 
L 396.384 324.059476 
L 396.5328 324.082992 
L 396.6816 324.393343 
L 396.9792 324.393343 
L 397.128 324.681461 
L 397.2768 324.704809 
L 397.4256 324.994135 
L 397.7232 325.017392 
L 397.872 325.307948 
L 398.0208 325.307948 
L 398.1696 325.622912 
L 398.3184 325.622912 
L 398.4672 325.939044 
L 398.616 325.679219 
L 398.7648 325.986182 
L 398.9136 325.986182 
L 399.0624 326.294456 
L 399.36 326.317164 
L 399.5088 326.61536 
L 399.6576 326.61536 
L 399.8064 326.937514 
L 399.9552 326.937514 
L 400.104 327.238521 
L 400.2528 327.26093 
L 400.4016 327.563317 
L 400.6992 327.585625 
L 400.848 327.889413 
L 400.9968 327.911617 
L 401.1456 328.216823 
L 401.2944 328.216823 
L 401.4432 328.545573 
L 401.592 328.545573 
L 401.7408 328.853794 
L 401.8896 328.875675 
L 402.0384 329.185379 
L 402.336 329.207153 
L 402.6336 329.852756 
L 402.7824 329.852756 
L 402.9312 330.167159 
L 403.2288 330.188589 
L 403.3776 329.946442 
L 403.5264 330.274443 
L 403.6752 330.285049 
L 403.824 330.604065 
L 403.9728 330.604065 
L 404.2704 331.278698 
L 404.568 331.309965 
L 404.7168 331.633992 
L 404.8656 331.633992 
L 405.0144 331.980464 
L 405.1632 331.980464 
L 405.4608 332.657986 
L 405.7584 332.657986 
L 405.9072 333.009543 
L 406.056 333.019637 
L 406.2048 333.362808 
L 406.3536 333.362808 
L 406.5024 333.717806 
L 406.6512 333.717806 
L 406.8 334.054807 
L 407.2464 334.074571 
L 407.3952 334.413509 
L 407.544 334.413509 
L 407.6928 334.554342 
L 407.8416 334.918439 
L 408.1392 334.918439 
L 408.288 335.284454 
L 408.5856 335.284454 
L 408.8832 336.003706 
L 409.1808 336.003706 
L 409.3296 336.375878 
L 409.6272 336.394416 
L 409.776 336.750127 
L 409.9248 336.750127 
L 410.0736 337.108301 
L 410.2224 337.126486 
L 410.3712 337.505005 
L 410.52 337.505005 
L 410.6688 337.867881 
L 410.9664 337.885719 
L 411.1152 338.251017 
L 411.264 338.251017 
L 411.4128 338.636446 
L 411.5616 338.636446 
L 411.7104 339.024207 
L 411.8592 338.829583 
L 412.008 338.846691 
L 412.1568 339.221944 
L 412.3056 339.238852 
L 412.4544 339.633491 
L 412.6032 339.650215 
L 412.752 340.047185 
L 413.0496 340.080271 
L 413.496 340.731462 
L 413.6448 340.747444 
L 413.7936 341.153738 
L 413.9424 341.216952 
L 414.0912 341.449505 
L 414.24 341.449505 
L 414.3888 341.908759 
L 414.6864 341.96981 
L 414.8352 342.369714 
L 415.1328 342.274979 
L 415.2816 342.694748 
L 415.4304 342.724122 
L 415.5792 343.204488 
L 415.728 343.204488 
L 416.0256 343.539141 
L 416.1744 343.539141 
L 416.3232 344.010322 
L 416.472 344.010322 
L 416.9184 344.820121 
L 417.216 344.820121 
L 417.3648 345.299434 
L 417.6624 345.204244 
L 417.8112 345.685461 
L 417.96 345.711435 
L 418.1088 346.153803 
L 418.2576 346.019369 
L 418.4064 346.045437 
L 418.5552 346.500739 
L 418.704 346.526823 
L 418.8528 346.982226 
L 419.0016 347.008331 
L 419.1504 347.341879 
L 419.448 347.341879 
L 419.5968 347.823535 
L 420.0432 347.902104 
L 420.4896 348.74358 
L 420.6384 348.74358 
L 420.7872 349.199291 
L 420.936 349.076542 
L 421.0848 349.532178 
L 421.5312 349.57175 
L 421.68 350.027514 
L 421.8288 350.05391 
L 421.9776 349.930734 
L 422.1264 350.386457 
L 422.2752 350.412931 
L 422.424 350.868765 
L 422.7216 350.921737 
L 422.8704 351.214127 
L 423.168 351.267271 
L 423.4656 352.205793 
L 423.6144 352.205793 
L 423.7632 352.081594 
L 423.912 352.108256 
L 424.0608 352.564237 
L 424.2096 352.59092 
L 424.3584 352.922353 
L 424.656 352.975866 
L 424.8048 353.431945 
L 425.1024 353.458714 
L 425.2512 353.789852 
L 425.5488 353.816699 
L 425.6976 354.272848 
L 425.8464 354.299711 
L 425.9952 354.643937 
L 426.2928 354.6978 
L 426.4416 355.154066 
L 427.0368 355.068782 
L 427.3344 356.021907 
L 427.4832 356.048932 
L 427.632 355.922815 
L 427.7808 356.392699 
L 428.0784 356.392699 
L 428.2272 356.783614 
L 428.5248 356.817566 
L 428.6736 357.280819 
L 428.9712 357.314784 
L 429.12 357.644429 
L 429.4176 357.698917 
L 429.5664 358.141856 
L 429.864 358.082864 
L 430.0128 358.539429 
L 430.1616 358.580407 
L 430.3104 358.923185 
L 430.608 358.950574 
L 430.7568 359.448343 
L 430.9056 359.475728 
L 431.0544 359.361652 
L 431.2032 359.81834 
L 431.6496 359.886963 
L 431.7984 360.229378 
L 432.096 360.298135 
L 432.2448 360.768759 
L 432.3936 360.640354 
L 432.6912 360.681697 
L 432.84 361.138555 
L 432.9888 361.179914 
L 433.1376 361.521924 
L 433.7328 361.632419 
L 433.8816 361.932819 
L 434.1792 362.002035 
L 434.328 362.357525 
L 434.4768 362.385269 
L 434.6256 362.856173 
L 434.9232 362.883927 
L 435.072 362.768318 
L 435.2208 362.810007 
L 435.3696 363.308774 
L 435.6672 363.336563 
L 435.816 363.691831 
L 436.1136 363.719686 
L 436.2624 364.074703 
L 436.56 364.144482 
L 436.7088 364.615687 
L 436.8576 364.615687 
L 437.0064 364.485379 
L 437.1552 364.527334 
L 437.304 365.026545 
L 437.4528 364.910003 
L 437.8992 364.980032 
L 438.048 365.451352 
L 438.1968 365.493365 
L 438.3456 365.404758 
L 438.4944 365.876141 
L 438.9408 365.787324 
L 439.0896 366.286859 
L 439.2384 366.329021 
L 439.3872 366.211952 
L 439.536 366.669332 
L 439.9824 366.75383 
L 440.1312 367.093987 
L 440.4288 367.164524 
L 440.7264 367.04704 
L 440.8752 367.518623 
L 441.1728 367.589279 
L 441.3216 367.929083 
L 441.9168 368.042305 
L 442.0656 367.924486 
L 442.2144 368.467074 
L 442.3632 368.467074 
L 442.512 368.349063 
L 442.6608 368.806656 
L 443.1072 368.877644 
L 443.256 369.217027 
L 444 369.359185 
L 444.2976 369.727066 
L 444.4464 369.769759 
L 444.5952 370.06614 
L 445.1904 370.166012 
L 445.3392 370.504976 
L 446.0832 370.633532 
L 446.232 371.091498 
L 446.5296 371.015393 
L 446.6784 371.058285 
L 446.8272 371.516292 
L 446.976 371.516292 
L 447.1248 371.382732 
L 447.4224 371.468705 
L 447.5712 371.926736 
L 447.8688 371.792927 
L 448.1664 371.879062 
L 448.3152 372.337115 
L 448.9104 372.260602 
L 449.0592 372.74743 
L 449.3568 372.804956 
L 449.5056 372.670774 
L 449.952 372.728371 
L 450.1008 373.172093 
L 450.2496 373.229712 
L 450.3984 373.095314 
L 450.5472 373.124165 
L 450.696 373.582306 
L 451.44 373.683289 
L 451.5888 373.992453 
L 452.3328 374.122498 
L 452.4816 374.402535 
L 453.2256 374.503892 
L 453.3744 374.841582 
L 454.1184 374.928589 
L 454.2672 375.372493 
L 454.5648 375.401506 
L 454.7136 375.251589 
L 455.0112 375.324236 
L 455.16 375.768118 
L 455.904 375.690653 
L 456.0528 376.163622 
L 457.0944 376.280075 
L 457.2432 376.559005 
L 457.9872 376.675698 
L 458.136 377.134319 
L 458.2848 376.983519 
L 458.88 377.056594 
L 459.0288 377.500584 
L 460.0704 377.466578 
L 460.2192 377.910566 
L 461.112 377.998418 
L 461.2608 377.847171 
L 461.4096 378.291119 
L 462.1536 378.393835 
L 462.3024 378.837955 
L 462.4512 378.852634 
L 462.6 378.700918 
L 463.344 378.78913 
L 463.4928 379.233229 
L 464.5344 379.16958 
L 464.6832 379.613639 
L 465.7248 379.716766 
L 465.8736 380.00864 
L 467.064 380.126727 
L 467.2128 380.570955 
L 467.5104 380.58572 
L 467.6592 380.43312 
L 468.2544 380.492284 
L 468.4032 380.929051 
L 469.5936 380.887222 
L 469.7424 381.316535 
L 470.784 381.420308 
L 471.0816 381.435119 
L 471.2304 381.87944 
L 471.3792 381.87944 
L 471.528 381.741026 
L 472.5696 381.822704 
L 472.7184 382.274423 
L 473.1648 382.304133 
L 473.3136 382.150617 
L 473.9088 382.210136 
L 474.0576 382.639501 
L 475.5456 382.589964 
L 475.6944 383.034182 
L 477.1824 383.123673 
L 477.3312 383.582968 
L 477.6288 383.605345 
L 477.9264 383.443694 
L 478.8192 383.525879 
L 478.968 383.962763 
L 480.456 383.898062 
L 480.6048 384.334879 
L 481.944 384.417268 
L 482.2416 384.447203 
L 482.3904 384.876702 
L 482.5392 384.876702 
L 482.688 384.736817 
L 484.0272 384.841857 
L 484.176 385.271305 
L 486.2592 385.251413 
L 486.408 385.688352 
L 487.0032 385.740976 
L 487.3008 385.600688 
L 488.1936 385.690992 
L 488.3424 386.150543 
L 488.7888 386.165598 
L 489.0864 386.010007 
L 490.2768 386.175766 
L 490.4256 386.005111 
L 490.5744 386.005111 
L 490.7232 386.479691 
L 491.7648 386.585313 
L 491.9136 386.444581 
L 493.4016 386.595497 
L 493.5504 386.868949 
L 494.4432 386.959679 
L 494.592 388.628167 
L 494.7408 388.628167 
L 494.8896 388.456333 
L 496.08 388.456333 
L 496.2288 388.2845 
L 496.824 388.2845 
L 496.9728 388.714083 
L 497.2704 388.714083 
L 497.4192 388.54225 
L 498.6096 388.54225 
L 498.7584 388.370416 
L 499.8 388.370416 
L 499.9488 388.198583 
L 500.8416 388.198583 
L 500.9904 388.02675 
L 501.8832 388.02675 
L 502.032 387.854916 
L 502.776 387.854916 
L 502.9248 388.2845 
L 503.0736 388.112666 
L 503.9664 388.112666 
L 504.1152 387.940833 
L 518.4 387.940833 
L 518.4 387.940833 
" style="fill:none;stroke:#0000ff;stroke-linecap:square;"/>
   </g>
   <g id="line2d_4">
    <path clip-path="url(#pc904298ef0)" d="M 72.1488 49.906277 
L 91.6416 49.906277 
L 91.7904 197.873959 
L 94.6176 197.873959 
L 94.7664 159.688751 
L 97.5936 159.688751 
L 97.7424 121.503543 
L 100.5696 121.503543 
L 100.7184 83.318334 
L 518.4 83.318334 
L 518.4 83.318334 
" style="fill:none;stroke:#000000;stroke-linecap:square;"/>
   </g>
   <g id="line2d_5">
    <path clip-path="url(#pc904298ef0)" d="M 72.1488 388.8 
L 518.4 388.8 
L 518.4 388.8 
" style="fill:none;stroke:#bf00bf;stroke-linecap:square;"/>
   </g>
   <g id="patch_3">
    <path d="M 72 43.2 
L 518.4 43.2 
" style="fill:none;stroke:#000000;stroke-linecap:square;stroke-linejoin:miter;"/>
   </g>
   <g id="patch_4">
    <path d="M 518.4 388.8 
L 518.4 43.2 
" style="fill:none;stroke:#000000;stroke-linecap:square;stroke-linejoin:miter;"/>
   </g>
   <g id="patch_5">
    <path d="M 72 388.8 
L 518.4 388.8 
" style="fill:none;stroke:#000000;stroke-linecap:square;stroke-linejoin:miter;"/>
   </g>
   <g id="patch_6">
    <path d="M 72 388.8 
L 72 43.2 
" style="fill:none;stroke:#000000;stroke-linecap:square;stroke-linejoin:miter;"/>
   </g>
   <g id="matplotlib.axis_1">
    <g id="xtick_1">
     <g id="line2d_6">
      <path clip-path="url(#pc904298ef0)" d="M 72 388.8 
L 72 43.2 
" style="fill:none;stroke:#000000;stroke-dasharray:1.000000,3.000000;stroke-dashoffset:0.0;stroke-width:0.5;"/>
     </g>
     <g id="line2d_7">
      <defs>
       <path d="M 0 0 
L 0 -4 
" id="m2101a44f0f" style="stroke:#000000;stroke-width:0.5;"/>
      </defs>
      <g>
       <use style="stroke:#000000;stroke-width:0.5;" x="72.0" xlink:href="#m2101a44f0f" y="388.8"/>
      </g>
     </g>
     <g id="line2d_8">
      <defs>
       <path d="M 0 0 
L 0 4 
" id="m4418073ad1" style="stroke:#000000;stroke-width:0.5;"/>
      </defs>
      <g>
       <use style="stroke:#000000;stroke-width:0.5;" x="72.0" xlink:href="#m4418073ad1" y="43.2"/>
      </g>
     </g>
     <g id="text_1">
      <!-- 0 -->
      <defs>
       <path d="M 31.78125 66.40625 
Q 24.171875 66.40625 20.328125 58.90625 
Q 16.5 51.421875 16.5 36.375 
Q 16.5 21.390625 20.328125 13.890625 
Q 24.171875 6.390625 31.78125 6.390625 
Q 39.453125 6.390625 43.28125 13.890625 
Q 47.125 21.390625 47.125 36.375 
Q 47.125 51.421875 43.28125 58.90625 
Q 39.453125 66.40625 31.78125 66.40625 
M 31.78125 74.21875 
Q 44.046875 74.21875 50.515625 64.515625 
Q 56.984375 54.828125 56.984375 36.375 
Q 56.984375 17.96875 50.515625 8.265625 
Q 44.046875 -1.421875 31.78125 -1.421875 
Q 19.53125 -1.421875 13.0625 8.265625 
Q 6.59375 17.96875 6.59375 36.375 
Q 6.59375 54.828125 13.0625 64.515625 
Q 19.53125 74.21875 31.78125 74.21875 
" id="BitstreamVeraSans-Roman-30"/>
      </defs>
      <g transform="translate(68.1825 401.918125)scale(0.12 -0.12)">
       <use xlink:href="#BitstreamVeraSans-Roman-30"/>
      </g>
     </g>
    </g>
    <g id="xtick_2">
     <g id="line2d_9">
      <path clip-path="url(#pc904298ef0)" d="M 146.4 388.8 
L 146.4 43.2 
" style="fill:none;stroke:#000000;stroke-dasharray:1.000000,3.000000;stroke-dashoffset:0.0;stroke-width:0.5;"/>
     </g>
     <g id="line2d_10">
      <g>
       <use style="stroke:#000000;stroke-width:0.5;" x="146.4" xlink:href="#m2101a44f0f" y="388.8"/>
      </g>
     </g>
     <g id="line2d_11">
      <g>
       <use style="stroke:#000000;stroke-width:0.5;" x="146.4" xlink:href="#m4418073ad1" y="43.2"/>
      </g>
     </g>
     <g id="text_2">
      <!-- 5 -->
      <defs>
       <path d="M 10.796875 72.90625 
L 49.515625 72.90625 
L 49.515625 64.59375 
L 19.828125 64.59375 
L 19.828125 46.734375 
Q 21.96875 47.46875 24.109375 47.828125 
Q 26.265625 48.1875 28.421875 48.1875 
Q 40.625 48.1875 47.75 41.5 
Q 54.890625 34.8125 54.890625 23.390625 
Q 54.890625 11.625 47.5625 5.09375 
Q 40.234375 -1.421875 26.90625 -1.421875 
Q 22.3125 -1.421875 17.546875 -0.640625 
Q 12.796875 0.140625 7.71875 1.703125 
L 7.71875 11.625 
Q 12.109375 9.234375 16.796875 8.0625 
Q 21.484375 6.890625 26.703125 6.890625 
Q 35.15625 6.890625 40.078125 11.328125 
Q 45.015625 15.765625 45.015625 23.390625 
Q 45.015625 31 40.078125 35.4375 
Q 35.15625 39.890625 26.703125 39.890625 
Q 22.75 39.890625 18.8125 39.015625 
Q 14.890625 38.140625 10.796875 36.28125 
z
" id="BitstreamVeraSans-Roman-35"/>
      </defs>
      <g transform="translate(142.5825 401.918125)scale(0.12 -0.12)">
       <use xlink:href="#BitstreamVeraSans-Roman-35"/>
      </g>
     </g>
    </g>
    <g id="xtick_3">
     <g id="line2d_12">
      <path clip-path="url(#pc904298ef0)" d="M 220.8 388.8 
L 220.8 43.2 
" style="fill:none;stroke:#000000;stroke-dasharray:1.000000,3.000000;stroke-dashoffset:0.0;stroke-width:0.5;"/>
     </g>
     <g id="line2d_13">
      <g>
       <use style="stroke:#000000;stroke-width:0.5;" x="220.8" xlink:href="#m2101a44f0f" y="388.8"/>
      </g>
     </g>
     <g id="line2d_14">
      <g>
       <use style="stroke:#000000;stroke-width:0.5;" x="220.8" xlink:href="#m4418073ad1" y="43.2"/>
      </g>
     </g>
     <g id="text_3">
      <!-- 10 -->
      <defs>
       <path d="M 12.40625 8.296875 
L 28.515625 8.296875 
L 28.515625 63.921875 
L 10.984375 60.40625 
L 10.984375 69.390625 
L 28.421875 72.90625 
L 38.28125 72.90625 
L 38.28125 8.296875 
L 54.390625 8.296875 
L 54.390625 0 
L 12.40625 0 
z
" id="BitstreamVeraSans-Roman-31"/>
      </defs>
      <g transform="translate(213.165 401.918125)scale(0.12 -0.12)">
       <use xlink:href="#BitstreamVeraSans-Roman-31"/>
       <use x="63.623046875" xlink:href="#BitstreamVeraSans-Roman-30"/>
      </g>
     </g>
    </g>
    <g id="xtick_4">
     <g id="line2d_15">
      <path clip-path="url(#pc904298ef0)" d="M 295.2 388.8 
L 295.2 43.2 
" style="fill:none;stroke:#000000;stroke-dasharray:1.000000,3.000000;stroke-dashoffset:0.0;stroke-width:0.5;"/>
     </g>
     <g id="line2d_16">
      <g>
       <use style="stroke:#000000;stroke-width:0.5;" x="295.2" xlink:href="#m2101a44f0f" y="388.8"/>
      </g>
     </g>
     <g id="line2d_17">
      <g>
       <use style="stroke:#000000;stroke-width:0.5;" x="295.2" xlink:href="#m4418073ad1" y="43.2"/>
      </g>
     </g>
     <g id="text_4">
      <!-- 15 -->
      <g transform="translate(287.565 401.918125)scale(0.12 -0.12)">
       <use xlink:href="#BitstreamVeraSans-Roman-31"/>
       <use x="63.623046875" xlink:href="#BitstreamVeraSans-Roman-35"/>
      </g>
     </g>
    </g>
    <g id="xtick_5">
     <g id="line2d_18">
      <path clip-path="url(#pc904298ef0)" d="M 369.6 388.8 
L 369.6 43.2 
" style="fill:none;stroke:#000000;stroke-dasharray:1.000000,3.000000;stroke-dashoffset:0.0;stroke-width:0.5;"/>
     </g>
     <g id="line2d_19">
      <g>
       <use style="stroke:#000000;stroke-width:0.5;" x="369.6" xlink:href="#m2101a44f0f" y="388.8"/>
      </g>
     </g>
     <g id="line2d_20">
      <g>
       <use style="stroke:#000000;stroke-width:0.5;" x="369.6" xlink:href="#m4418073ad1" y="43.2"/>
      </g>
     </g>
     <g id="text_5">
      <!-- 20 -->
      <defs>
       <path d="M 19.1875 8.296875 
L 53.609375 8.296875 
L 53.609375 0 
L 7.328125 0 
L 7.328125 8.296875 
Q 12.9375 14.109375 22.625 23.890625 
Q 32.328125 33.6875 34.8125 36.53125 
Q 39.546875 41.84375 41.421875 45.53125 
Q 43.3125 49.21875 43.3125 52.78125 
Q 43.3125 58.59375 39.234375 62.25 
Q 35.15625 65.921875 28.609375 65.921875 
Q 23.96875 65.921875 18.8125 64.3125 
Q 13.671875 62.703125 7.8125 59.421875 
L 7.8125 69.390625 
Q 13.765625 71.78125 18.9375 73 
Q 24.125 74.21875 28.421875 74.21875 
Q 39.75 74.21875 46.484375 68.546875 
Q 53.21875 62.890625 53.21875 53.421875 
Q 53.21875 48.921875 51.53125 44.890625 
Q 49.859375 40.875 45.40625 35.40625 
Q 44.1875 33.984375 37.640625 27.21875 
Q 31.109375 20.453125 19.1875 8.296875 
" id="BitstreamVeraSans-Roman-32"/>
      </defs>
      <g transform="translate(361.965 401.918125)scale(0.12 -0.12)">
       <use xlink:href="#BitstreamVeraSans-Roman-32"/>
       <use x="63.623046875" xlink:href="#BitstreamVeraSans-Roman-30"/>
      </g>
     </g>
    </g>
    <g id="xtick_6">
     <g id="line2d_21">
      <path clip-path="url(#pc904298ef0)" d="M 444 388.8 
L 444 43.2 
" style="fill:none;stroke:#000000;stroke-dasharray:1.000000,3.000000;stroke-dashoffset:0.0;stroke-width:0.5;"/>
     </g>
     <g id="line2d_22">
      <g>
       <use style="stroke:#000000;stroke-width:0.5;" x="444.0" xlink:href="#m2101a44f0f" y="388.8"/>
      </g>
     </g>
     <g id="line2d_23">
      <g>
       <use style="stroke:#000000;stroke-width:0.5;" x="444.0" xlink:href="#m4418073ad1" y="43.2"/>
      </g>
     </g>
     <g id="text_6">
      <!-- 25 -->
      <g transform="translate(436.365 401.918125)scale(0.12 -0.12)">
       <use xlink:href="#BitstreamVeraSans-Roman-32"/>
       <use x="63.623046875" xlink:href="#BitstreamVeraSans-Roman-35"/>
      </g>
     </g>
    </g>
    <g id="xtick_7">
     <g id="line2d_24">
      <path clip-path="url(#pc904298ef0)" d="M 518.4 388.8 
L 518.4 43.2 
" style="fill:none;stroke:#000000;stroke-dasharray:1.000000,3.000000;stroke-dashoffset:0.0;stroke-width:0.5;"/>
     </g>
     <g id="line2d_25">
      <g>
       <use style="stroke:#000000;stroke-width:0.5;" x="518.4" xlink:href="#m2101a44f0f" y="388.8"/>
      </g>
     </g>
     <g id="line2d_26">
      <g>
       <use style="stroke:#000000;stroke-width:0.5;" x="518.4" xlink:href="#m4418073ad1" y="43.2"/>
      </g>
     </g>
     <g id="text_7">
      <!-- 30 -->
      <defs>
       <path d="M 40.578125 39.3125 
Q 47.65625 37.796875 51.625 33 
Q 55.609375 28.21875 55.609375 21.1875 
Q 55.609375 10.40625 48.1875 4.484375 
Q 40.765625 -1.421875 27.09375 -1.421875 
Q 22.515625 -1.421875 17.65625 -0.515625 
Q 12.796875 0.390625 7.625 2.203125 
L 7.625 11.71875 
Q 11.71875 9.328125 16.59375 8.109375 
Q 21.484375 6.890625 26.8125 6.890625 
Q 36.078125 6.890625 40.9375 10.546875 
Q 45.796875 14.203125 45.796875 21.1875 
Q 45.796875 27.640625 41.28125 31.265625 
Q 36.765625 34.90625 28.71875 34.90625 
L 20.21875 34.90625 
L 20.21875 43.015625 
L 29.109375 43.015625 
Q 36.375 43.015625 40.234375 45.921875 
Q 44.09375 48.828125 44.09375 54.296875 
Q 44.09375 59.90625 40.109375 62.90625 
Q 36.140625 65.921875 28.71875 65.921875 
Q 24.65625 65.921875 20.015625 65.03125 
Q 15.375 64.15625 9.8125 62.3125 
L 9.8125 71.09375 
Q 15.4375 72.65625 20.34375 73.4375 
Q 25.25 74.21875 29.59375 74.21875 
Q 40.828125 74.21875 47.359375 69.109375 
Q 53.90625 64.015625 53.90625 55.328125 
Q 53.90625 49.265625 50.4375 45.09375 
Q 46.96875 40.921875 40.578125 39.3125 
" id="BitstreamVeraSans-Roman-33"/>
      </defs>
      <g transform="translate(510.765 401.918125)scale(0.12 -0.12)">
       <use xlink:href="#BitstreamVeraSans-Roman-33"/>
       <use x="63.623046875" xlink:href="#BitstreamVeraSans-Roman-30"/>
      </g>
     </g>
    </g>
    <g id="text_8">
     <!-- Time [s] -->
     <defs>
      <path id="BitstreamVeraSans-Roman-20"/>
      <path d="M 8.59375 75.984375 
L 29.296875 75.984375 
L 29.296875 69 
L 17.578125 69 
L 17.578125 -6.203125 
L 29.296875 -6.203125 
L 29.296875 -13.1875 
L 8.59375 -13.1875 
z
" id="BitstreamVeraSans-Roman-5b"/>
      <path d="M 30.421875 75.984375 
L 30.421875 -13.1875 
L 9.71875 -13.1875 
L 9.71875 -6.203125 
L 21.390625 -6.203125 
L 21.390625 69 
L 9.71875 69 
L 9.71875 75.984375 
z
" id="BitstreamVeraSans-Roman-5d"/>
      <path d="M 52 44.1875 
Q 55.375 50.25 60.0625 53.125 
Q 64.75 56 71.09375 56 
Q 79.640625 56 84.28125 50.015625 
Q 88.921875 44.046875 88.921875 33.015625 
L 88.921875 0 
L 79.890625 0 
L 79.890625 32.71875 
Q 79.890625 40.578125 77.09375 44.375 
Q 74.3125 48.1875 68.609375 48.1875 
Q 61.625 48.1875 57.5625 43.546875 
Q 53.515625 38.921875 53.515625 30.90625 
L 53.515625 0 
L 44.484375 0 
L 44.484375 32.71875 
Q 44.484375 40.625 41.703125 44.40625 
Q 38.921875 48.1875 33.109375 48.1875 
Q 26.21875 48.1875 22.15625 43.53125 
Q 18.109375 38.875 18.109375 30.90625 
L 18.109375 0 
L 9.078125 0 
L 9.078125 54.6875 
L 18.109375 54.6875 
L 18.109375 46.1875 
Q 21.1875 51.21875 25.484375 53.609375 
Q 29.78125 56 35.6875 56 
Q 41.65625 56 45.828125 52.96875 
Q 50 49.953125 52 44.1875 
" id="BitstreamVeraSans-Roman-6d"/>
      <path d="M 9.421875 54.6875 
L 18.40625 54.6875 
L 18.40625 0 
L 9.421875 0 
z
M 9.421875 75.984375 
L 18.40625 75.984375 
L 18.40625 64.59375 
L 9.421875 64.59375 
z
" id="BitstreamVeraSans-Roman-69"/>
      <path d="M 56.203125 29.59375 
L 56.203125 25.203125 
L 14.890625 25.203125 
Q 15.484375 15.921875 20.484375 11.0625 
Q 25.484375 6.203125 34.421875 6.203125 
Q 39.59375 6.203125 44.453125 7.46875 
Q 49.3125 8.734375 54.109375 11.28125 
L 54.109375 2.78125 
Q 49.265625 0.734375 44.1875 -0.34375 
Q 39.109375 -1.421875 33.890625 -1.421875 
Q 20.796875 -1.421875 13.15625 6.1875 
Q 5.515625 13.8125 5.515625 26.8125 
Q 5.515625 40.234375 12.765625 48.109375 
Q 20.015625 56 32.328125 56 
Q 43.359375 56 49.78125 48.890625 
Q 56.203125 41.796875 56.203125 29.59375 
M 47.21875 32.234375 
Q 47.125 39.59375 43.09375 43.984375 
Q 39.0625 48.390625 32.421875 48.390625 
Q 24.90625 48.390625 20.390625 44.140625 
Q 15.875 39.890625 15.1875 32.171875 
z
" id="BitstreamVeraSans-Roman-65"/>
      <path d="M -0.296875 72.90625 
L 61.375 72.90625 
L 61.375 64.59375 
L 35.5 64.59375 
L 35.5 0 
L 25.59375 0 
L 25.59375 64.59375 
L -0.296875 64.59375 
z
" id="BitstreamVeraSans-Roman-54"/>
      <path d="M 44.28125 53.078125 
L 44.28125 44.578125 
Q 40.484375 46.53125 36.375 47.5 
Q 32.28125 48.484375 27.875 48.484375 
Q 21.1875 48.484375 17.84375 46.4375 
Q 14.5 44.390625 14.5 40.28125 
Q 14.5 37.15625 16.890625 35.375 
Q 19.28125 33.59375 26.515625 31.984375 
L 29.59375 31.296875 
Q 39.15625 29.25 43.1875 25.515625 
Q 47.21875 21.78125 47.21875 15.09375 
Q 47.21875 7.46875 41.1875 3.015625 
Q 35.15625 -1.421875 24.609375 -1.421875 
Q 20.21875 -1.421875 15.453125 -0.5625 
Q 10.6875 0.296875 5.421875 2 
L 5.421875 11.28125 
Q 10.40625 8.6875 15.234375 7.390625 
Q 20.0625 6.109375 24.8125 6.109375 
Q 31.15625 6.109375 34.5625 8.28125 
Q 37.984375 10.453125 37.984375 14.40625 
Q 37.984375 18.0625 35.515625 20.015625 
Q 33.0625 21.96875 24.703125 23.78125 
L 21.578125 24.515625 
Q 13.234375 26.265625 9.515625 29.90625 
Q 5.8125 33.546875 5.8125 39.890625 
Q 5.8125 47.609375 11.28125 51.796875 
Q 16.75 56 26.8125 56 
Q 31.78125 56 36.171875 55.265625 
Q 40.578125 54.546875 44.28125 53.078125 
" id="BitstreamVeraSans-Roman-73"/>
     </defs>
     <g transform="translate(270.620625 418.531875)scale(0.12 -0.12)">
      <use xlink:href="#BitstreamVeraSans-Roman-54"/>
      <use x="61.037109375" xlink:href="#BitstreamVeraSans-Roman-69"/>
      <use x="88.8203125" xlink:href="#BitstreamVeraSans-Roman-6d"/>
      <use x="186.232421875" xlink:href="#BitstreamVeraSans-Roman-65"/>
      <use x="247.755859375" xlink:href="#BitstreamVeraSans-Roman-20"/>
      <use x="279.54296875" xlink:href="#BitstreamVeraSans-Roman-5b"/>
      <use x="318.556640625" xlink:href="#BitstreamVeraSans-Roman-73"/>
      <use x="370.65625" xlink:href="#BitstreamVeraSans-Roman-5d"/>
     </g>
    </g>
   </g>
   <g id="matplotlib.axis_2">
    <g id="ytick_1">
     <g id="line2d_27">
      <path clip-path="url(#pc904298ef0)" d="M 72 388.8 
L 518.4 388.8 
" style="fill:none;stroke:#000000;stroke-dasharray:1.000000,3.000000;stroke-dashoffset:0.0;stroke-width:0.5;"/>
     </g>
     <g id="line2d_28">
      <defs>
       <path d="M 0 0 
L 4 0 
" id="md5d0caca82" style="stroke:#000000;stroke-width:0.5;"/>
      </defs>
      <g>
       <use style="stroke:#000000;stroke-width:0.5;" x="72.0" xlink:href="#md5d0caca82" y="388.8"/>
      </g>
     </g>
     <g id="line2d_29">
      <defs>
       <path d="M 0 0 
L -4 0 
" id="mfceafef265" style="stroke:#000000;stroke-width:0.5;"/>
      </defs>
      <g>
       <use style="stroke:#000000;stroke-width:0.5;" x="518.4" xlink:href="#mfceafef265" y="388.8"/>
      </g>
     </g>
     <g id="text_9">
      <!-- 0 -->
      <g transform="translate(60.365 392.11125)scale(0.12 -0.12)">
       <use xlink:href="#BitstreamVeraSans-Roman-30"/>
      </g>
     </g>
    </g>
    <g id="ytick_2">
     <g id="line2d_30">
      <path clip-path="url(#pc904298ef0)" d="M 72 350.4 
L 518.4 350.4 
" style="fill:none;stroke:#000000;stroke-dasharray:1.000000,3.000000;stroke-dashoffset:0.0;stroke-width:0.5;"/>
     </g>
     <g id="line2d_31">
      <g>
       <use style="stroke:#000000;stroke-width:0.5;" x="72.0" xlink:href="#md5d0caca82" y="350.4"/>
      </g>
     </g>
     <g id="line2d_32">
      <g>
       <use style="stroke:#000000;stroke-width:0.5;" x="518.4" xlink:href="#mfceafef265" y="350.4"/>
      </g>
     </g>
     <g id="text_10">
      <!-- 5 -->
      <g transform="translate(60.365 353.71125)scale(0.12 -0.12)">
       <use xlink:href="#BitstreamVeraSans-Roman-35"/>
      </g>
     </g>
    </g>
    <g id="ytick_3">
     <g id="line2d_33">
      <path clip-path="url(#pc904298ef0)" d="M 72 312 
L 518.4 312 
" style="fill:none;stroke:#000000;stroke-dasharray:1.000000,3.000000;stroke-dashoffset:0.0;stroke-width:0.5;"/>
     </g>
     <g id="line2d_34">
      <g>
       <use style="stroke:#000000;stroke-width:0.5;" x="72.0" xlink:href="#md5d0caca82" y="312.0"/>
      </g>
     </g>
     <g id="line2d_35">
      <g>
       <use style="stroke:#000000;stroke-width:0.5;" x="518.4" xlink:href="#mfceafef265" y="312.0"/>
      </g>
     </g>
     <g id="text_11">
      <!-- 10 -->
      <g transform="translate(52.73 315.31125)scale(0.12 -0.12)">
       <use xlink:href="#BitstreamVeraSans-Roman-31"/>
       <use x="63.623046875" xlink:href="#BitstreamVeraSans-Roman-30"/>
      </g>
     </g>
    </g>
    <g id="ytick_4">
     <g id="line2d_36">
      <path clip-path="url(#pc904298ef0)" d="M 72 273.6 
L 518.4 273.6 
" style="fill:none;stroke:#000000;stroke-dasharray:1.000000,3.000000;stroke-dashoffset:0.0;stroke-width:0.5;"/>
     </g>
     <g id="line2d_37">
      <g>
       <use style="stroke:#000000;stroke-width:0.5;" x="72.0" xlink:href="#md5d0caca82" y="273.6"/>
      </g>
     </g>
     <g id="line2d_38">
      <g>
       <use style="stroke:#000000;stroke-width:0.5;" x="518.4" xlink:href="#mfceafef265" y="273.6"/>
      </g>
     </g>
     <g id="text_12">
      <!-- 15 -->
      <g transform="translate(52.73 276.91125)scale(0.12 -0.12)">
       <use xlink:href="#BitstreamVeraSans-Roman-31"/>
       <use x="63.623046875" xlink:href="#BitstreamVeraSans-Roman-35"/>
      </g>
     </g>
    </g>
    <g id="ytick_5">
     <g id="line2d_39">
      <path clip-path="url(#pc904298ef0)" d="M 72 235.2 
L 518.4 235.2 
" style="fill:none;stroke:#000000;stroke-dasharray:1.000000,3.000000;stroke-dashoffset:0.0;stroke-width:0.5;"/>
     </g>
     <g id="line2d_40">
      <g>
       <use style="stroke:#000000;stroke-width:0.5;" x="72.0" xlink:href="#md5d0caca82" y="235.2"/>
      </g>
     </g>
     <g id="line2d_41">
      <g>
       <use style="stroke:#000000;stroke-width:0.5;" x="518.4" xlink:href="#mfceafef265" y="235.2"/>
      </g>
     </g>
     <g id="text_13">
      <!-- 20 -->
      <g transform="translate(52.73 238.51125)scale(0.12 -0.12)">
       <use xlink:href="#BitstreamVeraSans-Roman-32"/>
       <use x="63.623046875" xlink:href="#BitstreamVeraSans-Roman-30"/>
      </g>
     </g>
    </g>
    <g id="ytick_6">
     <g id="line2d_42">
      <path clip-path="url(#pc904298ef0)" d="M 72 196.8 
L 518.4 196.8 
" style="fill:none;stroke:#000000;stroke-dasharray:1.000000,3.000000;stroke-dashoffset:0.0;stroke-width:0.5;"/>
     </g>
     <g id="line2d_43">
      <g>
       <use style="stroke:#000000;stroke-width:0.5;" x="72.0" xlink:href="#md5d0caca82" y="196.8"/>
      </g>
     </g>
     <g id="line2d_44">
      <g>
       <use style="stroke:#000000;stroke-width:0.5;" x="518.4" xlink:href="#mfceafef265" y="196.8"/>
      </g>
     </g>
     <g id="text_14">
      <!-- 25 -->
      <g transform="translate(52.73 200.11125)scale(0.12 -0.12)">
       <use xlink:href="#BitstreamVeraSans-Roman-32"/>
       <use x="63.623046875" xlink:href="#BitstreamVeraSans-Roman-35"/>
      </g>
     </g>
    </g>
    <g id="ytick_7">
     <g id="line2d_45">
      <path clip-path="url(#pc904298ef0)" d="M 72 158.4 
L 518.4 158.4 
" style="fill:none;stroke:#000000;stroke-dasharray:1.000000,3.000000;stroke-dashoffset:0.0;stroke-width:0.5;"/>
     </g>
     <g id="line2d_46">
      <g>
       <use style="stroke:#000000;stroke-width:0.5;" x="72.0" xlink:href="#md5d0caca82" y="158.4"/>
      </g>
     </g>
     <g id="line2d_47">
      <g>
       <use style="stroke:#000000;stroke-width:0.5;" x="518.4" xlink:href="#mfceafef265" y="158.4"/>
      </g>
     </g>
     <g id="text_15">
      <!-- 30 -->
      <g transform="translate(52.73 161.71125)scale(0.12 -0.12)">
       <use xlink:href="#BitstreamVeraSans-Roman-33"/>
       <use x="63.623046875" xlink:href="#BitstreamVeraSans-Roman-30"/>
      </g>
     </g>
    </g>
    <g id="ytick_8">
     <g id="line2d_48">
      <path clip-path="url(#pc904298ef0)" d="M 72 120 
L 518.4 120 
" style="fill:none;stroke:#000000;stroke-dasharray:1.000000,3.000000;stroke-dashoffset:0.0;stroke-width:0.5;"/>
     </g>
     <g id="line2d_49">
      <g>
       <use style="stroke:#000000;stroke-width:0.5;" x="72.0" xlink:href="#md5d0caca82" y="120.0"/>
      </g>
     </g>
     <g id="line2d_50">
      <g>
       <use style="stroke:#000000;stroke-width:0.5;" x="518.4" xlink:href="#mfceafef265" y="120.0"/>
      </g>
     </g>
     <g id="text_16">
      <!-- 35 -->
      <g transform="translate(52.73 123.31125)scale(0.12 -0.12)">
       <use xlink:href="#BitstreamVeraSans-Roman-33"/>
       <use x="63.623046875" xlink:href="#BitstreamVeraSans-Roman-35"/>
      </g>
     </g>
    </g>
    <g id="ytick_9">
     <g id="line2d_51">
      <path clip-path="url(#pc904298ef0)" d="M 72 81.6 
L 518.4 81.6 
" style="fill:none;stroke:#000000;stroke-dasharray:1.000000,3.000000;stroke-dashoffset:0.0;stroke-width:0.5;"/>
     </g>
     <g id="line2d_52">
      <g>
       <use style="stroke:#000000;stroke-width:0.5;" x="72.0" xlink:href="#md5d0caca82" y="81.6"/>
      </g>
     </g>
     <g id="line2d_53">
      <g>
       <use style="stroke:#000000;stroke-width:0.5;" x="518.4" xlink:href="#mfceafef265" y="81.6"/>
      </g>
     </g>
     <g id="text_17">
      <!-- 40 -->
      <defs>
       <path d="M 37.796875 64.3125 
L 12.890625 25.390625 
L 37.796875 25.390625 
z
M 35.203125 72.90625 
L 47.609375 72.90625 
L 47.609375 25.390625 
L 58.015625 25.390625 
L 58.015625 17.1875 
L 47.609375 17.1875 
L 47.609375 0 
L 37.796875 0 
L 37.796875 17.1875 
L 4.890625 17.1875 
L 4.890625 26.703125 
z
" id="BitstreamVeraSans-Roman-34"/>
      </defs>
      <g transform="translate(52.73 84.91125)scale(0.12 -0.12)">
       <use xlink:href="#BitstreamVeraSans-Roman-34"/>
       <use x="63.623046875" xlink:href="#BitstreamVeraSans-Roman-30"/>
      </g>
     </g>
    </g>
    <g id="ytick_10">
     <g id="line2d_54">
      <path clip-path="url(#pc904298ef0)" d="M 72 43.2 
L 518.4 43.2 
" style="fill:none;stroke:#000000;stroke-dasharray:1.000000,3.000000;stroke-dashoffset:0.0;stroke-width:0.5;"/>
     </g>
     <g id="line2d_55">
      <g>
       <use style="stroke:#000000;stroke-width:0.5;" x="72.0" xlink:href="#md5d0caca82" y="43.2"/>
      </g>
     </g>
     <g id="line2d_56">
      <g>
       <use style="stroke:#000000;stroke-width:0.5;" x="518.4" xlink:href="#mfceafef265" y="43.2"/>
      </g>
     </g>
     <g id="text_18">
      <!-- 45 -->
      <g transform="translate(52.73 46.51125)scale(0.12 -0.12)">
       <use xlink:href="#BitstreamVeraSans-Roman-34"/>
       <use x="63.623046875" xlink:href="#BitstreamVeraSans-Roman-35"/>
      </g>
     </g>
    </g>
    <g id="text_19">
     <!-- Speed [mph] -->
     <defs>
      <path d="M 45.40625 46.390625 
L 45.40625 75.984375 
L 54.390625 75.984375 
L 54.390625 0 
L 45.40625 0 
L 45.40625 8.203125 
Q 42.578125 3.328125 38.25 0.953125 
Q 33.9375 -1.421875 27.875 -1.421875 
Q 17.96875 -1.421875 11.734375 6.484375 
Q 5.515625 14.40625 5.515625 27.296875 
Q 5.515625 40.1875 11.734375 48.09375 
Q 17.96875 56 27.875 56 
Q 33.9375 56 38.25 53.625 
Q 42.578125 51.265625 45.40625 46.390625 
M 14.796875 27.296875 
Q 14.796875 17.390625 18.875 11.75 
Q 22.953125 6.109375 30.078125 6.109375 
Q 37.203125 6.109375 41.296875 11.75 
Q 45.40625 17.390625 45.40625 27.296875 
Q 45.40625 37.203125 41.296875 42.84375 
Q 37.203125 48.484375 30.078125 48.484375 
Q 22.953125 48.484375 18.875 42.84375 
Q 14.796875 37.203125 14.796875 27.296875 
" id="BitstreamVeraSans-Roman-64"/>
      <path d="M 53.515625 70.515625 
L 53.515625 60.890625 
Q 47.90625 63.578125 42.921875 64.890625 
Q 37.9375 66.21875 33.296875 66.21875 
Q 25.25 66.21875 20.875 63.09375 
Q 16.5 59.96875 16.5 54.203125 
Q 16.5 49.359375 19.40625 46.890625 
Q 22.3125 44.4375 30.421875 42.921875 
L 36.375 41.703125 
Q 47.40625 39.59375 52.65625 34.296875 
Q 57.90625 29 57.90625 20.125 
Q 57.90625 9.515625 50.796875 4.046875 
Q 43.703125 -1.421875 29.984375 -1.421875 
Q 24.8125 -1.421875 18.96875 -0.25 
Q 13.140625 0.921875 6.890625 3.21875 
L 6.890625 13.375 
Q 12.890625 10.015625 18.65625 8.296875 
Q 24.421875 6.59375 29.984375 6.59375 
Q 38.421875 6.59375 43.015625 9.90625 
Q 47.609375 13.234375 47.609375 19.390625 
Q 47.609375 24.75 44.3125 27.78125 
Q 41.015625 30.8125 33.5 32.328125 
L 27.484375 33.5 
Q 16.453125 35.6875 11.515625 40.375 
Q 6.59375 45.0625 6.59375 53.421875 
Q 6.59375 63.09375 13.40625 68.65625 
Q 20.21875 74.21875 32.171875 74.21875 
Q 37.3125 74.21875 42.625 73.28125 
Q 47.953125 72.359375 53.515625 70.515625 
" id="BitstreamVeraSans-Roman-53"/>
      <path d="M 54.890625 33.015625 
L 54.890625 0 
L 45.90625 0 
L 45.90625 32.71875 
Q 45.90625 40.484375 42.875 44.328125 
Q 39.84375 48.1875 33.796875 48.1875 
Q 26.515625 48.1875 22.3125 43.546875 
Q 18.109375 38.921875 18.109375 30.90625 
L 18.109375 0 
L 9.078125 0 
L 9.078125 75.984375 
L 18.109375 75.984375 
L 18.109375 46.1875 
Q 21.34375 51.125 25.703125 53.5625 
Q 30.078125 56 35.796875 56 
Q 45.21875 56 50.046875 50.171875 
Q 54.890625 44.34375 54.890625 33.015625 
" id="BitstreamVeraSans-Roman-68"/>
      <path d="M 18.109375 8.203125 
L 18.109375 -20.796875 
L 9.078125 -20.796875 
L 9.078125 54.6875 
L 18.109375 54.6875 
L 18.109375 46.390625 
Q 20.953125 51.265625 25.265625 53.625 
Q 29.59375 56 35.59375 56 
Q 45.5625 56 51.78125 48.09375 
Q 58.015625 40.1875 58.015625 27.296875 
Q 58.015625 14.40625 51.78125 6.484375 
Q 45.5625 -1.421875 35.59375 -1.421875 
Q 29.59375 -1.421875 25.265625 0.953125 
Q 20.953125 3.328125 18.109375 8.203125 
M 48.6875 27.296875 
Q 48.6875 37.203125 44.609375 42.84375 
Q 40.53125 48.484375 33.40625 48.484375 
Q 26.265625 48.484375 22.1875 42.84375 
Q 18.109375 37.203125 18.109375 27.296875 
Q 18.109375 17.390625 22.1875 11.75 
Q 26.265625 6.109375 33.40625 6.109375 
Q 40.53125 6.109375 44.609375 11.75 
Q 48.6875 17.390625 48.6875 27.296875 
" id="BitstreamVeraSans-Roman-70"/>
     </defs>
     <g transform="translate(45.234375 254.855625)rotate(-90.0)scale(0.12 -0.12)">
      <use xlink:href="#BitstreamVeraSans-Roman-53"/>
      <use x="63.4765625" xlink:href="#BitstreamVeraSans-Roman-70"/>
      <use x="126.953125" xlink:href="#BitstreamVeraSans-Roman-65"/>
      <use x="188.4765625" xlink:href="#BitstreamVeraSans-Roman-65"/>
      <use x="250.0" xlink:href="#BitstreamVeraSans-Roman-64"/>
      <use x="313.4765625" xlink:href="#BitstreamVeraSans-Roman-20"/>
      <use x="345.263671875" xlink:href="#BitstreamVeraSans-Roman-5b"/>
      <use x="384.27734375" xlink:href="#BitstreamVeraSans-Roman-6d"/>
      <use x="481.689453125" xlink:href="#BitstreamVeraSans-Roman-70"/>
      <use x="545.166015625" xlink:href="#BitstreamVeraSans-Roman-68"/>
      <use x="608.544921875" xlink:href="#BitstreamVeraSans-Roman-5d"/>
     </g>
    </g>
   </g>
   <g id="legend_1">
    <g id="patch_7">
     <path d="M 317.4885 271.00125 
L 511.2 271.00125 
L 511.2 160.99875 
L 317.4885 160.99875 
z
" style="fill:#ffffff;stroke:#000000;stroke-linejoin:miter;"/>
    </g>
    <g id="line2d_57">
     <path d="M 327.5685 172.6605 
L 347.7285 172.6605 
" style="fill:none;stroke:#ff0000;stroke-linecap:square;"/>
    </g>
    <g id="line2d_58"/>
    <g id="text_20">
     <!-- speed -->
     <g transform="translate(363.5685 177.7005)scale(0.144 -0.144)">
      <use xlink:href="#BitstreamVeraSans-Roman-73"/>
      <use x="52.099609375" xlink:href="#BitstreamVeraSans-Roman-70"/>
      <use x="115.576171875" xlink:href="#BitstreamVeraSans-Roman-65"/>
      <use x="177.099609375" xlink:href="#BitstreamVeraSans-Roman-65"/>
      <use x="238.623046875" xlink:href="#BitstreamVeraSans-Roman-64"/>
     </g>
    </g>
    <g id="line2d_59">
     <path d="M 327.5685 193.797 
L 347.7285 193.797 
" style="fill:none;stroke:#bfbf00;stroke-dasharray:6.000000,6.000000;stroke-dashoffset:0.0;"/>
    </g>
    <g id="line2d_60"/>
    <g id="text_21">
     <!-- pid speed -->
     <g transform="translate(363.5685 198.837)scale(0.144 -0.144)">
      <use xlink:href="#BitstreamVeraSans-Roman-70"/>
      <use x="63.4765625" xlink:href="#BitstreamVeraSans-Roman-69"/>
      <use x="91.259765625" xlink:href="#BitstreamVeraSans-Roman-64"/>
      <use x="154.736328125" xlink:href="#BitstreamVeraSans-Roman-20"/>
      <use x="186.5234375" xlink:href="#BitstreamVeraSans-Roman-73"/>
      <use x="238.623046875" xlink:href="#BitstreamVeraSans-Roman-70"/>
      <use x="302.099609375" xlink:href="#BitstreamVeraSans-Roman-65"/>
      <use x="363.623046875" xlink:href="#BitstreamVeraSans-Roman-65"/>
      <use x="425.146484375" xlink:href="#BitstreamVeraSans-Roman-64"/>
     </g>
    </g>
    <g id="line2d_61">
     <path d="M 327.5685 214.9335 
L 347.7285 214.9335 
" style="fill:none;stroke:#0000ff;stroke-linecap:square;"/>
    </g>
    <g id="line2d_62"/>
    <g id="text_22">
     <!-- Target (lead) speed -->
     <defs>
      <path d="M 8.015625 75.875 
L 15.828125 75.875 
Q 23.140625 64.359375 26.78125 53.3125 
Q 30.421875 42.28125 30.421875 31.390625 
Q 30.421875 20.453125 26.78125 9.375 
Q 23.140625 -1.703125 15.828125 -13.1875 
L 8.015625 -13.1875 
Q 14.5 -2 17.703125 9.0625 
Q 20.90625 20.125 20.90625 31.390625 
Q 20.90625 42.671875 17.703125 53.65625 
Q 14.5 64.65625 8.015625 75.875 
" id="BitstreamVeraSans-Roman-29"/>
      <path d="M 34.28125 27.484375 
Q 23.390625 27.484375 19.1875 25 
Q 14.984375 22.515625 14.984375 16.5 
Q 14.984375 11.71875 18.140625 8.90625 
Q 21.296875 6.109375 26.703125 6.109375 
Q 34.1875 6.109375 38.703125 11.40625 
Q 43.21875 16.703125 43.21875 25.484375 
L 43.21875 27.484375 
z
M 52.203125 31.203125 
L 52.203125 0 
L 43.21875 0 
L 43.21875 8.296875 
Q 40.140625 3.328125 35.546875 0.953125 
Q 30.953125 -1.421875 24.3125 -1.421875 
Q 15.921875 -1.421875 10.953125 3.296875 
Q 6 8.015625 6 15.921875 
Q 6 25.140625 12.171875 29.828125 
Q 18.359375 34.515625 30.609375 34.515625 
L 43.21875 34.515625 
L 43.21875 35.40625 
Q 43.21875 41.609375 39.140625 45 
Q 35.0625 48.390625 27.6875 48.390625 
Q 23 48.390625 18.546875 47.265625 
Q 14.109375 46.140625 10.015625 43.890625 
L 10.015625 52.203125 
Q 14.9375 54.109375 19.578125 55.046875 
Q 24.21875 56 28.609375 56 
Q 40.484375 56 46.34375 49.84375 
Q 52.203125 43.703125 52.203125 31.203125 
" id="BitstreamVeraSans-Roman-61"/>
      <path d="M 9.421875 75.984375 
L 18.40625 75.984375 
L 18.40625 0 
L 9.421875 0 
z
" id="BitstreamVeraSans-Roman-6c"/>
      <path d="M 31 75.875 
Q 24.46875 64.65625 21.28125 53.65625 
Q 18.109375 42.671875 18.109375 31.390625 
Q 18.109375 20.125 21.3125 9.0625 
Q 24.515625 -2 31 -13.1875 
L 23.1875 -13.1875 
Q 15.875 -1.703125 12.234375 9.375 
Q 8.59375 20.453125 8.59375 31.390625 
Q 8.59375 42.28125 12.203125 53.3125 
Q 15.828125 64.359375 23.1875 75.875 
z
" id="BitstreamVeraSans-Roman-28"/>
      <path d="M 45.40625 27.984375 
Q 45.40625 37.75 41.375 43.109375 
Q 37.359375 48.484375 30.078125 48.484375 
Q 22.859375 48.484375 18.828125 43.109375 
Q 14.796875 37.75 14.796875 27.984375 
Q 14.796875 18.265625 18.828125 12.890625 
Q 22.859375 7.515625 30.078125 7.515625 
Q 37.359375 7.515625 41.375 12.890625 
Q 45.40625 18.265625 45.40625 27.984375 
M 54.390625 6.78125 
Q 54.390625 -7.171875 48.1875 -13.984375 
Q 42 -20.796875 29.203125 -20.796875 
Q 24.46875 -20.796875 20.265625 -20.09375 
Q 16.0625 -19.390625 12.109375 -17.921875 
L 12.109375 -9.1875 
Q 16.0625 -11.328125 19.921875 -12.34375 
Q 23.78125 -13.375 27.78125 -13.375 
Q 36.625 -13.375 41.015625 -8.765625 
Q 45.40625 -4.15625 45.40625 5.171875 
L 45.40625 9.625 
Q 42.625 4.78125 38.28125 2.390625 
Q 33.9375 0 27.875 0 
Q 17.828125 0 11.671875 7.65625 
Q 5.515625 15.328125 5.515625 27.984375 
Q 5.515625 40.671875 11.671875 48.328125 
Q 17.828125 56 27.875 56 
Q 33.9375 56 38.28125 53.609375 
Q 42.625 51.21875 45.40625 46.390625 
L 45.40625 54.6875 
L 54.390625 54.6875 
z
" id="BitstreamVeraSans-Roman-67"/>
      <path d="M 41.109375 46.296875 
Q 39.59375 47.171875 37.8125 47.578125 
Q 36.03125 48 33.890625 48 
Q 26.265625 48 22.1875 43.046875 
Q 18.109375 38.09375 18.109375 28.8125 
L 18.109375 0 
L 9.078125 0 
L 9.078125 54.6875 
L 18.109375 54.6875 
L 18.109375 46.1875 
Q 20.953125 51.171875 25.484375 53.578125 
Q 30.03125 56 36.53125 56 
Q 37.453125 56 38.578125 55.875 
Q 39.703125 55.765625 41.0625 55.515625 
z
" id="BitstreamVeraSans-Roman-72"/>
      <path d="M 18.3125 70.21875 
L 18.3125 54.6875 
L 36.8125 54.6875 
L 36.8125 47.703125 
L 18.3125 47.703125 
L 18.3125 18.015625 
Q 18.3125 11.328125 20.140625 9.421875 
Q 21.96875 7.515625 27.59375 7.515625 
L 36.8125 7.515625 
L 36.8125 0 
L 27.59375 0 
Q 17.1875 0 13.234375 3.875 
Q 9.28125 7.765625 9.28125 18.015625 
L 9.28125 47.703125 
L 2.6875 47.703125 
L 2.6875 54.6875 
L 9.28125 54.6875 
L 9.28125 70.21875 
z
" id="BitstreamVeraSans-Roman-74"/>
     </defs>
     <g transform="translate(363.5685 219.9735)scale(0.144 -0.144)">
      <use xlink:href="#BitstreamVeraSans-Roman-54"/>
      <use x="60.833984375" xlink:href="#BitstreamVeraSans-Roman-61"/>
      <use x="122.11328125" xlink:href="#BitstreamVeraSans-Roman-72"/>
      <use x="163.2109375" xlink:href="#BitstreamVeraSans-Roman-67"/>
      <use x="226.6875" xlink:href="#BitstreamVeraSans-Roman-65"/>
      <use x="288.2109375" xlink:href="#BitstreamVeraSans-Roman-74"/>
      <use x="327.419921875" xlink:href="#BitstreamVeraSans-Roman-20"/>
      <use x="359.20703125" xlink:href="#BitstreamVeraSans-Roman-28"/>
      <use x="398.220703125" xlink:href="#BitstreamVeraSans-Roman-6c"/>
      <use x="426.00390625" xlink:href="#BitstreamVeraSans-Roman-65"/>
      <use x="487.52734375" xlink:href="#BitstreamVeraSans-Roman-61"/>
      <use x="548.806640625" xlink:href="#BitstreamVeraSans-Roman-64"/>
      <use x="612.283203125" xlink:href="#BitstreamVeraSans-Roman-29"/>
      <use x="651.296875" xlink:href="#BitstreamVeraSans-Roman-20"/>
      <use x="683.083984375" xlink:href="#BitstreamVeraSans-Roman-73"/>
      <use x="735.18359375" xlink:href="#BitstreamVeraSans-Roman-70"/>
      <use x="798.66015625" xlink:href="#BitstreamVeraSans-Roman-65"/>
      <use x="860.18359375" xlink:href="#BitstreamVeraSans-Roman-65"/>
      <use x="921.70703125" xlink:href="#BitstreamVeraSans-Roman-64"/>
     </g>
    </g>
    <g id="line2d_63">
     <path d="M 327.5685 236.07 
L 347.7285 236.07 
" style="fill:none;stroke:#000000;stroke-linecap:square;"/>
    </g>
    <g id="line2d_64"/>
    <g id="text_23">
     <!-- Cruise speed -->
     <defs>
      <path d="M 8.5 21.578125 
L 8.5 54.6875 
L 17.484375 54.6875 
L 17.484375 21.921875 
Q 17.484375 14.15625 20.5 10.265625 
Q 23.53125 6.390625 29.59375 6.390625 
Q 36.859375 6.390625 41.078125 11.03125 
Q 45.3125 15.671875 45.3125 23.6875 
L 45.3125 54.6875 
L 54.296875 54.6875 
L 54.296875 0 
L 45.3125 0 
L 45.3125 8.40625 
Q 42.046875 3.421875 37.71875 1 
Q 33.40625 -1.421875 27.6875 -1.421875 
Q 18.265625 -1.421875 13.375 4.4375 
Q 8.5 10.296875 8.5 21.578125 
" id="BitstreamVeraSans-Roman-75"/>
      <path d="M 64.40625 67.28125 
L 64.40625 56.890625 
Q 59.421875 61.53125 53.78125 63.8125 
Q 48.140625 66.109375 41.796875 66.109375 
Q 29.296875 66.109375 22.65625 58.46875 
Q 16.015625 50.828125 16.015625 36.375 
Q 16.015625 21.96875 22.65625 14.328125 
Q 29.296875 6.6875 41.796875 6.6875 
Q 48.140625 6.6875 53.78125 8.984375 
Q 59.421875 11.28125 64.40625 15.921875 
L 64.40625 5.609375 
Q 59.234375 2.09375 53.4375 0.328125 
Q 47.65625 -1.421875 41.21875 -1.421875 
Q 24.65625 -1.421875 15.125 8.703125 
Q 5.609375 18.84375 5.609375 36.375 
Q 5.609375 53.953125 15.125 64.078125 
Q 24.65625 74.21875 41.21875 74.21875 
Q 47.75 74.21875 53.53125 72.484375 
Q 59.328125 70.75 64.40625 67.28125 
" id="BitstreamVeraSans-Roman-43"/>
     </defs>
     <g transform="translate(363.5685 241.11)scale(0.144 -0.144)">
      <use xlink:href="#BitstreamVeraSans-Roman-43"/>
      <use x="69.82421875" xlink:href="#BitstreamVeraSans-Roman-72"/>
      <use x="110.9375" xlink:href="#BitstreamVeraSans-Roman-75"/>
      <use x="174.31640625" xlink:href="#BitstreamVeraSans-Roman-69"/>
      <use x="202.099609375" xlink:href="#BitstreamVeraSans-Roman-73"/>
      <use x="254.19921875" xlink:href="#BitstreamVeraSans-Roman-65"/>
      <use x="315.72265625" xlink:href="#BitstreamVeraSans-Roman-20"/>
      <use x="347.509765625" xlink:href="#BitstreamVeraSans-Roman-73"/>
      <use x="399.609375" xlink:href="#BitstreamVeraSans-Roman-70"/>
      <use x="463.0859375" xlink:href="#BitstreamVeraSans-Roman-65"/>
      <use x="524.609375" xlink:href="#BitstreamVeraSans-Roman-65"/>
      <use x="586.1328125" xlink:href="#BitstreamVeraSans-Roman-64"/>
     </g>
    </g>
    <g id="line2d_65">
     <path d="M 327.5685 257.2065 
L 347.7285 257.2065 
" style="fill:none;stroke:#bf00bf;stroke-linecap:square;"/>
    </g>
    <g id="line2d_66"/>
    <g id="text_24">
     <!-- Lead speed -->
     <defs>
      <path d="M 9.8125 72.90625 
L 19.671875 72.90625 
L 19.671875 8.296875 
L 55.171875 8.296875 
L 55.171875 0 
L 9.8125 0 
z
" id="BitstreamVeraSans-Roman-4c"/>
     </defs>
     <g transform="translate(363.5685 262.2465)scale(0.144 -0.144)">
      <use xlink:href="#BitstreamVeraSans-Roman-4c"/>
      <use x="55.697265625" xlink:href="#BitstreamVeraSans-Roman-65"/>
      <use x="117.220703125" xlink:href="#BitstreamVeraSans-Roman-61"/>
      <use x="178.5" xlink:href="#BitstreamVeraSans-Roman-64"/>
      <use x="241.9765625" xlink:href="#BitstreamVeraSans-Roman-20"/>
      <use x="273.763671875" xlink:href="#BitstreamVeraSans-Roman-73"/>
      <use x="325.86328125" xlink:href="#BitstreamVeraSans-Roman-70"/>
      <use x="389.33984375" xlink:href="#BitstreamVeraSans-Roman-65"/>
      <use x="450.86328125" xlink:href="#BitstreamVeraSans-Roman-65"/>
      <use x="512.38671875" xlink:href="#BitstreamVeraSans-Roman-64"/>
     </g>
    </g>
   </g>
  </g>
 </g>
 <defs>
  <clipPath id="pc904298ef0">
   <rect height="345.6" width="446.4" x="72.0" y="43.2"/>
  </clipPath>
 </defs>
</svg>
