<?xml version="1.0" encoding="utf-8" standalone="no"?>
<!DOCTYPE svg PUBLIC "-//W3C//DTD SVG 1.1//EN"
  "http://www.w3.org/Graphics/SVG/1.1/DTD/svg11.dtd">
<!-- Created with matplotlib (http://matplotlib.org/) -->
<svg height="432pt" version="1.1" viewBox="0 0 576 432" width="576pt" xmlns="http://www.w3.org/2000/svg" xmlns:xlink="http://www.w3.org/1999/xlink">
 <defs>
  <style type="text/css">
*{stroke-linecap:butt;stroke-linejoin:round;stroke-miterlimit:100000;}
  </style>
 </defs>
 <g id="figure_1">
  <g id="patch_1">
   <path d="M 0 432 
L 576 432 
L 576 0 
L 0 0 
z
" style="fill:#ffffff;"/>
  </g>
  <g id="axes_1">
   <g id="patch_2">
    <path d="M 72 388.8 
L 518.4 388.8 
L 518.4 43.2 
L 72 43.2 
z
" style="fill:#ffffff;"/>
   </g>
   <g id="line2d_1">
    <path clip-path="url(#p7be240ec70)" d="M 72.17856 255.693438 
L 98.24832 255.636203 
L 98.42688 246.07019 
L 98.784 246.069778 
L 99.14112 223.233911 
L 99.31968 223.234138 
L 99.49824 211.816511 
L 99.6768 211.816955 
L 99.85536 202.302521 
L 100.03392 202.303146 
L 100.21248 194.691869 
L 100.39104 194.692638 
L 100.5696 185.17853 
L 100.74816 185.179481 
L 100.92672 177.56853 
L 101.10528 177.569626 
L 101.28384 173.764771 
L 101.4624 173.76594 
L 101.64096 171.864135 
L 101.81952 171.865341 
L 101.99808 169.963572 
L 102.3552 169.96606 
L 102.53376 168.064329 
L 102.71232 168.06561 
L 102.89088 166.163916 
L 103.06944 166.165235 
L 103.248 162.360602 
L 103.42656 162.361995 
L 103.60512 160.460412 
L 103.78368 160.461842 
L 104.31936 154.757318 
L 104.49792 154.75886 
L 104.67648 152.857427 
L 104.85504 152.859006 
L 105.0336 150.957611 
L 105.21216 150.959229 
L 105.39072 149.057872 
L 105.56928 149.059528 
L 105.74784 145.255233 
L 105.9264 145.256964 
L 106.10496 143.35572 
L 106.46208 143.359259 
L 106.64064 141.458054 
L 106.8192 141.459863 
L 106.99776 139.558697 
L 107.17632 139.560544 
L 107.35488 137.659417 
L 107.53344 137.661303 
L 107.712 133.857239 
L 108.24768 133.863128 
L 108.42624 131.962117 
L 108.6048 131.964121 
L 108.96192 128.162216 
L 109.14048 128.164297 
L 109.31904 126.263404 
L 109.4976 126.265524 
L 109.67616 124.36467 
L 109.85472 124.36683 
L 110.03328 122.466016 
L 110.21184 122.468216 
L 110.56896 118.666705 
L 111.2832 118.675828 
L 111.46176 116.775137 
L 111.99744 116.782111 
L 112.176 114.881463 
L 112.35456 114.88383 
L 112.53312 112.983223 
L 113.24736 112.992863 
L 113.42592 111.092301 
L 114.14016 111.102124 
L 114.31872 109.201609 
L 115.92576 109.224166 
L 116.10432 107.323706 
L 116.28288 107.326261 
L 116.46144 105.425842 
L 116.99712 105.433637 
L 117.17568 103.533263 
L 117.35424 103.535905 
L 117.5328 101.635574 
L 118.06848 101.643632 
L 118.24704 99.743347 
L 118.78272 99.751544 
L 118.96128 97.851304 
L 119.13984 97.854081 
L 119.3184 95.953885 
L 119.85408 95.96235 
L 120.03264 94.0622 
L 120.56832 94.070807 
L 120.74688 92.170704 
L 121.28256 92.179454 
L 121.46112 90.279399 
L 121.9968 90.288293 
L 122.17536 88.388286 
L 122.71104 88.397324 
L 122.8896 86.497366 
L 123.42528 86.506551 
L 123.60384 84.606641 
L 124.49664 84.622206 
L 124.6752 82.722351 
L 125.21088 82.731846 
L 125.38944 80.832041 
L 126.28224 80.848128 
L 126.4608 78.948378 
L 126.99648 78.958189 
L 127.17504 77.058489 
L 128.06784 77.075109 
L 128.2464 75.175465 
L 129.1392 75.192369 
L 129.31776 73.292782 
L 130.21056 73.309972 
L 130.38912 71.410444 
L 131.28192 71.427924 
L 131.46048 69.528453 
L 132.7104 69.553356 
L 132.88896 67.65395 
L 134.13888 67.679311 
L 134.31744 65.779971 
L 135.21024 65.798401 
L 135.3888 63.899121 
L 137.35296 63.94044 
L 137.53152 62.04124 
L 138.78144 62.068055 
L 138.96 60.168924 
L 141.28128 60.219749 
L 141.45984 58.320707 
L 143.60256 58.368686 
L 143.78112 56.469731 
L 148.06656 56.568313 
L 148.24512 58.47544 
L 148.42368 58.47955 
L 148.60224 60.38664 
L 148.7808 60.390713 
L 148.95936 64.20074 
L 149.13792 64.204731 
L 149.31648 66.111701 
L 149.49504 66.115654 
L 149.6736 68.022585 
L 149.85216 68.026499 
L 150.03072 71.836368 
L 150.20928 71.840199 
L 150.38784 73.747009 
L 150.5664 73.750801 
L 150.74496 75.657572 
L 150.92352 75.661325 
L 151.10208 77.568057 
L 151.28064 77.571771 
L 151.4592 79.478463 
L 151.63776 79.482138 
L 151.81632 83.291766 
L 151.99488 83.295356 
L 152.17344 85.201924 
L 152.352 85.205473 
L 152.53056 87.112001 
L 152.70912 87.115511 
L 152.88768 89.021998 
L 153.06624 89.025467 
L 153.2448 90.931914 
L 153.42336 90.935343 
L 153.60192 92.841749 
L 153.78048 92.845137 
L 153.95904 96.654478 
L 154.1376 96.65778 
L 154.31616 98.564059 
L 154.49472 98.567319 
L 154.67328 100.473557 
L 154.85184 100.476775 
L 155.0304 102.382972 
L 155.20896 102.386149 
L 155.38752 104.292304 
L 155.56608 104.295439 
L 155.74464 106.201552 
L 155.9232 106.204645 
L 156.10176 108.110716 
L 156.28032 108.113767 
L 156.45888 110.019796 
L 156.63744 110.022805 
L 156.816 111.928791 
L 156.99456 111.931758 
L 157.17312 113.837702 
L 157.35168 113.840626 
L 157.53024 115.746527 
L 157.7088 115.749408 
L 157.88736 117.655267 
L 158.06592 117.658105 
L 158.24448 119.563921 
L 158.42304 119.566716 
L 158.6016 125.27844 
L 158.78016 125.2811 
L 158.95872 132.895664 
L 159.13728 132.898142 
L 159.31584 140.512523 
L 159.4944 140.514819 
L 159.67296 144.323067 
L 159.85152 144.325273 
L 160.03008 151.939381 
L 160.20864 151.941404 
L 160.3872 155.749378 
L 160.56576 155.751309 
L 160.74432 161.462167 
L 160.92288 161.463961 
L 161.10144 167.174682 
L 161.28 167.176338 
L 161.45856 170.983945 
L 161.63712 170.985509 
L 161.81568 174.793025 
L 161.99424 174.794497 
L 162.1728 180.504896 
L 162.35136 180.50623 
L 162.70848 186.217732 
L 163.0656 186.220122 
L 163.24416 190.027269 
L 163.60128 190.029475 
L 163.9584 195.740516 
L 164.13696 195.74148 
L 164.31552 199.548396 
L 164.49408 199.549267 
L 164.67264 201.453115 
L 164.8512 201.45394 
L 165.02976 203.357741 
L 165.20832 203.35852 
L 165.56544 209.068911 
L 165.92256 209.07019 
L 166.10112 210.973806 
L 166.27968 210.974399 
L 166.45824 212.877967 
L 166.6368 212.878514 
L 166.81536 214.782036 
L 167.35104 214.783536 
L 167.5296 216.687012 
L 167.70816 216.687465 
L 167.88672 218.590895 
L 168.06528 218.591302 
L 168.24384 220.494684 
L 168.4224 220.495045 
L 168.60096 222.398381 
L 168.77952 222.398694 
L 168.95808 224.301984 
L 169.49376 224.302785 
L 169.67232 226.206028 
L 170.56512 226.20713 
L 170.74368 230.013302 
L 172.35072 230.014447 
L 172.52928 233.820525 
L 174.13632 233.82083 
L 174.31488 235.723839 
L 175.5648 235.723749 
L 175.74336 237.626712 
L 176.99328 237.626295 
L 177.17184 239.529211 
L 177.70752 239.528893 
L 177.88608 237.625811 
L 178.42176 237.625633 
L 178.60032 239.528549 
L 179.85024 239.527806 
L 180.0288 241.430675 
L 180.20736 241.430522 
L 180.38592 239.527394 
L 181.27872 239.526864 
L 181.45728 241.429733 
L 181.99296 241.429275 
L 182.17152 239.526147 
L 182.7072 239.525829 
L 182.88576 241.428698 
L 194.13504 241.419096 
L 194.3136 243.321919 
L 194.49216 243.32172 
L 194.67072 241.418546 
L 203.2416 241.411253 
L 203.42016 239.508126 
L 203.77728 239.507915 
L 203.95584 241.410785 
L 204.67008 241.410179 
L 204.84864 239.507051 
L 205.38432 239.506736 
L 205.56288 241.409606 
L 206.8128 241.408545 
L 206.99136 239.505417 
L 207.16992 239.505312 
L 207.34848 241.408183 
L 208.06272 241.407577 
L 208.24128 239.504449 
L 208.77696 239.504134 
L 208.95552 241.407005 
L 210.20544 241.405944 
L 210.384 239.502817 
L 210.56256 239.502712 
L 210.74112 241.405583 
L 211.45536 241.404977 
L 211.63392 239.50185 
L 212.52672 239.501325 
L 212.70528 241.404196 
L 213.59808 241.403439 
L 213.77664 239.500312 
L 214.49088 239.499893 
L 214.66944 241.402763 
L 215.20512 241.402309 
L 215.38368 239.499183 
L 216.27648 239.498658 
L 216.45504 241.401529 
L 217.34784 241.400773 
L 217.5264 239.497646 
L 217.88352 239.497437 
L 218.06208 241.400308 
L 218.95488 241.399552 
L 219.13344 239.496425 
L 219.84768 239.496006 
L 220.02624 241.398877 
L 220.91904 241.398122 
L 221.0976 239.494995 
L 221.81184 239.494576 
L 221.9904 241.397447 
L 222.52608 241.396994 
L 222.70464 239.493868 
L 224.13312 239.493031 
L 224.31168 241.395902 
L 224.49024 241.395751 
L 224.6688 239.492625 
L 226.27584 239.491684 
L 226.4544 241.394555 
L 226.63296 241.394404 
L 226.81152 239.491277 
L 235.3824 239.486266 
L 235.56096 237.583187 
L 235.73952 237.583129 
L 235.91808 239.486046 
L 240.02496 239.483649 
L 240.20352 237.580569 
L 240.38208 237.580512 
L 240.56064 239.483429 
L 242.34624 239.482388 
L 242.5248 237.579308 
L 243.4176 237.579019 
L 243.59616 239.481937 
L 244.84608 239.481208 
L 245.02464 237.578129 
L 246.45312 237.577666 
L 246.63168 239.480584 
L 248.06016 239.479752 
L 248.23872 237.576672 
L 250.56 237.575922 
L 250.73856 239.47884 
L 253.05984 214.521127 
L 253.2384 214.504605 
L 253.41696 212.585108 
L 253.59552 212.568634 
L 253.77408 210.649184 
L 253.95264 210.632757 
L 254.1312 208.713354 
L 254.30976 208.696974 
L 254.66688 204.85831 
L 254.84544 206.744999 
L 255.024 204.825692 
L 255.20256 204.809407 
L 255.73824 199.051767 
L 255.9168 199.035622 
L 256.27392 195.197431 
L 256.45248 195.232128 
L 267.34464 78.259064 
L 267.5232 79.342993 
L 267.70176 77.426899 
L 267.88032 83.010853 
L 268.23744 79.178543 
L 268.416 84.762461 
L 268.59456 82.846244 
L 268.77312 90.350075 
L 268.95168 90.353723 
L 269.13024 99.357369 
L 269.3088 99.360794 
L 269.48736 106.864218 
L 269.84448 106.8707 
L 270.02304 114.37394 
L 270.2016 114.376995 
L 270.38016 121.880049 
L 270.73728 121.885788 
L 270.91584 129.388656 
L 271.0944 129.391339 
L 271.27296 136.894019 
L 271.45152 136.896514 
L 271.63008 144.399006 
L 271.80864 144.401312 
L 271.9872 151.903615 
L 272.16576 151.905733 
L 272.34432 160.907846 
L 272.52288 160.909736 
L 272.70144 168.411623 
L 273.05856 168.415023 
L 273.23712 175.91672 
L 273.41568 175.918231 
L 273.59424 183.419737 
L 273.7728 183.421057 
L 273.95136 186.422376 
L 274.48704 186.426108 
L 274.6656 187.927352 
L 274.84416 187.928559 
L 275.02272 189.429765 
L 275.5584 189.433271 
L 275.73696 190.93444 
L 276.27264 190.937834 
L 276.4512 192.438965 
L 276.98688 192.442246 
L 277.16544 193.943339 
L 277.344 193.944395 
L 277.52256 195.44545 
L 278.05824 195.448504 
L 278.2368 196.949522 
L 278.77248 196.952462 
L 278.95104 198.453442 
L 279.48672 198.456268 
L 279.66528 199.95721 
L 280.20096 199.959923 
L 280.37952 201.460826 
L 280.9152 201.463425 
L 281.09376 202.964291 
L 281.62944 202.966775 
L 281.808 204.467602 
L 282.34368 204.469972 
L 282.52224 205.970761 
L 283.05792 205.973016 
L 283.23648 207.473767 
L 283.77216 207.475907 
L 283.95072 208.97662 
L 284.4864 208.978645 
L 284.66496 210.479319 
L 285.20064 210.481229 
L 285.3792 211.981865 
L 286.272 211.984856 
L 286.45056 213.485454 
L 286.98624 213.487133 
L 287.1648 214.987692 
L 287.70048 214.989256 
L 287.87904 216.489776 
L 288.77184 216.49219 
L 288.9504 217.992672 
L 289.48608 217.994004 
L 289.66464 219.494447 
L 290.55744 219.496475 
L 290.736 220.996879 
L 291.27168 220.99798 
L 291.45024 222.498346 
L 292.34304 222.499987 
L 292.5216 224.000314 
L 293.4144 224.001761 
L 293.59296 225.50205 
L 294.48576 225.503303 
L 294.66432 227.003553 
L 295.2 227.004189 
L 295.37856 228.5044 
L 296.62848 228.505612 
L 296.80704 230.005784 
L 297.69984 230.006456 
L 297.8784 231.50659 
L 298.7712 231.507067 
L 298.94976 233.007162 
L 299.84256 233.007446 
L 300.02112 234.507502 
L 301.27104 234.507627 
L 301.4496 236.007644 
L 302.69952 236.007498 
L 302.87808 237.507476 
L 303.77088 237.507178 
L 303.94944 239.007117 
L 305.55648 239.006231 
L 305.73504 240.506132 
L 306.98496 240.505171 
L 307.16352 242.005033 
L 308.77056 242.00345 
L 308.94912 243.503273 
L 310.19904 243.501771 
L 310.3776 245.001556 
L 312.34176 244.99877 
L 312.52032 246.498516 
L 314.48448 246.495307 
L 314.66304 247.995015 
L 316.27008 247.992043 
L 316.44864 249.491712 
L 318.76992 249.486921 
L 318.94848 250.986551 
L 321.62688 250.980451 
L 321.80544 252.480044 
L 324.84096 252.472485 
L 325.01952 253.97204 
L 328.41216 253.962877 
L 328.59072 255.462395 
L 333.05472 255.449408 
L 333.23328 256.948888 
L 339.48288 256.929431 
L 339.66144 258.428875 
L 357.87456 258.368786 
L 358.05312 259.8682 
L 390.7296 259.75558 
L 390.90816 258.254973 
L 394.12224 258.244714 
L 394.3008 256.744146 
L 398.7648 256.730863 
L 398.94336 255.230334 
L 402.87168 255.219491 
L 403.05024 253.719 
L 406.97856 253.708996 
L 407.15712 252.208542 
L 411.44256 252.198539 
L 411.62112 250.698123 
L 415.01376 250.690919 
L 415.19232 249.190541 
L 420.01344 249.181315 
L 420.192 247.680974 
L 425.19168 247.672454 
L 425.37024 246.17215 
L 431.26272 246.163338 
L 431.44128 244.663072 
L 438.048 244.654565 
L 438.22656 243.154336 
L 445.1904 243.146811 
L 445.36896 241.646619 
L 453.76128 241.639281 
L 453.93984 240.139126 
L 465.18912 240.131602 
L 465.36768 238.631483 
L 478.75968 238.62527 
L 478.93824 237.125188 
L 498.40128 237.120129 
L 498.57984 235.620083 
L 518.4 235.61896 
L 518.4 235.61896 
" style="fill:none;stroke:#008000;stroke-linecap:square;"/>
   </g>
   <g id="line2d_2">
    <path clip-path="url(#p7be240ec70)" d="M 72.17856 235.2 
L 72.53568 235.2 
L 72.71424 369.141307 
L 76.464 369.251502 
L 78.96384 369.334163 
L 82.89216 369.44437 
L 85.392 369.527019 
L 89.49888 369.637225 
L 92.17728 369.733653 
L 96.46272 369.843848 
L 98.96256 369.926509 
L 101.4624 369.816302 
L 105.9264 369.361709 
L 107.35488 369.141307 
L 108.96192 368.907115 
L 115.56864 367.805083 
L 116.28288 367.639785 
L 116.99712 367.543357 
L 117.5328 367.405593 
L 118.06848 367.336723 
L 118.78272 367.157634 
L 121.28256 366.689273 
L 121.81824 366.537742 
L 122.35392 366.427535 
L 134.496 363.730449 
L 142.70976 362.379394 
L 146.28096 361.766917 
L 159.13728 359.929477 
L 163.0656 359.641257 
L 168.4224 359.479129 
L 203.2416 359.587218 
L 205.74144 359.605231 
L 228.59712 359.713309 
L 231.09696 359.731322 
L 258.05952 359.623244 
L 262.88064 359.271968 
L 267.70176 358.677505 
L 271.9872 358.13708 
L 274.84416 357.956939 
L 283.05792 357.650706 
L 287.87904 357.542617 
L 291.09312 357.488578 
L 322.16256 357.596667 
L 325.5552 357.659713 
L 331.62624 357.767802 
L 335.376 357.848861 
L 341.08992 357.956939 
L 345.1968 358.056022 
L 350.37504 358.1641 
L 354.48192 358.263183 
L 359.66016 358.371261 
L 363.9456 358.47935 
L 368.94528 358.58744 
L 373.23072 358.695518 
L 378.05184 358.803607 
L 382.15872 358.902679 
L 386.97984 359.010768 
L 391.08672 359.10984 
L 396.0864 359.217929 
L 399.6576 359.289981 
L 405.72864 359.398071 
L 409.12128 359.461116 
L 416.6208 359.569205 
L 419.65632 359.614238 
L 429.47712 359.722316 
L 432.33408 359.758342 
L 446.61888 359.866431 
L 449.11872 359.884444 
L 473.22432 359.992534 
L 475.5456 360.00154 
L 518.4 360.055579 
L 518.4 360.055579 
" style="fill:none;stroke:#000000;stroke-dasharray:6.000000,6.000000;stroke-dashoffset:0.0;"/>
   </g>
   <g id="line2d_3">
    <path clip-path="url(#p7be240ec70)" d="M 72.17856 235.2 
L 72.53568 235.2 
L 72.71424 73.444148 
L 75.21408 73.338176 
L 76.82112 73.25341 
L 79.32096 73.147437 
L 80.928 73.062671 
L 83.24928 72.956699 
L 84.67776 72.893127 
L 87.1776 72.787166 
L 88.9632 72.681194 
L 91.6416 72.575233 
L 93.24864 72.490455 
L 95.92704 72.384494 
L 97.53408 72.299716 
L 101.4624 72.405688 
L 105.0336 72.935516 
L 110.74752 74.185897 
L 110.92608 74.185897 
L 111.2832 74.376636 
L 114.67584 75.245551 
L 115.21152 75.457484 
L 117.71136 76.114467 
L 118.24704 76.326389 
L 118.60416 76.432361 
L 120.03264 76.877422 
L 120.56832 76.983371 
L 120.92544 77.110538 
L 121.46112 77.322471 
L 121.63968 77.322471 
L 121.9968 77.449626 
L 122.53248 77.682754 
L 123.06816 77.788715 
L 123.42528 77.91587 
L 123.96096 78.148997 
L 124.13952 78.148997 
L 124.49664 78.276153 
L 125.03232 78.50928 
L 125.38944 78.572852 
L 125.92512 78.827163 
L 126.28224 78.890746 
L 126.81792 79.123874 
L 126.99648 79.123874 
L 127.53216 79.378196 
L 127.71072 79.378196 
L 128.06784 79.505351 
L 136.10304 82.254279 
L 141.10272 83.700698 
L 143.06688 84.28881 
L 145.38816 84.98817 
L 146.1024 85.258376 
L 146.63808 85.353751 
L 148.7808 86.005435 
L 156.63744 87.992278 
L 162.88704 88.993648 
L 166.99392 89.24797 
L 172.35072 89.343333 
L 173.7792 89.359229 
L 188.064 89.263866 
L 189.49248 89.24797 
L 198.7776 89.152606 
L 200.38464 89.120815 
L 211.63392 89.025439 
L 213.0624 89.009544 
L 224.49024 88.91418 
L 225.91872 88.898284 
L 239.66784 88.802921 
L 241.09632 88.787025 
L 256.27392 88.882388 
L 261.45216 89.406917 
L 261.80928 89.486385 
L 263.59488 89.756602 
L 264.13056 89.883758 
L 264.48768 89.931445 
L 265.20192 90.106288 
L 265.55904 90.153964 
L 266.45184 90.440067 
L 266.98752 90.535442 
L 268.416 90.853336 
L 268.95168 91.044074 
L 274.84416 91.98186 
L 280.73664 92.395129 
L 282.7008 92.490504 
L 285.55776 92.633556 
L 288.41472 92.728919 
L 290.37888 92.792503 
L 295.37856 92.887866 
L 296.9856 92.919658 
L 313.59168 92.824283 
L 315.37728 92.776595 
L 319.84128 92.681232 
L 321.80544 92.61766 
L 325.37664 92.522285 
L 327.51936 92.442817 
L 330.912 92.347442 
L 333.05472 92.267974 
L 335.91168 92.17261 
L 338.23296 92.077235 
L 341.08992 91.98186 
L 343.58976 91.870601 
L 346.26816 91.775237 
L 348.58944 91.679862 
L 351.26784 91.584499 
L 353.76768 91.473228 
L 356.26752 91.377864 
L 358.41024 91.298385 
L 360.91008 91.203021 
L 363.58848 91.075866 
L 366.08832 90.980491 
L 368.58816 90.869231 
L 371.088 90.773868 
L 373.58784 90.662597 
L 376.26624 90.567233 
L 378.76608 90.455974 
L 381.26592 90.360599 
L 383.76576 90.249339 
L 386.08704 90.153964 
L 388.58688 90.042705 
L 391.26528 89.94733 
L 393.58656 89.851966 
L 396.0864 89.756602 
L 398.22912 89.677123 
L 401.08608 89.58176 
L 403.2288 89.50228 
L 406.62144 89.406917 
L 408.5856 89.343333 
L 412.33536 89.24797 
L 414.29952 89.184386 
L 418.76352 89.089023 
L 420.54912 89.041335 
L 425.19168 88.945972 
L 426.79872 88.91418 
L 432.15552 88.818805 
L 433.76256 88.787025 
L 440.19072 88.69165 
L 441.79776 88.659869 
L 450.72576 88.564494 
L 452.15424 88.548598 
L 463.22496 88.453223 
L 464.65344 88.437339 
L 483.5808 88.341964 
L 485.00928 88.326068 
L 518.4 88.278381 
L 518.4 88.278381 
" style="fill:none;stroke:#000000;stroke-dasharray:6.000000,6.000000;stroke-dashoffset:0.0;"/>
   </g>
   <g id="patch_3">
    <path d="M 72 43.2 
L 518.4 43.2 
" style="fill:none;stroke:#000000;stroke-linecap:square;stroke-linejoin:miter;"/>
   </g>
   <g id="patch_4">
    <path d="M 518.4 388.8 
L 518.4 43.2 
" style="fill:none;stroke:#000000;stroke-linecap:square;stroke-linejoin:miter;"/>
   </g>
   <g id="patch_5">
    <path d="M 72 388.8 
L 518.4 388.8 
" style="fill:none;stroke:#000000;stroke-linecap:square;stroke-linejoin:miter;"/>
   </g>
   <g id="patch_6">
    <path d="M 72 388.8 
L 72 43.2 
" style="fill:none;stroke:#000000;stroke-linecap:square;stroke-linejoin:miter;"/>
   </g>
   <g id="matplotlib.axis_1">
    <g id="xtick_1">
     <g id="line2d_4">
      <path clip-path="url(#p7be240ec70)" d="M 72 388.8 
L 72 43.2 
" style="fill:none;stroke:#000000;stroke-dasharray:1.000000,3.000000;stroke-dashoffset:0.0;stroke-width:0.5;"/>
     </g>
     <g id="line2d_5">
      <defs>
       <path d="M 0 0 
L 0 -4 
" id="m0ee6517802" style="stroke:#000000;stroke-width:0.5;"/>
      </defs>
      <g>
       <use style="stroke:#000000;stroke-width:0.5;" x="72.0" xlink:href="#m0ee6517802" y="388.8"/>
      </g>
     </g>
     <g id="line2d_6">
      <defs>
       <path d="M 0 0 
L 0 4 
" id="m0ca5564b54" style="stroke:#000000;stroke-width:0.5;"/>
      </defs>
      <g>
       <use style="stroke:#000000;stroke-width:0.5;" x="72.0" xlink:href="#m0ca5564b54" y="43.2"/>
      </g>
     </g>
     <g id="text_1">
      <!-- 0 -->
      <defs>
       <path d="M 31.78125 66.40625 
Q 24.171875 66.40625 20.328125 58.90625 
Q 16.5 51.421875 16.5 36.375 
Q 16.5 21.390625 20.328125 13.890625 
Q 24.171875 6.390625 31.78125 6.390625 
Q 39.453125 6.390625 43.28125 13.890625 
Q 47.125 21.390625 47.125 36.375 
Q 47.125 51.421875 43.28125 58.90625 
Q 39.453125 66.40625 31.78125 66.40625 
M 31.78125 74.21875 
Q 44.046875 74.21875 50.515625 64.515625 
Q 56.984375 54.828125 56.984375 36.375 
Q 56.984375 17.96875 50.515625 8.265625 
Q 44.046875 -1.421875 31.78125 -1.421875 
Q 19.53125 -1.421875 13.0625 8.265625 
Q 6.59375 17.96875 6.59375 36.375 
Q 6.59375 54.828125 13.0625 64.515625 
Q 19.53125 74.21875 31.78125 74.21875 
" id="BitstreamVeraSans-Roman-30"/>
      </defs>
      <g transform="translate(68.1825 401.918125)scale(0.12 -0.12)">
       <use xlink:href="#BitstreamVeraSans-Roman-30"/>
      </g>
     </g>
    </g>
    <g id="xtick_2">
     <g id="line2d_7">
      <path clip-path="url(#p7be240ec70)" d="M 161.28 388.8 
L 161.28 43.2 
" style="fill:none;stroke:#000000;stroke-dasharray:1.000000,3.000000;stroke-dashoffset:0.0;stroke-width:0.5;"/>
     </g>
     <g id="line2d_8">
      <g>
       <use style="stroke:#000000;stroke-width:0.5;" x="161.28" xlink:href="#m0ee6517802" y="388.8"/>
      </g>
     </g>
     <g id="line2d_9">
      <g>
       <use style="stroke:#000000;stroke-width:0.5;" x="161.28" xlink:href="#m0ca5564b54" y="43.2"/>
      </g>
     </g>
     <g id="text_2">
      <!-- 5 -->
      <defs>
       <path d="M 10.796875 72.90625 
L 49.515625 72.90625 
L 49.515625 64.59375 
L 19.828125 64.59375 
L 19.828125 46.734375 
Q 21.96875 47.46875 24.109375 47.828125 
Q 26.265625 48.1875 28.421875 48.1875 
Q 40.625 48.1875 47.75 41.5 
Q 54.890625 34.8125 54.890625 23.390625 
Q 54.890625 11.625 47.5625 5.09375 
Q 40.234375 -1.421875 26.90625 -1.421875 
Q 22.3125 -1.421875 17.546875 -0.640625 
Q 12.796875 0.140625 7.71875 1.703125 
L 7.71875 11.625 
Q 12.109375 9.234375 16.796875 8.0625 
Q 21.484375 6.890625 26.703125 6.890625 
Q 35.15625 6.890625 40.078125 11.328125 
Q 45.015625 15.765625 45.015625 23.390625 
Q 45.015625 31 40.078125 35.4375 
Q 35.15625 39.890625 26.703125 39.890625 
Q 22.75 39.890625 18.8125 39.015625 
Q 14.890625 38.140625 10.796875 36.28125 
z
" id="BitstreamVeraSans-Roman-35"/>
      </defs>
      <g transform="translate(157.4625 401.918125)scale(0.12 -0.12)">
       <use xlink:href="#BitstreamVeraSans-Roman-35"/>
      </g>
     </g>
    </g>
    <g id="xtick_3">
     <g id="line2d_10">
      <path clip-path="url(#p7be240ec70)" d="M 250.56 388.8 
L 250.56 43.2 
" style="fill:none;stroke:#000000;stroke-dasharray:1.000000,3.000000;stroke-dashoffset:0.0;stroke-width:0.5;"/>
     </g>
     <g id="line2d_11">
      <g>
       <use style="stroke:#000000;stroke-width:0.5;" x="250.56" xlink:href="#m0ee6517802" y="388.8"/>
      </g>
     </g>
     <g id="line2d_12">
      <g>
       <use style="stroke:#000000;stroke-width:0.5;" x="250.56" xlink:href="#m0ca5564b54" y="43.2"/>
      </g>
     </g>
     <g id="text_3">
      <!-- 10 -->
      <defs>
       <path d="M 12.40625 8.296875 
L 28.515625 8.296875 
L 28.515625 63.921875 
L 10.984375 60.40625 
L 10.984375 69.390625 
L 28.421875 72.90625 
L 38.28125 72.90625 
L 38.28125 8.296875 
L 54.390625 8.296875 
L 54.390625 0 
L 12.40625 0 
z
" id="BitstreamVeraSans-Roman-31"/>
      </defs>
      <g transform="translate(242.925 401.918125)scale(0.12 -0.12)">
       <use xlink:href="#BitstreamVeraSans-Roman-31"/>
       <use x="63.623046875" xlink:href="#BitstreamVeraSans-Roman-30"/>
      </g>
     </g>
    </g>
    <g id="xtick_4">
     <g id="line2d_13">
      <path clip-path="url(#p7be240ec70)" d="M 339.84 388.8 
L 339.84 43.2 
" style="fill:none;stroke:#000000;stroke-dasharray:1.000000,3.000000;stroke-dashoffset:0.0;stroke-width:0.5;"/>
     </g>
     <g id="line2d_14">
      <g>
       <use style="stroke:#000000;stroke-width:0.5;" x="339.84" xlink:href="#m0ee6517802" y="388.8"/>
      </g>
     </g>
     <g id="line2d_15">
      <g>
       <use style="stroke:#000000;stroke-width:0.5;" x="339.84" xlink:href="#m0ca5564b54" y="43.2"/>
      </g>
     </g>
     <g id="text_4">
      <!-- 15 -->
      <g transform="translate(332.205 401.918125)scale(0.12 -0.12)">
       <use xlink:href="#BitstreamVeraSans-Roman-31"/>
       <use x="63.623046875" xlink:href="#BitstreamVeraSans-Roman-35"/>
      </g>
     </g>
    </g>
    <g id="xtick_5">
     <g id="line2d_16">
      <path clip-path="url(#p7be240ec70)" d="M 429.12 388.8 
L 429.12 43.2 
" style="fill:none;stroke:#000000;stroke-dasharray:1.000000,3.000000;stroke-dashoffset:0.0;stroke-width:0.5;"/>
     </g>
     <g id="line2d_17">
      <g>
       <use style="stroke:#000000;stroke-width:0.5;" x="429.12" xlink:href="#m0ee6517802" y="388.8"/>
      </g>
     </g>
     <g id="line2d_18">
      <g>
       <use style="stroke:#000000;stroke-width:0.5;" x="429.12" xlink:href="#m0ca5564b54" y="43.2"/>
      </g>
     </g>
     <g id="text_5">
      <!-- 20 -->
      <defs>
       <path d="M 19.1875 8.296875 
L 53.609375 8.296875 
L 53.609375 0 
L 7.328125 0 
L 7.328125 8.296875 
Q 12.9375 14.109375 22.625 23.890625 
Q 32.328125 33.6875 34.8125 36.53125 
Q 39.546875 41.84375 41.421875 45.53125 
Q 43.3125 49.21875 43.3125 52.78125 
Q 43.3125 58.59375 39.234375 62.25 
Q 35.15625 65.921875 28.609375 65.921875 
Q 23.96875 65.921875 18.8125 64.3125 
Q 13.671875 62.703125 7.8125 59.421875 
L 7.8125 69.390625 
Q 13.765625 71.78125 18.9375 73 
Q 24.125 74.21875 28.421875 74.21875 
Q 39.75 74.21875 46.484375 68.546875 
Q 53.21875 62.890625 53.21875 53.421875 
Q 53.21875 48.921875 51.53125 44.890625 
Q 49.859375 40.875 45.40625 35.40625 
Q 44.1875 33.984375 37.640625 27.21875 
Q 31.109375 20.453125 19.1875 8.296875 
" id="BitstreamVeraSans-Roman-32"/>
      </defs>
      <g transform="translate(421.485 401.918125)scale(0.12 -0.12)">
       <use xlink:href="#BitstreamVeraSans-Roman-32"/>
       <use x="63.623046875" xlink:href="#BitstreamVeraSans-Roman-30"/>
      </g>
     </g>
    </g>
    <g id="xtick_6">
     <g id="line2d_19">
      <path clip-path="url(#p7be240ec70)" d="M 518.4 388.8 
L 518.4 43.2 
" style="fill:none;stroke:#000000;stroke-dasharray:1.000000,3.000000;stroke-dashoffset:0.0;stroke-width:0.5;"/>
     </g>
     <g id="line2d_20">
      <g>
       <use style="stroke:#000000;stroke-width:0.5;" x="518.4" xlink:href="#m0ee6517802" y="388.8"/>
      </g>
     </g>
     <g id="line2d_21">
      <g>
       <use style="stroke:#000000;stroke-width:0.5;" x="518.4" xlink:href="#m0ca5564b54" y="43.2"/>
      </g>
     </g>
     <g id="text_6">
      <!-- 25 -->
      <g transform="translate(510.765 401.918125)scale(0.12 -0.12)">
       <use xlink:href="#BitstreamVeraSans-Roman-32"/>
       <use x="63.623046875" xlink:href="#BitstreamVeraSans-Roman-35"/>
      </g>
     </g>
    </g>
    <g id="text_7">
     <!-- Time [s] -->
     <defs>
      <path id="BitstreamVeraSans-Roman-20"/>
      <path d="M 8.59375 75.984375 
L 29.296875 75.984375 
L 29.296875 69 
L 17.578125 69 
L 17.578125 -6.203125 
L 29.296875 -6.203125 
L 29.296875 -13.1875 
L 8.59375 -13.1875 
z
" id="BitstreamVeraSans-Roman-5b"/>
      <path d="M 30.421875 75.984375 
L 30.421875 -13.1875 
L 9.71875 -13.1875 
L 9.71875 -6.203125 
L 21.390625 -6.203125 
L 21.390625 69 
L 9.71875 69 
L 9.71875 75.984375 
z
" id="BitstreamVeraSans-Roman-5d"/>
      <path d="M 52 44.1875 
Q 55.375 50.25 60.0625 53.125 
Q 64.75 56 71.09375 56 
Q 79.640625 56 84.28125 50.015625 
Q 88.921875 44.046875 88.921875 33.015625 
L 88.921875 0 
L 79.890625 0 
L 79.890625 32.71875 
Q 79.890625 40.578125 77.09375 44.375 
Q 74.3125 48.1875 68.609375 48.1875 
Q 61.625 48.1875 57.5625 43.546875 
Q 53.515625 38.921875 53.515625 30.90625 
L 53.515625 0 
L 44.484375 0 
L 44.484375 32.71875 
Q 44.484375 40.625 41.703125 44.40625 
Q 38.921875 48.1875 33.109375 48.1875 
Q 26.21875 48.1875 22.15625 43.53125 
Q 18.109375 38.875 18.109375 30.90625 
L 18.109375 0 
L 9.078125 0 
L 9.078125 54.6875 
L 18.109375 54.6875 
L 18.109375 46.1875 
Q 21.1875 51.21875 25.484375 53.609375 
Q 29.78125 56 35.6875 56 
Q 41.65625 56 45.828125 52.96875 
Q 50 49.953125 52 44.1875 
" id="BitstreamVeraSans-Roman-6d"/>
      <path d="M 9.421875 54.6875 
L 18.40625 54.6875 
L 18.40625 0 
L 9.421875 0 
z
M 9.421875 75.984375 
L 18.40625 75.984375 
L 18.40625 64.59375 
L 9.421875 64.59375 
z
" id="BitstreamVeraSans-Roman-69"/>
      <path d="M 56.203125 29.59375 
L 56.203125 25.203125 
L 14.890625 25.203125 
Q 15.484375 15.921875 20.484375 11.0625 
Q 25.484375 6.203125 34.421875 6.203125 
Q 39.59375 6.203125 44.453125 7.46875 
Q 49.3125 8.734375 54.109375 11.28125 
L 54.109375 2.78125 
Q 49.265625 0.734375 44.1875 -0.34375 
Q 39.109375 -1.421875 33.890625 -1.421875 
Q 20.796875 -1.421875 13.15625 6.1875 
Q 5.515625 13.8125 5.515625 26.8125 
Q 5.515625 40.234375 12.765625 48.109375 
Q 20.015625 56 32.328125 56 
Q 43.359375 56 49.78125 48.890625 
Q 56.203125 41.796875 56.203125 29.59375 
M 47.21875 32.234375 
Q 47.125 39.59375 43.09375 43.984375 
Q 39.0625 48.390625 32.421875 48.390625 
Q 24.90625 48.390625 20.390625 44.140625 
Q 15.875 39.890625 15.1875 32.171875 
z
" id="BitstreamVeraSans-Roman-65"/>
      <path d="M -0.296875 72.90625 
L 61.375 72.90625 
L 61.375 64.59375 
L 35.5 64.59375 
L 35.5 0 
L 25.59375 0 
L 25.59375 64.59375 
L -0.296875 64.59375 
z
" id="BitstreamVeraSans-Roman-54"/>
      <path d="M 44.28125 53.078125 
L 44.28125 44.578125 
Q 40.484375 46.53125 36.375 47.5 
Q 32.28125 48.484375 27.875 48.484375 
Q 21.1875 48.484375 17.84375 46.4375 
Q 14.5 44.390625 14.5 40.28125 
Q 14.5 37.15625 16.890625 35.375 
Q 19.28125 33.59375 26.515625 31.984375 
L 29.59375 31.296875 
Q 39.15625 29.25 43.1875 25.515625 
Q 47.21875 21.78125 47.21875 15.09375 
Q 47.21875 7.46875 41.1875 3.015625 
Q 35.15625 -1.421875 24.609375 -1.421875 
Q 20.21875 -1.421875 15.453125 -0.5625 
Q 10.6875 0.296875 5.421875 2 
L 5.421875 11.28125 
Q 10.40625 8.6875 15.234375 7.390625 
Q 20.0625 6.109375 24.8125 6.109375 
Q 31.15625 6.109375 34.5625 8.28125 
Q 37.984375 10.453125 37.984375 14.40625 
Q 37.984375 18.0625 35.515625 20.015625 
Q 33.0625 21.96875 24.703125 23.78125 
L 21.578125 24.515625 
Q 13.234375 26.265625 9.515625 29.90625 
Q 5.8125 33.546875 5.8125 39.890625 
Q 5.8125 47.609375 11.28125 51.796875 
Q 16.75 56 26.8125 56 
Q 31.78125 56 36.171875 55.265625 
Q 40.578125 54.546875 44.28125 53.078125 
" id="BitstreamVeraSans-Roman-73"/>
     </defs>
     <g transform="translate(270.620625 418.531875)scale(0.12 -0.12)">
      <use xlink:href="#BitstreamVeraSans-Roman-54"/>
      <use x="61.037109375" xlink:href="#BitstreamVeraSans-Roman-69"/>
      <use x="88.8203125" xlink:href="#BitstreamVeraSans-Roman-6d"/>
      <use x="186.232421875" xlink:href="#BitstreamVeraSans-Roman-65"/>
      <use x="247.755859375" xlink:href="#BitstreamVeraSans-Roman-20"/>
      <use x="279.54296875" xlink:href="#BitstreamVeraSans-Roman-5b"/>
      <use x="318.556640625" xlink:href="#BitstreamVeraSans-Roman-73"/>
      <use x="370.65625" xlink:href="#BitstreamVeraSans-Roman-5d"/>
     </g>
    </g>
   </g>
   <g id="matplotlib.axis_2">
    <g id="ytick_1">
     <g id="line2d_22">
      <path clip-path="url(#p7be240ec70)" d="M 72 388.8 
L 518.4 388.8 
" style="fill:none;stroke:#000000;stroke-dasharray:1.000000,3.000000;stroke-dashoffset:0.0;stroke-width:0.5;"/>
     </g>
     <g id="line2d_23">
      <defs>
       <path d="M 0 0 
L 4 0 
" id="m8d30bf5cde" style="stroke:#000000;stroke-width:0.5;"/>
      </defs>
      <g>
       <use style="stroke:#000000;stroke-width:0.5;" x="72.0" xlink:href="#m8d30bf5cde" y="388.8"/>
      </g>
     </g>
     <g id="line2d_24">
      <defs>
       <path d="M 0 0 
L -4 0 
" id="mf2b08d12bb" style="stroke:#000000;stroke-width:0.5;"/>
      </defs>
      <g>
       <use style="stroke:#000000;stroke-width:0.5;" x="518.4" xlink:href="#mf2b08d12bb" y="388.8"/>
      </g>
     </g>
     <g id="text_8">
      <!-- −0.8 -->
      <defs>
       <path d="M 10.59375 35.5 
L 73.1875 35.5 
L 73.1875 27.203125 
L 10.59375 27.203125 
z
" id="BitstreamVeraSans-Roman-2212"/>
       <path d="M 31.78125 34.625 
Q 24.75 34.625 20.71875 30.859375 
Q 16.703125 27.09375 16.703125 20.515625 
Q 16.703125 13.921875 20.71875 10.15625 
Q 24.75 6.390625 31.78125 6.390625 
Q 38.8125 6.390625 42.859375 10.171875 
Q 46.921875 13.96875 46.921875 20.515625 
Q 46.921875 27.09375 42.890625 30.859375 
Q 38.875 34.625 31.78125 34.625 
M 21.921875 38.8125 
Q 15.578125 40.375 12.03125 44.71875 
Q 8.5 49.078125 8.5 55.328125 
Q 8.5 64.0625 14.71875 69.140625 
Q 20.953125 74.21875 31.78125 74.21875 
Q 42.671875 74.21875 48.875 69.140625 
Q 55.078125 64.0625 55.078125 55.328125 
Q 55.078125 49.078125 51.53125 44.71875 
Q 48 40.375 41.703125 38.8125 
Q 48.828125 37.15625 52.796875 32.3125 
Q 56.78125 27.484375 56.78125 20.515625 
Q 56.78125 9.90625 50.3125 4.234375 
Q 43.84375 -1.421875 31.78125 -1.421875 
Q 19.734375 -1.421875 13.25 4.234375 
Q 6.78125 9.90625 6.78125 20.515625 
Q 6.78125 27.484375 10.78125 32.3125 
Q 14.796875 37.15625 21.921875 38.8125 
M 18.3125 54.390625 
Q 18.3125 48.734375 21.84375 45.5625 
Q 25.390625 42.390625 31.78125 42.390625 
Q 38.140625 42.390625 41.71875 45.5625 
Q 45.3125 48.734375 45.3125 54.390625 
Q 45.3125 60.0625 41.71875 63.234375 
Q 38.140625 66.40625 31.78125 66.40625 
Q 25.390625 66.40625 21.84375 63.234375 
Q 18.3125 60.0625 18.3125 54.390625 
" id="BitstreamVeraSans-Roman-38"/>
       <path d="M 10.6875 12.40625 
L 21 12.40625 
L 21 0 
L 10.6875 0 
z
" id="BitstreamVeraSans-Roman-2e"/>
      </defs>
      <g transform="translate(38.860625 392.11125)scale(0.12 -0.12)">
       <use xlink:href="#BitstreamVeraSans-Roman-2212"/>
       <use x="83.7890625" xlink:href="#BitstreamVeraSans-Roman-30"/>
       <use x="147.412109375" xlink:href="#BitstreamVeraSans-Roman-2e"/>
       <use x="179.19921875" xlink:href="#BitstreamVeraSans-Roman-38"/>
      </g>
     </g>
    </g>
    <g id="ytick_2">
     <g id="line2d_25">
      <path clip-path="url(#p7be240ec70)" d="M 72 350.4 
L 518.4 350.4 
" style="fill:none;stroke:#000000;stroke-dasharray:1.000000,3.000000;stroke-dashoffset:0.0;stroke-width:0.5;"/>
     </g>
     <g id="line2d_26">
      <g>
       <use style="stroke:#000000;stroke-width:0.5;" x="72.0" xlink:href="#m8d30bf5cde" y="350.4"/>
      </g>
     </g>
     <g id="line2d_27">
      <g>
       <use style="stroke:#000000;stroke-width:0.5;" x="518.4" xlink:href="#mf2b08d12bb" y="350.4"/>
      </g>
     </g>
     <g id="text_9">
      <!-- −0.6 -->
      <defs>
       <path d="M 33.015625 40.375 
Q 26.375 40.375 22.484375 35.828125 
Q 18.609375 31.296875 18.609375 23.390625 
Q 18.609375 15.53125 22.484375 10.953125 
Q 26.375 6.390625 33.015625 6.390625 
Q 39.65625 6.390625 43.53125 10.953125 
Q 47.40625 15.53125 47.40625 23.390625 
Q 47.40625 31.296875 43.53125 35.828125 
Q 39.65625 40.375 33.015625 40.375 
M 52.59375 71.296875 
L 52.59375 62.3125 
Q 48.875 64.0625 45.09375 64.984375 
Q 41.3125 65.921875 37.59375 65.921875 
Q 27.828125 65.921875 22.671875 59.328125 
Q 17.53125 52.734375 16.796875 39.40625 
Q 19.671875 43.65625 24.015625 45.921875 
Q 28.375 48.1875 33.59375 48.1875 
Q 44.578125 48.1875 50.953125 41.515625 
Q 57.328125 34.859375 57.328125 23.390625 
Q 57.328125 12.15625 50.6875 5.359375 
Q 44.046875 -1.421875 33.015625 -1.421875 
Q 20.359375 -1.421875 13.671875 8.265625 
Q 6.984375 17.96875 6.984375 36.375 
Q 6.984375 53.65625 15.1875 63.9375 
Q 23.390625 74.21875 37.203125 74.21875 
Q 40.921875 74.21875 44.703125 73.484375 
Q 48.484375 72.75 52.59375 71.296875 
" id="BitstreamVeraSans-Roman-36"/>
      </defs>
      <g transform="translate(38.860625 353.71125)scale(0.12 -0.12)">
       <use xlink:href="#BitstreamVeraSans-Roman-2212"/>
       <use x="83.7890625" xlink:href="#BitstreamVeraSans-Roman-30"/>
       <use x="147.412109375" xlink:href="#BitstreamVeraSans-Roman-2e"/>
       <use x="179.19921875" xlink:href="#BitstreamVeraSans-Roman-36"/>
      </g>
     </g>
    </g>
    <g id="ytick_3">
     <g id="line2d_28">
      <path clip-path="url(#p7be240ec70)" d="M 72 312 
L 518.4 312 
" style="fill:none;stroke:#000000;stroke-dasharray:1.000000,3.000000;stroke-dashoffset:0.0;stroke-width:0.5;"/>
     </g>
     <g id="line2d_29">
      <g>
       <use style="stroke:#000000;stroke-width:0.5;" x="72.0" xlink:href="#m8d30bf5cde" y="312.0"/>
      </g>
     </g>
     <g id="line2d_30">
      <g>
       <use style="stroke:#000000;stroke-width:0.5;" x="518.4" xlink:href="#mf2b08d12bb" y="312.0"/>
      </g>
     </g>
     <g id="text_10">
      <!-- −0.4 -->
      <defs>
       <path d="M 37.796875 64.3125 
L 12.890625 25.390625 
L 37.796875 25.390625 
z
M 35.203125 72.90625 
L 47.609375 72.90625 
L 47.609375 25.390625 
L 58.015625 25.390625 
L 58.015625 17.1875 
L 47.609375 17.1875 
L 47.609375 0 
L 37.796875 0 
L 37.796875 17.1875 
L 4.890625 17.1875 
L 4.890625 26.703125 
z
" id="BitstreamVeraSans-Roman-34"/>
      </defs>
      <g transform="translate(38.860625 315.31125)scale(0.12 -0.12)">
       <use xlink:href="#BitstreamVeraSans-Roman-2212"/>
       <use x="83.7890625" xlink:href="#BitstreamVeraSans-Roman-30"/>
       <use x="147.412109375" xlink:href="#BitstreamVeraSans-Roman-2e"/>
       <use x="179.19921875" xlink:href="#BitstreamVeraSans-Roman-34"/>
      </g>
     </g>
    </g>
    <g id="ytick_4">
     <g id="line2d_31">
      <path clip-path="url(#p7be240ec70)" d="M 72 273.6 
L 518.4 273.6 
" style="fill:none;stroke:#000000;stroke-dasharray:1.000000,3.000000;stroke-dashoffset:0.0;stroke-width:0.5;"/>
     </g>
     <g id="line2d_32">
      <g>
       <use style="stroke:#000000;stroke-width:0.5;" x="72.0" xlink:href="#m8d30bf5cde" y="273.6"/>
      </g>
     </g>
     <g id="line2d_33">
      <g>
       <use style="stroke:#000000;stroke-width:0.5;" x="518.4" xlink:href="#mf2b08d12bb" y="273.6"/>
      </g>
     </g>
     <g id="text_11">
      <!-- −0.2 -->
      <g transform="translate(38.860625 276.91125)scale(0.12 -0.12)">
       <use xlink:href="#BitstreamVeraSans-Roman-2212"/>
       <use x="83.7890625" xlink:href="#BitstreamVeraSans-Roman-30"/>
       <use x="147.412109375" xlink:href="#BitstreamVeraSans-Roman-2e"/>
       <use x="179.19921875" xlink:href="#BitstreamVeraSans-Roman-32"/>
      </g>
     </g>
    </g>
    <g id="ytick_5">
     <g id="line2d_34">
      <path clip-path="url(#p7be240ec70)" d="M 72 235.2 
L 518.4 235.2 
" style="fill:none;stroke:#000000;stroke-dasharray:1.000000,3.000000;stroke-dashoffset:0.0;stroke-width:0.5;"/>
     </g>
     <g id="line2d_35">
      <g>
       <use style="stroke:#000000;stroke-width:0.5;" x="72.0" xlink:href="#m8d30bf5cde" y="235.2"/>
      </g>
     </g>
     <g id="line2d_36">
      <g>
       <use style="stroke:#000000;stroke-width:0.5;" x="518.4" xlink:href="#mf2b08d12bb" y="235.2"/>
      </g>
     </g>
     <g id="text_12">
      <!-- 0.0 -->
      <g transform="translate(48.91625 238.51125)scale(0.12 -0.12)">
       <use xlink:href="#BitstreamVeraSans-Roman-30"/>
       <use x="63.623046875" xlink:href="#BitstreamVeraSans-Roman-2e"/>
       <use x="95.41015625" xlink:href="#BitstreamVeraSans-Roman-30"/>
      </g>
     </g>
    </g>
    <g id="ytick_6">
     <g id="line2d_37">
      <path clip-path="url(#p7be240ec70)" d="M 72 196.8 
L 518.4 196.8 
" style="fill:none;stroke:#000000;stroke-dasharray:1.000000,3.000000;stroke-dashoffset:0.0;stroke-width:0.5;"/>
     </g>
     <g id="line2d_38">
      <g>
       <use style="stroke:#000000;stroke-width:0.5;" x="72.0" xlink:href="#m8d30bf5cde" y="196.8"/>
      </g>
     </g>
     <g id="line2d_39">
      <g>
       <use style="stroke:#000000;stroke-width:0.5;" x="518.4" xlink:href="#mf2b08d12bb" y="196.8"/>
      </g>
     </g>
     <g id="text_13">
      <!-- 0.2 -->
      <g transform="translate(48.91625 200.11125)scale(0.12 -0.12)">
       <use xlink:href="#BitstreamVeraSans-Roman-30"/>
       <use x="63.623046875" xlink:href="#BitstreamVeraSans-Roman-2e"/>
       <use x="95.41015625" xlink:href="#BitstreamVeraSans-Roman-32"/>
      </g>
     </g>
    </g>
    <g id="ytick_7">
     <g id="line2d_40">
      <path clip-path="url(#p7be240ec70)" d="M 72 158.4 
L 518.4 158.4 
" style="fill:none;stroke:#000000;stroke-dasharray:1.000000,3.000000;stroke-dashoffset:0.0;stroke-width:0.5;"/>
     </g>
     <g id="line2d_41">
      <g>
       <use style="stroke:#000000;stroke-width:0.5;" x="72.0" xlink:href="#m8d30bf5cde" y="158.4"/>
      </g>
     </g>
     <g id="line2d_42">
      <g>
       <use style="stroke:#000000;stroke-width:0.5;" x="518.4" xlink:href="#mf2b08d12bb" y="158.4"/>
      </g>
     </g>
     <g id="text_14">
      <!-- 0.4 -->
      <g transform="translate(48.91625 161.71125)scale(0.12 -0.12)">
       <use xlink:href="#BitstreamVeraSans-Roman-30"/>
       <use x="63.623046875" xlink:href="#BitstreamVeraSans-Roman-2e"/>
       <use x="95.41015625" xlink:href="#BitstreamVeraSans-Roman-34"/>
      </g>
     </g>
    </g>
    <g id="ytick_8">
     <g id="line2d_43">
      <path clip-path="url(#p7be240ec70)" d="M 72 120 
L 518.4 120 
" style="fill:none;stroke:#000000;stroke-dasharray:1.000000,3.000000;stroke-dashoffset:0.0;stroke-width:0.5;"/>
     </g>
     <g id="line2d_44">
      <g>
       <use style="stroke:#000000;stroke-width:0.5;" x="72.0" xlink:href="#m8d30bf5cde" y="120.0"/>
      </g>
     </g>
     <g id="line2d_45">
      <g>
       <use style="stroke:#000000;stroke-width:0.5;" x="518.4" xlink:href="#mf2b08d12bb" y="120.0"/>
      </g>
     </g>
     <g id="text_15">
      <!-- 0.6 -->
      <g transform="translate(48.91625 123.31125)scale(0.12 -0.12)">
       <use xlink:href="#BitstreamVeraSans-Roman-30"/>
       <use x="63.623046875" xlink:href="#BitstreamVeraSans-Roman-2e"/>
       <use x="95.41015625" xlink:href="#BitstreamVeraSans-Roman-36"/>
      </g>
     </g>
    </g>
    <g id="ytick_9">
     <g id="line2d_46">
      <path clip-path="url(#p7be240ec70)" d="M 72 81.6 
L 518.4 81.6 
" style="fill:none;stroke:#000000;stroke-dasharray:1.000000,3.000000;stroke-dashoffset:0.0;stroke-width:0.5;"/>
     </g>
     <g id="line2d_47">
      <g>
       <use style="stroke:#000000;stroke-width:0.5;" x="72.0" xlink:href="#m8d30bf5cde" y="81.6"/>
      </g>
     </g>
     <g id="line2d_48">
      <g>
       <use style="stroke:#000000;stroke-width:0.5;" x="518.4" xlink:href="#mf2b08d12bb" y="81.6"/>
      </g>
     </g>
     <g id="text_16">
      <!-- 0.8 -->
      <g transform="translate(48.91625 84.91125)scale(0.12 -0.12)">
       <use xlink:href="#BitstreamVeraSans-Roman-30"/>
       <use x="63.623046875" xlink:href="#BitstreamVeraSans-Roman-2e"/>
       <use x="95.41015625" xlink:href="#BitstreamVeraSans-Roman-38"/>
      </g>
     </g>
    </g>
    <g id="ytick_10">
     <g id="line2d_49">
      <path clip-path="url(#p7be240ec70)" d="M 72 43.2 
L 518.4 43.2 
" style="fill:none;stroke:#000000;stroke-dasharray:1.000000,3.000000;stroke-dashoffset:0.0;stroke-width:0.5;"/>
     </g>
     <g id="line2d_50">
      <g>
       <use style="stroke:#000000;stroke-width:0.5;" x="72.0" xlink:href="#m8d30bf5cde" y="43.2"/>
      </g>
     </g>
     <g id="line2d_51">
      <g>
       <use style="stroke:#000000;stroke-width:0.5;" x="518.4" xlink:href="#mf2b08d12bb" y="43.2"/>
      </g>
     </g>
     <g id="text_17">
      <!-- 1.0 -->
      <g transform="translate(48.91625 46.51125)scale(0.12 -0.12)">
       <use xlink:href="#BitstreamVeraSans-Roman-31"/>
       <use x="63.623046875" xlink:href="#BitstreamVeraSans-Roman-2e"/>
       <use x="95.41015625" xlink:href="#BitstreamVeraSans-Roman-30"/>
      </g>
     </g>
    </g>
    <g id="text_18">
     <!-- Acceleration [m/s^2] -->
     <defs>
      <path d="M 46.6875 72.90625 
L 73.1875 45.703125 
L 63.375 45.703125 
L 41.890625 64.984375 
L 20.40625 45.703125 
L 10.59375 45.703125 
L 37.109375 72.90625 
z
" id="BitstreamVeraSans-Roman-5e"/>
      <path d="M 54.890625 33.015625 
L 54.890625 0 
L 45.90625 0 
L 45.90625 32.71875 
Q 45.90625 40.484375 42.875 44.328125 
Q 39.84375 48.1875 33.796875 48.1875 
Q 26.515625 48.1875 22.3125 43.546875 
Q 18.109375 38.921875 18.109375 30.90625 
L 18.109375 0 
L 9.078125 0 
L 9.078125 54.6875 
L 18.109375 54.6875 
L 18.109375 46.1875 
Q 21.34375 51.125 25.703125 53.5625 
Q 30.078125 56 35.796875 56 
Q 45.21875 56 50.046875 50.171875 
Q 54.890625 44.34375 54.890625 33.015625 
" id="BitstreamVeraSans-Roman-6e"/>
      <path d="M 41.109375 46.296875 
Q 39.59375 47.171875 37.8125 47.578125 
Q 36.03125 48 33.890625 48 
Q 26.265625 48 22.1875 43.046875 
Q 18.109375 38.09375 18.109375 28.8125 
L 18.109375 0 
L 9.078125 0 
L 9.078125 54.6875 
L 18.109375 54.6875 
L 18.109375 46.1875 
Q 20.953125 51.171875 25.484375 53.578125 
Q 30.03125 56 36.53125 56 
Q 37.453125 56 38.578125 55.875 
Q 39.703125 55.765625 41.0625 55.515625 
z
" id="BitstreamVeraSans-Roman-72"/>
      <path d="M 30.609375 48.390625 
Q 23.390625 48.390625 19.1875 42.75 
Q 14.984375 37.109375 14.984375 27.296875 
Q 14.984375 17.484375 19.15625 11.84375 
Q 23.34375 6.203125 30.609375 6.203125 
Q 37.796875 6.203125 41.984375 11.859375 
Q 46.1875 17.53125 46.1875 27.296875 
Q 46.1875 37.015625 41.984375 42.703125 
Q 37.796875 48.390625 30.609375 48.390625 
M 30.609375 56 
Q 42.328125 56 49.015625 48.375 
Q 55.71875 40.765625 55.71875 27.296875 
Q 55.71875 13.875 49.015625 6.21875 
Q 42.328125 -1.421875 30.609375 -1.421875 
Q 18.84375 -1.421875 12.171875 6.21875 
Q 5.515625 13.875 5.515625 27.296875 
Q 5.515625 40.765625 12.171875 48.375 
Q 18.84375 56 30.609375 56 
" id="BitstreamVeraSans-Roman-6f"/>
      <path d="M 9.421875 75.984375 
L 18.40625 75.984375 
L 18.40625 0 
L 9.421875 0 
z
" id="BitstreamVeraSans-Roman-6c"/>
      <path d="M 34.1875 63.1875 
L 20.796875 26.90625 
L 47.609375 26.90625 
z
M 28.609375 72.90625 
L 39.796875 72.90625 
L 67.578125 0 
L 57.328125 0 
L 50.6875 18.703125 
L 17.828125 18.703125 
L 11.1875 0 
L 0.78125 0 
z
" id="BitstreamVeraSans-Roman-41"/>
      <path d="M 25.390625 72.90625 
L 33.6875 72.90625 
L 8.296875 -9.28125 
L 0 -9.28125 
z
" id="BitstreamVeraSans-Roman-2f"/>
      <path d="M 18.3125 70.21875 
L 18.3125 54.6875 
L 36.8125 54.6875 
L 36.8125 47.703125 
L 18.3125 47.703125 
L 18.3125 18.015625 
Q 18.3125 11.328125 20.140625 9.421875 
Q 21.96875 7.515625 27.59375 7.515625 
L 36.8125 7.515625 
L 36.8125 0 
L 27.59375 0 
Q 17.1875 0 13.234375 3.875 
Q 9.28125 7.765625 9.28125 18.015625 
L 9.28125 47.703125 
L 2.6875 47.703125 
L 2.6875 54.6875 
L 9.28125 54.6875 
L 9.28125 70.21875 
z
" id="BitstreamVeraSans-Roman-74"/>
      <path d="M 34.28125 27.484375 
Q 23.390625 27.484375 19.1875 25 
Q 14.984375 22.515625 14.984375 16.5 
Q 14.984375 11.71875 18.140625 8.90625 
Q 21.296875 6.109375 26.703125 6.109375 
Q 34.1875 6.109375 38.703125 11.40625 
Q 43.21875 16.703125 43.21875 25.484375 
L 43.21875 27.484375 
z
M 52.203125 31.203125 
L 52.203125 0 
L 43.21875 0 
L 43.21875 8.296875 
Q 40.140625 3.328125 35.546875 0.953125 
Q 30.953125 -1.421875 24.3125 -1.421875 
Q 15.921875 -1.421875 10.953125 3.296875 
Q 6 8.015625 6 15.921875 
Q 6 25.140625 12.171875 29.828125 
Q 18.359375 34.515625 30.609375 34.515625 
L 43.21875 34.515625 
L 43.21875 35.40625 
Q 43.21875 41.609375 39.140625 45 
Q 35.0625 48.390625 27.6875 48.390625 
Q 23 48.390625 18.546875 47.265625 
Q 14.109375 46.140625 10.015625 43.890625 
L 10.015625 52.203125 
Q 14.9375 54.109375 19.578125 55.046875 
Q 24.21875 56 28.609375 56 
Q 40.484375 56 46.34375 49.84375 
Q 52.203125 43.703125 52.203125 31.203125 
" id="BitstreamVeraSans-Roman-61"/>
      <path d="M 48.78125 52.59375 
L 48.78125 44.1875 
Q 44.96875 46.296875 41.140625 47.34375 
Q 37.3125 48.390625 33.40625 48.390625 
Q 24.65625 48.390625 19.8125 42.84375 
Q 14.984375 37.3125 14.984375 27.296875 
Q 14.984375 17.28125 19.8125 11.734375 
Q 24.65625 6.203125 33.40625 6.203125 
Q 37.3125 6.203125 41.140625 7.25 
Q 44.96875 8.296875 48.78125 10.40625 
L 48.78125 2.09375 
Q 45.015625 0.34375 40.984375 -0.53125 
Q 36.96875 -1.421875 32.421875 -1.421875 
Q 20.0625 -1.421875 12.78125 6.34375 
Q 5.515625 14.109375 5.515625 27.296875 
Q 5.515625 40.671875 12.859375 48.328125 
Q 20.21875 56 33.015625 56 
Q 37.15625 56 41.109375 55.140625 
Q 45.0625 54.296875 48.78125 52.59375 
" id="BitstreamVeraSans-Roman-63"/>
     </defs>
     <g transform="translate(31.365 279.81375)rotate(-90.0)scale(0.12 -0.12)">
      <use xlink:href="#BitstreamVeraSans-Roman-41"/>
      <use x="68.392578125" xlink:href="#BitstreamVeraSans-Roman-63"/>
      <use x="123.373046875" xlink:href="#BitstreamVeraSans-Roman-63"/>
      <use x="178.353515625" xlink:href="#BitstreamVeraSans-Roman-65"/>
      <use x="239.876953125" xlink:href="#BitstreamVeraSans-Roman-6c"/>
      <use x="267.66015625" xlink:href="#BitstreamVeraSans-Roman-65"/>
      <use x="329.18359375" xlink:href="#BitstreamVeraSans-Roman-72"/>
      <use x="370.296875" xlink:href="#BitstreamVeraSans-Roman-61"/>
      <use x="431.576171875" xlink:href="#BitstreamVeraSans-Roman-74"/>
      <use x="470.78515625" xlink:href="#BitstreamVeraSans-Roman-69"/>
      <use x="498.568359375" xlink:href="#BitstreamVeraSans-Roman-6f"/>
      <use x="559.75" xlink:href="#BitstreamVeraSans-Roman-6e"/>
      <use x="623.12890625" xlink:href="#BitstreamVeraSans-Roman-20"/>
      <use x="654.916015625" xlink:href="#BitstreamVeraSans-Roman-5b"/>
      <use x="693.9296875" xlink:href="#BitstreamVeraSans-Roman-6d"/>
      <use x="791.341796875" xlink:href="#BitstreamVeraSans-Roman-2f"/>
      <use x="825.033203125" xlink:href="#BitstreamVeraSans-Roman-73"/>
      <use x="877.1328125" xlink:href="#BitstreamVeraSans-Roman-5e"/>
      <use x="960.921875" xlink:href="#BitstreamVeraSans-Roman-32"/>
      <use x="1024.54492188" xlink:href="#BitstreamVeraSans-Roman-5d"/>
     </g>
    </g>
   </g>
   <g id="legend_1">
    <g id="patch_7">
     <path d="M 79.2 249.86475 
L 168.561 249.86475 
L 168.561 182.13525 
L 79.2 182.13525 
z
" style="fill:#ffffff;stroke:#000000;stroke-linejoin:miter;"/>
    </g>
    <g id="line2d_52">
     <path d="M 89.28 193.797 
L 109.44 193.797 
" style="fill:none;stroke:#008000;stroke-linecap:square;"/>
    </g>
    <g id="line2d_53"/>
    <g id="text_19">
     <!-- accel -->
     <g transform="translate(125.28 198.837)scale(0.144 -0.144)">
      <use xlink:href="#BitstreamVeraSans-Roman-61"/>
      <use x="61.279296875" xlink:href="#BitstreamVeraSans-Roman-63"/>
      <use x="116.259765625" xlink:href="#BitstreamVeraSans-Roman-63"/>
      <use x="171.240234375" xlink:href="#BitstreamVeraSans-Roman-65"/>
      <use x="232.763671875" xlink:href="#BitstreamVeraSans-Roman-6c"/>
     </g>
    </g>
    <g id="line2d_54">
     <path d="M 89.28 214.9335 
L 109.44 214.9335 
" style="fill:none;stroke:#000000;stroke-dasharray:6.000000,6.000000;stroke-dashoffset:0.0;"/>
    </g>
    <g id="line2d_55"/>
    <g id="text_20">
     <!-- max -->
     <defs>
      <path d="M 54.890625 54.6875 
L 35.109375 28.078125 
L 55.90625 0 
L 45.3125 0 
L 29.390625 21.484375 
L 13.484375 0 
L 2.875 0 
L 24.125 28.609375 
L 4.6875 54.6875 
L 15.28125 54.6875 
L 29.78125 35.203125 
L 44.28125 54.6875 
z
" id="BitstreamVeraSans-Roman-78"/>
     </defs>
     <g transform="translate(125.28 219.9735)scale(0.144 -0.144)">
      <use xlink:href="#BitstreamVeraSans-Roman-6d"/>
      <use x="97.412109375" xlink:href="#BitstreamVeraSans-Roman-61"/>
      <use x="158.69140625" xlink:href="#BitstreamVeraSans-Roman-78"/>
     </g>
    </g>
    <g id="line2d_56">
     <path d="M 89.28 236.07 
L 109.44 236.07 
" style="fill:none;stroke:#000000;stroke-dasharray:6.000000,6.000000;stroke-dashoffset:0.0;"/>
    </g>
    <g id="line2d_57"/>
    <g id="text_21">
     <!-- min -->
     <g transform="translate(125.28 241.11)scale(0.144 -0.144)">
      <use xlink:href="#BitstreamVeraSans-Roman-6d"/>
      <use x="97.412109375" xlink:href="#BitstreamVeraSans-Roman-69"/>
      <use x="125.1953125" xlink:href="#BitstreamVeraSans-Roman-6e"/>
     </g>
    </g>
   </g>
  </g>
 </g>
 <defs>
  <clipPath id="p7be240ec70">
   <rect height="345.6" width="446.4" x="72.0" y="43.2"/>
  </clipPath>
 </defs>
</svg>
