<?xml version="1.0" encoding="utf-8" standalone="no"?>
<!DOCTYPE svg PUBLIC "-//W3C//DTD SVG 1.1//EN"
  "http://www.w3.org/Graphics/SVG/1.1/DTD/svg11.dtd">
<!-- Created with matplotlib (http://matplotlib.org/) -->
<svg height="432pt" version="1.1" viewBox="0 0 576 432" width="576pt" xmlns="http://www.w3.org/2000/svg" xmlns:xlink="http://www.w3.org/1999/xlink">
 <defs>
  <style type="text/css">
*{stroke-linecap:butt;stroke-linejoin:round;stroke-miterlimit:100000;}
  </style>
 </defs>
 <g id="figure_1">
  <g id="patch_1">
   <path d="M 0 432 
L 576 432 
L 576 0 
L 0 0 
z
" style="fill:#ffffff;"/>
  </g>
  <g id="axes_1">
   <g id="patch_2">
    <path d="M 72 388.8 
L 518.4 388.8 
L 518.4 43.2 
L 72 43.2 
z
" style="fill:#ffffff;"/>
   </g>
   <g id="line2d_1">
    <path clip-path="url(#pf44b21b189)" d="M 72.17856 388.8 
L 98.24832 388.8 
L 98.42688 385.92744 
L 98.784 385.92744 
L 99.14112 379.06987 
L 99.31968 379.06987 
L 99.49824 375.641085 
L 99.6768 375.641085 
L 99.85536 372.783765 
L 100.03392 372.783765 
L 100.21248 370.497908 
L 100.39104 370.497908 
L 100.5696 367.640587 
L 100.74816 367.640587 
L 100.92672 365.354731 
L 101.10528 365.354731 
L 101.28384 364.211803 
L 101.4624 364.211803 
L 101.64096 363.640338 
L 101.81952 363.640338 
L 101.99808 363.068874 
L 102.3552 363.068874 
L 102.53376 362.49741 
L 102.71232 362.49741 
L 102.89088 361.925946 
L 103.06944 361.925946 
L 103.248 360.783018 
L 103.42656 360.783018 
L 103.60512 360.211554 
L 103.78368 360.211554 
L 104.31936 358.497161 
L 104.49792 358.497161 
L 104.67648 357.925697 
L 104.85504 357.925697 
L 105.0336 357.354233 
L 105.21216 357.354233 
L 105.39072 356.782769 
L 105.56928 356.782769 
L 105.74784 355.63984 
L 105.9264 355.63984 
L 106.10496 355.068376 
L 106.46208 355.068376 
L 106.64064 354.496912 
L 106.8192 354.496912 
L 106.99776 353.925448 
L 107.17632 353.925448 
L 107.35488 353.353984 
L 107.53344 353.353984 
L 107.712 352.211056 
L 108.24768 352.211056 
L 108.42624 351.639591 
L 108.6048 351.639591 
L 108.96192 350.496663 
L 109.14048 350.496663 
L 109.31904 349.925199 
L 109.4976 349.925199 
L 109.67616 349.353735 
L 109.85472 349.353735 
L 110.03328 348.782271 
L 110.21184 348.782271 
L 110.56896 347.639342 
L 111.2832 347.639342 
L 111.46176 347.067878 
L 111.99744 347.067878 
L 112.176 346.496414 
L 112.35456 346.496414 
L 112.53312 345.92495 
L 113.24736 345.92495 
L 113.42592 345.353486 
L 114.14016 345.353486 
L 114.31872 344.782022 
L 115.92576 344.782022 
L 116.10432 344.210558 
L 116.28288 344.210558 
L 116.46144 343.639093 
L 116.99712 343.639093 
L 117.17568 343.067629 
L 117.35424 343.067629 
L 117.5328 342.496165 
L 118.06848 342.496165 
L 118.24704 341.924701 
L 118.78272 341.924701 
L 118.96128 341.353237 
L 119.13984 341.353237 
L 119.3184 340.781773 
L 119.85408 340.781773 
L 120.03264 340.210309 
L 120.56832 340.210309 
L 120.74688 339.638844 
L 121.28256 339.638844 
L 121.46112 339.06738 
L 121.9968 339.06738 
L 122.17536 338.495916 
L 122.71104 338.495916 
L 122.8896 337.924452 
L 123.42528 337.924452 
L 123.60384 337.352988 
L 124.49664 337.352988 
L 124.6752 336.781524 
L 125.21088 336.781524 
L 125.38944 336.21006 
L 126.28224 336.21006 
L 126.4608 335.638595 
L 126.99648 335.638595 
L 127.17504 335.067131 
L 128.06784 335.067131 
L 128.2464 334.495667 
L 129.1392 334.495667 
L 129.31776 333.924203 
L 130.21056 333.924203 
L 130.38912 333.352739 
L 131.28192 333.352739 
L 131.46048 332.781275 
L 132.7104 332.781275 
L 132.88896 332.209811 
L 134.13888 332.209811 
L 134.31744 331.638346 
L 135.21024 331.638346 
L 135.3888 331.066882 
L 137.35296 331.066882 
L 137.53152 330.495418 
L 138.78144 330.495418 
L 138.96 329.923954 
L 141.28128 329.923954 
L 141.45984 329.35249 
L 143.60256 329.35249 
L 143.78112 328.781026 
L 148.06656 328.781026 
L 148.24512 329.35249 
L 148.42368 329.35249 
L 148.60224 329.923954 
L 148.7808 329.923954 
L 148.95936 331.066882 
L 149.13792 331.066882 
L 149.31648 331.638346 
L 149.49504 331.638346 
L 149.6736 332.209811 
L 149.85216 332.209811 
L 150.03072 333.352739 
L 150.20928 333.352739 
L 150.38784 333.924203 
L 150.5664 333.924203 
L 150.74496 334.495667 
L 150.92352 334.495667 
L 151.10208 335.067131 
L 151.28064 335.067131 
L 151.4592 335.638595 
L 151.63776 335.638595 
L 151.81632 336.781524 
L 151.99488 336.781524 
L 152.17344 337.352988 
L 152.352 337.352988 
L 152.53056 337.924452 
L 152.70912 337.924452 
L 152.88768 338.495916 
L 153.06624 338.495916 
L 153.2448 339.06738 
L 153.42336 339.06738 
L 153.60192 339.638844 
L 153.78048 339.638844 
L 153.95904 340.781773 
L 154.1376 340.781773 
L 154.31616 341.353237 
L 154.49472 341.353237 
L 154.67328 341.924701 
L 154.85184 341.924701 
L 155.0304 342.496165 
L 155.20896 342.496165 
L 155.38752 343.067629 
L 155.56608 343.067629 
L 155.74464 343.639093 
L 155.9232 343.639093 
L 156.10176 344.210558 
L 156.28032 344.210558 
L 156.45888 344.782022 
L 156.63744 344.782022 
L 156.816 345.353486 
L 156.99456 345.353486 
L 157.17312 345.92495 
L 157.35168 345.92495 
L 157.53024 346.496414 
L 157.7088 346.496414 
L 157.88736 347.067878 
L 158.06592 347.067878 
L 158.24448 347.639342 
L 158.42304 347.639342 
L 158.6016 349.353735 
L 158.78016 349.353735 
L 158.95872 351.639591 
L 159.13728 351.639591 
L 159.31584 353.925448 
L 159.4944 353.925448 
L 159.67296 355.068376 
L 159.85152 355.068376 
L 160.03008 357.354233 
L 160.20864 357.354233 
L 160.3872 358.497161 
L 160.56576 358.497161 
L 160.74432 360.211554 
L 160.92288 360.211554 
L 161.10144 361.925946 
L 161.28 361.925946 
L 161.45856 363.068874 
L 161.63712 363.068874 
L 161.81568 364.211803 
L 161.99424 364.211803 
L 162.1728 365.926195 
L 162.35136 365.926195 
L 162.70848 367.640587 
L 163.0656 367.640587 
L 163.24416 368.783516 
L 163.60128 368.783516 
L 163.9584 370.497908 
L 164.13696 370.497908 
L 164.31552 371.640836 
L 164.49408 371.640836 
L 164.67264 372.212301 
L 164.8512 372.212301 
L 165.02976 372.783765 
L 165.20832 372.783765 
L 165.56544 374.498157 
L 165.92256 374.498157 
L 166.10112 375.069621 
L 166.27968 375.069621 
L 166.45824 375.641085 
L 166.6368 375.641085 
L 166.81536 376.21255 
L 167.35104 376.21255 
L 167.5296 376.784014 
L 167.70816 376.784014 
L 167.88672 377.355478 
L 168.06528 377.355478 
L 168.24384 377.926942 
L 168.4224 377.926942 
L 168.60096 378.498406 
L 168.77952 378.498406 
L 168.95808 379.06987 
L 169.49376 379.06987 
L 169.67232 379.641334 
L 170.56512 379.641334 
L 170.74368 380.784263 
L 172.35072 380.784263 
L 172.52928 381.927191 
L 174.13632 381.927191 
L 174.31488 382.498655 
L 175.5648 382.498655 
L 175.74336 383.070119 
L 176.99328 383.070119 
L 177.17184 383.641583 
L 177.70752 383.641583 
L 177.88608 383.070119 
L 178.42176 383.070119 
L 178.60032 383.641583 
L 179.85024 383.641583 
L 180.0288 384.213048 
L 180.20736 384.213048 
L 180.38592 383.641583 
L 181.27872 383.641583 
L 181.45728 384.213048 
L 181.99296 384.213048 
L 182.17152 383.641583 
L 182.7072 383.641583 
L 182.88576 384.213048 
L 194.13504 384.213048 
L 194.3136 384.784512 
L 194.49216 384.784512 
L 194.67072 384.213048 
L 203.2416 384.213048 
L 203.42016 383.641583 
L 203.77728 383.641583 
L 203.95584 384.213048 
L 204.67008 384.213048 
L 204.84864 383.641583 
L 205.38432 383.641583 
L 205.56288 384.213048 
L 206.8128 384.213048 
L 206.99136 383.641583 
L 207.16992 383.641583 
L 207.34848 384.213048 
L 208.06272 384.213048 
L 208.24128 383.641583 
L 208.77696 383.641583 
L 208.95552 384.213048 
L 210.20544 384.213048 
L 210.384 383.641583 
L 210.56256 383.641583 
L 210.74112 384.213048 
L 211.45536 384.213048 
L 211.63392 383.641583 
L 212.52672 383.641583 
L 212.70528 384.213048 
L 213.59808 384.213048 
L 213.77664 383.641583 
L 214.49088 383.641583 
L 214.66944 384.213048 
L 215.20512 384.213048 
L 215.38368 383.641583 
L 216.27648 383.641583 
L 216.45504 384.213048 
L 217.34784 384.213048 
L 217.5264 383.641583 
L 217.88352 383.641583 
L 218.06208 384.213048 
L 218.95488 384.213048 
L 219.13344 383.641583 
L 219.84768 383.641583 
L 220.02624 384.213048 
L 220.91904 384.213048 
L 221.0976 383.641583 
L 221.81184 383.641583 
L 221.9904 384.213048 
L 222.52608 384.213048 
L 222.70464 383.641583 
L 224.13312 383.641583 
L 224.31168 384.213048 
L 224.49024 384.213048 
L 224.6688 383.641583 
L 226.27584 383.641583 
L 226.4544 384.213048 
L 226.63296 384.213048 
L 226.81152 383.641583 
L 235.3824 383.641583 
L 235.56096 383.070119 
L 235.73952 383.070119 
L 235.91808 383.641583 
L 240.02496 383.641583 
L 240.20352 383.070119 
L 240.38208 383.070119 
L 240.56064 383.641583 
L 242.34624 383.641583 
L 242.5248 383.070119 
L 243.4176 383.070119 
L 243.59616 383.641583 
L 244.84608 383.641583 
L 245.02464 383.070119 
L 246.45312 383.070119 
L 246.63168 383.641583 
L 248.06016 383.641583 
L 248.23872 383.070119 
L 250.56 383.070119 
L 250.73856 383.641583 
L 253.05984 383.641583 
L 253.2384 384.213048 
L 253.41696 384.213048 
L 253.59552 384.784512 
L 253.77408 384.784512 
L 253.95264 385.355976 
L 254.1312 385.355976 
L 254.30976 385.92744 
L 254.66688 385.92744 
L 254.84544 387.070368 
L 255.024 387.070368 
L 255.20256 387.641832 
L 255.73824 387.641832 
L 255.9168 388.213297 
L 256.27392 388.213297 
L 256.45248 388.8 
L 518.4 388.8 
L 518.4 388.8 
" style="fill:none;stroke:#008000;stroke-linecap:square;"/>
   </g>
   <g id="line2d_2">
    <path clip-path="url(#pf44b21b189)" d="M 72.17856 388.8 
L 267.34464 388.8 
L 267.5232 384.300002 
L 267.70176 384.300002 
L 267.88032 373.050008 
L 268.23744 373.050008 
L 268.416 361.800014 
L 268.59456 361.800014 
L 268.77312 350.55002 
L 268.95168 350.55002 
L 269.13024 337.050026 
L 269.3088 337.050026 
L 269.48736 325.800032 
L 269.84448 325.800032 
L 270.02304 314.550038 
L 270.2016 314.550038 
L 270.38016 303.300044 
L 270.73728 303.300044 
L 270.91584 292.05005 
L 271.0944 292.05005 
L 271.27296 280.800055 
L 271.45152 280.800055 
L 271.63008 269.550061 
L 271.80864 269.550061 
L 271.9872 258.300067 
L 272.16576 258.300067 
L 272.34432 244.800074 
L 272.52288 244.800074 
L 272.70144 233.550079 
L 273.05856 233.550079 
L 273.23712 222.300085 
L 273.41568 222.300085 
L 273.59424 211.050091 
L 273.7728 211.050091 
L 273.95136 206.550093 
L 274.48704 206.550093 
L 274.6656 204.300094 
L 274.84416 204.300094 
L 275.02272 202.050096 
L 275.5584 202.050096 
L 275.73696 199.800097 
L 276.27264 199.800097 
L 276.4512 197.550098 
L 276.98688 197.550098 
L 277.16544 195.300099 
L 277.344 195.300099 
L 277.52256 193.0501 
L 278.05824 193.0501 
L 278.2368 190.800101 
L 278.77248 190.800101 
L 278.95104 188.550103 
L 279.48672 188.550103 
L 279.66528 186.300104 
L 280.20096 186.300104 
L 280.37952 184.050105 
L 280.9152 184.050105 
L 281.09376 181.800106 
L 281.62944 181.800106 
L 281.808 179.550107 
L 282.34368 179.550107 
L 282.52224 177.300108 
L 283.05792 177.300108 
L 283.23648 175.050109 
L 283.77216 175.050109 
L 283.95072 172.800111 
L 284.4864 172.800111 
L 284.66496 170.550112 
L 285.20064 170.550112 
L 285.3792 168.300113 
L 286.272 168.300113 
L 286.45056 166.050114 
L 286.98624 166.050114 
L 287.1648 163.800115 
L 287.70048 163.800115 
L 287.87904 161.550116 
L 288.77184 161.550116 
L 288.9504 159.300118 
L 289.48608 159.300118 
L 289.66464 157.050119 
L 290.55744 157.050119 
L 290.736 154.80012 
L 291.27168 154.80012 
L 291.45024 152.550121 
L 292.34304 152.550121 
L 292.5216 150.300122 
L 293.4144 150.300122 
L 293.59296 148.050123 
L 294.48576 148.050123 
L 294.66432 145.800124 
L 295.2 145.800124 
L 295.37856 143.550126 
L 296.62848 143.550126 
L 296.80704 141.300127 
L 297.69984 141.300127 
L 297.8784 139.050128 
L 298.7712 139.050128 
L 298.94976 136.800129 
L 299.84256 136.800129 
L 300.02112 134.55013 
L 301.27104 134.55013 
L 301.4496 132.300131 
L 302.69952 132.300131 
L 302.87808 130.050132 
L 303.77088 130.050132 
L 303.94944 127.800134 
L 305.55648 127.800134 
L 305.73504 125.550135 
L 306.98496 125.550135 
L 307.16352 123.300136 
L 308.77056 123.300136 
L 308.94912 121.050137 
L 310.19904 121.050137 
L 310.3776 118.800138 
L 312.34176 118.800138 
L 312.52032 116.550139 
L 314.48448 116.550139 
L 314.66304 114.300141 
L 316.27008 114.300141 
L 316.44864 112.050142 
L 318.76992 112.050142 
L 318.94848 109.800143 
L 321.62688 109.800143 
L 321.80544 107.550144 
L 324.84096 107.550144 
L 325.01952 105.300145 
L 328.41216 105.300145 
L 328.59072 103.050146 
L 333.05472 103.050146 
L 333.23328 100.800147 
L 339.48288 100.800147 
L 339.66144 98.550149 
L 357.87456 98.550149 
L 358.05312 96.30015 
L 390.7296 96.30015 
L 390.90816 98.550149 
L 394.12224 98.550149 
L 394.3008 100.800147 
L 398.7648 100.800147 
L 398.94336 103.050146 
L 402.87168 103.050146 
L 403.05024 105.300145 
L 406.97856 105.300145 
L 407.15712 107.550144 
L 411.44256 107.550144 
L 411.62112 109.800143 
L 415.01376 109.800143 
L 415.19232 112.050142 
L 420.01344 112.050142 
L 420.192 114.300141 
L 425.19168 114.300141 
L 425.37024 116.550139 
L 431.26272 116.550139 
L 431.44128 118.800138 
L 438.048 118.800138 
L 438.22656 121.050137 
L 445.1904 121.050137 
L 445.36896 123.300136 
L 453.76128 123.300136 
L 453.93984 125.550135 
L 465.18912 125.550135 
L 465.36768 127.800134 
L 478.75968 127.800134 
L 478.93824 130.050132 
L 498.40128 130.050132 
L 498.57984 132.300131 
L 518.4 132.300131 
L 518.4 132.300131 
" style="fill:none;stroke:#ff0000;stroke-linecap:square;"/>
   </g>
   <g id="patch_3">
    <path d="M 72 43.2 
L 518.4 43.2 
" style="fill:none;stroke:#000000;stroke-linecap:square;stroke-linejoin:miter;"/>
   </g>
   <g id="patch_4">
    <path d="M 518.4 388.8 
L 518.4 43.2 
" style="fill:none;stroke:#000000;stroke-linecap:square;stroke-linejoin:miter;"/>
   </g>
   <g id="patch_5">
    <path d="M 72 388.8 
L 518.4 388.8 
" style="fill:none;stroke:#000000;stroke-linecap:square;stroke-linejoin:miter;"/>
   </g>
   <g id="patch_6">
    <path d="M 72 388.8 
L 72 43.2 
" style="fill:none;stroke:#000000;stroke-linecap:square;stroke-linejoin:miter;"/>
   </g>
   <g id="matplotlib.axis_1">
    <g id="xtick_1">
     <g id="line2d_3">
      <path clip-path="url(#pf44b21b189)" d="M 72 388.8 
L 72 43.2 
" style="fill:none;stroke:#000000;stroke-dasharray:1.000000,3.000000;stroke-dashoffset:0.0;stroke-width:0.5;"/>
     </g>
     <g id="line2d_4">
      <defs>
       <path d="M 0 0 
L 0 -4 
" id="m22a5a52dac" style="stroke:#000000;stroke-width:0.5;"/>
      </defs>
      <g>
       <use style="stroke:#000000;stroke-width:0.5;" x="72.0" xlink:href="#m22a5a52dac" y="388.8"/>
      </g>
     </g>
     <g id="line2d_5">
      <defs>
       <path d="M 0 0 
L 0 4 
" id="m22175add55" style="stroke:#000000;stroke-width:0.5;"/>
      </defs>
      <g>
       <use style="stroke:#000000;stroke-width:0.5;" x="72.0" xlink:href="#m22175add55" y="43.2"/>
      </g>
     </g>
     <g id="text_1">
      <!-- 0 -->
      <defs>
       <path d="M 31.78125 66.40625 
Q 24.171875 66.40625 20.328125 58.90625 
Q 16.5 51.421875 16.5 36.375 
Q 16.5 21.390625 20.328125 13.890625 
Q 24.171875 6.390625 31.78125 6.390625 
Q 39.453125 6.390625 43.28125 13.890625 
Q 47.125 21.390625 47.125 36.375 
Q 47.125 51.421875 43.28125 58.90625 
Q 39.453125 66.40625 31.78125 66.40625 
M 31.78125 74.21875 
Q 44.046875 74.21875 50.515625 64.515625 
Q 56.984375 54.828125 56.984375 36.375 
Q 56.984375 17.96875 50.515625 8.265625 
Q 44.046875 -1.421875 31.78125 -1.421875 
Q 19.53125 -1.421875 13.0625 8.265625 
Q 6.59375 17.96875 6.59375 36.375 
Q 6.59375 54.828125 13.0625 64.515625 
Q 19.53125 74.21875 31.78125 74.21875 
" id="BitstreamVeraSans-Roman-30"/>
      </defs>
      <g transform="translate(68.1825 401.918125)scale(0.12 -0.12)">
       <use xlink:href="#BitstreamVeraSans-Roman-30"/>
      </g>
     </g>
    </g>
    <g id="xtick_2">
     <g id="line2d_6">
      <path clip-path="url(#pf44b21b189)" d="M 161.28 388.8 
L 161.28 43.2 
" style="fill:none;stroke:#000000;stroke-dasharray:1.000000,3.000000;stroke-dashoffset:0.0;stroke-width:0.5;"/>
     </g>
     <g id="line2d_7">
      <g>
       <use style="stroke:#000000;stroke-width:0.5;" x="161.28" xlink:href="#m22a5a52dac" y="388.8"/>
      </g>
     </g>
     <g id="line2d_8">
      <g>
       <use style="stroke:#000000;stroke-width:0.5;" x="161.28" xlink:href="#m22175add55" y="43.2"/>
      </g>
     </g>
     <g id="text_2">
      <!-- 5 -->
      <defs>
       <path d="M 10.796875 72.90625 
L 49.515625 72.90625 
L 49.515625 64.59375 
L 19.828125 64.59375 
L 19.828125 46.734375 
Q 21.96875 47.46875 24.109375 47.828125 
Q 26.265625 48.1875 28.421875 48.1875 
Q 40.625 48.1875 47.75 41.5 
Q 54.890625 34.8125 54.890625 23.390625 
Q 54.890625 11.625 47.5625 5.09375 
Q 40.234375 -1.421875 26.90625 -1.421875 
Q 22.3125 -1.421875 17.546875 -0.640625 
Q 12.796875 0.140625 7.71875 1.703125 
L 7.71875 11.625 
Q 12.109375 9.234375 16.796875 8.0625 
Q 21.484375 6.890625 26.703125 6.890625 
Q 35.15625 6.890625 40.078125 11.328125 
Q 45.015625 15.765625 45.015625 23.390625 
Q 45.015625 31 40.078125 35.4375 
Q 35.15625 39.890625 26.703125 39.890625 
Q 22.75 39.890625 18.8125 39.015625 
Q 14.890625 38.140625 10.796875 36.28125 
z
" id="BitstreamVeraSans-Roman-35"/>
      </defs>
      <g transform="translate(157.4625 401.918125)scale(0.12 -0.12)">
       <use xlink:href="#BitstreamVeraSans-Roman-35"/>
      </g>
     </g>
    </g>
    <g id="xtick_3">
     <g id="line2d_9">
      <path clip-path="url(#pf44b21b189)" d="M 250.56 388.8 
L 250.56 43.2 
" style="fill:none;stroke:#000000;stroke-dasharray:1.000000,3.000000;stroke-dashoffset:0.0;stroke-width:0.5;"/>
     </g>
     <g id="line2d_10">
      <g>
       <use style="stroke:#000000;stroke-width:0.5;" x="250.56" xlink:href="#m22a5a52dac" y="388.8"/>
      </g>
     </g>
     <g id="line2d_11">
      <g>
       <use style="stroke:#000000;stroke-width:0.5;" x="250.56" xlink:href="#m22175add55" y="43.2"/>
      </g>
     </g>
     <g id="text_3">
      <!-- 10 -->
      <defs>
       <path d="M 12.40625 8.296875 
L 28.515625 8.296875 
L 28.515625 63.921875 
L 10.984375 60.40625 
L 10.984375 69.390625 
L 28.421875 72.90625 
L 38.28125 72.90625 
L 38.28125 8.296875 
L 54.390625 8.296875 
L 54.390625 0 
L 12.40625 0 
z
" id="BitstreamVeraSans-Roman-31"/>
      </defs>
      <g transform="translate(242.925 401.918125)scale(0.12 -0.12)">
       <use xlink:href="#BitstreamVeraSans-Roman-31"/>
       <use x="63.623046875" xlink:href="#BitstreamVeraSans-Roman-30"/>
      </g>
     </g>
    </g>
    <g id="xtick_4">
     <g id="line2d_12">
      <path clip-path="url(#pf44b21b189)" d="M 339.84 388.8 
L 339.84 43.2 
" style="fill:none;stroke:#000000;stroke-dasharray:1.000000,3.000000;stroke-dashoffset:0.0;stroke-width:0.5;"/>
     </g>
     <g id="line2d_13">
      <g>
       <use style="stroke:#000000;stroke-width:0.5;" x="339.84" xlink:href="#m22a5a52dac" y="388.8"/>
      </g>
     </g>
     <g id="line2d_14">
      <g>
       <use style="stroke:#000000;stroke-width:0.5;" x="339.84" xlink:href="#m22175add55" y="43.2"/>
      </g>
     </g>
     <g id="text_4">
      <!-- 15 -->
      <g transform="translate(332.205 401.918125)scale(0.12 -0.12)">
       <use xlink:href="#BitstreamVeraSans-Roman-31"/>
       <use x="63.623046875" xlink:href="#BitstreamVeraSans-Roman-35"/>
      </g>
     </g>
    </g>
    <g id="xtick_5">
     <g id="line2d_15">
      <path clip-path="url(#pf44b21b189)" d="M 429.12 388.8 
L 429.12 43.2 
" style="fill:none;stroke:#000000;stroke-dasharray:1.000000,3.000000;stroke-dashoffset:0.0;stroke-width:0.5;"/>
     </g>
     <g id="line2d_16">
      <g>
       <use style="stroke:#000000;stroke-width:0.5;" x="429.12" xlink:href="#m22a5a52dac" y="388.8"/>
      </g>
     </g>
     <g id="line2d_17">
      <g>
       <use style="stroke:#000000;stroke-width:0.5;" x="429.12" xlink:href="#m22175add55" y="43.2"/>
      </g>
     </g>
     <g id="text_5">
      <!-- 20 -->
      <defs>
       <path d="M 19.1875 8.296875 
L 53.609375 8.296875 
L 53.609375 0 
L 7.328125 0 
L 7.328125 8.296875 
Q 12.9375 14.109375 22.625 23.890625 
Q 32.328125 33.6875 34.8125 36.53125 
Q 39.546875 41.84375 41.421875 45.53125 
Q 43.3125 49.21875 43.3125 52.78125 
Q 43.3125 58.59375 39.234375 62.25 
Q 35.15625 65.921875 28.609375 65.921875 
Q 23.96875 65.921875 18.8125 64.3125 
Q 13.671875 62.703125 7.8125 59.421875 
L 7.8125 69.390625 
Q 13.765625 71.78125 18.9375 73 
Q 24.125 74.21875 28.421875 74.21875 
Q 39.75 74.21875 46.484375 68.546875 
Q 53.21875 62.890625 53.21875 53.421875 
Q 53.21875 48.921875 51.53125 44.890625 
Q 49.859375 40.875 45.40625 35.40625 
Q 44.1875 33.984375 37.640625 27.21875 
Q 31.109375 20.453125 19.1875 8.296875 
" id="BitstreamVeraSans-Roman-32"/>
      </defs>
      <g transform="translate(421.485 401.918125)scale(0.12 -0.12)">
       <use xlink:href="#BitstreamVeraSans-Roman-32"/>
       <use x="63.623046875" xlink:href="#BitstreamVeraSans-Roman-30"/>
      </g>
     </g>
    </g>
    <g id="xtick_6">
     <g id="line2d_18">
      <path clip-path="url(#pf44b21b189)" d="M 518.4 388.8 
L 518.4 43.2 
" style="fill:none;stroke:#000000;stroke-dasharray:1.000000,3.000000;stroke-dashoffset:0.0;stroke-width:0.5;"/>
     </g>
     <g id="line2d_19">
      <g>
       <use style="stroke:#000000;stroke-width:0.5;" x="518.4" xlink:href="#m22a5a52dac" y="388.8"/>
      </g>
     </g>
     <g id="line2d_20">
      <g>
       <use style="stroke:#000000;stroke-width:0.5;" x="518.4" xlink:href="#m22175add55" y="43.2"/>
      </g>
     </g>
     <g id="text_6">
      <!-- 25 -->
      <g transform="translate(510.765 401.918125)scale(0.12 -0.12)">
       <use xlink:href="#BitstreamVeraSans-Roman-32"/>
       <use x="63.623046875" xlink:href="#BitstreamVeraSans-Roman-35"/>
      </g>
     </g>
    </g>
    <g id="text_7">
     <!-- Time [s] -->
     <defs>
      <path id="BitstreamVeraSans-Roman-20"/>
      <path d="M 8.59375 75.984375 
L 29.296875 75.984375 
L 29.296875 69 
L 17.578125 69 
L 17.578125 -6.203125 
L 29.296875 -6.203125 
L 29.296875 -13.1875 
L 8.59375 -13.1875 
z
" id="BitstreamVeraSans-Roman-5b"/>
      <path d="M 30.421875 75.984375 
L 30.421875 -13.1875 
L 9.71875 -13.1875 
L 9.71875 -6.203125 
L 21.390625 -6.203125 
L 21.390625 69 
L 9.71875 69 
L 9.71875 75.984375 
z
" id="BitstreamVeraSans-Roman-5d"/>
      <path d="M 52 44.1875 
Q 55.375 50.25 60.0625 53.125 
Q 64.75 56 71.09375 56 
Q 79.640625 56 84.28125 50.015625 
Q 88.921875 44.046875 88.921875 33.015625 
L 88.921875 0 
L 79.890625 0 
L 79.890625 32.71875 
Q 79.890625 40.578125 77.09375 44.375 
Q 74.3125 48.1875 68.609375 48.1875 
Q 61.625 48.1875 57.5625 43.546875 
Q 53.515625 38.921875 53.515625 30.90625 
L 53.515625 0 
L 44.484375 0 
L 44.484375 32.71875 
Q 44.484375 40.625 41.703125 44.40625 
Q 38.921875 48.1875 33.109375 48.1875 
Q 26.21875 48.1875 22.15625 43.53125 
Q 18.109375 38.875 18.109375 30.90625 
L 18.109375 0 
L 9.078125 0 
L 9.078125 54.6875 
L 18.109375 54.6875 
L 18.109375 46.1875 
Q 21.1875 51.21875 25.484375 53.609375 
Q 29.78125 56 35.6875 56 
Q 41.65625 56 45.828125 52.96875 
Q 50 49.953125 52 44.1875 
" id="BitstreamVeraSans-Roman-6d"/>
      <path d="M 9.421875 54.6875 
L 18.40625 54.6875 
L 18.40625 0 
L 9.421875 0 
z
M 9.421875 75.984375 
L 18.40625 75.984375 
L 18.40625 64.59375 
L 9.421875 64.59375 
z
" id="BitstreamVeraSans-Roman-69"/>
      <path d="M 56.203125 29.59375 
L 56.203125 25.203125 
L 14.890625 25.203125 
Q 15.484375 15.921875 20.484375 11.0625 
Q 25.484375 6.203125 34.421875 6.203125 
Q 39.59375 6.203125 44.453125 7.46875 
Q 49.3125 8.734375 54.109375 11.28125 
L 54.109375 2.78125 
Q 49.265625 0.734375 44.1875 -0.34375 
Q 39.109375 -1.421875 33.890625 -1.421875 
Q 20.796875 -1.421875 13.15625 6.1875 
Q 5.515625 13.8125 5.515625 26.8125 
Q 5.515625 40.234375 12.765625 48.109375 
Q 20.015625 56 32.328125 56 
Q 43.359375 56 49.78125 48.890625 
Q 56.203125 41.796875 56.203125 29.59375 
M 47.21875 32.234375 
Q 47.125 39.59375 43.09375 43.984375 
Q 39.0625 48.390625 32.421875 48.390625 
Q 24.90625 48.390625 20.390625 44.140625 
Q 15.875 39.890625 15.1875 32.171875 
z
" id="BitstreamVeraSans-Roman-65"/>
      <path d="M -0.296875 72.90625 
L 61.375 72.90625 
L 61.375 64.59375 
L 35.5 64.59375 
L 35.5 0 
L 25.59375 0 
L 25.59375 64.59375 
L -0.296875 64.59375 
z
" id="BitstreamVeraSans-Roman-54"/>
      <path d="M 44.28125 53.078125 
L 44.28125 44.578125 
Q 40.484375 46.53125 36.375 47.5 
Q 32.28125 48.484375 27.875 48.484375 
Q 21.1875 48.484375 17.84375 46.4375 
Q 14.5 44.390625 14.5 40.28125 
Q 14.5 37.15625 16.890625 35.375 
Q 19.28125 33.59375 26.515625 31.984375 
L 29.59375 31.296875 
Q 39.15625 29.25 43.1875 25.515625 
Q 47.21875 21.78125 47.21875 15.09375 
Q 47.21875 7.46875 41.1875 3.015625 
Q 35.15625 -1.421875 24.609375 -1.421875 
Q 20.21875 -1.421875 15.453125 -0.5625 
Q 10.6875 0.296875 5.421875 2 
L 5.421875 11.28125 
Q 10.40625 8.6875 15.234375 7.390625 
Q 20.0625 6.109375 24.8125 6.109375 
Q 31.15625 6.109375 34.5625 8.28125 
Q 37.984375 10.453125 37.984375 14.40625 
Q 37.984375 18.0625 35.515625 20.015625 
Q 33.0625 21.96875 24.703125 23.78125 
L 21.578125 24.515625 
Q 13.234375 26.265625 9.515625 29.90625 
Q 5.8125 33.546875 5.8125 39.890625 
Q 5.8125 47.609375 11.28125 51.796875 
Q 16.75 56 26.8125 56 
Q 31.78125 56 36.171875 55.265625 
Q 40.578125 54.546875 44.28125 53.078125 
" id="BitstreamVeraSans-Roman-73"/>
     </defs>
     <g transform="translate(270.620625 418.531875)scale(0.12 -0.12)">
      <use xlink:href="#BitstreamVeraSans-Roman-54"/>
      <use x="61.037109375" xlink:href="#BitstreamVeraSans-Roman-69"/>
      <use x="88.8203125" xlink:href="#BitstreamVeraSans-Roman-6d"/>
      <use x="186.232421875" xlink:href="#BitstreamVeraSans-Roman-65"/>
      <use x="247.755859375" xlink:href="#BitstreamVeraSans-Roman-20"/>
      <use x="279.54296875" xlink:href="#BitstreamVeraSans-Roman-5b"/>
      <use x="318.556640625" xlink:href="#BitstreamVeraSans-Roman-73"/>
      <use x="370.65625" xlink:href="#BitstreamVeraSans-Roman-5d"/>
     </g>
    </g>
   </g>
   <g id="matplotlib.axis_2">
    <g id="ytick_1">
     <g id="line2d_21">
      <path clip-path="url(#pf44b21b189)" d="M 72 388.8 
L 518.4 388.8 
" style="fill:none;stroke:#000000;stroke-dasharray:1.000000,3.000000;stroke-dashoffset:0.0;stroke-width:0.5;"/>
     </g>
     <g id="line2d_22">
      <defs>
       <path d="M 0 0 
L 4 0 
" id="m363b05ceaf" style="stroke:#000000;stroke-width:0.5;"/>
      </defs>
      <g>
       <use style="stroke:#000000;stroke-width:0.5;" x="72.0" xlink:href="#m363b05ceaf" y="388.8"/>
      </g>
     </g>
     <g id="line2d_23">
      <defs>
       <path d="M 0 0 
L -4 0 
" id="m4ddb835feb" style="stroke:#000000;stroke-width:0.5;"/>
      </defs>
      <g>
       <use style="stroke:#000000;stroke-width:0.5;" x="518.4" xlink:href="#m4ddb835feb" y="388.8"/>
      </g>
     </g>
     <g id="text_8">
      <!-- 0.0 -->
      <defs>
       <path d="M 10.6875 12.40625 
L 21 12.40625 
L 21 0 
L 10.6875 0 
z
" id="BitstreamVeraSans-Roman-2e"/>
      </defs>
      <g transform="translate(48.91625 392.11125)scale(0.12 -0.12)">
       <use xlink:href="#BitstreamVeraSans-Roman-30"/>
       <use x="63.623046875" xlink:href="#BitstreamVeraSans-Roman-2e"/>
       <use x="95.41015625" xlink:href="#BitstreamVeraSans-Roman-30"/>
      </g>
     </g>
    </g>
    <g id="ytick_2">
     <g id="line2d_24">
      <path clip-path="url(#pf44b21b189)" d="M 72 331.2 
L 518.4 331.2 
" style="fill:none;stroke:#000000;stroke-dasharray:1.000000,3.000000;stroke-dashoffset:0.0;stroke-width:0.5;"/>
     </g>
     <g id="line2d_25">
      <g>
       <use style="stroke:#000000;stroke-width:0.5;" x="72.0" xlink:href="#m363b05ceaf" y="331.2"/>
      </g>
     </g>
     <g id="line2d_26">
      <g>
       <use style="stroke:#000000;stroke-width:0.5;" x="518.4" xlink:href="#m4ddb835feb" y="331.2"/>
      </g>
     </g>
     <g id="text_9">
      <!-- 0.1 -->
      <g transform="translate(48.91625 334.51125)scale(0.12 -0.12)">
       <use xlink:href="#BitstreamVeraSans-Roman-30"/>
       <use x="63.623046875" xlink:href="#BitstreamVeraSans-Roman-2e"/>
       <use x="95.41015625" xlink:href="#BitstreamVeraSans-Roman-31"/>
      </g>
     </g>
    </g>
    <g id="ytick_3">
     <g id="line2d_27">
      <path clip-path="url(#pf44b21b189)" d="M 72 273.6 
L 518.4 273.6 
" style="fill:none;stroke:#000000;stroke-dasharray:1.000000,3.000000;stroke-dashoffset:0.0;stroke-width:0.5;"/>
     </g>
     <g id="line2d_28">
      <g>
       <use style="stroke:#000000;stroke-width:0.5;" x="72.0" xlink:href="#m363b05ceaf" y="273.6"/>
      </g>
     </g>
     <g id="line2d_29">
      <g>
       <use style="stroke:#000000;stroke-width:0.5;" x="518.4" xlink:href="#m4ddb835feb" y="273.6"/>
      </g>
     </g>
     <g id="text_10">
      <!-- 0.2 -->
      <g transform="translate(48.91625 276.91125)scale(0.12 -0.12)">
       <use xlink:href="#BitstreamVeraSans-Roman-30"/>
       <use x="63.623046875" xlink:href="#BitstreamVeraSans-Roman-2e"/>
       <use x="95.41015625" xlink:href="#BitstreamVeraSans-Roman-32"/>
      </g>
     </g>
    </g>
    <g id="ytick_4">
     <g id="line2d_30">
      <path clip-path="url(#pf44b21b189)" d="M 72 216 
L 518.4 216 
" style="fill:none;stroke:#000000;stroke-dasharray:1.000000,3.000000;stroke-dashoffset:0.0;stroke-width:0.5;"/>
     </g>
     <g id="line2d_31">
      <g>
       <use style="stroke:#000000;stroke-width:0.5;" x="72.0" xlink:href="#m363b05ceaf" y="216.0"/>
      </g>
     </g>
     <g id="line2d_32">
      <g>
       <use style="stroke:#000000;stroke-width:0.5;" x="518.4" xlink:href="#m4ddb835feb" y="216.0"/>
      </g>
     </g>
     <g id="text_11">
      <!-- 0.3 -->
      <defs>
       <path d="M 40.578125 39.3125 
Q 47.65625 37.796875 51.625 33 
Q 55.609375 28.21875 55.609375 21.1875 
Q 55.609375 10.40625 48.1875 4.484375 
Q 40.765625 -1.421875 27.09375 -1.421875 
Q 22.515625 -1.421875 17.65625 -0.515625 
Q 12.796875 0.390625 7.625 2.203125 
L 7.625 11.71875 
Q 11.71875 9.328125 16.59375 8.109375 
Q 21.484375 6.890625 26.8125 6.890625 
Q 36.078125 6.890625 40.9375 10.546875 
Q 45.796875 14.203125 45.796875 21.1875 
Q 45.796875 27.640625 41.28125 31.265625 
Q 36.765625 34.90625 28.71875 34.90625 
L 20.21875 34.90625 
L 20.21875 43.015625 
L 29.109375 43.015625 
Q 36.375 43.015625 40.234375 45.921875 
Q 44.09375 48.828125 44.09375 54.296875 
Q 44.09375 59.90625 40.109375 62.90625 
Q 36.140625 65.921875 28.71875 65.921875 
Q 24.65625 65.921875 20.015625 65.03125 
Q 15.375 64.15625 9.8125 62.3125 
L 9.8125 71.09375 
Q 15.4375 72.65625 20.34375 73.4375 
Q 25.25 74.21875 29.59375 74.21875 
Q 40.828125 74.21875 47.359375 69.109375 
Q 53.90625 64.015625 53.90625 55.328125 
Q 53.90625 49.265625 50.4375 45.09375 
Q 46.96875 40.921875 40.578125 39.3125 
" id="BitstreamVeraSans-Roman-33"/>
      </defs>
      <g transform="translate(48.91625 219.31125)scale(0.12 -0.12)">
       <use xlink:href="#BitstreamVeraSans-Roman-30"/>
       <use x="63.623046875" xlink:href="#BitstreamVeraSans-Roman-2e"/>
       <use x="95.41015625" xlink:href="#BitstreamVeraSans-Roman-33"/>
      </g>
     </g>
    </g>
    <g id="ytick_5">
     <g id="line2d_33">
      <path clip-path="url(#pf44b21b189)" d="M 72 158.4 
L 518.4 158.4 
" style="fill:none;stroke:#000000;stroke-dasharray:1.000000,3.000000;stroke-dashoffset:0.0;stroke-width:0.5;"/>
     </g>
     <g id="line2d_34">
      <g>
       <use style="stroke:#000000;stroke-width:0.5;" x="72.0" xlink:href="#m363b05ceaf" y="158.4"/>
      </g>
     </g>
     <g id="line2d_35">
      <g>
       <use style="stroke:#000000;stroke-width:0.5;" x="518.4" xlink:href="#m4ddb835feb" y="158.4"/>
      </g>
     </g>
     <g id="text_12">
      <!-- 0.4 -->
      <defs>
       <path d="M 37.796875 64.3125 
L 12.890625 25.390625 
L 37.796875 25.390625 
z
M 35.203125 72.90625 
L 47.609375 72.90625 
L 47.609375 25.390625 
L 58.015625 25.390625 
L 58.015625 17.1875 
L 47.609375 17.1875 
L 47.609375 0 
L 37.796875 0 
L 37.796875 17.1875 
L 4.890625 17.1875 
L 4.890625 26.703125 
z
" id="BitstreamVeraSans-Roman-34"/>
      </defs>
      <g transform="translate(48.91625 161.71125)scale(0.12 -0.12)">
       <use xlink:href="#BitstreamVeraSans-Roman-30"/>
       <use x="63.623046875" xlink:href="#BitstreamVeraSans-Roman-2e"/>
       <use x="95.41015625" xlink:href="#BitstreamVeraSans-Roman-34"/>
      </g>
     </g>
    </g>
    <g id="ytick_6">
     <g id="line2d_36">
      <path clip-path="url(#pf44b21b189)" d="M 72 100.8 
L 518.4 100.8 
" style="fill:none;stroke:#000000;stroke-dasharray:1.000000,3.000000;stroke-dashoffset:0.0;stroke-width:0.5;"/>
     </g>
     <g id="line2d_37">
      <g>
       <use style="stroke:#000000;stroke-width:0.5;" x="72.0" xlink:href="#m363b05ceaf" y="100.8"/>
      </g>
     </g>
     <g id="line2d_38">
      <g>
       <use style="stroke:#000000;stroke-width:0.5;" x="518.4" xlink:href="#m4ddb835feb" y="100.8"/>
      </g>
     </g>
     <g id="text_13">
      <!-- 0.5 -->
      <g transform="translate(48.91625 104.11125)scale(0.12 -0.12)">
       <use xlink:href="#BitstreamVeraSans-Roman-30"/>
       <use x="63.623046875" xlink:href="#BitstreamVeraSans-Roman-2e"/>
       <use x="95.41015625" xlink:href="#BitstreamVeraSans-Roman-35"/>
      </g>
     </g>
    </g>
    <g id="ytick_7">
     <g id="line2d_39">
      <path clip-path="url(#pf44b21b189)" d="M 72 43.2 
L 518.4 43.2 
" style="fill:none;stroke:#000000;stroke-dasharray:1.000000,3.000000;stroke-dashoffset:0.0;stroke-width:0.5;"/>
     </g>
     <g id="line2d_40">
      <g>
       <use style="stroke:#000000;stroke-width:0.5;" x="72.0" xlink:href="#m363b05ceaf" y="43.2"/>
      </g>
     </g>
     <g id="line2d_41">
      <g>
       <use style="stroke:#000000;stroke-width:0.5;" x="518.4" xlink:href="#m4ddb835feb" y="43.2"/>
      </g>
     </g>
     <g id="text_14">
      <!-- 0.6 -->
      <defs>
       <path d="M 33.015625 40.375 
Q 26.375 40.375 22.484375 35.828125 
Q 18.609375 31.296875 18.609375 23.390625 
Q 18.609375 15.53125 22.484375 10.953125 
Q 26.375 6.390625 33.015625 6.390625 
Q 39.65625 6.390625 43.53125 10.953125 
Q 47.40625 15.53125 47.40625 23.390625 
Q 47.40625 31.296875 43.53125 35.828125 
Q 39.65625 40.375 33.015625 40.375 
M 52.59375 71.296875 
L 52.59375 62.3125 
Q 48.875 64.0625 45.09375 64.984375 
Q 41.3125 65.921875 37.59375 65.921875 
Q 27.828125 65.921875 22.671875 59.328125 
Q 17.53125 52.734375 16.796875 39.40625 
Q 19.671875 43.65625 24.015625 45.921875 
Q 28.375 48.1875 33.59375 48.1875 
Q 44.578125 48.1875 50.953125 41.515625 
Q 57.328125 34.859375 57.328125 23.390625 
Q 57.328125 12.15625 50.6875 5.359375 
Q 44.046875 -1.421875 33.015625 -1.421875 
Q 20.359375 -1.421875 13.671875 8.265625 
Q 6.984375 17.96875 6.984375 36.375 
Q 6.984375 53.65625 15.1875 63.9375 
Q 23.390625 74.21875 37.203125 74.21875 
Q 40.921875 74.21875 44.703125 73.484375 
Q 48.484375 72.75 52.59375 71.296875 
" id="BitstreamVeraSans-Roman-36"/>
      </defs>
      <g transform="translate(48.91625 46.51125)scale(0.12 -0.12)">
       <use xlink:href="#BitstreamVeraSans-Roman-30"/>
       <use x="63.623046875" xlink:href="#BitstreamVeraSans-Roman-2e"/>
       <use x="95.41015625" xlink:href="#BitstreamVeraSans-Roman-36"/>
      </g>
     </g>
    </g>
    <g id="text_15">
     <!-- Pedal [] -->
     <defs>
      <path d="M 19.671875 64.796875 
L 19.671875 37.40625 
L 32.078125 37.40625 
Q 38.96875 37.40625 42.71875 40.96875 
Q 46.484375 44.53125 46.484375 51.125 
Q 46.484375 57.671875 42.71875 61.234375 
Q 38.96875 64.796875 32.078125 64.796875 
z
M 9.8125 72.90625 
L 32.078125 72.90625 
Q 44.34375 72.90625 50.609375 67.359375 
Q 56.890625 61.8125 56.890625 51.125 
Q 56.890625 40.328125 50.609375 34.8125 
Q 44.34375 29.296875 32.078125 29.296875 
L 19.671875 29.296875 
L 19.671875 0 
L 9.8125 0 
z
" id="BitstreamVeraSans-Roman-50"/>
      <path d="M 45.40625 46.390625 
L 45.40625 75.984375 
L 54.390625 75.984375 
L 54.390625 0 
L 45.40625 0 
L 45.40625 8.203125 
Q 42.578125 3.328125 38.25 0.953125 
Q 33.9375 -1.421875 27.875 -1.421875 
Q 17.96875 -1.421875 11.734375 6.484375 
Q 5.515625 14.40625 5.515625 27.296875 
Q 5.515625 40.1875 11.734375 48.09375 
Q 17.96875 56 27.875 56 
Q 33.9375 56 38.25 53.625 
Q 42.578125 51.265625 45.40625 46.390625 
M 14.796875 27.296875 
Q 14.796875 17.390625 18.875 11.75 
Q 22.953125 6.109375 30.078125 6.109375 
Q 37.203125 6.109375 41.296875 11.75 
Q 45.40625 17.390625 45.40625 27.296875 
Q 45.40625 37.203125 41.296875 42.84375 
Q 37.203125 48.484375 30.078125 48.484375 
Q 22.953125 48.484375 18.875 42.84375 
Q 14.796875 37.203125 14.796875 27.296875 
" id="BitstreamVeraSans-Roman-64"/>
      <path d="M 34.28125 27.484375 
Q 23.390625 27.484375 19.1875 25 
Q 14.984375 22.515625 14.984375 16.5 
Q 14.984375 11.71875 18.140625 8.90625 
Q 21.296875 6.109375 26.703125 6.109375 
Q 34.1875 6.109375 38.703125 11.40625 
Q 43.21875 16.703125 43.21875 25.484375 
L 43.21875 27.484375 
z
M 52.203125 31.203125 
L 52.203125 0 
L 43.21875 0 
L 43.21875 8.296875 
Q 40.140625 3.328125 35.546875 0.953125 
Q 30.953125 -1.421875 24.3125 -1.421875 
Q 15.921875 -1.421875 10.953125 3.296875 
Q 6 8.015625 6 15.921875 
Q 6 25.140625 12.171875 29.828125 
Q 18.359375 34.515625 30.609375 34.515625 
L 43.21875 34.515625 
L 43.21875 35.40625 
Q 43.21875 41.609375 39.140625 45 
Q 35.0625 48.390625 27.6875 48.390625 
Q 23 48.390625 18.546875 47.265625 
Q 14.109375 46.140625 10.015625 43.890625 
L 10.015625 52.203125 
Q 14.9375 54.109375 19.578125 55.046875 
Q 24.21875 56 28.609375 56 
Q 40.484375 56 46.34375 49.84375 
Q 52.203125 43.703125 52.203125 31.203125 
" id="BitstreamVeraSans-Roman-61"/>
      <path d="M 9.421875 75.984375 
L 18.40625 75.984375 
L 18.40625 0 
L 9.421875 0 
z
" id="BitstreamVeraSans-Roman-6c"/>
     </defs>
     <g transform="translate(41.420625 239.0484375)rotate(-90.0)scale(0.12 -0.12)">
      <use xlink:href="#BitstreamVeraSans-Roman-50"/>
      <use x="60.255859375" xlink:href="#BitstreamVeraSans-Roman-65"/>
      <use x="121.779296875" xlink:href="#BitstreamVeraSans-Roman-64"/>
      <use x="185.255859375" xlink:href="#BitstreamVeraSans-Roman-61"/>
      <use x="246.53515625" xlink:href="#BitstreamVeraSans-Roman-6c"/>
      <use x="274.318359375" xlink:href="#BitstreamVeraSans-Roman-20"/>
      <use x="306.10546875" xlink:href="#BitstreamVeraSans-Roman-5b"/>
      <use x="345.119140625" xlink:href="#BitstreamVeraSans-Roman-5d"/>
     </g>
    </g>
   </g>
   <g id="legend_1">
    <g id="patch_7">
     <path d="M 79.2 96.993 
L 217.40175 96.993 
L 217.40175 50.4 
L 79.2 50.4 
z
" style="fill:#ffffff;stroke:#000000;stroke-linejoin:miter;"/>
    </g>
    <g id="line2d_42">
     <path d="M 89.28 62.06175 
L 109.44 62.06175 
" style="fill:none;stroke:#008000;stroke-linecap:square;"/>
    </g>
    <g id="line2d_43"/>
    <g id="text_16">
     <!-- Gas pedal -->
     <defs>
      <path d="M 59.515625 10.40625 
L 59.515625 29.984375 
L 43.40625 29.984375 
L 43.40625 38.09375 
L 69.28125 38.09375 
L 69.28125 6.78125 
Q 63.578125 2.734375 56.6875 0.65625 
Q 49.8125 -1.421875 42 -1.421875 
Q 24.90625 -1.421875 15.25 8.5625 
Q 5.609375 18.5625 5.609375 36.375 
Q 5.609375 54.25 15.25 64.234375 
Q 24.90625 74.21875 42 74.21875 
Q 49.125 74.21875 55.546875 72.453125 
Q 61.96875 70.703125 67.390625 67.28125 
L 67.390625 56.78125 
Q 61.921875 61.421875 55.765625 63.765625 
Q 49.609375 66.109375 42.828125 66.109375 
Q 29.4375 66.109375 22.71875 58.640625 
Q 16.015625 51.171875 16.015625 36.375 
Q 16.015625 21.625 22.71875 14.15625 
Q 29.4375 6.6875 42.828125 6.6875 
Q 48.046875 6.6875 52.140625 7.59375 
Q 56.25 8.5 59.515625 10.40625 
" id="BitstreamVeraSans-Roman-47"/>
      <path d="M 18.109375 8.203125 
L 18.109375 -20.796875 
L 9.078125 -20.796875 
L 9.078125 54.6875 
L 18.109375 54.6875 
L 18.109375 46.390625 
Q 20.953125 51.265625 25.265625 53.625 
Q 29.59375 56 35.59375 56 
Q 45.5625 56 51.78125 48.09375 
Q 58.015625 40.1875 58.015625 27.296875 
Q 58.015625 14.40625 51.78125 6.484375 
Q 45.5625 -1.421875 35.59375 -1.421875 
Q 29.59375 -1.421875 25.265625 0.953125 
Q 20.953125 3.328125 18.109375 8.203125 
M 48.6875 27.296875 
Q 48.6875 37.203125 44.609375 42.84375 
Q 40.53125 48.484375 33.40625 48.484375 
Q 26.265625 48.484375 22.1875 42.84375 
Q 18.109375 37.203125 18.109375 27.296875 
Q 18.109375 17.390625 22.1875 11.75 
Q 26.265625 6.109375 33.40625 6.109375 
Q 40.53125 6.109375 44.609375 11.75 
Q 48.6875 17.390625 48.6875 27.296875 
" id="BitstreamVeraSans-Roman-70"/>
     </defs>
     <g transform="translate(125.28 67.10175)scale(0.144 -0.144)">
      <use xlink:href="#BitstreamVeraSans-Roman-47"/>
      <use x="77.490234375" xlink:href="#BitstreamVeraSans-Roman-61"/>
      <use x="138.76953125" xlink:href="#BitstreamVeraSans-Roman-73"/>
      <use x="190.869140625" xlink:href="#BitstreamVeraSans-Roman-20"/>
      <use x="222.65625" xlink:href="#BitstreamVeraSans-Roman-70"/>
      <use x="286.1328125" xlink:href="#BitstreamVeraSans-Roman-65"/>
      <use x="347.65625" xlink:href="#BitstreamVeraSans-Roman-64"/>
      <use x="411.1328125" xlink:href="#BitstreamVeraSans-Roman-61"/>
      <use x="472.412109375" xlink:href="#BitstreamVeraSans-Roman-6c"/>
     </g>
    </g>
    <g id="line2d_44">
     <path d="M 89.28 83.19825 
L 109.44 83.19825 
" style="fill:none;stroke:#ff0000;stroke-linecap:square;"/>
    </g>
    <g id="line2d_45"/>
    <g id="text_17">
     <!-- Brake pedal -->
     <defs>
      <path d="M 41.109375 46.296875 
Q 39.59375 47.171875 37.8125 47.578125 
Q 36.03125 48 33.890625 48 
Q 26.265625 48 22.1875 43.046875 
Q 18.109375 38.09375 18.109375 28.8125 
L 18.109375 0 
L 9.078125 0 
L 9.078125 54.6875 
L 18.109375 54.6875 
L 18.109375 46.1875 
Q 20.953125 51.171875 25.484375 53.578125 
Q 30.03125 56 36.53125 56 
Q 37.453125 56 38.578125 55.875 
Q 39.703125 55.765625 41.0625 55.515625 
z
" id="BitstreamVeraSans-Roman-72"/>
      <path d="M 19.671875 34.8125 
L 19.671875 8.109375 
L 35.5 8.109375 
Q 43.453125 8.109375 47.28125 11.40625 
Q 51.125 14.703125 51.125 21.484375 
Q 51.125 28.328125 47.28125 31.5625 
Q 43.453125 34.8125 35.5 34.8125 
z
M 19.671875 64.796875 
L 19.671875 42.828125 
L 34.28125 42.828125 
Q 41.5 42.828125 45.03125 45.53125 
Q 48.578125 48.25 48.578125 53.8125 
Q 48.578125 59.328125 45.03125 62.0625 
Q 41.5 64.796875 34.28125 64.796875 
z
M 9.8125 72.90625 
L 35.015625 72.90625 
Q 46.296875 72.90625 52.390625 68.21875 
Q 58.5 63.53125 58.5 54.890625 
Q 58.5 48.1875 55.375 44.234375 
Q 52.25 40.28125 46.1875 39.3125 
Q 53.46875 37.75 57.5 32.78125 
Q 61.53125 27.828125 61.53125 20.40625 
Q 61.53125 10.640625 54.890625 5.3125 
Q 48.25 0 35.984375 0 
L 9.8125 0 
z
" id="BitstreamVeraSans-Roman-42"/>
      <path d="M 9.078125 75.984375 
L 18.109375 75.984375 
L 18.109375 31.109375 
L 44.921875 54.6875 
L 56.390625 54.6875 
L 27.390625 29.109375 
L 57.625 0 
L 45.90625 0 
L 18.109375 26.703125 
L 18.109375 0 
L 9.078125 0 
z
" id="BitstreamVeraSans-Roman-6b"/>
     </defs>
     <g transform="translate(125.28 88.23825)scale(0.144 -0.144)">
      <use xlink:href="#BitstreamVeraSans-Roman-42"/>
      <use x="68.603515625" xlink:href="#BitstreamVeraSans-Roman-72"/>
      <use x="109.716796875" xlink:href="#BitstreamVeraSans-Roman-61"/>
      <use x="170.99609375" xlink:href="#BitstreamVeraSans-Roman-6b"/>
      <use x="228.859375" xlink:href="#BitstreamVeraSans-Roman-65"/>
      <use x="290.3828125" xlink:href="#BitstreamVeraSans-Roman-20"/>
      <use x="322.169921875" xlink:href="#BitstreamVeraSans-Roman-70"/>
      <use x="385.646484375" xlink:href="#BitstreamVeraSans-Roman-65"/>
      <use x="447.169921875" xlink:href="#BitstreamVeraSans-Roman-64"/>
      <use x="510.646484375" xlink:href="#BitstreamVeraSans-Roman-61"/>
      <use x="571.92578125" xlink:href="#BitstreamVeraSans-Roman-6c"/>
     </g>
    </g>
   </g>
  </g>
 </g>
 <defs>
  <clipPath id="pf44b21b189">
   <rect height="345.6" width="446.4" x="72.0" y="43.2"/>
  </clipPath>
 </defs>
</svg>
