<?xml version="1.0" encoding="utf-8" standalone="no"?>
<!DOCTYPE svg PUBLIC "-//W3C//DTD SVG 1.1//EN"
  "http://www.w3.org/Graphics/SVG/1.1/DTD/svg11.dtd">
<!-- Created with matplotlib (http://matplotlib.org/) -->
<svg height="432pt" version="1.1" viewBox="0 0 576 432" width="576pt" xmlns="http://www.w3.org/2000/svg" xmlns:xlink="http://www.w3.org/1999/xlink">
 <defs>
  <style type="text/css">
*{stroke-linecap:butt;stroke-linejoin:round;stroke-miterlimit:100000;}
  </style>
 </defs>
 <g id="figure_1">
  <g id="patch_1">
   <path d="M 0 432 
L 576 432 
L 576 0 
L 0 0 
z
" style="fill:#ffffff;"/>
  </g>
  <g id="axes_1">
   <g id="patch_2">
    <path d="M 72 388.8 
L 518.4 388.8 
L 518.4 43.2 
L 72 43.2 
z
" style="fill:#ffffff;"/>
   </g>
   <g id="line2d_1">
    <path clip-path="url(#p2db76c80d4)" d="M 72.17856 190.743763 
L 95.74848 190.743763 
L 96.46272 183.894309 
L 96.64128 181.779292 
L 96.81984 181.779292 
L 97.53408 174.875589 
L 98.24832 167.450204 
L 98.42688 165.853487 
L 98.60544 165.853487 
L 99.49824 155.751762 
L 100.21248 150.926552 
L 100.5696 148.254969 
L 102.17664 139.109715 
L 102.3552 139.109715 
L 103.248 134.272271 
L 103.42656 133.722411 
L 103.78368 131.582229 
L 104.1408 127.826549 
L 105.21216 121.942193 
L 105.39072 121.396877 
L 105.74784 119.786418 
L 105.9264 119.242389 
L 106.10496 117.634712 
L 106.46208 116.549736 
L 106.8192 114.94567 
L 107.17632 113.86427 
L 107.89056 110.143679 
L 108.6048 107.992421 
L 108.96192 106.384339 
L 109.14048 105.849234 
L 109.31904 104.272919 
L 110.21184 101.605367 
L 110.74752 98.96959 
L 110.92608 98.43884 
L 111.10464 99.471538 
L 111.64032 97.886284 
L 111.81888 97.879486 
L 112.35456 96.300699 
L 112.53312 96.295947 
L 112.71168 95.771288 
L 112.89024 95.771288 
L 113.0688 96.808908 
L 113.60448 95.241039 
L 113.78304 95.241039 
L 113.9616 96.28063 
L 114.14016 96.280424 
L 114.31872 95.76051 
L 114.49728 95.76051 
L 114.67584 95.24109 
L 114.8544 96.282726 
L 115.03296 95.764851 
L 115.21152 95.767595 
L 115.39008 95.25089 
L 115.56864 95.25089 
L 115.7472 96.29438 
L 115.92576 95.779388 
L 116.10432 95.784443 
L 116.46144 94.756519 
L 116.64 94.762692 
L 116.81856 94.250342 
L 116.99712 94.257603 
L 117.17568 93.746422 
L 117.35424 93.754772 
L 117.5328 93.244754 
L 117.71136 93.254016 
L 117.88992 92.745161 
L 118.06848 92.755688 
L 118.24704 92.247995 
L 118.4256 92.259619 
L 118.60416 91.753088 
L 118.78272 91.766404 
L 118.96128 91.261035 
L 119.13984 91.274646 
L 119.3184 90.770439 
L 119.67552 90.801427 
L 119.85408 90.29864 
L 120.2112 90.33285 
L 120.38976 89.832315 
L 120.74688 89.8701 
L 120.92544 89.370985 
L 121.28256 89.411992 
L 121.46112 88.915113 
L 121.81824 88.95952 
L 121.9968 88.464237 
L 122.71104 88.562901 
L 122.8896 88.071018 
L 123.42528 88.152179 
L 123.60384 87.662797 
L 124.49664 87.812966 
L 124.6752 87.327417 
L 126.10368 87.602845 
L 126.28224 87.122711 
L 129.85344 87.989731 
L 130.56768 88.191737 
L 130.74624 88.759323 
L 132.17472 89.198222 
L 132.35328 89.770833 
L 133.42464 90.129895 
L 133.6032 90.706611 
L 134.496 91.024488 
L 134.67456 91.603617 
L 135.3888 91.868253 
L 135.56736 92.449383 
L 136.2816 92.72334 
L 136.46016 93.306457 
L 136.99584 93.518189 
L 137.1744 94.102916 
L 137.71008 94.320269 
L 137.88864 94.906593 
L 138.42432 95.129567 
L 138.60288 95.717495 
L 139.13856 95.946081 
L 139.31712 96.535606 
L 139.67424 96.691403 
L 139.8528 97.282134 
L 140.20992 97.440595 
L 140.38848 98.03254 
L 140.92416 98.275252 
L 141.10272 98.868955 
L 141.45984 99.033978 
L 141.6384 99.628711 
L 141.99552 99.796574 
L 142.17408 100.392682 
L 142.5312 100.563378 
L 142.70976 101.160509 
L 143.06688 101.334022 
L 143.24544 101.932529 
L 143.60256 102.108874 
L 143.78112 102.79785 
L 143.95968 101.355806 
L 144.13824 101.445854 
L 144.3168 102.046789 
L 144.49536 104.179324 
L 145.03104 104.363247 
L 145.2096 104.96597 
L 145.38816 105.059204 
L 145.56672 105.756787 
L 145.74528 105.851249 
L 145.92384 106.455973 
L 146.45952 106.647621 
L 146.63808 107.253529 
L 146.9952 107.447803 
L 147.17376 108.055072 
L 147.35232 108.153302 
L 147.53088 108.761204 
L 147.70944 108.860574 
L 147.888 109.281397 
L 148.60224 116.403635 
L 149.6736 126.058013 
L 150.20928 131.133671 
L 153.2448 156.456102 
L 153.60192 158.983214 
L 154.31616 164.539439 
L 154.67328 167.06354 
L 155.20896 171.100007 
L 155.74464 174.630028 
L 156.28032 178.661985 
L 157.17312 184.202082 
L 157.53024 186.718851 
L 158.6016 193.257915 
L 158.95872 195.771301 
L 160.20864 202.301567 
L 160.3872 202.803712 
L 160.92288 205.313526 
L 161.10144 205.815272 
L 161.45856 207.320633 
L 161.81568 208.32396 
L 162.1728 209.828754 
L 162.52992 210.831706 
L 162.70848 211.834507 
L 162.88704 211.834507 
L 163.42272 213.338338 
L 163.60128 213.338338 
L 164.31552 215.343212 
L 164.49408 215.343212 
L 164.8512 216.345336 
L 165.02976 216.345336 
L 165.56544 217.848153 
L 165.92256 217.848153 
L 166.10112 218.349132 
L 166.27968 218.349132 
L 166.45824 218.8499 
L 166.6368 218.8499 
L 166.81536 219.350805 
L 167.17248 219.350805 
L 167.35104 219.851672 
L 167.5296 219.851672 
L 167.70816 220.352328 
L 168.06528 220.352328 
L 168.24384 220.853119 
L 168.77952 220.853119 
L 168.95808 221.3537 
L 169.49376 221.3537 
L 169.67232 221.854417 
L 170.56512 221.854417 
L 170.74368 222.354921 
L 172.17216 222.354921 
L 172.35072 222.855563 
L 177.52896 222.855563 
L 177.70752 222.354921 
L 180.0288 222.354921 
L 180.20736 221.854417 
L 181.8144 221.854417 
L 181.99296 221.3537 
L 183.6 221.3537 
L 183.77856 220.853119 
L 185.02848 220.853119 
L 185.20704 220.352328 
L 186.63552 220.352328 
L 186.81408 219.851672 
L 188.064 219.851672 
L 188.24256 219.350805 
L 189.67104 219.350805 
L 189.8496 218.8499 
L 191.09952 218.8499 
L 191.27808 218.349132 
L 192.70656 218.349132 
L 192.88512 217.848153 
L 194.3136 217.848153 
L 194.49216 217.347309 
L 195.56352 217.347309 
L 195.74208 216.846255 
L 197.17056 216.846255 
L 197.34912 216.345336 
L 198.59904 216.345336 
L 198.7776 215.844205 
L 200.20608 215.844205 
L 200.38464 215.343212 
L 201.81312 215.343212 
L 201.99168 214.842007 
L 203.06304 214.842007 
L 203.2416 214.340764 
L 204.67008 214.340764 
L 204.84864 213.839657 
L 206.63424 213.839657 
L 206.8128 213.338338 
L 208.06272 213.338338 
L 208.24128 212.837157 
L 210.02688 212.837157 
L 210.20544 212.335763 
L 211.45536 212.335763 
L 211.63392 211.834507 
L 213.59808 211.834507 
L 213.77664 211.333038 
L 215.20512 211.333038 
L 215.38368 210.831706 
L 217.16928 210.831706 
L 217.34784 210.330161 
L 218.95488 210.330161 
L 219.13344 209.828754 
L 220.74048 209.828754 
L 220.91904 209.327136 
L 222.52608 209.327136 
L 222.70464 208.825479 
L 224.31168 208.825479 
L 224.49024 208.32396 
L 226.63296 208.32396 
L 226.81152 207.822227 
L 228.41856 207.822227 
L 228.59712 207.320633 
L 230.9184 207.320633 
L 231.09696 206.818825 
L 233.06112 206.818825 
L 233.23968 206.317155 
L 235.20384 206.317155 
L 235.3824 205.815272 
L 237.70368 205.815272 
L 237.88224 205.313526 
L 239.66784 205.313526 
L 239.8464 204.811569 
L 242.34624 204.811569 
L 242.5248 204.309575 
L 244.84608 204.309575 
L 245.02464 203.807716 
L 247.8816 203.807716 
L 248.06016 203.305646 
L 252.88128 203.305646 
L 253.05984 203.807716 
L 253.2384 203.807716 
L 253.41696 204.309575 
L 253.59552 204.309575 
L 253.77408 204.811569 
L 253.95264 204.811569 
L 254.1312 205.313526 
L 254.30976 205.313526 
L 254.48832 205.815272 
L 254.66688 205.815272 
L 254.84544 206.317155 
L 255.024 206.317155 
L 255.20256 206.818825 
L 255.38112 206.818825 
L 255.55968 207.320633 
L 255.73824 207.320633 
L 256.09536 208.32396 
L 256.27392 208.32396 
L 256.8096 209.828754 
L 257.16672 209.828754 
L 257.34528 211.333038 
L 257.52384 211.333038 
L 257.88096 212.335763 
L 258.23808 213.839657 
L 258.41664 214.340764 
L 258.5952 214.340764 
L 258.95232 215.343212 
L 259.30944 216.846255 
L 259.488 217.347309 
L 260.20224 220.853119 
L 260.3808 220.853119 
L 261.09504 224.357087 
L 261.2736 224.357087 
L 261.63072 227.358948 
L 261.80928 227.358948 
L 262.34496 230.359456 
L 262.52352 230.359456 
L 262.88064 233.358609 
L 263.23776 235.357468 
L 263.41632 235.357468 
L 263.77344 238.354363 
L 264.48768 242.847262 
L 264.8448 245.342036 
L 265.38048 247.8357 
L 265.7376 251.823917 
L 266.09472 254.315311 
L 266.45184 258.299441 
L 266.6304 258.299441 
L 267.16608 262.281174 
L 267.34464 262.281174 
L 267.70176 266.757828 
L 268.05888 269.740689 
L 268.23744 269.740689 
L 268.59456 274.212267 
L 269.3088 279.673372 
L 269.48736 280.665798 
L 269.66592 280.665798 
L 270.02304 284.633994 
L 272.70144 299.49364 
L 272.88 299.49364 
L 273.23712 300.977618 
L 275.5584 307.404929 
L 275.73696 307.404929 
L 276.62976 309.875102 
L 276.80832 309.875102 
L 277.52256 311.850795 
L 277.70112 311.850795 
L 278.2368 313.331962 
L 278.41536 313.331962 
L 278.95104 314.812954 
L 279.1296 314.812954 
L 279.48672 315.800046 
L 279.66528 315.800046 
L 280.0224 316.786976 
L 280.20096 316.786976 
L 280.55808 317.773759 
L 280.73664 317.773759 
L 281.09376 318.760395 
L 281.27232 318.760395 
L 281.45088 319.25375 
L 281.62944 319.25375 
L 281.98656 320.240151 
L 282.16512 320.240151 
L 282.34368 320.733388 
L 282.52224 320.733388 
L 282.87936 321.719568 
L 283.05792 321.719568 
L 283.23648 322.212525 
L 283.41504 322.212525 
L 283.5936 322.705601 
L 283.77216 322.705601 
L 283.95072 323.198485 
L 284.12928 323.198485 
L 284.30784 323.691486 
L 284.4864 323.691486 
L 284.66496 324.184282 
L 284.84352 324.184282 
L 285.02208 324.677225 
L 285.20064 324.677225 
L 285.3792 325.170123 
L 285.55776 325.170123 
L 285.73632 325.662801 
L 286.09344 325.662801 
L 286.272 326.155626 
L 286.45056 326.155626 
L 286.62912 326.648231 
L 286.80768 326.648231 
L 286.98624 327.140982 
L 287.34336 327.140982 
L 287.52192 327.633513 
L 287.70048 327.633513 
L 287.87904 328.126191 
L 288.23616 328.126191 
L 288.41472 328.618648 
L 288.77184 328.618648 
L 288.9504 329.111238 
L 289.30752 329.111238 
L 289.48608 329.603622 
L 289.8432 329.603622 
L 290.02176 330.096153 
L 290.37888 330.096153 
L 290.55744 330.588625 
L 291.09312 330.588625 
L 291.27168 331.080905 
L 291.80736 331.080905 
L 291.98592 331.573304 
L 292.5216 331.573304 
L 292.70016 332.065511 
L 293.23584 332.065511 
L 293.4144 332.557836 
L 294.3072 332.557836 
L 294.48576 333.049969 
L 295.2 333.049969 
L 295.37856 333.54222 
L 296.62848 333.54222 
L 296.80704 334.034266 
L 298.59264 334.034266 
L 298.7712 334.526443 
L 304.30656 334.526443 
L 304.48512 334.034266 
L 306.62784 334.034266 
L 306.8064 333.54222 
L 308.05632 333.54222 
L 308.23488 333.049969 
L 309.4848 333.049969 
L 309.66336 332.557836 
L 310.55616 332.557836 
L 310.73472 332.065511 
L 311.44896 332.065511 
L 311.62752 331.573304 
L 312.52032 331.573304 
L 312.69888 331.080905 
L 313.41312 331.080905 
L 313.59168 330.588625 
L 314.12736 330.588625 
L 314.30592 330.096153 
L 315.02016 330.096153 
L 315.19872 329.603622 
L 315.7344 329.603622 
L 315.91296 329.111238 
L 316.44864 329.111238 
L 316.6272 328.618648 
L 317.16288 328.618648 
L 317.34144 328.126191 
L 317.87712 328.126191 
L 318.05568 327.633513 
L 318.4128 327.633513 
L 318.59136 327.140982 
L 319.12704 327.140982 
L 319.3056 326.648231 
L 319.66272 326.648231 
L 319.84128 326.155626 
L 320.37696 326.155626 
L 320.55552 325.662801 
L 320.91264 325.662801 
L 321.0912 325.170123 
L 321.44832 325.170123 
L 321.62688 324.677225 
L 322.16256 324.677225 
L 322.34112 324.184282 
L 322.69824 324.184282 
L 322.8768 323.691486 
L 323.23392 323.691486 
L 323.41248 323.198485 
L 323.7696 323.198485 
L 323.94816 322.705601 
L 324.30528 322.705601 
L 324.48384 322.212525 
L 324.84096 322.212525 
L 325.01952 321.719568 
L 325.37664 321.719568 
L 325.5552 321.226419 
L 325.91232 321.226419 
L 326.09088 320.733388 
L 326.448 320.733388 
L 326.80512 319.746884 
L 327.3408 319.746884 
L 327.51936 319.25375 
L 327.87648 319.25375 
L 328.05504 318.760395 
L 328.41216 318.760395 
L 328.59072 318.267188 
L 328.94784 318.267188 
L 329.1264 317.773759 
L 329.30496 317.773759 
L 329.48352 317.280478 
L 329.84064 317.280478 
L 330.0192 316.786976 
L 330.19776 316.786976 
L 330.37632 316.293621 
L 330.73344 316.293621 
L 330.912 315.800046 
L 331.26912 315.800046 
L 331.44768 315.306426 
L 331.62624 315.306426 
L 331.8048 314.812954 
L 332.16192 314.812954 
L 332.34048 314.319275 
L 332.51904 314.319275 
L 332.6976 313.825722 
L 333.05472 313.825722 
L 333.23328 313.331962 
L 333.5904 313.331962 
L 333.76896 312.838335 
L 333.94752 312.838335 
L 334.12608 312.344495 
L 334.30464 312.344495 
L 334.4832 311.850795 
L 334.84032 311.850795 
L 335.01888 311.356888 
L 335.19744 311.356888 
L 335.376 310.863106 
L 335.73312 310.863106 
L 335.91168 310.369126 
L 336.09024 310.369126 
L 336.2688 309.875102 
L 336.62592 309.875102 
L 336.80448 309.38121 
L 336.98304 309.38121 
L 337.1616 308.887112 
L 337.51872 308.887112 
L 337.69728 308.393147 
L 337.87584 308.393147 
L 338.0544 307.898976 
L 338.23296 307.898976 
L 338.41152 307.404929 
L 338.76864 307.404929 
L 338.9472 306.910684 
L 339.12576 306.910684 
L 339.30432 306.416572 
L 339.66144 306.416572 
L 339.84 305.922246 
L 340.01856 305.922246 
L 340.19712 305.427883 
L 340.37568 305.427883 
L 340.55424 304.933653 
L 340.91136 304.933653 
L 341.08992 304.439217 
L 341.26848 304.439217 
L 341.44704 303.944913 
L 341.6256 303.944913 
L 341.80416 303.450403 
L 341.98272 303.450403 
L 342.16128 302.956025 
L 342.5184 302.956025 
L 342.69696 302.461435 
L 342.87552 302.461435 
L 343.05408 301.966984 
L 343.23264 301.966984 
L 343.4112 301.472319 
L 343.58976 301.472319 
L 343.76832 300.977618 
L 344.12544 300.977618 
L 344.304 300.483057 
L 344.48256 300.483057 
L 344.66112 299.988282 
L 344.83968 299.988282 
L 345.01824 299.49364 
L 345.37536 299.49364 
L 345.55392 298.998784 
L 345.73248 298.998784 
L 345.91104 298.504069 
L 346.0896 298.504069 
L 346.26816 298.009147 
L 346.62528 298.009147 
L 346.80384 297.51435 
L 346.9824 297.51435 
L 347.16096 297.019355 
L 347.33952 297.019355 
L 347.51808 296.524484 
L 347.69664 296.524484 
L 347.8752 296.029408 
L 348.23232 296.029408 
L 348.41088 295.534295 
L 348.58944 295.534295 
L 348.768 295.039314 
L 348.94656 295.039314 
L 349.12512 294.544127 
L 349.48224 294.544127 
L 349.6608 294.049073 
L 349.83936 294.049073 
L 350.01792 293.553806 
L 350.19648 293.553806 
L 350.37504 293.058678 
L 350.5536 293.058678 
L 350.73216 292.563337 
L 351.08928 292.563337 
L 351.26784 292.068128 
L 351.4464 292.068128 
L 351.62496 291.572713 
L 351.80352 291.572713 
L 351.98208 291.077262 
L 352.3392 291.077262 
L 352.51776 290.581943 
L 352.69632 290.581943 
L 353.05344 289.591025 
L 353.232 289.591025 
L 353.41056 289.095426 
L 353.94624 289.095426 
L 354.1248 288.599953 
L 354.30336 288.599953 
L 354.66048 287.608733 
L 355.19616 287.608733 
L 355.37472 287.11298 
L 355.55328 287.11298 
L 355.73184 286.61719 
L 355.9104 286.61719 
L 356.08896 286.121533 
L 356.26752 286.121533 
L 356.44608 285.625669 
L 356.62464 285.625669 
L 356.8032 285.129938 
L 357.16032 285.129938 
L 357.33888 284.633994 
L 357.51744 284.633994 
L 357.696 284.138189 
L 358.05312 284.138189 
L 358.23168 283.642171 
L 358.41024 283.642171 
L 358.5888 283.146293 
L 358.76736 283.146293 
L 358.94592 282.650201 
L 359.12448 282.650201 
L 359.30304 282.154242 
L 359.4816 282.154242 
L 359.66016 281.658077 
L 359.83872 281.658077 
L 360.01728 281.161868 
L 360.3744 281.161868 
L 360.55296 280.665798 
L 360.73152 280.665798 
L 360.91008 280.169523 
L 361.08864 280.169523 
L 361.2672 279.673372 
L 361.44576 279.673372 
L 361.62432 279.177023 
L 361.80288 279.177023 
L 361.98144 278.680799 
L 362.16 278.680799 
L 362.51712 277.688072 
L 362.87424 277.688072 
L 363.0528 277.191568 
L 363.23136 277.191568 
L 363.40992 276.695028 
L 363.58848 276.695028 
L 363.76704 276.19862 
L 363.9456 276.19862 
L 364.12416 275.701998 
L 364.30272 275.701998 
L 364.48128 275.205517 
L 364.8384 275.205517 
L 365.01696 274.708822 
L 365.19552 274.708822 
L 365.37408 274.212267 
L 365.55264 274.212267 
L 365.7312 273.715499 
L 365.90976 273.715499 
L 366.08832 273.218863 
L 366.26688 273.218863 
L 366.44544 272.722021 
L 366.80256 272.722021 
L 366.98112 272.225142 
L 367.15968 272.225142 
L 367.33824 271.728396 
L 367.5168 271.728396 
L 367.69536 271.231436 
L 367.87392 271.231436 
L 368.05248 270.734616 
L 368.23104 270.734616 
L 368.4096 270.237583 
L 368.76672 270.237583 
L 368.94528 269.740689 
L 369.12384 269.740689 
L 369.3024 269.243582 
L 369.48096 269.243582 
L 369.83808 268.249428 
L 370.01664 268.249428 
L 370.1952 267.75238 
L 370.55232 267.75238 
L 370.73088 267.255126 
L 370.90944 267.255126 
L 371.088 266.757828 
L 371.26656 266.757828 
L 371.44512 266.260669 
L 371.62368 266.260669 
L 371.80224 265.763298 
L 371.9808 265.763298 
L 372.15936 265.266066 
L 372.33792 265.266066 
L 372.51648 264.768621 
L 372.69504 264.768621 
L 372.8736 264.271308 
L 373.23072 264.271308 
L 373.40928 263.773789 
L 373.58784 263.773789 
L 373.7664 263.276403 
L 373.94496 263.276403 
L 374.12352 262.778803 
L 374.30208 262.778803 
L 374.48064 262.281174 
L 374.6592 262.281174 
L 374.83776 261.783677 
L 375.19488 261.783677 
L 375.37344 261.285967 
L 375.73056 261.285967 
L 375.90912 260.788396 
L 376.08768 260.788396 
L 376.26624 260.290613 
L 376.4448 260.290613 
L 376.62336 259.792962 
L 376.80192 259.792962 
L 377.15904 258.79738 
L 377.3376 258.79738 
L 377.51616 258.299441 
L 377.87328 258.299441 
L 378.05184 257.801474 
L 378.40896 257.801474 
L 378.58752 257.303639 
L 378.76608 257.303639 
L 378.94464 256.80559 
L 379.1232 256.80559 
L 379.48032 255.809559 
L 379.83744 255.809559 
L 380.016 255.31157 
L 380.19456 255.31157 
L 380.37312 254.813374 
L 380.55168 254.813374 
L 380.73024 254.315311 
L 381.08736 254.315311 
L 381.26592 253.817034 
L 381.44448 253.817034 
L 381.62304 253.318897 
L 381.8016 253.318897 
L 381.98016 252.820551 
L 382.15872 252.820551 
L 382.33728 252.322168 
L 382.51584 252.322168 
L 382.6944 251.823917 
L 382.87296 251.823917 
L 383.05152 251.325456 
L 383.23008 251.325456 
L 383.40864 250.827132 
L 383.76576 250.827132 
L 383.94432 250.328598 
L 384.12288 250.328598 
L 384.30144 249.830196 
L 384.48 249.830196 
L 384.83712 248.83311 
L 385.01568 248.83311 
L 385.19424 248.334425 
L 385.55136 248.334425 
L 385.72992 247.8357 
L 385.90848 247.8357 
L 386.08704 247.33711 
L 386.2656 247.33711 
L 386.44416 246.838315 
L 386.80128 246.838315 
L 386.97984 246.339649 
L 387.1584 246.339649 
L 387.33696 245.840776 
L 387.51552 245.840776 
L 387.69408 245.342036 
L 387.87264 245.342036 
L 388.0512 244.843086 
L 388.22976 244.843086 
L 388.40832 244.344273 
L 388.58688 244.344273 
L 388.76544 243.845249 
L 388.944 243.845249 
L 389.12256 243.346189 
L 389.30112 243.346189 
L 389.47968 242.847262 
L 389.65824 242.847262 
L 389.8368 242.348124 
L 390.19392 242.348124 
L 390.37248 241.849123 
L 390.7296 241.849123 
L 390.90816 241.349908 
L 391.08672 241.349908 
L 391.26528 240.850834 
L 391.44384 240.850834 
L 391.6224 240.351545 
L 391.80096 240.351545 
L 391.97952 239.852393 
L 392.33664 239.852393 
L 392.5152 239.353032 
L 392.69376 239.353032 
L 392.87232 238.853802 
L 393.05088 238.853802 
L 393.22944 238.354363 
L 393.58656 238.354363 
L 393.76512 237.854891 
L 393.94368 237.854891 
L 394.3008 236.855999 
L 394.65792 236.855999 
L 394.83648 236.356582 
L 395.01504 236.356582 
L 395.1936 235.856959 
L 395.55072 235.856959 
L 395.72928 235.357468 
L 395.90784 235.357468 
L 396.0864 234.857765 
L 396.26496 234.857765 
L 396.44352 234.358201 
L 396.80064 234.358201 
L 396.9792 233.858423 
L 397.33632 233.858423 
L 397.51488 233.358609 
L 397.872 233.358609 
L 398.05056 232.858931 
L 398.22912 232.858931 
L 398.40768 232.359043 
L 398.7648 232.359043 
L 398.94336 231.859288 
L 399.12192 231.859288 
L 399.30048 231.359323 
L 399.6576 231.359323 
L 399.83616 230.859494 
L 400.19328 230.859494 
L 400.37184 230.359456 
L 400.5504 230.359456 
L 400.72896 229.859553 
L 400.90752 229.859553 
L 401.08608 229.359437 
L 401.26464 229.359437 
L 401.4432 228.859285 
L 401.80032 228.859285 
L 401.97888 228.359268 
L 402.336 228.359268 
L 402.51456 227.859042 
L 402.69312 227.859042 
L 402.87168 227.358948 
L 403.40736 227.358948 
L 403.58592 226.858645 
L 403.94304 226.858645 
L 404.1216 226.358478 
L 404.30016 226.358478 
L 404.47872 225.858101 
L 404.83584 225.858101 
L 405.0144 225.35786 
L 405.55008 225.35786 
L 405.72864 224.857406 
L 405.9072 224.857406 
L 406.08576 224.357087 
L 406.44288 224.357087 
L 406.62144 223.85656 
L 406.97856 223.85656 
L 407.15712 223.355995 
L 407.51424 223.355995 
L 407.6928 222.855563 
L 408.04992 222.855563 
L 408.22848 222.354921 
L 408.76416 222.354921 
L 408.94272 221.854417 
L 409.29984 221.854417 
L 409.4784 221.3537 
L 409.83552 221.3537 
L 410.01408 220.853119 
L 410.54976 220.853119 
L 410.72832 220.352328 
L 410.90688 220.352328 
L 411.08544 219.851672 
L 411.44256 219.851672 
L 411.62112 219.350805 
L 412.1568 219.350805 
L 412.33536 218.8499 
L 412.69248 218.8499 
L 412.87104 218.349132 
L 413.22816 218.349132 
L 413.40672 217.848153 
L 413.9424 217.848153 
L 414.12096 217.347309 
L 414.47808 217.347309 
L 414.65664 216.846255 
L 415.01376 216.846255 
L 415.19232 216.345336 
L 415.728 216.345336 
L 415.90656 215.844205 
L 416.44224 215.844205 
L 416.6208 215.343212 
L 417.15648 215.343212 
L 417.33504 214.842007 
L 417.87072 214.842007 
L 418.04928 214.340764 
L 418.58496 214.340764 
L 418.76352 213.839657 
L 419.12064 213.839657 
L 419.2992 213.338338 
L 419.83488 213.338338 
L 420.01344 212.837157 
L 420.54912 212.837157 
L 420.72768 212.335763 
L 421.26336 212.335763 
L 421.44192 211.834507 
L 421.9776 211.834507 
L 422.15616 211.333038 
L 422.69184 211.333038 
L 422.8704 210.831706 
L 423.58464 210.831706 
L 423.7632 210.330161 
L 424.29888 210.330161 
L 424.47744 209.828754 
L 425.01312 209.828754 
L 425.19168 209.327136 
L 425.90592 209.327136 
L 426.08448 208.825479 
L 426.79872 208.825479 
L 426.97728 208.32396 
L 427.51296 208.32396 
L 427.69152 207.822227 
L 428.40576 207.822227 
L 428.58432 207.320633 
L 429.29856 207.320633 
L 429.47712 206.818825 
L 430.19136 206.818825 
L 430.36992 206.317155 
L 431.08416 206.317155 
L 431.26272 205.815272 
L 431.97696 205.815272 
L 432.15552 205.313526 
L 432.86976 205.313526 
L 433.04832 204.811569 
L 433.94112 204.811569 
L 434.11968 204.309575 
L 435.01248 204.309575 
L 435.19104 203.807716 
L 435.90528 203.807716 
L 436.08384 203.305646 
L 436.97664 203.305646 
L 437.1552 202.803712 
L 437.86944 202.803712 
L 438.048 202.301567 
L 439.11936 202.301567 
L 439.29792 201.799558 
L 440.01216 201.799558 
L 440.19072 201.297338 
L 441.44064 201.297338 
L 441.6192 200.795253 
L 442.69056 200.795253 
L 442.86912 200.292958 
L 443.76192 200.292958 
L 443.94048 199.790625 
L 445.01184 199.790625 
L 445.1904 199.288428 
L 446.44032 199.288428 
L 446.61888 198.786019 
L 447.8688 198.786019 
L 448.04736 198.283747 
L 449.29728 198.283747 
L 449.47584 197.781263 
L 450.72576 197.781263 
L 450.90432 197.278916 
L 452.3328 197.278916 
L 452.51136 196.776357 
L 453.76128 196.776357 
L 453.93984 196.273935 
L 455.54688 196.273935 
L 455.72544 195.771301 
L 457.51104 195.771301 
L 457.6896 195.268803 
L 459.29664 195.268803 
L 459.4752 194.766094 
L 461.2608 194.766094 
L 461.43936 194.263347 
L 463.22496 194.263347 
L 463.40352 193.760737 
L 465.18912 193.760737 
L 465.36768 193.257915 
L 467.68896 193.257915 
L 467.86752 192.755229 
L 470.54592 192.755229 
L 470.72448 192.252332 
L 473.22432 192.252332 
L 473.40288 191.749571 
L 476.08128 191.749571 
L 476.25984 191.246599 
L 478.75968 191.246599 
L 478.93824 190.743763 
L 483.5808 190.743763 
L 483.75936 190.240715 
L 488.40192 190.240715 
L 488.58048 189.73763 
L 493.4016 189.73763 
L 493.58016 189.234681 
L 498.22272 189.234681 
L 498.40128 188.731521 
L 518.4 188.731521 
L 518.4 188.731521 
" style="fill:none;stroke:#008000;stroke-linecap:square;"/>
   </g>
   <g id="line2d_2">
    <path clip-path="url(#p2db76c80d4)" d="M 72.17856 191.314286 
L 96.9984 191.229417 
L 98.24832 190.951701 
L 99.6768 190.407381 
L 101.4624 189.46726 
L 103.78368 188.051946 
L 104.31936 187.374144 
L 105.9264 186.026017 
L 106.28352 185.547498 
L 108.6048 183.315838 
L 108.96192 182.767616 
L 110.21184 181.434297 
L 110.56896 180.842311 
L 110.74752 180.842311 
L 112.71168 178.609561 
L 112.89024 178.609561 
L 113.60448 177.783898 
L 113.78304 177.783898 
L 114.31872 177.165137 
L 114.49728 177.165137 
L 115.39008 176.128952 
L 115.56864 176.128952 
L 119.85408 171.01944 
L 126.63936 162.530232 
L 135.21024 151.869267 
L 140.20992 145.989561 
L 145.03104 140.679082 
L 145.38816 140.303658 
L 145.74528 139.744235 
L 146.1024 139.375249 
L 146.28096 139.375249 
L 148.95936 136.752092 
L 150.5664 135.509145 
L 152.17344 134.538613 
L 153.78048 133.823558 
L 155.38752 133.348213 
L 156.99456 133.095771 
L 158.6016 133.049507 
L 160.3872 133.216682 
L 162.52992 133.639631 
L 162.88704 133.72798 
L 165.20832 134.39242 
L 165.744 134.62157 
L 166.10112 134.680495 
L 170.38656 136.209384 
L 191.27808 143.886671 
L 199.49184 146.480389 
L 209.84832 149.468606 
L 225.20448 153.390409 
L 242.16768 156.813579 
L 242.88192 156.898533 
L 249.6672 157.881902 
L 250.38144 157.960294 
L 251.09568 158.064817 
L 257.16672 159.035662 
L 257.52384 159.121826 
L 260.02368 159.85939 
L 263.952 161.358759 
L 265.20192 162.055826 
L 265.38048 162.055826 
L 267.16608 163.332627 
L 267.34464 163.332627 
L 271.27296 166.986612 
L 275.37984 172.253241 
L 279.30816 178.019245 
L 283.77216 185.009711 
L 289.12896 193.853038 
L 295.91424 205.501185 
L 312.52032 234.416795 
L 312.87744 235.332385 
L 313.77024 236.856219 
L 313.9488 236.856219 
L 314.12736 237.16034 
L 314.30592 237.766424 
L 314.48448 237.766424 
L 321.62688 249.67253 
L 327.87648 259.660088 
L 333.76896 268.639006 
L 338.9472 276.143171 
L 343.94688 283.026493 
L 348.768 289.312485 
L 353.76768 295.679969 
L 353.94624 295.679969 
L 354.30336 296.104544 
L 354.66048 296.73707 
L 355.0176 297.157311 
L 355.19616 297.157311 
L 356.26752 298.405037 
L 356.98176 299.842299 
L 357.16032 300.047005 
L 357.696 301.062936 
L 364.30272 308.407 
L 365.37408 309.500775 
L 365.7312 310.042236 
L 369.65952 314.052013 
L 370.01664 314.55658 
L 376.4448 320.41963 
L 376.98048 320.866607 
L 377.3376 321.309258 
L 380.55168 324.017677 
L 380.9088 324.430959 
L 384.48 327.204281 
L 384.83712 327.58275 
L 388.944 330.342492 
L 393.22944 332.943441 
L 395.01504 334.046566 
L 395.55072 334.533226 
L 400.01472 336.810633 
L 406.44288 339.793216 
L 408.5856 340.556039 
L 408.94272 340.62262 
L 410.3712 341.079867 
L 410.72832 341.143165 
L 411.97824 341.514189 
L 412.33536 341.574207 
L 413.58528 341.927766 
L 413.9424 341.985606 
L 415.19232 342.320596 
L 415.728 342.429699 
L 417.5136 342.849764 
L 419.12064 343.198879 
L 420.90624 343.575244 
L 421.44192 343.665778 
L 423.22752 344.013716 
L 423.7632 344.097688 
L 429.29856 345.273073 
L 435.54816 346.344078 
L 442.15488 347.241843 
L 448.04736 347.81427 
L 455.904 348.372969 
L 464.832 348.747907 
L 473.58144 348.900636 
L 485.3664 348.854759 
L 518.4 347.932525 
L 518.4 347.932525 
" style="fill:none;stroke:#0000ff;stroke-linecap:square;"/>
   </g>
   <g id="patch_3">
    <path d="M 72 43.2 
L 518.4 43.2 
" style="fill:none;stroke:#000000;stroke-linecap:square;stroke-linejoin:miter;"/>
   </g>
   <g id="patch_4">
    <path d="M 518.4 388.8 
L 518.4 43.2 
" style="fill:none;stroke:#000000;stroke-linecap:square;stroke-linejoin:miter;"/>
   </g>
   <g id="patch_5">
    <path d="M 72 388.8 
L 518.4 388.8 
" style="fill:none;stroke:#000000;stroke-linecap:square;stroke-linejoin:miter;"/>
   </g>
   <g id="patch_6">
    <path d="M 72 388.8 
L 72 43.2 
" style="fill:none;stroke:#000000;stroke-linecap:square;stroke-linejoin:miter;"/>
   </g>
   <g id="matplotlib.axis_1">
    <g id="xtick_1">
     <g id="line2d_3">
      <path clip-path="url(#p2db76c80d4)" d="M 72 388.8 
L 72 43.2 
" style="fill:none;stroke:#000000;stroke-dasharray:1.000000,3.000000;stroke-dashoffset:0.0;stroke-width:0.5;"/>
     </g>
     <g id="line2d_4">
      <defs>
       <path d="M 0 0 
L 0 -4 
" id="mb04d7d7140" style="stroke:#000000;stroke-width:0.5;"/>
      </defs>
      <g>
       <use style="stroke:#000000;stroke-width:0.5;" x="72.0" xlink:href="#mb04d7d7140" y="388.8"/>
      </g>
     </g>
     <g id="line2d_5">
      <defs>
       <path d="M 0 0 
L 0 4 
" id="m95df9418ed" style="stroke:#000000;stroke-width:0.5;"/>
      </defs>
      <g>
       <use style="stroke:#000000;stroke-width:0.5;" x="72.0" xlink:href="#m95df9418ed" y="43.2"/>
      </g>
     </g>
     <g id="text_1">
      <!-- 0 -->
      <defs>
       <path d="M 31.78125 66.40625 
Q 24.171875 66.40625 20.328125 58.90625 
Q 16.5 51.421875 16.5 36.375 
Q 16.5 21.390625 20.328125 13.890625 
Q 24.171875 6.390625 31.78125 6.390625 
Q 39.453125 6.390625 43.28125 13.890625 
Q 47.125 21.390625 47.125 36.375 
Q 47.125 51.421875 43.28125 58.90625 
Q 39.453125 66.40625 31.78125 66.40625 
M 31.78125 74.21875 
Q 44.046875 74.21875 50.515625 64.515625 
Q 56.984375 54.828125 56.984375 36.375 
Q 56.984375 17.96875 50.515625 8.265625 
Q 44.046875 -1.421875 31.78125 -1.421875 
Q 19.53125 -1.421875 13.0625 8.265625 
Q 6.59375 17.96875 6.59375 36.375 
Q 6.59375 54.828125 13.0625 64.515625 
Q 19.53125 74.21875 31.78125 74.21875 
" id="BitstreamVeraSans-Roman-30"/>
      </defs>
      <g transform="translate(68.1825 401.918125)scale(0.12 -0.12)">
       <use xlink:href="#BitstreamVeraSans-Roman-30"/>
      </g>
     </g>
    </g>
    <g id="xtick_2">
     <g id="line2d_6">
      <path clip-path="url(#p2db76c80d4)" d="M 161.28 388.8 
L 161.28 43.2 
" style="fill:none;stroke:#000000;stroke-dasharray:1.000000,3.000000;stroke-dashoffset:0.0;stroke-width:0.5;"/>
     </g>
     <g id="line2d_7">
      <g>
       <use style="stroke:#000000;stroke-width:0.5;" x="161.28" xlink:href="#mb04d7d7140" y="388.8"/>
      </g>
     </g>
     <g id="line2d_8">
      <g>
       <use style="stroke:#000000;stroke-width:0.5;" x="161.28" xlink:href="#m95df9418ed" y="43.2"/>
      </g>
     </g>
     <g id="text_2">
      <!-- 5 -->
      <defs>
       <path d="M 10.796875 72.90625 
L 49.515625 72.90625 
L 49.515625 64.59375 
L 19.828125 64.59375 
L 19.828125 46.734375 
Q 21.96875 47.46875 24.109375 47.828125 
Q 26.265625 48.1875 28.421875 48.1875 
Q 40.625 48.1875 47.75 41.5 
Q 54.890625 34.8125 54.890625 23.390625 
Q 54.890625 11.625 47.5625 5.09375 
Q 40.234375 -1.421875 26.90625 -1.421875 
Q 22.3125 -1.421875 17.546875 -0.640625 
Q 12.796875 0.140625 7.71875 1.703125 
L 7.71875 11.625 
Q 12.109375 9.234375 16.796875 8.0625 
Q 21.484375 6.890625 26.703125 6.890625 
Q 35.15625 6.890625 40.078125 11.328125 
Q 45.015625 15.765625 45.015625 23.390625 
Q 45.015625 31 40.078125 35.4375 
Q 35.15625 39.890625 26.703125 39.890625 
Q 22.75 39.890625 18.8125 39.015625 
Q 14.890625 38.140625 10.796875 36.28125 
z
" id="BitstreamVeraSans-Roman-35"/>
      </defs>
      <g transform="translate(157.4625 401.918125)scale(0.12 -0.12)">
       <use xlink:href="#BitstreamVeraSans-Roman-35"/>
      </g>
     </g>
    </g>
    <g id="xtick_3">
     <g id="line2d_9">
      <path clip-path="url(#p2db76c80d4)" d="M 250.56 388.8 
L 250.56 43.2 
" style="fill:none;stroke:#000000;stroke-dasharray:1.000000,3.000000;stroke-dashoffset:0.0;stroke-width:0.5;"/>
     </g>
     <g id="line2d_10">
      <g>
       <use style="stroke:#000000;stroke-width:0.5;" x="250.56" xlink:href="#mb04d7d7140" y="388.8"/>
      </g>
     </g>
     <g id="line2d_11">
      <g>
       <use style="stroke:#000000;stroke-width:0.5;" x="250.56" xlink:href="#m95df9418ed" y="43.2"/>
      </g>
     </g>
     <g id="text_3">
      <!-- 10 -->
      <defs>
       <path d="M 12.40625 8.296875 
L 28.515625 8.296875 
L 28.515625 63.921875 
L 10.984375 60.40625 
L 10.984375 69.390625 
L 28.421875 72.90625 
L 38.28125 72.90625 
L 38.28125 8.296875 
L 54.390625 8.296875 
L 54.390625 0 
L 12.40625 0 
z
" id="BitstreamVeraSans-Roman-31"/>
      </defs>
      <g transform="translate(242.925 401.918125)scale(0.12 -0.12)">
       <use xlink:href="#BitstreamVeraSans-Roman-31"/>
       <use x="63.623046875" xlink:href="#BitstreamVeraSans-Roman-30"/>
      </g>
     </g>
    </g>
    <g id="xtick_4">
     <g id="line2d_12">
      <path clip-path="url(#p2db76c80d4)" d="M 339.84 388.8 
L 339.84 43.2 
" style="fill:none;stroke:#000000;stroke-dasharray:1.000000,3.000000;stroke-dashoffset:0.0;stroke-width:0.5;"/>
     </g>
     <g id="line2d_13">
      <g>
       <use style="stroke:#000000;stroke-width:0.5;" x="339.84" xlink:href="#mb04d7d7140" y="388.8"/>
      </g>
     </g>
     <g id="line2d_14">
      <g>
       <use style="stroke:#000000;stroke-width:0.5;" x="339.84" xlink:href="#m95df9418ed" y="43.2"/>
      </g>
     </g>
     <g id="text_4">
      <!-- 15 -->
      <g transform="translate(332.205 401.918125)scale(0.12 -0.12)">
       <use xlink:href="#BitstreamVeraSans-Roman-31"/>
       <use x="63.623046875" xlink:href="#BitstreamVeraSans-Roman-35"/>
      </g>
     </g>
    </g>
    <g id="xtick_5">
     <g id="line2d_15">
      <path clip-path="url(#p2db76c80d4)" d="M 429.12 388.8 
L 429.12 43.2 
" style="fill:none;stroke:#000000;stroke-dasharray:1.000000,3.000000;stroke-dashoffset:0.0;stroke-width:0.5;"/>
     </g>
     <g id="line2d_16">
      <g>
       <use style="stroke:#000000;stroke-width:0.5;" x="429.12" xlink:href="#mb04d7d7140" y="388.8"/>
      </g>
     </g>
     <g id="line2d_17">
      <g>
       <use style="stroke:#000000;stroke-width:0.5;" x="429.12" xlink:href="#m95df9418ed" y="43.2"/>
      </g>
     </g>
     <g id="text_5">
      <!-- 20 -->
      <defs>
       <path d="M 19.1875 8.296875 
L 53.609375 8.296875 
L 53.609375 0 
L 7.328125 0 
L 7.328125 8.296875 
Q 12.9375 14.109375 22.625 23.890625 
Q 32.328125 33.6875 34.8125 36.53125 
Q 39.546875 41.84375 41.421875 45.53125 
Q 43.3125 49.21875 43.3125 52.78125 
Q 43.3125 58.59375 39.234375 62.25 
Q 35.15625 65.921875 28.609375 65.921875 
Q 23.96875 65.921875 18.8125 64.3125 
Q 13.671875 62.703125 7.8125 59.421875 
L 7.8125 69.390625 
Q 13.765625 71.78125 18.9375 73 
Q 24.125 74.21875 28.421875 74.21875 
Q 39.75 74.21875 46.484375 68.546875 
Q 53.21875 62.890625 53.21875 53.421875 
Q 53.21875 48.921875 51.53125 44.890625 
Q 49.859375 40.875 45.40625 35.40625 
Q 44.1875 33.984375 37.640625 27.21875 
Q 31.109375 20.453125 19.1875 8.296875 
" id="BitstreamVeraSans-Roman-32"/>
      </defs>
      <g transform="translate(421.485 401.918125)scale(0.12 -0.12)">
       <use xlink:href="#BitstreamVeraSans-Roman-32"/>
       <use x="63.623046875" xlink:href="#BitstreamVeraSans-Roman-30"/>
      </g>
     </g>
    </g>
    <g id="xtick_6">
     <g id="line2d_18">
      <path clip-path="url(#p2db76c80d4)" d="M 518.4 388.8 
L 518.4 43.2 
" style="fill:none;stroke:#000000;stroke-dasharray:1.000000,3.000000;stroke-dashoffset:0.0;stroke-width:0.5;"/>
     </g>
     <g id="line2d_19">
      <g>
       <use style="stroke:#000000;stroke-width:0.5;" x="518.4" xlink:href="#mb04d7d7140" y="388.8"/>
      </g>
     </g>
     <g id="line2d_20">
      <g>
       <use style="stroke:#000000;stroke-width:0.5;" x="518.4" xlink:href="#m95df9418ed" y="43.2"/>
      </g>
     </g>
     <g id="text_6">
      <!-- 25 -->
      <g transform="translate(510.765 401.918125)scale(0.12 -0.12)">
       <use xlink:href="#BitstreamVeraSans-Roman-32"/>
       <use x="63.623046875" xlink:href="#BitstreamVeraSans-Roman-35"/>
      </g>
     </g>
    </g>
    <g id="text_7">
     <!-- Time, [s] -->
     <defs>
      <path id="BitstreamVeraSans-Roman-20"/>
      <path d="M 8.59375 75.984375 
L 29.296875 75.984375 
L 29.296875 69 
L 17.578125 69 
L 17.578125 -6.203125 
L 29.296875 -6.203125 
L 29.296875 -13.1875 
L 8.59375 -13.1875 
z
" id="BitstreamVeraSans-Roman-5b"/>
      <path d="M 30.421875 75.984375 
L 30.421875 -13.1875 
L 9.71875 -13.1875 
L 9.71875 -6.203125 
L 21.390625 -6.203125 
L 21.390625 69 
L 9.71875 69 
L 9.71875 75.984375 
z
" id="BitstreamVeraSans-Roman-5d"/>
      <path d="M 52 44.1875 
Q 55.375 50.25 60.0625 53.125 
Q 64.75 56 71.09375 56 
Q 79.640625 56 84.28125 50.015625 
Q 88.921875 44.046875 88.921875 33.015625 
L 88.921875 0 
L 79.890625 0 
L 79.890625 32.71875 
Q 79.890625 40.578125 77.09375 44.375 
Q 74.3125 48.1875 68.609375 48.1875 
Q 61.625 48.1875 57.5625 43.546875 
Q 53.515625 38.921875 53.515625 30.90625 
L 53.515625 0 
L 44.484375 0 
L 44.484375 32.71875 
Q 44.484375 40.625 41.703125 44.40625 
Q 38.921875 48.1875 33.109375 48.1875 
Q 26.21875 48.1875 22.15625 43.53125 
Q 18.109375 38.875 18.109375 30.90625 
L 18.109375 0 
L 9.078125 0 
L 9.078125 54.6875 
L 18.109375 54.6875 
L 18.109375 46.1875 
Q 21.1875 51.21875 25.484375 53.609375 
Q 29.78125 56 35.6875 56 
Q 41.65625 56 45.828125 52.96875 
Q 50 49.953125 52 44.1875 
" id="BitstreamVeraSans-Roman-6d"/>
      <path d="M 11.71875 12.40625 
L 22.015625 12.40625 
L 22.015625 4 
L 14.015625 -11.625 
L 7.71875 -11.625 
L 11.71875 4 
z
" id="BitstreamVeraSans-Roman-2c"/>
      <path d="M 9.421875 54.6875 
L 18.40625 54.6875 
L 18.40625 0 
L 9.421875 0 
z
M 9.421875 75.984375 
L 18.40625 75.984375 
L 18.40625 64.59375 
L 9.421875 64.59375 
z
" id="BitstreamVeraSans-Roman-69"/>
      <path d="M 56.203125 29.59375 
L 56.203125 25.203125 
L 14.890625 25.203125 
Q 15.484375 15.921875 20.484375 11.0625 
Q 25.484375 6.203125 34.421875 6.203125 
Q 39.59375 6.203125 44.453125 7.46875 
Q 49.3125 8.734375 54.109375 11.28125 
L 54.109375 2.78125 
Q 49.265625 0.734375 44.1875 -0.34375 
Q 39.109375 -1.421875 33.890625 -1.421875 
Q 20.796875 -1.421875 13.15625 6.1875 
Q 5.515625 13.8125 5.515625 26.8125 
Q 5.515625 40.234375 12.765625 48.109375 
Q 20.015625 56 32.328125 56 
Q 43.359375 56 49.78125 48.890625 
Q 56.203125 41.796875 56.203125 29.59375 
M 47.21875 32.234375 
Q 47.125 39.59375 43.09375 43.984375 
Q 39.0625 48.390625 32.421875 48.390625 
Q 24.90625 48.390625 20.390625 44.140625 
Q 15.875 39.890625 15.1875 32.171875 
z
" id="BitstreamVeraSans-Roman-65"/>
      <path d="M -0.296875 72.90625 
L 61.375 72.90625 
L 61.375 64.59375 
L 35.5 64.59375 
L 35.5 0 
L 25.59375 0 
L 25.59375 64.59375 
L -0.296875 64.59375 
z
" id="BitstreamVeraSans-Roman-54"/>
      <path d="M 44.28125 53.078125 
L 44.28125 44.578125 
Q 40.484375 46.53125 36.375 47.5 
Q 32.28125 48.484375 27.875 48.484375 
Q 21.1875 48.484375 17.84375 46.4375 
Q 14.5 44.390625 14.5 40.28125 
Q 14.5 37.15625 16.890625 35.375 
Q 19.28125 33.59375 26.515625 31.984375 
L 29.59375 31.296875 
Q 39.15625 29.25 43.1875 25.515625 
Q 47.21875 21.78125 47.21875 15.09375 
Q 47.21875 7.46875 41.1875 3.015625 
Q 35.15625 -1.421875 24.609375 -1.421875 
Q 20.21875 -1.421875 15.453125 -0.5625 
Q 10.6875 0.296875 5.421875 2 
L 5.421875 11.28125 
Q 10.40625 8.6875 15.234375 7.390625 
Q 20.0625 6.109375 24.8125 6.109375 
Q 31.15625 6.109375 34.5625 8.28125 
Q 37.984375 10.453125 37.984375 14.40625 
Q 37.984375 18.0625 35.515625 20.015625 
Q 33.0625 21.96875 24.703125 23.78125 
L 21.578125 24.515625 
Q 13.234375 26.265625 9.515625 29.90625 
Q 5.8125 33.546875 5.8125 39.890625 
Q 5.8125 47.609375 11.28125 51.796875 
Q 16.75 56 26.8125 56 
Q 31.78125 56 36.171875 55.265625 
Q 40.578125 54.546875 44.28125 53.078125 
" id="BitstreamVeraSans-Roman-73"/>
     </defs>
     <g transform="translate(268.71375 418.531875)scale(0.12 -0.12)">
      <use xlink:href="#BitstreamVeraSans-Roman-54"/>
      <use x="61.037109375" xlink:href="#BitstreamVeraSans-Roman-69"/>
      <use x="88.8203125" xlink:href="#BitstreamVeraSans-Roman-6d"/>
      <use x="186.232421875" xlink:href="#BitstreamVeraSans-Roman-65"/>
      <use x="247.755859375" xlink:href="#BitstreamVeraSans-Roman-2c"/>
      <use x="279.54296875" xlink:href="#BitstreamVeraSans-Roman-20"/>
      <use x="311.330078125" xlink:href="#BitstreamVeraSans-Roman-5b"/>
      <use x="350.34375" xlink:href="#BitstreamVeraSans-Roman-73"/>
      <use x="402.443359375" xlink:href="#BitstreamVeraSans-Roman-5d"/>
     </g>
    </g>
   </g>
   <g id="matplotlib.axis_2">
    <g id="ytick_1">
     <g id="line2d_21">
      <path clip-path="url(#p2db76c80d4)" d="M 72 388.8 
L 518.4 388.8 
" style="fill:none;stroke:#000000;stroke-dasharray:1.000000,3.000000;stroke-dashoffset:0.0;stroke-width:0.5;"/>
     </g>
     <g id="line2d_22">
      <defs>
       <path d="M 0 0 
L 4 0 
" id="m2ef2ed3166" style="stroke:#000000;stroke-width:0.5;"/>
      </defs>
      <g>
       <use style="stroke:#000000;stroke-width:0.5;" x="72.0" xlink:href="#m2ef2ed3166" y="388.8"/>
      </g>
     </g>
     <g id="line2d_23">
      <defs>
       <path d="M 0 0 
L -4 0 
" id="mc1aeefe9a3" style="stroke:#000000;stroke-width:0.5;"/>
      </defs>
      <g>
       <use style="stroke:#000000;stroke-width:0.5;" x="518.4" xlink:href="#mc1aeefe9a3" y="388.8"/>
      </g>
     </g>
     <g id="text_8">
      <!-- −0.8 -->
      <defs>
       <path d="M 10.59375 35.5 
L 73.1875 35.5 
L 73.1875 27.203125 
L 10.59375 27.203125 
z
" id="BitstreamVeraSans-Roman-2212"/>
       <path d="M 31.78125 34.625 
Q 24.75 34.625 20.71875 30.859375 
Q 16.703125 27.09375 16.703125 20.515625 
Q 16.703125 13.921875 20.71875 10.15625 
Q 24.75 6.390625 31.78125 6.390625 
Q 38.8125 6.390625 42.859375 10.171875 
Q 46.921875 13.96875 46.921875 20.515625 
Q 46.921875 27.09375 42.890625 30.859375 
Q 38.875 34.625 31.78125 34.625 
M 21.921875 38.8125 
Q 15.578125 40.375 12.03125 44.71875 
Q 8.5 49.078125 8.5 55.328125 
Q 8.5 64.0625 14.71875 69.140625 
Q 20.953125 74.21875 31.78125 74.21875 
Q 42.671875 74.21875 48.875 69.140625 
Q 55.078125 64.0625 55.078125 55.328125 
Q 55.078125 49.078125 51.53125 44.71875 
Q 48 40.375 41.703125 38.8125 
Q 48.828125 37.15625 52.796875 32.3125 
Q 56.78125 27.484375 56.78125 20.515625 
Q 56.78125 9.90625 50.3125 4.234375 
Q 43.84375 -1.421875 31.78125 -1.421875 
Q 19.734375 -1.421875 13.25 4.234375 
Q 6.78125 9.90625 6.78125 20.515625 
Q 6.78125 27.484375 10.78125 32.3125 
Q 14.796875 37.15625 21.921875 38.8125 
M 18.3125 54.390625 
Q 18.3125 48.734375 21.84375 45.5625 
Q 25.390625 42.390625 31.78125 42.390625 
Q 38.140625 42.390625 41.71875 45.5625 
Q 45.3125 48.734375 45.3125 54.390625 
Q 45.3125 60.0625 41.71875 63.234375 
Q 38.140625 66.40625 31.78125 66.40625 
Q 25.390625 66.40625 21.84375 63.234375 
Q 18.3125 60.0625 18.3125 54.390625 
" id="BitstreamVeraSans-Roman-38"/>
       <path d="M 10.6875 12.40625 
L 21 12.40625 
L 21 0 
L 10.6875 0 
z
" id="BitstreamVeraSans-Roman-2e"/>
      </defs>
      <g transform="translate(38.860625 392.11125)scale(0.12 -0.12)">
       <use xlink:href="#BitstreamVeraSans-Roman-2212"/>
       <use x="83.7890625" xlink:href="#BitstreamVeraSans-Roman-30"/>
       <use x="147.412109375" xlink:href="#BitstreamVeraSans-Roman-2e"/>
       <use x="179.19921875" xlink:href="#BitstreamVeraSans-Roman-38"/>
      </g>
     </g>
    </g>
    <g id="ytick_2">
     <g id="line2d_24">
      <path clip-path="url(#p2db76c80d4)" d="M 72 339.428571 
L 518.4 339.428571 
" style="fill:none;stroke:#000000;stroke-dasharray:1.000000,3.000000;stroke-dashoffset:0.0;stroke-width:0.5;"/>
     </g>
     <g id="line2d_25">
      <g>
       <use style="stroke:#000000;stroke-width:0.5;" x="72.0" xlink:href="#m2ef2ed3166" y="339.428571429"/>
      </g>
     </g>
     <g id="line2d_26">
      <g>
       <use style="stroke:#000000;stroke-width:0.5;" x="518.4" xlink:href="#mc1aeefe9a3" y="339.428571429"/>
      </g>
     </g>
     <g id="text_9">
      <!-- −0.6 -->
      <defs>
       <path d="M 33.015625 40.375 
Q 26.375 40.375 22.484375 35.828125 
Q 18.609375 31.296875 18.609375 23.390625 
Q 18.609375 15.53125 22.484375 10.953125 
Q 26.375 6.390625 33.015625 6.390625 
Q 39.65625 6.390625 43.53125 10.953125 
Q 47.40625 15.53125 47.40625 23.390625 
Q 47.40625 31.296875 43.53125 35.828125 
Q 39.65625 40.375 33.015625 40.375 
M 52.59375 71.296875 
L 52.59375 62.3125 
Q 48.875 64.0625 45.09375 64.984375 
Q 41.3125 65.921875 37.59375 65.921875 
Q 27.828125 65.921875 22.671875 59.328125 
Q 17.53125 52.734375 16.796875 39.40625 
Q 19.671875 43.65625 24.015625 45.921875 
Q 28.375 48.1875 33.59375 48.1875 
Q 44.578125 48.1875 50.953125 41.515625 
Q 57.328125 34.859375 57.328125 23.390625 
Q 57.328125 12.15625 50.6875 5.359375 
Q 44.046875 -1.421875 33.015625 -1.421875 
Q 20.359375 -1.421875 13.671875 8.265625 
Q 6.984375 17.96875 6.984375 36.375 
Q 6.984375 53.65625 15.1875 63.9375 
Q 23.390625 74.21875 37.203125 74.21875 
Q 40.921875 74.21875 44.703125 73.484375 
Q 48.484375 72.75 52.59375 71.296875 
" id="BitstreamVeraSans-Roman-36"/>
      </defs>
      <g transform="translate(38.860625 342.739821429)scale(0.12 -0.12)">
       <use xlink:href="#BitstreamVeraSans-Roman-2212"/>
       <use x="83.7890625" xlink:href="#BitstreamVeraSans-Roman-30"/>
       <use x="147.412109375" xlink:href="#BitstreamVeraSans-Roman-2e"/>
       <use x="179.19921875" xlink:href="#BitstreamVeraSans-Roman-36"/>
      </g>
     </g>
    </g>
    <g id="ytick_3">
     <g id="line2d_27">
      <path clip-path="url(#p2db76c80d4)" d="M 72 290.057143 
L 518.4 290.057143 
" style="fill:none;stroke:#000000;stroke-dasharray:1.000000,3.000000;stroke-dashoffset:0.0;stroke-width:0.5;"/>
     </g>
     <g id="line2d_28">
      <g>
       <use style="stroke:#000000;stroke-width:0.5;" x="72.0" xlink:href="#m2ef2ed3166" y="290.057142857"/>
      </g>
     </g>
     <g id="line2d_29">
      <g>
       <use style="stroke:#000000;stroke-width:0.5;" x="518.4" xlink:href="#mc1aeefe9a3" y="290.057142857"/>
      </g>
     </g>
     <g id="text_10">
      <!-- −0.4 -->
      <defs>
       <path d="M 37.796875 64.3125 
L 12.890625 25.390625 
L 37.796875 25.390625 
z
M 35.203125 72.90625 
L 47.609375 72.90625 
L 47.609375 25.390625 
L 58.015625 25.390625 
L 58.015625 17.1875 
L 47.609375 17.1875 
L 47.609375 0 
L 37.796875 0 
L 37.796875 17.1875 
L 4.890625 17.1875 
L 4.890625 26.703125 
z
" id="BitstreamVeraSans-Roman-34"/>
      </defs>
      <g transform="translate(38.860625 293.368392857)scale(0.12 -0.12)">
       <use xlink:href="#BitstreamVeraSans-Roman-2212"/>
       <use x="83.7890625" xlink:href="#BitstreamVeraSans-Roman-30"/>
       <use x="147.412109375" xlink:href="#BitstreamVeraSans-Roman-2e"/>
       <use x="179.19921875" xlink:href="#BitstreamVeraSans-Roman-34"/>
      </g>
     </g>
    </g>
    <g id="ytick_4">
     <g id="line2d_30">
      <path clip-path="url(#p2db76c80d4)" d="M 72 240.685714 
L 518.4 240.685714 
" style="fill:none;stroke:#000000;stroke-dasharray:1.000000,3.000000;stroke-dashoffset:0.0;stroke-width:0.5;"/>
     </g>
     <g id="line2d_31">
      <g>
       <use style="stroke:#000000;stroke-width:0.5;" x="72.0" xlink:href="#m2ef2ed3166" y="240.685714286"/>
      </g>
     </g>
     <g id="line2d_32">
      <g>
       <use style="stroke:#000000;stroke-width:0.5;" x="518.4" xlink:href="#mc1aeefe9a3" y="240.685714286"/>
      </g>
     </g>
     <g id="text_11">
      <!-- −0.2 -->
      <g transform="translate(38.860625 243.996964286)scale(0.12 -0.12)">
       <use xlink:href="#BitstreamVeraSans-Roman-2212"/>
       <use x="83.7890625" xlink:href="#BitstreamVeraSans-Roman-30"/>
       <use x="147.412109375" xlink:href="#BitstreamVeraSans-Roman-2e"/>
       <use x="179.19921875" xlink:href="#BitstreamVeraSans-Roman-32"/>
      </g>
     </g>
    </g>
    <g id="ytick_5">
     <g id="line2d_33">
      <path clip-path="url(#p2db76c80d4)" d="M 72 191.314286 
L 518.4 191.314286 
" style="fill:none;stroke:#000000;stroke-dasharray:1.000000,3.000000;stroke-dashoffset:0.0;stroke-width:0.5;"/>
     </g>
     <g id="line2d_34">
      <g>
       <use style="stroke:#000000;stroke-width:0.5;" x="72.0" xlink:href="#m2ef2ed3166" y="191.314285714"/>
      </g>
     </g>
     <g id="line2d_35">
      <g>
       <use style="stroke:#000000;stroke-width:0.5;" x="518.4" xlink:href="#mc1aeefe9a3" y="191.314285714"/>
      </g>
     </g>
     <g id="text_12">
      <!-- 0.0 -->
      <g transform="translate(48.91625 194.625535714)scale(0.12 -0.12)">
       <use xlink:href="#BitstreamVeraSans-Roman-30"/>
       <use x="63.623046875" xlink:href="#BitstreamVeraSans-Roman-2e"/>
       <use x="95.41015625" xlink:href="#BitstreamVeraSans-Roman-30"/>
      </g>
     </g>
    </g>
    <g id="ytick_6">
     <g id="line2d_36">
      <path clip-path="url(#p2db76c80d4)" d="M 72 141.942857 
L 518.4 141.942857 
" style="fill:none;stroke:#000000;stroke-dasharray:1.000000,3.000000;stroke-dashoffset:0.0;stroke-width:0.5;"/>
     </g>
     <g id="line2d_37">
      <g>
       <use style="stroke:#000000;stroke-width:0.5;" x="72.0" xlink:href="#m2ef2ed3166" y="141.942857143"/>
      </g>
     </g>
     <g id="line2d_38">
      <g>
       <use style="stroke:#000000;stroke-width:0.5;" x="518.4" xlink:href="#mc1aeefe9a3" y="141.942857143"/>
      </g>
     </g>
     <g id="text_13">
      <!-- 0.2 -->
      <g transform="translate(48.91625 145.254107143)scale(0.12 -0.12)">
       <use xlink:href="#BitstreamVeraSans-Roman-30"/>
       <use x="63.623046875" xlink:href="#BitstreamVeraSans-Roman-2e"/>
       <use x="95.41015625" xlink:href="#BitstreamVeraSans-Roman-32"/>
      </g>
     </g>
    </g>
    <g id="ytick_7">
     <g id="line2d_39">
      <path clip-path="url(#p2db76c80d4)" d="M 72 92.571429 
L 518.4 92.571429 
" style="fill:none;stroke:#000000;stroke-dasharray:1.000000,3.000000;stroke-dashoffset:0.0;stroke-width:0.5;"/>
     </g>
     <g id="line2d_40">
      <g>
       <use style="stroke:#000000;stroke-width:0.5;" x="72.0" xlink:href="#m2ef2ed3166" y="92.5714285714"/>
      </g>
     </g>
     <g id="line2d_41">
      <g>
       <use style="stroke:#000000;stroke-width:0.5;" x="518.4" xlink:href="#mc1aeefe9a3" y="92.5714285714"/>
      </g>
     </g>
     <g id="text_14">
      <!-- 0.4 -->
      <g transform="translate(48.91625 95.8826785714)scale(0.12 -0.12)">
       <use xlink:href="#BitstreamVeraSans-Roman-30"/>
       <use x="63.623046875" xlink:href="#BitstreamVeraSans-Roman-2e"/>
       <use x="95.41015625" xlink:href="#BitstreamVeraSans-Roman-34"/>
      </g>
     </g>
    </g>
    <g id="ytick_8">
     <g id="line2d_42">
      <path clip-path="url(#p2db76c80d4)" d="M 72 43.2 
L 518.4 43.2 
" style="fill:none;stroke:#000000;stroke-dasharray:1.000000,3.000000;stroke-dashoffset:0.0;stroke-width:0.5;"/>
     </g>
     <g id="line2d_43">
      <g>
       <use style="stroke:#000000;stroke-width:0.5;" x="72.0" xlink:href="#m2ef2ed3166" y="43.2"/>
      </g>
     </g>
     <g id="line2d_44">
      <g>
       <use style="stroke:#000000;stroke-width:0.5;" x="518.4" xlink:href="#mc1aeefe9a3" y="43.2"/>
      </g>
     </g>
     <g id="text_15">
      <!-- 0.6 -->
      <g transform="translate(48.91625 46.51125)scale(0.12 -0.12)">
       <use xlink:href="#BitstreamVeraSans-Roman-30"/>
       <use x="63.623046875" xlink:href="#BitstreamVeraSans-Roman-2e"/>
       <use x="95.41015625" xlink:href="#BitstreamVeraSans-Roman-36"/>
      </g>
     </g>
    </g>
    <g id="text_16">
     <!-- Accel Cmd [m/s^2] -->
     <defs>
      <path d="M 46.6875 72.90625 
L 73.1875 45.703125 
L 63.375 45.703125 
L 41.890625 64.984375 
L 20.40625 45.703125 
L 10.59375 45.703125 
L 37.109375 72.90625 
z
" id="BitstreamVeraSans-Roman-5e"/>
      <path d="M 9.421875 75.984375 
L 18.40625 75.984375 
L 18.40625 0 
L 9.421875 0 
z
" id="BitstreamVeraSans-Roman-6c"/>
      <path d="M 64.40625 67.28125 
L 64.40625 56.890625 
Q 59.421875 61.53125 53.78125 63.8125 
Q 48.140625 66.109375 41.796875 66.109375 
Q 29.296875 66.109375 22.65625 58.46875 
Q 16.015625 50.828125 16.015625 36.375 
Q 16.015625 21.96875 22.65625 14.328125 
Q 29.296875 6.6875 41.796875 6.6875 
Q 48.140625 6.6875 53.78125 8.984375 
Q 59.421875 11.28125 64.40625 15.921875 
L 64.40625 5.609375 
Q 59.234375 2.09375 53.4375 0.328125 
Q 47.65625 -1.421875 41.21875 -1.421875 
Q 24.65625 -1.421875 15.125 8.703125 
Q 5.609375 18.84375 5.609375 36.375 
Q 5.609375 53.953125 15.125 64.078125 
Q 24.65625 74.21875 41.21875 74.21875 
Q 47.75 74.21875 53.53125 72.484375 
Q 59.328125 70.75 64.40625 67.28125 
" id="BitstreamVeraSans-Roman-43"/>
      <path d="M 34.1875 63.1875 
L 20.796875 26.90625 
L 47.609375 26.90625 
z
M 28.609375 72.90625 
L 39.796875 72.90625 
L 67.578125 0 
L 57.328125 0 
L 50.6875 18.703125 
L 17.828125 18.703125 
L 11.1875 0 
L 0.78125 0 
z
" id="BitstreamVeraSans-Roman-41"/>
      <path d="M 25.390625 72.90625 
L 33.6875 72.90625 
L 8.296875 -9.28125 
L 0 -9.28125 
z
" id="BitstreamVeraSans-Roman-2f"/>
      <path d="M 45.40625 46.390625 
L 45.40625 75.984375 
L 54.390625 75.984375 
L 54.390625 0 
L 45.40625 0 
L 45.40625 8.203125 
Q 42.578125 3.328125 38.25 0.953125 
Q 33.9375 -1.421875 27.875 -1.421875 
Q 17.96875 -1.421875 11.734375 6.484375 
Q 5.515625 14.40625 5.515625 27.296875 
Q 5.515625 40.1875 11.734375 48.09375 
Q 17.96875 56 27.875 56 
Q 33.9375 56 38.25 53.625 
Q 42.578125 51.265625 45.40625 46.390625 
M 14.796875 27.296875 
Q 14.796875 17.390625 18.875 11.75 
Q 22.953125 6.109375 30.078125 6.109375 
Q 37.203125 6.109375 41.296875 11.75 
Q 45.40625 17.390625 45.40625 27.296875 
Q 45.40625 37.203125 41.296875 42.84375 
Q 37.203125 48.484375 30.078125 48.484375 
Q 22.953125 48.484375 18.875 42.84375 
Q 14.796875 37.203125 14.796875 27.296875 
" id="BitstreamVeraSans-Roman-64"/>
      <path d="M 48.78125 52.59375 
L 48.78125 44.1875 
Q 44.96875 46.296875 41.140625 47.34375 
Q 37.3125 48.390625 33.40625 48.390625 
Q 24.65625 48.390625 19.8125 42.84375 
Q 14.984375 37.3125 14.984375 27.296875 
Q 14.984375 17.28125 19.8125 11.734375 
Q 24.65625 6.203125 33.40625 6.203125 
Q 37.3125 6.203125 41.140625 7.25 
Q 44.96875 8.296875 48.78125 10.40625 
L 48.78125 2.09375 
Q 45.015625 0.34375 40.984375 -0.53125 
Q 36.96875 -1.421875 32.421875 -1.421875 
Q 20.0625 -1.421875 12.78125 6.34375 
Q 5.515625 14.109375 5.515625 27.296875 
Q 5.515625 40.671875 12.859375 48.328125 
Q 20.21875 56 33.015625 56 
Q 37.15625 56 41.109375 55.140625 
Q 45.0625 54.296875 48.78125 52.59375 
" id="BitstreamVeraSans-Roman-63"/>
     </defs>
     <g transform="translate(31.365 274.235625)rotate(-90.0)scale(0.12 -0.12)">
      <use xlink:href="#BitstreamVeraSans-Roman-41"/>
      <use x="68.392578125" xlink:href="#BitstreamVeraSans-Roman-63"/>
      <use x="123.373046875" xlink:href="#BitstreamVeraSans-Roman-63"/>
      <use x="178.353515625" xlink:href="#BitstreamVeraSans-Roman-65"/>
      <use x="239.876953125" xlink:href="#BitstreamVeraSans-Roman-6c"/>
      <use x="267.66015625" xlink:href="#BitstreamVeraSans-Roman-20"/>
      <use x="299.447265625" xlink:href="#BitstreamVeraSans-Roman-43"/>
      <use x="369.271484375" xlink:href="#BitstreamVeraSans-Roman-6d"/>
      <use x="466.68359375" xlink:href="#BitstreamVeraSans-Roman-64"/>
      <use x="530.16015625" xlink:href="#BitstreamVeraSans-Roman-20"/>
      <use x="561.947265625" xlink:href="#BitstreamVeraSans-Roman-5b"/>
      <use x="600.9609375" xlink:href="#BitstreamVeraSans-Roman-6d"/>
      <use x="698.373046875" xlink:href="#BitstreamVeraSans-Roman-2f"/>
      <use x="732.064453125" xlink:href="#BitstreamVeraSans-Roman-73"/>
      <use x="784.1640625" xlink:href="#BitstreamVeraSans-Roman-5e"/>
      <use x="867.953125" xlink:href="#BitstreamVeraSans-Roman-32"/>
      <use x="931.576171875" xlink:href="#BitstreamVeraSans-Roman-5d"/>
     </g>
    </g>
   </g>
   <g id="legend_1">
    <g id="patch_7">
     <path d="M 371.673 96.993 
L 511.2 96.993 
L 511.2 50.4 
L 371.673 50.4 
z
" style="fill:#ffffff;stroke:#000000;stroke-linejoin:miter;"/>
    </g>
    <g id="line2d_45">
     <path d="M 381.753 62.06175 
L 401.913 62.06175 
" style="fill:none;stroke:#008000;stroke-linecap:square;"/>
    </g>
    <g id="line2d_46"/>
    <g id="text_17">
     <!-- Proportional -->
     <defs>
      <path d="M 54.890625 33.015625 
L 54.890625 0 
L 45.90625 0 
L 45.90625 32.71875 
Q 45.90625 40.484375 42.875 44.328125 
Q 39.84375 48.1875 33.796875 48.1875 
Q 26.515625 48.1875 22.3125 43.546875 
Q 18.109375 38.921875 18.109375 30.90625 
L 18.109375 0 
L 9.078125 0 
L 9.078125 54.6875 
L 18.109375 54.6875 
L 18.109375 46.1875 
Q 21.34375 51.125 25.703125 53.5625 
Q 30.078125 56 35.796875 56 
Q 45.21875 56 50.046875 50.171875 
Q 54.890625 44.34375 54.890625 33.015625 
" id="BitstreamVeraSans-Roman-6e"/>
      <path d="M 34.28125 27.484375 
Q 23.390625 27.484375 19.1875 25 
Q 14.984375 22.515625 14.984375 16.5 
Q 14.984375 11.71875 18.140625 8.90625 
Q 21.296875 6.109375 26.703125 6.109375 
Q 34.1875 6.109375 38.703125 11.40625 
Q 43.21875 16.703125 43.21875 25.484375 
L 43.21875 27.484375 
z
M 52.203125 31.203125 
L 52.203125 0 
L 43.21875 0 
L 43.21875 8.296875 
Q 40.140625 3.328125 35.546875 0.953125 
Q 30.953125 -1.421875 24.3125 -1.421875 
Q 15.921875 -1.421875 10.953125 3.296875 
Q 6 8.015625 6 15.921875 
Q 6 25.140625 12.171875 29.828125 
Q 18.359375 34.515625 30.609375 34.515625 
L 43.21875 34.515625 
L 43.21875 35.40625 
Q 43.21875 41.609375 39.140625 45 
Q 35.0625 48.390625 27.6875 48.390625 
Q 23 48.390625 18.546875 47.265625 
Q 14.109375 46.140625 10.015625 43.890625 
L 10.015625 52.203125 
Q 14.9375 54.109375 19.578125 55.046875 
Q 24.21875 56 28.609375 56 
Q 40.484375 56 46.34375 49.84375 
Q 52.203125 43.703125 52.203125 31.203125 
" id="BitstreamVeraSans-Roman-61"/>
      <path d="M 30.609375 48.390625 
Q 23.390625 48.390625 19.1875 42.75 
Q 14.984375 37.109375 14.984375 27.296875 
Q 14.984375 17.484375 19.15625 11.84375 
Q 23.34375 6.203125 30.609375 6.203125 
Q 37.796875 6.203125 41.984375 11.859375 
Q 46.1875 17.53125 46.1875 27.296875 
Q 46.1875 37.015625 41.984375 42.703125 
Q 37.796875 48.390625 30.609375 48.390625 
M 30.609375 56 
Q 42.328125 56 49.015625 48.375 
Q 55.71875 40.765625 55.71875 27.296875 
Q 55.71875 13.875 49.015625 6.21875 
Q 42.328125 -1.421875 30.609375 -1.421875 
Q 18.84375 -1.421875 12.171875 6.21875 
Q 5.515625 13.875 5.515625 27.296875 
Q 5.515625 40.765625 12.171875 48.375 
Q 18.84375 56 30.609375 56 
" id="BitstreamVeraSans-Roman-6f"/>
      <path d="M 19.671875 64.796875 
L 19.671875 37.40625 
L 32.078125 37.40625 
Q 38.96875 37.40625 42.71875 40.96875 
Q 46.484375 44.53125 46.484375 51.125 
Q 46.484375 57.671875 42.71875 61.234375 
Q 38.96875 64.796875 32.078125 64.796875 
z
M 9.8125 72.90625 
L 32.078125 72.90625 
Q 44.34375 72.90625 50.609375 67.359375 
Q 56.890625 61.8125 56.890625 51.125 
Q 56.890625 40.328125 50.609375 34.8125 
Q 44.34375 29.296875 32.078125 29.296875 
L 19.671875 29.296875 
L 19.671875 0 
L 9.8125 0 
z
" id="BitstreamVeraSans-Roman-50"/>
      <path d="M 18.3125 70.21875 
L 18.3125 54.6875 
L 36.8125 54.6875 
L 36.8125 47.703125 
L 18.3125 47.703125 
L 18.3125 18.015625 
Q 18.3125 11.328125 20.140625 9.421875 
Q 21.96875 7.515625 27.59375 7.515625 
L 36.8125 7.515625 
L 36.8125 0 
L 27.59375 0 
Q 17.1875 0 13.234375 3.875 
Q 9.28125 7.765625 9.28125 18.015625 
L 9.28125 47.703125 
L 2.6875 47.703125 
L 2.6875 54.6875 
L 9.28125 54.6875 
L 9.28125 70.21875 
z
" id="BitstreamVeraSans-Roman-74"/>
      <path d="M 41.109375 46.296875 
Q 39.59375 47.171875 37.8125 47.578125 
Q 36.03125 48 33.890625 48 
Q 26.265625 48 22.1875 43.046875 
Q 18.109375 38.09375 18.109375 28.8125 
L 18.109375 0 
L 9.078125 0 
L 9.078125 54.6875 
L 18.109375 54.6875 
L 18.109375 46.1875 
Q 20.953125 51.171875 25.484375 53.578125 
Q 30.03125 56 36.53125 56 
Q 37.453125 56 38.578125 55.875 
Q 39.703125 55.765625 41.0625 55.515625 
z
" id="BitstreamVeraSans-Roman-72"/>
      <path d="M 18.109375 8.203125 
L 18.109375 -20.796875 
L 9.078125 -20.796875 
L 9.078125 54.6875 
L 18.109375 54.6875 
L 18.109375 46.390625 
Q 20.953125 51.265625 25.265625 53.625 
Q 29.59375 56 35.59375 56 
Q 45.5625 56 51.78125 48.09375 
Q 58.015625 40.1875 58.015625 27.296875 
Q 58.015625 14.40625 51.78125 6.484375 
Q 45.5625 -1.421875 35.59375 -1.421875 
Q 29.59375 -1.421875 25.265625 0.953125 
Q 20.953125 3.328125 18.109375 8.203125 
M 48.6875 27.296875 
Q 48.6875 37.203125 44.609375 42.84375 
Q 40.53125 48.484375 33.40625 48.484375 
Q 26.265625 48.484375 22.1875 42.84375 
Q 18.109375 37.203125 18.109375 27.296875 
Q 18.109375 17.390625 22.1875 11.75 
Q 26.265625 6.109375 33.40625 6.109375 
Q 40.53125 6.109375 44.609375 11.75 
Q 48.6875 17.390625 48.6875 27.296875 
" id="BitstreamVeraSans-Roman-70"/>
     </defs>
     <g transform="translate(417.753 67.10175)scale(0.144 -0.144)">
      <use xlink:href="#BitstreamVeraSans-Roman-50"/>
      <use x="60.287109375" xlink:href="#BitstreamVeraSans-Roman-72"/>
      <use x="101.369140625" xlink:href="#BitstreamVeraSans-Roman-6f"/>
      <use x="162.55078125" xlink:href="#BitstreamVeraSans-Roman-70"/>
      <use x="226.02734375" xlink:href="#BitstreamVeraSans-Roman-6f"/>
      <use x="287.208984375" xlink:href="#BitstreamVeraSans-Roman-72"/>
      <use x="328.322265625" xlink:href="#BitstreamVeraSans-Roman-74"/>
      <use x="367.53125" xlink:href="#BitstreamVeraSans-Roman-69"/>
      <use x="395.314453125" xlink:href="#BitstreamVeraSans-Roman-6f"/>
      <use x="456.49609375" xlink:href="#BitstreamVeraSans-Roman-6e"/>
      <use x="519.875" xlink:href="#BitstreamVeraSans-Roman-61"/>
      <use x="581.154296875" xlink:href="#BitstreamVeraSans-Roman-6c"/>
     </g>
    </g>
    <g id="line2d_47">
     <path d="M 381.753 83.19825 
L 401.913 83.19825 
" style="fill:none;stroke:#0000ff;stroke-linecap:square;"/>
    </g>
    <g id="line2d_48"/>
    <g id="text_18">
     <!-- Integral -->
     <defs>
      <path d="M 45.40625 27.984375 
Q 45.40625 37.75 41.375 43.109375 
Q 37.359375 48.484375 30.078125 48.484375 
Q 22.859375 48.484375 18.828125 43.109375 
Q 14.796875 37.75 14.796875 27.984375 
Q 14.796875 18.265625 18.828125 12.890625 
Q 22.859375 7.515625 30.078125 7.515625 
Q 37.359375 7.515625 41.375 12.890625 
Q 45.40625 18.265625 45.40625 27.984375 
M 54.390625 6.78125 
Q 54.390625 -7.171875 48.1875 -13.984375 
Q 42 -20.796875 29.203125 -20.796875 
Q 24.46875 -20.796875 20.265625 -20.09375 
Q 16.0625 -19.390625 12.109375 -17.921875 
L 12.109375 -9.1875 
Q 16.0625 -11.328125 19.921875 -12.34375 
Q 23.78125 -13.375 27.78125 -13.375 
Q 36.625 -13.375 41.015625 -8.765625 
Q 45.40625 -4.15625 45.40625 5.171875 
L 45.40625 9.625 
Q 42.625 4.78125 38.28125 2.390625 
Q 33.9375 0 27.875 0 
Q 17.828125 0 11.671875 7.65625 
Q 5.515625 15.328125 5.515625 27.984375 
Q 5.515625 40.671875 11.671875 48.328125 
Q 17.828125 56 27.875 56 
Q 33.9375 56 38.28125 53.609375 
Q 42.625 51.21875 45.40625 46.390625 
L 45.40625 54.6875 
L 54.390625 54.6875 
z
" id="BitstreamVeraSans-Roman-67"/>
      <path d="M 9.8125 72.90625 
L 19.671875 72.90625 
L 19.671875 0 
L 9.8125 0 
z
" id="BitstreamVeraSans-Roman-49"/>
     </defs>
     <g transform="translate(417.753 88.23825)scale(0.144 -0.144)">
      <use xlink:href="#BitstreamVeraSans-Roman-49"/>
      <use x="29.4921875" xlink:href="#BitstreamVeraSans-Roman-6e"/>
      <use x="92.87109375" xlink:href="#BitstreamVeraSans-Roman-74"/>
      <use x="132.080078125" xlink:href="#BitstreamVeraSans-Roman-65"/>
      <use x="193.603515625" xlink:href="#BitstreamVeraSans-Roman-67"/>
      <use x="257.080078125" xlink:href="#BitstreamVeraSans-Roman-72"/>
      <use x="298.193359375" xlink:href="#BitstreamVeraSans-Roman-61"/>
      <use x="359.47265625" xlink:href="#BitstreamVeraSans-Roman-6c"/>
     </g>
    </g>
   </g>
  </g>
 </g>
 <defs>
  <clipPath id="p2db76c80d4">
   <rect height="345.6" width="446.4" x="72.0" y="43.2"/>
  </clipPath>
 </defs>
</svg>
