<?xml version="1.0" encoding="utf-8" standalone="no"?>
<!DOCTYPE svg PUBLIC "-//W3C//DTD SVG 1.1//EN"
  "http://www.w3.org/Graphics/SVG/1.1/DTD/svg11.dtd">
<!-- Created with matplotlib (http://matplotlib.org/) -->
<svg height="432pt" version="1.1" viewBox="0 0 576 432" width="576pt" xmlns="http://www.w3.org/2000/svg" xmlns:xlink="http://www.w3.org/1999/xlink">
 <defs>
  <style type="text/css">
*{stroke-linecap:butt;stroke-linejoin:round;stroke-miterlimit:100000;}
  </style>
 </defs>
 <g id="figure_1">
  <g id="patch_1">
   <path d="M 0 432 
L 576 432 
L 576 0 
L 0 0 
z
" style="fill:#ffffff;"/>
  </g>
  <g id="axes_1">
   <g id="patch_2">
    <path d="M 72 388.8 
L 518.4 388.8 
L 518.4 43.2 
L 72 43.2 
z
" style="fill:#ffffff;"/>
   </g>
   <g id="line2d_1">
    <path clip-path="url(#p22abf96e6a)" d="M 76.0176 273.397623 
L 106.5216 273.141918 
L 106.6704 265.735391 
L 106.8192 265.734439 
L 106.968 270.626854 
L 107.1168 270.625717 
L 107.2656 273.136508 
L 123.1872 273.005438 
L 123.336 270.492292 
L 123.6336 270.490047 
L 123.7824 268.042241 
L 123.9312 268.041211 
L 124.08 265.593498 
L 124.6752 265.589747 
L 124.824 263.142126 
L 124.9728 263.141281 
L 125.1216 260.693753 
L 125.7168 260.690741 
L 125.8656 258.243305 
L 126.0144 258.242644 
L 126.1632 255.795301 
L 127.3536 255.790753 
L 127.5024 253.343502 
L 127.8 253.34255 
L 127.9488 250.895391 
L 129.288 250.891935 
L 129.4368 248.444869 
L 130.3296 248.443118 
L 130.4784 245.996144 
L 131.8176 245.994347 
L 131.9664 243.547464 
L 135.0912 243.545206 
L 135.24 241.098415 
L 136.4304 241.098291 
L 136.5792 238.651593 
L 137.0256 238.651822 
L 137.1744 241.098582 
L 138.6624 241.098427 
L 138.8112 238.651728 
L 139.1088 238.651881 
L 139.2576 241.09864 
L 140.5968 241.098501 
L 140.7456 238.651802 
L 160.6848 238.662025 
L 160.8336 241.108784 
L 160.9824 241.108768 
L 161.1312 238.662069 
L 166.0416 238.66458 
L 166.1904 241.111339 
L 167.232 241.111227 
L 167.3808 238.664528 
L 172.5888 238.667188 
L 172.7376 241.113947 
L 174.0768 241.113802 
L 174.2256 238.667103 
L 179.4336 238.66976 
L 179.5824 241.116518 
L 180.9216 241.116373 
L 181.0704 238.669673 
L 181.2192 238.669749 
L 181.368 241.116508 
L 182.112 241.116427 
L 182.2608 238.669728 
L 187.4688 238.672382 
L 187.6176 241.11914 
L 189.552 241.118928 
L 189.7008 238.672229 
L 189.8496 238.672305 
L 189.9984 241.119064 
L 191.04 241.11895 
L 191.1888 238.67225 
L 196.3968 238.674901 
L 196.5456 241.12166 
L 198.1824 241.121479 
L 198.3312 238.67478 
L 198.48 238.674856 
L 198.6288 241.121614 
L 199.6704 241.1215 
L 199.8192 238.6748 
L 199.968 238.674876 
L 200.1168 241.121635 
L 201.456 241.121487 
L 201.6048 238.674788 
L 206.8128 238.677436 
L 206.9616 241.124194 
L 208.3008 241.124046 
L 208.4496 238.677346 
L 208.5984 238.677422 
L 208.7472 241.12418 
L 209.7888 241.124065 
L 209.9376 238.677365 
L 210.0864 238.677441 
L 210.2352 241.124199 
L 211.5744 241.124051 
L 211.7232 238.677351 
L 211.872 238.677427 
L 212.0208 241.124186 
L 213.36 241.124037 
L 213.5088 238.677338 
L 213.6576 238.677413 
L 213.8064 241.124172 
L 214.2528 241.124122 
L 214.4016 238.677423 
L 219.6096 238.680068 
L 219.7584 241.126826 
L 221.6928 241.12661 
L 221.8416 238.679911 
L 221.9904 238.679986 
L 222.1392 241.126745 
L 222.5856 241.126695 
L 222.7344 236.233313 
L 222.8832 236.23348 
L 223.032 228.893599 
L 223.1808 228.894043 
L 223.3296 221.554439 
L 223.4784 221.555159 
L 223.6272 211.769148 
L 223.776 211.770237 
L 223.9248 206.87796 
L 224.0736 206.879234 
L 224.2224 199.540459 
L 224.3712 199.542009 
L 224.52 192.20351 
L 224.6688 192.205337 
L 224.8176 187.313799 
L 224.9664 187.31581 
L 225.1152 182.424456 
L 225.264 182.426653 
L 225.4128 175.088801 
L 225.5616 175.091275 
L 225.7104 172.647066 
L 225.8592 172.649633 
L 226.008 167.758834 
L 226.1568 167.761586 
L 226.3056 162.870972 
L 226.4544 162.87391 
L 226.6032 160.430164 
L 226.752 160.433195 
L 226.9008 155.54286 
L 227.0496 155.546077 
L 227.1984 150.655928 
L 227.3472 150.65933 
L 227.496 148.21605 
L 227.6448 148.219546 
L 227.7936 145.77636 
L 227.9424 145.77995 
L 228.0912 140.890175 
L 228.24 140.893951 
L 228.3888 138.451045 
L 228.5376 138.454916 
L 228.6864 133.565421 
L 228.8352 133.569478 
L 228.984 131.126854 
L 229.1328 131.131005 
L 229.2816 128.688475 
L 229.728 128.701217 
L 229.8768 126.258783 
L 230.0256 126.263126 
L 230.1744 121.374104 
L 230.6208 121.3877 
L 230.7696 118.945551 
L 231.216 118.959439 
L 231.3648 114.070704 
L 232.1088 114.094811 
L 232.2576 111.652953 
L 232.4064 111.657872 
L 232.5552 109.21611 
L 233.1504 89.663837 
L 234.0432 89.698476 
L 234.192 84.81089 
L 234.4896 84.822829 
L 234.6384 82.382118 
L 235.8288 82.430718 
L 235.9776 77.543436 
L 236.1264 77.549709 
L 236.2752 82.449351 
L 236.424 82.455441 
L 236.5728 84.908216 
L 236.7216 84.914215 
L 236.8704 82.473533 
L 237.0192 82.479631 
L 237.168 84.932413 
L 237.6144 84.95044 
L 237.7632 80.063087 
L 237.912 80.069291 
L 238.0608 82.522179 
L 238.2096 80.081609 
L 238.3584 80.087819 
L 238.5072 82.540714 
L 238.9536 82.559076 
L 239.1024 77.671836 
L 239.2512 77.678152 
L 239.4 80.131153 
L 239.5488 80.137379 
L 239.6976 77.696924 
L 239.8464 77.703249 
L 239.9952 80.156258 
L 240.4416 80.174966 
L 240.5904 82.627889 
L 240.7392 80.187353 
L 240.888 80.193597 
L 241.0368 82.646525 
L 241.7808 82.677308 
L 241.9296 80.236788 
L 242.0784 80.243047 
L 242.2272 77.802626 
L 242.376 77.808986 
L 242.5248 80.26203 
L 243.5664 80.305948 
L 243.7152 82.758912 
L 243.864 82.765101 
L 244.0128 87.664656 
L 245.5008 87.724739 
L 245.6496 92.624123 
L 246.3936 92.653276 
L 246.6912 85.325094 
L 246.9888 85.337354 
L 247.1376 80.45012 
L 247.2864 80.456448 
L 247.4352 82.909461 
L 247.584 78.02233 
L 248.0304 78.041628 
L 248.1792 80.494747 
L 248.328 80.501089 
L 248.4768 85.400799 
L 249.3696 85.437738 
L 249.5184 87.890584 
L 249.6672 87.896652 
L 249.816 90.349405 
L 250.1136 90.361355 
L 250.2624 92.814015 
L 250.4112 92.819897 
L 250.56 90.379098 
L 250.7088 90.385081 
L 250.8576 92.837749 
L 252.1968 92.890809 
L 252.3456 97.790078 
L 253.536 97.835802 
L 253.6848 95.394842 
L 253.8336 95.400664 
L 253.9824 97.853171 
L 254.1312 97.858898 
L 254.28 100.31131 
L 255.4704 100.356409 
L 255.6192 102.808736 
L 256.512 102.842041 
L 256.6608 105.29428 
L 257.1072 105.31066 
L 257.256 107.762806 
L 257.4048 107.768171 
L 257.5536 105.326855 
L 258.4464 105.359677 
L 258.5952 107.811835 
L 260.6784 107.887242 
L 260.8272 110.339321 
L 260.976 110.344619 
L 261.1248 105.456552 
L 261.8688 105.484064 
L 262.0176 107.936253 
L 263.8032 108.001238 
L 263.952 110.453345 
L 264.2496 110.463996 
L 264.3984 108.022641 
L 266.7792 108.109667 
L 266.928 113.008483 
L 267.0768 110.56705 
L 268.5648 110.620629 
L 268.7136 108.179311 
L 268.8624 108.184778 
L 269.0112 110.636929 
L 270.3504 110.685292 
L 270.4992 105.797306 
L 271.6896 105.842015 
L 271.8384 103.400926 
L 272.136 103.412323 
L 272.2848 98.524658 
L 272.4336 98.530563 
L 272.5824 103.429835 
L 273.7728 103.475513 
L 273.9216 105.927912 
L 274.6656 105.956003 
L 274.8144 103.514943 
L 275.5584 103.543586 
L 275.7072 105.996002 
L 276.6 106.029813 
L 276.7488 108.482136 
L 278.6832 108.554243 
L 278.832 106.113116 
L 280.1712 106.164104 
L 280.32 108.616459 
L 281.3616 108.655477 
L 281.5104 111.107739 
L 282.552 111.146105 
L 282.7008 113.598274 
L 282.8496 111.156974 
L 283.1472 111.168389 
L 283.296 108.771727 
L 283.4448 108.822644 
L 283.5936 106.428828 
L 284.784 106.847187 
L 284.9328 111.776515 
L 287.1648 112.505219 
L 287.3136 110.125151 
L 287.4624 110.174939 
L 287.6112 112.65172 
L 288.3552 112.892056 
L 288.504 110.516784 
L 288.9504 110.665059 
L 289.0992 113.135047 
L 289.8432 113.373434 
L 289.992 111.004129 
L 290.4384 111.151207 
L 290.5872 113.614466 
L 291.0336 113.75646 
L 291.1824 111.3919 
L 291.9264 111.635253 
L 292.0752 114.09182 
L 292.5216 114.232671 
L 292.6704 111.874008 
L 293.1168 112.018967 
L 293.2656 114.470235 
L 293.712 114.610186 
L 293.8608 112.256195 
L 295.7952 112.877856 
L 295.944 115.31728 
L 296.0928 115.3633 
L 296.2416 113.018623 
L 296.688 113.160831 
L 296.8368 120.37276 
L 296.9856 120.415654 
L 297.1344 125.232601 
L 297.2832 125.27262 
L 297.432 132.470406 
L 297.5808 132.506328 
L 297.7296 137.31201 
L 297.8784 137.345308 
L 298.0272 142.146385 
L 298.176 142.17716 
L 298.3248 149.35678 
L 298.4736 149.383971 
L 298.6224 154.175306 
L 298.7712 154.20022 
L 298.92 158.987621 
L 299.0688 159.010355 
L 299.2176 163.794013 
L 299.3664 163.814663 
L 299.5152 166.215035 
L 299.664 166.234669 
L 299.8128 171.012336 
L 299.9616 171.030031 
L 300.1104 175.80443 
L 300.2592 175.820281 
L 300.408 178.213862 
L 300.5568 178.228821 
L 300.7056 182.998054 
L 300.8544 183.011312 
L 301.0032 185.401154 
L 301.152 185.413592 
L 301.3008 187.802088 
L 301.4496 187.81373 
L 301.5984 192.576484 
L 301.7472 192.586614 
L 301.896 194.97184 
L 302.0448 194.981244 
L 302.1936 197.365311 
L 302.3424 197.374015 
L 302.4912 199.756968 
L 302.64 199.764995 
L 302.7888 202.146882 
L 302.9376 202.154255 
L 303.0864 204.535122 
L 303.2352 204.541864 
L 303.384 206.921757 
L 303.5328 206.927893 
L 303.6816 209.306859 
L 304.128 209.323511 
L 304.2768 211.701294 
L 304.4256 211.706284 
L 304.5744 214.083231 
L 304.7232 214.087683 
L 304.872 216.463841 
L 305.0208 216.467779 
L 305.1696 218.843193 
L 305.616 218.853533 
L 305.7648 221.22804 
L 306.2112 221.236972 
L 306.36 223.61064 
L 306.5088 223.613172 
L 306.6576 225.986234 
L 307.4016 225.996779 
L 307.5504 228.368998 
L 307.9968 228.374124 
L 308.1456 230.745711 
L 308.8896 230.752368 
L 309.0384 233.123295 
L 309.1872 233.124272 
L 309.336 235.494773 
L 310.6752 235.500586 
L 310.824 237.87051 
L 311.568 237.872195 
L 311.7168 240.24173 
L 313.3536 240.242291 
L 313.5024 242.611515 
L 315.1392 242.609181 
L 315.288 244.978251 
L 316.032 244.975987 
L 316.1808 242.60613 
L 316.3296 242.605918 
L 316.4784 244.975129 
L 318.1152 244.970152 
L 318.264 247.339366 
L 318.4128 247.338696 
L 318.5616 244.968296 
L 319.6032 244.965133 
L 319.752 247.334573 
L 320.3472 247.331893 
L 320.496 244.961173 
L 321.0912 244.959369 
L 321.24 247.329068 
L 331.2096 247.284335 
L 331.3584 244.911381 
L 331.5072 244.910934 
L 331.656 247.282817 
L 334.4832 247.270184 
L 334.632 244.896564 
L 334.7808 244.896119 
L 334.9296 247.26867 
L 336.2688 247.262695 
L 336.4176 244.888723 
L 336.5664 244.888279 
L 336.7152 247.261183 
L 337.7568 247.25654 
L 337.9056 244.882279 
L 338.352 244.880948 
L 338.5008 247.254183 
L 339.5424 247.249545 
L 339.6912 244.874954 
L 340.1376 244.873626 
L 340.2864 247.247192 
L 341.328 247.242558 
L 341.4768 244.867638 
L 342.2208 244.865429 
L 342.3696 247.239364 
L 343.1136 247.236057 
L 343.2624 244.860832 
L 344.0064 244.858626 
L 344.1552 247.232868 
L 345.1968 247.228243 
L 345.3456 244.85265 
L 346.0896 244.850448 
L 346.2384 247.22506 
L 346.9824 247.22176 
L 347.1312 244.845861 
L 348.1728 244.842783 
L 348.3216 247.217741 
L 349.0656 247.214444 
L 349.2144 244.838201 
L 350.256 244.835129 
L 350.4048 247.210432 
L 350.8512 247.208456 
L 351 244.831931 
L 352.6368 244.82711 
L 352.7856 247.202776 
L 353.232 247.200802 
L 353.3808 244.823916 
L 355.0176 244.819105 
L 355.1664 247.195132 
L 355.3152 247.194474 
L 355.464 244.817291 
L 357.2496 244.81205 
L 357.3984 247.188396 
L 357.5472 247.187739 
L 357.696 244.810238 
L 359.4816 244.805005 
L 359.6304 247.18167 
L 359.7792 247.181014 
L 359.928 244.803195 
L 371.9808 244.768054 
L 372.1296 242.388855 
L 373.32 242.387348 
L 373.4688 244.766001 
L 375.2544 244.760821 
L 375.4032 242.381296 
L 376.5936 242.379795 
L 376.7424 244.758775 
L 378.6768 244.753173 
L 378.8256 242.373303 
L 380.3136 242.371437 
L 380.4624 244.750779 
L 381.9504 244.746477 
L 382.0992 242.366305 
L 384.1824 242.363704 
L 384.3312 244.74338 
L 385.968 244.738657 
L 386.1168 242.358133 
L 388.2 242.355543 
L 388.3488 244.735573 
L 389.8368 244.731287 
L 389.9856 242.350431 
L 392.664 242.347117 
L 392.8128 244.727512 
L 394.0032 244.724089 
L 394.152 242.342909 
L 396.9792 242.339427 
L 397.128 244.720155 
L 397.872 244.718019 
L 398.0208 242.336564 
L 402.4848 242.33109 
L 402.6336 244.71218 
L 403.3776 244.710048 
L 403.5264 242.328234 
L 407.9904 242.322787 
L 408.1392 244.704237 
L 408.5856 244.70296 
L 408.7344 242.320826 
L 414.24 242.31414 
L 414.3888 244.695965 
L 414.5376 244.69554 
L 414.6864 242.313072 
L 432.9888 242.29105 
L 433.1376 239.907868 
L 434.1792 239.908497 
L 434.328 242.291562 
L 441.024 242.283575 
L 441.1728 239.900071 
L 441.9168 239.900525 
L 442.0656 242.28392 
L 442.3632 242.283566 
L 442.512 239.900061 
L 443.1072 239.900424 
L 443.256 242.283824 
L 443.4048 242.283647 
L 443.5536 239.900146 
L 444.1488 239.900509 
L 444.2976 242.283905 
L 444.4464 242.283728 
L 444.5952 239.90023 
L 445.1904 239.900593 
L 445.3392 242.283986 
L 452.0352 242.276037 
L 452.184 239.892207 
L 452.928 239.892665 
L 453.0768 242.276388 
L 453.2256 242.276212 
L 453.3744 239.892389 
L 453.9696 239.892756 
L 454.1184 242.276475 
L 454.416 242.276122 
L 454.5648 239.892296 
L 455.3088 239.892754 
L 455.4576 242.276474 
L 455.904 242.275945 
L 456.0528 239.892111 
L 457.0944 239.892753 
L 457.2432 242.276472 
L 463.9392 242.268559 
L 464.088 239.884406 
L 464.832 239.884869 
L 464.9808 242.268916 
L 465.4272 242.26839 
L 465.576 239.884229 
L 466.6176 239.884878 
L 466.7664 242.268925 
L 467.2128 242.268398 
L 467.3616 239.884238 
L 468.4032 239.884887 
L 468.552 242.268933 
L 468.9984 242.268407 
L 469.1472 239.884247 
L 470.1888 239.884896 
L 470.3376 242.268942 
L 470.784 242.268416 
L 470.9328 239.884256 
L 471.9744 239.884905 
L 472.1232 242.26895 
L 472.5696 242.268424 
L 472.7184 239.884265 
L 473.1648 239.884543 
L 473.3136 242.268604 
L 479.712 242.261078 
L 479.8608 239.876602 
L 480.3072 239.876883 
L 480.456 242.261263 
L 480.6048 242.261088 
L 480.7536 239.876612 
L 481.2 239.876893 
L 481.3488 242.261272 
L 481.4976 242.261097 
L 481.6464 239.876622 
L 482.0928 239.876902 
L 482.2416 242.261281 
L 482.3904 242.261107 
L 482.5392 239.876632 
L 482.9856 239.876912 
L 483.1344 242.261291 
L 483.2832 242.261116 
L 483.432 239.876641 
L 483.7296 239.876828 
L 483.8784 242.26121 
L 484.0272 242.261036 
L 484.176 239.876558 
L 484.7712 239.876932 
L 484.92 242.26131 
L 485.0688 242.261135 
L 485.2176 239.876661 
L 485.664 239.876942 
L 485.8128 242.261319 
L 485.9616 242.261144 
L 486.1104 239.876671 
L 486.5568 239.876951 
L 486.7056 242.261328 
L 487.152 242.260805 
L 487.3008 239.876316 
L 488.1936 239.876878 
L 488.3424 242.261258 
L 488.4912 242.261083 
L 488.64 239.876607 
L 489.0864 239.876887 
L 489.2352 242.261267 
L 489.6816 242.260743 
L 489.8304 239.876252 
L 491.0208 239.877001 
L 491.1696 242.261376 
L 491.616 242.260852 
L 491.7648 239.876366 
L 492.6576 239.876927 
L 492.8064 242.261305 
L 493.104 242.260956 
L 493.2528 239.876474 
L 493.9968 239.876942 
L 494.1456 242.261319 
L 500.9904 242.253306 
L 501.1392 239.868494 
L 502.1808 239.869155 
L 502.3296 242.253857 
L 502.776 242.253335 
L 502.9248 239.868524 
L 503.8176 239.869091 
L 503.9664 242.253795 
L 504.4128 242.253274 
L 504.5616 239.86846 
L 505.4544 239.869027 
L 505.6032 242.253734 
L 505.752 242.25356 
L 505.9008 239.868759 
L 506.496 239.869137 
L 506.6448 242.253839 
L 506.9424 242.253492 
L 507.0912 239.868687 
L 507.5376 239.868971 
L 507.6864 242.25368 
L 507.8352 242.253506 
L 507.984 239.868703 
L 508.4304 239.868986 
L 508.5792 242.253695 
L 508.728 242.253521 
L 508.8768 239.868718 
L 509.3232 239.869001 
L 509.472 242.253709 
L 509.6208 242.253535 
L 509.7696 239.868733 
L 510.3648 239.869111 
L 510.5136 242.253814 
L 510.96 242.253293 
L 511.1088 239.86848 
L 512.0016 239.869047 
L 512.1504 242.253753 
L 512.2992 242.253579 
L 512.448 239.868779 
L 513.0432 239.869157 
L 513.192 242.253858 
L 513.4896 242.253511 
L 513.6384 239.868707 
L 514.0848 239.868991 
L 514.2336 242.253699 
L 514.5312 242.253351 
L 514.68 239.868541 
L 515.7216 239.869202 
L 515.8704 242.253902 
L 516.4656 242.253207 
L 516.6144 239.86839 
L 517.656 239.869052 
L 517.8048 242.253757 
L 518.1024 242.25341 
L 518.2512 239.868602 
L 518.4 239.868697 
L 518.4 239.868697 
" style="fill:none;stroke:#008000;stroke-linecap:square;"/>
   </g>
   <g id="line2d_2">
    <path clip-path="url(#p22abf96e6a)" d="M 76.0176 240.685714 
L 77.3568 240.685714 
L 77.5056 373.21276 
L 80.0352 373.305399 
L 83.0112 373.409617 
L 85.9872 373.537009 
L 89.112 373.641227 
L 91.9392 373.75704 
L 94.9152 373.861258 
L 97.4448 373.953911 
L 100.4208 374.058129 
L 103.0992 374.162362 
L 105.7776 374.26658 
L 108.3072 374.359218 
L 111.432 374.463451 
L 114.1104 374.567669 
L 117.0864 374.671887 
L 119.9136 374.7877 
L 123.0384 374.891918 
L 125.4192 374.972991 
L 225.264 374.868758 
L 229.728 374.417117 
L 240.5904 372.622147 
L 241.1856 372.48319 
L 241.7808 372.378957 
L 243.4176 372.101027 
L 248.328 371.232499 
L 248.7744 371.151426 
L 257.256 369.738619 
L 257.8512 369.657545 
L 287.1648 365.199078 
L 288.504 364.990627 
L 295.3488 364.037134 
L 296.688 363.934954 
L 300.7056 363.676093 
L 306.0624 363.53985 
L 355.464 363.64885 
L 358.1424 363.662468 
L 420.3408 363.771468 
L 422.8704 363.778273 
L 518.4 363.825961 
L 518.4 363.825961 
" style="fill:none;stroke:#000000;stroke-dasharray:6.000000,6.000000;stroke-dashoffset:0.0;"/>
   </g>
   <g id="line2d_3">
    <path clip-path="url(#p22abf96e6a)" d="M 76.0176 240.685714 
L 77.3568 240.685714 
L 77.5056 101.201026 
L 78.9936 101.098839 
L 80.7792 100.996651 
L 82.5648 100.853618 
L 84.4992 100.751431 
L 86.136 100.628806 
L 87.9216 100.526633 
L 89.5584 100.404008 
L 91.1952 100.301835 
L 92.6832 100.199647 
L 94.32 100.097474 
L 95.9568 99.974849 
L 97.8912 99.872662 
L 99.528 99.750066 
L 101.3136 99.647878 
L 102.9504 99.525253 
L 104.736 99.423081 
L 106.3728 99.30047 
L 108.1584 99.198283 
L 109.6464 99.096095 
L 111.432 98.993922 
L 113.0688 98.871297 
L 114.8544 98.76911 
L 116.64 98.626076 
L 118.4256 98.523889 
L 119.9136 98.421701 
L 121.5504 98.319528 
L 122.8896 98.237778 
L 124.5264 98.135591 
L 125.7168 98.074293 
L 130.1808 97.972105 
L 131.0736 97.951668 
L 179.4336 98.053855 
L 180.3264 98.074293 
L 224.0736 98.176481 
L 229.4304 99.01436 
L 231.216 99.402628 
L 232.2576 99.647878 
L 234.192 100.240522 
L 234.4896 100.342695 
L 234.7872 100.444883 
L 237.4656 101.282762 
L 238.656 101.67106 
L 240.888 102.386314 
L 241.9296 102.733722 
L 242.376 102.815472 
L 243.7152 103.265068 
L 245.6496 103.857727 
L 245.9472 104.00076 
L 246.2448 104.04165 
L 246.6912 104.164245 
L 247.8816 104.552543 
L 249.816 105.165624 
L 250.2624 105.308687 
L 254.28 106.493975 
L 254.7264 106.616585 
L 273.9216 111.786937 
L 274.0704 111.786937 
L 274.368 111.950423 
L 274.8144 112.032158 
L 288.8016 115.79241 
L 289.248 115.874146 
L 294.7536 117.279802 
L 300.2592 117.674898 
L 306.0624 117.831578 
L 355.464 117.722578 
L 358.1424 117.708961 
L 420.3408 117.59996 
L 422.8704 117.593155 
L 518.4 117.545468 
L 518.4 117.545468 
" style="fill:none;stroke:#000000;stroke-dasharray:6.000000,6.000000;stroke-dashoffset:0.0;"/>
   </g>
   <g id="patch_3">
    <path d="M 72 43.2 
L 518.4 43.2 
" style="fill:none;stroke:#000000;stroke-linecap:square;stroke-linejoin:miter;"/>
   </g>
   <g id="patch_4">
    <path d="M 518.4 388.8 
L 518.4 43.2 
" style="fill:none;stroke:#000000;stroke-linecap:square;stroke-linejoin:miter;"/>
   </g>
   <g id="patch_5">
    <path d="M 72 388.8 
L 518.4 388.8 
" style="fill:none;stroke:#000000;stroke-linecap:square;stroke-linejoin:miter;"/>
   </g>
   <g id="patch_6">
    <path d="M 72 388.8 
L 72 43.2 
" style="fill:none;stroke:#000000;stroke-linecap:square;stroke-linejoin:miter;"/>
   </g>
   <g id="matplotlib.axis_1">
    <g id="xtick_1">
     <g id="line2d_4">
      <path clip-path="url(#p22abf96e6a)" d="M 72 388.8 
L 72 43.2 
" style="fill:none;stroke:#000000;stroke-dasharray:1.000000,3.000000;stroke-dashoffset:0.0;stroke-width:0.5;"/>
     </g>
     <g id="line2d_5">
      <defs>
       <path d="M 0 0 
L 0 -4 
" id="madffc76008" style="stroke:#000000;stroke-width:0.5;"/>
      </defs>
      <g>
       <use style="stroke:#000000;stroke-width:0.5;" x="72.0" xlink:href="#madffc76008" y="388.8"/>
      </g>
     </g>
     <g id="line2d_6">
      <defs>
       <path d="M 0 0 
L 0 4 
" id="mc95c02f08a" style="stroke:#000000;stroke-width:0.5;"/>
      </defs>
      <g>
       <use style="stroke:#000000;stroke-width:0.5;" x="72.0" xlink:href="#mc95c02f08a" y="43.2"/>
      </g>
     </g>
     <g id="text_1">
      <!-- 0 -->
      <defs>
       <path d="M 31.78125 66.40625 
Q 24.171875 66.40625 20.328125 58.90625 
Q 16.5 51.421875 16.5 36.375 
Q 16.5 21.390625 20.328125 13.890625 
Q 24.171875 6.390625 31.78125 6.390625 
Q 39.453125 6.390625 43.28125 13.890625 
Q 47.125 21.390625 47.125 36.375 
Q 47.125 51.421875 43.28125 58.90625 
Q 39.453125 66.40625 31.78125 66.40625 
M 31.78125 74.21875 
Q 44.046875 74.21875 50.515625 64.515625 
Q 56.984375 54.828125 56.984375 36.375 
Q 56.984375 17.96875 50.515625 8.265625 
Q 44.046875 -1.421875 31.78125 -1.421875 
Q 19.53125 -1.421875 13.0625 8.265625 
Q 6.59375 17.96875 6.59375 36.375 
Q 6.59375 54.828125 13.0625 64.515625 
Q 19.53125 74.21875 31.78125 74.21875 
" id="BitstreamVeraSans-Roman-30"/>
      </defs>
      <g transform="translate(68.1825 401.918125)scale(0.12 -0.12)">
       <use xlink:href="#BitstreamVeraSans-Roman-30"/>
      </g>
     </g>
    </g>
    <g id="xtick_2">
     <g id="line2d_7">
      <path clip-path="url(#p22abf96e6a)" d="M 146.4 388.8 
L 146.4 43.2 
" style="fill:none;stroke:#000000;stroke-dasharray:1.000000,3.000000;stroke-dashoffset:0.0;stroke-width:0.5;"/>
     </g>
     <g id="line2d_8">
      <g>
       <use style="stroke:#000000;stroke-width:0.5;" x="146.4" xlink:href="#madffc76008" y="388.8"/>
      </g>
     </g>
     <g id="line2d_9">
      <g>
       <use style="stroke:#000000;stroke-width:0.5;" x="146.4" xlink:href="#mc95c02f08a" y="43.2"/>
      </g>
     </g>
     <g id="text_2">
      <!-- 5 -->
      <defs>
       <path d="M 10.796875 72.90625 
L 49.515625 72.90625 
L 49.515625 64.59375 
L 19.828125 64.59375 
L 19.828125 46.734375 
Q 21.96875 47.46875 24.109375 47.828125 
Q 26.265625 48.1875 28.421875 48.1875 
Q 40.625 48.1875 47.75 41.5 
Q 54.890625 34.8125 54.890625 23.390625 
Q 54.890625 11.625 47.5625 5.09375 
Q 40.234375 -1.421875 26.90625 -1.421875 
Q 22.3125 -1.421875 17.546875 -0.640625 
Q 12.796875 0.140625 7.71875 1.703125 
L 7.71875 11.625 
Q 12.109375 9.234375 16.796875 8.0625 
Q 21.484375 6.890625 26.703125 6.890625 
Q 35.15625 6.890625 40.078125 11.328125 
Q 45.015625 15.765625 45.015625 23.390625 
Q 45.015625 31 40.078125 35.4375 
Q 35.15625 39.890625 26.703125 39.890625 
Q 22.75 39.890625 18.8125 39.015625 
Q 14.890625 38.140625 10.796875 36.28125 
z
" id="BitstreamVeraSans-Roman-35"/>
      </defs>
      <g transform="translate(142.5825 401.918125)scale(0.12 -0.12)">
       <use xlink:href="#BitstreamVeraSans-Roman-35"/>
      </g>
     </g>
    </g>
    <g id="xtick_3">
     <g id="line2d_10">
      <path clip-path="url(#p22abf96e6a)" d="M 220.8 388.8 
L 220.8 43.2 
" style="fill:none;stroke:#000000;stroke-dasharray:1.000000,3.000000;stroke-dashoffset:0.0;stroke-width:0.5;"/>
     </g>
     <g id="line2d_11">
      <g>
       <use style="stroke:#000000;stroke-width:0.5;" x="220.8" xlink:href="#madffc76008" y="388.8"/>
      </g>
     </g>
     <g id="line2d_12">
      <g>
       <use style="stroke:#000000;stroke-width:0.5;" x="220.8" xlink:href="#mc95c02f08a" y="43.2"/>
      </g>
     </g>
     <g id="text_3">
      <!-- 10 -->
      <defs>
       <path d="M 12.40625 8.296875 
L 28.515625 8.296875 
L 28.515625 63.921875 
L 10.984375 60.40625 
L 10.984375 69.390625 
L 28.421875 72.90625 
L 38.28125 72.90625 
L 38.28125 8.296875 
L 54.390625 8.296875 
L 54.390625 0 
L 12.40625 0 
z
" id="BitstreamVeraSans-Roman-31"/>
      </defs>
      <g transform="translate(213.165 401.918125)scale(0.12 -0.12)">
       <use xlink:href="#BitstreamVeraSans-Roman-31"/>
       <use x="63.623046875" xlink:href="#BitstreamVeraSans-Roman-30"/>
      </g>
     </g>
    </g>
    <g id="xtick_4">
     <g id="line2d_13">
      <path clip-path="url(#p22abf96e6a)" d="M 295.2 388.8 
L 295.2 43.2 
" style="fill:none;stroke:#000000;stroke-dasharray:1.000000,3.000000;stroke-dashoffset:0.0;stroke-width:0.5;"/>
     </g>
     <g id="line2d_14">
      <g>
       <use style="stroke:#000000;stroke-width:0.5;" x="295.2" xlink:href="#madffc76008" y="388.8"/>
      </g>
     </g>
     <g id="line2d_15">
      <g>
       <use style="stroke:#000000;stroke-width:0.5;" x="295.2" xlink:href="#mc95c02f08a" y="43.2"/>
      </g>
     </g>
     <g id="text_4">
      <!-- 15 -->
      <g transform="translate(287.565 401.918125)scale(0.12 -0.12)">
       <use xlink:href="#BitstreamVeraSans-Roman-31"/>
       <use x="63.623046875" xlink:href="#BitstreamVeraSans-Roman-35"/>
      </g>
     </g>
    </g>
    <g id="xtick_5">
     <g id="line2d_16">
      <path clip-path="url(#p22abf96e6a)" d="M 369.6 388.8 
L 369.6 43.2 
" style="fill:none;stroke:#000000;stroke-dasharray:1.000000,3.000000;stroke-dashoffset:0.0;stroke-width:0.5;"/>
     </g>
     <g id="line2d_17">
      <g>
       <use style="stroke:#000000;stroke-width:0.5;" x="369.6" xlink:href="#madffc76008" y="388.8"/>
      </g>
     </g>
     <g id="line2d_18">
      <g>
       <use style="stroke:#000000;stroke-width:0.5;" x="369.6" xlink:href="#mc95c02f08a" y="43.2"/>
      </g>
     </g>
     <g id="text_5">
      <!-- 20 -->
      <defs>
       <path d="M 19.1875 8.296875 
L 53.609375 8.296875 
L 53.609375 0 
L 7.328125 0 
L 7.328125 8.296875 
Q 12.9375 14.109375 22.625 23.890625 
Q 32.328125 33.6875 34.8125 36.53125 
Q 39.546875 41.84375 41.421875 45.53125 
Q 43.3125 49.21875 43.3125 52.78125 
Q 43.3125 58.59375 39.234375 62.25 
Q 35.15625 65.921875 28.609375 65.921875 
Q 23.96875 65.921875 18.8125 64.3125 
Q 13.671875 62.703125 7.8125 59.421875 
L 7.8125 69.390625 
Q 13.765625 71.78125 18.9375 73 
Q 24.125 74.21875 28.421875 74.21875 
Q 39.75 74.21875 46.484375 68.546875 
Q 53.21875 62.890625 53.21875 53.421875 
Q 53.21875 48.921875 51.53125 44.890625 
Q 49.859375 40.875 45.40625 35.40625 
Q 44.1875 33.984375 37.640625 27.21875 
Q 31.109375 20.453125 19.1875 8.296875 
" id="BitstreamVeraSans-Roman-32"/>
      </defs>
      <g transform="translate(361.965 401.918125)scale(0.12 -0.12)">
       <use xlink:href="#BitstreamVeraSans-Roman-32"/>
       <use x="63.623046875" xlink:href="#BitstreamVeraSans-Roman-30"/>
      </g>
     </g>
    </g>
    <g id="xtick_6">
     <g id="line2d_19">
      <path clip-path="url(#p22abf96e6a)" d="M 444 388.8 
L 444 43.2 
" style="fill:none;stroke:#000000;stroke-dasharray:1.000000,3.000000;stroke-dashoffset:0.0;stroke-width:0.5;"/>
     </g>
     <g id="line2d_20">
      <g>
       <use style="stroke:#000000;stroke-width:0.5;" x="444.0" xlink:href="#madffc76008" y="388.8"/>
      </g>
     </g>
     <g id="line2d_21">
      <g>
       <use style="stroke:#000000;stroke-width:0.5;" x="444.0" xlink:href="#mc95c02f08a" y="43.2"/>
      </g>
     </g>
     <g id="text_6">
      <!-- 25 -->
      <g transform="translate(436.365 401.918125)scale(0.12 -0.12)">
       <use xlink:href="#BitstreamVeraSans-Roman-32"/>
       <use x="63.623046875" xlink:href="#BitstreamVeraSans-Roman-35"/>
      </g>
     </g>
    </g>
    <g id="xtick_7">
     <g id="line2d_22">
      <path clip-path="url(#p22abf96e6a)" d="M 518.4 388.8 
L 518.4 43.2 
" style="fill:none;stroke:#000000;stroke-dasharray:1.000000,3.000000;stroke-dashoffset:0.0;stroke-width:0.5;"/>
     </g>
     <g id="line2d_23">
      <g>
       <use style="stroke:#000000;stroke-width:0.5;" x="518.4" xlink:href="#madffc76008" y="388.8"/>
      </g>
     </g>
     <g id="line2d_24">
      <g>
       <use style="stroke:#000000;stroke-width:0.5;" x="518.4" xlink:href="#mc95c02f08a" y="43.2"/>
      </g>
     </g>
     <g id="text_7">
      <!-- 30 -->
      <defs>
       <path d="M 40.578125 39.3125 
Q 47.65625 37.796875 51.625 33 
Q 55.609375 28.21875 55.609375 21.1875 
Q 55.609375 10.40625 48.1875 4.484375 
Q 40.765625 -1.421875 27.09375 -1.421875 
Q 22.515625 -1.421875 17.65625 -0.515625 
Q 12.796875 0.390625 7.625 2.203125 
L 7.625 11.71875 
Q 11.71875 9.328125 16.59375 8.109375 
Q 21.484375 6.890625 26.8125 6.890625 
Q 36.078125 6.890625 40.9375 10.546875 
Q 45.796875 14.203125 45.796875 21.1875 
Q 45.796875 27.640625 41.28125 31.265625 
Q 36.765625 34.90625 28.71875 34.90625 
L 20.21875 34.90625 
L 20.21875 43.015625 
L 29.109375 43.015625 
Q 36.375 43.015625 40.234375 45.921875 
Q 44.09375 48.828125 44.09375 54.296875 
Q 44.09375 59.90625 40.109375 62.90625 
Q 36.140625 65.921875 28.71875 65.921875 
Q 24.65625 65.921875 20.015625 65.03125 
Q 15.375 64.15625 9.8125 62.3125 
L 9.8125 71.09375 
Q 15.4375 72.65625 20.34375 73.4375 
Q 25.25 74.21875 29.59375 74.21875 
Q 40.828125 74.21875 47.359375 69.109375 
Q 53.90625 64.015625 53.90625 55.328125 
Q 53.90625 49.265625 50.4375 45.09375 
Q 46.96875 40.921875 40.578125 39.3125 
" id="BitstreamVeraSans-Roman-33"/>
      </defs>
      <g transform="translate(510.765 401.918125)scale(0.12 -0.12)">
       <use xlink:href="#BitstreamVeraSans-Roman-33"/>
       <use x="63.623046875" xlink:href="#BitstreamVeraSans-Roman-30"/>
      </g>
     </g>
    </g>
    <g id="text_8">
     <!-- Time [s] -->
     <defs>
      <path id="BitstreamVeraSans-Roman-20"/>
      <path d="M 8.59375 75.984375 
L 29.296875 75.984375 
L 29.296875 69 
L 17.578125 69 
L 17.578125 -6.203125 
L 29.296875 -6.203125 
L 29.296875 -13.1875 
L 8.59375 -13.1875 
z
" id="BitstreamVeraSans-Roman-5b"/>
      <path d="M 30.421875 75.984375 
L 30.421875 -13.1875 
L 9.71875 -13.1875 
L 9.71875 -6.203125 
L 21.390625 -6.203125 
L 21.390625 69 
L 9.71875 69 
L 9.71875 75.984375 
z
" id="BitstreamVeraSans-Roman-5d"/>
      <path d="M 52 44.1875 
Q 55.375 50.25 60.0625 53.125 
Q 64.75 56 71.09375 56 
Q 79.640625 56 84.28125 50.015625 
Q 88.921875 44.046875 88.921875 33.015625 
L 88.921875 0 
L 79.890625 0 
L 79.890625 32.71875 
Q 79.890625 40.578125 77.09375 44.375 
Q 74.3125 48.1875 68.609375 48.1875 
Q 61.625 48.1875 57.5625 43.546875 
Q 53.515625 38.921875 53.515625 30.90625 
L 53.515625 0 
L 44.484375 0 
L 44.484375 32.71875 
Q 44.484375 40.625 41.703125 44.40625 
Q 38.921875 48.1875 33.109375 48.1875 
Q 26.21875 48.1875 22.15625 43.53125 
Q 18.109375 38.875 18.109375 30.90625 
L 18.109375 0 
L 9.078125 0 
L 9.078125 54.6875 
L 18.109375 54.6875 
L 18.109375 46.1875 
Q 21.1875 51.21875 25.484375 53.609375 
Q 29.78125 56 35.6875 56 
Q 41.65625 56 45.828125 52.96875 
Q 50 49.953125 52 44.1875 
" id="BitstreamVeraSans-Roman-6d"/>
      <path d="M 9.421875 54.6875 
L 18.40625 54.6875 
L 18.40625 0 
L 9.421875 0 
z
M 9.421875 75.984375 
L 18.40625 75.984375 
L 18.40625 64.59375 
L 9.421875 64.59375 
z
" id="BitstreamVeraSans-Roman-69"/>
      <path d="M 56.203125 29.59375 
L 56.203125 25.203125 
L 14.890625 25.203125 
Q 15.484375 15.921875 20.484375 11.0625 
Q 25.484375 6.203125 34.421875 6.203125 
Q 39.59375 6.203125 44.453125 7.46875 
Q 49.3125 8.734375 54.109375 11.28125 
L 54.109375 2.78125 
Q 49.265625 0.734375 44.1875 -0.34375 
Q 39.109375 -1.421875 33.890625 -1.421875 
Q 20.796875 -1.421875 13.15625 6.1875 
Q 5.515625 13.8125 5.515625 26.8125 
Q 5.515625 40.234375 12.765625 48.109375 
Q 20.015625 56 32.328125 56 
Q 43.359375 56 49.78125 48.890625 
Q 56.203125 41.796875 56.203125 29.59375 
M 47.21875 32.234375 
Q 47.125 39.59375 43.09375 43.984375 
Q 39.0625 48.390625 32.421875 48.390625 
Q 24.90625 48.390625 20.390625 44.140625 
Q 15.875 39.890625 15.1875 32.171875 
z
" id="BitstreamVeraSans-Roman-65"/>
      <path d="M -0.296875 72.90625 
L 61.375 72.90625 
L 61.375 64.59375 
L 35.5 64.59375 
L 35.5 0 
L 25.59375 0 
L 25.59375 64.59375 
L -0.296875 64.59375 
z
" id="BitstreamVeraSans-Roman-54"/>
      <path d="M 44.28125 53.078125 
L 44.28125 44.578125 
Q 40.484375 46.53125 36.375 47.5 
Q 32.28125 48.484375 27.875 48.484375 
Q 21.1875 48.484375 17.84375 46.4375 
Q 14.5 44.390625 14.5 40.28125 
Q 14.5 37.15625 16.890625 35.375 
Q 19.28125 33.59375 26.515625 31.984375 
L 29.59375 31.296875 
Q 39.15625 29.25 43.1875 25.515625 
Q 47.21875 21.78125 47.21875 15.09375 
Q 47.21875 7.46875 41.1875 3.015625 
Q 35.15625 -1.421875 24.609375 -1.421875 
Q 20.21875 -1.421875 15.453125 -0.5625 
Q 10.6875 0.296875 5.421875 2 
L 5.421875 11.28125 
Q 10.40625 8.6875 15.234375 7.390625 
Q 20.0625 6.109375 24.8125 6.109375 
Q 31.15625 6.109375 34.5625 8.28125 
Q 37.984375 10.453125 37.984375 14.40625 
Q 37.984375 18.0625 35.515625 20.015625 
Q 33.0625 21.96875 24.703125 23.78125 
L 21.578125 24.515625 
Q 13.234375 26.265625 9.515625 29.90625 
Q 5.8125 33.546875 5.8125 39.890625 
Q 5.8125 47.609375 11.28125 51.796875 
Q 16.75 56 26.8125 56 
Q 31.78125 56 36.171875 55.265625 
Q 40.578125 54.546875 44.28125 53.078125 
" id="BitstreamVeraSans-Roman-73"/>
     </defs>
     <g transform="translate(270.620625 418.531875)scale(0.12 -0.12)">
      <use xlink:href="#BitstreamVeraSans-Roman-54"/>
      <use x="61.037109375" xlink:href="#BitstreamVeraSans-Roman-69"/>
      <use x="88.8203125" xlink:href="#BitstreamVeraSans-Roman-6d"/>
      <use x="186.232421875" xlink:href="#BitstreamVeraSans-Roman-65"/>
      <use x="247.755859375" xlink:href="#BitstreamVeraSans-Roman-20"/>
      <use x="279.54296875" xlink:href="#BitstreamVeraSans-Roman-5b"/>
      <use x="318.556640625" xlink:href="#BitstreamVeraSans-Roman-73"/>
      <use x="370.65625" xlink:href="#BitstreamVeraSans-Roman-5d"/>
     </g>
    </g>
   </g>
   <g id="matplotlib.axis_2">
    <g id="ytick_1">
     <g id="line2d_25">
      <path clip-path="url(#p22abf96e6a)" d="M 72 388.8 
L 518.4 388.8 
" style="fill:none;stroke:#000000;stroke-dasharray:1.000000,3.000000;stroke-dashoffset:0.0;stroke-width:0.5;"/>
     </g>
     <g id="line2d_26">
      <defs>
       <path d="M 0 0 
L 4 0 
" id="m0418b69474" style="stroke:#000000;stroke-width:0.5;"/>
      </defs>
      <g>
       <use style="stroke:#000000;stroke-width:0.5;" x="72.0" xlink:href="#m0418b69474" y="388.8"/>
      </g>
     </g>
     <g id="line2d_27">
      <defs>
       <path d="M 0 0 
L -4 0 
" id="m069ac86cf6" style="stroke:#000000;stroke-width:0.5;"/>
      </defs>
      <g>
       <use style="stroke:#000000;stroke-width:0.5;" x="518.4" xlink:href="#m069ac86cf6" y="388.8"/>
      </g>
     </g>
     <g id="text_9">
      <!-- −0.6 -->
      <defs>
       <path d="M 10.59375 35.5 
L 73.1875 35.5 
L 73.1875 27.203125 
L 10.59375 27.203125 
z
" id="BitstreamVeraSans-Roman-2212"/>
       <path d="M 33.015625 40.375 
Q 26.375 40.375 22.484375 35.828125 
Q 18.609375 31.296875 18.609375 23.390625 
Q 18.609375 15.53125 22.484375 10.953125 
Q 26.375 6.390625 33.015625 6.390625 
Q 39.65625 6.390625 43.53125 10.953125 
Q 47.40625 15.53125 47.40625 23.390625 
Q 47.40625 31.296875 43.53125 35.828125 
Q 39.65625 40.375 33.015625 40.375 
M 52.59375 71.296875 
L 52.59375 62.3125 
Q 48.875 64.0625 45.09375 64.984375 
Q 41.3125 65.921875 37.59375 65.921875 
Q 27.828125 65.921875 22.671875 59.328125 
Q 17.53125 52.734375 16.796875 39.40625 
Q 19.671875 43.65625 24.015625 45.921875 
Q 28.375 48.1875 33.59375 48.1875 
Q 44.578125 48.1875 50.953125 41.515625 
Q 57.328125 34.859375 57.328125 23.390625 
Q 57.328125 12.15625 50.6875 5.359375 
Q 44.046875 -1.421875 33.015625 -1.421875 
Q 20.359375 -1.421875 13.671875 8.265625 
Q 6.984375 17.96875 6.984375 36.375 
Q 6.984375 53.65625 15.1875 63.9375 
Q 23.390625 74.21875 37.203125 74.21875 
Q 40.921875 74.21875 44.703125 73.484375 
Q 48.484375 72.75 52.59375 71.296875 
" id="BitstreamVeraSans-Roman-36"/>
       <path d="M 10.6875 12.40625 
L 21 12.40625 
L 21 0 
L 10.6875 0 
z
" id="BitstreamVeraSans-Roman-2e"/>
      </defs>
      <g transform="translate(38.860625 392.11125)scale(0.12 -0.12)">
       <use xlink:href="#BitstreamVeraSans-Roman-2212"/>
       <use x="83.7890625" xlink:href="#BitstreamVeraSans-Roman-30"/>
       <use x="147.412109375" xlink:href="#BitstreamVeraSans-Roman-2e"/>
       <use x="179.19921875" xlink:href="#BitstreamVeraSans-Roman-36"/>
      </g>
     </g>
    </g>
    <g id="ytick_2">
     <g id="line2d_28">
      <path clip-path="url(#p22abf96e6a)" d="M 72 339.428571 
L 518.4 339.428571 
" style="fill:none;stroke:#000000;stroke-dasharray:1.000000,3.000000;stroke-dashoffset:0.0;stroke-width:0.5;"/>
     </g>
     <g id="line2d_29">
      <g>
       <use style="stroke:#000000;stroke-width:0.5;" x="72.0" xlink:href="#m0418b69474" y="339.428571429"/>
      </g>
     </g>
     <g id="line2d_30">
      <g>
       <use style="stroke:#000000;stroke-width:0.5;" x="518.4" xlink:href="#m069ac86cf6" y="339.428571429"/>
      </g>
     </g>
     <g id="text_10">
      <!-- −0.4 -->
      <defs>
       <path d="M 37.796875 64.3125 
L 12.890625 25.390625 
L 37.796875 25.390625 
z
M 35.203125 72.90625 
L 47.609375 72.90625 
L 47.609375 25.390625 
L 58.015625 25.390625 
L 58.015625 17.1875 
L 47.609375 17.1875 
L 47.609375 0 
L 37.796875 0 
L 37.796875 17.1875 
L 4.890625 17.1875 
L 4.890625 26.703125 
z
" id="BitstreamVeraSans-Roman-34"/>
      </defs>
      <g transform="translate(38.860625 342.739821429)scale(0.12 -0.12)">
       <use xlink:href="#BitstreamVeraSans-Roman-2212"/>
       <use x="83.7890625" xlink:href="#BitstreamVeraSans-Roman-30"/>
       <use x="147.412109375" xlink:href="#BitstreamVeraSans-Roman-2e"/>
       <use x="179.19921875" xlink:href="#BitstreamVeraSans-Roman-34"/>
      </g>
     </g>
    </g>
    <g id="ytick_3">
     <g id="line2d_31">
      <path clip-path="url(#p22abf96e6a)" d="M 72 290.057143 
L 518.4 290.057143 
" style="fill:none;stroke:#000000;stroke-dasharray:1.000000,3.000000;stroke-dashoffset:0.0;stroke-width:0.5;"/>
     </g>
     <g id="line2d_32">
      <g>
       <use style="stroke:#000000;stroke-width:0.5;" x="72.0" xlink:href="#m0418b69474" y="290.057142857"/>
      </g>
     </g>
     <g id="line2d_33">
      <g>
       <use style="stroke:#000000;stroke-width:0.5;" x="518.4" xlink:href="#m069ac86cf6" y="290.057142857"/>
      </g>
     </g>
     <g id="text_11">
      <!-- −0.2 -->
      <g transform="translate(38.860625 293.368392857)scale(0.12 -0.12)">
       <use xlink:href="#BitstreamVeraSans-Roman-2212"/>
       <use x="83.7890625" xlink:href="#BitstreamVeraSans-Roman-30"/>
       <use x="147.412109375" xlink:href="#BitstreamVeraSans-Roman-2e"/>
       <use x="179.19921875" xlink:href="#BitstreamVeraSans-Roman-32"/>
      </g>
     </g>
    </g>
    <g id="ytick_4">
     <g id="line2d_34">
      <path clip-path="url(#p22abf96e6a)" d="M 72 240.685714 
L 518.4 240.685714 
" style="fill:none;stroke:#000000;stroke-dasharray:1.000000,3.000000;stroke-dashoffset:0.0;stroke-width:0.5;"/>
     </g>
     <g id="line2d_35">
      <g>
       <use style="stroke:#000000;stroke-width:0.5;" x="72.0" xlink:href="#m0418b69474" y="240.685714286"/>
      </g>
     </g>
     <g id="line2d_36">
      <g>
       <use style="stroke:#000000;stroke-width:0.5;" x="518.4" xlink:href="#m069ac86cf6" y="240.685714286"/>
      </g>
     </g>
     <g id="text_12">
      <!-- 0.0 -->
      <g transform="translate(48.91625 243.996964286)scale(0.12 -0.12)">
       <use xlink:href="#BitstreamVeraSans-Roman-30"/>
       <use x="63.623046875" xlink:href="#BitstreamVeraSans-Roman-2e"/>
       <use x="95.41015625" xlink:href="#BitstreamVeraSans-Roman-30"/>
      </g>
     </g>
    </g>
    <g id="ytick_5">
     <g id="line2d_37">
      <path clip-path="url(#p22abf96e6a)" d="M 72 191.314286 
L 518.4 191.314286 
" style="fill:none;stroke:#000000;stroke-dasharray:1.000000,3.000000;stroke-dashoffset:0.0;stroke-width:0.5;"/>
     </g>
     <g id="line2d_38">
      <g>
       <use style="stroke:#000000;stroke-width:0.5;" x="72.0" xlink:href="#m0418b69474" y="191.314285714"/>
      </g>
     </g>
     <g id="line2d_39">
      <g>
       <use style="stroke:#000000;stroke-width:0.5;" x="518.4" xlink:href="#m069ac86cf6" y="191.314285714"/>
      </g>
     </g>
     <g id="text_13">
      <!-- 0.2 -->
      <g transform="translate(48.91625 194.625535714)scale(0.12 -0.12)">
       <use xlink:href="#BitstreamVeraSans-Roman-30"/>
       <use x="63.623046875" xlink:href="#BitstreamVeraSans-Roman-2e"/>
       <use x="95.41015625" xlink:href="#BitstreamVeraSans-Roman-32"/>
      </g>
     </g>
    </g>
    <g id="ytick_6">
     <g id="line2d_40">
      <path clip-path="url(#p22abf96e6a)" d="M 72 141.942857 
L 518.4 141.942857 
" style="fill:none;stroke:#000000;stroke-dasharray:1.000000,3.000000;stroke-dashoffset:0.0;stroke-width:0.5;"/>
     </g>
     <g id="line2d_41">
      <g>
       <use style="stroke:#000000;stroke-width:0.5;" x="72.0" xlink:href="#m0418b69474" y="141.942857143"/>
      </g>
     </g>
     <g id="line2d_42">
      <g>
       <use style="stroke:#000000;stroke-width:0.5;" x="518.4" xlink:href="#m069ac86cf6" y="141.942857143"/>
      </g>
     </g>
     <g id="text_14">
      <!-- 0.4 -->
      <g transform="translate(48.91625 145.254107143)scale(0.12 -0.12)">
       <use xlink:href="#BitstreamVeraSans-Roman-30"/>
       <use x="63.623046875" xlink:href="#BitstreamVeraSans-Roman-2e"/>
       <use x="95.41015625" xlink:href="#BitstreamVeraSans-Roman-34"/>
      </g>
     </g>
    </g>
    <g id="ytick_7">
     <g id="line2d_43">
      <path clip-path="url(#p22abf96e6a)" d="M 72 92.571429 
L 518.4 92.571429 
" style="fill:none;stroke:#000000;stroke-dasharray:1.000000,3.000000;stroke-dashoffset:0.0;stroke-width:0.5;"/>
     </g>
     <g id="line2d_44">
      <g>
       <use style="stroke:#000000;stroke-width:0.5;" x="72.0" xlink:href="#m0418b69474" y="92.5714285714"/>
      </g>
     </g>
     <g id="line2d_45">
      <g>
       <use style="stroke:#000000;stroke-width:0.5;" x="518.4" xlink:href="#m069ac86cf6" y="92.5714285714"/>
      </g>
     </g>
     <g id="text_15">
      <!-- 0.6 -->
      <g transform="translate(48.91625 95.8826785714)scale(0.12 -0.12)">
       <use xlink:href="#BitstreamVeraSans-Roman-30"/>
       <use x="63.623046875" xlink:href="#BitstreamVeraSans-Roman-2e"/>
       <use x="95.41015625" xlink:href="#BitstreamVeraSans-Roman-36"/>
      </g>
     </g>
    </g>
    <g id="ytick_8">
     <g id="line2d_46">
      <path clip-path="url(#p22abf96e6a)" d="M 72 43.2 
L 518.4 43.2 
" style="fill:none;stroke:#000000;stroke-dasharray:1.000000,3.000000;stroke-dashoffset:0.0;stroke-width:0.5;"/>
     </g>
     <g id="line2d_47">
      <g>
       <use style="stroke:#000000;stroke-width:0.5;" x="72.0" xlink:href="#m0418b69474" y="43.2"/>
      </g>
     </g>
     <g id="line2d_48">
      <g>
       <use style="stroke:#000000;stroke-width:0.5;" x="518.4" xlink:href="#m069ac86cf6" y="43.2"/>
      </g>
     </g>
     <g id="text_16">
      <!-- 0.8 -->
      <defs>
       <path d="M 31.78125 34.625 
Q 24.75 34.625 20.71875 30.859375 
Q 16.703125 27.09375 16.703125 20.515625 
Q 16.703125 13.921875 20.71875 10.15625 
Q 24.75 6.390625 31.78125 6.390625 
Q 38.8125 6.390625 42.859375 10.171875 
Q 46.921875 13.96875 46.921875 20.515625 
Q 46.921875 27.09375 42.890625 30.859375 
Q 38.875 34.625 31.78125 34.625 
M 21.921875 38.8125 
Q 15.578125 40.375 12.03125 44.71875 
Q 8.5 49.078125 8.5 55.328125 
Q 8.5 64.0625 14.71875 69.140625 
Q 20.953125 74.21875 31.78125 74.21875 
Q 42.671875 74.21875 48.875 69.140625 
Q 55.078125 64.0625 55.078125 55.328125 
Q 55.078125 49.078125 51.53125 44.71875 
Q 48 40.375 41.703125 38.8125 
Q 48.828125 37.15625 52.796875 32.3125 
Q 56.78125 27.484375 56.78125 20.515625 
Q 56.78125 9.90625 50.3125 4.234375 
Q 43.84375 -1.421875 31.78125 -1.421875 
Q 19.734375 -1.421875 13.25 4.234375 
Q 6.78125 9.90625 6.78125 20.515625 
Q 6.78125 27.484375 10.78125 32.3125 
Q 14.796875 37.15625 21.921875 38.8125 
M 18.3125 54.390625 
Q 18.3125 48.734375 21.84375 45.5625 
Q 25.390625 42.390625 31.78125 42.390625 
Q 38.140625 42.390625 41.71875 45.5625 
Q 45.3125 48.734375 45.3125 54.390625 
Q 45.3125 60.0625 41.71875 63.234375 
Q 38.140625 66.40625 31.78125 66.40625 
Q 25.390625 66.40625 21.84375 63.234375 
Q 18.3125 60.0625 18.3125 54.390625 
" id="BitstreamVeraSans-Roman-38"/>
      </defs>
      <g transform="translate(48.91625 46.51125)scale(0.12 -0.12)">
       <use xlink:href="#BitstreamVeraSans-Roman-30"/>
       <use x="63.623046875" xlink:href="#BitstreamVeraSans-Roman-2e"/>
       <use x="95.41015625" xlink:href="#BitstreamVeraSans-Roman-38"/>
      </g>
     </g>
    </g>
    <g id="text_17">
     <!-- Acceleration [m/s^2] -->
     <defs>
      <path d="M 46.6875 72.90625 
L 73.1875 45.703125 
L 63.375 45.703125 
L 41.890625 64.984375 
L 20.40625 45.703125 
L 10.59375 45.703125 
L 37.109375 72.90625 
z
" id="BitstreamVeraSans-Roman-5e"/>
      <path d="M 54.890625 33.015625 
L 54.890625 0 
L 45.90625 0 
L 45.90625 32.71875 
Q 45.90625 40.484375 42.875 44.328125 
Q 39.84375 48.1875 33.796875 48.1875 
Q 26.515625 48.1875 22.3125 43.546875 
Q 18.109375 38.921875 18.109375 30.90625 
L 18.109375 0 
L 9.078125 0 
L 9.078125 54.6875 
L 18.109375 54.6875 
L 18.109375 46.1875 
Q 21.34375 51.125 25.703125 53.5625 
Q 30.078125 56 35.796875 56 
Q 45.21875 56 50.046875 50.171875 
Q 54.890625 44.34375 54.890625 33.015625 
" id="BitstreamVeraSans-Roman-6e"/>
      <path d="M 41.109375 46.296875 
Q 39.59375 47.171875 37.8125 47.578125 
Q 36.03125 48 33.890625 48 
Q 26.265625 48 22.1875 43.046875 
Q 18.109375 38.09375 18.109375 28.8125 
L 18.109375 0 
L 9.078125 0 
L 9.078125 54.6875 
L 18.109375 54.6875 
L 18.109375 46.1875 
Q 20.953125 51.171875 25.484375 53.578125 
Q 30.03125 56 36.53125 56 
Q 37.453125 56 38.578125 55.875 
Q 39.703125 55.765625 41.0625 55.515625 
z
" id="BitstreamVeraSans-Roman-72"/>
      <path d="M 30.609375 48.390625 
Q 23.390625 48.390625 19.1875 42.75 
Q 14.984375 37.109375 14.984375 27.296875 
Q 14.984375 17.484375 19.15625 11.84375 
Q 23.34375 6.203125 30.609375 6.203125 
Q 37.796875 6.203125 41.984375 11.859375 
Q 46.1875 17.53125 46.1875 27.296875 
Q 46.1875 37.015625 41.984375 42.703125 
Q 37.796875 48.390625 30.609375 48.390625 
M 30.609375 56 
Q 42.328125 56 49.015625 48.375 
Q 55.71875 40.765625 55.71875 27.296875 
Q 55.71875 13.875 49.015625 6.21875 
Q 42.328125 -1.421875 30.609375 -1.421875 
Q 18.84375 -1.421875 12.171875 6.21875 
Q 5.515625 13.875 5.515625 27.296875 
Q 5.515625 40.765625 12.171875 48.375 
Q 18.84375 56 30.609375 56 
" id="BitstreamVeraSans-Roman-6f"/>
      <path d="M 9.421875 75.984375 
L 18.40625 75.984375 
L 18.40625 0 
L 9.421875 0 
z
" id="BitstreamVeraSans-Roman-6c"/>
      <path d="M 34.1875 63.1875 
L 20.796875 26.90625 
L 47.609375 26.90625 
z
M 28.609375 72.90625 
L 39.796875 72.90625 
L 67.578125 0 
L 57.328125 0 
L 50.6875 18.703125 
L 17.828125 18.703125 
L 11.1875 0 
L 0.78125 0 
z
" id="BitstreamVeraSans-Roman-41"/>
      <path d="M 25.390625 72.90625 
L 33.6875 72.90625 
L 8.296875 -9.28125 
L 0 -9.28125 
z
" id="BitstreamVeraSans-Roman-2f"/>
      <path d="M 18.3125 70.21875 
L 18.3125 54.6875 
L 36.8125 54.6875 
L 36.8125 47.703125 
L 18.3125 47.703125 
L 18.3125 18.015625 
Q 18.3125 11.328125 20.140625 9.421875 
Q 21.96875 7.515625 27.59375 7.515625 
L 36.8125 7.515625 
L 36.8125 0 
L 27.59375 0 
Q 17.1875 0 13.234375 3.875 
Q 9.28125 7.765625 9.28125 18.015625 
L 9.28125 47.703125 
L 2.6875 47.703125 
L 2.6875 54.6875 
L 9.28125 54.6875 
L 9.28125 70.21875 
z
" id="BitstreamVeraSans-Roman-74"/>
      <path d="M 34.28125 27.484375 
Q 23.390625 27.484375 19.1875 25 
Q 14.984375 22.515625 14.984375 16.5 
Q 14.984375 11.71875 18.140625 8.90625 
Q 21.296875 6.109375 26.703125 6.109375 
Q 34.1875 6.109375 38.703125 11.40625 
Q 43.21875 16.703125 43.21875 25.484375 
L 43.21875 27.484375 
z
M 52.203125 31.203125 
L 52.203125 0 
L 43.21875 0 
L 43.21875 8.296875 
Q 40.140625 3.328125 35.546875 0.953125 
Q 30.953125 -1.421875 24.3125 -1.421875 
Q 15.921875 -1.421875 10.953125 3.296875 
Q 6 8.015625 6 15.921875 
Q 6 25.140625 12.171875 29.828125 
Q 18.359375 34.515625 30.609375 34.515625 
L 43.21875 34.515625 
L 43.21875 35.40625 
Q 43.21875 41.609375 39.140625 45 
Q 35.0625 48.390625 27.6875 48.390625 
Q 23 48.390625 18.546875 47.265625 
Q 14.109375 46.140625 10.015625 43.890625 
L 10.015625 52.203125 
Q 14.9375 54.109375 19.578125 55.046875 
Q 24.21875 56 28.609375 56 
Q 40.484375 56 46.34375 49.84375 
Q 52.203125 43.703125 52.203125 31.203125 
" id="BitstreamVeraSans-Roman-61"/>
      <path d="M 48.78125 52.59375 
L 48.78125 44.1875 
Q 44.96875 46.296875 41.140625 47.34375 
Q 37.3125 48.390625 33.40625 48.390625 
Q 24.65625 48.390625 19.8125 42.84375 
Q 14.984375 37.3125 14.984375 27.296875 
Q 14.984375 17.28125 19.8125 11.734375 
Q 24.65625 6.203125 33.40625 6.203125 
Q 37.3125 6.203125 41.140625 7.25 
Q 44.96875 8.296875 48.78125 10.40625 
L 48.78125 2.09375 
Q 45.015625 0.34375 40.984375 -0.53125 
Q 36.96875 -1.421875 32.421875 -1.421875 
Q 20.0625 -1.421875 12.78125 6.34375 
Q 5.515625 14.109375 5.515625 27.296875 
Q 5.515625 40.671875 12.859375 48.328125 
Q 20.21875 56 33.015625 56 
Q 37.15625 56 41.109375 55.140625 
Q 45.0625 54.296875 48.78125 52.59375 
" id="BitstreamVeraSans-Roman-63"/>
     </defs>
     <g transform="translate(31.365 279.81375)rotate(-90.0)scale(0.12 -0.12)">
      <use xlink:href="#BitstreamVeraSans-Roman-41"/>
      <use x="68.392578125" xlink:href="#BitstreamVeraSans-Roman-63"/>
      <use x="123.373046875" xlink:href="#BitstreamVeraSans-Roman-63"/>
      <use x="178.353515625" xlink:href="#BitstreamVeraSans-Roman-65"/>
      <use x="239.876953125" xlink:href="#BitstreamVeraSans-Roman-6c"/>
      <use x="267.66015625" xlink:href="#BitstreamVeraSans-Roman-65"/>
      <use x="329.18359375" xlink:href="#BitstreamVeraSans-Roman-72"/>
      <use x="370.296875" xlink:href="#BitstreamVeraSans-Roman-61"/>
      <use x="431.576171875" xlink:href="#BitstreamVeraSans-Roman-74"/>
      <use x="470.78515625" xlink:href="#BitstreamVeraSans-Roman-69"/>
      <use x="498.568359375" xlink:href="#BitstreamVeraSans-Roman-6f"/>
      <use x="559.75" xlink:href="#BitstreamVeraSans-Roman-6e"/>
      <use x="623.12890625" xlink:href="#BitstreamVeraSans-Roman-20"/>
      <use x="654.916015625" xlink:href="#BitstreamVeraSans-Roman-5b"/>
      <use x="693.9296875" xlink:href="#BitstreamVeraSans-Roman-6d"/>
      <use x="791.341796875" xlink:href="#BitstreamVeraSans-Roman-2f"/>
      <use x="825.033203125" xlink:href="#BitstreamVeraSans-Roman-73"/>
      <use x="877.1328125" xlink:href="#BitstreamVeraSans-Roman-5e"/>
      <use x="960.921875" xlink:href="#BitstreamVeraSans-Roman-32"/>
      <use x="1024.54492188" xlink:href="#BitstreamVeraSans-Roman-5d"/>
     </g>
    </g>
   </g>
   <g id="legend_1">
    <g id="patch_7">
     <path d="M 79.2 249.86475 
L 168.561 249.86475 
L 168.561 182.13525 
L 79.2 182.13525 
z
" style="fill:#ffffff;stroke:#000000;stroke-linejoin:miter;"/>
    </g>
    <g id="line2d_49">
     <path d="M 89.28 193.797 
L 109.44 193.797 
" style="fill:none;stroke:#008000;stroke-linecap:square;"/>
    </g>
    <g id="line2d_50"/>
    <g id="text_18">
     <!-- accel -->
     <g transform="translate(125.28 198.837)scale(0.144 -0.144)">
      <use xlink:href="#BitstreamVeraSans-Roman-61"/>
      <use x="61.279296875" xlink:href="#BitstreamVeraSans-Roman-63"/>
      <use x="116.259765625" xlink:href="#BitstreamVeraSans-Roman-63"/>
      <use x="171.240234375" xlink:href="#BitstreamVeraSans-Roman-65"/>
      <use x="232.763671875" xlink:href="#BitstreamVeraSans-Roman-6c"/>
     </g>
    </g>
    <g id="line2d_51">
     <path d="M 89.28 214.9335 
L 109.44 214.9335 
" style="fill:none;stroke:#000000;stroke-dasharray:6.000000,6.000000;stroke-dashoffset:0.0;"/>
    </g>
    <g id="line2d_52"/>
    <g id="text_19">
     <!-- max -->
     <defs>
      <path d="M 54.890625 54.6875 
L 35.109375 28.078125 
L 55.90625 0 
L 45.3125 0 
L 29.390625 21.484375 
L 13.484375 0 
L 2.875 0 
L 24.125 28.609375 
L 4.6875 54.6875 
L 15.28125 54.6875 
L 29.78125 35.203125 
L 44.28125 54.6875 
z
" id="BitstreamVeraSans-Roman-78"/>
     </defs>
     <g transform="translate(125.28 219.9735)scale(0.144 -0.144)">
      <use xlink:href="#BitstreamVeraSans-Roman-6d"/>
      <use x="97.412109375" xlink:href="#BitstreamVeraSans-Roman-61"/>
      <use x="158.69140625" xlink:href="#BitstreamVeraSans-Roman-78"/>
     </g>
    </g>
    <g id="line2d_53">
     <path d="M 89.28 236.07 
L 109.44 236.07 
" style="fill:none;stroke:#000000;stroke-dasharray:6.000000,6.000000;stroke-dashoffset:0.0;"/>
    </g>
    <g id="line2d_54"/>
    <g id="text_20">
     <!-- min -->
     <g transform="translate(125.28 241.11)scale(0.144 -0.144)">
      <use xlink:href="#BitstreamVeraSans-Roman-6d"/>
      <use x="97.412109375" xlink:href="#BitstreamVeraSans-Roman-69"/>
      <use x="125.1953125" xlink:href="#BitstreamVeraSans-Roman-6e"/>
     </g>
    </g>
   </g>
  </g>
 </g>
 <defs>
  <clipPath id="p22abf96e6a">
   <rect height="345.6" width="446.4" x="72.0" y="43.2"/>
  </clipPath>
 </defs>
</svg>
