<?xml version="1.0" encoding="utf-8" standalone="no"?>
<!DOCTYPE svg PUBLIC "-//W3C//DTD SVG 1.1//EN"
  "http://www.w3.org/Graphics/SVG/1.1/DTD/svg11.dtd">
<!-- Created with matplotlib (http://matplotlib.org/) -->
<svg height="432pt" version="1.1" viewBox="0 0 576 432" width="576pt" xmlns="http://www.w3.org/2000/svg" xmlns:xlink="http://www.w3.org/1999/xlink">
 <defs>
  <style type="text/css">
*{stroke-linecap:butt;stroke-linejoin:round;stroke-miterlimit:100000;}
  </style>
 </defs>
 <g id="figure_1">
  <g id="patch_1">
   <path d="M 0 432 
L 576 432 
L 576 0 
L 0 0 
z
" style="fill:#ffffff;"/>
  </g>
  <g id="axes_1">
   <g id="patch_2">
    <path d="M 72 388.8 
L 518.4 388.8 
L 518.4 43.2 
L 72 43.2 
z
" style="fill:#ffffff;"/>
   </g>
   <g id="line2d_1">
    <path clip-path="url(#pad530a8205)" d="M 76.0176 388.8 
L 106.5216 388.8 
L 106.6704 375.827763 
L 106.8192 375.827763 
L 106.968 384.399725 
L 107.1168 384.399725 
L 107.2656 388.8 
L 123.1872 388.8 
L 123.336 384.399725 
L 123.6336 384.399725 
L 123.7824 380.113744 
L 123.9312 380.113744 
L 124.08 375.827763 
L 124.6752 375.827763 
L 124.824 371.541781 
L 124.9728 371.541781 
L 125.1216 367.2558 
L 125.7168 367.2558 
L 125.8656 362.969819 
L 126.0144 362.969819 
L 126.1632 358.683838 
L 127.3536 358.683838 
L 127.5024 354.397857 
L 127.8 354.397857 
L 127.9488 350.111876 
L 129.288 350.111876 
L 129.4368 345.825895 
L 130.3296 345.825895 
L 130.4784 341.539914 
L 131.8176 341.539914 
L 131.9664 337.253933 
L 135.0912 337.253933 
L 135.24 332.967952 
L 136.4304 332.967952 
L 136.5792 328.681971 
L 137.0256 328.681971 
L 137.1744 332.967952 
L 138.6624 332.967952 
L 138.8112 328.681971 
L 139.1088 328.681971 
L 139.2576 332.967952 
L 140.5968 332.967952 
L 140.7456 328.681971 
L 160.6848 328.681971 
L 160.8336 332.967952 
L 160.9824 332.967952 
L 161.1312 328.681971 
L 166.0416 328.681971 
L 166.1904 332.967952 
L 167.232 332.967952 
L 167.3808 328.681971 
L 172.5888 328.681971 
L 172.7376 332.967952 
L 174.0768 332.967952 
L 174.2256 328.681971 
L 179.4336 328.681971 
L 179.5824 332.967952 
L 180.9216 332.967952 
L 181.0704 328.681971 
L 181.2192 328.681971 
L 181.368 332.967952 
L 182.112 332.967952 
L 182.2608 328.681971 
L 187.4688 328.681971 
L 187.6176 332.967952 
L 189.552 332.967952 
L 189.7008 328.681971 
L 189.8496 328.681971 
L 189.9984 332.967952 
L 191.04 332.967952 
L 191.1888 328.681971 
L 196.3968 328.681971 
L 196.5456 332.967952 
L 198.1824 332.967952 
L 198.3312 328.681971 
L 198.48 328.681971 
L 198.6288 332.967952 
L 199.6704 332.967952 
L 199.8192 328.681971 
L 199.968 328.681971 
L 200.1168 332.967952 
L 201.456 332.967952 
L 201.6048 328.681971 
L 206.8128 328.681971 
L 206.9616 332.967952 
L 208.3008 332.967952 
L 208.4496 328.681971 
L 208.5984 328.681971 
L 208.7472 332.967952 
L 209.7888 332.967952 
L 209.9376 328.681971 
L 210.0864 328.681971 
L 210.2352 332.967952 
L 211.5744 332.967952 
L 211.7232 328.681971 
L 211.872 328.681971 
L 212.0208 332.967952 
L 213.36 332.967952 
L 213.5088 328.681971 
L 213.6576 328.681971 
L 213.8064 332.967952 
L 214.2528 332.967952 
L 214.4016 328.681971 
L 219.6096 328.681971 
L 219.7584 332.967952 
L 221.6928 332.967952 
L 221.8416 328.681971 
L 221.9904 328.681971 
L 222.1392 332.967952 
L 222.5856 332.967952 
L 222.7344 324.39599 
L 222.8832 324.39599 
L 223.032 311.538046 
L 223.1808 311.538046 
L 223.3296 298.680103 
L 223.4784 298.680103 
L 223.6272 281.536179 
L 223.776 281.536179 
L 223.9248 272.964217 
L 224.0736 272.964217 
L 224.2224 260.106273 
L 224.3712 260.106273 
L 224.52 247.24833 
L 224.6688 247.24833 
L 224.8176 238.676368 
L 224.9664 238.676368 
L 225.1152 230.104406 
L 225.264 230.104406 
L 225.4128 217.246463 
L 225.5616 217.246463 
L 225.7104 212.960481 
L 225.8592 212.960481 
L 226.008 204.388519 
L 226.1568 204.388519 
L 226.3056 195.816557 
L 226.4544 195.816557 
L 226.6032 191.530576 
L 226.752 191.530576 
L 226.9008 182.958614 
L 227.0496 182.958614 
L 227.1984 174.386652 
L 227.3472 174.386652 
L 227.496 170.100671 
L 227.6448 170.100671 
L 227.7936 165.81469 
L 227.9424 165.81469 
L 228.0912 157.242727 
L 228.24 157.242727 
L 228.3888 152.956746 
L 228.5376 152.956746 
L 228.6864 144.384784 
L 228.8352 144.384784 
L 228.984 140.098803 
L 229.1328 140.098803 
L 229.2816 135.812822 
L 229.728 135.812822 
L 229.8768 131.526841 
L 230.0256 131.526841 
L 230.1744 122.954879 
L 230.6208 122.954879 
L 230.7696 118.668898 
L 231.216 118.668898 
L 231.3648 110.096936 
L 232.1088 110.096936 
L 232.2576 105.810954 
L 232.4064 105.810954 
L 232.5552 101.524973 
L 233.1504 67.237125 
L 234.0432 67.237125 
L 234.192 58.665163 
L 234.4896 58.665163 
L 234.6384 54.379182 
L 235.8288 54.379182 
L 235.9776 45.807219 
L 236.1264 45.807219 
L 236.2752 54.379182 
L 236.424 54.379182 
L 236.5728 58.665163 
L 236.7216 58.665163 
L 236.8704 54.379182 
L 237.0192 54.379182 
L 237.168 58.665163 
L 237.6144 58.665163 
L 237.7632 50.0932 
L 237.912 50.0932 
L 238.0608 54.379182 
L 238.2096 50.0932 
L 238.3584 50.0932 
L 238.5072 54.379182 
L 238.9536 54.379182 
L 239.1024 45.807219 
L 239.2512 45.807219 
L 239.4 50.0932 
L 239.5488 50.0932 
L 239.6976 45.807219 
L 239.8464 45.807219 
L 239.9952 50.0932 
L 240.4416 50.0932 
L 240.5904 54.379182 
L 240.7392 50.0932 
L 240.888 50.0932 
L 241.0368 54.379182 
L 241.7808 54.379182 
L 241.9296 50.0932 
L 242.0784 50.0932 
L 242.2272 45.807219 
L 242.376 45.807219 
L 242.5248 50.0932 
L 243.5664 50.0932 
L 243.7152 54.379182 
L 243.864 54.379182 
L 244.0128 62.951144 
L 245.5008 62.951144 
L 245.6496 71.523106 
L 246.3936 71.523106 
L 246.6912 58.665163 
L 246.9888 58.665163 
L 247.1376 50.0932 
L 247.2864 50.0932 
L 247.4352 54.379182 
L 247.584 45.807219 
L 248.0304 45.807219 
L 248.1792 50.0932 
L 248.328 50.0932 
L 248.4768 58.665163 
L 249.3696 58.665163 
L 249.5184 62.951144 
L 249.6672 62.951144 
L 249.816 67.237125 
L 250.1136 67.237125 
L 250.2624 71.523106 
L 250.4112 71.523106 
L 250.56 67.237125 
L 250.7088 67.237125 
L 250.8576 71.523106 
L 252.1968 71.523106 
L 252.3456 80.095068 
L 253.536 80.095068 
L 253.6848 75.809087 
L 253.8336 75.809087 
L 253.9824 80.095068 
L 254.1312 80.095068 
L 254.28 84.381049 
L 255.4704 84.381049 
L 255.6192 88.66703 
L 256.512 88.66703 
L 256.6608 92.953011 
L 257.1072 92.953011 
L 257.256 97.238992 
L 257.4048 97.238992 
L 257.5536 92.953011 
L 258.4464 92.953011 
L 258.5952 97.238992 
L 260.6784 97.238992 
L 260.8272 101.524973 
L 260.976 101.524973 
L 261.1248 92.953011 
L 261.8688 92.953011 
L 262.0176 97.238992 
L 263.8032 97.238992 
L 263.952 101.524973 
L 264.2496 101.524973 
L 264.3984 97.238992 
L 266.7792 97.238992 
L 266.928 105.810954 
L 267.0768 101.524973 
L 268.5648 101.524973 
L 268.7136 97.238992 
L 268.8624 97.238992 
L 269.0112 101.524973 
L 270.3504 101.524973 
L 270.4992 92.953011 
L 271.6896 92.953011 
L 271.8384 88.66703 
L 272.136 88.66703 
L 272.2848 80.095068 
L 272.4336 80.095068 
L 272.5824 88.66703 
L 273.7728 88.66703 
L 273.9216 92.953011 
L 274.6656 92.953011 
L 274.8144 88.66703 
L 275.5584 88.66703 
L 275.7072 92.953011 
L 276.6 92.953011 
L 276.7488 97.238992 
L 278.6832 97.238992 
L 278.832 92.953011 
L 280.1712 92.953011 
L 280.32 97.238992 
L 281.3616 97.238992 
L 281.5104 101.524973 
L 282.552 101.524973 
L 282.7008 105.810954 
L 282.8496 101.524973 
L 283.1472 101.524973 
L 283.296 97.238992 
L 283.4448 97.238992 
L 283.5936 92.953011 
L 284.784 92.953011 
L 284.9328 101.524973 
L 287.1648 101.524973 
L 287.3136 97.238992 
L 287.4624 97.238992 
L 287.6112 101.524973 
L 288.3552 101.524973 
L 288.504 97.238992 
L 288.9504 97.238992 
L 289.0992 101.524973 
L 289.8432 101.524973 
L 289.992 97.238992 
L 290.4384 97.238992 
L 290.5872 101.524973 
L 291.0336 101.524973 
L 291.1824 97.238992 
L 291.9264 97.238992 
L 292.0752 101.524973 
L 292.5216 101.524973 
L 292.6704 97.238992 
L 293.1168 97.238992 
L 293.2656 101.524973 
L 293.712 101.524973 
L 293.8608 97.238992 
L 295.7952 97.238992 
L 295.944 101.524973 
L 296.0928 101.524973 
L 296.2416 97.238992 
L 296.688 97.238992 
L 296.8368 110.096936 
L 296.9856 110.096936 
L 297.1344 118.668898 
L 297.2832 118.668898 
L 297.432 131.526841 
L 297.5808 131.526841 
L 297.7296 140.098803 
L 297.8784 140.098803 
L 298.0272 148.670765 
L 298.176 148.670765 
L 298.3248 161.528709 
L 298.4736 161.528709 
L 298.6224 170.100671 
L 298.7712 170.100671 
L 298.92 178.672633 
L 299.0688 178.672633 
L 299.2176 187.244595 
L 299.3664 187.244595 
L 299.5152 191.530576 
L 299.664 191.530576 
L 299.8128 200.102538 
L 299.9616 200.102538 
L 300.1104 208.6745 
L 300.2592 208.6745 
L 300.408 212.960481 
L 300.5568 212.960481 
L 300.7056 221.532444 
L 300.8544 221.532444 
L 301.0032 225.818425 
L 301.152 225.818425 
L 301.3008 230.104406 
L 301.4496 230.104406 
L 301.5984 238.676368 
L 301.7472 238.676368 
L 301.896 242.962349 
L 302.0448 242.962349 
L 302.1936 247.24833 
L 302.3424 247.24833 
L 302.4912 251.534311 
L 302.64 251.534311 
L 302.7888 255.820292 
L 302.9376 255.820292 
L 303.0864 260.106273 
L 303.2352 260.106273 
L 303.384 264.392254 
L 303.5328 264.392254 
L 303.6816 268.678236 
L 304.128 268.678236 
L 304.2768 272.964217 
L 304.4256 272.964217 
L 304.5744 277.250198 
L 304.7232 277.250198 
L 304.872 281.536179 
L 305.0208 281.536179 
L 305.1696 285.82216 
L 305.616 285.82216 
L 305.7648 290.108141 
L 306.2112 290.108141 
L 306.36 294.394122 
L 306.5088 294.394122 
L 306.6576 298.680103 
L 307.4016 298.680103 
L 307.5504 302.966084 
L 307.9968 302.966084 
L 308.1456 307.252065 
L 308.8896 307.252065 
L 309.0384 311.538046 
L 309.1872 311.538046 
L 309.336 315.824027 
L 310.6752 315.824027 
L 310.824 320.110008 
L 311.568 320.110008 
L 311.7168 324.39599 
L 313.3536 324.39599 
L 313.5024 328.681971 
L 315.1392 328.681971 
L 315.288 332.967952 
L 316.032 332.967952 
L 316.1808 328.681971 
L 316.3296 328.681971 
L 316.4784 332.967952 
L 318.1152 332.967952 
L 318.264 337.253933 
L 318.4128 337.253933 
L 318.5616 332.967952 
L 319.6032 332.967952 
L 319.752 337.253933 
L 320.3472 337.253933 
L 320.496 332.967952 
L 321.0912 332.967952 
L 321.24 337.253933 
L 331.2096 337.253933 
L 331.3584 332.967952 
L 331.5072 332.967952 
L 331.656 337.253933 
L 334.4832 337.253933 
L 334.632 332.967952 
L 334.7808 332.967952 
L 334.9296 337.253933 
L 336.2688 337.253933 
L 336.4176 332.967952 
L 336.5664 332.967952 
L 336.7152 337.253933 
L 337.7568 337.253933 
L 337.9056 332.967952 
L 338.352 332.967952 
L 338.5008 337.253933 
L 339.5424 337.253933 
L 339.6912 332.967952 
L 340.1376 332.967952 
L 340.2864 337.253933 
L 341.328 337.253933 
L 341.4768 332.967952 
L 342.2208 332.967952 
L 342.3696 337.253933 
L 343.1136 337.253933 
L 343.2624 332.967952 
L 344.0064 332.967952 
L 344.1552 337.253933 
L 345.1968 337.253933 
L 345.3456 332.967952 
L 346.0896 332.967952 
L 346.2384 337.253933 
L 346.9824 337.253933 
L 347.1312 332.967952 
L 348.1728 332.967952 
L 348.3216 337.253933 
L 349.0656 337.253933 
L 349.2144 332.967952 
L 350.256 332.967952 
L 350.4048 337.253933 
L 350.8512 337.253933 
L 351 332.967952 
L 352.6368 332.967952 
L 352.7856 337.253933 
L 353.232 337.253933 
L 353.3808 332.967952 
L 355.0176 332.967952 
L 355.1664 337.253933 
L 355.3152 337.253933 
L 355.464 332.967952 
L 357.2496 332.967952 
L 357.3984 337.253933 
L 357.5472 337.253933 
L 357.696 332.967952 
L 359.4816 332.967952 
L 359.6304 337.253933 
L 359.7792 337.253933 
L 359.928 332.967952 
L 371.9808 332.967952 
L 372.1296 328.681971 
L 373.32 328.681971 
L 373.4688 332.967952 
L 375.2544 332.967952 
L 375.4032 328.681971 
L 376.5936 328.681971 
L 376.7424 332.967952 
L 378.6768 332.967952 
L 378.8256 328.681971 
L 380.3136 328.681971 
L 380.4624 332.967952 
L 381.9504 332.967952 
L 382.0992 328.681971 
L 384.1824 328.681971 
L 384.3312 332.967952 
L 385.968 332.967952 
L 386.1168 328.681971 
L 388.2 328.681971 
L 388.3488 332.967952 
L 389.8368 332.967952 
L 389.9856 328.681971 
L 392.664 328.681971 
L 392.8128 332.967952 
L 394.0032 332.967952 
L 394.152 328.681971 
L 396.9792 328.681971 
L 397.128 332.967952 
L 397.872 332.967952 
L 398.0208 328.681971 
L 402.4848 328.681971 
L 402.6336 332.967952 
L 403.3776 332.967952 
L 403.5264 328.681971 
L 407.9904 328.681971 
L 408.1392 332.967952 
L 408.5856 332.967952 
L 408.7344 328.681971 
L 414.24 328.681971 
L 414.3888 332.967952 
L 414.5376 332.967952 
L 414.6864 328.681971 
L 432.9888 328.681971 
L 433.1376 324.39599 
L 434.1792 324.39599 
L 434.328 328.681971 
L 441.024 328.681971 
L 441.1728 324.39599 
L 441.9168 324.39599 
L 442.0656 328.681971 
L 442.3632 328.681971 
L 442.512 324.39599 
L 443.1072 324.39599 
L 443.256 328.681971 
L 443.4048 328.681971 
L 443.5536 324.39599 
L 444.1488 324.39599 
L 444.2976 328.681971 
L 444.4464 328.681971 
L 444.5952 324.39599 
L 445.1904 324.39599 
L 445.3392 328.681971 
L 452.0352 328.681971 
L 452.184 324.39599 
L 452.928 324.39599 
L 453.0768 328.681971 
L 453.2256 328.681971 
L 453.3744 324.39599 
L 453.9696 324.39599 
L 454.1184 328.681971 
L 454.416 328.681971 
L 454.5648 324.39599 
L 455.3088 324.39599 
L 455.4576 328.681971 
L 455.904 328.681971 
L 456.0528 324.39599 
L 457.0944 324.39599 
L 457.2432 328.681971 
L 463.9392 328.681971 
L 464.088 324.39599 
L 464.832 324.39599 
L 464.9808 328.681971 
L 465.4272 328.681971 
L 465.576 324.39599 
L 466.6176 324.39599 
L 466.7664 328.681971 
L 467.2128 328.681971 
L 467.3616 324.39599 
L 468.4032 324.39599 
L 468.552 328.681971 
L 468.9984 328.681971 
L 469.1472 324.39599 
L 470.1888 324.39599 
L 470.3376 328.681971 
L 470.784 328.681971 
L 470.9328 324.39599 
L 471.9744 324.39599 
L 472.1232 328.681971 
L 472.5696 328.681971 
L 472.7184 324.39599 
L 473.1648 324.39599 
L 473.3136 328.681971 
L 479.712 328.681971 
L 479.8608 324.39599 
L 480.3072 324.39599 
L 480.456 328.681971 
L 480.6048 328.681971 
L 480.7536 324.39599 
L 481.2 324.39599 
L 481.3488 328.681971 
L 481.4976 328.681971 
L 481.6464 324.39599 
L 482.0928 324.39599 
L 482.2416 328.681971 
L 482.3904 328.681971 
L 482.5392 324.39599 
L 482.9856 324.39599 
L 483.1344 328.681971 
L 483.2832 328.681971 
L 483.432 324.39599 
L 483.7296 324.39599 
L 483.8784 328.681971 
L 484.0272 328.681971 
L 484.176 324.39599 
L 484.7712 324.39599 
L 484.92 328.681971 
L 485.0688 328.681971 
L 485.2176 324.39599 
L 485.664 324.39599 
L 485.8128 328.681971 
L 485.9616 328.681971 
L 486.1104 324.39599 
L 486.5568 324.39599 
L 486.7056 328.681971 
L 487.152 328.681971 
L 487.3008 324.39599 
L 488.1936 324.39599 
L 488.3424 328.681971 
L 488.4912 328.681971 
L 488.64 324.39599 
L 489.0864 324.39599 
L 489.2352 328.681971 
L 489.6816 328.681971 
L 489.8304 324.39599 
L 491.0208 324.39599 
L 491.1696 328.681971 
L 491.616 328.681971 
L 491.7648 324.39599 
L 492.6576 324.39599 
L 492.8064 328.681971 
L 493.104 328.681971 
L 493.2528 324.39599 
L 493.9968 324.39599 
L 494.1456 328.681971 
L 500.9904 328.681971 
L 501.1392 324.39599 
L 502.1808 324.39599 
L 502.3296 328.681971 
L 502.776 328.681971 
L 502.9248 324.39599 
L 503.8176 324.39599 
L 503.9664 328.681971 
L 504.4128 328.681971 
L 504.5616 324.39599 
L 505.4544 324.39599 
L 505.6032 328.681971 
L 505.752 328.681971 
L 505.9008 324.39599 
L 506.496 324.39599 
L 506.6448 328.681971 
L 506.9424 328.681971 
L 507.0912 324.39599 
L 507.5376 324.39599 
L 507.6864 328.681971 
L 507.8352 328.681971 
L 507.984 324.39599 
L 508.4304 324.39599 
L 508.5792 328.681971 
L 508.728 328.681971 
L 508.8768 324.39599 
L 509.3232 324.39599 
L 509.472 328.681971 
L 509.6208 328.681971 
L 509.7696 324.39599 
L 510.3648 324.39599 
L 510.5136 328.681971 
L 510.96 328.681971 
L 511.1088 324.39599 
L 512.0016 324.39599 
L 512.1504 328.681971 
L 512.2992 328.681971 
L 512.448 324.39599 
L 513.0432 324.39599 
L 513.192 328.681971 
L 513.4896 328.681971 
L 513.6384 324.39599 
L 514.0848 324.39599 
L 514.2336 328.681971 
L 514.5312 328.681971 
L 514.68 324.39599 
L 515.7216 324.39599 
L 515.8704 328.681971 
L 516.4656 328.681971 
L 516.6144 324.39599 
L 517.656 324.39599 
L 517.8048 328.681971 
L 518.1024 328.681971 
L 518.2512 324.39599 
L 518.4 324.39599 
L 518.4 324.39599 
" style="fill:none;stroke:#008000;stroke-linecap:square;"/>
   </g>
   <g id="line2d_2">
    <path clip-path="url(#pad530a8205)" d="M 76.0176 388.8 
L 518.4 388.8 
L 518.4 388.8 
" style="fill:none;stroke:#ff0000;stroke-linecap:square;"/>
   </g>
   <g id="patch_3">
    <path d="M 72 43.2 
L 518.4 43.2 
" style="fill:none;stroke:#000000;stroke-linecap:square;stroke-linejoin:miter;"/>
   </g>
   <g id="patch_4">
    <path d="M 518.4 388.8 
L 518.4 43.2 
" style="fill:none;stroke:#000000;stroke-linecap:square;stroke-linejoin:miter;"/>
   </g>
   <g id="patch_5">
    <path d="M 72 388.8 
L 518.4 388.8 
" style="fill:none;stroke:#000000;stroke-linecap:square;stroke-linejoin:miter;"/>
   </g>
   <g id="patch_6">
    <path d="M 72 388.8 
L 72 43.2 
" style="fill:none;stroke:#000000;stroke-linecap:square;stroke-linejoin:miter;"/>
   </g>
   <g id="matplotlib.axis_1">
    <g id="xtick_1">
     <g id="line2d_3">
      <path clip-path="url(#pad530a8205)" d="M 72 388.8 
L 72 43.2 
" style="fill:none;stroke:#000000;stroke-dasharray:1.000000,3.000000;stroke-dashoffset:0.0;stroke-width:0.5;"/>
     </g>
     <g id="line2d_4">
      <defs>
       <path d="M 0 0 
L 0 -4 
" id="md0bd9d31cd" style="stroke:#000000;stroke-width:0.5;"/>
      </defs>
      <g>
       <use style="stroke:#000000;stroke-width:0.5;" x="72.0" xlink:href="#md0bd9d31cd" y="388.8"/>
      </g>
     </g>
     <g id="line2d_5">
      <defs>
       <path d="M 0 0 
L 0 4 
" id="mb708be9882" style="stroke:#000000;stroke-width:0.5;"/>
      </defs>
      <g>
       <use style="stroke:#000000;stroke-width:0.5;" x="72.0" xlink:href="#mb708be9882" y="43.2"/>
      </g>
     </g>
     <g id="text_1">
      <!-- 0 -->
      <defs>
       <path d="M 31.78125 66.40625 
Q 24.171875 66.40625 20.328125 58.90625 
Q 16.5 51.421875 16.5 36.375 
Q 16.5 21.390625 20.328125 13.890625 
Q 24.171875 6.390625 31.78125 6.390625 
Q 39.453125 6.390625 43.28125 13.890625 
Q 47.125 21.390625 47.125 36.375 
Q 47.125 51.421875 43.28125 58.90625 
Q 39.453125 66.40625 31.78125 66.40625 
M 31.78125 74.21875 
Q 44.046875 74.21875 50.515625 64.515625 
Q 56.984375 54.828125 56.984375 36.375 
Q 56.984375 17.96875 50.515625 8.265625 
Q 44.046875 -1.421875 31.78125 -1.421875 
Q 19.53125 -1.421875 13.0625 8.265625 
Q 6.59375 17.96875 6.59375 36.375 
Q 6.59375 54.828125 13.0625 64.515625 
Q 19.53125 74.21875 31.78125 74.21875 
" id="BitstreamVeraSans-Roman-30"/>
      </defs>
      <g transform="translate(68.1825 401.918125)scale(0.12 -0.12)">
       <use xlink:href="#BitstreamVeraSans-Roman-30"/>
      </g>
     </g>
    </g>
    <g id="xtick_2">
     <g id="line2d_6">
      <path clip-path="url(#pad530a8205)" d="M 146.4 388.8 
L 146.4 43.2 
" style="fill:none;stroke:#000000;stroke-dasharray:1.000000,3.000000;stroke-dashoffset:0.0;stroke-width:0.5;"/>
     </g>
     <g id="line2d_7">
      <g>
       <use style="stroke:#000000;stroke-width:0.5;" x="146.4" xlink:href="#md0bd9d31cd" y="388.8"/>
      </g>
     </g>
     <g id="line2d_8">
      <g>
       <use style="stroke:#000000;stroke-width:0.5;" x="146.4" xlink:href="#mb708be9882" y="43.2"/>
      </g>
     </g>
     <g id="text_2">
      <!-- 5 -->
      <defs>
       <path d="M 10.796875 72.90625 
L 49.515625 72.90625 
L 49.515625 64.59375 
L 19.828125 64.59375 
L 19.828125 46.734375 
Q 21.96875 47.46875 24.109375 47.828125 
Q 26.265625 48.1875 28.421875 48.1875 
Q 40.625 48.1875 47.75 41.5 
Q 54.890625 34.8125 54.890625 23.390625 
Q 54.890625 11.625 47.5625 5.09375 
Q 40.234375 -1.421875 26.90625 -1.421875 
Q 22.3125 -1.421875 17.546875 -0.640625 
Q 12.796875 0.140625 7.71875 1.703125 
L 7.71875 11.625 
Q 12.109375 9.234375 16.796875 8.0625 
Q 21.484375 6.890625 26.703125 6.890625 
Q 35.15625 6.890625 40.078125 11.328125 
Q 45.015625 15.765625 45.015625 23.390625 
Q 45.015625 31 40.078125 35.4375 
Q 35.15625 39.890625 26.703125 39.890625 
Q 22.75 39.890625 18.8125 39.015625 
Q 14.890625 38.140625 10.796875 36.28125 
z
" id="BitstreamVeraSans-Roman-35"/>
      </defs>
      <g transform="translate(142.5825 401.918125)scale(0.12 -0.12)">
       <use xlink:href="#BitstreamVeraSans-Roman-35"/>
      </g>
     </g>
    </g>
    <g id="xtick_3">
     <g id="line2d_9">
      <path clip-path="url(#pad530a8205)" d="M 220.8 388.8 
L 220.8 43.2 
" style="fill:none;stroke:#000000;stroke-dasharray:1.000000,3.000000;stroke-dashoffset:0.0;stroke-width:0.5;"/>
     </g>
     <g id="line2d_10">
      <g>
       <use style="stroke:#000000;stroke-width:0.5;" x="220.8" xlink:href="#md0bd9d31cd" y="388.8"/>
      </g>
     </g>
     <g id="line2d_11">
      <g>
       <use style="stroke:#000000;stroke-width:0.5;" x="220.8" xlink:href="#mb708be9882" y="43.2"/>
      </g>
     </g>
     <g id="text_3">
      <!-- 10 -->
      <defs>
       <path d="M 12.40625 8.296875 
L 28.515625 8.296875 
L 28.515625 63.921875 
L 10.984375 60.40625 
L 10.984375 69.390625 
L 28.421875 72.90625 
L 38.28125 72.90625 
L 38.28125 8.296875 
L 54.390625 8.296875 
L 54.390625 0 
L 12.40625 0 
z
" id="BitstreamVeraSans-Roman-31"/>
      </defs>
      <g transform="translate(213.165 401.918125)scale(0.12 -0.12)">
       <use xlink:href="#BitstreamVeraSans-Roman-31"/>
       <use x="63.623046875" xlink:href="#BitstreamVeraSans-Roman-30"/>
      </g>
     </g>
    </g>
    <g id="xtick_4">
     <g id="line2d_12">
      <path clip-path="url(#pad530a8205)" d="M 295.2 388.8 
L 295.2 43.2 
" style="fill:none;stroke:#000000;stroke-dasharray:1.000000,3.000000;stroke-dashoffset:0.0;stroke-width:0.5;"/>
     </g>
     <g id="line2d_13">
      <g>
       <use style="stroke:#000000;stroke-width:0.5;" x="295.2" xlink:href="#md0bd9d31cd" y="388.8"/>
      </g>
     </g>
     <g id="line2d_14">
      <g>
       <use style="stroke:#000000;stroke-width:0.5;" x="295.2" xlink:href="#mb708be9882" y="43.2"/>
      </g>
     </g>
     <g id="text_4">
      <!-- 15 -->
      <g transform="translate(287.565 401.918125)scale(0.12 -0.12)">
       <use xlink:href="#BitstreamVeraSans-Roman-31"/>
       <use x="63.623046875" xlink:href="#BitstreamVeraSans-Roman-35"/>
      </g>
     </g>
    </g>
    <g id="xtick_5">
     <g id="line2d_15">
      <path clip-path="url(#pad530a8205)" d="M 369.6 388.8 
L 369.6 43.2 
" style="fill:none;stroke:#000000;stroke-dasharray:1.000000,3.000000;stroke-dashoffset:0.0;stroke-width:0.5;"/>
     </g>
     <g id="line2d_16">
      <g>
       <use style="stroke:#000000;stroke-width:0.5;" x="369.6" xlink:href="#md0bd9d31cd" y="388.8"/>
      </g>
     </g>
     <g id="line2d_17">
      <g>
       <use style="stroke:#000000;stroke-width:0.5;" x="369.6" xlink:href="#mb708be9882" y="43.2"/>
      </g>
     </g>
     <g id="text_5">
      <!-- 20 -->
      <defs>
       <path d="M 19.1875 8.296875 
L 53.609375 8.296875 
L 53.609375 0 
L 7.328125 0 
L 7.328125 8.296875 
Q 12.9375 14.109375 22.625 23.890625 
Q 32.328125 33.6875 34.8125 36.53125 
Q 39.546875 41.84375 41.421875 45.53125 
Q 43.3125 49.21875 43.3125 52.78125 
Q 43.3125 58.59375 39.234375 62.25 
Q 35.15625 65.921875 28.609375 65.921875 
Q 23.96875 65.921875 18.8125 64.3125 
Q 13.671875 62.703125 7.8125 59.421875 
L 7.8125 69.390625 
Q 13.765625 71.78125 18.9375 73 
Q 24.125 74.21875 28.421875 74.21875 
Q 39.75 74.21875 46.484375 68.546875 
Q 53.21875 62.890625 53.21875 53.421875 
Q 53.21875 48.921875 51.53125 44.890625 
Q 49.859375 40.875 45.40625 35.40625 
Q 44.1875 33.984375 37.640625 27.21875 
Q 31.109375 20.453125 19.1875 8.296875 
" id="BitstreamVeraSans-Roman-32"/>
      </defs>
      <g transform="translate(361.965 401.918125)scale(0.12 -0.12)">
       <use xlink:href="#BitstreamVeraSans-Roman-32"/>
       <use x="63.623046875" xlink:href="#BitstreamVeraSans-Roman-30"/>
      </g>
     </g>
    </g>
    <g id="xtick_6">
     <g id="line2d_18">
      <path clip-path="url(#pad530a8205)" d="M 444 388.8 
L 444 43.2 
" style="fill:none;stroke:#000000;stroke-dasharray:1.000000,3.000000;stroke-dashoffset:0.0;stroke-width:0.5;"/>
     </g>
     <g id="line2d_19">
      <g>
       <use style="stroke:#000000;stroke-width:0.5;" x="444.0" xlink:href="#md0bd9d31cd" y="388.8"/>
      </g>
     </g>
     <g id="line2d_20">
      <g>
       <use style="stroke:#000000;stroke-width:0.5;" x="444.0" xlink:href="#mb708be9882" y="43.2"/>
      </g>
     </g>
     <g id="text_6">
      <!-- 25 -->
      <g transform="translate(436.365 401.918125)scale(0.12 -0.12)">
       <use xlink:href="#BitstreamVeraSans-Roman-32"/>
       <use x="63.623046875" xlink:href="#BitstreamVeraSans-Roman-35"/>
      </g>
     </g>
    </g>
    <g id="xtick_7">
     <g id="line2d_21">
      <path clip-path="url(#pad530a8205)" d="M 518.4 388.8 
L 518.4 43.2 
" style="fill:none;stroke:#000000;stroke-dasharray:1.000000,3.000000;stroke-dashoffset:0.0;stroke-width:0.5;"/>
     </g>
     <g id="line2d_22">
      <g>
       <use style="stroke:#000000;stroke-width:0.5;" x="518.4" xlink:href="#md0bd9d31cd" y="388.8"/>
      </g>
     </g>
     <g id="line2d_23">
      <g>
       <use style="stroke:#000000;stroke-width:0.5;" x="518.4" xlink:href="#mb708be9882" y="43.2"/>
      </g>
     </g>
     <g id="text_7">
      <!-- 30 -->
      <defs>
       <path d="M 40.578125 39.3125 
Q 47.65625 37.796875 51.625 33 
Q 55.609375 28.21875 55.609375 21.1875 
Q 55.609375 10.40625 48.1875 4.484375 
Q 40.765625 -1.421875 27.09375 -1.421875 
Q 22.515625 -1.421875 17.65625 -0.515625 
Q 12.796875 0.390625 7.625 2.203125 
L 7.625 11.71875 
Q 11.71875 9.328125 16.59375 8.109375 
Q 21.484375 6.890625 26.8125 6.890625 
Q 36.078125 6.890625 40.9375 10.546875 
Q 45.796875 14.203125 45.796875 21.1875 
Q 45.796875 27.640625 41.28125 31.265625 
Q 36.765625 34.90625 28.71875 34.90625 
L 20.21875 34.90625 
L 20.21875 43.015625 
L 29.109375 43.015625 
Q 36.375 43.015625 40.234375 45.921875 
Q 44.09375 48.828125 44.09375 54.296875 
Q 44.09375 59.90625 40.109375 62.90625 
Q 36.140625 65.921875 28.71875 65.921875 
Q 24.65625 65.921875 20.015625 65.03125 
Q 15.375 64.15625 9.8125 62.3125 
L 9.8125 71.09375 
Q 15.4375 72.65625 20.34375 73.4375 
Q 25.25 74.21875 29.59375 74.21875 
Q 40.828125 74.21875 47.359375 69.109375 
Q 53.90625 64.015625 53.90625 55.328125 
Q 53.90625 49.265625 50.4375 45.09375 
Q 46.96875 40.921875 40.578125 39.3125 
" id="BitstreamVeraSans-Roman-33"/>
      </defs>
      <g transform="translate(510.765 401.918125)scale(0.12 -0.12)">
       <use xlink:href="#BitstreamVeraSans-Roman-33"/>
       <use x="63.623046875" xlink:href="#BitstreamVeraSans-Roman-30"/>
      </g>
     </g>
    </g>
    <g id="text_8">
     <!-- Time [s] -->
     <defs>
      <path id="BitstreamVeraSans-Roman-20"/>
      <path d="M 8.59375 75.984375 
L 29.296875 75.984375 
L 29.296875 69 
L 17.578125 69 
L 17.578125 -6.203125 
L 29.296875 -6.203125 
L 29.296875 -13.1875 
L 8.59375 -13.1875 
z
" id="BitstreamVeraSans-Roman-5b"/>
      <path d="M 30.421875 75.984375 
L 30.421875 -13.1875 
L 9.71875 -13.1875 
L 9.71875 -6.203125 
L 21.390625 -6.203125 
L 21.390625 69 
L 9.71875 69 
L 9.71875 75.984375 
z
" id="BitstreamVeraSans-Roman-5d"/>
      <path d="M 52 44.1875 
Q 55.375 50.25 60.0625 53.125 
Q 64.75 56 71.09375 56 
Q 79.640625 56 84.28125 50.015625 
Q 88.921875 44.046875 88.921875 33.015625 
L 88.921875 0 
L 79.890625 0 
L 79.890625 32.71875 
Q 79.890625 40.578125 77.09375 44.375 
Q 74.3125 48.1875 68.609375 48.1875 
Q 61.625 48.1875 57.5625 43.546875 
Q 53.515625 38.921875 53.515625 30.90625 
L 53.515625 0 
L 44.484375 0 
L 44.484375 32.71875 
Q 44.484375 40.625 41.703125 44.40625 
Q 38.921875 48.1875 33.109375 48.1875 
Q 26.21875 48.1875 22.15625 43.53125 
Q 18.109375 38.875 18.109375 30.90625 
L 18.109375 0 
L 9.078125 0 
L 9.078125 54.6875 
L 18.109375 54.6875 
L 18.109375 46.1875 
Q 21.1875 51.21875 25.484375 53.609375 
Q 29.78125 56 35.6875 56 
Q 41.65625 56 45.828125 52.96875 
Q 50 49.953125 52 44.1875 
" id="BitstreamVeraSans-Roman-6d"/>
      <path d="M 9.421875 54.6875 
L 18.40625 54.6875 
L 18.40625 0 
L 9.421875 0 
z
M 9.421875 75.984375 
L 18.40625 75.984375 
L 18.40625 64.59375 
L 9.421875 64.59375 
z
" id="BitstreamVeraSans-Roman-69"/>
      <path d="M 56.203125 29.59375 
L 56.203125 25.203125 
L 14.890625 25.203125 
Q 15.484375 15.921875 20.484375 11.0625 
Q 25.484375 6.203125 34.421875 6.203125 
Q 39.59375 6.203125 44.453125 7.46875 
Q 49.3125 8.734375 54.109375 11.28125 
L 54.109375 2.78125 
Q 49.265625 0.734375 44.1875 -0.34375 
Q 39.109375 -1.421875 33.890625 -1.421875 
Q 20.796875 -1.421875 13.15625 6.1875 
Q 5.515625 13.8125 5.515625 26.8125 
Q 5.515625 40.234375 12.765625 48.109375 
Q 20.015625 56 32.328125 56 
Q 43.359375 56 49.78125 48.890625 
Q 56.203125 41.796875 56.203125 29.59375 
M 47.21875 32.234375 
Q 47.125 39.59375 43.09375 43.984375 
Q 39.0625 48.390625 32.421875 48.390625 
Q 24.90625 48.390625 20.390625 44.140625 
Q 15.875 39.890625 15.1875 32.171875 
z
" id="BitstreamVeraSans-Roman-65"/>
      <path d="M -0.296875 72.90625 
L 61.375 72.90625 
L 61.375 64.59375 
L 35.5 64.59375 
L 35.5 0 
L 25.59375 0 
L 25.59375 64.59375 
L -0.296875 64.59375 
z
" id="BitstreamVeraSans-Roman-54"/>
      <path d="M 44.28125 53.078125 
L 44.28125 44.578125 
Q 40.484375 46.53125 36.375 47.5 
Q 32.28125 48.484375 27.875 48.484375 
Q 21.1875 48.484375 17.84375 46.4375 
Q 14.5 44.390625 14.5 40.28125 
Q 14.5 37.15625 16.890625 35.375 
Q 19.28125 33.59375 26.515625 31.984375 
L 29.59375 31.296875 
Q 39.15625 29.25 43.1875 25.515625 
Q 47.21875 21.78125 47.21875 15.09375 
Q 47.21875 7.46875 41.1875 3.015625 
Q 35.15625 -1.421875 24.609375 -1.421875 
Q 20.21875 -1.421875 15.453125 -0.5625 
Q 10.6875 0.296875 5.421875 2 
L 5.421875 11.28125 
Q 10.40625 8.6875 15.234375 7.390625 
Q 20.0625 6.109375 24.8125 6.109375 
Q 31.15625 6.109375 34.5625 8.28125 
Q 37.984375 10.453125 37.984375 14.40625 
Q 37.984375 18.0625 35.515625 20.015625 
Q 33.0625 21.96875 24.703125 23.78125 
L 21.578125 24.515625 
Q 13.234375 26.265625 9.515625 29.90625 
Q 5.8125 33.546875 5.8125 39.890625 
Q 5.8125 47.609375 11.28125 51.796875 
Q 16.75 56 26.8125 56 
Q 31.78125 56 36.171875 55.265625 
Q 40.578125 54.546875 44.28125 53.078125 
" id="BitstreamVeraSans-Roman-73"/>
     </defs>
     <g transform="translate(270.620625 418.531875)scale(0.12 -0.12)">
      <use xlink:href="#BitstreamVeraSans-Roman-54"/>
      <use x="61.037109375" xlink:href="#BitstreamVeraSans-Roman-69"/>
      <use x="88.8203125" xlink:href="#BitstreamVeraSans-Roman-6d"/>
      <use x="186.232421875" xlink:href="#BitstreamVeraSans-Roman-65"/>
      <use x="247.755859375" xlink:href="#BitstreamVeraSans-Roman-20"/>
      <use x="279.54296875" xlink:href="#BitstreamVeraSans-Roman-5b"/>
      <use x="318.556640625" xlink:href="#BitstreamVeraSans-Roman-73"/>
      <use x="370.65625" xlink:href="#BitstreamVeraSans-Roman-5d"/>
     </g>
    </g>
   </g>
   <g id="matplotlib.axis_2">
    <g id="ytick_1">
     <g id="line2d_24">
      <path clip-path="url(#pad530a8205)" d="M 72 388.8 
L 518.4 388.8 
" style="fill:none;stroke:#000000;stroke-dasharray:1.000000,3.000000;stroke-dashoffset:0.0;stroke-width:0.5;"/>
     </g>
     <g id="line2d_25">
      <defs>
       <path d="M 0 0 
L 4 0 
" id="maac1ec16ef" style="stroke:#000000;stroke-width:0.5;"/>
      </defs>
      <g>
       <use style="stroke:#000000;stroke-width:0.5;" x="72.0" xlink:href="#maac1ec16ef" y="388.8"/>
      </g>
     </g>
     <g id="line2d_26">
      <defs>
       <path d="M 0 0 
L -4 0 
" id="me97ed9dbe0" style="stroke:#000000;stroke-width:0.5;"/>
      </defs>
      <g>
       <use style="stroke:#000000;stroke-width:0.5;" x="518.4" xlink:href="#me97ed9dbe0" y="388.8"/>
      </g>
     </g>
     <g id="text_9">
      <!-- 0.00 -->
      <defs>
       <path d="M 10.6875 12.40625 
L 21 12.40625 
L 21 0 
L 10.6875 0 
z
" id="BitstreamVeraSans-Roman-2e"/>
      </defs>
      <g transform="translate(41.28125 392.11125)scale(0.12 -0.12)">
       <use xlink:href="#BitstreamVeraSans-Roman-30"/>
       <use x="63.623046875" xlink:href="#BitstreamVeraSans-Roman-2e"/>
       <use x="95.41015625" xlink:href="#BitstreamVeraSans-Roman-30"/>
       <use x="159.033203125" xlink:href="#BitstreamVeraSans-Roman-30"/>
      </g>
     </g>
    </g>
    <g id="ytick_2">
     <g id="line2d_27">
      <path clip-path="url(#pad530a8205)" d="M 72 345.6 
L 518.4 345.6 
" style="fill:none;stroke:#000000;stroke-dasharray:1.000000,3.000000;stroke-dashoffset:0.0;stroke-width:0.5;"/>
     </g>
     <g id="line2d_28">
      <g>
       <use style="stroke:#000000;stroke-width:0.5;" x="72.0" xlink:href="#maac1ec16ef" y="345.6"/>
      </g>
     </g>
     <g id="line2d_29">
      <g>
       <use style="stroke:#000000;stroke-width:0.5;" x="518.4" xlink:href="#me97ed9dbe0" y="345.6"/>
      </g>
     </g>
     <g id="text_10">
      <!-- 0.01 -->
      <g transform="translate(41.28125 348.91125)scale(0.12 -0.12)">
       <use xlink:href="#BitstreamVeraSans-Roman-30"/>
       <use x="63.623046875" xlink:href="#BitstreamVeraSans-Roman-2e"/>
       <use x="95.41015625" xlink:href="#BitstreamVeraSans-Roman-30"/>
       <use x="159.033203125" xlink:href="#BitstreamVeraSans-Roman-31"/>
      </g>
     </g>
    </g>
    <g id="ytick_3">
     <g id="line2d_30">
      <path clip-path="url(#pad530a8205)" d="M 72 302.4 
L 518.4 302.4 
" style="fill:none;stroke:#000000;stroke-dasharray:1.000000,3.000000;stroke-dashoffset:0.0;stroke-width:0.5;"/>
     </g>
     <g id="line2d_31">
      <g>
       <use style="stroke:#000000;stroke-width:0.5;" x="72.0" xlink:href="#maac1ec16ef" y="302.4"/>
      </g>
     </g>
     <g id="line2d_32">
      <g>
       <use style="stroke:#000000;stroke-width:0.5;" x="518.4" xlink:href="#me97ed9dbe0" y="302.4"/>
      </g>
     </g>
     <g id="text_11">
      <!-- 0.02 -->
      <g transform="translate(41.28125 305.71125)scale(0.12 -0.12)">
       <use xlink:href="#BitstreamVeraSans-Roman-30"/>
       <use x="63.623046875" xlink:href="#BitstreamVeraSans-Roman-2e"/>
       <use x="95.41015625" xlink:href="#BitstreamVeraSans-Roman-30"/>
       <use x="159.033203125" xlink:href="#BitstreamVeraSans-Roman-32"/>
      </g>
     </g>
    </g>
    <g id="ytick_4">
     <g id="line2d_33">
      <path clip-path="url(#pad530a8205)" d="M 72 259.2 
L 518.4 259.2 
" style="fill:none;stroke:#000000;stroke-dasharray:1.000000,3.000000;stroke-dashoffset:0.0;stroke-width:0.5;"/>
     </g>
     <g id="line2d_34">
      <g>
       <use style="stroke:#000000;stroke-width:0.5;" x="72.0" xlink:href="#maac1ec16ef" y="259.2"/>
      </g>
     </g>
     <g id="line2d_35">
      <g>
       <use style="stroke:#000000;stroke-width:0.5;" x="518.4" xlink:href="#me97ed9dbe0" y="259.2"/>
      </g>
     </g>
     <g id="text_12">
      <!-- 0.03 -->
      <g transform="translate(41.28125 262.51125)scale(0.12 -0.12)">
       <use xlink:href="#BitstreamVeraSans-Roman-30"/>
       <use x="63.623046875" xlink:href="#BitstreamVeraSans-Roman-2e"/>
       <use x="95.41015625" xlink:href="#BitstreamVeraSans-Roman-30"/>
       <use x="159.033203125" xlink:href="#BitstreamVeraSans-Roman-33"/>
      </g>
     </g>
    </g>
    <g id="ytick_5">
     <g id="line2d_36">
      <path clip-path="url(#pad530a8205)" d="M 72 216 
L 518.4 216 
" style="fill:none;stroke:#000000;stroke-dasharray:1.000000,3.000000;stroke-dashoffset:0.0;stroke-width:0.5;"/>
     </g>
     <g id="line2d_37">
      <g>
       <use style="stroke:#000000;stroke-width:0.5;" x="72.0" xlink:href="#maac1ec16ef" y="216.0"/>
      </g>
     </g>
     <g id="line2d_38">
      <g>
       <use style="stroke:#000000;stroke-width:0.5;" x="518.4" xlink:href="#me97ed9dbe0" y="216.0"/>
      </g>
     </g>
     <g id="text_13">
      <!-- 0.04 -->
      <defs>
       <path d="M 37.796875 64.3125 
L 12.890625 25.390625 
L 37.796875 25.390625 
z
M 35.203125 72.90625 
L 47.609375 72.90625 
L 47.609375 25.390625 
L 58.015625 25.390625 
L 58.015625 17.1875 
L 47.609375 17.1875 
L 47.609375 0 
L 37.796875 0 
L 37.796875 17.1875 
L 4.890625 17.1875 
L 4.890625 26.703125 
z
" id="BitstreamVeraSans-Roman-34"/>
      </defs>
      <g transform="translate(41.28125 219.31125)scale(0.12 -0.12)">
       <use xlink:href="#BitstreamVeraSans-Roman-30"/>
       <use x="63.623046875" xlink:href="#BitstreamVeraSans-Roman-2e"/>
       <use x="95.41015625" xlink:href="#BitstreamVeraSans-Roman-30"/>
       <use x="159.033203125" xlink:href="#BitstreamVeraSans-Roman-34"/>
      </g>
     </g>
    </g>
    <g id="ytick_6">
     <g id="line2d_39">
      <path clip-path="url(#pad530a8205)" d="M 72 172.8 
L 518.4 172.8 
" style="fill:none;stroke:#000000;stroke-dasharray:1.000000,3.000000;stroke-dashoffset:0.0;stroke-width:0.5;"/>
     </g>
     <g id="line2d_40">
      <g>
       <use style="stroke:#000000;stroke-width:0.5;" x="72.0" xlink:href="#maac1ec16ef" y="172.8"/>
      </g>
     </g>
     <g id="line2d_41">
      <g>
       <use style="stroke:#000000;stroke-width:0.5;" x="518.4" xlink:href="#me97ed9dbe0" y="172.8"/>
      </g>
     </g>
     <g id="text_14">
      <!-- 0.05 -->
      <g transform="translate(41.28125 176.11125)scale(0.12 -0.12)">
       <use xlink:href="#BitstreamVeraSans-Roman-30"/>
       <use x="63.623046875" xlink:href="#BitstreamVeraSans-Roman-2e"/>
       <use x="95.41015625" xlink:href="#BitstreamVeraSans-Roman-30"/>
       <use x="159.033203125" xlink:href="#BitstreamVeraSans-Roman-35"/>
      </g>
     </g>
    </g>
    <g id="ytick_7">
     <g id="line2d_42">
      <path clip-path="url(#pad530a8205)" d="M 72 129.6 
L 518.4 129.6 
" style="fill:none;stroke:#000000;stroke-dasharray:1.000000,3.000000;stroke-dashoffset:0.0;stroke-width:0.5;"/>
     </g>
     <g id="line2d_43">
      <g>
       <use style="stroke:#000000;stroke-width:0.5;" x="72.0" xlink:href="#maac1ec16ef" y="129.6"/>
      </g>
     </g>
     <g id="line2d_44">
      <g>
       <use style="stroke:#000000;stroke-width:0.5;" x="518.4" xlink:href="#me97ed9dbe0" y="129.6"/>
      </g>
     </g>
     <g id="text_15">
      <!-- 0.06 -->
      <defs>
       <path d="M 33.015625 40.375 
Q 26.375 40.375 22.484375 35.828125 
Q 18.609375 31.296875 18.609375 23.390625 
Q 18.609375 15.53125 22.484375 10.953125 
Q 26.375 6.390625 33.015625 6.390625 
Q 39.65625 6.390625 43.53125 10.953125 
Q 47.40625 15.53125 47.40625 23.390625 
Q 47.40625 31.296875 43.53125 35.828125 
Q 39.65625 40.375 33.015625 40.375 
M 52.59375 71.296875 
L 52.59375 62.3125 
Q 48.875 64.0625 45.09375 64.984375 
Q 41.3125 65.921875 37.59375 65.921875 
Q 27.828125 65.921875 22.671875 59.328125 
Q 17.53125 52.734375 16.796875 39.40625 
Q 19.671875 43.65625 24.015625 45.921875 
Q 28.375 48.1875 33.59375 48.1875 
Q 44.578125 48.1875 50.953125 41.515625 
Q 57.328125 34.859375 57.328125 23.390625 
Q 57.328125 12.15625 50.6875 5.359375 
Q 44.046875 -1.421875 33.015625 -1.421875 
Q 20.359375 -1.421875 13.671875 8.265625 
Q 6.984375 17.96875 6.984375 36.375 
Q 6.984375 53.65625 15.1875 63.9375 
Q 23.390625 74.21875 37.203125 74.21875 
Q 40.921875 74.21875 44.703125 73.484375 
Q 48.484375 72.75 52.59375 71.296875 
" id="BitstreamVeraSans-Roman-36"/>
      </defs>
      <g transform="translate(41.28125 132.91125)scale(0.12 -0.12)">
       <use xlink:href="#BitstreamVeraSans-Roman-30"/>
       <use x="63.623046875" xlink:href="#BitstreamVeraSans-Roman-2e"/>
       <use x="95.41015625" xlink:href="#BitstreamVeraSans-Roman-30"/>
       <use x="159.033203125" xlink:href="#BitstreamVeraSans-Roman-36"/>
      </g>
     </g>
    </g>
    <g id="ytick_8">
     <g id="line2d_45">
      <path clip-path="url(#pad530a8205)" d="M 72 86.4 
L 518.4 86.4 
" style="fill:none;stroke:#000000;stroke-dasharray:1.000000,3.000000;stroke-dashoffset:0.0;stroke-width:0.5;"/>
     </g>
     <g id="line2d_46">
      <g>
       <use style="stroke:#000000;stroke-width:0.5;" x="72.0" xlink:href="#maac1ec16ef" y="86.4"/>
      </g>
     </g>
     <g id="line2d_47">
      <g>
       <use style="stroke:#000000;stroke-width:0.5;" x="518.4" xlink:href="#me97ed9dbe0" y="86.4"/>
      </g>
     </g>
     <g id="text_16">
      <!-- 0.07 -->
      <defs>
       <path d="M 8.203125 72.90625 
L 55.078125 72.90625 
L 55.078125 68.703125 
L 28.609375 0 
L 18.3125 0 
L 43.21875 64.59375 
L 8.203125 64.59375 
z
" id="BitstreamVeraSans-Roman-37"/>
      </defs>
      <g transform="translate(41.28125 89.71125)scale(0.12 -0.12)">
       <use xlink:href="#BitstreamVeraSans-Roman-30"/>
       <use x="63.623046875" xlink:href="#BitstreamVeraSans-Roman-2e"/>
       <use x="95.41015625" xlink:href="#BitstreamVeraSans-Roman-30"/>
       <use x="159.033203125" xlink:href="#BitstreamVeraSans-Roman-37"/>
      </g>
     </g>
    </g>
    <g id="ytick_9">
     <g id="line2d_48">
      <path clip-path="url(#pad530a8205)" d="M 72 43.2 
L 518.4 43.2 
" style="fill:none;stroke:#000000;stroke-dasharray:1.000000,3.000000;stroke-dashoffset:0.0;stroke-width:0.5;"/>
     </g>
     <g id="line2d_49">
      <g>
       <use style="stroke:#000000;stroke-width:0.5;" x="72.0" xlink:href="#maac1ec16ef" y="43.2"/>
      </g>
     </g>
     <g id="line2d_50">
      <g>
       <use style="stroke:#000000;stroke-width:0.5;" x="518.4" xlink:href="#me97ed9dbe0" y="43.2"/>
      </g>
     </g>
     <g id="text_17">
      <!-- 0.08 -->
      <defs>
       <path d="M 31.78125 34.625 
Q 24.75 34.625 20.71875 30.859375 
Q 16.703125 27.09375 16.703125 20.515625 
Q 16.703125 13.921875 20.71875 10.15625 
Q 24.75 6.390625 31.78125 6.390625 
Q 38.8125 6.390625 42.859375 10.171875 
Q 46.921875 13.96875 46.921875 20.515625 
Q 46.921875 27.09375 42.890625 30.859375 
Q 38.875 34.625 31.78125 34.625 
M 21.921875 38.8125 
Q 15.578125 40.375 12.03125 44.71875 
Q 8.5 49.078125 8.5 55.328125 
Q 8.5 64.0625 14.71875 69.140625 
Q 20.953125 74.21875 31.78125 74.21875 
Q 42.671875 74.21875 48.875 69.140625 
Q 55.078125 64.0625 55.078125 55.328125 
Q 55.078125 49.078125 51.53125 44.71875 
Q 48 40.375 41.703125 38.8125 
Q 48.828125 37.15625 52.796875 32.3125 
Q 56.78125 27.484375 56.78125 20.515625 
Q 56.78125 9.90625 50.3125 4.234375 
Q 43.84375 -1.421875 31.78125 -1.421875 
Q 19.734375 -1.421875 13.25 4.234375 
Q 6.78125 9.90625 6.78125 20.515625 
Q 6.78125 27.484375 10.78125 32.3125 
Q 14.796875 37.15625 21.921875 38.8125 
M 18.3125 54.390625 
Q 18.3125 48.734375 21.84375 45.5625 
Q 25.390625 42.390625 31.78125 42.390625 
Q 38.140625 42.390625 41.71875 45.5625 
Q 45.3125 48.734375 45.3125 54.390625 
Q 45.3125 60.0625 41.71875 63.234375 
Q 38.140625 66.40625 31.78125 66.40625 
Q 25.390625 66.40625 21.84375 63.234375 
Q 18.3125 60.0625 18.3125 54.390625 
" id="BitstreamVeraSans-Roman-38"/>
      </defs>
      <g transform="translate(41.28125 46.51125)scale(0.12 -0.12)">
       <use xlink:href="#BitstreamVeraSans-Roman-30"/>
       <use x="63.623046875" xlink:href="#BitstreamVeraSans-Roman-2e"/>
       <use x="95.41015625" xlink:href="#BitstreamVeraSans-Roman-30"/>
       <use x="159.033203125" xlink:href="#BitstreamVeraSans-Roman-38"/>
      </g>
     </g>
    </g>
    <g id="text_18">
     <!-- Pedal [] -->
     <defs>
      <path d="M 19.671875 64.796875 
L 19.671875 37.40625 
L 32.078125 37.40625 
Q 38.96875 37.40625 42.71875 40.96875 
Q 46.484375 44.53125 46.484375 51.125 
Q 46.484375 57.671875 42.71875 61.234375 
Q 38.96875 64.796875 32.078125 64.796875 
z
M 9.8125 72.90625 
L 32.078125 72.90625 
Q 44.34375 72.90625 50.609375 67.359375 
Q 56.890625 61.8125 56.890625 51.125 
Q 56.890625 40.328125 50.609375 34.8125 
Q 44.34375 29.296875 32.078125 29.296875 
L 19.671875 29.296875 
L 19.671875 0 
L 9.8125 0 
z
" id="BitstreamVeraSans-Roman-50"/>
      <path d="M 45.40625 46.390625 
L 45.40625 75.984375 
L 54.390625 75.984375 
L 54.390625 0 
L 45.40625 0 
L 45.40625 8.203125 
Q 42.578125 3.328125 38.25 0.953125 
Q 33.9375 -1.421875 27.875 -1.421875 
Q 17.96875 -1.421875 11.734375 6.484375 
Q 5.515625 14.40625 5.515625 27.296875 
Q 5.515625 40.1875 11.734375 48.09375 
Q 17.96875 56 27.875 56 
Q 33.9375 56 38.25 53.625 
Q 42.578125 51.265625 45.40625 46.390625 
M 14.796875 27.296875 
Q 14.796875 17.390625 18.875 11.75 
Q 22.953125 6.109375 30.078125 6.109375 
Q 37.203125 6.109375 41.296875 11.75 
Q 45.40625 17.390625 45.40625 27.296875 
Q 45.40625 37.203125 41.296875 42.84375 
Q 37.203125 48.484375 30.078125 48.484375 
Q 22.953125 48.484375 18.875 42.84375 
Q 14.796875 37.203125 14.796875 27.296875 
" id="BitstreamVeraSans-Roman-64"/>
      <path d="M 34.28125 27.484375 
Q 23.390625 27.484375 19.1875 25 
Q 14.984375 22.515625 14.984375 16.5 
Q 14.984375 11.71875 18.140625 8.90625 
Q 21.296875 6.109375 26.703125 6.109375 
Q 34.1875 6.109375 38.703125 11.40625 
Q 43.21875 16.703125 43.21875 25.484375 
L 43.21875 27.484375 
z
M 52.203125 31.203125 
L 52.203125 0 
L 43.21875 0 
L 43.21875 8.296875 
Q 40.140625 3.328125 35.546875 0.953125 
Q 30.953125 -1.421875 24.3125 -1.421875 
Q 15.921875 -1.421875 10.953125 3.296875 
Q 6 8.015625 6 15.921875 
Q 6 25.140625 12.171875 29.828125 
Q 18.359375 34.515625 30.609375 34.515625 
L 43.21875 34.515625 
L 43.21875 35.40625 
Q 43.21875 41.609375 39.140625 45 
Q 35.0625 48.390625 27.6875 48.390625 
Q 23 48.390625 18.546875 47.265625 
Q 14.109375 46.140625 10.015625 43.890625 
L 10.015625 52.203125 
Q 14.9375 54.109375 19.578125 55.046875 
Q 24.21875 56 28.609375 56 
Q 40.484375 56 46.34375 49.84375 
Q 52.203125 43.703125 52.203125 31.203125 
" id="BitstreamVeraSans-Roman-61"/>
      <path d="M 9.421875 75.984375 
L 18.40625 75.984375 
L 18.40625 0 
L 9.421875 0 
z
" id="BitstreamVeraSans-Roman-6c"/>
     </defs>
     <g transform="translate(33.785625 239.0484375)rotate(-90.0)scale(0.12 -0.12)">
      <use xlink:href="#BitstreamVeraSans-Roman-50"/>
      <use x="60.255859375" xlink:href="#BitstreamVeraSans-Roman-65"/>
      <use x="121.779296875" xlink:href="#BitstreamVeraSans-Roman-64"/>
      <use x="185.255859375" xlink:href="#BitstreamVeraSans-Roman-61"/>
      <use x="246.53515625" xlink:href="#BitstreamVeraSans-Roman-6c"/>
      <use x="274.318359375" xlink:href="#BitstreamVeraSans-Roman-20"/>
      <use x="306.10546875" xlink:href="#BitstreamVeraSans-Roman-5b"/>
      <use x="345.119140625" xlink:href="#BitstreamVeraSans-Roman-5d"/>
     </g>
    </g>
   </g>
   <g id="legend_1">
    <g id="patch_7">
     <path d="M 372.99825 96.993 
L 511.2 96.993 
L 511.2 50.4 
L 372.99825 50.4 
z
" style="fill:#ffffff;stroke:#000000;stroke-linejoin:miter;"/>
    </g>
    <g id="line2d_51">
     <path d="M 383.07825 62.06175 
L 403.23825 62.06175 
" style="fill:none;stroke:#008000;stroke-linecap:square;"/>
    </g>
    <g id="line2d_52"/>
    <g id="text_19">
     <!-- Gas pedal -->
     <defs>
      <path d="M 59.515625 10.40625 
L 59.515625 29.984375 
L 43.40625 29.984375 
L 43.40625 38.09375 
L 69.28125 38.09375 
L 69.28125 6.78125 
Q 63.578125 2.734375 56.6875 0.65625 
Q 49.8125 -1.421875 42 -1.421875 
Q 24.90625 -1.421875 15.25 8.5625 
Q 5.609375 18.5625 5.609375 36.375 
Q 5.609375 54.25 15.25 64.234375 
Q 24.90625 74.21875 42 74.21875 
Q 49.125 74.21875 55.546875 72.453125 
Q 61.96875 70.703125 67.390625 67.28125 
L 67.390625 56.78125 
Q 61.921875 61.421875 55.765625 63.765625 
Q 49.609375 66.109375 42.828125 66.109375 
Q 29.4375 66.109375 22.71875 58.640625 
Q 16.015625 51.171875 16.015625 36.375 
Q 16.015625 21.625 22.71875 14.15625 
Q 29.4375 6.6875 42.828125 6.6875 
Q 48.046875 6.6875 52.140625 7.59375 
Q 56.25 8.5 59.515625 10.40625 
" id="BitstreamVeraSans-Roman-47"/>
      <path d="M 18.109375 8.203125 
L 18.109375 -20.796875 
L 9.078125 -20.796875 
L 9.078125 54.6875 
L 18.109375 54.6875 
L 18.109375 46.390625 
Q 20.953125 51.265625 25.265625 53.625 
Q 29.59375 56 35.59375 56 
Q 45.5625 56 51.78125 48.09375 
Q 58.015625 40.1875 58.015625 27.296875 
Q 58.015625 14.40625 51.78125 6.484375 
Q 45.5625 -1.421875 35.59375 -1.421875 
Q 29.59375 -1.421875 25.265625 0.953125 
Q 20.953125 3.328125 18.109375 8.203125 
M 48.6875 27.296875 
Q 48.6875 37.203125 44.609375 42.84375 
Q 40.53125 48.484375 33.40625 48.484375 
Q 26.265625 48.484375 22.1875 42.84375 
Q 18.109375 37.203125 18.109375 27.296875 
Q 18.109375 17.390625 22.1875 11.75 
Q 26.265625 6.109375 33.40625 6.109375 
Q 40.53125 6.109375 44.609375 11.75 
Q 48.6875 17.390625 48.6875 27.296875 
" id="BitstreamVeraSans-Roman-70"/>
     </defs>
     <g transform="translate(419.07825 67.10175)scale(0.144 -0.144)">
      <use xlink:href="#BitstreamVeraSans-Roman-47"/>
      <use x="77.490234375" xlink:href="#BitstreamVeraSans-Roman-61"/>
      <use x="138.76953125" xlink:href="#BitstreamVeraSans-Roman-73"/>
      <use x="190.869140625" xlink:href="#BitstreamVeraSans-Roman-20"/>
      <use x="222.65625" xlink:href="#BitstreamVeraSans-Roman-70"/>
      <use x="286.1328125" xlink:href="#BitstreamVeraSans-Roman-65"/>
      <use x="347.65625" xlink:href="#BitstreamVeraSans-Roman-64"/>
      <use x="411.1328125" xlink:href="#BitstreamVeraSans-Roman-61"/>
      <use x="472.412109375" xlink:href="#BitstreamVeraSans-Roman-6c"/>
     </g>
    </g>
    <g id="line2d_53">
     <path d="M 383.07825 83.19825 
L 403.23825 83.19825 
" style="fill:none;stroke:#ff0000;stroke-linecap:square;"/>
    </g>
    <g id="line2d_54"/>
    <g id="text_20">
     <!-- Brake pedal -->
     <defs>
      <path d="M 41.109375 46.296875 
Q 39.59375 47.171875 37.8125 47.578125 
Q 36.03125 48 33.890625 48 
Q 26.265625 48 22.1875 43.046875 
Q 18.109375 38.09375 18.109375 28.8125 
L 18.109375 0 
L 9.078125 0 
L 9.078125 54.6875 
L 18.109375 54.6875 
L 18.109375 46.1875 
Q 20.953125 51.171875 25.484375 53.578125 
Q 30.03125 56 36.53125 56 
Q 37.453125 56 38.578125 55.875 
Q 39.703125 55.765625 41.0625 55.515625 
z
" id="BitstreamVeraSans-Roman-72"/>
      <path d="M 19.671875 34.8125 
L 19.671875 8.109375 
L 35.5 8.109375 
Q 43.453125 8.109375 47.28125 11.40625 
Q 51.125 14.703125 51.125 21.484375 
Q 51.125 28.328125 47.28125 31.5625 
Q 43.453125 34.8125 35.5 34.8125 
z
M 19.671875 64.796875 
L 19.671875 42.828125 
L 34.28125 42.828125 
Q 41.5 42.828125 45.03125 45.53125 
Q 48.578125 48.25 48.578125 53.8125 
Q 48.578125 59.328125 45.03125 62.0625 
Q 41.5 64.796875 34.28125 64.796875 
z
M 9.8125 72.90625 
L 35.015625 72.90625 
Q 46.296875 72.90625 52.390625 68.21875 
Q 58.5 63.53125 58.5 54.890625 
Q 58.5 48.1875 55.375 44.234375 
Q 52.25 40.28125 46.1875 39.3125 
Q 53.46875 37.75 57.5 32.78125 
Q 61.53125 27.828125 61.53125 20.40625 
Q 61.53125 10.640625 54.890625 5.3125 
Q 48.25 0 35.984375 0 
L 9.8125 0 
z
" id="BitstreamVeraSans-Roman-42"/>
      <path d="M 9.078125 75.984375 
L 18.109375 75.984375 
L 18.109375 31.109375 
L 44.921875 54.6875 
L 56.390625 54.6875 
L 27.390625 29.109375 
L 57.625 0 
L 45.90625 0 
L 18.109375 26.703125 
L 18.109375 0 
L 9.078125 0 
z
" id="BitstreamVeraSans-Roman-6b"/>
     </defs>
     <g transform="translate(419.07825 88.23825)scale(0.144 -0.144)">
      <use xlink:href="#BitstreamVeraSans-Roman-42"/>
      <use x="68.603515625" xlink:href="#BitstreamVeraSans-Roman-72"/>
      <use x="109.716796875" xlink:href="#BitstreamVeraSans-Roman-61"/>
      <use x="170.99609375" xlink:href="#BitstreamVeraSans-Roman-6b"/>
      <use x="228.859375" xlink:href="#BitstreamVeraSans-Roman-65"/>
      <use x="290.3828125" xlink:href="#BitstreamVeraSans-Roman-20"/>
      <use x="322.169921875" xlink:href="#BitstreamVeraSans-Roman-70"/>
      <use x="385.646484375" xlink:href="#BitstreamVeraSans-Roman-65"/>
      <use x="447.169921875" xlink:href="#BitstreamVeraSans-Roman-64"/>
      <use x="510.646484375" xlink:href="#BitstreamVeraSans-Roman-61"/>
      <use x="571.92578125" xlink:href="#BitstreamVeraSans-Roman-6c"/>
     </g>
    </g>
   </g>
  </g>
 </g>
 <defs>
  <clipPath id="pad530a8205">
   <rect height="345.6" width="446.4" x="72.0" y="43.2"/>
  </clipPath>
 </defs>
</svg>
