<?xml version="1.0" encoding="utf-8" standalone="no"?>
<!DOCTYPE svg PUBLIC "-//W3C//DTD SVG 1.1//EN"
  "http://www.w3.org/Graphics/SVG/1.1/DTD/svg11.dtd">
<!-- Created with matplotlib (http://matplotlib.org/) -->
<svg height="432pt" version="1.1" viewBox="0 0 576 432" width="576pt" xmlns="http://www.w3.org/2000/svg" xmlns:xlink="http://www.w3.org/1999/xlink">
 <defs>
  <style type="text/css">
*{stroke-linecap:butt;stroke-linejoin:round;stroke-miterlimit:100000;}
  </style>
 </defs>
 <g id="figure_1">
  <g id="patch_1">
   <path d="M 0 432 
L 576 432 
L 576 0 
L 0 0 
z
" style="fill:#ffffff;"/>
  </g>
  <g id="axes_1">
   <g id="patch_2">
    <path d="M 72 388.8 
L 518.4 388.8 
L 518.4 43.2 
L 72 43.2 
z
" style="fill:#ffffff;"/>
   </g>
   <g id="line2d_1">
    <path clip-path="url(#p0d34dfdc0b)" d="M 76.0176 250.56 
L 106.5216 250.56 
L 107.1168 268.169546 
L 107.2656 270.643567 
L 108.3072 303.310494 
L 108.456 305.788108 
L 108.9024 318.365422 
L 109.0512 320.846507 
L 109.6464 338.479131 
L 109.7952 340.960335 
L 110.2416 353.546393 
L 110.688 349.25642 
L 110.9856 349.25642 
L 111.1344 346.686402 
L 111.2832 346.686402 
L 111.5808 341.545728 
L 111.7296 341.545728 
L 111.8784 338.976853 
L 112.176 338.976853 
L 112.4736 333.834927 
L 112.7712 333.834927 
L 112.92 331.263647 
L 113.0688 331.263647 
L 113.3664 326.122226 
L 113.664 326.122226 
L 113.8128 323.550313 
L 114.1104 323.550313 
L 114.408 318.405858 
L 114.7056 318.405858 
L 114.8544 315.835088 
L 115.0032 315.835088 
L 115.152 313.262336 
L 115.3008 313.262336 
L 115.4496 310.689367 
L 115.5984 310.689367 
L 115.7472 308.116192 
L 115.896 308.116192 
L 116.1936 302.970986 
L 116.3424 302.970986 
L 116.4912 300.397177 
L 117.0864 300.397177 
L 117.384 295.248927 
L 117.6816 295.248927 
L 117.8304 290.101617 
L 118.128 290.101617 
L 118.2768 287.526756 
L 118.4256 287.526756 
L 118.5744 284.951686 
L 118.7232 284.951686 
L 118.872 282.378181 
L 119.0208 282.378181 
L 119.1696 279.802689 
L 119.3184 279.802689 
L 119.4672 277.226986 
L 119.616 277.226986 
L 119.7648 274.651071 
L 120.0624 274.651071 
L 120.2112 272.074948 
L 120.36 272.074948 
L 120.5088 269.500393 
L 120.6576 269.500393 
L 120.8064 266.923847 
L 120.9552 266.923847 
L 121.104 264.347091 
L 121.2528 264.347091 
L 121.4016 261.770124 
L 121.5504 261.770124 
L 121.6992 259.194728 
L 121.848 259.194728 
L 121.9968 256.61734 
L 122.1456 256.61734 
L 122.2944 254.039742 
L 122.592 254.039742 
L 122.7408 251.461933 
L 123.0384 251.461933 
L 123.336 246.307464 
L 123.6336 246.307464 
L 123.9312 241.150372 
L 124.3776 241.150372 
L 124.6752 235.99422 
L 124.9728 235.99422 
L 125.1216 233.414937 
L 125.568 233.414937 
L 125.7168 230.835443 
L 126.0144 230.835443 
L 126.1632 228.255739 
L 126.6096 228.255739 
L 126.7584 225.675825 
L 127.2048 225.675825 
L 127.3536 223.097482 
L 127.8 223.097482 
L 127.9488 220.517147 
L 129.1392 220.517147 
L 129.288 217.9366 
L 130.1808 217.9366 
L 130.3296 215.355842 
L 131.8176 215.355842 
L 131.9664 212.77666 
L 135.24 212.77666 
L 135.3888 210.195482 
L 137.0256 210.195482 
L 137.1744 212.77666 
L 138.6624 212.77666 
L 138.8112 210.195482 
L 138.96 210.195482 
L 139.1088 212.77666 
L 145.656 212.77666 
L 145.8048 215.355842 
L 150.7152 215.355842 
L 150.864 217.9366 
L 155.7744 217.9366 
L 155.9232 220.517147 
L 160.6848 220.517147 
L 160.8336 223.097482 
L 166.0416 223.097482 
L 166.1904 225.675825 
L 167.0832 225.675825 
L 167.232 223.097482 
L 167.5296 223.097482 
L 167.6784 225.675825 
L 172.5888 225.675825 
L 172.7376 228.255739 
L 174.0768 228.255739 
L 174.2256 225.675825 
L 174.3744 225.675825 
L 174.5232 228.255739 
L 179.4336 228.255739 
L 179.5824 230.835443 
L 180.9216 230.835443 
L 181.0704 228.255739 
L 181.2192 228.255739 
L 181.368 230.835443 
L 187.32 230.835443 
L 187.4688 233.414937 
L 189.552 233.414937 
L 189.7008 230.835443 
L 189.8496 230.835443 
L 189.9984 233.414937 
L 191.1888 233.414937 
L 191.3376 230.835443 
L 191.4864 233.414937 
L 196.248 233.414937 
L 196.3968 235.99422 
L 198.0336 235.99422 
L 198.1824 233.414937 
L 198.48 233.414937 
L 198.6288 235.99422 
L 199.6704 235.99422 
L 199.8192 233.414937 
L 199.968 233.414937 
L 200.1168 235.99422 
L 201.456 235.99422 
L 201.6048 233.414937 
L 201.7536 233.414937 
L 201.9024 235.99422 
L 206.8128 235.99422 
L 206.9616 238.571511 
L 208.152 238.571511 
L 208.3008 235.99422 
L 208.5984 235.99422 
L 208.7472 238.571511 
L 209.7888 238.571511 
L 209.9376 235.99422 
L 210.0864 235.99422 
L 210.2352 238.571511 
L 211.5744 238.571511 
L 211.7232 235.99422 
L 211.872 235.99422 
L 212.0208 238.571511 
L 213.2112 238.571511 
L 213.36 235.99422 
L 213.6576 235.99422 
L 213.8064 238.571511 
L 219.4608 238.571511 
L 219.6096 241.150372 
L 221.544 241.150372 
L 221.6928 238.571511 
L 221.9904 238.571511 
L 222.1392 241.150372 
L 222.5856 241.150372 
L 224.0736 189.794087 
L 224.2224 186.982768 
L 224.52 178.778164 
L 224.6688 175.968298 
L 224.9664 167.769689 
L 225.264 162.155414 
L 225.5616 153.961234 
L 226.4544 137.149577 
L 226.6032 136.934169 
L 227.1984 125.753503 
L 227.3472 125.540382 
L 227.6448 119.960519 
L 227.7936 119.752548 
L 228.0912 114.181027 
L 228.24 113.97665 
L 228.3888 111.194171 
L 228.5376 110.994182 
L 228.6864 108.214483 
L 228.8352 108.015287 
L 228.984 105.238369 
L 229.1328 105.041768 
L 229.2816 102.267631 
L 229.5792 101.882948 
L 229.728 99.113374 
L 230.0256 98.737013 
L 230.1744 95.971992 
L 230.472 95.602418 
L 230.6208 92.841176 
L 231.0672 92.298435 
L 231.216 89.543527 
L 231.96 88.677839 
L 232.1088 85.932808 
L 232.5552 85.433851 
L 233.1504 63.553318 
L 233.448 63.245172 
L 233.5968 65.668729 
L 234.0432 65.079772 
L 234.192 62.220004 
L 234.3408 56.790382 
L 234.4896 56.790382 
L 234.6384 56.65251 
L 234.7872 58.954798 
L 235.0848 58.689375 
L 235.2336 61.131636 
L 235.5312 60.876719 
L 235.68 63.323409 
L 235.8288 63.201296 
L 235.9776 57.935995 
L 236.1264 57.81588 
L 236.2752 65.409383 
L 236.424 60.150983 
L 236.5728 67.748091 
L 236.8704 67.524649 
L 237.0192 69.986356 
L 237.3168 69.773379 
L 237.4656 72.237743 
L 237.6144 72.1366 
L 237.7632 66.898861 
L 237.912 66.797924 
L 238.0608 69.171836 
L 238.2096 69.077903 
L 238.3584 71.551702 
L 238.656 71.370963 
L 238.8048 73.849149 
L 238.9536 68.630094 
L 239.2512 68.462415 
L 239.4 70.945627 
L 239.6976 70.78662 
L 239.8464 73.27422 
L 239.9952 73.200042 
L 240.144 75.69067 
L 240.4416 75.5494 
L 240.5904 78.046166 
L 240.7392 77.915299 
L 240.888 80.414671 
L 241.3344 80.294206 
L 241.4832 82.743007 
L 241.632 82.689624 
L 241.7808 85.19772 
L 241.9296 80.024766 
L 242.2272 79.92591 
L 242.376 82.439002 
L 242.6736 82.350517 
L 242.8224 84.869727 
L 243.12 84.791604 
L 243.2688 87.313388 
L 243.4176 87.279616 
L 243.5664 89.804408 
L 243.864 89.743897 
L 244.0128 97.388301 
L 244.4592 97.340356 
L 244.608 99.876272 
L 245.0544 99.821261 
L 245.2032 102.362821 
L 245.5008 102.338586 
L 245.6496 109.989911 
L 246.2448 109.975533 
L 246.3936 104.867889 
L 246.5424 104.866942 
L 246.6912 102.318491 
L 246.9888 102.334085 
L 247.1376 97.238307 
L 247.2864 99.800662 
L 247.4352 94.719931 
L 247.584 94.733815 
L 247.7328 97.299322 
L 247.8816 97.316811 
L 248.0304 99.885294 
L 248.1792 99.904616 
L 248.328 107.576644 
L 248.7744 107.627998 
L 248.9232 110.206173 
L 249.3696 110.299973 
L 249.5184 112.883741 
L 249.6672 112.919542 
L 249.9648 120.640648 
L 250.4112 120.727938 
L 250.7088 120.821315 
L 250.8576 123.415146 
L 251.6016 123.686347 
L 251.7504 126.288335 
L 252.1968 126.475779 
L 252.3456 134.169075 
L 253.8336 134.83977 
L 253.9824 137.461297 
L 254.1312 137.546207 
L 254.28 142.710241 
L 255.4704 143.35975 
L 255.6192 148.532662 
L 256.3632 148.946802 
L 256.512 151.589382 
L 257.1072 152.03751 
L 257.256 157.221526 
L 257.4048 154.804129 
L 258.4464 155.54171 
L 258.5952 160.734398 
L 260.5296 162.398641 
L 260.6784 167.607124 
L 260.8272 167.757221 
L 261.1248 160.476669 
L 261.72 161.100891 
L 261.8688 166.315966 
L 263.6544 168.184457 
L 263.8032 173.412395 
L 264.1008 173.776391 
L 264.2496 173.776391 
L 264.3984 171.437194 
L 266.4816 174.166059 
L 266.6304 179.412908 
L 266.7792 179.622213 
L 266.928 177.310887 
L 267.0768 177.522607 
L 267.2256 177.522607 
L 268.5648 179.487519 
L 268.7136 177.195814 
L 268.8624 177.421475 
L 269.0112 182.68385 
L 269.3088 183.146404 
L 269.4576 183.146404 
L 270.0528 184.090895 
L 270.2016 184.571082 
L 270.3504 184.571082 
L 270.4992 177.511551 
L 271.5408 179.246903 
L 271.6896 179.756161 
L 271.8384 174.986166 
L 271.9872 175.244256 
L 272.136 170.737635 
L 272.4336 171.2602 
L 272.5824 176.548685 
L 272.88 177.082152 
L 273.0288 177.082152 
L 273.7728 178.442251 
L 273.9216 183.739099 
L 274.0704 183.739099 
L 274.2192 184.298048 
L 274.368 179.560425 
L 274.5168 184.861327 
L 274.6656 180.127505 
L 275.5584 181.859196 
L 275.7072 187.168188 
L 276.3024 188.363528 
L 276.4512 188.363528 
L 277.4928 190.507381 
L 277.7904 191.449169 
L 277.9392 191.449169 
L 278.6832 193.047211 
L 278.832 190.868349 
L 281.2128 196.236863 
L 281.3616 201.584674 
L 281.5104 201.934096 
L 281.6592 201.934096 
L 281.9568 202.638976 
L 282.1056 200.495864 
L 282.4032 201.208329 
L 282.552 201.208329 
L 282.9984 203.020007 
L 283.1472 203.384714 
L 283.296 201.255836 
L 283.4448 196.630934 
L 283.5936 197.000105 
L 283.8912 198.112785 
L 284.04 198.487699 
L 284.1888 198.487699 
L 284.6352 199.623795 
L 284.784 199.623795 
L 284.9328 204.995316 
L 285.8256 207.316283 
L 285.9744 205.214865 
L 287.016 207.987923 
L 287.1648 205.897291 
L 288.3552 209.164543 
L 288.504 207.090519 
L 289.6944 210.452871 
L 289.8432 208.392219 
L 291.0336 211.85266 
L 291.1824 209.806105 
L 292.3728 213.361432 
L 292.5216 211.328947 
L 293.5632 214.522706 
L 293.712 212.502632 
L 294.6048 215.301671 
L 294.7536 213.291443 
L 295.944 217.066349 
L 296.0928 215.061462 
L 296.5392 216.485218 
L 296.8368 224.701259 
L 297.432 242.037782 
L 297.5808 244.514075 
L 298.176 261.84052 
L 298.3248 264.313419 
L 298.6224 271.73598 
L 298.7712 274.208038 
L 299.0688 281.628073 
L 299.664 291.516796 
L 299.9616 298.930703 
L 300.7056 311.284137 
L 300.8544 311.284137 
L 301.5984 323.632314 
L 301.7472 323.632314 
L 302.0448 328.569085 
L 302.1936 328.569085 
L 302.4912 333.506717 
L 302.64 333.506717 
L 302.9376 338.443515 
L 303.0864 338.443515 
L 303.2352 340.909887 
L 303.384 340.909887 
L 303.5328 343.377763 
L 303.6816 343.377763 
L 303.8304 345.845423 
L 303.9792 345.845423 
L 304.128 348.312866 
L 304.2768 348.312866 
L 304.4256 350.778404 
L 304.7232 350.778404 
L 304.872 353.245426 
L 305.0208 353.245426 
L 305.1696 355.712251 
L 305.4672 355.712251 
L 305.616 358.17885 
L 306.0624 358.17885 
L 306.2112 360.645253 
L 306.5088 360.645253 
L 306.6576 363.10973 
L 307.2528 363.10973 
L 307.4016 365.575711 
L 307.9968 365.575711 
L 308.1456 368.041476 
L 308.8896 368.041476 
L 309.0384 370.507024 
L 310.5264 370.507024 
L 310.6752 372.970667 
L 315.7344 372.970667 
L 315.8832 370.507024 
L 318.4128 370.507024 
L 318.5616 368.041476 
L 320.3472 368.041476 
L 320.496 365.575711 
L 322.1328 365.575711 
L 322.2816 363.10973 
L 323.6208 363.10973 
L 323.7696 360.645253 
L 325.1088 360.645253 
L 325.2576 358.17885 
L 326.5968 358.17885 
L 326.7456 355.712251 
L 328.2336 355.712251 
L 328.3824 353.245426 
L 329.7216 353.245426 
L 329.8704 350.778404 
L 331.2096 350.778404 
L 331.3584 348.312866 
L 332.8464 348.312866 
L 332.9952 345.845423 
L 334.4832 345.845423 
L 334.632 343.377763 
L 336.12 343.377763 
L 336.2688 340.909887 
L 337.7568 340.909887 
L 337.9056 338.443515 
L 339.5424 338.443515 
L 339.6912 335.975222 
L 341.328 335.975222 
L 341.4768 333.506717 
L 343.1136 333.506717 
L 343.2624 331.038007 
L 345.048 331.038007 
L 345.1968 328.569085 
L 346.8336 328.569085 
L 346.9824 326.101657 
L 348.9168 326.101657 
L 349.0656 323.632314 
L 350.8512 323.632314 
L 351 321.162759 
L 353.0832 321.162759 
L 353.232 318.692993 
L 355.3152 318.692993 
L 355.464 316.22472 
L 357.3984 316.22472 
L 357.5472 313.754537 
L 359.7792 313.754537 
L 359.928 311.284137 
L 362.3088 311.284137 
L 362.4576 308.813532 
L 364.392 308.813532 
L 364.5408 306.34271 
L 367.0704 306.34271 
L 367.2192 303.873392 
L 369.6 303.873392 
L 369.7488 301.402153 
L 371.9808 301.402153 
L 372.1296 298.930703 
L 375.2544 298.930703 
L 375.4032 296.459042 
L 378.528 296.459042 
L 378.6768 293.98888 
L 381.9504 293.98888 
L 382.0992 291.516796 
L 385.8192 291.516796 
L 385.968 289.044504 
L 389.8368 289.044504 
L 389.9856 286.572001 
L 393.8544 286.572001 
L 394.0032 284.099287 
L 397.872 284.099287 
L 398.0208 281.628073 
L 403.2288 281.628073 
L 403.3776 279.154939 
L 408.5856 279.154939 
L 408.7344 276.681594 
L 414.3888 276.681594 
L 414.5376 274.208038 
L 420.192 274.208038 
L 420.3408 271.73598 
L 426.5904 271.73598 
L 426.7392 269.262004 
L 432.84 269.262004 
L 432.9888 266.787816 
L 434.0304 266.787816 
L 434.1792 269.262004 
L 434.6256 269.262004 
L 434.7744 266.787816 
L 440.8752 266.787816 
L 441.024 264.313419 
L 441.9168 264.313419 
L 442.0656 266.787816 
L 442.3632 266.787816 
L 442.512 264.313419 
L 443.1072 264.313419 
L 443.256 266.787816 
L 443.4048 266.787816 
L 443.5536 264.313419 
L 444.1488 264.313419 
L 444.2976 266.787816 
L 444.4464 266.787816 
L 444.5952 264.313419 
L 445.0416 264.313419 
L 445.1904 266.787816 
L 445.6368 266.787816 
L 445.7856 264.313419 
L 451.8864 264.313419 
L 452.0352 261.84052 
L 452.928 261.84052 
L 453.0768 264.313419 
L 453.2256 264.313419 
L 453.3744 261.84052 
L 453.9696 261.84052 
L 454.1184 264.313419 
L 454.416 264.313419 
L 454.5648 261.84052 
L 455.16 261.84052 
L 455.3088 264.313419 
L 455.7552 264.313419 
L 455.904 261.84052 
L 456.9456 261.84052 
L 457.0944 264.313419 
L 457.5408 264.313419 
L 457.6896 261.84052 
L 463.9392 261.84052 
L 464.088 259.365701 
L 464.6832 259.365701 
L 464.832 261.84052 
L 465.2784 261.84052 
L 465.4272 259.365701 
L 466.4688 259.365701 
L 466.6176 261.84052 
L 467.064 261.84052 
L 467.2128 259.365701 
L 468.2544 259.365701 
L 468.4032 261.84052 
L 468.8496 261.84052 
L 468.9984 259.365701 
L 470.04 259.365701 
L 470.1888 261.84052 
L 470.6352 261.84052 
L 470.784 259.365701 
L 471.8256 259.365701 
L 471.9744 261.84052 
L 472.4208 261.84052 
L 472.5696 259.365701 
L 479.712 259.365701 
L 479.8608 256.890671 
L 480.3072 256.890671 
L 480.456 259.365701 
L 480.6048 259.365701 
L 480.7536 256.890671 
L 481.2 256.890671 
L 481.3488 259.365701 
L 481.4976 259.365701 
L 481.6464 256.890671 
L 482.0928 256.890671 
L 482.2416 259.365701 
L 482.3904 259.365701 
L 482.5392 256.890671 
L 482.9856 256.890671 
L 483.1344 259.365701 
L 483.2832 259.365701 
L 483.432 256.890671 
L 483.7296 256.890671 
L 483.8784 259.365701 
L 484.0272 256.890671 
L 484.7712 256.890671 
L 484.92 259.365701 
L 485.0688 259.365701 
L 485.2176 256.890671 
L 485.664 256.890671 
L 485.8128 259.365701 
L 485.9616 259.365701 
L 486.1104 256.890671 
L 486.5568 256.890671 
L 486.7056 259.365701 
L 487.0032 259.365701 
L 487.152 256.890671 
L 488.1936 256.890671 
L 488.3424 259.365701 
L 488.4912 259.365701 
L 488.64 256.890671 
L 489.0864 256.890671 
L 489.2352 259.365701 
L 489.384 259.365701 
L 489.5328 256.890671 
L 490.872 256.890671 
L 491.0208 259.365701 
L 491.4672 259.365701 
L 491.616 256.890671 
L 492.5088 256.890671 
L 492.6576 259.365701 
L 492.9552 259.365701 
L 493.104 256.890671 
L 493.9968 256.890671 
L 494.1456 259.365701 
L 494.2944 259.365701 
L 494.4432 256.890671 
L 500.6928 256.890671 
L 500.8416 254.415431 
L 502.032 254.415431 
L 502.1808 256.890671 
L 502.6272 256.890671 
L 502.776 254.415431 
L 503.6688 254.415431 
L 503.8176 256.890671 
L 504.264 256.890671 
L 504.4128 254.415431 
L 505.4544 254.415431 
L 505.6032 256.890671 
L 505.752 256.890671 
L 505.9008 254.415431 
L 506.3472 254.415431 
L 506.496 256.890671 
L 506.9424 256.890671 
L 507.0912 254.415431 
L 507.5376 254.415431 
L 507.6864 256.890671 
L 507.8352 256.890671 
L 507.984 254.415431 
L 508.4304 254.415431 
L 508.5792 256.890671 
L 508.728 256.890671 
L 508.8768 254.415431 
L 509.3232 254.415431 
L 509.472 256.890671 
L 509.6208 254.415431 
L 510.216 254.415431 
L 510.3648 256.890671 
L 510.8112 256.890671 
L 510.96 254.415431 
L 512.0016 254.415431 
L 512.1504 256.890671 
L 512.2992 256.890671 
L 512.448 254.415431 
L 512.8944 254.415431 
L 513.0432 256.890671 
L 513.3408 256.890671 
L 513.4896 254.415431 
L 514.0848 254.415431 
L 514.2336 256.890671 
L 514.5312 256.890671 
L 514.68 254.415431 
L 515.5728 254.415431 
L 515.7216 256.890671 
L 516.168 256.890671 
L 516.3168 254.415431 
L 517.656 254.415431 
L 517.8048 256.890671 
L 518.1024 256.890671 
L 518.2512 254.415431 
L 518.4 254.415431 
L 518.4 254.415431 
" style="fill:none;stroke:#008000;stroke-linecap:square;"/>
   </g>
   <g id="line2d_2">
    <path clip-path="url(#p0d34dfdc0b)" d="M 76.0176 250.56 
L 107.1168 250.660711 
L 107.8608 250.978937 
L 108.3072 251.392032 
L 109.2 252.26261 
L 110.0928 253.445884 
L 110.3904 253.899842 
L 110.688 254.563613 
L 112.3248 257.030145 
L 112.6224 257.591065 
L 115.4496 260.940195 
L 117.5328 262.66425 
L 117.6816 262.66425 
L 117.9792 262.933558 
L 118.2768 263.015698 
L 119.616 263.646249 
L 121.2528 264.120585 
L 122.592 264.251145 
L 124.08 264.175548 
L 125.8656 263.829028 
L 127.8 263.17141 
L 128.0976 262.976924 
L 128.2464 262.976924 
L 128.544 262.843447 
L 132.5616 260.928509 
L 136.1328 258.879746 
L 136.4304 258.610752 
L 139.5552 256.813784 
L 139.8528 256.729853 
L 141.192 255.890534 
L 141.4896 255.638738 
L 144.0192 254.295828 
L 144.3168 254.211897 
L 150.12 251.026482 
L 150.4176 250.948279 
L 152.6496 249.84975 
L 152.7984 249.84975 
L 153.2448 249.559866 
L 158.8992 246.926341 
L 163.8096 244.844315 
L 169.464 242.640576 
L 175.8624 240.378141 
L 182.7072 238.213477 
L 190.5936 236.005674 
L 200.1168 233.682581 
L 210.6816 231.493858 
L 223.3296 229.153384 
L 224.0736 228.586734 
L 224.9664 227.605427 
L 226.008 226.114576 
L 227.3472 223.774962 
L 228.984 220.43066 
L 231.0672 215.669367 
L 232.5552 212.049677 
L 233.448 208.083833 
L 233.7456 207.261252 
L 234.3408 204.331729 
L 234.4896 204.331729 
L 234.6384 203.900501 
L 234.936 202.62211 
L 240.2928 187.584357 
L 240.5904 186.810825 
L 240.888 185.663631 
L 241.1856 184.905713 
L 241.3344 184.905713 
L 241.632 183.784938 
L 244.1616 177.563549 
L 244.3104 177.563549 
L 245.9472 173.949781 
L 246.096 173.949781 
L 246.2448 173.636599 
L 246.6912 172.008065 
L 246.84 171.677805 
L 247.1376 170.675708 
L 247.2864 170.33981 
L 247.584 169.309501 
L 248.6256 166.999344 
L 248.7744 166.999344 
L 249.9648 164.549982 
L 250.1136 164.549982 
L 252.6432 159.808085 
L 252.792 159.808085 
L 254.4288 157.012885 
L 254.5776 157.012885 
L 255.768 155.120072 
L 255.9168 155.120072 
L 257.5536 152.702479 
L 257.7024 152.702479 
L 258.744 151.238955 
L 258.8928 151.238955 
L 262.464 146.552559 
L 262.6128 146.552559 
L 262.7616 146.180452 
L 262.9104 146.180452 
L 264.1008 144.741246 
L 264.2496 144.741246 
L 267.0768 141.491253 
L 267.2256 141.491253 
L 269.3088 139.263597 
L 269.4576 139.263597 
L 270.4992 138.05496 
L 271.9872 136.273146 
L 272.2848 135.749077 
L 272.88 135.077229 
L 273.0288 135.077229 
L 273.9216 134.115517 
L 274.0704 134.115517 
L 274.368 133.659807 
L 276.8976 131.30838 
L 280.6176 128.038848 
L 281.5104 127.329478 
L 281.808 127.221435 
L 283.4448 125.914652 
L 284.6352 124.97874 
L 284.9328 124.876722 
L 289.5456 121.874643 
L 294.9024 118.766734 
L 296.9856 117.732852 
L 297.7296 117.626188 
L 298.4736 117.747127 
L 299.3664 118.137485 
L 300.2592 118.760771 
L 301.4496 119.889296 
L 302.9376 121.678135 
L 304.5744 124.013053 
L 306.5088 127.113267 
L 309.9312 133.131743 
L 315.288 142.99751 
L 315.5856 143.821505 
L 315.8832 144.365297 
L 316.032 144.365297 
L 322.2816 155.453029 
L 327.0432 163.318094 
L 331.5072 170.196448 
L 336.12 176.812449 
L 341.0304 183.324362 
L 344.6016 187.746077 
L 348.1728 191.912969 
L 352.0416 196.158415 
L 356.3568 200.590863 
L 358.44 202.761624 
L 358.7376 203.186903 
L 361.5648 205.813848 
L 361.7136 205.813848 
L 362.7552 206.620066 
L 366.7728 210.190252 
L 367.0704 210.565645 
L 367.368 210.924414 
L 367.6656 211.283185 
L 370.1952 213.174454 
L 372.576 214.862961 
L 374.6592 216.273474 
L 374.808 216.273474 
L 375.1056 216.598975 
L 375.4032 216.701931 
L 377.1888 218.040356 
L 377.4864 218.349223 
L 381.6528 221.121146 
L 381.9504 221.21856 
L 386.712 224.033188 
L 388.3488 225.069048 
L 388.7952 225.500656 
L 390.8784 226.58401 
L 393.408 227.876409 
L 393.7056 227.957184 
L 395.4912 229.015921 
L 396.0864 229.467288 
L 399.2112 230.927497 
L 401.4432 231.903076 
L 401.592 231.903076 
L 401.8896 232.112129 
L 402.1872 232.181814 
L 404.7168 233.246832 
L 410.6688 235.73462 
L 410.8176 235.73462 
L 411.4128 236.08615 
L 415.8768 237.729728 
L 423.3168 240.265277 
L 429.7152 242.191023 
L 436.4112 243.967586 
L 444.8928 245.956459 
L 445.488 246.065647 
L 448.6128 246.718966 
L 456.3504 248.212036 
L 469.296 250.302077 
L 485.5152 252.343696 
L 492.0624 253.074518 
L 493.2528 253.199204 
L 504.8592 254.206721 
L 506.6448 254.315392 
L 511.8528 254.705029 
L 518.4 255.16875 
L 518.4 255.16875 
" style="fill:none;stroke:#0000ff;stroke-linecap:square;"/>
   </g>
   <g id="patch_3">
    <path d="M 72 43.2 
L 518.4 43.2 
" style="fill:none;stroke:#000000;stroke-linecap:square;stroke-linejoin:miter;"/>
   </g>
   <g id="patch_4">
    <path d="M 518.4 388.8 
L 518.4 43.2 
" style="fill:none;stroke:#000000;stroke-linecap:square;stroke-linejoin:miter;"/>
   </g>
   <g id="patch_5">
    <path d="M 72 388.8 
L 518.4 388.8 
" style="fill:none;stroke:#000000;stroke-linecap:square;stroke-linejoin:miter;"/>
   </g>
   <g id="patch_6">
    <path d="M 72 388.8 
L 72 43.2 
" style="fill:none;stroke:#000000;stroke-linecap:square;stroke-linejoin:miter;"/>
   </g>
   <g id="matplotlib.axis_1">
    <g id="xtick_1">
     <g id="line2d_3">
      <path clip-path="url(#p0d34dfdc0b)" d="M 72 388.8 
L 72 43.2 
" style="fill:none;stroke:#000000;stroke-dasharray:1.000000,3.000000;stroke-dashoffset:0.0;stroke-width:0.5;"/>
     </g>
     <g id="line2d_4">
      <defs>
       <path d="M 0 0 
L 0 -4 
" id="m3b1a17722c" style="stroke:#000000;stroke-width:0.5;"/>
      </defs>
      <g>
       <use style="stroke:#000000;stroke-width:0.5;" x="72.0" xlink:href="#m3b1a17722c" y="388.8"/>
      </g>
     </g>
     <g id="line2d_5">
      <defs>
       <path d="M 0 0 
L 0 4 
" id="mdc6081a70f" style="stroke:#000000;stroke-width:0.5;"/>
      </defs>
      <g>
       <use style="stroke:#000000;stroke-width:0.5;" x="72.0" xlink:href="#mdc6081a70f" y="43.2"/>
      </g>
     </g>
     <g id="text_1">
      <!-- 0 -->
      <defs>
       <path d="M 31.78125 66.40625 
Q 24.171875 66.40625 20.328125 58.90625 
Q 16.5 51.421875 16.5 36.375 
Q 16.5 21.390625 20.328125 13.890625 
Q 24.171875 6.390625 31.78125 6.390625 
Q 39.453125 6.390625 43.28125 13.890625 
Q 47.125 21.390625 47.125 36.375 
Q 47.125 51.421875 43.28125 58.90625 
Q 39.453125 66.40625 31.78125 66.40625 
M 31.78125 74.21875 
Q 44.046875 74.21875 50.515625 64.515625 
Q 56.984375 54.828125 56.984375 36.375 
Q 56.984375 17.96875 50.515625 8.265625 
Q 44.046875 -1.421875 31.78125 -1.421875 
Q 19.53125 -1.421875 13.0625 8.265625 
Q 6.59375 17.96875 6.59375 36.375 
Q 6.59375 54.828125 13.0625 64.515625 
Q 19.53125 74.21875 31.78125 74.21875 
" id="BitstreamVeraSans-Roman-30"/>
      </defs>
      <g transform="translate(68.1825 401.918125)scale(0.12 -0.12)">
       <use xlink:href="#BitstreamVeraSans-Roman-30"/>
      </g>
     </g>
    </g>
    <g id="xtick_2">
     <g id="line2d_6">
      <path clip-path="url(#p0d34dfdc0b)" d="M 146.4 388.8 
L 146.4 43.2 
" style="fill:none;stroke:#000000;stroke-dasharray:1.000000,3.000000;stroke-dashoffset:0.0;stroke-width:0.5;"/>
     </g>
     <g id="line2d_7">
      <g>
       <use style="stroke:#000000;stroke-width:0.5;" x="146.4" xlink:href="#m3b1a17722c" y="388.8"/>
      </g>
     </g>
     <g id="line2d_8">
      <g>
       <use style="stroke:#000000;stroke-width:0.5;" x="146.4" xlink:href="#mdc6081a70f" y="43.2"/>
      </g>
     </g>
     <g id="text_2">
      <!-- 5 -->
      <defs>
       <path d="M 10.796875 72.90625 
L 49.515625 72.90625 
L 49.515625 64.59375 
L 19.828125 64.59375 
L 19.828125 46.734375 
Q 21.96875 47.46875 24.109375 47.828125 
Q 26.265625 48.1875 28.421875 48.1875 
Q 40.625 48.1875 47.75 41.5 
Q 54.890625 34.8125 54.890625 23.390625 
Q 54.890625 11.625 47.5625 5.09375 
Q 40.234375 -1.421875 26.90625 -1.421875 
Q 22.3125 -1.421875 17.546875 -0.640625 
Q 12.796875 0.140625 7.71875 1.703125 
L 7.71875 11.625 
Q 12.109375 9.234375 16.796875 8.0625 
Q 21.484375 6.890625 26.703125 6.890625 
Q 35.15625 6.890625 40.078125 11.328125 
Q 45.015625 15.765625 45.015625 23.390625 
Q 45.015625 31 40.078125 35.4375 
Q 35.15625 39.890625 26.703125 39.890625 
Q 22.75 39.890625 18.8125 39.015625 
Q 14.890625 38.140625 10.796875 36.28125 
z
" id="BitstreamVeraSans-Roman-35"/>
      </defs>
      <g transform="translate(142.5825 401.918125)scale(0.12 -0.12)">
       <use xlink:href="#BitstreamVeraSans-Roman-35"/>
      </g>
     </g>
    </g>
    <g id="xtick_3">
     <g id="line2d_9">
      <path clip-path="url(#p0d34dfdc0b)" d="M 220.8 388.8 
L 220.8 43.2 
" style="fill:none;stroke:#000000;stroke-dasharray:1.000000,3.000000;stroke-dashoffset:0.0;stroke-width:0.5;"/>
     </g>
     <g id="line2d_10">
      <g>
       <use style="stroke:#000000;stroke-width:0.5;" x="220.8" xlink:href="#m3b1a17722c" y="388.8"/>
      </g>
     </g>
     <g id="line2d_11">
      <g>
       <use style="stroke:#000000;stroke-width:0.5;" x="220.8" xlink:href="#mdc6081a70f" y="43.2"/>
      </g>
     </g>
     <g id="text_3">
      <!-- 10 -->
      <defs>
       <path d="M 12.40625 8.296875 
L 28.515625 8.296875 
L 28.515625 63.921875 
L 10.984375 60.40625 
L 10.984375 69.390625 
L 28.421875 72.90625 
L 38.28125 72.90625 
L 38.28125 8.296875 
L 54.390625 8.296875 
L 54.390625 0 
L 12.40625 0 
z
" id="BitstreamVeraSans-Roman-31"/>
      </defs>
      <g transform="translate(213.165 401.918125)scale(0.12 -0.12)">
       <use xlink:href="#BitstreamVeraSans-Roman-31"/>
       <use x="63.623046875" xlink:href="#BitstreamVeraSans-Roman-30"/>
      </g>
     </g>
    </g>
    <g id="xtick_4">
     <g id="line2d_12">
      <path clip-path="url(#p0d34dfdc0b)" d="M 295.2 388.8 
L 295.2 43.2 
" style="fill:none;stroke:#000000;stroke-dasharray:1.000000,3.000000;stroke-dashoffset:0.0;stroke-width:0.5;"/>
     </g>
     <g id="line2d_13">
      <g>
       <use style="stroke:#000000;stroke-width:0.5;" x="295.2" xlink:href="#m3b1a17722c" y="388.8"/>
      </g>
     </g>
     <g id="line2d_14">
      <g>
       <use style="stroke:#000000;stroke-width:0.5;" x="295.2" xlink:href="#mdc6081a70f" y="43.2"/>
      </g>
     </g>
     <g id="text_4">
      <!-- 15 -->
      <g transform="translate(287.565 401.918125)scale(0.12 -0.12)">
       <use xlink:href="#BitstreamVeraSans-Roman-31"/>
       <use x="63.623046875" xlink:href="#BitstreamVeraSans-Roman-35"/>
      </g>
     </g>
    </g>
    <g id="xtick_5">
     <g id="line2d_15">
      <path clip-path="url(#p0d34dfdc0b)" d="M 369.6 388.8 
L 369.6 43.2 
" style="fill:none;stroke:#000000;stroke-dasharray:1.000000,3.000000;stroke-dashoffset:0.0;stroke-width:0.5;"/>
     </g>
     <g id="line2d_16">
      <g>
       <use style="stroke:#000000;stroke-width:0.5;" x="369.6" xlink:href="#m3b1a17722c" y="388.8"/>
      </g>
     </g>
     <g id="line2d_17">
      <g>
       <use style="stroke:#000000;stroke-width:0.5;" x="369.6" xlink:href="#mdc6081a70f" y="43.2"/>
      </g>
     </g>
     <g id="text_5">
      <!-- 20 -->
      <defs>
       <path d="M 19.1875 8.296875 
L 53.609375 8.296875 
L 53.609375 0 
L 7.328125 0 
L 7.328125 8.296875 
Q 12.9375 14.109375 22.625 23.890625 
Q 32.328125 33.6875 34.8125 36.53125 
Q 39.546875 41.84375 41.421875 45.53125 
Q 43.3125 49.21875 43.3125 52.78125 
Q 43.3125 58.59375 39.234375 62.25 
Q 35.15625 65.921875 28.609375 65.921875 
Q 23.96875 65.921875 18.8125 64.3125 
Q 13.671875 62.703125 7.8125 59.421875 
L 7.8125 69.390625 
Q 13.765625 71.78125 18.9375 73 
Q 24.125 74.21875 28.421875 74.21875 
Q 39.75 74.21875 46.484375 68.546875 
Q 53.21875 62.890625 53.21875 53.421875 
Q 53.21875 48.921875 51.53125 44.890625 
Q 49.859375 40.875 45.40625 35.40625 
Q 44.1875 33.984375 37.640625 27.21875 
Q 31.109375 20.453125 19.1875 8.296875 
" id="BitstreamVeraSans-Roman-32"/>
      </defs>
      <g transform="translate(361.965 401.918125)scale(0.12 -0.12)">
       <use xlink:href="#BitstreamVeraSans-Roman-32"/>
       <use x="63.623046875" xlink:href="#BitstreamVeraSans-Roman-30"/>
      </g>
     </g>
    </g>
    <g id="xtick_6">
     <g id="line2d_18">
      <path clip-path="url(#p0d34dfdc0b)" d="M 444 388.8 
L 444 43.2 
" style="fill:none;stroke:#000000;stroke-dasharray:1.000000,3.000000;stroke-dashoffset:0.0;stroke-width:0.5;"/>
     </g>
     <g id="line2d_19">
      <g>
       <use style="stroke:#000000;stroke-width:0.5;" x="444.0" xlink:href="#m3b1a17722c" y="388.8"/>
      </g>
     </g>
     <g id="line2d_20">
      <g>
       <use style="stroke:#000000;stroke-width:0.5;" x="444.0" xlink:href="#mdc6081a70f" y="43.2"/>
      </g>
     </g>
     <g id="text_6">
      <!-- 25 -->
      <g transform="translate(436.365 401.918125)scale(0.12 -0.12)">
       <use xlink:href="#BitstreamVeraSans-Roman-32"/>
       <use x="63.623046875" xlink:href="#BitstreamVeraSans-Roman-35"/>
      </g>
     </g>
    </g>
    <g id="xtick_7">
     <g id="line2d_21">
      <path clip-path="url(#p0d34dfdc0b)" d="M 518.4 388.8 
L 518.4 43.2 
" style="fill:none;stroke:#000000;stroke-dasharray:1.000000,3.000000;stroke-dashoffset:0.0;stroke-width:0.5;"/>
     </g>
     <g id="line2d_22">
      <g>
       <use style="stroke:#000000;stroke-width:0.5;" x="518.4" xlink:href="#m3b1a17722c" y="388.8"/>
      </g>
     </g>
     <g id="line2d_23">
      <g>
       <use style="stroke:#000000;stroke-width:0.5;" x="518.4" xlink:href="#mdc6081a70f" y="43.2"/>
      </g>
     </g>
     <g id="text_7">
      <!-- 30 -->
      <defs>
       <path d="M 40.578125 39.3125 
Q 47.65625 37.796875 51.625 33 
Q 55.609375 28.21875 55.609375 21.1875 
Q 55.609375 10.40625 48.1875 4.484375 
Q 40.765625 -1.421875 27.09375 -1.421875 
Q 22.515625 -1.421875 17.65625 -0.515625 
Q 12.796875 0.390625 7.625 2.203125 
L 7.625 11.71875 
Q 11.71875 9.328125 16.59375 8.109375 
Q 21.484375 6.890625 26.8125 6.890625 
Q 36.078125 6.890625 40.9375 10.546875 
Q 45.796875 14.203125 45.796875 21.1875 
Q 45.796875 27.640625 41.28125 31.265625 
Q 36.765625 34.90625 28.71875 34.90625 
L 20.21875 34.90625 
L 20.21875 43.015625 
L 29.109375 43.015625 
Q 36.375 43.015625 40.234375 45.921875 
Q 44.09375 48.828125 44.09375 54.296875 
Q 44.09375 59.90625 40.109375 62.90625 
Q 36.140625 65.921875 28.71875 65.921875 
Q 24.65625 65.921875 20.015625 65.03125 
Q 15.375 64.15625 9.8125 62.3125 
L 9.8125 71.09375 
Q 15.4375 72.65625 20.34375 73.4375 
Q 25.25 74.21875 29.59375 74.21875 
Q 40.828125 74.21875 47.359375 69.109375 
Q 53.90625 64.015625 53.90625 55.328125 
Q 53.90625 49.265625 50.4375 45.09375 
Q 46.96875 40.921875 40.578125 39.3125 
" id="BitstreamVeraSans-Roman-33"/>
      </defs>
      <g transform="translate(510.765 401.918125)scale(0.12 -0.12)">
       <use xlink:href="#BitstreamVeraSans-Roman-33"/>
       <use x="63.623046875" xlink:href="#BitstreamVeraSans-Roman-30"/>
      </g>
     </g>
    </g>
    <g id="text_8">
     <!-- Time, [s] -->
     <defs>
      <path id="BitstreamVeraSans-Roman-20"/>
      <path d="M 8.59375 75.984375 
L 29.296875 75.984375 
L 29.296875 69 
L 17.578125 69 
L 17.578125 -6.203125 
L 29.296875 -6.203125 
L 29.296875 -13.1875 
L 8.59375 -13.1875 
z
" id="BitstreamVeraSans-Roman-5b"/>
      <path d="M 30.421875 75.984375 
L 30.421875 -13.1875 
L 9.71875 -13.1875 
L 9.71875 -6.203125 
L 21.390625 -6.203125 
L 21.390625 69 
L 9.71875 69 
L 9.71875 75.984375 
z
" id="BitstreamVeraSans-Roman-5d"/>
      <path d="M 52 44.1875 
Q 55.375 50.25 60.0625 53.125 
Q 64.75 56 71.09375 56 
Q 79.640625 56 84.28125 50.015625 
Q 88.921875 44.046875 88.921875 33.015625 
L 88.921875 0 
L 79.890625 0 
L 79.890625 32.71875 
Q 79.890625 40.578125 77.09375 44.375 
Q 74.3125 48.1875 68.609375 48.1875 
Q 61.625 48.1875 57.5625 43.546875 
Q 53.515625 38.921875 53.515625 30.90625 
L 53.515625 0 
L 44.484375 0 
L 44.484375 32.71875 
Q 44.484375 40.625 41.703125 44.40625 
Q 38.921875 48.1875 33.109375 48.1875 
Q 26.21875 48.1875 22.15625 43.53125 
Q 18.109375 38.875 18.109375 30.90625 
L 18.109375 0 
L 9.078125 0 
L 9.078125 54.6875 
L 18.109375 54.6875 
L 18.109375 46.1875 
Q 21.1875 51.21875 25.484375 53.609375 
Q 29.78125 56 35.6875 56 
Q 41.65625 56 45.828125 52.96875 
Q 50 49.953125 52 44.1875 
" id="BitstreamVeraSans-Roman-6d"/>
      <path d="M 11.71875 12.40625 
L 22.015625 12.40625 
L 22.015625 4 
L 14.015625 -11.625 
L 7.71875 -11.625 
L 11.71875 4 
z
" id="BitstreamVeraSans-Roman-2c"/>
      <path d="M 9.421875 54.6875 
L 18.40625 54.6875 
L 18.40625 0 
L 9.421875 0 
z
M 9.421875 75.984375 
L 18.40625 75.984375 
L 18.40625 64.59375 
L 9.421875 64.59375 
z
" id="BitstreamVeraSans-Roman-69"/>
      <path d="M 56.203125 29.59375 
L 56.203125 25.203125 
L 14.890625 25.203125 
Q 15.484375 15.921875 20.484375 11.0625 
Q 25.484375 6.203125 34.421875 6.203125 
Q 39.59375 6.203125 44.453125 7.46875 
Q 49.3125 8.734375 54.109375 11.28125 
L 54.109375 2.78125 
Q 49.265625 0.734375 44.1875 -0.34375 
Q 39.109375 -1.421875 33.890625 -1.421875 
Q 20.796875 -1.421875 13.15625 6.1875 
Q 5.515625 13.8125 5.515625 26.8125 
Q 5.515625 40.234375 12.765625 48.109375 
Q 20.015625 56 32.328125 56 
Q 43.359375 56 49.78125 48.890625 
Q 56.203125 41.796875 56.203125 29.59375 
M 47.21875 32.234375 
Q 47.125 39.59375 43.09375 43.984375 
Q 39.0625 48.390625 32.421875 48.390625 
Q 24.90625 48.390625 20.390625 44.140625 
Q 15.875 39.890625 15.1875 32.171875 
z
" id="BitstreamVeraSans-Roman-65"/>
      <path d="M -0.296875 72.90625 
L 61.375 72.90625 
L 61.375 64.59375 
L 35.5 64.59375 
L 35.5 0 
L 25.59375 0 
L 25.59375 64.59375 
L -0.296875 64.59375 
z
" id="BitstreamVeraSans-Roman-54"/>
      <path d="M 44.28125 53.078125 
L 44.28125 44.578125 
Q 40.484375 46.53125 36.375 47.5 
Q 32.28125 48.484375 27.875 48.484375 
Q 21.1875 48.484375 17.84375 46.4375 
Q 14.5 44.390625 14.5 40.28125 
Q 14.5 37.15625 16.890625 35.375 
Q 19.28125 33.59375 26.515625 31.984375 
L 29.59375 31.296875 
Q 39.15625 29.25 43.1875 25.515625 
Q 47.21875 21.78125 47.21875 15.09375 
Q 47.21875 7.46875 41.1875 3.015625 
Q 35.15625 -1.421875 24.609375 -1.421875 
Q 20.21875 -1.421875 15.453125 -0.5625 
Q 10.6875 0.296875 5.421875 2 
L 5.421875 11.28125 
Q 10.40625 8.6875 15.234375 7.390625 
Q 20.0625 6.109375 24.8125 6.109375 
Q 31.15625 6.109375 34.5625 8.28125 
Q 37.984375 10.453125 37.984375 14.40625 
Q 37.984375 18.0625 35.515625 20.015625 
Q 33.0625 21.96875 24.703125 23.78125 
L 21.578125 24.515625 
Q 13.234375 26.265625 9.515625 29.90625 
Q 5.8125 33.546875 5.8125 39.890625 
Q 5.8125 47.609375 11.28125 51.796875 
Q 16.75 56 26.8125 56 
Q 31.78125 56 36.171875 55.265625 
Q 40.578125 54.546875 44.28125 53.078125 
" id="BitstreamVeraSans-Roman-73"/>
     </defs>
     <g transform="translate(268.71375 418.531875)scale(0.12 -0.12)">
      <use xlink:href="#BitstreamVeraSans-Roman-54"/>
      <use x="61.037109375" xlink:href="#BitstreamVeraSans-Roman-69"/>
      <use x="88.8203125" xlink:href="#BitstreamVeraSans-Roman-6d"/>
      <use x="186.232421875" xlink:href="#BitstreamVeraSans-Roman-65"/>
      <use x="247.755859375" xlink:href="#BitstreamVeraSans-Roman-2c"/>
      <use x="279.54296875" xlink:href="#BitstreamVeraSans-Roman-20"/>
      <use x="311.330078125" xlink:href="#BitstreamVeraSans-Roman-5b"/>
      <use x="350.34375" xlink:href="#BitstreamVeraSans-Roman-73"/>
      <use x="402.443359375" xlink:href="#BitstreamVeraSans-Roman-5d"/>
     </g>
    </g>
   </g>
   <g id="matplotlib.axis_2">
    <g id="ytick_1">
     <g id="line2d_24">
      <path clip-path="url(#p0d34dfdc0b)" d="M 72 388.8 
L 518.4 388.8 
" style="fill:none;stroke:#000000;stroke-dasharray:1.000000,3.000000;stroke-dashoffset:0.0;stroke-width:0.5;"/>
     </g>
     <g id="line2d_25">
      <defs>
       <path d="M 0 0 
L 4 0 
" id="mc9864ea123" style="stroke:#000000;stroke-width:0.5;"/>
      </defs>
      <g>
       <use style="stroke:#000000;stroke-width:0.5;" x="72.0" xlink:href="#mc9864ea123" y="388.8"/>
      </g>
     </g>
     <g id="line2d_26">
      <defs>
       <path d="M 0 0 
L -4 0 
" id="m9378056e12" style="stroke:#000000;stroke-width:0.5;"/>
      </defs>
      <g>
       <use style="stroke:#000000;stroke-width:0.5;" x="518.4" xlink:href="#m9378056e12" y="388.8"/>
      </g>
     </g>
     <g id="text_9">
      <!-- −0.10 -->
      <defs>
       <path d="M 10.59375 35.5 
L 73.1875 35.5 
L 73.1875 27.203125 
L 10.59375 27.203125 
z
" id="BitstreamVeraSans-Roman-2212"/>
       <path d="M 10.6875 12.40625 
L 21 12.40625 
L 21 0 
L 10.6875 0 
z
" id="BitstreamVeraSans-Roman-2e"/>
      </defs>
      <g transform="translate(31.225625 392.11125)scale(0.12 -0.12)">
       <use xlink:href="#BitstreamVeraSans-Roman-2212"/>
       <use x="83.7890625" xlink:href="#BitstreamVeraSans-Roman-30"/>
       <use x="147.412109375" xlink:href="#BitstreamVeraSans-Roman-2e"/>
       <use x="179.19921875" xlink:href="#BitstreamVeraSans-Roman-31"/>
       <use x="242.822265625" xlink:href="#BitstreamVeraSans-Roman-30"/>
      </g>
     </g>
    </g>
    <g id="ytick_2">
     <g id="line2d_27">
      <path clip-path="url(#p0d34dfdc0b)" d="M 72 319.68 
L 518.4 319.68 
" style="fill:none;stroke:#000000;stroke-dasharray:1.000000,3.000000;stroke-dashoffset:0.0;stroke-width:0.5;"/>
     </g>
     <g id="line2d_28">
      <g>
       <use style="stroke:#000000;stroke-width:0.5;" x="72.0" xlink:href="#mc9864ea123" y="319.68"/>
      </g>
     </g>
     <g id="line2d_29">
      <g>
       <use style="stroke:#000000;stroke-width:0.5;" x="518.4" xlink:href="#m9378056e12" y="319.68"/>
      </g>
     </g>
     <g id="text_10">
      <!-- −0.05 -->
      <g transform="translate(31.225625 322.99125)scale(0.12 -0.12)">
       <use xlink:href="#BitstreamVeraSans-Roman-2212"/>
       <use x="83.7890625" xlink:href="#BitstreamVeraSans-Roman-30"/>
       <use x="147.412109375" xlink:href="#BitstreamVeraSans-Roman-2e"/>
       <use x="179.19921875" xlink:href="#BitstreamVeraSans-Roman-30"/>
       <use x="242.822265625" xlink:href="#BitstreamVeraSans-Roman-35"/>
      </g>
     </g>
    </g>
    <g id="ytick_3">
     <g id="line2d_30">
      <path clip-path="url(#p0d34dfdc0b)" d="M 72 250.56 
L 518.4 250.56 
" style="fill:none;stroke:#000000;stroke-dasharray:1.000000,3.000000;stroke-dashoffset:0.0;stroke-width:0.5;"/>
     </g>
     <g id="line2d_31">
      <g>
       <use style="stroke:#000000;stroke-width:0.5;" x="72.0" xlink:href="#mc9864ea123" y="250.56"/>
      </g>
     </g>
     <g id="line2d_32">
      <g>
       <use style="stroke:#000000;stroke-width:0.5;" x="518.4" xlink:href="#m9378056e12" y="250.56"/>
      </g>
     </g>
     <g id="text_11">
      <!-- 0.00 -->
      <g transform="translate(41.28125 253.87125)scale(0.12 -0.12)">
       <use xlink:href="#BitstreamVeraSans-Roman-30"/>
       <use x="63.623046875" xlink:href="#BitstreamVeraSans-Roman-2e"/>
       <use x="95.41015625" xlink:href="#BitstreamVeraSans-Roman-30"/>
       <use x="159.033203125" xlink:href="#BitstreamVeraSans-Roman-30"/>
      </g>
     </g>
    </g>
    <g id="ytick_4">
     <g id="line2d_33">
      <path clip-path="url(#p0d34dfdc0b)" d="M 72 181.44 
L 518.4 181.44 
" style="fill:none;stroke:#000000;stroke-dasharray:1.000000,3.000000;stroke-dashoffset:0.0;stroke-width:0.5;"/>
     </g>
     <g id="line2d_34">
      <g>
       <use style="stroke:#000000;stroke-width:0.5;" x="72.0" xlink:href="#mc9864ea123" y="181.44"/>
      </g>
     </g>
     <g id="line2d_35">
      <g>
       <use style="stroke:#000000;stroke-width:0.5;" x="518.4" xlink:href="#m9378056e12" y="181.44"/>
      </g>
     </g>
     <g id="text_12">
      <!-- 0.05 -->
      <g transform="translate(41.28125 184.75125)scale(0.12 -0.12)">
       <use xlink:href="#BitstreamVeraSans-Roman-30"/>
       <use x="63.623046875" xlink:href="#BitstreamVeraSans-Roman-2e"/>
       <use x="95.41015625" xlink:href="#BitstreamVeraSans-Roman-30"/>
       <use x="159.033203125" xlink:href="#BitstreamVeraSans-Roman-35"/>
      </g>
     </g>
    </g>
    <g id="ytick_5">
     <g id="line2d_36">
      <path clip-path="url(#p0d34dfdc0b)" d="M 72 112.32 
L 518.4 112.32 
" style="fill:none;stroke:#000000;stroke-dasharray:1.000000,3.000000;stroke-dashoffset:0.0;stroke-width:0.5;"/>
     </g>
     <g id="line2d_37">
      <g>
       <use style="stroke:#000000;stroke-width:0.5;" x="72.0" xlink:href="#mc9864ea123" y="112.32"/>
      </g>
     </g>
     <g id="line2d_38">
      <g>
       <use style="stroke:#000000;stroke-width:0.5;" x="518.4" xlink:href="#m9378056e12" y="112.32"/>
      </g>
     </g>
     <g id="text_13">
      <!-- 0.10 -->
      <g transform="translate(41.28125 115.63125)scale(0.12 -0.12)">
       <use xlink:href="#BitstreamVeraSans-Roman-30"/>
       <use x="63.623046875" xlink:href="#BitstreamVeraSans-Roman-2e"/>
       <use x="95.41015625" xlink:href="#BitstreamVeraSans-Roman-31"/>
       <use x="159.033203125" xlink:href="#BitstreamVeraSans-Roman-30"/>
      </g>
     </g>
    </g>
    <g id="ytick_6">
     <g id="line2d_39">
      <path clip-path="url(#p0d34dfdc0b)" d="M 72 43.2 
L 518.4 43.2 
" style="fill:none;stroke:#000000;stroke-dasharray:1.000000,3.000000;stroke-dashoffset:0.0;stroke-width:0.5;"/>
     </g>
     <g id="line2d_40">
      <g>
       <use style="stroke:#000000;stroke-width:0.5;" x="72.0" xlink:href="#mc9864ea123" y="43.2"/>
      </g>
     </g>
     <g id="line2d_41">
      <g>
       <use style="stroke:#000000;stroke-width:0.5;" x="518.4" xlink:href="#m9378056e12" y="43.2"/>
      </g>
     </g>
     <g id="text_14">
      <!-- 0.15 -->
      <g transform="translate(41.28125 46.51125)scale(0.12 -0.12)">
       <use xlink:href="#BitstreamVeraSans-Roman-30"/>
       <use x="63.623046875" xlink:href="#BitstreamVeraSans-Roman-2e"/>
       <use x="95.41015625" xlink:href="#BitstreamVeraSans-Roman-31"/>
       <use x="159.033203125" xlink:href="#BitstreamVeraSans-Roman-35"/>
      </g>
     </g>
    </g>
    <g id="text_15">
     <!-- Accel Cmd [m/s^2] -->
     <defs>
      <path d="M 46.6875 72.90625 
L 73.1875 45.703125 
L 63.375 45.703125 
L 41.890625 64.984375 
L 20.40625 45.703125 
L 10.59375 45.703125 
L 37.109375 72.90625 
z
" id="BitstreamVeraSans-Roman-5e"/>
      <path d="M 9.421875 75.984375 
L 18.40625 75.984375 
L 18.40625 0 
L 9.421875 0 
z
" id="BitstreamVeraSans-Roman-6c"/>
      <path d="M 64.40625 67.28125 
L 64.40625 56.890625 
Q 59.421875 61.53125 53.78125 63.8125 
Q 48.140625 66.109375 41.796875 66.109375 
Q 29.296875 66.109375 22.65625 58.46875 
Q 16.015625 50.828125 16.015625 36.375 
Q 16.015625 21.96875 22.65625 14.328125 
Q 29.296875 6.6875 41.796875 6.6875 
Q 48.140625 6.6875 53.78125 8.984375 
Q 59.421875 11.28125 64.40625 15.921875 
L 64.40625 5.609375 
Q 59.234375 2.09375 53.4375 0.328125 
Q 47.65625 -1.421875 41.21875 -1.421875 
Q 24.65625 -1.421875 15.125 8.703125 
Q 5.609375 18.84375 5.609375 36.375 
Q 5.609375 53.953125 15.125 64.078125 
Q 24.65625 74.21875 41.21875 74.21875 
Q 47.75 74.21875 53.53125 72.484375 
Q 59.328125 70.75 64.40625 67.28125 
" id="BitstreamVeraSans-Roman-43"/>
      <path d="M 34.1875 63.1875 
L 20.796875 26.90625 
L 47.609375 26.90625 
z
M 28.609375 72.90625 
L 39.796875 72.90625 
L 67.578125 0 
L 57.328125 0 
L 50.6875 18.703125 
L 17.828125 18.703125 
L 11.1875 0 
L 0.78125 0 
z
" id="BitstreamVeraSans-Roman-41"/>
      <path d="M 25.390625 72.90625 
L 33.6875 72.90625 
L 8.296875 -9.28125 
L 0 -9.28125 
z
" id="BitstreamVeraSans-Roman-2f"/>
      <path d="M 45.40625 46.390625 
L 45.40625 75.984375 
L 54.390625 75.984375 
L 54.390625 0 
L 45.40625 0 
L 45.40625 8.203125 
Q 42.578125 3.328125 38.25 0.953125 
Q 33.9375 -1.421875 27.875 -1.421875 
Q 17.96875 -1.421875 11.734375 6.484375 
Q 5.515625 14.40625 5.515625 27.296875 
Q 5.515625 40.1875 11.734375 48.09375 
Q 17.96875 56 27.875 56 
Q 33.9375 56 38.25 53.625 
Q 42.578125 51.265625 45.40625 46.390625 
M 14.796875 27.296875 
Q 14.796875 17.390625 18.875 11.75 
Q 22.953125 6.109375 30.078125 6.109375 
Q 37.203125 6.109375 41.296875 11.75 
Q 45.40625 17.390625 45.40625 27.296875 
Q 45.40625 37.203125 41.296875 42.84375 
Q 37.203125 48.484375 30.078125 48.484375 
Q 22.953125 48.484375 18.875 42.84375 
Q 14.796875 37.203125 14.796875 27.296875 
" id="BitstreamVeraSans-Roman-64"/>
      <path d="M 48.78125 52.59375 
L 48.78125 44.1875 
Q 44.96875 46.296875 41.140625 47.34375 
Q 37.3125 48.390625 33.40625 48.390625 
Q 24.65625 48.390625 19.8125 42.84375 
Q 14.984375 37.3125 14.984375 27.296875 
Q 14.984375 17.28125 19.8125 11.734375 
Q 24.65625 6.203125 33.40625 6.203125 
Q 37.3125 6.203125 41.140625 7.25 
Q 44.96875 8.296875 48.78125 10.40625 
L 48.78125 2.09375 
Q 45.015625 0.34375 40.984375 -0.53125 
Q 36.96875 -1.421875 32.421875 -1.421875 
Q 20.0625 -1.421875 12.78125 6.34375 
Q 5.515625 14.109375 5.515625 27.296875 
Q 5.515625 40.671875 12.859375 48.328125 
Q 20.21875 56 33.015625 56 
Q 37.15625 56 41.109375 55.140625 
Q 45.0625 54.296875 48.78125 52.59375 
" id="BitstreamVeraSans-Roman-63"/>
     </defs>
     <g transform="translate(23.73 274.235625)rotate(-90.0)scale(0.12 -0.12)">
      <use xlink:href="#BitstreamVeraSans-Roman-41"/>
      <use x="68.392578125" xlink:href="#BitstreamVeraSans-Roman-63"/>
      <use x="123.373046875" xlink:href="#BitstreamVeraSans-Roman-63"/>
      <use x="178.353515625" xlink:href="#BitstreamVeraSans-Roman-65"/>
      <use x="239.876953125" xlink:href="#BitstreamVeraSans-Roman-6c"/>
      <use x="267.66015625" xlink:href="#BitstreamVeraSans-Roman-20"/>
      <use x="299.447265625" xlink:href="#BitstreamVeraSans-Roman-43"/>
      <use x="369.271484375" xlink:href="#BitstreamVeraSans-Roman-6d"/>
      <use x="466.68359375" xlink:href="#BitstreamVeraSans-Roman-64"/>
      <use x="530.16015625" xlink:href="#BitstreamVeraSans-Roman-20"/>
      <use x="561.947265625" xlink:href="#BitstreamVeraSans-Roman-5b"/>
      <use x="600.9609375" xlink:href="#BitstreamVeraSans-Roman-6d"/>
      <use x="698.373046875" xlink:href="#BitstreamVeraSans-Roman-2f"/>
      <use x="732.064453125" xlink:href="#BitstreamVeraSans-Roman-73"/>
      <use x="784.1640625" xlink:href="#BitstreamVeraSans-Roman-5e"/>
      <use x="867.953125" xlink:href="#BitstreamVeraSans-Roman-32"/>
      <use x="931.576171875" xlink:href="#BitstreamVeraSans-Roman-5d"/>
     </g>
    </g>
   </g>
   <g id="legend_1">
    <g id="patch_7">
     <path d="M 371.673 96.993 
L 511.2 96.993 
L 511.2 50.4 
L 371.673 50.4 
z
" style="fill:#ffffff;stroke:#000000;stroke-linejoin:miter;"/>
    </g>
    <g id="line2d_42">
     <path d="M 381.753 62.06175 
L 401.913 62.06175 
" style="fill:none;stroke:#008000;stroke-linecap:square;"/>
    </g>
    <g id="line2d_43"/>
    <g id="text_16">
     <!-- Proportional -->
     <defs>
      <path d="M 54.890625 33.015625 
L 54.890625 0 
L 45.90625 0 
L 45.90625 32.71875 
Q 45.90625 40.484375 42.875 44.328125 
Q 39.84375 48.1875 33.796875 48.1875 
Q 26.515625 48.1875 22.3125 43.546875 
Q 18.109375 38.921875 18.109375 30.90625 
L 18.109375 0 
L 9.078125 0 
L 9.078125 54.6875 
L 18.109375 54.6875 
L 18.109375 46.1875 
Q 21.34375 51.125 25.703125 53.5625 
Q 30.078125 56 35.796875 56 
Q 45.21875 56 50.046875 50.171875 
Q 54.890625 44.34375 54.890625 33.015625 
" id="BitstreamVeraSans-Roman-6e"/>
      <path d="M 34.28125 27.484375 
Q 23.390625 27.484375 19.1875 25 
Q 14.984375 22.515625 14.984375 16.5 
Q 14.984375 11.71875 18.140625 8.90625 
Q 21.296875 6.109375 26.703125 6.109375 
Q 34.1875 6.109375 38.703125 11.40625 
Q 43.21875 16.703125 43.21875 25.484375 
L 43.21875 27.484375 
z
M 52.203125 31.203125 
L 52.203125 0 
L 43.21875 0 
L 43.21875 8.296875 
Q 40.140625 3.328125 35.546875 0.953125 
Q 30.953125 -1.421875 24.3125 -1.421875 
Q 15.921875 -1.421875 10.953125 3.296875 
Q 6 8.015625 6 15.921875 
Q 6 25.140625 12.171875 29.828125 
Q 18.359375 34.515625 30.609375 34.515625 
L 43.21875 34.515625 
L 43.21875 35.40625 
Q 43.21875 41.609375 39.140625 45 
Q 35.0625 48.390625 27.6875 48.390625 
Q 23 48.390625 18.546875 47.265625 
Q 14.109375 46.140625 10.015625 43.890625 
L 10.015625 52.203125 
Q 14.9375 54.109375 19.578125 55.046875 
Q 24.21875 56 28.609375 56 
Q 40.484375 56 46.34375 49.84375 
Q 52.203125 43.703125 52.203125 31.203125 
" id="BitstreamVeraSans-Roman-61"/>
      <path d="M 30.609375 48.390625 
Q 23.390625 48.390625 19.1875 42.75 
Q 14.984375 37.109375 14.984375 27.296875 
Q 14.984375 17.484375 19.15625 11.84375 
Q 23.34375 6.203125 30.609375 6.203125 
Q 37.796875 6.203125 41.984375 11.859375 
Q 46.1875 17.53125 46.1875 27.296875 
Q 46.1875 37.015625 41.984375 42.703125 
Q 37.796875 48.390625 30.609375 48.390625 
M 30.609375 56 
Q 42.328125 56 49.015625 48.375 
Q 55.71875 40.765625 55.71875 27.296875 
Q 55.71875 13.875 49.015625 6.21875 
Q 42.328125 -1.421875 30.609375 -1.421875 
Q 18.84375 -1.421875 12.171875 6.21875 
Q 5.515625 13.875 5.515625 27.296875 
Q 5.515625 40.765625 12.171875 48.375 
Q 18.84375 56 30.609375 56 
" id="BitstreamVeraSans-Roman-6f"/>
      <path d="M 19.671875 64.796875 
L 19.671875 37.40625 
L 32.078125 37.40625 
Q 38.96875 37.40625 42.71875 40.96875 
Q 46.484375 44.53125 46.484375 51.125 
Q 46.484375 57.671875 42.71875 61.234375 
Q 38.96875 64.796875 32.078125 64.796875 
z
M 9.8125 72.90625 
L 32.078125 72.90625 
Q 44.34375 72.90625 50.609375 67.359375 
Q 56.890625 61.8125 56.890625 51.125 
Q 56.890625 40.328125 50.609375 34.8125 
Q 44.34375 29.296875 32.078125 29.296875 
L 19.671875 29.296875 
L 19.671875 0 
L 9.8125 0 
z
" id="BitstreamVeraSans-Roman-50"/>
      <path d="M 18.3125 70.21875 
L 18.3125 54.6875 
L 36.8125 54.6875 
L 36.8125 47.703125 
L 18.3125 47.703125 
L 18.3125 18.015625 
Q 18.3125 11.328125 20.140625 9.421875 
Q 21.96875 7.515625 27.59375 7.515625 
L 36.8125 7.515625 
L 36.8125 0 
L 27.59375 0 
Q 17.1875 0 13.234375 3.875 
Q 9.28125 7.765625 9.28125 18.015625 
L 9.28125 47.703125 
L 2.6875 47.703125 
L 2.6875 54.6875 
L 9.28125 54.6875 
L 9.28125 70.21875 
z
" id="BitstreamVeraSans-Roman-74"/>
      <path d="M 41.109375 46.296875 
Q 39.59375 47.171875 37.8125 47.578125 
Q 36.03125 48 33.890625 48 
Q 26.265625 48 22.1875 43.046875 
Q 18.109375 38.09375 18.109375 28.8125 
L 18.109375 0 
L 9.078125 0 
L 9.078125 54.6875 
L 18.109375 54.6875 
L 18.109375 46.1875 
Q 20.953125 51.171875 25.484375 53.578125 
Q 30.03125 56 36.53125 56 
Q 37.453125 56 38.578125 55.875 
Q 39.703125 55.765625 41.0625 55.515625 
z
" id="BitstreamVeraSans-Roman-72"/>
      <path d="M 18.109375 8.203125 
L 18.109375 -20.796875 
L 9.078125 -20.796875 
L 9.078125 54.6875 
L 18.109375 54.6875 
L 18.109375 46.390625 
Q 20.953125 51.265625 25.265625 53.625 
Q 29.59375 56 35.59375 56 
Q 45.5625 56 51.78125 48.09375 
Q 58.015625 40.1875 58.015625 27.296875 
Q 58.015625 14.40625 51.78125 6.484375 
Q 45.5625 -1.421875 35.59375 -1.421875 
Q 29.59375 -1.421875 25.265625 0.953125 
Q 20.953125 3.328125 18.109375 8.203125 
M 48.6875 27.296875 
Q 48.6875 37.203125 44.609375 42.84375 
Q 40.53125 48.484375 33.40625 48.484375 
Q 26.265625 48.484375 22.1875 42.84375 
Q 18.109375 37.203125 18.109375 27.296875 
Q 18.109375 17.390625 22.1875 11.75 
Q 26.265625 6.109375 33.40625 6.109375 
Q 40.53125 6.109375 44.609375 11.75 
Q 48.6875 17.390625 48.6875 27.296875 
" id="BitstreamVeraSans-Roman-70"/>
     </defs>
     <g transform="translate(417.753 67.10175)scale(0.144 -0.144)">
      <use xlink:href="#BitstreamVeraSans-Roman-50"/>
      <use x="60.287109375" xlink:href="#BitstreamVeraSans-Roman-72"/>
      <use x="101.369140625" xlink:href="#BitstreamVeraSans-Roman-6f"/>
      <use x="162.55078125" xlink:href="#BitstreamVeraSans-Roman-70"/>
      <use x="226.02734375" xlink:href="#BitstreamVeraSans-Roman-6f"/>
      <use x="287.208984375" xlink:href="#BitstreamVeraSans-Roman-72"/>
      <use x="328.322265625" xlink:href="#BitstreamVeraSans-Roman-74"/>
      <use x="367.53125" xlink:href="#BitstreamVeraSans-Roman-69"/>
      <use x="395.314453125" xlink:href="#BitstreamVeraSans-Roman-6f"/>
      <use x="456.49609375" xlink:href="#BitstreamVeraSans-Roman-6e"/>
      <use x="519.875" xlink:href="#BitstreamVeraSans-Roman-61"/>
      <use x="581.154296875" xlink:href="#BitstreamVeraSans-Roman-6c"/>
     </g>
    </g>
    <g id="line2d_44">
     <path d="M 381.753 83.19825 
L 401.913 83.19825 
" style="fill:none;stroke:#0000ff;stroke-linecap:square;"/>
    </g>
    <g id="line2d_45"/>
    <g id="text_17">
     <!-- Integral -->
     <defs>
      <path d="M 45.40625 27.984375 
Q 45.40625 37.75 41.375 43.109375 
Q 37.359375 48.484375 30.078125 48.484375 
Q 22.859375 48.484375 18.828125 43.109375 
Q 14.796875 37.75 14.796875 27.984375 
Q 14.796875 18.265625 18.828125 12.890625 
Q 22.859375 7.515625 30.078125 7.515625 
Q 37.359375 7.515625 41.375 12.890625 
Q 45.40625 18.265625 45.40625 27.984375 
M 54.390625 6.78125 
Q 54.390625 -7.171875 48.1875 -13.984375 
Q 42 -20.796875 29.203125 -20.796875 
Q 24.46875 -20.796875 20.265625 -20.09375 
Q 16.0625 -19.390625 12.109375 -17.921875 
L 12.109375 -9.1875 
Q 16.0625 -11.328125 19.921875 -12.34375 
Q 23.78125 -13.375 27.78125 -13.375 
Q 36.625 -13.375 41.015625 -8.765625 
Q 45.40625 -4.15625 45.40625 5.171875 
L 45.40625 9.625 
Q 42.625 4.78125 38.28125 2.390625 
Q 33.9375 0 27.875 0 
Q 17.828125 0 11.671875 7.65625 
Q 5.515625 15.328125 5.515625 27.984375 
Q 5.515625 40.671875 11.671875 48.328125 
Q 17.828125 56 27.875 56 
Q 33.9375 56 38.28125 53.609375 
Q 42.625 51.21875 45.40625 46.390625 
L 45.40625 54.6875 
L 54.390625 54.6875 
z
" id="BitstreamVeraSans-Roman-67"/>
      <path d="M 9.8125 72.90625 
L 19.671875 72.90625 
L 19.671875 0 
L 9.8125 0 
z
" id="BitstreamVeraSans-Roman-49"/>
     </defs>
     <g transform="translate(417.753 88.23825)scale(0.144 -0.144)">
      <use xlink:href="#BitstreamVeraSans-Roman-49"/>
      <use x="29.4921875" xlink:href="#BitstreamVeraSans-Roman-6e"/>
      <use x="92.87109375" xlink:href="#BitstreamVeraSans-Roman-74"/>
      <use x="132.080078125" xlink:href="#BitstreamVeraSans-Roman-65"/>
      <use x="193.603515625" xlink:href="#BitstreamVeraSans-Roman-67"/>
      <use x="257.080078125" xlink:href="#BitstreamVeraSans-Roman-72"/>
      <use x="298.193359375" xlink:href="#BitstreamVeraSans-Roman-61"/>
      <use x="359.47265625" xlink:href="#BitstreamVeraSans-Roman-6c"/>
     </g>
    </g>
   </g>
  </g>
 </g>
 <defs>
  <clipPath id="p0d34dfdc0b">
   <rect height="345.6" width="446.4" x="72.0" y="43.2"/>
  </clipPath>
 </defs>
</svg>
