<?xml version="1.0" encoding="utf-8" standalone="no"?>
<!DOCTYPE svg PUBLIC "-//W3C//DTD SVG 1.1//EN"
  "http://www.w3.org/Graphics/SVG/1.1/DTD/svg11.dtd">
<!-- Created with matplotlib (http://matplotlib.org/) -->
<svg height="432pt" version="1.1" viewBox="0 0 576 432" width="576pt" xmlns="http://www.w3.org/2000/svg" xmlns:xlink="http://www.w3.org/1999/xlink">
 <defs>
  <style type="text/css">
*{stroke-linecap:butt;stroke-linejoin:round;stroke-miterlimit:100000;}
  </style>
 </defs>
 <g id="figure_1">
  <g id="patch_1">
   <path d="M 0 432 
L 576 432 
L 576 0 
L 0 0 
z
" style="fill:#ffffff;"/>
  </g>
  <g id="axes_1">
   <g id="patch_2">
    <path d="M 72 388.8 
L 518.4 388.8 
L 518.4 43.2 
L 72 43.2 
z
" style="fill:#ffffff;"/>
   </g>
   <g id="line2d_1">
    <path clip-path="url(#paac0e3ae24)" d="M 72.08928 169.254551 
L 84.67776 169.188906 
L 84.9456 175.187261 
L 85.03488 175.186543 
L 85.30272 181.184129 
L 85.392 181.183154 
L 85.65984 187.179972 
L 85.74912 187.178742 
L 86.01696 193.174794 
L 86.10624 193.173309 
L 86.37408 199.768545 
L 86.46336 199.76678 
L 86.7312 205.761229 
L 86.82048 205.759211 
L 87.08832 211.752902 
L 87.1776 211.750631 
L 87.44544 217.743566 
L 87.53472 217.741044 
L 87.80256 224.333176 
L 87.89184 224.330378 
L 88.15968 230.321737 
L 88.24896 230.318691 
L 88.5168 236.309305 
L 88.60608 236.306012 
L 88.87392 242.295888 
L 88.9632 242.292349 
L 89.23104 248.88144 
L 89.32032 248.877632 
L 89.58816 254.865969 
L 89.67744 254.86192 
L 89.94528 260.849535 
L 90.03456 260.845246 
L 90.3024 266.832144 
L 90.39168 266.827617 
L 90.65952 273.413804 
L 90.7488 273.409017 
L 91.01664 279.394427 
L 91.10592 279.389407 
L 91.37376 285.374121 
L 91.46304 285.368871 
L 91.73088 291.352897 
L 91.82016 291.347418 
L 92.088 297.930764 
L 92.17728 297.925036 
L 92.44512 303.907637 
L 92.5344 303.901686 
L 92.80224 309.883625 
L 92.89152 309.877455 
L 92.9808 311.671291 
L 93.07008 311.665062 
L 93.78432 311.615474 
L 93.96288 312.203121 
L 94.67712 312.153891 
L 94.85568 312.741628 
L 95.56992 312.692761 
L 95.74848 313.28059 
L 96.46272 313.232091 
L 96.64128 313.820012 
L 97.08768 313.789881 
L 97.26624 314.377855 
L 98.06976 314.323982 
L 98.24832 314.912065 
L 98.96256 314.864592 
L 99.14112 315.452772 
L 99.85536 315.405688 
L 100.03392 315.993967 
L 100.74816 315.947279 
L 100.92672 316.535657 
L 101.4624 316.500899 
L 101.64096 317.089349 
L 102.3552 317.043353 
L 102.53376 317.631906 
L 103.248 317.586323 
L 103.42656 318.174979 
L 103.96224 318.141061 
L 104.1408 318.729793 
L 104.85504 318.684934 
L 105.0336 319.273773 
L 105.74784 319.229343 
L 105.9264 319.818289 
L 106.46208 319.785248 
L 106.64064 320.374274 
L 107.35488 320.3306 
L 107.53344 320.919737 
L 122.8896 320.096974 
L 138.33504 319.492317 
L 143.33472 319.3439 
L 143.51328 317.539053 
L 143.60256 316.336655 
L 143.8704 304.929738 
L 143.95968 304.927554 
L 144.22752 295.321167 
L 144.3168 295.319148 
L 144.58464 284.513287 
L 144.67392 284.511446 
L 144.94176 273.706114 
L 145.03104 273.704447 
L 145.29888 262.299612 
L 145.38816 262.298123 
L 145.656 253.893781 
L 145.74528 253.892423 
L 145.92384 249.689777 
L 146.01312 249.688486 
L 146.28096 238.884803 
L 146.45952 238.882544 
L 146.63808 233.480372 
L 146.72736 233.479324 
L 146.9952 223.876346 
L 147.17376 223.87453 
L 147.4416 214.871953 
L 147.62016 214.870397 
L 147.888 206.46819 
L 147.97728 206.467531 
L 148.15584 202.866266 
L 148.24512 202.865658 
L 148.42368 198.064512 
L 148.60224 194.463482 
L 148.69152 194.462991 
L 148.87008 166.262408 
L 149.04864 156.346557 
L 149.13792 156.346585 
L 149.31648 152.540742 
L 149.40576 152.540821 
L 149.6736 145.690431 
L 149.85216 145.690777 
L 150.12 139.601857 
L 150.20928 139.602113 
L 150.47712 133.513444 
L 150.5664 133.513783 
L 150.83424 127.425365 
L 150.92352 127.425789 
L 151.19136 122.098793 
L 151.28064 122.099291 
L 151.54848 117.533708 
L 151.81632 117.535397 
L 152.08416 120.581808 
L 152.352 120.583378 
L 152.53056 125.151505 
L 152.7984 123.630531 
L 152.88768 123.631015 
L 153.06624 122.870803 
L 153.2448 127.438872 
L 153.60192 127.440602 
L 153.78048 131.247366 
L 153.95904 130.486948 
L 154.31616 130.488515 
L 154.49472 129.72812 
L 154.67328 133.534825 
L 154.85184 134.296705 
L 155.11968 132.775366 
L 155.38752 132.776452 
L 155.56608 137.344253 
L 155.74464 136.58367 
L 155.9232 136.584288 
L 156.10176 135.823728 
L 156.28032 135.824368 
L 156.45888 140.392086 
L 156.63744 139.631419 
L 156.816 139.631953 
L 156.99456 138.871308 
L 157.35168 138.872422 
L 157.53024 142.678876 
L 157.88736 142.679774 
L 158.06592 141.919044 
L 158.42304 141.919988 
L 158.6016 141.15928 
L 158.78016 145.726851 
L 159.13728 145.727578 
L 159.31584 144.966762 
L 159.76224 144.967728 
L 159.9408 144.206935 
L 160.11936 144.207343 
L 160.29792 148.013648 
L 160.47648 148.775127 
L 160.56576 148.775265 
L 160.74432 148.014364 
L 160.92288 148.014663 
L 161.10144 147.253783 
L 161.63712 147.254749 
L 161.81568 146.493892 
L 162.1728 146.49458 
L 162.35136 151.062 
L 162.52992 151.062213 
L 162.70848 150.301246 
L 162.88704 150.301481 
L 163.0656 149.540536 
L 163.77984 149.541564 
L 163.9584 148.780642 
L 164.49408 148.78148 
L 164.67264 153.348834 
L 164.8512 153.348981 
L 165.02976 152.587949 
L 165.744 152.588625 
L 165.92256 151.827615 
L 166.81536 151.828573 
L 166.99392 151.067585 
L 167.70816 151.068441 
L 167.88672 159.441625 
L 168.06528 157.919237 
L 168.24384 157.158071 
L 168.4224 157.158108 
L 168.60096 156.396965 
L 168.77952 156.397023 
L 168.95808 157.158261 
L 169.13664 155.635939 
L 169.3152 154.874841 
L 169.49376 154.874944 
L 169.67232 155.636226 
L 169.94016 154.113989 
L 170.02944 154.114051 
L 170.208 154.875356 
L 170.38656 154.875459 
L 170.56512 153.353203 
L 170.74368 154.11453 
L 170.92224 153.353476 
L 171.81504 153.354215 
L 171.9936 152.593183 
L 173.06496 152.594204 
L 173.24352 151.833195 
L 173.42208 163.251074 
L 173.60064 163.250932 
L 174.13632 151.07193 
L 174.31488 151.072145 
L 174.49344 162.490046 
L 174.58272 162.489986 
L 174.85056 159.44509 
L 174.93984 159.445075 
L 175.1184 158.683865 
L 175.20768 158.683861 
L 175.38624 160.20621 
L 175.5648 160.206158 
L 175.74336 159.444925 
L 175.92192 151.833104 
L 176.10048 158.683908 
L 176.4576 158.683892 
L 176.63616 157.922704 
L 176.99328 157.922732 
L 177.17184 157.161567 
L 177.3504 157.161604 
L 177.52896 157.922819 
L 177.70752 157.922833 
L 177.88608 156.400489 
L 178.06464 155.639368 
L 178.42176 155.63953 
L 178.60032 156.40079 
L 178.77888 156.400849 
L 178.95744 154.87855 
L 179.136 154.117474 
L 179.31456 155.639958 
L 179.67168 153.356605 
L 179.85024 154.879111 
L 180.11808 153.356908 
L 180.20736 153.356982 
L 180.38592 154.11831 
L 180.56448 152.596077 
L 180.74304 153.357427 
L 180.9216 152.596396 
L 181.10016 153.357746 
L 181.27872 152.596715 
L 181.8144 152.597228 
L 181.99296 151.83622 
L 182.17152 152.597592 
L 182.52864 152.597934 
L 182.7072 166.319626 
L 182.88576 165.537915 
L 183.06432 157.164735 
L 183.24288 151.836518 
L 183.42144 151.836712 
L 183.6 164.01577 
L 183.77856 164.776783 
L 184.0464 151.075301 
L 184.13568 151.075409 
L 184.31424 161.732131 
L 184.4928 162.493212 
L 184.76064 151.075357 
L 184.84992 151.075465 
L 185.02848 160.971008 
L 185.20704 162.49329 
L 185.3856 160.970812 
L 185.56416 154.120125 
L 185.74272 151.075535 
L 185.92128 161.732257 
L 186.09984 161.732159 
L 186.36768 158.687295 
L 186.63552 158.687283 
L 186.81408 151.075484 
L 186.99264 150.314521 
L 187.1712 160.210086 
L 187.26048 160.21006 
L 187.52832 157.165286 
L 187.70688 157.165322 
L 187.88544 159.448896 
L 188.064 159.448865 
L 188.24256 156.404118 
L 188.33184 156.404147 
L 188.68896 158.68778 
L 188.77824 158.687775 
L 188.9568 157.165409 
L 189.13536 157.165445 
L 189.31392 156.404303 
L 189.8496 156.404479 
L 190.02816 157.165717 
L 190.20672 157.165754 
L 190.38528 155.643432 
L 190.56384 154.882334 
L 190.7424 154.882438 
L 190.92096 156.4049 
L 191.09952 156.404959 
L 191.27808 154.12148 
L 191.45664 154.121607 
L 191.6352 155.644091 
L 191.81376 154.882993 
L 192.17088 154.883201 
L 192.34944 153.360947 
L 192.528 154.122275 
L 192.70656 154.122401 
L 192.88512 152.60017 
L 193.06368 154.122699 
L 193.24224 153.361646 
L 193.68864 153.362019 
L 193.8672 152.600989 
L 194.04576 153.362339 
L 194.22432 152.60131 
L 194.40288 152.601481 
L 194.58144 166.323173 
L 194.76 166.322938 
L 194.93856 164.780047 
L 195.11712 153.362174 
L 195.29568 151.839965 
L 195.6528 151.840353 
L 195.83136 166.323246 
L 196.00992 164.780356 
L 196.18848 164.780167 
L 196.36704 152.601114 
L 196.5456 151.078928 
L 196.72416 151.840324 
L 196.90272 164.78056 
L 197.08128 164.019193 
L 197.25984 164.019026 
L 197.4384 155.645891 
L 197.61696 166.322777 
L 200.1168 166.319503 
L 200.38464 163.254116 
L 200.5632 157.164541 
L 200.74176 155.642219 
L 200.92032 155.642301 
L 201.09888 154.120024 
L 201.27744 154.12015 
L 201.36672 152.597832 
L 201.72384 157.165204 
L 201.9024 154.881703 
L 202.08096 154.881807 
L 202.25952 153.359552 
L 202.52736 151.837417 
L 202.70592 151.837611 
L 202.88448 151.076625 
L 203.2416 151.077058 
L 203.42016 150.316095 
L 203.59872 150.316334 
L 203.77728 149.555394 
L 203.95584 149.555655 
L 204.1344 148.794738 
L 204.22368 148.79488 
L 204.40224 148.033985 
L 204.75936 148.034598 
L 204.93792 148.796084 
L 205.11648 148.796369 
L 205.29504 148.035475 
L 205.38432 148.035628 
L 205.56288 147.274757 
L 205.92 147.275417 
L 206.09856 146.514568 
L 206.45568 146.515275 
L 206.90208 149.560829 
L 207.08064 149.561092 
L 207.2592 151.083713 
L 207.43776 151.845109 
L 207.7056 158.696024 
L 207.79488 158.696019 
L 207.97344 159.457189 
L 208.152 162.501874 
L 208.33056 163.26293 
L 208.50912 166.3278 
L 208.68768 165.546086 
L 208.86624 166.327351 
L 211.99104 166.323234 
L 212.25888 172.322791 
L 212.34816 172.322585 
L 212.616 178.321876 
L 212.70528 178.321581 
L 212.97312 184.320608 
L 213.0624 184.320225 
L 213.33024 190.318988 
L 213.41952 190.318518 
L 213.68736 196.916958 
L 213.9552 202.915172 
L 214.04448 202.914521 
L 214.31232 208.912478 
L 214.4016 208.911741 
L 214.66944 214.309445 
L 214.93728 214.307011 
L 215.20512 215.504558 
L 215.38368 215.50291 
L 215.56224 216.701248 
L 215.7408 216.699574 
L 215.91936 217.297894 
L 216.09792 217.29621 
L 216.27648 217.894522 
L 216.45504 217.892829 
L 216.72288 219.09027 
L 216.90144 219.088554 
L 217.16928 220.285969 
L 217.25856 220.285098 
L 217.43712 220.883352 
L 217.5264 220.882476 
L 217.79424 222.079838 
L 218.8656 222.06926 
L 219.04416 220.86753 
L 219.22272 220.265829 
L 219.40128 220.26414 
L 219.57984 219.062472 
L 219.93696 217.259215 
L 220.02624 217.258419 
L 220.29408 216.056054 
L 220.38336 216.055278 
L 220.6512 214.852973 
L 220.74048 214.852217 
L 221.00832 213.649979 
L 221.0976 213.649243 
L 221.36544 212.447056 
L 221.45472 212.446339 
L 221.81184 210.643519 
L 221.90112 210.64283 
L 222.16896 209.440784 
L 222.25824 209.440113 
L 222.52608 208.238123 
L 222.70464 208.23682 
L 222.8832 207.035537 
L 223.15104 205.833655 
L 223.3296 205.832424 
L 223.50816 205.231204 
L 224.49024 205.224579 
L 224.6688 204.623391 
L 231.27552 204.581401 
L 231.45408 205.180305 
L 231.63264 205.179205 
L 231.8112 205.7781 
L 232.16832 205.775883 
L 232.34688 206.374772 
L 232.52544 206.373656 
L 232.704 206.972536 
L 233.23968 206.969171 
L 233.41824 207.568048 
L 233.77536 207.565796 
L 233.95392 208.164667 
L 235.91808 208.152363 
L 236.09664 208.751254 
L 236.81088 208.746823 
L 236.98944 209.345716 
L 238.41792 209.336912 
L 238.59648 209.935818 
L 240.56064 209.923917 
L 240.7392 210.522847 
L 243.23904 210.508103 
L 243.4176 211.107066 
L 245.56032 211.094809 
L 245.73888 211.693802 
L 260.20224 211.622461 
L 260.3808 211.021717 
L 260.73792 211.020244 
L 260.91648 210.419517 
L 262.88064 210.411764 
L 263.14848 209.210744 
L 265.38048 209.202625 
L 265.55904 208.602 
L 266.09472 208.60015 
L 266.27328 207.999543 
L 266.45184 207.998942 
L 266.6304 207.398347 
L 267.5232 207.395434 
L 267.70176 206.794863 
L 267.88032 206.794298 
L 268.05888 206.193739 
L 269.48736 206.189389 
L 269.7552 204.988599 
L 269.84448 204.988341 
L 270.11232 203.787579 
L 270.2016 203.78733 
L 270.38016 203.186838 
L 270.46944 203.186594 
L 270.73728 201.985873 
L 271.18368 201.984702 
L 271.45152 200.784014 
L 271.80864 200.783119 
L 271.9872 200.182678 
L 272.07648 200.182459 
L 272.34432 198.981817 
L 272.79072 198.980771 
L 273.05856 197.780155 
L 274.2192 197.777585 
L 274.48704 196.577008 
L 274.75488 196.576447 
L 274.93344 195.976078 
L 275.20128 195.975532 
L 275.37984 195.375173 
L 275.73696 195.374464 
L 275.91552 194.774116 
L 276.0048 194.773943 
L 276.18336 194.173602 
L 277.61184 194.170948 
L 277.7904 193.570626 
L 279.1296 193.568272 
L 279.30816 192.967967 
L 287.07552 192.956103 
L 287.25408 193.555858 
L 287.70048 193.555247 
L 287.87904 194.155002 
L 288.23616 194.154514 
L 288.41472 194.75427 
L 288.9504 194.753541 
L 289.12896 195.353299 
L 289.57536 195.25586 
L 289.66464 196.210034 
L 290.736 193.292379 
L 290.82528 193.659654 
L 290.91456 193.424481 
L 291.00384 193.790876 
L 291.1824 193.320355 
L 291.36096 194.052089 
L 292.0752 192.193609 
L 292.16448 192.568218 
L 292.5216 191.665744 
L 292.61088 192.043876 
L 292.70016 191.819486 
L 292.87872 192.571184 
L 293.23584 191.668643 
L 293.32512 192.046757 
L 293.4144 191.822351 
L 293.50368 192.79944 
L 293.59296 192.570014 
L 294.12864 191.225244 
L 294.21792 191.606319 
L 294.3072 191.384853 
L 294.39648 191.764864 
L 294.57504 191.321303 
L 294.66432 191.701739 
L 294.93216 191.039871 
L 295.02144 192.022185 
L 295.11072 191.797948 
L 295.37856 191.134173 
L 295.46784 191.51586 
L 295.55712 191.295001 
L 295.6464 191.675616 
L 295.73568 191.453693 
L 295.82496 191.83325 
L 296.62848 189.879205 
L 296.71776 190.269265 
L 298.3248 186.652923 
L 298.41408 187.064505 
L 299.2176 185.389235 
L 299.30688 185.809246 
L 299.39616 185.626457 
L 299.48544 186.044886 
L 301.0032 183.072546 
L 301.09248 183.50801 
L 301.4496 182.844925 
L 301.53888 183.281909 
L 302.69952 181.209062 
L 302.7888 181.656956 
L 303.59232 180.297795 
L 303.6816 180.751768 
L 303.94944 180.307581 
L 304.03872 180.761489 
L 305.19936 178.89866 
L 305.28864 179.361965 
L 305.37792 179.222181 
L 305.4672 179.683329 
L 306.62784 177.91034 
L 306.71712 178.380238 
L 307.34208 177.466045 
L 307.43136 177.938906 
L 308.05632 177.044911 
L 308.1456 177.520582 
L 309.12768 176.163913 
L 309.21696 176.645459 
L 309.30624 176.523794 
L 310.3776 175.125586 
L 310.46688 175.614057 
L 310.55616 175.499271 
L 311.2704 174.608119 
L 311.53824 175.478069 
L 313.056 173.642061 
L 313.14528 174.140426 
L 313.23456 174.035469 
L 313.9488 173.220621 
L 314.03808 173.721797 
L 314.12736 173.619632 
L 314.8416 172.82646 
L 314.93088 173.330266 
L 315.02016 173.230712 
L 315.82368 172.364078 
L 315.91296 172.870967 
L 316.00224 172.774476 
L 316.98432 171.754618 
L 317.0736 172.265571 
L 317.16288 172.173118 
L 317.87712 171.455346 
L 317.9664 171.968295 
L 318.05568 171.877825 
L 319.12704 170.838104 
L 319.39488 171.782983 
L 319.48416 171.693749 
L 319.752 172.621626 
L 319.84128 172.5268 
L 320.10912 173.438125 
L 320.1984 173.337856 
L 320.55552 174.727496 
L 320.6448 174.618629 
L 320.73408 175.110489 
L 320.82336 174.999069 
L 320.91264 174.888392 
L 321.26976 176.237092 
L 321.35904 176.118161 
L 321.44832 177.200023 
L 321.5376 177.074671 
L 321.62688 177.550155 
L 321.71616 177.42247 
L 321.80544 177.895635 
L 321.89472 177.765646 
L 321.984 178.236523 
L 322.07328 178.104262 
L 322.16256 178.572881 
L 322.25184 178.438377 
L 322.34112 178.90477 
L 322.51968 178.632247 
L 322.60896 179.097347 
L 322.69824 178.959347 
L 322.78752 179.422266 
L 322.8768 179.2821 
L 322.96608 179.742867 
L 323.05536 179.600563 
L 323.14464 180.059208 
L 323.23392 179.914795 
L 323.3232 180.371344 
L 323.41248 180.22485 
L 323.50176 180.679333 
L 323.59104 180.530786 
L 323.68032 180.983229 
L 323.7696 180.832656 
L 323.85888 181.283086 
L 323.94816 181.130514 
L 324.03744 181.578959 
L 324.12672 181.424414 
L 324.216 181.8709 
L 324.30528 181.714409 
L 324.39456 182.158962 
L 324.48384 182.000551 
L 324.57312 182.443196 
L 324.6624 182.28289 
L 324.75168 182.723653 
L 324.84096 182.561477 
L 324.93024 183.000383 
L 325.01952 182.836363 
L 325.1088 183.273436 
L 325.19808 183.107596 
L 325.28736 183.542861 
L 325.37664 183.375224 
L 325.46592 183.808706 
L 325.5552 183.639297 
L 325.64448 184.071018 
L 325.73376 183.899861 
L 325.82304 184.329845 
L 325.91232 184.156962 
L 326.0016 184.585233 
L 326.09088 184.410648 
L 326.18016 184.837227 
L 326.26944 184.660962 
L 326.35872 185.085873 
L 326.448 184.907951 
L 326.53728 185.331215 
L 326.62656 185.151658 
L 326.71584 185.573298 
L 326.80512 185.392127 
L 326.8944 185.812164 
L 326.98368 185.629401 
L 327.07296 186.047856 
L 327.16224 185.863522 
L 327.25152 186.280417 
L 327.3408 186.094533 
L 327.43008 186.509888 
L 327.51936 186.322475 
L 327.60864 186.736311 
L 327.69792 186.547388 
L 327.7872 186.959725 
L 327.87648 186.769313 
L 327.96576 187.18017 
L 328.05504 186.988289 
L 328.14432 187.397687 
L 328.2336 187.204356 
L 328.32288 187.612314 
L 328.41216 187.417553 
L 328.50144 187.82409 
L 328.59072 187.627917 
L 328.68 188.033053 
L 328.76928 187.835487 
L 328.85856 188.839238 
L 328.94784 188.636299 
L 329.03712 189.034712 
L 329.1264 188.830469 
L 329.21568 189.227588 
L 329.30496 189.02206 
L 329.39424 189.417903 
L 329.48352 189.211107 
L 329.5728 189.605689 
L 329.66208 189.397641 
L 329.75136 189.790981 
L 329.84064 189.581698 
L 329.92992 189.973811 
L 330.0192 189.76331 
L 330.10848 190.154213 
L 330.19776 189.94251 
L 330.28704 190.332218 
L 330.37632 190.119329 
L 330.4656 190.507859 
L 330.55488 190.2938 
L 330.64416 190.681167 
L 330.73344 190.465953 
L 330.82272 190.852174 
L 330.912 190.63582 
L 331.00128 191.020908 
L 331.09056 190.80343 
L 331.17984 191.187402 
L 332.60832 187.859581 
L 332.78688 158.4 
L 518.4 158.4 
L 518.4 158.4 
" style="fill:none;stroke:#008000;stroke-linecap:square;"/>
   </g>
   <g id="line2d_2">
    <path clip-path="url(#paac0e3ae24)" d="M 72.08928 158.4 
L 72.17856 158.4 
L 72.26784 158.4 
L 72.4464 196.802426 
L 72.53568 196.806033 
L 72.71424 363.657404 
L 72.80352 363.657404 
L 74.14272 372.56087 
L 74.232 371.995239 
L 76.10688 385.846161 
L 76.19616 385.669958 
L 76.64256 388.8 
L 146.5488 388.8 
L 146.72736 216.908134 
L 146.90592 388.8 
L 146.9952 216.985277 
L 147.08448 217.001807 
L 147.70944 217.10099 
L 148.42368 217.216704 
L 149.6736 217.260786 
L 152.352 217.034871 
L 152.53056 388.8 
L 199.224 388.8 
L 199.40256 216.197319 
L 201.456 216.21936 
L 204.04512 216.169771 
L 209.66976 216.092628 
L 209.84832 235.2 
L 217.9728 235.2 
L 218.06208 216.952217 
L 218.15136 216.968747 
L 223.59744 217.866907 
L 232.43616 219.057106 
L 233.1504 219.161801 
L 237.88224 219.847787 
L 239.93568 220.322511 
L 242.5248 220.924393 
L 244.7568 221.449979 
L 247.07808 222.000998 
L 249.48864 222.577446 
L 251.80992 223.128465 
L 254.39904 223.772731 
L 254.93472 223.874455 
L 255.4704 224.027046 
L 256.00608 224.128775 
L 256.45248 224.255933 
L 256.98816 224.366135 
L 258.86304 224.815425 
L 259.30944 224.942583 
L 259.75584 225.027356 
L 260.20224 225.129085 
L 262.52352 225.697055 
L 262.96992 225.781828 
L 263.41632 225.900508 
L 263.952 226.002237 
L 265.91616 226.451527 
L 270.02304 227.341635 
L 271.45152 227.646812 
L 271.9872 227.748541 
L 276.98688 228.59626 
L 277.61184 228.706462 
L 281.09376 229.257481 
L 282.96864 229.545708 
L 286.18272 230.04586 
L 288.0576 230.334087 
L 291.80736 230.944446 
L 292.5216 231.054648 
L 294.57504 231.359825 
L 297.16416 231.741302 
L 301.18176 232.224504 
L 301.80672 232.309273 
L 302.96736 232.419479 
L 304.30656 232.563588 
L 305.4672 232.665317 
L 306.71712 232.792474 
L 308.1456 232.902676 
L 309.30624 233.012883 
L 310.91328 233.123085 
L 311.98464 233.216336 
L 313.68096 233.326538 
L 317.52 233.580853 
L 319.48416 233.69106 
L 326.0016 234.275986 
L 326.18016 235.2 
L 518.4 235.2 
L 518.4 235.2 
" style="fill:none;stroke:#000000;stroke-dasharray:6.000000,6.000000;stroke-dashoffset:0.0;"/>
   </g>
   <g id="line2d_3">
    <path clip-path="url(#paac0e3ae24)" d="M 72.08928 158.4 
L 72.17856 158.4 
L 72.26784 158.4 
L 72.4464 119.995715 
L 72.53568 119.989357 
L 72.71424 235.2 
L 143.60256 235.2 
L 143.78112 74.407104 
L 144.04896 73.750983 
L 144.13824 73.750983 
L 144.49536 72.811514 
L 144.58464 72.742639 
L 144.85248 72.111823 
L 144.94176 72.042416 
L 145.2096 71.419547 
L 145.29888 71.349609 
L 145.56672 70.746698 
L 145.74528 70.629254 
L 146.01312 69.987314 
L 146.1024 69.939981 
L 146.28096 69.629517 
L 146.37024 69.629517 
L 146.63808 69.006473 
L 146.81664 68.922711 
L 146.90592 68.886823 
L 147.08448 68.585806 
L 147.17376 68.585806 
L 147.35232 68.260062 
L 147.62016 68.187744 
L 147.79872 67.873041 
L 147.888 67.848843 
L 148.06656 67.569772 
L 148.42368 67.460495 
L 148.60224 67.217148 
L 149.04864 67.131848 
L 150.5664 67.241519 
L 150.74496 67.484784 
L 151.28064 67.594061 
L 151.4592 67.848843 
L 151.81632 67.945624 
L 151.99488 68.21185 
L 152.352 68.296225 
L 152.53056 68.54978 
L 152.97696 68.645847 
L 153.15552 68.910745 
L 153.60192 68.994507 
L 153.78048 69.234897 
L 154.49472 69.354108 
L 154.67328 69.605759 
L 155.29824 69.72453 
L 155.4768 69.95181 
L 156.28032 70.058304 
L 156.45888 70.29689 
L 159.76224 71.077734 
L 160.11936 71.101135 
L 160.29792 71.3263 
L 164.49408 71.795224 
L 164.67264 72.019281 
L 165.744 72.053989 
L 167.70816 72.134958 
L 167.88672 72.358484 
L 172.70784 72.462204 
L 173.24352 72.485248 
L 173.42208 72.696716 
L 173.7792 72.696716 
L 173.95776 72.485248 
L 174.2256 72.485248 
L 174.40416 72.708206 
L 175.65408 72.696716 
L 175.83264 72.485248 
L 175.92192 72.485248 
L 176.10048 72.696716 
L 181.99296 72.800034 
L 182.52864 72.822995 
L 182.7072 73.045422 
L 182.88576 73.033987 
L 183.06432 72.822995 
L 183.42144 72.822995 
L 183.6 73.045422 
L 183.77856 73.045422 
L 183.95712 72.822995 
L 184.13568 72.822995 
L 184.31424 73.033987 
L 184.4928 73.033987 
L 184.67136 72.822995 
L 184.84992 72.822995 
L 185.02848 73.033987 
L 185.3856 73.033987 
L 185.56416 72.822995 
L 185.65344 72.822995 
L 185.832 73.045422 
L 186.54624 73.033987 
L 186.7248 72.822995 
L 186.90336 72.822995 
L 187.08192 73.045422 
L 193.95648 73.148337 
L 194.40288 73.171207 
L 194.58144 73.381668 
L 194.84928 73.381668 
L 195.02784 73.159772 
L 195.56352 73.159772 
L 195.74208 73.381668 
L 196.0992 73.381668 
L 196.27776 73.159772 
L 196.72416 73.171207 
L 196.90272 73.381668 
L 197.25984 73.381668 
L 197.4384 73.159772 
L 199.84896 73.056857 
L 200.29536 73.033987 
L 200.47392 72.811514 
L 201.36672 72.822995 
L 201.54528 73.045422 
L 204.40224 73.148337 
L 204.5808 73.159772 
L 204.75936 73.381668 
L 206.27712 73.4728 
L 206.45568 73.7056 
L 206.54496 73.7056 
L 206.72352 73.92692 
L 206.8128 73.938217 
L 207.08064 74.380508 
L 207.2592 74.380508 
L 207.43776 74.601517 
L 207.52704 74.601517 
L 207.7056 74.822443 
L 207.88416 74.822443 
L 208.06272 75.032199 
L 208.24128 75.032199 
L 208.41984 75.241946 
L 208.5984 75.230905 
L 208.77696 75.429712 
L 208.86624 75.429712 
L 209.0448 75.628601 
L 209.22336 75.617651 
L 209.40192 75.816678 
L 209.66976 75.816678 
L 209.84832 235.2 
L 217.9728 235.2 
L 218.15136 158.4 
L 266.09472 158.4 
L 266.27328 80.880002 
L 266.80896 80.880002 
L 266.98752 81.119998 
L 267.88032 81.119998 
L 268.05888 81.360004 
L 268.95168 81.360004 
L 269.13024 81.6 
L 270.73728 81.6 
L 270.91584 81.840001 
L 271.63008 81.840001 
L 271.80864 82.080002 
L 272.4336 82.080002 
L 272.61216 82.319998 
L 273.14784 82.319998 
L 273.3264 82.559999 
L 273.95136 82.559999 
L 274.12992 82.8 
L 274.75488 82.8 
L 274.93344 158.533655 
L 275.112 83.040001 
L 275.37984 83.040001 
L 275.46912 158.585053 
L 275.5584 158.580055 
L 277.96896 158.782884 
L 278.2368 158.87375 
L 279.21888 158.963347 
L 279.39744 159.067033 
L 279.84384 159.065624 
L 280.0224 159.172926 
L 280.4688 159.166389 
L 280.64736 159.291923 
L 281.09376 159.290049 
L 281.27232 159.41271 
L 281.71872 159.410595 
L 281.89728 159.548373 
L 282.34368 159.545672 
L 282.52224 159.670548 
L 282.96864 159.689686 
L 283.1472 159.835391 
L 283.5936 159.832404 
L 283.77216 160.024575 
L 284.21856 159.992305 
L 284.30784 159.991891 
L 284.4864 160.148912 
L 284.9328 160.160357 
L 285.11136 160.344915 
L 285.64704 160.337957 
L 285.8256 160.504928 
L 286.09344 160.524862 
L 286.18272 160.523753 
L 286.36128 160.707586 
L 286.80768 160.702081 
L 286.98624 160.893097 
L 287.70048 161.10266 
L 287.87904 161.117891 
L 288.0576 161.115771 
L 288.23616 161.322338 
L 289.3968 161.561246 
L 289.57536 161.805754 
L 290.11104 161.819729 
L 290.2896 162.049701 
L 290.64672 162.068532 
L 290.736 162.066606 
L 290.91456 162.304214 
L 291.27168 162.324376 
L 291.45024 162.569722 
L 291.98592 162.565669 
L 292.16448 162.817962 
L 292.61088 162.874188 
L 292.78944 163.146837 
L 293.23584 163.170164 
L 293.4144 163.448565 
L 293.8608 163.473578 
L 294.03936 163.751081 
L 294.48576 163.780487 
L 294.57504 164.052841 
L 294.66432 164.011159 
L 295.02144 164.093919 
L 295.11072 164.416604 
L 295.2 164.386823 
L 295.82496 164.454798 
L 296.00352 164.149521 
L 296.44992 164.178513 
L 296.62848 163.879047 
L 296.9856 163.909879 
L 297.16416 163.945621 
L 297.34272 163.678398 
L 297.96768 163.702674 
L 298.14624 163.411135 
L 298.7712 163.43854 
L 298.94976 163.18878 
L 299.48544 163.214006 
L 299.664 162.959612 
L 300.02112 162.960938 
L 300.28896 162.98251 
L 300.46752 162.717803 
L 300.91392 162.710366 
L 301.09248 162.717346 
L 301.27104 162.494124 
L 301.896 162.494326 
L 302.07456 162.255734 
L 302.43168 162.257588 
L 302.7888 162.306268 
L 302.96736 162.049186 
L 303.86016 162.066207 
L 304.03872 161.843525 
L 304.75296 161.862982 
L 304.93152 161.617861 
L 305.82432 161.634222 
L 306.00288 161.42095 
L 306.89568 161.43656 
L 307.07424 161.225018 
L 307.96704 161.219604 
L 308.1456 161.036848 
L 309.12768 161.031184 
L 309.30624 160.811201 
L 310.28832 160.844604 
L 310.46688 160.633375 
L 311.09184 160.648055 
L 311.53824 160.664686 
L 311.7168 160.441035 
L 312.43104 160.472689 
L 313.85952 160.284998 
L 314.30592 160.299948 
L 314.48448 160.108783 
L 315.7344 160.134041 
L 315.91296 159.958266 
L 317.0736 159.943484 
L 317.25216 159.959277 
L 317.43072 159.783863 
L 318.94848 159.791873 
L 319.12704 159.637413 
L 319.752 159.635672 
L 320.37696 159.645152 
L 320.55552 159.486798 
L 321.71616 159.492881 
L 321.89472 159.33101 
L 322.8768 159.336608 
L 323.05536 159.19798 
L 323.85888 159.195385 
L 324.03744 159.074368 
L 324.75168 159.061382 
L 324.93024 158.954647 
L 326.0016 158.841605 
L 326.18016 83.759999 
L 326.448 83.759999 
L 326.62656 83.519998 
L 327.25152 83.519998 
L 327.43008 83.280002 
L 328.05504 83.280002 
L 328.2336 83.040001 
L 328.76928 83.040001 
L 328.94784 82.8 
L 329.48352 82.8 
L 329.66208 82.559999 
L 330.10848 82.559999 
L 330.28704 82.319998 
L 330.73344 82.319998 
L 330.912 82.080002 
L 331.53696 82.080002 
L 331.71552 81.840001 
L 332.07264 81.840001 
L 332.2512 81.6 
L 518.4 81.6 
L 518.4 81.6 
" style="fill:none;stroke:#000000;stroke-dasharray:6.000000,6.000000;stroke-dashoffset:0.0;"/>
   </g>
   <g id="patch_3">
    <path d="M 72 43.2 
L 518.4 43.2 
" style="fill:none;stroke:#000000;stroke-linecap:square;stroke-linejoin:miter;"/>
   </g>
   <g id="patch_4">
    <path d="M 518.4 388.8 
L 518.4 43.2 
" style="fill:none;stroke:#000000;stroke-linecap:square;stroke-linejoin:miter;"/>
   </g>
   <g id="patch_5">
    <path d="M 72 388.8 
L 518.4 388.8 
" style="fill:none;stroke:#000000;stroke-linecap:square;stroke-linejoin:miter;"/>
   </g>
   <g id="patch_6">
    <path d="M 72 388.8 
L 72 43.2 
" style="fill:none;stroke:#000000;stroke-linecap:square;stroke-linejoin:miter;"/>
   </g>
   <g id="matplotlib.axis_1">
    <g id="xtick_1">
     <g id="line2d_4">
      <path clip-path="url(#paac0e3ae24)" d="M 72 388.8 
L 72 43.2 
" style="fill:none;stroke:#000000;stroke-dasharray:1.000000,3.000000;stroke-dashoffset:0.0;stroke-width:0.5;"/>
     </g>
     <g id="line2d_5">
      <defs>
       <path d="M 0 0 
L 0 -4 
" id="m2487f6ed05" style="stroke:#000000;stroke-width:0.5;"/>
      </defs>
      <g>
       <use style="stroke:#000000;stroke-width:0.5;" x="72.0" xlink:href="#m2487f6ed05" y="388.8"/>
      </g>
     </g>
     <g id="line2d_6">
      <defs>
       <path d="M 0 0 
L 0 4 
" id="ma54c33bf4c" style="stroke:#000000;stroke-width:0.5;"/>
      </defs>
      <g>
       <use style="stroke:#000000;stroke-width:0.5;" x="72.0" xlink:href="#ma54c33bf4c" y="43.2"/>
      </g>
     </g>
     <g id="text_1">
      <!-- 0 -->
      <defs>
       <path d="M 31.78125 66.40625 
Q 24.171875 66.40625 20.328125 58.90625 
Q 16.5 51.421875 16.5 36.375 
Q 16.5 21.390625 20.328125 13.890625 
Q 24.171875 6.390625 31.78125 6.390625 
Q 39.453125 6.390625 43.28125 13.890625 
Q 47.125 21.390625 47.125 36.375 
Q 47.125 51.421875 43.28125 58.90625 
Q 39.453125 66.40625 31.78125 66.40625 
M 31.78125 74.21875 
Q 44.046875 74.21875 50.515625 64.515625 
Q 56.984375 54.828125 56.984375 36.375 
Q 56.984375 17.96875 50.515625 8.265625 
Q 44.046875 -1.421875 31.78125 -1.421875 
Q 19.53125 -1.421875 13.0625 8.265625 
Q 6.59375 17.96875 6.59375 36.375 
Q 6.59375 54.828125 13.0625 64.515625 
Q 19.53125 74.21875 31.78125 74.21875 
" id="BitstreamVeraSans-Roman-30"/>
      </defs>
      <g transform="translate(68.1825 401.918125)scale(0.12 -0.12)">
       <use xlink:href="#BitstreamVeraSans-Roman-30"/>
      </g>
     </g>
    </g>
    <g id="xtick_2">
     <g id="line2d_7">
      <path clip-path="url(#paac0e3ae24)" d="M 161.28 388.8 
L 161.28 43.2 
" style="fill:none;stroke:#000000;stroke-dasharray:1.000000,3.000000;stroke-dashoffset:0.0;stroke-width:0.5;"/>
     </g>
     <g id="line2d_8">
      <g>
       <use style="stroke:#000000;stroke-width:0.5;" x="161.28" xlink:href="#m2487f6ed05" y="388.8"/>
      </g>
     </g>
     <g id="line2d_9">
      <g>
       <use style="stroke:#000000;stroke-width:0.5;" x="161.28" xlink:href="#ma54c33bf4c" y="43.2"/>
      </g>
     </g>
     <g id="text_2">
      <!-- 10 -->
      <defs>
       <path d="M 12.40625 8.296875 
L 28.515625 8.296875 
L 28.515625 63.921875 
L 10.984375 60.40625 
L 10.984375 69.390625 
L 28.421875 72.90625 
L 38.28125 72.90625 
L 38.28125 8.296875 
L 54.390625 8.296875 
L 54.390625 0 
L 12.40625 0 
z
" id="BitstreamVeraSans-Roman-31"/>
      </defs>
      <g transform="translate(153.645 401.918125)scale(0.12 -0.12)">
       <use xlink:href="#BitstreamVeraSans-Roman-31"/>
       <use x="63.623046875" xlink:href="#BitstreamVeraSans-Roman-30"/>
      </g>
     </g>
    </g>
    <g id="xtick_3">
     <g id="line2d_10">
      <path clip-path="url(#paac0e3ae24)" d="M 250.56 388.8 
L 250.56 43.2 
" style="fill:none;stroke:#000000;stroke-dasharray:1.000000,3.000000;stroke-dashoffset:0.0;stroke-width:0.5;"/>
     </g>
     <g id="line2d_11">
      <g>
       <use style="stroke:#000000;stroke-width:0.5;" x="250.56" xlink:href="#m2487f6ed05" y="388.8"/>
      </g>
     </g>
     <g id="line2d_12">
      <g>
       <use style="stroke:#000000;stroke-width:0.5;" x="250.56" xlink:href="#ma54c33bf4c" y="43.2"/>
      </g>
     </g>
     <g id="text_3">
      <!-- 20 -->
      <defs>
       <path d="M 19.1875 8.296875 
L 53.609375 8.296875 
L 53.609375 0 
L 7.328125 0 
L 7.328125 8.296875 
Q 12.9375 14.109375 22.625 23.890625 
Q 32.328125 33.6875 34.8125 36.53125 
Q 39.546875 41.84375 41.421875 45.53125 
Q 43.3125 49.21875 43.3125 52.78125 
Q 43.3125 58.59375 39.234375 62.25 
Q 35.15625 65.921875 28.609375 65.921875 
Q 23.96875 65.921875 18.8125 64.3125 
Q 13.671875 62.703125 7.8125 59.421875 
L 7.8125 69.390625 
Q 13.765625 71.78125 18.9375 73 
Q 24.125 74.21875 28.421875 74.21875 
Q 39.75 74.21875 46.484375 68.546875 
Q 53.21875 62.890625 53.21875 53.421875 
Q 53.21875 48.921875 51.53125 44.890625 
Q 49.859375 40.875 45.40625 35.40625 
Q 44.1875 33.984375 37.640625 27.21875 
Q 31.109375 20.453125 19.1875 8.296875 
" id="BitstreamVeraSans-Roman-32"/>
      </defs>
      <g transform="translate(242.925 401.918125)scale(0.12 -0.12)">
       <use xlink:href="#BitstreamVeraSans-Roman-32"/>
       <use x="63.623046875" xlink:href="#BitstreamVeraSans-Roman-30"/>
      </g>
     </g>
    </g>
    <g id="xtick_4">
     <g id="line2d_13">
      <path clip-path="url(#paac0e3ae24)" d="M 339.84 388.8 
L 339.84 43.2 
" style="fill:none;stroke:#000000;stroke-dasharray:1.000000,3.000000;stroke-dashoffset:0.0;stroke-width:0.5;"/>
     </g>
     <g id="line2d_14">
      <g>
       <use style="stroke:#000000;stroke-width:0.5;" x="339.84" xlink:href="#m2487f6ed05" y="388.8"/>
      </g>
     </g>
     <g id="line2d_15">
      <g>
       <use style="stroke:#000000;stroke-width:0.5;" x="339.84" xlink:href="#ma54c33bf4c" y="43.2"/>
      </g>
     </g>
     <g id="text_4">
      <!-- 30 -->
      <defs>
       <path d="M 40.578125 39.3125 
Q 47.65625 37.796875 51.625 33 
Q 55.609375 28.21875 55.609375 21.1875 
Q 55.609375 10.40625 48.1875 4.484375 
Q 40.765625 -1.421875 27.09375 -1.421875 
Q 22.515625 -1.421875 17.65625 -0.515625 
Q 12.796875 0.390625 7.625 2.203125 
L 7.625 11.71875 
Q 11.71875 9.328125 16.59375 8.109375 
Q 21.484375 6.890625 26.8125 6.890625 
Q 36.078125 6.890625 40.9375 10.546875 
Q 45.796875 14.203125 45.796875 21.1875 
Q 45.796875 27.640625 41.28125 31.265625 
Q 36.765625 34.90625 28.71875 34.90625 
L 20.21875 34.90625 
L 20.21875 43.015625 
L 29.109375 43.015625 
Q 36.375 43.015625 40.234375 45.921875 
Q 44.09375 48.828125 44.09375 54.296875 
Q 44.09375 59.90625 40.109375 62.90625 
Q 36.140625 65.921875 28.71875 65.921875 
Q 24.65625 65.921875 20.015625 65.03125 
Q 15.375 64.15625 9.8125 62.3125 
L 9.8125 71.09375 
Q 15.4375 72.65625 20.34375 73.4375 
Q 25.25 74.21875 29.59375 74.21875 
Q 40.828125 74.21875 47.359375 69.109375 
Q 53.90625 64.015625 53.90625 55.328125 
Q 53.90625 49.265625 50.4375 45.09375 
Q 46.96875 40.921875 40.578125 39.3125 
" id="BitstreamVeraSans-Roman-33"/>
      </defs>
      <g transform="translate(332.205 401.918125)scale(0.12 -0.12)">
       <use xlink:href="#BitstreamVeraSans-Roman-33"/>
       <use x="63.623046875" xlink:href="#BitstreamVeraSans-Roman-30"/>
      </g>
     </g>
    </g>
    <g id="xtick_5">
     <g id="line2d_16">
      <path clip-path="url(#paac0e3ae24)" d="M 429.12 388.8 
L 429.12 43.2 
" style="fill:none;stroke:#000000;stroke-dasharray:1.000000,3.000000;stroke-dashoffset:0.0;stroke-width:0.5;"/>
     </g>
     <g id="line2d_17">
      <g>
       <use style="stroke:#000000;stroke-width:0.5;" x="429.12" xlink:href="#m2487f6ed05" y="388.8"/>
      </g>
     </g>
     <g id="line2d_18">
      <g>
       <use style="stroke:#000000;stroke-width:0.5;" x="429.12" xlink:href="#ma54c33bf4c" y="43.2"/>
      </g>
     </g>
     <g id="text_5">
      <!-- 40 -->
      <defs>
       <path d="M 37.796875 64.3125 
L 12.890625 25.390625 
L 37.796875 25.390625 
z
M 35.203125 72.90625 
L 47.609375 72.90625 
L 47.609375 25.390625 
L 58.015625 25.390625 
L 58.015625 17.1875 
L 47.609375 17.1875 
L 47.609375 0 
L 37.796875 0 
L 37.796875 17.1875 
L 4.890625 17.1875 
L 4.890625 26.703125 
z
" id="BitstreamVeraSans-Roman-34"/>
      </defs>
      <g transform="translate(421.485 401.918125)scale(0.12 -0.12)">
       <use xlink:href="#BitstreamVeraSans-Roman-34"/>
       <use x="63.623046875" xlink:href="#BitstreamVeraSans-Roman-30"/>
      </g>
     </g>
    </g>
    <g id="xtick_6">
     <g id="line2d_19">
      <path clip-path="url(#paac0e3ae24)" d="M 518.4 388.8 
L 518.4 43.2 
" style="fill:none;stroke:#000000;stroke-dasharray:1.000000,3.000000;stroke-dashoffset:0.0;stroke-width:0.5;"/>
     </g>
     <g id="line2d_20">
      <g>
       <use style="stroke:#000000;stroke-width:0.5;" x="518.4" xlink:href="#m2487f6ed05" y="388.8"/>
      </g>
     </g>
     <g id="line2d_21">
      <g>
       <use style="stroke:#000000;stroke-width:0.5;" x="518.4" xlink:href="#ma54c33bf4c" y="43.2"/>
      </g>
     </g>
     <g id="text_6">
      <!-- 50 -->
      <defs>
       <path d="M 10.796875 72.90625 
L 49.515625 72.90625 
L 49.515625 64.59375 
L 19.828125 64.59375 
L 19.828125 46.734375 
Q 21.96875 47.46875 24.109375 47.828125 
Q 26.265625 48.1875 28.421875 48.1875 
Q 40.625 48.1875 47.75 41.5 
Q 54.890625 34.8125 54.890625 23.390625 
Q 54.890625 11.625 47.5625 5.09375 
Q 40.234375 -1.421875 26.90625 -1.421875 
Q 22.3125 -1.421875 17.546875 -0.640625 
Q 12.796875 0.140625 7.71875 1.703125 
L 7.71875 11.625 
Q 12.109375 9.234375 16.796875 8.0625 
Q 21.484375 6.890625 26.703125 6.890625 
Q 35.15625 6.890625 40.078125 11.328125 
Q 45.015625 15.765625 45.015625 23.390625 
Q 45.015625 31 40.078125 35.4375 
Q 35.15625 39.890625 26.703125 39.890625 
Q 22.75 39.890625 18.8125 39.015625 
Q 14.890625 38.140625 10.796875 36.28125 
z
" id="BitstreamVeraSans-Roman-35"/>
      </defs>
      <g transform="translate(510.765 401.918125)scale(0.12 -0.12)">
       <use xlink:href="#BitstreamVeraSans-Roman-35"/>
       <use x="63.623046875" xlink:href="#BitstreamVeraSans-Roman-30"/>
      </g>
     </g>
    </g>
    <g id="text_7">
     <!-- Time [s] -->
     <defs>
      <path id="BitstreamVeraSans-Roman-20"/>
      <path d="M 8.59375 75.984375 
L 29.296875 75.984375 
L 29.296875 69 
L 17.578125 69 
L 17.578125 -6.203125 
L 29.296875 -6.203125 
L 29.296875 -13.1875 
L 8.59375 -13.1875 
z
" id="BitstreamVeraSans-Roman-5b"/>
      <path d="M 30.421875 75.984375 
L 30.421875 -13.1875 
L 9.71875 -13.1875 
L 9.71875 -6.203125 
L 21.390625 -6.203125 
L 21.390625 69 
L 9.71875 69 
L 9.71875 75.984375 
z
" id="BitstreamVeraSans-Roman-5d"/>
      <path d="M 52 44.1875 
Q 55.375 50.25 60.0625 53.125 
Q 64.75 56 71.09375 56 
Q 79.640625 56 84.28125 50.015625 
Q 88.921875 44.046875 88.921875 33.015625 
L 88.921875 0 
L 79.890625 0 
L 79.890625 32.71875 
Q 79.890625 40.578125 77.09375 44.375 
Q 74.3125 48.1875 68.609375 48.1875 
Q 61.625 48.1875 57.5625 43.546875 
Q 53.515625 38.921875 53.515625 30.90625 
L 53.515625 0 
L 44.484375 0 
L 44.484375 32.71875 
Q 44.484375 40.625 41.703125 44.40625 
Q 38.921875 48.1875 33.109375 48.1875 
Q 26.21875 48.1875 22.15625 43.53125 
Q 18.109375 38.875 18.109375 30.90625 
L 18.109375 0 
L 9.078125 0 
L 9.078125 54.6875 
L 18.109375 54.6875 
L 18.109375 46.1875 
Q 21.1875 51.21875 25.484375 53.609375 
Q 29.78125 56 35.6875 56 
Q 41.65625 56 45.828125 52.96875 
Q 50 49.953125 52 44.1875 
" id="BitstreamVeraSans-Roman-6d"/>
      <path d="M 9.421875 54.6875 
L 18.40625 54.6875 
L 18.40625 0 
L 9.421875 0 
z
M 9.421875 75.984375 
L 18.40625 75.984375 
L 18.40625 64.59375 
L 9.421875 64.59375 
z
" id="BitstreamVeraSans-Roman-69"/>
      <path d="M 56.203125 29.59375 
L 56.203125 25.203125 
L 14.890625 25.203125 
Q 15.484375 15.921875 20.484375 11.0625 
Q 25.484375 6.203125 34.421875 6.203125 
Q 39.59375 6.203125 44.453125 7.46875 
Q 49.3125 8.734375 54.109375 11.28125 
L 54.109375 2.78125 
Q 49.265625 0.734375 44.1875 -0.34375 
Q 39.109375 -1.421875 33.890625 -1.421875 
Q 20.796875 -1.421875 13.15625 6.1875 
Q 5.515625 13.8125 5.515625 26.8125 
Q 5.515625 40.234375 12.765625 48.109375 
Q 20.015625 56 32.328125 56 
Q 43.359375 56 49.78125 48.890625 
Q 56.203125 41.796875 56.203125 29.59375 
M 47.21875 32.234375 
Q 47.125 39.59375 43.09375 43.984375 
Q 39.0625 48.390625 32.421875 48.390625 
Q 24.90625 48.390625 20.390625 44.140625 
Q 15.875 39.890625 15.1875 32.171875 
z
" id="BitstreamVeraSans-Roman-65"/>
      <path d="M -0.296875 72.90625 
L 61.375 72.90625 
L 61.375 64.59375 
L 35.5 64.59375 
L 35.5 0 
L 25.59375 0 
L 25.59375 64.59375 
L -0.296875 64.59375 
z
" id="BitstreamVeraSans-Roman-54"/>
      <path d="M 44.28125 53.078125 
L 44.28125 44.578125 
Q 40.484375 46.53125 36.375 47.5 
Q 32.28125 48.484375 27.875 48.484375 
Q 21.1875 48.484375 17.84375 46.4375 
Q 14.5 44.390625 14.5 40.28125 
Q 14.5 37.15625 16.890625 35.375 
Q 19.28125 33.59375 26.515625 31.984375 
L 29.59375 31.296875 
Q 39.15625 29.25 43.1875 25.515625 
Q 47.21875 21.78125 47.21875 15.09375 
Q 47.21875 7.46875 41.1875 3.015625 
Q 35.15625 -1.421875 24.609375 -1.421875 
Q 20.21875 -1.421875 15.453125 -0.5625 
Q 10.6875 0.296875 5.421875 2 
L 5.421875 11.28125 
Q 10.40625 8.6875 15.234375 7.390625 
Q 20.0625 6.109375 24.8125 6.109375 
Q 31.15625 6.109375 34.5625 8.28125 
Q 37.984375 10.453125 37.984375 14.40625 
Q 37.984375 18.0625 35.515625 20.015625 
Q 33.0625 21.96875 24.703125 23.78125 
L 21.578125 24.515625 
Q 13.234375 26.265625 9.515625 29.90625 
Q 5.8125 33.546875 5.8125 39.890625 
Q 5.8125 47.609375 11.28125 51.796875 
Q 16.75 56 26.8125 56 
Q 31.78125 56 36.171875 55.265625 
Q 40.578125 54.546875 44.28125 53.078125 
" id="BitstreamVeraSans-Roman-73"/>
     </defs>
     <g transform="translate(270.620625 418.531875)scale(0.12 -0.12)">
      <use xlink:href="#BitstreamVeraSans-Roman-54"/>
      <use x="61.037109375" xlink:href="#BitstreamVeraSans-Roman-69"/>
      <use x="88.8203125" xlink:href="#BitstreamVeraSans-Roman-6d"/>
      <use x="186.232421875" xlink:href="#BitstreamVeraSans-Roman-65"/>
      <use x="247.755859375" xlink:href="#BitstreamVeraSans-Roman-20"/>
      <use x="279.54296875" xlink:href="#BitstreamVeraSans-Roman-5b"/>
      <use x="318.556640625" xlink:href="#BitstreamVeraSans-Roman-73"/>
      <use x="370.65625" xlink:href="#BitstreamVeraSans-Roman-5d"/>
     </g>
    </g>
   </g>
   <g id="matplotlib.axis_2">
    <g id="ytick_1">
     <g id="line2d_22">
      <path clip-path="url(#paac0e3ae24)" d="M 72 388.8 
L 518.4 388.8 
" style="fill:none;stroke:#000000;stroke-dasharray:1.000000,3.000000;stroke-dashoffset:0.0;stroke-width:0.5;"/>
     </g>
     <g id="line2d_23">
      <defs>
       <path d="M 0 0 
L 4 0 
" id="m4e4f88d5d3" style="stroke:#000000;stroke-width:0.5;"/>
      </defs>
      <g>
       <use style="stroke:#000000;stroke-width:0.5;" x="72.0" xlink:href="#m4e4f88d5d3" y="388.8"/>
      </g>
     </g>
     <g id="line2d_24">
      <defs>
       <path d="M 0 0 
L -4 0 
" id="m02387a55cd" style="stroke:#000000;stroke-width:0.5;"/>
      </defs>
      <g>
       <use style="stroke:#000000;stroke-width:0.5;" x="518.4" xlink:href="#m02387a55cd" y="388.8"/>
      </g>
     </g>
     <g id="text_8">
      <!-- −3.0 -->
      <defs>
       <path d="M 10.59375 35.5 
L 73.1875 35.5 
L 73.1875 27.203125 
L 10.59375 27.203125 
z
" id="BitstreamVeraSans-Roman-2212"/>
       <path d="M 10.6875 12.40625 
L 21 12.40625 
L 21 0 
L 10.6875 0 
z
" id="BitstreamVeraSans-Roman-2e"/>
      </defs>
      <g transform="translate(38.860625 392.11125)scale(0.12 -0.12)">
       <use xlink:href="#BitstreamVeraSans-Roman-2212"/>
       <use x="83.7890625" xlink:href="#BitstreamVeraSans-Roman-33"/>
       <use x="147.412109375" xlink:href="#BitstreamVeraSans-Roman-2e"/>
       <use x="179.19921875" xlink:href="#BitstreamVeraSans-Roman-30"/>
      </g>
     </g>
    </g>
    <g id="ytick_2">
     <g id="line2d_25">
      <path clip-path="url(#paac0e3ae24)" d="M 72 350.4 
L 518.4 350.4 
" style="fill:none;stroke:#000000;stroke-dasharray:1.000000,3.000000;stroke-dashoffset:0.0;stroke-width:0.5;"/>
     </g>
     <g id="line2d_26">
      <g>
       <use style="stroke:#000000;stroke-width:0.5;" x="72.0" xlink:href="#m4e4f88d5d3" y="350.4"/>
      </g>
     </g>
     <g id="line2d_27">
      <g>
       <use style="stroke:#000000;stroke-width:0.5;" x="518.4" xlink:href="#m02387a55cd" y="350.4"/>
      </g>
     </g>
     <g id="text_9">
      <!-- −2.5 -->
      <g transform="translate(38.860625 353.71125)scale(0.12 -0.12)">
       <use xlink:href="#BitstreamVeraSans-Roman-2212"/>
       <use x="83.7890625" xlink:href="#BitstreamVeraSans-Roman-32"/>
       <use x="147.412109375" xlink:href="#BitstreamVeraSans-Roman-2e"/>
       <use x="179.19921875" xlink:href="#BitstreamVeraSans-Roman-35"/>
      </g>
     </g>
    </g>
    <g id="ytick_3">
     <g id="line2d_28">
      <path clip-path="url(#paac0e3ae24)" d="M 72 312 
L 518.4 312 
" style="fill:none;stroke:#000000;stroke-dasharray:1.000000,3.000000;stroke-dashoffset:0.0;stroke-width:0.5;"/>
     </g>
     <g id="line2d_29">
      <g>
       <use style="stroke:#000000;stroke-width:0.5;" x="72.0" xlink:href="#m4e4f88d5d3" y="312.0"/>
      </g>
     </g>
     <g id="line2d_30">
      <g>
       <use style="stroke:#000000;stroke-width:0.5;" x="518.4" xlink:href="#m02387a55cd" y="312.0"/>
      </g>
     </g>
     <g id="text_10">
      <!-- −2.0 -->
      <g transform="translate(38.860625 315.31125)scale(0.12 -0.12)">
       <use xlink:href="#BitstreamVeraSans-Roman-2212"/>
       <use x="83.7890625" xlink:href="#BitstreamVeraSans-Roman-32"/>
       <use x="147.412109375" xlink:href="#BitstreamVeraSans-Roman-2e"/>
       <use x="179.19921875" xlink:href="#BitstreamVeraSans-Roman-30"/>
      </g>
     </g>
    </g>
    <g id="ytick_4">
     <g id="line2d_31">
      <path clip-path="url(#paac0e3ae24)" d="M 72 273.6 
L 518.4 273.6 
" style="fill:none;stroke:#000000;stroke-dasharray:1.000000,3.000000;stroke-dashoffset:0.0;stroke-width:0.5;"/>
     </g>
     <g id="line2d_32">
      <g>
       <use style="stroke:#000000;stroke-width:0.5;" x="72.0" xlink:href="#m4e4f88d5d3" y="273.6"/>
      </g>
     </g>
     <g id="line2d_33">
      <g>
       <use style="stroke:#000000;stroke-width:0.5;" x="518.4" xlink:href="#m02387a55cd" y="273.6"/>
      </g>
     </g>
     <g id="text_11">
      <!-- −1.5 -->
      <g transform="translate(38.860625 276.91125)scale(0.12 -0.12)">
       <use xlink:href="#BitstreamVeraSans-Roman-2212"/>
       <use x="83.7890625" xlink:href="#BitstreamVeraSans-Roman-31"/>
       <use x="147.412109375" xlink:href="#BitstreamVeraSans-Roman-2e"/>
       <use x="179.19921875" xlink:href="#BitstreamVeraSans-Roman-35"/>
      </g>
     </g>
    </g>
    <g id="ytick_5">
     <g id="line2d_34">
      <path clip-path="url(#paac0e3ae24)" d="M 72 235.2 
L 518.4 235.2 
" style="fill:none;stroke:#000000;stroke-dasharray:1.000000,3.000000;stroke-dashoffset:0.0;stroke-width:0.5;"/>
     </g>
     <g id="line2d_35">
      <g>
       <use style="stroke:#000000;stroke-width:0.5;" x="72.0" xlink:href="#m4e4f88d5d3" y="235.2"/>
      </g>
     </g>
     <g id="line2d_36">
      <g>
       <use style="stroke:#000000;stroke-width:0.5;" x="518.4" xlink:href="#m02387a55cd" y="235.2"/>
      </g>
     </g>
     <g id="text_12">
      <!-- −1.0 -->
      <g transform="translate(38.860625 238.51125)scale(0.12 -0.12)">
       <use xlink:href="#BitstreamVeraSans-Roman-2212"/>
       <use x="83.7890625" xlink:href="#BitstreamVeraSans-Roman-31"/>
       <use x="147.412109375" xlink:href="#BitstreamVeraSans-Roman-2e"/>
       <use x="179.19921875" xlink:href="#BitstreamVeraSans-Roman-30"/>
      </g>
     </g>
    </g>
    <g id="ytick_6">
     <g id="line2d_37">
      <path clip-path="url(#paac0e3ae24)" d="M 72 196.8 
L 518.4 196.8 
" style="fill:none;stroke:#000000;stroke-dasharray:1.000000,3.000000;stroke-dashoffset:0.0;stroke-width:0.5;"/>
     </g>
     <g id="line2d_38">
      <g>
       <use style="stroke:#000000;stroke-width:0.5;" x="72.0" xlink:href="#m4e4f88d5d3" y="196.8"/>
      </g>
     </g>
     <g id="line2d_39">
      <g>
       <use style="stroke:#000000;stroke-width:0.5;" x="518.4" xlink:href="#m02387a55cd" y="196.8"/>
      </g>
     </g>
     <g id="text_13">
      <!-- −0.5 -->
      <g transform="translate(38.860625 200.11125)scale(0.12 -0.12)">
       <use xlink:href="#BitstreamVeraSans-Roman-2212"/>
       <use x="83.7890625" xlink:href="#BitstreamVeraSans-Roman-30"/>
       <use x="147.412109375" xlink:href="#BitstreamVeraSans-Roman-2e"/>
       <use x="179.19921875" xlink:href="#BitstreamVeraSans-Roman-35"/>
      </g>
     </g>
    </g>
    <g id="ytick_7">
     <g id="line2d_40">
      <path clip-path="url(#paac0e3ae24)" d="M 72 158.4 
L 518.4 158.4 
" style="fill:none;stroke:#000000;stroke-dasharray:1.000000,3.000000;stroke-dashoffset:0.0;stroke-width:0.5;"/>
     </g>
     <g id="line2d_41">
      <g>
       <use style="stroke:#000000;stroke-width:0.5;" x="72.0" xlink:href="#m4e4f88d5d3" y="158.4"/>
      </g>
     </g>
     <g id="line2d_42">
      <g>
       <use style="stroke:#000000;stroke-width:0.5;" x="518.4" xlink:href="#m02387a55cd" y="158.4"/>
      </g>
     </g>
     <g id="text_14">
      <!-- 0.0 -->
      <g transform="translate(48.91625 161.71125)scale(0.12 -0.12)">
       <use xlink:href="#BitstreamVeraSans-Roman-30"/>
       <use x="63.623046875" xlink:href="#BitstreamVeraSans-Roman-2e"/>
       <use x="95.41015625" xlink:href="#BitstreamVeraSans-Roman-30"/>
      </g>
     </g>
    </g>
    <g id="ytick_8">
     <g id="line2d_43">
      <path clip-path="url(#paac0e3ae24)" d="M 72 120 
L 518.4 120 
" style="fill:none;stroke:#000000;stroke-dasharray:1.000000,3.000000;stroke-dashoffset:0.0;stroke-width:0.5;"/>
     </g>
     <g id="line2d_44">
      <g>
       <use style="stroke:#000000;stroke-width:0.5;" x="72.0" xlink:href="#m4e4f88d5d3" y="120.0"/>
      </g>
     </g>
     <g id="line2d_45">
      <g>
       <use style="stroke:#000000;stroke-width:0.5;" x="518.4" xlink:href="#m02387a55cd" y="120.0"/>
      </g>
     </g>
     <g id="text_15">
      <!-- 0.5 -->
      <g transform="translate(48.91625 123.31125)scale(0.12 -0.12)">
       <use xlink:href="#BitstreamVeraSans-Roman-30"/>
       <use x="63.623046875" xlink:href="#BitstreamVeraSans-Roman-2e"/>
       <use x="95.41015625" xlink:href="#BitstreamVeraSans-Roman-35"/>
      </g>
     </g>
    </g>
    <g id="ytick_9">
     <g id="line2d_46">
      <path clip-path="url(#paac0e3ae24)" d="M 72 81.6 
L 518.4 81.6 
" style="fill:none;stroke:#000000;stroke-dasharray:1.000000,3.000000;stroke-dashoffset:0.0;stroke-width:0.5;"/>
     </g>
     <g id="line2d_47">
      <g>
       <use style="stroke:#000000;stroke-width:0.5;" x="72.0" xlink:href="#m4e4f88d5d3" y="81.6"/>
      </g>
     </g>
     <g id="line2d_48">
      <g>
       <use style="stroke:#000000;stroke-width:0.5;" x="518.4" xlink:href="#m02387a55cd" y="81.6"/>
      </g>
     </g>
     <g id="text_16">
      <!-- 1.0 -->
      <g transform="translate(48.91625 84.91125)scale(0.12 -0.12)">
       <use xlink:href="#BitstreamVeraSans-Roman-31"/>
       <use x="63.623046875" xlink:href="#BitstreamVeraSans-Roman-2e"/>
       <use x="95.41015625" xlink:href="#BitstreamVeraSans-Roman-30"/>
      </g>
     </g>
    </g>
    <g id="ytick_10">
     <g id="line2d_49">
      <path clip-path="url(#paac0e3ae24)" d="M 72 43.2 
L 518.4 43.2 
" style="fill:none;stroke:#000000;stroke-dasharray:1.000000,3.000000;stroke-dashoffset:0.0;stroke-width:0.5;"/>
     </g>
     <g id="line2d_50">
      <g>
       <use style="stroke:#000000;stroke-width:0.5;" x="72.0" xlink:href="#m4e4f88d5d3" y="43.2"/>
      </g>
     </g>
     <g id="line2d_51">
      <g>
       <use style="stroke:#000000;stroke-width:0.5;" x="518.4" xlink:href="#m02387a55cd" y="43.2"/>
      </g>
     </g>
     <g id="text_17">
      <!-- 1.5 -->
      <g transform="translate(48.91625 46.51125)scale(0.12 -0.12)">
       <use xlink:href="#BitstreamVeraSans-Roman-31"/>
       <use x="63.623046875" xlink:href="#BitstreamVeraSans-Roman-2e"/>
       <use x="95.41015625" xlink:href="#BitstreamVeraSans-Roman-35"/>
      </g>
     </g>
    </g>
    <g id="text_18">
     <!-- Acceleration [m/s^2] -->
     <defs>
      <path d="M 46.6875 72.90625 
L 73.1875 45.703125 
L 63.375 45.703125 
L 41.890625 64.984375 
L 20.40625 45.703125 
L 10.59375 45.703125 
L 37.109375 72.90625 
z
" id="BitstreamVeraSans-Roman-5e"/>
      <path d="M 54.890625 33.015625 
L 54.890625 0 
L 45.90625 0 
L 45.90625 32.71875 
Q 45.90625 40.484375 42.875 44.328125 
Q 39.84375 48.1875 33.796875 48.1875 
Q 26.515625 48.1875 22.3125 43.546875 
Q 18.109375 38.921875 18.109375 30.90625 
L 18.109375 0 
L 9.078125 0 
L 9.078125 54.6875 
L 18.109375 54.6875 
L 18.109375 46.1875 
Q 21.34375 51.125 25.703125 53.5625 
Q 30.078125 56 35.796875 56 
Q 45.21875 56 50.046875 50.171875 
Q 54.890625 44.34375 54.890625 33.015625 
" id="BitstreamVeraSans-Roman-6e"/>
      <path d="M 41.109375 46.296875 
Q 39.59375 47.171875 37.8125 47.578125 
Q 36.03125 48 33.890625 48 
Q 26.265625 48 22.1875 43.046875 
Q 18.109375 38.09375 18.109375 28.8125 
L 18.109375 0 
L 9.078125 0 
L 9.078125 54.6875 
L 18.109375 54.6875 
L 18.109375 46.1875 
Q 20.953125 51.171875 25.484375 53.578125 
Q 30.03125 56 36.53125 56 
Q 37.453125 56 38.578125 55.875 
Q 39.703125 55.765625 41.0625 55.515625 
z
" id="BitstreamVeraSans-Roman-72"/>
      <path d="M 30.609375 48.390625 
Q 23.390625 48.390625 19.1875 42.75 
Q 14.984375 37.109375 14.984375 27.296875 
Q 14.984375 17.484375 19.15625 11.84375 
Q 23.34375 6.203125 30.609375 6.203125 
Q 37.796875 6.203125 41.984375 11.859375 
Q 46.1875 17.53125 46.1875 27.296875 
Q 46.1875 37.015625 41.984375 42.703125 
Q 37.796875 48.390625 30.609375 48.390625 
M 30.609375 56 
Q 42.328125 56 49.015625 48.375 
Q 55.71875 40.765625 55.71875 27.296875 
Q 55.71875 13.875 49.015625 6.21875 
Q 42.328125 -1.421875 30.609375 -1.421875 
Q 18.84375 -1.421875 12.171875 6.21875 
Q 5.515625 13.875 5.515625 27.296875 
Q 5.515625 40.765625 12.171875 48.375 
Q 18.84375 56 30.609375 56 
" id="BitstreamVeraSans-Roman-6f"/>
      <path d="M 9.421875 75.984375 
L 18.40625 75.984375 
L 18.40625 0 
L 9.421875 0 
z
" id="BitstreamVeraSans-Roman-6c"/>
      <path d="M 34.1875 63.1875 
L 20.796875 26.90625 
L 47.609375 26.90625 
z
M 28.609375 72.90625 
L 39.796875 72.90625 
L 67.578125 0 
L 57.328125 0 
L 50.6875 18.703125 
L 17.828125 18.703125 
L 11.1875 0 
L 0.78125 0 
z
" id="BitstreamVeraSans-Roman-41"/>
      <path d="M 25.390625 72.90625 
L 33.6875 72.90625 
L 8.296875 -9.28125 
L 0 -9.28125 
z
" id="BitstreamVeraSans-Roman-2f"/>
      <path d="M 18.3125 70.21875 
L 18.3125 54.6875 
L 36.8125 54.6875 
L 36.8125 47.703125 
L 18.3125 47.703125 
L 18.3125 18.015625 
Q 18.3125 11.328125 20.140625 9.421875 
Q 21.96875 7.515625 27.59375 7.515625 
L 36.8125 7.515625 
L 36.8125 0 
L 27.59375 0 
Q 17.1875 0 13.234375 3.875 
Q 9.28125 7.765625 9.28125 18.015625 
L 9.28125 47.703125 
L 2.6875 47.703125 
L 2.6875 54.6875 
L 9.28125 54.6875 
L 9.28125 70.21875 
z
" id="BitstreamVeraSans-Roman-74"/>
      <path d="M 34.28125 27.484375 
Q 23.390625 27.484375 19.1875 25 
Q 14.984375 22.515625 14.984375 16.5 
Q 14.984375 11.71875 18.140625 8.90625 
Q 21.296875 6.109375 26.703125 6.109375 
Q 34.1875 6.109375 38.703125 11.40625 
Q 43.21875 16.703125 43.21875 25.484375 
L 43.21875 27.484375 
z
M 52.203125 31.203125 
L 52.203125 0 
L 43.21875 0 
L 43.21875 8.296875 
Q 40.140625 3.328125 35.546875 0.953125 
Q 30.953125 -1.421875 24.3125 -1.421875 
Q 15.921875 -1.421875 10.953125 3.296875 
Q 6 8.015625 6 15.921875 
Q 6 25.140625 12.171875 29.828125 
Q 18.359375 34.515625 30.609375 34.515625 
L 43.21875 34.515625 
L 43.21875 35.40625 
Q 43.21875 41.609375 39.140625 45 
Q 35.0625 48.390625 27.6875 48.390625 
Q 23 48.390625 18.546875 47.265625 
Q 14.109375 46.140625 10.015625 43.890625 
L 10.015625 52.203125 
Q 14.9375 54.109375 19.578125 55.046875 
Q 24.21875 56 28.609375 56 
Q 40.484375 56 46.34375 49.84375 
Q 52.203125 43.703125 52.203125 31.203125 
" id="BitstreamVeraSans-Roman-61"/>
      <path d="M 48.78125 52.59375 
L 48.78125 44.1875 
Q 44.96875 46.296875 41.140625 47.34375 
Q 37.3125 48.390625 33.40625 48.390625 
Q 24.65625 48.390625 19.8125 42.84375 
Q 14.984375 37.3125 14.984375 27.296875 
Q 14.984375 17.28125 19.8125 11.734375 
Q 24.65625 6.203125 33.40625 6.203125 
Q 37.3125 6.203125 41.140625 7.25 
Q 44.96875 8.296875 48.78125 10.40625 
L 48.78125 2.09375 
Q 45.015625 0.34375 40.984375 -0.53125 
Q 36.96875 -1.421875 32.421875 -1.421875 
Q 20.0625 -1.421875 12.78125 6.34375 
Q 5.515625 14.109375 5.515625 27.296875 
Q 5.515625 40.671875 12.859375 48.328125 
Q 20.21875 56 33.015625 56 
Q 37.15625 56 41.109375 55.140625 
Q 45.0625 54.296875 48.78125 52.59375 
" id="BitstreamVeraSans-Roman-63"/>
     </defs>
     <g transform="translate(31.365 279.81375)rotate(-90.0)scale(0.12 -0.12)">
      <use xlink:href="#BitstreamVeraSans-Roman-41"/>
      <use x="68.392578125" xlink:href="#BitstreamVeraSans-Roman-63"/>
      <use x="123.373046875" xlink:href="#BitstreamVeraSans-Roman-63"/>
      <use x="178.353515625" xlink:href="#BitstreamVeraSans-Roman-65"/>
      <use x="239.876953125" xlink:href="#BitstreamVeraSans-Roman-6c"/>
      <use x="267.66015625" xlink:href="#BitstreamVeraSans-Roman-65"/>
      <use x="329.18359375" xlink:href="#BitstreamVeraSans-Roman-72"/>
      <use x="370.296875" xlink:href="#BitstreamVeraSans-Roman-61"/>
      <use x="431.576171875" xlink:href="#BitstreamVeraSans-Roman-74"/>
      <use x="470.78515625" xlink:href="#BitstreamVeraSans-Roman-69"/>
      <use x="498.568359375" xlink:href="#BitstreamVeraSans-Roman-6f"/>
      <use x="559.75" xlink:href="#BitstreamVeraSans-Roman-6e"/>
      <use x="623.12890625" xlink:href="#BitstreamVeraSans-Roman-20"/>
      <use x="654.916015625" xlink:href="#BitstreamVeraSans-Roman-5b"/>
      <use x="693.9296875" xlink:href="#BitstreamVeraSans-Roman-6d"/>
      <use x="791.341796875" xlink:href="#BitstreamVeraSans-Roman-2f"/>
      <use x="825.033203125" xlink:href="#BitstreamVeraSans-Roman-73"/>
      <use x="877.1328125" xlink:href="#BitstreamVeraSans-Roman-5e"/>
      <use x="960.921875" xlink:href="#BitstreamVeraSans-Roman-32"/>
      <use x="1024.54492188" xlink:href="#BitstreamVeraSans-Roman-5d"/>
     </g>
    </g>
   </g>
   <g id="legend_1">
    <g id="patch_7">
     <path d="M 421.839 381.6 
L 511.2 381.6 
L 511.2 313.8705 
L 421.839 313.8705 
z
" style="fill:#ffffff;stroke:#000000;stroke-linejoin:miter;"/>
    </g>
    <g id="line2d_52">
     <path d="M 431.919 325.53225 
L 452.079 325.53225 
" style="fill:none;stroke:#008000;stroke-linecap:square;"/>
    </g>
    <g id="line2d_53"/>
    <g id="text_19">
     <!-- accel -->
     <g transform="translate(467.919 330.57225)scale(0.144 -0.144)">
      <use xlink:href="#BitstreamVeraSans-Roman-61"/>
      <use x="61.279296875" xlink:href="#BitstreamVeraSans-Roman-63"/>
      <use x="116.259765625" xlink:href="#BitstreamVeraSans-Roman-63"/>
      <use x="171.240234375" xlink:href="#BitstreamVeraSans-Roman-65"/>
      <use x="232.763671875" xlink:href="#BitstreamVeraSans-Roman-6c"/>
     </g>
    </g>
    <g id="line2d_54">
     <path d="M 431.919 346.66875 
L 452.079 346.66875 
" style="fill:none;stroke:#000000;stroke-dasharray:6.000000,6.000000;stroke-dashoffset:0.0;"/>
    </g>
    <g id="line2d_55"/>
    <g id="text_20">
     <!-- max -->
     <defs>
      <path d="M 54.890625 54.6875 
L 35.109375 28.078125 
L 55.90625 0 
L 45.3125 0 
L 29.390625 21.484375 
L 13.484375 0 
L 2.875 0 
L 24.125 28.609375 
L 4.6875 54.6875 
L 15.28125 54.6875 
L 29.78125 35.203125 
L 44.28125 54.6875 
z
" id="BitstreamVeraSans-Roman-78"/>
     </defs>
     <g transform="translate(467.919 351.70875)scale(0.144 -0.144)">
      <use xlink:href="#BitstreamVeraSans-Roman-6d"/>
      <use x="97.412109375" xlink:href="#BitstreamVeraSans-Roman-61"/>
      <use x="158.69140625" xlink:href="#BitstreamVeraSans-Roman-78"/>
     </g>
    </g>
    <g id="line2d_56">
     <path d="M 431.919 367.80525 
L 452.079 367.80525 
" style="fill:none;stroke:#000000;stroke-dasharray:6.000000,6.000000;stroke-dashoffset:0.0;"/>
    </g>
    <g id="line2d_57"/>
    <g id="text_21">
     <!-- min -->
     <g transform="translate(467.919 372.84525)scale(0.144 -0.144)">
      <use xlink:href="#BitstreamVeraSans-Roman-6d"/>
      <use x="97.412109375" xlink:href="#BitstreamVeraSans-Roman-69"/>
      <use x="125.1953125" xlink:href="#BitstreamVeraSans-Roman-6e"/>
     </g>
    </g>
   </g>
  </g>
 </g>
 <defs>
  <clipPath id="paac0e3ae24">
   <rect height="345.6" width="446.4" x="72.0" y="43.2"/>
  </clipPath>
 </defs>
</svg>
