<?xml version="1.0" encoding="utf-8" standalone="no"?>
<!DOCTYPE svg PUBLIC "-//W3C//DTD SVG 1.1//EN"
  "http://www.w3.org/Graphics/SVG/1.1/DTD/svg11.dtd">
<!-- Created with matplotlib (http://matplotlib.org/) -->
<svg height="432pt" version="1.1" viewBox="0 0 576 432" width="576pt" xmlns="http://www.w3.org/2000/svg" xmlns:xlink="http://www.w3.org/1999/xlink">
 <defs>
  <style type="text/css">
*{stroke-linecap:butt;stroke-linejoin:round;stroke-miterlimit:100000;}
  </style>
 </defs>
 <g id="figure_1">
  <g id="patch_1">
   <path d="M 0 432 
L 576 432 
L 576 0 
L 0 0 
z
" style="fill:#ffffff;"/>
  </g>
  <g id="axes_1">
   <g id="patch_2">
    <path d="M 72 388.8 
L 518.4 388.8 
L 518.4 43.2 
L 72 43.2 
z
" style="fill:#ffffff;"/>
   </g>
   <g id="line2d_1">
    <path clip-path="url(#p17158e6fe4)" d="M 72.08928 388.8 
L 148.87008 388.8 
L 149.04864 384.333436 
L 149.13792 384.333436 
L 149.31648 382.619044 
L 149.40576 382.619044 
L 149.6736 379.533137 
L 149.85216 379.533137 
L 150.12 376.790109 
L 150.20928 376.790109 
L 150.47712 374.047082 
L 150.5664 374.047082 
L 150.83424 371.304054 
L 150.92352 371.304054 
L 151.19136 368.903904 
L 151.28064 368.903904 
L 151.54848 366.846633 
L 151.81632 366.846633 
L 152.08416 368.218147 
L 152.352 368.218147 
L 152.53056 370.275418 
L 152.7984 369.589661 
L 152.88768 369.589661 
L 153.06624 369.246783 
L 153.2448 371.304054 
L 153.60192 371.304054 
L 153.78048 373.018446 
L 153.95904 372.675568 
L 154.31616 372.675568 
L 154.49472 372.332689 
L 154.67328 374.047082 
L 154.85184 374.38996 
L 155.11968 373.704203 
L 155.38752 373.704203 
L 155.56608 375.761474 
L 155.74464 375.418595 
L 155.9232 375.418595 
L 156.10176 375.075717 
L 156.28032 375.075717 
L 156.45888 377.132988 
L 156.63744 376.790109 
L 156.816 376.790109 
L 156.99456 376.447231 
L 157.35168 376.447231 
L 157.53024 378.161623 
L 157.88736 378.161623 
L 158.06592 377.818745 
L 158.42304 377.818745 
L 158.6016 377.475866 
L 158.78016 379.533137 
L 159.13728 379.533137 
L 159.31584 379.190259 
L 159.76224 379.190259 
L 159.9408 378.84738 
L 160.11936 378.84738 
L 160.29792 380.561773 
L 160.47648 380.904651 
L 160.56576 380.904651 
L 160.74432 380.561773 
L 160.92288 380.561773 
L 161.10144 380.218894 
L 161.63712 380.218894 
L 161.81568 379.876016 
L 162.1728 379.876016 
L 162.35136 381.933287 
L 162.52992 381.933287 
L 162.70848 381.590408 
L 162.88704 381.590408 
L 163.0656 381.24753 
L 163.77984 381.24753 
L 163.9584 380.904651 
L 164.49408 380.904651 
L 164.67264 382.961922 
L 164.8512 382.961922 
L 165.02976 382.619044 
L 165.744 382.619044 
L 165.92256 382.276165 
L 166.81536 382.276165 
L 166.99392 381.933287 
L 167.70816 381.933287 
L 167.88672 385.70495 
L 168.06528 385.019193 
L 168.24384 384.676315 
L 168.4224 384.676315 
L 168.60096 384.333436 
L 168.77952 384.333436 
L 168.95808 384.676315 
L 169.13664 383.990558 
L 169.3152 383.647679 
L 169.49376 383.647679 
L 169.67232 383.990558 
L 169.94016 383.304801 
L 170.02944 383.304801 
L 170.208 383.647679 
L 170.38656 383.647679 
L 170.56512 382.961922 
L 170.74368 383.304801 
L 170.92224 382.961922 
L 171.81504 382.961922 
L 171.9936 382.619044 
L 173.06496 382.619044 
L 173.24352 382.276165 
L 173.42208 387.419343 
L 173.60064 387.419343 
L 174.13632 381.933287 
L 174.31488 381.933287 
L 174.49344 387.076464 
L 174.58272 387.076464 
L 174.85056 385.70495 
L 174.93984 385.70495 
L 175.1184 385.362072 
L 175.20768 385.362072 
L 175.38624 386.047829 
L 175.5648 386.047829 
L 175.74336 385.70495 
L 175.92192 382.276165 
L 176.10048 385.362072 
L 176.4576 385.362072 
L 176.63616 385.019193 
L 176.99328 385.019193 
L 177.17184 384.676315 
L 177.3504 384.676315 
L 177.52896 385.019193 
L 177.70752 385.019193 
L 177.88608 384.333436 
L 178.06464 383.990558 
L 178.42176 383.990558 
L 178.60032 384.333436 
L 178.77888 384.333436 
L 178.95744 383.647679 
L 179.136 383.304801 
L 179.31456 383.990558 
L 179.67168 382.961922 
L 179.85024 383.647679 
L 180.11808 382.961922 
L 180.20736 382.961922 
L 180.38592 383.304801 
L 180.56448 382.619044 
L 180.74304 382.961922 
L 180.9216 382.619044 
L 181.10016 382.961922 
L 181.27872 382.619044 
L 181.8144 382.619044 
L 181.99296 382.276165 
L 182.17152 382.619044 
L 182.52864 382.619044 
L 182.7072 388.8 
L 182.88576 388.447978 
L 183.06432 384.676315 
L 183.24288 382.276165 
L 183.42144 382.276165 
L 183.6 387.762221 
L 183.77856 388.105099 
L 184.0464 381.933287 
L 184.13568 381.933287 
L 184.31424 386.733586 
L 184.4928 387.076464 
L 184.76064 381.933287 
L 184.84992 381.933287 
L 185.02848 386.390707 
L 185.20704 387.076464 
L 185.3856 386.390707 
L 185.56416 383.304801 
L 185.74272 381.933287 
L 185.92128 386.733586 
L 186.09984 386.733586 
L 186.36768 385.362072 
L 186.63552 385.362072 
L 186.81408 381.933287 
L 186.99264 381.590408 
L 187.1712 386.047829 
L 187.26048 386.047829 
L 187.52832 384.676315 
L 187.70688 384.676315 
L 187.88544 385.70495 
L 188.064 385.70495 
L 188.24256 384.333436 
L 188.33184 384.333436 
L 188.68896 385.362072 
L 188.77824 385.362072 
L 188.9568 384.676315 
L 189.13536 384.676315 
L 189.31392 384.333436 
L 189.8496 384.333436 
L 190.02816 384.676315 
L 190.20672 384.676315 
L 190.38528 383.990558 
L 190.56384 383.647679 
L 190.7424 383.647679 
L 190.92096 384.333436 
L 191.09952 384.333436 
L 191.27808 383.304801 
L 191.45664 383.304801 
L 191.6352 383.990558 
L 191.81376 383.647679 
L 192.17088 383.647679 
L 192.34944 382.961922 
L 192.528 383.304801 
L 192.70656 383.304801 
L 192.88512 382.619044 
L 193.06368 383.304801 
L 193.24224 382.961922 
L 193.68864 382.961922 
L 193.8672 382.619044 
L 194.04576 382.961922 
L 194.22432 382.619044 
L 194.40288 382.619044 
L 194.58144 388.8 
L 194.76 388.8 
L 194.93856 388.105099 
L 195.11712 382.961922 
L 195.29568 382.276165 
L 195.6528 382.276165 
L 195.83136 388.8 
L 196.00992 388.105099 
L 196.18848 388.105099 
L 196.36704 382.619044 
L 196.5456 381.933287 
L 196.72416 382.276165 
L 196.90272 388.105099 
L 197.08128 387.762221 
L 197.25984 387.762221 
L 197.4384 383.990558 
L 197.61696 388.8 
L 200.1168 388.8 
L 200.38464 387.419343 
L 200.5632 384.676315 
L 200.74176 383.990558 
L 200.92032 383.990558 
L 201.09888 383.304801 
L 201.27744 383.304801 
L 201.36672 382.619044 
L 201.72384 384.676315 
L 201.9024 383.647679 
L 202.08096 383.647679 
L 202.25952 382.961922 
L 202.52736 382.276165 
L 202.70592 382.276165 
L 202.88448 381.933287 
L 203.2416 381.933287 
L 203.42016 381.590408 
L 203.59872 381.590408 
L 203.77728 381.24753 
L 203.95584 381.24753 
L 204.1344 380.904651 
L 204.22368 380.904651 
L 204.40224 380.561773 
L 204.75936 380.561773 
L 204.93792 380.904651 
L 205.11648 380.904651 
L 205.29504 380.561773 
L 205.38432 380.561773 
L 205.56288 380.218894 
L 205.92 380.218894 
L 206.09856 379.876016 
L 206.45568 379.876016 
L 206.90208 381.24753 
L 207.08064 381.24753 
L 207.2592 381.933287 
L 207.43776 382.276165 
L 207.7056 385.362072 
L 207.79488 385.362072 
L 207.97344 385.70495 
L 208.152 387.076464 
L 208.33056 387.419343 
L 208.50912 388.8 
L 208.68768 388.447978 
L 208.86624 388.8 
L 518.4 388.8 
L 518.4 388.8 
" style="fill:none;stroke:#008000;stroke-linecap:square;"/>
   </g>
   <g id="line2d_2">
    <path clip-path="url(#p17158e6fe4)" d="M 72.08928 388.8 
L 84.67776 388.8 
L 84.9456 375.300007 
L 85.03488 375.300007 
L 85.30272 361.800014 
L 85.392 361.800014 
L 85.65984 348.300021 
L 85.74912 348.300021 
L 86.01696 334.800028 
L 86.10624 334.800028 
L 86.37408 319.950035 
L 86.46336 319.950035 
L 86.7312 306.450042 
L 86.82048 306.450042 
L 87.08832 292.950049 
L 87.1776 292.950049 
L 87.44544 279.450056 
L 87.53472 279.450056 
L 87.80256 264.600064 
L 87.89184 264.600064 
L 88.15968 251.100071 
L 88.24896 251.100071 
L 88.5168 237.600077 
L 88.60608 237.600077 
L 88.87392 224.100084 
L 88.9632 224.100084 
L 89.23104 209.250092 
L 89.32032 209.250092 
L 89.58816 195.750099 
L 89.67744 195.750099 
L 89.94528 182.250106 
L 90.03456 182.250106 
L 90.3024 168.750113 
L 90.39168 168.750113 
L 90.65952 153.90012 
L 90.7488 153.90012 
L 91.01664 140.400127 
L 91.10592 140.400127 
L 91.37376 126.900134 
L 91.46304 126.900134 
L 91.73088 113.400141 
L 91.82016 113.400141 
L 92.088 98.550149 
L 92.17728 98.550149 
L 92.44512 85.050156 
L 92.5344 85.050156 
L 92.80224 71.550162 
L 92.89152 71.550162 
L 93.07008 67.500165 
L 93.78432 67.500165 
L 93.96288 66.150165 
L 94.67712 66.150165 
L 94.85568 64.800166 
L 95.56992 64.800166 
L 95.74848 63.450167 
L 96.46272 63.450167 
L 96.64128 62.100167 
L 97.08768 62.100167 
L 97.26624 60.750168 
L 98.06976 60.750168 
L 98.24832 59.400169 
L 98.96256 59.400169 
L 99.14112 58.050169 
L 99.85536 58.050169 
L 100.03392 56.70017 
L 100.74816 56.70017 
L 100.92672 55.350171 
L 101.4624 55.350171 
L 101.64096 54.000171 
L 102.3552 54.000171 
L 102.53376 52.650172 
L 103.248 52.650172 
L 103.42656 51.300173 
L 103.96224 51.300173 
L 104.1408 49.950173 
L 104.85504 49.950173 
L 105.0336 48.600174 
L 105.74784 48.600174 
L 105.9264 47.250175 
L 106.46208 47.250175 
L 106.64064 45.900176 
L 107.35488 45.900176 
L 107.53344 44.550176 
L 143.33472 44.550176 
L 143.51328 48.600174 
L 143.60256 51.300173 
L 143.8704 76.95016 
L 143.95968 76.95016 
L 144.22752 98.550149 
L 144.3168 98.550149 
L 144.58464 122.850136 
L 144.67392 122.850136 
L 144.94176 147.150124 
L 145.03104 147.150124 
L 145.29888 172.800111 
L 145.38816 172.800111 
L 145.656 191.700101 
L 145.74528 191.700101 
L 145.92384 201.150096 
L 146.01312 201.150096 
L 146.28096 225.450084 
L 146.45952 225.450084 
L 146.63808 237.600077 
L 146.72736 237.600077 
L 146.9952 259.200066 
L 147.17376 259.200066 
L 147.4416 279.450056 
L 147.62016 279.450056 
L 147.888 298.350046 
L 147.97728 298.350046 
L 148.15584 306.450042 
L 148.24512 306.450042 
L 148.42368 317.250037 
L 148.60224 325.350032 
L 148.69152 325.350032 
L 148.87008 388.8 
L 211.99104 388.8 
L 212.25888 375.300007 
L 212.34816 375.300007 
L 212.616 361.800014 
L 212.70528 361.800014 
L 212.97312 348.300021 
L 213.0624 348.300021 
L 213.33024 334.800028 
L 213.41952 334.800028 
L 213.68736 319.950035 
L 213.9552 306.450042 
L 214.04448 306.450042 
L 214.31232 292.950049 
L 214.4016 292.950049 
L 214.66944 280.800055 
L 214.93728 280.800055 
L 215.20512 278.100057 
L 215.38368 278.100057 
L 215.56224 275.400058 
L 215.7408 275.400058 
L 215.91936 274.050059 
L 216.09792 274.050059 
L 216.27648 272.700059 
L 216.45504 272.700059 
L 216.72288 270.000061 
L 216.90144 270.000061 
L 217.16928 267.300062 
L 217.25856 267.300062 
L 217.43712 265.950063 
L 217.5264 265.950063 
L 217.79424 263.250064 
L 218.8656 263.250064 
L 219.04416 265.950063 
L 219.22272 267.300062 
L 219.40128 267.300062 
L 219.57984 270.000061 
L 219.93696 274.050059 
L 220.02624 274.050059 
L 220.29408 276.750057 
L 220.38336 276.750057 
L 220.6512 279.450056 
L 220.74048 279.450056 
L 221.00832 282.150055 
L 221.0976 282.150055 
L 221.36544 284.850053 
L 221.45472 284.850053 
L 221.81184 288.900051 
L 221.90112 288.900051 
L 222.16896 291.60005 
L 222.25824 291.60005 
L 222.52608 294.300048 
L 222.70464 294.300048 
L 222.8832 297.000047 
L 223.15104 299.700046 
L 223.3296 299.700046 
L 223.50816 301.050045 
L 224.49024 301.050045 
L 224.6688 302.400044 
L 231.27552 302.400044 
L 231.45408 301.050045 
L 231.63264 301.050045 
L 231.8112 299.700046 
L 232.16832 299.700046 
L 232.34688 298.350046 
L 232.52544 298.350046 
L 232.704 297.000047 
L 233.23968 297.000047 
L 233.41824 295.650048 
L 233.77536 295.650048 
L 233.95392 294.300048 
L 235.91808 294.300048 
L 236.09664 292.950049 
L 236.81088 292.950049 
L 236.98944 291.60005 
L 238.41792 291.60005 
L 238.59648 290.25005 
L 240.56064 290.25005 
L 240.7392 288.900051 
L 243.23904 288.900051 
L 243.4176 287.550052 
L 245.56032 287.550052 
L 245.73888 286.200053 
L 260.20224 286.200053 
L 260.3808 287.550052 
L 260.73792 287.550052 
L 260.91648 288.900051 
L 262.88064 288.900051 
L 263.14848 291.60005 
L 265.38048 291.60005 
L 265.55904 292.950049 
L 266.09472 292.950049 
L 266.27328 294.300048 
L 266.45184 294.300048 
L 266.6304 295.650048 
L 267.5232 295.650048 
L 267.70176 297.000047 
L 267.88032 297.000047 
L 268.05888 298.350046 
L 269.48736 298.350046 
L 269.7552 301.050045 
L 269.84448 301.050045 
L 270.11232 303.750044 
L 270.2016 303.750044 
L 270.38016 305.100043 
L 270.46944 305.100043 
L 270.73728 307.800041 
L 271.18368 307.800041 
L 271.45152 310.50004 
L 271.80864 310.50004 
L 271.9872 311.850039 
L 272.07648 311.850039 
L 272.34432 314.550038 
L 272.79072 314.550038 
L 273.05856 317.250037 
L 274.2192 317.250037 
L 274.48704 319.950035 
L 274.75488 319.950035 
L 274.93344 321.300035 
L 275.20128 321.300035 
L 275.37984 322.650034 
L 275.73696 322.650034 
L 275.91552 324.000033 
L 276.0048 324.000033 
L 276.18336 325.350032 
L 277.61184 325.350032 
L 277.7904 326.700032 
L 279.1296 326.700032 
L 279.30816 328.050031 
L 287.07552 328.050031 
L 287.25408 326.700032 
L 287.70048 326.700032 
L 287.87904 325.350032 
L 288.23616 325.350032 
L 288.41472 324.000033 
L 288.9504 324.000033 
L 289.12896 322.650034 
L 289.57536 322.650034 
L 289.75392 319.950035 
L 290.736 319.950035 
L 291.00384 317.250037 
L 291.1824 317.250037 
L 291.45024 314.550038 
L 292.0752 314.550038 
L 292.25376 313.200039 
L 292.5216 313.200039 
L 292.87872 309.150041 
L 293.23584 309.150041 
L 293.59296 305.100043 
L 294.12864 305.100043 
L 294.39648 302.400044 
L 294.57504 302.400044 
L 294.7536 301.050045 
L 294.93216 301.050045 
L 295.11072 298.350046 
L 295.37856 298.350046 
L 295.6464 295.650048 
L 295.73568 295.650048 
L 295.91424 294.300048 
L 296.62848 294.300048 
L 296.80704 292.950049 
L 298.3248 292.950049 
L 298.50336 291.60005 
L 299.2176 291.60005 
L 299.48544 288.900051 
L 301.0032 288.900051 
L 301.18176 287.550052 
L 301.4496 287.550052 
L 301.62816 286.200053 
L 302.69952 286.200053 
L 302.87808 284.850053 
L 303.59232 284.850053 
L 303.77088 283.500054 
L 303.94944 283.500054 
L 304.128 282.150055 
L 305.19936 282.150055 
L 305.4672 279.450056 
L 306.62784 279.450056 
L 306.8064 278.100057 
L 307.34208 278.100057 
L 307.52064 276.750057 
L 308.05632 276.750057 
L 308.23488 275.400058 
L 309.12768 275.400058 
L 309.30624 274.050059 
L 310.3776 274.050059 
L 310.55616 272.700059 
L 311.2704 272.700059 
L 311.53824 270.000061 
L 313.056 270.000061 
L 313.23456 268.650062 
L 313.9488 268.650062 
L 314.12736 267.300062 
L 314.8416 267.300062 
L 315.02016 265.950063 
L 315.82368 265.950063 
L 316.00224 264.600064 
L 316.98432 264.600064 
L 317.16288 263.250064 
L 317.87712 263.250064 
L 318.05568 261.900065 
L 319.12704 261.900065 
L 319.39488 259.200066 
L 319.48416 259.200066 
L 319.752 256.500068 
L 319.84128 256.500068 
L 320.10912 253.800069 
L 320.1984 253.800069 
L 320.55552 249.750071 
L 320.6448 249.750071 
L 320.82336 248.400072 
L 320.91264 248.400072 
L 321.26976 244.350074 
L 321.35904 244.350074 
L 321.5376 241.650075 
L 321.80544 238.950077 
L 321.89472 238.950077 
L 322.16256 236.250078 
L 322.25184 236.250078 
L 322.4304 234.900079 
L 322.51968 234.900079 
L 322.78752 232.20008 
L 322.8768 232.20008 
L 323.14464 229.500082 
L 323.23392 229.500082 
L 323.50176 226.800083 
L 323.59104 226.800083 
L 323.85888 224.100084 
L 323.94816 224.100084 
L 324.216 221.400086 
L 324.30528 221.400086 
L 324.57312 218.700087 
L 324.6624 218.700087 
L 324.93024 216.000088 
L 325.01952 216.000088 
L 325.28736 213.30009 
L 325.37664 213.30009 
L 325.64448 210.600091 
L 325.73376 210.600091 
L 326.0016 207.900093 
L 326.09088 207.900093 
L 326.35872 205.200094 
L 326.448 205.200094 
L 326.71584 202.500095 
L 326.80512 202.500095 
L 327.07296 199.800097 
L 327.16224 199.800097 
L 327.43008 197.100098 
L 327.51936 197.100098 
L 327.7872 194.4001 
L 327.87648 194.4001 
L 328.14432 191.700101 
L 328.2336 191.700101 
L 328.50144 189.000102 
L 328.59072 189.000102 
L 329.03712 183.600105 
L 329.1264 183.600105 
L 329.39424 180.900106 
L 329.48352 180.900106 
L 329.75136 178.200108 
L 329.84064 178.200108 
L 330.10848 175.500109 
L 330.19776 175.500109 
L 330.4656 172.800111 
L 330.55488 172.800111 
L 330.82272 170.100112 
L 330.912 170.100112 
L 331.17984 167.400113 
L 518.4 167.400113 
L 518.4 167.400113 
" style="fill:none;stroke:#ff0000;stroke-linecap:square;"/>
   </g>
   <g id="patch_3">
    <path d="M 72 43.2 
L 518.4 43.2 
" style="fill:none;stroke:#000000;stroke-linecap:square;stroke-linejoin:miter;"/>
   </g>
   <g id="patch_4">
    <path d="M 518.4 388.8 
L 518.4 43.2 
" style="fill:none;stroke:#000000;stroke-linecap:square;stroke-linejoin:miter;"/>
   </g>
   <g id="patch_5">
    <path d="M 72 388.8 
L 518.4 388.8 
" style="fill:none;stroke:#000000;stroke-linecap:square;stroke-linejoin:miter;"/>
   </g>
   <g id="patch_6">
    <path d="M 72 388.8 
L 72 43.2 
" style="fill:none;stroke:#000000;stroke-linecap:square;stroke-linejoin:miter;"/>
   </g>
   <g id="matplotlib.axis_1">
    <g id="xtick_1">
     <g id="line2d_3">
      <path clip-path="url(#p17158e6fe4)" d="M 72 388.8 
L 72 43.2 
" style="fill:none;stroke:#000000;stroke-dasharray:1.000000,3.000000;stroke-dashoffset:0.0;stroke-width:0.5;"/>
     </g>
     <g id="line2d_4">
      <defs>
       <path d="M 0 0 
L 0 -4 
" id="m2af3dc9049" style="stroke:#000000;stroke-width:0.5;"/>
      </defs>
      <g>
       <use style="stroke:#000000;stroke-width:0.5;" x="72.0" xlink:href="#m2af3dc9049" y="388.8"/>
      </g>
     </g>
     <g id="line2d_5">
      <defs>
       <path d="M 0 0 
L 0 4 
" id="mc00db25608" style="stroke:#000000;stroke-width:0.5;"/>
      </defs>
      <g>
       <use style="stroke:#000000;stroke-width:0.5;" x="72.0" xlink:href="#mc00db25608" y="43.2"/>
      </g>
     </g>
     <g id="text_1">
      <!-- 0 -->
      <defs>
       <path d="M 31.78125 66.40625 
Q 24.171875 66.40625 20.328125 58.90625 
Q 16.5 51.421875 16.5 36.375 
Q 16.5 21.390625 20.328125 13.890625 
Q 24.171875 6.390625 31.78125 6.390625 
Q 39.453125 6.390625 43.28125 13.890625 
Q 47.125 21.390625 47.125 36.375 
Q 47.125 51.421875 43.28125 58.90625 
Q 39.453125 66.40625 31.78125 66.40625 
M 31.78125 74.21875 
Q 44.046875 74.21875 50.515625 64.515625 
Q 56.984375 54.828125 56.984375 36.375 
Q 56.984375 17.96875 50.515625 8.265625 
Q 44.046875 -1.421875 31.78125 -1.421875 
Q 19.53125 -1.421875 13.0625 8.265625 
Q 6.59375 17.96875 6.59375 36.375 
Q 6.59375 54.828125 13.0625 64.515625 
Q 19.53125 74.21875 31.78125 74.21875 
" id="BitstreamVeraSans-Roman-30"/>
      </defs>
      <g transform="translate(68.1825 401.918125)scale(0.12 -0.12)">
       <use xlink:href="#BitstreamVeraSans-Roman-30"/>
      </g>
     </g>
    </g>
    <g id="xtick_2">
     <g id="line2d_6">
      <path clip-path="url(#p17158e6fe4)" d="M 161.28 388.8 
L 161.28 43.2 
" style="fill:none;stroke:#000000;stroke-dasharray:1.000000,3.000000;stroke-dashoffset:0.0;stroke-width:0.5;"/>
     </g>
     <g id="line2d_7">
      <g>
       <use style="stroke:#000000;stroke-width:0.5;" x="161.28" xlink:href="#m2af3dc9049" y="388.8"/>
      </g>
     </g>
     <g id="line2d_8">
      <g>
       <use style="stroke:#000000;stroke-width:0.5;" x="161.28" xlink:href="#mc00db25608" y="43.2"/>
      </g>
     </g>
     <g id="text_2">
      <!-- 10 -->
      <defs>
       <path d="M 12.40625 8.296875 
L 28.515625 8.296875 
L 28.515625 63.921875 
L 10.984375 60.40625 
L 10.984375 69.390625 
L 28.421875 72.90625 
L 38.28125 72.90625 
L 38.28125 8.296875 
L 54.390625 8.296875 
L 54.390625 0 
L 12.40625 0 
z
" id="BitstreamVeraSans-Roman-31"/>
      </defs>
      <g transform="translate(153.645 401.918125)scale(0.12 -0.12)">
       <use xlink:href="#BitstreamVeraSans-Roman-31"/>
       <use x="63.623046875" xlink:href="#BitstreamVeraSans-Roman-30"/>
      </g>
     </g>
    </g>
    <g id="xtick_3">
     <g id="line2d_9">
      <path clip-path="url(#p17158e6fe4)" d="M 250.56 388.8 
L 250.56 43.2 
" style="fill:none;stroke:#000000;stroke-dasharray:1.000000,3.000000;stroke-dashoffset:0.0;stroke-width:0.5;"/>
     </g>
     <g id="line2d_10">
      <g>
       <use style="stroke:#000000;stroke-width:0.5;" x="250.56" xlink:href="#m2af3dc9049" y="388.8"/>
      </g>
     </g>
     <g id="line2d_11">
      <g>
       <use style="stroke:#000000;stroke-width:0.5;" x="250.56" xlink:href="#mc00db25608" y="43.2"/>
      </g>
     </g>
     <g id="text_3">
      <!-- 20 -->
      <defs>
       <path d="M 19.1875 8.296875 
L 53.609375 8.296875 
L 53.609375 0 
L 7.328125 0 
L 7.328125 8.296875 
Q 12.9375 14.109375 22.625 23.890625 
Q 32.328125 33.6875 34.8125 36.53125 
Q 39.546875 41.84375 41.421875 45.53125 
Q 43.3125 49.21875 43.3125 52.78125 
Q 43.3125 58.59375 39.234375 62.25 
Q 35.15625 65.921875 28.609375 65.921875 
Q 23.96875 65.921875 18.8125 64.3125 
Q 13.671875 62.703125 7.8125 59.421875 
L 7.8125 69.390625 
Q 13.765625 71.78125 18.9375 73 
Q 24.125 74.21875 28.421875 74.21875 
Q 39.75 74.21875 46.484375 68.546875 
Q 53.21875 62.890625 53.21875 53.421875 
Q 53.21875 48.921875 51.53125 44.890625 
Q 49.859375 40.875 45.40625 35.40625 
Q 44.1875 33.984375 37.640625 27.21875 
Q 31.109375 20.453125 19.1875 8.296875 
" id="BitstreamVeraSans-Roman-32"/>
      </defs>
      <g transform="translate(242.925 401.918125)scale(0.12 -0.12)">
       <use xlink:href="#BitstreamVeraSans-Roman-32"/>
       <use x="63.623046875" xlink:href="#BitstreamVeraSans-Roman-30"/>
      </g>
     </g>
    </g>
    <g id="xtick_4">
     <g id="line2d_12">
      <path clip-path="url(#p17158e6fe4)" d="M 339.84 388.8 
L 339.84 43.2 
" style="fill:none;stroke:#000000;stroke-dasharray:1.000000,3.000000;stroke-dashoffset:0.0;stroke-width:0.5;"/>
     </g>
     <g id="line2d_13">
      <g>
       <use style="stroke:#000000;stroke-width:0.5;" x="339.84" xlink:href="#m2af3dc9049" y="388.8"/>
      </g>
     </g>
     <g id="line2d_14">
      <g>
       <use style="stroke:#000000;stroke-width:0.5;" x="339.84" xlink:href="#mc00db25608" y="43.2"/>
      </g>
     </g>
     <g id="text_4">
      <!-- 30 -->
      <defs>
       <path d="M 40.578125 39.3125 
Q 47.65625 37.796875 51.625 33 
Q 55.609375 28.21875 55.609375 21.1875 
Q 55.609375 10.40625 48.1875 4.484375 
Q 40.765625 -1.421875 27.09375 -1.421875 
Q 22.515625 -1.421875 17.65625 -0.515625 
Q 12.796875 0.390625 7.625 2.203125 
L 7.625 11.71875 
Q 11.71875 9.328125 16.59375 8.109375 
Q 21.484375 6.890625 26.8125 6.890625 
Q 36.078125 6.890625 40.9375 10.546875 
Q 45.796875 14.203125 45.796875 21.1875 
Q 45.796875 27.640625 41.28125 31.265625 
Q 36.765625 34.90625 28.71875 34.90625 
L 20.21875 34.90625 
L 20.21875 43.015625 
L 29.109375 43.015625 
Q 36.375 43.015625 40.234375 45.921875 
Q 44.09375 48.828125 44.09375 54.296875 
Q 44.09375 59.90625 40.109375 62.90625 
Q 36.140625 65.921875 28.71875 65.921875 
Q 24.65625 65.921875 20.015625 65.03125 
Q 15.375 64.15625 9.8125 62.3125 
L 9.8125 71.09375 
Q 15.4375 72.65625 20.34375 73.4375 
Q 25.25 74.21875 29.59375 74.21875 
Q 40.828125 74.21875 47.359375 69.109375 
Q 53.90625 64.015625 53.90625 55.328125 
Q 53.90625 49.265625 50.4375 45.09375 
Q 46.96875 40.921875 40.578125 39.3125 
" id="BitstreamVeraSans-Roman-33"/>
      </defs>
      <g transform="translate(332.205 401.918125)scale(0.12 -0.12)">
       <use xlink:href="#BitstreamVeraSans-Roman-33"/>
       <use x="63.623046875" xlink:href="#BitstreamVeraSans-Roman-30"/>
      </g>
     </g>
    </g>
    <g id="xtick_5">
     <g id="line2d_15">
      <path clip-path="url(#p17158e6fe4)" d="M 429.12 388.8 
L 429.12 43.2 
" style="fill:none;stroke:#000000;stroke-dasharray:1.000000,3.000000;stroke-dashoffset:0.0;stroke-width:0.5;"/>
     </g>
     <g id="line2d_16">
      <g>
       <use style="stroke:#000000;stroke-width:0.5;" x="429.12" xlink:href="#m2af3dc9049" y="388.8"/>
      </g>
     </g>
     <g id="line2d_17">
      <g>
       <use style="stroke:#000000;stroke-width:0.5;" x="429.12" xlink:href="#mc00db25608" y="43.2"/>
      </g>
     </g>
     <g id="text_5">
      <!-- 40 -->
      <defs>
       <path d="M 37.796875 64.3125 
L 12.890625 25.390625 
L 37.796875 25.390625 
z
M 35.203125 72.90625 
L 47.609375 72.90625 
L 47.609375 25.390625 
L 58.015625 25.390625 
L 58.015625 17.1875 
L 47.609375 17.1875 
L 47.609375 0 
L 37.796875 0 
L 37.796875 17.1875 
L 4.890625 17.1875 
L 4.890625 26.703125 
z
" id="BitstreamVeraSans-Roman-34"/>
      </defs>
      <g transform="translate(421.485 401.918125)scale(0.12 -0.12)">
       <use xlink:href="#BitstreamVeraSans-Roman-34"/>
       <use x="63.623046875" xlink:href="#BitstreamVeraSans-Roman-30"/>
      </g>
     </g>
    </g>
    <g id="xtick_6">
     <g id="line2d_18">
      <path clip-path="url(#p17158e6fe4)" d="M 518.4 388.8 
L 518.4 43.2 
" style="fill:none;stroke:#000000;stroke-dasharray:1.000000,3.000000;stroke-dashoffset:0.0;stroke-width:0.5;"/>
     </g>
     <g id="line2d_19">
      <g>
       <use style="stroke:#000000;stroke-width:0.5;" x="518.4" xlink:href="#m2af3dc9049" y="388.8"/>
      </g>
     </g>
     <g id="line2d_20">
      <g>
       <use style="stroke:#000000;stroke-width:0.5;" x="518.4" xlink:href="#mc00db25608" y="43.2"/>
      </g>
     </g>
     <g id="text_6">
      <!-- 50 -->
      <defs>
       <path d="M 10.796875 72.90625 
L 49.515625 72.90625 
L 49.515625 64.59375 
L 19.828125 64.59375 
L 19.828125 46.734375 
Q 21.96875 47.46875 24.109375 47.828125 
Q 26.265625 48.1875 28.421875 48.1875 
Q 40.625 48.1875 47.75 41.5 
Q 54.890625 34.8125 54.890625 23.390625 
Q 54.890625 11.625 47.5625 5.09375 
Q 40.234375 -1.421875 26.90625 -1.421875 
Q 22.3125 -1.421875 17.546875 -0.640625 
Q 12.796875 0.140625 7.71875 1.703125 
L 7.71875 11.625 
Q 12.109375 9.234375 16.796875 8.0625 
Q 21.484375 6.890625 26.703125 6.890625 
Q 35.15625 6.890625 40.078125 11.328125 
Q 45.015625 15.765625 45.015625 23.390625 
Q 45.015625 31 40.078125 35.4375 
Q 35.15625 39.890625 26.703125 39.890625 
Q 22.75 39.890625 18.8125 39.015625 
Q 14.890625 38.140625 10.796875 36.28125 
z
" id="BitstreamVeraSans-Roman-35"/>
      </defs>
      <g transform="translate(510.765 401.918125)scale(0.12 -0.12)">
       <use xlink:href="#BitstreamVeraSans-Roman-35"/>
       <use x="63.623046875" xlink:href="#BitstreamVeraSans-Roman-30"/>
      </g>
     </g>
    </g>
    <g id="text_7">
     <!-- Time [s] -->
     <defs>
      <path id="BitstreamVeraSans-Roman-20"/>
      <path d="M 8.59375 75.984375 
L 29.296875 75.984375 
L 29.296875 69 
L 17.578125 69 
L 17.578125 -6.203125 
L 29.296875 -6.203125 
L 29.296875 -13.1875 
L 8.59375 -13.1875 
z
" id="BitstreamVeraSans-Roman-5b"/>
      <path d="M 30.421875 75.984375 
L 30.421875 -13.1875 
L 9.71875 -13.1875 
L 9.71875 -6.203125 
L 21.390625 -6.203125 
L 21.390625 69 
L 9.71875 69 
L 9.71875 75.984375 
z
" id="BitstreamVeraSans-Roman-5d"/>
      <path d="M 52 44.1875 
Q 55.375 50.25 60.0625 53.125 
Q 64.75 56 71.09375 56 
Q 79.640625 56 84.28125 50.015625 
Q 88.921875 44.046875 88.921875 33.015625 
L 88.921875 0 
L 79.890625 0 
L 79.890625 32.71875 
Q 79.890625 40.578125 77.09375 44.375 
Q 74.3125 48.1875 68.609375 48.1875 
Q 61.625 48.1875 57.5625 43.546875 
Q 53.515625 38.921875 53.515625 30.90625 
L 53.515625 0 
L 44.484375 0 
L 44.484375 32.71875 
Q 44.484375 40.625 41.703125 44.40625 
Q 38.921875 48.1875 33.109375 48.1875 
Q 26.21875 48.1875 22.15625 43.53125 
Q 18.109375 38.875 18.109375 30.90625 
L 18.109375 0 
L 9.078125 0 
L 9.078125 54.6875 
L 18.109375 54.6875 
L 18.109375 46.1875 
Q 21.1875 51.21875 25.484375 53.609375 
Q 29.78125 56 35.6875 56 
Q 41.65625 56 45.828125 52.96875 
Q 50 49.953125 52 44.1875 
" id="BitstreamVeraSans-Roman-6d"/>
      <path d="M 9.421875 54.6875 
L 18.40625 54.6875 
L 18.40625 0 
L 9.421875 0 
z
M 9.421875 75.984375 
L 18.40625 75.984375 
L 18.40625 64.59375 
L 9.421875 64.59375 
z
" id="BitstreamVeraSans-Roman-69"/>
      <path d="M 56.203125 29.59375 
L 56.203125 25.203125 
L 14.890625 25.203125 
Q 15.484375 15.921875 20.484375 11.0625 
Q 25.484375 6.203125 34.421875 6.203125 
Q 39.59375 6.203125 44.453125 7.46875 
Q 49.3125 8.734375 54.109375 11.28125 
L 54.109375 2.78125 
Q 49.265625 0.734375 44.1875 -0.34375 
Q 39.109375 -1.421875 33.890625 -1.421875 
Q 20.796875 -1.421875 13.15625 6.1875 
Q 5.515625 13.8125 5.515625 26.8125 
Q 5.515625 40.234375 12.765625 48.109375 
Q 20.015625 56 32.328125 56 
Q 43.359375 56 49.78125 48.890625 
Q 56.203125 41.796875 56.203125 29.59375 
M 47.21875 32.234375 
Q 47.125 39.59375 43.09375 43.984375 
Q 39.0625 48.390625 32.421875 48.390625 
Q 24.90625 48.390625 20.390625 44.140625 
Q 15.875 39.890625 15.1875 32.171875 
z
" id="BitstreamVeraSans-Roman-65"/>
      <path d="M -0.296875 72.90625 
L 61.375 72.90625 
L 61.375 64.59375 
L 35.5 64.59375 
L 35.5 0 
L 25.59375 0 
L 25.59375 64.59375 
L -0.296875 64.59375 
z
" id="BitstreamVeraSans-Roman-54"/>
      <path d="M 44.28125 53.078125 
L 44.28125 44.578125 
Q 40.484375 46.53125 36.375 47.5 
Q 32.28125 48.484375 27.875 48.484375 
Q 21.1875 48.484375 17.84375 46.4375 
Q 14.5 44.390625 14.5 40.28125 
Q 14.5 37.15625 16.890625 35.375 
Q 19.28125 33.59375 26.515625 31.984375 
L 29.59375 31.296875 
Q 39.15625 29.25 43.1875 25.515625 
Q 47.21875 21.78125 47.21875 15.09375 
Q 47.21875 7.46875 41.1875 3.015625 
Q 35.15625 -1.421875 24.609375 -1.421875 
Q 20.21875 -1.421875 15.453125 -0.5625 
Q 10.6875 0.296875 5.421875 2 
L 5.421875 11.28125 
Q 10.40625 8.6875 15.234375 7.390625 
Q 20.0625 6.109375 24.8125 6.109375 
Q 31.15625 6.109375 34.5625 8.28125 
Q 37.984375 10.453125 37.984375 14.40625 
Q 37.984375 18.0625 35.515625 20.015625 
Q 33.0625 21.96875 24.703125 23.78125 
L 21.578125 24.515625 
Q 13.234375 26.265625 9.515625 29.90625 
Q 5.8125 33.546875 5.8125 39.890625 
Q 5.8125 47.609375 11.28125 51.796875 
Q 16.75 56 26.8125 56 
Q 31.78125 56 36.171875 55.265625 
Q 40.578125 54.546875 44.28125 53.078125 
" id="BitstreamVeraSans-Roman-73"/>
     </defs>
     <g transform="translate(270.620625 418.531875)scale(0.12 -0.12)">
      <use xlink:href="#BitstreamVeraSans-Roman-54"/>
      <use x="61.037109375" xlink:href="#BitstreamVeraSans-Roman-69"/>
      <use x="88.8203125" xlink:href="#BitstreamVeraSans-Roman-6d"/>
      <use x="186.232421875" xlink:href="#BitstreamVeraSans-Roman-65"/>
      <use x="247.755859375" xlink:href="#BitstreamVeraSans-Roman-20"/>
      <use x="279.54296875" xlink:href="#BitstreamVeraSans-Roman-5b"/>
      <use x="318.556640625" xlink:href="#BitstreamVeraSans-Roman-73"/>
      <use x="370.65625" xlink:href="#BitstreamVeraSans-Roman-5d"/>
     </g>
    </g>
   </g>
   <g id="matplotlib.axis_2">
    <g id="ytick_1">
     <g id="line2d_21">
      <path clip-path="url(#p17158e6fe4)" d="M 72 388.8 
L 518.4 388.8 
" style="fill:none;stroke:#000000;stroke-dasharray:1.000000,3.000000;stroke-dashoffset:0.0;stroke-width:0.5;"/>
     </g>
     <g id="line2d_22">
      <defs>
       <path d="M 0 0 
L 4 0 
" id="m60bb4c6717" style="stroke:#000000;stroke-width:0.5;"/>
      </defs>
      <g>
       <use style="stroke:#000000;stroke-width:0.5;" x="72.0" xlink:href="#m60bb4c6717" y="388.8"/>
      </g>
     </g>
     <g id="line2d_23">
      <defs>
       <path d="M 0 0 
L -4 0 
" id="mfcc8a7f736" style="stroke:#000000;stroke-width:0.5;"/>
      </defs>
      <g>
       <use style="stroke:#000000;stroke-width:0.5;" x="518.4" xlink:href="#mfcc8a7f736" y="388.8"/>
      </g>
     </g>
     <g id="text_8">
      <!-- 0.0 -->
      <defs>
       <path d="M 10.6875 12.40625 
L 21 12.40625 
L 21 0 
L 10.6875 0 
z
" id="BitstreamVeraSans-Roman-2e"/>
      </defs>
      <g transform="translate(48.91625 392.11125)scale(0.12 -0.12)">
       <use xlink:href="#BitstreamVeraSans-Roman-30"/>
       <use x="63.623046875" xlink:href="#BitstreamVeraSans-Roman-2e"/>
       <use x="95.41015625" xlink:href="#BitstreamVeraSans-Roman-30"/>
      </g>
     </g>
    </g>
    <g id="ytick_2">
     <g id="line2d_24">
      <path clip-path="url(#p17158e6fe4)" d="M 72 319.68 
L 518.4 319.68 
" style="fill:none;stroke:#000000;stroke-dasharray:1.000000,3.000000;stroke-dashoffset:0.0;stroke-width:0.5;"/>
     </g>
     <g id="line2d_25">
      <g>
       <use style="stroke:#000000;stroke-width:0.5;" x="72.0" xlink:href="#m60bb4c6717" y="319.68"/>
      </g>
     </g>
     <g id="line2d_26">
      <g>
       <use style="stroke:#000000;stroke-width:0.5;" x="518.4" xlink:href="#mfcc8a7f736" y="319.68"/>
      </g>
     </g>
     <g id="text_9">
      <!-- 0.2 -->
      <g transform="translate(48.91625 322.99125)scale(0.12 -0.12)">
       <use xlink:href="#BitstreamVeraSans-Roman-30"/>
       <use x="63.623046875" xlink:href="#BitstreamVeraSans-Roman-2e"/>
       <use x="95.41015625" xlink:href="#BitstreamVeraSans-Roman-32"/>
      </g>
     </g>
    </g>
    <g id="ytick_3">
     <g id="line2d_27">
      <path clip-path="url(#p17158e6fe4)" d="M 72 250.56 
L 518.4 250.56 
" style="fill:none;stroke:#000000;stroke-dasharray:1.000000,3.000000;stroke-dashoffset:0.0;stroke-width:0.5;"/>
     </g>
     <g id="line2d_28">
      <g>
       <use style="stroke:#000000;stroke-width:0.5;" x="72.0" xlink:href="#m60bb4c6717" y="250.56"/>
      </g>
     </g>
     <g id="line2d_29">
      <g>
       <use style="stroke:#000000;stroke-width:0.5;" x="518.4" xlink:href="#mfcc8a7f736" y="250.56"/>
      </g>
     </g>
     <g id="text_10">
      <!-- 0.4 -->
      <g transform="translate(48.91625 253.87125)scale(0.12 -0.12)">
       <use xlink:href="#BitstreamVeraSans-Roman-30"/>
       <use x="63.623046875" xlink:href="#BitstreamVeraSans-Roman-2e"/>
       <use x="95.41015625" xlink:href="#BitstreamVeraSans-Roman-34"/>
      </g>
     </g>
    </g>
    <g id="ytick_4">
     <g id="line2d_30">
      <path clip-path="url(#p17158e6fe4)" d="M 72 181.44 
L 518.4 181.44 
" style="fill:none;stroke:#000000;stroke-dasharray:1.000000,3.000000;stroke-dashoffset:0.0;stroke-width:0.5;"/>
     </g>
     <g id="line2d_31">
      <g>
       <use style="stroke:#000000;stroke-width:0.5;" x="72.0" xlink:href="#m60bb4c6717" y="181.44"/>
      </g>
     </g>
     <g id="line2d_32">
      <g>
       <use style="stroke:#000000;stroke-width:0.5;" x="518.4" xlink:href="#mfcc8a7f736" y="181.44"/>
      </g>
     </g>
     <g id="text_11">
      <!-- 0.6 -->
      <defs>
       <path d="M 33.015625 40.375 
Q 26.375 40.375 22.484375 35.828125 
Q 18.609375 31.296875 18.609375 23.390625 
Q 18.609375 15.53125 22.484375 10.953125 
Q 26.375 6.390625 33.015625 6.390625 
Q 39.65625 6.390625 43.53125 10.953125 
Q 47.40625 15.53125 47.40625 23.390625 
Q 47.40625 31.296875 43.53125 35.828125 
Q 39.65625 40.375 33.015625 40.375 
M 52.59375 71.296875 
L 52.59375 62.3125 
Q 48.875 64.0625 45.09375 64.984375 
Q 41.3125 65.921875 37.59375 65.921875 
Q 27.828125 65.921875 22.671875 59.328125 
Q 17.53125 52.734375 16.796875 39.40625 
Q 19.671875 43.65625 24.015625 45.921875 
Q 28.375 48.1875 33.59375 48.1875 
Q 44.578125 48.1875 50.953125 41.515625 
Q 57.328125 34.859375 57.328125 23.390625 
Q 57.328125 12.15625 50.6875 5.359375 
Q 44.046875 -1.421875 33.015625 -1.421875 
Q 20.359375 -1.421875 13.671875 8.265625 
Q 6.984375 17.96875 6.984375 36.375 
Q 6.984375 53.65625 15.1875 63.9375 
Q 23.390625 74.21875 37.203125 74.21875 
Q 40.921875 74.21875 44.703125 73.484375 
Q 48.484375 72.75 52.59375 71.296875 
" id="BitstreamVeraSans-Roman-36"/>
      </defs>
      <g transform="translate(48.91625 184.75125)scale(0.12 -0.12)">
       <use xlink:href="#BitstreamVeraSans-Roman-30"/>
       <use x="63.623046875" xlink:href="#BitstreamVeraSans-Roman-2e"/>
       <use x="95.41015625" xlink:href="#BitstreamVeraSans-Roman-36"/>
      </g>
     </g>
    </g>
    <g id="ytick_5">
     <g id="line2d_33">
      <path clip-path="url(#p17158e6fe4)" d="M 72 112.32 
L 518.4 112.32 
" style="fill:none;stroke:#000000;stroke-dasharray:1.000000,3.000000;stroke-dashoffset:0.0;stroke-width:0.5;"/>
     </g>
     <g id="line2d_34">
      <g>
       <use style="stroke:#000000;stroke-width:0.5;" x="72.0" xlink:href="#m60bb4c6717" y="112.32"/>
      </g>
     </g>
     <g id="line2d_35">
      <g>
       <use style="stroke:#000000;stroke-width:0.5;" x="518.4" xlink:href="#mfcc8a7f736" y="112.32"/>
      </g>
     </g>
     <g id="text_12">
      <!-- 0.8 -->
      <defs>
       <path d="M 31.78125 34.625 
Q 24.75 34.625 20.71875 30.859375 
Q 16.703125 27.09375 16.703125 20.515625 
Q 16.703125 13.921875 20.71875 10.15625 
Q 24.75 6.390625 31.78125 6.390625 
Q 38.8125 6.390625 42.859375 10.171875 
Q 46.921875 13.96875 46.921875 20.515625 
Q 46.921875 27.09375 42.890625 30.859375 
Q 38.875 34.625 31.78125 34.625 
M 21.921875 38.8125 
Q 15.578125 40.375 12.03125 44.71875 
Q 8.5 49.078125 8.5 55.328125 
Q 8.5 64.0625 14.71875 69.140625 
Q 20.953125 74.21875 31.78125 74.21875 
Q 42.671875 74.21875 48.875 69.140625 
Q 55.078125 64.0625 55.078125 55.328125 
Q 55.078125 49.078125 51.53125 44.71875 
Q 48 40.375 41.703125 38.8125 
Q 48.828125 37.15625 52.796875 32.3125 
Q 56.78125 27.484375 56.78125 20.515625 
Q 56.78125 9.90625 50.3125 4.234375 
Q 43.84375 -1.421875 31.78125 -1.421875 
Q 19.734375 -1.421875 13.25 4.234375 
Q 6.78125 9.90625 6.78125 20.515625 
Q 6.78125 27.484375 10.78125 32.3125 
Q 14.796875 37.15625 21.921875 38.8125 
M 18.3125 54.390625 
Q 18.3125 48.734375 21.84375 45.5625 
Q 25.390625 42.390625 31.78125 42.390625 
Q 38.140625 42.390625 41.71875 45.5625 
Q 45.3125 48.734375 45.3125 54.390625 
Q 45.3125 60.0625 41.71875 63.234375 
Q 38.140625 66.40625 31.78125 66.40625 
Q 25.390625 66.40625 21.84375 63.234375 
Q 18.3125 60.0625 18.3125 54.390625 
" id="BitstreamVeraSans-Roman-38"/>
      </defs>
      <g transform="translate(48.91625 115.63125)scale(0.12 -0.12)">
       <use xlink:href="#BitstreamVeraSans-Roman-30"/>
       <use x="63.623046875" xlink:href="#BitstreamVeraSans-Roman-2e"/>
       <use x="95.41015625" xlink:href="#BitstreamVeraSans-Roman-38"/>
      </g>
     </g>
    </g>
    <g id="ytick_6">
     <g id="line2d_36">
      <path clip-path="url(#p17158e6fe4)" d="M 72 43.2 
L 518.4 43.2 
" style="fill:none;stroke:#000000;stroke-dasharray:1.000000,3.000000;stroke-dashoffset:0.0;stroke-width:0.5;"/>
     </g>
     <g id="line2d_37">
      <g>
       <use style="stroke:#000000;stroke-width:0.5;" x="72.0" xlink:href="#m60bb4c6717" y="43.2"/>
      </g>
     </g>
     <g id="line2d_38">
      <g>
       <use style="stroke:#000000;stroke-width:0.5;" x="518.4" xlink:href="#mfcc8a7f736" y="43.2"/>
      </g>
     </g>
     <g id="text_13">
      <!-- 1.0 -->
      <g transform="translate(48.91625 46.51125)scale(0.12 -0.12)">
       <use xlink:href="#BitstreamVeraSans-Roman-31"/>
       <use x="63.623046875" xlink:href="#BitstreamVeraSans-Roman-2e"/>
       <use x="95.41015625" xlink:href="#BitstreamVeraSans-Roman-30"/>
      </g>
     </g>
    </g>
    <g id="text_14">
     <!-- Pedal [] -->
     <defs>
      <path d="M 19.671875 64.796875 
L 19.671875 37.40625 
L 32.078125 37.40625 
Q 38.96875 37.40625 42.71875 40.96875 
Q 46.484375 44.53125 46.484375 51.125 
Q 46.484375 57.671875 42.71875 61.234375 
Q 38.96875 64.796875 32.078125 64.796875 
z
M 9.8125 72.90625 
L 32.078125 72.90625 
Q 44.34375 72.90625 50.609375 67.359375 
Q 56.890625 61.8125 56.890625 51.125 
Q 56.890625 40.328125 50.609375 34.8125 
Q 44.34375 29.296875 32.078125 29.296875 
L 19.671875 29.296875 
L 19.671875 0 
L 9.8125 0 
z
" id="BitstreamVeraSans-Roman-50"/>
      <path d="M 45.40625 46.390625 
L 45.40625 75.984375 
L 54.390625 75.984375 
L 54.390625 0 
L 45.40625 0 
L 45.40625 8.203125 
Q 42.578125 3.328125 38.25 0.953125 
Q 33.9375 -1.421875 27.875 -1.421875 
Q 17.96875 -1.421875 11.734375 6.484375 
Q 5.515625 14.40625 5.515625 27.296875 
Q 5.515625 40.1875 11.734375 48.09375 
Q 17.96875 56 27.875 56 
Q 33.9375 56 38.25 53.625 
Q 42.578125 51.265625 45.40625 46.390625 
M 14.796875 27.296875 
Q 14.796875 17.390625 18.875 11.75 
Q 22.953125 6.109375 30.078125 6.109375 
Q 37.203125 6.109375 41.296875 11.75 
Q 45.40625 17.390625 45.40625 27.296875 
Q 45.40625 37.203125 41.296875 42.84375 
Q 37.203125 48.484375 30.078125 48.484375 
Q 22.953125 48.484375 18.875 42.84375 
Q 14.796875 37.203125 14.796875 27.296875 
" id="BitstreamVeraSans-Roman-64"/>
      <path d="M 34.28125 27.484375 
Q 23.390625 27.484375 19.1875 25 
Q 14.984375 22.515625 14.984375 16.5 
Q 14.984375 11.71875 18.140625 8.90625 
Q 21.296875 6.109375 26.703125 6.109375 
Q 34.1875 6.109375 38.703125 11.40625 
Q 43.21875 16.703125 43.21875 25.484375 
L 43.21875 27.484375 
z
M 52.203125 31.203125 
L 52.203125 0 
L 43.21875 0 
L 43.21875 8.296875 
Q 40.140625 3.328125 35.546875 0.953125 
Q 30.953125 -1.421875 24.3125 -1.421875 
Q 15.921875 -1.421875 10.953125 3.296875 
Q 6 8.015625 6 15.921875 
Q 6 25.140625 12.171875 29.828125 
Q 18.359375 34.515625 30.609375 34.515625 
L 43.21875 34.515625 
L 43.21875 35.40625 
Q 43.21875 41.609375 39.140625 45 
Q 35.0625 48.390625 27.6875 48.390625 
Q 23 48.390625 18.546875 47.265625 
Q 14.109375 46.140625 10.015625 43.890625 
L 10.015625 52.203125 
Q 14.9375 54.109375 19.578125 55.046875 
Q 24.21875 56 28.609375 56 
Q 40.484375 56 46.34375 49.84375 
Q 52.203125 43.703125 52.203125 31.203125 
" id="BitstreamVeraSans-Roman-61"/>
      <path d="M 9.421875 75.984375 
L 18.40625 75.984375 
L 18.40625 0 
L 9.421875 0 
z
" id="BitstreamVeraSans-Roman-6c"/>
     </defs>
     <g transform="translate(41.420625 239.0484375)rotate(-90.0)scale(0.12 -0.12)">
      <use xlink:href="#BitstreamVeraSans-Roman-50"/>
      <use x="60.255859375" xlink:href="#BitstreamVeraSans-Roman-65"/>
      <use x="121.779296875" xlink:href="#BitstreamVeraSans-Roman-64"/>
      <use x="185.255859375" xlink:href="#BitstreamVeraSans-Roman-61"/>
      <use x="246.53515625" xlink:href="#BitstreamVeraSans-Roman-6c"/>
      <use x="274.318359375" xlink:href="#BitstreamVeraSans-Roman-20"/>
      <use x="306.10546875" xlink:href="#BitstreamVeraSans-Roman-5b"/>
      <use x="345.119140625" xlink:href="#BitstreamVeraSans-Roman-5d"/>
     </g>
    </g>
   </g>
   <g id="legend_1">
    <g id="patch_7">
     <path d="M 372.99825 96.993 
L 511.2 96.993 
L 511.2 50.4 
L 372.99825 50.4 
z
" style="fill:#ffffff;stroke:#000000;stroke-linejoin:miter;"/>
    </g>
    <g id="line2d_39">
     <path d="M 383.07825 62.06175 
L 403.23825 62.06175 
" style="fill:none;stroke:#008000;stroke-linecap:square;"/>
    </g>
    <g id="line2d_40"/>
    <g id="text_15">
     <!-- Gas pedal -->
     <defs>
      <path d="M 59.515625 10.40625 
L 59.515625 29.984375 
L 43.40625 29.984375 
L 43.40625 38.09375 
L 69.28125 38.09375 
L 69.28125 6.78125 
Q 63.578125 2.734375 56.6875 0.65625 
Q 49.8125 -1.421875 42 -1.421875 
Q 24.90625 -1.421875 15.25 8.5625 
Q 5.609375 18.5625 5.609375 36.375 
Q 5.609375 54.25 15.25 64.234375 
Q 24.90625 74.21875 42 74.21875 
Q 49.125 74.21875 55.546875 72.453125 
Q 61.96875 70.703125 67.390625 67.28125 
L 67.390625 56.78125 
Q 61.921875 61.421875 55.765625 63.765625 
Q 49.609375 66.109375 42.828125 66.109375 
Q 29.4375 66.109375 22.71875 58.640625 
Q 16.015625 51.171875 16.015625 36.375 
Q 16.015625 21.625 22.71875 14.15625 
Q 29.4375 6.6875 42.828125 6.6875 
Q 48.046875 6.6875 52.140625 7.59375 
Q 56.25 8.5 59.515625 10.40625 
" id="BitstreamVeraSans-Roman-47"/>
      <path d="M 18.109375 8.203125 
L 18.109375 -20.796875 
L 9.078125 -20.796875 
L 9.078125 54.6875 
L 18.109375 54.6875 
L 18.109375 46.390625 
Q 20.953125 51.265625 25.265625 53.625 
Q 29.59375 56 35.59375 56 
Q 45.5625 56 51.78125 48.09375 
Q 58.015625 40.1875 58.015625 27.296875 
Q 58.015625 14.40625 51.78125 6.484375 
Q 45.5625 -1.421875 35.59375 -1.421875 
Q 29.59375 -1.421875 25.265625 0.953125 
Q 20.953125 3.328125 18.109375 8.203125 
M 48.6875 27.296875 
Q 48.6875 37.203125 44.609375 42.84375 
Q 40.53125 48.484375 33.40625 48.484375 
Q 26.265625 48.484375 22.1875 42.84375 
Q 18.109375 37.203125 18.109375 27.296875 
Q 18.109375 17.390625 22.1875 11.75 
Q 26.265625 6.109375 33.40625 6.109375 
Q 40.53125 6.109375 44.609375 11.75 
Q 48.6875 17.390625 48.6875 27.296875 
" id="BitstreamVeraSans-Roman-70"/>
     </defs>
     <g transform="translate(419.07825 67.10175)scale(0.144 -0.144)">
      <use xlink:href="#BitstreamVeraSans-Roman-47"/>
      <use x="77.490234375" xlink:href="#BitstreamVeraSans-Roman-61"/>
      <use x="138.76953125" xlink:href="#BitstreamVeraSans-Roman-73"/>
      <use x="190.869140625" xlink:href="#BitstreamVeraSans-Roman-20"/>
      <use x="222.65625" xlink:href="#BitstreamVeraSans-Roman-70"/>
      <use x="286.1328125" xlink:href="#BitstreamVeraSans-Roman-65"/>
      <use x="347.65625" xlink:href="#BitstreamVeraSans-Roman-64"/>
      <use x="411.1328125" xlink:href="#BitstreamVeraSans-Roman-61"/>
      <use x="472.412109375" xlink:href="#BitstreamVeraSans-Roman-6c"/>
     </g>
    </g>
    <g id="line2d_41">
     <path d="M 383.07825 83.19825 
L 403.23825 83.19825 
" style="fill:none;stroke:#ff0000;stroke-linecap:square;"/>
    </g>
    <g id="line2d_42"/>
    <g id="text_16">
     <!-- Brake pedal -->
     <defs>
      <path d="M 41.109375 46.296875 
Q 39.59375 47.171875 37.8125 47.578125 
Q 36.03125 48 33.890625 48 
Q 26.265625 48 22.1875 43.046875 
Q 18.109375 38.09375 18.109375 28.8125 
L 18.109375 0 
L 9.078125 0 
L 9.078125 54.6875 
L 18.109375 54.6875 
L 18.109375 46.1875 
Q 20.953125 51.171875 25.484375 53.578125 
Q 30.03125 56 36.53125 56 
Q 37.453125 56 38.578125 55.875 
Q 39.703125 55.765625 41.0625 55.515625 
z
" id="BitstreamVeraSans-Roman-72"/>
      <path d="M 19.671875 34.8125 
L 19.671875 8.109375 
L 35.5 8.109375 
Q 43.453125 8.109375 47.28125 11.40625 
Q 51.125 14.703125 51.125 21.484375 
Q 51.125 28.328125 47.28125 31.5625 
Q 43.453125 34.8125 35.5 34.8125 
z
M 19.671875 64.796875 
L 19.671875 42.828125 
L 34.28125 42.828125 
Q 41.5 42.828125 45.03125 45.53125 
Q 48.578125 48.25 48.578125 53.8125 
Q 48.578125 59.328125 45.03125 62.0625 
Q 41.5 64.796875 34.28125 64.796875 
z
M 9.8125 72.90625 
L 35.015625 72.90625 
Q 46.296875 72.90625 52.390625 68.21875 
Q 58.5 63.53125 58.5 54.890625 
Q 58.5 48.1875 55.375 44.234375 
Q 52.25 40.28125 46.1875 39.3125 
Q 53.46875 37.75 57.5 32.78125 
Q 61.53125 27.828125 61.53125 20.40625 
Q 61.53125 10.640625 54.890625 5.3125 
Q 48.25 0 35.984375 0 
L 9.8125 0 
z
" id="BitstreamVeraSans-Roman-42"/>
      <path d="M 9.078125 75.984375 
L 18.109375 75.984375 
L 18.109375 31.109375 
L 44.921875 54.6875 
L 56.390625 54.6875 
L 27.390625 29.109375 
L 57.625 0 
L 45.90625 0 
L 18.109375 26.703125 
L 18.109375 0 
L 9.078125 0 
z
" id="BitstreamVeraSans-Roman-6b"/>
     </defs>
     <g transform="translate(419.07825 88.23825)scale(0.144 -0.144)">
      <use xlink:href="#BitstreamVeraSans-Roman-42"/>
      <use x="68.603515625" xlink:href="#BitstreamVeraSans-Roman-72"/>
      <use x="109.716796875" xlink:href="#BitstreamVeraSans-Roman-61"/>
      <use x="170.99609375" xlink:href="#BitstreamVeraSans-Roman-6b"/>
      <use x="228.859375" xlink:href="#BitstreamVeraSans-Roman-65"/>
      <use x="290.3828125" xlink:href="#BitstreamVeraSans-Roman-20"/>
      <use x="322.169921875" xlink:href="#BitstreamVeraSans-Roman-70"/>
      <use x="385.646484375" xlink:href="#BitstreamVeraSans-Roman-65"/>
      <use x="447.169921875" xlink:href="#BitstreamVeraSans-Roman-64"/>
      <use x="510.646484375" xlink:href="#BitstreamVeraSans-Roman-61"/>
      <use x="571.92578125" xlink:href="#BitstreamVeraSans-Roman-6c"/>
     </g>
    </g>
   </g>
  </g>
 </g>
 <defs>
  <clipPath id="p17158e6fe4">
   <rect height="345.6" width="446.4" x="72.0" y="43.2"/>
  </clipPath>
 </defs>
</svg>
