<?xml version="1.0" encoding="utf-8" standalone="no"?>
<!DOCTYPE svg PUBLIC "-//W3C//DTD SVG 1.1//EN"
  "http://www.w3.org/Graphics/SVG/1.1/DTD/svg11.dtd">
<!-- Created with matplotlib (http://matplotlib.org/) -->
<svg height="432pt" version="1.1" viewBox="0 0 576 432" width="576pt" xmlns="http://www.w3.org/2000/svg" xmlns:xlink="http://www.w3.org/1999/xlink">
 <defs>
  <style type="text/css">
*{stroke-linecap:butt;stroke-linejoin:round;stroke-miterlimit:100000;}
  </style>
 </defs>
 <g id="figure_1">
  <g id="patch_1">
   <path d="M 0 432 
L 576 432 
L 576 0 
L 0 0 
z
" style="fill:#ffffff;"/>
  </g>
  <g id="axes_1">
   <g id="patch_2">
    <path d="M 72 388.8 
L 518.4 388.8 
L 518.4 43.2 
L 72 43.2 
z
" style="fill:#ffffff;"/>
   </g>
   <g id="line2d_1">
    <path clip-path="url(#p36c8e5e348)" d="M 72.08928 96.064556 
L 83.87424 96.064556 
L 83.96352 82.710642 
L 84.0528 83.935487 
L 85.392 101.992387 
L 86.7312 120.304477 
L 88.0704 138.011655 
L 88.69536 146.291277 
L 90.03456 163.540338 
L 90.83808 171.059079 
L 92.9808 187.039828 
L 94.94496 199.056354 
L 95.48064 202.272684 
L 96.9984 211.536118 
L 97.08768 211.987207 
L 97.35552 214.204926 
L 97.4448 214.657452 
L 97.71264 217.386319 
L 97.98048 218.431284 
L 98.06976 217.926544 
L 99.40896 226.147055 
L 100.1232 230.375729 
L 101.19456 236.892188 
L 101.9088 241.168378 
L 102.89088 247.148346 
L 103.6944 251.941809 
L 104.5872 257.3729 
L 105.56928 263.172583 
L 106.3728 268.045148 
L 107.53344 274.876904 
L 108.24768 279.18045 
L 109.40832 286.090503 
L 110.21184 291.075513 
L 111.46176 298.56438 
L 112.176 302.969495 
L 113.24736 309.54126 
L 113.9616 313.992572 
L 115.12224 321.141431 
L 115.92576 326.293835 
L 117.0864 333.524908 
L 118.24704 341.465131 
L 118.33632 341.465131 
L 119.22912 348.376575 
L 119.3184 347.75376 
L 120.12192 353.029248 
L 120.30048 354.07738 
L 120.56832 356.463776 
L 121.90752 364.565881 
L 121.9968 363.975165 
L 122.08608 364.100812 
L 122.26464 360.841864 
L 123.15744 349.759406 
L 123.24672 349.759406 
L 123.336 348.227417 
L 123.42528 348.789954 
L 124.13952 336.503925 
L 124.2288 336.162433 
L 124.49664 332.852271 
L 124.58592 332.852271 
L 124.76448 329.41864 
L 125.1216 326.096191 
L 125.21088 326.104285 
L 125.38944 322.775702 
L 126.0144 315.065735 
L 126.37152 309.853821 
L 126.4608 309.502057 
L 127.26432 299.289166 
L 127.44288 296.536578 
L 127.88928 289.609772 
L 127.97856 289.609772 
L 128.06784 289.250281 
L 129.1392 274.257092 
L 129.22848 273.891925 
L 129.49632 270.469958 
L 129.67488 267.041785 
L 130.4784 256.641504 
L 133.33536 220.558557 
L 133.78176 213.483252 
L 133.87104 213.095819 
L 134.67456 202.373108 
L 135.29952 195.742996 
L 136.01376 190.980231 
L 136.37088 188.432776 
L 136.46016 189.019052 
L 136.54944 187.82244 
L 136.63872 188.409027 
L 137.79936 180.361505 
L 138.42432 176.052402 
L 139.58496 167.912714 
L 140.20992 163.554391 
L 141.6384 152.852307 
L 141.72768 154.043848 
L 142.26336 149.628877 
L 142.35264 150.225769 
L 142.88832 145.632069 
L 142.9776 146.23011 
L 143.60256 141.782657 
L 143.8704 134.422252 
L 144.94176 114.91439 
L 145.83456 99.64791 
L 145.92384 99.64791 
L 146.28096 93.386802 
L 146.37024 93.386802 
L 146.63808 88.62899 
L 146.72736 88.62899 
L 147.08448 82.984448 
L 147.17376 82.984448 
L 147.53088 77.650582 
L 147.62016 77.650582 
L 148.51296 66.881248 
L 148.60224 66.881248 
L 148.95936 62.836989 
L 149.04864 62.836989 
L 149.6736 58.6946 
L 151.0128 51.006981 
L 151.63776 48.462314 
L 151.81632 48.633506 
L 152.08416 50.35946 
L 152.26272 50.363791 
L 152.352 50.532518 
L 152.44128 52.420853 
L 152.53056 52.255417 
L 152.88768 52.262542 
L 152.97696 52.097131 
L 153.15552 54.153044 
L 153.33408 54.155907 
L 153.42336 53.990419 
L 153.51264 54.158828 
L 153.60192 53.993328 
L 153.78048 56.213731 
L 153.95904 55.883578 
L 154.1376 55.885387 
L 154.22688 56.219978 
L 154.40544 55.88903 
L 154.49472 56.223546 
L 154.67328 57.942728 
L 154.76256 58.11069 
L 154.94112 57.779794 
L 155.11968 57.946944 
L 155.29824 57.950212 
L 155.38752 59.834177 
L 155.4768 59.668609 
L 155.56608 59.503166 
L 155.74464 59.67098 
L 156.28032 59.675551 
L 156.45888 61.726346 
L 156.63744 61.560844 
L 156.72672 61.561578 
L 156.90528 61.396774 
L 156.99456 61.563663 
L 157.08384 61.398198 
L 157.17312 61.565073 
L 157.2624 61.399619 
L 157.44096 63.281978 
L 157.61952 63.283325 
L 157.79808 63.450659 
L 157.97664 63.285173 
L 158.6016 63.288454 
L 158.78016 65.170597 
L 159.048 65.171697 
L 159.22656 65.006266 
L 159.31584 65.172911 
L 159.40512 65.006822 
L 159.58368 65.174011 
L 159.76224 65.008604 
L 159.85152 65.009188 
L 159.9408 65.175805 
L 160.03008 65.009744 
L 160.11936 65.176354 
L 160.29792 67.057029 
L 160.47648 67.05757 
L 160.56576 66.891527 
L 160.65504 66.975093 
L 160.92288 66.72659 
L 161.01216 66.893111 
L 161.10144 66.727143 
L 161.19072 66.893658 
L 161.28 66.727638 
L 161.36928 66.894175 
L 161.45856 66.728161 
L 161.54784 66.894665 
L 161.63712 66.728657 
L 161.7264 66.895155 
L 161.81568 66.72921 
L 161.90496 66.895702 
L 161.99424 66.729762 
L 162.08352 66.896247 
L 162.26208 68.776134 
L 162.35136 68.859547 
L 162.70848 68.611123 
L 162.97632 68.611552 
L 163.0656 68.777941 
L 163.24416 68.611981 
L 163.42272 68.612496 
L 163.512 68.778874 
L 163.69056 68.612925 
L 163.86912 68.613412 
L 163.9584 68.779721 
L 164.04768 68.613841 
L 164.13696 68.780201 
L 164.22624 68.61427 
L 164.4048 68.780625 
L 164.49408 68.614756 
L 164.67264 70.493911 
L 164.8512 70.660188 
L 165.02976 70.328359 
L 165.20832 70.494636 
L 165.65472 70.495085 
L 165.744 70.329183 
L 165.92256 70.495448 
L 166.01184 70.495448 
L 166.10112 70.661702 
L 166.27968 70.495869 
L 166.54752 70.496231 
L 166.6368 70.662473 
L 166.90464 70.330772 
L 167.0832 70.497014 
L 167.44032 70.497434 
L 167.5296 70.663659 
L 167.61888 70.497797 
L 167.70816 70.664016 
L 167.88672 72.3761 
L 168.06528 72.210301 
L 168.69024 72.210301 
L 168.8688 72.376453 
L 168.95808 72.376453 
L 169.13664 72.210661 
L 169.49376 72.210661 
L 169.67232 72.376836 
L 169.94016 72.210992 
L 170.02944 72.210992 
L 170.208 72.377133 
L 170.38656 72.377075 
L 170.56512 72.211295 
L 170.74368 72.37743 
L 171.9936 72.378434 
L 172.08288 72.212619 
L 172.26144 72.378731 
L 172.97568 72.379381 
L 173.06496 72.545469 
L 173.24352 72.379735 
L 173.42208 74.257206 
L 173.68992 73.925364 
L 173.7792 73.925364 
L 174.04704 72.213944 
L 174.2256 72.213944 
L 174.40416 74.257206 
L 174.58272 74.257206 
L 174.85056 73.925364 
L 175.20768 73.925364 
L 175.38624 74.091155 
L 175.65408 74.091155 
L 175.92192 72.213944 
L 176.10048 74.091155 
L 177.26112 74.091155 
L 177.43968 74.257206 
L 177.61824 74.257206 
L 177.7968 74.09142 
L 178.42176 74.09142 
L 178.60032 74.257436 
L 178.6896 74.257436 
L 178.86816 74.091656 
L 179.136 74.091656 
L 179.31456 74.257666 
L 179.49312 74.257666 
L 179.67168 74.09195 
L 179.85024 74.257954 
L 180.0288 74.257954 
L 180.11808 74.092243 
L 180.29664 74.258241 
L 180.38592 74.258241 
L 180.4752 74.09248 
L 180.65376 74.258472 
L 180.74304 74.258472 
L 180.83232 74.092716 
L 181.01088 74.258703 
L 181.45728 74.25899 
L 181.54656 74.093303 
L 181.72512 74.259278 
L 181.8144 74.259278 
L 181.90368 74.093539 
L 182.08224 74.259537 
L 182.52864 74.259768 
L 182.7072 76.136414 
L 182.79648 76.136414 
L 182.97504 75.135754 
L 183.1536 74.09404 
L 183.42144 74.09404 
L 183.6 76.136414 
L 183.68928 76.136414 
L 183.77856 75.970523 
L 184.13568 74.09404 
L 184.31424 76.136414 
L 184.4928 75.970523 
L 184.84992 74.09404 
L 185.02848 76.136414 
L 185.20704 76.136414 
L 185.3856 75.804854 
L 185.65344 74.09404 
L 185.832 76.136414 
L 186.09984 76.136414 
L 186.36768 75.804854 
L 186.54624 75.804854 
L 186.81408 74.09404 
L 186.90336 74.259998 
L 187.08192 76.136414 
L 187.1712 76.302294 
L 187.52832 75.805087 
L 187.6176 75.805087 
L 187.88544 76.136636 
L 188.064 76.136636 
L 188.15328 75.805087 
L 188.33184 75.970978 
L 188.5104 76.053778 
L 188.59968 76.136636 
L 188.77824 75.970978 
L 189.76032 75.970978 
L 189.93888 76.136857 
L 190.11744 76.136857 
L 190.296 75.971148 
L 190.65312 75.971148 
L 190.83168 76.137021 
L 191.01024 76.137021 
L 191.1888 75.971318 
L 191.36736 75.971318 
L 191.54592 76.137186 
L 191.72448 76.137186 
L 191.81376 75.971545 
L 191.99232 76.137407 
L 192.17088 76.137407 
L 192.34944 75.971773 
L 192.528 76.137629 
L 192.70656 76.137571 
L 192.79584 75.971943 
L 192.9744 76.137793 
L 194.40288 76.138593 
L 194.58144 78.014281 
L 194.84928 77.682858 
L 195.11712 75.641259 
L 195.29568 75.972766 
L 195.38496 75.972766 
L 195.56352 76.138593 
L 195.74208 78.014281 
L 195.83136 78.179972 
L 196.00992 77.848624 
L 196.0992 77.848624 
L 196.36704 75.807103 
L 196.45632 75.807103 
L 196.72416 76.138593 
L 196.90272 78.18003 
L 197.08128 77.848624 
L 197.17056 77.848624 
L 197.34912 76.850988 
L 197.4384 76.184781 
L 197.61696 78.786383 
L 197.97408 78.703464 
L 198.06336 78.620539 
L 198.15264 78.703347 
L 198.3312 78.620405 
L 198.42048 78.703216 
L 198.50976 78.620314 
L 198.68832 78.703128 
L 198.7776 78.620195 
L 198.86688 78.70304 
L 199.04544 78.620104 
L 199.84896 78.561753 
L 200.02752 78.4788 
L 200.1168 78.549735 
L 200.65248 77.097497 
L 200.92032 77.168394 
L 201.0096 76.960111 
L 201.18816 77.043124 
L 201.36672 76.763954 
L 201.63456 77.441125 
L 201.81312 77.232713 
L 202.17024 77.036517 
L 202.25952 77.036517 
L 202.52736 76.631981 
L 202.61664 76.631981 
L 202.97376 76.310527 
L 203.42016 76.043711 
L 203.50944 76.043711 
L 203.86656 75.722447 
L 204.5808 75.147085 
L 204.84864 75.907144 
L 204.93792 75.751461 
L 205.11648 75.763816 
L 205.38432 75.372022 
L 205.56288 75.384418 
L 205.74144 75.188613 
L 205.83072 75.201029 
L 205.92 74.992821 
L 206.00928 75.075845 
L 206.27712 74.80953 
L 206.72352 76.029503 
L 206.8128 76.02806 
L 206.99136 76.642837 
L 207.79488 78.572594 
L 207.88416 78.572594 
L 208.152 79.090107 
L 208.24128 79.090107 
L 208.50912 79.594607 
L 208.5984 79.385428 
L 208.68768 79.527824 
L 208.77696 79.95957 
L 208.86624 79.876736 
L 209.22336 80.520526 
L 209.58048 81.093495 
L 209.66976 81.010693 
L 212.25888 89.403203 
L 214.22304 93.916841 
L 214.75872 94.565155 
L 214.93728 94.753911 
L 216.27648 96.183717 
L 216.45504 96.290468 
L 216.6336 96.533281 
L 216.81216 96.640155 
L 216.99072 96.994924 
L 217.34784 97.291618 
L 217.9728 97.968347 
L 221.00832 89.83914 
L 221.36544 89.006471 
L 221.81184 87.923118 
L 221.90112 87.923118 
L 222.16896 87.089104 
L 222.79392 85.753474 
L 223.15104 84.91794 
L 223.24032 84.91794 
L 223.50816 84.635251 
L 224.2224 84.534464 
L 224.40096 84.361069 
L 224.49024 84.261915 
L 224.75808 84.39856 
L 225.47232 84.376577 
L 225.65088 84.277938 
L 226.09728 84.302901 
L 226.27584 84.372143 
L 226.99008 84.355763 
L 227.16864 84.257801 
L 227.43648 84.31367 
L 227.52576 84.383665 
L 227.70432 84.272141 
L 228.06144 84.315109 
L 228.24 84.385516 
L 228.32928 84.204121 
L 228.59712 84.345314 
L 228.6864 84.164066 
L 228.95424 84.305677 
L 229.04352 84.20857 
L 229.66848 84.62254 
L 229.84704 84.68126 
L 230.65056 85.242502 
L 230.82912 85.30248 
L 231.54336 85.796816 
L 231.72192 85.857804 
L 232.34688 86.283599 
L 232.52544 86.345634 
L 232.97184 86.627994 
L 233.1504 86.633275 
L 233.5968 86.917567 
L 233.77536 86.981126 
L 233.86464 87.055139 
L 234.0432 86.758105 
L 234.4896 86.77616 
L 234.936 87.064693 
L 235.29312 86.812827 
L 235.47168 86.741095 
L 235.91808 87.032732 
L 236.09664 87.099126 
L 236.18592 87.123938 
L 236.36448 87.074726 
L 236.7216 87.017887 
L 237.07872 87.237424 
L 237.34656 87.136221 
L 237.52512 87.056116 
L 237.70368 86.930089 
L 237.97152 87.083241 
L 238.15008 87.159155 
L 238.41792 87.315814 
L 238.68576 87.323605 
L 238.9536 86.889634 
L 239.31072 87.130287 
L 239.57856 87.206869 
L 239.75712 87.227982 
L 240.38208 87.187016 
L 240.7392 87.436085 
L 241.00704 87.42766 
L 241.27488 87.055677 
L 241.54272 86.9999 
L 241.89984 87.254875 
L 242.70336 87.23584 
L 242.79264 86.976333 
L 243.06048 87.150816 
L 243.32832 87.239841 
L 243.59616 87.403316 
L 243.77472 87.029731 
L 244.04256 86.929989 
L 244.39968 87.198893 
L 245.02464 87.113941 
L 245.47104 87.072809 
L 245.73888 87.170065 
L 245.91744 87.265075 
L 246.18528 87.205753 
L 246.36384 87.136303 
L 246.5424 86.735172 
L 246.81024 86.620545 
L 246.9888 86.717651 
L 247.25664 86.8197 
L 247.4352 86.918306 
L 247.79232 86.718581 
L 248.23872 86.661719 
L 248.50656 86.768236 
L 248.68512 86.834869 
L 249.75648 86.53683 
L 250.02432 86.724106 
L 250.82784 86.181194 
L 251.0064 85.87928 
L 251.27424 85.994698 
L 251.54208 86.204015 
L 251.98848 86.216985 
L 252.3456 85.65649 
L 252.70272 85.982283 
L 253.05984 86.104818 
L 253.14912 86.208486 
L 253.41696 85.681667 
L 253.50624 85.715653 
L 253.6848 85.520998 
L 253.95264 85.740839 
L 254.22048 85.867845 
L 254.39904 85.948173 
L 254.84544 85.152495 
L 254.93472 85.088193 
L 255.024 85.194699 
L 255.11328 84.980413 
L 255.38112 85.205864 
L 255.64896 85.337352 
L 255.73824 85.445245 
L 255.82752 85.37387 
L 255.9168 85.482101 
L 256.00608 85.262121 
L 256.09536 85.370617 
L 256.27392 85.104339 
L 256.54176 84.510318 
L 256.8096 84.741712 
L 257.07744 84.878012 
L 257.256 84.866002 
L 257.34528 84.879847 
L 257.61312 84.625322 
L 257.7024 84.639415 
L 257.88096 84.517921 
L 258.05952 84.643995 
L 258.23808 84.665325 
L 258.50592 84.397601 
L 258.5952 84.412574 
L 258.86304 84.140998 
L 258.95232 84.156209 
L 259.22016 83.880721 
L 259.488 84.025725 
L 259.75584 84.270668 
L 259.84512 84.287022 
L 260.02368 83.865032 
L 260.29152 83.438896 
L 260.3808 83.455306 
L 260.64864 83.159165 
L 260.73792 83.07446 
L 261.00576 83.323916 
L 261.45216 83.407108 
L 261.54144 83.243305 
L 261.63072 83.361018 
L 261.72 83.09613 
L 261.80928 83.214111 
L 261.89856 82.947886 
L 262.1664 83.202867 
L 262.25568 83.221265 
L 262.34496 83.117812 
L 262.43424 82.816211 
L 262.52352 82.935412 
L 262.79136 82.605821 
L 262.88064 82.581127 
L 263.14848 82.220905 
L 263.23776 82.239933 
L 263.32704 82.061492 
L 263.59488 82.322068 
L 263.952 82.290864 
L 264.04128 82.293444 
L 264.21984 82.058749 
L 264.30912 82.060511 
L 264.48768 81.892667 
L 264.66624 82.035645 
L 264.93408 82.254775 
L 265.11264 82.013861 
L 265.20192 82.011931 
L 265.46976 81.663793 
L 265.64832 81.589732 
L 265.82688 81.735929 
L 265.91616 81.860799 
L 266.184 81.325517 
L 266.45184 80.962415 
L 266.80896 80.690403 
L 267.16608 81.089777 
L 267.79104 80.463988 
L 267.88032 80.280137 
L 268.23744 80.63131 
L 268.416 80.549662 
L 268.95168 79.971038 
L 269.04096 80.100815 
L 269.21952 80.29795 
L 269.7552 79.339194 
L 270.91584 77.671127 
L 271.00512 77.735755 
L 271.63008 76.809449 
L 271.80864 76.946786 
L 271.9872 76.664305 
L 272.4336 75.955429 
L 272.61216 76.089213 
L 273.3264 75.147217 
L 273.50496 75.41753 
L 273.68352 75.900346 
L 274.04064 75.350187 
L 274.12992 75.560703 
L 274.2192 75.451698 
L 274.48704 74.835871 
L 274.75488 74.435916 
L 274.84416 74.780432 
L 275.02272 74.452206 
L 275.112 74.525662 
L 275.37984 74.123714 
L 275.46912 74.26135 
L 275.5584 74.319588 
L 275.91552 73.805855 
L 276.0048 73.805855 
L 276.27264 74.653114 
L 276.36192 74.580428 
L 276.4512 74.287403 
L 276.54048 74.358159 
L 276.62976 74.210615 
L 276.80832 74.402999 
L 277.344 73.625328 
L 277.52256 73.777318 
L 277.96896 73.470743 
L 278.41536 74.028199 
L 278.59392 73.617362 
L 278.77248 73.840283 
L 278.86176 73.840283 
L 279.21888 73.238213 
L 279.66528 73.824496 
L 279.75456 73.82791 
L 279.84384 73.709594 
L 279.93312 73.965298 
L 280.0224 73.892784 
L 280.20096 73.665367 
L 280.29024 73.665367 
L 280.4688 73.267473 
L 280.73664 73.556717 
L 280.82592 73.589386 
L 281.00448 73.871174 
L 281.09376 73.754859 
L 281.18304 74.012861 
L 281.27232 73.934653 
L 281.54016 73.516143 
L 281.71872 73.32225 
L 282.16512 74.078755 
L 282.34368 73.795391 
L 282.43296 74.05569 
L 282.7008 73.734412 
L 283.1472 74.509629 
L 283.5936 73.890547 
L 283.77216 74.039699 
L 283.95072 74.225253 
L 284.12928 74.511702 
L 284.39712 74.201464 
L 284.57568 74.465759 
L 284.84352 74.900506 
L 284.9328 74.74453 
L 285.11136 75.009748 
L 285.28992 74.662646 
L 285.73632 75.271429 
L 285.8256 75.284388 
L 286.00416 75.066795 
L 286.45056 75.780329 
L 286.80768 75.571739 
L 287.07552 76.150086 
L 287.1648 76.054292 
L 287.25408 76.076545 
L 287.52192 75.80123 
L 287.78976 76.612792 
L 288.0576 76.305243 
L 288.14688 76.461788 
L 288.504 77.00984 
L 288.68256 76.771458 
L 289.12896 77.477224 
L 289.21824 77.397578 
L 289.3968 77.078569 
L 289.66464 78.060981 
L 290.02176 77.545278 
L 290.20032 77.750153 
L 290.2896 77.750153 
L 290.82528 78.54135 
L 290.91456 78.54135 
L 291.27168 79.48474 
L 291.45024 79.673269 
L 291.71808 79.270787 
L 291.89664 79.434081 
L 292.0752 79.645536 
L 292.25376 79.901748 
L 292.5216 80.114762 
L 292.968 81.254787 
L 293.05728 81.280771 
L 293.23584 81.047383 
L 293.50368 81.890755 
L 293.77152 81.647697 
L 294.66432 83.12073 
L 294.7536 83.131133 
L 295.28928 83.968401 
L 295.46784 84.192632 
L 295.55712 84.479635 
L 295.6464 84.375885 
L 295.82496 84.834384 
L 296.18208 84.604891 
L 296.36064 85.065242 
L 296.44992 84.960303 
L 296.62848 84.670969 
L 296.80704 85.132788 
L 296.89632 85.089142 
L 297.07488 84.844643 
L 297.34272 85.263797 
L 297.61056 84.726189 
L 297.69984 84.63802 
L 297.96768 85.277075 
L 298.05696 85.187625 
L 298.14624 85.126168 
L 298.23552 84.919447 
L 298.41408 85.492077 
L 298.7712 84.930397 
L 298.94976 85.503957 
L 299.12832 85.25886 
L 299.2176 85.177076 
L 299.39616 86.003931 
L 299.75328 85.553288 
L 299.93184 85.980531 
L 300.28896 85.607522 
L 300.46752 86.110459 
L 300.73536 86.007442 
L 300.91392 85.643655 
L 301.09248 86.235948 
L 301.27104 85.949373 
L 301.36032 85.949373 
L 301.62816 86.663882 
L 301.71744 86.500251 
L 302.07456 86.129887 
L 302.25312 86.676541 
L 302.43168 86.394416 
L 302.61024 86.252175 
L 302.7888 86.849355 
L 303.32448 86.18065 
L 303.59232 87.07104 
L 303.86016 86.809019 
L 304.03872 87.293081 
L 304.5744 86.82048 
L 304.75296 87.422763 
L 305.11008 87.019847 
L 305.37792 87.819254 
L 305.82432 87.427352 
L 306.00288 87.914505 
L 306.27072 87.705603 
L 306.53856 87.422058 
L 306.8064 88.267085 
L 307.2528 87.891138 
L 307.43136 88.44517 
L 307.6992 88.236277 
L 307.96704 87.968429 
L 308.1456 88.578292 
L 308.41344 88.332052 
L 308.68128 88.062894 
L 308.77056 88.122911 
L 308.85984 88.018189 
L 309.12768 88.815304 
L 309.57408 88.405348 
L 309.75264 88.993878 
L 310.02048 88.867228 
L 310.28832 88.62044 
L 310.46688 89.209813 
L 310.55616 89.165517 
L 310.91328 88.868929 
L 311.09184 88.729484 
L 311.18112 88.622172 
L 311.44896 89.608397 
L 311.53824 89.501341 
L 312.07392 88.970904 
L 312.25248 89.667511 
L 312.6096 89.418361 
L 312.78816 89.256097 
L 312.96672 89.173691 
L 313.14528 89.681851 
L 313.32384 89.599606 
L 313.77024 89.270222 
L 313.85952 89.308355 
L 314.12736 90.128761 
L 314.30592 90.04646 
L 314.66304 89.72413 
L 314.75232 89.733976 
L 314.93088 90.308359 
L 315.288 90.09978 
L 315.37728 90.109708 
L 315.64512 89.814178 
L 315.82368 90.443748 
L 316.09152 90.240702 
L 316.1808 90.279179 
L 316.53792 90.002498 
L 316.71648 89.949552 
L 317.16288 90.730228 
L 317.43072 90.51347 
L 317.52 90.51347 
L 317.78784 90.295522 
L 317.9664 90.992762 
L 318.05568 90.879852 
L 318.32352 90.715085 
L 318.50208 90.663229 
L 318.8592 90.37699 
L 318.94848 90.415653 
L 319.12704 90.731023 
L 518.4 90.731023 
L 518.4 90.731023 
" style="fill:none;stroke:#008000;stroke-linecap:square;"/>
   </g>
   <g id="line2d_2">
    <path clip-path="url(#p36c8e5e348)" d="M 72.08928 81.6 
L 84.58848 81.694525 
L 85.392 82.008409 
L 86.2848 82.61699 
L 87.1776 83.494726 
L 88.15968 84.769888 
L 89.23104 86.205533 
L 140.47776 86.205533 
L 141.99552 89.25193 
L 142.26336 89.846171 
L 144.3168 93.06538 
L 145.12032 93.775061 
L 145.83456 94.173069 
L 146.19168 94.266685 
L 146.90592 94.365831 
L 147.79872 94.330484 
L 149.13792 93.969233 
L 150.92352 92.986343 
L 154.49472 90.482144 
L 157.17312 89.072367 
L 159.22656 88.189977 
L 162.52992 86.99463 
L 166.99392 85.71298 
L 170.29728 84.940343 
L 176.63616 83.643761 
L 185.832 82.089731 
L 198.86688 80.483996 
L 202.43808 80.11719 
L 203.50944 79.970162 
L 209.40192 79.272041 
L 211.2768 79.356038 
L 212.88384 79.651579 
L 214.848 80.22499 
L 216.90144 80.989514 
L 220.91904 82.365074 
L 221.544 82.46183 
L 223.3296 82.64044 
L 228.32928 82.896117 
L 233.1504 83.315123 
L 255.64896 85.965038 
L 260.55936 86.261106 
L 266.80896 86.353132 
L 271.27296 86.174359 
L 274.75488 85.761417 
L 275.73696 85.612448 
L 286.7184 84.089355 
L 287.78976 83.979571 
L 292.0752 83.688629 
L 295.2 83.702068 
L 297.34272 83.808879 
L 304.128 84.334409 
L 310.64544 85.075004 
L 311.53824 85.19105 
L 319.03776 86.286332 
L 319.21632 81.6 
L 518.4 81.6 
L 518.4 81.6 
" style="fill:none;stroke:#0000ff;stroke-linecap:square;"/>
   </g>
   <g id="patch_3">
    <path d="M 72 43.2 
L 518.4 43.2 
" style="fill:none;stroke:#000000;stroke-linecap:square;stroke-linejoin:miter;"/>
   </g>
   <g id="patch_4">
    <path d="M 518.4 388.8 
L 518.4 43.2 
" style="fill:none;stroke:#000000;stroke-linecap:square;stroke-linejoin:miter;"/>
   </g>
   <g id="patch_5">
    <path d="M 72 388.8 
L 518.4 388.8 
" style="fill:none;stroke:#000000;stroke-linecap:square;stroke-linejoin:miter;"/>
   </g>
   <g id="patch_6">
    <path d="M 72 388.8 
L 72 43.2 
" style="fill:none;stroke:#000000;stroke-linecap:square;stroke-linejoin:miter;"/>
   </g>
   <g id="matplotlib.axis_1">
    <g id="xtick_1">
     <g id="line2d_3">
      <path clip-path="url(#p36c8e5e348)" d="M 72 388.8 
L 72 43.2 
" style="fill:none;stroke:#000000;stroke-dasharray:1.000000,3.000000;stroke-dashoffset:0.0;stroke-width:0.5;"/>
     </g>
     <g id="line2d_4">
      <defs>
       <path d="M 0 0 
L 0 -4 
" id="m5278b75489" style="stroke:#000000;stroke-width:0.5;"/>
      </defs>
      <g>
       <use style="stroke:#000000;stroke-width:0.5;" x="72.0" xlink:href="#m5278b75489" y="388.8"/>
      </g>
     </g>
     <g id="line2d_5">
      <defs>
       <path d="M 0 0 
L 0 4 
" id="m26b4dc9d57" style="stroke:#000000;stroke-width:0.5;"/>
      </defs>
      <g>
       <use style="stroke:#000000;stroke-width:0.5;" x="72.0" xlink:href="#m26b4dc9d57" y="43.2"/>
      </g>
     </g>
     <g id="text_1">
      <!-- 0 -->
      <defs>
       <path d="M 31.78125 66.40625 
Q 24.171875 66.40625 20.328125 58.90625 
Q 16.5 51.421875 16.5 36.375 
Q 16.5 21.390625 20.328125 13.890625 
Q 24.171875 6.390625 31.78125 6.390625 
Q 39.453125 6.390625 43.28125 13.890625 
Q 47.125 21.390625 47.125 36.375 
Q 47.125 51.421875 43.28125 58.90625 
Q 39.453125 66.40625 31.78125 66.40625 
M 31.78125 74.21875 
Q 44.046875 74.21875 50.515625 64.515625 
Q 56.984375 54.828125 56.984375 36.375 
Q 56.984375 17.96875 50.515625 8.265625 
Q 44.046875 -1.421875 31.78125 -1.421875 
Q 19.53125 -1.421875 13.0625 8.265625 
Q 6.59375 17.96875 6.59375 36.375 
Q 6.59375 54.828125 13.0625 64.515625 
Q 19.53125 74.21875 31.78125 74.21875 
" id="BitstreamVeraSans-Roman-30"/>
      </defs>
      <g transform="translate(68.1825 401.918125)scale(0.12 -0.12)">
       <use xlink:href="#BitstreamVeraSans-Roman-30"/>
      </g>
     </g>
    </g>
    <g id="xtick_2">
     <g id="line2d_6">
      <path clip-path="url(#p36c8e5e348)" d="M 161.28 388.8 
L 161.28 43.2 
" style="fill:none;stroke:#000000;stroke-dasharray:1.000000,3.000000;stroke-dashoffset:0.0;stroke-width:0.5;"/>
     </g>
     <g id="line2d_7">
      <g>
       <use style="stroke:#000000;stroke-width:0.5;" x="161.28" xlink:href="#m5278b75489" y="388.8"/>
      </g>
     </g>
     <g id="line2d_8">
      <g>
       <use style="stroke:#000000;stroke-width:0.5;" x="161.28" xlink:href="#m26b4dc9d57" y="43.2"/>
      </g>
     </g>
     <g id="text_2">
      <!-- 10 -->
      <defs>
       <path d="M 12.40625 8.296875 
L 28.515625 8.296875 
L 28.515625 63.921875 
L 10.984375 60.40625 
L 10.984375 69.390625 
L 28.421875 72.90625 
L 38.28125 72.90625 
L 38.28125 8.296875 
L 54.390625 8.296875 
L 54.390625 0 
L 12.40625 0 
z
" id="BitstreamVeraSans-Roman-31"/>
      </defs>
      <g transform="translate(153.645 401.918125)scale(0.12 -0.12)">
       <use xlink:href="#BitstreamVeraSans-Roman-31"/>
       <use x="63.623046875" xlink:href="#BitstreamVeraSans-Roman-30"/>
      </g>
     </g>
    </g>
    <g id="xtick_3">
     <g id="line2d_9">
      <path clip-path="url(#p36c8e5e348)" d="M 250.56 388.8 
L 250.56 43.2 
" style="fill:none;stroke:#000000;stroke-dasharray:1.000000,3.000000;stroke-dashoffset:0.0;stroke-width:0.5;"/>
     </g>
     <g id="line2d_10">
      <g>
       <use style="stroke:#000000;stroke-width:0.5;" x="250.56" xlink:href="#m5278b75489" y="388.8"/>
      </g>
     </g>
     <g id="line2d_11">
      <g>
       <use style="stroke:#000000;stroke-width:0.5;" x="250.56" xlink:href="#m26b4dc9d57" y="43.2"/>
      </g>
     </g>
     <g id="text_3">
      <!-- 20 -->
      <defs>
       <path d="M 19.1875 8.296875 
L 53.609375 8.296875 
L 53.609375 0 
L 7.328125 0 
L 7.328125 8.296875 
Q 12.9375 14.109375 22.625 23.890625 
Q 32.328125 33.6875 34.8125 36.53125 
Q 39.546875 41.84375 41.421875 45.53125 
Q 43.3125 49.21875 43.3125 52.78125 
Q 43.3125 58.59375 39.234375 62.25 
Q 35.15625 65.921875 28.609375 65.921875 
Q 23.96875 65.921875 18.8125 64.3125 
Q 13.671875 62.703125 7.8125 59.421875 
L 7.8125 69.390625 
Q 13.765625 71.78125 18.9375 73 
Q 24.125 74.21875 28.421875 74.21875 
Q 39.75 74.21875 46.484375 68.546875 
Q 53.21875 62.890625 53.21875 53.421875 
Q 53.21875 48.921875 51.53125 44.890625 
Q 49.859375 40.875 45.40625 35.40625 
Q 44.1875 33.984375 37.640625 27.21875 
Q 31.109375 20.453125 19.1875 8.296875 
" id="BitstreamVeraSans-Roman-32"/>
      </defs>
      <g transform="translate(242.925 401.918125)scale(0.12 -0.12)">
       <use xlink:href="#BitstreamVeraSans-Roman-32"/>
       <use x="63.623046875" xlink:href="#BitstreamVeraSans-Roman-30"/>
      </g>
     </g>
    </g>
    <g id="xtick_4">
     <g id="line2d_12">
      <path clip-path="url(#p36c8e5e348)" d="M 339.84 388.8 
L 339.84 43.2 
" style="fill:none;stroke:#000000;stroke-dasharray:1.000000,3.000000;stroke-dashoffset:0.0;stroke-width:0.5;"/>
     </g>
     <g id="line2d_13">
      <g>
       <use style="stroke:#000000;stroke-width:0.5;" x="339.84" xlink:href="#m5278b75489" y="388.8"/>
      </g>
     </g>
     <g id="line2d_14">
      <g>
       <use style="stroke:#000000;stroke-width:0.5;" x="339.84" xlink:href="#m26b4dc9d57" y="43.2"/>
      </g>
     </g>
     <g id="text_4">
      <!-- 30 -->
      <defs>
       <path d="M 40.578125 39.3125 
Q 47.65625 37.796875 51.625 33 
Q 55.609375 28.21875 55.609375 21.1875 
Q 55.609375 10.40625 48.1875 4.484375 
Q 40.765625 -1.421875 27.09375 -1.421875 
Q 22.515625 -1.421875 17.65625 -0.515625 
Q 12.796875 0.390625 7.625 2.203125 
L 7.625 11.71875 
Q 11.71875 9.328125 16.59375 8.109375 
Q 21.484375 6.890625 26.8125 6.890625 
Q 36.078125 6.890625 40.9375 10.546875 
Q 45.796875 14.203125 45.796875 21.1875 
Q 45.796875 27.640625 41.28125 31.265625 
Q 36.765625 34.90625 28.71875 34.90625 
L 20.21875 34.90625 
L 20.21875 43.015625 
L 29.109375 43.015625 
Q 36.375 43.015625 40.234375 45.921875 
Q 44.09375 48.828125 44.09375 54.296875 
Q 44.09375 59.90625 40.109375 62.90625 
Q 36.140625 65.921875 28.71875 65.921875 
Q 24.65625 65.921875 20.015625 65.03125 
Q 15.375 64.15625 9.8125 62.3125 
L 9.8125 71.09375 
Q 15.4375 72.65625 20.34375 73.4375 
Q 25.25 74.21875 29.59375 74.21875 
Q 40.828125 74.21875 47.359375 69.109375 
Q 53.90625 64.015625 53.90625 55.328125 
Q 53.90625 49.265625 50.4375 45.09375 
Q 46.96875 40.921875 40.578125 39.3125 
" id="BitstreamVeraSans-Roman-33"/>
      </defs>
      <g transform="translate(332.205 401.918125)scale(0.12 -0.12)">
       <use xlink:href="#BitstreamVeraSans-Roman-33"/>
       <use x="63.623046875" xlink:href="#BitstreamVeraSans-Roman-30"/>
      </g>
     </g>
    </g>
    <g id="xtick_5">
     <g id="line2d_15">
      <path clip-path="url(#p36c8e5e348)" d="M 429.12 388.8 
L 429.12 43.2 
" style="fill:none;stroke:#000000;stroke-dasharray:1.000000,3.000000;stroke-dashoffset:0.0;stroke-width:0.5;"/>
     </g>
     <g id="line2d_16">
      <g>
       <use style="stroke:#000000;stroke-width:0.5;" x="429.12" xlink:href="#m5278b75489" y="388.8"/>
      </g>
     </g>
     <g id="line2d_17">
      <g>
       <use style="stroke:#000000;stroke-width:0.5;" x="429.12" xlink:href="#m26b4dc9d57" y="43.2"/>
      </g>
     </g>
     <g id="text_5">
      <!-- 40 -->
      <defs>
       <path d="M 37.796875 64.3125 
L 12.890625 25.390625 
L 37.796875 25.390625 
z
M 35.203125 72.90625 
L 47.609375 72.90625 
L 47.609375 25.390625 
L 58.015625 25.390625 
L 58.015625 17.1875 
L 47.609375 17.1875 
L 47.609375 0 
L 37.796875 0 
L 37.796875 17.1875 
L 4.890625 17.1875 
L 4.890625 26.703125 
z
" id="BitstreamVeraSans-Roman-34"/>
      </defs>
      <g transform="translate(421.485 401.918125)scale(0.12 -0.12)">
       <use xlink:href="#BitstreamVeraSans-Roman-34"/>
       <use x="63.623046875" xlink:href="#BitstreamVeraSans-Roman-30"/>
      </g>
     </g>
    </g>
    <g id="xtick_6">
     <g id="line2d_18">
      <path clip-path="url(#p36c8e5e348)" d="M 518.4 388.8 
L 518.4 43.2 
" style="fill:none;stroke:#000000;stroke-dasharray:1.000000,3.000000;stroke-dashoffset:0.0;stroke-width:0.5;"/>
     </g>
     <g id="line2d_19">
      <g>
       <use style="stroke:#000000;stroke-width:0.5;" x="518.4" xlink:href="#m5278b75489" y="388.8"/>
      </g>
     </g>
     <g id="line2d_20">
      <g>
       <use style="stroke:#000000;stroke-width:0.5;" x="518.4" xlink:href="#m26b4dc9d57" y="43.2"/>
      </g>
     </g>
     <g id="text_6">
      <!-- 50 -->
      <defs>
       <path d="M 10.796875 72.90625 
L 49.515625 72.90625 
L 49.515625 64.59375 
L 19.828125 64.59375 
L 19.828125 46.734375 
Q 21.96875 47.46875 24.109375 47.828125 
Q 26.265625 48.1875 28.421875 48.1875 
Q 40.625 48.1875 47.75 41.5 
Q 54.890625 34.8125 54.890625 23.390625 
Q 54.890625 11.625 47.5625 5.09375 
Q 40.234375 -1.421875 26.90625 -1.421875 
Q 22.3125 -1.421875 17.546875 -0.640625 
Q 12.796875 0.140625 7.71875 1.703125 
L 7.71875 11.625 
Q 12.109375 9.234375 16.796875 8.0625 
Q 21.484375 6.890625 26.703125 6.890625 
Q 35.15625 6.890625 40.078125 11.328125 
Q 45.015625 15.765625 45.015625 23.390625 
Q 45.015625 31 40.078125 35.4375 
Q 35.15625 39.890625 26.703125 39.890625 
Q 22.75 39.890625 18.8125 39.015625 
Q 14.890625 38.140625 10.796875 36.28125 
z
" id="BitstreamVeraSans-Roman-35"/>
      </defs>
      <g transform="translate(510.765 401.918125)scale(0.12 -0.12)">
       <use xlink:href="#BitstreamVeraSans-Roman-35"/>
       <use x="63.623046875" xlink:href="#BitstreamVeraSans-Roman-30"/>
      </g>
     </g>
    </g>
    <g id="text_7">
     <!-- Time, [s] -->
     <defs>
      <path id="BitstreamVeraSans-Roman-20"/>
      <path d="M 8.59375 75.984375 
L 29.296875 75.984375 
L 29.296875 69 
L 17.578125 69 
L 17.578125 -6.203125 
L 29.296875 -6.203125 
L 29.296875 -13.1875 
L 8.59375 -13.1875 
z
" id="BitstreamVeraSans-Roman-5b"/>
      <path d="M 30.421875 75.984375 
L 30.421875 -13.1875 
L 9.71875 -13.1875 
L 9.71875 -6.203125 
L 21.390625 -6.203125 
L 21.390625 69 
L 9.71875 69 
L 9.71875 75.984375 
z
" id="BitstreamVeraSans-Roman-5d"/>
      <path d="M 52 44.1875 
Q 55.375 50.25 60.0625 53.125 
Q 64.75 56 71.09375 56 
Q 79.640625 56 84.28125 50.015625 
Q 88.921875 44.046875 88.921875 33.015625 
L 88.921875 0 
L 79.890625 0 
L 79.890625 32.71875 
Q 79.890625 40.578125 77.09375 44.375 
Q 74.3125 48.1875 68.609375 48.1875 
Q 61.625 48.1875 57.5625 43.546875 
Q 53.515625 38.921875 53.515625 30.90625 
L 53.515625 0 
L 44.484375 0 
L 44.484375 32.71875 
Q 44.484375 40.625 41.703125 44.40625 
Q 38.921875 48.1875 33.109375 48.1875 
Q 26.21875 48.1875 22.15625 43.53125 
Q 18.109375 38.875 18.109375 30.90625 
L 18.109375 0 
L 9.078125 0 
L 9.078125 54.6875 
L 18.109375 54.6875 
L 18.109375 46.1875 
Q 21.1875 51.21875 25.484375 53.609375 
Q 29.78125 56 35.6875 56 
Q 41.65625 56 45.828125 52.96875 
Q 50 49.953125 52 44.1875 
" id="BitstreamVeraSans-Roman-6d"/>
      <path d="M 11.71875 12.40625 
L 22.015625 12.40625 
L 22.015625 4 
L 14.015625 -11.625 
L 7.71875 -11.625 
L 11.71875 4 
z
" id="BitstreamVeraSans-Roman-2c"/>
      <path d="M 9.421875 54.6875 
L 18.40625 54.6875 
L 18.40625 0 
L 9.421875 0 
z
M 9.421875 75.984375 
L 18.40625 75.984375 
L 18.40625 64.59375 
L 9.421875 64.59375 
z
" id="BitstreamVeraSans-Roman-69"/>
      <path d="M 56.203125 29.59375 
L 56.203125 25.203125 
L 14.890625 25.203125 
Q 15.484375 15.921875 20.484375 11.0625 
Q 25.484375 6.203125 34.421875 6.203125 
Q 39.59375 6.203125 44.453125 7.46875 
Q 49.3125 8.734375 54.109375 11.28125 
L 54.109375 2.78125 
Q 49.265625 0.734375 44.1875 -0.34375 
Q 39.109375 -1.421875 33.890625 -1.421875 
Q 20.796875 -1.421875 13.15625 6.1875 
Q 5.515625 13.8125 5.515625 26.8125 
Q 5.515625 40.234375 12.765625 48.109375 
Q 20.015625 56 32.328125 56 
Q 43.359375 56 49.78125 48.890625 
Q 56.203125 41.796875 56.203125 29.59375 
M 47.21875 32.234375 
Q 47.125 39.59375 43.09375 43.984375 
Q 39.0625 48.390625 32.421875 48.390625 
Q 24.90625 48.390625 20.390625 44.140625 
Q 15.875 39.890625 15.1875 32.171875 
z
" id="BitstreamVeraSans-Roman-65"/>
      <path d="M -0.296875 72.90625 
L 61.375 72.90625 
L 61.375 64.59375 
L 35.5 64.59375 
L 35.5 0 
L 25.59375 0 
L 25.59375 64.59375 
L -0.296875 64.59375 
z
" id="BitstreamVeraSans-Roman-54"/>
      <path d="M 44.28125 53.078125 
L 44.28125 44.578125 
Q 40.484375 46.53125 36.375 47.5 
Q 32.28125 48.484375 27.875 48.484375 
Q 21.1875 48.484375 17.84375 46.4375 
Q 14.5 44.390625 14.5 40.28125 
Q 14.5 37.15625 16.890625 35.375 
Q 19.28125 33.59375 26.515625 31.984375 
L 29.59375 31.296875 
Q 39.15625 29.25 43.1875 25.515625 
Q 47.21875 21.78125 47.21875 15.09375 
Q 47.21875 7.46875 41.1875 3.015625 
Q 35.15625 -1.421875 24.609375 -1.421875 
Q 20.21875 -1.421875 15.453125 -0.5625 
Q 10.6875 0.296875 5.421875 2 
L 5.421875 11.28125 
Q 10.40625 8.6875 15.234375 7.390625 
Q 20.0625 6.109375 24.8125 6.109375 
Q 31.15625 6.109375 34.5625 8.28125 
Q 37.984375 10.453125 37.984375 14.40625 
Q 37.984375 18.0625 35.515625 20.015625 
Q 33.0625 21.96875 24.703125 23.78125 
L 21.578125 24.515625 
Q 13.234375 26.265625 9.515625 29.90625 
Q 5.8125 33.546875 5.8125 39.890625 
Q 5.8125 47.609375 11.28125 51.796875 
Q 16.75 56 26.8125 56 
Q 31.78125 56 36.171875 55.265625 
Q 40.578125 54.546875 44.28125 53.078125 
" id="BitstreamVeraSans-Roman-73"/>
     </defs>
     <g transform="translate(268.71375 418.531875)scale(0.12 -0.12)">
      <use xlink:href="#BitstreamVeraSans-Roman-54"/>
      <use x="61.037109375" xlink:href="#BitstreamVeraSans-Roman-69"/>
      <use x="88.8203125" xlink:href="#BitstreamVeraSans-Roman-6d"/>
      <use x="186.232421875" xlink:href="#BitstreamVeraSans-Roman-65"/>
      <use x="247.755859375" xlink:href="#BitstreamVeraSans-Roman-2c"/>
      <use x="279.54296875" xlink:href="#BitstreamVeraSans-Roman-20"/>
      <use x="311.330078125" xlink:href="#BitstreamVeraSans-Roman-5b"/>
      <use x="350.34375" xlink:href="#BitstreamVeraSans-Roman-73"/>
      <use x="402.443359375" xlink:href="#BitstreamVeraSans-Roman-5d"/>
     </g>
    </g>
   </g>
   <g id="matplotlib.axis_2">
    <g id="ytick_1">
     <g id="line2d_21">
      <path clip-path="url(#p36c8e5e348)" d="M 72 388.8 
L 518.4 388.8 
" style="fill:none;stroke:#000000;stroke-dasharray:1.000000,3.000000;stroke-dashoffset:0.0;stroke-width:0.5;"/>
     </g>
     <g id="line2d_22">
      <defs>
       <path d="M 0 0 
L 4 0 
" id="mddac4b279b" style="stroke:#000000;stroke-width:0.5;"/>
      </defs>
      <g>
       <use style="stroke:#000000;stroke-width:0.5;" x="72.0" xlink:href="#mddac4b279b" y="388.8"/>
      </g>
     </g>
     <g id="line2d_23">
      <defs>
       <path d="M 0 0 
L -4 0 
" id="mfc74ca02ea" style="stroke:#000000;stroke-width:0.5;"/>
      </defs>
      <g>
       <use style="stroke:#000000;stroke-width:0.5;" x="518.4" xlink:href="#mfc74ca02ea" y="388.8"/>
      </g>
     </g>
     <g id="text_8">
      <!-- −8 -->
      <defs>
       <path d="M 10.59375 35.5 
L 73.1875 35.5 
L 73.1875 27.203125 
L 10.59375 27.203125 
z
" id="BitstreamVeraSans-Roman-2212"/>
       <path d="M 31.78125 34.625 
Q 24.75 34.625 20.71875 30.859375 
Q 16.703125 27.09375 16.703125 20.515625 
Q 16.703125 13.921875 20.71875 10.15625 
Q 24.75 6.390625 31.78125 6.390625 
Q 38.8125 6.390625 42.859375 10.171875 
Q 46.921875 13.96875 46.921875 20.515625 
Q 46.921875 27.09375 42.890625 30.859375 
Q 38.875 34.625 31.78125 34.625 
M 21.921875 38.8125 
Q 15.578125 40.375 12.03125 44.71875 
Q 8.5 49.078125 8.5 55.328125 
Q 8.5 64.0625 14.71875 69.140625 
Q 20.953125 74.21875 31.78125 74.21875 
Q 42.671875 74.21875 48.875 69.140625 
Q 55.078125 64.0625 55.078125 55.328125 
Q 55.078125 49.078125 51.53125 44.71875 
Q 48 40.375 41.703125 38.8125 
Q 48.828125 37.15625 52.796875 32.3125 
Q 56.78125 27.484375 56.78125 20.515625 
Q 56.78125 9.90625 50.3125 4.234375 
Q 43.84375 -1.421875 31.78125 -1.421875 
Q 19.734375 -1.421875 13.25 4.234375 
Q 6.78125 9.90625 6.78125 20.515625 
Q 6.78125 27.484375 10.78125 32.3125 
Q 14.796875 37.15625 21.921875 38.8125 
M 18.3125 54.390625 
Q 18.3125 48.734375 21.84375 45.5625 
Q 25.390625 42.390625 31.78125 42.390625 
Q 38.140625 42.390625 41.71875 45.5625 
Q 45.3125 48.734375 45.3125 54.390625 
Q 45.3125 60.0625 41.71875 63.234375 
Q 38.140625 66.40625 31.78125 66.40625 
Q 25.390625 66.40625 21.84375 63.234375 
Q 18.3125 60.0625 18.3125 54.390625 
" id="BitstreamVeraSans-Roman-38"/>
      </defs>
      <g transform="translate(50.309375 392.11125)scale(0.12 -0.12)">
       <use xlink:href="#BitstreamVeraSans-Roman-2212"/>
       <use x="83.7890625" xlink:href="#BitstreamVeraSans-Roman-38"/>
      </g>
     </g>
    </g>
    <g id="ytick_2">
     <g id="line2d_24">
      <path clip-path="url(#p36c8e5e348)" d="M 72 350.4 
L 518.4 350.4 
" style="fill:none;stroke:#000000;stroke-dasharray:1.000000,3.000000;stroke-dashoffset:0.0;stroke-width:0.5;"/>
     </g>
     <g id="line2d_25">
      <g>
       <use style="stroke:#000000;stroke-width:0.5;" x="72.0" xlink:href="#mddac4b279b" y="350.4"/>
      </g>
     </g>
     <g id="line2d_26">
      <g>
       <use style="stroke:#000000;stroke-width:0.5;" x="518.4" xlink:href="#mfc74ca02ea" y="350.4"/>
      </g>
     </g>
     <g id="text_9">
      <!-- −7 -->
      <defs>
       <path d="M 8.203125 72.90625 
L 55.078125 72.90625 
L 55.078125 68.703125 
L 28.609375 0 
L 18.3125 0 
L 43.21875 64.59375 
L 8.203125 64.59375 
z
" id="BitstreamVeraSans-Roman-37"/>
      </defs>
      <g transform="translate(50.309375 353.71125)scale(0.12 -0.12)">
       <use xlink:href="#BitstreamVeraSans-Roman-2212"/>
       <use x="83.7890625" xlink:href="#BitstreamVeraSans-Roman-37"/>
      </g>
     </g>
    </g>
    <g id="ytick_3">
     <g id="line2d_27">
      <path clip-path="url(#p36c8e5e348)" d="M 72 312 
L 518.4 312 
" style="fill:none;stroke:#000000;stroke-dasharray:1.000000,3.000000;stroke-dashoffset:0.0;stroke-width:0.5;"/>
     </g>
     <g id="line2d_28">
      <g>
       <use style="stroke:#000000;stroke-width:0.5;" x="72.0" xlink:href="#mddac4b279b" y="312.0"/>
      </g>
     </g>
     <g id="line2d_29">
      <g>
       <use style="stroke:#000000;stroke-width:0.5;" x="518.4" xlink:href="#mfc74ca02ea" y="312.0"/>
      </g>
     </g>
     <g id="text_10">
      <!-- −6 -->
      <defs>
       <path d="M 33.015625 40.375 
Q 26.375 40.375 22.484375 35.828125 
Q 18.609375 31.296875 18.609375 23.390625 
Q 18.609375 15.53125 22.484375 10.953125 
Q 26.375 6.390625 33.015625 6.390625 
Q 39.65625 6.390625 43.53125 10.953125 
Q 47.40625 15.53125 47.40625 23.390625 
Q 47.40625 31.296875 43.53125 35.828125 
Q 39.65625 40.375 33.015625 40.375 
M 52.59375 71.296875 
L 52.59375 62.3125 
Q 48.875 64.0625 45.09375 64.984375 
Q 41.3125 65.921875 37.59375 65.921875 
Q 27.828125 65.921875 22.671875 59.328125 
Q 17.53125 52.734375 16.796875 39.40625 
Q 19.671875 43.65625 24.015625 45.921875 
Q 28.375 48.1875 33.59375 48.1875 
Q 44.578125 48.1875 50.953125 41.515625 
Q 57.328125 34.859375 57.328125 23.390625 
Q 57.328125 12.15625 50.6875 5.359375 
Q 44.046875 -1.421875 33.015625 -1.421875 
Q 20.359375 -1.421875 13.671875 8.265625 
Q 6.984375 17.96875 6.984375 36.375 
Q 6.984375 53.65625 15.1875 63.9375 
Q 23.390625 74.21875 37.203125 74.21875 
Q 40.921875 74.21875 44.703125 73.484375 
Q 48.484375 72.75 52.59375 71.296875 
" id="BitstreamVeraSans-Roman-36"/>
      </defs>
      <g transform="translate(50.309375 315.31125)scale(0.12 -0.12)">
       <use xlink:href="#BitstreamVeraSans-Roman-2212"/>
       <use x="83.7890625" xlink:href="#BitstreamVeraSans-Roman-36"/>
      </g>
     </g>
    </g>
    <g id="ytick_4">
     <g id="line2d_30">
      <path clip-path="url(#p36c8e5e348)" d="M 72 273.6 
L 518.4 273.6 
" style="fill:none;stroke:#000000;stroke-dasharray:1.000000,3.000000;stroke-dashoffset:0.0;stroke-width:0.5;"/>
     </g>
     <g id="line2d_31">
      <g>
       <use style="stroke:#000000;stroke-width:0.5;" x="72.0" xlink:href="#mddac4b279b" y="273.6"/>
      </g>
     </g>
     <g id="line2d_32">
      <g>
       <use style="stroke:#000000;stroke-width:0.5;" x="518.4" xlink:href="#mfc74ca02ea" y="273.6"/>
      </g>
     </g>
     <g id="text_11">
      <!-- −5 -->
      <g transform="translate(50.309375 276.91125)scale(0.12 -0.12)">
       <use xlink:href="#BitstreamVeraSans-Roman-2212"/>
       <use x="83.7890625" xlink:href="#BitstreamVeraSans-Roman-35"/>
      </g>
     </g>
    </g>
    <g id="ytick_5">
     <g id="line2d_33">
      <path clip-path="url(#p36c8e5e348)" d="M 72 235.2 
L 518.4 235.2 
" style="fill:none;stroke:#000000;stroke-dasharray:1.000000,3.000000;stroke-dashoffset:0.0;stroke-width:0.5;"/>
     </g>
     <g id="line2d_34">
      <g>
       <use style="stroke:#000000;stroke-width:0.5;" x="72.0" xlink:href="#mddac4b279b" y="235.2"/>
      </g>
     </g>
     <g id="line2d_35">
      <g>
       <use style="stroke:#000000;stroke-width:0.5;" x="518.4" xlink:href="#mfc74ca02ea" y="235.2"/>
      </g>
     </g>
     <g id="text_12">
      <!-- −4 -->
      <g transform="translate(50.309375 238.51125)scale(0.12 -0.12)">
       <use xlink:href="#BitstreamVeraSans-Roman-2212"/>
       <use x="83.7890625" xlink:href="#BitstreamVeraSans-Roman-34"/>
      </g>
     </g>
    </g>
    <g id="ytick_6">
     <g id="line2d_36">
      <path clip-path="url(#p36c8e5e348)" d="M 72 196.8 
L 518.4 196.8 
" style="fill:none;stroke:#000000;stroke-dasharray:1.000000,3.000000;stroke-dashoffset:0.0;stroke-width:0.5;"/>
     </g>
     <g id="line2d_37">
      <g>
       <use style="stroke:#000000;stroke-width:0.5;" x="72.0" xlink:href="#mddac4b279b" y="196.8"/>
      </g>
     </g>
     <g id="line2d_38">
      <g>
       <use style="stroke:#000000;stroke-width:0.5;" x="518.4" xlink:href="#mfc74ca02ea" y="196.8"/>
      </g>
     </g>
     <g id="text_13">
      <!-- −3 -->
      <g transform="translate(50.309375 200.11125)scale(0.12 -0.12)">
       <use xlink:href="#BitstreamVeraSans-Roman-2212"/>
       <use x="83.7890625" xlink:href="#BitstreamVeraSans-Roman-33"/>
      </g>
     </g>
    </g>
    <g id="ytick_7">
     <g id="line2d_39">
      <path clip-path="url(#p36c8e5e348)" d="M 72 158.4 
L 518.4 158.4 
" style="fill:none;stroke:#000000;stroke-dasharray:1.000000,3.000000;stroke-dashoffset:0.0;stroke-width:0.5;"/>
     </g>
     <g id="line2d_40">
      <g>
       <use style="stroke:#000000;stroke-width:0.5;" x="72.0" xlink:href="#mddac4b279b" y="158.4"/>
      </g>
     </g>
     <g id="line2d_41">
      <g>
       <use style="stroke:#000000;stroke-width:0.5;" x="518.4" xlink:href="#mfc74ca02ea" y="158.4"/>
      </g>
     </g>
     <g id="text_14">
      <!-- −2 -->
      <g transform="translate(50.309375 161.71125)scale(0.12 -0.12)">
       <use xlink:href="#BitstreamVeraSans-Roman-2212"/>
       <use x="83.7890625" xlink:href="#BitstreamVeraSans-Roman-32"/>
      </g>
     </g>
    </g>
    <g id="ytick_8">
     <g id="line2d_42">
      <path clip-path="url(#p36c8e5e348)" d="M 72 120 
L 518.4 120 
" style="fill:none;stroke:#000000;stroke-dasharray:1.000000,3.000000;stroke-dashoffset:0.0;stroke-width:0.5;"/>
     </g>
     <g id="line2d_43">
      <g>
       <use style="stroke:#000000;stroke-width:0.5;" x="72.0" xlink:href="#mddac4b279b" y="120.0"/>
      </g>
     </g>
     <g id="line2d_44">
      <g>
       <use style="stroke:#000000;stroke-width:0.5;" x="518.4" xlink:href="#mfc74ca02ea" y="120.0"/>
      </g>
     </g>
     <g id="text_15">
      <!-- −1 -->
      <g transform="translate(50.309375 123.31125)scale(0.12 -0.12)">
       <use xlink:href="#BitstreamVeraSans-Roman-2212"/>
       <use x="83.7890625" xlink:href="#BitstreamVeraSans-Roman-31"/>
      </g>
     </g>
    </g>
    <g id="ytick_9">
     <g id="line2d_45">
      <path clip-path="url(#p36c8e5e348)" d="M 72 81.6 
L 518.4 81.6 
" style="fill:none;stroke:#000000;stroke-dasharray:1.000000,3.000000;stroke-dashoffset:0.0;stroke-width:0.5;"/>
     </g>
     <g id="line2d_46">
      <g>
       <use style="stroke:#000000;stroke-width:0.5;" x="72.0" xlink:href="#mddac4b279b" y="81.6"/>
      </g>
     </g>
     <g id="line2d_47">
      <g>
       <use style="stroke:#000000;stroke-width:0.5;" x="518.4" xlink:href="#mfc74ca02ea" y="81.6"/>
      </g>
     </g>
     <g id="text_16">
      <!-- 0 -->
      <g transform="translate(60.365 84.91125)scale(0.12 -0.12)">
       <use xlink:href="#BitstreamVeraSans-Roman-30"/>
      </g>
     </g>
    </g>
    <g id="ytick_10">
     <g id="line2d_48">
      <path clip-path="url(#p36c8e5e348)" d="M 72 43.2 
L 518.4 43.2 
" style="fill:none;stroke:#000000;stroke-dasharray:1.000000,3.000000;stroke-dashoffset:0.0;stroke-width:0.5;"/>
     </g>
     <g id="line2d_49">
      <g>
       <use style="stroke:#000000;stroke-width:0.5;" x="72.0" xlink:href="#mddac4b279b" y="43.2"/>
      </g>
     </g>
     <g id="line2d_50">
      <g>
       <use style="stroke:#000000;stroke-width:0.5;" x="518.4" xlink:href="#mfc74ca02ea" y="43.2"/>
      </g>
     </g>
     <g id="text_17">
      <!-- 1 -->
      <g transform="translate(60.365 46.51125)scale(0.12 -0.12)">
       <use xlink:href="#BitstreamVeraSans-Roman-31"/>
      </g>
     </g>
    </g>
    <g id="text_18">
     <!-- Accel Cmd [m/s^2] -->
     <defs>
      <path d="M 46.6875 72.90625 
L 73.1875 45.703125 
L 63.375 45.703125 
L 41.890625 64.984375 
L 20.40625 45.703125 
L 10.59375 45.703125 
L 37.109375 72.90625 
z
" id="BitstreamVeraSans-Roman-5e"/>
      <path d="M 9.421875 75.984375 
L 18.40625 75.984375 
L 18.40625 0 
L 9.421875 0 
z
" id="BitstreamVeraSans-Roman-6c"/>
      <path d="M 64.40625 67.28125 
L 64.40625 56.890625 
Q 59.421875 61.53125 53.78125 63.8125 
Q 48.140625 66.109375 41.796875 66.109375 
Q 29.296875 66.109375 22.65625 58.46875 
Q 16.015625 50.828125 16.015625 36.375 
Q 16.015625 21.96875 22.65625 14.328125 
Q 29.296875 6.6875 41.796875 6.6875 
Q 48.140625 6.6875 53.78125 8.984375 
Q 59.421875 11.28125 64.40625 15.921875 
L 64.40625 5.609375 
Q 59.234375 2.09375 53.4375 0.328125 
Q 47.65625 -1.421875 41.21875 -1.421875 
Q 24.65625 -1.421875 15.125 8.703125 
Q 5.609375 18.84375 5.609375 36.375 
Q 5.609375 53.953125 15.125 64.078125 
Q 24.65625 74.21875 41.21875 74.21875 
Q 47.75 74.21875 53.53125 72.484375 
Q 59.328125 70.75 64.40625 67.28125 
" id="BitstreamVeraSans-Roman-43"/>
      <path d="M 34.1875 63.1875 
L 20.796875 26.90625 
L 47.609375 26.90625 
z
M 28.609375 72.90625 
L 39.796875 72.90625 
L 67.578125 0 
L 57.328125 0 
L 50.6875 18.703125 
L 17.828125 18.703125 
L 11.1875 0 
L 0.78125 0 
z
" id="BitstreamVeraSans-Roman-41"/>
      <path d="M 25.390625 72.90625 
L 33.6875 72.90625 
L 8.296875 -9.28125 
L 0 -9.28125 
z
" id="BitstreamVeraSans-Roman-2f"/>
      <path d="M 45.40625 46.390625 
L 45.40625 75.984375 
L 54.390625 75.984375 
L 54.390625 0 
L 45.40625 0 
L 45.40625 8.203125 
Q 42.578125 3.328125 38.25 0.953125 
Q 33.9375 -1.421875 27.875 -1.421875 
Q 17.96875 -1.421875 11.734375 6.484375 
Q 5.515625 14.40625 5.515625 27.296875 
Q 5.515625 40.1875 11.734375 48.09375 
Q 17.96875 56 27.875 56 
Q 33.9375 56 38.25 53.625 
Q 42.578125 51.265625 45.40625 46.390625 
M 14.796875 27.296875 
Q 14.796875 17.390625 18.875 11.75 
Q 22.953125 6.109375 30.078125 6.109375 
Q 37.203125 6.109375 41.296875 11.75 
Q 45.40625 17.390625 45.40625 27.296875 
Q 45.40625 37.203125 41.296875 42.84375 
Q 37.203125 48.484375 30.078125 48.484375 
Q 22.953125 48.484375 18.875 42.84375 
Q 14.796875 37.203125 14.796875 27.296875 
" id="BitstreamVeraSans-Roman-64"/>
      <path d="M 48.78125 52.59375 
L 48.78125 44.1875 
Q 44.96875 46.296875 41.140625 47.34375 
Q 37.3125 48.390625 33.40625 48.390625 
Q 24.65625 48.390625 19.8125 42.84375 
Q 14.984375 37.3125 14.984375 27.296875 
Q 14.984375 17.28125 19.8125 11.734375 
Q 24.65625 6.203125 33.40625 6.203125 
Q 37.3125 6.203125 41.140625 7.25 
Q 44.96875 8.296875 48.78125 10.40625 
L 48.78125 2.09375 
Q 45.015625 0.34375 40.984375 -0.53125 
Q 36.96875 -1.421875 32.421875 -1.421875 
Q 20.0625 -1.421875 12.78125 6.34375 
Q 5.515625 14.109375 5.515625 27.296875 
Q 5.515625 40.671875 12.859375 48.328125 
Q 20.21875 56 33.015625 56 
Q 37.15625 56 41.109375 55.140625 
Q 45.0625 54.296875 48.78125 52.59375 
" id="BitstreamVeraSans-Roman-63"/>
     </defs>
     <g transform="translate(42.81375 274.235625)rotate(-90.0)scale(0.12 -0.12)">
      <use xlink:href="#BitstreamVeraSans-Roman-41"/>
      <use x="68.392578125" xlink:href="#BitstreamVeraSans-Roman-63"/>
      <use x="123.373046875" xlink:href="#BitstreamVeraSans-Roman-63"/>
      <use x="178.353515625" xlink:href="#BitstreamVeraSans-Roman-65"/>
      <use x="239.876953125" xlink:href="#BitstreamVeraSans-Roman-6c"/>
      <use x="267.66015625" xlink:href="#BitstreamVeraSans-Roman-20"/>
      <use x="299.447265625" xlink:href="#BitstreamVeraSans-Roman-43"/>
      <use x="369.271484375" xlink:href="#BitstreamVeraSans-Roman-6d"/>
      <use x="466.68359375" xlink:href="#BitstreamVeraSans-Roman-64"/>
      <use x="530.16015625" xlink:href="#BitstreamVeraSans-Roman-20"/>
      <use x="561.947265625" xlink:href="#BitstreamVeraSans-Roman-5b"/>
      <use x="600.9609375" xlink:href="#BitstreamVeraSans-Roman-6d"/>
      <use x="698.373046875" xlink:href="#BitstreamVeraSans-Roman-2f"/>
      <use x="732.064453125" xlink:href="#BitstreamVeraSans-Roman-73"/>
      <use x="784.1640625" xlink:href="#BitstreamVeraSans-Roman-5e"/>
      <use x="867.953125" xlink:href="#BitstreamVeraSans-Roman-32"/>
      <use x="931.576171875" xlink:href="#BitstreamVeraSans-Roman-5d"/>
     </g>
    </g>
   </g>
   <g id="legend_1">
    <g id="patch_7">
     <path d="M 371.673 381.6 
L 511.2 381.6 
L 511.2 335.007 
L 371.673 335.007 
z
" style="fill:#ffffff;stroke:#000000;stroke-linejoin:miter;"/>
    </g>
    <g id="line2d_51">
     <path d="M 381.753 346.66875 
L 401.913 346.66875 
" style="fill:none;stroke:#008000;stroke-linecap:square;"/>
    </g>
    <g id="line2d_52"/>
    <g id="text_19">
     <!-- Proportional -->
     <defs>
      <path d="M 54.890625 33.015625 
L 54.890625 0 
L 45.90625 0 
L 45.90625 32.71875 
Q 45.90625 40.484375 42.875 44.328125 
Q 39.84375 48.1875 33.796875 48.1875 
Q 26.515625 48.1875 22.3125 43.546875 
Q 18.109375 38.921875 18.109375 30.90625 
L 18.109375 0 
L 9.078125 0 
L 9.078125 54.6875 
L 18.109375 54.6875 
L 18.109375 46.1875 
Q 21.34375 51.125 25.703125 53.5625 
Q 30.078125 56 35.796875 56 
Q 45.21875 56 50.046875 50.171875 
Q 54.890625 44.34375 54.890625 33.015625 
" id="BitstreamVeraSans-Roman-6e"/>
      <path d="M 34.28125 27.484375 
Q 23.390625 27.484375 19.1875 25 
Q 14.984375 22.515625 14.984375 16.5 
Q 14.984375 11.71875 18.140625 8.90625 
Q 21.296875 6.109375 26.703125 6.109375 
Q 34.1875 6.109375 38.703125 11.40625 
Q 43.21875 16.703125 43.21875 25.484375 
L 43.21875 27.484375 
z
M 52.203125 31.203125 
L 52.203125 0 
L 43.21875 0 
L 43.21875 8.296875 
Q 40.140625 3.328125 35.546875 0.953125 
Q 30.953125 -1.421875 24.3125 -1.421875 
Q 15.921875 -1.421875 10.953125 3.296875 
Q 6 8.015625 6 15.921875 
Q 6 25.140625 12.171875 29.828125 
Q 18.359375 34.515625 30.609375 34.515625 
L 43.21875 34.515625 
L 43.21875 35.40625 
Q 43.21875 41.609375 39.140625 45 
Q 35.0625 48.390625 27.6875 48.390625 
Q 23 48.390625 18.546875 47.265625 
Q 14.109375 46.140625 10.015625 43.890625 
L 10.015625 52.203125 
Q 14.9375 54.109375 19.578125 55.046875 
Q 24.21875 56 28.609375 56 
Q 40.484375 56 46.34375 49.84375 
Q 52.203125 43.703125 52.203125 31.203125 
" id="BitstreamVeraSans-Roman-61"/>
      <path d="M 30.609375 48.390625 
Q 23.390625 48.390625 19.1875 42.75 
Q 14.984375 37.109375 14.984375 27.296875 
Q 14.984375 17.484375 19.15625 11.84375 
Q 23.34375 6.203125 30.609375 6.203125 
Q 37.796875 6.203125 41.984375 11.859375 
Q 46.1875 17.53125 46.1875 27.296875 
Q 46.1875 37.015625 41.984375 42.703125 
Q 37.796875 48.390625 30.609375 48.390625 
M 30.609375 56 
Q 42.328125 56 49.015625 48.375 
Q 55.71875 40.765625 55.71875 27.296875 
Q 55.71875 13.875 49.015625 6.21875 
Q 42.328125 -1.421875 30.609375 -1.421875 
Q 18.84375 -1.421875 12.171875 6.21875 
Q 5.515625 13.875 5.515625 27.296875 
Q 5.515625 40.765625 12.171875 48.375 
Q 18.84375 56 30.609375 56 
" id="BitstreamVeraSans-Roman-6f"/>
      <path d="M 19.671875 64.796875 
L 19.671875 37.40625 
L 32.078125 37.40625 
Q 38.96875 37.40625 42.71875 40.96875 
Q 46.484375 44.53125 46.484375 51.125 
Q 46.484375 57.671875 42.71875 61.234375 
Q 38.96875 64.796875 32.078125 64.796875 
z
M 9.8125 72.90625 
L 32.078125 72.90625 
Q 44.34375 72.90625 50.609375 67.359375 
Q 56.890625 61.8125 56.890625 51.125 
Q 56.890625 40.328125 50.609375 34.8125 
Q 44.34375 29.296875 32.078125 29.296875 
L 19.671875 29.296875 
L 19.671875 0 
L 9.8125 0 
z
" id="BitstreamVeraSans-Roman-50"/>
      <path d="M 18.3125 70.21875 
L 18.3125 54.6875 
L 36.8125 54.6875 
L 36.8125 47.703125 
L 18.3125 47.703125 
L 18.3125 18.015625 
Q 18.3125 11.328125 20.140625 9.421875 
Q 21.96875 7.515625 27.59375 7.515625 
L 36.8125 7.515625 
L 36.8125 0 
L 27.59375 0 
Q 17.1875 0 13.234375 3.875 
Q 9.28125 7.765625 9.28125 18.015625 
L 9.28125 47.703125 
L 2.6875 47.703125 
L 2.6875 54.6875 
L 9.28125 54.6875 
L 9.28125 70.21875 
z
" id="BitstreamVeraSans-Roman-74"/>
      <path d="M 41.109375 46.296875 
Q 39.59375 47.171875 37.8125 47.578125 
Q 36.03125 48 33.890625 48 
Q 26.265625 48 22.1875 43.046875 
Q 18.109375 38.09375 18.109375 28.8125 
L 18.109375 0 
L 9.078125 0 
L 9.078125 54.6875 
L 18.109375 54.6875 
L 18.109375 46.1875 
Q 20.953125 51.171875 25.484375 53.578125 
Q 30.03125 56 36.53125 56 
Q 37.453125 56 38.578125 55.875 
Q 39.703125 55.765625 41.0625 55.515625 
z
" id="BitstreamVeraSans-Roman-72"/>
      <path d="M 18.109375 8.203125 
L 18.109375 -20.796875 
L 9.078125 -20.796875 
L 9.078125 54.6875 
L 18.109375 54.6875 
L 18.109375 46.390625 
Q 20.953125 51.265625 25.265625 53.625 
Q 29.59375 56 35.59375 56 
Q 45.5625 56 51.78125 48.09375 
Q 58.015625 40.1875 58.015625 27.296875 
Q 58.015625 14.40625 51.78125 6.484375 
Q 45.5625 -1.421875 35.59375 -1.421875 
Q 29.59375 -1.421875 25.265625 0.953125 
Q 20.953125 3.328125 18.109375 8.203125 
M 48.6875 27.296875 
Q 48.6875 37.203125 44.609375 42.84375 
Q 40.53125 48.484375 33.40625 48.484375 
Q 26.265625 48.484375 22.1875 42.84375 
Q 18.109375 37.203125 18.109375 27.296875 
Q 18.109375 17.390625 22.1875 11.75 
Q 26.265625 6.109375 33.40625 6.109375 
Q 40.53125 6.109375 44.609375 11.75 
Q 48.6875 17.390625 48.6875 27.296875 
" id="BitstreamVeraSans-Roman-70"/>
     </defs>
     <g transform="translate(417.753 351.70875)scale(0.144 -0.144)">
      <use xlink:href="#BitstreamVeraSans-Roman-50"/>
      <use x="60.287109375" xlink:href="#BitstreamVeraSans-Roman-72"/>
      <use x="101.369140625" xlink:href="#BitstreamVeraSans-Roman-6f"/>
      <use x="162.55078125" xlink:href="#BitstreamVeraSans-Roman-70"/>
      <use x="226.02734375" xlink:href="#BitstreamVeraSans-Roman-6f"/>
      <use x="287.208984375" xlink:href="#BitstreamVeraSans-Roman-72"/>
      <use x="328.322265625" xlink:href="#BitstreamVeraSans-Roman-74"/>
      <use x="367.53125" xlink:href="#BitstreamVeraSans-Roman-69"/>
      <use x="395.314453125" xlink:href="#BitstreamVeraSans-Roman-6f"/>
      <use x="456.49609375" xlink:href="#BitstreamVeraSans-Roman-6e"/>
      <use x="519.875" xlink:href="#BitstreamVeraSans-Roman-61"/>
      <use x="581.154296875" xlink:href="#BitstreamVeraSans-Roman-6c"/>
     </g>
    </g>
    <g id="line2d_53">
     <path d="M 381.753 367.80525 
L 401.913 367.80525 
" style="fill:none;stroke:#0000ff;stroke-linecap:square;"/>
    </g>
    <g id="line2d_54"/>
    <g id="text_20">
     <!-- Integral -->
     <defs>
      <path d="M 45.40625 27.984375 
Q 45.40625 37.75 41.375 43.109375 
Q 37.359375 48.484375 30.078125 48.484375 
Q 22.859375 48.484375 18.828125 43.109375 
Q 14.796875 37.75 14.796875 27.984375 
Q 14.796875 18.265625 18.828125 12.890625 
Q 22.859375 7.515625 30.078125 7.515625 
Q 37.359375 7.515625 41.375 12.890625 
Q 45.40625 18.265625 45.40625 27.984375 
M 54.390625 6.78125 
Q 54.390625 -7.171875 48.1875 -13.984375 
Q 42 -20.796875 29.203125 -20.796875 
Q 24.46875 -20.796875 20.265625 -20.09375 
Q 16.0625 -19.390625 12.109375 -17.921875 
L 12.109375 -9.1875 
Q 16.0625 -11.328125 19.921875 -12.34375 
Q 23.78125 -13.375 27.78125 -13.375 
Q 36.625 -13.375 41.015625 -8.765625 
Q 45.40625 -4.15625 45.40625 5.171875 
L 45.40625 9.625 
Q 42.625 4.78125 38.28125 2.390625 
Q 33.9375 0 27.875 0 
Q 17.828125 0 11.671875 7.65625 
Q 5.515625 15.328125 5.515625 27.984375 
Q 5.515625 40.671875 11.671875 48.328125 
Q 17.828125 56 27.875 56 
Q 33.9375 56 38.28125 53.609375 
Q 42.625 51.21875 45.40625 46.390625 
L 45.40625 54.6875 
L 54.390625 54.6875 
z
" id="BitstreamVeraSans-Roman-67"/>
      <path d="M 9.8125 72.90625 
L 19.671875 72.90625 
L 19.671875 0 
L 9.8125 0 
z
" id="BitstreamVeraSans-Roman-49"/>
     </defs>
     <g transform="translate(417.753 372.84525)scale(0.144 -0.144)">
      <use xlink:href="#BitstreamVeraSans-Roman-49"/>
      <use x="29.4921875" xlink:href="#BitstreamVeraSans-Roman-6e"/>
      <use x="92.87109375" xlink:href="#BitstreamVeraSans-Roman-74"/>
      <use x="132.080078125" xlink:href="#BitstreamVeraSans-Roman-65"/>
      <use x="193.603515625" xlink:href="#BitstreamVeraSans-Roman-67"/>
      <use x="257.080078125" xlink:href="#BitstreamVeraSans-Roman-72"/>
      <use x="298.193359375" xlink:href="#BitstreamVeraSans-Roman-61"/>
      <use x="359.47265625" xlink:href="#BitstreamVeraSans-Roman-6c"/>
     </g>
    </g>
   </g>
  </g>
 </g>
 <defs>
  <clipPath id="p36c8e5e348">
   <rect height="345.6" width="446.4" x="72.0" y="43.2"/>
  </clipPath>
 </defs>
</svg>
