<?xml version="1.0" encoding="utf-8" standalone="no"?>
<!DOCTYPE svg PUBLIC "-//W3C//DTD SVG 1.1//EN"
  "http://www.w3.org/Graphics/SVG/1.1/DTD/svg11.dtd">
<!-- Created with matplotlib (http://matplotlib.org/) -->
<svg height="432pt" version="1.1" viewBox="0 0 576 432" width="576pt" xmlns="http://www.w3.org/2000/svg" xmlns:xlink="http://www.w3.org/1999/xlink">
 <defs>
  <style type="text/css">
*{stroke-linecap:butt;stroke-linejoin:round;stroke-miterlimit:100000;}
  </style>
 </defs>
 <g id="figure_1">
  <g id="patch_1">
   <path d="M 0 432 
L 576 432 
L 576 0 
L 0 0 
z
" style="fill:#ffffff;"/>
  </g>
  <g id="axes_1">
   <g id="patch_2">
    <path d="M 72 388.8 
L 518.4 388.8 
L 518.4 43.2 
L 72 43.2 
z
" style="fill:#ffffff;"/>
   </g>
   <g id="line2d_1">
    <path clip-path="url(#p844269c9dd)" d="M 72.08928 278.343454 
L 85.8384 279.647312 
L 87.08832 280.077602 
L 88.33824 280.724189 
L 89.67744 281.65632 
L 91.1952 283.012946 
L 92.62368 284.580171 
L 96.552 289.448169 
L 105.12288 300.355432 
L 125.568 327.029268 
L 144.40608 351.372227 
L 145.56672 352.440309 
L 146.90592 353.33314 
L 148.24512 353.923765 
L 149.04864 354.066979 
L 150.29856 353.947228 
L 151.54848 353.626065 
L 153.78048 353.002022 
L 156.90528 352.408505 
L 160.11936 352.011402 
L 167.17248 351.532727 
L 170.47584 351.447681 
L 176.0112 351.331119 
L 180.83232 351.232682 
L 184.58208 351.168573 
L 198.3312 351.056845 
L 201.54528 351.152177 
L 204.1344 351.016414 
L 208.5984 350.773005 
L 212.97312 351.129372 
L 214.13376 351.474376 
L 215.91936 352.276331 
L 223.86528 355.923381 
L 238.32864 361.496751 
L 248.23872 365.682295 
L 266.89824 373.570407 
L 271.9872 375.46384 
L 276.4512 376.84916 
L 293.95008 381.777514 
L 299.84256 383.234408 
L 304.5744 384.139963 
L 310.73472 385.086749 
L 318.23424 385.987278 
L 322.78752 386.583516 
L 326.80512 387.367678 
L 331.62624 388.545037 
L 333.05472 388.8 
L 518.4 388.8 
L 518.4 388.8 
" style="fill:none;stroke:#ff0000;stroke-linecap:square;"/>
   </g>
   <g id="line2d_2">
    <path clip-path="url(#p844269c9dd)" d="M 72.08928 388.8 
L 72.17856 388.8 
L 72.35712 278.345919 
L 73.7856 278.483091 
L 75.1248 278.589787 
L 76.464 278.711715 
L 77.71392 278.8184 
L 79.05312 278.940329 
L 80.39232 279.047024 
L 81.8208 279.184197 
L 83.16 279.290882 
L 83.96352 279.517546 
L 122.08608 350.105504 
L 122.26464 350.110856 
L 123.06816 350.115441 
L 128.2464 350.065467 
L 128.42496 350.070026 
L 135.12096 350.193482 
L 135.47808 350.469644 
L 141.6384 354.391128 
L 142.0848 354.777752 
L 143.69184 355.651458 
L 147.08448 353.460082 
L 147.26304 353.39528 
L 148.51296 352.613113 
L 148.69152 352.547511 
L 149.76288 351.891199 
L 149.94144 351.825589 
L 151.81632 350.577111 
L 152.17344 350.627783 
L 152.352 350.582057 
L 152.53056 350.693698 
L 152.97696 350.556526 
L 153.15552 350.683401 
L 153.60192 350.561467 
L 153.78048 350.718829 
L 154.31616 350.566418 
L 154.49472 350.551174 
L 154.67328 350.678049 
L 155.29824 350.540877 
L 155.4768 350.667751 
L 156.10176 350.561061 
L 156.28032 350.530579 
L 156.45888 350.672697 
L 157.2624 350.520287 
L 157.44096 350.677644 
L 158.6016 350.525233 
L 158.78016 350.667351 
L 160.11936 350.514935 
L 160.29792 350.672292 
L 161.81568 350.519881 
L 162.08352 350.504643 
L 162.26208 350.661999 
L 164.49408 350.494345 
L 164.67264 350.651707 
L 166.81536 350.545012 
L 167.70816 350.499291 
L 167.88672 350.656648 
L 168.60096 350.641409 
L 172.35072 350.534719 
L 173.24352 350.488999 
L 173.42208 350.646355 
L 173.86848 350.569326 
L 174.13632 350.473755 
L 174.2256 350.473755 
L 174.40416 350.646355 
L 175.74336 350.584569 
L 175.92192 350.473755 
L 176.10048 350.646355 
L 181.45728 350.539665 
L 182.35008 350.493939 
L 182.52864 350.493939 
L 182.7072 350.651296 
L 182.97504 350.574514 
L 183.24288 350.478696 
L 183.42144 350.478696 
L 183.6 350.651296 
L 183.86784 350.589753 
L 184.13568 350.478696 
L 184.31424 350.651296 
L 184.58208 350.589753 
L 184.84992 350.478696 
L 185.02848 350.651296 
L 185.47488 350.574514 
L 185.65344 350.478696 
L 185.832 350.651296 
L 186.63552 350.574514 
L 186.90336 350.478696 
L 187.08192 350.651296 
L 193.15296 350.544611 
L 194.04576 350.498885 
L 194.40288 350.483647 
L 194.58144 350.656248 
L 195.56352 350.483647 
L 195.74208 350.656248 
L 196.18848 350.57971 
L 196.45632 350.468403 
L 196.72416 350.483647 
L 196.90272 350.656248 
L 198.3312 350.498885 
L 199.49184 350.590332 
L 200.29536 350.567416 
L 200.47392 350.394392 
L 201.27744 350.292492 
L 201.54528 350.362614 
L 201.81312 350.350417 
L 204.22368 349.90127 
L 204.5808 349.798612 
L 204.93792 349.894562 
L 206.63424 349.736191 
L 207.79488 350.184864 
L 208.24128 350.280161 
L 209.13408 350.59163 
L 209.75904 350.780531 
L 213.41952 353.155513 
L 213.77664 353.431673 
L 217.34784 355.751424 
L 217.70496 356.027586 
L 218.15136 356.193281 
L 223.59744 356.278805 
L 224.31168 356.533368 
L 224.57952 356.619099 
L 225.47232 356.962454 
L 225.74016 357.048412 
L 226.63296 357.39267 
L 226.9008 357.478852 
L 227.70432 357.780819 
L 227.97216 357.867201 
L 228.86496 358.213184 
L 229.1328 358.299795 
L 235.20384 361.131317 
L 235.56096 361.238384 
L 237.34656 362.010765 
L 237.97152 362.258354 
L 239.66784 362.978151 
L 242.70336 364.217161 
L 242.9712 364.307227 
L 244.66752 365.042784 
L 245.6496 365.434416 
L 246.45312 365.729172 
L 246.81024 365.837427 
L 248.59584 366.629215 
L 250.56 367.402878 
L 251.54208 367.768765 
L 252.16704 367.99045 
L 252.43488 368.07318 
L 252.792 368.30672 
L 253.2384 368.44703 
L 253.77408 368.624767 
L 254.66688 368.982971 
L 255.024 369.084338 
L 255.38112 369.237132 
L 256.27392 369.598741 
L 256.63104 369.673688 
L 257.7024 370.145772 
L 257.97024 370.250125 
L 258.5952 370.488849 
L 259.0416 370.608522 
L 260.02368 371.010375 
L 260.47008 371.105756 
L 261.45216 371.547169 
L 261.89856 371.65968 
L 262.70208 371.968718 
L 263.14848 372.066937 
L 264.04128 372.443065 
L 264.75552 372.712106 
L 265.2912 372.893089 
L 269.7552 374.283313 
L 271.63008 374.594749 
L 271.9872 374.697132 
L 273.41568 374.978111 
L 274.04064 375.21927 
L 274.57632 375.295907 
L 276.0048 375.542436 
L 276.27264 375.769624 
L 280.82592 376.936119 
L 281.3616 377.122265 
L 281.808 377.198065 
L 282.43296 377.448687 
L 283.86144 377.853291 
L 284.4864 378.107184 
L 284.75424 378.209906 
L 292.78944 381.28291 
L 293.05728 381.442181 
L 293.32512 381.56195 
L 293.68224 381.688543 
L 293.95008 381.793344 
L 295.11072 382.351533 
L 295.73568 382.599437 
L 296.00352 382.660504 
L 296.27136 382.765798 
L 296.5392 382.839091 
L 297.07488 382.97168 
L 297.432 383.085255 
L 297.8784 383.20213 
L 298.14624 383.265739 
L 298.7712 383.392007 
L 298.94976 383.496249 
L 299.84256 383.73728 
L 300.19968 383.81239 
L 300.5568 383.921134 
L 301.36032 384.05299 
L 301.80672 384.218892 
L 302.61024 384.348886 
L 302.96736 384.460575 
L 303.50304 384.582444 
L 303.77088 384.643993 
L 304.5744 384.768983 
L 304.93152 384.880333 
L 305.28864 384.991752 
L 305.64576 385.048079 
L 306.62784 385.231064 
L 306.98496 385.336433 
L 307.78848 385.463556 
L 308.94912 385.653566 
L 309.30624 385.748999 
L 310.02048 385.872585 
L 311.35968 386.115108 
L 311.62752 386.164458 
L 312.69888 386.289543 
L 313.9488 386.478763 
L 314.30592 386.577207 
L 315.19872 386.694616 
L 319.03776 387.188498 
L 319.12704 386.056557 
L 319.21632 386.071798 
L 321.80544 386.407108 
L 322.51968 386.513797 
L 325.91232 387.138693 
L 326.09088 388.8 
L 518.4 388.8 
L 518.4 388.8 
" style="fill:none;stroke:#bfbf00;stroke-dasharray:6.000000,6.000000;stroke-dashoffset:0.0;"/>
   </g>
   <g id="line2d_3">
    <path clip-path="url(#p844269c9dd)" d="M 72.08928 388.8 
L 72.17856 388.8 
L 72.26784 388.8 
L 72.4464 85.023031 
L 72.53568 85.023031 
L 72.71424 315.322 
L 72.80352 315.322 
L 74.14272 317.25221 
L 74.232 317.223298 
L 75.66048 319.48868 
L 75.92832 319.908424 
L 76.73184 321.201427 
L 76.9104 321.47426 
L 78.2496 324.044232 
L 78.42816 324.366921 
L 79.67808 327.236874 
L 79.85664 327.587484 
L 80.39232 328.801888 
L 80.57088 329.152446 
L 81.46368 331.250563 
L 81.64224 331.601395 
L 82.17792 332.819823 
L 82.35648 333.170629 
L 83.16 335.033812 
L 83.33856 335.384849 
L 84.0528 337.182148 
L 84.14208 337.182148 
L 84.40992 337.999193 
L 84.4992 337.999193 
L 84.76704 338.816428 
L 84.85632 338.816428 
L 85.12416 339.435078 
L 85.21344 339.435078 
L 85.48128 339.740332 
L 85.74912 339.739653 
L 86.01696 340.05729 
L 86.2848 340.247725 
L 86.55264 340.360578 
L 86.64192 340.411303 
L 86.82048 340.614238 
L 87.08832 340.739385 
L 87.26688 340.864379 
L 87.35616 340.864379 
L 87.53472 341.079883 
L 87.71328 341.115737 
L 87.89184 341.331309 
L 88.15968 341.569441 
L 88.33824 341.655883 
L 88.42752 341.655883 
L 88.78464 341.957323 
L 89.4096 342.420455 
L 89.49888 342.392364 
L 89.76672 342.604765 
L 90.03456 342.817218 
L 90.12384 342.814052 
L 90.48096 343.16608 
L 90.57024 343.124531 
L 90.83808 343.362252 
L 90.92736 343.358854 
L 91.1952 343.609254 
L 91.28448 343.580146 
L 91.55232 343.843272 
L 91.6416 343.839669 
L 91.90944 344.115562 
L 91.99872 344.086297 
L 92.17728 344.247873 
L 92.26656 344.231212 
L 92.5344 344.519968 
L 92.62368 344.528802 
L 92.80224 344.677581 
L 92.89152 344.686324 
L 93.07008 344.835119 
L 93.15936 344.818295 
L 93.33792 344.967095 
L 93.4272 344.988457 
L 93.69504 345.315839 
L 93.8736 345.320203 
L 94.05216 345.481863 
L 94.14144 345.464862 
L 94.32 345.664801 
L 94.40928 345.647748 
L 94.67712 345.975564 
L 94.85568 345.979588 
L 95.03424 346.141401 
L 95.12352 346.124229 
L 95.30208 346.273259 
L 95.6592 346.451711 
L 95.92704 346.767212 
L 96.1056 346.783652 
L 96.28416 346.94566 
L 96.37344 346.928264 
L 96.552 347.090301 
L 96.81984 347.222045 
L 96.9984 347.384156 
L 97.08768 347.404894 
L 97.35552 347.690977 
L 97.8912 347.856282 
L 98.15904 348.11789 
L 98.42688 348.178915 
L 98.69472 348.490647 
L 98.87328 348.467979 
L 99.05184 348.635239 
L 99.14112 348.630364 
L 99.31968 348.779817 
L 99.40896 348.774908 
L 99.58752 348.919439 
L 99.6768 348.919439 
L 99.94464 349.244468 
L 100.30176 349.350795 
L 100.48032 349.495366 
L 101.4624 349.936922 
L 101.64096 350.089828 
L 101.73024 349.958008 
L 101.9088 350.079936 
L 102.08736 349.963359 
L 102.3552 350.126068 
L 102.44448 350.009491 
L 102.62304 350.131419 
L 102.8016 350.121527 
L 102.89088 350.121527 
L 103.06944 350.00495 
L 103.42656 350.116987 
L 103.60512 350.00041 
L 103.96224 350.112446 
L 104.1408 349.995859 
L 104.31936 350.00121 
L 104.40864 350.00121 
L 104.49792 350.123149 
L 104.67648 350.006562 
L 105.0336 350.118599 
L 105.21216 350.002022 
L 105.56928 350.114058 
L 105.74784 350.012725 
L 106.01568 350.124761 
L 106.28352 350.008179 
L 106.46208 350.064203 
L 106.64064 349.962859 
L 106.99776 350.074901 
L 107.2656 350.02958 
L 135.21024 350.037697 
L 135.47808 350.200406 
L 135.56736 350.149734 
L 135.65664 350.271668 
L 135.74592 350.205757 
L 135.8352 350.155085 
L 136.01376 350.211104 
L 136.10304 350.160437 
L 136.2816 350.216455 
L 136.37088 350.150545 
L 136.54944 350.221807 
L 136.728 350.155897 
L 136.81728 350.277825 
L 136.90656 350.211915 
L 136.99584 350.161243 
L 137.08512 350.283177 
L 137.1744 350.217267 
L 137.26368 350.166595 
L 137.44224 350.222613 
L 137.53152 350.171946 
L 137.71008 350.227965 
L 137.79936 350.162054 
L 137.97792 350.233316 
L 138.0672 350.167406 
L 138.15648 350.289334 
L 138.24576 350.223424 
L 138.33504 350.172752 
L 138.42432 350.294686 
L 138.5136 350.22877 
L 138.60288 350.178104 
L 138.78144 350.234122 
L 138.87072 350.183455 
L 139.04928 350.239474 
L 139.13856 350.173563 
L 139.31712 350.244825 
L 139.4064 350.17891 
L 139.49568 350.300844 
L 139.58496 350.234933 
L 139.76352 350.133589 
L 139.94208 350.189613 
L 140.03136 350.123703 
L 140.20992 350.194965 
L 140.2992 350.129049 
L 140.38848 350.250983 
L 140.47776 350.185072 
L 140.56704 350.134401 
L 140.65632 350.256329 
L 140.7456 350.190424 
L 140.83488 350.139752 
L 141.01344 350.19577 
L 141.10272 350.145104 
L 141.28128 350.201122 
L 141.54912 350.140558 
L 141.6384 350.262492 
L 141.72768 350.196582 
L 144.22752 350.214243 
L 144.40608 350.255028 
L 144.49536 350.189113 
L 144.7632 350.321339 
L 144.85248 350.24019 
L 145.03104 350.265726 
L 145.12032 350.341934 
L 145.2096 350.26078 
L 145.38816 350.347281 
L 146.81664 350.424294 
L 146.90592 350.485259 
L 147.08448 350.419354 
L 148.87008 350.52912 
L 149.58432 350.61295 
L 150.5664 350.521498 
L 150.74496 350.663617 
L 151.28064 350.556926 
L 151.4592 350.683801 
L 151.81632 350.577111 
L 151.99488 350.688747 
L 152.352 350.582057 
L 152.53056 350.693698 
L 152.97696 350.556526 
L 153.15552 350.683401 
L 153.60192 350.561467 
L 153.78048 350.718829 
L 154.31616 350.566418 
L 154.49472 350.551174 
L 154.67328 350.678049 
L 155.29824 350.540877 
L 155.4768 350.667751 
L 156.10176 350.561061 
L 156.28032 350.530579 
L 156.45888 350.672697 
L 157.2624 350.520287 
L 157.44096 350.677644 
L 158.6016 350.525233 
L 158.78016 350.667351 
L 160.11936 350.514935 
L 160.29792 350.672292 
L 161.81568 350.519881 
L 162.08352 350.504643 
L 162.26208 350.661999 
L 164.49408 350.494345 
L 164.67264 350.651707 
L 166.81536 350.545012 
L 167.70816 350.499291 
L 167.88672 350.656648 
L 168.60096 350.641409 
L 172.35072 350.534719 
L 173.24352 350.488999 
L 173.42208 350.646355 
L 173.7792 350.631112 
L 173.95776 350.473755 
L 174.2256 350.473755 
L 174.40416 350.646355 
L 175.65408 350.646355 
L 175.83264 350.473755 
L 175.92192 350.473755 
L 176.10048 350.646355 
L 181.45728 350.539665 
L 182.35008 350.493939 
L 182.52864 350.493939 
L 182.7072 350.651296 
L 182.88576 350.636058 
L 183.06432 350.463457 
L 183.77856 350.651296 
L 183.95712 350.463457 
L 184.13568 350.478696 
L 184.31424 350.651296 
L 184.4928 350.651296 
L 184.67136 350.463457 
L 184.84992 350.478696 
L 185.02848 350.651296 
L 185.3856 350.636058 
L 185.56416 350.463457 
L 185.65344 350.478696 
L 185.832 350.651296 
L 186.54624 350.636058 
L 186.7248 350.478696 
L 186.90336 350.478696 
L 187.08192 350.651296 
L 193.15296 350.544611 
L 194.04576 350.498885 
L 194.40288 350.483647 
L 194.58144 350.656248 
L 194.84928 350.641004 
L 195.02784 350.468403 
L 195.56352 350.483647 
L 195.74208 350.656248 
L 196.0992 350.641004 
L 196.27776 350.468403 
L 196.72416 350.483647 
L 196.90272 350.656248 
L 198.3312 350.498885 
L 199.49184 350.590332 
L 200.29536 350.567416 
L 200.47392 350.394392 
L 201.27744 350.292492 
L 201.36672 350.279453 
L 201.54528 350.388758 
L 202.25952 350.299053 
L 202.7952 350.157996 
L 203.50944 350.055293 
L 204.1344 349.90127 
L 205.29504 349.817216 
L 205.92 349.663231 
L 206.54496 349.694701 
L 206.72352 349.815786 
L 206.8128 349.777416 
L 207.08064 350.006983 
L 207.2592 349.99401 
L 207.43776 350.089478 
L 207.88416 350.184864 
L 208.06272 350.280161 
L 208.5984 350.349801 
L 208.77696 350.470774 
L 208.86624 350.470774 
L 209.0448 350.6302 
L 209.22336 350.604559 
L 209.40192 350.750976 
L 209.66976 350.725297 
L 209.84832 350.84592 
L 210.02688 350.858832 
L 210.20544 350.979339 
L 210.29472 350.979339 
L 210.47328 351.099732 
L 210.65184 351.112632 
L 210.8304 351.220007 
L 211.45536 351.365952 
L 211.63392 351.473106 
L 212.08032 351.618787 
L 212.25888 351.725728 
L 212.43744 351.738593 
L 212.616 351.89717 
L 212.88384 351.884006 
L 212.97312 351.884006 
L 213.15168 352.01643 
L 213.41952 352.054987 
L 213.59808 352.212952 
L 214.13376 352.276722 
L 214.31232 352.434431 
L 215.38368 352.714778 
L 215.56224 352.906663 
L 216.81216 353.396726 
L 218.15136 353.854533 
L 218.32992 354.104126 
L 219.66912 354.629429 
L 219.84768 354.717649 
L 220.6512 354.993442 
L 220.82976 355.064917 
L 221.00832 355.269615 
L 221.81184 355.557462 
L 222.25824 355.62963 
L 222.4368 355.919348 
L 223.06176 356.019182 
L 223.24032 356.118488 
L 223.3296 356.132883 
L 223.50816 356.349956 
L 224.04384 356.44888 
L 224.31168 356.533368 
L 224.40096 356.533368 
L 224.57952 356.820283 
L 224.84736 356.861845 
L 226.27584 357.354901 
L 226.4544 357.597755 
L 226.72224 357.595866 
L 226.99008 357.707813 
L 227.25792 357.761611 
L 227.43648 357.975634 
L 227.61504 358.028922 
L 228.24 358.137669 
L 228.41856 358.392593 
L 229.1328 358.597682 
L 229.31136 358.778803 
L 229.5792 358.848031 
L 229.84704 358.913291 
L 230.11488 358.982394 
L 230.29344 359.194049 
L 231.00768 359.37789 
L 231.18624 359.561125 
L 231.45408 359.638437 
L 231.90048 359.748185 
L 232.52544 360.103033 
L 233.06112 360.206276 
L 233.1504 360.247206 
L 233.32896 360.408782 
L 234.0432 360.619552 
L 234.13248 360.646703 
L 234.31104 360.868132 
L 235.47168 361.330178 
L 236.18592 361.537138 
L 236.54304 361.658034 
L 236.7216 361.827767 
L 237.70368 362.125772 
L 237.88224 362.343395 
L 238.68576 362.585736 
L 238.9536 362.628109 
L 239.13216 362.844184 
L 240.2928 363.299554 
L 241.1856 363.575292 
L 241.45344 363.666765 
L 241.632 363.879787 
L 242.5248 364.152293 
L 242.79264 364.190052 
L 242.9712 364.401183 
L 244.04256 364.734069 
L 244.22112 364.943584 
L 245.47104 365.412388 
L 246.45312 365.711326 
L 246.81024 365.837427 
L 246.9888 366.042845 
L 248.14944 366.399364 
L 248.328 366.602739 
L 249.6672 367.084265 
L 250.73856 367.463965 
L 250.91712 367.465611 
L 251.0064 367.489955 
L 251.18496 367.688291 
L 252.16704 367.99045 
L 252.3456 368.026519 
L 252.52416 368.246307 
L 253.32768 368.459201 
L 253.6848 368.577862 
L 253.86336 368.770957 
L 254.66688 368.978709 
L 254.93472 369.03722 
L 255.73824 369.459991 
L 256.00608 369.517859 
L 256.27392 369.598741 
L 256.45248 369.626297 
L 256.54176 369.626297 
L 256.72032 369.813401 
L 257.07744 369.927573 
L 257.88096 370.211503 
L 258.05952 370.329049 
L 258.32736 370.385128 
L 258.77376 370.552813 
L 259.0416 370.608522 
L 259.84512 371.010375 
L 260.47008 371.105756 
L 261.2736 371.498948 
L 261.72 371.606211 
L 262.34496 371.867697 
L 262.79136 371.972768 
L 264.04128 372.443065 
L 264.48768 372.565893 
L 264.66624 372.721688 
L 269.48736 374.245691 
L 271.63008 374.594749 
L 271.89792 374.697132 
L 272.4336 374.749955 
L 272.70144 374.841215 
L 273.14784 374.877998 
L 273.3264 375.095854 
L 274.2192 375.249069 
L 275.91552 375.542436 
L 276.0048 375.542436 
L 276.18336 375.767056 
L 276.80832 375.889121 
L 277.87968 376.048689 
L 278.14752 376.259894 
L 279.30816 376.490122 
L 279.48672 376.649092 
L 280.4688 376.783385 
L 281.00448 377.021336 
L 281.71872 377.147027 
L 281.89728 377.35233 
L 282.43296 377.457458 
L 282.7008 377.482037 
L 282.87936 377.641325 
L 283.5936 377.750782 
L 283.77216 377.960612 
L 284.39712 378.069327 
L 284.57568 378.214219 
L 285.28992 378.334604 
L 285.46848 378.491744 
L 286.00416 378.589862 
L 286.18272 378.744682 
L 286.45056 378.823215 
L 286.62912 378.837616 
L 286.80768 378.982926 
L 287.07552 379.065988 
L 287.43264 379.099458 
L 287.6112 379.294236 
L 288.14688 379.40524 
L 288.32544 379.555639 
L 288.77184 379.649605 
L 288.9504 379.802482 
L 289.3968 379.845032 
L 289.57536 380.049074 
L 290.02176 380.091465 
L 290.20032 380.304809 
L 290.55744 380.32827 
L 290.736 380.483761 
L 291.1824 380.711117 
L 291.71808 380.810644 
L 291.89664 380.957001 
L 292.25376 381.046869 
L 292.43232 381.197991 
L 292.78944 381.28291 
L 292.968 381.438765 
L 293.23584 381.457266 
L 293.4144 381.660874 
L 293.8608 381.835312 
L 294.12864 381.910478 
L 294.21792 381.915073 
L 294.39648 382.066553 
L 294.7536 382.14148 
L 294.93216 382.302224 
L 295.28928 382.372329 
L 295.46784 382.524006 
L 295.6464 382.546845 
L 295.82496 382.698575 
L 296.0928 382.660504 
L 296.27136 382.812234 
L 297.07488 382.97168 
L 297.25344 383.07146 
L 297.69984 383.089851 
L 297.8784 383.255454 
L 298.23552 383.221758 
L 298.41408 383.373582 
L 299.2176 383.514717 
L 299.39616 383.666598 
L 300.28896 383.81239 
L 300.46752 383.907215 
L 301.36032 384.05299 
L 301.53888 384.200295 
L 302.61024 384.346113 
L 302.7888 384.498126 
L 303.05664 384.46396 
L 303.32448 384.473295 
L 303.50304 384.62065 
L 305.11008 384.879592 
L 305.28864 385.026981 
L 306.53856 385.177569 
L 306.71712 385.329714 
L 307.2528 385.29995 
L 307.43136 385.442673 
L 308.85984 385.598039 
L 309.0384 385.74553 
L 309.57408 385.715633 
L 309.75264 385.85838 
L 311.18112 386.006715 
L 311.35968 386.151869 
L 313.85952 386.424866 
L 314.03808 386.567673 
L 315.64512 386.713719 
L 315.82368 386.807153 
L 316.71648 386.835877 
L 316.89504 386.983492 
L 317.78784 386.957977 
L 317.9664 387.100789 
L 318.94848 387.134369 
L 319.12704 387.222816 
L 320.01984 387.251667 
L 320.1984 387.394515 
L 322.51968 387.522202 
L 322.69824 387.672296 
L 325.5552 387.810471 
L 325.73376 387.903345 
L 326.26944 387.937265 
L 326.448 388.468607 
L 326.71584 388.413375 
L 330.10848 388.330526 
L 330.37632 388.275294 
L 518.4 388.247678 
L 518.4 388.247678 
" style="fill:none;stroke:#0000ff;stroke-linecap:square;"/>
   </g>
   <g id="line2d_4">
    <path clip-path="url(#p844269c9dd)" d="M 72.08928 279.869875 
L 518.4 279.869875 
L 518.4 279.869875 
" style="fill:none;stroke:#000000;stroke-linecap:square;"/>
   </g>
   <g id="line2d_5">
    <path clip-path="url(#p844269c9dd)" d="M 72.08928 339.428571 
L 206.18784 339.527314 
L 295.46784 388.8 
L 518.4 388.8 
L 518.4 388.8 
" style="fill:none;stroke:#bf00bf;stroke-linecap:square;"/>
   </g>
   <g id="patch_3">
    <path d="M 72 43.2 
L 518.4 43.2 
" style="fill:none;stroke:#000000;stroke-linecap:square;stroke-linejoin:miter;"/>
   </g>
   <g id="patch_4">
    <path d="M 518.4 388.8 
L 518.4 43.2 
" style="fill:none;stroke:#000000;stroke-linecap:square;stroke-linejoin:miter;"/>
   </g>
   <g id="patch_5">
    <path d="M 72 388.8 
L 518.4 388.8 
" style="fill:none;stroke:#000000;stroke-linecap:square;stroke-linejoin:miter;"/>
   </g>
   <g id="patch_6">
    <path d="M 72 388.8 
L 72 43.2 
" style="fill:none;stroke:#000000;stroke-linecap:square;stroke-linejoin:miter;"/>
   </g>
   <g id="matplotlib.axis_1">
    <g id="xtick_1">
     <g id="line2d_6">
      <path clip-path="url(#p844269c9dd)" d="M 72 388.8 
L 72 43.2 
" style="fill:none;stroke:#000000;stroke-dasharray:1.000000,3.000000;stroke-dashoffset:0.0;stroke-width:0.5;"/>
     </g>
     <g id="line2d_7">
      <defs>
       <path d="M 0 0 
L 0 -4 
" id="m13a4f708e0" style="stroke:#000000;stroke-width:0.5;"/>
      </defs>
      <g>
       <use style="stroke:#000000;stroke-width:0.5;" x="72.0" xlink:href="#m13a4f708e0" y="388.8"/>
      </g>
     </g>
     <g id="line2d_8">
      <defs>
       <path d="M 0 0 
L 0 4 
" id="m4e141e8f2d" style="stroke:#000000;stroke-width:0.5;"/>
      </defs>
      <g>
       <use style="stroke:#000000;stroke-width:0.5;" x="72.0" xlink:href="#m4e141e8f2d" y="43.2"/>
      </g>
     </g>
     <g id="text_1">
      <!-- 0 -->
      <defs>
       <path d="M 31.78125 66.40625 
Q 24.171875 66.40625 20.328125 58.90625 
Q 16.5 51.421875 16.5 36.375 
Q 16.5 21.390625 20.328125 13.890625 
Q 24.171875 6.390625 31.78125 6.390625 
Q 39.453125 6.390625 43.28125 13.890625 
Q 47.125 21.390625 47.125 36.375 
Q 47.125 51.421875 43.28125 58.90625 
Q 39.453125 66.40625 31.78125 66.40625 
M 31.78125 74.21875 
Q 44.046875 74.21875 50.515625 64.515625 
Q 56.984375 54.828125 56.984375 36.375 
Q 56.984375 17.96875 50.515625 8.265625 
Q 44.046875 -1.421875 31.78125 -1.421875 
Q 19.53125 -1.421875 13.0625 8.265625 
Q 6.59375 17.96875 6.59375 36.375 
Q 6.59375 54.828125 13.0625 64.515625 
Q 19.53125 74.21875 31.78125 74.21875 
" id="BitstreamVeraSans-Roman-30"/>
      </defs>
      <g transform="translate(68.1825 401.918125)scale(0.12 -0.12)">
       <use xlink:href="#BitstreamVeraSans-Roman-30"/>
      </g>
     </g>
    </g>
    <g id="xtick_2">
     <g id="line2d_9">
      <path clip-path="url(#p844269c9dd)" d="M 161.28 388.8 
L 161.28 43.2 
" style="fill:none;stroke:#000000;stroke-dasharray:1.000000,3.000000;stroke-dashoffset:0.0;stroke-width:0.5;"/>
     </g>
     <g id="line2d_10">
      <g>
       <use style="stroke:#000000;stroke-width:0.5;" x="161.28" xlink:href="#m13a4f708e0" y="388.8"/>
      </g>
     </g>
     <g id="line2d_11">
      <g>
       <use style="stroke:#000000;stroke-width:0.5;" x="161.28" xlink:href="#m4e141e8f2d" y="43.2"/>
      </g>
     </g>
     <g id="text_2">
      <!-- 10 -->
      <defs>
       <path d="M 12.40625 8.296875 
L 28.515625 8.296875 
L 28.515625 63.921875 
L 10.984375 60.40625 
L 10.984375 69.390625 
L 28.421875 72.90625 
L 38.28125 72.90625 
L 38.28125 8.296875 
L 54.390625 8.296875 
L 54.390625 0 
L 12.40625 0 
z
" id="BitstreamVeraSans-Roman-31"/>
      </defs>
      <g transform="translate(153.645 401.918125)scale(0.12 -0.12)">
       <use xlink:href="#BitstreamVeraSans-Roman-31"/>
       <use x="63.623046875" xlink:href="#BitstreamVeraSans-Roman-30"/>
      </g>
     </g>
    </g>
    <g id="xtick_3">
     <g id="line2d_12">
      <path clip-path="url(#p844269c9dd)" d="M 250.56 388.8 
L 250.56 43.2 
" style="fill:none;stroke:#000000;stroke-dasharray:1.000000,3.000000;stroke-dashoffset:0.0;stroke-width:0.5;"/>
     </g>
     <g id="line2d_13">
      <g>
       <use style="stroke:#000000;stroke-width:0.5;" x="250.56" xlink:href="#m13a4f708e0" y="388.8"/>
      </g>
     </g>
     <g id="line2d_14">
      <g>
       <use style="stroke:#000000;stroke-width:0.5;" x="250.56" xlink:href="#m4e141e8f2d" y="43.2"/>
      </g>
     </g>
     <g id="text_3">
      <!-- 20 -->
      <defs>
       <path d="M 19.1875 8.296875 
L 53.609375 8.296875 
L 53.609375 0 
L 7.328125 0 
L 7.328125 8.296875 
Q 12.9375 14.109375 22.625 23.890625 
Q 32.328125 33.6875 34.8125 36.53125 
Q 39.546875 41.84375 41.421875 45.53125 
Q 43.3125 49.21875 43.3125 52.78125 
Q 43.3125 58.59375 39.234375 62.25 
Q 35.15625 65.921875 28.609375 65.921875 
Q 23.96875 65.921875 18.8125 64.3125 
Q 13.671875 62.703125 7.8125 59.421875 
L 7.8125 69.390625 
Q 13.765625 71.78125 18.9375 73 
Q 24.125 74.21875 28.421875 74.21875 
Q 39.75 74.21875 46.484375 68.546875 
Q 53.21875 62.890625 53.21875 53.421875 
Q 53.21875 48.921875 51.53125 44.890625 
Q 49.859375 40.875 45.40625 35.40625 
Q 44.1875 33.984375 37.640625 27.21875 
Q 31.109375 20.453125 19.1875 8.296875 
" id="BitstreamVeraSans-Roman-32"/>
      </defs>
      <g transform="translate(242.925 401.918125)scale(0.12 -0.12)">
       <use xlink:href="#BitstreamVeraSans-Roman-32"/>
       <use x="63.623046875" xlink:href="#BitstreamVeraSans-Roman-30"/>
      </g>
     </g>
    </g>
    <g id="xtick_4">
     <g id="line2d_15">
      <path clip-path="url(#p844269c9dd)" d="M 339.84 388.8 
L 339.84 43.2 
" style="fill:none;stroke:#000000;stroke-dasharray:1.000000,3.000000;stroke-dashoffset:0.0;stroke-width:0.5;"/>
     </g>
     <g id="line2d_16">
      <g>
       <use style="stroke:#000000;stroke-width:0.5;" x="339.84" xlink:href="#m13a4f708e0" y="388.8"/>
      </g>
     </g>
     <g id="line2d_17">
      <g>
       <use style="stroke:#000000;stroke-width:0.5;" x="339.84" xlink:href="#m4e141e8f2d" y="43.2"/>
      </g>
     </g>
     <g id="text_4">
      <!-- 30 -->
      <defs>
       <path d="M 40.578125 39.3125 
Q 47.65625 37.796875 51.625 33 
Q 55.609375 28.21875 55.609375 21.1875 
Q 55.609375 10.40625 48.1875 4.484375 
Q 40.765625 -1.421875 27.09375 -1.421875 
Q 22.515625 -1.421875 17.65625 -0.515625 
Q 12.796875 0.390625 7.625 2.203125 
L 7.625 11.71875 
Q 11.71875 9.328125 16.59375 8.109375 
Q 21.484375 6.890625 26.8125 6.890625 
Q 36.078125 6.890625 40.9375 10.546875 
Q 45.796875 14.203125 45.796875 21.1875 
Q 45.796875 27.640625 41.28125 31.265625 
Q 36.765625 34.90625 28.71875 34.90625 
L 20.21875 34.90625 
L 20.21875 43.015625 
L 29.109375 43.015625 
Q 36.375 43.015625 40.234375 45.921875 
Q 44.09375 48.828125 44.09375 54.296875 
Q 44.09375 59.90625 40.109375 62.90625 
Q 36.140625 65.921875 28.71875 65.921875 
Q 24.65625 65.921875 20.015625 65.03125 
Q 15.375 64.15625 9.8125 62.3125 
L 9.8125 71.09375 
Q 15.4375 72.65625 20.34375 73.4375 
Q 25.25 74.21875 29.59375 74.21875 
Q 40.828125 74.21875 47.359375 69.109375 
Q 53.90625 64.015625 53.90625 55.328125 
Q 53.90625 49.265625 50.4375 45.09375 
Q 46.96875 40.921875 40.578125 39.3125 
" id="BitstreamVeraSans-Roman-33"/>
      </defs>
      <g transform="translate(332.205 401.918125)scale(0.12 -0.12)">
       <use xlink:href="#BitstreamVeraSans-Roman-33"/>
       <use x="63.623046875" xlink:href="#BitstreamVeraSans-Roman-30"/>
      </g>
     </g>
    </g>
    <g id="xtick_5">
     <g id="line2d_18">
      <path clip-path="url(#p844269c9dd)" d="M 429.12 388.8 
L 429.12 43.2 
" style="fill:none;stroke:#000000;stroke-dasharray:1.000000,3.000000;stroke-dashoffset:0.0;stroke-width:0.5;"/>
     </g>
     <g id="line2d_19">
      <g>
       <use style="stroke:#000000;stroke-width:0.5;" x="429.12" xlink:href="#m13a4f708e0" y="388.8"/>
      </g>
     </g>
     <g id="line2d_20">
      <g>
       <use style="stroke:#000000;stroke-width:0.5;" x="429.12" xlink:href="#m4e141e8f2d" y="43.2"/>
      </g>
     </g>
     <g id="text_5">
      <!-- 40 -->
      <defs>
       <path d="M 37.796875 64.3125 
L 12.890625 25.390625 
L 37.796875 25.390625 
z
M 35.203125 72.90625 
L 47.609375 72.90625 
L 47.609375 25.390625 
L 58.015625 25.390625 
L 58.015625 17.1875 
L 47.609375 17.1875 
L 47.609375 0 
L 37.796875 0 
L 37.796875 17.1875 
L 4.890625 17.1875 
L 4.890625 26.703125 
z
" id="BitstreamVeraSans-Roman-34"/>
      </defs>
      <g transform="translate(421.485 401.918125)scale(0.12 -0.12)">
       <use xlink:href="#BitstreamVeraSans-Roman-34"/>
       <use x="63.623046875" xlink:href="#BitstreamVeraSans-Roman-30"/>
      </g>
     </g>
    </g>
    <g id="xtick_6">
     <g id="line2d_21">
      <path clip-path="url(#p844269c9dd)" d="M 518.4 388.8 
L 518.4 43.2 
" style="fill:none;stroke:#000000;stroke-dasharray:1.000000,3.000000;stroke-dashoffset:0.0;stroke-width:0.5;"/>
     </g>
     <g id="line2d_22">
      <g>
       <use style="stroke:#000000;stroke-width:0.5;" x="518.4" xlink:href="#m13a4f708e0" y="388.8"/>
      </g>
     </g>
     <g id="line2d_23">
      <g>
       <use style="stroke:#000000;stroke-width:0.5;" x="518.4" xlink:href="#m4e141e8f2d" y="43.2"/>
      </g>
     </g>
     <g id="text_6">
      <!-- 50 -->
      <defs>
       <path d="M 10.796875 72.90625 
L 49.515625 72.90625 
L 49.515625 64.59375 
L 19.828125 64.59375 
L 19.828125 46.734375 
Q 21.96875 47.46875 24.109375 47.828125 
Q 26.265625 48.1875 28.421875 48.1875 
Q 40.625 48.1875 47.75 41.5 
Q 54.890625 34.8125 54.890625 23.390625 
Q 54.890625 11.625 47.5625 5.09375 
Q 40.234375 -1.421875 26.90625 -1.421875 
Q 22.3125 -1.421875 17.546875 -0.640625 
Q 12.796875 0.140625 7.71875 1.703125 
L 7.71875 11.625 
Q 12.109375 9.234375 16.796875 8.0625 
Q 21.484375 6.890625 26.703125 6.890625 
Q 35.15625 6.890625 40.078125 11.328125 
Q 45.015625 15.765625 45.015625 23.390625 
Q 45.015625 31 40.078125 35.4375 
Q 35.15625 39.890625 26.703125 39.890625 
Q 22.75 39.890625 18.8125 39.015625 
Q 14.890625 38.140625 10.796875 36.28125 
z
" id="BitstreamVeraSans-Roman-35"/>
      </defs>
      <g transform="translate(510.765 401.918125)scale(0.12 -0.12)">
       <use xlink:href="#BitstreamVeraSans-Roman-35"/>
       <use x="63.623046875" xlink:href="#BitstreamVeraSans-Roman-30"/>
      </g>
     </g>
    </g>
    <g id="text_7">
     <!-- Time [s] -->
     <defs>
      <path id="BitstreamVeraSans-Roman-20"/>
      <path d="M 8.59375 75.984375 
L 29.296875 75.984375 
L 29.296875 69 
L 17.578125 69 
L 17.578125 -6.203125 
L 29.296875 -6.203125 
L 29.296875 -13.1875 
L 8.59375 -13.1875 
z
" id="BitstreamVeraSans-Roman-5b"/>
      <path d="M 30.421875 75.984375 
L 30.421875 -13.1875 
L 9.71875 -13.1875 
L 9.71875 -6.203125 
L 21.390625 -6.203125 
L 21.390625 69 
L 9.71875 69 
L 9.71875 75.984375 
z
" id="BitstreamVeraSans-Roman-5d"/>
      <path d="M 52 44.1875 
Q 55.375 50.25 60.0625 53.125 
Q 64.75 56 71.09375 56 
Q 79.640625 56 84.28125 50.015625 
Q 88.921875 44.046875 88.921875 33.015625 
L 88.921875 0 
L 79.890625 0 
L 79.890625 32.71875 
Q 79.890625 40.578125 77.09375 44.375 
Q 74.3125 48.1875 68.609375 48.1875 
Q 61.625 48.1875 57.5625 43.546875 
Q 53.515625 38.921875 53.515625 30.90625 
L 53.515625 0 
L 44.484375 0 
L 44.484375 32.71875 
Q 44.484375 40.625 41.703125 44.40625 
Q 38.921875 48.1875 33.109375 48.1875 
Q 26.21875 48.1875 22.15625 43.53125 
Q 18.109375 38.875 18.109375 30.90625 
L 18.109375 0 
L 9.078125 0 
L 9.078125 54.6875 
L 18.109375 54.6875 
L 18.109375 46.1875 
Q 21.1875 51.21875 25.484375 53.609375 
Q 29.78125 56 35.6875 56 
Q 41.65625 56 45.828125 52.96875 
Q 50 49.953125 52 44.1875 
" id="BitstreamVeraSans-Roman-6d"/>
      <path d="M 9.421875 54.6875 
L 18.40625 54.6875 
L 18.40625 0 
L 9.421875 0 
z
M 9.421875 75.984375 
L 18.40625 75.984375 
L 18.40625 64.59375 
L 9.421875 64.59375 
z
" id="BitstreamVeraSans-Roman-69"/>
      <path d="M 56.203125 29.59375 
L 56.203125 25.203125 
L 14.890625 25.203125 
Q 15.484375 15.921875 20.484375 11.0625 
Q 25.484375 6.203125 34.421875 6.203125 
Q 39.59375 6.203125 44.453125 7.46875 
Q 49.3125 8.734375 54.109375 11.28125 
L 54.109375 2.78125 
Q 49.265625 0.734375 44.1875 -0.34375 
Q 39.109375 -1.421875 33.890625 -1.421875 
Q 20.796875 -1.421875 13.15625 6.1875 
Q 5.515625 13.8125 5.515625 26.8125 
Q 5.515625 40.234375 12.765625 48.109375 
Q 20.015625 56 32.328125 56 
Q 43.359375 56 49.78125 48.890625 
Q 56.203125 41.796875 56.203125 29.59375 
M 47.21875 32.234375 
Q 47.125 39.59375 43.09375 43.984375 
Q 39.0625 48.390625 32.421875 48.390625 
Q 24.90625 48.390625 20.390625 44.140625 
Q 15.875 39.890625 15.1875 32.171875 
z
" id="BitstreamVeraSans-Roman-65"/>
      <path d="M -0.296875 72.90625 
L 61.375 72.90625 
L 61.375 64.59375 
L 35.5 64.59375 
L 35.5 0 
L 25.59375 0 
L 25.59375 64.59375 
L -0.296875 64.59375 
z
" id="BitstreamVeraSans-Roman-54"/>
      <path d="M 44.28125 53.078125 
L 44.28125 44.578125 
Q 40.484375 46.53125 36.375 47.5 
Q 32.28125 48.484375 27.875 48.484375 
Q 21.1875 48.484375 17.84375 46.4375 
Q 14.5 44.390625 14.5 40.28125 
Q 14.5 37.15625 16.890625 35.375 
Q 19.28125 33.59375 26.515625 31.984375 
L 29.59375 31.296875 
Q 39.15625 29.25 43.1875 25.515625 
Q 47.21875 21.78125 47.21875 15.09375 
Q 47.21875 7.46875 41.1875 3.015625 
Q 35.15625 -1.421875 24.609375 -1.421875 
Q 20.21875 -1.421875 15.453125 -0.5625 
Q 10.6875 0.296875 5.421875 2 
L 5.421875 11.28125 
Q 10.40625 8.6875 15.234375 7.390625 
Q 20.0625 6.109375 24.8125 6.109375 
Q 31.15625 6.109375 34.5625 8.28125 
Q 37.984375 10.453125 37.984375 14.40625 
Q 37.984375 18.0625 35.515625 20.015625 
Q 33.0625 21.96875 24.703125 23.78125 
L 21.578125 24.515625 
Q 13.234375 26.265625 9.515625 29.90625 
Q 5.8125 33.546875 5.8125 39.890625 
Q 5.8125 47.609375 11.28125 51.796875 
Q 16.75 56 26.8125 56 
Q 31.78125 56 36.171875 55.265625 
Q 40.578125 54.546875 44.28125 53.078125 
" id="BitstreamVeraSans-Roman-73"/>
     </defs>
     <g transform="translate(270.620625 418.531875)scale(0.12 -0.12)">
      <use xlink:href="#BitstreamVeraSans-Roman-54"/>
      <use x="61.037109375" xlink:href="#BitstreamVeraSans-Roman-69"/>
      <use x="88.8203125" xlink:href="#BitstreamVeraSans-Roman-6d"/>
      <use x="186.232421875" xlink:href="#BitstreamVeraSans-Roman-65"/>
      <use x="247.755859375" xlink:href="#BitstreamVeraSans-Roman-20"/>
      <use x="279.54296875" xlink:href="#BitstreamVeraSans-Roman-5b"/>
      <use x="318.556640625" xlink:href="#BitstreamVeraSans-Roman-73"/>
      <use x="370.65625" xlink:href="#BitstreamVeraSans-Roman-5d"/>
     </g>
    </g>
   </g>
   <g id="matplotlib.axis_2">
    <g id="ytick_1">
     <g id="line2d_24">
      <path clip-path="url(#p844269c9dd)" d="M 72 388.8 
L 518.4 388.8 
" style="fill:none;stroke:#000000;stroke-dasharray:1.000000,3.000000;stroke-dashoffset:0.0;stroke-width:0.5;"/>
     </g>
     <g id="line2d_25">
      <defs>
       <path d="M 0 0 
L 4 0 
" id="m11e0b304a2" style="stroke:#000000;stroke-width:0.5;"/>
      </defs>
      <g>
       <use style="stroke:#000000;stroke-width:0.5;" x="72.0" xlink:href="#m11e0b304a2" y="388.8"/>
      </g>
     </g>
     <g id="line2d_26">
      <defs>
       <path d="M 0 0 
L -4 0 
" id="m0ed05aadc3" style="stroke:#000000;stroke-width:0.5;"/>
      </defs>
      <g>
       <use style="stroke:#000000;stroke-width:0.5;" x="518.4" xlink:href="#m0ed05aadc3" y="388.8"/>
      </g>
     </g>
     <g id="text_8">
      <!-- 0 -->
      <g transform="translate(60.365 392.11125)scale(0.12 -0.12)">
       <use xlink:href="#BitstreamVeraSans-Roman-30"/>
      </g>
     </g>
    </g>
    <g id="ytick_2">
     <g id="line2d_27">
      <path clip-path="url(#p844269c9dd)" d="M 72 339.428571 
L 518.4 339.428571 
" style="fill:none;stroke:#000000;stroke-dasharray:1.000000,3.000000;stroke-dashoffset:0.0;stroke-width:0.5;"/>
     </g>
     <g id="line2d_28">
      <g>
       <use style="stroke:#000000;stroke-width:0.5;" x="72.0" xlink:href="#m11e0b304a2" y="339.428571429"/>
      </g>
     </g>
     <g id="line2d_29">
      <g>
       <use style="stroke:#000000;stroke-width:0.5;" x="518.4" xlink:href="#m0ed05aadc3" y="339.428571429"/>
      </g>
     </g>
     <g id="text_9">
      <!-- 20 -->
      <g transform="translate(52.73 342.739821429)scale(0.12 -0.12)">
       <use xlink:href="#BitstreamVeraSans-Roman-32"/>
       <use x="63.623046875" xlink:href="#BitstreamVeraSans-Roman-30"/>
      </g>
     </g>
    </g>
    <g id="ytick_3">
     <g id="line2d_30">
      <path clip-path="url(#p844269c9dd)" d="M 72 290.057143 
L 518.4 290.057143 
" style="fill:none;stroke:#000000;stroke-dasharray:1.000000,3.000000;stroke-dashoffset:0.0;stroke-width:0.5;"/>
     </g>
     <g id="line2d_31">
      <g>
       <use style="stroke:#000000;stroke-width:0.5;" x="72.0" xlink:href="#m11e0b304a2" y="290.057142857"/>
      </g>
     </g>
     <g id="line2d_32">
      <g>
       <use style="stroke:#000000;stroke-width:0.5;" x="518.4" xlink:href="#m0ed05aadc3" y="290.057142857"/>
      </g>
     </g>
     <g id="text_10">
      <!-- 40 -->
      <g transform="translate(52.73 293.368392857)scale(0.12 -0.12)">
       <use xlink:href="#BitstreamVeraSans-Roman-34"/>
       <use x="63.623046875" xlink:href="#BitstreamVeraSans-Roman-30"/>
      </g>
     </g>
    </g>
    <g id="ytick_4">
     <g id="line2d_33">
      <path clip-path="url(#p844269c9dd)" d="M 72 240.685714 
L 518.4 240.685714 
" style="fill:none;stroke:#000000;stroke-dasharray:1.000000,3.000000;stroke-dashoffset:0.0;stroke-width:0.5;"/>
     </g>
     <g id="line2d_34">
      <g>
       <use style="stroke:#000000;stroke-width:0.5;" x="72.0" xlink:href="#m11e0b304a2" y="240.685714286"/>
      </g>
     </g>
     <g id="line2d_35">
      <g>
       <use style="stroke:#000000;stroke-width:0.5;" x="518.4" xlink:href="#m0ed05aadc3" y="240.685714286"/>
      </g>
     </g>
     <g id="text_11">
      <!-- 60 -->
      <defs>
       <path d="M 33.015625 40.375 
Q 26.375 40.375 22.484375 35.828125 
Q 18.609375 31.296875 18.609375 23.390625 
Q 18.609375 15.53125 22.484375 10.953125 
Q 26.375 6.390625 33.015625 6.390625 
Q 39.65625 6.390625 43.53125 10.953125 
Q 47.40625 15.53125 47.40625 23.390625 
Q 47.40625 31.296875 43.53125 35.828125 
Q 39.65625 40.375 33.015625 40.375 
M 52.59375 71.296875 
L 52.59375 62.3125 
Q 48.875 64.0625 45.09375 64.984375 
Q 41.3125 65.921875 37.59375 65.921875 
Q 27.828125 65.921875 22.671875 59.328125 
Q 17.53125 52.734375 16.796875 39.40625 
Q 19.671875 43.65625 24.015625 45.921875 
Q 28.375 48.1875 33.59375 48.1875 
Q 44.578125 48.1875 50.953125 41.515625 
Q 57.328125 34.859375 57.328125 23.390625 
Q 57.328125 12.15625 50.6875 5.359375 
Q 44.046875 -1.421875 33.015625 -1.421875 
Q 20.359375 -1.421875 13.671875 8.265625 
Q 6.984375 17.96875 6.984375 36.375 
Q 6.984375 53.65625 15.1875 63.9375 
Q 23.390625 74.21875 37.203125 74.21875 
Q 40.921875 74.21875 44.703125 73.484375 
Q 48.484375 72.75 52.59375 71.296875 
" id="BitstreamVeraSans-Roman-36"/>
      </defs>
      <g transform="translate(52.73 243.996964286)scale(0.12 -0.12)">
       <use xlink:href="#BitstreamVeraSans-Roman-36"/>
       <use x="63.623046875" xlink:href="#BitstreamVeraSans-Roman-30"/>
      </g>
     </g>
    </g>
    <g id="ytick_5">
     <g id="line2d_36">
      <path clip-path="url(#p844269c9dd)" d="M 72 191.314286 
L 518.4 191.314286 
" style="fill:none;stroke:#000000;stroke-dasharray:1.000000,3.000000;stroke-dashoffset:0.0;stroke-width:0.5;"/>
     </g>
     <g id="line2d_37">
      <g>
       <use style="stroke:#000000;stroke-width:0.5;" x="72.0" xlink:href="#m11e0b304a2" y="191.314285714"/>
      </g>
     </g>
     <g id="line2d_38">
      <g>
       <use style="stroke:#000000;stroke-width:0.5;" x="518.4" xlink:href="#m0ed05aadc3" y="191.314285714"/>
      </g>
     </g>
     <g id="text_12">
      <!-- 80 -->
      <defs>
       <path d="M 31.78125 34.625 
Q 24.75 34.625 20.71875 30.859375 
Q 16.703125 27.09375 16.703125 20.515625 
Q 16.703125 13.921875 20.71875 10.15625 
Q 24.75 6.390625 31.78125 6.390625 
Q 38.8125 6.390625 42.859375 10.171875 
Q 46.921875 13.96875 46.921875 20.515625 
Q 46.921875 27.09375 42.890625 30.859375 
Q 38.875 34.625 31.78125 34.625 
M 21.921875 38.8125 
Q 15.578125 40.375 12.03125 44.71875 
Q 8.5 49.078125 8.5 55.328125 
Q 8.5 64.0625 14.71875 69.140625 
Q 20.953125 74.21875 31.78125 74.21875 
Q 42.671875 74.21875 48.875 69.140625 
Q 55.078125 64.0625 55.078125 55.328125 
Q 55.078125 49.078125 51.53125 44.71875 
Q 48 40.375 41.703125 38.8125 
Q 48.828125 37.15625 52.796875 32.3125 
Q 56.78125 27.484375 56.78125 20.515625 
Q 56.78125 9.90625 50.3125 4.234375 
Q 43.84375 -1.421875 31.78125 -1.421875 
Q 19.734375 -1.421875 13.25 4.234375 
Q 6.78125 9.90625 6.78125 20.515625 
Q 6.78125 27.484375 10.78125 32.3125 
Q 14.796875 37.15625 21.921875 38.8125 
M 18.3125 54.390625 
Q 18.3125 48.734375 21.84375 45.5625 
Q 25.390625 42.390625 31.78125 42.390625 
Q 38.140625 42.390625 41.71875 45.5625 
Q 45.3125 48.734375 45.3125 54.390625 
Q 45.3125 60.0625 41.71875 63.234375 
Q 38.140625 66.40625 31.78125 66.40625 
Q 25.390625 66.40625 21.84375 63.234375 
Q 18.3125 60.0625 18.3125 54.390625 
" id="BitstreamVeraSans-Roman-38"/>
      </defs>
      <g transform="translate(52.73 194.625535714)scale(0.12 -0.12)">
       <use xlink:href="#BitstreamVeraSans-Roman-38"/>
       <use x="63.623046875" xlink:href="#BitstreamVeraSans-Roman-30"/>
      </g>
     </g>
    </g>
    <g id="ytick_6">
     <g id="line2d_39">
      <path clip-path="url(#p844269c9dd)" d="M 72 141.942857 
L 518.4 141.942857 
" style="fill:none;stroke:#000000;stroke-dasharray:1.000000,3.000000;stroke-dashoffset:0.0;stroke-width:0.5;"/>
     </g>
     <g id="line2d_40">
      <g>
       <use style="stroke:#000000;stroke-width:0.5;" x="72.0" xlink:href="#m11e0b304a2" y="141.942857143"/>
      </g>
     </g>
     <g id="line2d_41">
      <g>
       <use style="stroke:#000000;stroke-width:0.5;" x="518.4" xlink:href="#m0ed05aadc3" y="141.942857143"/>
      </g>
     </g>
     <g id="text_13">
      <!-- 100 -->
      <g transform="translate(45.095 145.254107143)scale(0.12 -0.12)">
       <use xlink:href="#BitstreamVeraSans-Roman-31"/>
       <use x="63.623046875" xlink:href="#BitstreamVeraSans-Roman-30"/>
       <use x="127.24609375" xlink:href="#BitstreamVeraSans-Roman-30"/>
      </g>
     </g>
    </g>
    <g id="ytick_7">
     <g id="line2d_42">
      <path clip-path="url(#p844269c9dd)" d="M 72 92.571429 
L 518.4 92.571429 
" style="fill:none;stroke:#000000;stroke-dasharray:1.000000,3.000000;stroke-dashoffset:0.0;stroke-width:0.5;"/>
     </g>
     <g id="line2d_43">
      <g>
       <use style="stroke:#000000;stroke-width:0.5;" x="72.0" xlink:href="#m11e0b304a2" y="92.5714285714"/>
      </g>
     </g>
     <g id="line2d_44">
      <g>
       <use style="stroke:#000000;stroke-width:0.5;" x="518.4" xlink:href="#m0ed05aadc3" y="92.5714285714"/>
      </g>
     </g>
     <g id="text_14">
      <!-- 120 -->
      <g transform="translate(45.095 95.8826785714)scale(0.12 -0.12)">
       <use xlink:href="#BitstreamVeraSans-Roman-31"/>
       <use x="63.623046875" xlink:href="#BitstreamVeraSans-Roman-32"/>
       <use x="127.24609375" xlink:href="#BitstreamVeraSans-Roman-30"/>
      </g>
     </g>
    </g>
    <g id="ytick_8">
     <g id="line2d_45">
      <path clip-path="url(#p844269c9dd)" d="M 72 43.2 
L 518.4 43.2 
" style="fill:none;stroke:#000000;stroke-dasharray:1.000000,3.000000;stroke-dashoffset:0.0;stroke-width:0.5;"/>
     </g>
     <g id="line2d_46">
      <g>
       <use style="stroke:#000000;stroke-width:0.5;" x="72.0" xlink:href="#m11e0b304a2" y="43.2"/>
      </g>
     </g>
     <g id="line2d_47">
      <g>
       <use style="stroke:#000000;stroke-width:0.5;" x="518.4" xlink:href="#m0ed05aadc3" y="43.2"/>
      </g>
     </g>
     <g id="text_15">
      <!-- 140 -->
      <g transform="translate(45.095 46.51125)scale(0.12 -0.12)">
       <use xlink:href="#BitstreamVeraSans-Roman-31"/>
       <use x="63.623046875" xlink:href="#BitstreamVeraSans-Roman-34"/>
       <use x="127.24609375" xlink:href="#BitstreamVeraSans-Roman-30"/>
      </g>
     </g>
    </g>
    <g id="text_16">
     <!-- Speed [mph] -->
     <defs>
      <path d="M 45.40625 46.390625 
L 45.40625 75.984375 
L 54.390625 75.984375 
L 54.390625 0 
L 45.40625 0 
L 45.40625 8.203125 
Q 42.578125 3.328125 38.25 0.953125 
Q 33.9375 -1.421875 27.875 -1.421875 
Q 17.96875 -1.421875 11.734375 6.484375 
Q 5.515625 14.40625 5.515625 27.296875 
Q 5.515625 40.1875 11.734375 48.09375 
Q 17.96875 56 27.875 56 
Q 33.9375 56 38.25 53.625 
Q 42.578125 51.265625 45.40625 46.390625 
M 14.796875 27.296875 
Q 14.796875 17.390625 18.875 11.75 
Q 22.953125 6.109375 30.078125 6.109375 
Q 37.203125 6.109375 41.296875 11.75 
Q 45.40625 17.390625 45.40625 27.296875 
Q 45.40625 37.203125 41.296875 42.84375 
Q 37.203125 48.484375 30.078125 48.484375 
Q 22.953125 48.484375 18.875 42.84375 
Q 14.796875 37.203125 14.796875 27.296875 
" id="BitstreamVeraSans-Roman-64"/>
      <path d="M 53.515625 70.515625 
L 53.515625 60.890625 
Q 47.90625 63.578125 42.921875 64.890625 
Q 37.9375 66.21875 33.296875 66.21875 
Q 25.25 66.21875 20.875 63.09375 
Q 16.5 59.96875 16.5 54.203125 
Q 16.5 49.359375 19.40625 46.890625 
Q 22.3125 44.4375 30.421875 42.921875 
L 36.375 41.703125 
Q 47.40625 39.59375 52.65625 34.296875 
Q 57.90625 29 57.90625 20.125 
Q 57.90625 9.515625 50.796875 4.046875 
Q 43.703125 -1.421875 29.984375 -1.421875 
Q 24.8125 -1.421875 18.96875 -0.25 
Q 13.140625 0.921875 6.890625 3.21875 
L 6.890625 13.375 
Q 12.890625 10.015625 18.65625 8.296875 
Q 24.421875 6.59375 29.984375 6.59375 
Q 38.421875 6.59375 43.015625 9.90625 
Q 47.609375 13.234375 47.609375 19.390625 
Q 47.609375 24.75 44.3125 27.78125 
Q 41.015625 30.8125 33.5 32.328125 
L 27.484375 33.5 
Q 16.453125 35.6875 11.515625 40.375 
Q 6.59375 45.0625 6.59375 53.421875 
Q 6.59375 63.09375 13.40625 68.65625 
Q 20.21875 74.21875 32.171875 74.21875 
Q 37.3125 74.21875 42.625 73.28125 
Q 47.953125 72.359375 53.515625 70.515625 
" id="BitstreamVeraSans-Roman-53"/>
      <path d="M 54.890625 33.015625 
L 54.890625 0 
L 45.90625 0 
L 45.90625 32.71875 
Q 45.90625 40.484375 42.875 44.328125 
Q 39.84375 48.1875 33.796875 48.1875 
Q 26.515625 48.1875 22.3125 43.546875 
Q 18.109375 38.921875 18.109375 30.90625 
L 18.109375 0 
L 9.078125 0 
L 9.078125 75.984375 
L 18.109375 75.984375 
L 18.109375 46.1875 
Q 21.34375 51.125 25.703125 53.5625 
Q 30.078125 56 35.796875 56 
Q 45.21875 56 50.046875 50.171875 
Q 54.890625 44.34375 54.890625 33.015625 
" id="BitstreamVeraSans-Roman-68"/>
      <path d="M 18.109375 8.203125 
L 18.109375 -20.796875 
L 9.078125 -20.796875 
L 9.078125 54.6875 
L 18.109375 54.6875 
L 18.109375 46.390625 
Q 20.953125 51.265625 25.265625 53.625 
Q 29.59375 56 35.59375 56 
Q 45.5625 56 51.78125 48.09375 
Q 58.015625 40.1875 58.015625 27.296875 
Q 58.015625 14.40625 51.78125 6.484375 
Q 45.5625 -1.421875 35.59375 -1.421875 
Q 29.59375 -1.421875 25.265625 0.953125 
Q 20.953125 3.328125 18.109375 8.203125 
M 48.6875 27.296875 
Q 48.6875 37.203125 44.609375 42.84375 
Q 40.53125 48.484375 33.40625 48.484375 
Q 26.265625 48.484375 22.1875 42.84375 
Q 18.109375 37.203125 18.109375 27.296875 
Q 18.109375 17.390625 22.1875 11.75 
Q 26.265625 6.109375 33.40625 6.109375 
Q 40.53125 6.109375 44.609375 11.75 
Q 48.6875 17.390625 48.6875 27.296875 
" id="BitstreamVeraSans-Roman-70"/>
     </defs>
     <g transform="translate(37.599375 254.855625)rotate(-90.0)scale(0.12 -0.12)">
      <use xlink:href="#BitstreamVeraSans-Roman-53"/>
      <use x="63.4765625" xlink:href="#BitstreamVeraSans-Roman-70"/>
      <use x="126.953125" xlink:href="#BitstreamVeraSans-Roman-65"/>
      <use x="188.4765625" xlink:href="#BitstreamVeraSans-Roman-65"/>
      <use x="250.0" xlink:href="#BitstreamVeraSans-Roman-64"/>
      <use x="313.4765625" xlink:href="#BitstreamVeraSans-Roman-20"/>
      <use x="345.263671875" xlink:href="#BitstreamVeraSans-Roman-5b"/>
      <use x="384.27734375" xlink:href="#BitstreamVeraSans-Roman-6d"/>
      <use x="481.689453125" xlink:href="#BitstreamVeraSans-Roman-70"/>
      <use x="545.166015625" xlink:href="#BitstreamVeraSans-Roman-68"/>
      <use x="608.544921875" xlink:href="#BitstreamVeraSans-Roman-5d"/>
     </g>
    </g>
   </g>
   <g id="legend_1">
    <g id="patch_7">
     <path d="M 317.4885 160.4025 
L 511.2 160.4025 
L 511.2 50.4 
L 317.4885 50.4 
z
" style="fill:#ffffff;stroke:#000000;stroke-linejoin:miter;"/>
    </g>
    <g id="line2d_48">
     <path d="M 327.5685 62.06175 
L 347.7285 62.06175 
" style="fill:none;stroke:#ff0000;stroke-linecap:square;"/>
    </g>
    <g id="line2d_49"/>
    <g id="text_17">
     <!-- speed -->
     <g transform="translate(363.5685 67.10175)scale(0.144 -0.144)">
      <use xlink:href="#BitstreamVeraSans-Roman-73"/>
      <use x="52.099609375" xlink:href="#BitstreamVeraSans-Roman-70"/>
      <use x="115.576171875" xlink:href="#BitstreamVeraSans-Roman-65"/>
      <use x="177.099609375" xlink:href="#BitstreamVeraSans-Roman-65"/>
      <use x="238.623046875" xlink:href="#BitstreamVeraSans-Roman-64"/>
     </g>
    </g>
    <g id="line2d_50">
     <path d="M 327.5685 83.19825 
L 347.7285 83.19825 
" style="fill:none;stroke:#bfbf00;stroke-dasharray:6.000000,6.000000;stroke-dashoffset:0.0;"/>
    </g>
    <g id="line2d_51"/>
    <g id="text_18">
     <!-- pid speed -->
     <g transform="translate(363.5685 88.23825)scale(0.144 -0.144)">
      <use xlink:href="#BitstreamVeraSans-Roman-70"/>
      <use x="63.4765625" xlink:href="#BitstreamVeraSans-Roman-69"/>
      <use x="91.259765625" xlink:href="#BitstreamVeraSans-Roman-64"/>
      <use x="154.736328125" xlink:href="#BitstreamVeraSans-Roman-20"/>
      <use x="186.5234375" xlink:href="#BitstreamVeraSans-Roman-73"/>
      <use x="238.623046875" xlink:href="#BitstreamVeraSans-Roman-70"/>
      <use x="302.099609375" xlink:href="#BitstreamVeraSans-Roman-65"/>
      <use x="363.623046875" xlink:href="#BitstreamVeraSans-Roman-65"/>
      <use x="425.146484375" xlink:href="#BitstreamVeraSans-Roman-64"/>
     </g>
    </g>
    <g id="line2d_52">
     <path d="M 327.5685 104.33475 
L 347.7285 104.33475 
" style="fill:none;stroke:#0000ff;stroke-linecap:square;"/>
    </g>
    <g id="line2d_53"/>
    <g id="text_19">
     <!-- Target (lead) speed -->
     <defs>
      <path d="M 8.015625 75.875 
L 15.828125 75.875 
Q 23.140625 64.359375 26.78125 53.3125 
Q 30.421875 42.28125 30.421875 31.390625 
Q 30.421875 20.453125 26.78125 9.375 
Q 23.140625 -1.703125 15.828125 -13.1875 
L 8.015625 -13.1875 
Q 14.5 -2 17.703125 9.0625 
Q 20.90625 20.125 20.90625 31.390625 
Q 20.90625 42.671875 17.703125 53.65625 
Q 14.5 64.65625 8.015625 75.875 
" id="BitstreamVeraSans-Roman-29"/>
      <path d="M 34.28125 27.484375 
Q 23.390625 27.484375 19.1875 25 
Q 14.984375 22.515625 14.984375 16.5 
Q 14.984375 11.71875 18.140625 8.90625 
Q 21.296875 6.109375 26.703125 6.109375 
Q 34.1875 6.109375 38.703125 11.40625 
Q 43.21875 16.703125 43.21875 25.484375 
L 43.21875 27.484375 
z
M 52.203125 31.203125 
L 52.203125 0 
L 43.21875 0 
L 43.21875 8.296875 
Q 40.140625 3.328125 35.546875 0.953125 
Q 30.953125 -1.421875 24.3125 -1.421875 
Q 15.921875 -1.421875 10.953125 3.296875 
Q 6 8.015625 6 15.921875 
Q 6 25.140625 12.171875 29.828125 
Q 18.359375 34.515625 30.609375 34.515625 
L 43.21875 34.515625 
L 43.21875 35.40625 
Q 43.21875 41.609375 39.140625 45 
Q 35.0625 48.390625 27.6875 48.390625 
Q 23 48.390625 18.546875 47.265625 
Q 14.109375 46.140625 10.015625 43.890625 
L 10.015625 52.203125 
Q 14.9375 54.109375 19.578125 55.046875 
Q 24.21875 56 28.609375 56 
Q 40.484375 56 46.34375 49.84375 
Q 52.203125 43.703125 52.203125 31.203125 
" id="BitstreamVeraSans-Roman-61"/>
      <path d="M 9.421875 75.984375 
L 18.40625 75.984375 
L 18.40625 0 
L 9.421875 0 
z
" id="BitstreamVeraSans-Roman-6c"/>
      <path d="M 31 75.875 
Q 24.46875 64.65625 21.28125 53.65625 
Q 18.109375 42.671875 18.109375 31.390625 
Q 18.109375 20.125 21.3125 9.0625 
Q 24.515625 -2 31 -13.1875 
L 23.1875 -13.1875 
Q 15.875 -1.703125 12.234375 9.375 
Q 8.59375 20.453125 8.59375 31.390625 
Q 8.59375 42.28125 12.203125 53.3125 
Q 15.828125 64.359375 23.1875 75.875 
z
" id="BitstreamVeraSans-Roman-28"/>
      <path d="M 45.40625 27.984375 
Q 45.40625 37.75 41.375 43.109375 
Q 37.359375 48.484375 30.078125 48.484375 
Q 22.859375 48.484375 18.828125 43.109375 
Q 14.796875 37.75 14.796875 27.984375 
Q 14.796875 18.265625 18.828125 12.890625 
Q 22.859375 7.515625 30.078125 7.515625 
Q 37.359375 7.515625 41.375 12.890625 
Q 45.40625 18.265625 45.40625 27.984375 
M 54.390625 6.78125 
Q 54.390625 -7.171875 48.1875 -13.984375 
Q 42 -20.796875 29.203125 -20.796875 
Q 24.46875 -20.796875 20.265625 -20.09375 
Q 16.0625 -19.390625 12.109375 -17.921875 
L 12.109375 -9.1875 
Q 16.0625 -11.328125 19.921875 -12.34375 
Q 23.78125 -13.375 27.78125 -13.375 
Q 36.625 -13.375 41.015625 -8.765625 
Q 45.40625 -4.15625 45.40625 5.171875 
L 45.40625 9.625 
Q 42.625 4.78125 38.28125 2.390625 
Q 33.9375 0 27.875 0 
Q 17.828125 0 11.671875 7.65625 
Q 5.515625 15.328125 5.515625 27.984375 
Q 5.515625 40.671875 11.671875 48.328125 
Q 17.828125 56 27.875 56 
Q 33.9375 56 38.28125 53.609375 
Q 42.625 51.21875 45.40625 46.390625 
L 45.40625 54.6875 
L 54.390625 54.6875 
z
" id="BitstreamVeraSans-Roman-67"/>
      <path d="M 41.109375 46.296875 
Q 39.59375 47.171875 37.8125 47.578125 
Q 36.03125 48 33.890625 48 
Q 26.265625 48 22.1875 43.046875 
Q 18.109375 38.09375 18.109375 28.8125 
L 18.109375 0 
L 9.078125 0 
L 9.078125 54.6875 
L 18.109375 54.6875 
L 18.109375 46.1875 
Q 20.953125 51.171875 25.484375 53.578125 
Q 30.03125 56 36.53125 56 
Q 37.453125 56 38.578125 55.875 
Q 39.703125 55.765625 41.0625 55.515625 
z
" id="BitstreamVeraSans-Roman-72"/>
      <path d="M 18.3125 70.21875 
L 18.3125 54.6875 
L 36.8125 54.6875 
L 36.8125 47.703125 
L 18.3125 47.703125 
L 18.3125 18.015625 
Q 18.3125 11.328125 20.140625 9.421875 
Q 21.96875 7.515625 27.59375 7.515625 
L 36.8125 7.515625 
L 36.8125 0 
L 27.59375 0 
Q 17.1875 0 13.234375 3.875 
Q 9.28125 7.765625 9.28125 18.015625 
L 9.28125 47.703125 
L 2.6875 47.703125 
L 2.6875 54.6875 
L 9.28125 54.6875 
L 9.28125 70.21875 
z
" id="BitstreamVeraSans-Roman-74"/>
     </defs>
     <g transform="translate(363.5685 109.37475)scale(0.144 -0.144)">
      <use xlink:href="#BitstreamVeraSans-Roman-54"/>
      <use x="60.833984375" xlink:href="#BitstreamVeraSans-Roman-61"/>
      <use x="122.11328125" xlink:href="#BitstreamVeraSans-Roman-72"/>
      <use x="163.2109375" xlink:href="#BitstreamVeraSans-Roman-67"/>
      <use x="226.6875" xlink:href="#BitstreamVeraSans-Roman-65"/>
      <use x="288.2109375" xlink:href="#BitstreamVeraSans-Roman-74"/>
      <use x="327.419921875" xlink:href="#BitstreamVeraSans-Roman-20"/>
      <use x="359.20703125" xlink:href="#BitstreamVeraSans-Roman-28"/>
      <use x="398.220703125" xlink:href="#BitstreamVeraSans-Roman-6c"/>
      <use x="426.00390625" xlink:href="#BitstreamVeraSans-Roman-65"/>
      <use x="487.52734375" xlink:href="#BitstreamVeraSans-Roman-61"/>
      <use x="548.806640625" xlink:href="#BitstreamVeraSans-Roman-64"/>
      <use x="612.283203125" xlink:href="#BitstreamVeraSans-Roman-29"/>
      <use x="651.296875" xlink:href="#BitstreamVeraSans-Roman-20"/>
      <use x="683.083984375" xlink:href="#BitstreamVeraSans-Roman-73"/>
      <use x="735.18359375" xlink:href="#BitstreamVeraSans-Roman-70"/>
      <use x="798.66015625" xlink:href="#BitstreamVeraSans-Roman-65"/>
      <use x="860.18359375" xlink:href="#BitstreamVeraSans-Roman-65"/>
      <use x="921.70703125" xlink:href="#BitstreamVeraSans-Roman-64"/>
     </g>
    </g>
    <g id="line2d_54">
     <path d="M 327.5685 125.47125 
L 347.7285 125.47125 
" style="fill:none;stroke:#000000;stroke-linecap:square;"/>
    </g>
    <g id="line2d_55"/>
    <g id="text_20">
     <!-- Cruise speed -->
     <defs>
      <path d="M 8.5 21.578125 
L 8.5 54.6875 
L 17.484375 54.6875 
L 17.484375 21.921875 
Q 17.484375 14.15625 20.5 10.265625 
Q 23.53125 6.390625 29.59375 6.390625 
Q 36.859375 6.390625 41.078125 11.03125 
Q 45.3125 15.671875 45.3125 23.6875 
L 45.3125 54.6875 
L 54.296875 54.6875 
L 54.296875 0 
L 45.3125 0 
L 45.3125 8.40625 
Q 42.046875 3.421875 37.71875 1 
Q 33.40625 -1.421875 27.6875 -1.421875 
Q 18.265625 -1.421875 13.375 4.4375 
Q 8.5 10.296875 8.5 21.578125 
" id="BitstreamVeraSans-Roman-75"/>
      <path d="M 64.40625 67.28125 
L 64.40625 56.890625 
Q 59.421875 61.53125 53.78125 63.8125 
Q 48.140625 66.109375 41.796875 66.109375 
Q 29.296875 66.109375 22.65625 58.46875 
Q 16.015625 50.828125 16.015625 36.375 
Q 16.015625 21.96875 22.65625 14.328125 
Q 29.296875 6.6875 41.796875 6.6875 
Q 48.140625 6.6875 53.78125 8.984375 
Q 59.421875 11.28125 64.40625 15.921875 
L 64.40625 5.609375 
Q 59.234375 2.09375 53.4375 0.328125 
Q 47.65625 -1.421875 41.21875 -1.421875 
Q 24.65625 -1.421875 15.125 8.703125 
Q 5.609375 18.84375 5.609375 36.375 
Q 5.609375 53.953125 15.125 64.078125 
Q 24.65625 74.21875 41.21875 74.21875 
Q 47.75 74.21875 53.53125 72.484375 
Q 59.328125 70.75 64.40625 67.28125 
" id="BitstreamVeraSans-Roman-43"/>
     </defs>
     <g transform="translate(363.5685 130.51125)scale(0.144 -0.144)">
      <use xlink:href="#BitstreamVeraSans-Roman-43"/>
      <use x="69.82421875" xlink:href="#BitstreamVeraSans-Roman-72"/>
      <use x="110.9375" xlink:href="#BitstreamVeraSans-Roman-75"/>
      <use x="174.31640625" xlink:href="#BitstreamVeraSans-Roman-69"/>
      <use x="202.099609375" xlink:href="#BitstreamVeraSans-Roman-73"/>
      <use x="254.19921875" xlink:href="#BitstreamVeraSans-Roman-65"/>
      <use x="315.72265625" xlink:href="#BitstreamVeraSans-Roman-20"/>
      <use x="347.509765625" xlink:href="#BitstreamVeraSans-Roman-73"/>
      <use x="399.609375" xlink:href="#BitstreamVeraSans-Roman-70"/>
      <use x="463.0859375" xlink:href="#BitstreamVeraSans-Roman-65"/>
      <use x="524.609375" xlink:href="#BitstreamVeraSans-Roman-65"/>
      <use x="586.1328125" xlink:href="#BitstreamVeraSans-Roman-64"/>
     </g>
    </g>
    <g id="line2d_56">
     <path d="M 327.5685 146.60775 
L 347.7285 146.60775 
" style="fill:none;stroke:#bf00bf;stroke-linecap:square;"/>
    </g>
    <g id="line2d_57"/>
    <g id="text_21">
     <!-- Lead speed -->
     <defs>
      <path d="M 9.8125 72.90625 
L 19.671875 72.90625 
L 19.671875 8.296875 
L 55.171875 8.296875 
L 55.171875 0 
L 9.8125 0 
z
" id="BitstreamVeraSans-Roman-4c"/>
     </defs>
     <g transform="translate(363.5685 151.64775)scale(0.144 -0.144)">
      <use xlink:href="#BitstreamVeraSans-Roman-4c"/>
      <use x="55.697265625" xlink:href="#BitstreamVeraSans-Roman-65"/>
      <use x="117.220703125" xlink:href="#BitstreamVeraSans-Roman-61"/>
      <use x="178.5" xlink:href="#BitstreamVeraSans-Roman-64"/>
      <use x="241.9765625" xlink:href="#BitstreamVeraSans-Roman-20"/>
      <use x="273.763671875" xlink:href="#BitstreamVeraSans-Roman-73"/>
      <use x="325.86328125" xlink:href="#BitstreamVeraSans-Roman-70"/>
      <use x="389.33984375" xlink:href="#BitstreamVeraSans-Roman-65"/>
      <use x="450.86328125" xlink:href="#BitstreamVeraSans-Roman-65"/>
      <use x="512.38671875" xlink:href="#BitstreamVeraSans-Roman-64"/>
     </g>
    </g>
   </g>
  </g>
 </g>
 <defs>
  <clipPath id="p844269c9dd">
   <rect height="345.6" width="446.4" x="72.0" y="43.2"/>
  </clipPath>
 </defs>
</svg>
