<?xml version="1.0" encoding="utf-8" standalone="no"?>
<!DOCTYPE svg PUBLIC "-//W3C//DTD SVG 1.1//EN"
  "http://www.w3.org/Graphics/SVG/1.1/DTD/svg11.dtd">
<!-- Created with matplotlib (http://matplotlib.org/) -->
<svg height="432pt" version="1.1" viewBox="0 0 576 432" width="576pt" xmlns="http://www.w3.org/2000/svg" xmlns:xlink="http://www.w3.org/1999/xlink">
 <defs>
  <style type="text/css">
*{stroke-linecap:butt;stroke-linejoin:round;stroke-miterlimit:100000;}
  </style>
 </defs>
 <g id="figure_1">
  <g id="patch_1">
   <path d="M 0 432 
L 576 432 
L 576 0 
L 0 0 
z
" style="fill:#ffffff;"/>
  </g>
  <g id="axes_1">
   <g id="patch_2">
    <path d="M 72 388.8 
L 518.4 388.8 
L 518.4 43.2 
L 72 43.2 
z
" style="fill:#ffffff;"/>
   </g>
   <g id="line2d_1">
    <path clip-path="url(#p8aa5c274d2)" d="M 72.17856 215.001953 
L 95.74848 214.643745 
L 95.92704 122.861103 
L 96.1056 122.871448 
L 96.28416 127.115393 
L 96.46272 127.124554 
L 96.64128 129.955713 
L 96.81984 129.964115 
L 97.17696 138.444189 
L 97.35552 138.450473 
L 97.53408 142.688494 
L 97.8912 142.699111 
L 98.06976 145.52518 
L 98.24832 145.529869 
L 98.42688 149.765342 
L 98.60544 149.769149 
L 98.784 152.593278 
L 98.96256 152.596529 
L 99.14112 156.829997 
L 99.31968 156.832461 
L 99.49824 159.654929 
L 99.6768 159.6569 
L 99.85536 163.888704 
L 100.74816 163.895089 
L 100.92672 165.306193 
L 101.81952 165.31148 
L 101.99808 166.722266 
L 103.06944 166.727331 
L 103.248 168.137811 
L 104.31936 168.141635 
L 104.49792 169.551836 
L 105.74784 169.554894 
L 105.9264 170.964838 
L 106.10496 170.965081 
L 106.46208 175.193697 
L 107.89056 175.19129 
L 108.06912 176.600537 
L 111.46176 176.591622 
L 111.64032 178.000868 
L 112.53312 177.997711 
L 112.71168 176.587297 
L 112.89024 177.996621 
L 119.85408 177.972068 
L 120.03264 179.381686 
L 120.38976 179.380117 
L 120.56832 177.969042 
L 121.46112 177.965905 
L 121.63968 179.375635 
L 122.53248 179.371715 
L 122.71104 177.960487 
L 122.8896 177.959861 
L 123.06816 179.369701 
L 124.13952 179.365002 
L 124.31808 177.953651 
L 124.85376 177.951774 
L 125.03232 179.361761 
L 125.74656 179.358631 
L 125.92512 177.947164 
L 126.10368 177.946539 
L 126.28224 179.356622 
L 127.3536 179.351932 
L 127.53216 177.940342 
L 127.71072 177.939718 
L 127.88928 179.349924 
L 139.13856 179.300888 
L 139.31712 177.888364 
L 139.49568 177.887746 
L 139.67424 179.298898 
L 140.7456 179.294248 
L 140.92416 177.881603 
L 141.6384 177.879134 
L 141.81696 179.290443 
L 142.70976 179.286573 
L 142.88832 177.873787 
L 143.78112 177.870705 
L 143.95968 179.282168 
L 144.67392 179.279075 
L 144.85248 177.866152 
L 154.67328 177.832405 
L 154.85184 176.419021 
L 155.9232 176.416335 
L 156.10176 177.828716 
L 157.17312 177.82505 
L 157.35168 176.411534 
L 158.6016 176.408407 
L 158.78016 177.82093 
L 159.85152 177.81727 
L 160.03008 176.403614 
L 161.63712 176.399603 
L 161.81568 177.812283 
L 162.52992 177.809847 
L 162.70848 176.396057 
L 165.744 176.388499 
L 165.92256 173.561409 
L 167.17248 173.560726 
L 167.35104 172.147292 
L 167.5296 172.147377 
L 167.70816 170.734128 
L 167.88672 170.734402 
L 168.06528 167.908026 
L 168.24384 167.908696 
L 168.4224 165.082759 
L 169.13664 165.087122 
L 169.3152 162.261776 
L 169.67232 162.264848 
L 169.85088 159.440087 
L 170.56512 159.44811 
L 170.74368 156.624111 
L 171.27936 156.631611 
L 171.45792 155.22125 
L 173.24352 155.248783 
L 173.42208 156.663967 
L 173.60064 156.666461 
L 173.7792 160.906042 
L 173.95776 160.907801 
L 174.13632 163.734181 
L 174.31488 163.735482 
L 174.49344 165.149054 
L 176.4576 165.160937 
L 176.63616 166.574085 
L 177.88608 166.580145 
L 178.06464 167.992969 
L 180.0288 168.000202 
L 180.20736 170.824525 
L 180.38592 170.824786 
L 180.56448 172.236872 
L 181.45728 172.237239 
L 181.63584 173.649129 
L 181.8144 173.64902 
L 181.99296 176.472552 
L 182.17152 176.472098 
L 182.35008 179.295316 
L 182.52864 179.294542 
L 182.7072 182.117497 
L 182.88576 182.116426 
L 183.06432 184.939168 
L 183.24288 184.937827 
L 183.42144 187.760404 
L 183.6 187.758817 
L 183.77856 189.169255 
L 183.95712 191.991676 
L 184.13568 191.989767 
L 184.31424 193.400003 
L 184.67136 193.395994 
L 184.84992 196.218552 
L 185.02848 196.216377 
L 185.20704 199.03897 
L 185.3856 199.036648 
L 185.56416 200.446826 
L 185.74272 200.444439 
L 185.92128 203.267297 
L 186.09984 203.264802 
L 186.2784 204.675062 
L 186.45696 204.672522 
L 186.63552 207.495774 
L 186.81408 207.493162 
L 186.99264 208.903598 
L 187.1712 208.90096 
L 187.34976 210.311529 
L 187.52832 210.308871 
L 187.70688 211.719585 
L 187.88544 211.716913 
L 188.064 214.579025 
L 213.9552 214.193729 
L 214.13376 222.628592 
L 214.31232 222.625424 
L 214.49088 231.059751 
L 214.66944 231.056047 
L 214.848 239.48984 
L 215.02656 239.485601 
L 215.20512 247.918858 
L 215.38368 247.914084 
L 215.56224 256.346807 
L 215.7408 256.341499 
L 215.91936 264.773687 
L 216.09792 264.767845 
L 216.27648 273.1995 
L 216.45504 273.193125 
L 216.6336 279.936747 
L 221.0976 279.767198 
L 221.27616 278.072938 
L 221.81184 278.052982 
L 221.9904 276.358835 
L 222.52608 276.339217 
L 222.70464 274.645182 
L 223.24032 274.625902 
L 223.41888 272.931979 
L 224.31168 272.900413 
L 224.49024 271.206605 
L 225.02592 271.188006 
L 225.20448 269.494309 
L 226.09728 269.463875 
L 226.27584 267.770293 
L 226.81152 267.752371 
L 226.99008 266.0589 
L 227.16864 266.053036 
L 227.3472 264.359674 
L 227.70432 264.348164 
L 227.88288 262.654911 
L 228.06144 262.649265 
L 228.24 260.956121 
L 228.41856 260.950583 
L 228.59712 259.257548 
L 229.1328 259.241263 
L 229.31136 255.860838 
L 229.48992 255.855625 
L 229.66848 254.162913 
L 230.38272 254.142498 
L 230.56128 252.449897 
L 230.73984 252.444902 
L 230.9184 250.752409 
L 231.09696 250.747522 
L 231.27552 249.055137 
L 231.45408 249.050358 
L 231.63264 247.35808 
L 231.8112 247.353408 
L 231.98976 245.661238 
L 232.16832 245.656674 
L 232.34688 243.964611 
L 232.52544 243.960154 
L 232.704 213.580713 
L 232.88256 213.578159 
L 233.06112 212.087656 
L 233.23968 212.085103 
L 233.41824 209.183583 
L 233.5968 209.18105 
L 233.77536 204.829561 
L 233.95392 204.827108 
L 234.13248 200.475255 
L 234.31104 200.472943 
L 234.4896 196.120846 
L 234.66816 196.118736 
L 234.84672 193.216552 
L 235.02528 193.21461 
L 235.20384 190.312405 
L 235.3824 190.310658 
L 235.56096 185.958273 
L 235.73952 185.956869 
L 235.91808 183.054917 
L 236.09664 183.053775 
L 236.2752 180.15199 
L 236.63232 180.150285 
L 236.98944 172.897186 
L 237.168 172.897174 
L 237.34656 169.996401 
L 237.52512 169.996772 
L 237.70368 167.096408 
L 237.88224 167.097189 
L 238.0608 164.197288 
L 238.23936 164.198505 
L 238.41792 161.299121 
L 238.59648 161.300802 
L 238.77504 158.401987 
L 238.9536 158.404158 
L 239.13216 155.505968 
L 239.31072 155.508655 
L 239.48928 152.611142 
L 239.66784 152.614373 
L 239.8464 151.167596 
L 240.02496 151.171108 
L 240.20352 148.274807 
L 240.38208 148.278902 
L 240.56064 145.383411 
L 240.7392 145.388116 
L 240.91776 143.943154 
L 241.09632 143.948172 
L 241.27488 141.054126 
L 241.45344 141.059793 
L 241.81056 135.274424 
L 241.98912 135.28147 
L 242.16768 133.839383 
L 242.34624 133.846788 
L 242.5248 132.40524 
L 242.70336 132.41301 
L 242.88192 129.523252 
L 243.06048 129.531775 
L 243.23904 128.091733 
L 243.4176 128.100641 
L 243.59616 126.66119 
L 243.77472 126.670488 
L 243.95328 125.231641 
L 244.13184 122.34527 
L 244.3104 122.355785 
L 244.48896 120.918498 
L 244.66752 120.929428 
L 244.84608 119.492796 
L 245.02464 119.504148 
L 245.2032 118.068184 
L 245.38176 118.079963 
L 245.56032 116.644679 
L 245.73888 116.656892 
L 245.91744 115.222301 
L 246.096 115.234954 
L 246.27456 113.801067 
L 246.45312 113.814166 
L 246.63168 112.380997 
L 246.81024 112.394548 
L 246.9888 109.516125 
L 247.16736 109.530606 
L 247.52448 106.668798 
L 247.70304 106.684231 
L 247.8816 105.254419 
L 248.06016 105.270333 
L 248.23872 103.841314 
L 248.41728 103.857715 
L 248.59584 102.429501 
L 248.7744 102.446395 
L 248.95296 101.018998 
L 249.48864 101.07116 
L 249.6672 99.644907 
L 250.20288 99.698542 
L 250.56 96.84905 
L 250.73856 96.867954 
L 250.91712 95.444415 
L 251.09568 95.463841 
L 251.4528 92.619231 
L 251.63136 92.639724 
L 251.80992 91.218677 
L 251.98848 91.239709 
L 252.16704 89.819573 
L 252.52416 89.862714 
L 252.70272 88.443682 
L 252.88128 88.465797 
L 253.05984 87.0477 
L 253.95264 87.160945 
L 254.1312 85.744538 
L 254.30976 85.767726 
L 254.66688 82.937599 
L 254.84544 82.961932 
L 255.55968 77.311952 
L 255.73824 77.338653 
L 255.9168 75.928394 
L 256.09536 73.082236 
L 256.27392 73.110785 
L 256.45248 74.575593 
L 256.63104 74.603479 
L 256.8096 73.195524 
L 257.88096 73.366266 
L 258.05952 71.960428 
L 258.23808 71.98946 
L 258.41664 70.584689 
L 260.20224 70.880484 
L 260.3808 69.478735 
L 260.55936 66.646837 
L 260.73792 66.678265 
L 260.91648 65.279143 
L 261.09504 65.311204 
L 261.2736 63.913199 
L 263.0592 64.239404 
L 263.23776 62.844572 
L 265.02336 63.175592 
L 265.20192 61.783947 
L 265.38048 61.817611 
L 265.55904 63.275408 
L 265.7376 63.308359 
L 265.91616 61.91763 
L 266.27328 61.984795 
L 266.45184 63.441269 
L 266.6304 63.474131 
L 266.80896 60.662114 
L 267.34464 60.764603 
L 267.5232 62.22016 
L 268.95168 62.48708 
L 269.13024 61.101145 
L 270.38016 61.338357 
L 270.55872 62.78941 
L 270.73728 61.405537 
L 270.91584 61.439314 
L 271.0944 62.889576 
L 271.63008 62.988729 
L 271.80864 61.606214 
L 273.23712 61.87506 
L 273.41568 60.495259 
L 273.95136 60.597745 
L 274.12992 62.044207 
L 275.91552 62.377737 
L 276.09408 61.001326 
L 276.62976 61.10299 
L 276.80832 62.545529 
L 277.52256 62.678084 
L 277.70112 61.303696 
L 278.2368 61.404872 
L 278.41536 62.84507 
L 278.59392 62.878076 
L 278.77248 61.505035 
L 278.95104 61.53867 
L 279.1296 62.977832 
L 280.9152 63.306402 
L 281.09376 61.936243 
L 281.27232 61.969647 
L 281.45088 63.405473 
L 283.23648 63.731791 
L 283.41504 65.164167 
L 283.95072 65.259728 
L 284.12928 62.493731 
L 284.30784 62.526839 
L 284.4864 63.958363 
L 285.55776 64.15262 
L 285.73632 65.58173 
L 286.09344 65.645022 
L 286.272 64.280542 
L 286.45056 65.70866 
L 288.23616 66.023815 
L 288.41472 67.448587 
L 288.59328 67.479362 
L 288.77184 68.903015 
L 290.55744 69.203484 
L 290.736 70.623905 
L 291.80736 70.799664 
L 291.98592 72.217842 
L 292.34304 72.27506 
L 292.5216 70.915356 
L 292.70016 70.944542 
L 292.87872 72.361573 
L 293.59296 72.475676 
L 293.77152 71.117373 
L 293.95008 71.14646 
L 294.12864 72.561896 
L 294.66432 72.647202 
L 294.84288 74.061125 
L 295.91424 74.227681 
L 296.0928 75.639448 
L 296.62848 75.720726 
L 296.80704 77.131027 
L 296.9856 77.157494 
L 297.16416 79.949609 
L 297.52128 80.00017 
L 297.69984 86.936648 
L 297.8784 86.959114 
L 298.05696 91.127215 
L 298.23552 91.148062 
L 298.59264 99.476918 
L 298.7712 99.4947 
L 298.94976 103.655672 
L 299.30688 103.688322 
L 299.48544 109.227156 
L 299.664 109.241628 
L 299.84256 113.397183 
L 300.37824 113.436606 
L 300.5568 118.969193 
L 300.91392 118.9921 
L 301.27104 128.669782 
L 301.4496 128.678522 
L 301.62816 131.445735 
L 301.80672 131.453751 
L 301.98528 135.598957 
L 302.3424 135.612907 
L 302.69952 142.51988 
L 302.87808 142.525239 
L 303.05664 146.6665 
L 303.41376 146.67542 
L 303.59232 150.815289 
L 303.77088 150.818903 
L 303.94944 153.579272 
L 304.30656 153.585429 
L 304.48512 157.723277 
L 304.66368 157.725598 
L 304.84224 160.484305 
L 305.0208 160.486149 
L 305.19936 163.244277 
L 305.55648 163.247057 
L 305.73504 166.004611 
L 305.9136 166.005572 
L 306.09216 170.140693 
L 306.27072 170.141052 
L 306.44928 172.897497 
L 306.62784 172.897484 
L 306.8064 175.653557 
L 306.98496 175.653196 
L 307.16352 178.408944 
L 307.34208 178.408258 
L 307.52064 181.163728 
L 307.87776 181.16175 
L 308.05632 182.538892 
L 308.23488 182.53776 
L 308.41344 185.292973 
L 308.592 185.291574 
L 308.77056 188.046623 
L 308.94912 188.04498 
L 309.12768 190.799913 
L 309.30624 190.798048 
L 309.4848 193.55291 
L 309.66336 193.550847 
L 309.84192 194.927234 
L 310.02048 194.925081 
L 310.19904 197.680014 
L 310.3776 197.677697 
L 310.55616 199.054028 
L 310.73472 199.051638 
L 310.91328 201.806763 
L 311.09184 201.804244 
L 311.2704 204.559484 
L 311.44896 204.556859 
L 311.62752 205.933247 
L 311.98464 205.92791 
L 312.1632 207.304463 
L 312.34176 210.060343 
L 312.52032 210.057577 
L 312.69888 211.434261 
L 313.056 211.428688 
L 313.23456 212.805594 
L 313.41312 212.802793 
L 313.59168 214.179853 
L 313.9488 214.174232 
L 314.12736 215.588348 
L 342.87552 215.140106 
L 343.05408 223.574847 
L 343.23264 223.571544 
L 343.4112 232.005736 
L 343.58976 232.001885 
L 343.76832 240.43553 
L 343.94688 240.431131 
L 344.12544 248.864229 
L 344.304 248.859283 
L 344.48256 257.291834 
L 344.66112 257.286341 
L 344.83968 265.718346 
L 345.01824 265.712307 
L 345.1968 274.143765 
L 345.37536 274.137181 
L 345.55392 279.193095 
L 349.6608 279.034561 
L 349.83936 280.715186 
L 352.51776 280.610633 
L 352.69632 282.291175 
L 356.8032 282.129109 
L 356.98176 283.809582 
L 359.66016 283.702759 
L 359.83872 285.383151 
L 367.5168 285.074489 
L 367.69536 283.37985 
L 368.23104 283.358761 
L 368.4096 281.664235 
L 368.94528 281.643488 
L 369.12384 279.949076 
L 369.65952 279.92867 
L 369.83808 278.234372 
L 370.37376 278.214305 
L 370.55232 276.52012 
L 371.088 276.500393 
L 371.26656 274.806321 
L 371.80224 274.786932 
L 371.9808 273.092973 
L 372.51648 273.073923 
L 372.69504 271.380076 
L 372.8736 271.373837 
L 373.05216 269.6801 
L 373.23072 269.67397 
L 373.40928 267.980343 
L 373.58784 267.974322 
L 373.7664 266.280804 
L 374.30208 266.263075 
L 374.48064 262.882169 
L 375.01632 262.865094 
L 375.19488 261.171906 
L 375.37344 261.166324 
L 375.552 259.473244 
L 375.73056 259.467772 
L 375.90912 257.774801 
L 376.08768 257.769437 
L 376.26624 256.076575 
L 376.4448 256.071319 
L 376.62336 254.378566 
L 376.80192 254.373419 
L 376.98048 252.680774 
L 377.15904 252.675735 
L 377.3376 250.983199 
L 377.51616 250.978269 
L 377.69472 249.28584 
L 377.87328 249.281018 
L 378.05184 247.588698 
L 378.58752 247.574559 
L 378.76608 245.882349 
L 378.94464 245.877745 
L 379.1232 244.185642 
L 379.30176 244.181146 
L 379.48032 213.801666 
L 379.65888 213.799084 
L 379.83744 212.316873 
L 380.016 212.314292 
L 380.19456 209.428955 
L 380.37312 209.426395 
L 380.55168 205.099197 
L 380.73024 205.096718 
L 380.9088 200.769157 
L 381.26592 200.764479 
L 381.62304 193.55046 
L 381.8016 193.548487 
L 381.98016 189.220406 
L 382.15872 189.218732 
L 382.33728 184.890724 
L 382.51584 184.889408 
L 382.6944 182.003759 
L 382.87296 182.002714 
L 383.05152 179.117253 
L 383.23008 179.116507 
L 383.40864 174.789048 
L 383.5872 174.7888 
L 383.76576 171.904058 
L 383.94432 171.904174 
L 384.12288 169.019804 
L 384.30144 169.020311 
L 384.48 166.136367 
L 384.65856 166.137291 
L 384.83712 163.253825 
L 385.01568 163.255193 
L 385.19424 160.372258 
L 385.3728 160.374096 
L 385.55136 157.491745 
L 385.72992 157.494078 
L 385.90848 154.612364 
L 386.08704 154.615219 
L 386.2656 153.176134 
L 386.44416 153.17926 
L 386.62272 148.856835 
L 386.80128 148.860813 
L 386.97984 147.42305 
L 387.1584 147.427325 
L 387.33696 144.548351 
L 387.51552 144.553239 
L 387.69408 143.116631 
L 387.87264 143.121835 
L 388.0512 140.244319 
L 388.22976 140.250175 
L 388.40832 137.37361 
L 388.58688 137.380144 
L 388.76544 135.945629 
L 388.944 135.95251 
L 389.12256 133.077632 
L 389.30112 133.085229 
L 389.47968 131.652127 
L 389.65824 131.66009 
L 389.8368 128.787035 
L 390.01536 128.795752 
L 390.19392 127.364161 
L 390.37248 127.373263 
L 390.55104 124.502165 
L 390.7296 124.51206 
L 390.90816 123.082074 
L 391.08672 123.092372 
L 391.26528 121.663016 
L 391.44384 121.673723 
L 391.6224 120.245009 
L 391.80096 120.256131 
L 391.97952 118.828073 
L 392.15808 118.839616 
L 392.33664 117.412224 
L 392.5152 117.424194 
L 392.69376 114.558805 
L 392.87232 114.571655 
L 393.22944 111.721108 
L 393.76512 104.575096 
L 393.94368 104.591227 
L 394.12224 103.169825 
L 394.3008 103.186444 
L 394.47936 101.765845 
L 394.65792 101.782956 
L 394.83648 100.363173 
L 395.01504 100.380782 
L 395.37216 97.54355 
L 395.55072 97.562178 
L 395.72928 96.144753 
L 395.90784 96.163897 
L 396.0864 94.747335 
L 396.26496 94.766999 
L 396.62208 91.936339 
L 396.80064 91.957069 
L 396.9792 90.542995 
L 397.33632 90.58552 
L 397.51488 87.738298 
L 397.872 87.783023 
L 398.05056 86.371714 
L 398.40768 86.417525 
L 398.58624 85.007346 
L 399.12192 85.077691 
L 399.30048 83.668844 
L 400.19328 83.788741 
L 400.37184 82.381621 
L 400.90752 82.455164 
L 401.08608 81.049405 
L 401.62176 81.124596 
L 401.80032 79.720213 
L 401.97888 79.745842 
L 402.15744 81.200463 
L 402.336 79.79667 
L 403.05024 79.898972 
L 403.2288 78.496765 
L 403.76448 78.575142 
L 403.94304 77.174339 
L 405.19296 77.360962 
L 405.37152 75.962381 
L 405.9072 76.043975 
L 406.08576 74.646823 
L 406.26432 74.674601 
L 406.44288 76.126251 
L 406.62144 76.153383 
L 406.8 74.75705 
L 408.04992 74.950839 
L 408.22848 73.556766 
L 408.94272 73.669641 
L 409.12128 75.118425 
L 409.4784 75.17351 
L 409.65696 72.361137 
L 409.83552 72.389894 
L 410.01408 73.838137 
L 410.19264 73.866239 
L 410.3712 72.475265 
L 411.62112 72.675866 
L 411.79968 71.287184 
L 413.22816 71.520505 
L 413.40672 72.964869 
L 413.76384 73.021772 
L 413.9424 71.635599 
L 414.29952 71.69367 
L 414.47808 73.136618 
L 414.65664 73.164992 
L 414.8352 71.779857 
L 415.01376 71.808828 
L 415.19232 73.250834 
L 415.37088 73.279152 
L 415.54944 71.894845 
L 416.79936 72.096944 
L 416.97792 73.536596 
L 417.5136 73.62109 
L 417.87072 69.448918 
L 418.04928 68.069388 
L 418.76352 68.19174 
L 418.94208 66.813917 
L 419.2992 66.876253 
L 419.47776 65.499721 
L 419.65632 65.531497 
L 419.83488 64.156049 
L 420.01344 64.188446 
L 420.192 67.034294 
L 421.9776 67.344208 
L 422.15616 65.970909 
L 422.33472 66.002441 
L 422.51328 67.437695 
L 422.69184 67.468551 
L 422.8704 66.096111 
L 423.04896 66.127578 
L 423.22752 68.964665 
L 423.40608 67.592229 
L 423.58464 67.623007 
L 423.7632 64.849497 
L 423.94176 64.881531 
L 424.12032 66.315216 
L 425.5488 66.565599 
L 425.72736 65.197227 
L 429.47712 65.862693 
L 429.65568 67.288719 
L 429.83424 67.319575 
L 430.0128 65.956351 
L 430.19136 65.987812 
L 430.36992 67.412864 
L 430.54848 67.443657 
L 430.72704 66.081278 
L 430.9056 66.112675 
L 431.08416 67.536755 
L 431.26272 67.567485 
L 431.44128 66.205951 
L 431.61984 66.237284 
L 431.7984 69.052188 
L 437.86944 70.065193 
L 438.048 71.478846 
L 438.22656 71.507756 
L 438.40512 70.152963 
L 438.9408 70.241398 
L 439.11936 74.419315 
L 439.29792 74.446936 
L 439.65504 81.412022 
L 440.19072 81.486032 
L 440.36928 85.654999 
L 440.54784 85.677968 
L 440.7264 91.225218 
L 440.90496 91.246025 
L 441.08352 95.409013 
L 441.26208 95.428259 
L 441.44064 99.588711 
L 441.6192 99.60645 
L 441.79776 103.764474 
L 441.97632 103.780763 
L 442.15488 107.936466 
L 442.33344 107.951358 
L 442.512 112.104849 
L 442.69056 112.118399 
L 442.86912 116.269784 
L 443.04768 116.282046 
L 443.22624 121.810474 
L 443.4048 121.821104 
L 443.58336 124.589389 
L 443.76192 124.599236 
L 443.94048 128.744961 
L 444.11904 128.753681 
L 444.2976 132.897725 
L 444.65472 132.913015 
L 444.83328 137.055231 
L 445.01184 137.061854 
L 445.1904 139.82456 
L 445.36896 139.830531 
L 445.54752 143.970212 
L 445.72608 143.975252 
L 446.0832 149.495758 
L 446.26176 149.499636 
L 446.44032 153.636406 
L 446.61888 153.639474 
L 446.976 159.155233 
L 447.15456 159.157303 
L 447.33312 161.914291 
L 447.51168 161.915897 
L 447.69024 166.049744 
L 447.8688 166.050697 
L 448.04736 168.806421 
L 448.22592 168.806969 
L 448.58304 172.939784 
L 449.47584 172.939692 
L 449.6544 174.317042 
L 449.83296 174.316847 
L 450.01152 177.0714 
L 450.19008 177.070868 
L 450.36864 179.82512 
L 450.5472 179.824274 
L 450.72576 182.578272 
L 450.90432 182.577136 
L 451.08288 185.330925 
L 451.26144 185.329522 
L 451.44 186.705633 
L 451.79712 186.702578 
L 451.97568 189.456254 
L 452.15424 189.454493 
L 452.3328 192.208077 
L 452.51136 192.206106 
L 452.68992 193.58189 
L 453.04704 193.577758 
L 453.2256 196.331459 
L 453.40416 196.329218 
L 453.58272 199.082942 
L 453.76128 199.080549 
L 453.93984 200.456248 
L 454.29696 200.451329 
L 454.47552 201.827135 
L 454.65408 201.824615 
L 454.83264 204.578869 
L 455.18976 204.573616 
L 455.36832 205.949577 
L 455.54688 205.946907 
L 455.72544 207.322963 
L 455.904 207.320255 
L 456.08256 210.075289 
L 456.7968 210.06422 
L 456.97536 212.819977 
L 457.33248 212.814371 
L 457.51104 214.191082 
L 457.6896 214.188271 
L 457.86816 215.601939 
L 485.3664 215.17272 
L 485.54496 218.544959 
L 485.72352 218.541981 
L 485.90208 226.976499 
L 486.08064 226.972972 
L 486.2592 235.406941 
L 486.43776 235.402866 
L 486.61632 243.836287 
L 486.79488 243.831665 
L 486.97344 253.952037 
L 487.152 253.946758 
L 487.33056 262.378974 
L 487.50912 262.373148 
L 487.68768 270.804818 
L 487.86624 270.798445 
L 488.0448 277.54207 
L 489.29472 277.494441 
L 489.47328 279.175142 
L 491.79456 279.085486 
L 491.97312 280.766099 
L 495.36576 280.633504 
L 495.54432 282.31404 
L 500.36544 282.123734 
L 500.544 283.804208 
L 507.15072 283.541446 
L 507.32928 285.221875 
L 515.7216 284.886474 
L 515.90016 283.191879 
L 516.79296 283.156963 
L 516.97152 281.462485 
L 517.5072 281.44188 
L 517.68576 279.747516 
L 518.22144 279.72725 
L 518.4 278.032999 
L 518.4 278.032999 
" style="fill:none;stroke:#008000;stroke-linecap:square;"/>
   </g>
   <g id="line2d_2">
    <path clip-path="url(#p8aa5c274d2)" d="M 72.17856 172.8 
L 72.53568 172.8 
L 72.71424 388.8 
L 73.07136 388.8 
L 73.24992 261.452027 
L 75.21408 261.487793 
L 75.39264 261.300763 
L 78.07104 261.348077 
L 78.2496 261.170755 
L 81.10656 261.212752 
L 81.28512 261.042164 
L 82.7136 261.06593 
L 83.07072 265.357621 
L 83.24928 265.357621 
L 83.42784 265.845717 
L 83.6064 264.81121 
L 83.96352 260.917969 
L 86.82048 260.959264 
L 86.99904 260.793098 
L 89.49888 260.831072 
L 89.67744 260.680819 
L 92.5344 260.717447 
L 92.71296 260.565192 
L 95.39136 260.606442 
L 95.56992 260.449913 
L 96.81984 260.473924 
L 96.9984 260.622336 
L 104.1408 260.571101 
L 105.74784 260.56713 
L 105.9264 260.723608 
L 107.53344 260.721696 
L 107.712 260.565359 
L 130.38912 260.602046 
L 130.56768 260.45046 
L 150.5664 260.486342 
L 150.74496 260.339108 
L 173.24352 260.337189 
L 173.42208 260.480851 
L 180.0288 260.457856 
L 180.20736 260.60753 
L 181.45728 260.603552 
L 181.63584 260.757494 
L 182.52864 260.757494 
L 182.7072 260.915703 
L 183.6 260.919681 
L 183.77856 261.082165 
L 185.20704 261.087991 
L 185.3856 261.254595 
L 186.63552 261.262545 
L 186.81408 261.437388 
L 188.42112 261.461226 
L 188.59968 261.640337 
L 190.02816 261.660203 
L 190.20672 261.83961 
L 195.38496 262.110698 
L 195.56352 262.302607 
L 197.34912 262.322479 
L 197.52768 262.522627 
L 199.31328 262.546471 
L 199.49184 262.750411 
L 200.92032 262.774255 
L 201.09888 262.979161 
L 202.70592 262.999033 
L 202.88448 263.212185 
L 204.49152 263.236022 
L 204.67008 263.449477 
L 206.45568 263.481412 
L 206.63424 263.699347 
L 208.06272 263.723191 
L 208.24128 263.941434 
L 209.84832 263.973808 
L 210.02688 264.196551 
L 211.81248 264.224373 
L 211.99104 264.451397 
L 213.59808 264.480269 
L 213.77664 264.71579 
L 215.7408 264.751556 
L 215.91936 264.525053 
L 216.45504 264.544919 
L 216.6336 264.325374 
L 216.99072 264.337296 
L 217.16928 264.118074 
L 217.5264 264.133974 
L 217.70496 263.923017 
L 218.06208 263.934933 
L 218.24064 263.728276 
L 218.59776 263.74417 
L 218.77632 263.537828 
L 219.13344 263.553722 
L 219.312 263.355653 
L 219.84768 263.375518 
L 220.02624 263.185283 
L 220.38336 263.197205 
L 220.56192 263.007524 
L 220.91904 263.023417 
L 221.0976 262.838036 
L 221.45472 262.849958 
L 221.63328 262.668876 
L 221.9904 262.68477 
L 222.16896 262.504017 
L 223.24032 262.547726 
L 223.41888 262.375245 
L 223.776 262.387167 
L 223.95456 262.21898 
L 224.31168 262.230902 
L 224.49024 262.067021 
L 224.84736 262.078936 
L 225.02592 261.919356 
L 225.5616 261.937078 
L 225.74016 261.781945 
L 226.09728 261.785917 
L 226.27584 261.639056 
L 226.81152 261.652961 
L 226.99008 261.512377 
L 227.52576 261.526281 
L 227.70432 261.382041 
L 228.06144 261.393962 
L 228.24 261.252033 
L 235.73952 261.479971 
L 244.66752 261.372681 
L 257.16672 260.848156 
L 259.84512 260.687218 
L 264.30912 260.430916 
L 267.16608 260.24614 
L 268.77312 260.14481 
L 287.87904 258.976543 
L 291.98592 258.738125 
L 294.48576 258.595069 
L 296.9856 258.485197 
L 297.16416 258.629502 
L 297.52128 258.605652 
L 297.69984 258.753993 
L 297.8784 258.748032 
L 298.23552 258.882526 
L 298.59264 258.852722 
L 298.7712 259.009135 
L 299.30688 258.986882 
L 299.48544 259.150189 
L 300.19968 259.126352 
L 300.37824 259.284748 
L 300.91392 259.272833 
L 301.09248 259.435265 
L 301.4496 259.429304 
L 301.62816 259.589806 
L 302.3424 259.57789 
L 302.52096 259.742421 
L 302.87808 259.738449 
L 303.05664 259.922917 
L 303.94944 259.910995 
L 304.128 260.09552 
L 305.0208 260.083598 
L 305.19936 260.278114 
L 307.16352 260.266192 
L 307.34208 260.464738 
L 308.41344 260.464738 
L 308.592 260.673281 
L 309.66336 260.679242 
L 309.84192 260.88586 
L 311.09184 260.897775 
L 311.2704 261.114384 
L 312.87744 261.135247 
L 313.056 261.358866 
L 314.48448 261.388986 
L 314.66304 261.610861 
L 316.27008 261.652581 
L 316.44864 261.878492 
L 318.4128 261.923192 
L 318.59136 262.15612 
L 320.01984 262.195748 
L 320.1984 262.432911 
L 321.80544 262.465689 
L 321.984 262.703908 
L 323.94816 262.749909 
L 324.12672 262.981285 
L 325.73376 263.001157 
L 325.91232 263.238816 
L 327.51936 263.258681 
L 327.69792 263.487952 
L 329.1264 263.520699 
L 329.30496 263.754244 
L 330.912 263.778088 
L 331.09056 264.021077 
L 332.6976 264.04492 
L 332.87616 264.286809 
L 334.4832 264.320263 
L 334.66176 264.566451 
L 336.2688 264.596179 
L 336.44736 264.84668 
L 338.0544 264.876665 
L 338.23296 265.131479 
L 340.19712 265.165706 
L 340.37568 265.428824 
L 341.80416 265.455378 
L 341.98272 265.718864 
L 344.12544 265.753631 
L 344.304 266.021468 
L 349.6608 266.249214 
L 358.23168 266.635625 
L 358.41024 266.377296 
L 358.76736 266.38524 
L 358.94592 266.141884 
L 359.4816 266.165722 
L 359.66016 265.923351 
L 359.83872 265.927329 
L 360.01728 265.673204 
L 360.55296 265.703401 
L 360.73152 265.461114 
L 360.91008 265.461114 
L 361.08864 265.234894 
L 361.62432 265.250788 
L 361.80288 265.024736 
L 361.98144 265.032686 
L 362.16 264.798864 
L 362.51712 264.824124 
L 362.69568 264.598187 
L 363.0528 264.610109 
L 363.23136 264.388325 
L 363.58848 264.404218 
L 363.76704 264.186586 
L 364.12416 264.20248 
L 364.30272 263.988993 
L 364.65984 264.000922 
L 364.8384 263.791587 
L 365.19552 263.807481 
L 365.37408 263.602305 
L 365.7312 263.622286 
L 365.90976 263.417084 
L 366.44544 263.432978 
L 366.624 263.2359 
L 366.98112 263.251793 
L 367.15968 263.05888 
L 367.69536 263.078746 
L 367.87392 262.889985 
L 368.23104 262.905885 
L 368.4096 262.721276 
L 368.76672 262.73717 
L 368.94528 262.556726 
L 369.12384 262.560698 
L 369.3024 262.392356 
L 369.83808 262.400299 
L 370.01664 262.232138 
L 370.90944 262.267897 
L 371.088 262.099922 
L 371.26656 262.107872 
L 371.44512 261.948021 
L 372.15936 261.971865 
L 372.33792 261.808222 
L 372.51648 261.808222 
L 372.69504 261.664632 
L 373.05216 261.680525 
L 373.23072 261.529172 
L 373.7664 261.545065 
L 373.94496 261.39787 
L 374.30208 261.409792 
L 374.48064 261.266748 
L 374.83776 261.27867 
L 375.01632 261.139786 
L 375.552 261.154205 
L 375.90912 261.019601 
L 376.26624 261.031523 
L 376.62336 260.949486 
L 385.19424 261.128301 
L 391.6224 261.021011 
L 402.15744 260.568005 
L 404.30016 260.454754 
L 409.12128 260.186531 
L 418.94208 259.638163 
L 423.22752 259.387822 
L 424.83456 259.280532 
L 426.79872 259.173248 
L 439.11936 258.460375 
L 439.29792 258.460375 
L 439.65504 258.566976 
L 440.01216 258.555054 
L 440.19072 258.701361 
L 440.54784 258.67641 
L 440.7264 258.826554 
L 441.26208 258.796756 
L 441.44064 258.950839 
L 441.79776 258.932956 
L 441.97632 259.090979 
L 442.512 259.067142 
L 442.69056 259.229104 
L 443.22624 259.205261 
L 443.4048 259.365202 
L 443.76192 259.35328 
L 443.94048 259.523115 
L 444.83328 259.505239 
L 445.01184 259.679014 
L 445.54752 259.667092 
L 445.72608 259.84274 
L 446.44032 259.830818 
L 446.61888 260.018292 
L 447.15456 260.006376 
L 447.33312 260.197783 
L 449.47584 260.185861 
L 449.6544 260.381201 
L 450.72576 260.381201 
L 450.90432 260.580474 
L 451.97568 260.586113 
L 452.15424 260.792455 
L 453.2256 260.798415 
L 453.40416 261.011677 
L 454.65408 261.023599 
L 454.83264 261.234845 
L 456.43968 261.26465 
L 456.61824 261.485791 
L 458.22528 261.509634 
L 458.40384 261.740669 
L 459.83232 261.776956 
L 460.01088 262.003169 
L 461.79648 262.050857 
L 461.97504 262.278036 
L 463.22496 262.317677 
L 463.40352 262.554956 
L 465.18912 262.58476 
L 465.36768 262.837901 
L 467.15328 262.873802 
L 467.33184 263.090713 
L 468.93888 263.114557 
L 469.11744 263.344085 
L 470.72448 263.371901 
L 470.90304 263.600901 
L 472.68864 263.633628 
L 472.8672 263.8668 
L 474.47424 263.895788 
L 474.6528 264.133144 
L 476.25984 264.162356 
L 476.4384 264.403903 
L 478.224 264.433367 
L 478.40256 264.683082 
L 479.83104 264.712791 
L 480.0096 264.960762 
L 481.7952 264.986588 
L 481.97376 265.246887 
L 483.5808 265.277097 
L 483.75936 265.53551 
L 485.54496 265.569956 
L 485.72352 265.832617 
L 492.5088 266.082835 
L 495.1872 266.212025 
L 497.8656 266.321408 
L 500.36544 266.437711 
L 502.15104 266.51033 
L 502.3296 266.257035 
L 503.2224 266.299605 
L 503.40096 266.050095 
L 504.1152 266.092427 
L 504.29376 265.846715 
L 505.18656 265.88447 
L 505.36512 265.640824 
L 506.25792 265.686645 
L 506.43648 265.448793 
L 507.32928 265.484559 
L 507.50784 265.250762 
L 508.40064 265.292154 
L 508.5792 265.062188 
L 509.472 265.097947 
L 509.65056 264.872043 
L 510.54336 264.916956 
L 510.72192 264.694888 
L 511.61472 264.730654 
L 511.79328 264.512648 
L 512.68608 264.548414 
L 512.86464 264.334477 
L 513.75744 264.378753 
L 513.936 264.164699 
L 514.8288 264.204437 
L 515.00736 263.99843 
L 515.90016 264.034196 
L 516.07872 263.832258 
L 516.97152 263.871957 
L 517.15008 263.673894 
L 518.04288 263.709659 
L 518.22144 263.515678 
L 518.4 263.523628 
L 518.4 263.523628 
" style="fill:none;stroke:#000000;stroke-dasharray:6.000000,6.000000;stroke-dashoffset:0.0;"/>
   </g>
   <g id="line2d_3">
    <path clip-path="url(#p8aa5c274d2)" d="M 72.17856 172.8 
L 72.53568 172.8 
L 72.71424 388.8 
L 73.07136 388.8 
L 73.24992 172.8 
L 82.7136 172.8 
L 83.07072 177.083741 
L 83.24928 177.083741 
L 83.42784 177.567867 
L 83.6064 176.529381 
L 83.96352 172.8 
L 165.38688 172.8 
L 165.56544 85.753217 
L 165.92256 85.753217 
L 166.10112 172.8 
L 167.17248 172.8 
L 167.35104 85.753217 
L 168.60096 85.753217 
L 168.77952 172.8 
L 169.13664 172.8 
L 169.3152 85.759178 
L 169.85088 85.759178 
L 170.02944 172.8 
L 170.38656 172.8 
L 170.56512 85.765133 
L 170.74368 85.765133 
L 170.92224 172.8 
L 171.1008 85.7711 
L 173.24352 85.788976 
L 173.42208 172.8 
L 202.70592 172.886332 
L 203.2416 172.930415 
L 208.06272 173.03506 
L 208.41984 173.098673 
L 211.81248 173.170288 
L 212.1696 173.249036 
L 216.99072 173.151401 
L 217.34784 173.081921 
L 218.06208 173.01486 
L 218.77632 172.915366 
L 221.45472 172.808365 
L 224.31168 172.8 
L 226.81152 172.8 
L 226.99008 84.4419 
L 239.66784 84.12599 
L 259.66656 84.900861 
L 278.59392 86.06316 
L 280.20096 86.16449 
L 293.77152 86.963205 
L 299.12832 87.24335 
L 300.73536 87.296998 
L 300.91392 87.308914 
L 301.09248 172.8 
L 314.48448 172.881598 
L 315.19872 172.921 
L 320.01984 173.01813 
L 320.37696 173.077186 
L 323.94816 173.137488 
L 324.30528 173.216691 
L 325.73376 173.209789 
L 326.09088 173.297568 
L 327.51936 173.297371 
L 327.87648 173.37643 
L 334.4832 173.691167 
L 334.84032 173.806297 
L 336.2688 173.808022 
L 336.62592 173.930324 
L 338.0544 173.920974 
L 338.41152 174.061449 
L 340.19712 174.063514 
L 340.37568 174.199841 
L 341.80416 174.189788 
L 341.98272 174.345786 
L 344.12544 174.335083 
L 344.304 174.485081 
L 358.23168 174.471302 
L 358.41024 174.320984 
L 358.76736 174.32074 
L 358.94592 174.167829 
L 359.4816 174.179594 
L 360.01728 173.880106 
L 360.91008 173.782061 
L 361.2672 173.656938 
L 361.80288 173.577259 
L 363.0528 173.365062 
L 363.40992 173.278358 
L 364.12416 173.205442 
L 364.48128 173.126387 
L 365.19552 173.061167 
L 365.90976 172.95292 
L 368.23104 172.844028 
L 369.48096 172.801142 
L 372.51648 172.8 
L 372.69504 84.841251 
L 374.6592 84.739928 
L 379.30176 84.537269 
L 384.48 84.465738 
L 390.19392 84.549191 
L 393.94368 84.656475 
L 402.15744 85.031995 
L 404.30016 85.145246 
L 409.12128 85.413469 
L 418.94208 85.961837 
L 423.22752 86.212178 
L 424.83456 86.319468 
L 426.79872 86.426752 
L 439.11936 87.147981 
L 441.08352 87.255271 
L 445.54752 87.398321 
L 445.72608 172.8 
L 456.43968 172.882572 
L 456.97536 172.914206 
L 463.22496 173.066085 
L 463.58208 173.129507 
L 467.15328 173.200013 
L 467.5104 173.269835 
L 470.72448 173.361078 
L 471.0816 173.451346 
L 474.47424 173.550641 
L 474.83136 173.654463 
L 476.25984 173.65587 
L 476.61696 173.761467 
L 478.224 173.757948 
L 478.58112 173.885403 
L 479.83104 173.887199 
L 480.18816 174.00014 
L 481.7952 174.010921 
L 482.15232 174.14437 
L 483.5808 174.134615 
L 483.75936 174.284478 
L 485.54496 174.286702 
L 485.72352 174.431389 
L 502.15104 174.392766 
L 502.50816 174.261202 
L 503.2224 174.250858 
L 503.57952 174.113308 
L 504.1152 174.115298 
L 504.47232 173.984336 
L 505.18656 173.989313 
L 505.54368 173.859584 
L 506.43648 173.753941 
L 509.472 173.529529 
L 509.82912 173.43254 
L 511.61472 173.342912 
L 511.97184 173.266691 
L 513.75744 173.190011 
L 514.11456 173.113953 
L 515.90016 173.051004 
L 516.43584 172.999958 
L 518.4 172.908386 
L 518.4 172.908386 
" style="fill:none;stroke:#000000;stroke-dasharray:6.000000,6.000000;stroke-dashoffset:0.0;"/>
   </g>
   <g id="patch_3">
    <path d="M 72 43.2 
L 518.4 43.2 
" style="fill:none;stroke:#000000;stroke-linecap:square;stroke-linejoin:miter;"/>
   </g>
   <g id="patch_4">
    <path d="M 518.4 388.8 
L 518.4 43.2 
" style="fill:none;stroke:#000000;stroke-linecap:square;stroke-linejoin:miter;"/>
   </g>
   <g id="patch_5">
    <path d="M 72 388.8 
L 518.4 388.8 
" style="fill:none;stroke:#000000;stroke-linecap:square;stroke-linejoin:miter;"/>
   </g>
   <g id="patch_6">
    <path d="M 72 388.8 
L 72 43.2 
" style="fill:none;stroke:#000000;stroke-linecap:square;stroke-linejoin:miter;"/>
   </g>
   <g id="matplotlib.axis_1">
    <g id="xtick_1">
     <g id="line2d_4">
      <path clip-path="url(#p8aa5c274d2)" d="M 72 388.8 
L 72 43.2 
" style="fill:none;stroke:#000000;stroke-dasharray:1.000000,3.000000;stroke-dashoffset:0.0;stroke-width:0.5;"/>
     </g>
     <g id="line2d_5">
      <defs>
       <path d="M 0 0 
L 0 -4 
" id="m97045e02e9" style="stroke:#000000;stroke-width:0.5;"/>
      </defs>
      <g>
       <use style="stroke:#000000;stroke-width:0.5;" x="72.0" xlink:href="#m97045e02e9" y="388.8"/>
      </g>
     </g>
     <g id="line2d_6">
      <defs>
       <path d="M 0 0 
L 0 4 
" id="mcfd4f843dc" style="stroke:#000000;stroke-width:0.5;"/>
      </defs>
      <g>
       <use style="stroke:#000000;stroke-width:0.5;" x="72.0" xlink:href="#mcfd4f843dc" y="43.2"/>
      </g>
     </g>
     <g id="text_1">
      <!-- 0 -->
      <defs>
       <path d="M 31.78125 66.40625 
Q 24.171875 66.40625 20.328125 58.90625 
Q 16.5 51.421875 16.5 36.375 
Q 16.5 21.390625 20.328125 13.890625 
Q 24.171875 6.390625 31.78125 6.390625 
Q 39.453125 6.390625 43.28125 13.890625 
Q 47.125 21.390625 47.125 36.375 
Q 47.125 51.421875 43.28125 58.90625 
Q 39.453125 66.40625 31.78125 66.40625 
M 31.78125 74.21875 
Q 44.046875 74.21875 50.515625 64.515625 
Q 56.984375 54.828125 56.984375 36.375 
Q 56.984375 17.96875 50.515625 8.265625 
Q 44.046875 -1.421875 31.78125 -1.421875 
Q 19.53125 -1.421875 13.0625 8.265625 
Q 6.59375 17.96875 6.59375 36.375 
Q 6.59375 54.828125 13.0625 64.515625 
Q 19.53125 74.21875 31.78125 74.21875 
" id="BitstreamVeraSans-Roman-30"/>
      </defs>
      <g transform="translate(68.1825 401.918125)scale(0.12 -0.12)">
       <use xlink:href="#BitstreamVeraSans-Roman-30"/>
      </g>
     </g>
    </g>
    <g id="xtick_2">
     <g id="line2d_7">
      <path clip-path="url(#p8aa5c274d2)" d="M 161.28 388.8 
L 161.28 43.2 
" style="fill:none;stroke:#000000;stroke-dasharray:1.000000,3.000000;stroke-dashoffset:0.0;stroke-width:0.5;"/>
     </g>
     <g id="line2d_8">
      <g>
       <use style="stroke:#000000;stroke-width:0.5;" x="161.28" xlink:href="#m97045e02e9" y="388.8"/>
      </g>
     </g>
     <g id="line2d_9">
      <g>
       <use style="stroke:#000000;stroke-width:0.5;" x="161.28" xlink:href="#mcfd4f843dc" y="43.2"/>
      </g>
     </g>
     <g id="text_2">
      <!-- 5 -->
      <defs>
       <path d="M 10.796875 72.90625 
L 49.515625 72.90625 
L 49.515625 64.59375 
L 19.828125 64.59375 
L 19.828125 46.734375 
Q 21.96875 47.46875 24.109375 47.828125 
Q 26.265625 48.1875 28.421875 48.1875 
Q 40.625 48.1875 47.75 41.5 
Q 54.890625 34.8125 54.890625 23.390625 
Q 54.890625 11.625 47.5625 5.09375 
Q 40.234375 -1.421875 26.90625 -1.421875 
Q 22.3125 -1.421875 17.546875 -0.640625 
Q 12.796875 0.140625 7.71875 1.703125 
L 7.71875 11.625 
Q 12.109375 9.234375 16.796875 8.0625 
Q 21.484375 6.890625 26.703125 6.890625 
Q 35.15625 6.890625 40.078125 11.328125 
Q 45.015625 15.765625 45.015625 23.390625 
Q 45.015625 31 40.078125 35.4375 
Q 35.15625 39.890625 26.703125 39.890625 
Q 22.75 39.890625 18.8125 39.015625 
Q 14.890625 38.140625 10.796875 36.28125 
z
" id="BitstreamVeraSans-Roman-35"/>
      </defs>
      <g transform="translate(157.4625 401.918125)scale(0.12 -0.12)">
       <use xlink:href="#BitstreamVeraSans-Roman-35"/>
      </g>
     </g>
    </g>
    <g id="xtick_3">
     <g id="line2d_10">
      <path clip-path="url(#p8aa5c274d2)" d="M 250.56 388.8 
L 250.56 43.2 
" style="fill:none;stroke:#000000;stroke-dasharray:1.000000,3.000000;stroke-dashoffset:0.0;stroke-width:0.5;"/>
     </g>
     <g id="line2d_11">
      <g>
       <use style="stroke:#000000;stroke-width:0.5;" x="250.56" xlink:href="#m97045e02e9" y="388.8"/>
      </g>
     </g>
     <g id="line2d_12">
      <g>
       <use style="stroke:#000000;stroke-width:0.5;" x="250.56" xlink:href="#mcfd4f843dc" y="43.2"/>
      </g>
     </g>
     <g id="text_3">
      <!-- 10 -->
      <defs>
       <path d="M 12.40625 8.296875 
L 28.515625 8.296875 
L 28.515625 63.921875 
L 10.984375 60.40625 
L 10.984375 69.390625 
L 28.421875 72.90625 
L 38.28125 72.90625 
L 38.28125 8.296875 
L 54.390625 8.296875 
L 54.390625 0 
L 12.40625 0 
z
" id="BitstreamVeraSans-Roman-31"/>
      </defs>
      <g transform="translate(242.925 401.918125)scale(0.12 -0.12)">
       <use xlink:href="#BitstreamVeraSans-Roman-31"/>
       <use x="63.623046875" xlink:href="#BitstreamVeraSans-Roman-30"/>
      </g>
     </g>
    </g>
    <g id="xtick_4">
     <g id="line2d_13">
      <path clip-path="url(#p8aa5c274d2)" d="M 339.84 388.8 
L 339.84 43.2 
" style="fill:none;stroke:#000000;stroke-dasharray:1.000000,3.000000;stroke-dashoffset:0.0;stroke-width:0.5;"/>
     </g>
     <g id="line2d_14">
      <g>
       <use style="stroke:#000000;stroke-width:0.5;" x="339.84" xlink:href="#m97045e02e9" y="388.8"/>
      </g>
     </g>
     <g id="line2d_15">
      <g>
       <use style="stroke:#000000;stroke-width:0.5;" x="339.84" xlink:href="#mcfd4f843dc" y="43.2"/>
      </g>
     </g>
     <g id="text_4">
      <!-- 15 -->
      <g transform="translate(332.205 401.918125)scale(0.12 -0.12)">
       <use xlink:href="#BitstreamVeraSans-Roman-31"/>
       <use x="63.623046875" xlink:href="#BitstreamVeraSans-Roman-35"/>
      </g>
     </g>
    </g>
    <g id="xtick_5">
     <g id="line2d_16">
      <path clip-path="url(#p8aa5c274d2)" d="M 429.12 388.8 
L 429.12 43.2 
" style="fill:none;stroke:#000000;stroke-dasharray:1.000000,3.000000;stroke-dashoffset:0.0;stroke-width:0.5;"/>
     </g>
     <g id="line2d_17">
      <g>
       <use style="stroke:#000000;stroke-width:0.5;" x="429.12" xlink:href="#m97045e02e9" y="388.8"/>
      </g>
     </g>
     <g id="line2d_18">
      <g>
       <use style="stroke:#000000;stroke-width:0.5;" x="429.12" xlink:href="#mcfd4f843dc" y="43.2"/>
      </g>
     </g>
     <g id="text_5">
      <!-- 20 -->
      <defs>
       <path d="M 19.1875 8.296875 
L 53.609375 8.296875 
L 53.609375 0 
L 7.328125 0 
L 7.328125 8.296875 
Q 12.9375 14.109375 22.625 23.890625 
Q 32.328125 33.6875 34.8125 36.53125 
Q 39.546875 41.84375 41.421875 45.53125 
Q 43.3125 49.21875 43.3125 52.78125 
Q 43.3125 58.59375 39.234375 62.25 
Q 35.15625 65.921875 28.609375 65.921875 
Q 23.96875 65.921875 18.8125 64.3125 
Q 13.671875 62.703125 7.8125 59.421875 
L 7.8125 69.390625 
Q 13.765625 71.78125 18.9375 73 
Q 24.125 74.21875 28.421875 74.21875 
Q 39.75 74.21875 46.484375 68.546875 
Q 53.21875 62.890625 53.21875 53.421875 
Q 53.21875 48.921875 51.53125 44.890625 
Q 49.859375 40.875 45.40625 35.40625 
Q 44.1875 33.984375 37.640625 27.21875 
Q 31.109375 20.453125 19.1875 8.296875 
" id="BitstreamVeraSans-Roman-32"/>
      </defs>
      <g transform="translate(421.485 401.918125)scale(0.12 -0.12)">
       <use xlink:href="#BitstreamVeraSans-Roman-32"/>
       <use x="63.623046875" xlink:href="#BitstreamVeraSans-Roman-30"/>
      </g>
     </g>
    </g>
    <g id="xtick_6">
     <g id="line2d_19">
      <path clip-path="url(#p8aa5c274d2)" d="M 518.4 388.8 
L 518.4 43.2 
" style="fill:none;stroke:#000000;stroke-dasharray:1.000000,3.000000;stroke-dashoffset:0.0;stroke-width:0.5;"/>
     </g>
     <g id="line2d_20">
      <g>
       <use style="stroke:#000000;stroke-width:0.5;" x="518.4" xlink:href="#m97045e02e9" y="388.8"/>
      </g>
     </g>
     <g id="line2d_21">
      <g>
       <use style="stroke:#000000;stroke-width:0.5;" x="518.4" xlink:href="#mcfd4f843dc" y="43.2"/>
      </g>
     </g>
     <g id="text_6">
      <!-- 25 -->
      <g transform="translate(510.765 401.918125)scale(0.12 -0.12)">
       <use xlink:href="#BitstreamVeraSans-Roman-32"/>
       <use x="63.623046875" xlink:href="#BitstreamVeraSans-Roman-35"/>
      </g>
     </g>
    </g>
    <g id="text_7">
     <!-- Time [s] -->
     <defs>
      <path id="BitstreamVeraSans-Roman-20"/>
      <path d="M 8.59375 75.984375 
L 29.296875 75.984375 
L 29.296875 69 
L 17.578125 69 
L 17.578125 -6.203125 
L 29.296875 -6.203125 
L 29.296875 -13.1875 
L 8.59375 -13.1875 
z
" id="BitstreamVeraSans-Roman-5b"/>
      <path d="M 30.421875 75.984375 
L 30.421875 -13.1875 
L 9.71875 -13.1875 
L 9.71875 -6.203125 
L 21.390625 -6.203125 
L 21.390625 69 
L 9.71875 69 
L 9.71875 75.984375 
z
" id="BitstreamVeraSans-Roman-5d"/>
      <path d="M 52 44.1875 
Q 55.375 50.25 60.0625 53.125 
Q 64.75 56 71.09375 56 
Q 79.640625 56 84.28125 50.015625 
Q 88.921875 44.046875 88.921875 33.015625 
L 88.921875 0 
L 79.890625 0 
L 79.890625 32.71875 
Q 79.890625 40.578125 77.09375 44.375 
Q 74.3125 48.1875 68.609375 48.1875 
Q 61.625 48.1875 57.5625 43.546875 
Q 53.515625 38.921875 53.515625 30.90625 
L 53.515625 0 
L 44.484375 0 
L 44.484375 32.71875 
Q 44.484375 40.625 41.703125 44.40625 
Q 38.921875 48.1875 33.109375 48.1875 
Q 26.21875 48.1875 22.15625 43.53125 
Q 18.109375 38.875 18.109375 30.90625 
L 18.109375 0 
L 9.078125 0 
L 9.078125 54.6875 
L 18.109375 54.6875 
L 18.109375 46.1875 
Q 21.1875 51.21875 25.484375 53.609375 
Q 29.78125 56 35.6875 56 
Q 41.65625 56 45.828125 52.96875 
Q 50 49.953125 52 44.1875 
" id="BitstreamVeraSans-Roman-6d"/>
      <path d="M 9.421875 54.6875 
L 18.40625 54.6875 
L 18.40625 0 
L 9.421875 0 
z
M 9.421875 75.984375 
L 18.40625 75.984375 
L 18.40625 64.59375 
L 9.421875 64.59375 
z
" id="BitstreamVeraSans-Roman-69"/>
      <path d="M 56.203125 29.59375 
L 56.203125 25.203125 
L 14.890625 25.203125 
Q 15.484375 15.921875 20.484375 11.0625 
Q 25.484375 6.203125 34.421875 6.203125 
Q 39.59375 6.203125 44.453125 7.46875 
Q 49.3125 8.734375 54.109375 11.28125 
L 54.109375 2.78125 
Q 49.265625 0.734375 44.1875 -0.34375 
Q 39.109375 -1.421875 33.890625 -1.421875 
Q 20.796875 -1.421875 13.15625 6.1875 
Q 5.515625 13.8125 5.515625 26.8125 
Q 5.515625 40.234375 12.765625 48.109375 
Q 20.015625 56 32.328125 56 
Q 43.359375 56 49.78125 48.890625 
Q 56.203125 41.796875 56.203125 29.59375 
M 47.21875 32.234375 
Q 47.125 39.59375 43.09375 43.984375 
Q 39.0625 48.390625 32.421875 48.390625 
Q 24.90625 48.390625 20.390625 44.140625 
Q 15.875 39.890625 15.1875 32.171875 
z
" id="BitstreamVeraSans-Roman-65"/>
      <path d="M -0.296875 72.90625 
L 61.375 72.90625 
L 61.375 64.59375 
L 35.5 64.59375 
L 35.5 0 
L 25.59375 0 
L 25.59375 64.59375 
L -0.296875 64.59375 
z
" id="BitstreamVeraSans-Roman-54"/>
      <path d="M 44.28125 53.078125 
L 44.28125 44.578125 
Q 40.484375 46.53125 36.375 47.5 
Q 32.28125 48.484375 27.875 48.484375 
Q 21.1875 48.484375 17.84375 46.4375 
Q 14.5 44.390625 14.5 40.28125 
Q 14.5 37.15625 16.890625 35.375 
Q 19.28125 33.59375 26.515625 31.984375 
L 29.59375 31.296875 
Q 39.15625 29.25 43.1875 25.515625 
Q 47.21875 21.78125 47.21875 15.09375 
Q 47.21875 7.46875 41.1875 3.015625 
Q 35.15625 -1.421875 24.609375 -1.421875 
Q 20.21875 -1.421875 15.453125 -0.5625 
Q 10.6875 0.296875 5.421875 2 
L 5.421875 11.28125 
Q 10.40625 8.6875 15.234375 7.390625 
Q 20.0625 6.109375 24.8125 6.109375 
Q 31.15625 6.109375 34.5625 8.28125 
Q 37.984375 10.453125 37.984375 14.40625 
Q 37.984375 18.0625 35.515625 20.015625 
Q 33.0625 21.96875 24.703125 23.78125 
L 21.578125 24.515625 
Q 13.234375 26.265625 9.515625 29.90625 
Q 5.8125 33.546875 5.8125 39.890625 
Q 5.8125 47.609375 11.28125 51.796875 
Q 16.75 56 26.8125 56 
Q 31.78125 56 36.171875 55.265625 
Q 40.578125 54.546875 44.28125 53.078125 
" id="BitstreamVeraSans-Roman-73"/>
     </defs>
     <g transform="translate(270.620625 418.531875)scale(0.12 -0.12)">
      <use xlink:href="#BitstreamVeraSans-Roman-54"/>
      <use x="61.037109375" xlink:href="#BitstreamVeraSans-Roman-69"/>
      <use x="88.8203125" xlink:href="#BitstreamVeraSans-Roman-6d"/>
      <use x="186.232421875" xlink:href="#BitstreamVeraSans-Roman-65"/>
      <use x="247.755859375" xlink:href="#BitstreamVeraSans-Roman-20"/>
      <use x="279.54296875" xlink:href="#BitstreamVeraSans-Roman-5b"/>
      <use x="318.556640625" xlink:href="#BitstreamVeraSans-Roman-73"/>
      <use x="370.65625" xlink:href="#BitstreamVeraSans-Roman-5d"/>
     </g>
    </g>
   </g>
   <g id="matplotlib.axis_2">
    <g id="ytick_1">
     <g id="line2d_22">
      <path clip-path="url(#p8aa5c274d2)" d="M 72 388.8 
L 518.4 388.8 
" style="fill:none;stroke:#000000;stroke-dasharray:1.000000,3.000000;stroke-dashoffset:0.0;stroke-width:0.5;"/>
     </g>
     <g id="line2d_23">
      <defs>
       <path d="M 0 0 
L 4 0 
" id="m1f4a8b2b6f" style="stroke:#000000;stroke-width:0.5;"/>
      </defs>
      <g>
       <use style="stroke:#000000;stroke-width:0.5;" x="72.0" xlink:href="#m1f4a8b2b6f" y="388.8"/>
      </g>
     </g>
     <g id="line2d_24">
      <defs>
       <path d="M 0 0 
L -4 0 
" id="m9f9f799028" style="stroke:#000000;stroke-width:0.5;"/>
      </defs>
      <g>
       <use style="stroke:#000000;stroke-width:0.5;" x="518.4" xlink:href="#m9f9f799028" y="388.8"/>
      </g>
     </g>
     <g id="text_8">
      <!-- −1.0 -->
      <defs>
       <path d="M 10.59375 35.5 
L 73.1875 35.5 
L 73.1875 27.203125 
L 10.59375 27.203125 
z
" id="BitstreamVeraSans-Roman-2212"/>
       <path d="M 10.6875 12.40625 
L 21 12.40625 
L 21 0 
L 10.6875 0 
z
" id="BitstreamVeraSans-Roman-2e"/>
      </defs>
      <g transform="translate(38.860625 392.11125)scale(0.12 -0.12)">
       <use xlink:href="#BitstreamVeraSans-Roman-2212"/>
       <use x="83.7890625" xlink:href="#BitstreamVeraSans-Roman-31"/>
       <use x="147.412109375" xlink:href="#BitstreamVeraSans-Roman-2e"/>
       <use x="179.19921875" xlink:href="#BitstreamVeraSans-Roman-30"/>
      </g>
     </g>
    </g>
    <g id="ytick_2">
     <g id="line2d_25">
      <path clip-path="url(#p8aa5c274d2)" d="M 72 345.6 
L 518.4 345.6 
" style="fill:none;stroke:#000000;stroke-dasharray:1.000000,3.000000;stroke-dashoffset:0.0;stroke-width:0.5;"/>
     </g>
     <g id="line2d_26">
      <g>
       <use style="stroke:#000000;stroke-width:0.5;" x="72.0" xlink:href="#m1f4a8b2b6f" y="345.6"/>
      </g>
     </g>
     <g id="line2d_27">
      <g>
       <use style="stroke:#000000;stroke-width:0.5;" x="518.4" xlink:href="#m9f9f799028" y="345.6"/>
      </g>
     </g>
     <g id="text_9">
      <!-- −0.8 -->
      <defs>
       <path d="M 31.78125 34.625 
Q 24.75 34.625 20.71875 30.859375 
Q 16.703125 27.09375 16.703125 20.515625 
Q 16.703125 13.921875 20.71875 10.15625 
Q 24.75 6.390625 31.78125 6.390625 
Q 38.8125 6.390625 42.859375 10.171875 
Q 46.921875 13.96875 46.921875 20.515625 
Q 46.921875 27.09375 42.890625 30.859375 
Q 38.875 34.625 31.78125 34.625 
M 21.921875 38.8125 
Q 15.578125 40.375 12.03125 44.71875 
Q 8.5 49.078125 8.5 55.328125 
Q 8.5 64.0625 14.71875 69.140625 
Q 20.953125 74.21875 31.78125 74.21875 
Q 42.671875 74.21875 48.875 69.140625 
Q 55.078125 64.0625 55.078125 55.328125 
Q 55.078125 49.078125 51.53125 44.71875 
Q 48 40.375 41.703125 38.8125 
Q 48.828125 37.15625 52.796875 32.3125 
Q 56.78125 27.484375 56.78125 20.515625 
Q 56.78125 9.90625 50.3125 4.234375 
Q 43.84375 -1.421875 31.78125 -1.421875 
Q 19.734375 -1.421875 13.25 4.234375 
Q 6.78125 9.90625 6.78125 20.515625 
Q 6.78125 27.484375 10.78125 32.3125 
Q 14.796875 37.15625 21.921875 38.8125 
M 18.3125 54.390625 
Q 18.3125 48.734375 21.84375 45.5625 
Q 25.390625 42.390625 31.78125 42.390625 
Q 38.140625 42.390625 41.71875 45.5625 
Q 45.3125 48.734375 45.3125 54.390625 
Q 45.3125 60.0625 41.71875 63.234375 
Q 38.140625 66.40625 31.78125 66.40625 
Q 25.390625 66.40625 21.84375 63.234375 
Q 18.3125 60.0625 18.3125 54.390625 
" id="BitstreamVeraSans-Roman-38"/>
      </defs>
      <g transform="translate(38.860625 348.91125)scale(0.12 -0.12)">
       <use xlink:href="#BitstreamVeraSans-Roman-2212"/>
       <use x="83.7890625" xlink:href="#BitstreamVeraSans-Roman-30"/>
       <use x="147.412109375" xlink:href="#BitstreamVeraSans-Roman-2e"/>
       <use x="179.19921875" xlink:href="#BitstreamVeraSans-Roman-38"/>
      </g>
     </g>
    </g>
    <g id="ytick_3">
     <g id="line2d_28">
      <path clip-path="url(#p8aa5c274d2)" d="M 72 302.4 
L 518.4 302.4 
" style="fill:none;stroke:#000000;stroke-dasharray:1.000000,3.000000;stroke-dashoffset:0.0;stroke-width:0.5;"/>
     </g>
     <g id="line2d_29">
      <g>
       <use style="stroke:#000000;stroke-width:0.5;" x="72.0" xlink:href="#m1f4a8b2b6f" y="302.4"/>
      </g>
     </g>
     <g id="line2d_30">
      <g>
       <use style="stroke:#000000;stroke-width:0.5;" x="518.4" xlink:href="#m9f9f799028" y="302.4"/>
      </g>
     </g>
     <g id="text_10">
      <!-- −0.6 -->
      <defs>
       <path d="M 33.015625 40.375 
Q 26.375 40.375 22.484375 35.828125 
Q 18.609375 31.296875 18.609375 23.390625 
Q 18.609375 15.53125 22.484375 10.953125 
Q 26.375 6.390625 33.015625 6.390625 
Q 39.65625 6.390625 43.53125 10.953125 
Q 47.40625 15.53125 47.40625 23.390625 
Q 47.40625 31.296875 43.53125 35.828125 
Q 39.65625 40.375 33.015625 40.375 
M 52.59375 71.296875 
L 52.59375 62.3125 
Q 48.875 64.0625 45.09375 64.984375 
Q 41.3125 65.921875 37.59375 65.921875 
Q 27.828125 65.921875 22.671875 59.328125 
Q 17.53125 52.734375 16.796875 39.40625 
Q 19.671875 43.65625 24.015625 45.921875 
Q 28.375 48.1875 33.59375 48.1875 
Q 44.578125 48.1875 50.953125 41.515625 
Q 57.328125 34.859375 57.328125 23.390625 
Q 57.328125 12.15625 50.6875 5.359375 
Q 44.046875 -1.421875 33.015625 -1.421875 
Q 20.359375 -1.421875 13.671875 8.265625 
Q 6.984375 17.96875 6.984375 36.375 
Q 6.984375 53.65625 15.1875 63.9375 
Q 23.390625 74.21875 37.203125 74.21875 
Q 40.921875 74.21875 44.703125 73.484375 
Q 48.484375 72.75 52.59375 71.296875 
" id="BitstreamVeraSans-Roman-36"/>
      </defs>
      <g transform="translate(38.860625 305.71125)scale(0.12 -0.12)">
       <use xlink:href="#BitstreamVeraSans-Roman-2212"/>
       <use x="83.7890625" xlink:href="#BitstreamVeraSans-Roman-30"/>
       <use x="147.412109375" xlink:href="#BitstreamVeraSans-Roman-2e"/>
       <use x="179.19921875" xlink:href="#BitstreamVeraSans-Roman-36"/>
      </g>
     </g>
    </g>
    <g id="ytick_4">
     <g id="line2d_31">
      <path clip-path="url(#p8aa5c274d2)" d="M 72 259.2 
L 518.4 259.2 
" style="fill:none;stroke:#000000;stroke-dasharray:1.000000,3.000000;stroke-dashoffset:0.0;stroke-width:0.5;"/>
     </g>
     <g id="line2d_32">
      <g>
       <use style="stroke:#000000;stroke-width:0.5;" x="72.0" xlink:href="#m1f4a8b2b6f" y="259.2"/>
      </g>
     </g>
     <g id="line2d_33">
      <g>
       <use style="stroke:#000000;stroke-width:0.5;" x="518.4" xlink:href="#m9f9f799028" y="259.2"/>
      </g>
     </g>
     <g id="text_11">
      <!-- −0.4 -->
      <defs>
       <path d="M 37.796875 64.3125 
L 12.890625 25.390625 
L 37.796875 25.390625 
z
M 35.203125 72.90625 
L 47.609375 72.90625 
L 47.609375 25.390625 
L 58.015625 25.390625 
L 58.015625 17.1875 
L 47.609375 17.1875 
L 47.609375 0 
L 37.796875 0 
L 37.796875 17.1875 
L 4.890625 17.1875 
L 4.890625 26.703125 
z
" id="BitstreamVeraSans-Roman-34"/>
      </defs>
      <g transform="translate(38.860625 262.51125)scale(0.12 -0.12)">
       <use xlink:href="#BitstreamVeraSans-Roman-2212"/>
       <use x="83.7890625" xlink:href="#BitstreamVeraSans-Roman-30"/>
       <use x="147.412109375" xlink:href="#BitstreamVeraSans-Roman-2e"/>
       <use x="179.19921875" xlink:href="#BitstreamVeraSans-Roman-34"/>
      </g>
     </g>
    </g>
    <g id="ytick_5">
     <g id="line2d_34">
      <path clip-path="url(#p8aa5c274d2)" d="M 72 216 
L 518.4 216 
" style="fill:none;stroke:#000000;stroke-dasharray:1.000000,3.000000;stroke-dashoffset:0.0;stroke-width:0.5;"/>
     </g>
     <g id="line2d_35">
      <g>
       <use style="stroke:#000000;stroke-width:0.5;" x="72.0" xlink:href="#m1f4a8b2b6f" y="216.0"/>
      </g>
     </g>
     <g id="line2d_36">
      <g>
       <use style="stroke:#000000;stroke-width:0.5;" x="518.4" xlink:href="#m9f9f799028" y="216.0"/>
      </g>
     </g>
     <g id="text_12">
      <!-- −0.2 -->
      <g transform="translate(38.860625 219.31125)scale(0.12 -0.12)">
       <use xlink:href="#BitstreamVeraSans-Roman-2212"/>
       <use x="83.7890625" xlink:href="#BitstreamVeraSans-Roman-30"/>
       <use x="147.412109375" xlink:href="#BitstreamVeraSans-Roman-2e"/>
       <use x="179.19921875" xlink:href="#BitstreamVeraSans-Roman-32"/>
      </g>
     </g>
    </g>
    <g id="ytick_6">
     <g id="line2d_37">
      <path clip-path="url(#p8aa5c274d2)" d="M 72 172.8 
L 518.4 172.8 
" style="fill:none;stroke:#000000;stroke-dasharray:1.000000,3.000000;stroke-dashoffset:0.0;stroke-width:0.5;"/>
     </g>
     <g id="line2d_38">
      <g>
       <use style="stroke:#000000;stroke-width:0.5;" x="72.0" xlink:href="#m1f4a8b2b6f" y="172.8"/>
      </g>
     </g>
     <g id="line2d_39">
      <g>
       <use style="stroke:#000000;stroke-width:0.5;" x="518.4" xlink:href="#m9f9f799028" y="172.8"/>
      </g>
     </g>
     <g id="text_13">
      <!-- 0.0 -->
      <g transform="translate(48.91625 176.11125)scale(0.12 -0.12)">
       <use xlink:href="#BitstreamVeraSans-Roman-30"/>
       <use x="63.623046875" xlink:href="#BitstreamVeraSans-Roman-2e"/>
       <use x="95.41015625" xlink:href="#BitstreamVeraSans-Roman-30"/>
      </g>
     </g>
    </g>
    <g id="ytick_7">
     <g id="line2d_40">
      <path clip-path="url(#p8aa5c274d2)" d="M 72 129.6 
L 518.4 129.6 
" style="fill:none;stroke:#000000;stroke-dasharray:1.000000,3.000000;stroke-dashoffset:0.0;stroke-width:0.5;"/>
     </g>
     <g id="line2d_41">
      <g>
       <use style="stroke:#000000;stroke-width:0.5;" x="72.0" xlink:href="#m1f4a8b2b6f" y="129.6"/>
      </g>
     </g>
     <g id="line2d_42">
      <g>
       <use style="stroke:#000000;stroke-width:0.5;" x="518.4" xlink:href="#m9f9f799028" y="129.6"/>
      </g>
     </g>
     <g id="text_14">
      <!-- 0.2 -->
      <g transform="translate(48.91625 132.91125)scale(0.12 -0.12)">
       <use xlink:href="#BitstreamVeraSans-Roman-30"/>
       <use x="63.623046875" xlink:href="#BitstreamVeraSans-Roman-2e"/>
       <use x="95.41015625" xlink:href="#BitstreamVeraSans-Roman-32"/>
      </g>
     </g>
    </g>
    <g id="ytick_8">
     <g id="line2d_43">
      <path clip-path="url(#p8aa5c274d2)" d="M 72 86.4 
L 518.4 86.4 
" style="fill:none;stroke:#000000;stroke-dasharray:1.000000,3.000000;stroke-dashoffset:0.0;stroke-width:0.5;"/>
     </g>
     <g id="line2d_44">
      <g>
       <use style="stroke:#000000;stroke-width:0.5;" x="72.0" xlink:href="#m1f4a8b2b6f" y="86.4"/>
      </g>
     </g>
     <g id="line2d_45">
      <g>
       <use style="stroke:#000000;stroke-width:0.5;" x="518.4" xlink:href="#m9f9f799028" y="86.4"/>
      </g>
     </g>
     <g id="text_15">
      <!-- 0.4 -->
      <g transform="translate(48.91625 89.71125)scale(0.12 -0.12)">
       <use xlink:href="#BitstreamVeraSans-Roman-30"/>
       <use x="63.623046875" xlink:href="#BitstreamVeraSans-Roman-2e"/>
       <use x="95.41015625" xlink:href="#BitstreamVeraSans-Roman-34"/>
      </g>
     </g>
    </g>
    <g id="ytick_9">
     <g id="line2d_46">
      <path clip-path="url(#p8aa5c274d2)" d="M 72 43.2 
L 518.4 43.2 
" style="fill:none;stroke:#000000;stroke-dasharray:1.000000,3.000000;stroke-dashoffset:0.0;stroke-width:0.5;"/>
     </g>
     <g id="line2d_47">
      <g>
       <use style="stroke:#000000;stroke-width:0.5;" x="72.0" xlink:href="#m1f4a8b2b6f" y="43.2"/>
      </g>
     </g>
     <g id="line2d_48">
      <g>
       <use style="stroke:#000000;stroke-width:0.5;" x="518.4" xlink:href="#m9f9f799028" y="43.2"/>
      </g>
     </g>
     <g id="text_16">
      <!-- 0.6 -->
      <g transform="translate(48.91625 46.51125)scale(0.12 -0.12)">
       <use xlink:href="#BitstreamVeraSans-Roman-30"/>
       <use x="63.623046875" xlink:href="#BitstreamVeraSans-Roman-2e"/>
       <use x="95.41015625" xlink:href="#BitstreamVeraSans-Roman-36"/>
      </g>
     </g>
    </g>
    <g id="text_17">
     <!-- Acceleration [m/s^2] -->
     <defs>
      <path d="M 46.6875 72.90625 
L 73.1875 45.703125 
L 63.375 45.703125 
L 41.890625 64.984375 
L 20.40625 45.703125 
L 10.59375 45.703125 
L 37.109375 72.90625 
z
" id="BitstreamVeraSans-Roman-5e"/>
      <path d="M 54.890625 33.015625 
L 54.890625 0 
L 45.90625 0 
L 45.90625 32.71875 
Q 45.90625 40.484375 42.875 44.328125 
Q 39.84375 48.1875 33.796875 48.1875 
Q 26.515625 48.1875 22.3125 43.546875 
Q 18.109375 38.921875 18.109375 30.90625 
L 18.109375 0 
L 9.078125 0 
L 9.078125 54.6875 
L 18.109375 54.6875 
L 18.109375 46.1875 
Q 21.34375 51.125 25.703125 53.5625 
Q 30.078125 56 35.796875 56 
Q 45.21875 56 50.046875 50.171875 
Q 54.890625 44.34375 54.890625 33.015625 
" id="BitstreamVeraSans-Roman-6e"/>
      <path d="M 41.109375 46.296875 
Q 39.59375 47.171875 37.8125 47.578125 
Q 36.03125 48 33.890625 48 
Q 26.265625 48 22.1875 43.046875 
Q 18.109375 38.09375 18.109375 28.8125 
L 18.109375 0 
L 9.078125 0 
L 9.078125 54.6875 
L 18.109375 54.6875 
L 18.109375 46.1875 
Q 20.953125 51.171875 25.484375 53.578125 
Q 30.03125 56 36.53125 56 
Q 37.453125 56 38.578125 55.875 
Q 39.703125 55.765625 41.0625 55.515625 
z
" id="BitstreamVeraSans-Roman-72"/>
      <path d="M 30.609375 48.390625 
Q 23.390625 48.390625 19.1875 42.75 
Q 14.984375 37.109375 14.984375 27.296875 
Q 14.984375 17.484375 19.15625 11.84375 
Q 23.34375 6.203125 30.609375 6.203125 
Q 37.796875 6.203125 41.984375 11.859375 
Q 46.1875 17.53125 46.1875 27.296875 
Q 46.1875 37.015625 41.984375 42.703125 
Q 37.796875 48.390625 30.609375 48.390625 
M 30.609375 56 
Q 42.328125 56 49.015625 48.375 
Q 55.71875 40.765625 55.71875 27.296875 
Q 55.71875 13.875 49.015625 6.21875 
Q 42.328125 -1.421875 30.609375 -1.421875 
Q 18.84375 -1.421875 12.171875 6.21875 
Q 5.515625 13.875 5.515625 27.296875 
Q 5.515625 40.765625 12.171875 48.375 
Q 18.84375 56 30.609375 56 
" id="BitstreamVeraSans-Roman-6f"/>
      <path d="M 9.421875 75.984375 
L 18.40625 75.984375 
L 18.40625 0 
L 9.421875 0 
z
" id="BitstreamVeraSans-Roman-6c"/>
      <path d="M 34.1875 63.1875 
L 20.796875 26.90625 
L 47.609375 26.90625 
z
M 28.609375 72.90625 
L 39.796875 72.90625 
L 67.578125 0 
L 57.328125 0 
L 50.6875 18.703125 
L 17.828125 18.703125 
L 11.1875 0 
L 0.78125 0 
z
" id="BitstreamVeraSans-Roman-41"/>
      <path d="M 25.390625 72.90625 
L 33.6875 72.90625 
L 8.296875 -9.28125 
L 0 -9.28125 
z
" id="BitstreamVeraSans-Roman-2f"/>
      <path d="M 18.3125 70.21875 
L 18.3125 54.6875 
L 36.8125 54.6875 
L 36.8125 47.703125 
L 18.3125 47.703125 
L 18.3125 18.015625 
Q 18.3125 11.328125 20.140625 9.421875 
Q 21.96875 7.515625 27.59375 7.515625 
L 36.8125 7.515625 
L 36.8125 0 
L 27.59375 0 
Q 17.1875 0 13.234375 3.875 
Q 9.28125 7.765625 9.28125 18.015625 
L 9.28125 47.703125 
L 2.6875 47.703125 
L 2.6875 54.6875 
L 9.28125 54.6875 
L 9.28125 70.21875 
z
" id="BitstreamVeraSans-Roman-74"/>
      <path d="M 34.28125 27.484375 
Q 23.390625 27.484375 19.1875 25 
Q 14.984375 22.515625 14.984375 16.5 
Q 14.984375 11.71875 18.140625 8.90625 
Q 21.296875 6.109375 26.703125 6.109375 
Q 34.1875 6.109375 38.703125 11.40625 
Q 43.21875 16.703125 43.21875 25.484375 
L 43.21875 27.484375 
z
M 52.203125 31.203125 
L 52.203125 0 
L 43.21875 0 
L 43.21875 8.296875 
Q 40.140625 3.328125 35.546875 0.953125 
Q 30.953125 -1.421875 24.3125 -1.421875 
Q 15.921875 -1.421875 10.953125 3.296875 
Q 6 8.015625 6 15.921875 
Q 6 25.140625 12.171875 29.828125 
Q 18.359375 34.515625 30.609375 34.515625 
L 43.21875 34.515625 
L 43.21875 35.40625 
Q 43.21875 41.609375 39.140625 45 
Q 35.0625 48.390625 27.6875 48.390625 
Q 23 48.390625 18.546875 47.265625 
Q 14.109375 46.140625 10.015625 43.890625 
L 10.015625 52.203125 
Q 14.9375 54.109375 19.578125 55.046875 
Q 24.21875 56 28.609375 56 
Q 40.484375 56 46.34375 49.84375 
Q 52.203125 43.703125 52.203125 31.203125 
" id="BitstreamVeraSans-Roman-61"/>
      <path d="M 48.78125 52.59375 
L 48.78125 44.1875 
Q 44.96875 46.296875 41.140625 47.34375 
Q 37.3125 48.390625 33.40625 48.390625 
Q 24.65625 48.390625 19.8125 42.84375 
Q 14.984375 37.3125 14.984375 27.296875 
Q 14.984375 17.28125 19.8125 11.734375 
Q 24.65625 6.203125 33.40625 6.203125 
Q 37.3125 6.203125 41.140625 7.25 
Q 44.96875 8.296875 48.78125 10.40625 
L 48.78125 2.09375 
Q 45.015625 0.34375 40.984375 -0.53125 
Q 36.96875 -1.421875 32.421875 -1.421875 
Q 20.0625 -1.421875 12.78125 6.34375 
Q 5.515625 14.109375 5.515625 27.296875 
Q 5.515625 40.671875 12.859375 48.328125 
Q 20.21875 56 33.015625 56 
Q 37.15625 56 41.109375 55.140625 
Q 45.0625 54.296875 48.78125 52.59375 
" id="BitstreamVeraSans-Roman-63"/>
     </defs>
     <g transform="translate(31.365 279.81375)rotate(-90.0)scale(0.12 -0.12)">
      <use xlink:href="#BitstreamVeraSans-Roman-41"/>
      <use x="68.392578125" xlink:href="#BitstreamVeraSans-Roman-63"/>
      <use x="123.373046875" xlink:href="#BitstreamVeraSans-Roman-63"/>
      <use x="178.353515625" xlink:href="#BitstreamVeraSans-Roman-65"/>
      <use x="239.876953125" xlink:href="#BitstreamVeraSans-Roman-6c"/>
      <use x="267.66015625" xlink:href="#BitstreamVeraSans-Roman-65"/>
      <use x="329.18359375" xlink:href="#BitstreamVeraSans-Roman-72"/>
      <use x="370.296875" xlink:href="#BitstreamVeraSans-Roman-61"/>
      <use x="431.576171875" xlink:href="#BitstreamVeraSans-Roman-74"/>
      <use x="470.78515625" xlink:href="#BitstreamVeraSans-Roman-69"/>
      <use x="498.568359375" xlink:href="#BitstreamVeraSans-Roman-6f"/>
      <use x="559.75" xlink:href="#BitstreamVeraSans-Roman-6e"/>
      <use x="623.12890625" xlink:href="#BitstreamVeraSans-Roman-20"/>
      <use x="654.916015625" xlink:href="#BitstreamVeraSans-Roman-5b"/>
      <use x="693.9296875" xlink:href="#BitstreamVeraSans-Roman-6d"/>
      <use x="791.341796875" xlink:href="#BitstreamVeraSans-Roman-2f"/>
      <use x="825.033203125" xlink:href="#BitstreamVeraSans-Roman-73"/>
      <use x="877.1328125" xlink:href="#BitstreamVeraSans-Roman-5e"/>
      <use x="960.921875" xlink:href="#BitstreamVeraSans-Roman-32"/>
      <use x="1024.54492188" xlink:href="#BitstreamVeraSans-Roman-5d"/>
     </g>
    </g>
   </g>
   <g id="legend_1">
    <g id="patch_7">
     <path d="M 79.2 381.6 
L 168.561 381.6 
L 168.561 313.8705 
L 79.2 313.8705 
z
" style="fill:#ffffff;stroke:#000000;stroke-linejoin:miter;"/>
    </g>
    <g id="line2d_49">
     <path d="M 89.28 325.53225 
L 109.44 325.53225 
" style="fill:none;stroke:#008000;stroke-linecap:square;"/>
    </g>
    <g id="line2d_50"/>
    <g id="text_18">
     <!-- accel -->
     <g transform="translate(125.28 330.57225)scale(0.144 -0.144)">
      <use xlink:href="#BitstreamVeraSans-Roman-61"/>
      <use x="61.279296875" xlink:href="#BitstreamVeraSans-Roman-63"/>
      <use x="116.259765625" xlink:href="#BitstreamVeraSans-Roman-63"/>
      <use x="171.240234375" xlink:href="#BitstreamVeraSans-Roman-65"/>
      <use x="232.763671875" xlink:href="#BitstreamVeraSans-Roman-6c"/>
     </g>
    </g>
    <g id="line2d_51">
     <path d="M 89.28 346.66875 
L 109.44 346.66875 
" style="fill:none;stroke:#000000;stroke-dasharray:6.000000,6.000000;stroke-dashoffset:0.0;"/>
    </g>
    <g id="line2d_52"/>
    <g id="text_19">
     <!-- max -->
     <defs>
      <path d="M 54.890625 54.6875 
L 35.109375 28.078125 
L 55.90625 0 
L 45.3125 0 
L 29.390625 21.484375 
L 13.484375 0 
L 2.875 0 
L 24.125 28.609375 
L 4.6875 54.6875 
L 15.28125 54.6875 
L 29.78125 35.203125 
L 44.28125 54.6875 
z
" id="BitstreamVeraSans-Roman-78"/>
     </defs>
     <g transform="translate(125.28 351.70875)scale(0.144 -0.144)">
      <use xlink:href="#BitstreamVeraSans-Roman-6d"/>
      <use x="97.412109375" xlink:href="#BitstreamVeraSans-Roman-61"/>
      <use x="158.69140625" xlink:href="#BitstreamVeraSans-Roman-78"/>
     </g>
    </g>
    <g id="line2d_53">
     <path d="M 89.28 367.80525 
L 109.44 367.80525 
" style="fill:none;stroke:#000000;stroke-dasharray:6.000000,6.000000;stroke-dashoffset:0.0;"/>
    </g>
    <g id="line2d_54"/>
    <g id="text_20">
     <!-- min -->
     <g transform="translate(125.28 372.84525)scale(0.144 -0.144)">
      <use xlink:href="#BitstreamVeraSans-Roman-6d"/>
      <use x="97.412109375" xlink:href="#BitstreamVeraSans-Roman-69"/>
      <use x="125.1953125" xlink:href="#BitstreamVeraSans-Roman-6e"/>
     </g>
    </g>
   </g>
  </g>
 </g>
 <defs>
  <clipPath id="p8aa5c274d2">
   <rect height="345.6" width="446.4" x="72.0" y="43.2"/>
  </clipPath>
 </defs>
</svg>
