<?xml version="1.0" encoding="utf-8" standalone="no"?>
<!DOCTYPE svg PUBLIC "-//W3C//DTD SVG 1.1//EN"
  "http://www.w3.org/Graphics/SVG/1.1/DTD/svg11.dtd">
<!-- Created with matplotlib (http://matplotlib.org/) -->
<svg height="432pt" version="1.1" viewBox="0 0 576 432" width="576pt" xmlns="http://www.w3.org/2000/svg" xmlns:xlink="http://www.w3.org/1999/xlink">
 <defs>
  <style type="text/css">
*{stroke-linecap:butt;stroke-linejoin:round;stroke-miterlimit:100000;}
  </style>
 </defs>
 <g id="figure_1">
  <g id="patch_1">
   <path d="M 0 432 
L 576 432 
L 576 0 
L 0 0 
z
" style="fill:#ffffff;"/>
  </g>
  <g id="axes_1">
   <g id="patch_2">
    <path d="M 72 388.8 
L 518.4 388.8 
L 518.4 43.2 
L 72 43.2 
z
" style="fill:#ffffff;"/>
   </g>
   <g id="line2d_1">
    <path clip-path="url(#p0de0482742)" d="M 72.17856 388.8 
L 95.74848 388.8 
L 95.92704 264.931971 
L 96.1056 264.931971 
L 96.28416 270.646613 
L 96.46272 270.646613 
L 96.64128 274.456374 
L 96.81984 274.456374 
L 97.17696 285.885657 
L 97.35552 285.885657 
L 97.53408 291.600298 
L 97.8912 291.600298 
L 98.06976 295.410059 
L 98.24832 295.410059 
L 98.42688 301.1247 
L 98.60544 301.1247 
L 98.784 304.934461 
L 98.96256 304.934461 
L 99.14112 310.649103 
L 99.31968 310.649103 
L 99.49824 314.458864 
L 99.6768 314.458864 
L 99.85536 320.173505 
L 100.74816 320.173505 
L 100.92672 322.078386 
L 101.81952 322.078386 
L 101.99808 323.983266 
L 103.06944 323.983266 
L 103.248 325.888147 
L 104.31936 325.888147 
L 104.49792 327.793027 
L 105.74784 327.793027 
L 105.9264 329.697908 
L 106.10496 329.697908 
L 106.46208 335.412549 
L 107.89056 335.412549 
L 108.06912 337.31743 
L 111.46176 337.31743 
L 111.64032 339.22231 
L 112.53312 339.22231 
L 112.71168 337.31743 
L 112.89024 339.22231 
L 119.85408 339.22231 
L 120.03264 341.127191 
L 120.38976 341.127191 
L 120.56832 339.22231 
L 121.46112 339.22231 
L 121.63968 341.127191 
L 122.53248 341.127191 
L 122.71104 339.22231 
L 122.8896 339.22231 
L 123.06816 341.127191 
L 124.13952 341.127191 
L 124.31808 339.22231 
L 124.85376 339.22231 
L 125.03232 341.127191 
L 125.74656 341.127191 
L 125.92512 339.22231 
L 126.10368 339.22231 
L 126.28224 341.127191 
L 127.3536 341.127191 
L 127.53216 339.22231 
L 127.71072 339.22231 
L 127.88928 341.127191 
L 139.13856 341.127191 
L 139.31712 339.22231 
L 139.49568 339.22231 
L 139.67424 341.127191 
L 140.7456 341.127191 
L 140.92416 339.22231 
L 141.6384 339.22231 
L 141.81696 341.127191 
L 142.70976 341.127191 
L 142.88832 339.22231 
L 143.78112 339.22231 
L 143.95968 341.127191 
L 144.67392 341.127191 
L 144.85248 339.22231 
L 154.67328 339.22231 
L 154.85184 337.31743 
L 155.9232 337.31743 
L 156.10176 339.22231 
L 157.17312 339.22231 
L 157.35168 337.31743 
L 158.6016 337.31743 
L 158.78016 339.22231 
L 159.85152 339.22231 
L 160.03008 337.31743 
L 161.63712 337.31743 
L 161.81568 339.22231 
L 162.52992 339.22231 
L 162.70848 337.31743 
L 165.744 337.31743 
L 165.92256 333.507669 
L 167.17248 333.507669 
L 167.35104 331.602788 
L 167.5296 331.602788 
L 167.70816 329.697908 
L 167.88672 329.697908 
L 168.06528 325.888147 
L 168.24384 325.888147 
L 168.4224 322.078386 
L 169.13664 322.078386 
L 169.3152 318.268625 
L 169.67232 318.268625 
L 169.85088 314.458864 
L 170.56512 314.458864 
L 170.74368 310.649103 
L 171.27936 310.649103 
L 171.45792 308.744222 
L 173.24352 308.744222 
L 173.42208 310.649103 
L 173.60064 310.649103 
L 173.7792 316.363744 
L 173.95776 316.363744 
L 174.13632 320.173505 
L 174.31488 320.173505 
L 174.49344 322.078386 
L 176.4576 322.078386 
L 176.63616 323.983266 
L 177.88608 323.983266 
L 178.06464 325.888147 
L 180.0288 325.888147 
L 180.20736 329.697908 
L 180.38592 329.697908 
L 180.56448 331.602788 
L 181.45728 331.602788 
L 181.63584 333.507669 
L 181.8144 333.507669 
L 181.99296 337.31743 
L 182.17152 337.31743 
L 182.35008 341.127191 
L 182.52864 341.127191 
L 182.7072 344.936952 
L 182.88576 344.936952 
L 183.06432 348.746712 
L 183.24288 348.746712 
L 183.42144 352.556473 
L 183.6 352.556473 
L 183.77856 354.461354 
L 183.95712 358.271115 
L 184.13568 358.271115 
L 184.31424 360.175995 
L 184.67136 360.175995 
L 184.84992 363.985756 
L 185.02848 363.985756 
L 185.20704 367.795517 
L 185.3856 367.795517 
L 185.56416 369.700398 
L 185.74272 369.700398 
L 185.92128 373.510159 
L 186.09984 373.510159 
L 186.2784 375.415039 
L 186.45696 375.415039 
L 186.63552 379.2248 
L 186.81408 379.2248 
L 186.99264 381.129681 
L 187.1712 381.129681 
L 187.34976 383.034561 
L 187.52832 383.034561 
L 187.70688 384.939442 
L 187.88544 384.939442 
L 188.064 388.8 
L 232.88256 388.8 
L 233.06112 386.844322 
L 233.23968 386.844322 
L 233.41824 383.034561 
L 233.5968 383.034561 
L 233.77536 377.31992 
L 233.95392 377.31992 
L 234.13248 371.605278 
L 234.31104 371.605278 
L 234.4896 365.890637 
L 234.66816 365.890637 
L 234.84672 362.080876 
L 235.02528 362.080876 
L 235.20384 358.271115 
L 235.3824 358.271115 
L 235.56096 352.556473 
L 235.73952 352.556473 
L 235.91808 348.746712 
L 236.09664 348.746712 
L 236.2752 344.936952 
L 236.63232 344.936952 
L 236.98944 335.412549 
L 237.168 335.412549 
L 237.34656 331.602788 
L 237.52512 331.602788 
L 237.70368 327.793027 
L 237.88224 327.793027 
L 238.0608 323.983266 
L 238.23936 323.983266 
L 238.41792 320.173505 
L 238.59648 320.173505 
L 238.77504 316.363744 
L 238.9536 316.363744 
L 239.13216 312.553983 
L 239.31072 312.553983 
L 239.48928 308.744222 
L 239.66784 308.744222 
L 239.8464 306.839342 
L 240.02496 306.839342 
L 240.20352 303.029581 
L 240.38208 303.029581 
L 240.56064 299.21982 
L 240.7392 299.21982 
L 240.91776 297.31494 
L 241.09632 297.31494 
L 241.27488 293.505179 
L 241.45344 293.505179 
L 241.81056 285.885657 
L 241.98912 285.885657 
L 242.16768 283.980776 
L 242.34624 283.980776 
L 242.5248 282.075896 
L 242.70336 282.075896 
L 242.88192 278.266135 
L 243.06048 278.266135 
L 243.23904 276.361254 
L 243.4176 276.361254 
L 243.59616 274.456374 
L 243.77472 274.456374 
L 243.95328 272.551493 
L 244.13184 268.741732 
L 244.3104 268.741732 
L 244.48896 266.836852 
L 244.66752 266.836852 
L 244.84608 264.931971 
L 245.02464 264.931971 
L 245.2032 263.027091 
L 245.38176 263.027091 
L 245.56032 261.12221 
L 245.73888 261.12221 
L 245.91744 259.21733 
L 246.096 259.21733 
L 246.27456 257.312449 
L 246.45312 257.312449 
L 246.63168 255.407569 
L 246.81024 255.407569 
L 246.9888 251.597808 
L 247.16736 251.597808 
L 247.52448 247.788047 
L 247.70304 247.788047 
L 247.8816 245.883167 
L 248.06016 245.883167 
L 248.23872 243.978286 
L 248.41728 243.978286 
L 248.59584 242.073406 
L 248.7744 242.073406 
L 248.95296 240.168525 
L 249.48864 240.168525 
L 249.6672 238.263645 
L 250.20288 238.263645 
L 250.56 234.453884 
L 250.73856 234.453884 
L 250.91712 232.549003 
L 251.09568 232.549003 
L 251.4528 228.739242 
L 251.63136 228.739242 
L 251.80992 226.834362 
L 251.98848 226.834362 
L 252.16704 224.929481 
L 252.52416 224.929481 
L 252.70272 223.024601 
L 252.88128 223.024601 
L 253.05984 221.11972 
L 253.95264 221.11972 
L 254.1312 219.21484 
L 254.30976 219.21484 
L 254.66688 215.405079 
L 254.84544 215.405079 
L 255.55968 207.785557 
L 255.73824 207.785557 
L 255.9168 205.880676 
L 256.09536 202.070916 
L 256.27392 202.070916 
L 256.45248 203.975796 
L 256.63104 203.975796 
L 256.8096 202.070916 
L 257.88096 202.070916 
L 258.05952 200.166035 
L 258.23808 200.166035 
L 258.41664 198.261155 
L 260.20224 198.261155 
L 260.3808 196.356274 
L 260.55936 192.546513 
L 260.73792 192.546513 
L 260.91648 190.641633 
L 261.09504 190.641633 
L 261.2736 188.736752 
L 263.0592 188.736752 
L 263.23776 186.831872 
L 265.02336 186.831872 
L 265.20192 184.926991 
L 265.38048 184.926991 
L 265.55904 186.831872 
L 265.7376 186.831872 
L 265.91616 184.926991 
L 266.27328 184.926991 
L 266.45184 186.831872 
L 266.6304 186.831872 
L 266.80896 183.022111 
L 267.34464 183.022111 
L 267.5232 184.926991 
L 268.95168 184.926991 
L 269.13024 183.022111 
L 270.38016 183.022111 
L 270.55872 184.926991 
L 270.73728 183.022111 
L 270.91584 183.022111 
L 271.0944 184.926991 
L 271.63008 184.926991 
L 271.80864 183.022111 
L 273.23712 183.022111 
L 273.41568 181.11723 
L 273.95136 181.11723 
L 274.12992 183.022111 
L 275.91552 183.022111 
L 276.09408 181.11723 
L 276.62976 181.11723 
L 276.80832 183.022111 
L 277.52256 183.022111 
L 277.70112 181.11723 
L 278.2368 181.11723 
L 278.41536 183.022111 
L 278.59392 183.022111 
L 278.77248 181.11723 
L 278.95104 181.11723 
L 279.1296 183.022111 
L 280.9152 183.022111 
L 281.09376 181.11723 
L 281.27232 181.11723 
L 281.45088 183.022111 
L 283.23648 183.022111 
L 283.41504 184.926991 
L 283.95072 184.926991 
L 284.12928 181.11723 
L 284.30784 181.11723 
L 284.4864 183.022111 
L 285.55776 183.022111 
L 285.73632 184.926991 
L 286.09344 184.926991 
L 286.272 183.022111 
L 286.45056 184.926991 
L 288.23616 184.926991 
L 288.41472 186.831872 
L 288.59328 186.831872 
L 288.77184 188.736752 
L 290.55744 188.736752 
L 290.736 190.641633 
L 291.80736 190.641633 
L 291.98592 192.546513 
L 292.34304 192.546513 
L 292.5216 190.641633 
L 292.70016 190.641633 
L 292.87872 192.546513 
L 293.59296 192.546513 
L 293.77152 190.641633 
L 293.95008 190.641633 
L 294.12864 192.546513 
L 294.66432 192.546513 
L 294.84288 194.451394 
L 295.91424 194.451394 
L 296.0928 196.356274 
L 296.62848 196.356274 
L 296.80704 198.261155 
L 296.9856 198.261155 
L 297.16416 202.070916 
L 297.52128 202.070916 
L 297.69984 211.595318 
L 297.8784 211.595318 
L 298.05696 217.309959 
L 298.23552 217.309959 
L 298.59264 228.739242 
L 298.7712 228.739242 
L 298.94976 234.453884 
L 299.30688 234.453884 
L 299.48544 242.073406 
L 299.664 242.073406 
L 299.84256 247.788047 
L 300.37824 247.788047 
L 300.5568 255.407569 
L 300.91392 255.407569 
L 301.27104 268.741732 
L 301.4496 268.741732 
L 301.62816 272.551493 
L 301.80672 272.551493 
L 301.98528 278.266135 
L 302.3424 278.266135 
L 302.69952 287.790537 
L 302.87808 287.790537 
L 303.05664 293.505179 
L 303.41376 293.505179 
L 303.59232 299.21982 
L 303.77088 299.21982 
L 303.94944 303.029581 
L 304.30656 303.029581 
L 304.48512 308.744222 
L 304.66368 308.744222 
L 304.84224 312.553983 
L 305.0208 312.553983 
L 305.19936 316.363744 
L 305.55648 316.363744 
L 305.73504 320.173505 
L 305.9136 320.173505 
L 306.09216 325.888147 
L 306.27072 325.888147 
L 306.44928 329.697908 
L 306.62784 329.697908 
L 306.8064 333.507669 
L 306.98496 333.507669 
L 307.16352 337.31743 
L 307.34208 337.31743 
L 307.52064 341.127191 
L 307.87776 341.127191 
L 308.05632 343.032071 
L 308.23488 343.032071 
L 308.41344 346.841832 
L 308.592 346.841832 
L 308.77056 350.651593 
L 308.94912 350.651593 
L 309.12768 354.461354 
L 309.30624 354.461354 
L 309.4848 358.271115 
L 309.66336 358.271115 
L 309.84192 360.175995 
L 310.02048 360.175995 
L 310.19904 363.985756 
L 310.3776 363.985756 
L 310.55616 365.890637 
L 310.73472 365.890637 
L 310.91328 369.700398 
L 311.09184 369.700398 
L 311.2704 373.510159 
L 311.44896 373.510159 
L 311.62752 375.415039 
L 311.98464 375.415039 
L 312.1632 377.31992 
L 312.34176 381.129681 
L 312.52032 381.129681 
L 312.69888 383.034561 
L 313.056 383.034561 
L 313.23456 384.939442 
L 313.41312 384.939442 
L 313.59168 386.844322 
L 313.9488 386.844322 
L 314.12736 388.8 
L 379.65888 388.8 
L 379.83744 386.844322 
L 380.016 386.844322 
L 380.19456 383.034561 
L 380.37312 383.034561 
L 380.55168 377.31992 
L 380.73024 377.31992 
L 380.9088 371.605278 
L 381.26592 371.605278 
L 381.62304 362.080876 
L 381.8016 362.080876 
L 381.98016 356.366234 
L 382.15872 356.366234 
L 382.33728 350.651593 
L 382.51584 350.651593 
L 382.6944 346.841832 
L 382.87296 346.841832 
L 383.05152 343.032071 
L 383.23008 343.032071 
L 383.40864 337.31743 
L 383.5872 337.31743 
L 383.76576 333.507669 
L 383.94432 333.507669 
L 384.12288 329.697908 
L 384.30144 329.697908 
L 384.48 325.888147 
L 384.65856 325.888147 
L 384.83712 322.078386 
L 385.01568 322.078386 
L 385.19424 318.268625 
L 385.3728 318.268625 
L 385.55136 314.458864 
L 385.72992 314.458864 
L 385.90848 310.649103 
L 386.08704 310.649103 
L 386.2656 308.744222 
L 386.44416 308.744222 
L 386.62272 303.029581 
L 386.80128 303.029581 
L 386.97984 301.1247 
L 387.1584 301.1247 
L 387.33696 297.31494 
L 387.51552 297.31494 
L 387.69408 295.410059 
L 387.87264 295.410059 
L 388.0512 291.600298 
L 388.22976 291.600298 
L 388.40832 287.790537 
L 388.58688 287.790537 
L 388.76544 285.885657 
L 388.944 285.885657 
L 389.12256 282.075896 
L 389.30112 282.075896 
L 389.47968 280.171015 
L 389.65824 280.171015 
L 389.8368 276.361254 
L 390.01536 276.361254 
L 390.19392 274.456374 
L 390.37248 274.456374 
L 390.55104 270.646613 
L 390.7296 270.646613 
L 390.90816 268.741732 
L 391.08672 268.741732 
L 391.26528 266.836852 
L 391.44384 266.836852 
L 391.6224 264.931971 
L 391.80096 264.931971 
L 391.97952 263.027091 
L 392.15808 263.027091 
L 392.33664 261.12221 
L 392.5152 261.12221 
L 392.69376 257.312449 
L 392.87232 257.312449 
L 393.22944 253.502688 
L 393.76512 243.978286 
L 393.94368 243.978286 
L 394.12224 242.073406 
L 394.3008 242.073406 
L 394.47936 240.168525 
L 394.65792 240.168525 
L 394.83648 238.263645 
L 395.01504 238.263645 
L 395.37216 234.453884 
L 395.55072 234.453884 
L 395.72928 232.549003 
L 395.90784 232.549003 
L 396.0864 230.644123 
L 396.26496 230.644123 
L 396.62208 226.834362 
L 396.80064 226.834362 
L 396.9792 224.929481 
L 397.33632 224.929481 
L 397.51488 221.11972 
L 397.872 221.11972 
L 398.05056 219.21484 
L 398.40768 219.21484 
L 398.58624 217.309959 
L 399.12192 217.309959 
L 399.30048 215.405079 
L 400.19328 215.405079 
L 400.37184 213.500198 
L 400.90752 213.500198 
L 401.08608 211.595318 
L 401.62176 211.595318 
L 401.80032 209.690437 
L 401.97888 209.690437 
L 402.15744 211.595318 
L 402.336 209.690437 
L 403.05024 209.690437 
L 403.2288 207.785557 
L 403.76448 207.785557 
L 403.94304 205.880676 
L 405.19296 205.880676 
L 405.37152 203.975796 
L 405.9072 203.975796 
L 406.08576 202.070916 
L 406.26432 202.070916 
L 406.44288 203.975796 
L 406.62144 203.975796 
L 406.8 202.070916 
L 408.04992 202.070916 
L 408.22848 200.166035 
L 408.94272 200.166035 
L 409.12128 202.070916 
L 409.4784 202.070916 
L 409.65696 198.261155 
L 409.83552 198.261155 
L 410.01408 200.166035 
L 410.19264 200.166035 
L 410.3712 198.261155 
L 411.62112 198.261155 
L 411.79968 196.356274 
L 413.22816 196.356274 
L 413.40672 198.261155 
L 413.76384 198.261155 
L 413.9424 196.356274 
L 414.29952 196.356274 
L 414.47808 198.261155 
L 414.65664 198.261155 
L 414.8352 196.356274 
L 415.01376 196.356274 
L 415.19232 198.261155 
L 415.37088 198.261155 
L 415.54944 196.356274 
L 416.79936 196.356274 
L 416.97792 198.261155 
L 417.5136 198.261155 
L 417.87072 192.546513 
L 418.04928 190.641633 
L 418.76352 190.641633 
L 418.94208 188.736752 
L 419.2992 188.736752 
L 419.47776 186.831872 
L 419.65632 186.831872 
L 419.83488 184.926991 
L 420.01344 184.926991 
L 420.192 188.736752 
L 421.9776 188.736752 
L 422.15616 186.831872 
L 422.33472 186.831872 
L 422.51328 188.736752 
L 422.69184 188.736752 
L 422.8704 186.831872 
L 423.04896 186.831872 
L 423.22752 190.641633 
L 423.40608 188.736752 
L 423.58464 188.736752 
L 423.7632 184.926991 
L 423.94176 184.926991 
L 424.12032 186.831872 
L 425.5488 186.831872 
L 425.72736 184.926991 
L 429.47712 184.926991 
L 429.65568 186.831872 
L 429.83424 186.831872 
L 430.0128 184.926991 
L 430.19136 184.926991 
L 430.36992 186.831872 
L 430.54848 186.831872 
L 430.72704 184.926991 
L 430.9056 184.926991 
L 431.08416 186.831872 
L 431.26272 186.831872 
L 431.44128 184.926991 
L 431.61984 184.926991 
L 431.7984 188.736752 
L 437.86944 188.736752 
L 438.048 190.641633 
L 438.22656 190.641633 
L 438.40512 188.736752 
L 438.9408 188.736752 
L 439.11936 194.451394 
L 439.29792 194.451394 
L 439.65504 203.975796 
L 440.19072 203.975796 
L 440.36928 209.690437 
L 440.54784 209.690437 
L 440.7264 217.309959 
L 440.90496 217.309959 
L 441.08352 223.024601 
L 441.26208 223.024601 
L 441.44064 228.739242 
L 441.6192 228.739242 
L 441.79776 234.453884 
L 441.97632 234.453884 
L 442.15488 240.168525 
L 442.33344 240.168525 
L 442.512 245.883167 
L 442.69056 245.883167 
L 442.86912 251.597808 
L 443.04768 251.597808 
L 443.22624 259.21733 
L 443.4048 259.21733 
L 443.58336 263.027091 
L 443.76192 263.027091 
L 443.94048 268.741732 
L 444.11904 268.741732 
L 444.2976 274.456374 
L 444.65472 274.456374 
L 444.83328 280.171015 
L 445.01184 280.171015 
L 445.1904 283.980776 
L 445.36896 283.980776 
L 445.54752 289.695418 
L 445.72608 289.695418 
L 446.0832 297.31494 
L 446.26176 297.31494 
L 446.44032 303.029581 
L 446.61888 303.029581 
L 446.976 310.649103 
L 447.15456 310.649103 
L 447.33312 314.458864 
L 447.51168 314.458864 
L 447.69024 320.173505 
L 447.8688 320.173505 
L 448.04736 323.983266 
L 448.22592 323.983266 
L 448.58304 329.697908 
L 449.47584 329.697908 
L 449.6544 331.602788 
L 449.83296 331.602788 
L 450.01152 335.412549 
L 450.19008 335.412549 
L 450.36864 339.22231 
L 450.5472 339.22231 
L 450.72576 343.032071 
L 450.90432 343.032071 
L 451.08288 346.841832 
L 451.26144 346.841832 
L 451.44 348.746712 
L 451.79712 348.746712 
L 451.97568 352.556473 
L 452.15424 352.556473 
L 452.3328 356.366234 
L 452.51136 356.366234 
L 452.68992 358.271115 
L 453.04704 358.271115 
L 453.2256 362.080876 
L 453.40416 362.080876 
L 453.58272 365.890637 
L 453.76128 365.890637 
L 453.93984 367.795517 
L 454.29696 367.795517 
L 454.47552 369.700398 
L 454.65408 369.700398 
L 454.83264 373.510159 
L 455.18976 373.510159 
L 455.36832 375.415039 
L 455.54688 375.415039 
L 455.72544 377.31992 
L 455.904 377.31992 
L 456.08256 381.129681 
L 456.7968 381.129681 
L 456.97536 384.939442 
L 457.33248 384.939442 
L 457.51104 386.844322 
L 457.6896 386.844322 
L 457.86816 388.8 
L 518.4 388.8 
L 518.4 388.8 
" style="fill:none;stroke:#008000;stroke-linecap:square;"/>
   </g>
   <g id="line2d_2">
    <path clip-path="url(#p0de0482742)" d="M 72.17856 388.8 
L 213.9552 388.8 
L 214.13376 351.300019 
L 214.31232 351.300019 
L 214.49088 313.800038 
L 214.66944 313.800038 
L 214.848 276.300058 
L 215.02656 276.300058 
L 215.20512 238.800077 
L 215.38368 238.800077 
L 215.56224 201.300096 
L 215.7408 201.300096 
L 215.91936 163.800115 
L 216.09792 163.800115 
L 216.27648 126.300134 
L 216.45504 126.300134 
L 216.6336 96.30015 
L 221.0976 96.30015 
L 221.27616 103.800146 
L 221.81184 103.800146 
L 221.9904 111.300142 
L 222.52608 111.300142 
L 222.70464 118.800138 
L 223.24032 118.800138 
L 223.41888 126.300134 
L 224.31168 126.300134 
L 224.49024 133.800131 
L 225.02592 133.800131 
L 225.20448 141.300127 
L 226.09728 141.300127 
L 226.27584 148.800123 
L 226.81152 148.800123 
L 226.99008 156.300119 
L 227.16864 156.300119 
L 227.3472 163.800115 
L 227.70432 163.800115 
L 227.88288 171.300111 
L 228.06144 171.300111 
L 228.24 178.800108 
L 228.41856 178.800108 
L 228.59712 186.300104 
L 229.1328 186.300104 
L 229.31136 201.300096 
L 229.48992 201.300096 
L 229.66848 208.800092 
L 230.38272 208.800092 
L 230.56128 216.300088 
L 230.73984 216.300088 
L 230.9184 223.800084 
L 231.09696 223.800084 
L 231.27552 231.300081 
L 231.45408 231.300081 
L 231.63264 238.800077 
L 231.8112 238.800077 
L 231.98976 246.300073 
L 232.16832 246.300073 
L 232.34688 253.800069 
L 232.52544 253.800069 
L 232.704 388.8 
L 342.87552 388.8 
L 343.05408 351.300019 
L 343.23264 351.300019 
L 343.4112 313.800038 
L 343.58976 313.800038 
L 343.76832 276.300058 
L 343.94688 276.300058 
L 344.12544 238.800077 
L 344.304 238.800077 
L 344.48256 201.300096 
L 344.66112 201.300096 
L 344.83968 163.800115 
L 345.01824 163.800115 
L 345.1968 126.300134 
L 345.37536 126.300134 
L 345.55392 103.800146 
L 349.6608 103.800146 
L 349.83936 96.30015 
L 352.51776 96.30015 
L 352.69632 88.800154 
L 356.8032 88.800154 
L 356.98176 81.300157 
L 359.66016 81.300157 
L 359.83872 73.800161 
L 367.5168 73.800161 
L 367.69536 81.300157 
L 368.23104 81.300157 
L 368.4096 88.800154 
L 368.94528 88.800154 
L 369.12384 96.30015 
L 369.65952 96.30015 
L 369.83808 103.800146 
L 370.37376 103.800146 
L 370.55232 111.300142 
L 371.088 111.300142 
L 371.26656 118.800138 
L 371.80224 118.800138 
L 371.9808 126.300134 
L 372.51648 126.300134 
L 372.69504 133.800131 
L 372.8736 133.800131 
L 373.05216 141.300127 
L 373.23072 141.300127 
L 373.40928 148.800123 
L 373.58784 148.800123 
L 373.7664 156.300119 
L 374.30208 156.300119 
L 374.48064 171.300111 
L 375.01632 171.300111 
L 375.19488 178.800108 
L 375.37344 178.800108 
L 375.552 186.300104 
L 375.73056 186.300104 
L 375.90912 193.8001 
L 376.08768 193.8001 
L 376.26624 201.300096 
L 376.4448 201.300096 
L 376.62336 208.800092 
L 376.80192 208.800092 
L 376.98048 216.300088 
L 377.15904 216.300088 
L 377.3376 223.800084 
L 377.51616 223.800084 
L 377.69472 231.300081 
L 377.87328 231.300081 
L 378.05184 238.800077 
L 378.58752 238.800077 
L 378.76608 246.300073 
L 378.94464 246.300073 
L 379.1232 253.800069 
L 379.30176 253.800069 
L 379.48032 388.8 
L 485.3664 388.8 
L 485.54496 373.800008 
L 485.72352 373.800008 
L 485.90208 336.300027 
L 486.08064 336.300027 
L 486.2592 298.800046 
L 486.43776 298.800046 
L 486.61632 261.300065 
L 486.79488 261.300065 
L 486.97344 216.300088 
L 487.152 216.300088 
L 487.33056 178.800108 
L 487.50912 178.800108 
L 487.68768 141.300127 
L 487.86624 141.300127 
L 488.0448 111.300142 
L 489.29472 111.300142 
L 489.47328 103.800146 
L 491.79456 103.800146 
L 491.97312 96.30015 
L 495.36576 96.30015 
L 495.54432 88.800154 
L 500.36544 88.800154 
L 500.544 81.300157 
L 507.15072 81.300157 
L 507.32928 73.800161 
L 515.7216 73.800161 
L 515.90016 81.300157 
L 516.79296 81.300157 
L 516.97152 88.800154 
L 517.5072 88.800154 
L 517.68576 96.30015 
L 518.22144 96.30015 
L 518.4 103.800146 
L 518.4 103.800146 
" style="fill:none;stroke:#ff0000;stroke-linecap:square;"/>
   </g>
   <g id="patch_3">
    <path d="M 72 43.2 
L 518.4 43.2 
" style="fill:none;stroke:#000000;stroke-linecap:square;stroke-linejoin:miter;"/>
   </g>
   <g id="patch_4">
    <path d="M 518.4 388.8 
L 518.4 43.2 
" style="fill:none;stroke:#000000;stroke-linecap:square;stroke-linejoin:miter;"/>
   </g>
   <g id="patch_5">
    <path d="M 72 388.8 
L 518.4 388.8 
" style="fill:none;stroke:#000000;stroke-linecap:square;stroke-linejoin:miter;"/>
   </g>
   <g id="patch_6">
    <path d="M 72 388.8 
L 72 43.2 
" style="fill:none;stroke:#000000;stroke-linecap:square;stroke-linejoin:miter;"/>
   </g>
   <g id="matplotlib.axis_1">
    <g id="xtick_1">
     <g id="line2d_3">
      <path clip-path="url(#p0de0482742)" d="M 72 388.8 
L 72 43.2 
" style="fill:none;stroke:#000000;stroke-dasharray:1.000000,3.000000;stroke-dashoffset:0.0;stroke-width:0.5;"/>
     </g>
     <g id="line2d_4">
      <defs>
       <path d="M 0 0 
L 0 -4 
" id="me0e466eb42" style="stroke:#000000;stroke-width:0.5;"/>
      </defs>
      <g>
       <use style="stroke:#000000;stroke-width:0.5;" x="72.0" xlink:href="#me0e466eb42" y="388.8"/>
      </g>
     </g>
     <g id="line2d_5">
      <defs>
       <path d="M 0 0 
L 0 4 
" id="m634870bf85" style="stroke:#000000;stroke-width:0.5;"/>
      </defs>
      <g>
       <use style="stroke:#000000;stroke-width:0.5;" x="72.0" xlink:href="#m634870bf85" y="43.2"/>
      </g>
     </g>
     <g id="text_1">
      <!-- 0 -->
      <defs>
       <path d="M 31.78125 66.40625 
Q 24.171875 66.40625 20.328125 58.90625 
Q 16.5 51.421875 16.5 36.375 
Q 16.5 21.390625 20.328125 13.890625 
Q 24.171875 6.390625 31.78125 6.390625 
Q 39.453125 6.390625 43.28125 13.890625 
Q 47.125 21.390625 47.125 36.375 
Q 47.125 51.421875 43.28125 58.90625 
Q 39.453125 66.40625 31.78125 66.40625 
M 31.78125 74.21875 
Q 44.046875 74.21875 50.515625 64.515625 
Q 56.984375 54.828125 56.984375 36.375 
Q 56.984375 17.96875 50.515625 8.265625 
Q 44.046875 -1.421875 31.78125 -1.421875 
Q 19.53125 -1.421875 13.0625 8.265625 
Q 6.59375 17.96875 6.59375 36.375 
Q 6.59375 54.828125 13.0625 64.515625 
Q 19.53125 74.21875 31.78125 74.21875 
" id="BitstreamVeraSans-Roman-30"/>
      </defs>
      <g transform="translate(68.1825 401.918125)scale(0.12 -0.12)">
       <use xlink:href="#BitstreamVeraSans-Roman-30"/>
      </g>
     </g>
    </g>
    <g id="xtick_2">
     <g id="line2d_6">
      <path clip-path="url(#p0de0482742)" d="M 161.28 388.8 
L 161.28 43.2 
" style="fill:none;stroke:#000000;stroke-dasharray:1.000000,3.000000;stroke-dashoffset:0.0;stroke-width:0.5;"/>
     </g>
     <g id="line2d_7">
      <g>
       <use style="stroke:#000000;stroke-width:0.5;" x="161.28" xlink:href="#me0e466eb42" y="388.8"/>
      </g>
     </g>
     <g id="line2d_8">
      <g>
       <use style="stroke:#000000;stroke-width:0.5;" x="161.28" xlink:href="#m634870bf85" y="43.2"/>
      </g>
     </g>
     <g id="text_2">
      <!-- 5 -->
      <defs>
       <path d="M 10.796875 72.90625 
L 49.515625 72.90625 
L 49.515625 64.59375 
L 19.828125 64.59375 
L 19.828125 46.734375 
Q 21.96875 47.46875 24.109375 47.828125 
Q 26.265625 48.1875 28.421875 48.1875 
Q 40.625 48.1875 47.75 41.5 
Q 54.890625 34.8125 54.890625 23.390625 
Q 54.890625 11.625 47.5625 5.09375 
Q 40.234375 -1.421875 26.90625 -1.421875 
Q 22.3125 -1.421875 17.546875 -0.640625 
Q 12.796875 0.140625 7.71875 1.703125 
L 7.71875 11.625 
Q 12.109375 9.234375 16.796875 8.0625 
Q 21.484375 6.890625 26.703125 6.890625 
Q 35.15625 6.890625 40.078125 11.328125 
Q 45.015625 15.765625 45.015625 23.390625 
Q 45.015625 31 40.078125 35.4375 
Q 35.15625 39.890625 26.703125 39.890625 
Q 22.75 39.890625 18.8125 39.015625 
Q 14.890625 38.140625 10.796875 36.28125 
z
" id="BitstreamVeraSans-Roman-35"/>
      </defs>
      <g transform="translate(157.4625 401.918125)scale(0.12 -0.12)">
       <use xlink:href="#BitstreamVeraSans-Roman-35"/>
      </g>
     </g>
    </g>
    <g id="xtick_3">
     <g id="line2d_9">
      <path clip-path="url(#p0de0482742)" d="M 250.56 388.8 
L 250.56 43.2 
" style="fill:none;stroke:#000000;stroke-dasharray:1.000000,3.000000;stroke-dashoffset:0.0;stroke-width:0.5;"/>
     </g>
     <g id="line2d_10">
      <g>
       <use style="stroke:#000000;stroke-width:0.5;" x="250.56" xlink:href="#me0e466eb42" y="388.8"/>
      </g>
     </g>
     <g id="line2d_11">
      <g>
       <use style="stroke:#000000;stroke-width:0.5;" x="250.56" xlink:href="#m634870bf85" y="43.2"/>
      </g>
     </g>
     <g id="text_3">
      <!-- 10 -->
      <defs>
       <path d="M 12.40625 8.296875 
L 28.515625 8.296875 
L 28.515625 63.921875 
L 10.984375 60.40625 
L 10.984375 69.390625 
L 28.421875 72.90625 
L 38.28125 72.90625 
L 38.28125 8.296875 
L 54.390625 8.296875 
L 54.390625 0 
L 12.40625 0 
z
" id="BitstreamVeraSans-Roman-31"/>
      </defs>
      <g transform="translate(242.925 401.918125)scale(0.12 -0.12)">
       <use xlink:href="#BitstreamVeraSans-Roman-31"/>
       <use x="63.623046875" xlink:href="#BitstreamVeraSans-Roman-30"/>
      </g>
     </g>
    </g>
    <g id="xtick_4">
     <g id="line2d_12">
      <path clip-path="url(#p0de0482742)" d="M 339.84 388.8 
L 339.84 43.2 
" style="fill:none;stroke:#000000;stroke-dasharray:1.000000,3.000000;stroke-dashoffset:0.0;stroke-width:0.5;"/>
     </g>
     <g id="line2d_13">
      <g>
       <use style="stroke:#000000;stroke-width:0.5;" x="339.84" xlink:href="#me0e466eb42" y="388.8"/>
      </g>
     </g>
     <g id="line2d_14">
      <g>
       <use style="stroke:#000000;stroke-width:0.5;" x="339.84" xlink:href="#m634870bf85" y="43.2"/>
      </g>
     </g>
     <g id="text_4">
      <!-- 15 -->
      <g transform="translate(332.205 401.918125)scale(0.12 -0.12)">
       <use xlink:href="#BitstreamVeraSans-Roman-31"/>
       <use x="63.623046875" xlink:href="#BitstreamVeraSans-Roman-35"/>
      </g>
     </g>
    </g>
    <g id="xtick_5">
     <g id="line2d_15">
      <path clip-path="url(#p0de0482742)" d="M 429.12 388.8 
L 429.12 43.2 
" style="fill:none;stroke:#000000;stroke-dasharray:1.000000,3.000000;stroke-dashoffset:0.0;stroke-width:0.5;"/>
     </g>
     <g id="line2d_16">
      <g>
       <use style="stroke:#000000;stroke-width:0.5;" x="429.12" xlink:href="#me0e466eb42" y="388.8"/>
      </g>
     </g>
     <g id="line2d_17">
      <g>
       <use style="stroke:#000000;stroke-width:0.5;" x="429.12" xlink:href="#m634870bf85" y="43.2"/>
      </g>
     </g>
     <g id="text_5">
      <!-- 20 -->
      <defs>
       <path d="M 19.1875 8.296875 
L 53.609375 8.296875 
L 53.609375 0 
L 7.328125 0 
L 7.328125 8.296875 
Q 12.9375 14.109375 22.625 23.890625 
Q 32.328125 33.6875 34.8125 36.53125 
Q 39.546875 41.84375 41.421875 45.53125 
Q 43.3125 49.21875 43.3125 52.78125 
Q 43.3125 58.59375 39.234375 62.25 
Q 35.15625 65.921875 28.609375 65.921875 
Q 23.96875 65.921875 18.8125 64.3125 
Q 13.671875 62.703125 7.8125 59.421875 
L 7.8125 69.390625 
Q 13.765625 71.78125 18.9375 73 
Q 24.125 74.21875 28.421875 74.21875 
Q 39.75 74.21875 46.484375 68.546875 
Q 53.21875 62.890625 53.21875 53.421875 
Q 53.21875 48.921875 51.53125 44.890625 
Q 49.859375 40.875 45.40625 35.40625 
Q 44.1875 33.984375 37.640625 27.21875 
Q 31.109375 20.453125 19.1875 8.296875 
" id="BitstreamVeraSans-Roman-32"/>
      </defs>
      <g transform="translate(421.485 401.918125)scale(0.12 -0.12)">
       <use xlink:href="#BitstreamVeraSans-Roman-32"/>
       <use x="63.623046875" xlink:href="#BitstreamVeraSans-Roman-30"/>
      </g>
     </g>
    </g>
    <g id="xtick_6">
     <g id="line2d_18">
      <path clip-path="url(#p0de0482742)" d="M 518.4 388.8 
L 518.4 43.2 
" style="fill:none;stroke:#000000;stroke-dasharray:1.000000,3.000000;stroke-dashoffset:0.0;stroke-width:0.5;"/>
     </g>
     <g id="line2d_19">
      <g>
       <use style="stroke:#000000;stroke-width:0.5;" x="518.4" xlink:href="#me0e466eb42" y="388.8"/>
      </g>
     </g>
     <g id="line2d_20">
      <g>
       <use style="stroke:#000000;stroke-width:0.5;" x="518.4" xlink:href="#m634870bf85" y="43.2"/>
      </g>
     </g>
     <g id="text_6">
      <!-- 25 -->
      <g transform="translate(510.765 401.918125)scale(0.12 -0.12)">
       <use xlink:href="#BitstreamVeraSans-Roman-32"/>
       <use x="63.623046875" xlink:href="#BitstreamVeraSans-Roman-35"/>
      </g>
     </g>
    </g>
    <g id="text_7">
     <!-- Time [s] -->
     <defs>
      <path id="BitstreamVeraSans-Roman-20"/>
      <path d="M 8.59375 75.984375 
L 29.296875 75.984375 
L 29.296875 69 
L 17.578125 69 
L 17.578125 -6.203125 
L 29.296875 -6.203125 
L 29.296875 -13.1875 
L 8.59375 -13.1875 
z
" id="BitstreamVeraSans-Roman-5b"/>
      <path d="M 30.421875 75.984375 
L 30.421875 -13.1875 
L 9.71875 -13.1875 
L 9.71875 -6.203125 
L 21.390625 -6.203125 
L 21.390625 69 
L 9.71875 69 
L 9.71875 75.984375 
z
" id="BitstreamVeraSans-Roman-5d"/>
      <path d="M 52 44.1875 
Q 55.375 50.25 60.0625 53.125 
Q 64.75 56 71.09375 56 
Q 79.640625 56 84.28125 50.015625 
Q 88.921875 44.046875 88.921875 33.015625 
L 88.921875 0 
L 79.890625 0 
L 79.890625 32.71875 
Q 79.890625 40.578125 77.09375 44.375 
Q 74.3125 48.1875 68.609375 48.1875 
Q 61.625 48.1875 57.5625 43.546875 
Q 53.515625 38.921875 53.515625 30.90625 
L 53.515625 0 
L 44.484375 0 
L 44.484375 32.71875 
Q 44.484375 40.625 41.703125 44.40625 
Q 38.921875 48.1875 33.109375 48.1875 
Q 26.21875 48.1875 22.15625 43.53125 
Q 18.109375 38.875 18.109375 30.90625 
L 18.109375 0 
L 9.078125 0 
L 9.078125 54.6875 
L 18.109375 54.6875 
L 18.109375 46.1875 
Q 21.1875 51.21875 25.484375 53.609375 
Q 29.78125 56 35.6875 56 
Q 41.65625 56 45.828125 52.96875 
Q 50 49.953125 52 44.1875 
" id="BitstreamVeraSans-Roman-6d"/>
      <path d="M 9.421875 54.6875 
L 18.40625 54.6875 
L 18.40625 0 
L 9.421875 0 
z
M 9.421875 75.984375 
L 18.40625 75.984375 
L 18.40625 64.59375 
L 9.421875 64.59375 
z
" id="BitstreamVeraSans-Roman-69"/>
      <path d="M 56.203125 29.59375 
L 56.203125 25.203125 
L 14.890625 25.203125 
Q 15.484375 15.921875 20.484375 11.0625 
Q 25.484375 6.203125 34.421875 6.203125 
Q 39.59375 6.203125 44.453125 7.46875 
Q 49.3125 8.734375 54.109375 11.28125 
L 54.109375 2.78125 
Q 49.265625 0.734375 44.1875 -0.34375 
Q 39.109375 -1.421875 33.890625 -1.421875 
Q 20.796875 -1.421875 13.15625 6.1875 
Q 5.515625 13.8125 5.515625 26.8125 
Q 5.515625 40.234375 12.765625 48.109375 
Q 20.015625 56 32.328125 56 
Q 43.359375 56 49.78125 48.890625 
Q 56.203125 41.796875 56.203125 29.59375 
M 47.21875 32.234375 
Q 47.125 39.59375 43.09375 43.984375 
Q 39.0625 48.390625 32.421875 48.390625 
Q 24.90625 48.390625 20.390625 44.140625 
Q 15.875 39.890625 15.1875 32.171875 
z
" id="BitstreamVeraSans-Roman-65"/>
      <path d="M -0.296875 72.90625 
L 61.375 72.90625 
L 61.375 64.59375 
L 35.5 64.59375 
L 35.5 0 
L 25.59375 0 
L 25.59375 64.59375 
L -0.296875 64.59375 
z
" id="BitstreamVeraSans-Roman-54"/>
      <path d="M 44.28125 53.078125 
L 44.28125 44.578125 
Q 40.484375 46.53125 36.375 47.5 
Q 32.28125 48.484375 27.875 48.484375 
Q 21.1875 48.484375 17.84375 46.4375 
Q 14.5 44.390625 14.5 40.28125 
Q 14.5 37.15625 16.890625 35.375 
Q 19.28125 33.59375 26.515625 31.984375 
L 29.59375 31.296875 
Q 39.15625 29.25 43.1875 25.515625 
Q 47.21875 21.78125 47.21875 15.09375 
Q 47.21875 7.46875 41.1875 3.015625 
Q 35.15625 -1.421875 24.609375 -1.421875 
Q 20.21875 -1.421875 15.453125 -0.5625 
Q 10.6875 0.296875 5.421875 2 
L 5.421875 11.28125 
Q 10.40625 8.6875 15.234375 7.390625 
Q 20.0625 6.109375 24.8125 6.109375 
Q 31.15625 6.109375 34.5625 8.28125 
Q 37.984375 10.453125 37.984375 14.40625 
Q 37.984375 18.0625 35.515625 20.015625 
Q 33.0625 21.96875 24.703125 23.78125 
L 21.578125 24.515625 
Q 13.234375 26.265625 9.515625 29.90625 
Q 5.8125 33.546875 5.8125 39.890625 
Q 5.8125 47.609375 11.28125 51.796875 
Q 16.75 56 26.8125 56 
Q 31.78125 56 36.171875 55.265625 
Q 40.578125 54.546875 44.28125 53.078125 
" id="BitstreamVeraSans-Roman-73"/>
     </defs>
     <g transform="translate(270.620625 418.531875)scale(0.12 -0.12)">
      <use xlink:href="#BitstreamVeraSans-Roman-54"/>
      <use x="61.037109375" xlink:href="#BitstreamVeraSans-Roman-69"/>
      <use x="88.8203125" xlink:href="#BitstreamVeraSans-Roman-6d"/>
      <use x="186.232421875" xlink:href="#BitstreamVeraSans-Roman-65"/>
      <use x="247.755859375" xlink:href="#BitstreamVeraSans-Roman-20"/>
      <use x="279.54296875" xlink:href="#BitstreamVeraSans-Roman-5b"/>
      <use x="318.556640625" xlink:href="#BitstreamVeraSans-Roman-73"/>
      <use x="370.65625" xlink:href="#BitstreamVeraSans-Roman-5d"/>
     </g>
    </g>
   </g>
   <g id="matplotlib.axis_2">
    <g id="ytick_1">
     <g id="line2d_21">
      <path clip-path="url(#p0de0482742)" d="M 72 388.8 
L 518.4 388.8 
" style="fill:none;stroke:#000000;stroke-dasharray:1.000000,3.000000;stroke-dashoffset:0.0;stroke-width:0.5;"/>
     </g>
     <g id="line2d_22">
      <defs>
       <path d="M 0 0 
L 4 0 
" id="mccce6657de" style="stroke:#000000;stroke-width:0.5;"/>
      </defs>
      <g>
       <use style="stroke:#000000;stroke-width:0.5;" x="72.0" xlink:href="#mccce6657de" y="388.8"/>
      </g>
     </g>
     <g id="line2d_23">
      <defs>
       <path d="M 0 0 
L -4 0 
" id="m67245b3ba4" style="stroke:#000000;stroke-width:0.5;"/>
      </defs>
      <g>
       <use style="stroke:#000000;stroke-width:0.5;" x="518.4" xlink:href="#m67245b3ba4" y="388.8"/>
      </g>
     </g>
     <g id="text_8">
      <!-- 0.00 -->
      <defs>
       <path d="M 10.6875 12.40625 
L 21 12.40625 
L 21 0 
L 10.6875 0 
z
" id="BitstreamVeraSans-Roman-2e"/>
      </defs>
      <g transform="translate(41.28125 392.11125)scale(0.12 -0.12)">
       <use xlink:href="#BitstreamVeraSans-Roman-30"/>
       <use x="63.623046875" xlink:href="#BitstreamVeraSans-Roman-2e"/>
       <use x="95.41015625" xlink:href="#BitstreamVeraSans-Roman-30"/>
       <use x="159.033203125" xlink:href="#BitstreamVeraSans-Roman-30"/>
      </g>
     </g>
    </g>
    <g id="ytick_2">
     <g id="line2d_24">
      <path clip-path="url(#p0de0482742)" d="M 72 350.4 
L 518.4 350.4 
" style="fill:none;stroke:#000000;stroke-dasharray:1.000000,3.000000;stroke-dashoffset:0.0;stroke-width:0.5;"/>
     </g>
     <g id="line2d_25">
      <g>
       <use style="stroke:#000000;stroke-width:0.5;" x="72.0" xlink:href="#mccce6657de" y="350.4"/>
      </g>
     </g>
     <g id="line2d_26">
      <g>
       <use style="stroke:#000000;stroke-width:0.5;" x="518.4" xlink:href="#m67245b3ba4" y="350.4"/>
      </g>
     </g>
     <g id="text_9">
      <!-- 0.02 -->
      <g transform="translate(41.28125 353.71125)scale(0.12 -0.12)">
       <use xlink:href="#BitstreamVeraSans-Roman-30"/>
       <use x="63.623046875" xlink:href="#BitstreamVeraSans-Roman-2e"/>
       <use x="95.41015625" xlink:href="#BitstreamVeraSans-Roman-30"/>
       <use x="159.033203125" xlink:href="#BitstreamVeraSans-Roman-32"/>
      </g>
     </g>
    </g>
    <g id="ytick_3">
     <g id="line2d_27">
      <path clip-path="url(#p0de0482742)" d="M 72 312 
L 518.4 312 
" style="fill:none;stroke:#000000;stroke-dasharray:1.000000,3.000000;stroke-dashoffset:0.0;stroke-width:0.5;"/>
     </g>
     <g id="line2d_28">
      <g>
       <use style="stroke:#000000;stroke-width:0.5;" x="72.0" xlink:href="#mccce6657de" y="312.0"/>
      </g>
     </g>
     <g id="line2d_29">
      <g>
       <use style="stroke:#000000;stroke-width:0.5;" x="518.4" xlink:href="#m67245b3ba4" y="312.0"/>
      </g>
     </g>
     <g id="text_10">
      <!-- 0.04 -->
      <defs>
       <path d="M 37.796875 64.3125 
L 12.890625 25.390625 
L 37.796875 25.390625 
z
M 35.203125 72.90625 
L 47.609375 72.90625 
L 47.609375 25.390625 
L 58.015625 25.390625 
L 58.015625 17.1875 
L 47.609375 17.1875 
L 47.609375 0 
L 37.796875 0 
L 37.796875 17.1875 
L 4.890625 17.1875 
L 4.890625 26.703125 
z
" id="BitstreamVeraSans-Roman-34"/>
      </defs>
      <g transform="translate(41.28125 315.31125)scale(0.12 -0.12)">
       <use xlink:href="#BitstreamVeraSans-Roman-30"/>
       <use x="63.623046875" xlink:href="#BitstreamVeraSans-Roman-2e"/>
       <use x="95.41015625" xlink:href="#BitstreamVeraSans-Roman-30"/>
       <use x="159.033203125" xlink:href="#BitstreamVeraSans-Roman-34"/>
      </g>
     </g>
    </g>
    <g id="ytick_4">
     <g id="line2d_30">
      <path clip-path="url(#p0de0482742)" d="M 72 273.6 
L 518.4 273.6 
" style="fill:none;stroke:#000000;stroke-dasharray:1.000000,3.000000;stroke-dashoffset:0.0;stroke-width:0.5;"/>
     </g>
     <g id="line2d_31">
      <g>
       <use style="stroke:#000000;stroke-width:0.5;" x="72.0" xlink:href="#mccce6657de" y="273.6"/>
      </g>
     </g>
     <g id="line2d_32">
      <g>
       <use style="stroke:#000000;stroke-width:0.5;" x="518.4" xlink:href="#m67245b3ba4" y="273.6"/>
      </g>
     </g>
     <g id="text_11">
      <!-- 0.06 -->
      <defs>
       <path d="M 33.015625 40.375 
Q 26.375 40.375 22.484375 35.828125 
Q 18.609375 31.296875 18.609375 23.390625 
Q 18.609375 15.53125 22.484375 10.953125 
Q 26.375 6.390625 33.015625 6.390625 
Q 39.65625 6.390625 43.53125 10.953125 
Q 47.40625 15.53125 47.40625 23.390625 
Q 47.40625 31.296875 43.53125 35.828125 
Q 39.65625 40.375 33.015625 40.375 
M 52.59375 71.296875 
L 52.59375 62.3125 
Q 48.875 64.0625 45.09375 64.984375 
Q 41.3125 65.921875 37.59375 65.921875 
Q 27.828125 65.921875 22.671875 59.328125 
Q 17.53125 52.734375 16.796875 39.40625 
Q 19.671875 43.65625 24.015625 45.921875 
Q 28.375 48.1875 33.59375 48.1875 
Q 44.578125 48.1875 50.953125 41.515625 
Q 57.328125 34.859375 57.328125 23.390625 
Q 57.328125 12.15625 50.6875 5.359375 
Q 44.046875 -1.421875 33.015625 -1.421875 
Q 20.359375 -1.421875 13.671875 8.265625 
Q 6.984375 17.96875 6.984375 36.375 
Q 6.984375 53.65625 15.1875 63.9375 
Q 23.390625 74.21875 37.203125 74.21875 
Q 40.921875 74.21875 44.703125 73.484375 
Q 48.484375 72.75 52.59375 71.296875 
" id="BitstreamVeraSans-Roman-36"/>
      </defs>
      <g transform="translate(41.28125 276.91125)scale(0.12 -0.12)">
       <use xlink:href="#BitstreamVeraSans-Roman-30"/>
       <use x="63.623046875" xlink:href="#BitstreamVeraSans-Roman-2e"/>
       <use x="95.41015625" xlink:href="#BitstreamVeraSans-Roman-30"/>
       <use x="159.033203125" xlink:href="#BitstreamVeraSans-Roman-36"/>
      </g>
     </g>
    </g>
    <g id="ytick_5">
     <g id="line2d_33">
      <path clip-path="url(#p0de0482742)" d="M 72 235.2 
L 518.4 235.2 
" style="fill:none;stroke:#000000;stroke-dasharray:1.000000,3.000000;stroke-dashoffset:0.0;stroke-width:0.5;"/>
     </g>
     <g id="line2d_34">
      <g>
       <use style="stroke:#000000;stroke-width:0.5;" x="72.0" xlink:href="#mccce6657de" y="235.2"/>
      </g>
     </g>
     <g id="line2d_35">
      <g>
       <use style="stroke:#000000;stroke-width:0.5;" x="518.4" xlink:href="#m67245b3ba4" y="235.2"/>
      </g>
     </g>
     <g id="text_12">
      <!-- 0.08 -->
      <defs>
       <path d="M 31.78125 34.625 
Q 24.75 34.625 20.71875 30.859375 
Q 16.703125 27.09375 16.703125 20.515625 
Q 16.703125 13.921875 20.71875 10.15625 
Q 24.75 6.390625 31.78125 6.390625 
Q 38.8125 6.390625 42.859375 10.171875 
Q 46.921875 13.96875 46.921875 20.515625 
Q 46.921875 27.09375 42.890625 30.859375 
Q 38.875 34.625 31.78125 34.625 
M 21.921875 38.8125 
Q 15.578125 40.375 12.03125 44.71875 
Q 8.5 49.078125 8.5 55.328125 
Q 8.5 64.0625 14.71875 69.140625 
Q 20.953125 74.21875 31.78125 74.21875 
Q 42.671875 74.21875 48.875 69.140625 
Q 55.078125 64.0625 55.078125 55.328125 
Q 55.078125 49.078125 51.53125 44.71875 
Q 48 40.375 41.703125 38.8125 
Q 48.828125 37.15625 52.796875 32.3125 
Q 56.78125 27.484375 56.78125 20.515625 
Q 56.78125 9.90625 50.3125 4.234375 
Q 43.84375 -1.421875 31.78125 -1.421875 
Q 19.734375 -1.421875 13.25 4.234375 
Q 6.78125 9.90625 6.78125 20.515625 
Q 6.78125 27.484375 10.78125 32.3125 
Q 14.796875 37.15625 21.921875 38.8125 
M 18.3125 54.390625 
Q 18.3125 48.734375 21.84375 45.5625 
Q 25.390625 42.390625 31.78125 42.390625 
Q 38.140625 42.390625 41.71875 45.5625 
Q 45.3125 48.734375 45.3125 54.390625 
Q 45.3125 60.0625 41.71875 63.234375 
Q 38.140625 66.40625 31.78125 66.40625 
Q 25.390625 66.40625 21.84375 63.234375 
Q 18.3125 60.0625 18.3125 54.390625 
" id="BitstreamVeraSans-Roman-38"/>
      </defs>
      <g transform="translate(41.28125 238.51125)scale(0.12 -0.12)">
       <use xlink:href="#BitstreamVeraSans-Roman-30"/>
       <use x="63.623046875" xlink:href="#BitstreamVeraSans-Roman-2e"/>
       <use x="95.41015625" xlink:href="#BitstreamVeraSans-Roman-30"/>
       <use x="159.033203125" xlink:href="#BitstreamVeraSans-Roman-38"/>
      </g>
     </g>
    </g>
    <g id="ytick_6">
     <g id="line2d_36">
      <path clip-path="url(#p0de0482742)" d="M 72 196.8 
L 518.4 196.8 
" style="fill:none;stroke:#000000;stroke-dasharray:1.000000,3.000000;stroke-dashoffset:0.0;stroke-width:0.5;"/>
     </g>
     <g id="line2d_37">
      <g>
       <use style="stroke:#000000;stroke-width:0.5;" x="72.0" xlink:href="#mccce6657de" y="196.8"/>
      </g>
     </g>
     <g id="line2d_38">
      <g>
       <use style="stroke:#000000;stroke-width:0.5;" x="518.4" xlink:href="#m67245b3ba4" y="196.8"/>
      </g>
     </g>
     <g id="text_13">
      <!-- 0.10 -->
      <g transform="translate(41.28125 200.11125)scale(0.12 -0.12)">
       <use xlink:href="#BitstreamVeraSans-Roman-30"/>
       <use x="63.623046875" xlink:href="#BitstreamVeraSans-Roman-2e"/>
       <use x="95.41015625" xlink:href="#BitstreamVeraSans-Roman-31"/>
       <use x="159.033203125" xlink:href="#BitstreamVeraSans-Roman-30"/>
      </g>
     </g>
    </g>
    <g id="ytick_7">
     <g id="line2d_39">
      <path clip-path="url(#p0de0482742)" d="M 72 158.4 
L 518.4 158.4 
" style="fill:none;stroke:#000000;stroke-dasharray:1.000000,3.000000;stroke-dashoffset:0.0;stroke-width:0.5;"/>
     </g>
     <g id="line2d_40">
      <g>
       <use style="stroke:#000000;stroke-width:0.5;" x="72.0" xlink:href="#mccce6657de" y="158.4"/>
      </g>
     </g>
     <g id="line2d_41">
      <g>
       <use style="stroke:#000000;stroke-width:0.5;" x="518.4" xlink:href="#m67245b3ba4" y="158.4"/>
      </g>
     </g>
     <g id="text_14">
      <!-- 0.12 -->
      <g transform="translate(41.28125 161.71125)scale(0.12 -0.12)">
       <use xlink:href="#BitstreamVeraSans-Roman-30"/>
       <use x="63.623046875" xlink:href="#BitstreamVeraSans-Roman-2e"/>
       <use x="95.41015625" xlink:href="#BitstreamVeraSans-Roman-31"/>
       <use x="159.033203125" xlink:href="#BitstreamVeraSans-Roman-32"/>
      </g>
     </g>
    </g>
    <g id="ytick_8">
     <g id="line2d_42">
      <path clip-path="url(#p0de0482742)" d="M 72 120 
L 518.4 120 
" style="fill:none;stroke:#000000;stroke-dasharray:1.000000,3.000000;stroke-dashoffset:0.0;stroke-width:0.5;"/>
     </g>
     <g id="line2d_43">
      <g>
       <use style="stroke:#000000;stroke-width:0.5;" x="72.0" xlink:href="#mccce6657de" y="120.0"/>
      </g>
     </g>
     <g id="line2d_44">
      <g>
       <use style="stroke:#000000;stroke-width:0.5;" x="518.4" xlink:href="#m67245b3ba4" y="120.0"/>
      </g>
     </g>
     <g id="text_15">
      <!-- 0.14 -->
      <g transform="translate(41.28125 123.31125)scale(0.12 -0.12)">
       <use xlink:href="#BitstreamVeraSans-Roman-30"/>
       <use x="63.623046875" xlink:href="#BitstreamVeraSans-Roman-2e"/>
       <use x="95.41015625" xlink:href="#BitstreamVeraSans-Roman-31"/>
       <use x="159.033203125" xlink:href="#BitstreamVeraSans-Roman-34"/>
      </g>
     </g>
    </g>
    <g id="ytick_9">
     <g id="line2d_45">
      <path clip-path="url(#p0de0482742)" d="M 72 81.6 
L 518.4 81.6 
" style="fill:none;stroke:#000000;stroke-dasharray:1.000000,3.000000;stroke-dashoffset:0.0;stroke-width:0.5;"/>
     </g>
     <g id="line2d_46">
      <g>
       <use style="stroke:#000000;stroke-width:0.5;" x="72.0" xlink:href="#mccce6657de" y="81.6"/>
      </g>
     </g>
     <g id="line2d_47">
      <g>
       <use style="stroke:#000000;stroke-width:0.5;" x="518.4" xlink:href="#m67245b3ba4" y="81.6"/>
      </g>
     </g>
     <g id="text_16">
      <!-- 0.16 -->
      <g transform="translate(41.28125 84.91125)scale(0.12 -0.12)">
       <use xlink:href="#BitstreamVeraSans-Roman-30"/>
       <use x="63.623046875" xlink:href="#BitstreamVeraSans-Roman-2e"/>
       <use x="95.41015625" xlink:href="#BitstreamVeraSans-Roman-31"/>
       <use x="159.033203125" xlink:href="#BitstreamVeraSans-Roman-36"/>
      </g>
     </g>
    </g>
    <g id="ytick_10">
     <g id="line2d_48">
      <path clip-path="url(#p0de0482742)" d="M 72 43.2 
L 518.4 43.2 
" style="fill:none;stroke:#000000;stroke-dasharray:1.000000,3.000000;stroke-dashoffset:0.0;stroke-width:0.5;"/>
     </g>
     <g id="line2d_49">
      <g>
       <use style="stroke:#000000;stroke-width:0.5;" x="72.0" xlink:href="#mccce6657de" y="43.2"/>
      </g>
     </g>
     <g id="line2d_50">
      <g>
       <use style="stroke:#000000;stroke-width:0.5;" x="518.4" xlink:href="#m67245b3ba4" y="43.2"/>
      </g>
     </g>
     <g id="text_17">
      <!-- 0.18 -->
      <g transform="translate(41.28125 46.51125)scale(0.12 -0.12)">
       <use xlink:href="#BitstreamVeraSans-Roman-30"/>
       <use x="63.623046875" xlink:href="#BitstreamVeraSans-Roman-2e"/>
       <use x="95.41015625" xlink:href="#BitstreamVeraSans-Roman-31"/>
       <use x="159.033203125" xlink:href="#BitstreamVeraSans-Roman-38"/>
      </g>
     </g>
    </g>
    <g id="text_18">
     <!-- Pedal [] -->
     <defs>
      <path d="M 19.671875 64.796875 
L 19.671875 37.40625 
L 32.078125 37.40625 
Q 38.96875 37.40625 42.71875 40.96875 
Q 46.484375 44.53125 46.484375 51.125 
Q 46.484375 57.671875 42.71875 61.234375 
Q 38.96875 64.796875 32.078125 64.796875 
z
M 9.8125 72.90625 
L 32.078125 72.90625 
Q 44.34375 72.90625 50.609375 67.359375 
Q 56.890625 61.8125 56.890625 51.125 
Q 56.890625 40.328125 50.609375 34.8125 
Q 44.34375 29.296875 32.078125 29.296875 
L 19.671875 29.296875 
L 19.671875 0 
L 9.8125 0 
z
" id="BitstreamVeraSans-Roman-50"/>
      <path d="M 45.40625 46.390625 
L 45.40625 75.984375 
L 54.390625 75.984375 
L 54.390625 0 
L 45.40625 0 
L 45.40625 8.203125 
Q 42.578125 3.328125 38.25 0.953125 
Q 33.9375 -1.421875 27.875 -1.421875 
Q 17.96875 -1.421875 11.734375 6.484375 
Q 5.515625 14.40625 5.515625 27.296875 
Q 5.515625 40.1875 11.734375 48.09375 
Q 17.96875 56 27.875 56 
Q 33.9375 56 38.25 53.625 
Q 42.578125 51.265625 45.40625 46.390625 
M 14.796875 27.296875 
Q 14.796875 17.390625 18.875 11.75 
Q 22.953125 6.109375 30.078125 6.109375 
Q 37.203125 6.109375 41.296875 11.75 
Q 45.40625 17.390625 45.40625 27.296875 
Q 45.40625 37.203125 41.296875 42.84375 
Q 37.203125 48.484375 30.078125 48.484375 
Q 22.953125 48.484375 18.875 42.84375 
Q 14.796875 37.203125 14.796875 27.296875 
" id="BitstreamVeraSans-Roman-64"/>
      <path d="M 34.28125 27.484375 
Q 23.390625 27.484375 19.1875 25 
Q 14.984375 22.515625 14.984375 16.5 
Q 14.984375 11.71875 18.140625 8.90625 
Q 21.296875 6.109375 26.703125 6.109375 
Q 34.1875 6.109375 38.703125 11.40625 
Q 43.21875 16.703125 43.21875 25.484375 
L 43.21875 27.484375 
z
M 52.203125 31.203125 
L 52.203125 0 
L 43.21875 0 
L 43.21875 8.296875 
Q 40.140625 3.328125 35.546875 0.953125 
Q 30.953125 -1.421875 24.3125 -1.421875 
Q 15.921875 -1.421875 10.953125 3.296875 
Q 6 8.015625 6 15.921875 
Q 6 25.140625 12.171875 29.828125 
Q 18.359375 34.515625 30.609375 34.515625 
L 43.21875 34.515625 
L 43.21875 35.40625 
Q 43.21875 41.609375 39.140625 45 
Q 35.0625 48.390625 27.6875 48.390625 
Q 23 48.390625 18.546875 47.265625 
Q 14.109375 46.140625 10.015625 43.890625 
L 10.015625 52.203125 
Q 14.9375 54.109375 19.578125 55.046875 
Q 24.21875 56 28.609375 56 
Q 40.484375 56 46.34375 49.84375 
Q 52.203125 43.703125 52.203125 31.203125 
" id="BitstreamVeraSans-Roman-61"/>
      <path d="M 9.421875 75.984375 
L 18.40625 75.984375 
L 18.40625 0 
L 9.421875 0 
z
" id="BitstreamVeraSans-Roman-6c"/>
     </defs>
     <g transform="translate(33.785625 239.0484375)rotate(-90.0)scale(0.12 -0.12)">
      <use xlink:href="#BitstreamVeraSans-Roman-50"/>
      <use x="60.255859375" xlink:href="#BitstreamVeraSans-Roman-65"/>
      <use x="121.779296875" xlink:href="#BitstreamVeraSans-Roman-64"/>
      <use x="185.255859375" xlink:href="#BitstreamVeraSans-Roman-61"/>
      <use x="246.53515625" xlink:href="#BitstreamVeraSans-Roman-6c"/>
      <use x="274.318359375" xlink:href="#BitstreamVeraSans-Roman-20"/>
      <use x="306.10546875" xlink:href="#BitstreamVeraSans-Roman-5b"/>
      <use x="345.119140625" xlink:href="#BitstreamVeraSans-Roman-5d"/>
     </g>
    </g>
   </g>
   <g id="legend_1">
    <g id="patch_7">
     <path d="M 79.2 239.2965 
L 217.40175 239.2965 
L 217.40175 192.7035 
L 79.2 192.7035 
z
" style="fill:#ffffff;stroke:#000000;stroke-linejoin:miter;"/>
    </g>
    <g id="line2d_51">
     <path d="M 89.28 204.36525 
L 109.44 204.36525 
" style="fill:none;stroke:#008000;stroke-linecap:square;"/>
    </g>
    <g id="line2d_52"/>
    <g id="text_19">
     <!-- Gas pedal -->
     <defs>
      <path d="M 59.515625 10.40625 
L 59.515625 29.984375 
L 43.40625 29.984375 
L 43.40625 38.09375 
L 69.28125 38.09375 
L 69.28125 6.78125 
Q 63.578125 2.734375 56.6875 0.65625 
Q 49.8125 -1.421875 42 -1.421875 
Q 24.90625 -1.421875 15.25 8.5625 
Q 5.609375 18.5625 5.609375 36.375 
Q 5.609375 54.25 15.25 64.234375 
Q 24.90625 74.21875 42 74.21875 
Q 49.125 74.21875 55.546875 72.453125 
Q 61.96875 70.703125 67.390625 67.28125 
L 67.390625 56.78125 
Q 61.921875 61.421875 55.765625 63.765625 
Q 49.609375 66.109375 42.828125 66.109375 
Q 29.4375 66.109375 22.71875 58.640625 
Q 16.015625 51.171875 16.015625 36.375 
Q 16.015625 21.625 22.71875 14.15625 
Q 29.4375 6.6875 42.828125 6.6875 
Q 48.046875 6.6875 52.140625 7.59375 
Q 56.25 8.5 59.515625 10.40625 
" id="BitstreamVeraSans-Roman-47"/>
      <path d="M 18.109375 8.203125 
L 18.109375 -20.796875 
L 9.078125 -20.796875 
L 9.078125 54.6875 
L 18.109375 54.6875 
L 18.109375 46.390625 
Q 20.953125 51.265625 25.265625 53.625 
Q 29.59375 56 35.59375 56 
Q 45.5625 56 51.78125 48.09375 
Q 58.015625 40.1875 58.015625 27.296875 
Q 58.015625 14.40625 51.78125 6.484375 
Q 45.5625 -1.421875 35.59375 -1.421875 
Q 29.59375 -1.421875 25.265625 0.953125 
Q 20.953125 3.328125 18.109375 8.203125 
M 48.6875 27.296875 
Q 48.6875 37.203125 44.609375 42.84375 
Q 40.53125 48.484375 33.40625 48.484375 
Q 26.265625 48.484375 22.1875 42.84375 
Q 18.109375 37.203125 18.109375 27.296875 
Q 18.109375 17.390625 22.1875 11.75 
Q 26.265625 6.109375 33.40625 6.109375 
Q 40.53125 6.109375 44.609375 11.75 
Q 48.6875 17.390625 48.6875 27.296875 
" id="BitstreamVeraSans-Roman-70"/>
     </defs>
     <g transform="translate(125.28 209.40525)scale(0.144 -0.144)">
      <use xlink:href="#BitstreamVeraSans-Roman-47"/>
      <use x="77.490234375" xlink:href="#BitstreamVeraSans-Roman-61"/>
      <use x="138.76953125" xlink:href="#BitstreamVeraSans-Roman-73"/>
      <use x="190.869140625" xlink:href="#BitstreamVeraSans-Roman-20"/>
      <use x="222.65625" xlink:href="#BitstreamVeraSans-Roman-70"/>
      <use x="286.1328125" xlink:href="#BitstreamVeraSans-Roman-65"/>
      <use x="347.65625" xlink:href="#BitstreamVeraSans-Roman-64"/>
      <use x="411.1328125" xlink:href="#BitstreamVeraSans-Roman-61"/>
      <use x="472.412109375" xlink:href="#BitstreamVeraSans-Roman-6c"/>
     </g>
    </g>
    <g id="line2d_53">
     <path d="M 89.28 225.50175 
L 109.44 225.50175 
" style="fill:none;stroke:#ff0000;stroke-linecap:square;"/>
    </g>
    <g id="line2d_54"/>
    <g id="text_20">
     <!-- Brake pedal -->
     <defs>
      <path d="M 41.109375 46.296875 
Q 39.59375 47.171875 37.8125 47.578125 
Q 36.03125 48 33.890625 48 
Q 26.265625 48 22.1875 43.046875 
Q 18.109375 38.09375 18.109375 28.8125 
L 18.109375 0 
L 9.078125 0 
L 9.078125 54.6875 
L 18.109375 54.6875 
L 18.109375 46.1875 
Q 20.953125 51.171875 25.484375 53.578125 
Q 30.03125 56 36.53125 56 
Q 37.453125 56 38.578125 55.875 
Q 39.703125 55.765625 41.0625 55.515625 
z
" id="BitstreamVeraSans-Roman-72"/>
      <path d="M 19.671875 34.8125 
L 19.671875 8.109375 
L 35.5 8.109375 
Q 43.453125 8.109375 47.28125 11.40625 
Q 51.125 14.703125 51.125 21.484375 
Q 51.125 28.328125 47.28125 31.5625 
Q 43.453125 34.8125 35.5 34.8125 
z
M 19.671875 64.796875 
L 19.671875 42.828125 
L 34.28125 42.828125 
Q 41.5 42.828125 45.03125 45.53125 
Q 48.578125 48.25 48.578125 53.8125 
Q 48.578125 59.328125 45.03125 62.0625 
Q 41.5 64.796875 34.28125 64.796875 
z
M 9.8125 72.90625 
L 35.015625 72.90625 
Q 46.296875 72.90625 52.390625 68.21875 
Q 58.5 63.53125 58.5 54.890625 
Q 58.5 48.1875 55.375 44.234375 
Q 52.25 40.28125 46.1875 39.3125 
Q 53.46875 37.75 57.5 32.78125 
Q 61.53125 27.828125 61.53125 20.40625 
Q 61.53125 10.640625 54.890625 5.3125 
Q 48.25 0 35.984375 0 
L 9.8125 0 
z
" id="BitstreamVeraSans-Roman-42"/>
      <path d="M 9.078125 75.984375 
L 18.109375 75.984375 
L 18.109375 31.109375 
L 44.921875 54.6875 
L 56.390625 54.6875 
L 27.390625 29.109375 
L 57.625 0 
L 45.90625 0 
L 18.109375 26.703125 
L 18.109375 0 
L 9.078125 0 
z
" id="BitstreamVeraSans-Roman-6b"/>
     </defs>
     <g transform="translate(125.28 230.54175)scale(0.144 -0.144)">
      <use xlink:href="#BitstreamVeraSans-Roman-42"/>
      <use x="68.603515625" xlink:href="#BitstreamVeraSans-Roman-72"/>
      <use x="109.716796875" xlink:href="#BitstreamVeraSans-Roman-61"/>
      <use x="170.99609375" xlink:href="#BitstreamVeraSans-Roman-6b"/>
      <use x="228.859375" xlink:href="#BitstreamVeraSans-Roman-65"/>
      <use x="290.3828125" xlink:href="#BitstreamVeraSans-Roman-20"/>
      <use x="322.169921875" xlink:href="#BitstreamVeraSans-Roman-70"/>
      <use x="385.646484375" xlink:href="#BitstreamVeraSans-Roman-65"/>
      <use x="447.169921875" xlink:href="#BitstreamVeraSans-Roman-64"/>
      <use x="510.646484375" xlink:href="#BitstreamVeraSans-Roman-61"/>
      <use x="571.92578125" xlink:href="#BitstreamVeraSans-Roman-6c"/>
     </g>
    </g>
   </g>
  </g>
 </g>
 <defs>
  <clipPath id="p0de0482742">
   <rect height="345.6" width="446.4" x="72.0" y="43.2"/>
  </clipPath>
 </defs>
</svg>
