<?xml version="1.0" encoding="utf-8" standalone="no"?>
<!DOCTYPE svg PUBLIC "-//W3C//DTD SVG 1.1//EN"
  "http://www.w3.org/Graphics/SVG/1.1/DTD/svg11.dtd">
<!-- Created with matplotlib (http://matplotlib.org/) -->
<svg height="432pt" version="1.1" viewBox="0 0 576 432" width="576pt" xmlns="http://www.w3.org/2000/svg" xmlns:xlink="http://www.w3.org/1999/xlink">
 <defs>
  <style type="text/css">
*{stroke-linecap:butt;stroke-linejoin:round;stroke-miterlimit:100000;}
  </style>
 </defs>
 <g id="figure_1">
  <g id="patch_1">
   <path d="M 0 432 
L 576 432 
L 576 0 
L 0 0 
z
" style="fill:#ffffff;"/>
  </g>
  <g id="axes_1">
   <g id="patch_2">
    <path d="M 72 388.8 
L 518.4 388.8 
L 518.4 43.2 
L 72 43.2 
z
" style="fill:#ffffff;"/>
   </g>
   <g id="line2d_1">
    <path clip-path="url(#pabed2331a9)" d="M 72.17856 339.56521 
L 95.74848 339.56521 
L 95.92704 191.668534 
L 96.1056 192.775739 
L 97.71264 209.123838 
L 97.8912 209.123838 
L 98.06976 210.23246 
L 98.60544 215.060616 
L 98.96256 217.277387 
L 99.31968 220.24523 
L 99.49824 221.353483 
L 99.85536 224.320873 
L 100.03392 224.601951 
L 100.5696 224.601951 
L 100.74816 225.352795 
L 101.81952 225.352795 
L 101.99808 226.10356 
L 103.60512 226.10356 
L 103.78368 226.853731 
L 105.74784 226.853731 
L 106.10496 229.073202 
L 106.28352 230.901359 
L 109.67616 230.901359 
L 109.85472 230.151387 
L 112.176 230.151387 
L 112.35456 229.400824 
L 114.31872 229.400824 
L 114.49728 228.650183 
L 116.28288 228.650183 
L 116.46144 227.899468 
L 118.4256 227.899468 
L 118.60416 227.14868 
L 120.38976 227.14868 
L 120.56832 226.398334 
L 122.35392 226.398334 
L 122.53248 225.647395 
L 123.96096 225.647395 
L 124.13952 224.896379 
L 125.568 224.896379 
L 125.74656 224.145289 
L 127.3536 224.145289 
L 127.53216 223.394641 
L 129.1392 223.394641 
L 129.31776 222.6434 
L 130.56768 222.6434 
L 130.74624 221.892085 
L 132.53184 221.892085 
L 132.7104 221.140693 
L 134.13888 221.140693 
L 134.31744 220.389227 
L 135.74592 220.389227 
L 135.92448 219.638203 
L 137.35296 219.638203 
L 137.53152 218.886586 
L 138.96 218.886586 
L 139.13856 218.134895 
L 140.7456 218.134895 
L 140.92416 217.383126 
L 142.5312 217.383126 
L 142.70976 216.631803 
L 144.49536 216.631803 
L 144.67392 215.879886 
L 146.28096 215.879886 
L 146.45952 215.127893 
L 148.42368 215.127893 
L 148.60224 214.375825 
L 150.5664 214.375825 
L 150.74496 213.623682 
L 152.70912 213.623682 
L 152.88768 212.871983 
L 154.67328 212.871983 
L 154.85184 212.119689 
L 157.17312 212.119689 
L 157.35168 211.367319 
L 159.85152 211.367319 
L 160.03008 210.614876 
L 162.35136 210.614876 
L 162.52992 209.862876 
L 165.20832 209.862876 
L 165.92256 206.909762 
L 167.17248 206.909762 
L 168.4224 199.20794 
L 168.60096 198.860824 
L 169.13664 198.860824 
L 169.3152 196.660565 
L 169.49376 196.660565 
L 169.85088 194.460305 
L 170.02944 194.112997 
L 170.38656 194.112997 
L 170.56512 193.012998 
L 170.74368 192.666376 
L 170.92224 192.666376 
L 171.27936 190.628044 
L 171.63648 190.6942 
L 171.9936 190.6942 
L 172.17216 191.447564 
L 172.35072 190.759829 
L 172.52928 190.759829 
L 172.70784 191.512631 
L 173.06496 190.481861 
L 173.24352 190.481861 
L 173.7792 195.31188 
L 174.31488 198.635226 
L 174.672 198.740292 
L 174.85056 198.740292 
L 175.02912 199.493103 
L 176.27904 199.493103 
L 176.4576 200.245838 
L 177.70752 200.245838 
L 177.88608 200.997979 
L 180.0288 200.997979 
L 180.38592 203.968988 
L 180.56448 204.788343 
L 181.45728 204.788343 
L 182.52864 211.454977 
L 182.7072 211.816036 
L 184.67136 223.684356 
L 184.84992 223.684356 
L 185.02848 224.048207 
L 185.20704 225.163711 
L 185.3856 225.529806 
L 185.74272 227.765186 
L 185.92128 228.13148 
L 186.09984 229.249301 
L 186.2784 229.61626 
L 186.45696 230.734136 
L 186.81408 231.469441 
L 186.99264 232.589638 
L 187.1712 232.958558 
L 187.34976 234.07891 
L 187.70688 234.817688 
L 187.88544 235.938257 
L 188.064 236.307548 
L 188.24256 237.42822 
L 188.42112 237.797702 
L 188.77824 239.664932 
L 188.9568 240.788138 
L 189.31392 241.532367 
L 189.49248 241.532367 
L 189.67104 242.655835 
L 189.8496 242.277465 
L 190.02816 243.401094 
L 190.92096 245.276063 
L 191.09952 246.40244 
L 191.45664 247.152904 
L 191.6352 248.279546 
L 191.81376 248.654966 
L 191.99232 249.781714 
L 192.34944 250.533448 
L 192.528 251.660358 
L 192.70656 251.284909 
L 192.88512 251.284909 
L 193.24224 253.915904 
L 193.4208 253.210935 
L 193.59936 254.340699 
L 193.77792 254.719272 
L 193.95648 254.346659 
L 194.3136 256.606622 
L 194.67072 257.36487 
L 194.84928 258.495113 
L 195.2064 259.253405 
L 195.38496 260.383913 
L 195.56352 260.015001 
L 195.74208 261.148047 
L 196.0992 261.91182 
L 196.27776 263.045079 
L 196.45632 263.427175 
L 196.63488 264.560552 
L 196.81344 264.192155 
L 197.17056 266.459328 
L 197.34912 266.841799 
L 197.52768 266.476161 
L 197.8848 268.748742 
L 198.24192 269.519334 
L 198.42048 270.65589 
L 198.7776 271.427005 
L 198.95616 272.563773 
L 199.84896 274.501769 
L 200.02752 275.641583 
L 200.38464 276.419129 
L 200.5632 277.559178 
L 201.09888 278.729399 
L 201.27744 279.872266 
L 201.63456 280.656021 
L 201.81312 281.799153 
L 202.17024 282.583893 
L 202.3488 283.727239 
L 202.70592 284.511883 
L 202.88448 285.658047 
L 203.42016 286.844247 
L 203.59872 287.990682 
L 203.95584 288.781698 
L 204.1344 289.928398 
L 204.49152 290.7204 
L 204.67008 291.869977 
L 205.20576 293.066013 
L 205.38432 294.215862 
L 205.74144 295.014404 
L 206.09856 297.314727 
L 206.99136 299.32073 
L 207.16992 300.47414 
L 207.52704 301.279296 
L 207.7056 302.432927 
L 208.06272 303.239083 
L 208.24128 304.395693 
L 208.5984 305.207337 
L 208.77696 306.364168 
L 209.31264 307.582959 
L 209.4912 308.740173 
L 209.84832 309.553068 
L 210.02688 310.71332 
L 210.384 311.532865 
L 210.56256 312.693338 
L 211.09824 313.922679 
L 211.2768 315.083482 
L 211.45536 315.494028 
L 211.63392 315.494028 
L 211.81248 317.065127 
L 211.99104 317.478232 
L 212.1696 318.642229 
L 212.34816 319.055496 
L 212.52672 320.21961 
L 212.70528 319.882796 
L 212.88384 321.04719 
L 213.41952 322.28836 
L 213.59808 323.453034 
L 213.9552 324.287485 
L 214.13376 325.455366 
L 215.02656 327.542508 
L 215.20512 328.710889 
L 215.56224 328.045059 
L 215.7408 328.462888 
L 215.91936 328.127368 
L 216.09792 328.54249 
L 216.27648 328.206617 
L 216.45504 328.621944 
L 216.81216 326.684368 
L 216.99072 326.346112 
L 217.16928 325.59806 
L 218.59776 314.33897 
L 218.77632 314.340441 
L 219.13344 310.579902 
L 220.38336 300.790142 
L 220.56192 300.036845 
L 221.9904 288.718671 
L 222.16896 287.963359 
L 222.34752 287.963359 
L 222.70464 283.43091 
L 222.8832 282.67506 
L 223.95456 274.356845 
L 224.13312 273.60062 
L 224.31168 273.60062 
L 225.74016 262.241947 
L 225.91872 262.241947 
L 226.09728 259.968395 
L 226.27584 259.968395 
L 226.4544 256.935234 
L 226.63296 256.935234 
L 227.3472 248.237097 
L 227.52576 248.237097 
L 228.59712 233.86006 
L 228.95424 230.077807 
L 229.31136 224.011783 
L 231.09696 203.917322 
L 231.8112 194.805429 
L 233.5968 176.583071 
L 233.77536 175.447503 
L 234.4896 168.611118 
L 234.84672 166.339189 
L 235.20384 163.302055 
L 235.3824 162.165958 
L 235.73952 159.128318 
L 236.45376 154.583399 
L 236.63232 154.583399 
L 236.81088 151.545008 
L 237.88224 144.726835 
L 238.0608 144.356646 
L 238.77504 139.811731 
L 238.9536 139.811731 
L 239.48928 136.033509 
L 239.66784 135.663938 
L 240.20352 132.256042 
L 240.38208 131.886754 
L 240.7392 129.615089 
L 240.91776 129.245492 
L 241.09632 128.10979 
L 241.27488 127.740893 
L 241.45344 126.60533 
L 241.632 126.236602 
L 241.81056 123.965728 
L 242.16768 123.228307 
L 242.34624 122.093135 
L 242.70336 121.356804 
L 242.88192 120.221896 
L 243.23904 119.486131 
L 243.4176 118.351489 
L 243.77472 117.61576 
L 243.95328 116.114081 
L 245.02464 113.911663 
L 245.2032 112.778213 
L 246.63168 109.848071 
L 246.81024 108.715672 
L 246.9888 108.349577 
L 247.16736 107.217311 
L 247.34592 107.253455 
L 247.52448 106.888339 
L 247.70304 105.756603 
L 247.8816 105.391118 
L 248.06016 105.792968 
L 249.13152 103.606102 
L 249.31008 104.008055 
L 249.84576 102.916384 
L 250.02432 103.319219 
L 250.20288 102.955898 
L 250.73856 100.736993 
L 250.91712 101.140388 
L 251.09568 101.140388 
L 251.27424 100.41468 
L 251.4528 100.456084 
L 251.63136 100.093418 
L 251.80992 98.965374 
L 251.98848 99.369402 
L 252.3456 98.645378 
L 252.52416 99.049663 
L 252.70272 99.092178 
L 253.05984 98.370038 
L 253.2384 97.243451 
L 253.41696 98.413334 
L 253.59552 97.287144 
L 253.77408 98.457607 
L 253.95264 97.331808 
L 254.1312 97.736438 
L 254.30976 97.376317 
L 254.48832 97.421202 
L 254.66688 97.061478 
L 254.84544 97.467065 
L 255.38112 94.139716 
L 255.55968 94.186439 
L 255.73824 93.062619 
L 255.9168 93.110027 
L 256.09536 91.986596 
L 256.45248 92.800087 
L 256.63104 92.44157 
L 256.98816 93.255017 
L 257.16672 92.897478 
L 257.34528 93.711396 
L 257.52384 93.354306 
L 257.7024 93.354306 
L 257.88096 94.168702 
L 258.05952 93.047765 
L 258.23808 92.691183 
L 258.5952 93.506278 
L 258.77376 93.150137 
L 258.95232 93.557622 
L 259.13088 93.61001 
L 259.66656 94.833929 
L 259.84512 94.478847 
L 260.02368 94.887414 
L 260.20224 93.769104 
L 260.3808 93.822743 
L 260.55936 92.704837 
L 260.73792 92.405028 
L 261.09504 93.223125 
L 261.2736 92.106264 
L 261.45216 93.278876 
L 261.63072 92.162412 
L 262.1664 93.390656 
L 262.34496 93.447812 
L 262.88064 94.677197 
L 263.0592 93.562691 
L 263.23776 93.973096 
L 263.41632 93.621252 
L 264.30912 95.673206 
L 264.48768 95.733327 
L 264.8448 96.555043 
L 265.02336 95.443163 
L 265.55904 96.676344 
L 265.7376 96.326603 
L 265.91616 96.738252 
L 266.27328 97.972559 
L 266.45184 98.384494 
L 266.6304 98.035703 
L 266.80896 96.926177 
L 266.98752 98.85928 
L 267.16608 97.750277 
L 268.05888 99.811655 
L 268.23744 99.463666 
L 268.59456 100.701724 
L 268.77312 101.11472 
L 268.95168 100.008203 
L 269.3088 100.834112 
L 269.48736 100.487285 
L 270.38016 102.554012 
L 270.55872 102.622578 
L 271.0944 103.863514 
L 271.27296 102.760131 
L 271.45152 104.691181 
L 271.63008 103.588313 
L 271.80864 104.002699 
L 271.9872 103.658668 
L 272.34432 104.487299 
L 272.70144 105.730515 
L 272.88 104.629346 
L 273.05856 105.802326 
L 273.23712 104.701547 
L 274.12992 106.776485 
L 274.30848 107.607581 
L 274.48704 107.26544 
L 275.37984 109.343783 
L 275.5584 108.246257 
L 275.73696 109.418669 
L 275.91552 108.321533 
L 276.98688 110.81964 
L 277.16544 110.896681 
L 277.52256 111.730073 
L 277.70112 110.635408 
L 277.87968 112.563589 
L 278.05824 111.469439 
L 278.2368 111.886753 
L 278.41536 113.059122 
L 278.59392 111.965626 
L 279.48672 114.052923 
L 279.66528 114.133239 
L 279.84384 114.551274 
L 280.0224 114.551274 
L 280.37952 115.80473 
L 280.55808 116.22303 
L 280.73664 115.886995 
L 280.9152 116.304934 
L 281.09376 115.214808 
L 281.808 116.889235 
L 281.98656 116.553664 
L 282.87936 118.648267 
L 283.05792 118.73304 
L 283.77216 120.410873 
L 283.95072 119.324632 
L 284.12928 118.990966 
L 284.84352 120.670661 
L 285.02208 120.337746 
L 285.20064 121.177913 
L 285.3792 121.177913 
L 285.73632 122.438918 
L 285.91488 122.107452 
L 286.09344 122.107452 
L 286.45056 123.369317 
L 286.62912 123.789728 
L 286.80768 123.45902 
L 286.98624 123.879586 
L 287.1648 123.879586 
L 287.70048 125.142717 
L 287.87904 124.812766 
L 288.59328 126.497868 
L 288.77184 127.669869 
L 288.9504 128.091611 
L 289.12896 128.091611 
L 289.30752 128.51342 
L 289.48608 128.18425 
L 290.02176 129.449823 
L 290.20032 129.121764 
L 290.37888 129.543492 
L 290.55744 131.465269 
L 290.736 131.137746 
L 290.91456 131.137746 
L 291.27168 131.982144 
L 291.45024 131.655052 
L 291.98592 132.922656 
L 292.16448 133.018564 
L 292.34304 133.441554 
L 292.5216 133.114969 
L 292.87872 133.960797 
L 293.05728 133.960797 
L 293.23584 133.635162 
L 293.59296 134.481424 
L 293.77152 134.156219 
L 294.3072 135.426622 
L 294.48576 135.102006 
L 294.66432 137.021845 
L 294.84288 136.697088 
L 295.02144 136.697088 
L 295.37856 137.54508 
L 295.55712 137.22075 
L 295.73568 137.644931 
L 295.91424 137.644931 
L 296.0928 139.240654 
L 296.27136 139.183424 
L 296.80704 141.170715 
L 296.9856 140.84739 
L 297.16416 143.413879 
L 297.34272 143.413879 
L 297.69984 149.292662 
L 297.8784 151.112458 
L 298.05696 155.498743 
L 298.23552 155.498743 
L 298.7712 162.781143 
L 298.94976 164.602708 
L 299.12832 164.602708 
L 299.48544 169.736677 
L 299.84256 173.380785 
L 300.19968 173.380785 
L 300.5568 177.772867 
L 300.73536 177.772867 
L 300.91392 180.339905 
L 301.09248 185.812296 
L 301.27104 187.63612 
L 301.4496 187.63612 
L 301.62816 190.542649 
L 301.80672 190.542649 
L 302.16384 194.194073 
L 302.3424 194.194073 
L 302.52096 197.105712 
L 302.69952 198.189877 
L 303.05664 201.845689 
L 303.2352 201.845689 
L 303.41376 202.931982 
L 303.94944 207.675607 
L 304.128 208.763979 
L 304.30656 208.763979 
L 304.66368 211.682287 
L 304.84224 212.770529 
L 305.19936 215.691277 
L 305.37792 216.781816 
L 305.55648 216.781816 
L 305.73504 218.962745 
L 305.9136 218.962745 
L 306.27072 221.885305 
L 307.52064 229.522673 
L 307.6992 229.522673 
L 307.87776 229.874293 
L 308.77056 235.343818 
L 308.94912 235.698348 
L 309.4848 238.98491 
L 309.66336 239.340227 
L 310.02048 241.536682 
L 310.19904 241.89421 
L 310.3776 242.992568 
L 310.55616 243.350261 
L 310.91328 245.547162 
L 311.09184 245.905079 
L 311.2704 247.006321 
L 311.44896 247.367542 
L 311.62752 248.468839 
L 311.80608 248.829715 
L 311.98464 248.829715 
L 312.34176 250.653413 
L 312.52032 251.755141 
L 312.69888 252.116421 
L 312.87744 252.116421 
L 313.23456 252.845186 
L 313.41312 253.949907 
L 313.77024 254.678639 
L 313.9488 254.678639 
L 314.48448 255.773165 
L 314.66304 256.881271 
L 314.8416 256.881271 
L 315.02016 256.508481 
L 315.19872 257.616918 
L 315.55584 258.353301 
L 315.7344 258.353301 
L 316.27008 259.458568 
L 316.44864 260.570404 
L 317.34144 262.428518 
L 317.52 262.428518 
L 317.69856 263.541045 
L 318.23424 264.657193 
L 318.4128 264.657193 
L 318.76992 265.40801 
L 318.94848 266.523988 
L 319.12704 266.899412 
L 319.3056 266.899412 
L 319.48416 266.534214 
L 319.66272 267.650597 
L 320.1984 268.781605 
L 320.37696 268.781605 
L 320.73408 269.540199 
L 320.91264 270.660164 
L 321.0912 271.039428 
L 321.26976 271.039428 
L 321.44832 270.678056 
L 321.62688 271.798367 
L 321.984 272.561029 
L 322.16256 272.561029 
L 322.69824 273.709628 
L 322.8768 274.833595 
L 323.05536 274.833595 
L 323.23392 274.476498 
L 323.41248 275.600804 
L 323.7696 276.367726 
L 323.94816 276.367726 
L 324.48384 277.527705 
L 324.6624 278.655285 
L 324.84096 278.655285 
L 325.01952 278.301094 
L 325.19808 278.688458 
L 325.37664 279.816354 
L 325.5552 280.203306 
L 325.73376 280.203306 
L 326.448 281.764002 
L 326.62656 281.764002 
L 326.98368 282.544563 
L 327.16224 283.676057 
L 327.3408 284.066555 
L 327.51936 284.066555 
L 327.69792 283.71936 
L 327.87648 284.853965 
L 328.76928 286.823397 
L 328.94784 287.958628 
L 329.30496 288.749879 
L 329.48352 289.888222 
L 330.0192 291.080764 
L 330.19776 292.219371 
L 330.55488 293.015132 
L 330.73344 294.154012 
L 331.26912 295.353705 
L 331.44768 296.495851 
L 331.8048 297.298719 
L 331.98336 298.441123 
L 332.51904 299.645501 
L 332.6976 300.788178 
L 332.87616 301.193367 
L 333.05472 302.339185 
L 333.23328 302.744006 
L 333.41184 303.890001 
L 333.5904 303.554069 
L 333.76896 303.959207 
L 333.94752 305.105474 
L 334.30464 305.916647 
L 334.4832 307.063178 
L 334.84032 307.880539 
L 335.01888 309.030315 
L 335.55456 310.25789 
L 335.73312 311.40807 
L 336.09024 312.226711 
L 336.2688 313.377105 
L 336.44736 313.790217 
L 336.62592 314.943804 
L 336.80448 314.615605 
L 336.98304 315.769412 
L 337.34016 316.595976 
L 337.51872 317.750085 
L 338.0544 318.990064 
L 338.23296 320.147616 
L 338.59008 320.981684 
L 338.76864 322.139457 
L 339.30432 323.39075 
L 339.48288 324.548935 
L 339.84 325.384298 
L 340.19712 327.701094 
L 340.37568 327.381186 
L 340.55424 327.802649 
L 340.7328 328.964526 
L 341.08992 329.807085 
L 341.26848 330.969316 
L 341.80416 332.234484 
L 341.98272 333.400306 
L 342.16128 333.825373 
L 342.69696 333.825373 
L 342.87552 337.008255 
L 343.23264 337.859847 
L 343.4112 339.026242 
L 344.304 341.159601 
L 344.48256 340.848197 
L 344.83968 341.708074 
L 345.01824 341.396906 
L 345.1968 341.826844 
L 345.37536 341.516308 
L 345.55392 340.464593 
L 346.26816 339.221068 
L 346.44672 339.652404 
L 346.9824 338.720695 
L 347.16096 339.151987 
L 347.8752 337.910875 
L 348.05376 338.342858 
L 348.58944 337.413032 
L 348.768 337.845472 
L 349.48224 336.606508 
L 349.6608 337.03964 
L 350.37504 335.801647 
L 350.5536 336.235381 
L 350.73216 335.925891 
L 350.91072 337.103453 
L 351.08928 335.307439 
L 351.26784 334.998507 
L 351.4464 335.432933 
L 352.3392 333.887672 
L 352.51776 334.322907 
L 353.232 333.088402 
L 353.41056 333.524255 
L 353.76768 332.907392 
L 353.94624 332.907392 
L 354.30336 331.983054 
L 354.48192 333.164796 
L 354.66048 332.111256 
L 355.55328 330.570939 
L 355.73184 331.009058 
L 356.62464 329.470491 
L 356.8032 329.908846 
L 357.87456 328.064967 
L 358.05312 328.504263 
L 358.41024 327.886797 
L 358.5888 329.069995 
L 358.76736 327.266006 
L 358.94592 328.446364 
L 359.12448 326.638902 
L 359.30304 327.072563 
L 359.4816 328.253525 
L 359.66016 326.442693 
L 360.01728 325.806379 
L 360.19584 326.981573 
L 360.3744 325.16696 
L 360.55296 326.342772 
L 360.73152 326.01995 
L 360.91008 326.01995 
L 361.08864 324.623872 
L 361.44576 323.972609 
L 361.62432 325.14333 
L 361.80288 324.815182 
L 361.98144 322.989548 
L 362.16 322.658207 
L 362.33856 323.07508 
L 363.0528 321.741035 
L 363.40992 319.169337 
L 363.58848 318.831846 
L 365.19552 306.120507 
L 365.37408 305.372405 
L 368.23104 282.088383 
L 368.4096 281.335513 
L 369.3024 274.555651 
L 369.48096 274.555666 
L 369.65952 273.048322 
L 370.01664 268.523414 
L 370.1952 267.769433 
L 371.44512 257.955071 
L 371.62368 257.200039 
L 372.15936 253.421651 
L 372.51648 253.421651 
L 372.69504 247.764716 
L 372.8736 247.764716 
L 373.23072 241.376629 
L 374.48064 224.435531 
L 375.01632 218.034099 
L 375.73056 208.986882 
L 375.90912 207.863187 
L 376.08768 204.460987 
L 376.26624 203.336898 
L 376.98048 195.03918 
L 378.05184 180.678082 
L 379.30176 166.697555 
L 379.65888 162.917904 
L 380.37312 156.119395 
L 380.55168 154.99162 
L 381.08736 150.081154 
L 381.26592 150.081154 
L 381.44448 147.061846 
L 381.62304 145.933671 
L 381.98016 142.913256 
L 382.15872 141.784951 
L 382.51584 138.764025 
L 383.23008 134.250281 
L 383.5872 131.228759 
L 384.30144 126.714485 
L 384.48 126.350766 
L 385.55136 119.580145 
L 385.72992 119.216956 
L 386.08704 116.96034 
L 386.2656 116.597372 
L 386.62272 114.341028 
L 386.80128 113.977677 
L 386.97984 112.849634 
L 387.1584 112.486974 
L 387.51552 110.23116 
L 387.69408 109.868729 
L 387.87264 108.74095 
L 388.0512 108.378688 
L 388.22976 108.378688 
L 388.40832 106.888413 
L 388.58688 106.52643 
L 388.76544 105.399049 
L 388.944 105.037236 
L 389.12256 103.90998 
L 389.47968 103.186802 
L 389.65824 102.059811 
L 390.01536 101.336663 
L 390.19392 100.209937 
L 390.37248 99.848852 
L 390.55104 98.722258 
L 390.90816 98.000007 
L 391.08672 98.404866 
L 391.44384 96.152737 
L 391.80096 95.432017 
L 391.97952 95.836831 
L 392.33664 95.116905 
L 392.5152 93.991628 
L 392.69376 93.63136 
L 392.87232 94.037315 
L 393.76512 86.976941 
L 394.65792 85.183855 
L 394.83648 85.590589 
L 395.01504 85.232587 
L 395.55072 83.036327 
L 395.72928 83.44362 
L 396.26496 82.371423 
L 396.62208 81.300838 
L 396.80064 80.944174 
L 396.9792 81.352181 
L 397.15776 80.995798 
L 397.33632 81.04787 
L 397.51488 79.926941 
L 397.69344 79.570998 
L 397.872 79.980072 
L 398.05056 80.033131 
L 398.22912 79.677747 
L 398.58624 79.731453 
L 398.7648 79.376467 
L 398.94336 79.785592 
L 399.12192 79.785592 
L 399.30048 79.430886 
L 399.47904 79.84071 
L 399.6576 79.485754 
L 399.83616 79.895747 
L 400.01472 79.5416 
L 400.19328 79.951226 
L 400.37184 79.597351 
L 400.5504 80.007668 
L 400.72896 79.65355 
L 400.90752 80.064037 
L 401.08608 79.710721 
L 401.26464 80.12084 
L 401.4432 79.767811 
L 401.62176 80.178621 
L 401.80032 79.825334 
L 402.15744 80.64683 
L 402.51456 80.705729 
L 402.69312 80.353701 
L 402.87168 80.764548 
L 403.05024 80.412792 
L 403.2288 80.823808 
L 403.40736 80.472331 
L 403.76448 81.295276 
L 403.94304 80.944248 
L 404.1216 81.356184 
L 404.30016 81.004906 
L 404.65728 81.829174 
L 404.83584 81.478345 
L 405.0144 81.890678 
L 405.19296 80.778143 
L 405.37152 81.952543 
L 405.55008 82.365111 
L 405.72864 82.015525 
L 405.9072 82.427733 
L 406.08576 82.078427 
L 406.44288 82.903755 
L 406.62144 82.55489 
L 406.97856 83.380689 
L 407.15712 83.032273 
L 407.51424 83.858536 
L 407.6928 83.510561 
L 408.04992 84.337287 
L 408.22848 83.989231 
L 408.40704 84.403058 
L 408.5856 84.055804 
L 408.76416 85.991298 
L 409.12128 86.058018 
L 409.29984 86.472198 
L 409.4784 85.365026 
L 409.83552 85.432577 
L 410.01408 85.847103 
L 410.19264 85.500651 
L 410.54976 86.329555 
L 410.72832 85.984074 
L 411.08544 86.813448 
L 411.264 86.468402 
L 411.62112 87.29824 
L 411.79968 86.953634 
L 412.33536 88.199447 
L 412.51392 87.85493 
L 412.87104 88.68635 
L 413.0496 89.860941 
L 413.40672 89.933112 
L 413.76384 90.764708 
L 413.9424 90.421986 
L 414.12096 90.838241 
L 414.29952 90.838241 
L 414.65664 91.670433 
L 414.8352 91.327785 
L 415.19232 92.160963 
L 415.37088 91.818763 
L 415.728 92.651868 
L 415.90656 92.310632 
L 416.26368 93.1442 
L 416.44224 92.803398 
L 416.79936 93.637415 
L 416.97792 94.812461 
L 417.15648 93.71467 
L 417.33504 95.646706 
L 417.5136 95.306368 
L 418.4064 91.833698 
L 418.58496 93.765874 
L 418.76352 92.331614 
L 418.94208 92.331614 
L 419.12064 91.236036 
L 419.2992 93.168242 
L 419.65632 92.153775 
L 419.83488 92.572795 
L 420.01344 94.504552 
L 420.192 94.923146 
L 420.37056 94.585957 
L 420.54912 94.585957 
L 421.26336 96.262414 
L 421.44192 95.92599 
L 421.9776 97.184574 
L 422.15616 96.848753 
L 422.69184 98.107698 
L 422.8704 97.772473 
L 423.04896 98.192692 
L 423.22752 100.122698 
L 423.40608 99.452866 
L 423.58464 99.452866 
L 423.7632 98.02906 
L 423.94176 98.44975 
L 424.29888 99.711174 
L 424.47744 98.622866 
L 424.656 99.798501 
L 424.83456 98.710582 
L 425.01312 100.640125 
L 425.19168 99.552721 
L 425.37024 100.727827 
L 425.5488 99.640813 
L 426.08448 100.905025 
L 426.26304 100.572279 
L 426.97728 102.259367 
L 427.15584 101.927379 
L 427.87008 103.615887 
L 428.04864 103.284664 
L 428.76288 104.974592 
L 429.12 105.066987 
L 429.65568 106.335467 
L 429.83424 106.005759 
L 430.54848 107.698505 
L 430.72704 107.369555 
L 431.26272 108.639947 
L 431.44128 108.312108 
L 431.61984 110.238384 
L 431.7984 110.661746 
L 431.97696 109.583133 
L 432.15552 109.583133 
L 432.33408 110.758408 
L 432.6912 111.606145 
L 432.86976 111.27944 
L 433.40544 112.551546 
L 433.584 112.225436 
L 434.11968 113.498903 
L 434.29824 113.172867 
L 434.83392 114.447188 
L 435.01248 114.122262 
L 435.3696 114.972141 
L 435.54816 114.647642 
L 436.08384 115.922941 
L 436.2624 115.599038 
L 436.61952 116.449902 
L 436.97664 116.552384 
L 437.33376 117.403815 
L 437.51232 117.080927 
L 438.048 118.358559 
L 438.22656 118.036267 
L 438.58368 118.888683 
L 438.76224 118.566818 
L 439.11936 123.055508 
L 439.29792 123.055508 
L 439.65504 129.491897 
L 439.8336 128.423063 
L 440.01216 128.88802 
L 440.90496 140.22772 
L 443.04768 162.98154 
L 443.4048 167.373032 
L 443.58336 168.452443 
L 444.47616 176.83334 
L 444.65472 176.83334 
L 445.36896 183.394198 
L 445.54752 184.477064 
L 446.44032 193.21558 
L 446.61888 194.302659 
L 446.79744 197.2194 
L 447.51168 201.571675 
L 447.8688 204.492375 
L 448.7616 209.52976 
L 449.47584 209.52976 
L 451.08288 219.336717 
L 451.26144 219.689174 
L 451.61856 221.877303 
L 451.79712 221.877303 
L 451.97568 222.971405 
L 452.15424 223.326707 
L 452.51136 225.520164 
L 452.68992 225.876125 
L 452.86848 226.972982 
L 453.04704 226.972982 
L 453.2256 227.328594 
L 453.58272 229.527741 
L 453.76128 229.886196 
L 453.93984 230.985901 
L 454.1184 230.985901 
L 454.47552 231.703182 
L 454.83264 233.905588 
L 455.0112 233.905588 
L 455.18976 233.526608 
L 455.36832 234.991087 
L 455.54688 234.991087 
L 455.72544 236.093925 
L 455.904 236.455863 
L 456.08256 237.558908 
L 456.26112 237.921523 
L 456.43968 237.921523 
L 456.7968 238.651362 
L 456.97536 239.757441 
L 457.15392 240.122543 
L 457.33248 240.122543 
L 457.86816 241.219069 
L 458.04672 242.325634 
L 458.22528 242.325634 
L 458.40384 241.952936 
L 458.5824 241.952936 
L 458.76096 242.321996 
L 458.93952 243.800519 
L 459.11808 243.800519 
L 459.83232 245.276994 
L 460.01088 246.390161 
L 460.54656 247.506915 
L 460.72512 249.734111 
L 461.08224 250.479749 
L 461.43936 252.339364 
L 461.61792 252.339364 
L 461.79648 253.453522 
L 462.1536 254.206141 
L 462.33216 255.699632 
L 462.51072 255.699632 
L 462.86784 256.452694 
L 463.0464 257.570393 
L 463.40352 258.327412 
L 463.58208 258.327412 
L 464.11776 259.467241 
L 464.29632 259.467241 
L 464.47488 260.588553 
L 464.65344 260.228278 
L 464.832 260.60863 
L 465.01056 261.730192 
L 465.18912 261.730192 
L 465.90336 263.2655 
L 466.08192 263.2655 
L 466.6176 264.418299 
L 466.79616 265.543767 
L 466.97472 265.543767 
L 467.15328 265.186898 
L 467.33184 265.574019 
L 467.5104 266.702467 
L 467.68896 266.702467 
L 467.86752 266.349033 
L 468.04608 266.736412 
L 468.22464 267.865235 
L 468.58176 268.640941 
L 468.76032 269.76997 
L 468.93888 270.157731 
L 469.11744 269.807041 
L 469.296 270.93916 
L 469.65312 271.721384 
L 469.83168 272.853776 
L 470.36736 274.027285 
L 470.54592 275.159941 
L 470.90304 275.946175 
L 471.0816 277.081906 
L 471.61728 278.265604 
L 471.79584 279.401667 
L 472.15296 280.191954 
L 472.33152 281.328281 
L 472.8672 282.517166 
L 473.22432 284.796177 
L 473.40288 284.453286 
L 473.58144 285.593019 
L 474.11712 286.789401 
L 474.29568 287.929473 
L 474.6528 288.730273 
L 474.83136 289.87353 
L 475.36704 291.080477 
L 475.5456 292.223999 
L 475.72416 292.626385 
L 475.90272 293.77007 
L 476.61696 295.387363 
L 476.79552 296.534468 
L 477.15264 297.346539 
L 477.50976 299.641279 
L 477.68832 299.306966 
L 477.86688 299.713369 
L 478.04544 300.861018 
L 478.40256 301.677335 
L 478.58112 302.828346 
L 478.93824 303.648834 
L 479.1168 304.800051 
L 479.29536 305.210236 
L 479.47392 306.361564 
L 480.18816 308.010249 
L 480.36672 309.165123 
L 480.9024 310.407574 
L 481.08096 311.562771 
L 481.43808 312.391234 
L 481.61664 313.546689 
L 482.15232 314.797181 
L 482.33088 315.95613 
L 482.688 316.79217 
L 483.04512 319.110585 
L 483.22368 318.788352 
L 483.40224 319.206828 
L 483.5808 320.366396 
L 483.75936 320.788212 
L 483.93792 320.788212 
L 484.11648 322.3732 
L 484.65216 323.64015 
L 484.83072 324.803455 
L 485.18784 325.648838 
L 485.3664 326.812481 
L 486.08064 328.513577 
L 486.2592 329.680855 
L 486.43776 329.366744 
L 487.152 331.073784 
L 487.33056 330.759526 
L 487.50912 331.186521 
L 487.68768 330.872837 
L 487.86624 331.299994 
L 488.22336 330.672332 
L 488.40192 331.099916 
L 489.11616 329.845473 
L 489.29472 330.273616 
L 489.8304 329.333652 
L 490.00896 329.762355 
L 490.7232 328.509972 
L 490.90176 328.939366 
L 491.43744 328.000667 
L 491.616 329.17336 
L 491.79456 329.603357 
L 491.97312 329.291144 
L 492.15168 327.492849 
L 492.33024 327.180003 
L 492.5088 327.610442 
L 493.22304 326.361311 
L 493.4016 326.792529 
L 494.2944 325.232613 
L 494.47296 325.664655 
L 495.1872 324.41782 
L 495.36576 324.850362 
L 495.54432 326.027528 
L 496.43712 324.470039 
L 496.61568 324.90345 
L 497.50848 323.348154 
L 497.68704 323.7823 
L 497.8656 321.980621 
L 498.22272 321.358873 
L 498.40128 321.358873 
L 498.57984 321.047764 
L 498.7584 321.172228 
L 498.93696 322.353396 
L 499.29408 321.732369 
L 499.47264 319.929601 
L 499.6512 321.111666 
L 499.82976 321.111666 
L 500.00832 319.74456 
L 500.36544 319.124048 
L 500.544 320.307099 
L 500.72256 319.996711 
L 500.90112 320.433211 
L 501.97248 318.574354 
L 502.15104 319.011796 
L 503.40096 316.819052 
L 503.57952 317.251521 
L 503.75808 315.439145 
L 504.29376 314.489021 
L 504.47232 315.667048 
L 504.65088 314.599434 
L 505.72224 312.678146 
L 505.9008 313.10545 
L 506.97216 311.164387 
L 507.15072 311.589506 
L 508.40064 309.301263 
L 508.5792 309.721858 
L 510.00768 307.072838 
L 510.18624 307.491035 
L 510.54336 306.825866 
L 510.90048 304.95295 
L 511.61472 303.610894 
L 511.79328 302.864689 
L 513.0432 292.881987 
L 513.22176 292.881987 
L 513.57888 289.248825 
L 513.75744 288.906773 
L 516.07872 270.093034 
L 516.25728 269.340039 
L 517.15008 262.314287 
L 517.32864 261.559872 
L 518.4 253.247705 
L 518.4 253.247705 
" style="fill:none;stroke:#008000;stroke-linecap:square;"/>
   </g>
   <g id="line2d_2">
    <path clip-path="url(#pabed2331a9)" d="M 72.17856 191.314286 
L 96.9984 191.3937 
L 97.8912 191.563442 
L 99.31968 192.013872 
L 101.99808 193.184121 
L 106.10496 195.084917 
L 106.46208 195.360568 
L 116.10432 200.23153 
L 123.06816 203.566243 
L 123.42528 203.646409 
L 127.71072 205.664067 
L 128.06784 205.888779 
L 129.1392 206.413104 
L 129.49632 206.632549 
L 131.28192 207.430164 
L 131.63904 207.644344 
L 132.88896 208.211982 
L 133.42464 208.490533 
L 135.21024 209.244266 
L 135.74592 209.515797 
L 138.0672 210.302315 
L 138.24576 210.302315 
L 138.78144 210.559805 
L 144.13824 212.389158 
L 144.49536 212.448265 
L 149.6736 214.010157 
L 150.20928 214.117831 
L 153.42336 214.999693 
L 153.95904 215.100343 
L 156.45888 215.73876 
L 156.99456 215.835897 
L 161.81568 217.035422 
L 164.8512 217.688409 
L 167.35104 218.180588 
L 169.3152 218.427661 
L 174.31488 218.531125 
L 180.0288 219.196601 
L 182.52864 219.685063 
L 183.6 220.011228 
L 184.13568 220.273661 
L 186.81408 221.438016 
L 188.42112 222.358982 
L 188.77824 222.691445 
L 192.528 225.229721 
L 195.02784 227.312232 
L 197.70624 229.837887 
L 200.5632 232.885442 
L 203.2416 236.065149 
L 205.92 239.57083 
L 208.95552 243.946006 
L 211.81248 248.448954 
L 214.848 253.653725 
L 218.95488 260.74001 
L 220.91904 263.622516 
L 222.8832 266.128377 
L 224.6688 268.279929 
L 225.02592 268.817639 
L 226.99008 270.576435 
L 227.3472 270.845801 
L 227.52576 270.845801 
L 228.77568 271.618167 
L 229.84704 272.064989 
L 230.38272 272.172187 
L 231.45408 272.364887 
L 232.704 272.359928 
L 234.13248 272.103466 
L 235.56096 271.621044 
L 237.168 270.845029 
L 238.9536 269.854927 
L 239.31072 269.483263 
L 241.45344 267.80866 
L 241.632 267.657284 
L 241.98912 267.189083 
L 243.77472 265.534593 
L 244.13184 265.011546 
L 247.16736 261.863529 
L 247.52448 261.276726 
L 250.20288 258.238445 
L 250.56 257.616403 
L 250.91712 257.195691 
L 251.09568 257.195691 
L 251.63136 256.138877 
L 252.52416 255.064473 
L 252.88128 254.418602 
L 254.30976 252.676363 
L 254.66688 252.018699 
L 255.024 251.579016 
L 255.20256 250.906969 
L 255.38112 250.680682 
L 255.9168 249.541993 
L 257.16672 247.933624 
L 257.52384 247.249813 
L 257.7024 247.249813 
L 258.05952 246.567375 
L 258.95232 245.424562 
L 259.30944 244.743452 
L 260.20224 243.615327 
L 260.91648 242.015319 
L 262.1664 240.40847 
L 262.52352 239.724162 
L 264.30912 237.465861 
L 264.66624 236.797342 
L 265.91616 235.245985 
L 266.27328 234.590105 
L 268.23744 232.210919 
L 268.59456 231.573921 
L 270.38016 229.470387 
L 270.73728 228.851302 
L 272.34432 227.014104 
L 272.70144 226.411944 
L 274.12992 224.811454 
L 274.48704 224.223427 
L 282.52224 215.590533 
L 282.87936 215.249873 
L 283.23648 214.740921 
L 285.02208 213.070953 
L 285.20064 212.742005 
L 285.3792 212.742005 
L 285.73632 212.255922 
L 285.91488 212.094096 
L 286.09344 212.094096 
L 286.45056 211.614491 
L 286.98624 211.140189 
L 287.1648 211.140189 
L 288.9504 209.608301 
L 289.12896 209.608301 
L 290.736 208.305685 
L 290.91456 208.305685 
L 294.84288 205.341794 
L 295.02144 205.341794 
L 297.16416 203.883363 
L 297.52128 203.778947 
L 298.94976 203.057175 
L 299.48544 202.951825 
L 300.37824 202.827558 
L 301.62816 202.702133 
L 303.2352 202.797111 
L 305.0208 203.166812 
L 307.16352 203.947742 
L 309.84192 205.363659 
L 312.1632 207.024677 
L 313.77024 208.17787 
L 313.9488 208.17787 
L 315.55584 209.403044 
L 315.7344 209.403044 
L 318.23424 211.547372 
L 318.4128 211.547372 
L 319.12704 212.24666 
L 319.3056 212.24666 
L 320.1984 213.14312 
L 320.37696 213.14312 
L 321.0912 213.881054 
L 321.26976 213.881054 
L 321.984 214.634908 
L 322.16256 214.634908 
L 322.8768 215.406514 
L 323.05536 215.406514 
L 323.7696 216.195915 
L 323.94816 216.195915 
L 324.6624 217.003188 
L 324.84096 217.003188 
L 325.5552 217.826644 
L 325.73376 217.826644 
L 326.448 218.668096 
L 326.62656 218.668096 
L 327.3408 219.527598 
L 327.51936 219.527598 
L 330.37632 223.154364 
L 333.23328 227.144163 
L 336.44736 232.076155 
L 339.66144 237.480572 
L 342.33984 242.014054 
L 342.69696 242.014054 
L 342.87552 243.362426 
L 353.76768 264.207303 
L 353.94624 264.207303 
L 354.30336 265.195049 
L 359.12448 273.917512 
L 360.73152 276.756105 
L 360.91008 276.756105 
L 361.2672 277.689249 
L 364.65984 283.381486 
L 366.624 286.224794 
L 368.58816 288.669939 
L 370.55232 290.733598 
L 372.33792 292.282766 
L 372.51648 292.282766 
L 372.69504 292.551911 
L 372.8736 292.551911 
L 373.23072 292.91666 
L 374.48064 293.575111 
L 375.73056 293.971186 
L 376.98048 294.131132 
L 378.05184 294.060844 
L 379.30176 293.757335 
L 380.73024 293.149381 
L 382.33728 292.193321 
L 384.12288 290.843017 
L 386.2656 288.8937 
L 388.58688 286.452454 
L 391.26528 283.303208 
L 392.87232 281.285986 
L 393.76512 279.161552 
L 395.01504 277.440887 
L 395.37216 276.694704 
L 396.26496 275.432573 
L 396.62208 274.668116 
L 397.15776 273.897935 
L 397.51488 273.125577 
L 397.872 272.605921 
L 398.22912 271.826412 
L 398.40768 271.826412 
L 398.7648 271.044762 
L 398.94336 270.784915 
L 399.12192 270.784915 
L 402.15744 266.370538 
L 402.336 265.853994 
L 402.51456 265.853994 
L 408.76416 256.959909 
L 408.94272 256.959909 
L 409.29984 256.223356 
L 409.4784 255.976216 
L 409.65696 255.481264 
L 409.83552 255.481264 
L 413.0496 251.105889 
L 413.22816 251.105889 
L 413.58528 250.397838 
L 414.12096 249.693166 
L 414.29952 249.693166 
L 417.87072 244.876737 
L 418.4064 243.72666 
L 418.58496 243.498849 
L 418.76352 243.037313 
L 418.94208 243.037313 
L 419.2992 242.574368 
L 419.65632 241.883704 
L 420.37056 240.975842 
L 420.54912 240.975842 
L 423.94176 236.589219 
L 424.29888 235.944017 
L 428.94144 230.297981 
L 429.12 230.297981 
L 431.97696 227.16779 
L 432.15552 227.16779 
L 436.44096 222.798043 
L 436.61952 222.62279 
L 436.79808 222.62279 
L 437.1552 222.099485 
L 439.11936 220.230974 
L 439.29792 220.230974 
L 439.8336 219.483175 
L 441.08352 218.570222 
L 442.33344 217.886041 
L 443.58336 217.424928 
L 444.83328 217.189855 
L 446.26176 217.079037 
L 447.69024 217.223031 
L 449.11872 217.573661 
L 450.90432 218.092443 
L 454.65408 219.566486 
L 456.26112 220.397165 
L 456.61824 220.507206 
L 458.04672 221.313568 
L 458.22528 221.313568 
L 460.90368 223.225347 
L 461.2608 223.505101 
L 461.43936 223.790075 
L 461.61792 223.790075 
L 462.1536 224.229316 
L 462.33216 224.528276 
L 462.51072 224.528276 
L 464.11776 225.776759 
L 464.29632 225.776759 
L 465.01056 226.427508 
L 465.18912 226.427508 
L 465.90336 227.096031 
L 466.08192 227.096031 
L 466.79616 227.780639 
L 466.97472 227.780639 
L 467.5104 228.303977 
L 467.68896 228.303977 
L 470.36736 231.07962 
L 473.22432 234.384399 
L 475.90272 237.813111 
L 478.93824 242.09132 
L 481.97376 246.795318 
L 483.75936 249.759242 
L 483.93792 249.759242 
L 484.29504 250.677231 
L 487.68768 256.757174 
L 494.11584 268.317229 
L 498.22272 275.465459 
L 498.40128 275.465459 
L 498.57984 275.768417 
L 498.93696 276.681609 
L 499.6512 277.894757 
L 499.82976 277.894757 
L 500.18688 278.794302 
L 506.25792 288.738704 
L 511.07904 296.147442 
L 513.0432 298.920808 
L 513.22176 298.920808 
L 513.57888 299.615441 
L 515.36448 301.738713 
L 517.15008 303.53408 
L 518.4 304.608911 
L 518.4 304.608911 
" style="fill:none;stroke:#0000ff;stroke-linecap:square;"/>
   </g>
   <g id="patch_3">
    <path d="M 72 43.2 
L 518.4 43.2 
" style="fill:none;stroke:#000000;stroke-linecap:square;stroke-linejoin:miter;"/>
   </g>
   <g id="patch_4">
    <path d="M 518.4 388.8 
L 518.4 43.2 
" style="fill:none;stroke:#000000;stroke-linecap:square;stroke-linejoin:miter;"/>
   </g>
   <g id="patch_5">
    <path d="M 72 388.8 
L 518.4 388.8 
" style="fill:none;stroke:#000000;stroke-linecap:square;stroke-linejoin:miter;"/>
   </g>
   <g id="patch_6">
    <path d="M 72 388.8 
L 72 43.2 
" style="fill:none;stroke:#000000;stroke-linecap:square;stroke-linejoin:miter;"/>
   </g>
   <g id="matplotlib.axis_1">
    <g id="xtick_1">
     <g id="line2d_3">
      <path clip-path="url(#pabed2331a9)" d="M 72 388.8 
L 72 43.2 
" style="fill:none;stroke:#000000;stroke-dasharray:1.000000,3.000000;stroke-dashoffset:0.0;stroke-width:0.5;"/>
     </g>
     <g id="line2d_4">
      <defs>
       <path d="M 0 0 
L 0 -4 
" id="m74aa3092bc" style="stroke:#000000;stroke-width:0.5;"/>
      </defs>
      <g>
       <use style="stroke:#000000;stroke-width:0.5;" x="72.0" xlink:href="#m74aa3092bc" y="388.8"/>
      </g>
     </g>
     <g id="line2d_5">
      <defs>
       <path d="M 0 0 
L 0 4 
" id="mc8b10de31b" style="stroke:#000000;stroke-width:0.5;"/>
      </defs>
      <g>
       <use style="stroke:#000000;stroke-width:0.5;" x="72.0" xlink:href="#mc8b10de31b" y="43.2"/>
      </g>
     </g>
     <g id="text_1">
      <!-- 0 -->
      <defs>
       <path d="M 31.78125 66.40625 
Q 24.171875 66.40625 20.328125 58.90625 
Q 16.5 51.421875 16.5 36.375 
Q 16.5 21.390625 20.328125 13.890625 
Q 24.171875 6.390625 31.78125 6.390625 
Q 39.453125 6.390625 43.28125 13.890625 
Q 47.125 21.390625 47.125 36.375 
Q 47.125 51.421875 43.28125 58.90625 
Q 39.453125 66.40625 31.78125 66.40625 
M 31.78125 74.21875 
Q 44.046875 74.21875 50.515625 64.515625 
Q 56.984375 54.828125 56.984375 36.375 
Q 56.984375 17.96875 50.515625 8.265625 
Q 44.046875 -1.421875 31.78125 -1.421875 
Q 19.53125 -1.421875 13.0625 8.265625 
Q 6.59375 17.96875 6.59375 36.375 
Q 6.59375 54.828125 13.0625 64.515625 
Q 19.53125 74.21875 31.78125 74.21875 
" id="BitstreamVeraSans-Roman-30"/>
      </defs>
      <g transform="translate(68.1825 401.918125)scale(0.12 -0.12)">
       <use xlink:href="#BitstreamVeraSans-Roman-30"/>
      </g>
     </g>
    </g>
    <g id="xtick_2">
     <g id="line2d_6">
      <path clip-path="url(#pabed2331a9)" d="M 161.28 388.8 
L 161.28 43.2 
" style="fill:none;stroke:#000000;stroke-dasharray:1.000000,3.000000;stroke-dashoffset:0.0;stroke-width:0.5;"/>
     </g>
     <g id="line2d_7">
      <g>
       <use style="stroke:#000000;stroke-width:0.5;" x="161.28" xlink:href="#m74aa3092bc" y="388.8"/>
      </g>
     </g>
     <g id="line2d_8">
      <g>
       <use style="stroke:#000000;stroke-width:0.5;" x="161.28" xlink:href="#mc8b10de31b" y="43.2"/>
      </g>
     </g>
     <g id="text_2">
      <!-- 5 -->
      <defs>
       <path d="M 10.796875 72.90625 
L 49.515625 72.90625 
L 49.515625 64.59375 
L 19.828125 64.59375 
L 19.828125 46.734375 
Q 21.96875 47.46875 24.109375 47.828125 
Q 26.265625 48.1875 28.421875 48.1875 
Q 40.625 48.1875 47.75 41.5 
Q 54.890625 34.8125 54.890625 23.390625 
Q 54.890625 11.625 47.5625 5.09375 
Q 40.234375 -1.421875 26.90625 -1.421875 
Q 22.3125 -1.421875 17.546875 -0.640625 
Q 12.796875 0.140625 7.71875 1.703125 
L 7.71875 11.625 
Q 12.109375 9.234375 16.796875 8.0625 
Q 21.484375 6.890625 26.703125 6.890625 
Q 35.15625 6.890625 40.078125 11.328125 
Q 45.015625 15.765625 45.015625 23.390625 
Q 45.015625 31 40.078125 35.4375 
Q 35.15625 39.890625 26.703125 39.890625 
Q 22.75 39.890625 18.8125 39.015625 
Q 14.890625 38.140625 10.796875 36.28125 
z
" id="BitstreamVeraSans-Roman-35"/>
      </defs>
      <g transform="translate(157.4625 401.918125)scale(0.12 -0.12)">
       <use xlink:href="#BitstreamVeraSans-Roman-35"/>
      </g>
     </g>
    </g>
    <g id="xtick_3">
     <g id="line2d_9">
      <path clip-path="url(#pabed2331a9)" d="M 250.56 388.8 
L 250.56 43.2 
" style="fill:none;stroke:#000000;stroke-dasharray:1.000000,3.000000;stroke-dashoffset:0.0;stroke-width:0.5;"/>
     </g>
     <g id="line2d_10">
      <g>
       <use style="stroke:#000000;stroke-width:0.5;" x="250.56" xlink:href="#m74aa3092bc" y="388.8"/>
      </g>
     </g>
     <g id="line2d_11">
      <g>
       <use style="stroke:#000000;stroke-width:0.5;" x="250.56" xlink:href="#mc8b10de31b" y="43.2"/>
      </g>
     </g>
     <g id="text_3">
      <!-- 10 -->
      <defs>
       <path d="M 12.40625 8.296875 
L 28.515625 8.296875 
L 28.515625 63.921875 
L 10.984375 60.40625 
L 10.984375 69.390625 
L 28.421875 72.90625 
L 38.28125 72.90625 
L 38.28125 8.296875 
L 54.390625 8.296875 
L 54.390625 0 
L 12.40625 0 
z
" id="BitstreamVeraSans-Roman-31"/>
      </defs>
      <g transform="translate(242.925 401.918125)scale(0.12 -0.12)">
       <use xlink:href="#BitstreamVeraSans-Roman-31"/>
       <use x="63.623046875" xlink:href="#BitstreamVeraSans-Roman-30"/>
      </g>
     </g>
    </g>
    <g id="xtick_4">
     <g id="line2d_12">
      <path clip-path="url(#pabed2331a9)" d="M 339.84 388.8 
L 339.84 43.2 
" style="fill:none;stroke:#000000;stroke-dasharray:1.000000,3.000000;stroke-dashoffset:0.0;stroke-width:0.5;"/>
     </g>
     <g id="line2d_13">
      <g>
       <use style="stroke:#000000;stroke-width:0.5;" x="339.84" xlink:href="#m74aa3092bc" y="388.8"/>
      </g>
     </g>
     <g id="line2d_14">
      <g>
       <use style="stroke:#000000;stroke-width:0.5;" x="339.84" xlink:href="#mc8b10de31b" y="43.2"/>
      </g>
     </g>
     <g id="text_4">
      <!-- 15 -->
      <g transform="translate(332.205 401.918125)scale(0.12 -0.12)">
       <use xlink:href="#BitstreamVeraSans-Roman-31"/>
       <use x="63.623046875" xlink:href="#BitstreamVeraSans-Roman-35"/>
      </g>
     </g>
    </g>
    <g id="xtick_5">
     <g id="line2d_15">
      <path clip-path="url(#pabed2331a9)" d="M 429.12 388.8 
L 429.12 43.2 
" style="fill:none;stroke:#000000;stroke-dasharray:1.000000,3.000000;stroke-dashoffset:0.0;stroke-width:0.5;"/>
     </g>
     <g id="line2d_16">
      <g>
       <use style="stroke:#000000;stroke-width:0.5;" x="429.12" xlink:href="#m74aa3092bc" y="388.8"/>
      </g>
     </g>
     <g id="line2d_17">
      <g>
       <use style="stroke:#000000;stroke-width:0.5;" x="429.12" xlink:href="#mc8b10de31b" y="43.2"/>
      </g>
     </g>
     <g id="text_5">
      <!-- 20 -->
      <defs>
       <path d="M 19.1875 8.296875 
L 53.609375 8.296875 
L 53.609375 0 
L 7.328125 0 
L 7.328125 8.296875 
Q 12.9375 14.109375 22.625 23.890625 
Q 32.328125 33.6875 34.8125 36.53125 
Q 39.546875 41.84375 41.421875 45.53125 
Q 43.3125 49.21875 43.3125 52.78125 
Q 43.3125 58.59375 39.234375 62.25 
Q 35.15625 65.921875 28.609375 65.921875 
Q 23.96875 65.921875 18.8125 64.3125 
Q 13.671875 62.703125 7.8125 59.421875 
L 7.8125 69.390625 
Q 13.765625 71.78125 18.9375 73 
Q 24.125 74.21875 28.421875 74.21875 
Q 39.75 74.21875 46.484375 68.546875 
Q 53.21875 62.890625 53.21875 53.421875 
Q 53.21875 48.921875 51.53125 44.890625 
Q 49.859375 40.875 45.40625 35.40625 
Q 44.1875 33.984375 37.640625 27.21875 
Q 31.109375 20.453125 19.1875 8.296875 
" id="BitstreamVeraSans-Roman-32"/>
      </defs>
      <g transform="translate(421.485 401.918125)scale(0.12 -0.12)">
       <use xlink:href="#BitstreamVeraSans-Roman-32"/>
       <use x="63.623046875" xlink:href="#BitstreamVeraSans-Roman-30"/>
      </g>
     </g>
    </g>
    <g id="xtick_6">
     <g id="line2d_18">
      <path clip-path="url(#pabed2331a9)" d="M 518.4 388.8 
L 518.4 43.2 
" style="fill:none;stroke:#000000;stroke-dasharray:1.000000,3.000000;stroke-dashoffset:0.0;stroke-width:0.5;"/>
     </g>
     <g id="line2d_19">
      <g>
       <use style="stroke:#000000;stroke-width:0.5;" x="518.4" xlink:href="#m74aa3092bc" y="388.8"/>
      </g>
     </g>
     <g id="line2d_20">
      <g>
       <use style="stroke:#000000;stroke-width:0.5;" x="518.4" xlink:href="#mc8b10de31b" y="43.2"/>
      </g>
     </g>
     <g id="text_6">
      <!-- 25 -->
      <g transform="translate(510.765 401.918125)scale(0.12 -0.12)">
       <use xlink:href="#BitstreamVeraSans-Roman-32"/>
       <use x="63.623046875" xlink:href="#BitstreamVeraSans-Roman-35"/>
      </g>
     </g>
    </g>
    <g id="text_7">
     <!-- Time, [s] -->
     <defs>
      <path id="BitstreamVeraSans-Roman-20"/>
      <path d="M 8.59375 75.984375 
L 29.296875 75.984375 
L 29.296875 69 
L 17.578125 69 
L 17.578125 -6.203125 
L 29.296875 -6.203125 
L 29.296875 -13.1875 
L 8.59375 -13.1875 
z
" id="BitstreamVeraSans-Roman-5b"/>
      <path d="M 30.421875 75.984375 
L 30.421875 -13.1875 
L 9.71875 -13.1875 
L 9.71875 -6.203125 
L 21.390625 -6.203125 
L 21.390625 69 
L 9.71875 69 
L 9.71875 75.984375 
z
" id="BitstreamVeraSans-Roman-5d"/>
      <path d="M 52 44.1875 
Q 55.375 50.25 60.0625 53.125 
Q 64.75 56 71.09375 56 
Q 79.640625 56 84.28125 50.015625 
Q 88.921875 44.046875 88.921875 33.015625 
L 88.921875 0 
L 79.890625 0 
L 79.890625 32.71875 
Q 79.890625 40.578125 77.09375 44.375 
Q 74.3125 48.1875 68.609375 48.1875 
Q 61.625 48.1875 57.5625 43.546875 
Q 53.515625 38.921875 53.515625 30.90625 
L 53.515625 0 
L 44.484375 0 
L 44.484375 32.71875 
Q 44.484375 40.625 41.703125 44.40625 
Q 38.921875 48.1875 33.109375 48.1875 
Q 26.21875 48.1875 22.15625 43.53125 
Q 18.109375 38.875 18.109375 30.90625 
L 18.109375 0 
L 9.078125 0 
L 9.078125 54.6875 
L 18.109375 54.6875 
L 18.109375 46.1875 
Q 21.1875 51.21875 25.484375 53.609375 
Q 29.78125 56 35.6875 56 
Q 41.65625 56 45.828125 52.96875 
Q 50 49.953125 52 44.1875 
" id="BitstreamVeraSans-Roman-6d"/>
      <path d="M 11.71875 12.40625 
L 22.015625 12.40625 
L 22.015625 4 
L 14.015625 -11.625 
L 7.71875 -11.625 
L 11.71875 4 
z
" id="BitstreamVeraSans-Roman-2c"/>
      <path d="M 9.421875 54.6875 
L 18.40625 54.6875 
L 18.40625 0 
L 9.421875 0 
z
M 9.421875 75.984375 
L 18.40625 75.984375 
L 18.40625 64.59375 
L 9.421875 64.59375 
z
" id="BitstreamVeraSans-Roman-69"/>
      <path d="M 56.203125 29.59375 
L 56.203125 25.203125 
L 14.890625 25.203125 
Q 15.484375 15.921875 20.484375 11.0625 
Q 25.484375 6.203125 34.421875 6.203125 
Q 39.59375 6.203125 44.453125 7.46875 
Q 49.3125 8.734375 54.109375 11.28125 
L 54.109375 2.78125 
Q 49.265625 0.734375 44.1875 -0.34375 
Q 39.109375 -1.421875 33.890625 -1.421875 
Q 20.796875 -1.421875 13.15625 6.1875 
Q 5.515625 13.8125 5.515625 26.8125 
Q 5.515625 40.234375 12.765625 48.109375 
Q 20.015625 56 32.328125 56 
Q 43.359375 56 49.78125 48.890625 
Q 56.203125 41.796875 56.203125 29.59375 
M 47.21875 32.234375 
Q 47.125 39.59375 43.09375 43.984375 
Q 39.0625 48.390625 32.421875 48.390625 
Q 24.90625 48.390625 20.390625 44.140625 
Q 15.875 39.890625 15.1875 32.171875 
z
" id="BitstreamVeraSans-Roman-65"/>
      <path d="M -0.296875 72.90625 
L 61.375 72.90625 
L 61.375 64.59375 
L 35.5 64.59375 
L 35.5 0 
L 25.59375 0 
L 25.59375 64.59375 
L -0.296875 64.59375 
z
" id="BitstreamVeraSans-Roman-54"/>
      <path d="M 44.28125 53.078125 
L 44.28125 44.578125 
Q 40.484375 46.53125 36.375 47.5 
Q 32.28125 48.484375 27.875 48.484375 
Q 21.1875 48.484375 17.84375 46.4375 
Q 14.5 44.390625 14.5 40.28125 
Q 14.5 37.15625 16.890625 35.375 
Q 19.28125 33.59375 26.515625 31.984375 
L 29.59375 31.296875 
Q 39.15625 29.25 43.1875 25.515625 
Q 47.21875 21.78125 47.21875 15.09375 
Q 47.21875 7.46875 41.1875 3.015625 
Q 35.15625 -1.421875 24.609375 -1.421875 
Q 20.21875 -1.421875 15.453125 -0.5625 
Q 10.6875 0.296875 5.421875 2 
L 5.421875 11.28125 
Q 10.40625 8.6875 15.234375 7.390625 
Q 20.0625 6.109375 24.8125 6.109375 
Q 31.15625 6.109375 34.5625 8.28125 
Q 37.984375 10.453125 37.984375 14.40625 
Q 37.984375 18.0625 35.515625 20.015625 
Q 33.0625 21.96875 24.703125 23.78125 
L 21.578125 24.515625 
Q 13.234375 26.265625 9.515625 29.90625 
Q 5.8125 33.546875 5.8125 39.890625 
Q 5.8125 47.609375 11.28125 51.796875 
Q 16.75 56 26.8125 56 
Q 31.78125 56 36.171875 55.265625 
Q 40.578125 54.546875 44.28125 53.078125 
" id="BitstreamVeraSans-Roman-73"/>
     </defs>
     <g transform="translate(268.71375 418.531875)scale(0.12 -0.12)">
      <use xlink:href="#BitstreamVeraSans-Roman-54"/>
      <use x="61.037109375" xlink:href="#BitstreamVeraSans-Roman-69"/>
      <use x="88.8203125" xlink:href="#BitstreamVeraSans-Roman-6d"/>
      <use x="186.232421875" xlink:href="#BitstreamVeraSans-Roman-65"/>
      <use x="247.755859375" xlink:href="#BitstreamVeraSans-Roman-2c"/>
      <use x="279.54296875" xlink:href="#BitstreamVeraSans-Roman-20"/>
      <use x="311.330078125" xlink:href="#BitstreamVeraSans-Roman-5b"/>
      <use x="350.34375" xlink:href="#BitstreamVeraSans-Roman-73"/>
      <use x="402.443359375" xlink:href="#BitstreamVeraSans-Roman-5d"/>
     </g>
    </g>
   </g>
   <g id="matplotlib.axis_2">
    <g id="ytick_1">
     <g id="line2d_21">
      <path clip-path="url(#pabed2331a9)" d="M 72 388.8 
L 518.4 388.8 
" style="fill:none;stroke:#000000;stroke-dasharray:1.000000,3.000000;stroke-dashoffset:0.0;stroke-width:0.5;"/>
     </g>
     <g id="line2d_22">
      <defs>
       <path d="M 0 0 
L 4 0 
" id="mc53e5741b4" style="stroke:#000000;stroke-width:0.5;"/>
      </defs>
      <g>
       <use style="stroke:#000000;stroke-width:0.5;" x="72.0" xlink:href="#mc53e5741b4" y="388.8"/>
      </g>
     </g>
     <g id="line2d_23">
      <defs>
       <path d="M 0 0 
L -4 0 
" id="m1f2c52c5fd" style="stroke:#000000;stroke-width:0.5;"/>
      </defs>
      <g>
       <use style="stroke:#000000;stroke-width:0.5;" x="518.4" xlink:href="#m1f2c52c5fd" y="388.8"/>
      </g>
     </g>
     <g id="text_8">
      <!-- 0.4 -->
      <defs>
       <path d="M 10.59375 35.5 
L 73.1875 35.5 
L 73.1875 27.203125 
L 10.59375 27.203125 
z
" id="BitstreamVeraSans-Roman-2212"/>
       <path d="M 10.6875 12.40625 
L 21 12.40625 
L 21 0 
L 10.6875 0 
z
" id="BitstreamVeraSans-Roman-2e"/>
       <path d="M 37.796875 64.3125 
L 12.890625 25.390625 
L 37.796875 25.390625 
z
M 35.203125 72.90625 
L 47.609375 72.90625 
L 47.609375 25.390625 
L 58.015625 25.390625 
L 58.015625 17.1875 
L 47.609375 17.1875 
L 47.609375 0 
L 37.796875 0 
L 37.796875 17.1875 
L 4.890625 17.1875 
L 4.890625 26.703125 
z
" id="BitstreamVeraSans-Roman-34"/>
      </defs>
      <g transform="translate(38.860625 392.11125)scale(0.12 -0.12)">
       <use xlink:href="#BitstreamVeraSans-Roman-2212"/>
       <use x="83.7890625" xlink:href="#BitstreamVeraSans-Roman-30"/>
       <use x="147.412109375" xlink:href="#BitstreamVeraSans-Roman-2e"/>
       <use x="179.19921875" xlink:href="#BitstreamVeraSans-Roman-34"/>
      </g>
     </g>
    </g>
    <g id="ytick_2">
     <g id="line2d_24">
      <path clip-path="url(#pabed2331a9)" d="M 72 339.428571 
L 518.4 339.428571 
" style="fill:none;stroke:#000000;stroke-dasharray:1.000000,3.000000;stroke-dashoffset:0.0;stroke-width:0.5;"/>
     </g>
     <g id="line2d_25">
      <g>
       <use style="stroke:#000000;stroke-width:0.5;" x="72.0" xlink:href="#mc53e5741b4" y="339.428571429"/>
      </g>
     </g>
     <g id="line2d_26">
      <g>
       <use style="stroke:#000000;stroke-width:0.5;" x="518.4" xlink:href="#m1f2c52c5fd" y="339.428571429"/>
      </g>
     </g>
     <g id="text_9">
      <!-- 0.3 -->
      <defs>
       <path d="M 40.578125 39.3125 
Q 47.65625 37.796875 51.625 33 
Q 55.609375 28.21875 55.609375 21.1875 
Q 55.609375 10.40625 48.1875 4.484375 
Q 40.765625 -1.421875 27.09375 -1.421875 
Q 22.515625 -1.421875 17.65625 -0.515625 
Q 12.796875 0.390625 7.625 2.203125 
L 7.625 11.71875 
Q 11.71875 9.328125 16.59375 8.109375 
Q 21.484375 6.890625 26.8125 6.890625 
Q 36.078125 6.890625 40.9375 10.546875 
Q 45.796875 14.203125 45.796875 21.1875 
Q 45.796875 27.640625 41.28125 31.265625 
Q 36.765625 34.90625 28.71875 34.90625 
L 20.21875 34.90625 
L 20.21875 43.015625 
L 29.109375 43.015625 
Q 36.375 43.015625 40.234375 45.921875 
Q 44.09375 48.828125 44.09375 54.296875 
Q 44.09375 59.90625 40.109375 62.90625 
Q 36.140625 65.921875 28.71875 65.921875 
Q 24.65625 65.921875 20.015625 65.03125 
Q 15.375 64.15625 9.8125 62.3125 
L 9.8125 71.09375 
Q 15.4375 72.65625 20.34375 73.4375 
Q 25.25 74.21875 29.59375 74.21875 
Q 40.828125 74.21875 47.359375 69.109375 
Q 53.90625 64.015625 53.90625 55.328125 
Q 53.90625 49.265625 50.4375 45.09375 
Q 46.96875 40.921875 40.578125 39.3125 
" id="BitstreamVeraSans-Roman-33"/>
      </defs>
      <g transform="translate(38.860625 342.739821429)scale(0.12 -0.12)">
       <use xlink:href="#BitstreamVeraSans-Roman-2212"/>
       <use x="83.7890625" xlink:href="#BitstreamVeraSans-Roman-30"/>
       <use x="147.412109375" xlink:href="#BitstreamVeraSans-Roman-2e"/>
       <use x="179.19921875" xlink:href="#BitstreamVeraSans-Roman-33"/>
      </g>
     </g>
    </g>
    <g id="ytick_3">
     <g id="line2d_27">
      <path clip-path="url(#pabed2331a9)" d="M 72 290.057143 
L 518.4 290.057143 
" style="fill:none;stroke:#000000;stroke-dasharray:1.000000,3.000000;stroke-dashoffset:0.0;stroke-width:0.5;"/>
     </g>
     <g id="line2d_28">
      <g>
       <use style="stroke:#000000;stroke-width:0.5;" x="72.0" xlink:href="#mc53e5741b4" y="290.057142857"/>
      </g>
     </g>
     <g id="line2d_29">
      <g>
       <use style="stroke:#000000;stroke-width:0.5;" x="518.4" xlink:href="#m1f2c52c5fd" y="290.057142857"/>
      </g>
     </g>
     <g id="text_10">
      <!-- 0.2 -->
      <g transform="translate(38.860625 293.368392857)scale(0.12 -0.12)">
       <use xlink:href="#BitstreamVeraSans-Roman-2212"/>
       <use x="83.7890625" xlink:href="#BitstreamVeraSans-Roman-30"/>
       <use x="147.412109375" xlink:href="#BitstreamVeraSans-Roman-2e"/>
       <use x="179.19921875" xlink:href="#BitstreamVeraSans-Roman-32"/>
      </g>
     </g>
    </g>
    <g id="ytick_4">
     <g id="line2d_30">
      <path clip-path="url(#pabed2331a9)" d="M 72 240.685714 
L 518.4 240.685714 
" style="fill:none;stroke:#000000;stroke-dasharray:1.000000,3.000000;stroke-dashoffset:0.0;stroke-width:0.5;"/>
     </g>
     <g id="line2d_31">
      <g>
       <use style="stroke:#000000;stroke-width:0.5;" x="72.0" xlink:href="#mc53e5741b4" y="240.685714286"/>
      </g>
     </g>
     <g id="line2d_32">
      <g>
       <use style="stroke:#000000;stroke-width:0.5;" x="518.4" xlink:href="#m1f2c52c5fd" y="240.685714286"/>
      </g>
     </g>
     <g id="text_11">
      <!-- 0.1 -->
      <g transform="translate(38.860625 243.996964286)scale(0.12 -0.12)">
       <use xlink:href="#BitstreamVeraSans-Roman-2212"/>
       <use x="83.7890625" xlink:href="#BitstreamVeraSans-Roman-30"/>
       <use x="147.412109375" xlink:href="#BitstreamVeraSans-Roman-2e"/>
       <use x="179.19921875" xlink:href="#BitstreamVeraSans-Roman-31"/>
      </g>
     </g>
    </g>
    <g id="ytick_5">
     <g id="line2d_33">
      <path clip-path="url(#pabed2331a9)" d="M 72 191.314286 
L 518.4 191.314286 
" style="fill:none;stroke:#000000;stroke-dasharray:1.000000,3.000000;stroke-dashoffset:0.0;stroke-width:0.5;"/>
     </g>
     <g id="line2d_34">
      <g>
       <use style="stroke:#000000;stroke-width:0.5;" x="72.0" xlink:href="#mc53e5741b4" y="191.314285714"/>
      </g>
     </g>
     <g id="line2d_35">
      <g>
       <use style="stroke:#000000;stroke-width:0.5;" x="518.4" xlink:href="#m1f2c52c5fd" y="191.314285714"/>
      </g>
     </g>
     <g id="text_12">
      <!-- 0.0 -->
      <g transform="translate(48.91625 194.625535714)scale(0.12 -0.12)">
       <use xlink:href="#BitstreamVeraSans-Roman-30"/>
       <use x="63.623046875" xlink:href="#BitstreamVeraSans-Roman-2e"/>
       <use x="95.41015625" xlink:href="#BitstreamVeraSans-Roman-30"/>
      </g>
     </g>
    </g>
    <g id="ytick_6">
     <g id="line2d_36">
      <path clip-path="url(#pabed2331a9)" d="M 72 141.942857 
L 518.4 141.942857 
" style="fill:none;stroke:#000000;stroke-dasharray:1.000000,3.000000;stroke-dashoffset:0.0;stroke-width:0.5;"/>
     </g>
     <g id="line2d_37">
      <g>
       <use style="stroke:#000000;stroke-width:0.5;" x="72.0" xlink:href="#mc53e5741b4" y="141.942857143"/>
      </g>
     </g>
     <g id="line2d_38">
      <g>
       <use style="stroke:#000000;stroke-width:0.5;" x="518.4" xlink:href="#m1f2c52c5fd" y="141.942857143"/>
      </g>
     </g>
     <g id="text_13">
      <!-- 0.1 -->
      <g transform="translate(48.91625 145.254107143)scale(0.12 -0.12)">
       <use xlink:href="#BitstreamVeraSans-Roman-30"/>
       <use x="63.623046875" xlink:href="#BitstreamVeraSans-Roman-2e"/>
       <use x="95.41015625" xlink:href="#BitstreamVeraSans-Roman-31"/>
      </g>
     </g>
    </g>
    <g id="ytick_7">
     <g id="line2d_39">
      <path clip-path="url(#pabed2331a9)" d="M 72 92.571429 
L 518.4 92.571429 
" style="fill:none;stroke:#000000;stroke-dasharray:1.000000,3.000000;stroke-dashoffset:0.0;stroke-width:0.5;"/>
     </g>
     <g id="line2d_40">
      <g>
       <use style="stroke:#000000;stroke-width:0.5;" x="72.0" xlink:href="#mc53e5741b4" y="92.5714285714"/>
      </g>
     </g>
     <g id="line2d_41">
      <g>
       <use style="stroke:#000000;stroke-width:0.5;" x="518.4" xlink:href="#m1f2c52c5fd" y="92.5714285714"/>
      </g>
     </g>
     <g id="text_14">
      <!-- 0.2 -->
      <g transform="translate(48.91625 95.8826785714)scale(0.12 -0.12)">
       <use xlink:href="#BitstreamVeraSans-Roman-30"/>
       <use x="63.623046875" xlink:href="#BitstreamVeraSans-Roman-2e"/>
       <use x="95.41015625" xlink:href="#BitstreamVeraSans-Roman-32"/>
      </g>
     </g>
    </g>
    <g id="ytick_8">
     <g id="line2d_42">
      <path clip-path="url(#pabed2331a9)" d="M 72 43.2 
L 518.4 43.2 
" style="fill:none;stroke:#000000;stroke-dasharray:1.000000,3.000000;stroke-dashoffset:0.0;stroke-width:0.5;"/>
     </g>
     <g id="line2d_43">
      <g>
       <use style="stroke:#000000;stroke-width:0.5;" x="72.0" xlink:href="#mc53e5741b4" y="43.2"/>
      </g>
     </g>
     <g id="line2d_44">
      <g>
       <use style="stroke:#000000;stroke-width:0.5;" x="518.4" xlink:href="#m1f2c52c5fd" y="43.2"/>
      </g>
     </g>
     <g id="text_15">
      <!-- 0.3 -->
      <g transform="translate(48.91625 46.51125)scale(0.12 -0.12)">
       <use xlink:href="#BitstreamVeraSans-Roman-30"/>
       <use x="63.623046875" xlink:href="#BitstreamVeraSans-Roman-2e"/>
       <use x="95.41015625" xlink:href="#BitstreamVeraSans-Roman-33"/>
      </g>
     </g>
    </g>
    <g id="text_16">
     <!-- Accel Cmd [m/s^2] -->
     <defs>
      <path d="M 46.6875 72.90625 
L 73.1875 45.703125 
L 63.375 45.703125 
L 41.890625 64.984375 
L 20.40625 45.703125 
L 10.59375 45.703125 
L 37.109375 72.90625 
z
" id="BitstreamVeraSans-Roman-5e"/>
      <path d="M 9.421875 75.984375 
L 18.40625 75.984375 
L 18.40625 0 
L 9.421875 0 
z
" id="BitstreamVeraSans-Roman-6c"/>
      <path d="M 64.40625 67.28125 
L 64.40625 56.890625 
Q 59.421875 61.53125 53.78125 63.8125 
Q 48.140625 66.109375 41.796875 66.109375 
Q 29.296875 66.109375 22.65625 58.46875 
Q 16.015625 50.828125 16.015625 36.375 
Q 16.015625 21.96875 22.65625 14.328125 
Q 29.296875 6.6875 41.796875 6.6875 
Q 48.140625 6.6875 53.78125 8.984375 
Q 59.421875 11.28125 64.40625 15.921875 
L 64.40625 5.609375 
Q 59.234375 2.09375 53.4375 0.328125 
Q 47.65625 -1.421875 41.21875 -1.421875 
Q 24.65625 -1.421875 15.125 8.703125 
Q 5.609375 18.84375 5.609375 36.375 
Q 5.609375 53.953125 15.125 64.078125 
Q 24.65625 74.21875 41.21875 74.21875 
Q 47.75 74.21875 53.53125 72.484375 
Q 59.328125 70.75 64.40625 67.28125 
" id="BitstreamVeraSans-Roman-43"/>
      <path d="M 34.1875 63.1875 
L 20.796875 26.90625 
L 47.609375 26.90625 
z
M 28.609375 72.90625 
L 39.796875 72.90625 
L 67.578125 0 
L 57.328125 0 
L 50.6875 18.703125 
L 17.828125 18.703125 
L 11.1875 0 
L 0.78125 0 
z
" id="BitstreamVeraSans-Roman-41"/>
      <path d="M 25.390625 72.90625 
L 33.6875 72.90625 
L 8.296875 -9.28125 
L 0 -9.28125 
z
" id="BitstreamVeraSans-Roman-2f"/>
      <path d="M 45.40625 46.390625 
L 45.40625 75.984375 
L 54.390625 75.984375 
L 54.390625 0 
L 45.40625 0 
L 45.40625 8.203125 
Q 42.578125 3.328125 38.25 0.953125 
Q 33.9375 -1.421875 27.875 -1.421875 
Q 17.96875 -1.421875 11.734375 6.484375 
Q 5.515625 14.40625 5.515625 27.296875 
Q 5.515625 40.1875 11.734375 48.09375 
Q 17.96875 56 27.875 56 
Q 33.9375 56 38.25 53.625 
Q 42.578125 51.265625 45.40625 46.390625 
M 14.796875 27.296875 
Q 14.796875 17.390625 18.875 11.75 
Q 22.953125 6.109375 30.078125 6.109375 
Q 37.203125 6.109375 41.296875 11.75 
Q 45.40625 17.390625 45.40625 27.296875 
Q 45.40625 37.203125 41.296875 42.84375 
Q 37.203125 48.484375 30.078125 48.484375 
Q 22.953125 48.484375 18.875 42.84375 
Q 14.796875 37.203125 14.796875 27.296875 
" id="BitstreamVeraSans-Roman-64"/>
      <path d="M 48.78125 52.59375 
L 48.78125 44.1875 
Q 44.96875 46.296875 41.140625 47.34375 
Q 37.3125 48.390625 33.40625 48.390625 
Q 24.65625 48.390625 19.8125 42.84375 
Q 14.984375 37.3125 14.984375 27.296875 
Q 14.984375 17.28125 19.8125 11.734375 
Q 24.65625 6.203125 33.40625 6.203125 
Q 37.3125 6.203125 41.140625 7.25 
Q 44.96875 8.296875 48.78125 10.40625 
L 48.78125 2.09375 
Q 45.015625 0.34375 40.984375 -0.53125 
Q 36.96875 -1.421875 32.421875 -1.421875 
Q 20.0625 -1.421875 12.78125 6.34375 
Q 5.515625 14.109375 5.515625 27.296875 
Q 5.515625 40.671875 12.859375 48.328125 
Q 20.21875 56 33.015625 56 
Q 37.15625 56 41.109375 55.140625 
Q 45.0625 54.296875 48.78125 52.59375 
" id="BitstreamVeraSans-Roman-63"/>
     </defs>
     <g transform="translate(31.365 274.235625)rotate(-90.0)scale(0.12 -0.12)">
      <use xlink:href="#BitstreamVeraSans-Roman-41"/>
      <use x="68.392578125" xlink:href="#BitstreamVeraSans-Roman-63"/>
      <use x="123.373046875" xlink:href="#BitstreamVeraSans-Roman-63"/>
      <use x="178.353515625" xlink:href="#BitstreamVeraSans-Roman-65"/>
      <use x="239.876953125" xlink:href="#BitstreamVeraSans-Roman-6c"/>
      <use x="267.66015625" xlink:href="#BitstreamVeraSans-Roman-20"/>
      <use x="299.447265625" xlink:href="#BitstreamVeraSans-Roman-43"/>
      <use x="369.271484375" xlink:href="#BitstreamVeraSans-Roman-6d"/>
      <use x="466.68359375" xlink:href="#BitstreamVeraSans-Roman-64"/>
      <use x="530.16015625" xlink:href="#BitstreamVeraSans-Roman-20"/>
      <use x="561.947265625" xlink:href="#BitstreamVeraSans-Roman-5b"/>
      <use x="600.9609375" xlink:href="#BitstreamVeraSans-Roman-6d"/>
      <use x="698.373046875" xlink:href="#BitstreamVeraSans-Roman-2f"/>
      <use x="732.064453125" xlink:href="#BitstreamVeraSans-Roman-73"/>
      <use x="784.1640625" xlink:href="#BitstreamVeraSans-Roman-5e"/>
      <use x="867.953125" xlink:href="#BitstreamVeraSans-Roman-32"/>
      <use x="931.576171875" xlink:href="#BitstreamVeraSans-Roman-5d"/>
     </g>
    </g>
   </g>
   <g id="legend_1">
    <g id="patch_7">
     <path d="M 79.2 96.993 
L 218.727 96.993 
L 218.727 50.4 
L 79.2 50.4 
z
" style="fill:#ffffff;stroke:#000000;stroke-linejoin:miter;"/>
    </g>
    <g id="line2d_45">
     <path d="M 89.28 62.06175 
L 109.44 62.06175 
" style="fill:none;stroke:#008000;stroke-linecap:square;"/>
    </g>
    <g id="line2d_46"/>
    <g id="text_17">
     <!-- Proportional -->
     <defs>
      <path d="M 54.890625 33.015625 
L 54.890625 0 
L 45.90625 0 
L 45.90625 32.71875 
Q 45.90625 40.484375 42.875 44.328125 
Q 39.84375 48.1875 33.796875 48.1875 
Q 26.515625 48.1875 22.3125 43.546875 
Q 18.109375 38.921875 18.109375 30.90625 
L 18.109375 0 
L 9.078125 0 
L 9.078125 54.6875 
L 18.109375 54.6875 
L 18.109375 46.1875 
Q 21.34375 51.125 25.703125 53.5625 
Q 30.078125 56 35.796875 56 
Q 45.21875 56 50.046875 50.171875 
Q 54.890625 44.34375 54.890625 33.015625 
" id="BitstreamVeraSans-Roman-6e"/>
      <path d="M 34.28125 27.484375 
Q 23.390625 27.484375 19.1875 25 
Q 14.984375 22.515625 14.984375 16.5 
Q 14.984375 11.71875 18.140625 8.90625 
Q 21.296875 6.109375 26.703125 6.109375 
Q 34.1875 6.109375 38.703125 11.40625 
Q 43.21875 16.703125 43.21875 25.484375 
L 43.21875 27.484375 
z
M 52.203125 31.203125 
L 52.203125 0 
L 43.21875 0 
L 43.21875 8.296875 
Q 40.140625 3.328125 35.546875 0.953125 
Q 30.953125 -1.421875 24.3125 -1.421875 
Q 15.921875 -1.421875 10.953125 3.296875 
Q 6 8.015625 6 15.921875 
Q 6 25.140625 12.171875 29.828125 
Q 18.359375 34.515625 30.609375 34.515625 
L 43.21875 34.515625 
L 43.21875 35.40625 
Q 43.21875 41.609375 39.140625 45 
Q 35.0625 48.390625 27.6875 48.390625 
Q 23 48.390625 18.546875 47.265625 
Q 14.109375 46.140625 10.015625 43.890625 
L 10.015625 52.203125 
Q 14.9375 54.109375 19.578125 55.046875 
Q 24.21875 56 28.609375 56 
Q 40.484375 56 46.34375 49.84375 
Q 52.203125 43.703125 52.203125 31.203125 
" id="BitstreamVeraSans-Roman-61"/>
      <path d="M 30.609375 48.390625 
Q 23.390625 48.390625 19.1875 42.75 
Q 14.984375 37.109375 14.984375 27.296875 
Q 14.984375 17.484375 19.15625 11.84375 
Q 23.34375 6.203125 30.609375 6.203125 
Q 37.796875 6.203125 41.984375 11.859375 
Q 46.1875 17.53125 46.1875 27.296875 
Q 46.1875 37.015625 41.984375 42.703125 
Q 37.796875 48.390625 30.609375 48.390625 
M 30.609375 56 
Q 42.328125 56 49.015625 48.375 
Q 55.71875 40.765625 55.71875 27.296875 
Q 55.71875 13.875 49.015625 6.21875 
Q 42.328125 -1.421875 30.609375 -1.421875 
Q 18.84375 -1.421875 12.171875 6.21875 
Q 5.515625 13.875 5.515625 27.296875 
Q 5.515625 40.765625 12.171875 48.375 
Q 18.84375 56 30.609375 56 
" id="BitstreamVeraSans-Roman-6f"/>
      <path d="M 19.671875 64.796875 
L 19.671875 37.40625 
L 32.078125 37.40625 
Q 38.96875 37.40625 42.71875 40.96875 
Q 46.484375 44.53125 46.484375 51.125 
Q 46.484375 57.671875 42.71875 61.234375 
Q 38.96875 64.796875 32.078125 64.796875 
z
M 9.8125 72.90625 
L 32.078125 72.90625 
Q 44.34375 72.90625 50.609375 67.359375 
Q 56.890625 61.8125 56.890625 51.125 
Q 56.890625 40.328125 50.609375 34.8125 
Q 44.34375 29.296875 32.078125 29.296875 
L 19.671875 29.296875 
L 19.671875 0 
L 9.8125 0 
z
" id="BitstreamVeraSans-Roman-50"/>
      <path d="M 18.3125 70.21875 
L 18.3125 54.6875 
L 36.8125 54.6875 
L 36.8125 47.703125 
L 18.3125 47.703125 
L 18.3125 18.015625 
Q 18.3125 11.328125 20.140625 9.421875 
Q 21.96875 7.515625 27.59375 7.515625 
L 36.8125 7.515625 
L 36.8125 0 
L 27.59375 0 
Q 17.1875 0 13.234375 3.875 
Q 9.28125 7.765625 9.28125 18.015625 
L 9.28125 47.703125 
L 2.6875 47.703125 
L 2.6875 54.6875 
L 9.28125 54.6875 
L 9.28125 70.21875 
z
" id="BitstreamVeraSans-Roman-74"/>
      <path d="M 41.109375 46.296875 
Q 39.59375 47.171875 37.8125 47.578125 
Q 36.03125 48 33.890625 48 
Q 26.265625 48 22.1875 43.046875 
Q 18.109375 38.09375 18.109375 28.8125 
L 18.109375 0 
L 9.078125 0 
L 9.078125 54.6875 
L 18.109375 54.6875 
L 18.109375 46.1875 
Q 20.953125 51.171875 25.484375 53.578125 
Q 30.03125 56 36.53125 56 
Q 37.453125 56 38.578125 55.875 
Q 39.703125 55.765625 41.0625 55.515625 
z
" id="BitstreamVeraSans-Roman-72"/>
      <path d="M 18.109375 8.203125 
L 18.109375 -20.796875 
L 9.078125 -20.796875 
L 9.078125 54.6875 
L 18.109375 54.6875 
L 18.109375 46.390625 
Q 20.953125 51.265625 25.265625 53.625 
Q 29.59375 56 35.59375 56 
Q 45.5625 56 51.78125 48.09375 
Q 58.015625 40.1875 58.015625 27.296875 
Q 58.015625 14.40625 51.78125 6.484375 
Q 45.5625 -1.421875 35.59375 -1.421875 
Q 29.59375 -1.421875 25.265625 0.953125 
Q 20.953125 3.328125 18.109375 8.203125 
M 48.6875 27.296875 
Q 48.6875 37.203125 44.609375 42.84375 
Q 40.53125 48.484375 33.40625 48.484375 
Q 26.265625 48.484375 22.1875 42.84375 
Q 18.109375 37.203125 18.109375 27.296875 
Q 18.109375 17.390625 22.1875 11.75 
Q 26.265625 6.109375 33.40625 6.109375 
Q 40.53125 6.109375 44.609375 11.75 
Q 48.6875 17.390625 48.6875 27.296875 
" id="BitstreamVeraSans-Roman-70"/>
     </defs>
     <g transform="translate(125.28 67.10175)scale(0.144 -0.144)">
      <use xlink:href="#BitstreamVeraSans-Roman-50"/>
      <use x="60.287109375" xlink:href="#BitstreamVeraSans-Roman-72"/>
      <use x="101.369140625" xlink:href="#BitstreamVeraSans-Roman-6f"/>
      <use x="162.55078125" xlink:href="#BitstreamVeraSans-Roman-70"/>
      <use x="226.02734375" xlink:href="#BitstreamVeraSans-Roman-6f"/>
      <use x="287.208984375" xlink:href="#BitstreamVeraSans-Roman-72"/>
      <use x="328.322265625" xlink:href="#BitstreamVeraSans-Roman-74"/>
      <use x="367.53125" xlink:href="#BitstreamVeraSans-Roman-69"/>
      <use x="395.314453125" xlink:href="#BitstreamVeraSans-Roman-6f"/>
      <use x="456.49609375" xlink:href="#BitstreamVeraSans-Roman-6e"/>
      <use x="519.875" xlink:href="#BitstreamVeraSans-Roman-61"/>
      <use x="581.154296875" xlink:href="#BitstreamVeraSans-Roman-6c"/>
     </g>
    </g>
    <g id="line2d_47">
     <path d="M 89.28 83.19825 
L 109.44 83.19825 
" style="fill:none;stroke:#0000ff;stroke-linecap:square;"/>
    </g>
    <g id="line2d_48"/>
    <g id="text_18">
     <!-- Integral -->
     <defs>
      <path d="M 45.40625 27.984375 
Q 45.40625 37.75 41.375 43.109375 
Q 37.359375 48.484375 30.078125 48.484375 
Q 22.859375 48.484375 18.828125 43.109375 
Q 14.796875 37.75 14.796875 27.984375 
Q 14.796875 18.265625 18.828125 12.890625 
Q 22.859375 7.515625 30.078125 7.515625 
Q 37.359375 7.515625 41.375 12.890625 
Q 45.40625 18.265625 45.40625 27.984375 
M 54.390625 6.78125 
Q 54.390625 -7.171875 48.1875 -13.984375 
Q 42 -20.796875 29.203125 -20.796875 
Q 24.46875 -20.796875 20.265625 -20.09375 
Q 16.0625 -19.390625 12.109375 -17.921875 
L 12.109375 -9.1875 
Q 16.0625 -11.328125 19.921875 -12.34375 
Q 23.78125 -13.375 27.78125 -13.375 
Q 36.625 -13.375 41.015625 -8.765625 
Q 45.40625 -4.15625 45.40625 5.171875 
L 45.40625 9.625 
Q 42.625 4.78125 38.28125 2.390625 
Q 33.9375 0 27.875 0 
Q 17.828125 0 11.671875 7.65625 
Q 5.515625 15.328125 5.515625 27.984375 
Q 5.515625 40.671875 11.671875 48.328125 
Q 17.828125 56 27.875 56 
Q 33.9375 56 38.28125 53.609375 
Q 42.625 51.21875 45.40625 46.390625 
L 45.40625 54.6875 
L 54.390625 54.6875 
z
" id="BitstreamVeraSans-Roman-67"/>
      <path d="M 9.8125 72.90625 
L 19.671875 72.90625 
L 19.671875 0 
L 9.8125 0 
z
" id="BitstreamVeraSans-Roman-49"/>
     </defs>
     <g transform="translate(125.28 88.23825)scale(0.144 -0.144)">
      <use xlink:href="#BitstreamVeraSans-Roman-49"/>
      <use x="29.4921875" xlink:href="#BitstreamVeraSans-Roman-6e"/>
      <use x="92.87109375" xlink:href="#BitstreamVeraSans-Roman-74"/>
      <use x="132.080078125" xlink:href="#BitstreamVeraSans-Roman-65"/>
      <use x="193.603515625" xlink:href="#BitstreamVeraSans-Roman-67"/>
      <use x="257.080078125" xlink:href="#BitstreamVeraSans-Roman-72"/>
      <use x="298.193359375" xlink:href="#BitstreamVeraSans-Roman-61"/>
      <use x="359.47265625" xlink:href="#BitstreamVeraSans-Roman-6c"/>
     </g>
    </g>
   </g>
  </g>
 </g>
 <defs>
  <clipPath id="pabed2331a9">
   <rect height="345.6" width="446.4" x="72.0" y="43.2"/>
  </clipPath>
 </defs>
</svg>
