<?xml version="1.0" encoding="utf-8" standalone="no"?>
<!DOCTYPE svg PUBLIC "-//W3C//DTD SVG 1.1//EN"
  "http://www.w3.org/Graphics/SVG/1.1/DTD/svg11.dtd">
<!-- Created with matplotlib (http://matplotlib.org/) -->
<svg height="432pt" version="1.1" viewBox="0 0 576 432" width="576pt" xmlns="http://www.w3.org/2000/svg" xmlns:xlink="http://www.w3.org/1999/xlink">
 <defs>
  <style type="text/css">
*{stroke-linecap:butt;stroke-linejoin:round;stroke-miterlimit:100000;}
  </style>
 </defs>
 <g id="figure_1">
  <g id="patch_1">
   <path d="M 0 432 
L 576 432 
L 576 0 
L 0 0 
z
" style="fill:#ffffff;"/>
  </g>
  <g id="axes_1">
   <g id="patch_2">
    <path d="M 72 388.8 
L 518.4 388.8 
L 518.4 43.2 
L 72 43.2 
z
" style="fill:#ffffff;"/>
   </g>
   <g id="line2d_1">
    <path clip-path="url(#p2f6a8c6dec)" d="M 72.17856 98.84996 
L 96.1056 101.287355 
L 99.14112 101.050083 
L 104.31936 100.953516 
L 112.35456 100.995934 
L 170.74368 101.646527 
L 178.77888 101.43108 
L 183.95712 101.471122 
L 187.88544 101.764096 
L 215.7408 104.779411 
L 219.13344 105.670381 
L 227.16864 107.711046 
L 232.16832 108.745573 
L 233.77536 108.927811 
L 236.63232 109.052545 
L 239.8464 108.972262 
L 243.23904 108.683043 
L 247.34592 108.117985 
L 252.52416 107.152452 
L 257.88096 105.906938 
L 265.55904 103.852917 
L 295.55712 95.736285 
L 299.30688 94.920986 
L 302.3424 94.537522 
L 305.55648 94.377749 
L 308.94912 94.421715 
L 312.87744 94.704178 
L 324.30528 95.921266 
L 344.66112 98.200974 
L 348.41088 99.183761 
L 361.98144 102.912972 
L 373.05216 105.924433 
L 377.69472 106.937417 
L 380.37312 107.339625 
L 383.40864 107.475516 
L 386.62272 107.388343 
L 390.37248 107.056845 
L 394.65792 106.426903 
L 399.30048 105.477826 
L 408.04992 103.411423 
L 423.22752 99.522738 
L 441.26208 94.873049 
L 444.11904 94.454618 
L 447.33312 94.239676 
L 450.90432 94.24523 
L 455.18976 94.485619 
L 461.08224 95.084027 
L 487.33056 97.99587 
L 490.36608 98.784098 
L 505.72224 102.990092 
L 518.4 106.527066 
L 518.4 106.527066 
" style="fill:none;stroke:#ff0000;stroke-linecap:square;"/>
   </g>
   <g id="line2d_2">
    <path clip-path="url(#p2f6a8c6dec)" d="M 72.17856 388.8 
L 72.35712 98.844699 
L 73.60704 98.951387 
L 74.32128 99.058093 
L 76.99968 99.351479 
L 78.07104 99.458166 
L 80.21376 99.671542 
L 81.10656 99.778248 
L 83.6064 100.044957 
L 84.67776 100.151645 
L 86.82048 100.365038 
L 87.89184 100.471726 
L 90.39168 100.738436 
L 91.46304 100.845142 
L 94.49856 101.191881 
L 95.74848 101.298568 
L 100.39104 102.211837 
L 106.10496 102.290521 
L 106.46208 102.355341 
L 167.17248 102.277432 
L 168.95808 101.965813 
L 169.49376 101.887922 
L 170.74368 101.693185 
L 172.17216 101.596674 
L 173.24352 101.535818 
L 174.672 101.774948 
L 181.45728 101.882557 
L 214.31232 109.238357 
L 217.16928 109.810325 
L 227.16864 109.732416 
L 236.45376 107.750723 
L 236.81088 107.671357 
L 247.16736 105.291968 
L 247.8816 105.093987 
L 252.52416 103.986663 
L 253.2384 103.789198 
L 255.024 103.355055 
L 255.55968 103.118396 
L 258.95232 102.291074 
L 259.66656 102.094346 
L 260.55936 101.858424 
L 260.91648 101.701205 
L 265.91616 100.524194 
L 266.6304 100.328425 
L 272.34432 99.000168 
L 273.05856 98.805265 
L 282.87936 96.553028 
L 283.5936 96.359618 
L 294.84288 94.00945 
L 295.37856 93.932702 
L 296.9856 93.676224 
L 300.02112 94.254092 
L 300.73536 94.331504 
L 311.80608 96.640911 
L 312.1632 96.719963 
L 314.66304 97.195365 
L 315.19872 97.27486 
L 318.23424 97.872344 
L 318.76992 97.952318 
L 321.0912 98.392858 
L 321.62688 98.473109 
L 323.7696 98.875413 
L 324.30528 98.956125 
L 326.448 99.360181 
L 326.98368 99.441132 
L 342.5184 102.887009 
L 342.69696 102.887009 
L 343.05408 103.094946 
L 363.76704 107.826807 
L 372.8736 107.78953 
L 373.58784 107.592673 
L 393.22944 103.170071 
L 394.12224 102.893959 
L 397.15776 102.145155 
L 398.05056 101.869541 
L 438.76224 92.931716 
L 439.11936 92.931735 
L 440.19072 93.018419 
L 449.29728 94.884428 
L 449.83296 94.962817 
L 453.93984 95.787834 
L 454.47552 95.866795 
L 457.15392 96.381649 
L 457.6896 96.461033 
L 465.01056 97.979805 
L 465.54624 98.06037 
L 467.5104 98.423277 
L 468.04608 98.504099 
L 493.58016 104.395936 
L 511.79328 108.56042 
L 518.4 108.646294 
L 518.4 108.646294 
" style="fill:none;stroke:#bfbf00;stroke-dasharray:6.000000,6.000000;stroke-dashoffset:0.0;"/>
   </g>
   <g id="line2d_3">
    <path clip-path="url(#p2f6a8c6dec)" d="M 72.17856 388.8 
L 72.53568 388.8 
L 72.71424 300.344954 
L 73.07136 300.344954 
L 73.24992 102.226531 
L 75.21408 102.44634 
L 75.39264 102.169749 
L 78.07104 102.438431 
L 78.2496 102.186249 
L 79.32096 102.283958 
L 81.10656 102.430485 
L 81.28512 102.190544 
L 83.78496 102.434799 
L 83.96352 102.19484 
L 85.21344 102.292531 
L 86.82048 102.439076 
L 86.99904 102.151663 
L 88.0704 102.249354 
L 89.49888 102.371454 
L 89.67744 102.168163 
L 91.46304 102.265836 
L 92.17728 102.363545 
L 92.5344 102.387935 
L 92.71296 102.125005 
L 94.85568 102.320332 
L 95.39136 102.369168 
L 95.56992 102.092669 
L 96.81984 102.21475 
L 96.9984 102.466822 
L 99.49824 102.236246 
L 102.3552 102.127752 
L 103.248 102.103343 
L 105.74784 102.078953 
L 105.9264 102.355341 
L 107.53344 102.320055 
L 107.712 102.043704 
L 126.28224 102.133117 
L 126.99648 102.122221 
L 130.38912 102.170984 
L 130.56768 101.894817 
L 150.5664 101.986663 
L 150.74496 101.710717 
L 171.27936 101.621009 
L 172.35072 101.57232 
L 173.24352 101.535818 
L 173.42208 101.799283 
L 176.81472 101.690991 
L 179.67168 101.607053 
L 180.0288 101.607053 
L 180.20736 101.882557 
L 181.45728 101.858222 
L 181.63584 102.133651 
L 182.52864 102.133651 
L 182.7072 102.409007 
L 183.6 102.433324 
L 183.77856 102.708588 
L 185.20704 102.721714 
L 185.3856 102.996831 
L 186.63552 103.045409 
L 186.81408 103.344731 
L 188.064 103.441851 
L 188.42112 103.490392 
L 188.59968 103.789567 
L 189.67104 103.886631 
L 190.02816 103.910911 
L 190.20672 104.185677 
L 190.92096 104.270592 
L 193.4208 104.501002 
L 193.59936 104.824088 
L 195.02784 104.92106 
L 195.38496 104.993789 
L 195.56352 105.292466 
L 196.81344 105.389383 
L 197.34912 105.413626 
L 197.52768 105.73638 
L 198.59904 105.83326 
L 199.31328 105.881709 
L 199.49184 106.21617 
L 200.92032 106.361425 
L 201.09888 106.659733 
L 202.17024 106.756539 
L 202.70592 106.780745 
L 202.88448 107.103094 
L 203.95584 107.199863 
L 204.49152 107.248239 
L 204.67008 107.546271 
L 205.56288 107.655097 
L 206.45568 107.75181 
L 206.63424 108.04975 
L 208.06272 108.194766 
L 208.24128 108.468407 
L 209.84832 108.673966 
L 210.02688 108.947515 
L 211.81248 109.116571 
L 211.99104 109.389991 
L 213.59808 109.571435 
L 213.77664 109.868933 
L 215.7408 110.086105 
L 215.91936 109.849483 
L 216.45504 109.970182 
L 216.6336 109.745081 
L 216.99072 109.817515 
L 217.16928 109.568246 
L 217.5264 109.664831 
L 217.70496 109.439675 
L 218.06208 109.512109 
L 218.24064 109.286917 
L 218.59776 109.383538 
L 218.77632 109.134158 
L 219.13344 109.23078 
L 219.312 109.005532 
L 219.84768 109.126305 
L 220.02624 108.937523 
L 220.38336 109.010012 
L 220.56192 108.784672 
L 220.91904 108.881349 
L 221.0976 108.655954 
L 221.45472 108.72848 
L 221.63328 108.503029 
L 221.9904 108.599762 
L 222.16896 108.350105 
L 223.24032 108.616096 
L 223.41888 108.390627 
L 223.776 108.463171 
L 223.95456 108.237666 
L 224.31168 108.310247 
L 224.49024 108.084704 
L 224.84736 108.157267 
L 225.02592 107.931706 
L 225.5616 108.016326 
L 225.74016 107.790765 
L 226.09728 107.814953 
L 226.27584 107.613561 
L 227.52576 107.593613 
L 227.70432 107.355848 
L 228.06144 107.428448 
L 228.24 107.178551 
L 228.59712 107.25117 
L 228.77568 107.025424 
L 229.1328 107.098061 
L 229.31136 106.896522 
L 229.66848 106.920709 
L 229.84704 106.682999 
L 230.38272 106.755654 
L 230.56128 106.804085 
L 230.73984 106.554041 
L 230.9184 106.578266 
L 231.09696 106.376634 
L 231.63264 106.473532 
L 231.8112 106.223433 
L 232.34688 106.284271 
L 232.52544 106.058397 
L 233.06112 106.13107 
L 233.23968 105.880934 
L 233.77536 105.953626 
L 233.95392 105.703435 
L 234.66816 105.715935 
L 234.84672 105.465725 
L 235.73952 105.514211 
L 235.91808 105.239703 
L 236.63232 105.22807 
L 236.81088 104.953544 
L 237.88224 104.941947 
L 238.0608 104.667384 
L 238.9536 104.643141 
L 239.13216 104.368504 
L 240.56064 104.284253 
L 240.7392 104.009561 
L 242.16768 103.901103 
L 242.34624 103.602094 
L 243.23904 103.493692 
L 243.77472 103.445151 
L 243.95328 103.110505 
L 245.91744 102.856553 
L 246.096 102.557415 
L 248.59584 102.170947 
L 248.7744 101.847418 
L 250.20288 101.593503 
L 250.73856 101.436763 
L 251.27424 101.388203 
L 251.80992 101.231499 
L 252.3456 101.158623 
L 252.52416 100.859263 
L 253.2384 100.654 
L 253.95264 100.556825 
L 254.84544 100.302984 
L 256.09536 100.024881 
L 261.98784 98.513133 
L 262.1664 98.513133 
L 262.52352 98.308072 
L 275.37984 94.725973 
L 275.91552 94.54558 
L 276.4512 94.496872 
L 278.05824 93.941293 
L 287.1648 91.461006 
L 287.34336 91.688411 
L 287.70048 91.581465 
L 287.87904 91.808796 
L 288.23616 91.711271 
L 288.41472 91.938565 
L 288.77184 91.865449 
L 288.9504 92.010077 
L 289.48608 91.961352 
L 289.66464 92.164181 
L 290.02176 92.066712 
L 290.20032 92.31823 
L 290.55744 92.186894 
L 290.736 92.389613 
L 291.09312 92.36526 
L 291.27168 92.616649 
L 291.80736 92.446211 
L 291.98592 92.639252 
L 292.16448 92.566209 
L 292.34304 92.793172 
L 292.70016 92.720166 
L 292.87872 92.947055 
L 293.4144 92.874068 
L 293.59296 93.100938 
L 293.95008 92.9939 
L 294.12864 93.220678 
L 294.66432 93.099076 
L 294.84288 93.277202 
L 295.2 93.265034 
L 295.37856 93.528241 
L 295.73568 93.406694 
L 295.91424 93.406694 
L 296.62848 93.752899 
L 296.9856 93.631389 
L 297.16416 93.882299 
L 297.52128 93.785087 
L 297.69984 94.035942 
L 297.8784 94.011663 
L 298.05696 94.189586 
L 298.41408 94.116691 
L 298.59264 94.068131 
L 298.7712 94.318894 
L 299.30688 94.199615 
L 299.48544 94.462435 
L 300.19968 94.365334 
L 300.37824 94.591687 
L 300.91392 94.543146 
L 301.09248 94.769463 
L 301.4496 94.74522 
L 301.62816 94.94722 
L 302.3424 94.898698 
L 302.52096 95.100661 
L 302.87808 95.084474 
L 303.05664 95.35111 
L 303.94944 95.302606 
L 304.128 95.553 
L 305.0208 95.504514 
L 305.19936 95.779096 
L 307.16352 95.730591 
L 307.34208 96.005118 
L 308.41344 96.005118 
L 308.592 96.303795 
L 309.66336 96.32802 
L 309.84192 96.602362 
L 311.09184 96.650792 
L 311.2704 96.949267 
L 312.87744 97.034016 
L 313.056 97.344455 
L 314.12736 97.45188 
L 314.48448 97.488198 
L 314.66304 97.774358 
L 315.7344 97.846939 
L 316.27008 97.943708 
L 316.44864 98.229739 
L 318.4128 98.411109 
L 318.59136 98.709068 
L 320.01984 98.889185 
L 320.1984 99.187051 
L 321.26976 99.25954 
L 321.80544 99.319954 
L 321.984 99.605597 
L 322.69824 99.690143 
L 323.41248 99.809902 
L 323.94816 99.809902 
L 324.12672 100.131679 
L 325.73376 100.252415 
L 325.91232 100.633536 
L 327.16224 100.742141 
L 327.51936 100.754217 
L 327.69792 101.05164 
L 329.1264 101.255963 
L 329.30496 101.553276 
L 330.912 101.697978 
L 331.09056 102.030743 
L 332.6976 102.17539 
L 332.87616 102.472482 
L 334.4832 102.676879 
L 334.66176 102.973841 
L 336.2688 103.154161 
L 336.44736 103.45105 
L 337.1616 103.535043 
L 337.87584 103.631388 
L 338.0544 103.631388 
L 338.23296 103.928185 
L 340.19712 104.132656 
L 340.37568 104.453419 
L 341.26848 104.561618 
L 341.80416 104.609772 
L 341.98272 104.906385 
L 344.12544 105.110892 
L 344.304 105.407413 
L 345.73248 105.708173 
L 347.16096 106.081054 
L 358.23168 109.051456 
L 358.41024 108.82759 
L 358.76736 108.875597 
L 358.94592 108.712367 
L 359.4816 108.856461 
L 359.66016 108.680529 
L 359.83872 108.70455 
L 360.01728 108.432494 
L 360.19584 108.432494 
L 360.3744 108.613275 
L 360.55296 108.613275 
L 360.73152 108.389207 
L 360.91008 108.389207 
L 361.08864 108.237186 
L 361.62432 108.333329 
L 361.80288 108.157267 
L 361.98144 108.205348 
L 362.16 107.957148 
L 362.51712 108.113888 
L 362.69568 107.889636 
L 363.0528 107.961793 
L 363.23136 107.737504 
L 363.58848 107.83372 
L 363.76704 107.609431 
L 364.12416 107.705647 
L 364.30272 107.481303 
L 364.65984 107.553497 
L 364.8384 107.329116 
L 365.19552 107.425369 
L 365.37408 107.200969 
L 365.7312 107.333633 
L 365.90976 107.085082 
L 366.44544 107.181372 
L 366.624 106.956862 
L 366.98112 107.05317 
L 367.15968 106.828623 
L 367.69536 106.949045 
L 367.87392 106.724461 
L 368.23104 106.820825 
L 368.4096 106.596204 
L 368.76672 106.692567 
L 368.94528 106.467928 
L 369.12384 106.492042 
L 369.3024 106.315538 
L 369.83808 106.363729 
L 370.01664 106.16313 
L 370.90944 106.380008 
L 371.088 106.155295 
L 371.26656 106.203504 
L 371.44512 106.00285 
L 371.9808 106.099269 
L 372.15936 106.147478 
L 372.33792 105.898596 
L 372.51648 105.898596 
L 372.69504 105.746114 
L 373.05216 105.842551 
L 373.23072 105.617727 
L 373.7664 105.714183 
L 373.94496 105.489323 
L 374.30208 105.561664 
L 374.48064 105.336749 
L 374.83776 105.409127 
L 375.01632 105.184174 
L 375.552 105.244625 
L 375.73056 105.019709 
L 376.26624 105.09207 
L 376.4448 104.842966 
L 376.98048 104.939495 
L 377.15904 104.714487 
L 377.3376 104.762734 
L 377.51616 104.513556 
L 378.05184 104.634237 
L 378.2304 104.385023 
L 378.94464 104.445676 
L 379.1232 104.196462 
L 379.48032 104.268877 
L 379.65888 104.019608 
L 380.37312 104.116193 
L 380.55168 103.866886 
L 381.26592 103.879367 
L 381.44448 103.630043 
L 382.15872 103.678326 
L 382.33728 103.428964 
L 383.40864 103.417386 
L 383.5872 103.143819 
L 384.30144 103.167988 
L 384.48 102.894365 
L 385.55136 102.834541 
L 385.72992 102.560881 
L 386.80128 102.501112 
L 386.97984 102.203228 
L 388.22976 102.154889 
L 388.40832 101.821406 
L 389.47968 101.748879 
L 390.01536 101.665052 
L 390.19392 101.36702 
L 391.08672 101.306551 
L 391.6224 101.210704 
L 391.97952 101.162328 
L 392.15808 100.864204 
L 394.83648 100.454894 
L 395.01504 100.156696 
L 396.44352 99.855254 
L 396.9792 99.771703 
L 398.7648 99.349285 
L 398.94336 99.050903 
L 399.47904 98.94322 
L 400.72896 98.701066 
L 401.26464 98.54499 
L 402.15744 98.340519 
L 402.69312 98.219415 
L 405.19296 97.616751 
L 405.55008 97.544077 
L 406.97856 97.194296 
L 407.15712 96.871339 
L 408.76416 96.438376 
L 409.12128 96.341404 
L 413.0496 95.364771 
L 413.22816 95.364771 
L 413.58528 95.172653 
L 416.79936 94.412492 
L 430.19136 90.808363 
L 430.36992 91.034919 
L 430.72704 90.962043 
L 430.9056 91.154733 
L 431.44128 91.033297 
L 431.61984 91.259743 
L 431.7984 91.162605 
L 431.97696 91.379428 
L 432.51264 91.282327 
L 432.6912 91.508699 
L 433.04832 91.43586 
L 433.22688 91.662195 
L 433.584 91.589374 
L 433.76256 91.781695 
L 434.29824 91.660388 
L 434.4768 91.886595 
L 434.83392 91.789567 
L 435.01248 92.040017 
L 435.3696 91.94299 
L 435.54816 92.135108 
L 435.90528 92.062379 
L 436.08384 92.288457 
L 436.44096 92.215728 
L 436.61952 92.44175 
L 436.97664 92.369039 
L 437.1552 92.320553 
L 437.33376 92.546575 
L 437.69088 92.439759 
L 437.86944 92.665707 
L 438.22656 92.593015 
L 438.40512 92.818926 
L 438.76224 92.722028 
L 438.9408 92.972127 
L 439.29792 92.923678 
L 439.47648 93.076861 
L 440.01216 92.979981 
L 440.19072 93.230006 
L 440.54784 93.098947 
L 440.7264 93.34888 
L 441.26208 93.227849 
L 441.44064 93.477745 
L 441.79776 93.405146 
L 441.97632 93.654987 
L 442.512 93.558199 
L 442.69056 93.808003 
L 443.22624 93.711234 
L 443.4048 93.936832 
L 443.76192 93.888438 
L 443.94048 94.138169 
L 444.83328 94.065606 
L 445.01184 94.315299 
L 445.54752 94.266942 
L 445.72608 94.482105 
L 446.44032 94.433767 
L 446.61888 94.707464 
L 447.15456 94.659125 
L 447.33312 94.932767 
L 449.47584 94.884428 
L 449.6544 95.157996 
L 450.72576 95.157996 
L 450.90432 95.431472 
L 451.97568 95.478188 
L 452.15424 95.763684 
L 453.2256 95.787834 
L 453.40416 96.085313 
L 454.65408 96.133596 
L 454.83264 96.406851 
L 456.08256 96.503343 
L 456.43968 96.527457 
L 456.61824 96.824715 
L 458.22528 96.921171 
L 458.40384 97.242395 
L 459.29664 97.349654 
L 459.83232 97.40992 
L 460.01088 97.6949 
L 461.79648 97.887645 
L 461.97504 98.160457 
L 462.86784 98.315963 
L 463.22496 98.340058 
L 463.40352 98.636855 
L 464.47488 98.733163 
L 465.18912 98.75724 
L 465.36768 99.102044 
L 466.26048 99.209469 
L 467.15328 99.30574 
L 467.33184 99.578238 
L 468.22464 99.674473 
L 468.93888 99.722572 
L 469.11744 100.054378 
L 470.72448 100.222715 
L 470.90304 100.51905 
L 472.68864 100.722784 
L 472.8672 101.019027 
L 474.47424 101.198776 
L 474.6528 101.494909 
L 476.25984 101.674676 
L 476.4384 101.970717 
L 478.224 102.150539 
L 478.40256 102.470491 
L 479.83104 102.65035 
L 480.0096 102.934223 
L 481.7952 103.090189 
L 481.97376 103.421848 
L 483.5808 103.601762 
L 483.75936 103.897434 
L 484.83072 103.993374 
L 485.54496 104.10137 
L 485.72352 104.39695 
L 488.58048 104.876814 
L 496.08 106.819202 
L 496.43712 106.855668 
L 496.9728 107.047252 
L 502.15104 108.425673 
L 502.3296 108.202564 
L 503.2224 108.454636 
L 503.40096 108.231471 
L 504.1152 108.483598 
L 504.29376 108.260397 
L 505.18656 108.48782 
L 505.36512 108.252635 
L 506.25792 108.528729 
L 506.43648 108.305491 
L 507.32928 108.520967 
L 507.50784 108.297711 
L 508.40064 108.549912 
L 508.5792 108.326636 
L 509.472 108.54215 
L 509.65056 108.318857 
L 510.54336 108.595042 
L 510.72192 108.37173 
L 511.61472 108.587281 
L 511.79328 108.36395 
L 512.68608 108.579501 
L 512.86464 108.356189 
L 513.57888 108.584497 
L 513.75744 108.632411 
L 513.936 108.385078 
L 514.8288 108.624632 
L 515.00736 108.401283 
L 515.90016 108.61687 
L 516.07872 108.393503 
L 516.97152 108.645796 
L 517.15008 108.42241 
L 518.04288 108.638034 
L 518.22144 108.41463 
L 518.4 108.462563 
L 518.4 108.462563 
" style="fill:none;stroke:#0000ff;stroke-linecap:square;"/>
   </g>
   <g id="line2d_4">
    <path clip-path="url(#p2f6a8c6dec)" d="M 72.17856 216.966563 
L 95.56992 216.966563 
L 95.74848 101.515973 
L 99.14112 101.515973 
L 99.31968 88.091485 
L 102.71232 88.091485 
L 102.89088 66.612306 
L 518.4 66.612306 
L 518.4 66.612306 
" style="fill:none;stroke:#000000;stroke-linecap:square;"/>
   </g>
   <g id="line2d_5">
    <path clip-path="url(#p2f6a8c6dec)" d="M 72.17856 98.831075 
L 179.67168 98.927732 
L 215.20512 108.448378 
L 286.62912 89.213773 
L 358.05312 108.448378 
L 429.47712 89.213773 
L 501.07968 108.496706 
L 518.4 108.496706 
L 518.4 108.496706 
" style="fill:none;stroke:#bf00bf;stroke-linecap:square;"/>
   </g>
   <g id="patch_3">
    <path d="M 72 43.2 
L 518.4 43.2 
" style="fill:none;stroke:#000000;stroke-linecap:square;stroke-linejoin:miter;"/>
   </g>
   <g id="patch_4">
    <path d="M 518.4 388.8 
L 518.4 43.2 
" style="fill:none;stroke:#000000;stroke-linecap:square;stroke-linejoin:miter;"/>
   </g>
   <g id="patch_5">
    <path d="M 72 388.8 
L 518.4 388.8 
" style="fill:none;stroke:#000000;stroke-linecap:square;stroke-linejoin:miter;"/>
   </g>
   <g id="patch_6">
    <path d="M 72 388.8 
L 72 43.2 
" style="fill:none;stroke:#000000;stroke-linecap:square;stroke-linejoin:miter;"/>
   </g>
   <g id="matplotlib.axis_1">
    <g id="xtick_1">
     <g id="line2d_6">
      <path clip-path="url(#p2f6a8c6dec)" d="M 72 388.8 
L 72 43.2 
" style="fill:none;stroke:#000000;stroke-dasharray:1.000000,3.000000;stroke-dashoffset:0.0;stroke-width:0.5;"/>
     </g>
     <g id="line2d_7">
      <defs>
       <path d="M 0 0 
L 0 -4 
" id="mee99ec8ff6" style="stroke:#000000;stroke-width:0.5;"/>
      </defs>
      <g>
       <use style="stroke:#000000;stroke-width:0.5;" x="72.0" xlink:href="#mee99ec8ff6" y="388.8"/>
      </g>
     </g>
     <g id="line2d_8">
      <defs>
       <path d="M 0 0 
L 0 4 
" id="m5d96e7d0ed" style="stroke:#000000;stroke-width:0.5;"/>
      </defs>
      <g>
       <use style="stroke:#000000;stroke-width:0.5;" x="72.0" xlink:href="#m5d96e7d0ed" y="43.2"/>
      </g>
     </g>
     <g id="text_1">
      <!-- 0 -->
      <defs>
       <path d="M 31.78125 66.40625 
Q 24.171875 66.40625 20.328125 58.90625 
Q 16.5 51.421875 16.5 36.375 
Q 16.5 21.390625 20.328125 13.890625 
Q 24.171875 6.390625 31.78125 6.390625 
Q 39.453125 6.390625 43.28125 13.890625 
Q 47.125 21.390625 47.125 36.375 
Q 47.125 51.421875 43.28125 58.90625 
Q 39.453125 66.40625 31.78125 66.40625 
M 31.78125 74.21875 
Q 44.046875 74.21875 50.515625 64.515625 
Q 56.984375 54.828125 56.984375 36.375 
Q 56.984375 17.96875 50.515625 8.265625 
Q 44.046875 -1.421875 31.78125 -1.421875 
Q 19.53125 -1.421875 13.0625 8.265625 
Q 6.59375 17.96875 6.59375 36.375 
Q 6.59375 54.828125 13.0625 64.515625 
Q 19.53125 74.21875 31.78125 74.21875 
" id="BitstreamVeraSans-Roman-30"/>
      </defs>
      <g transform="translate(68.1825 401.918125)scale(0.12 -0.12)">
       <use xlink:href="#BitstreamVeraSans-Roman-30"/>
      </g>
     </g>
    </g>
    <g id="xtick_2">
     <g id="line2d_9">
      <path clip-path="url(#p2f6a8c6dec)" d="M 161.28 388.8 
L 161.28 43.2 
" style="fill:none;stroke:#000000;stroke-dasharray:1.000000,3.000000;stroke-dashoffset:0.0;stroke-width:0.5;"/>
     </g>
     <g id="line2d_10">
      <g>
       <use style="stroke:#000000;stroke-width:0.5;" x="161.28" xlink:href="#mee99ec8ff6" y="388.8"/>
      </g>
     </g>
     <g id="line2d_11">
      <g>
       <use style="stroke:#000000;stroke-width:0.5;" x="161.28" xlink:href="#m5d96e7d0ed" y="43.2"/>
      </g>
     </g>
     <g id="text_2">
      <!-- 5 -->
      <defs>
       <path d="M 10.796875 72.90625 
L 49.515625 72.90625 
L 49.515625 64.59375 
L 19.828125 64.59375 
L 19.828125 46.734375 
Q 21.96875 47.46875 24.109375 47.828125 
Q 26.265625 48.1875 28.421875 48.1875 
Q 40.625 48.1875 47.75 41.5 
Q 54.890625 34.8125 54.890625 23.390625 
Q 54.890625 11.625 47.5625 5.09375 
Q 40.234375 -1.421875 26.90625 -1.421875 
Q 22.3125 -1.421875 17.546875 -0.640625 
Q 12.796875 0.140625 7.71875 1.703125 
L 7.71875 11.625 
Q 12.109375 9.234375 16.796875 8.0625 
Q 21.484375 6.890625 26.703125 6.890625 
Q 35.15625 6.890625 40.078125 11.328125 
Q 45.015625 15.765625 45.015625 23.390625 
Q 45.015625 31 40.078125 35.4375 
Q 35.15625 39.890625 26.703125 39.890625 
Q 22.75 39.890625 18.8125 39.015625 
Q 14.890625 38.140625 10.796875 36.28125 
z
" id="BitstreamVeraSans-Roman-35"/>
      </defs>
      <g transform="translate(157.4625 401.918125)scale(0.12 -0.12)">
       <use xlink:href="#BitstreamVeraSans-Roman-35"/>
      </g>
     </g>
    </g>
    <g id="xtick_3">
     <g id="line2d_12">
      <path clip-path="url(#p2f6a8c6dec)" d="M 250.56 388.8 
L 250.56 43.2 
" style="fill:none;stroke:#000000;stroke-dasharray:1.000000,3.000000;stroke-dashoffset:0.0;stroke-width:0.5;"/>
     </g>
     <g id="line2d_13">
      <g>
       <use style="stroke:#000000;stroke-width:0.5;" x="250.56" xlink:href="#mee99ec8ff6" y="388.8"/>
      </g>
     </g>
     <g id="line2d_14">
      <g>
       <use style="stroke:#000000;stroke-width:0.5;" x="250.56" xlink:href="#m5d96e7d0ed" y="43.2"/>
      </g>
     </g>
     <g id="text_3">
      <!-- 10 -->
      <defs>
       <path d="M 12.40625 8.296875 
L 28.515625 8.296875 
L 28.515625 63.921875 
L 10.984375 60.40625 
L 10.984375 69.390625 
L 28.421875 72.90625 
L 38.28125 72.90625 
L 38.28125 8.296875 
L 54.390625 8.296875 
L 54.390625 0 
L 12.40625 0 
z
" id="BitstreamVeraSans-Roman-31"/>
      </defs>
      <g transform="translate(242.925 401.918125)scale(0.12 -0.12)">
       <use xlink:href="#BitstreamVeraSans-Roman-31"/>
       <use x="63.623046875" xlink:href="#BitstreamVeraSans-Roman-30"/>
      </g>
     </g>
    </g>
    <g id="xtick_4">
     <g id="line2d_15">
      <path clip-path="url(#p2f6a8c6dec)" d="M 339.84 388.8 
L 339.84 43.2 
" style="fill:none;stroke:#000000;stroke-dasharray:1.000000,3.000000;stroke-dashoffset:0.0;stroke-width:0.5;"/>
     </g>
     <g id="line2d_16">
      <g>
       <use style="stroke:#000000;stroke-width:0.5;" x="339.84" xlink:href="#mee99ec8ff6" y="388.8"/>
      </g>
     </g>
     <g id="line2d_17">
      <g>
       <use style="stroke:#000000;stroke-width:0.5;" x="339.84" xlink:href="#m5d96e7d0ed" y="43.2"/>
      </g>
     </g>
     <g id="text_4">
      <!-- 15 -->
      <g transform="translate(332.205 401.918125)scale(0.12 -0.12)">
       <use xlink:href="#BitstreamVeraSans-Roman-31"/>
       <use x="63.623046875" xlink:href="#BitstreamVeraSans-Roman-35"/>
      </g>
     </g>
    </g>
    <g id="xtick_5">
     <g id="line2d_18">
      <path clip-path="url(#p2f6a8c6dec)" d="M 429.12 388.8 
L 429.12 43.2 
" style="fill:none;stroke:#000000;stroke-dasharray:1.000000,3.000000;stroke-dashoffset:0.0;stroke-width:0.5;"/>
     </g>
     <g id="line2d_19">
      <g>
       <use style="stroke:#000000;stroke-width:0.5;" x="429.12" xlink:href="#mee99ec8ff6" y="388.8"/>
      </g>
     </g>
     <g id="line2d_20">
      <g>
       <use style="stroke:#000000;stroke-width:0.5;" x="429.12" xlink:href="#m5d96e7d0ed" y="43.2"/>
      </g>
     </g>
     <g id="text_5">
      <!-- 20 -->
      <defs>
       <path d="M 19.1875 8.296875 
L 53.609375 8.296875 
L 53.609375 0 
L 7.328125 0 
L 7.328125 8.296875 
Q 12.9375 14.109375 22.625 23.890625 
Q 32.328125 33.6875 34.8125 36.53125 
Q 39.546875 41.84375 41.421875 45.53125 
Q 43.3125 49.21875 43.3125 52.78125 
Q 43.3125 58.59375 39.234375 62.25 
Q 35.15625 65.921875 28.609375 65.921875 
Q 23.96875 65.921875 18.8125 64.3125 
Q 13.671875 62.703125 7.8125 59.421875 
L 7.8125 69.390625 
Q 13.765625 71.78125 18.9375 73 
Q 24.125 74.21875 28.421875 74.21875 
Q 39.75 74.21875 46.484375 68.546875 
Q 53.21875 62.890625 53.21875 53.421875 
Q 53.21875 48.921875 51.53125 44.890625 
Q 49.859375 40.875 45.40625 35.40625 
Q 44.1875 33.984375 37.640625 27.21875 
Q 31.109375 20.453125 19.1875 8.296875 
" id="BitstreamVeraSans-Roman-32"/>
      </defs>
      <g transform="translate(421.485 401.918125)scale(0.12 -0.12)">
       <use xlink:href="#BitstreamVeraSans-Roman-32"/>
       <use x="63.623046875" xlink:href="#BitstreamVeraSans-Roman-30"/>
      </g>
     </g>
    </g>
    <g id="xtick_6">
     <g id="line2d_21">
      <path clip-path="url(#p2f6a8c6dec)" d="M 518.4 388.8 
L 518.4 43.2 
" style="fill:none;stroke:#000000;stroke-dasharray:1.000000,3.000000;stroke-dashoffset:0.0;stroke-width:0.5;"/>
     </g>
     <g id="line2d_22">
      <g>
       <use style="stroke:#000000;stroke-width:0.5;" x="518.4" xlink:href="#mee99ec8ff6" y="388.8"/>
      </g>
     </g>
     <g id="line2d_23">
      <g>
       <use style="stroke:#000000;stroke-width:0.5;" x="518.4" xlink:href="#m5d96e7d0ed" y="43.2"/>
      </g>
     </g>
     <g id="text_6">
      <!-- 25 -->
      <g transform="translate(510.765 401.918125)scale(0.12 -0.12)">
       <use xlink:href="#BitstreamVeraSans-Roman-32"/>
       <use x="63.623046875" xlink:href="#BitstreamVeraSans-Roman-35"/>
      </g>
     </g>
    </g>
    <g id="text_7">
     <!-- Time [s] -->
     <defs>
      <path id="BitstreamVeraSans-Roman-20"/>
      <path d="M 8.59375 75.984375 
L 29.296875 75.984375 
L 29.296875 69 
L 17.578125 69 
L 17.578125 -6.203125 
L 29.296875 -6.203125 
L 29.296875 -13.1875 
L 8.59375 -13.1875 
z
" id="BitstreamVeraSans-Roman-5b"/>
      <path d="M 30.421875 75.984375 
L 30.421875 -13.1875 
L 9.71875 -13.1875 
L 9.71875 -6.203125 
L 21.390625 -6.203125 
L 21.390625 69 
L 9.71875 69 
L 9.71875 75.984375 
z
" id="BitstreamVeraSans-Roman-5d"/>
      <path d="M 52 44.1875 
Q 55.375 50.25 60.0625 53.125 
Q 64.75 56 71.09375 56 
Q 79.640625 56 84.28125 50.015625 
Q 88.921875 44.046875 88.921875 33.015625 
L 88.921875 0 
L 79.890625 0 
L 79.890625 32.71875 
Q 79.890625 40.578125 77.09375 44.375 
Q 74.3125 48.1875 68.609375 48.1875 
Q 61.625 48.1875 57.5625 43.546875 
Q 53.515625 38.921875 53.515625 30.90625 
L 53.515625 0 
L 44.484375 0 
L 44.484375 32.71875 
Q 44.484375 40.625 41.703125 44.40625 
Q 38.921875 48.1875 33.109375 48.1875 
Q 26.21875 48.1875 22.15625 43.53125 
Q 18.109375 38.875 18.109375 30.90625 
L 18.109375 0 
L 9.078125 0 
L 9.078125 54.6875 
L 18.109375 54.6875 
L 18.109375 46.1875 
Q 21.1875 51.21875 25.484375 53.609375 
Q 29.78125 56 35.6875 56 
Q 41.65625 56 45.828125 52.96875 
Q 50 49.953125 52 44.1875 
" id="BitstreamVeraSans-Roman-6d"/>
      <path d="M 9.421875 54.6875 
L 18.40625 54.6875 
L 18.40625 0 
L 9.421875 0 
z
M 9.421875 75.984375 
L 18.40625 75.984375 
L 18.40625 64.59375 
L 9.421875 64.59375 
z
" id="BitstreamVeraSans-Roman-69"/>
      <path d="M 56.203125 29.59375 
L 56.203125 25.203125 
L 14.890625 25.203125 
Q 15.484375 15.921875 20.484375 11.0625 
Q 25.484375 6.203125 34.421875 6.203125 
Q 39.59375 6.203125 44.453125 7.46875 
Q 49.3125 8.734375 54.109375 11.28125 
L 54.109375 2.78125 
Q 49.265625 0.734375 44.1875 -0.34375 
Q 39.109375 -1.421875 33.890625 -1.421875 
Q 20.796875 -1.421875 13.15625 6.1875 
Q 5.515625 13.8125 5.515625 26.8125 
Q 5.515625 40.234375 12.765625 48.109375 
Q 20.015625 56 32.328125 56 
Q 43.359375 56 49.78125 48.890625 
Q 56.203125 41.796875 56.203125 29.59375 
M 47.21875 32.234375 
Q 47.125 39.59375 43.09375 43.984375 
Q 39.0625 48.390625 32.421875 48.390625 
Q 24.90625 48.390625 20.390625 44.140625 
Q 15.875 39.890625 15.1875 32.171875 
z
" id="BitstreamVeraSans-Roman-65"/>
      <path d="M -0.296875 72.90625 
L 61.375 72.90625 
L 61.375 64.59375 
L 35.5 64.59375 
L 35.5 0 
L 25.59375 0 
L 25.59375 64.59375 
L -0.296875 64.59375 
z
" id="BitstreamVeraSans-Roman-54"/>
      <path d="M 44.28125 53.078125 
L 44.28125 44.578125 
Q 40.484375 46.53125 36.375 47.5 
Q 32.28125 48.484375 27.875 48.484375 
Q 21.1875 48.484375 17.84375 46.4375 
Q 14.5 44.390625 14.5 40.28125 
Q 14.5 37.15625 16.890625 35.375 
Q 19.28125 33.59375 26.515625 31.984375 
L 29.59375 31.296875 
Q 39.15625 29.25 43.1875 25.515625 
Q 47.21875 21.78125 47.21875 15.09375 
Q 47.21875 7.46875 41.1875 3.015625 
Q 35.15625 -1.421875 24.609375 -1.421875 
Q 20.21875 -1.421875 15.453125 -0.5625 
Q 10.6875 0.296875 5.421875 2 
L 5.421875 11.28125 
Q 10.40625 8.6875 15.234375 7.390625 
Q 20.0625 6.109375 24.8125 6.109375 
Q 31.15625 6.109375 34.5625 8.28125 
Q 37.984375 10.453125 37.984375 14.40625 
Q 37.984375 18.0625 35.515625 20.015625 
Q 33.0625 21.96875 24.703125 23.78125 
L 21.578125 24.515625 
Q 13.234375 26.265625 9.515625 29.90625 
Q 5.8125 33.546875 5.8125 39.890625 
Q 5.8125 47.609375 11.28125 51.796875 
Q 16.75 56 26.8125 56 
Q 31.78125 56 36.171875 55.265625 
Q 40.578125 54.546875 44.28125 53.078125 
" id="BitstreamVeraSans-Roman-73"/>
     </defs>
     <g transform="translate(270.620625 418.531875)scale(0.12 -0.12)">
      <use xlink:href="#BitstreamVeraSans-Roman-54"/>
      <use x="61.037109375" xlink:href="#BitstreamVeraSans-Roman-69"/>
      <use x="88.8203125" xlink:href="#BitstreamVeraSans-Roman-6d"/>
      <use x="186.232421875" xlink:href="#BitstreamVeraSans-Roman-65"/>
      <use x="247.755859375" xlink:href="#BitstreamVeraSans-Roman-20"/>
      <use x="279.54296875" xlink:href="#BitstreamVeraSans-Roman-5b"/>
      <use x="318.556640625" xlink:href="#BitstreamVeraSans-Roman-73"/>
      <use x="370.65625" xlink:href="#BitstreamVeraSans-Roman-5d"/>
     </g>
    </g>
   </g>
   <g id="matplotlib.axis_2">
    <g id="ytick_1">
     <g id="line2d_24">
      <path clip-path="url(#p2f6a8c6dec)" d="M 72 388.8 
L 518.4 388.8 
" style="fill:none;stroke:#000000;stroke-dasharray:1.000000,3.000000;stroke-dashoffset:0.0;stroke-width:0.5;"/>
     </g>
     <g id="line2d_25">
      <defs>
       <path d="M 0 0 
L 4 0 
" id="m74b0630ec8" style="stroke:#000000;stroke-width:0.5;"/>
      </defs>
      <g>
       <use style="stroke:#000000;stroke-width:0.5;" x="72.0" xlink:href="#m74b0630ec8" y="388.8"/>
      </g>
     </g>
     <g id="line2d_26">
      <defs>
       <path d="M 0 0 
L -4 0 
" id="m719c9953a4" style="stroke:#000000;stroke-width:0.5;"/>
      </defs>
      <g>
       <use style="stroke:#000000;stroke-width:0.5;" x="518.4" xlink:href="#m719c9953a4" y="388.8"/>
      </g>
     </g>
     <g id="text_8">
      <!-- 0 -->
      <g transform="translate(60.365 392.11125)scale(0.12 -0.12)">
       <use xlink:href="#BitstreamVeraSans-Roman-30"/>
      </g>
     </g>
    </g>
    <g id="ytick_2">
     <g id="line2d_27">
      <path clip-path="url(#p2f6a8c6dec)" d="M 72 345.6 
L 518.4 345.6 
" style="fill:none;stroke:#000000;stroke-dasharray:1.000000,3.000000;stroke-dashoffset:0.0;stroke-width:0.5;"/>
     </g>
     <g id="line2d_28">
      <g>
       <use style="stroke:#000000;stroke-width:0.5;" x="72.0" xlink:href="#m74b0630ec8" y="345.6"/>
      </g>
     </g>
     <g id="line2d_29">
      <g>
       <use style="stroke:#000000;stroke-width:0.5;" x="518.4" xlink:href="#m719c9953a4" y="345.6"/>
      </g>
     </g>
     <g id="text_9">
      <!-- 10 -->
      <g transform="translate(52.73 348.91125)scale(0.12 -0.12)">
       <use xlink:href="#BitstreamVeraSans-Roman-31"/>
       <use x="63.623046875" xlink:href="#BitstreamVeraSans-Roman-30"/>
      </g>
     </g>
    </g>
    <g id="ytick_3">
     <g id="line2d_30">
      <path clip-path="url(#p2f6a8c6dec)" d="M 72 302.4 
L 518.4 302.4 
" style="fill:none;stroke:#000000;stroke-dasharray:1.000000,3.000000;stroke-dashoffset:0.0;stroke-width:0.5;"/>
     </g>
     <g id="line2d_31">
      <g>
       <use style="stroke:#000000;stroke-width:0.5;" x="72.0" xlink:href="#m74b0630ec8" y="302.4"/>
      </g>
     </g>
     <g id="line2d_32">
      <g>
       <use style="stroke:#000000;stroke-width:0.5;" x="518.4" xlink:href="#m719c9953a4" y="302.4"/>
      </g>
     </g>
     <g id="text_10">
      <!-- 20 -->
      <g transform="translate(52.73 305.71125)scale(0.12 -0.12)">
       <use xlink:href="#BitstreamVeraSans-Roman-32"/>
       <use x="63.623046875" xlink:href="#BitstreamVeraSans-Roman-30"/>
      </g>
     </g>
    </g>
    <g id="ytick_4">
     <g id="line2d_33">
      <path clip-path="url(#p2f6a8c6dec)" d="M 72 259.2 
L 518.4 259.2 
" style="fill:none;stroke:#000000;stroke-dasharray:1.000000,3.000000;stroke-dashoffset:0.0;stroke-width:0.5;"/>
     </g>
     <g id="line2d_34">
      <g>
       <use style="stroke:#000000;stroke-width:0.5;" x="72.0" xlink:href="#m74b0630ec8" y="259.2"/>
      </g>
     </g>
     <g id="line2d_35">
      <g>
       <use style="stroke:#000000;stroke-width:0.5;" x="518.4" xlink:href="#m719c9953a4" y="259.2"/>
      </g>
     </g>
     <g id="text_11">
      <!-- 30 -->
      <defs>
       <path d="M 40.578125 39.3125 
Q 47.65625 37.796875 51.625 33 
Q 55.609375 28.21875 55.609375 21.1875 
Q 55.609375 10.40625 48.1875 4.484375 
Q 40.765625 -1.421875 27.09375 -1.421875 
Q 22.515625 -1.421875 17.65625 -0.515625 
Q 12.796875 0.390625 7.625 2.203125 
L 7.625 11.71875 
Q 11.71875 9.328125 16.59375 8.109375 
Q 21.484375 6.890625 26.8125 6.890625 
Q 36.078125 6.890625 40.9375 10.546875 
Q 45.796875 14.203125 45.796875 21.1875 
Q 45.796875 27.640625 41.28125 31.265625 
Q 36.765625 34.90625 28.71875 34.90625 
L 20.21875 34.90625 
L 20.21875 43.015625 
L 29.109375 43.015625 
Q 36.375 43.015625 40.234375 45.921875 
Q 44.09375 48.828125 44.09375 54.296875 
Q 44.09375 59.90625 40.109375 62.90625 
Q 36.140625 65.921875 28.71875 65.921875 
Q 24.65625 65.921875 20.015625 65.03125 
Q 15.375 64.15625 9.8125 62.3125 
L 9.8125 71.09375 
Q 15.4375 72.65625 20.34375 73.4375 
Q 25.25 74.21875 29.59375 74.21875 
Q 40.828125 74.21875 47.359375 69.109375 
Q 53.90625 64.015625 53.90625 55.328125 
Q 53.90625 49.265625 50.4375 45.09375 
Q 46.96875 40.921875 40.578125 39.3125 
" id="BitstreamVeraSans-Roman-33"/>
      </defs>
      <g transform="translate(52.73 262.51125)scale(0.12 -0.12)">
       <use xlink:href="#BitstreamVeraSans-Roman-33"/>
       <use x="63.623046875" xlink:href="#BitstreamVeraSans-Roman-30"/>
      </g>
     </g>
    </g>
    <g id="ytick_5">
     <g id="line2d_36">
      <path clip-path="url(#p2f6a8c6dec)" d="M 72 216 
L 518.4 216 
" style="fill:none;stroke:#000000;stroke-dasharray:1.000000,3.000000;stroke-dashoffset:0.0;stroke-width:0.5;"/>
     </g>
     <g id="line2d_37">
      <g>
       <use style="stroke:#000000;stroke-width:0.5;" x="72.0" xlink:href="#m74b0630ec8" y="216.0"/>
      </g>
     </g>
     <g id="line2d_38">
      <g>
       <use style="stroke:#000000;stroke-width:0.5;" x="518.4" xlink:href="#m719c9953a4" y="216.0"/>
      </g>
     </g>
     <g id="text_12">
      <!-- 40 -->
      <defs>
       <path d="M 37.796875 64.3125 
L 12.890625 25.390625 
L 37.796875 25.390625 
z
M 35.203125 72.90625 
L 47.609375 72.90625 
L 47.609375 25.390625 
L 58.015625 25.390625 
L 58.015625 17.1875 
L 47.609375 17.1875 
L 47.609375 0 
L 37.796875 0 
L 37.796875 17.1875 
L 4.890625 17.1875 
L 4.890625 26.703125 
z
" id="BitstreamVeraSans-Roman-34"/>
      </defs>
      <g transform="translate(52.73 219.31125)scale(0.12 -0.12)">
       <use xlink:href="#BitstreamVeraSans-Roman-34"/>
       <use x="63.623046875" xlink:href="#BitstreamVeraSans-Roman-30"/>
      </g>
     </g>
    </g>
    <g id="ytick_6">
     <g id="line2d_39">
      <path clip-path="url(#p2f6a8c6dec)" d="M 72 172.8 
L 518.4 172.8 
" style="fill:none;stroke:#000000;stroke-dasharray:1.000000,3.000000;stroke-dashoffset:0.0;stroke-width:0.5;"/>
     </g>
     <g id="line2d_40">
      <g>
       <use style="stroke:#000000;stroke-width:0.5;" x="72.0" xlink:href="#m74b0630ec8" y="172.8"/>
      </g>
     </g>
     <g id="line2d_41">
      <g>
       <use style="stroke:#000000;stroke-width:0.5;" x="518.4" xlink:href="#m719c9953a4" y="172.8"/>
      </g>
     </g>
     <g id="text_13">
      <!-- 50 -->
      <g transform="translate(52.73 176.11125)scale(0.12 -0.12)">
       <use xlink:href="#BitstreamVeraSans-Roman-35"/>
       <use x="63.623046875" xlink:href="#BitstreamVeraSans-Roman-30"/>
      </g>
     </g>
    </g>
    <g id="ytick_7">
     <g id="line2d_42">
      <path clip-path="url(#p2f6a8c6dec)" d="M 72 129.6 
L 518.4 129.6 
" style="fill:none;stroke:#000000;stroke-dasharray:1.000000,3.000000;stroke-dashoffset:0.0;stroke-width:0.5;"/>
     </g>
     <g id="line2d_43">
      <g>
       <use style="stroke:#000000;stroke-width:0.5;" x="72.0" xlink:href="#m74b0630ec8" y="129.6"/>
      </g>
     </g>
     <g id="line2d_44">
      <g>
       <use style="stroke:#000000;stroke-width:0.5;" x="518.4" xlink:href="#m719c9953a4" y="129.6"/>
      </g>
     </g>
     <g id="text_14">
      <!-- 60 -->
      <defs>
       <path d="M 33.015625 40.375 
Q 26.375 40.375 22.484375 35.828125 
Q 18.609375 31.296875 18.609375 23.390625 
Q 18.609375 15.53125 22.484375 10.953125 
Q 26.375 6.390625 33.015625 6.390625 
Q 39.65625 6.390625 43.53125 10.953125 
Q 47.40625 15.53125 47.40625 23.390625 
Q 47.40625 31.296875 43.53125 35.828125 
Q 39.65625 40.375 33.015625 40.375 
M 52.59375 71.296875 
L 52.59375 62.3125 
Q 48.875 64.0625 45.09375 64.984375 
Q 41.3125 65.921875 37.59375 65.921875 
Q 27.828125 65.921875 22.671875 59.328125 
Q 17.53125 52.734375 16.796875 39.40625 
Q 19.671875 43.65625 24.015625 45.921875 
Q 28.375 48.1875 33.59375 48.1875 
Q 44.578125 48.1875 50.953125 41.515625 
Q 57.328125 34.859375 57.328125 23.390625 
Q 57.328125 12.15625 50.6875 5.359375 
Q 44.046875 -1.421875 33.015625 -1.421875 
Q 20.359375 -1.421875 13.671875 8.265625 
Q 6.984375 17.96875 6.984375 36.375 
Q 6.984375 53.65625 15.1875 63.9375 
Q 23.390625 74.21875 37.203125 74.21875 
Q 40.921875 74.21875 44.703125 73.484375 
Q 48.484375 72.75 52.59375 71.296875 
" id="BitstreamVeraSans-Roman-36"/>
      </defs>
      <g transform="translate(52.73 132.91125)scale(0.12 -0.12)">
       <use xlink:href="#BitstreamVeraSans-Roman-36"/>
       <use x="63.623046875" xlink:href="#BitstreamVeraSans-Roman-30"/>
      </g>
     </g>
    </g>
    <g id="ytick_8">
     <g id="line2d_45">
      <path clip-path="url(#p2f6a8c6dec)" d="M 72 86.4 
L 518.4 86.4 
" style="fill:none;stroke:#000000;stroke-dasharray:1.000000,3.000000;stroke-dashoffset:0.0;stroke-width:0.5;"/>
     </g>
     <g id="line2d_46">
      <g>
       <use style="stroke:#000000;stroke-width:0.5;" x="72.0" xlink:href="#m74b0630ec8" y="86.4"/>
      </g>
     </g>
     <g id="line2d_47">
      <g>
       <use style="stroke:#000000;stroke-width:0.5;" x="518.4" xlink:href="#m719c9953a4" y="86.4"/>
      </g>
     </g>
     <g id="text_15">
      <!-- 70 -->
      <defs>
       <path d="M 8.203125 72.90625 
L 55.078125 72.90625 
L 55.078125 68.703125 
L 28.609375 0 
L 18.3125 0 
L 43.21875 64.59375 
L 8.203125 64.59375 
z
" id="BitstreamVeraSans-Roman-37"/>
      </defs>
      <g transform="translate(52.73 89.71125)scale(0.12 -0.12)">
       <use xlink:href="#BitstreamVeraSans-Roman-37"/>
       <use x="63.623046875" xlink:href="#BitstreamVeraSans-Roman-30"/>
      </g>
     </g>
    </g>
    <g id="ytick_9">
     <g id="line2d_48">
      <path clip-path="url(#p2f6a8c6dec)" d="M 72 43.2 
L 518.4 43.2 
" style="fill:none;stroke:#000000;stroke-dasharray:1.000000,3.000000;stroke-dashoffset:0.0;stroke-width:0.5;"/>
     </g>
     <g id="line2d_49">
      <g>
       <use style="stroke:#000000;stroke-width:0.5;" x="72.0" xlink:href="#m74b0630ec8" y="43.2"/>
      </g>
     </g>
     <g id="line2d_50">
      <g>
       <use style="stroke:#000000;stroke-width:0.5;" x="518.4" xlink:href="#m719c9953a4" y="43.2"/>
      </g>
     </g>
     <g id="text_16">
      <!-- 80 -->
      <defs>
       <path d="M 31.78125 34.625 
Q 24.75 34.625 20.71875 30.859375 
Q 16.703125 27.09375 16.703125 20.515625 
Q 16.703125 13.921875 20.71875 10.15625 
Q 24.75 6.390625 31.78125 6.390625 
Q 38.8125 6.390625 42.859375 10.171875 
Q 46.921875 13.96875 46.921875 20.515625 
Q 46.921875 27.09375 42.890625 30.859375 
Q 38.875 34.625 31.78125 34.625 
M 21.921875 38.8125 
Q 15.578125 40.375 12.03125 44.71875 
Q 8.5 49.078125 8.5 55.328125 
Q 8.5 64.0625 14.71875 69.140625 
Q 20.953125 74.21875 31.78125 74.21875 
Q 42.671875 74.21875 48.875 69.140625 
Q 55.078125 64.0625 55.078125 55.328125 
Q 55.078125 49.078125 51.53125 44.71875 
Q 48 40.375 41.703125 38.8125 
Q 48.828125 37.15625 52.796875 32.3125 
Q 56.78125 27.484375 56.78125 20.515625 
Q 56.78125 9.90625 50.3125 4.234375 
Q 43.84375 -1.421875 31.78125 -1.421875 
Q 19.734375 -1.421875 13.25 4.234375 
Q 6.78125 9.90625 6.78125 20.515625 
Q 6.78125 27.484375 10.78125 32.3125 
Q 14.796875 37.15625 21.921875 38.8125 
M 18.3125 54.390625 
Q 18.3125 48.734375 21.84375 45.5625 
Q 25.390625 42.390625 31.78125 42.390625 
Q 38.140625 42.390625 41.71875 45.5625 
Q 45.3125 48.734375 45.3125 54.390625 
Q 45.3125 60.0625 41.71875 63.234375 
Q 38.140625 66.40625 31.78125 66.40625 
Q 25.390625 66.40625 21.84375 63.234375 
Q 18.3125 60.0625 18.3125 54.390625 
" id="BitstreamVeraSans-Roman-38"/>
      </defs>
      <g transform="translate(52.73 46.51125)scale(0.12 -0.12)">
       <use xlink:href="#BitstreamVeraSans-Roman-38"/>
       <use x="63.623046875" xlink:href="#BitstreamVeraSans-Roman-30"/>
      </g>
     </g>
    </g>
    <g id="text_17">
     <!-- Speed [mph] -->
     <defs>
      <path d="M 45.40625 46.390625 
L 45.40625 75.984375 
L 54.390625 75.984375 
L 54.390625 0 
L 45.40625 0 
L 45.40625 8.203125 
Q 42.578125 3.328125 38.25 0.953125 
Q 33.9375 -1.421875 27.875 -1.421875 
Q 17.96875 -1.421875 11.734375 6.484375 
Q 5.515625 14.40625 5.515625 27.296875 
Q 5.515625 40.1875 11.734375 48.09375 
Q 17.96875 56 27.875 56 
Q 33.9375 56 38.25 53.625 
Q 42.578125 51.265625 45.40625 46.390625 
M 14.796875 27.296875 
Q 14.796875 17.390625 18.875 11.75 
Q 22.953125 6.109375 30.078125 6.109375 
Q 37.203125 6.109375 41.296875 11.75 
Q 45.40625 17.390625 45.40625 27.296875 
Q 45.40625 37.203125 41.296875 42.84375 
Q 37.203125 48.484375 30.078125 48.484375 
Q 22.953125 48.484375 18.875 42.84375 
Q 14.796875 37.203125 14.796875 27.296875 
" id="BitstreamVeraSans-Roman-64"/>
      <path d="M 53.515625 70.515625 
L 53.515625 60.890625 
Q 47.90625 63.578125 42.921875 64.890625 
Q 37.9375 66.21875 33.296875 66.21875 
Q 25.25 66.21875 20.875 63.09375 
Q 16.5 59.96875 16.5 54.203125 
Q 16.5 49.359375 19.40625 46.890625 
Q 22.3125 44.4375 30.421875 42.921875 
L 36.375 41.703125 
Q 47.40625 39.59375 52.65625 34.296875 
Q 57.90625 29 57.90625 20.125 
Q 57.90625 9.515625 50.796875 4.046875 
Q 43.703125 -1.421875 29.984375 -1.421875 
Q 24.8125 -1.421875 18.96875 -0.25 
Q 13.140625 0.921875 6.890625 3.21875 
L 6.890625 13.375 
Q 12.890625 10.015625 18.65625 8.296875 
Q 24.421875 6.59375 29.984375 6.59375 
Q 38.421875 6.59375 43.015625 9.90625 
Q 47.609375 13.234375 47.609375 19.390625 
Q 47.609375 24.75 44.3125 27.78125 
Q 41.015625 30.8125 33.5 32.328125 
L 27.484375 33.5 
Q 16.453125 35.6875 11.515625 40.375 
Q 6.59375 45.0625 6.59375 53.421875 
Q 6.59375 63.09375 13.40625 68.65625 
Q 20.21875 74.21875 32.171875 74.21875 
Q 37.3125 74.21875 42.625 73.28125 
Q 47.953125 72.359375 53.515625 70.515625 
" id="BitstreamVeraSans-Roman-53"/>
      <path d="M 54.890625 33.015625 
L 54.890625 0 
L 45.90625 0 
L 45.90625 32.71875 
Q 45.90625 40.484375 42.875 44.328125 
Q 39.84375 48.1875 33.796875 48.1875 
Q 26.515625 48.1875 22.3125 43.546875 
Q 18.109375 38.921875 18.109375 30.90625 
L 18.109375 0 
L 9.078125 0 
L 9.078125 75.984375 
L 18.109375 75.984375 
L 18.109375 46.1875 
Q 21.34375 51.125 25.703125 53.5625 
Q 30.078125 56 35.796875 56 
Q 45.21875 56 50.046875 50.171875 
Q 54.890625 44.34375 54.890625 33.015625 
" id="BitstreamVeraSans-Roman-68"/>
      <path d="M 18.109375 8.203125 
L 18.109375 -20.796875 
L 9.078125 -20.796875 
L 9.078125 54.6875 
L 18.109375 54.6875 
L 18.109375 46.390625 
Q 20.953125 51.265625 25.265625 53.625 
Q 29.59375 56 35.59375 56 
Q 45.5625 56 51.78125 48.09375 
Q 58.015625 40.1875 58.015625 27.296875 
Q 58.015625 14.40625 51.78125 6.484375 
Q 45.5625 -1.421875 35.59375 -1.421875 
Q 29.59375 -1.421875 25.265625 0.953125 
Q 20.953125 3.328125 18.109375 8.203125 
M 48.6875 27.296875 
Q 48.6875 37.203125 44.609375 42.84375 
Q 40.53125 48.484375 33.40625 48.484375 
Q 26.265625 48.484375 22.1875 42.84375 
Q 18.109375 37.203125 18.109375 27.296875 
Q 18.109375 17.390625 22.1875 11.75 
Q 26.265625 6.109375 33.40625 6.109375 
Q 40.53125 6.109375 44.609375 11.75 
Q 48.6875 17.390625 48.6875 27.296875 
" id="BitstreamVeraSans-Roman-70"/>
     </defs>
     <g transform="translate(45.234375 254.855625)rotate(-90.0)scale(0.12 -0.12)">
      <use xlink:href="#BitstreamVeraSans-Roman-53"/>
      <use x="63.4765625" xlink:href="#BitstreamVeraSans-Roman-70"/>
      <use x="126.953125" xlink:href="#BitstreamVeraSans-Roman-65"/>
      <use x="188.4765625" xlink:href="#BitstreamVeraSans-Roman-65"/>
      <use x="250.0" xlink:href="#BitstreamVeraSans-Roman-64"/>
      <use x="313.4765625" xlink:href="#BitstreamVeraSans-Roman-20"/>
      <use x="345.263671875" xlink:href="#BitstreamVeraSans-Roman-5b"/>
      <use x="384.27734375" xlink:href="#BitstreamVeraSans-Roman-6d"/>
      <use x="481.689453125" xlink:href="#BitstreamVeraSans-Roman-70"/>
      <use x="545.166015625" xlink:href="#BitstreamVeraSans-Roman-68"/>
      <use x="608.544921875" xlink:href="#BitstreamVeraSans-Roman-5d"/>
     </g>
    </g>
   </g>
   <g id="legend_1">
    <g id="patch_7">
     <path d="M 79.2 381.6 
L 272.9115 381.6 
L 272.9115 271.5975 
L 79.2 271.5975 
z
" style="fill:#ffffff;stroke:#000000;stroke-linejoin:miter;"/>
    </g>
    <g id="line2d_51">
     <path d="M 89.28 283.25925 
L 109.44 283.25925 
" style="fill:none;stroke:#ff0000;stroke-linecap:square;"/>
    </g>
    <g id="line2d_52"/>
    <g id="text_18">
     <!-- speed -->
     <g transform="translate(125.28 288.29925)scale(0.144 -0.144)">
      <use xlink:href="#BitstreamVeraSans-Roman-73"/>
      <use x="52.099609375" xlink:href="#BitstreamVeraSans-Roman-70"/>
      <use x="115.576171875" xlink:href="#BitstreamVeraSans-Roman-65"/>
      <use x="177.099609375" xlink:href="#BitstreamVeraSans-Roman-65"/>
      <use x="238.623046875" xlink:href="#BitstreamVeraSans-Roman-64"/>
     </g>
    </g>
    <g id="line2d_53">
     <path d="M 89.28 304.39575 
L 109.44 304.39575 
" style="fill:none;stroke:#bfbf00;stroke-dasharray:6.000000,6.000000;stroke-dashoffset:0.0;"/>
    </g>
    <g id="line2d_54"/>
    <g id="text_19">
     <!-- pid speed -->
     <g transform="translate(125.28 309.43575)scale(0.144 -0.144)">
      <use xlink:href="#BitstreamVeraSans-Roman-70"/>
      <use x="63.4765625" xlink:href="#BitstreamVeraSans-Roman-69"/>
      <use x="91.259765625" xlink:href="#BitstreamVeraSans-Roman-64"/>
      <use x="154.736328125" xlink:href="#BitstreamVeraSans-Roman-20"/>
      <use x="186.5234375" xlink:href="#BitstreamVeraSans-Roman-73"/>
      <use x="238.623046875" xlink:href="#BitstreamVeraSans-Roman-70"/>
      <use x="302.099609375" xlink:href="#BitstreamVeraSans-Roman-65"/>
      <use x="363.623046875" xlink:href="#BitstreamVeraSans-Roman-65"/>
      <use x="425.146484375" xlink:href="#BitstreamVeraSans-Roman-64"/>
     </g>
    </g>
    <g id="line2d_55">
     <path d="M 89.28 325.53225 
L 109.44 325.53225 
" style="fill:none;stroke:#0000ff;stroke-linecap:square;"/>
    </g>
    <g id="line2d_56"/>
    <g id="text_20">
     <!-- Target (lead) speed -->
     <defs>
      <path d="M 8.015625 75.875 
L 15.828125 75.875 
Q 23.140625 64.359375 26.78125 53.3125 
Q 30.421875 42.28125 30.421875 31.390625 
Q 30.421875 20.453125 26.78125 9.375 
Q 23.140625 -1.703125 15.828125 -13.1875 
L 8.015625 -13.1875 
Q 14.5 -2 17.703125 9.0625 
Q 20.90625 20.125 20.90625 31.390625 
Q 20.90625 42.671875 17.703125 53.65625 
Q 14.5 64.65625 8.015625 75.875 
" id="BitstreamVeraSans-Roman-29"/>
      <path d="M 34.28125 27.484375 
Q 23.390625 27.484375 19.1875 25 
Q 14.984375 22.515625 14.984375 16.5 
Q 14.984375 11.71875 18.140625 8.90625 
Q 21.296875 6.109375 26.703125 6.109375 
Q 34.1875 6.109375 38.703125 11.40625 
Q 43.21875 16.703125 43.21875 25.484375 
L 43.21875 27.484375 
z
M 52.203125 31.203125 
L 52.203125 0 
L 43.21875 0 
L 43.21875 8.296875 
Q 40.140625 3.328125 35.546875 0.953125 
Q 30.953125 -1.421875 24.3125 -1.421875 
Q 15.921875 -1.421875 10.953125 3.296875 
Q 6 8.015625 6 15.921875 
Q 6 25.140625 12.171875 29.828125 
Q 18.359375 34.515625 30.609375 34.515625 
L 43.21875 34.515625 
L 43.21875 35.40625 
Q 43.21875 41.609375 39.140625 45 
Q 35.0625 48.390625 27.6875 48.390625 
Q 23 48.390625 18.546875 47.265625 
Q 14.109375 46.140625 10.015625 43.890625 
L 10.015625 52.203125 
Q 14.9375 54.109375 19.578125 55.046875 
Q 24.21875 56 28.609375 56 
Q 40.484375 56 46.34375 49.84375 
Q 52.203125 43.703125 52.203125 31.203125 
" id="BitstreamVeraSans-Roman-61"/>
      <path d="M 9.421875 75.984375 
L 18.40625 75.984375 
L 18.40625 0 
L 9.421875 0 
z
" id="BitstreamVeraSans-Roman-6c"/>
      <path d="M 31 75.875 
Q 24.46875 64.65625 21.28125 53.65625 
Q 18.109375 42.671875 18.109375 31.390625 
Q 18.109375 20.125 21.3125 9.0625 
Q 24.515625 -2 31 -13.1875 
L 23.1875 -13.1875 
Q 15.875 -1.703125 12.234375 9.375 
Q 8.59375 20.453125 8.59375 31.390625 
Q 8.59375 42.28125 12.203125 53.3125 
Q 15.828125 64.359375 23.1875 75.875 
z
" id="BitstreamVeraSans-Roman-28"/>
      <path d="M 45.40625 27.984375 
Q 45.40625 37.75 41.375 43.109375 
Q 37.359375 48.484375 30.078125 48.484375 
Q 22.859375 48.484375 18.828125 43.109375 
Q 14.796875 37.75 14.796875 27.984375 
Q 14.796875 18.265625 18.828125 12.890625 
Q 22.859375 7.515625 30.078125 7.515625 
Q 37.359375 7.515625 41.375 12.890625 
Q 45.40625 18.265625 45.40625 27.984375 
M 54.390625 6.78125 
Q 54.390625 -7.171875 48.1875 -13.984375 
Q 42 -20.796875 29.203125 -20.796875 
Q 24.46875 -20.796875 20.265625 -20.09375 
Q 16.0625 -19.390625 12.109375 -17.921875 
L 12.109375 -9.1875 
Q 16.0625 -11.328125 19.921875 -12.34375 
Q 23.78125 -13.375 27.78125 -13.375 
Q 36.625 -13.375 41.015625 -8.765625 
Q 45.40625 -4.15625 45.40625 5.171875 
L 45.40625 9.625 
Q 42.625 4.78125 38.28125 2.390625 
Q 33.9375 0 27.875 0 
Q 17.828125 0 11.671875 7.65625 
Q 5.515625 15.328125 5.515625 27.984375 
Q 5.515625 40.671875 11.671875 48.328125 
Q 17.828125 56 27.875 56 
Q 33.9375 56 38.28125 53.609375 
Q 42.625 51.21875 45.40625 46.390625 
L 45.40625 54.6875 
L 54.390625 54.6875 
z
" id="BitstreamVeraSans-Roman-67"/>
      <path d="M 41.109375 46.296875 
Q 39.59375 47.171875 37.8125 47.578125 
Q 36.03125 48 33.890625 48 
Q 26.265625 48 22.1875 43.046875 
Q 18.109375 38.09375 18.109375 28.8125 
L 18.109375 0 
L 9.078125 0 
L 9.078125 54.6875 
L 18.109375 54.6875 
L 18.109375 46.1875 
Q 20.953125 51.171875 25.484375 53.578125 
Q 30.03125 56 36.53125 56 
Q 37.453125 56 38.578125 55.875 
Q 39.703125 55.765625 41.0625 55.515625 
z
" id="BitstreamVeraSans-Roman-72"/>
      <path d="M 18.3125 70.21875 
L 18.3125 54.6875 
L 36.8125 54.6875 
L 36.8125 47.703125 
L 18.3125 47.703125 
L 18.3125 18.015625 
Q 18.3125 11.328125 20.140625 9.421875 
Q 21.96875 7.515625 27.59375 7.515625 
L 36.8125 7.515625 
L 36.8125 0 
L 27.59375 0 
Q 17.1875 0 13.234375 3.875 
Q 9.28125 7.765625 9.28125 18.015625 
L 9.28125 47.703125 
L 2.6875 47.703125 
L 2.6875 54.6875 
L 9.28125 54.6875 
L 9.28125 70.21875 
z
" id="BitstreamVeraSans-Roman-74"/>
     </defs>
     <g transform="translate(125.28 330.57225)scale(0.144 -0.144)">
      <use xlink:href="#BitstreamVeraSans-Roman-54"/>
      <use x="60.833984375" xlink:href="#BitstreamVeraSans-Roman-61"/>
      <use x="122.11328125" xlink:href="#BitstreamVeraSans-Roman-72"/>
      <use x="163.2109375" xlink:href="#BitstreamVeraSans-Roman-67"/>
      <use x="226.6875" xlink:href="#BitstreamVeraSans-Roman-65"/>
      <use x="288.2109375" xlink:href="#BitstreamVeraSans-Roman-74"/>
      <use x="327.419921875" xlink:href="#BitstreamVeraSans-Roman-20"/>
      <use x="359.20703125" xlink:href="#BitstreamVeraSans-Roman-28"/>
      <use x="398.220703125" xlink:href="#BitstreamVeraSans-Roman-6c"/>
      <use x="426.00390625" xlink:href="#BitstreamVeraSans-Roman-65"/>
      <use x="487.52734375" xlink:href="#BitstreamVeraSans-Roman-61"/>
      <use x="548.806640625" xlink:href="#BitstreamVeraSans-Roman-64"/>
      <use x="612.283203125" xlink:href="#BitstreamVeraSans-Roman-29"/>
      <use x="651.296875" xlink:href="#BitstreamVeraSans-Roman-20"/>
      <use x="683.083984375" xlink:href="#BitstreamVeraSans-Roman-73"/>
      <use x="735.18359375" xlink:href="#BitstreamVeraSans-Roman-70"/>
      <use x="798.66015625" xlink:href="#BitstreamVeraSans-Roman-65"/>
      <use x="860.18359375" xlink:href="#BitstreamVeraSans-Roman-65"/>
      <use x="921.70703125" xlink:href="#BitstreamVeraSans-Roman-64"/>
     </g>
    </g>
    <g id="line2d_57">
     <path d="M 89.28 346.66875 
L 109.44 346.66875 
" style="fill:none;stroke:#000000;stroke-linecap:square;"/>
    </g>
    <g id="line2d_58"/>
    <g id="text_21">
     <!-- Cruise speed -->
     <defs>
      <path d="M 8.5 21.578125 
L 8.5 54.6875 
L 17.484375 54.6875 
L 17.484375 21.921875 
Q 17.484375 14.15625 20.5 10.265625 
Q 23.53125 6.390625 29.59375 6.390625 
Q 36.859375 6.390625 41.078125 11.03125 
Q 45.3125 15.671875 45.3125 23.6875 
L 45.3125 54.6875 
L 54.296875 54.6875 
L 54.296875 0 
L 45.3125 0 
L 45.3125 8.40625 
Q 42.046875 3.421875 37.71875 1 
Q 33.40625 -1.421875 27.6875 -1.421875 
Q 18.265625 -1.421875 13.375 4.4375 
Q 8.5 10.296875 8.5 21.578125 
" id="BitstreamVeraSans-Roman-75"/>
      <path d="M 64.40625 67.28125 
L 64.40625 56.890625 
Q 59.421875 61.53125 53.78125 63.8125 
Q 48.140625 66.109375 41.796875 66.109375 
Q 29.296875 66.109375 22.65625 58.46875 
Q 16.015625 50.828125 16.015625 36.375 
Q 16.015625 21.96875 22.65625 14.328125 
Q 29.296875 6.6875 41.796875 6.6875 
Q 48.140625 6.6875 53.78125 8.984375 
Q 59.421875 11.28125 64.40625 15.921875 
L 64.40625 5.609375 
Q 59.234375 2.09375 53.4375 0.328125 
Q 47.65625 -1.421875 41.21875 -1.421875 
Q 24.65625 -1.421875 15.125 8.703125 
Q 5.609375 18.84375 5.609375 36.375 
Q 5.609375 53.953125 15.125 64.078125 
Q 24.65625 74.21875 41.21875 74.21875 
Q 47.75 74.21875 53.53125 72.484375 
Q 59.328125 70.75 64.40625 67.28125 
" id="BitstreamVeraSans-Roman-43"/>
     </defs>
     <g transform="translate(125.28 351.70875)scale(0.144 -0.144)">
      <use xlink:href="#BitstreamVeraSans-Roman-43"/>
      <use x="69.82421875" xlink:href="#BitstreamVeraSans-Roman-72"/>
      <use x="110.9375" xlink:href="#BitstreamVeraSans-Roman-75"/>
      <use x="174.31640625" xlink:href="#BitstreamVeraSans-Roman-69"/>
      <use x="202.099609375" xlink:href="#BitstreamVeraSans-Roman-73"/>
      <use x="254.19921875" xlink:href="#BitstreamVeraSans-Roman-65"/>
      <use x="315.72265625" xlink:href="#BitstreamVeraSans-Roman-20"/>
      <use x="347.509765625" xlink:href="#BitstreamVeraSans-Roman-73"/>
      <use x="399.609375" xlink:href="#BitstreamVeraSans-Roman-70"/>
      <use x="463.0859375" xlink:href="#BitstreamVeraSans-Roman-65"/>
      <use x="524.609375" xlink:href="#BitstreamVeraSans-Roman-65"/>
      <use x="586.1328125" xlink:href="#BitstreamVeraSans-Roman-64"/>
     </g>
    </g>
    <g id="line2d_59">
     <path d="M 89.28 367.80525 
L 109.44 367.80525 
" style="fill:none;stroke:#bf00bf;stroke-linecap:square;"/>
    </g>
    <g id="line2d_60"/>
    <g id="text_22">
     <!-- Lead speed -->
     <defs>
      <path d="M 9.8125 72.90625 
L 19.671875 72.90625 
L 19.671875 8.296875 
L 55.171875 8.296875 
L 55.171875 0 
L 9.8125 0 
z
" id="BitstreamVeraSans-Roman-4c"/>
     </defs>
     <g transform="translate(125.28 372.84525)scale(0.144 -0.144)">
      <use xlink:href="#BitstreamVeraSans-Roman-4c"/>
      <use x="55.697265625" xlink:href="#BitstreamVeraSans-Roman-65"/>
      <use x="117.220703125" xlink:href="#BitstreamVeraSans-Roman-61"/>
      <use x="178.5" xlink:href="#BitstreamVeraSans-Roman-64"/>
      <use x="241.9765625" xlink:href="#BitstreamVeraSans-Roman-20"/>
      <use x="273.763671875" xlink:href="#BitstreamVeraSans-Roman-73"/>
      <use x="325.86328125" xlink:href="#BitstreamVeraSans-Roman-70"/>
      <use x="389.33984375" xlink:href="#BitstreamVeraSans-Roman-65"/>
      <use x="450.86328125" xlink:href="#BitstreamVeraSans-Roman-65"/>
      <use x="512.38671875" xlink:href="#BitstreamVeraSans-Roman-64"/>
     </g>
    </g>
   </g>
  </g>
 </g>
 <defs>
  <clipPath id="p2f6a8c6dec">
   <rect height="345.6" width="446.4" x="72.0" y="43.2"/>
  </clipPath>
 </defs>
</svg>
